<svg width="24" height="24" viewBox="0 0 24 24" fill="none" xmlns="http://www.w3.org/2000/svg">
<path d="M16.6496 3.85986H9.90963V6.87986C9.90963 7.26986 9.58963 7.57986 9.20963 7.57986C8.82963 7.57986 8.50963 7.26986 8.50963 6.87986V3.85986H7.34963C3.39963 3.85986 2.09963 5.03986 2.00963 8.72986C1.99963 8.90986 2.07963 9.09986 2.20963 9.22986C2.33963 9.36986 2.50963 9.43986 2.70963 9.43986C4.10963 9.43986 5.25963 10.5999 5.25963 11.9999C5.25963 13.3999 4.10963 14.5599 2.70963 14.5599C2.51963 14.5599 2.33963 14.6299 2.20963 14.7699C2.07963 14.8999 1.99963 15.0899 2.00963 15.2699C2.09963 18.9599 3.39963 20.1399 7.34963 20.1399H8.50963V17.1199C8.50963 16.7299 8.82963 16.4199 9.20963 16.4199C9.58963 16.4199 9.90963 16.7299 9.90963 17.1199V20.1399H16.6496C20.7496 20.1399 21.9996 18.8899 21.9996 14.7899V9.20986C21.9996 5.10986 20.7496 3.85986 16.6496 3.85986ZM18.4696 11.8999L17.5396 12.7999C17.4996 12.8299 17.4896 12.8899 17.4996 12.9399L17.7196 14.2099C17.7596 14.4399 17.6696 14.6799 17.4696 14.8199C17.2796 14.9599 17.0296 14.9799 16.8196 14.8699L15.6696 14.2699C15.6296 14.2499 15.5696 14.2499 15.5296 14.2699L14.3796 14.8699C14.2896 14.9199 14.1896 14.9399 14.0896 14.9399C13.9596 14.9399 13.8396 14.8999 13.7296 14.8199C13.5396 14.6799 13.4396 14.4499 13.4796 14.2099L13.6996 12.9399C13.7096 12.8899 13.6896 12.8399 13.6596 12.7999L12.7296 11.8999C12.5596 11.7399 12.4996 11.4899 12.5696 11.2699C12.6396 11.0399 12.8296 10.8799 13.0696 10.8499L14.3496 10.6599C14.3996 10.6499 14.4396 10.6199 14.4696 10.5799L15.0396 9.41986C15.1496 9.20986 15.3596 9.07986 15.5996 9.07986C15.8396 9.07986 16.0496 9.20986 16.1496 9.41986L16.7196 10.5799C16.7396 10.6299 16.7796 10.6599 16.8296 10.6599L18.1096 10.8499C18.3496 10.8799 18.5396 11.0499 18.6096 11.2699C18.6996 11.4899 18.6396 11.7299 18.4696 11.8999Z" fill="#292D32"/>
</svg>
