<svg width="24" height="24" viewBox="0 0 24 24" fill="none" xmlns="http://www.w3.org/2000/svg">
<path d="M12 22.7203C6.09003 22.7203 1.28003 17.9103 1.28003 12.0003C1.28003 6.09027 6.09003 1.28027 12 1.28027C14.65 1.28027 17.19 2.26027 19.15 4.03027C21.42 6.04027 22.72 8.95027 22.72 12.0003C22.72 15.0503 21.42 17.9603 19.14 19.9803C17.19 21.7503 14.65 22.7203 12 22.7203ZM12 2.78027C6.91003 2.78027 2.78003 6.92027 2.78003 12.0003C2.78003 17.0803 6.92003 21.2203 12 21.2203C14.28 21.2203 16.46 20.3803 18.15 18.8503C20.11 17.1103 21.23 14.6203 21.23 11.9903C21.23 9.36027 20.11 6.87027 18.16 5.14027C16.46 3.62027 14.28 2.78027 12 2.78027Z" fill="#292D32"/>
<path d="M10.44 18.9104C10.07 18.9104 9.68003 18.8304 9.30003 18.6804C6.56003 17.5804 4.78003 14.9504 4.78003 12.0004C4.78003 9.05038 6.55003 6.42038 9.30003 5.32038C10.17 4.97038 11.05 5.02038 11.71 5.46038C12.35 5.89038 12.71 6.65038 12.73 7.60038V16.3904V16.4004C12.72 17.3504 12.36 18.1204 11.71 18.5404C11.34 18.7904 10.9 18.9104 10.44 18.9104ZM10.44 6.59038C10.26 6.59038 10.06 6.63038 9.86003 6.71038C7.68003 7.58038 6.28003 9.66038 6.28003 12.0004C6.28003 14.3404 7.68003 16.4204 9.86003 17.2904C10.26 17.4504 10.64 17.4504 10.88 17.3004C11.16 17.1104 11.22 16.7004 11.23 16.3904V7.61038C11.23 7.31038 11.16 6.89038 10.88 6.70038C10.76 6.63038 10.61 6.59038 10.44 6.59038Z" fill="#292D32"/>
</svg>
