<svg width="24" height="24" viewBox="0 0 24 24" fill="none" xmlns="http://www.w3.org/2000/svg">
<path d="M11.7 22.7503C11.6 22.7503 11.51 22.7503 11.41 22.7503C5.92997 22.6003 1.47998 17.8803 1.47998 12.2403V5.21027C1.47998 4.70027 1.77997 4.25026 2.24997 4.06026C2.71997 3.87026 3.24995 3.97027 3.60995 4.33027L18.44 19.1603C18.59 19.3103 18.67 19.5103 18.66 19.7203C18.65 19.9303 18.56 20.1203 18.4 20.2603C16.54 21.8703 14.17 22.7503 11.7 22.7503ZM2.97998 5.81026V12.2403C2.97998 17.0803 6.77998 21.1203 11.45 21.2503C13.38 21.2903 15.25 20.7303 16.78 19.6203L2.97998 5.81026Z" fill="black"/>
<path d="M21.2701 19.9001C20.9501 19.9001 20.6301 19.7701 20.3901 19.5301L5.69008 4.83008C5.54008 4.68008 5.46008 4.48008 5.47008 4.27008C5.48008 4.06008 5.57008 3.87007 5.73008 3.73007C7.64008 2.06007 10.1101 1.17008 12.6701 1.25008C18.1001 1.40008 22.5201 6.08007 22.5201 11.6801V18.6401C22.5201 19.1501 22.2201 19.6001 21.7501 19.7901C21.6001 19.8601 21.4401 19.9001 21.2701 19.9001ZM7.35008 4.37007L21.0301 18.0501V11.6901C21.0301 6.90008 17.2601 2.89007 12.6301 2.76007C10.7201 2.72007 8.87008 3.27007 7.35008 4.37007Z" fill="black"/>
</svg>
