<svg width="24" height="24" viewBox="0 0 24 24" fill="none" xmlns="http://www.w3.org/2000/svg">
<path d="M16.4201 6.42014V7.58014L9.14008 14.8601C8.18008 13.9901 7.58008 12.7101 7.58008 11.3401V6.42014C7.58008 4.36014 8.98008 2.65014 10.8801 2.16014C11.0701 2.11014 11.2501 2.27014 11.2501 2.46014V4.00014C11.2501 4.41014 11.5901 4.75014 12.0001 4.75014C12.4101 4.75014 12.7501 4.41014 12.7501 4.00014V2.46014C12.7501 2.27014 12.9301 2.11014 13.1201 2.16014C15.0201 2.65014 16.4201 4.36014 16.4201 6.42014Z" fill="#292D32"/>
<path d="M19.8098 9.81012V11.4001C19.8098 15.4701 16.6798 18.8201 12.6998 19.1701V21.3001C12.6998 21.6901 12.3898 22.0001 11.9998 22.0001C11.6098 22.0001 11.2998 21.6901 11.2998 21.3001V19.1701C10.2098 19.0701 9.17977 18.7501 8.25977 18.2401L9.28977 17.2101C10.1098 17.5901 11.0298 17.8101 11.9998 17.8101C15.5398 17.8101 18.4198 14.9301 18.4198 11.4001V9.81012C18.4198 9.43012 18.7298 9.12012 19.1198 9.12012C19.4998 9.12012 19.8098 9.43012 19.8098 9.81012Z" fill="#292D32"/>
<path d="M16.4202 10.0801V11.5301C16.4202 14.1101 14.2002 16.1801 11.5602 15.9301C11.2802 15.9001 11.0002 15.8501 10.7402 15.7601L16.4202 10.0801Z" fill="#292D32"/>
<path d="M21.7701 2.22988C21.4701 1.92988 20.9801 1.92988 20.6801 2.22988L7.23012 15.6799C6.20012 14.5499 5.58012 13.0499 5.58012 11.3999V9.80988C5.58012 9.42988 5.27012 9.11988 4.88012 9.11988C4.50012 9.11988 4.19012 9.42988 4.19012 9.80988V11.3999C4.19012 13.4299 4.97012 15.2799 6.24012 16.6699L2.22012 20.6899C1.92012 20.9899 1.92012 21.4799 2.22012 21.7799C2.38012 21.9199 2.57012 21.9999 2.77012 21.9999C2.97012 21.9999 3.16012 21.9199 3.31012 21.7699L21.7701 3.30988C22.0801 3.00988 22.0801 2.52988 21.7701 2.22988Z" fill="#292D32"/>
</svg>
