<svg width="24" height="24" viewBox="0 0 24 24" fill="none" xmlns="http://www.w3.org/2000/svg">
<path d="M15.96 21.3197C15.77 21.3197 15.58 21.2497 15.43 21.0997L13.91 19.5797C13.62 19.2897 13.62 18.8097 13.91 18.5197C14.2 18.2297 14.68 18.2297 14.97 18.5197L15.96 19.5097L18.47 16.9997C18.76 16.7097 19.24 16.7097 19.53 16.9997C19.82 17.2897 19.82 17.7697 19.53 18.0597L16.49 21.0997C16.34 21.2497 16.15 21.3197 15.96 21.3197Z" fill="#292D32"/>
<path d="M12.1601 11.62C12.1301 11.62 12.1101 11.62 12.0801 11.62C12.0301 11.61 11.9601 11.61 11.9001 11.62C9.00007 11.53 6.81007 9.25 6.81007 6.44C6.80007 5.06 7.34007 3.76 8.32007 2.78C9.30007 1.8 10.6001 1.25 11.9901 1.25C14.8501 1.25 17.1801 3.58 17.1801 6.44C17.1801 9.25 14.9901 11.52 12.1901 11.62C12.1801 11.62 12.1701 11.62 12.1601 11.62ZM11.9901 2.75C11.0001 2.75 10.0801 3.14 9.38007 3.83C8.69007 4.53 8.31007 5.45 8.31007 6.43C8.31007 8.43 9.87007 10.05 11.8601 10.11C11.9201 10.1 12.0501 10.1 12.1801 10.11C14.1501 10.02 15.6801 8.41 15.6801 6.43C15.6801 4.41 14.0201 2.75 11.9901 2.75Z" fill="#292D32"/>
<path d="M11.99 22.5597C9.95003 22.5597 8.02003 22.0297 6.56003 21.0497C5.17003 20.1197 4.41003 18.8497 4.41003 17.4797C4.41003 16.1097 5.18003 14.8497 6.56003 13.9297C9.55003 11.9297 14.41 11.9297 17.4 13.9297C17.74 14.1597 17.84 14.6297 17.61 14.9697C17.38 15.3197 16.91 15.4097 16.57 15.1797C14.08 13.5197 9.88003 13.5197 7.39003 15.1797C6.43003 15.8197 5.91003 16.6297 5.91003 17.4797C5.91003 18.3297 6.43003 19.1597 7.39003 19.7997C8.60003 20.6097 10.23 21.0497 11.98 21.0497C12.39 21.0497 12.73 21.3897 12.73 21.7997C12.73 22.2097 12.4 22.5597 11.99 22.5597Z" fill="#292D32"/>
</svg>
