<svg width="24" height="24" viewBox="0 0 24 24" fill="none" xmlns="http://www.w3.org/2000/svg">
<path d="M12 11.5303C9.24 11.5303 7 13.7703 7 16.5303C7 17.2703 7.16 17.9703 7.46 18.5903C7.54 18.7703 7.63 18.9403 7.73 19.1003C8.59 20.5503 10.18 21.5303 12 21.5303C13.82 21.5303 15.41 20.5503 16.27 19.1003C16.37 18.9403 16.46 18.7703 16.54 18.5903C16.84 17.9703 17 17.2703 17 16.5303C17 13.7703 14.76 11.5303 12 11.5303ZM14.07 16.1003L11.94 18.0703C11.8 18.2003 11.61 18.2703 11.43 18.2703C11.24 18.2703 11.05 18.2003 10.9 18.0503L9.91 17.0603C9.62 16.7703 9.62 16.2903 9.91 16.0003C10.2 15.7103 10.68 15.7103 10.97 16.0003L11.45 16.4803L13.05 15.0003C13.36 14.7203 13.83 14.7403 14.11 15.0403C14.39 15.3403 14.37 15.8103 14.07 16.1003Z" fill="#292D32"/>
<path d="M20.2003 17.0695C19.8403 17.3895 19.4503 17.6595 19.0303 17.8795C18.6703 18.0595 18.3103 17.7095 18.3703 17.3095C18.4103 17.0195 18.4303 16.7195 18.4303 16.4095C18.4303 12.8295 15.5103 9.90954 11.9303 9.90954C8.35032 9.90954 5.43031 12.8295 5.43031 16.4095C5.43031 16.8695 5.48031 17.3095 5.57031 17.7395C5.64031 18.0895 5.37031 18.4395 5.02031 18.3495C1.07031 17.3895 1.05031 11.3095 5.47031 10.9995H5.52031C2.31031 2.06954 15.8503 -1.50046 17.4003 7.87954C21.7303 8.42954 23.4803 14.1995 20.2003 17.0695Z" fill="#292D32"/>
</svg>
