<svg width="24" height="24" viewBox="0 0 24 24" fill="none" xmlns="http://www.w3.org/2000/svg">
<path d="M10.7497 4.64035L6.31973 2.45035C3.92973 1.28035 1.96973 2.47035 1.96973 5.09035V19.9303C1.96973 21.0703 2.91973 22.0003 4.07973 22.0003H11.4997C12.0497 22.0003 12.4997 21.5503 12.4997 21.0003V7.41035C12.4997 6.36035 11.7097 5.11035 10.7497 4.64035ZM8.96973 13.7503H5.49973C5.08973 13.7503 4.74973 13.4103 4.74973 13.0003C4.74973 12.5903 5.08973 12.2503 5.49973 12.2503H8.96973C9.37973 12.2503 9.71973 12.5903 9.71973 13.0003C9.71973 13.4103 9.38973 13.7503 8.96973 13.7503ZM8.96973 9.75035H5.49973C5.08973 9.75035 4.74973 9.41035 4.74973 9.00035C4.74973 8.59035 5.08973 8.25035 5.49973 8.25035H8.96973C9.37973 8.25035 9.71973 8.59035 9.71973 9.00035C9.71973 9.41035 9.38973 9.75035 8.96973 9.75035Z" fill="#292D32"/>
<path d="M22 18.04V19.5C22 20.88 20.88 22 19.5 22H14.97C14.43 22 14 21.57 14 21.03V18.87C15.07 19 16.2 18.69 17.01 18.04C17.69 18.59 18.56 18.92 19.51 18.92C20.44 18.92 21.31 18.59 22 18.04Z" fill="#292D32"/>
<path d="M22 15.05V15.06C21.92 16.37 20.85 17.42 19.51 17.42C18.12 17.42 17.01 16.29 17.01 14.92C17.01 16.45 15.6 17.68 14 17.37V12C14 11.36 14.59 10.88 15.22 11.02L17.01 11.42L17.49 11.53L19.53 11.99C20.02 12.09 20.47 12.26 20.86 12.51C20.86 12.52 20.87 12.52 20.87 12.52C20.97 12.59 21.07 12.67 21.16 12.76C21.62 13.22 21.92 13.89 21.99 14.87C21.99 14.93 22 14.99 22 15.05Z" fill="#292D32"/>
</svg>
