<svg width="24" height="24" viewBox="0 0 24 24" fill="none" xmlns="http://www.w3.org/2000/svg">
<path d="M18.6503 4.59027C16.8903 2.99027 14.5603 2.03027 12.0003 2.03027C6.50027 2.03027 2.03027 6.50027 2.03027 12.0003C2.03027 17.5003 6.50027 21.9703 12.0003 21.9703C14.5603 21.9703 16.8903 21.0103 18.6503 19.4103C20.6903 17.6003 21.9703 14.9403 21.9703 12.0003C21.9703 9.06027 20.6903 6.40027 18.6503 4.59027ZM11.9703 16.3903C11.9503 18.0403 10.7203 18.4403 9.57027 17.9803C7.20027 17.0303 5.53027 14.7103 5.53027 12.0003C5.53027 9.29027 7.20027 6.97027 9.57027 6.01027C10.7203 5.55027 11.9503 5.96027 11.9703 7.60027V16.3903Z" fill="#292D32"/>
</svg>
