<svg width="24" height="24" viewBox="0 0 24 24" fill="none" xmlns="http://www.w3.org/2000/svg">
<path d="M20.0496 10.6296L15.3796 8.61957L14.3396 8.17957C14.1796 8.09957 14.0396 7.88957 14.0396 7.70957V4.64957C14.0396 3.68957 13.3296 2.54957 12.4696 2.10957C12.1696 1.95957 11.8096 1.95957 11.5096 2.10957C10.6596 2.54957 9.94957 3.69957 9.94957 4.65957V7.71957C9.94957 7.89957 9.80957 8.10957 9.64957 8.18957L3.94957 10.6396C3.31957 10.8996 2.80957 11.6896 2.80957 12.3696V13.6896C2.80957 14.5396 3.44957 14.9596 4.23957 14.6196L9.24957 12.4596C9.63957 12.2896 9.95957 12.4996 9.95957 12.9296V14.0396V15.8396C9.95957 16.0696 9.82957 16.3996 9.66957 16.5596L7.34957 18.8896C7.10957 19.1296 6.99957 19.5996 7.10957 19.9396L7.55957 21.2996C7.73957 21.8896 8.40957 22.1696 8.95957 21.8896L11.3396 19.8896C11.6996 19.5796 12.2896 19.5796 12.6496 19.8896L15.0296 21.8896C15.5796 22.1596 16.2496 21.8896 16.4496 21.2996L16.8996 19.9396C17.0096 19.6096 16.8996 19.1296 16.6596 18.8896L14.3396 16.5596C14.1696 16.3996 14.0396 16.0696 14.0396 15.8396V12.9296C14.0396 12.4996 14.3496 12.2996 14.7496 12.4596L19.7596 14.6196C20.5496 14.9596 21.1896 14.5396 21.1896 13.6896V12.3696C21.1896 11.6896 20.6796 10.8996 20.0496 10.6296Z" fill="#292D32"/>
</svg>
