<svg width="24" height="24" viewBox="0 0 24 24" fill="none" xmlns="http://www.w3.org/2000/svg">
<path d="M22.0196 16.8198L18.8896 9.49978C18.3196 8.15978 17.4696 7.39978 16.4996 7.34978C15.5396 7.29978 14.6096 7.96978 13.8996 9.24978L11.9996 12.6598C11.5996 13.3798 11.0296 13.8098 10.4096 13.8598C9.77965 13.9198 9.14965 13.5898 8.63965 12.9398L8.41965 12.6598C7.70965 11.7698 6.82965 11.3398 5.92965 11.4298C5.02965 11.5198 4.25965 12.1398 3.74965 13.1498L2.01965 16.5998C1.39965 17.8498 1.45965 19.2998 2.18965 20.4798C2.91965 21.6598 4.18965 22.3698 5.57965 22.3698H18.3396C19.6796 22.3698 20.9296 21.6998 21.6696 20.5798C22.4296 19.4598 22.5497 18.0498 22.0196 16.8198Z" fill="#292D32"/>
<path d="M6.96984 8.38012C8.83657 8.38012 10.3498 6.86684 10.3498 5.00012C10.3498 3.13339 8.83657 1.62012 6.96984 1.62012C5.10312 1.62012 3.58984 3.13339 3.58984 5.00012C3.58984 6.86684 5.10312 8.38012 6.96984 8.38012Z" fill="#292D32"/>
</svg>
