<svg width="24" height="24" viewBox="0 0 24 24" fill="none" xmlns="http://www.w3.org/2000/svg">
<path d="M14.5386 1.87988C13.3086 1.87988 12.3086 2.87986 12.3086 4.10986V8.74988C12.3086 9.97988 13.3086 10.9799 14.5386 10.9799C15.7686 10.9799 16.7686 9.97988 16.7686 8.74988V4.10986C16.7686 2.88986 15.7686 1.87988 14.5386 1.87988Z" fill="black"/>
<path d="M20.1802 7.10986C19.1102 7.10986 18.2402 7.97987 18.2402 9.04987V10.6199C18.2402 10.8299 18.4102 10.9999 18.6202 10.9999H20.1902C21.2602 10.9999 22.1302 10.1299 22.1302 9.05988C22.1302 7.98988 21.2502 7.10986 20.1802 7.10986Z" fill="black"/>
<path d="M8.50085 6.99023H3.86086C2.63086 6.99023 1.63086 7.99025 1.63086 9.22025C1.63086 10.4502 2.63086 11.4503 3.86086 11.4503H8.50085C9.73085 11.4503 10.7309 10.4502 10.7309 9.22025C10.7309 7.99025 9.73085 6.99023 8.50085 6.99023Z" fill="black"/>
<path d="M8.7896 1.62012C7.7196 1.62012 6.84961 2.49012 6.84961 3.56012C6.84961 4.63012 7.7196 5.50012 8.7896 5.50012H10.3596C10.5696 5.50012 10.7396 5.33012 10.7396 5.12012V3.55011C10.7296 2.50011 9.8596 1.62012 8.7896 1.62012Z" fill="black"/>
<path d="M9.42921 13.0298C8.19921 13.0298 7.19922 14.0298 7.19922 15.2598V19.8998C7.19922 21.1298 8.19921 22.1298 9.42921 22.1298C10.6592 22.1298 11.6592 21.1298 11.6592 19.8998V15.2598C11.6592 14.0298 10.6592 13.0298 9.42921 13.0298Z" fill="black"/>
<path d="M5.3596 13.0303H3.7896C2.7196 13.0303 1.84961 13.9003 1.84961 14.9703C1.84961 16.0403 2.7196 16.9103 3.7896 16.9103C4.8596 16.9103 5.7296 16.0403 5.7296 14.9703V13.4003C5.7296 13.2003 5.5596 13.0303 5.3596 13.0303Z" fill="black"/>
<path d="M20.1102 12.5698H15.4702C14.2402 12.5698 13.2402 13.5698 13.2402 14.7998C13.2402 16.0298 14.2402 17.0298 15.4702 17.0298H20.1102C21.3402 17.0298 22.3402 16.0298 22.3402 14.7998C22.3402 13.5698 21.3402 12.5698 20.1102 12.5698Z" fill="black"/>
<path d="M15.1805 18.4697H13.6105C13.4005 18.4697 13.2305 18.6397 13.2305 18.8497V20.4197C13.2305 21.4897 14.1005 22.3597 15.1705 22.3597C16.2405 22.3597 17.1105 21.4897 17.1105 20.4197C17.1205 19.3397 16.2505 18.4697 15.1805 18.4697Z" fill="black"/>
</svg>
