<svg width="24" height="24" viewBox="0 0 24 24" fill="none" xmlns="http://www.w3.org/2000/svg">
<path d="M16.65 20.7498C16.64 20.7498 16.62 20.7498 16.61 20.7498C16.2 20.7498 15.86 20.4098 15.87 19.9898C15.87 19.5798 16.21 19.2498 16.62 19.2498C16.63 19.2498 16.65 19.2498 16.66 19.2498C17.8 19.2498 18.89 18.8298 19.73 18.0498C21.28 16.6898 21.39 14.7498 20.97 13.3798C20.55 12.0098 19.39 10.4598 17.36 10.1998C17.03 10.1598 16.77 9.90977 16.71 9.57977C16.31 7.18977 15.02 5.53977 13.08 4.93977C11.06 4.31977 8.72997 4.92977 7.26997 6.45977C5.84997 7.94977 5.51997 10.0198 6.33997 12.3098C6.47997 12.6998 6.27997 13.1298 5.88997 13.2698C5.49997 13.4098 5.06997 13.2098 4.92997 12.8198C3.91997 10.0098 4.37997 7.31977 6.18997 5.42977C8.03997 3.49977 10.98 2.72977 13.53 3.51977C15.86 4.23977 17.51 6.15977 18.1 8.81977C20.14 9.27977 21.77 10.8198 22.42 12.9498C23.13 15.2698 22.48 17.6498 20.75 19.1698C19.61 20.1898 18.16 20.7498 16.65 20.7498Z" fill="#292D32"/>
<path d="M5.57002 20.75C5.55002 20.75 5.53002 20.75 5.52002 20.75C2.64002 20.55 1.33002 18.29 1.33002 16.28C1.33002 14.27 2.64002 12.02 5.52002 11.81C6.26002 11.8 6.99002 11.97 7.63002 12.29C8.00002 12.48 8.14002 12.93 7.96002 13.3C7.77002 13.67 7.32002 13.81 6.95002 13.63C6.53002 13.41 6.05002 13.32 5.59002 13.31C3.70002 13.45 2.84002 14.9 2.84002 16.28C2.84002 17.66 3.70002 19.11 5.64002 19.25C6.05002 19.28 6.36002 19.64 6.33002 20.05C6.29002 20.45 5.96002 20.75 5.57002 20.75Z" fill="#292D32"/>
<path d="M15.82 10.6397C15.55 10.6397 15.28 10.4897 15.15 10.2197C14.96 9.84973 15.11 9.39973 15.49 9.20973C16.1 8.89973 16.79 8.72973 17.47 8.71973C17.85 8.73973 18.23 9.03973 18.23 9.45973C18.24 9.86973 17.91 10.2197 17.49 10.2197C17.03 10.2297 16.57 10.3397 16.15 10.5497C16.05 10.6197 15.93 10.6397 15.82 10.6397Z" fill="#292D32"/>
<path d="M7.96997 22.7504C7.77997 22.7504 7.58997 22.6804 7.43997 22.5304C7.14997 22.2404 7.14997 21.7604 7.43997 21.4704L9.43997 19.4704C9.72997 19.1804 10.21 19.1804 10.5 19.4704C10.79 19.7604 10.79 20.2404 10.5 20.5304L8.49997 22.5304C8.35997 22.6804 8.16997 22.7504 7.96997 22.7504Z" fill="#292D32"/>
<path d="M11.97 22.7504C11.78 22.7504 11.59 22.6804 11.44 22.5304C11.15 22.2404 11.15 21.7604 11.44 21.4704L13.44 19.4704C13.73 19.1804 14.21 19.1804 14.5 19.4704C14.79 19.7604 14.79 20.2404 14.5 20.5304L12.5 22.5304C12.36 22.6804 12.17 22.7504 11.97 22.7504Z" fill="#292D32"/>
<path d="M11.97 18.7504C11.78 18.7504 11.59 18.6804 11.44 18.5304C11.15 18.2404 11.15 17.7604 11.44 17.4704L13.44 15.4704C13.73 15.1804 14.21 15.1804 14.5 15.4704C14.79 15.7604 14.79 16.2404 14.5 16.5304L12.5 18.5304C12.36 18.6804 12.17 18.7504 11.97 18.7504Z" fill="#292D32"/>
<path d="M7.96997 18.7504C7.77997 18.7504 7.58997 18.6804 7.43997 18.5304C7.14997 18.2404 7.14997 17.7604 7.43997 17.4704L9.43997 15.4704C9.72997 15.1804 10.21 15.1804 10.5 15.4704C10.79 15.7604 10.79 16.2404 10.5 16.5304L8.49997 18.5304C8.35997 18.6804 8.16997 18.7504 7.96997 18.7504Z" fill="#292D32"/>
</svg>
