<svg width="24" height="24" viewBox="0 0 24 24" fill="none" xmlns="http://www.w3.org/2000/svg">
<path d="M17.8206 8.69955C18.5306 8.30955 19.4006 8.81955 19.3906 9.62955L19.3505 15.0496C19.3405 15.8696 18.4506 16.3695 17.7506 15.9495L13.0706 13.1495C12.3706 12.7295 12.3905 11.7096 13.1005 11.3196L17.8206 8.69955Z" fill="black"/>
<path d="M19.2505 6.27968C19.4005 6.65968 19.1705 7.04968 18.8105 7.24968L13.1805 10.3597C12.3805 10.7997 11.4405 10.0897 11.6405 9.20968L12.8605 3.67967C13.0105 2.97967 13.8005 2.63968 14.4205 2.98968L18.3405 5.22967C18.7705 5.47967 19.0805 5.84968 19.2505 6.27968Z" fill="black"/>
<path d="M12.0096 2.6697L9.93964 11.9697C9.90964 12.1097 9.90964 12.2597 9.93964 12.4097L11.6696 21.0897C11.7896 21.6897 11.2797 22.2597 10.7797 21.8897L5.48962 18.1197C4.92962 17.7197 4.59961 17.0797 4.59961 16.3997V7.0897C4.59961 6.3297 4.99962 5.6297 5.66962 5.2497L10.9597 2.23971C11.1097 2.14971 11.2696 2.0897 11.4296 2.0397C11.8096 1.9097 12.0896 2.2897 12.0096 2.6697Z" fill="black"/>
<path d="M17.6289 16.8097C18.2789 17.1997 18.3189 18.1298 17.7089 18.5698L14.2389 21.0897C13.6189 21.5397 12.7289 21.1997 12.5789 20.4397L11.5589 15.2398C11.3789 14.3398 12.3489 13.6597 13.1389 14.1297L17.6289 16.8097Z" fill="black"/>
</svg>
