<svg width="24" height="24" viewBox="0 0 24 24" fill="none" xmlns="http://www.w3.org/2000/svg">
<path d="M12.4997 5.48027C12.5797 5.48027 12.6597 5.48027 12.7497 5.49027V2.53027C12.7497 2.12027 12.4097 1.78027 11.9997 1.78027C11.5897 1.78027 11.2497 2.12027 11.2497 2.53027V5.49027C11.3297 5.48027 11.4097 5.48027 11.4997 5.48027C6.88973 5.71027 3.21973 9.51027 3.21973 14.1803V16.1203C3.21973 17.2203 4.11973 18.1203 5.21973 18.1203H18.7797C19.8797 18.1203 20.7797 17.2203 20.7797 16.1203V14.1803C20.7797 9.51027 17.1097 5.71027 12.4997 5.48027Z" fill="#292D32"/>
<path d="M14.7301 19.1099C15.0601 19.1099 15.3001 19.4199 15.2201 19.7399C14.8401 21.1699 13.5401 22.2199 12.0001 22.2199C10.4601 22.2199 9.16013 21.1699 8.78013 19.7399C8.70013 19.4199 8.94013 19.1099 9.27013 19.1099H14.7301Z" fill="#292D32"/>
</svg>
