<svg width="24" height="24" viewBox="0 0 24 24" fill="none" xmlns="http://www.w3.org/2000/svg">
<path d="M21.98 15.65C21.16 14.64 19.91 14 18.5 14C17.44 14 16.46 14.37 15.69 14.99C14.65 15.81 14 17.08 14 18.5C14 19.34 14.24 20.14 14.65 20.82C14.92 21.27 15.26 21.66 15.66 21.98H15.67C16.44 22.62 17.43 23 18.5 23C19.64 23 20.67 22.58 21.46 21.88C21.81 21.58 22.11 21.22 22.35 20.82C22.76 20.14 23 19.34 23 18.5C23 17.42 22.62 16.42 21.98 15.65ZM20.76 17.94L18.36 20.16C18.22 20.29 18.03 20.36 17.85 20.36C17.66 20.36 17.47 20.29 17.32 20.14L16.21 19.03C15.92 18.74 15.92 18.26 16.21 17.97C16.5 17.68 16.98 17.68 17.27 17.97L17.87 18.57L19.74 16.84C20.04 16.56 20.52 16.58 20.8 16.88C21.09 17.19 21.07 17.66 20.76 17.94Z" fill="#292D32"/>
<path d="M14.7295 5.86V2.5C14.7295 2.22 14.5095 2 14.2295 2H9.76953C9.48953 2 9.26953 2.22 9.26953 2.5V5.86C9.26953 6.14 9.48953 6.36 9.76953 6.36H14.2295C14.5095 6.36 14.7295 6.14 14.7295 5.86Z" fill="#292D32"/>
<path d="M7.25047 2.02021C4.69047 2.18021 2.94047 3.50021 2.29047 5.70021C2.19047 6.03021 2.43047 6.36021 2.77047 6.36021H7.27047C7.55047 6.36021 7.77047 6.14021 7.77047 5.86021V2.52021C7.77047 2.24021 7.53047 2.00021 7.25047 2.02021Z" fill="#292D32"/>
<path d="M16.7505 2.00996C19.3105 2.16996 21.0605 3.48996 21.7105 5.68996C21.8105 6.01996 21.5705 6.34996 21.2305 6.34996H16.7305C16.4505 6.34996 16.2305 6.12996 16.2305 5.84996V2.50996C16.2305 2.22996 16.4705 1.98996 16.7505 2.00996Z" fill="#292D32"/>
<path d="M22 8.35986V12.7399C22 13.1099 21.61 13.3499 21.28 13.1799C20.44 12.7399 19.48 12.4999 18.5 12.4999C16.89 12.4999 15.32 13.1599 14.2 14.3099C13.1 15.4299 12.5 16.9199 12.5 18.4999C12.5 19.3099 12.82 20.3499 13.22 21.2199C13.38 21.5699 13.14 21.9999 12.75 21.9999H7.81C4.6 21.9999 2 19.3999 2 16.1899V8.35986C2 8.07986 2.22 7.85986 2.5 7.85986H21.5C21.78 7.85986 22 8.07986 22 8.35986Z" fill="#292D32"/>
</svg>
