<svg width="24" height="24" viewBox="0 0 24 24" fill="none" xmlns="http://www.w3.org/2000/svg">
<path opacity="0.13" d="M10.8698 14L12.7998 17.33L10.8799 20.66H6.99985L5.08984 17.35L7.02985 14H10.8698Z" fill="black"/>
<path d="M10.5396 14.0801H7.11959C6.93959 14.0801 6.7796 14.1801 6.6896 14.3301L4.97961 17.2901C4.88961 17.4401 4.88961 17.6401 4.97961 17.7901L6.6896 20.7501C6.7796 20.9001 6.93959 21.0001 7.11959 21.0001H10.5396C10.7196 21.0001 10.8796 20.9001 10.9696 20.7501L12.6796 17.7901C12.7696 17.6401 12.7696 17.4401 12.6796 17.2901L10.9696 14.3301C10.8796 14.1701 10.7196 14.0801 10.5396 14.0801Z" fill="black"/>
<path d="M22.2401 11.7402C22.3301 11.9002 22.3301 12.1002 22.2401 12.2602L17.3102 20.7902C17.2402 20.9202 17.1002 21.0002 16.9502 21.0002C16.6302 21.0002 16.4302 20.6502 16.5902 20.3802L19.8802 14.6802C19.9702 14.5202 19.9702 14.3202 19.8802 14.1602L15.4802 6.54024C15.3902 6.38024 15.2202 6.28024 15.0302 6.28024H6.22016C6.03016 6.28024 5.87014 6.38024 5.77014 6.54024L2.50016 12.2202C2.33016 12.5202 1.90016 12.5202 1.72016 12.2202C1.64016 12.0802 1.64016 11.9102 1.72016 11.7702L6.64017 3.25024C6.72017 3.09024 6.90015 2.99023 7.09015 2.99023H16.8802C17.0702 2.99023 17.2301 3.09024 17.3301 3.25024L22.2401 11.7402Z" fill="black"/>
<path d="M18.089 14.6801L14.589 20.7401C14.499 20.9001 14.3291 21.0001 14.1391 21.0001H13.5391C13.1391 21.0001 12.889 20.5701 13.089 20.2201L14.489 17.8001C14.579 17.6401 14.579 17.4401 14.489 17.2801L11.8891 12.7801C11.7891 12.6201 11.6091 12.5201 11.4191 12.5201H6.21905C6.02905 12.5201 5.86904 12.6201 5.76904 12.7801L4.36904 15.2001C4.16904 15.5501 3.66905 15.5501 3.46905 15.2001L3.16906 14.6901C3.07906 14.5301 3.07906 14.3301 3.16906 14.1701L6.65905 8.1101C6.74905 7.9501 6.91903 7.8501 7.10903 7.8501H14.0991C14.2891 7.8501 14.449 7.9501 14.549 8.1101L18.049 14.1701C18.169 14.3201 18.169 14.5301 18.089 14.6801Z" fill="black"/>
</svg>
