<svg width="24" height="24" viewBox="0 0 24 24" fill="none" xmlns="http://www.w3.org/2000/svg">
<path d="M17.6005 5.30979L11.9505 2.26979C11.3505 1.94979 10.6405 1.94979 10.0405 2.26979L4.40047 5.30979C3.99047 5.53979 3.73047 5.97978 3.73047 6.45978C3.73047 6.94979 3.98047 7.38979 4.40047 7.60979L10.0505 10.6498C10.3505 10.8098 10.6805 10.8898 11.0005 10.8898C11.3205 10.8898 11.6605 10.8098 11.9505 10.6498L17.6005 7.60979C18.0105 7.38979 18.2705 6.94979 18.2705 6.45978C18.2705 5.97978 18.0105 5.53979 17.6005 5.30979Z" fill="#292D32"/>
<path d="M9.12 11.7096L3.87 9.0896C3.46 8.8796 3 8.9096 2.61 9.1396C2.23 9.3796 2 9.7896 2 10.2396V15.1996C2 16.0596 2.48 16.8296 3.25 17.2196L8.5 19.8396C8.68 19.9296 8.88 19.9796 9.08 19.9796C9.31 19.9796 9.55 19.9096 9.76 19.7896C10.14 19.5496 10.37 19.1396 10.37 18.6896V13.7296C10.36 12.8696 9.88 12.0996 9.12 11.7096Z" fill="#292D32"/>
<path d="M19.9996 10.2396V12.6996C19.5196 12.5596 19.0096 12.4996 18.4996 12.4996C17.1396 12.4996 15.8096 12.9696 14.7596 13.8096C13.3196 14.9396 12.4996 16.6496 12.4996 18.4996C12.4996 18.9896 12.5596 19.4796 12.6896 19.9496C12.5396 19.9296 12.3896 19.8696 12.2496 19.7796C11.8696 19.5496 11.6396 19.1396 11.6396 18.6896V13.7296C11.6396 12.8696 12.1196 12.0996 12.8796 11.7096L18.1296 9.0896C18.5396 8.8796 18.9996 8.9096 19.3896 9.1396C19.7696 9.3796 19.9996 9.7896 19.9996 10.2396Z" fill="#292D32"/>
<path d="M21.6804 15.3197C20.7904 14.4297 19.6104 13.9797 18.4404 13.9997C17.3104 14.0097 16.1804 14.4597 15.3204 15.3197C14.7204 15.9097 14.3304 16.6497 14.1404 17.4197C14.0304 17.8397 13.9904 18.2697 14.0204 18.6997V18.7497C14.0204 18.8197 14.0304 18.8797 14.0404 18.9597C14.0404 18.9597 14.0404 18.9597 14.0504 18.9697V18.9997C14.1404 19.9797 14.5604 20.9297 15.3204 21.6797C16.4804 22.8397 18.1104 23.2297 19.5804 22.8597C20.0204 22.7497 20.4504 22.5697 20.8504 22.3297C21.1504 22.1597 21.4304 21.9397 21.6804 21.6797C22.4304 20.9297 22.8604 19.9797 22.9504 18.9897C22.9604 18.9897 22.9604 18.9697 22.9604 18.9597C22.9804 18.8897 22.9804 18.8097 22.9804 18.7397C22.9804 18.7297 22.9904 18.7097 22.9904 18.6897C23.0504 17.4797 22.6104 16.2397 21.6804 15.3197ZM20.2304 20.2097C19.9404 20.4997 19.4704 20.4997 19.1704 20.2097L18.5104 19.5497L17.8304 20.2297C17.5304 20.5297 17.0604 20.5297 16.7704 20.2297C16.4704 19.9397 16.4704 19.4697 16.7704 19.1697L17.4504 18.4897L16.7904 17.8297C16.5004 17.5297 16.5004 17.0597 16.7904 16.7697C17.0904 16.4697 17.5604 16.4697 17.8604 16.7697L18.5104 17.4297L19.1404 16.7897C19.4404 16.4997 19.9104 16.4997 20.2104 16.7897C20.5004 17.0897 20.5004 17.5597 20.2104 17.8597L19.5704 18.4897L20.2304 19.1397C20.5304 19.4397 20.5304 19.9097 20.2304 20.2097Z" fill="#292D32"/>
</svg>
