<svg width="24" height="24" viewBox="0 0 24 24" fill="none" xmlns="http://www.w3.org/2000/svg">
<path d="M5.94062 16.7698L4.28065 19.5898C4.16065 19.7998 3.85059 19.7998 3.72059 19.5898L2.03065 16.7698C1.90065 16.5498 2.06062 16.2798 2.31062 16.2798H5.66059C5.91059 16.2798 6.06062 16.5598 5.94062 16.7698Z" fill="black"/>
<path d="M11.6904 8.40991L7.7404 14.8799C7.6504 15.0299 7.49041 15.1099 7.32041 15.1099H2.25041C1.87041 15.1099 1.63041 14.7099 1.82041 14.3899L8.28043 3.72992C8.47043 3.41992 8.94041 3.40992 9.13041 3.72992L11.6904 7.93991C11.7804 8.07991 11.7804 8.25991 11.6904 8.40991Z" fill="black"/>
<path d="M13.721 14.4902H10.241C10.041 14.4902 9.91104 14.2702 10.011 14.0902L11.751 11.1402C11.851 10.9702 12.101 10.9702 12.201 11.1402L13.941 14.0902C14.051 14.2702 13.921 14.4902 13.721 14.4902Z" fill="black"/>
<path d="M13.6614 3.39999L12.2114 5.87C12.1114 6.04 11.8514 6.04 11.7514 5.87L10.3014 3.39999C10.2014 3.21999 10.3215 3 10.5315 3H13.4314C13.6414 3 13.7614 3.21999 13.6614 3.39999Z" fill="black"/>
<path d="M22.1695 14.3699C22.3695 14.6999 22.1195 15.1199 21.7395 15.1199H16.8695C16.6995 15.1199 16.5495 15.0299 16.4595 14.8899L12.6495 8.41992C12.5595 8.26992 12.5595 8.08991 12.6495 7.93991L15.1195 3.72992C15.2995 3.41992 15.7595 3.40992 15.9395 3.72992C17.1595 5.83992 20.8895 12.1799 22.1695 14.3699Z" fill="black"/>
<path d="M21.9307 16.77C21.3807 17.7 20.7907 18.7 20.2507 19.61C20.1207 19.83 19.8107 19.82 19.6807 19.6L18.0207 16.77C17.8907 16.55 18.0507 16.27 18.3107 16.27H21.6407C21.9007 16.28 22.0607 16.55 21.9307 16.77Z" fill="black"/>
<path d="M18.0207 20.9999H5.94068C5.58068 20.9999 5.36065 20.6099 5.54065 20.2999L7.87067 16.3399C7.95067 16.1999 8.10069 16.1099 8.27069 16.1099H15.6907C15.8507 16.1099 16.0107 16.1999 16.0907 16.3399L18.4207 20.2999C18.6007 20.6099 18.3807 20.9999 18.0207 20.9999Z" fill="black"/>
</svg>
