<svg width="24" height="24" viewBox="0 0 24 24" fill="none" xmlns="http://www.w3.org/2000/svg">
<path d="M22.5304 13.4202L21.0804 11.9702L22.4804 10.5702C22.7704 10.2802 22.7704 9.80018 22.4804 9.51018C22.1904 9.22018 21.7104 9.22018 21.4204 9.51018L20.0204 10.9102L18.5704 9.46018C18.2804 9.17018 17.8004 9.17018 17.5104 9.46018C17.2204 9.75018 17.2204 10.2302 17.5104 10.5202L18.9604 11.9702L17.4704 13.4602C17.1804 13.7502 17.1804 14.2302 17.4704 14.5202C17.6204 14.6702 17.8104 14.7402 18.0004 14.7402C18.1904 14.7402 18.3804 14.6702 18.5304 14.5202L20.0204 13.0302L21.4704 14.4802C21.6204 14.6302 21.8104 14.7002 22.0004 14.7002C22.1904 14.7002 22.3804 14.6302 22.5304 14.4802C22.8204 14.1902 22.8204 13.7202 22.5304 13.4202Z" fill="#292D32"/>
<path d="M14.02 3.78021C12.9 3.16021 11.47 3.32021 10.01 4.23021L7.09 6.06021C6.89 6.18021 6.66 6.25021 6.43 6.25021H5.5H5C2.58 6.25021 1.25 7.58021 1.25 10.0002V14.0002C1.25 16.4202 2.58 17.7502 5 17.7502H5.5H6.43C6.66 17.7502 6.89 17.8202 7.09 17.9402L10.01 19.7702C10.89 20.3202 11.75 20.5902 12.55 20.5902C13.07 20.5902 13.57 20.4702 14.02 20.2202C15.13 19.6002 15.75 18.3102 15.75 16.5902V7.41021C15.75 5.69021 15.13 4.40021 14.02 3.78021Z" fill="#292D32"/>
</svg>
