<svg width="24" height="24" viewBox="0 0 24 24" fill="none" xmlns="http://www.w3.org/2000/svg">
<path d="M20.8603 8.56028L13.9303 3.02028C12.8603 2.16028 11.1303 2.16028 10.0703 3.01028L3.14027 8.56028C2.36027 9.18028 1.86027 10.4903 2.03027 11.4703L3.36027 19.4303C3.60027 20.8503 4.96027 22.0003 6.40027 22.0003H17.6003C19.0303 22.0003 20.4003 20.8403 20.6403 19.4303L21.9703 11.4703C22.1303 10.4903 21.6303 9.18028 20.8603 8.56028ZM9.38027 17.3803C8.82027 17.3803 8.38027 16.9303 8.38027 16.3803C8.38027 15.8303 8.83027 15.3803 9.38027 15.3803C9.93027 15.3803 10.3803 15.8303 10.3803 16.3803C10.3803 16.9303 9.93027 17.3803 9.38027 17.3803ZM12.3903 17.1203C12.3803 17.1203 12.3803 17.1203 12.3703 17.1203C11.9603 17.1203 11.6303 16.7903 11.6203 16.3903C11.5903 15.0403 10.7003 14.1503 9.35027 14.1203C8.94027 14.1103 8.61026 13.7703 8.62027 13.3503C8.63027 12.9403 8.96027 12.6203 9.37027 12.6203C9.38027 12.6203 9.38027 12.6203 9.39027 12.6203C11.5403 12.6703 13.0803 14.2003 13.1203 16.3503C13.1303 16.7703 12.8103 17.1203 12.3903 17.1203ZM15.3803 17.1203C14.9603 17.1203 14.6303 16.7903 14.6203 16.3803C14.6103 15.7203 14.5003 15.0903 14.3003 14.5003C13.7903 13.0403 12.7003 11.9603 11.2403 11.4403C10.6503 11.2303 10.0203 11.1203 9.36026 11.1203C8.95026 11.1203 8.61026 10.7803 8.62027 10.3603C8.62027 9.95028 8.96027 9.62028 9.37027 9.62028H9.38027C10.2103 9.63028 11.0003 9.77028 11.7403 10.0303C13.6303 10.7003 15.0403 12.1103 15.7103 14.0003C15.9703 14.7403 16.1103 15.5403 16.1203 16.3603C16.1303 16.7803 15.8003 17.1203 15.3803 17.1203Z" fill="#292D32"/>
</svg>
