<svg width="24" height="24" viewBox="0 0 24 24" fill="none" xmlns="http://www.w3.org/2000/svg">
<path d="M6.90012 9.10012L11.6701 6.98012C11.8801 6.89012 12.1201 6.89012 12.3201 6.98012L17.0901 9.10012C17.5101 9.29012 17.9001 8.78012 17.6101 8.42012L12.6101 2.31012C12.2701 1.89012 11.7101 1.89012 11.3701 2.31012L6.37009 8.42012C6.09009 8.78012 6.48012 9.29012 6.90012 9.10012Z" fill="black"/>
<path d="M6.8986 14.9L11.6786 17.02C11.8886 17.11 12.1286 17.11 12.3286 17.02L17.1086 14.9C17.5286 14.71 17.9186 15.22 17.6286 15.58L12.6286 21.69C12.2886 22.11 11.7286 22.11 11.3886 21.69L6.38859 15.58C6.08859 15.22 6.4686 14.71 6.8986 14.9Z" fill="black"/>
<path d="M11.7786 9.49L7.64859 11.55C7.27859 11.73 7.27859 12.26 7.64859 12.44L11.7786 14.5C11.9186 14.57 12.0886 14.57 12.2285 14.5L16.3586 12.44C16.7286 12.26 16.7286 11.73 16.3586 11.55L12.2285 9.49C12.0785 9.42 11.9186 9.42 11.7786 9.49Z" fill="black"/>
</svg>
