<svg width="24" height="24" viewBox="0 0 24 24" fill="none" xmlns="http://www.w3.org/2000/svg">
<path d="M12 12.25C10.48 12.25 9.25 11.02 9.25 9.5C9.25 7.98 10.48 6.75 12 6.75C13.52 6.75 14.75 7.98 14.75 9.5C14.75 11.02 13.52 12.25 12 12.25ZM12 8.25C11.31 8.25 10.75 8.81 10.75 9.5C10.75 10.19 11.31 10.75 12 10.75C12.69 10.75 13.25 10.19 13.25 9.5C13.25 8.81 12.69 8.25 12 8.25Z" fill="black"/>
<path d="M11.99 14.7195C11.19 14.7195 10.39 14.5396 9.65999 14.1696C9.28999 13.9796 9.14003 13.5295 9.33003 13.1595C9.51003 12.7895 9.96004 12.6395 10.34 12.8295C11.38 13.3495 12.62 13.3495 13.66 12.8295C14.02 12.6495 14.48 12.7895 14.66 13.1495C14.85 13.5095 14.72 13.9595 14.36 14.1495C13.61 14.5295 12.8 14.7195 11.99 14.7195Z" fill="black"/>
<path d="M14.0001 17.2502C13.7801 17.2502 13.56 17.1502 13.41 16.9702L12.0001 15.1902L10.5901 16.9702C10.3401 17.2902 9.86003 17.3502 9.54003 17.0902C9.22003 16.8302 9.16004 16.3602 9.42004 16.0402L11.42 13.5102C11.7 13.1502 12.31 13.1502 12.6 13.5102L14.6 16.0402C14.86 16.3702 14.8 16.8402 14.48 17.0902C14.33 17.2002 14.1601 17.2502 14.0001 17.2502Z" fill="black"/>
<path d="M12 22.75C6.07 22.75 1.25 17.93 1.25 12C1.25 6.07 6.07 1.25 12 1.25C17.93 1.25 22.75 6.07 22.75 12C22.75 17.93 17.93 22.75 12 22.75ZM12 2.75C6.9 2.75 2.75 6.9 2.75 12C2.75 17.1 6.9 21.25 12 21.25C17.1 21.25 21.25 17.1 21.25 12C21.25 6.9 17.1 2.75 12 2.75Z" fill="black"/>
</svg>
