<svg width="24" height="24" viewBox="0 0 24 24" fill="none" xmlns="http://www.w3.org/2000/svg">
<path d="M16.65 20.7498C16.64 20.7498 16.62 20.7498 16.61 20.7498C16.2 20.7498 15.86 20.4098 15.87 19.9898C15.87 19.5798 16.22 19.2098 16.63 19.2498C17.79 19.2498 18.89 18.8298 19.74 18.0498C21.29 16.6898 21.4 14.7498 20.98 13.3798C20.56 12.0098 19.39 10.4598 17.37 10.1998C17.04 10.1598 16.78 9.90977 16.72 9.57977C16.33 7.18977 15.03 5.53977 13.09 4.93977C11.07 4.31977 8.73998 4.92977 7.27998 6.45977C5.85998 7.94977 5.52998 10.0198 6.34998 12.3098C6.48998 12.6998 6.28998 13.1298 5.89998 13.2698C5.50998 13.4098 5.07998 13.2098 4.93998 12.8198C3.92998 10.0098 4.38998 7.31977 6.19998 5.42977C8.04998 3.49977 10.99 2.72977 13.54 3.51977C15.87 4.23977 17.52 6.15977 18.11 8.81977C20.15 9.27977 21.78 10.8198 22.43 12.9498C23.14 15.2698 22.5 17.6498 20.76 19.1698C19.61 20.1898 18.16 20.7498 16.65 20.7498Z" fill="#292D32"/>
<path d="M5.56996 20.7496C5.54996 20.7496 5.52996 20.7496 5.51996 20.7496C2.63996 20.5496 1.32996 18.2896 1.32996 16.2796C1.32996 14.2696 2.63996 12.0196 5.51996 11.8096C6.27996 11.8196 6.98996 11.9696 7.62996 12.2896C7.99996 12.4796 8.13996 12.9296 7.95996 13.2996C7.76996 13.6696 7.31996 13.8096 6.94996 13.6296C6.52996 13.4096 6.04996 13.3096 5.58996 13.3096C3.69996 13.4496 2.83996 14.8996 2.83996 16.2796C2.83996 17.6596 3.69996 19.1096 5.62996 19.2496C6.03996 19.2796 6.34996 19.6396 6.32996 20.0496C6.28996 20.4496 5.95996 20.7496 5.56996 20.7496Z" fill="#292D32"/>
<path d="M15.82 10.6397C15.54 10.6397 15.28 10.4897 15.15 10.2197C14.96 9.84973 15.11 9.39973 15.49 9.20973C16.1 8.89973 16.79 8.72973 17.47 8.71973H17.48C17.89 8.71973 18.22 9.04973 18.23 9.45973C18.24 9.86973 17.91 10.2197 17.49 10.2197C17.03 10.2297 16.57 10.3397 16.15 10.5497C16.04 10.6197 15.93 10.6397 15.82 10.6397Z" fill="#292D32"/>
<path d="M10.61 22.6202C10.48 22.6202 10.34 22.6002 10.21 22.5502C9.77 22.3802 9.48 21.9702 9.48 21.5002V19.9202H9.23C8.48 19.9202 8.21 19.4802 8.12 19.3002C8.04 19.1002 7.9 18.6002 8.39 18.0502L10.84 15.2602C11.15 14.9102 11.64 14.7802 12.08 14.9502C12.52 15.1202 12.81 15.5302 12.81 16.0002V17.5802H13.06C13.8 17.5802 14.08 18.0202 14.17 18.2002C14.26 18.3802 14.4 18.8802 13.91 19.4402L11.46 22.2302C11.23 22.4802 10.92 22.6202 10.61 22.6202ZM10.06 18.4102H10.23C10.64 18.4102 10.98 18.7502 10.98 19.1602V20.4902L12.22 19.0802H12.05C11.64 19.0802 11.3 18.7402 11.3 18.3302V17.0002L10.06 18.4102Z" fill="#292D32"/>
</svg>
