<svg width="24" height="24" viewBox="0 0 24 24" fill="none" xmlns="http://www.w3.org/2000/svg">
<path d="M11.3996 2.35002L6.24961 7.50002C6.04961 7.70002 6.04961 8.01002 6.24961 8.21002L7.97962 9.94002C8.17962 10.14 8.48961 10.14 8.68961 9.94002L13.8396 4.79002C14.0396 4.59002 14.0396 4.28002 13.8396 4.08002L12.1096 2.35002C11.9096 2.16002 11.5996 2.16002 11.3996 2.35002Z" fill="black"/>
<path d="M15.2996 6.26035L6.24961 15.3104C6.04961 15.5104 6.04961 15.8204 6.24961 16.0204L7.97962 17.7504C8.17962 17.9504 8.48961 17.9504 8.68961 17.7504L17.7396 8.70035C17.9396 8.50035 17.9396 8.19035 17.7396 7.99035L16.0096 6.26035C15.8196 6.06035 15.4996 6.06035 15.2996 6.26035Z" fill="black"/>
<path d="M19.2098 10.1598L10.1598 19.2098C9.95977 19.4098 9.95977 19.7198 10.1598 19.9198L11.8898 21.6498C12.0898 21.8498 12.3998 21.8498 12.5998 21.6498L21.6498 12.5998C21.8498 12.3998 21.8498 12.0898 21.6498 11.8898L19.9198 10.1598C19.7198 9.95977 19.3998 9.95977 19.2098 10.1598Z" fill="black"/>
<path d="M4.09095 13.84L2.36094 12.11C2.16094 11.91 2.16094 11.6 2.36094 11.4L4.09095 9.67002C4.29095 9.47002 4.60094 9.47002 4.80094 9.67002L6.53095 11.4C6.73095 11.6 6.73095 11.91 6.53095 12.11L4.80094 13.84C4.60094 14.04 4.28095 14.04 4.09095 13.84Z" fill="black"/>
</svg>
