<svg width="24" height="24" viewBox="0 0 24 24" fill="none" xmlns="http://www.w3.org/2000/svg">
<path d="M9.27914 20.3099C9.44914 20.7899 8.92913 21.2299 8.48913 20.9699L5.33914 19.1799C4.76914 18.8499 4.41915 18.0599 4.53915 17.4199L5.47916 12.7499C5.58916 12.1999 6.34915 12.1499 6.53915 12.6699L9.27914 20.3099Z" fill="black"/>
<path d="M18.6608 19.1798L15.5008 20.9798C15.0608 21.2298 14.5408 20.7998 14.7108 20.3198L17.4608 12.6098C17.6508 12.0898 18.4108 12.1398 18.5208 12.6898L19.4708 17.4198C19.5808 18.0598 19.2308 18.8498 18.6608 19.1798Z" fill="black"/>
<path d="M17.08 7.31982C17.32 7.61982 17.39 8.01982 17.26 8.37982L12.52 21.6298C12.35 22.1198 11.66 22.1198 11.49 21.6298L6.74999 8.38982C6.61999 8.02982 6.68999 7.62982 6.92999 7.32982L10.75 2.62982C11.44 1.79982 12.58 1.79982 13.28 2.62982L17.08 7.31982Z" fill="black"/>
</svg>
