<svg width="24" height="24" viewBox="0 0 24 24" fill="none" xmlns="http://www.w3.org/2000/svg">
<path d="M19.6297 7.23991C19.9297 7.70991 19.7697 8.33991 19.2897 8.62991L18.6997 8.97991L5.58967 16.8399C5.10967 17.1299 4.47967 16.9699 4.19967 16.4799C3.19967 14.7399 2.74967 12.6199 3.13967 10.3999C3.79967 6.62991 6.89967 3.62991 10.6897 3.08991C14.4397 2.55991 17.8297 4.35991 19.6297 7.23991Z" fill="#292D32"/>
<path d="M20.8902 13.4298C20.2101 17.6798 16.4502 20.9298 12.1402 20.9998C10.2402 21.0298 8.48015 20.4798 7.02015 19.4898C6.40015 19.0798 6.42015 18.1598 7.06015 17.7798L19.4701 10.4898C20.1201 10.1098 20.9201 10.5498 20.9802 11.2998C21.0302 11.9998 21.0001 12.7098 20.8902 13.4298Z" fill="#292D32"/>
</svg>
