<svg width="24" height="24" viewBox="0 0 24 24" fill="none" xmlns="http://www.w3.org/2000/svg">
<path d="M14.8396 10.8996L20.4996 7.1096C21.0696 6.7296 21.2196 5.9496 20.8396 5.3896L19.0196 2.6796C18.6396 2.1096 17.8596 1.9596 17.2996 2.3396L11.6396 6.1296L14.8396 10.8996Z" fill="#292D32"/>
<path d="M14.5197 10.4196L12.7597 11.5996L10.0897 13.3896L9.73969 13.6196L9.57969 13.3796L7.33969 10.0396L7.17969 9.79961L11.9597 6.59961L14.5197 10.4196Z" fill="#292D32"/>
<path d="M5.6401 16.02L9.5901 13.38L7.3501 10.04L3.4001 12.68C2.9401 12.99 2.8201 13.61 3.1301 14.07L4.2601 15.75C4.5601 16.21 5.1801 16.33 5.6401 16.02Z" fill="#292D32"/>
<path d="M16.5604 21.8096C16.4604 21.8496 16.3504 21.8796 16.2504 21.8796C15.9604 21.8796 15.6904 21.7096 15.5604 21.4296L11.8304 13.1896L8.05038 21.4396C7.92038 21.7096 7.65038 21.8796 7.36038 21.8796C7.26038 21.8796 7.15038 21.8496 7.05038 21.8096C6.68038 21.6296 6.51038 21.1896 6.68038 20.8096L10.0904 13.3896L12.7604 11.5996L16.9304 20.8196C17.1004 21.1896 16.9304 21.6396 16.5604 21.8096Z" fill="#292D32"/>
</svg>
