<svg width="24" height="24" viewBox="0 0 24 24" fill="none" xmlns="http://www.w3.org/2000/svg">
<path d="M22 3.78027H2C1.59 3.78027 1.25 3.44027 1.25 3.03027C1.25 2.62027 1.59 2.28027 2 2.28027H22C22.41 2.28027 22.75 2.62027 22.75 3.03027C22.75 3.44027 22.41 3.78027 22 3.78027Z" fill="black"/>
<path d="M12.0001 21.7204C11.3601 21.7204 10.7801 21.4004 10.4301 20.8704L2.47015 8.48035C2.10015 7.91035 2.08014 7.18035 2.40014 6.58035C2.73014 5.98035 3.35015 5.61035 4.03015 5.61035H19.9601C20.6401 5.61035 21.2701 5.98035 21.5901 6.58035C21.9201 7.18035 21.8901 7.91035 21.5201 8.48035L13.5601 20.8704C13.2201 21.4004 12.6401 21.7204 12.0001 21.7204ZM4.04016 7.11035C3.85016 7.11035 3.75015 7.24035 3.72015 7.30035C3.69015 7.36035 3.63016 7.51035 3.73016 7.67035L11.6901 20.0603C11.7801 20.2003 11.9201 20.2304 11.9901 20.2304C12.0601 20.2304 12.2002 20.2103 12.2902 20.0603L20.2501 7.67035C20.3501 7.51035 20.2902 7.36035 20.2602 7.30035C20.2302 7.24035 20.1401 7.11035 19.9401 7.11035H4.04016Z" fill="black"/>
</svg>
