<svg width="24" height="24" viewBox="0 0 24 24" fill="none" xmlns="http://www.w3.org/2000/svg">
<path d="M15.0687 17.8803L14.0587 20.1003C13.7987 20.6603 13.4187 21.1503 12.9087 21.4903C12.3887 21.8403 11.7087 21.8703 11.1687 21.5303C9.52871 20.4903 5.94876 17.8203 3.77876 13.1903C3.69876 13.0303 3.91873 12.8703 4.05873 12.9703C4.62873 13.3703 5.2387 13.6503 5.9087 13.8103C6.3187 13.9003 6.73874 13.9403 7.13874 13.9403C8.99874 13.9403 10.6787 12.9903 11.7987 12.1703C12.1287 11.9303 12.5687 11.8803 12.9087 12.0903C14.0287 12.7903 14.7788 13.6303 15.1488 14.5803C15.7888 16.2603 15.0887 17.8103 15.0687 17.8803Z" fill="black"/>
<path d="M16.8492 18.0502C16.7692 18.1402 16.6093 18.0402 16.6493 17.9302C17.0893 16.4702 17.6592 12.6202 12.5592 10.1802C12.2492 10.0302 12.0192 9.75016 11.9792 9.41016C11.3592 3.85016 16.1493 2.85015 16.1493 2.85015C16.5393 2.77015 16.9492 2.77015 17.3292 2.88015C18.4092 3.17015 19.5092 3.57016 20.6192 4.11016C21.5692 4.57016 22.1192 5.57016 21.9792 6.62016C21.6492 9.10016 20.5492 13.8802 16.8492 18.0502Z" fill="black"/>
<path d="M10.56 10.21L10.5901 10.41C10.6601 10.79 10.5 11.18 10.18 11.38C8.03003 12.73 4.51002 13.75 2.36002 7.83998C2.16002 7.29998 2.04003 6.89999 2.00003 6.31999C1.95003 5.55999 2.38003 4.68999 3.06003 4.36999C4.82003 3.54999 8.54006 2.11999 13.0301 2.24999C13.2301 2.25999 13.3 2.51999 13.14 2.62999C11.41 3.94999 9.92003 6.32999 10.56 10.21Z" fill="black"/>
</svg>
