<svg width="24" height="24" viewBox="0 0 24 24" fill="none" xmlns="http://www.w3.org/2000/svg">
<path d="M21.8497 10.2502C21.0697 5.80016 17.2397 2.35016 12.7297 2.03016C6.62972 1.59016 1.58972 6.64016 2.02972 12.7302C2.34972 17.2402 5.79972 21.0602 10.2497 21.8402C11.3997 22.0402 12.5197 22.0402 13.5897 21.8602C13.8997 21.8102 14.0797 21.4702 13.9597 21.1902C13.6597 20.5102 13.4997 19.7602 13.4997 18.9902C13.4997 17.3002 14.2497 15.7402 15.5697 14.7002C16.5397 13.9202 17.7597 13.4902 18.9997 13.4902C19.7797 13.4902 20.5197 13.6502 21.1897 13.9502C21.4797 14.0802 21.8097 13.8902 21.8697 13.5802C22.0497 12.5202 22.0497 11.4002 21.8497 10.2502ZM14.4997 13.5702L13.2997 14.2602L12.0997 14.9502C10.6097 15.8102 9.38972 15.1102 9.38972 13.3802V12.0002V10.6102C9.38972 8.89016 10.6097 8.18016 12.0997 9.04016L13.2997 9.73016L14.4997 10.4202C15.9897 11.3002 15.9897 12.7002 14.4997 13.5702Z" fill="#292D32"/>
<path d="M19 15C18.06 15 17.19 15.33 16.5 15.88C15.58 16.61 15 17.74 15 19C15 19.75 15.21 20.46 15.58 21.06C16.27 22.22 17.54 23 19 23C20.01 23 20.93 22.63 21.63 22C21.94 21.74 22.21 21.42 22.42 21.06C22.79 20.46 23 19.75 23 19C23 16.79 21.21 15 19 15ZM20.5 19.73H19.75V20.51C19.75 20.92 19.41 21.26 19 21.26C18.59 21.26 18.25 20.92 18.25 20.51V19.73H17.5C17.09 19.73 16.75 19.39 16.75 18.98C16.75 18.57 17.09 18.23 17.5 18.23H18.25V17.52C18.25 17.11 18.59 16.77 19 16.77C19.41 16.77 19.75 17.11 19.75 17.52V18.23H20.5C20.91 18.23 21.25 18.57 21.25 18.98C21.25 19.39 20.91 19.73 20.5 19.73Z" fill="#292D32"/>
</svg>
