<svg width="24" height="24" viewBox="0 0 24 24" fill="none" xmlns="http://www.w3.org/2000/svg">
<path d="M8.77011 14.4301L10.3801 15.1501C11.4101 15.6101 12.5901 15.6101 13.6301 15.1501L15.2401 14.4301C16.6801 13.7901 18.0101 15.5301 17.0101 16.7501L13.5501 20.9801C12.7001 22.0201 11.3101 22.0201 10.4501 20.9801L7.00011 16.7501C5.99011 15.5301 7.32011 13.7901 8.77011 14.4301Z" fill="black"/>
<path d="M8.57027 11.6699C8.27027 11.8899 8.31027 12.3499 8.65027 12.5199L11.0003 13.6899C11.5503 13.9699 12.4403 13.9699 12.9803 13.6899L15.3303 12.5199C15.6603 12.3499 15.7003 11.8999 15.4103 11.6699L12.3003 9.32992C12.1203 9.19992 11.8803 9.19992 11.7003 9.32992L8.57027 11.6699Z" fill="black"/>
<path d="M17.8803 8.24021L13.7103 3.04021C13.6303 2.94021 13.5403 2.85021 13.4503 2.76021C13.1903 2.51021 12.8203 2.74021 12.8203 3.10021V7.40021C12.8203 7.56021 12.8903 7.71021 13.0203 7.80021L17.1703 10.9202L17.3503 11.0502C17.5303 11.1802 17.7803 11.1802 17.9303 11.0202C18.6303 10.2602 18.6203 9.16021 17.8803 8.24021Z" fill="black"/>
<path d="M6.10986 8.32985L10.2599 3.04985C10.3399 2.94985 10.4199 2.85985 10.5099 2.76985C10.7699 2.51985 11.1399 2.73985 11.1399 3.10985V7.47985C11.1399 7.63985 11.0699 7.77985 10.9399 7.87985L6.80985 11.0498L6.63985 11.1798C6.45985 11.3098 6.20986 11.3098 6.04986 11.1398C5.36986 10.3698 5.37986 9.26985 6.10986 8.32985Z" fill="black"/>
</svg>
