<svg width="24" height="24" viewBox="0 0 24 24" fill="none" xmlns="http://www.w3.org/2000/svg">
<path d="M22 21.25H21V15C21 10.03 16.97 6 12 6C7.03 6 3 10.03 3 15V21.25H2C1.59 21.25 1.25 21.59 1.25 22C1.25 22.41 1.59 22.75 2 22.75H22C22.41 22.75 22.75 22.41 22.75 22C22.75 21.59 22.41 21.25 22 21.25Z" fill="#292D32"/>
<path d="M12 3.75C11.59 3.75 11.25 3.41 11.25 3V2C11.25 1.59 11.59 1.25 12 1.25C12.41 1.25 12.75 1.59 12.75 2V3C12.75 3.41 12.41 3.75 12 3.75Z" fill="#292D32"/>
<path d="M5.00043 5.74945C4.81043 5.74945 4.62043 5.67945 4.47043 5.52945L3.47043 4.52945C3.18043 4.23945 3.18043 3.75945 3.47043 3.46945C3.76043 3.17945 4.24043 3.17945 4.53043 3.46945L5.53043 4.46945C5.82043 4.75945 5.82043 5.23945 5.53043 5.52945C5.38043 5.67945 5.19043 5.74945 5.00043 5.74945Z" fill="#292D32"/>
<path d="M19.0004 5.74945C18.8104 5.74945 18.6204 5.67945 18.4704 5.52945C18.1804 5.23945 18.1804 4.75945 18.4704 4.46945L19.4704 3.46945C19.7604 3.17945 20.2404 3.17945 20.5304 3.46945C20.8204 3.75945 20.8204 4.23945 20.5304 4.52945L19.5304 5.52945C19.3804 5.67945 19.1904 5.74945 19.0004 5.74945Z" fill="#292D32"/>
</svg>
