<svg width="24" height="24" viewBox="0 0 24 24" fill="none" xmlns="http://www.w3.org/2000/svg">
<path d="M3.17971 15.03C2.82971 15.03 2.57971 15.38 2.70971 15.7C4.17971 19.4 7.78971 22 11.9997 22C16.2197 22 19.8297 19.38 21.2997 15.67C21.4297 15.35 21.1697 15 20.8297 15H17.4997C17.2197 15 16.9997 14.78 16.9997 14.5V11.76C16.9997 10.84 15.8497 10.41 15.2497 11.11L12.3797 14.54C12.1797 14.78 11.8097 14.78 11.6097 14.54L8.73971 11.11C8.14971 10.41 6.99971 10.84 6.99971 11.76V14.5C6.99971 14.78 6.77971 15 6.49971 15L3.17971 15.03Z" fill="black"/>
<path d="M22 12.1402C22 12.4502 21.98 12.7602 21.94 13.0602C21.91 13.3102 21.69 13.5002 21.43 13.5002H19C18.72 13.5002 18.5 13.2802 18.5 13.0002V11.9002C18.5 10.8902 17.96 9.91021 17.04 9.49021C16.01 9.02021 14.84 9.28022 14.1 10.1502L12.38 12.2002C12.18 12.4402 11.81 12.4402 11.61 12.2002L9.88 10.1302C9.16 9.28021 8 9.02021 6.96 9.49021C6.04 9.91021 5.5 10.8902 5.5 11.9002V12.8802C5.5 13.3002 5.28 13.5202 5 13.5202L2.56 13.5302C2.31 13.5302 2.08 13.3402 2.05 13.0902C2.02 12.7302 2 12.3702 2 12.0002C2 5.95022 7.39 1.14021 13.63 2.13021C18.46 2.89021 22.07 7.24021 22 12.1402Z" fill="black"/>
</svg>
