<svg width="24" height="24" viewBox="0 0 24 24" fill="none" xmlns="http://www.w3.org/2000/svg">
<path d="M18.7002 14.4595C18.3502 14.8095 18.1502 15.5095 18.2602 15.9895L18.9502 19.0095C19.2402 20.2595 19.0602 21.1995 18.4402 21.6495C18.1902 21.8295 17.8902 21.9195 17.5402 21.9195C17.0302 21.9195 16.4302 21.7295 15.7702 21.3395L12.8402 19.5995C12.3802 19.3295 11.6202 19.3295 11.1602 19.5995L8.2302 21.3395C7.1202 21.9895 6.1702 22.0995 5.5602 21.6495C5.5202 21.6195 5.4802 21.5895 5.4502 21.5495L18.0702 8.92955C18.5302 8.46955 19.1802 8.25955 19.8202 8.36955L19.9702 8.39955C21.0302 8.57955 21.7402 9.05955 21.9702 9.75955C22.1902 10.4595 21.8902 11.2695 21.1302 12.0295L18.7002 14.4595Z" fill="#292D32"/>
<path d="M5.74035 16C5.85035 15.52 5.65035 14.81 5.30035 14.46L2.87035 12.03C2.11035 11.27 1.81035 10.46 2.03035 9.76C2.26035 9.06 2.97035 8.58 4.03035 8.4L7.15035 7.88C7.60035 7.8 8.15035 7.4 8.36035 6.99L10.0803 3.54C10.5803 2.55 11.2603 2 12.0003 2C12.7403 2 13.4203 2.55 13.9203 3.54L15.6403 6.99C15.7703 7.25 16.0403 7.5 16.3303 7.67L5.07035 18.93L5.74035 16Z" fill="#292D32"/>
<path d="M21.7699 2.22988C21.4699 1.92988 20.9799 1.92988 20.6799 2.22988L2.22988 20.6899C1.92988 20.9899 1.92988 21.4799 2.22988 21.7799C2.37988 21.9199 2.56988 21.9999 2.76988 21.9999C2.96988 21.9999 3.15988 21.9199 3.30988 21.7699L21.7699 3.30988C22.0799 3.00988 22.0799 2.52988 21.7699 2.22988Z" fill="#292D32"/>
</svg>
