<svg width="24" height="24" viewBox="0 0 24 24" fill="none" xmlns="http://www.w3.org/2000/svg">
<path d="M14.4304 16.9198H12.1404C11.7304 16.9198 11.3904 16.5798 11.3904 16.1698C11.3904 15.7598 11.7304 15.4198 12.1404 15.4198H14.4304C14.8604 15.4198 15.2104 15.0698 15.2104 14.6398C15.2104 14.2098 14.8604 13.8598 14.4304 13.8598H12.1404C11.9004 13.8598 11.6704 13.7398 11.5304 13.5498C11.3904 13.3598 11.3504 13.0998 11.4304 12.8698L12.1904 10.5798C12.2904 10.2698 12.5804 10.0698 12.9004 10.0698H15.9604C16.3704 10.0698 16.7104 10.4098 16.7104 10.8198C16.7104 11.2298 16.3704 11.5698 15.9604 11.5698H13.4404L13.1804 12.3598H14.4304C15.6904 12.3598 16.7104 13.3798 16.7104 14.6398C16.7104 15.8998 15.6804 16.9198 14.4304 16.9198Z" fill="#292D32"/>
<path d="M9.54041 16.9198C9.13041 16.9198 8.79041 16.5798 8.79041 16.1698V12.7798L8.60041 12.9998C8.32041 13.3098 7.85041 13.3298 7.54041 13.0598C7.24041 12.7798 7.21041 12.3098 7.49041 11.9998L8.99041 10.3298C9.20041 10.0998 9.53041 10.0198 9.82041 10.1298C10.1104 10.2398 10.3004 10.5198 10.3004 10.8298V16.1798C10.2904 16.5898 9.96041 16.9198 9.54041 16.9198Z" fill="#292D32"/>
<path d="M11.9996 3.47994C11.9196 3.47994 11.8396 3.48994 11.7596 3.48994L12.5796 2.46994C12.8396 2.14994 12.7896 1.66994 12.4596 1.41994C12.1296 1.16994 11.6696 1.20994 11.4096 1.53994L9.43961 3.99994C9.42961 4.00994 9.42961 4.01994 9.41961 4.03994C9.38961 4.07994 9.36961 4.12994 9.34961 4.16994C9.32961 4.21994 9.30961 4.25994 9.29961 4.29994C9.28961 4.34994 9.28961 4.38994 9.28961 4.43994C9.28961 4.48994 9.28961 4.53994 9.28961 4.58994C9.28961 4.60994 9.28961 4.61994 9.28961 4.63994C9.29961 4.66994 9.31961 4.68994 9.32961 4.71994C9.34961 4.76994 9.36961 4.80994 9.38961 4.85994C9.41961 4.89994 9.44961 4.93994 9.48961 4.96994C9.50961 4.99994 9.51961 5.02994 9.54961 5.04994C9.56961 5.05994 9.57961 5.06994 9.59961 5.07994C9.61961 5.09994 9.64961 5.10994 9.67961 5.11994C9.72961 5.14994 9.78961 5.16994 9.83961 5.17994C9.87961 5.19994 9.90961 5.19994 9.93961 5.19994C9.96961 5.19994 9.98961 5.20994 10.0196 5.20994C10.0496 5.20994 10.0696 5.19994 10.0896 5.18994C10.1196 5.18994 10.1496 5.19994 10.1796 5.18994C10.8196 5.03994 11.4196 4.96994 11.9896 4.96994C16.4796 4.96994 20.1296 8.61994 20.1296 13.1099C20.1296 17.5999 16.4796 21.2499 11.9896 21.2499C7.49961 21.2499 3.84961 17.5999 3.84961 13.1099C3.84961 11.3699 4.41961 9.68994 5.49961 8.24994C5.74961 7.91994 5.67961 7.44994 5.34961 7.19994C5.01961 6.94994 4.54961 7.01994 4.29961 7.34994C3.01961 9.04994 2.34961 11.0399 2.34961 13.1099C2.34961 18.4199 6.66961 22.7499 11.9896 22.7499C17.3096 22.7499 21.6296 18.4299 21.6296 13.1099C21.6296 7.78994 17.3096 3.47994 11.9996 3.47994Z" fill="#292D32"/>
</svg>
