<svg width="24" height="24" viewBox="0 0 24 24" fill="none" xmlns="http://www.w3.org/2000/svg">
<path d="M21.9999 8.69008C21.9999 9.88008 21.8099 10.9801 21.4799 12.0001C19.8999 17.0001 15.0299 19.9901 12.6199 20.8101C12.2799 20.9301 11.7199 20.9301 11.3799 20.8101C10.7399 20.5901 9.92988 20.2201 9.05988 19.7001C8.49988 19.3701 8.40988 18.5901 8.86988 18.1301L20.1499 6.85008C20.6899 6.31008 21.6399 6.54008 21.8299 7.28008C21.9399 7.73008 21.9999 8.20008 21.9999 8.69008Z" fill="#292D32"/>
<path d="M22.5304 1.46945C22.2404 1.17945 21.7604 1.17945 21.4704 1.46945L19.1304 3.80945C18.3404 3.35945 17.4204 3.09945 16.4404 3.09945C14.6304 3.09945 13.0104 3.97945 12.0004 5.32945C10.9904 3.97945 9.37043 3.09945 7.56043 3.09945C4.49043 3.09945 2.00043 5.59945 2.00043 8.68945C2.00043 9.87945 2.19043 10.9795 2.52043 11.9995C3.17043 14.0695 4.39043 15.7995 5.77043 17.1695L1.47043 21.4695C1.18043 21.7595 1.18043 22.2395 1.47043 22.5295C1.62043 22.6795 1.81043 22.7495 2.00043 22.7495C2.19043 22.7495 2.38043 22.6795 2.53043 22.5295L22.5304 2.52945C22.8204 2.23945 22.8204 1.75945 22.5304 1.46945Z" fill="#292D32"/>
</svg>
