<svg width="24" height="24" viewBox="0 0 24 24" fill="none" xmlns="http://www.w3.org/2000/svg">
<path d="M16.68 20.8296C16.67 20.8296 16.65 20.8296 16.64 20.8296H5.54998C2.60998 20.6196 1.28998 18.3596 1.28998 16.3396C1.28998 14.5396 2.33998 12.5396 4.62998 11.9896C3.98998 9.48959 4.52998 7.13959 6.15998 5.43959C8.00998 3.49959 10.98 2.72959 13.53 3.51959C15.87 4.23959 17.52 6.16959 18.12 8.84959C20.17 9.30959 21.8 10.8596 22.46 12.9996C23.17 15.3296 22.53 17.7196 20.78 19.2496C19.66 20.2596 18.2 20.8296 16.68 20.8296ZM5.56998 13.3496C5.55998 13.3496 5.55998 13.3496 5.54998 13.3496C3.64998 13.4896 2.77998 14.9496 2.77998 16.3396C2.77998 17.7296 3.64998 19.1896 5.58998 19.3296H16.63C17.79 19.3096 18.9 18.9096 19.76 18.1296C21.32 16.7596 21.43 14.8096 21.01 13.4396C20.59 12.0596 19.42 10.4996 17.38 10.2396C17.05 10.1996 16.79 9.94959 16.73 9.61959C16.33 7.21959 15.03 5.55959 13.08 4.95959C11.05 4.33959 8.70998 4.94959 7.23998 6.47959C5.90998 7.86959 5.52998 9.78959 6.14998 11.8996C6.65998 11.9696 7.14998 12.1196 7.59998 12.3496C7.96998 12.5396 8.11998 12.9896 7.92998 13.3596C7.73998 13.7296 7.28998 13.8796 6.91998 13.6896C6.50998 13.4796 6.05998 13.3696 5.60998 13.3696C5.59998 13.3496 5.58998 13.3496 5.56998 13.3496Z" fill="#292D32"/>
<path d="M15.85 10.6702C15.57 10.6702 15.31 10.5202 15.18 10.2502C14.99 9.88022 15.15 9.43022 15.52 9.24022C16.14 8.93022 16.83 8.76022 17.51 8.75022C17.91 8.74022 18.27 9.07022 18.27 9.49022C18.28 9.90022 17.95 10.2502 17.53 10.2502C17.07 10.2602 16.6 10.3702 16.18 10.5802C16.07 10.6402 15.96 10.6702 15.85 10.6702Z" fill="#292D32"/>
</svg>
