<svg width="24" height="24" viewBox="0 0 24 24" fill="none" xmlns="http://www.w3.org/2000/svg">
<path d="M15.0186 2.23006C13.0186 1.92006 10.9786 1.92006 8.97859 2.23006C8.15859 2.36006 7.55858 3.06005 7.55858 3.88005V7.56005H3.87859C3.05859 7.56005 2.35859 8.16006 2.22859 8.98006C1.91859 10.9801 1.91859 13.02 2.22859 15.02C2.35859 15.84 3.05859 16.4401 3.87859 16.4401H5.55858C5.83858 16.4401 6.05858 16.22 6.05858 15.9401V14.22C6.05858 12.17 7.72858 10.5 9.77858 10.5H14.2186C14.6186 10.5 14.9386 10.18 14.9386 9.78005V6.56005C14.9386 6.28005 15.1586 6.06005 15.4386 6.06005H15.9386C16.2186 6.06005 16.4386 5.84005 16.4386 5.56005V3.88005C16.4386 3.06005 15.8386 2.36006 15.0186 2.23006ZM10.3286 5.58003C9.91857 5.58003 9.52858 5.19005 9.52858 4.78005C9.52858 4.36005 9.91857 3.97005 10.3286 3.97005C10.5286 3.97005 10.7486 4.06006 10.8886 4.20006C11.0386 4.34006 11.1386 4.57005 11.1386 4.78005C11.1386 5.19005 10.7486 5.58003 10.3286 5.58003Z" fill="black"/>
<path d="M21.7686 8.98007C21.6386 8.16007 20.9386 7.56006 20.1186 7.56006H16.9386C16.6586 7.56006 16.4386 7.78006 16.4386 8.06006V9.78006C16.4386 11.0001 15.4486 12.0001 14.2186 12.0001H9.77859C8.54859 12.0001 7.55859 12.9901 7.55859 14.2201V20.1201C7.55859 20.9401 8.15861 21.64 8.97861 21.7701C10.9786 22.0801 13.0186 22.0801 15.0186 21.7701C15.8386 21.64 16.4386 20.9401 16.4386 20.1201V16.4401H20.1186C20.9386 16.4401 21.6386 15.84 21.7686 15.0201C22.0786 13.0201 22.0786 10.9801 21.7686 8.98007ZM13.6686 20.0301C13.2586 20.0301 12.8586 19.6401 12.8586 19.2201C12.8586 18.8001 13.2486 18.4101 13.6686 18.4101C13.8586 18.4101 14.0886 18.5001 14.2286 18.6301C14.3786 18.7701 14.4786 19.0101 14.4786 19.2101C14.4686 19.6401 14.0786 20.0301 13.6686 20.0301Z" fill="black"/>
</svg>
