<svg width="24" height="24" viewBox="0 0 24 24" fill="none" xmlns="http://www.w3.org/2000/svg">
<path d="M15.4901 20.7604C15.3001 20.7604 15.1101 20.6904 14.9601 20.5404C14.6701 20.2504 14.6701 19.7704 14.9601 19.4804L19.9701 14.4704C20.2601 14.1804 20.7401 14.1804 21.0301 14.4704C21.3201 14.7604 21.3201 15.2404 21.0301 15.5304L16.0201 20.5404C15.8701 20.6804 15.6801 20.7604 15.4901 20.7604Z" fill="#292D32"/>
<path d="M20.5 15.7402H3.5C3.09 15.7402 2.75 15.4002 2.75 14.9902C2.75 14.5802 3.09 14.2402 3.5 14.2402H20.5C20.91 14.2402 21.25 14.5802 21.25 14.9902C21.25 15.4002 20.91 15.7402 20.5 15.7402Z" fill="#292D32"/>
<path d="M3.49994 9.76043C3.30994 9.76043 3.11994 9.69043 2.96994 9.54043C2.67994 9.25043 2.67994 8.77043 2.96994 8.48043L7.97994 3.47043C8.26994 3.18043 8.74994 3.18043 9.03994 3.47043C9.32994 3.76043 9.32994 4.24043 9.03994 4.53043L4.02994 9.54043C3.88994 9.68043 3.68994 9.76043 3.49994 9.76043Z" fill="#292D32"/>
<path d="M20.5 9.75977H3.5C3.09 9.75977 2.75 9.41977 2.75 9.00977C2.75 8.59977 3.09 8.25977 3.5 8.25977H20.5C20.91 8.25977 21.25 8.59977 21.25 9.00977C21.25 9.41977 20.91 9.75977 20.5 9.75977Z" fill="#292D32"/>
</svg>
