<svg width="24" height="24" viewBox="0 0 24 24" fill="none" xmlns="http://www.w3.org/2000/svg">
<path d="M19.3996 10.5303C19.9196 10.4303 20.2796 11.0203 19.9596 11.4403L13.0096 20.2903C12.6596 20.7403 11.9396 20.4503 11.9996 19.8903L12.6996 12.2903C12.7196 12.0403 12.9096 11.8303 13.1596 11.7803L19.3996 10.5303Z" fill="black"/>
<path d="M21.6388 7.6902C21.8588 7.9302 21.7388 8.3202 21.4288 8.3902L12.9888 10.0802C12.4388 10.1902 12.0788 9.5202 12.4788 9.1202L17.4988 4.1002C17.7288 3.8702 18.0988 3.8802 18.3188 4.1102L21.6388 7.6902Z" fill="black"/>
<path d="M14.6891 3.19006C15.1591 3.25006 15.3491 3.82006 15.0191 4.16006L11.4591 7.72006C11.2491 7.93006 10.909 7.94006 10.679 7.74006L5.33908 2.99006C4.91908 2.62006 5.23903 1.93006 5.78903 2.00006L14.6891 3.19006Z" fill="black"/>
<path d="M10.7188 10.0699C10.9888 10.3099 11.1188 10.6599 11.0988 11.0099L10.2388 21.4699C10.1888 22.0699 9.35881 22.1899 9.13881 21.6299L2.28877 3.95994C2.06877 3.39994 2.7488 2.92994 3.1988 3.32994L10.7188 10.0699Z" fill="black"/>
</svg>
