<svg width="24" height="24" viewBox="0 0 24 24" fill="none" xmlns="http://www.w3.org/2000/svg">
<path d="M19.9597 8.9599C19.2897 8.2199 18.2797 7.7899 16.8797 7.6399V6.8799C16.8797 5.5099 16.2997 4.1899 15.2797 3.2699C14.2497 2.3299 12.9097 1.8899 11.5197 2.0199C9.12975 2.2499 7.11975 4.5599 7.11975 7.0599V7.6399C5.71975 7.7899 4.70975 8.2199 4.03975 8.9599C3.06975 10.0399 3.09975 11.4799 3.20975 12.4799L3.90975 18.0499C4.11975 19.9999 4.90975 21.9999 9.20975 21.9999H14.7897C19.0897 21.9999 19.8797 19.9999 20.0897 18.0599L20.7897 12.4699C20.8997 11.4799 20.9297 10.0399 19.9597 8.9599ZM11.6597 3.4099C12.6597 3.3199 13.6097 3.6299 14.3497 4.2999C15.0797 4.9599 15.4897 5.8999 15.4897 6.8799V7.5799H8.50975V7.0599C8.50975 5.2799 9.97975 3.5699 11.6597 3.4099ZM11.9997 18.5799C9.90975 18.5799 8.20975 16.8799 8.20975 14.7899C8.20975 12.6999 9.90975 10.9999 11.9997 10.9999C14.0897 10.9999 15.7897 12.6999 15.7897 14.7899C15.7897 16.8799 14.0897 18.5799 11.9997 18.5799Z" fill="#292D32"/>
<path d="M13.6001 15.3102L13.0701 14.7802L13.5701 14.2802C13.8601 13.9902 13.8601 13.5102 13.5701 13.2202C13.2801 12.9302 12.8001 12.9302 12.5101 13.2202L12.0101 13.7202L11.4801 13.1902C11.1901 12.9002 10.7101 12.9002 10.4201 13.1902C10.1301 13.4802 10.1301 13.9602 10.4201 14.2502L10.9501 14.7802L10.4001 15.3302C10.1101 15.6202 10.1101 16.1002 10.4001 16.3902C10.5501 16.5402 10.7401 16.6102 10.9301 16.6102C11.1201 16.6102 11.3101 16.5402 11.4601 16.3902L12.0101 15.8402L12.5401 16.3702C12.6901 16.5202 12.8801 16.5902 13.0701 16.5902C13.2601 16.5902 13.4501 16.5202 13.6001 16.3702C13.8901 16.0802 13.8901 15.6102 13.6001 15.3102Z" fill="#292D32"/>
</svg>
