<svg width="24" height="24" viewBox="0 0 24 24" fill="none" xmlns="http://www.w3.org/2000/svg">
<path d="M15.7204 9.69002C13.6704 7.63002 10.3304 7.63002 8.28035 9.69002C6.22035 11.75 6.22035 15.08 8.28035 17.13C10.3404 19.19 13.6704 19.19 15.7204 17.13C17.7804 15.07 17.7804 11.74 15.7204 9.69002ZM12.5304 13.94L10.9404 15.53C10.7904 15.68 10.6004 15.75 10.4104 15.75C10.2204 15.75 10.0204 15.68 9.88035 15.53C9.59035 15.24 9.59035 14.76 9.88035 14.46L11.4704 12.87C11.7604 12.58 12.2404 12.58 12.5404 12.87C12.8304 13.17 12.8304 13.65 12.5304 13.94Z" fill="#292D32"/>
<path d="M19.6001 5.81021C19.3801 5.59021 19.1001 5.47021 18.7901 5.47021C18.4801 5.47021 18.2001 5.59022 17.9801 5.80022C17.5301 6.25022 17.5301 6.97022 17.9801 7.42022C18.2001 7.64022 18.4801 7.76022 18.7901 7.76022C19.1001 7.76022 19.3801 7.64021 19.6001 7.43021C19.8201 7.21021 19.9401 6.93021 19.9401 6.62021C19.9401 6.31021 19.8201 6.02021 19.6001 5.81021Z" fill="#292D32"/>
<path d="M6.01957 19.3898C5.79957 19.1698 5.51957 19.0498 5.20957 19.0498C4.89957 19.0498 4.61957 19.1698 4.39957 19.3798C4.17957 19.5998 4.05957 19.8798 4.05957 20.1898C4.05957 20.4998 4.17957 20.7798 4.39957 20.9998C4.61957 21.2198 4.91957 21.3298 5.20957 21.3298C5.49957 21.3298 5.79957 21.2198 6.01957 20.9898C6.45957 20.5598 6.45957 19.8298 6.01957 19.3898Z" fill="#292D32"/>
<path d="M22.4096 12.5998C22.1996 12.3798 21.9096 12.2698 21.5996 12.2598C21.2896 12.2598 21.0096 12.3798 20.7896 12.5998C20.3396 13.0498 20.3396 13.7698 20.7896 14.2198C21.0096 14.4398 21.3096 14.5498 21.5996 14.5498C21.8896 14.5498 22.1896 14.4398 22.4096 14.2198C22.8596 13.7698 22.8596 13.0398 22.4096 12.5998Z" fill="#292D32"/>
<path d="M3.21043 12.5999C2.77043 12.1599 2.04043 12.1499 1.59043 12.5999C1.14043 13.0499 1.14043 13.7699 1.59043 14.2199C1.81043 14.4399 2.11043 14.5499 2.40043 14.5499C2.69043 14.5499 2.99043 14.4399 3.21043 14.2199C3.65043 13.7699 3.65043 13.0399 3.21043 12.5999Z" fill="#292D32"/>
<path d="M19.6001 19.3902C19.1501 18.9402 18.4301 18.9402 17.9801 19.3902C17.5301 19.8402 17.5301 20.5602 17.9801 21.0102C18.2001 21.2302 18.5001 21.3402 18.7901 21.3402C19.0801 21.3402 19.3801 21.2302 19.6001 21.0102C19.8201 20.7902 19.9401 20.5002 19.9401 20.2002C19.9401 19.8902 19.8201 19.6002 19.6001 19.3902Z" fill="#292D32"/>
<path d="M6.01957 5.81021C5.79957 5.59021 5.51957 5.47021 5.20957 5.47021C4.89957 5.47021 4.61957 5.59022 4.39957 5.80022C4.17957 6.02022 4.05957 6.30022 4.05957 6.61022C4.05957 6.92022 4.17957 7.21022 4.39957 7.42022C4.61957 7.64022 4.89957 7.76022 5.20957 7.76022C5.51957 7.76022 5.79957 7.64021 6.01957 7.43021C6.45957 6.98021 6.45957 6.25021 6.01957 5.81021Z" fill="#292D32"/>
<path d="M12.8096 3.0001C12.8096 2.9901 12.8096 2.9901 12.8096 3.0001C12.3596 2.5501 11.6396 2.5501 11.1896 3.0001C10.9696 3.2201 10.8496 3.5101 10.8496 3.8101C10.8496 4.1201 10.9696 4.4001 11.1796 4.6201C11.3996 4.8401 11.6796 4.9601 11.9896 4.9601C12.2996 4.9601 12.5796 4.8401 12.7996 4.6201C13.2596 4.1701 13.2596 3.4401 12.8096 3.0001Z" fill="#292D32"/>
</svg>
