<svg width="24" height="24" viewBox="0 0 24 24" fill="none" xmlns="http://www.w3.org/2000/svg">
<path d="M17 20.75H6.99997C2.74997 20.75 1.35997 19.48 1.25997 15.52C1.25997 15.32 1.32997 15.12 1.46997 14.98C1.60997 14.84 1.79997 14.75 2.00997 14.75C3.51997 14.75 4.74997 13.51 4.74997 12C4.74997 10.49 3.51997 9.25 2.00997 9.25C1.80997 9.25 1.61997 9.17 1.46997 9.02C1.31997 8.87 1.24997 8.68 1.25997 8.48C1.35997 4.52 2.74997 3.25 6.99997 3.25H17C21.41 3.25 22.75 4.59 22.75 9V15C22.75 19.41 21.41 20.75 17 20.75ZM2.78997 16.18C2.95997 18.72 3.81997 19.25 6.99997 19.25H17C20.58 19.25 21.25 18.57 21.25 15V9C21.25 5.43 20.58 4.75 17 4.75H6.99997C3.81997 4.75 2.95997 5.29 2.78997 7.82C4.75997 8.2 6.24997 9.93 6.24997 12C6.24997 14.07 4.75997 15.8 2.78997 16.18Z" fill="#292D32"/>
<path d="M9 8.25C8.59 8.25 8.25 7.91 8.25 7.5V4C8.25 3.59 8.59 3.25 9 3.25C9.41 3.25 9.75 3.59 9.75 4V7.5C9.75 7.91 9.41 8.25 9 8.25Z" fill="#292D32"/>
<path d="M9 20.75C8.59 20.75 8.25 20.41 8.25 20V16.5C8.25 16.09 8.59 15.75 9 15.75C9.41 15.75 9.75 16.09 9.75 16.5V20C9.75 20.41 9.41 20.75 9 20.75Z" fill="#292D32"/>
<path d="M13.04 15.6496C12.8 15.6496 12.56 15.5696 12.36 15.4296C12 15.1696 11.82 14.7296 11.9 14.2896L12.11 13.0996L11.24 12.2496C10.92 11.9396 10.81 11.4796 10.94 11.0596C11.08 10.6396 11.44 10.3296 11.88 10.2696L13.08 10.0896L13.62 8.99961C13.82 8.59961 14.22 8.34961 14.66 8.34961C15.11 8.34961 15.51 8.59961 15.7 8.99961L16.24 10.0896L17.44 10.2696C17.88 10.3296 18.24 10.6396 18.38 11.0596C18.52 11.4796 18.4 11.9396 18.08 12.2496L17.21 13.0996L17.42 14.2896C17.5 14.7296 17.32 15.1696 16.96 15.4296C16.6 15.6896 16.13 15.7196 15.74 15.5196L14.67 14.9596L13.59 15.5196C13.42 15.6096 13.23 15.6496 13.04 15.6496ZM12.77 11.6496L13.28 12.1496C13.56 12.4196 13.68 12.7996 13.62 13.1796L13.5 13.8796L14.13 13.5496C14.47 13.3696 14.87 13.3696 15.21 13.5496L15.84 13.8796L15.72 13.1796C15.66 12.7896 15.78 12.4096 16.06 12.1496L16.57 11.6496L15.87 11.5496C15.49 11.4896 15.16 11.2496 14.99 10.9096L14.68 10.2696L14.37 10.9096C14.2 11.2496 13.87 11.4896 13.49 11.5496L12.77 11.6496Z" fill="#292D32"/>
</svg>
