<svg width="24" height="24" viewBox="0 0 24 24" fill="none" xmlns="http://www.w3.org/2000/svg">
<path d="M16.8901 15.9596C16.7001 15.9596 16.5001 15.8796 16.3601 15.7396L13.1701 12.5496C12.8801 12.2596 12.8801 11.7796 13.1701 11.4896L16.3901 8.26962C16.6201 8.03962 16.9701 7.98964 17.2601 8.12964L21.7501 10.3796C22.3701 10.6796 22.7601 11.2996 22.7601 11.9996C22.7601 12.6996 22.3701 13.3196 21.7501 13.6196L17.2401 15.8796C17.1201 15.9296 17.0001 15.9596 16.8901 15.9596ZM14.7601 12.0196L17.0301 14.2896L21.0601 12.2696C21.0601 12.2696 21.0601 12.2696 21.0701 12.2696C21.2201 12.1996 21.2401 12.0696 21.2401 11.9996C21.2401 11.9296 21.2201 11.7996 21.0701 11.7296L17.0601 9.71964L14.7601 12.0196Z" fill="black"/>
<path d="M3.07 22.75C2.74 22.75 2.4 22.66 2.11 22.47C1.57 22.14 1.25 21.56 1.25 20.92V3.06002C1.25 2.43002 1.57 1.85003 2.11 1.51003C2.65 1.18003 3.31 1.14002 3.88 1.43002L17.25 8.12002C17.47 8.23002 17.62 8.43004 17.65 8.67004C17.68 8.91004 17.61 9.15003 17.44 9.32003L4.64 22.12C4.58 22.18 4.52 22.22 4.44 22.26L3.86 22.55C3.62 22.69 3.34 22.75 3.07 22.75ZM3.07 2.75002C3 2.75002 2.94 2.78001 2.9 2.80001C2.84 2.83001 2.75 2.92003 2.75 3.07003V20.93C2.75 21.09 2.84 21.17 2.9 21.2C2.96 21.24 3.07 21.28 3.22 21.21L3.68 20.98L15.65 9.01003L3.21 2.79003C3.16 2.76003 3.11 2.75002 3.07 2.75002Z" fill="black"/>
<path d="M4.11999 22.3495C3.88999 22.3495 3.65999 22.2396 3.50999 22.0396C3.28999 21.7396 3.32999 21.3295 3.58999 21.0695L13.17 11.4895C13.31 11.3495 13.5 11.2695 13.7 11.2695C13.9 11.2695 14.09 11.3495 14.23 11.4895L17.42 14.6795C17.59 14.8495 17.67 15.0895 17.63 15.3295C17.59 15.5695 17.44 15.7695 17.23 15.8795L4.46999 22.2695C4.34999 22.3195 4.23999 22.3495 4.11999 22.3495ZM13.7 13.0795L7.92999 18.8495L15.62 14.9995L13.7 13.0795Z" fill="black"/>
<path d="M13.6998 12.7696C13.5098 12.7696 13.3198 12.6996 13.1698 12.5496L3.55979 2.93961C3.26979 2.64961 3.26979 2.16961 3.55979 1.87961C3.84979 1.58961 4.32979 1.58961 4.61979 1.87961L14.2298 11.4896C14.5198 11.7796 14.5198 12.2596 14.2298 12.5496C14.0898 12.6996 13.8898 12.7696 13.6998 12.7696Z" fill="black"/>
<path d="M16.8998 15.9804C16.7198 15.9804 16.5298 15.9104 16.3898 15.7604L16.3598 15.7304C16.0698 15.4404 16.0698 14.9604 16.3698 14.6704C16.6698 14.3804 17.1398 14.3804 17.4298 14.6804C17.7198 14.9704 17.7298 15.4704 17.4398 15.7604C17.2798 15.9104 17.0898 15.9804 16.8998 15.9804Z" fill="black"/>
</svg>
