<svg width="24" height="24" viewBox="0 0 24 24" fill="none" xmlns="http://www.w3.org/2000/svg">
<path d="M20.8904 5.18007V16.4801C20.8904 18.4601 19.2804 20.0701 17.3004 20.0701C15.3304 20.0701 13.7104 18.4601 13.7104 16.4801C13.7104 14.5101 15.3304 12.9001 17.3004 12.9001C18.1404 12.9001 18.8904 13.1901 19.5004 13.6701V7.72007L10.2904 10.3401V18.4101C10.2904 20.3901 8.67035 22.0001 6.70035 22.0001C4.72035 22.0001 3.11035 20.3901 3.11035 18.4101C3.11035 16.4401 4.72035 14.8301 6.70035 14.8301C7.53035 14.8301 8.28035 15.1201 8.89035 15.5901V6.75007C8.89035 5.28007 9.78035 4.14007 11.1904 3.76007L16.9704 2.18007C18.1404 1.86007 19.1304 1.97007 19.8304 2.51007C20.5403 3.04007 20.8904 3.94007 20.8904 5.18007Z" fill="#292D32"/>
</svg>
