<svg width="24" height="24" viewBox="0 0 24 24" fill="none" xmlns="http://www.w3.org/2000/svg">
<path d="M8.96997 16.75C8.57997 16.75 8.23997 16.72 7.91997 16.67C4.11997 16.17 1.21997 12.87 1.21997 9C1.21997 4.73 4.69997 1.25 8.96997 1.25C12.84 1.25 16.14 4.14 16.64 7.97C16.69 8.27 16.72 8.61 16.72 9C16.72 13.27 13.25 16.75 8.96997 16.75ZM8.96997 2.75C5.51997 2.75 2.71997 5.55 2.71997 9C2.71997 12.12 5.04997 14.78 8.13997 15.19C8.39997 15.23 8.66997 15.25 8.96997 15.25C12.42 15.25 15.22 12.45 15.22 9C15.22 8.7 15.2 8.43 15.16 8.19C14.75 5.08 12.1 2.75 8.96997 2.75Z" fill="#292D32"/>
<path d="M14.9699 22.7497C11.0999 22.7497 7.79989 19.8597 7.29989 16.0297C7.26989 15.7897 7.34989 15.5597 7.51989 15.3897C7.68989 15.2197 7.93989 15.1497 8.16989 15.1897C8.40989 15.2297 8.66989 15.2497 8.96989 15.2497C12.4199 15.2497 15.2199 12.4497 15.2199 8.99973C15.2199 8.69973 15.1999 8.42973 15.1599 8.18973C15.1199 7.95973 15.1999 7.71973 15.3599 7.54973C15.5199 7.37973 15.7499 7.28973 15.9999 7.32973C19.8299 7.82973 22.7199 11.1297 22.7199 14.9997C22.7199 19.2697 19.2499 22.7497 14.9699 22.7497ZM8.97989 16.7497C9.73989 19.3697 12.1699 21.2497 14.9699 21.2497C18.4199 21.2497 21.2199 18.4497 21.2199 14.9997C21.2199 12.1997 19.3399 9.75973 16.7199 9.00973C16.7199 13.2697 13.2499 16.7497 8.97989 16.7497Z" fill="#292D32"/>
<path d="M15.43 16.1603C15.24 16.1603 15.05 16.0903 14.9 15.9503L13.6 14.6703C13.31 14.3803 13.3 13.9003 13.59 13.6103C13.88 13.3203 14.35 13.3103 14.65 13.6003L15.95 14.8803C16.24 15.1703 16.25 15.6503 15.96 15.9403C15.82 16.0803 15.62 16.1603 15.43 16.1603Z" fill="#292D32"/>
<path d="M16.9699 12.7504C16.7799 12.7504 16.5899 12.6804 16.4399 12.5304L15.4399 11.5304C15.1499 11.2404 15.1499 10.7604 15.4399 10.4704C15.7299 10.1804 16.2099 10.1804 16.4999 10.4704L17.4999 11.4704C17.7899 11.7604 17.7899 12.2404 17.4999 12.5304C17.3599 12.6804 17.1699 12.7504 16.9699 12.7504Z" fill="#292D32"/>
<path d="M11.9699 17.7504C11.7799 17.7504 11.5899 17.6804 11.4399 17.5304L10.4399 16.5304C10.1499 16.2404 10.1499 15.7604 10.4399 15.4704C10.7299 15.1804 11.2099 15.1804 11.4999 15.4704L12.4999 16.4704C12.7899 16.7604 12.7899 17.2404 12.4999 17.5304C12.3599 17.6804 12.1699 17.7504 11.9699 17.7504Z" fill="#292D32"/>
</svg>
