<svg width="24" height="24" viewBox="0 0 24 24" fill="none" xmlns="http://www.w3.org/2000/svg">
<path d="M21.7197 6.27977V7.44977C21.7197 8.42977 21.3297 9.26977 20.6397 9.75977C20.2097 10.0798 19.6797 10.2298 19.1297 10.2298C18.7897 10.2298 18.4497 10.1798 18.0997 10.0598L12.7197 8.26977V17.9998C12.7197 20.6198 10.5897 22.7498 7.96973 22.7498C5.34973 22.7498 3.21973 20.6198 3.21973 17.9998C3.21973 15.3798 5.34973 13.2498 7.96973 13.2498C9.22973 13.2498 10.3697 13.7498 11.2197 14.5498V3.99977C11.2197 3.02977 11.6197 2.18977 12.3097 1.68977C12.9997 1.19977 13.9197 1.08977 14.8397 1.38977L19.2597 2.86977C20.6197 3.31977 21.7197 4.84977 21.7197 6.27977Z" fill="#292D32"/>
</svg>
