<svg width="24" height="24" viewBox="0 0 24 24" fill="none" xmlns="http://www.w3.org/2000/svg">
<path d="M14.1297 11.3405C14.5197 9.70052 13.0897 8.27052 11.4497 8.66052C10.6797 8.85052 10.0497 9.48052 9.85974 10.2505C9.46974 11.8905 10.8997 13.3205 12.5397 12.9305C13.3197 12.7405 13.9497 12.1105 14.1297 11.3405Z" fill="#292D32"/>
<path d="M6.01996 17.97C5.83996 17.97 5.64996 17.9 5.50996 17.77C3.56996 15.97 2.45996 13.43 2.45996 10.79C2.45996 5.53 6.73996 1.25 12 1.25C17.26 1.25 21.54 5.53 21.54 10.79C21.54 13.45 20.47 15.91 18.53 17.74C18.23 18.02 17.75 18.01 17.47 17.71C17.19 17.41 17.2 16.93 17.5 16.65C19.14 15.11 20.04 13.04 20.04 10.8C20.04 6.37 16.43 2.76 12 2.76C7.56996 2.76 3.95996 6.37 3.95996 10.8C3.95996 13.06 4.86996 15.14 6.52996 16.68C6.82996 16.96 6.84996 17.44 6.56996 17.74C6.41996 17.89 6.21996 17.97 6.01996 17.97Z" fill="#292D32"/>
<path d="M15.9995 15.3005C15.8195 15.3005 15.6295 15.2305 15.4895 15.1005C15.1895 14.8205 15.1695 14.3405 15.4595 14.0405C16.2895 13.1605 16.7495 12.0005 16.7495 10.8005C16.7495 8.18055 14.6195 6.06055 12.0095 6.06055C9.39953 6.06055 7.26953 8.19055 7.26953 10.8005C7.26953 12.0105 7.72953 13.1605 8.55953 14.0405C8.83953 14.3405 8.82953 14.8205 8.52953 15.1005C8.22953 15.3905 7.74953 15.3705 7.46953 15.0705C6.37953 13.9105 5.76953 12.3905 5.76953 10.8005C5.76953 7.36055 8.56953 4.56055 12.0095 4.56055C15.4495 4.56055 18.2495 7.36055 18.2495 10.8005C18.2495 12.3905 17.6495 13.9105 16.5495 15.0705C16.3995 15.2205 16.1995 15.3005 15.9995 15.3005Z" fill="#292D32"/>
<path d="M10.2999 16.66L8.85988 18.45C7.71988 19.88 8.73989 22 10.5599 22H13.4299C15.2599 22 16.2799 19.88 15.1299 18.46L13.6899 16.67C12.8299 15.57 11.1699 15.57 10.2999 16.66Z" fill="#292D32"/>
</svg>
