<svg width="24" height="24" viewBox="0 0 24 24" fill="none" xmlns="http://www.w3.org/2000/svg">
<path d="M12.0001 22.7601C10.9101 22.7601 9.83012 22.4401 8.98012 21.8101L7.39012 20.6201C7.06012 20.3701 6.99012 19.9001 7.24012 19.5701C7.49012 19.2401 7.96012 19.1701 8.29012 19.4201L9.88012 20.6101C11.0301 21.4701 12.9801 21.4701 14.1301 20.6101L18.4301 17.4001C19.1901 16.8301 19.8501 15.5001 19.8501 14.5601V7.12012C19.8501 6.71012 20.1901 6.37012 20.6001 6.37012C21.0101 6.37012 21.3501 6.71012 21.3501 7.12012V14.5501C21.3501 15.9701 20.4601 17.7401 19.3201 18.5901L15.0201 21.8001C14.1701 22.4401 13.0901 22.7601 12.0001 22.7601Z" fill="#292D32"/>
<path d="M5.3299 18.9004C5.1699 18.9004 5.0199 18.8504 4.8799 18.7504L4.6799 18.6004C3.5399 17.7504 2.6499 15.9704 2.6499 14.5604V7.12043C2.6499 5.58043 3.7799 3.94043 5.2299 3.40043L10.2199 1.53043C11.2099 1.16043 12.7699 1.16043 13.7599 1.53043L18.7599 3.40043C18.9699 3.48043 19.1699 3.58043 19.3699 3.70043C19.7199 3.92043 19.8299 4.38043 19.6099 4.73043C19.3899 5.08043 18.9299 5.19043 18.5799 4.97043C18.4699 4.90043 18.3599 4.84043 18.2399 4.80043L13.2399 2.93043C12.5799 2.68043 11.4099 2.68043 10.7499 2.93043L5.7599 4.81043C4.8999 5.13043 4.1499 6.21043 4.1499 7.13043V14.5604C4.1499 15.5104 4.8199 16.8404 5.5699 17.4004L5.7699 17.5504C6.0999 17.8004 6.1699 18.2704 5.9199 18.6004C5.7899 18.7904 5.5599 18.9004 5.3299 18.9004Z" fill="#292D32"/>
<path d="M1.99994 22.7504C1.80994 22.7504 1.61994 22.6804 1.46994 22.5304C1.17994 22.2404 1.17994 21.7604 1.46994 21.4704L21.4699 1.47043C21.7599 1.18043 22.2399 1.18043 22.5299 1.47043C22.8199 1.76043 22.8199 2.24043 22.5299 2.53043L2.52994 22.5304C2.37994 22.6804 2.18994 22.7504 1.99994 22.7504Z" fill="#292D32"/>
</svg>
