<svg width="24" height="24" viewBox="0 0 24 24" fill="none" xmlns="http://www.w3.org/2000/svg">
<path d="M12.07 21.9803C10.66 21.9803 9.24003 21.4403 8.17003 20.3703L3.64003 15.8403C2.54003 14.7403 1.96003 13.2203 2.03003 11.6703L2.27003 6.66032C2.38003 4.27032 4.27003 2.38032 6.67003 2.26032L11.67 2.02032C13.23 1.95032 14.74 2.53032 15.84 3.63032L20.37 8.16032C22.52 10.3103 22.52 13.8203 20.37 15.9703L15.98 20.3603C14.9 21.4403 13.49 21.9803 12.07 21.9803ZM4.70003 14.7703L9.23003 19.3003C10.8 20.8703 13.35 20.8703 14.92 19.3003L19.31 14.9103C20.88 13.3403 20.88 10.7903 19.31 9.22032L14.77 4.70032C13.97 3.90032 12.88 3.48032 11.73 3.53032L6.73003 3.77032C5.11003 3.84032 3.84003 5.11032 3.76003 6.73032L3.52003 11.7403C3.47003 12.8603 3.90003 13.9703 4.70003 14.7703Z" fill="#292D32"/>
<path d="M9.5 12.75C7.71 12.75 6.25 11.29 6.25 9.5C6.25 7.71 7.71 6.25 9.5 6.25C11.29 6.25 12.75 7.71 12.75 9.5C12.75 11.29 11.29 12.75 9.5 12.75ZM9.5 7.75C8.54 7.75 7.75 8.54 7.75 9.5C7.75 10.46 8.54 11.25 9.5 11.25C10.46 11.25 11.25 10.46 11.25 9.5C11.25 8.54 10.46 7.75 9.5 7.75Z" fill="#292D32"/>
<path d="M13 17.7504C12.81 17.7504 12.62 17.6804 12.47 17.5304C12.18 17.2404 12.18 16.7604 12.47 16.4704L16.47 12.4704C16.76 12.1804 17.24 12.1804 17.53 12.4704C17.82 12.7604 17.82 13.2404 17.53 13.5304L13.53 17.5304C13.38 17.6804 13.19 17.7504 13 17.7504Z" fill="#292D32"/>
</svg>
