<svg width="24" height="24" viewBox="0 0 24 24" fill="none" xmlns="http://www.w3.org/2000/svg">
<path d="M16.98 13.1996C16.79 13.1996 16.59 13.1196 16.45 12.9796L11.05 7.56958C10.8 7.31958 10.76 6.93958 10.95 6.63958L12.64 3.96958C13.11 3.22958 13.82 2.76958 14.65 2.67958C15.58 2.58958 16.54 2.94958 17.29 3.69958L20.32 6.72958C21.04 7.44958 21.4 8.41958 21.29 9.37958C21.2 10.2196 20.75 10.9496 20.05 11.3896L17.38 13.0796C17.26 13.1596 17.12 13.1996 16.98 13.1996ZM12.53 6.93958L17.09 11.4996L19.26 10.1296C19.57 9.92958 19.77 9.60958 19.81 9.21958C19.87 8.71958 19.66 8.18958 19.27 7.79958L16.24 4.76958C15.81 4.33958 15.29 4.10958 14.82 4.17958C14.44 4.21958 14.13 4.42958 13.91 4.77958L12.53 6.93958Z" fill="#292D32"/>
<path d="M5.88989 21.3395C4.99989 21.3395 4.19989 21.0195 3.59989 20.4295C2.89989 19.7295 2.58989 18.7595 2.71989 17.6795L3.69989 9.34954C3.99989 6.82954 5.10989 5.90954 7.69989 6.05954L11.6199 6.28954C12.0299 6.31954 12.3499 6.66954 12.3199 7.07954C12.2899 7.48954 11.9399 7.80954 11.5299 7.77954L7.60989 7.55954C5.82989 7.44954 5.38989 7.79954 5.18989 9.52954L4.20989 17.8495C4.13989 18.4595 4.29989 18.9995 4.65989 19.3595C5.02989 19.7195 5.56989 19.8895 6.17989 19.8095L14.4999 18.8295C16.2499 18.6195 16.6399 18.1595 16.4699 16.4395L16.2299 12.4895C16.2099 12.0795 16.5199 11.7195 16.9299 11.6995C17.3399 11.6695 17.6999 11.9895 17.7199 12.3995L17.9499 16.3195C18.1899 18.8095 17.2099 20.0095 14.6599 20.3195L6.33989 21.2995C6.19989 21.3295 6.03989 21.3395 5.88989 21.3395Z" fill="#292D32"/>
<path d="M4.61005 20.1703C4.42005 20.1703 4.23005 20.1003 4.08005 19.9503C3.79005 19.6603 3.79005 19.1803 4.08005 18.8903L7.12005 15.8503C7.41005 15.5603 7.89005 15.5603 8.18005 15.8503C8.47005 16.1403 8.47005 16.6203 8.18005 16.9103L5.14005 19.9503C4.99005 20.1003 4.80005 20.1703 4.61005 20.1703Z" fill="#292D32"/>
</svg>
