<svg width="24" height="24" viewBox="0 0 24 24" fill="none" xmlns="http://www.w3.org/2000/svg">
<path d="M5.53 2C5.11 2 4.78 2.34 4.78 2.75V4.78H2.75C2.34 4.78 2 5.11 2 5.53C2 5.95 2.34 6.28 2.75 6.28H5.53C5.94 6.28 6.28 5.94 6.28 5.53V2.75C6.28 2.34 5.94 2 5.53 2Z" fill="#292D32"/>
<path d="M21.2497 17.7197H18.4697C18.0597 17.7197 17.7197 18.0597 17.7197 18.4697V21.2497C17.7197 21.6597 18.0597 21.9997 18.4697 21.9997C18.8797 21.9997 19.2197 21.6597 19.2197 21.2497V19.2197H21.2497C21.6597 19.2197 21.9997 18.8797 21.9997 18.4697C21.9997 18.0597 21.6597 17.7197 21.2497 17.7197Z" fill="#292D32"/>
<path d="M16.7201 18.4698C16.7201 17.5098 17.5101 16.7198 18.4701 16.7198H19.1601V10.0498C19.1601 7.15982 16.8201 4.81982 13.9301 4.81982H7.28008V5.50982C7.28008 6.46982 6.49008 7.25982 5.53008 7.25982H4.83008V13.9298C4.83008 16.8198 7.17008 19.1598 10.0601 19.1598H16.7301V18.4698H16.7201Z" fill="#292D32"/>
</svg>
