<svg width="24" height="24" viewBox="0 0 24 24" fill="none" xmlns="http://www.w3.org/2000/svg">
<path d="M15.59 21.6603C15.4 21.6603 15.21 21.5903 15.06 21.4403C14.77 21.1503 14.77 20.6703 15.06 20.3803L17.88 17.5603C18.17 17.2703 18.65 17.2703 18.94 17.5603C19.23 17.8503 19.23 18.3303 18.94 18.6203L16.12 21.4403C15.97 21.5903 15.78 21.6603 15.59 21.6603Z" fill="#292D32"/>
<path d="M18.41 21.6603C18.22 21.6603 18.03 21.5903 17.88 21.4403L15.06 18.6203C14.77 18.3303 14.77 17.8503 15.06 17.5603C15.35 17.2703 15.83 17.2703 16.12 17.5603L18.94 20.3803C19.23 20.6703 19.23 21.1503 18.94 21.4403C18.79 21.5903 18.6 21.6603 18.41 21.6603Z" fill="#292D32"/>
<path d="M12.1601 11.62C12.1301 11.62 12.1101 11.62 12.0801 11.62C12.0301 11.61 11.9601 11.61 11.9001 11.62C9.00006 11.53 6.81006 9.25 6.81006 6.44C6.81006 3.58 9.14006 1.25 12.0001 1.25C14.8601 1.25 17.1901 3.58 17.1901 6.44C17.1801 9.25 14.9801 11.53 12.1901 11.62C12.1801 11.62 12.1701 11.62 12.1601 11.62ZM12.0001 2.75C9.97006 2.75 8.31006 4.41 8.31006 6.44C8.31006 8.44 9.87006 10.05 11.8601 10.12C11.9201 10.11 12.0501 10.11 12.1801 10.12C14.1401 10.03 15.6801 8.42 15.6901 6.44C15.6901 4.41 14.0301 2.75 12.0001 2.75Z" fill="#292D32"/>
<path d="M12 22.5597C9.96004 22.5597 8.03004 22.0297 6.57004 21.0497C5.18004 20.1197 4.42004 18.8497 4.42004 17.4797C4.42004 16.1097 5.19004 14.8497 6.57004 13.9297C9.56004 11.9297 14.42 11.9297 17.41 13.9297C17.75 14.1597 17.85 14.6297 17.62 14.9697C17.39 15.3197 16.92 15.4097 16.58 15.1797C14.09 13.5197 9.89004 13.5197 7.40004 15.1797C6.44004 15.8197 5.92004 16.6297 5.92004 17.4797C5.92004 18.3297 6.45004 19.1597 7.40004 19.7997C8.61004 20.6097 10.24 21.0497 11.99 21.0497C12.4 21.0497 12.74 21.3897 12.74 21.7997C12.74 22.2097 12.41 22.5597 12 22.5597Z" fill="#292D32"/>
</svg>
