<svg width="24" height="24" viewBox="0 0 24 24" fill="none" xmlns="http://www.w3.org/2000/svg">
<path d="M19.27 3.6499L14.17 8.7499H3.2C2.54 8.7499 2 8.2099 2 7.5499V7.5399C2 5.2499 3.85 3.3999 6.14 3.3999H17.85C18.35 3.3999 18.83 3.4899 19.27 3.6499Z" fill="#292D32"/>
<path d="M12.67 10.25L7.17 15.75H6C5.59 15.75 5.25 16.09 5.25 16.5C5.25 16.81 5.45 17.09 5.73 17.19L3.38 19.54C2.53 18.79 2 17.69 2 16.46V11.45C2 10.79 2.54 10.25 3.2 10.25H12.67Z" fill="#292D32"/>
<path d="M21.9997 11V16.46C21.9997 18.75 20.1497 20.6 17.8597 20.6H8.80968C7.91968 20.6 7.46968 19.52 8.09968 18.89L9.44968 17.54C9.63968 17.35 9.88968 17.25 10.1597 17.25H14.4997C14.9097 17.25 15.2497 16.91 15.2497 16.5C15.2497 16.09 14.9097 15.75 14.4997 15.75H13.6597C12.7697 15.75 12.3197 14.67 12.9497 14.04L16.4097 10.58C16.7897 10.21 17.2997 10 17.8297 10H20.9997C21.5497 10 21.9997 10.45 21.9997 11Z" fill="#292D32"/>
<path d="M21.7699 2.22988C21.4699 1.92988 20.9799 1.92988 20.6799 2.22988L2.22988 20.6899C1.92988 20.9899 1.92988 21.4799 2.22988 21.7799C2.37988 21.9199 2.56988 21.9999 2.76988 21.9999C2.96988 21.9999 3.15988 21.9199 3.30988 21.7699L21.7699 3.30988C22.0799 3.00988 22.0799 2.52988 21.7699 2.22988Z" fill="#292D32"/>
<path d="M21.7696 3.31006L20.6096 4.47006L16.3296 8.75006L3.30957 21.7701C3.15957 21.9201 2.96957 22.0001 2.76957 22.0001C2.56957 22.0001 2.37957 21.9201 2.22957 21.7701C1.91957 21.4701 1.91957 20.9901 2.22957 20.6901L3.37957 19.5401L5.72957 17.1901L19.2696 3.65006L20.6896 2.23006C20.9896 1.92006 21.4696 1.92006 21.7696 2.23006C22.0796 2.53006 22.0796 3.01006 21.7696 3.31006Z" fill="#292D32"/>
<path d="M21.9996 7.40977C21.9996 6.51977 20.9196 6.06977 20.2896 6.69977L19.9996 6.99977L19.7096 7.28977C19.0796 7.91977 19.5196 8.99977 20.4096 8.99977H20.9996C21.5496 8.99977 21.9996 8.54977 21.9996 7.99977V7.40977Z" fill="#292D32"/>
</svg>
