<svg width="24" height="24" viewBox="0 0 24 24" fill="none" xmlns="http://www.w3.org/2000/svg">
<path d="M12 22.81C11.31 22.81 10.66 22.46 10.2 21.85L8.7 19.85C8.67 19.81 8.55 19.75 8.49 19.75H8C3.83 19.75 1.25 18.62 1.25 13V8C1.25 3.58 3.58 1.25 8 1.25H12C12.41 1.25 12.75 1.59 12.75 2C12.75 2.41 12.41 2.75 12 2.75H8C4.42 2.75 2.75 4.42 2.75 8V13C2.75 17.52 4.3 18.25 8 18.25H8.5C9.01 18.25 9.59 18.54 9.9 18.95L11.4 20.95C11.75 21.41 12.25 21.41 12.6 20.95L14.1 18.95C14.43 18.51 14.95 18.25 15.5 18.25H16C19.58 18.25 21.25 16.58 21.25 13V8C21.25 7.59 21.59 7.25 22 7.25C22.41 7.25 22.75 7.59 22.75 8V13C22.75 17.42 20.42 19.75 16 19.75H15.5C15.42 19.75 15.35 19.79 15.3 19.85L13.8 21.85C13.34 22.46 12.69 22.81 12 22.81Z" fill="#292D32"/>
<path d="M12 12C11.44 12 11 11.55 11 11C11 10.45 11.45 10 12 10C12.55 10 13 10.45 13 11C13 11.55 12.56 12 12 12Z" fill="#292D32"/>
<path d="M16 12C15.44 12 15 11.55 15 11C15 10.45 15.45 10 16 10C16.55 10 17 10.45 17 11C17 11.55 16.56 12 16 12Z" fill="#292D32"/>
<path d="M8 12C7.44 12 7 11.55 7 11C7 10.45 7.45 10 8 10C8.55 10 9 10.45 9 11C9 11.55 8.56 12 8 12Z" fill="#292D32"/>
<path d="M17.9999 7.75048C17.1399 7.75048 15.1099 6.73048 14.4899 4.86048C14.2399 4.12048 14.2999 3.27048 14.6499 2.60048C14.9599 2.00048 15.48 1.56048 16.12 1.36048C16.77 1.16048 17.4599 1.25048 17.9999 1.58048C18.5399 1.25048 19.2299 1.16048 19.8899 1.36048C20.5299 1.56048 21.05 2.00048 21.36 2.60048C21.71 3.27048 21.77 4.12048 21.52 4.86048C20.89 6.76048 18.7699 7.75048 17.9999 7.75048ZM15.9099 4.38048C16.3299 5.64048 17.76 6.22048 18.02 6.25048C18.31 6.22048 19.71 5.57048 20.1 4.39048C20.22 4.03048 20.19 3.60048 20.03 3.29048C19.9 3.04048 19.71 2.88048 19.45 2.80048C19.17 2.70048 18.79 2.75048 18.62 3.00048C18.48 3.20048 18.26 3.32048 18.02 3.33048C17.78 3.33048 17.5499 3.22048 17.3999 3.03048C17.1899 2.76048 16.8199 2.72048 16.5499 2.80048C16.2899 2.88048 16.1 3.04048 15.97 3.29048C15.82 3.60048 15.7899 4.02048 15.9099 4.38048Z" fill="#292D32"/>
</svg>
