<svg width="24" height="24" viewBox="0 0 24 24" fill="none" xmlns="http://www.w3.org/2000/svg">
<path d="M8.25864 21.2448C8.90561 20.5978 9.27728 19.7719 9.37364 18.9184C9.50441 17.7828 9.12586 16.6058 8.25864 15.7386C7.74244 15.2224 7.10923 14.8783 6.44161 14.72C5.16831 14.3965 3.75736 14.7337 2.75248 15.7386C2.05733 16.4338 1.67878 17.3216 1.6306 18.237C1.59619 18.6294 1.6306 19.0354 1.73385 19.4277C1.89215 20.0954 2.23628 20.7286 2.75248 21.2448C4.27356 22.7659 6.73756 22.7659 8.25864 21.2448ZM6.96469 17.7759C7.36389 17.7759 7.69426 18.1063 7.69426 18.5055C7.68738 18.9115 7.36389 19.235 6.95781 19.2419L6.23513 19.235L6.24201 19.9302C6.23513 20.3363 5.91164 20.6597 5.50556 20.6666C5.09948 20.6597 4.776 20.3363 4.76911 19.9302L4.776 19.235L4.05331 19.2419C3.64723 19.235 3.32375 18.9115 3.31686 18.5055C3.32375 18.3059 3.40634 18.1269 3.53711 17.9961C3.66788 17.8654 3.84683 17.7828 4.04643 17.7759L4.776 17.7759L4.776 17.0188C4.776 16.8123 4.85859 16.6334 4.98936 16.5026C5.12013 16.3718 5.29908 16.2892 5.50556 16.2892C5.90476 16.2892 6.23513 16.6196 6.23513 17.0188L6.23513 17.7759L6.96469 17.7759Z" fill="#292D32"/>
<path d="M15.0942 3.84548V7.54425H13.6342V3.84548C13.6342 3.58267 13.4006 3.45613 13.2449 3.45613C13.1962 3.45613 13.1475 3.46587 13.0989 3.48533L5.38011 6.39568C4.86422 6.59035 4.53328 7.07703 4.53328 7.63185V8.284C3.64752 8.94589 3.07324 10.0068 3.07324 11.2041V7.63185C3.07324 6.47355 3.7838 5.44179 4.86422 5.03298L12.5927 2.1129C12.8068 2.03503 13.0307 1.99609 13.2449 1.99609C14.2182 1.99609 15.0942 2.78452 15.0942 3.84548Z" fill="#292D32"/>
<path d="M21.5681 14.1151V15.0885C21.5681 15.3513 21.3637 15.5654 21.0911 15.5751H19.67C19.1542 15.5751 18.6869 15.1955 18.648 14.6894C18.6188 14.3876 18.7356 14.1054 18.9303 13.9107C19.1055 13.7258 19.3488 13.6284 19.6116 13.6284H21.0814C21.3637 13.6382 21.5681 13.8523 21.5681 14.1151Z" fill="#292D32"/>
<path d="M19.6009 12.6049H20.5937C21.1291 12.6049 21.5671 12.1669 21.5671 11.6316V11.2033C21.5671 9.18844 19.9221 7.54346 17.9073 7.54346H6.73308C5.90572 7.54346 5.1465 7.816 4.53328 8.28321C3.64752 8.9451 3.07324 10.0061 3.07324 11.2033V12.9359C3.07324 13.3057 3.46259 13.5394 3.813 13.4226C4.35808 13.2376 4.93236 13.1403 5.50664 13.1403C8.45592 13.1403 10.8601 15.5445 10.8601 18.4938C10.8601 19.1946 10.6752 19.9635 10.3832 20.6449C10.2274 20.9953 10.4708 21.4138 10.8504 21.4138H17.9073C19.9221 21.4138 21.5671 19.7689 21.5671 17.754V17.5691C21.5671 17.0337 21.1291 16.5957 20.5937 16.5957H19.7469C18.8125 16.5957 17.917 16.0214 17.6736 15.1162C17.479 14.3764 17.7126 13.6562 18.1993 13.1889C18.5594 12.8191 19.0558 12.6049 19.6009 12.6049ZM14.2669 12.4103H9.40008C9.00101 12.4103 8.67006 12.0793 8.67006 11.6802C8.67006 11.2812 9.00101 10.9502 9.40008 10.9502H14.2669C14.666 10.9502 14.9969 11.2812 14.9969 11.6802C14.9969 12.0793 14.666 12.4103 14.2669 12.4103Z" fill="#292D32"/>
</svg>
