<svg width="24" height="24" viewBox="0 0 24 24" fill="none" xmlns="http://www.w3.org/2000/svg">
<path d="M12.0001 18.1896C8.59006 18.1896 5.81006 15.4096 5.81006 11.9996C5.81006 8.58957 8.59006 5.80957 12.0001 5.80957C13.3501 5.80957 14.6401 6.23958 15.7201 7.04958C16.0501 7.29958 16.1201 7.76958 15.8701 8.09958C15.6201 8.42958 15.1501 8.49957 14.8201 8.24957C14.0001 7.62957 13.0301 7.30957 12.0001 7.30957C9.42006 7.30957 7.31006 9.40957 7.31006 11.9996C7.31006 14.5896 9.41006 16.6896 12.0001 16.6896C13.4801 16.6896 14.8401 16.0096 15.7401 14.8296C15.9901 14.4996 16.4601 14.4396 16.7901 14.6896C17.1201 14.9396 17.1801 15.4096 16.9301 15.7396C15.7501 17.2896 13.9501 18.1896 12.0001 18.1896Z" fill="black"/>
<path d="M17.42 12.09C16.36 12.09 15.5 11.23 15.5 10.17C15.5 9.11 16.36 8.25 17.42 8.25C18.48 8.25 19.34 9.11 19.34 10.17C19.34 11.23 18.48 12.09 17.42 12.09ZM17.42 9.75C17.19 9.75 17 9.94 17 10.17C17 10.4 17.19 10.59 17.42 10.59C17.65 10.59 17.84 10.4 17.84 10.17C17.84 9.94 17.65 9.75 17.42 9.75Z" fill="black"/>
<path d="M12 22.75C6.07 22.75 1.25 17.93 1.25 12C1.25 6.07 6.07 1.25 12 1.25C17.93 1.25 22.75 6.07 22.75 12C22.75 17.93 17.93 22.75 12 22.75ZM12 2.75C6.9 2.75 2.75 6.9 2.75 12C2.75 17.1 6.9 21.25 12 21.25C17.1 21.25 21.25 17.1 21.25 12C21.25 6.9 17.1 2.75 12 2.75Z" fill="black"/>
</svg>
