<svg width="24" height="24" viewBox="0 0 24 24" fill="none" xmlns="http://www.w3.org/2000/svg">
<path d="M20.5403 19.0403C20.3903 19.1903 20.2003 19.2603 20.0103 19.2603C19.8203 19.2603 19.6303 19.1903 19.4803 19.0403L14.5303 14.0903L15.0603 13.5603L15.5903 13.0303L20.5403 17.9803C20.8303 18.2703 20.8303 18.7503 20.5403 19.0403Z" fill="#292D32"/>
<path d="M6.47035 9.28009L12.2704 15.0801C12.6604 15.4701 12.6604 16.1001 12.2704 16.4901L11.3704 17.4001C10.5604 18.2001 9.28035 18.2001 8.48035 17.4001L4.14035 13.0601C3.35035 12.2701 3.35035 10.9801 4.14035 10.1801L5.05035 9.27009C5.44035 8.89009 6.08035 8.89009 6.47035 9.28009Z" fill="#292D32"/>
<path d="M18.5898 10.1902L14.7798 13.9902C14.3798 14.3902 13.7398 14.3902 13.3398 13.9902L7.55977 8.21018C7.15977 7.81018 7.15977 7.17018 7.55977 6.77018L11.3698 2.96018C12.1598 2.17018 13.4498 2.17018 14.2498 2.96018L18.5898 7.30018C19.3798 8.10018 19.3798 9.38018 18.5898 10.1902Z" fill="#292D32"/>
<path d="M8 21.75H2C1.59 21.75 1.25 21.41 1.25 21C1.25 20.59 1.59 20.25 2 20.25H8C8.41 20.25 8.75 20.59 8.75 21C8.75 21.41 8.41 21.75 8 21.75Z" fill="#292D32"/>
</svg>
