<svg width="24" height="24" viewBox="0 0 24 24" fill="none" xmlns="http://www.w3.org/2000/svg">
<path d="M16.65 20.7498C16.64 20.7498 16.62 20.7498 16.61 20.7498C16.2 20.7498 15.86 20.4098 15.87 19.9898C15.87 19.5798 16.24 19.2098 16.63 19.2498C17.73 19.2498 18.89 18.8298 19.74 18.0498C21.29 16.6898 21.4 14.7498 20.98 13.3798C20.56 12.0098 19.39 10.4598 17.37 10.1998C17.04 10.1598 16.78 9.90977 16.72 9.57977C16.33 7.18977 15.03 5.53977 13.09 4.93977C11.07 4.31977 8.73998 4.92977 7.27998 6.45977C5.85998 7.94977 5.52998 10.0198 6.34998 12.3098C6.48998 12.6998 6.28998 13.1298 5.89998 13.2698C5.50998 13.4098 5.07998 13.2098 4.93998 12.8198C3.92998 10.0098 4.38998 7.31977 6.19998 5.42977C8.04998 3.49977 10.99 2.72977 13.54 3.51977C15.87 4.23977 17.52 6.15977 18.11 8.81977C20.15 9.27977 21.78 10.8198 22.43 12.9498C23.14 15.2698 22.5 17.6498 20.76 19.1698C19.61 20.1898 18.16 20.7498 16.65 20.7498Z" fill="#292D32"/>
<path d="M5.57002 20.7496C5.55002 20.7496 5.53002 20.7496 5.52002 20.7496C2.64002 20.5496 1.33002 18.2896 1.33002 16.2796C1.33002 14.2696 2.64002 12.0196 5.52002 11.8096C6.28002 11.8196 6.99002 11.9696 7.63002 12.2896C8.00002 12.4796 8.14002 12.9296 7.96002 13.2996C7.77002 13.6696 7.32002 13.8096 6.95002 13.6296C6.53002 13.4096 6.06002 13.3096 5.59002 13.3096C3.70002 13.4496 2.84002 14.8996 2.84002 16.2796C2.84002 17.6596 3.70002 19.1096 5.63002 19.2496C6.04002 19.2796 6.35002 19.6396 6.33002 20.0496C6.29002 20.4496 5.96002 20.7496 5.57002 20.7496Z" fill="#292D32"/>
<path d="M15.82 10.6397C15.54 10.6397 15.28 10.4897 15.15 10.2197C14.96 9.84973 15.11 9.39973 15.49 9.20973C16.1 8.89973 16.79 8.72973 17.47 8.71973H17.48C17.89 8.71973 18.22 9.04973 18.23 9.45973C18.24 9.86973 17.91 10.2197 17.49 10.2197C17.03 10.2297 16.57 10.3397 16.15 10.5497C16.04 10.6197 15.93 10.6397 15.82 10.6397Z" fill="#292D32"/>
<path d="M12.98 19C12.42 19 11.98 18.55 11.98 18C11.98 17.45 12.43 17 12.98 17C13.53 17 13.98 17.45 13.98 18C13.98 18.55 13.53 19 12.98 19Z" fill="#292D32"/>
<path d="M8.97998 19C8.41998 19 7.97998 18.55 7.97998 18C7.97998 17.45 8.42998 17 8.97998 17C9.52998 17 9.97998 17.45 9.97998 18C9.97998 18.55 9.52998 19 8.97998 19Z" fill="#292D32"/>
<path d="M10.98 22C10.42 22 9.97998 21.55 9.97998 21C9.97998 20.45 10.43 20 10.98 20C11.53 20 11.98 20.45 11.98 21C11.98 21.55 11.53 22 10.98 22Z" fill="#292D32"/>
</svg>
