<svg width="24" height="24" viewBox="0 0 24 24" fill="none" xmlns="http://www.w3.org/2000/svg">
<path d="M15.2499 16.0004C15.0599 16.0004 14.8699 15.9304 14.7199 15.7804L11.9999 13.0604L9.27994 15.7804C8.98994 16.0704 8.50994 16.0704 8.21994 15.7804L4.96994 12.5304C4.67994 12.2404 4.67994 11.7604 4.96994 11.4704L8.21994 8.22043C8.50994 7.93043 8.98994 7.93043 9.27994 8.22043L11.9999 10.9404L14.7199 8.22043C15.0099 7.93043 15.4899 7.93043 15.7799 8.22043L19.0299 11.4704C19.3199 11.7604 19.3199 12.2404 19.0299 12.5304L15.7799 15.7804C15.6299 15.9304 15.4399 16.0004 15.2499 16.0004ZM13.0599 12.0004L15.2499 14.1904L17.4399 12.0004L15.2499 9.81043L13.0599 12.0004ZM6.55994 12.0004L8.74994 14.1904L10.9399 12.0004L8.74994 9.81043L6.55994 12.0004Z" fill="black"/>
<path d="M12 22.75C6.07 22.75 1.25 17.93 1.25 12C1.25 6.07 6.07 1.25 12 1.25C17.93 1.25 22.75 6.07 22.75 12C22.75 17.93 17.93 22.75 12 22.75ZM12 2.75C6.9 2.75 2.75 6.9 2.75 12C2.75 17.1 6.9 21.25 12 21.25C17.1 21.25 21.25 17.1 21.25 12C21.25 6.9 17.1 2.75 12 2.75Z" fill="black"/>
</svg>
