<svg width="24" height="24" viewBox="0 0 24 24" fill="none" xmlns="http://www.w3.org/2000/svg">
<path d="M21.7 6.38965H14.43C14.02 6.38965 13.68 6.04965 13.68 5.63965C13.68 5.22965 14.02 4.88965 14.43 4.88965H21.7C22.11 4.88965 22.45 5.22965 22.45 5.63965C22.45 6.04965 22.11 6.38965 21.7 6.38965Z" fill="#292D32"/>
<path d="M9.57999 6.38965H2.29999C1.88999 6.38965 1.54999 6.04965 1.54999 5.63965C1.54999 5.22965 1.88999 4.88965 2.29999 4.88965H9.56999C9.97999 4.88965 10.32 5.22965 10.32 5.63965C10.32 6.04965 9.98999 6.38965 9.57999 6.38965Z" fill="#292D32"/>
<path d="M21.7 16.0801H14.43C14.02 16.0801 13.68 15.7401 13.68 15.3301C13.68 14.9201 14.02 14.5801 14.43 14.5801H21.7C22.11 14.5801 22.45 14.9201 22.45 15.3301C22.45 15.7401 22.11 16.0801 21.7 16.0801Z" fill="#292D32"/>
<path d="M21.7 22.1396H14.43C14.02 22.1396 13.68 21.7996 13.68 21.3896C13.68 20.9796 14.02 20.6396 14.43 20.6396H21.7C22.11 20.6396 22.45 20.9796 22.45 21.3896C22.45 21.7996 22.11 22.1396 21.7 22.1396Z" fill="#292D32"/>
<path d="M18.09 10.02C17.68 10.02 17.34 9.68 17.34 9.27V2C17.34 1.59 17.68 1.25 18.09 1.25C18.5 1.25 18.84 1.59 18.84 2V9.27C18.84 9.69 18.51 10.02 18.09 10.02Z" fill="#292D32"/>
<path d="M2.29999 22.7499C2.10999 22.7499 1.91999 22.6799 1.76999 22.5299C1.47999 22.2399 1.47999 21.7599 1.76999 21.4699L9.03999 14.1999C9.32999 13.9099 9.80999 13.9099 10.1 14.1999C10.39 14.4899 10.39 14.9699 10.1 15.2599L2.82999 22.5299C2.68999 22.6799 2.49999 22.7499 2.29999 22.7499Z" fill="#292D32"/>
<path d="M9.58 22.7499C9.39 22.7499 9.2 22.6799 9.05 22.5299L1.78 15.2599C1.49 14.9699 1.49 14.4899 1.78 14.1999C2.07 13.9099 2.55 13.9099 2.84 14.1999L10.11 21.4699C10.4 21.7599 10.4 22.2399 10.11 22.5299C9.96 22.6799 9.77 22.7499 9.58 22.7499Z" fill="#292D32"/>
</svg>
