<svg width="24" height="24" viewBox="0 0 24 24" fill="none" xmlns="http://www.w3.org/2000/svg">
<path d="M1.23084 21.6817L1.99084 20.9217C1.59084 20.3217 1.36084 19.6017 1.36084 18.8317C1.36084 16.7217 3.07084 15.0117 5.18084 15.0117C7.29084 15.0117 9.00084 16.7117 9.00084 18.8217C9.00084 20.9317 7.29084 22.6417 5.18084 22.6417C4.41084 22.6417 3.69084 22.4117 3.09084 22.0117L2.33084 22.7717C2.17084 22.9217 1.97084 23.0017 1.77084 23.0017C1.57084 23.0017 1.37084 22.9217 1.22084 22.7717C0.920836 22.4717 0.920836 21.9817 1.23084 21.6817Z" fill="#292D32"/>
<path d="M21.501 12.5H19.001C17.901 12.5 17.001 13.4 17.001 14.5C17.001 15.6 17.901 16.5 19.001 16.5H21.501C21.781 16.5 22.001 16.28 22.001 16V13C22.001 12.72 21.781 12.5 21.501 12.5Z" fill="#292D32"/>
<path d="M16.5312 5.40016C16.8312 5.69016 16.5812 6.14016 16.1612 6.14016L7.88118 6.13016C7.40118 6.13016 7.16118 5.55016 7.50118 5.21016L9.25118 3.45016C10.7312 1.98016 13.1212 1.98016 14.6012 3.45016L16.4912 5.36016C16.5012 5.37016 16.5212 5.39016 16.5312 5.40016Z" fill="#292D32"/>
<path d="M21.8713 18.66C21.2613 20.72 19.5013 22 17.1013 22H10.6013C10.2113 22 9.96133 21.57 10.1213 21.21C10.4213 20.51 10.6113 19.72 10.6113 19C10.6113 15.97 8.14133 13.5 5.11133 13.5C4.35133 13.5 3.61133 13.66 2.93133 13.96C2.56133 14.12 2.11133 13.87 2.11133 13.47V12C2.11133 9.28 3.75133 7.38 6.30133 7.06C6.55133 7.02 6.82133 7 7.10133 7H17.1013C17.3613 7 17.6113 7.01 17.8513 7.05C19.8713 7.28 21.3313 8.51 21.8713 10.34C21.9713 10.67 21.7313 11 21.3913 11H19.1013C16.9313 11 15.2113 12.98 15.6813 15.23C16.0113 16.87 17.5313 18 19.2013 18H21.3913C21.7413 18 21.9713 18.34 21.8713 18.66Z" fill="#292D32"/>
</svg>
