<svg width="24" height="24" viewBox="0 0 24 24" fill="none" xmlns="http://www.w3.org/2000/svg">
<path d="M20.8894 10.5298C20.4794 10.5298 20.1394 10.1898 20.1394 9.77983V6.90983L11.9994 2.83982L3.85938 6.90983V9.77983C3.85938 10.1898 3.51937 10.5298 3.10938 10.5298C2.69938 10.5298 2.35938 10.1898 2.35938 9.77983V6.44982C2.35938 6.16982 2.51942 5.90983 2.77942 5.77983L11.6694 1.33982C11.8794 1.22982 12.1294 1.22982 12.3394 1.33982L21.2294 5.77983C21.4794 5.90983 21.6494 6.16982 21.6494 6.44982V9.77983C21.6394 10.1898 21.2994 10.5298 20.8894 10.5298Z" fill="black"/>
<path d="M11.9994 22.75C11.8794 22.75 11.7694 22.72 11.6694 22.67L2.77942 18.23C2.52942 18.1 2.35938 17.84 2.35938 17.56V14.23C2.35938 13.82 2.69938 13.48 3.10938 13.48C3.51937 13.48 3.85938 13.82 3.85938 14.23V17.1L11.9994 21.17L20.1394 17.1V14.23C20.1394 13.82 20.4794 13.48 20.8894 13.48C21.2994 13.48 21.6394 13.82 21.6394 14.23V17.56C21.6394 17.84 21.4794 18.1 21.2194 18.23L12.3294 22.67C12.2294 22.72 12.1194 22.75 11.9994 22.75Z" fill="black"/>
<path d="M16.4386 12.0001C16.4386 9.55006 14.4486 7.56006 11.9986 7.56006C9.5486 7.56006 7.55859 9.55006 7.55859 12.0001C7.55859 14.2001 9.16862 16.0201 11.2686 16.3701C11.2686 16.4001 11.2586 16.4201 11.2586 16.4401V22.0001C11.2586 22.4101 11.5986 22.7501 12.0086 22.7501C12.4186 22.7501 12.7586 22.4101 12.7586 22.0001V16.4401C12.7586 16.4101 12.7486 16.3901 12.7486 16.3701C14.8386 16.0201 16.4386 14.2001 16.4386 12.0001Z" fill="black"/>
</svg>
