<svg width="24" height="24" viewBox="0 0 24 24" fill="none" xmlns="http://www.w3.org/2000/svg">
<path fill-rule="evenodd" clip-rule="evenodd" d="M18 13C16.8954 13 16 13.8954 16 15C16 16.1046 16.8954 17 18 17C19.1046 17 20 16.1046 20 15C20 13.8954 19.1046 13 18 13ZM14 15C14 12.7909 15.7909 11 18 11C20.2091 11 22 12.7909 22 15C22 17.2091 20.2091 19 18 19C15.7909 19 14 17.2091 14 15Z" fill="black"/>
<path fill-rule="evenodd" clip-rule="evenodd" d="M9 4C7.34315 4 6 5.34315 6 7C6 8.65685 7.34315 10 9 10C10.6569 10 12 8.65685 12 7C12 5.34315 10.6569 4 9 4ZM4 7C4 4.23858 6.23858 2 9 2C11.7614 2 14 4.23858 14 7C14 9.76142 11.7614 12 9 12C6.23858 12 4 9.76142 4 7Z" fill="black"/>
<path fill-rule="evenodd" clip-rule="evenodd" d="M2.46447 15.4645C3.40215 14.5268 4.67392 14 6 14H10C10.5523 14 11 14.4477 11 15C11 15.5523 10.5523 16 10 16H6C5.20435 16 4.44129 16.3161 3.87868 16.8787C3.31607 17.4413 3 18.2044 3 19V21C3 21.5523 2.55228 22 2 22C1.44772 22 1 21.5523 1 21V19C1 17.6739 1.52678 16.4021 2.46447 15.4645Z" fill="black"/>
<path fill-rule="evenodd" clip-rule="evenodd" d="M19.8513 15.7839C20.0259 15.26 20.5922 14.9768 21.1162 15.1514L22.0162 15.4514C22.5401 15.6261 22.8233 16.1924 22.6486 16.7164C22.474 17.2403 21.9077 17.5235 21.3837 17.3488L20.4837 17.0488C19.9598 16.8742 19.6766 16.3078 19.8513 15.7839Z" fill="black"/>
<path fill-rule="evenodd" clip-rule="evenodd" d="M13.3513 13.2839C13.5259 12.76 14.0922 12.4768 14.6162 12.6514L15.5162 12.9514C16.0401 13.1261 16.3233 13.6924 16.1486 14.2164C15.974 14.7403 15.4077 15.0235 14.8837 14.8488L13.9837 14.5488C13.4598 14.3742 13.1766 13.8078 13.3513 13.2839Z" fill="black"/>
<path fill-rule="evenodd" clip-rule="evenodd" d="M17.2162 16.8514C17.7402 17.026 18.0233 17.5924 17.8487 18.1163L17.5487 19.0163C17.374 19.5402 16.8077 19.8234 16.2838 19.6488C15.7598 19.4741 15.4767 18.9078 15.6513 18.3839L15.9513 17.4838C16.126 16.9599 16.6923 16.6767 17.2162 16.8514Z" fill="black"/>
<path fill-rule="evenodd" clip-rule="evenodd" d="M19.7162 10.3514C20.2402 10.526 20.5233 11.0924 20.3487 11.6163L20.0487 12.5163C19.874 13.0402 19.3077 13.3234 18.7838 13.1488C18.2598 12.9741 17.9767 12.4078 18.1513 11.8838L18.4513 10.9838C18.626 10.4599 19.1923 10.1767 19.7162 10.3514Z" fill="black"/>
<path fill-rule="evenodd" clip-rule="evenodd" d="M18.8286 16.7715C19.3414 16.5664 19.9233 16.8158 20.1284 17.3286L20.5284 18.3286C20.7336 18.8414 20.4841 19.4233 19.9714 19.6284C19.4586 19.8336 18.8766 19.5841 18.6715 19.0714L18.2715 18.0714C18.0664 17.5586 18.3158 16.9766 18.8286 16.7715Z" fill="black"/>
<path fill-rule="evenodd" clip-rule="evenodd" d="M16.0287 10.3716C16.5414 10.1665 17.1234 10.4159 17.3285 10.9287L17.7285 11.9287C17.9336 12.4415 17.6842 13.0234 17.1714 13.2285C16.6587 13.4337 16.0767 13.1842 15.8716 12.6715L15.4716 11.6715C15.2665 11.1587 15.5159 10.5767 16.0287 10.3716Z" fill="black"/>
<path fill-rule="evenodd" clip-rule="evenodd" d="M16.2284 15.8286C16.4335 16.3414 16.1841 16.9233 15.6713 17.1284L14.6713 17.5284C14.1586 17.7336 13.5766 17.4841 13.3715 16.9714C13.1664 16.4586 13.4158 15.8766 13.9286 15.6715L14.9286 15.2715C15.4413 15.0664 16.0233 15.3158 16.2284 15.8286Z" fill="black"/>
<path fill-rule="evenodd" clip-rule="evenodd" d="M22.6284 13.0285C22.8336 13.5413 22.5841 14.1233 22.0714 14.3284L21.0714 14.7284C20.5586 14.9335 19.9766 14.6841 19.7715 14.1713C19.5664 13.6585 19.8158 13.0766 20.3286 12.8714L21.3286 12.4714C21.8414 12.2663 22.4233 12.5157 22.6284 13.0285Z" fill="black"/>
</svg>
