<svg width="24" height="24" viewBox="0 0 24 24" fill="none" xmlns="http://www.w3.org/2000/svg">
<path fill-rule="evenodd" clip-rule="evenodd" d="M12 10.9C11.4477 10.9 11 11.3477 11 11.9C11 12.4523 11.4477 12.9 12 12.9C12.5523 12.9 13 12.4523 13 11.9C13 11.3477 12.5523 10.9 12 10.9ZM9 11.9C9 10.2431 10.3431 8.89999 12 8.89999C13.6569 8.89999 15 10.2431 15 11.9C15 13.5568 13.6569 14.9 12 14.9C10.3431 14.9 9 13.5568 9 11.9Z" fill="black"/>
<path fill-rule="evenodd" clip-rule="evenodd" d="M7.03874 2.45915C7.55838 2.64622 7.82798 3.21912 7.64091 3.73876C6.89827 5.80164 7.63287 8.02575 9.46336 9.27381C9.89269 9.56654 10.0263 10.1393 9.77076 10.5918C9.51523 11.0442 8.95575 11.2256 8.48336 11.0091C6.48272 10.0921 4.16647 10.5953 2.76196 12.2477C2.40427 12.6685 1.77318 12.7197 1.35237 12.362C0.931564 12.0043 0.880394 11.3732 1.23808 10.9524C2.5126 9.45296 4.31265 8.62695 6.17637 8.56011C5.27535 6.92023 5.08215 4.94183 5.75913 3.06132C5.9462 2.54168 6.5191 2.27208 7.03874 2.45915Z" fill="black"/>
<path fill-rule="evenodd" clip-rule="evenodd" d="M8.03183 9.60389C8.30584 9.12437 8.91669 8.95777 9.39621 9.23178L10.7962 10.0318C11.2757 10.3058 11.4423 10.9166 11.1683 11.3962C10.8943 11.8757 10.2835 12.0423 9.80394 11.7683L8.40394 10.9683C7.92442 10.6943 7.75782 10.0834 8.03183 9.60389Z" fill="black"/>
<path fill-rule="evenodd" clip-rule="evenodd" d="M16.9612 2.45915C17.4809 2.27208 18.0538 2.54168 18.2408 3.06132C18.9085 4.91578 18.7298 6.86544 17.8606 8.49177C19.7211 8.55174 21.5129 9.40905 22.7772 10.9708C23.1247 11.4001 23.0584 12.0298 22.6292 12.3773C22.1999 12.7248 21.5702 12.6585 21.2227 12.2292C19.8182 10.4942 17.5275 10.0043 15.5472 10.9945C15.0766 11.2298 14.5041 11.0602 14.2377 10.6065C13.9712 10.1528 14.1019 9.57021 14.5366 9.27381C16.3671 8.02575 17.1017 5.80164 16.3591 3.73876C16.172 3.21912 16.4416 2.64622 16.9612 2.45915Z" fill="black"/>
<path fill-rule="evenodd" clip-rule="evenodd" d="M15.9684 9.60389C16.2424 10.0834 16.0758 10.6943 15.5963 10.9683L14.1963 11.7683C13.7167 12.0423 13.1059 11.8757 12.8319 11.3962C12.5579 10.9166 12.7245 10.3058 13.204 10.0318L14.604 9.23178C15.0835 8.95777 15.6944 9.12437 15.9684 9.60389Z" fill="black"/>
<path fill-rule="evenodd" clip-rule="evenodd" d="M12.0198 14.5002C12.5499 14.5107 12.9796 14.9332 12.9993 15.463C13.0814 17.6811 14.7234 19.4842 16.852 19.8116C17.3979 19.8956 17.7723 20.4062 17.6883 20.9521C17.6043 21.4979 17.0938 21.8724 16.5479 21.7884C14.5998 21.4887 12.9388 20.3344 11.9542 18.7182C10.9749 20.2625 9.38334 21.3912 7.452 21.6884C6.90614 21.7724 6.39555 21.3979 6.31157 20.8521C6.22759 20.3062 6.60203 19.7956 7.14789 19.7116C9.25681 19.3872 10.836 17.5929 11.0029 15.4233C11.0436 14.8947 11.4897 14.4897 12.0198 14.5002Z" fill="black"/>
<path fill-rule="evenodd" clip-rule="evenodd" d="M12 12.9C12.5523 12.9 13 13.3477 13 13.9V15.5C13 16.0523 12.5523 16.5 12 16.5C11.4477 16.5 11 16.0523 11 15.5V13.9C11 13.3477 11.4477 12.9 12 12.9Z" fill="black"/>
<path fill-rule="evenodd" clip-rule="evenodd" d="M10.3038 4.41942C11.4333 4.19353 12.5666 4.19353 13.6961 4.41942C14.2376 4.52773 14.5888 5.05456 14.4805 5.59612C14.3722 6.13768 13.8454 6.48889 13.3038 6.38058C12.4333 6.20647 11.5666 6.20647 10.6961 6.38058C10.1545 6.48889 9.62768 6.13768 9.51937 5.59612C9.41106 5.05456 9.76227 4.52773 10.3038 4.41942Z" fill="black"/>
<path fill-rule="evenodd" clip-rule="evenodd" d="M18.8162 12.9514C19.3402 13.126 19.6233 13.6923 19.4487 14.2163C19.1095 15.2338 18.5371 16.2772 17.7071 17.1072C17.3166 17.4977 16.6834 17.4977 16.2929 17.1072C15.9024 16.7166 15.9024 16.0835 16.2929 15.6929C16.8629 15.1229 17.2905 14.3663 17.5513 13.5838C17.726 13.0599 18.2923 12.7767 18.8162 12.9514Z" fill="black"/>
<path fill-rule="evenodd" clip-rule="evenodd" d="M5.1838 12.9514C5.70774 12.7767 6.27406 13.0599 6.44871 13.5838C6.70952 14.3663 7.13709 15.1229 7.70713 15.6929C8.09766 16.0835 8.09766 16.7166 7.70713 17.1072C7.31661 17.4977 6.68344 17.4977 6.29292 17.1072C5.46296 16.2772 4.89053 15.2338 4.55134 14.2163C4.3767 13.6923 4.65986 13.126 5.1838 12.9514Z" fill="black"/>
</svg>
