<svg width="24" height="24" viewBox="0 0 24 24" fill="none" xmlns="http://www.w3.org/2000/svg">
<path fill-rule="evenodd" clip-rule="evenodd" d="M12 7C11.7348 7 11.4804 7.10536 11.2929 7.29289C11.1054 7.48043 11 7.73478 11 8C11 8.17574 11.0931 8.45927 11.4398 8.94669C11.6058 9.17999 11.7916 9.41072 11.9993 9.65998C12.2085 9.4106 12.3952 9.17942 12.5601 8.948C12.9067 8.46148 13 8.17634 13 8C13 7.73478 12.8946 7.48043 12.7071 7.29289C12.5196 7.10536 12.2652 7 12 7ZM12.8424 11.7594C12.9451 11.6369 13.0516 11.5118 13.1594 11.3852C13.5207 10.9607 13.8958 10.52 14.1889 10.1085C14.5943 9.53952 15 8.82366 15 8C15 7.20435 14.6839 6.44129 14.1213 5.87868C13.5587 5.31607 12.7956 5 12 5C11.2044 5 10.4413 5.31607 9.87868 5.87868C9.31607 6.44129 9 7.20435 9 8C9 8.82426 9.40691 9.53923 9.81016 10.1061C10.0898 10.4991 10.4484 10.9249 10.7941 11.3355C10.9134 11.4771 11.031 11.6168 11.1434 11.7527C11.1982 11.8398 11.2675 11.9198 11.3509 11.9892C11.5391 12.1455 11.7677 12.2212 11.9946 12.22C12.2192 12.2213 12.4456 12.1474 12.633 11.9942C12.717 11.9255 12.7869 11.846 12.8424 11.7594Z" fill="black"/>
<path fill-rule="evenodd" clip-rule="evenodd" d="M15.1619 13.6939C15.6071 14.0208 15.703 14.6466 15.3761 15.0918L12.8061 18.5918C12.4792 19.037 11.8534 19.1329 11.4082 18.806C10.963 18.4791 10.8672 17.8532 11.194 17.4081L13.764 13.9081C14.0909 13.4629 14.7168 13.367 15.1619 13.6939Z" fill="black"/>
<path fill-rule="evenodd" clip-rule="evenodd" d="M14.7789 7.68116C13.9197 7.23208 12.9644 6.9979 11.9949 6.99866C11.0254 6.99942 10.0706 7.23509 9.21206 7.68552C8.35355 8.13594 7.61698 8.78769 7.06538 9.58497C6.75116 10.0392 6.12825 10.1526 5.67406 9.8384C5.21988 9.52418 5.10642 8.90126 5.42064 8.44708C6.15609 7.38403 7.13819 6.51503 8.28287 5.91447C9.42755 5.31391 10.7007 4.99967 11.9934 4.99866C13.286 4.99765 14.5597 5.30989 15.7053 5.90866C16.8509 6.50743 17.8344 7.3749 18.5715 8.43679C18.8864 8.89049 18.7739 9.51358 18.3202 9.82851C17.8665 10.1434 17.2435 10.031 16.9285 9.57726C16.3757 8.78084 15.6381 8.13024 14.7789 7.68116Z" fill="black"/>
<path fill-rule="evenodd" clip-rule="evenodd" d="M12.6249 10.4394C13.056 10.7845 13.1257 11.4139 12.7805 11.845L10.1305 15.155C9.78536 15.5861 9.15604 15.6558 8.72491 15.3106C8.29377 14.9655 8.22408 14.3362 8.56925 13.905L11.2193 10.595C11.5644 10.1639 12.1937 10.0942 12.6249 10.4394Z" fill="black"/>
<path fill-rule="evenodd" clip-rule="evenodd" d="M12 3C10.6209 3 9.32703 3.4581 8.39752 4.23269C7.47333 5.00284 6.99998 6.00409 6.99998 7C6.99998 9.55421 8.20027 11.2202 9.6728 13.2641C9.83411 13.4879 9.99868 13.7164 10.1653 13.951C10.4204 14.3102 10.4103 14.7941 10.1405 15.1424L6.6535 19.6434L6.65332 19.6437L8.51819 20.9966L8.51827 20.9966L11.1983 17.4023C11.3878 17.1481 11.6865 16.9989 12.0035 17C12.3205 17.0011 12.6182 17.1525 12.8059 17.408L15.4476 21.0041L17.3406 19.6448L13.7837 15.1178C13.507 14.7657 13.4981 14.2725 13.762 13.9107C13.9351 13.6734 14.1061 13.4425 14.2736 13.2163C15.7727 11.1915 16.9958 9.5396 17 6.99926C16.9997 6.0036 16.5264 5.00265 15.6024 4.23269C14.6729 3.4581 13.379 3 12 3ZM6.06595 20.453L5.47863 21.2623C5.26175 21.1049 5.07871 20.9056 4.94039 20.6761C4.80206 20.4466 4.71126 20.1916 4.67339 19.9263C4.63552 19.661 4.65135 19.3908 4.71993 19.1318C4.78849 18.8728 4.90837 18.6303 5.07245 18.4186C5.07251 18.4185 5.07257 18.4184 5.07263 18.4183L8.10196 14.5081C8.08189 14.4804 8.06178 14.4527 8.04165 14.425C6.59082 12.4266 4.99998 10.2354 4.99998 7C4.99998 5.34374 5.7909 3.80145 7.11715 2.69624C8.43808 1.59547 10.1964 1 12 1C13.8035 1 15.5619 1.59547 16.8828 2.69624C18.2091 3.80145 19 5.34374 19 7L19 7.00155C18.9949 10.238 17.3639 12.4233 15.8873 14.4016C15.8673 14.4284 15.8474 14.4551 15.8274 14.4818L18.9133 18.4092L18.9133 18.4092C19.0801 18.6215 19.2021 18.8652 19.2721 19.1259C19.3422 19.3865 19.3587 19.6587 19.3208 19.9259C19.2828 20.1931 19.1912 20.4499 19.0514 20.6807C18.9116 20.9116 18.7265 21.1118 18.5073 21.2692L16.6124 22.6299C16.1866 22.935 15.6581 23.0608 15.1405 22.9804C14.623 22.9 14.1576 22.6198 13.8444 22.1999C13.8429 22.1979 13.8415 22.196 13.8401 22.194L11.994 19.681L10.1237 22.1894C10.1235 22.1897 10.1233 22.1899 10.1231 22.1902C9.80905 22.6124 9.34131 22.8939 8.82121 22.9735C8.30078 23.0533 7.7699 22.9246 7.34376 22.6154C7.34373 22.6154 7.34371 22.6154 7.34368 22.6154L5.47876 21.2624L6.06595 20.453Z" fill="black"/>
</svg>
