<svg width="24" height="24" viewBox="0 0 24 24" fill="none" xmlns="http://www.w3.org/2000/svg">
<path fill-rule="evenodd" clip-rule="evenodd" d="M21.4949 6.36988C21.7589 6.36899 22.0184 6.43774 22.2472 6.56921C22.4761 6.70068 22.6662 6.89021 22.7984 7.11866C22.9305 7.34702 23.0001 7.60619 23 7.87002C23 7.87012 23 7.87022 23 7.87032V16.0665C22.9999 16.3379 22.9262 16.6041 22.7867 16.8368C22.6472 17.0696 22.4472 17.2601 22.208 17.3882C21.9688 17.5162 21.6994 17.577 21.4284 17.564C21.1574 17.5511 20.8949 17.4649 20.669 17.3145L15.4453 13.8321C14.9858 13.5257 14.8616 12.9048 15.168 12.4453C15.4743 11.9858 16.0952 11.8616 16.5547 12.168L21 15.1315V8.74049L16.504 11.3638C16.027 11.6421 15.4146 11.481 15.1363 11.004C14.858 10.5269 15.0191 9.91462 15.4961 9.63629L20.744 6.57432C20.7441 6.57431 20.7441 6.5743 20.7441 6.57429C20.972 6.44129 21.231 6.37078 21.4949 6.36988ZM21.7516 8.302C21.7517 8.30191 21.7519 8.30182 21.752 8.30172L21.752 8.30175L21.7516 8.302Z" fill="black"/>
<path fill-rule="evenodd" clip-rule="evenodd" d="M4 7C3.44772 7 3 7.44772 3 8V16C3 16.5523 3.44772 17 4 17H14C14.5523 17 15 16.5523 15 16V8C15 7.44772 14.5523 7 14 7H4ZM1 8C1 6.34315 2.34315 5 4 5H14C15.6569 5 17 6.34315 17 8V16C17 17.6569 15.6569 19 14 19H4C2.34315 19 1 17.6569 1 16V8Z" fill="black"/>
</svg>
