<svg width="24" height="24" viewBox="0 0 24 24" fill="none" xmlns="http://www.w3.org/2000/svg">
<g clip-path="url(#clip0_11_32983)">
<path fill-rule="evenodd" clip-rule="evenodd" d="M8.84833 11.5041C9.12225 11.9837 8.95553 12.5945 8.47596 12.8684L2.99596 15.9984C2.99499 15.9989 2.99401 15.9995 2.99304 16C2.9944 16.0008 2.99576 16.0016 2.99712 16.0024L11.4971 20.8724C11.4981 20.8729 11.499 20.8735 11.5 20.874C11.652 20.9618 11.8245 21.008 12 21.008C12.1755 21.008 12.348 20.9618 12.5 20.874C12.5009 20.8735 12.5019 20.8729 12.5029 20.8724L21.0029 16.0024C21.0042 16.0016 21.0056 16.0008 21.0069 16L21.004 15.9984L15.524 12.8684C15.0445 12.5945 14.8777 11.9837 15.1517 11.5041C15.4256 11.0245 16.0364 10.8578 16.516 11.1317L21.993 14.26C21.9936 14.2604 21.9941 14.2607 21.9947 14.261C22.3018 14.4354 22.5572 14.688 22.735 14.9931C22.9131 15.2988 23.0069 15.6463 23.0069 16C23.0069 16.3538 22.9131 16.7013 22.735 17.007C22.5573 17.3118 22.3022 17.5643 21.9955 17.7387C21.9947 17.7391 21.9939 17.7396 21.993 17.7401L13.5 22.6061C13.4995 22.6064 13.499 22.6066 13.4985 22.6069C13.0428 22.8697 12.526 23.008 12 23.008C11.4739 23.008 10.9572 22.8697 10.5015 22.6069C10.501 22.6066 10.5005 22.6064 10.5 22.6061L2.00694 17.7401C2.00611 17.7396 2.00529 17.7391 2.00447 17.7386C1.69777 17.5643 1.44265 17.3118 1.26501 17.007C1.08689 16.7013 0.993042 16.3538 0.993042 16C0.993042 15.6463 1.08689 15.2988 1.26501 14.9931C1.4428 14.688 1.69819 14.4354 2.00523 14.261C2.0058 14.2607 2.00637 14.2604 2.00694 14.26L7.48402 11.1317C7.96359 10.8578 8.57441 11.0245 8.84833 11.5041Z" fill="black"/>
<path fill-rule="evenodd" clip-rule="evenodd" d="M12 2.99207C11.8245 2.99207 11.652 3.03827 11.5 3.12604C11.499 3.12659 11.4981 3.12714 11.4971 3.12769L2.99712 7.99769C2.99576 7.99847 2.9944 7.99924 2.99304 8.00001C2.9944 8.00078 2.99576 8.00156 2.99712 8.00234L11.4971 12.8723C11.4981 12.8729 11.499 12.8734 11.5 12.874C11.652 12.9618 11.8245 13.008 12 13.008C12.1755 13.008 12.348 12.9618 12.5 12.874C12.5006 12.8737 12.5011 12.8733 12.5017 12.873L12.5029 12.8723L21.0029 8.00234L21.005 8.0011L21.0069 8.00001L21.0045 7.99863L21.0029 7.99769L12.5029 3.12769C12.5019 3.12714 12.5009 3.12659 12.5 3.12604C12.348 3.03827 12.1755 2.99207 12 2.99207ZM10.5015 1.39311C10.9572 1.13038 11.474 0.992065 12 0.992065C12.526 0.992065 13.0428 1.13038 13.4985 1.39311C13.499 1.3934 13.4995 1.3937 13.5 1.39399L21.993 6.26001C21.9938 6.26045 21.9946 6.26088 21.9953 6.26132C22.3021 6.43571 22.5573 6.68817 22.735 6.99309C22.9131 7.29877 23.0069 7.64623 23.0069 8.00001C23.0069 8.3538 22.9131 8.70126 22.735 9.00694C22.5573 9.31181 22.3022 9.56424 21.9955 9.73863C21.9947 9.73909 21.9939 9.73955 21.993 9.74001L13.5 14.606C13.4995 14.6063 13.499 14.6066 13.4985 14.6069C13.0428 14.8696 12.526 15.008 12 15.008C11.4739 15.008 10.9572 14.8696 10.5015 14.6069C10.501 14.6066 10.5005 14.6063 10.5 14.606L2.00694 9.74001C2.00611 9.73955 2.00529 9.73908 2.00446 9.73861C1.69777 9.56422 1.44265 9.3118 1.26501 9.00694C1.08689 8.70126 0.993042 8.3538 0.993042 8.00001C0.993042 7.64623 1.08689 7.29877 1.26501 6.99309C1.44267 6.68819 1.69784 6.43574 2.00459 6.26135L10.5 1.39399C10.5005 1.3937 10.501 1.3934 10.5015 1.39311Z" fill="black"/>
</g>
<defs>
<clipPath id="clip0_11_32983">
<rect width="24" height="24" fill="white"/>
</clipPath>
</defs>
</svg>
