<svg width="24" height="24" viewBox="0 0 24 24" fill="none" xmlns="http://www.w3.org/2000/svg">
<path fill-rule="evenodd" clip-rule="evenodd" d="M11 5C6.58172 5 3 8.58172 3 13C3 17.4183 6.58172 21 11 21C15.4183 21 19 17.4183 19 13C19 8.58172 15.4183 5 11 5ZM1 13C1 7.47715 5.47715 3 11 3C16.5228 3 21 7.47715 21 13C21 18.5228 16.5228 23 11 23C5.47715 23 1 18.5228 1 13Z" fill="black"/>
<path fill-rule="evenodd" clip-rule="evenodd" d="M17.0061 3.40801C17.0059 3.40826 17.0056 3.40852 17.0054 3.40877L15.0571 5.35706C14.6666 5.74759 14.0334 5.74759 13.6429 5.35706C13.2523 4.96654 13.2523 4.33337 13.6429 3.94285L15.5929 1.99285L15.5946 1.99114C16.2336 1.35521 17.0984 0.998199 18 0.998199C18.9015 0.998199 19.7664 1.35521 20.4054 1.99114L20.4071 1.99285L22.0059 3.59162C22.0061 3.59186 22.0063 3.5921 22.0066 3.59234C22.3232 3.90806 22.5745 4.28314 22.7459 4.6961C22.9175 5.10938 23.0059 5.55247 23.0059 5.99995C23.0059 6.44744 22.9175 6.89053 22.7459 7.3038C22.5744 7.71684 22.3231 8.09197 22.0064 8.40772C22.0062 8.40791 22.006 8.4081 22.0059 8.40829L20.0571 10.3571C19.6666 10.7476 19.0334 10.7476 18.6429 10.3571C18.2523 9.96654 18.2523 9.33337 18.6429 8.94285L20.5941 6.99162C20.7246 6.86156 20.8282 6.70701 20.8988 6.53683C20.9695 6.36666 21.0059 6.18422 21.0059 5.99995C21.0059 5.81569 20.9695 5.63325 20.8988 5.46307C20.8282 5.2929 20.7246 5.13835 20.5941 5.00829L18.9946 3.40877C18.9943 3.40852 18.9941 3.40828 18.9938 3.40803C18.7297 3.14554 18.3724 2.9982 18 2.9982C17.6276 2.9982 17.2703 3.14553 17.0061 3.40801Z" fill="black"/>
<path fill-rule="evenodd" clip-rule="evenodd" d="M22.7071 1.29289C23.0976 1.68342 23.0976 2.31658 22.7071 2.70711L21.2071 4.20711C20.8166 4.59763 20.1834 4.59763 19.7929 4.20711C19.4024 3.81658 19.4024 3.18342 19.7929 2.79289L21.2929 1.29289C21.6834 0.902369 22.3166 0.902369 22.7071 1.29289Z" fill="black"/>
</svg>
