<svg width="24" height="24" viewBox="0 0 24 24" fill="none" xmlns="http://www.w3.org/2000/svg">
<path fill-rule="evenodd" clip-rule="evenodd" d="M15.1105 10.0062C15.6594 10.0672 16.055 10.5616 15.994 11.1105L14.994 20.1105C14.933 20.6594 14.4386 21.055 13.8897 20.994C13.3407 20.933 12.9452 20.4386 13.0062 19.8897L14.0062 10.8897C14.0672 10.3407 14.5616 9.94521 15.1105 10.0062Z" fill="black"/>
<path fill-rule="evenodd" clip-rule="evenodd" d="M14.5038 3.13181C14.9833 2.8578 15.5942 3.02439 15.8682 3.50391L19.8682 10.5039C20.1422 10.9834 19.9756 11.5943 19.4961 11.8683C19.0165 12.1423 18.4057 11.9757 18.1317 11.4962L14.1317 4.49619C13.8577 4.01667 14.0243 3.40582 14.5038 3.13181Z" fill="black"/>
<path fill-rule="evenodd" clip-rule="evenodd" d="M1 11C1 10.4477 1.44772 10 2 10H22C22.5523 10 23 10.4477 23 11C23 11.5523 22.5523 12 22 12H2C1.44772 12 1 11.5523 1 11Z" fill="black"/>
<path fill-rule="evenodd" clip-rule="evenodd" d="M20.8239 10.0254C21.3621 10.149 21.6982 10.6856 21.5746 11.2239L19.8771 18.6131C19.7347 19.2956 19.359 19.9073 18.8144 20.343C18.2691 20.7792 17.5889 21.0115 16.8909 21H7.10903C6.41108 21.0115 5.73082 20.7792 5.18555 20.343C4.63909 19.9058 4.26271 19.2914 4.12143 18.6061L2.52255 11.2113C2.40583 10.6715 2.74882 10.1393 3.28863 10.0226C3.82844 9.90585 4.36066 10.2488 4.47738 10.7886L6.07738 18.1886L6.07787 18.1909C6.07853 18.194 6.07917 18.1971 6.0798 18.2002C6.12655 18.4295 6.25223 18.6351 6.43494 18.7813C6.61766 18.9274 6.84586 19.0049 7.0798 19.0002C7.08652 19 7.09324 19 7.09996 19H16.9C16.9067 19 16.9134 19 16.9201 19.0002C17.1541 19.0049 17.3823 18.9274 17.565 18.7813C17.7477 18.6351 17.8734 18.4295 17.9201 18.2002C17.9218 18.1921 17.9235 18.1841 17.9254 18.1761L19.6254 10.7761C19.749 10.2378 20.2856 9.90171 20.8239 10.0254Z" fill="black"/>
<path fill-rule="evenodd" clip-rule="evenodd" d="M3.5 15.5C3.5 14.9477 3.94772 14.5 4.5 14.5H19.5C20.0523 14.5 20.5 14.9477 20.5 15.5C20.5 16.0523 20.0523 16.5 19.5 16.5H4.5C3.94772 16.5 3.5 16.0523 3.5 15.5Z" fill="black"/>
<path fill-rule="evenodd" clip-rule="evenodd" d="M9.49607 3.13181C9.97558 3.40582 10.1422 4.01667 9.86817 4.49619L5.86817 11.4962C5.59416 11.9757 4.98331 12.1423 4.50379 11.8683C4.02427 11.5943 3.85767 10.9834 4.13168 10.5039L8.13168 3.50391C8.40569 3.02439 9.01655 2.8578 9.49607 3.13181Z" fill="black"/>
<path fill-rule="evenodd" clip-rule="evenodd" d="M8.88966 10.0062C9.43856 9.94521 9.93298 10.3407 9.99397 10.8897L10.994 19.8897C11.055 20.4386 10.6594 20.933 10.1105 20.994C9.56161 21.055 9.06719 20.6594 9.0062 20.1105L8.0062 11.1105C7.94521 10.5616 8.34075 10.0672 8.88966 10.0062Z" fill="black"/>
</svg>
