<svg width="24" height="24" viewBox="0 0 24 24" fill="none" xmlns="http://www.w3.org/2000/svg">
<path fill-rule="evenodd" clip-rule="evenodd" d="M10.3261 15.8673C10.4809 15.4936 10.8456 15.25 11.25 15.25H12.75C13.1545 15.25 13.5191 15.4936 13.6739 15.8673C13.8287 16.241 13.7431 16.6711 13.4571 16.9571L12.7071 17.7071C12.3166 18.0976 11.6834 18.0976 11.2929 17.7071L10.5429 16.9571C10.2569 16.6711 10.1714 16.241 10.3261 15.8673Z" fill="black"/>
<path fill-rule="evenodd" clip-rule="evenodd" d="M16 13C16.5523 13 17 13.4477 17 14V14.5C17 15.0523 16.5523 15.5 16 15.5C15.4477 15.5 15 15.0523 15 14.5V14C15 13.4477 15.4477 13 16 13Z" fill="black"/>
<path fill-rule="evenodd" clip-rule="evenodd" d="M19.2198 10.2891C19.7488 10.1305 20.3062 10.4307 20.4649 10.9597C20.8143 12.1252 20.9946 13.3348 21 14.5515C21 14.553 21 14.5545 21 14.556C21 16.9647 19.9499 18.8683 18.2581 20.1415C16.595 21.393 14.3668 22 12 22C9.63319 22 7.40497 21.393 5.74195 20.1415C4.05023 18.8684 3.00015 16.965 3.00001 14.5564C2.99896 13.3554 3.15083 12.159 3.45194 10.9963C3.5904 10.4616 4.13606 10.1404 4.6707 10.2789C5.20535 10.4174 5.52653 10.963 5.38807 11.4977C5.12948 12.4962 4.99908 13.5236 5 14.5551L5.00001 14.556C5.00001 16.3192 5.7409 17.6376 6.94456 18.5434C8.17704 19.4709 9.94882 20 12 20C14.0512 20 15.823 19.4709 17.0555 18.5434C18.2586 17.638 18.9994 16.3203 19 14.5582C18.9952 13.5338 18.8434 12.5154 18.5491 11.5342C18.3905 11.0052 18.6908 10.4477 19.2198 10.2891Z" fill="black"/>
<path fill-rule="evenodd" clip-rule="evenodd" d="M8 13C8.55228 13 9 13.4477 9 14V14.5C9 15.0523 8.55228 15.5 8 15.5C7.44772 15.5 7 15.0523 7 14.5V14C7 13.4477 7.44772 13 8 13Z" fill="black"/>
<path fill-rule="evenodd" clip-rule="evenodd" d="M8.51226 4.32111C8.0514 4.02973 7.38818 3.8656 6.6647 3.98637L6.66428 3.98644C6.27037 4.05202 5.85354 4.30725 5.42663 4.80403C5.00145 5.29878 4.62749 5.96452 4.32038 6.6923C4.01576 7.41416 3.79401 8.15621 3.65623 8.77152C3.58745 9.07869 3.54168 9.34502 3.51644 9.55339C3.50392 9.65672 3.49718 9.73981 3.49454 9.80253C3.50098 9.8091 3.50838 9.81635 3.51684 9.82427C3.60488 9.90668 3.76242 10.0133 3.98985 10.0999C4.43673 10.2701 5.07932 10.3349 5.80549 10.0635C5.80561 10.0634 5.80572 10.0634 5.80583 10.0633C6.71287 9.72371 7.24336 9.02478 7.56088 8.15655C7.75057 7.63786 8.32483 7.37116 8.84351 7.56085C9.3622 7.75054 9.6289 8.3248 9.43921 8.84348C8.98878 10.0751 8.12136 11.3321 6.5066 11.9366L6.50627 11.9367C5.30158 12.3871 4.1563 12.3034 3.27799 11.9689C2.8428 11.8032 2.4534 11.5683 2.15016 11.2845C1.86782 11.0202 1.56423 10.6208 1.50646 10.1131L1.50645 10.113C1.45742 9.68173 1.55478 9.00342 1.70456 8.33451C1.86509 7.61757 2.12108 6.75987 2.47772 5.91473C2.83186 5.07551 3.30264 4.207 3.90978 3.5005C4.5151 2.79613 5.31801 2.18318 6.3354 2.01366C6.33553 2.01364 6.33565 2.01362 6.33578 2.0136M6.33582 2.01359C7.53519 1.81349 8.6973 2.07187 9.58109 2.63067C10.1314 2.97864 10.6125 3.47368 10.8925 4.07635C11.6839 3.97265 12.4861 3.98098 13.2751 4.10109C13.572 3.49047 14.0777 2.99344 14.6348 2.64741C15.5368 2.0872 16.7236 1.81211 17.9313 2.01359C17.9314 2.01361 17.9315 2.01363 17.9316 2.01365C17.9317 2.01366 17.9317 2.01366 17.9317 2.01366C18.9491 2.18318 19.752 2.79613 20.3573 3.5005C20.9645 4.207 21.4352 5.07551 21.7894 5.91473C22.146 6.75987 22.402 7.61757 22.5625 8.33451C22.7123 9.00342 22.8097 9.68173 22.7606 10.113L22.7606 10.1131C22.7029 10.6208 22.3993 11.0202 22.1169 11.2845C21.8137 11.5683 21.4243 11.8032 20.9891 11.9689C20.1108 12.3034 18.9655 12.3871 17.7608 11.9367L17.7605 11.9366C16.1059 11.3172 15.3625 10.0182 14.9329 8.84348C14.7432 8.3248 15.0099 7.75054 15.5286 7.56085C16.0473 7.37116 16.6215 7.63786 16.8112 8.15655C17.1495 9.08166 17.5941 9.73862 18.4613 10.0633C18.4613 10.0634 18.4614 10.0634 18.4614 10.0634C18.4615 10.0634 18.4616 10.0635 18.4616 10.0635C19.1878 10.3349 19.8304 10.2701 20.2772 10.0999C20.5047 10.0133 20.6622 9.90668 20.7503 9.82427C20.7587 9.81635 20.7661 9.8091 20.7726 9.80253C20.7699 9.73981 20.7632 9.65672 20.7507 9.55339C20.7254 9.34502 20.6796 9.07869 20.6109 8.77152C20.4731 8.15621 20.2513 7.41416 19.9467 6.6923C19.6396 5.96452 19.2656 5.29878 18.8405 4.80403C18.4136 4.30725 17.9967 4.05202 17.6028 3.98644L17.6024 3.98637C16.8872 3.86699 16.1907 4.0354 15.69 4.34637C15.1691 4.66992 15 5.04294 15 5.27702C15 5.58944 14.854 5.88391 14.6053 6.07302C14.3566 6.26213 14.0339 6.32414 13.7328 6.24064C12.6431 5.93842 11.4933 5.92587 10.3972 6.20425C10.0981 6.28021 9.7807 6.21383 9.53711 6.02437C9.29352 5.83491 9.15105 5.54361 9.15105 5.23502C9.15105 4.97771 8.98513 4.6201 8.51226 4.32111M20.8107 9.75696C20.8109 9.75698 20.8098 9.75894 20.8071 9.76275C20.8092 9.75884 20.8106 9.75693 20.8107 9.75696ZM3.45638 9.75696C3.45652 9.75693 3.45787 9.75884 3.46001 9.76274C3.4573 9.75893 3.45624 9.75698 3.45638 9.75696Z" fill="black"/>
</svg>
