<svg width="24" height="24" viewBox="0 0 24 24" fill="none" xmlns="http://www.w3.org/2000/svg">
<path fill-rule="evenodd" clip-rule="evenodd" d="M11 20C11 19.4477 11.4477 19 12 19H12.01C12.5623 19 13.01 19.4477 13.01 20C13.01 20.5523 12.5623 21 12.01 21H12C11.4477 21 11 20.5523 11 20Z" fill="black"/>
<path fill-rule="evenodd" clip-rule="evenodd" d="M12 6.00049C8.55633 6.00049 5.23345 7.26971 2.66668 9.5655C2.25503 9.93369 1.62284 9.89846 1.25465 9.48681C0.886464 9.07517 0.921694 8.44298 1.33334 8.07479C4.2668 5.45103 8.06437 4.00049 12 4.00049C15.9356 4.00049 19.7332 5.45103 22.6667 8.07479C23.0783 8.44298 23.1136 9.07517 22.7454 9.48681C22.3772 9.89846 21.745 9.93369 21.3333 9.5655C18.7666 7.26971 15.4437 6.00049 12 6.00049Z" fill="black"/>
<path fill-rule="evenodd" clip-rule="evenodd" d="M12 11.0005C9.64423 11.0005 7.38236 11.9242 5.7 13.5732C5.30559 13.9598 4.67246 13.9535 4.28586 13.5591C3.89926 13.1646 3.90559 12.5315 4.3 12.1449C6.35622 10.1294 9.12072 9.00049 12 9.00049C14.8793 9.00049 17.6438 10.1294 19.7 12.1449C20.0944 12.5315 20.1007 13.1646 19.7141 13.5591C19.3275 13.9535 18.6944 13.9598 18.3 13.5732C16.6176 11.9242 14.3558 11.0005 12 11.0005Z" fill="black"/>
<path fill-rule="evenodd" clip-rule="evenodd" d="M12 15.9998C10.953 15.9998 9.94772 16.4103 9.2 17.1432C8.80559 17.5298 8.17246 17.5235 7.78586 17.129C7.39926 16.7346 7.40559 16.1015 7.8 15.7149C8.92157 14.6155 10.4295 13.9998 12 13.9998C13.5705 13.9998 15.0784 14.6155 16.2 15.7149C16.5944 16.1015 16.6007 16.7346 16.2141 17.129C15.8275 17.5235 15.1944 17.5298 14.8 17.1432C14.0523 16.4103 13.047 15.9998 12 15.9998Z" fill="black"/>
</svg>
