<svg width="24" height="24" viewBox="0 0 24 24" fill="none" xmlns="http://www.w3.org/2000/svg">
<path fill-rule="evenodd" clip-rule="evenodd" d="M11.9317 1.00151C12.617 0.98595 13.287 1.20554 13.8301 1.62373C14.2677 1.96067 14.3493 2.58856 14.0123 3.02615C13.6754 3.46375 13.0475 3.54534 12.6099 3.2084C12.4289 3.069 12.2056 2.99581 11.9771 3.00099C11.7497 3.00615 11.5308 3.08873 11.3566 3.23504L4.35973 9.23137C4.35799 9.23286 4.35625 9.23435 4.3545 9.23583C4.2434 9.32972 4.15412 9.44673 4.09289 9.57868C4.03167 9.71064 3.99997 9.85436 4 9.99983V19.0001C4 19.2653 4.10536 19.5196 4.29289 19.7072C4.48043 19.8947 4.73478 20.0001 5 20.0001H19C19.2652 20.0001 19.5196 19.8947 19.7071 19.7072C19.8946 19.5196 20 19.2653 20 19.0001V11.6461C20 11.0938 20.4477 10.6461 21 10.6461C21.5523 10.6461 22 11.0938 22 11.6461V19.0001C22 19.7957 21.6839 20.5588 21.1213 21.1214C20.5587 21.684 19.7957 22.0001 19 22.0001H5C4.20435 22.0001 3.44129 21.684 2.87868 21.1214C2.31607 20.5588 2 19.7957 2 19.0001V10.0003C2 10.0002 2 10.0001 2 10.0001C1.99993 9.56375 2.09503 9.13267 2.27868 8.73688C2.46183 8.34216 2.72865 7.99203 3.06061 7.71075L10.0583 1.71375C10.06 1.71224 10.0618 1.71073 10.0636 1.70923C10.5872 1.26683 11.2465 1.01706 11.9317 1.00151Z" fill="black"/>
<path fill-rule="evenodd" clip-rule="evenodd" d="M8.58579 11.5858C8.96086 11.2107 9.46957 11 10 11H14C14.5304 11 15.0391 11.2107 15.4142 11.5858C15.7893 11.9609 16 12.4696 16 13V21C16 21.5523 15.5523 22 15 22C14.4477 22 14 21.5523 14 21V13L10 13L10 21C10 21.5523 9.55228 22 9 22C8.44772 22 8 21.5523 8 21V13C8 12.4696 8.21071 11.9609 8.58579 11.5858Z" fill="black"/>
<path fill-rule="evenodd" clip-rule="evenodd" d="M14 6C14 5.44772 14.4477 5 15 5H21C21.5523 5 22 5.44772 22 6C22 6.55228 21.5523 7 21 7H15C14.4477 7 14 6.55228 14 6Z" fill="black"/>
<path fill-rule="evenodd" clip-rule="evenodd" d="M18 2C18.5523 2 19 2.44772 19 3V9C19 9.55228 18.5523 10 18 10C17.4477 10 17 9.55228 17 9V3C17 2.44772 17.4477 2 18 2Z" fill="black"/>
</svg>
