<svg width="24" height="24" viewBox="0 0 24 24" fill="none" xmlns="http://www.w3.org/2000/svg">
<path fill-rule="evenodd" clip-rule="evenodd" d="M12 15C12.3788 15 12.725 15.214 12.8944 15.5528L13.3944 16.5528C13.5494 16.8628 13.5329 17.2309 13.3507 17.5257C13.1684 17.8205 12.8466 18 12.5 18H11.5C11.1534 18 10.8316 17.8205 10.6494 17.5257C10.4671 17.2309 10.4506 16.8628 10.6056 16.5528L11.1056 15.5528C11.275 15.214 11.6212 15 12 15Z" fill="black"/>
<path fill-rule="evenodd" clip-rule="evenodd" d="M6.96815 3.53587C8.45478 2.53338 10.207 1.9978 12 1.9978C13.7931 1.9978 15.5452 2.53338 17.0319 3.53587C18.5185 4.53835 19.6718 5.96204 20.3439 7.62436C21.0159 9.28669 21.1762 11.1119 20.804 12.8659C20.4859 14.365 19.7913 15.7537 18.7913 16.9036C18.8861 17.1451 18.9496 17.399 18.9793 17.6592C19.0435 18.2206 18.9478 18.7887 18.7033 19.2981C18.4588 19.8075 18.0754 20.2375 17.5973 20.5385C17.4086 20.6573 17.2082 20.7542 17 20.8279V20.9999C17 21.5303 16.7893 22.039 16.4142 22.4141C16.0391 22.7892 15.5304 22.9999 15 22.9999H9C8.46957 22.9999 7.96086 22.7892 7.58579 22.4141C7.21072 22.039 7 21.5303 7 20.9999V20.8279C6.7918 20.7542 6.59141 20.6573 6.40274 20.5385C5.9246 20.2375 5.5412 19.8075 5.29668 19.2981C5.05217 18.7887 4.95649 18.2206 5.02066 17.6592C5.0504 17.399 5.11394 17.1451 5.20873 16.9036C4.20869 15.7537 3.51409 14.365 3.19601 12.8659C2.82384 11.1119 2.98407 9.28669 3.65615 7.62436C4.32823 5.96204 5.48153 4.53835 6.96815 3.53587ZM12 3.9978C10.6054 3.9978 9.2426 4.41437 8.08634 5.19407C6.93008 5.97378 6.03307 7.0811 5.51034 8.37402C4.98761 9.66693 4.86299 11.0865 5.15245 12.4507C5.44192 13.815 6.13228 15.0616 7.135 16.0309C7.50615 16.3896 7.54325 16.9719 7.22063 17.3749C7.10291 17.5219 7.02911 17.6992 7.00772 17.8863C6.98633 18.0734 7.01823 18.2628 7.09973 18.4326C7.18123 18.6024 7.30903 18.7457 7.46841 18.8461C7.6278 18.9465 7.81228 18.9998 8.00063 18.9999C8.55267 19.0002 9 19.4478 9 19.9999V20.9999H15V19.9999C15 19.4478 15.4473 19.0002 15.9994 18.9999C16.1877 18.9998 16.3722 18.9465 16.5316 18.8461C16.691 18.7457 16.8188 18.6024 16.9003 18.4326C16.9818 18.2628 17.0137 18.0735 16.9923 17.8863C16.9709 17.6992 16.8971 17.5219 16.7794 17.3749C16.4568 16.9719 16.4939 16.3896 16.865 16.0309C17.8677 15.0616 18.5581 13.815 18.8476 12.4507C19.137 11.0865 19.0124 9.66693 18.4897 8.37402C17.9669 7.0811 17.0699 5.97378 15.9137 5.19407C14.7574 4.41437 13.3946 3.9978 12 3.9978Z" fill="black"/>
<path fill-rule="evenodd" clip-rule="evenodd" d="M13 12C13 10.8954 13.8954 10 15 10C16.1046 10 17 10.8954 17 12C17 13.1046 16.1046 14 15 14C13.8954 14 13 13.1046 13 12Z" fill="black"/>
<path fill-rule="evenodd" clip-rule="evenodd" d="M7 12C7 10.8954 7.89543 10 9 10C10.1046 10 11 10.8954 11 12C11 13.1046 10.1046 14 9 14C7.89543 14 7 13.1046 7 12Z" fill="black"/>
</svg>
