<svg width="24" height="24" viewBox="0 0 24 24" fill="none" xmlns="http://www.w3.org/2000/svg">
<path fill-rule="evenodd" clip-rule="evenodd" d="M2 6C2 5.44772 2.44772 5 3 5H21C21.5523 5 22 5.44772 22 6C22 6.55228 21.5523 7 21 7H3C2.44772 7 2 6.55228 2 6Z" fill="black"/>
<path fill-rule="evenodd" clip-rule="evenodd" d="M2 12C2 11.4477 2.44772 11 3 11H10C10.5523 11 11 11.4477 11 12C11 12.5523 10.5523 13 10 13H3C2.44772 13 2 12.5523 2 12Z" fill="black"/>
<path fill-rule="evenodd" clip-rule="evenodd" d="M2 18C2 17.4477 2.44772 17 3 17H10C10.5523 17 11 17.4477 11 18C11 18.5523 10.5523 19 10 19H3C2.44772 19 2 18.5523 2 18Z" fill="black"/>
<path fill-rule="evenodd" clip-rule="evenodd" d="M17 13C15.8954 13 15 13.8954 15 15C15 16.1046 15.8954 17 17 17C18.1046 17 19 16.1046 19 15C19 13.8954 18.1046 13 17 13ZM13 15C13 12.7909 14.7909 11 17 11C19.2091 11 21 12.7909 21 15C21 17.2091 19.2091 19 17 19C14.7909 19 13 17.2091 13 15Z" fill="black"/>
<path fill-rule="evenodd" clip-rule="evenodd" d="M18.393 16.393C18.7835 16.0025 19.4167 16.0025 19.8072 16.393L21.7072 18.293C22.0977 18.6835 22.0977 19.3167 21.7072 19.7072C21.3167 20.0977 20.6835 20.0977 20.293 19.7072L18.393 17.8072C18.0025 17.4167 18.0025 16.7835 18.393 16.393Z" fill="black"/>
</svg>
