<svg width="24" height="24" viewBox="0 0 24 24" fill="none" xmlns="http://www.w3.org/2000/svg">
<path fill-rule="evenodd" clip-rule="evenodd" d="M12.707 8.29289C13.0976 8.68342 13.0976 9.31658 12.707 9.70711L4.33404 18.0801C4.12375 18.2904 4.00562 18.5756 4.00562 18.873C4.00562 19.1704 4.12375 19.4556 4.33404 19.6659C4.54433 19.8762 4.82954 19.9943 5.12694 19.9943C5.42433 19.9943 5.70954 19.8762 5.91983 19.6659L14.2928 11.2929C14.6834 10.9024 15.3165 10.9024 15.707 11.2929C16.0976 11.6834 16.0976 12.3166 15.707 12.7071L7.33404 21.0801C6.74868 21.6655 5.95476 21.9943 5.12694 21.9943C4.29911 21.9943 3.50519 21.6655 2.91983 21.0801C2.33447 20.4947 2.00562 19.7008 2.00562 18.873C2.00562 18.0452 2.33447 17.2513 2.91983 16.6659L11.2928 8.29289C11.6834 7.90237 12.3165 7.90237 12.707 8.29289Z" fill="black"/>
<path fill-rule="evenodd" clip-rule="evenodd" d="M22.7071 10.2929C23.0976 10.6834 23.0976 11.3166 22.7071 11.7071L18.7071 15.7071C18.3166 16.0976 17.6834 16.0976 17.2929 15.7071C16.9024 15.3166 16.9024 14.6834 17.2929 14.2929L21.2929 10.2929C21.6834 9.90237 22.3166 9.90237 22.7071 10.2929Z" fill="black"/>
<path fill-rule="evenodd" clip-rule="evenodd" d="M8.06677 2.60078C8.21625 2.21238 8.59066 1.95716 9.00683 1.95998L12.5446 1.98398C12.5447 1.98398 12.5448 1.98398 12.5448 1.98398C14.3846 1.99612 16.1456 2.73208 17.4469 4.03265L19.7071 6.29285C19.8947 6.48039 20 6.73474 20 6.99996V8.17175C20 8.17182 20 8.17189 20 8.17196C20.0002 8.43708 20.1055 8.6913 20.293 8.87875L19.5871 9.58495L20.2931 8.87885L22.2071 10.7929C22.5977 11.1834 22.5977 11.8165 22.2071 12.2071C21.8166 12.5976 21.1835 12.5976 20.7929 12.2071L18.879 10.2932C18.879 10.2931 18.879 10.2931 18.8789 10.2931C18.3164 9.7306 18.0002 8.96771 18 8.17217V7.41417L16.0331 5.44727C16.0331 5.4472 16.033 5.44714 16.0329 5.44707C15.1034 4.51818 13.8456 3.99257 12.5315 3.98394L11.4726 3.97676C11.8283 4.43092 12.129 4.92756 12.3671 5.45648C12.7836 6.38168 12.9994 7.38465 13 8.39929L13 9.58575L14.4143 11H15.1723C15.9678 11.0001 16.7307 11.3163 17.2932 11.8789C17.2932 11.8789 17.2932 11.8789 17.2933 11.879L19.2071 13.7929C19.5977 14.1834 19.5977 14.8165 19.2071 15.2071C18.8166 15.5976 18.1835 15.5976 17.7929 15.2071L15.8789 13.2931L16.585 12.587L15.8788 13.293C15.6914 13.1055 15.4372 13.0001 15.172 13C15.172 13 15.1719 13 15.1718 13H14C13.7348 13 13.4805 12.8946 13.2929 12.7071L11.2929 10.7071C11.1054 10.5195 11 10.2652 11 9.99996L11 8.40063C11 8.40055 11 8.40048 11 8.4004C10.9995 7.66847 10.8439 6.94495 10.5434 6.27753C10.2429 5.61005 9.80433 5.01384 9.25661 4.5282C9.25597 4.52763 9.25532 4.52705 9.25467 4.52647L8.33467 3.70647C8.02399 3.42956 7.91729 2.98919 8.06677 2.60078Z" fill="black"/>
</svg>
