<svg width="24" height="24" viewBox="0 0 24 24" fill="none" xmlns="http://www.w3.org/2000/svg">
<path fill-rule="evenodd" clip-rule="evenodd" d="M1.87868 3.87868C2.44129 3.31607 3.20435 3 4 3C4.55228 3 5 3.44772 5 4C5 4.55228 4.55228 5 4 5C3.73478 5 3.48043 5.10536 3.29289 5.29289C3.10536 5.48043 3 5.73478 3 6V18C3 18.2652 3.10536 18.5196 3.29289 18.7071C3.48043 18.8946 3.73478 19 4 19H20C20.5523 19 21 19.4477 21 20C21 20.5523 20.5523 21 20 21H4C3.20435 21 2.44129 20.6839 1.87868 20.1213C1.31607 19.5587 1 18.7956 1 18V6C1 5.20435 1.31607 4.44129 1.87868 3.87868Z" fill="black"/>
<path fill-rule="evenodd" clip-rule="evenodd" d="M1 14C1 13.4477 1.44772 13 2 13H14C14.5523 13 15 13.4477 15 14C15 14.5523 14.5523 15 14 15H2C1.44772 15 1 14.5523 1 14Z" fill="black"/>
<path fill-rule="evenodd" clip-rule="evenodd" d="M19 14C19 13.4477 19.4477 13 20 13H22C22.5523 13 23 13.4477 23 14C23 14.5523 22.5523 15 22 15H20C19.4477 15 19 14.5523 19 14Z" fill="black"/>
<path fill-rule="evenodd" clip-rule="evenodd" d="M12 13C12.5523 13 13 13.4477 13 14V20C13 20.5523 12.5523 21 12 21C11.4477 21 11 20.5523 11 20V14C11 13.4477 11.4477 13 12 13Z" fill="black"/>
<path fill-rule="evenodd" clip-rule="evenodd" d="M1.29289 1.29289C1.68342 0.902369 2.31658 0.902369 2.70711 1.29289L22.7071 21.2929C23.0976 21.6834 23.0976 22.3166 22.7071 22.7071C22.3166 23.0976 21.6834 23.0976 21.2929 22.7071L1.29289 2.70711C0.902369 2.31658 0.902369 1.68342 1.29289 1.29289Z" fill="black"/>
<path fill-rule="evenodd" clip-rule="evenodd" d="M9 4C9 3.44772 9.44772 3 10 3H20C20.7956 3 21.5587 3.31607 22.1213 3.87868C22.6839 4.44129 23 5.20435 23 6V16C23 16.5523 22.5523 17 22 17C21.4477 17 21 16.5523 21 16V6C21 5.73478 20.8946 5.48043 20.7071 5.29289C20.5196 5.10536 20.2652 5 20 5H10C9.44772 5 9 4.55228 9 4Z" fill="black"/>
</svg>
