<svg width="24" height="24" viewBox="0 0 24 24" fill="none" xmlns="http://www.w3.org/2000/svg">
<path fill-rule="evenodd" clip-rule="evenodd" d="M6.29289 11.2929C6.68342 10.9024 7.31658 10.9024 7.70711 11.2929L12.7071 16.2929C13.0976 16.6834 13.0976 17.3166 12.7071 17.7071L7.70711 22.7071C7.51957 22.8946 7.26522 23 7 23H2C1.44772 23 1 22.5523 1 22V17C1 16.7348 1.10536 16.4804 1.29289 16.2929L6.29289 11.2929ZM3 17.4142V21H6.58579L10.5858 17L7 13.4142L3 17.4142Z" fill="black"/>
<path fill-rule="evenodd" clip-rule="evenodd" d="M16.7071 7.29289C17.0976 7.68342 17.0976 8.31658 16.7071 8.70711L10.2071 15.2071C9.81658 15.5976 9.18342 15.5976 8.79289 15.2071C8.40237 14.8166 8.40237 14.1834 8.79289 13.7929L15.2929 7.29289C15.6834 6.90237 16.3166 6.90237 16.7071 7.29289Z" fill="black"/>
<path fill-rule="evenodd" clip-rule="evenodd" d="M16.2929 1.29289C16.6834 0.902369 17.3166 0.902369 17.7071 1.29289L22.7071 6.29289C23.0976 6.68342 23.0976 7.31658 22.7071 7.70711L22.2082 8.206C22.208 8.2062 22.2078 8.20641 22.2076 8.20662C21.7869 8.62848 21.2871 8.96322 20.7368 9.19165C20.1863 9.42019 19.5961 9.53783 19 9.53783C18.4039 9.53783 17.8137 9.42019 17.2632 9.19165C16.7131 8.9633 16.2135 8.62873 15.7929 8.20708C15.3712 7.78648 15.0367 7.28687 14.8083 6.73684C14.5798 6.18631 14.4622 5.59608 14.4622 5C14.4622 4.40392 14.5798 3.81369 14.8083 3.26316C15.0368 2.71289 15.3715 2.21308 15.7934 1.79237L16.2929 1.29289ZM17.0116 3.42579C16.8657 3.60931 16.7457 3.81259 16.6555 4.02998C16.5279 4.33745 16.4622 4.66709 16.4622 5C16.4622 5.33291 16.5279 5.66255 16.6555 5.97002C16.7831 6.27749 16.9702 6.55675 17.206 6.79179C17.2067 6.79252 17.2075 6.79326 17.2082 6.794C17.4432 7.02978 17.7225 7.21685 18.03 7.34449C18.3374 7.47213 18.6671 7.53783 19 7.53783C19.3329 7.53783 19.6625 7.47213 19.97 7.34449C20.1874 7.25424 20.3907 7.13429 20.5742 6.98843L17.0116 3.42579Z" fill="black"/>
</svg>
