<svg width="24" height="24" viewBox="0 0 24 24" fill="none" xmlns="http://www.w3.org/2000/svg">
<path fill-rule="evenodd" clip-rule="evenodd" d="M8.8 2.40006C9.13067 2.84096 9.0422 3.46605 8.60279 3.79796C8.6024 3.79826 8.6017 3.79879 8.6007 3.79957C8.59724 3.80225 8.59019 3.80775 8.57977 3.81608C8.55893 3.83276 8.52468 3.86071 8.47892 3.89994C8.38733 3.97845 8.25004 4.10173 8.08211 4.26967C7.74575 4.60603 7.28979 5.11815 6.83205 5.80476C5.91914 7.17413 5 9.23436 5 12.0001C5 14.7658 5.91914 16.826 6.83205 18.1954C7.28979 18.882 7.74575 19.3941 8.08211 19.7305C8.25004 19.8984 8.38733 20.0217 8.47892 20.1002C8.52468 20.1394 8.55893 20.1674 8.57977 20.184C8.59019 20.1924 8.59724 20.1979 8.6007 20.2005C8.60169 20.2013 8.60239 20.2018 8.60278 20.2021C9.0422 20.5341 9.13067 21.1592 8.8 21.6001C8.46863 22.0419 7.84183 22.1314 7.4 21.8001L8 21.0001C7.4 21.8001 7.39961 21.7998 7.3992 21.7995L7.39626 21.7972C7.39477 21.7961 7.39303 21.7948 7.39106 21.7933C7.38711 21.7903 7.38219 21.7865 7.37635 21.782C7.36467 21.7729 7.34926 21.7609 7.33038 21.7458C7.29263 21.7156 7.24094 21.6732 7.17733 21.6187C7.05017 21.5097 6.87496 21.3517 6.66789 21.1447C6.25425 20.731 5.71021 20.1181 5.16795 19.3048C4.08086 17.6741 3 15.2344 3 12.0001C3 8.76575 4.08086 6.32599 5.16795 4.69536C5.71021 3.88197 6.25425 3.26909 6.66789 2.85545C6.87496 2.64838 7.05017 2.49042 7.17733 2.38143C7.24094 2.3269 7.29263 2.28455 7.33038 2.25435C7.34926 2.23924 7.36467 2.22717 7.37635 2.21812C7.38219 2.2136 7.38711 2.20983 7.39106 2.20682C7.39211 2.20603 7.39309 2.20528 7.394 2.20459C7.39481 2.20397 7.39556 2.2034 7.39626 2.20288L7.39831 2.20133L7.3992 2.20066C7.39961 2.20035 7.4 2.20006 8 3.00006L7.4 2.20006C7.84183 1.86869 8.46863 1.95823 8.8 2.40006ZM8.60314 20.2024C8.60317 20.2024 8.60315 20.2024 8.60308 20.2024L8.60314 20.2024Z" fill="black"/>
<path fill-rule="evenodd" clip-rule="evenodd" d="M15.2001 2.40006C15.5314 1.95823 16.1582 1.86869 16.6001 2.20006L16.0001 3.00006C16.6001 2.20006 16.6004 2.20035 16.6009 2.20066L16.6017 2.20133L16.6038 2.20288C16.6053 2.204 16.607 2.20532 16.609 2.20682C16.613 2.20983 16.6179 2.2136 16.6237 2.21812C16.6354 2.22717 16.6508 2.23924 16.6697 2.25435C16.7074 2.28455 16.7591 2.3269 16.8227 2.38143C16.9499 2.49042 17.1251 2.64838 17.3322 2.85545C17.7458 3.26909 18.2898 3.88197 18.8321 4.69536C19.9192 6.32599 21.0001 8.76575 21.0001 12.0001C21.0001 15.2344 19.9192 17.6741 18.8321 19.3048C18.2898 20.1181 17.7458 20.731 17.3322 21.1447C17.1251 21.3517 16.9499 21.5097 16.8227 21.6187C16.7591 21.6732 16.7074 21.7156 16.6697 21.7458C16.6508 21.7609 16.6354 21.7729 16.6237 21.782C16.6179 21.7865 16.613 21.7903 16.609 21.7933C16.607 21.7948 16.6053 21.7961 16.6038 21.7972L16.6017 21.7988L16.6009 21.7995C16.6004 21.7998 16.6001 21.8001 16.0001 21.0001L16.6001 21.8001C16.1582 22.1314 15.5314 22.0419 15.2001 21.6001C14.8694 21.1592 14.9579 20.5341 15.3973 20.2022C15.3977 20.2019 15.3984 20.2013 15.3994 20.2005C15.4028 20.1979 15.4099 20.1924 15.4203 20.184C15.4411 20.1674 15.4754 20.1394 15.5211 20.1002C15.6127 20.0217 15.75 19.8984 15.918 19.7305C16.2543 19.3941 16.7103 18.882 17.168 18.1954C18.0809 16.826 19.0001 14.7658 19.0001 12.0001C19.0001 9.23436 18.0809 7.17413 17.168 5.80476C16.7103 5.11815 16.2543 4.60603 15.918 4.26967C15.75 4.10173 15.6127 3.97845 15.5211 3.89994C15.4754 3.86071 15.4411 3.83276 15.4203 3.81608C15.4099 3.80775 15.4028 3.80225 15.3994 3.79957C15.3986 3.79895 15.398 3.79849 15.3975 3.79817C15.3974 3.79809 15.3973 3.79802 15.3973 3.79796C14.9579 3.46605 14.8694 2.84096 15.2001 2.40006ZM15.3969 20.2024L15.397 20.2024C15.3969 20.2024 15.3969 20.2024 15.3969 20.2024Z" fill="black"/>
<path fill-rule="evenodd" clip-rule="evenodd" d="M15.7071 8.29289C16.0976 8.68342 16.0976 9.31658 15.7071 9.70711L9.70711 15.7071C9.31658 16.0976 8.68342 16.0976 8.29289 15.7071C7.90237 15.3166 7.90237 14.6834 8.29289 14.2929L14.2929 8.29289C14.6834 7.90237 15.3166 7.90237 15.7071 8.29289Z" fill="black"/>
<path fill-rule="evenodd" clip-rule="evenodd" d="M8.29289 8.29289C8.68342 7.90237 9.31658 7.90237 9.70711 8.29289L15.7071 14.2929C16.0976 14.6834 16.0976 15.3166 15.7071 15.7071C15.3166 16.0976 14.6834 16.0976 14.2929 15.7071L8.29289 9.70711C7.90237 9.31658 7.90237 8.68342 8.29289 8.29289Z" fill="black"/>
</svg>
