<svg width="24" height="24" viewBox="0 0 24 24" fill="none" xmlns="http://www.w3.org/2000/svg">
<path fill-rule="evenodd" clip-rule="evenodd" d="M12 1C12.5523 1 13 1.44772 13 2V3C13 3.55228 12.5523 4 12 4C11.4477 4 11 3.55228 11 3V2C11 1.44772 11.4477 1 12 1Z" fill="black"/>
<path fill-rule="evenodd" clip-rule="evenodd" d="M6.18611 4.77294C6.54627 5.19163 6.49882 5.82302 6.08013 6.18318C4.61497 7.44351 3.60211 9.13487 3.17566 11.0001H12C12.5523 11.0001 13 11.4478 13 12.0001V20.0001C13 20.0328 12.9984 20.0654 12.9952 20.098C12.9757 20.296 13.0263 20.4946 13.1383 20.6592C13.2502 20.8237 13.4163 20.9438 13.6076 20.9985C13.799 21.0531 14.0034 21.0389 14.1854 20.9583C14.3673 20.8777 14.5152 20.7359 14.6033 20.5574C14.8478 20.0622 15.4474 19.8589 15.9427 20.1034C16.4379 20.3478 16.6412 20.9475 16.3967 21.4427C16.1013 22.041 15.6054 22.5167 14.9954 22.787C14.3853 23.0572 13.6997 23.1048 13.0582 22.9215C12.4166 22.7382 11.8597 22.3356 11.4845 21.7839C11.1194 21.2471 10.9489 20.6023 11 19.9563V13.0001H2C1.71728 13.0001 1.44777 12.8804 1.25818 12.6707C1.06859 12.4609 0.976633 12.1807 1.00508 11.8995C1.28873 9.09448 2.63855 6.50548 4.77588 4.66696C5.19457 4.3068 5.82596 4.35425 6.18611 4.77294Z" fill="black"/>
<path fill-rule="evenodd" clip-rule="evenodd" d="M8.69976 2.5023C10.2621 2.00299 11.9164 1.85939 13.5414 2.08203C15.1665 2.30466 16.7212 2.88789 18.0917 3.78901C19.4622 4.69014 20.6138 5.88635 21.4623 7.29007C22.3107 8.69379 22.8346 10.2695 22.9954 11.9018C23.023 12.1827 22.9307 12.4622 22.7411 12.6714C22.5516 12.8805 22.2824 12.9998 22.0002 12.9998H17.5002C16.9479 12.9998 16.5002 12.5521 16.5002 11.9998C16.5002 11.4476 16.9479 10.9998 17.5002 10.9998H20.8278C20.6154 10.0584 20.2524 9.15474 19.7507 8.32464C19.0565 7.17614 18.1142 6.19743 16.9929 5.46014C15.8716 4.72286 14.5995 4.24567 13.27 4.06352C11.9404 3.88136 10.5869 3.99885 9.30859 4.40738C8.78252 4.5755 8.21976 4.28533 8.05164 3.75926C7.88351 3.23318 8.17369 2.67042 8.69976 2.5023Z" fill="black"/>
<path fill-rule="evenodd" clip-rule="evenodd" d="M1.29289 1.29289C1.68342 0.902369 2.31658 0.902369 2.70711 1.29289L22.7071 21.2929C23.0976 21.6834 23.0976 22.3166 22.7071 22.7071C22.3166 23.0976 21.6834 23.0976 21.2929 22.7071L1.29289 2.70711C0.902369 2.31658 0.902369 1.68342 1.29289 1.29289Z" fill="black"/>
</svg>
