<svg width="24" height="24" viewBox="0 0 24 24" fill="none" xmlns="http://www.w3.org/2000/svg">
<path fill-rule="evenodd" clip-rule="evenodd" d="M13.71 3.16376C12.5805 2.94517 11.4196 2.94517 10.29 3.16376C9.74782 3.26869 9.22319 2.9142 9.11826 2.37198C9.01332 1.82975 9.36782 1.30513 9.91004 1.20019C11.2906 0.933025 12.7095 0.933025 14.09 1.20019C14.6323 1.30513 14.9868 1.82975 14.8818 2.37198C14.7769 2.9142 14.2523 3.26869 13.71 3.16376Z" fill="black"/>
<path fill-rule="evenodd" clip-rule="evenodd" d="M9.11826 21.628C9.22319 21.0858 9.74782 20.7313 10.29 20.8362C11.4196 21.0548 12.5805 21.0548 13.71 20.8362C14.2523 20.7313 14.7769 21.0858 14.8818 21.628C14.9868 22.1702 14.6323 22.6948 14.09 22.7998C12.7095 23.0669 11.2906 23.0669 9.91004 22.7998C9.36782 22.6948 9.01332 22.1702 9.11826 21.628Z" fill="black"/>
<path fill-rule="evenodd" clip-rule="evenodd" d="M16.7811 3.16011C17.0909 2.7029 17.7127 2.58339 18.1699 2.89319C19.3375 3.68433 20.3421 4.69264 21.1289 5.86319C21.437 6.32155 21.3152 6.94288 20.8568 7.25098C20.3985 7.55908 19.7771 7.43727 19.4691 6.97891C18.8253 6.02119 18.0034 5.19621 17.0481 4.54891C16.5908 4.23911 16.4713 3.61733 16.7811 3.16011Z" fill="black"/>
<path fill-rule="evenodd" clip-rule="evenodd" d="M2.37204 9.11826C2.91426 9.22319 3.26876 9.74782 3.16382 10.29C2.94523 11.4196 2.94523 12.5805 3.16382 13.71C3.26876 14.2523 2.91426 14.7769 2.37204 14.8818C1.82981 14.9868 1.30519 14.6323 1.20025 14.09C0.933086 12.7095 0.933086 11.2906 1.20025 9.91004C1.30519 9.36782 1.82981 9.01332 2.37204 9.11826Z" fill="black"/>
<path fill-rule="evenodd" clip-rule="evenodd" d="M20.8399 16.7811C21.2971 17.0909 21.4166 17.7127 21.1068 18.1699C20.3157 19.3375 19.3074 20.3421 18.1368 21.1289C17.6785 21.437 17.0571 21.3152 16.749 20.8568C16.4409 20.3985 16.5627 19.7771 17.0211 19.4691C17.9788 18.8253 18.8038 18.0034 19.4511 17.0481C19.7609 16.5908 20.3827 16.4713 20.8399 16.7811Z" fill="black"/>
<path fill-rule="evenodd" clip-rule="evenodd" d="M21.6281 9.11826C22.1703 9.01332 22.6949 9.36782 22.7998 9.91004C23.067 11.2906 23.067 12.7095 22.7998 14.09C22.6949 14.6323 22.1703 14.9868 21.6281 14.8818C21.0858 14.7769 20.7313 14.2523 20.8363 13.71C21.0549 12.5805 21.0549 11.4196 20.8363 10.29C20.7313 9.74782 21.0858 9.22319 21.6281 9.11826Z" fill="black"/>
<path fill-rule="evenodd" clip-rule="evenodd" d="M7.25098 3.14317C7.55908 3.60153 7.43727 4.22287 6.97891 4.53097C6.02119 5.17472 5.19621 5.99664 4.54891 6.95197C4.23911 7.40918 3.61733 7.52869 3.16011 7.21889C2.7029 6.90909 2.58339 6.28731 2.89319 5.83009C3.68433 4.66248 4.69264 3.6579 5.86319 2.8711C6.32155 2.563 6.94288 2.68481 7.25098 3.14317Z" fill="black"/>
<path fill-rule="evenodd" clip-rule="evenodd" d="M3.14317 16.7491C3.60153 16.441 4.22287 16.5628 4.53097 17.0212C5.17472 17.9789 5.99664 18.8039 6.95197 19.4512C7.40918 19.761 7.52869 20.3827 7.21889 20.84C6.90909 21.2972 6.28731 21.4167 5.83009 21.1069C4.66248 20.3157 3.6579 19.3074 2.8711 18.1369C2.563 17.6785 2.68481 17.0572 3.14317 16.7491Z" fill="black"/>
</svg>
