<svg width="24" height="24" viewBox="0 0 24 24" fill="none" xmlns="http://www.w3.org/2000/svg">
<path fill-rule="evenodd" clip-rule="evenodd" d="M9 2C9 1.44772 9.44772 1 10 1H14C14.5523 1 15 1.44772 15 2C15 2.55228 14.5523 3 14 3H10C9.44772 3 9 2.55228 9 2Z" fill="black"/>
<path fill-rule="evenodd" clip-rule="evenodd" d="M4.98409 10.0767C5.49401 10.2889 5.73542 10.8742 5.52329 11.3841C4.99321 12.6583 4.8516 14.0608 5.11626 15.4152C5.38059 16.768 6.03838 18.0125 7.0071 18.9929C7.98747 19.9616 9.23204 20.6194 10.5848 20.8837C11.9392 21.1484 13.3417 21.0068 14.6159 20.4767C15.1258 20.2646 15.7112 20.506 15.9233 21.0159C16.1354 21.5258 15.894 22.1112 15.3841 22.3233C13.7458 23.0048 11.9427 23.1869 10.2012 22.8466C8.4598 22.5063 6.8578 21.6589 5.59659 20.4108C5.59412 20.4084 5.59165 20.4059 5.5892 20.4034C4.34111 19.1422 3.49366 17.5402 3.15338 15.7988C2.8131 14.0573 2.99517 12.2542 3.6767 10.6159C3.88883 10.106 4.47417 9.86459 4.98409 10.0767Z" fill="black"/>
<path fill-rule="evenodd" clip-rule="evenodd" d="M12.6368 7.00568C10.9863 6.84543 9.3325 7.27634 7.97004 8.22165C7.51628 8.53648 6.89321 8.42385 6.57838 7.97009C6.26355 7.51632 6.37618 6.89326 6.82994 6.57843C8.58167 5.36304 10.708 4.80901 12.8301 5.01504C14.9502 5.22087 16.9286 6.17202 18.4133 7.69921C19.8947 9.19121 20.807 11.1548 20.9918 13.2493C21.1768 15.3457 20.6212 17.4407 19.4217 19.17C19.1069 19.6238 18.4838 19.7365 18.03 19.4217C17.5762 19.1069 17.4635 18.4839 17.7783 18.0301C18.7113 16.6851 19.1434 15.0556 18.9995 13.4251C18.8557 11.7945 18.1449 10.2659 16.9908 9.10507C16.9894 9.10366 16.988 9.10224 16.9866 9.10082C16.9853 9.09943 16.9839 9.09804 16.9825 9.09665C15.8274 7.90691 14.2873 7.16592 12.6368 7.00568Z" fill="black"/>
<path fill-rule="evenodd" clip-rule="evenodd" d="M1.29289 1.29289C1.68342 0.902369 2.31658 0.902369 2.70711 1.29289L22.7071 21.2929C23.0976 21.6834 23.0976 22.3166 22.7071 22.7071C22.3166 23.0976 21.6834 23.0976 21.2929 22.7071L1.29289 2.70711C0.902369 2.31658 0.902369 1.68342 1.29289 1.29289Z" fill="black"/>
<path fill-rule="evenodd" clip-rule="evenodd" d="M12 9C12.5523 9 13 9.44772 13 10V12C13 12.5523 12.5523 13 12 13C11.4477 13 11 12.5523 11 12V10C11 9.44772 11.4477 9 12 9Z" fill="black"/>
</svg>
