<svg width="24" height="24" viewBox="0 0 24 24" fill="none" xmlns="http://www.w3.org/2000/svg">
<path fill-rule="evenodd" clip-rule="evenodd" d="M2.87868 2.87868C3.44129 2.31607 4.20435 2 5 2H15.5C15.7652 2 16.0196 2.10536 16.2071 2.29289L21.7071 7.79289C21.8946 7.98043 22 8.23478 22 8.5V19C22 19.7957 21.6839 20.5587 21.1213 21.1213C20.5587 21.6839 19.7957 22 19 22H5C3.34772 22 2 20.6523 2 19V5C2 4.20435 2.31607 3.44129 2.87868 2.87868ZM5 4C4.73478 4 4.48043 4.10536 4.29289 4.29289C4.10536 4.48043 4 4.73478 4 5V19C4 19.5477 4.45228 20 5 20H19C19.2652 20 19.5196 19.8946 19.7071 19.7071C19.8946 19.5196 20 19.2652 20 19V8.91421L15.0858 4H5Z" fill="black"/>
<path fill-rule="evenodd" clip-rule="evenodd" d="M14 2C14.5523 2 15 2.44772 15 3V7C15 7.26522 15.1054 7.51957 15.2929 7.70711C15.4804 7.89464 15.7348 8 16 8H20C20.5523 8 21 8.44772 21 9C21 9.55228 20.5523 10 20 10H16C15.2043 10 14.4413 9.68393 13.8787 9.12132C13.3161 8.55871 13 7.79565 13 7V3C13 2.44772 13.4477 2 14 2Z" fill="black"/>
<path fill-rule="evenodd" clip-rule="evenodd" d="M7 13C7 12.4477 7.44772 12 8 12H8.01C8.56228 12 9.01 12.4477 9.01 13C9.01 13.5523 8.56228 14 8.01 14H8C7.44772 14 7 13.5523 7 13Z" fill="black"/>
<path fill-rule="evenodd" clip-rule="evenodd" d="M15 13C15 12.4477 15.4477 12 16 12H16.01C16.5623 12 17.01 12.4477 17.01 13C17.01 13.5523 16.5623 14 16.01 14H16C15.4477 14 15 13.5523 15 13Z" fill="black"/>
<path fill-rule="evenodd" clip-rule="evenodd" d="M14.5735 15.1809C15.0259 15.4976 15.136 16.1211 14.8193 16.5735L14 16.0001C14.8193 16.5735 14.819 16.5739 14.8188 16.5743L14.8183 16.575L14.8172 16.5765C14.8164 16.5776 14.8156 16.5787 14.8148 16.5799C14.8131 16.5823 14.8112 16.5849 14.8092 16.5878C14.805 16.5935 14.8001 16.6002 14.7944 16.6079C14.7831 16.6232 14.7686 16.6422 14.751 16.6643C14.7159 16.7086 14.6681 16.766 14.6075 16.8321C14.4871 16.9634 14.3122 17.1337 14.0828 17.3036C13.6235 17.6438 12.9196 18.0001 12 18.0001C11.1189 18.0001 10.4177 17.6344 9.9688 17.3138C9.74007 17.1504 9.56078 16.9875 9.43668 16.8634C9.37418 16.8009 9.32443 16.747 9.28817 16.7061C9.27 16.6856 9.25512 16.6682 9.24361 16.6545C9.23785 16.6477 9.23293 16.6417 9.22886 16.6367C9.22682 16.6342 9.22499 16.632 9.22338 16.63C9.22295 16.6295 9.22254 16.629 9.22215 16.6285C9.22179 16.628 9.22145 16.6276 9.22111 16.6272L9.2201 16.6259L9.21962 16.6254C9.21939 16.6251 9.21917 16.6248 10 16.0001L9.21917 16.6248C8.87416 16.1935 8.94408 15.5642 9.37534 15.2192C9.80438 14.876 10.4294 14.9434 10.7756 15.3688C10.7769 15.3704 10.7802 15.3742 10.7853 15.38C10.7975 15.3938 10.8196 15.418 10.8509 15.4492C10.9143 15.5126 11.01 15.5997 11.1313 15.6864C11.3824 15.8657 11.6812 16.0001 12 16.0001C12.3804 16.0001 12.6766 15.8563 12.8923 15.6965C13.0004 15.6165 13.0817 15.5368 13.1332 15.4806C13.1586 15.4529 13.1756 15.4322 13.1838 15.4218C13.1859 15.4191 13.1874 15.4172 13.1884 15.416C13.5073 14.9725 14.1246 14.8666 14.5735 15.1809Z" fill="black"/>
</svg>
