<svg width="24" height="24" viewBox="0 0 24 24" fill="none" xmlns="http://www.w3.org/2000/svg">
<path fill-rule="evenodd" clip-rule="evenodd" d="M12.6553 11.3484C11.9642 10.6646 11.2476 10.5675 10.8756 10.7742L5.08614 13.9839C5.08594 13.984 5.08573 13.9841 5.08552 13.9842C4.80498 14.1405 4.69046 14.3104 4.63641 14.4679C4.5752 14.6462 4.55946 14.9085 4.65103 15.272C4.83906 16.0184 5.41892 16.9389 6.23703 17.7542C7.05464 18.5689 7.98082 19.1496 8.73223 19.341C9.09917 19.4345 9.36305 19.4201 9.54024 19.361C9.69485 19.3094 9.85729 19.2011 10.0057 18.9345C10.0058 18.9343 10.0059 18.9342 10.006 18.934L13.2262 13.1235L13.2273 13.1217C13.4443 12.7338 13.3429 12.0287 12.6553 11.3484ZM14.9736 14.0965C15.8348 12.5549 15.0265 10.881 14.062 9.92668C13.1008 8.97567 11.4228 8.18284 9.90504 9.02545C9.90494 9.02551 9.90483 9.02557 9.90473 9.02563C9.90457 9.02571 9.90442 9.0258 9.90427 9.02588L4.11369 12.2362C3.44218 12.6098 2.97371 13.1514 2.74471 13.8186C2.52283 14.4651 2.55553 15.1409 2.71162 15.7606C3.0189 16.9804 3.85716 18.2061 4.8253 19.1709C5.79394 20.1361 7.02213 20.9692 8.23854 21.2791C8.8555 21.4362 9.52889 21.4731 10.173 21.2583C10.8396 21.036 11.3823 20.5741 11.7539 19.9061L14.9726 14.0984C14.9729 14.0977 14.9733 14.0971 14.9736 14.0965Z" fill="black"/>
<path fill-rule="evenodd" clip-rule="evenodd" d="M1.93496 5.76108C2.64172 5.11661 3.60505 5 4.5 5H8C8.62495 5 9.16706 5.1971 9.60211 5.58406C10.0022 5.93992 10.2475 6.40038 10.4206 6.81936L11.4164 9.09981C11.6375 9.60594 11.4063 10.1954 10.9002 10.4164C10.3941 10.6375 9.80459 10.4063 9.58357 9.90019L8.58357 7.61019C8.58066 7.60353 8.57782 7.59684 8.57506 7.59011C8.44839 7.28189 8.34446 7.1421 8.27289 7.07844C8.23294 7.0429 8.17505 7 8 7H4.5C3.68495 7 3.39828 7.13339 3.28254 7.23892C3.18951 7.32375 3.00323 7.58266 3.00004 8.47666C3.07803 10.0293 3.69273 11.5069 4.73951 12.6568C5.11128 13.0653 5.08157 13.6977 4.67315 14.0695C4.26473 14.4413 3.63226 14.4116 3.26049 14.0031C1.89491 12.5029 1.09581 10.5731 1.00109 8.54669C1.00036 8.53114 1 8.51557 1 8.5C1 7.41284 1.20629 6.42552 1.93496 5.76108Z" fill="black"/>
<path fill-rule="evenodd" clip-rule="evenodd" d="M4.18825 1.55117C4.69659 1.19171 5.30756 1 6 1C6.75268 1 7.40528 1.2111 7.91303 1.65186C8.40516 2.07906 8.66339 2.63752 8.80473 3.15551C9.02858 3.97588 9.01396 4.95771 9.0037 5.64575C9.00177 5.77525 9 5.89435 9 6C9 6.55228 8.55228 7 8 7C7.44771 7 7 6.55228 7 6C7 5.83697 7.00168 5.67686 7.00332 5.52014C7.01059 4.82802 7.01715 4.20197 6.87527 3.68199C6.79661 3.39373 6.69484 3.24282 6.60197 3.1622C6.52472 3.09515 6.36732 3 6 3C5.69244 3 5.49091 3.07954 5.34299 3.18414C5.18526 3.29568 5.03302 3.47607 4.89933 3.75102C4.62104 4.32338 4.5 5.14663 4.5 6C4.5 6.55228 4.05228 7 3.5 7C2.94772 7 2.5 6.55228 2.5 6C2.5 5.02337 2.62896 3.84662 3.10067 2.87648C3.34198 2.38018 3.68974 1.90369 4.18825 1.55117Z" fill="black"/>
<path fill-rule="evenodd" clip-rule="evenodd" d="M13.5835 13.0998C13.8045 12.5937 14.394 12.3626 14.9001 12.5836L17.1806 13.5794C17.5995 13.7525 18.06 13.9978 18.4159 14.3979C18.8028 14.8329 18.9999 15.3751 18.9999 16V19.5C18.9999 20.395 18.8833 21.3583 18.2389 22.065C17.5744 22.7937 16.5871 23 15.4999 23C15.4844 23 15.4688 22.9996 15.4532 22.9989C13.4268 22.9042 11.497 22.1051 9.99678 20.7395C9.58836 20.3677 9.55865 19.7353 9.93042 19.3269C10.3022 18.9184 10.9347 18.8887 11.3431 19.2605C12.493 20.3073 13.9707 20.922 15.5233 21C16.4173 20.9968 16.6762 20.8105 16.761 20.7175C16.8665 20.6017 16.9999 20.3151 16.9999 19.5V16C16.9999 15.825 16.957 15.7671 16.9215 15.7271C16.8578 15.6556 16.718 15.5516 16.4098 15.4249C16.4031 15.4222 16.3964 15.4194 16.3897 15.4164L14.0997 14.4164C13.5936 14.1954 13.3625 13.606 13.5835 13.0998Z" fill="black"/>
<path fill-rule="evenodd" clip-rule="evenodd" d="M18.4799 16.9967C18.3231 16.9983 18.163 17 18 17C17.4477 17 17 16.5523 17 16C17 15.4477 17.4477 15 18 15C18.1057 15 18.2247 14.9982 18.3543 14.9963C19.0423 14.986 20.0241 14.9714 20.8445 15.1952C21.3625 15.3366 21.9209 15.5948 22.3481 16.0869C22.7889 16.5947 23 17.2473 23 18C23 18.6924 22.8083 19.3034 22.4488 19.8117C22.0963 20.3102 21.6198 20.658 21.1235 20.8993C20.1534 21.371 18.9766 21.5 18 21.5C17.4477 21.5 17 21.0523 17 20.5C17 19.9477 17.4477 19.5 18 19.5C18.8534 19.5 19.6766 19.3789 20.249 19.1006C20.5239 18.967 20.7043 18.8147 20.8159 18.657C20.9205 18.5091 21 18.3075 21 18C21 17.6327 20.9049 17.4753 20.8378 17.398C20.7572 17.3051 20.6063 17.2034 20.318 17.1247C19.798 16.9828 19.172 16.9894 18.4799 16.9967Z" fill="black"/>
</svg>
