<svg width="24" height="24" viewBox="0 0 24 24" fill="none" xmlns="http://www.w3.org/2000/svg">
<path fill-rule="evenodd" clip-rule="evenodd" d="M9.43748 4.9568L3.41317 10.999L6.00166 13.5875L11.6846 7.93125C11.7153 7.9007 11.7479 7.87217 11.7823 7.84586C12.3867 7.38334 13.1385 7.15609 13.8979 7.20637C14.6574 7.25665 15.3727 7.58104 15.9108 8.1192C16.449 8.65736 16.7734 9.37266 16.8236 10.1321C16.8739 10.8915 16.6467 11.6433 16.1842 12.2477C16.1569 12.2834 16.1272 12.3171 16.0954 12.3488L10.4159 18.0017L12.999 20.5848L19.0223 14.5436C20.1693 13.2528 20.7816 11.5731 20.734 9.84635C20.6862 8.11093 19.9754 6.45975 18.7479 5.23216C17.5203 4.00456 15.8691 3.29382 14.1337 3.24599C12.4074 3.19841 10.7281 3.81041 9.43748 4.9568ZM8.08291 3.48503C9.75721 1.9858 11.9422 1.18483 14.1888 1.24675C16.4354 1.30867 18.5729 2.22876 20.1621 3.81794C21.7512 5.40712 22.6714 7.54466 22.7333 9.79125C22.7952 12.0378 21.9942 14.2228 20.495 15.8971C20.4831 15.9104 20.4708 15.9234 20.4582 15.9361L13.7082 22.7061C13.5207 22.8941 13.2662 22.9998 13.0007 23C12.7353 23.0002 12.4806 22.8948 12.2929 22.7071L8.29289 18.7071C8.10507 18.5193 7.99969 18.2645 8 17.9988C8.00031 17.7332 8.10629 17.4786 8.29456 17.2912L14.6293 10.9863C14.7746 10.7753 14.845 10.5209 14.828 10.2642C14.8098 9.98849 14.692 9.7288 14.4966 9.53341C14.3012 9.33803 14.0415 9.22026 13.7658 9.202C13.5084 9.18496 13.2534 9.25574 13.0421 9.40186L6.70544 15.7088C6.31465 16.0977 5.68277 16.097 5.29289 15.7071L1.29289 11.7071C0.902777 11.317 0.90231 10.6846 1.29185 10.294L8.04185 3.52395C8.05517 3.5106 8.06886 3.49762 8.08291 3.48503Z" fill="black"/>
<path fill-rule="evenodd" clip-rule="evenodd" d="M4.29289 7.29289C4.68342 6.90237 5.31658 6.90237 5.70711 7.29289L9.70711 11.2929C10.0976 11.6834 10.0976 12.3166 9.70711 12.7071C9.31658 13.0976 8.68342 13.0976 8.29289 12.7071L4.29289 8.70711C3.90237 8.31658 3.90237 7.68342 4.29289 7.29289Z" fill="black"/>
<path fill-rule="evenodd" clip-rule="evenodd" d="M11.2929 14.2929C11.6834 13.9024 12.3166 13.9024 12.7071 14.2929L16.7071 18.2929C17.0976 18.6834 17.0976 19.3166 16.7071 19.7071C16.3166 20.0976 15.6834 20.0976 15.2929 19.7071L11.2929 15.7071C10.9024 15.3166 10.9024 14.6834 11.2929 14.2929Z" fill="black"/>
</svg>
