<svg width="24" height="24" viewBox="0 0 24 24" fill="none" xmlns="http://www.w3.org/2000/svg">
<path fill-rule="evenodd" clip-rule="evenodd" d="M10 12C10 10.8954 10.8954 10 12 10C13.1046 10 14 10.8954 14 12C14 13.1046 13.1046 14 12 14C10.8954 14 10 13.1046 10 12Z" fill="black"/>
<path fill-rule="evenodd" clip-rule="evenodd" d="M9.16268 2.65475C11.4764 3.53029 14.0594 5.25553 16.4056 7.59136C16.4066 7.5924 16.4076 7.59344 16.4087 7.59448C18.7445 9.94064 20.4697 12.5236 21.3453 14.8374C21.7826 15.9931 22.0249 17.1264 21.9926 18.1541C21.9602 19.1882 21.6444 20.1724 20.9071 20.9071C20.1724 21.6444 19.1882 21.9602 18.154 21.9927C17.1264 22.0249 15.993 21.7826 14.8373 21.3453C12.5236 20.4698 9.94063 18.7445 7.59446 16.4087C7.59342 16.4076 7.59238 16.4066 7.59134 16.4056C5.25551 14.0594 3.53027 11.4764 2.65473 9.16269C2.2174 8.00699 1.97512 6.87361 2.00738 5.84599C2.03984 4.8118 2.35562 3.82764 3.0929 3.09292C3.82762 2.35563 4.81179 2.03986 5.84597 2.00739C6.8736 1.97513 8.00697 2.21742 9.16268 2.65475ZM5.90873 4.00641C5.23154 4.02766 4.78894 4.22392 4.50885 4.50539C4.50769 4.50655 4.50654 4.50771 4.50538 4.50887C4.2239 4.78896 4.02765 5.23156 4.00639 5.90874C3.9849 6.59331 4.14761 7.45681 4.52529 8.45486C5.27957 10.4482 6.8238 12.7996 9.00718 14.993C11.2006 17.1763 13.5519 18.7205 15.5452 19.4747C16.5432 19.8524 17.4067 20.0151 18.0913 19.9936C18.7685 19.9724 19.2111 19.7761 19.4912 19.4947C19.492 19.4939 19.4928 19.4931 19.4936 19.4923L19.4946 19.4912C19.7761 19.2111 19.9724 18.7685 19.9936 18.0913C20.0151 17.4067 19.8524 16.5432 19.4747 15.5452C18.7205 13.5519 17.1763 11.2006 14.993 9.0072C12.7996 6.82382 10.4482 5.27959 8.45484 4.5253C7.45679 4.14763 6.59329 3.98492 5.90873 4.00641Z" fill="black"/>
<path fill-rule="evenodd" clip-rule="evenodd" d="M18.154 2.00739C19.1882 2.03986 20.1723 2.35561 20.907 3.09283C21.6444 3.82756 21.9602 4.81176 21.9926 5.84599C22.0249 6.87361 21.7826 8.00699 21.3453 9.16269C20.4697 11.4764 18.7445 14.0594 16.4087 16.4056C16.4076 16.4066 16.4066 16.4076 16.4056 16.4087C14.0594 18.7445 11.4764 20.4698 9.16268 21.3453C8.00697 21.7826 6.8736 22.0249 5.84597 21.9927C4.81175 21.9602 3.82755 21.6444 3.09282 20.907C2.35559 20.1723 2.03984 19.1882 2.00738 18.1541C1.97512 17.1264 2.2174 15.9931 2.65473 14.8374C3.53027 12.5236 5.25551 9.94064 7.59134 7.59448C7.59238 7.59344 7.59342 7.5924 7.59446 7.59136C9.94063 5.25553 12.5236 3.53029 14.8373 2.65475C15.993 2.21742 17.1264 1.97513 18.154 2.00739ZM9.00712 9.00713C6.82377 11.2005 5.27957 13.5519 4.52529 15.5452C4.14761 16.5432 3.9849 17.4067 4.00639 18.0913C4.02765 18.7685 4.2239 19.2111 4.50538 19.4912C4.50654 19.4923 4.50769 19.4935 4.50885 19.4947C4.78894 19.7761 5.23154 19.9724 5.90873 19.9936C6.59329 20.0151 7.45679 19.8524 8.45484 19.4747C10.4481 18.7205 12.7995 17.1763 14.9929 14.9929C17.1762 12.7995 18.7205 10.4481 19.4747 8.45486C19.8524 7.45681 20.0151 6.59331 19.9936 5.90874C19.9724 5.23156 19.7761 4.78896 19.4946 4.50887C19.4935 4.50771 19.4923 4.50655 19.4912 4.50539C19.2111 4.22392 18.7685 4.02766 18.0913 4.00641C17.4067 3.98492 16.5432 4.14763 15.5452 4.5253C13.5519 5.27958 11.2005 6.82379 9.00712 9.00713Z" fill="black"/>
</svg>
