<svg width="24" height="24" viewBox="0 0 24 24" fill="none" xmlns="http://www.w3.org/2000/svg">
<path fill-rule="evenodd" clip-rule="evenodd" d="M14.8787 14.8787C15.4413 14.3161 16.2043 14 17 14H21.54C22.0923 14 22.54 14.4477 22.54 15C22.54 15.5523 22.0923 16 21.54 16H17C16.7348 16 16.4804 16.1054 16.2929 16.2929C16.1054 16.4804 16 16.7348 16 17V21.54C16 22.0923 15.5523 22.54 15 22.54C14.4477 22.54 14 22.0923 14 21.54V17C14 16.2043 14.3161 15.4413 14.8787 14.8787Z" fill="black"/>
<path fill-rule="evenodd" clip-rule="evenodd" d="M7 2.34003C7.55228 2.34003 8 2.78774 8 3.34003V5.00003C8 5.53046 8.21071 6.03917 8.58579 6.41424C8.96086 6.78931 9.46957 7.00003 10 7.00003C10.7957 7.00003 11.5587 7.3161 12.1213 7.87871C12.6839 8.44132 13 9.20438 13 10C13 10.5477 13.4523 11 14 11C14.2652 11 14.5196 10.8947 14.7071 10.7071C14.8946 10.5196 15 10.2652 15 10C15 8.34774 16.3477 7.00003 18 7.00003H21.17C21.7223 7.00003 22.17 7.44774 22.17 8.00003C22.17 8.55231 21.7223 9.00003 21.17 9.00003H18C17.4523 9.00003 17 9.45231 17 10C17 10.7957 16.6839 11.5587 16.1213 12.1213C15.5587 12.684 14.7956 13 14 13C12.3477 13 11 11.6523 11 10C11 9.73481 10.8946 9.48046 10.7071 9.29292C10.5196 9.10538 10.2652 9.00003 10 9.00003C8.93913 9.00003 7.92172 8.5786 7.17157 7.82845C6.42143 7.07831 6 6.06089 6 5.00003V3.34003C6 2.78774 6.44772 2.34003 7 2.34003Z" fill="black"/>
<path fill-rule="evenodd" clip-rule="evenodd" d="M1.05005 11C1.05005 10.4477 1.49776 10 2.05005 10H5.00005C5.7957 10 6.55876 10.3161 7.12137 10.8787C7.68398 11.4413 8.00005 12.2044 8.00005 13V14C8.00005 14.2652 8.10541 14.5196 8.29294 14.7071C8.48048 14.8946 8.73483 15 9.00005 15C9.7957 15 10.5588 15.3161 11.1214 15.8787C11.684 16.4413 12 17.2044 12 18V21.95C12 22.5023 11.5523 22.95 11 22.95C10.4478 22.95 10 22.5023 10 21.95V18C10 17.7348 9.89469 17.4804 9.70716 17.2929C9.51962 17.1054 9.26526 17 9.00005 17C8.2044 17 7.44134 16.6839 6.87873 16.1213C6.31612 15.5587 6.00005 14.7957 6.00005 14V13C6.00005 12.7348 5.89469 12.4804 5.70716 12.2929C5.51962 12.1054 5.26526 12 5.00005 12H2.05005C1.49776 12 1.05005 11.5523 1.05005 11Z" fill="black"/>
<path fill-rule="evenodd" clip-rule="evenodd" d="M12 3C7.02944 3 3 7.02944 3 12C3 16.9706 7.02944 21 12 21C16.9706 21 21 16.9706 21 12C21 7.02944 16.9706 3 12 3ZM1 12C1 5.92487 5.92487 1 12 1C18.0751 1 23 5.92487 23 12C23 18.0751 18.0751 23 12 23C5.92487 23 1 18.0751 1 12Z" fill="black"/>
</svg>
