<svg width="24" height="24" viewBox="0 0 24 24" fill="none" xmlns="http://www.w3.org/2000/svg">
<path fill-rule="evenodd" clip-rule="evenodd" d="M13.9369 3.06663C13.7038 2.99544 13.4569 2.98213 13.2175 3.02783C12.9781 3.07354 12.7534 3.17689 12.5629 3.32894C12.3725 3.481 12.2219 3.67717 12.1243 3.9005C12.0458 4.08046 11.9481 4.41541 11.8324 4.93177C11.7204 5.43158 11.6052 6.03658 11.4769 6.72331C11.4591 6.81852 11.4411 6.91518 11.4228 7.01316C11.1803 8.31368 10.8945 9.84703 10.5195 11.3232C10.4923 11.4299 10.4646 11.5368 10.4364 11.6436C10.9337 11.7853 11.4039 11.9506 11.8392 12.1397C13.5145 12.8673 15 14.113 15 16H17V15.5038C16.9983 15.2115 17.082 14.925 17.2409 14.6795C17.401 14.4323 17.6304 14.2376 17.9005 14.1199C18.1705 14.0021 18.4692 13.9665 18.7594 14.0174C19.0402 14.0668 19.3009 14.195 19.5112 14.387L21.6548 16.2442C22.0722 16.6059 22.1174 17.2374 21.7558 17.6548C21.3941 18.0722 20.7626 18.1174 20.3452 17.7558L18.9289 16.5287C18.8379 16.8607 18.6619 17.1666 18.4142 17.4142C18.0391 17.7893 17.5304 18 17 18H15C14.4696 18 13.9609 17.7893 13.5858 17.4142C13.2107 17.0392 13 16.5304 13 16C13 15.342 12.49 14.6028 11.0425 13.9741C10.6818 13.8175 10.2825 13.6778 9.85123 13.5565C9.57156 14.3401 9.24745 15.078 8.8665 15.7144C8.14524 16.9191 7.0659 18 5.5 18C4.57174 18 3.6815 17.6313 3.02513 16.9749C2.36875 16.3185 2 15.4283 2 14.5C2 13.5718 2.36875 12.6815 3.02513 12.0251C3.6815 11.3688 4.57174 11 5.5 11C5.50193 11 5.50386 11 5.50579 11L5.50665 11C6.52335 11.0068 7.52681 11.0815 8.47801 11.2253C8.51296 11.0951 8.5473 10.9635 8.58105 10.8306C8.93948 9.41995 9.21417 7.9469 9.45864 6.63593C9.47621 6.54174 9.49362 6.44838 9.51089 6.35594C9.63838 5.67369 9.75982 5.0345 9.88077 4.49457C9.99797 3.97142 10.1294 3.47113 10.2916 3.09979L10.2917 3.09953C10.5194 2.57845 10.8707 2.1207 11.3152 1.76591C11.7596 1.41112 12.2838 1.16996 12.8424 1.06332C13.401 0.95667 13.9772 0.987742 14.521 1.15384C15.0649 1.31995 15.5602 1.61608 15.9639 2.01661C16.3676 2.41714 16.6676 2.91001 16.838 3.45257C17.0084 3.99513 17.044 4.57103 16.9417 5.13045C16.8395 5.68987 16.6025 6.21595 16.2512 6.66317C15.8999 7.11039 15.445 7.46528 14.9257 7.69713C14.4214 7.9223 13.83 7.69601 13.6049 7.19171C13.3797 6.68741 13.606 6.09606 14.1103 5.8709C14.3329 5.77153 14.5278 5.61944 14.6784 5.42777C14.8289 5.23611 14.9305 5.01064 14.9743 4.77089C15.0181 4.53114 15.0029 4.28432 14.9299 4.0518C14.8568 3.81927 14.7282 3.60804 14.5552 3.43639C14.3822 3.26473 14.17 3.13782 13.9369 3.06663ZM7.8668 13.1587C7.11857 13.06 6.32146 13.0057 5.49704 13C5.10028 13.0008 4.71995 13.1588 4.43934 13.4394C4.15804 13.7207 4 14.1022 4 14.5C4 14.8978 4.15804 15.2794 4.43934 15.5607C4.72064 15.842 5.10218 16 5.5 16C6.0106 16 6.56263 15.669 7.1505 14.6871C7.41114 14.2517 7.64884 13.7348 7.8668 13.1587Z" fill="black"/>
<path fill-rule="evenodd" clip-rule="evenodd" d="M2 21C2 20.4477 2.44772 20 3 20H21C21.5523 20 22 20.4477 22 21C22 21.5523 21.5523 22 21 22H3C2.44772 22 2 21.5523 2 21Z" fill="black"/>
</svg>
