<svg width="24" height="24" viewBox="0 0 24 24" fill="none" xmlns="http://www.w3.org/2000/svg">
<path fill-rule="evenodd" clip-rule="evenodd" d="M7.78166 3.24169C7.59767 3.08347 7.36243 2.99754 7.11978 2.99993C7.1165 2.99996 7.11321 2.99998 7.10993 2.99998H4.11047C3.97178 3.00016 3.83464 3.0292 3.70777 3.08524C3.58078 3.14133 3.46686 3.22325 3.37326 3.32579C3.27966 3.42832 3.20844 3.54922 3.16413 3.68079C3.12062 3.80995 3.10399 3.94661 3.11522 4.08239C3.43392 7.00031 4.43181 9.80304 6.02895 12.2659C6.32945 12.7293 6.19741 13.3485 5.73403 13.649C5.27066 13.9495 4.65141 13.8175 4.35091 13.3541C2.58167 10.6259 1.47704 7.52065 1.12578 4.288C1.12513 4.282 1.12453 4.27599 1.12399 4.26998C1.08651 3.85518 1.1358 3.43712 1.26874 3.04241C1.40168 2.64771 1.61535 2.28501 1.89614 1.97741C2.17693 1.66981 2.5187 1.42404 2.89968 1.25576C3.28066 1.08748 3.6925 1.00037 4.10899 0.999975L7.10551 0.999975C7.83155 0.994139 8.53515 1.25182 9.08573 1.72532C9.63769 2.2 9.99821 2.85919 10.1001 3.58002C10.1005 3.58309 10.1009 3.58615 10.1013 3.58922C10.2181 4.47422 10.4345 5.34318 10.7465 6.17953C10.9479 6.71603 10.9914 7.29898 10.8718 7.85943C10.7522 8.42038 10.4743 8.93528 10.071 9.34311C10.0697 9.34444 10.0684 9.34576 10.067 9.34708L8.79704 10.6171C8.40652 11.0076 7.77335 11.0076 7.38283 10.6171C6.9923 10.2266 6.9923 9.59339 7.38283 9.20287L8.65054 7.93516C8.78407 7.79948 8.87612 7.62849 8.91583 7.44228C8.95571 7.25529 8.94115 7.0608 8.87388 6.88184L8.87304 6.87958C8.50876 5.90337 8.2559 4.88915 8.11924 3.8562C8.08457 3.61738 7.96469 3.3991 7.78166 3.24169ZM9.97314 12.6026C10.3638 12.2122 10.997 12.2125 11.3874 12.6032C12.1603 13.3768 13.0149 14.063 13.9357 14.65L14.6528 13.9329C14.6541 13.9316 14.6555 13.9302 14.6568 13.9289C15.0646 13.5256 15.5795 13.2477 16.1405 13.1281C16.701 13.0085 17.284 13.052 17.8206 13.2535C18.6569 13.5654 19.5258 13.7818 20.4107 13.8986C20.4138 13.899 20.4168 13.8994 20.4199 13.8998C21.1407 14.0017 21.7999 14.3622 22.2746 14.9142C22.7481 15.4647 23.0058 16.1683 22.9999 16.8943V19.8886C23.0013 20.3055 22.9157 20.718 22.7487 21.0999C22.5813 21.4827 22.3359 21.8263 22.028 22.1087C21.7202 22.3911 21.3568 22.6061 20.9611 22.74C20.5653 22.8738 20.146 22.9235 19.7299 22.8859C19.7239 22.8854 19.7179 22.8848 19.7119 22.8841C16.4809 22.533 13.3771 21.4293 10.6499 19.6616C9.38466 18.8579 8.21178 17.9172 7.15243 16.8567C6.76213 16.4659 6.76248 15.8328 7.15322 15.4425C7.54396 15.0522 8.17713 15.0525 8.56743 15.4433C9.52403 16.4009 10.5833 17.2502 11.726 17.9758C11.7287 17.9775 11.7314 17.9792 11.734 17.981C14.1969 19.5781 16.9996 20.576 19.9175 20.8947C20.0537 20.906 20.1908 20.8892 20.3203 20.8454C20.4522 20.8008 20.5734 20.7291 20.676 20.635C20.7786 20.5408 20.8604 20.4263 20.9162 20.2987C20.972 20.1711 21.0005 20.0333 20.9999 19.894C20.9999 19.8927 20.9999 19.8913 20.9999 19.89V16.89C20.9999 16.8867 21 16.8834 21 16.8801C21.0024 16.6375 20.9164 16.4022 20.7582 16.2183C20.6008 16.0352 20.3825 15.9153 20.1437 15.8807C19.1108 15.744 18.0965 15.4911 17.1203 15.1269L17.1181 15.126C16.9391 15.0588 16.7446 15.0442 16.5576 15.0841C16.3714 15.1238 16.2004 15.2159 16.0647 15.3494C16.0642 15.3499 16.0636 15.3505 16.0631 15.351L14.797 16.6171C14.4787 16.9354 13.987 17.0018 13.5956 16.7793C12.2694 16.0252 11.0508 15.096 9.97252 14.0168C9.58216 13.6261 9.58244 12.9929 9.97314 12.6026Z" fill="black"/>
<path fill-rule="evenodd" clip-rule="evenodd" d="M22.7071 1.29289C23.0976 1.68342 23.0976 2.31658 22.7071 2.70711L2.70711 22.7071C2.31658 23.0976 1.68342 23.0976 1.29289 22.7071C0.902369 22.3166 0.902369 21.6834 1.29289 21.2929L21.2929 1.29289C21.6834 0.902369 22.3166 0.902369 22.7071 1.29289Z" fill="black"/>
</svg>
