<svg width="24" height="24" viewBox="0 0 24 24" fill="none" xmlns="http://www.w3.org/2000/svg">
<path fill-rule="evenodd" clip-rule="evenodd" d="M10 10C10.5523 10 11 10.4477 11 11V12C11 12.5523 10.5523 13 10 13C9.44772 13 9 12.5523 9 12V11C9 10.4477 9.44772 10 10 10Z" fill="black"/>
<path fill-rule="evenodd" clip-rule="evenodd" d="M10 15C10.5523 15 11 15.4477 11 16V18C11 18.5523 10.5523 19 10 19C9.44772 19 9 18.5523 9 18V16C9 15.4477 9.44772 15 10 15Z" fill="black"/>
<path fill-rule="evenodd" clip-rule="evenodd" d="M10 5C10.5523 5 11 5.44772 11 6V7C11 7.55228 10.5523 8 10 8C9.44772 8 9 7.55228 9 7V6C9 5.44772 9.44772 5 10 5Z" fill="black"/>
<path fill-rule="evenodd" clip-rule="evenodd" d="M14 1C14.5523 1 15 1.44772 15 2V6C15 6.26522 15.1054 6.51957 15.2929 6.70711C15.4804 6.89464 15.7348 7 16 7H20C20.5523 7 21 7.44772 21 8C21 8.55228 20.5523 9 20 9H16C15.2044 9 14.4413 8.68393 13.8787 8.12132C13.3161 7.55871 13 6.79565 13 6V2C13 1.44772 13.4477 1 14 1Z" fill="black"/>
<path fill-rule="evenodd" clip-rule="evenodd" d="M3.87868 1.87868C4.44129 1.31607 5.20435 1 6 1H15C15.2652 1 15.5196 1.10536 15.7071 1.29289L20.7071 6.29289C20.8946 6.48043 21 6.73478 21 7V20C21 20.7957 20.6839 21.5587 20.1213 22.1213C19.5587 22.6839 18.7957 23 18 23H15.5C14.9477 23 14.5 22.5523 14.5 22C14.5 21.4477 14.9477 21 15.5 21H18C18.2652 21 18.5196 20.8946 18.7071 20.7071C18.8946 20.5196 19 20.2652 19 20V7.41421L14.5858 3H6C5.73478 3 5.48043 3.10536 5.29289 3.29289C5.10536 3.48043 5 3.73478 5 4V19.9998C5 19.9999 5 19.9999 5 20C5.00007 20.1774 5.04736 20.3517 5.137 20.5048C5.41602 20.9814 5.25583 21.594 4.7792 21.873C4.30258 22.152 3.69002 21.9918 3.411 21.5152C3.14197 21.0556 3.00011 20.5327 3 20.0002V4C3 3.20435 3.31607 2.44129 3.87868 1.87868Z" fill="black"/>
<path fill-rule="evenodd" clip-rule="evenodd" d="M10 19C9.44772 19 9 19.4477 9 20C9 20.5523 9.44772 21 10 21C10.5523 21 11 20.5523 11 20C11 19.4477 10.5523 19 10 19ZM7 20C7 18.3431 8.34315 17 10 17C11.6569 17 13 18.3431 13 20C13 21.6569 11.6569 23 10 23C8.34315 23 7 21.6569 7 20Z" fill="black"/>
</svg>
