<svg width="24" height="24" viewBox="0 0 24 24" fill="none" xmlns="http://www.w3.org/2000/svg">
<path fill-rule="evenodd" clip-rule="evenodd" d="M16.5002 4.20115C14.7171 3.17233 12.6352 2.78588 10.6017 3.10626C8.56814 3.42664 6.70589 4.43448 5.3255 5.96171C3.9451 7.48893 3.13 9.44323 3.01611 11.4987C2.90222 13.5542 3.49644 15.5866 4.69966 17.2569C5.90288 18.9273 7.64239 20.1347 9.62808 20.6778C11.6138 21.2209 13.7256 21.0668 15.6115 20.2412C17.4973 19.4157 19.0431 17.9686 19.9912 16.1413C20.9392 14.3139 21.2321 12.2168 20.8211 10.1997C20.7108 9.65849 21.0602 9.1304 21.6013 9.02013C22.1425 8.90986 22.6706 9.25917 22.7808 9.80033C23.2832 12.2658 22.9252 14.8289 21.7665 17.0623C20.6078 19.2957 18.7184 21.0644 16.4135 22.0734C14.1086 23.0824 11.5274 23.2707 9.10047 22.6069C6.67351 21.9432 4.54745 20.4675 3.07685 18.4259C1.60624 16.3843 0.879977 13.9003 1.01917 11.3881C1.15837 8.87582 2.15461 6.48723 3.84176 4.62062C5.52891 2.75401 7.80498 1.5222 10.2904 1.13063C12.7758 0.739054 15.3204 1.21138 17.4997 2.46883C17.9781 2.74484 18.1422 3.35639 17.8661 3.83476C17.5901 4.31312 16.9786 4.47717 16.5002 4.20115Z" fill="black"/>
<path fill-rule="evenodd" clip-rule="evenodd" d="M22.7071 3.29289C23.0976 3.68342 23.0976 4.31658 22.7071 4.70711L12.7071 14.7071C12.3166 15.0976 11.6834 15.0976 11.2929 14.7071L8.29289 11.7071C7.90237 11.3166 7.90237 10.6834 8.29289 10.2929C8.68342 9.90237 9.31658 9.90237 9.70711 10.2929L12 12.5858L21.2929 3.29289C21.6834 2.90237 22.3166 2.90237 22.7071 3.29289Z" fill="black"/>
</svg>
