<svg width="24" height="24" viewBox="0 0 24 24" fill="none" xmlns="http://www.w3.org/2000/svg">
<path fill-rule="evenodd" clip-rule="evenodd" d="M2 9C2 8.44772 2.44772 8 3 8H21C21.5523 8 22 8.44772 22 9V19C22 19.7957 21.6839 20.5587 21.1213 21.1213C20.5587 21.6839 19.7957 22 19 22H5C4.20435 22 3.44129 21.6839 2.87868 21.1213C2.31607 20.5587 2 19.7956 2 19V9ZM4 10V19C4 19.2652 4.10536 19.5196 4.29289 19.7071C4.48043 19.8946 4.73478 20 5 20H19C19.2652 20 19.5196 19.8946 19.7071 19.7071C19.8946 19.5196 20 19.2652 20 19V10H4Z" fill="black"/>
<path fill-rule="evenodd" clip-rule="evenodd" d="M17.2953 4.1466C17.1363 4.04941 16.9533 3.99861 16.7669 3.9999C16.7646 3.99992 16.7623 3.99993 16.76 3.99993L7.238 3.99992C7.05249 3.99956 6.87053 4.05081 6.71247 4.14794C6.55476 4.24485 6.42705 4.38364 6.34356 4.54883C6.34337 4.54919 6.34319 4.54956 6.343 4.54992L3.8944 9.44714C3.64741 9.94112 3.04674 10.1413 2.55276 9.89435C2.05878 9.64736 1.85856 9.04669 2.10555 8.55271L4.55555 3.65271C4.55601 3.65178 4.55648 3.65086 4.55695 3.64993C4.80739 3.15291 5.19116 2.73536 5.66534 2.44397C6.13921 2.15276 6.6847 1.99903 7.24088 1.99993H16.7568C17.3146 1.99676 17.8623 2.14915 18.3382 2.44003C18.8153 2.73158 19.2014 3.15064 19.453 3.64995L19.454 3.65186L19.4551 3.65417L21.8951 8.55417C22.1413 9.04856 21.9401 9.6489 21.4457 9.89508C20.9513 10.1413 20.351 9.94006 20.1048 9.44568L17.6669 4.5499C17.6666 4.54929 17.6663 4.54868 17.666 4.54807C17.5821 4.38244 17.4538 4.24342 17.2953 4.1466Z" fill="black"/>
<path fill-rule="evenodd" clip-rule="evenodd" d="M12 2C12.5523 2 13 2.44772 13 3V9C13 9.55228 12.5523 10 12 10C11.4477 10 11 9.55228 11 9V3C11 2.44772 11.4477 2 12 2Z" fill="black"/>
</svg>
