<svg width="24" height="24" viewBox="0 0 24 24" fill="none" xmlns="http://www.w3.org/2000/svg">
<path fill-rule="evenodd" clip-rule="evenodd" d="M10.6247 11.7191C11.056 12.0641 11.1259 12.6934 10.7809 13.1247L9.28062 15L10.7809 16.8753C11.1259 17.3065 11.056 17.9358 10.6247 18.2808C10.1934 18.6259 9.56414 18.5559 9.21913 18.1247L7.21913 15.6247C6.92696 15.2595 6.92696 14.7405 7.21913 14.3753L9.21913 11.8753C9.56414 11.444 10.1934 11.3741 10.6247 11.7191Z" fill="black"/>
<path fill-rule="evenodd" clip-rule="evenodd" d="M13.3753 11.7191C13.8066 11.3741 14.4359 11.444 14.7809 11.8753L16.7809 14.3753C17.0731 14.7405 17.0731 15.2595 16.7809 15.6247L14.7809 18.1247C14.4359 18.5559 13.8066 18.6259 13.3753 18.2808C12.9441 17.9358 12.8742 17.3065 13.2192 16.8753L14.7194 15L13.2192 13.1247C12.8742 12.6934 12.9441 12.0641 13.3753 11.7191Z" fill="black"/>
<path fill-rule="evenodd" clip-rule="evenodd" d="M14 1C14.5523 1 15 1.44772 15 2V6C15 6.26522 15.1054 6.51957 15.2929 6.70711C15.4804 6.89464 15.7348 7 16 7H20C20.5523 7 21 7.44772 21 8C21 8.55228 20.5523 9 20 9H16C15.2044 9 14.4413 8.68393 13.8787 8.12132C13.3161 7.55871 13 6.79565 13 6V2C13 1.44772 13.4477 1 14 1Z" fill="black"/>
<path fill-rule="evenodd" clip-rule="evenodd" d="M3.87868 1.87868C4.44129 1.31607 5.20435 1 6 1H15C15.2652 1 15.5196 1.10536 15.7071 1.29289L20.7071 6.29289C20.8946 6.48043 21 6.73478 21 7V20C21 20.7957 20.6839 21.5587 20.1213 22.1213C19.5587 22.6839 18.7957 23 18 23H6C5.20435 23 4.44129 22.6839 3.87868 22.1213C3.31607 21.5587 3 20.7956 3 20V4C3 3.20435 3.31607 2.44129 3.87868 1.87868ZM6 3C5.73478 3 5.48043 3.10536 5.29289 3.29289C5.10536 3.48043 5 3.73478 5 4V20C5 20.2652 5.10536 20.5196 5.29289 20.7071C5.48043 20.8946 5.73478 21 6 21H18C18.2652 21 18.5196 20.8946 18.7071 20.7071C18.8946 20.5196 19 20.2652 19 20V7.41421L14.5858 3H6Z" fill="black"/>
</svg>
