<svg width="24" height="24" viewBox="0 0 24 24" fill="none" xmlns="http://www.w3.org/2000/svg">
<path fill-rule="evenodd" clip-rule="evenodd" d="M8.5532 4.34145C8.55314 4.34148 8.55307 4.34152 8.553 4.34155L4 6.61855V19.381L4 19.3835L7.65869 17.5536L7.659 17.5535C8.0754 17.3454 8.53451 17.2371 9 17.2371C9.4655 17.2371 9.9246 17.3454 10.341 17.5535L10.3412 17.5536L14.553 19.6595C14.5531 19.6595 14.5531 19.6596 14.5532 19.6596C14.692 19.7289 14.8449 19.7649 15 19.7649C15.1551 19.7649 15.308 19.7289 15.4467 19.6596C15.4468 19.6596 15.4469 19.6595 15.447 19.6595L19.9997 17.3826L20 17.3825V4.61755L16.341 6.44755C15.9246 6.65563 15.4655 6.76395 15 6.76395C14.5345 6.76395 14.0754 6.65563 13.659 6.44755L9.447 4.34155C9.44693 4.34151 9.44686 4.34148 9.44679 4.34144C9.30805 4.27215 9.15509 4.23608 9 4.23608C8.84495 4.23608 8.69202 4.27214 8.5533 4.3414C8.55326 4.34142 8.55323 4.34144 8.5532 4.34145ZM7.659 2.55248C8.0754 2.34441 8.53451 2.23608 9 2.23608C9.4655 2.23608 9.9246 2.34441 10.341 2.55248L14.553 4.65848C14.5531 4.65852 14.5531 4.65855 14.5532 4.65859C14.692 4.72788 14.8449 4.76395 15 4.76395C15.1551 4.76395 15.308 4.72789 15.4467 4.65864C15.4468 4.6586 15.4468 4.65856 15.4469 4.65852C15.4469 4.65851 15.447 4.6585 15.447 4.65848L19.106 2.82848C19.4111 2.676 19.7502 2.6041 20.091 2.61962C20.4318 2.63514 20.7629 2.73756 21.0529 2.91714C21.3429 3.09673 21.5822 3.34751 21.748 3.64565C21.9136 3.94349 22.0003 4.2787 22 4.61948C22 4.61981 22 4.62015 22 4.62048L22 17.3835C21.9998 17.7549 21.8962 18.1188 21.7009 18.4346C21.5056 18.7503 21.2263 19.0054 20.8943 19.1714C20.8942 19.1715 20.8941 19.1715 20.894 19.1716L16.3413 21.4484L16.341 21.4485C15.9246 21.6566 15.4655 21.7649 15 21.7649C14.5345 21.7649 14.0754 21.6566 13.659 21.4485L13.6588 21.4484L9.447 19.3426C9.44693 19.3425 9.44686 19.3425 9.44679 19.3424C9.30805 19.2732 9.15509 19.2371 9 19.2371C8.84495 19.2371 8.69203 19.2731 8.55331 19.3424C8.55321 19.3424 8.55311 19.3425 8.553 19.3426L4.89401 21.1725C4.58871 21.3251 4.24946 21.397 3.90852 21.3814C3.56759 21.3658 3.23632 21.2632 2.94624 21.0834C2.65616 20.9035 2.41693 20.6525 2.2513 20.3541C2.08591 20.0561 1.99941 19.7208 2 19.38L2 6.61748C2.0002 6.24616 2.10377 5.88222 2.29911 5.56643C2.49439 5.25073 2.77368 4.99561 3.10571 4.82963C3.10581 4.82958 3.10591 4.82953 3.106 4.82948L7.659 2.55248Z" fill="black"/>
<path fill-rule="evenodd" clip-rule="evenodd" d="M15 4.76404C15.5523 4.76404 16 5.21175 16 5.76404V20.764C16 21.3163 15.5523 21.764 15 21.764C14.4477 21.764 14 21.3163 14 20.764V5.76404C14 5.21175 14.4477 4.76404 15 4.76404Z" fill="black"/>
<path fill-rule="evenodd" clip-rule="evenodd" d="M9 2.23596C9.55228 2.23596 10 2.68368 10 3.23596V18.236C10 18.7882 9.55228 19.236 9 19.236C8.44772 19.236 8 18.7882 8 18.236V3.23596C8 2.68368 8.44772 2.23596 9 2.23596Z" fill="black"/>
</svg>
