<svg width="24" height="24" viewBox="0 0 24 24" fill="none" xmlns="http://www.w3.org/2000/svg">
<path fill-rule="evenodd" clip-rule="evenodd" d="M8.70054 2.98458C9.6801 2.33963 10.8272 1.99591 12 1.99591C13.1728 1.99591 14.3199 2.33963 15.2995 2.98458C16.0845 3.50142 16.7343 4.19353 17.2 5.00252C18.1302 5.03886 19.0369 5.33454 19.8147 5.86296C20.7895 6.52529 21.4991 7.51068 21.8181 8.64523C22.1371 9.77978 22.0451 10.9906 21.5584 12.0639C21.0717 13.1369 20.2217 14.0036 19.1584 14.5111C19.089 14.5446 19.0415 14.5882 19.0169 14.6218C19.0053 14.6378 19.0012 14.6476 19 14.6517V20C19 20.5304 18.7893 21.0391 18.4142 21.4142C18.0392 21.7893 17.5305 22 17 22H7.00002C6.46959 22 5.96088 21.7893 5.58581 21.4142C5.21074 21.0391 5.00002 20.5304 5.00002 20V14.6512C4.99872 14.647 4.99461 14.6373 4.98311 14.6215C4.95831 14.5876 4.91022 14.5434 4.84006 14.5094C3.77807 14.0013 2.9294 13.1348 2.44355 12.0624C1.95743 10.9894 1.86575 9.7793 2.18465 8.64534C2.50356 7.51138 3.21258 6.52643 4.18671 5.86413C4.96393 5.33571 5.8701 5.03977 6.79983 5.00291C7.26554 4.19375 7.91543 3.5015 8.70054 2.98458ZM5.00053 14.6536C5.00046 14.6536 5.00026 14.6529 5.00014 14.6516C5.00054 14.6529 5.0006 14.6536 5.00053 14.6536ZM18.9996 14.6539C18.9995 14.6539 18.9996 14.6532 18.9999 14.6519C18.9998 14.6533 18.9996 14.654 18.9996 14.6539ZM12 3.99591C11.2181 3.99591 10.4534 4.22506 9.80036 4.65503C9.14732 5.08499 8.63461 5.69692 8.32562 6.41516C8.15291 6.81662 7.7395 7.05942 7.30475 7.01472C6.60169 6.94244 5.89568 7.1207 5.3112 7.51808C4.72672 7.91545 4.30131 8.50643 4.10996 9.1868C3.91862 9.86718 3.97363 10.5933 4.2653 11.237C4.55697 11.8808 5.06657 12.4009 5.70425 12.7057C5.70518 12.7062 5.70611 12.7066 5.70703 12.7071C6.35945 13.0214 7.00002 13.705 7.00002 14.649V20H17V14.65C17 13.7056 17.64 13.0211 18.2948 12.7072L18.2965 12.7064C18.9347 12.4019 19.4449 11.8818 19.7369 11.2378C20.029 10.5938 20.0842 9.86736 19.8928 9.18662C19.7014 8.50589 19.2756 7.91466 18.6907 7.51726C18.1058 7.11987 17.3993 6.94186 16.696 7.01466C16.261 7.05967 15.8472 6.81685 15.6744 6.41516C15.3654 5.69692 14.8527 5.08499 14.1997 4.65503C13.5466 4.22506 12.7819 3.99591 12 3.99591Z" fill="black"/>
<path fill-rule="evenodd" clip-rule="evenodd" d="M5 17C5 16.4477 5.44772 16 6 16H18C18.5523 16 19 16.4477 19 17C19 17.5523 18.5523 18 18 18H6C5.44772 18 5 17.5523 5 17Z" fill="black"/>
</svg>
