<svg width="24" height="24" viewBox="0 0 24 24" fill="none" xmlns="http://www.w3.org/2000/svg">
<path fill-rule="evenodd" clip-rule="evenodd" d="M2 12C2 11.4477 2.44772 11 3 11H16C16.5523 11 17 11.4477 17 12C17 12.5523 16.5523 13 16 13H3C2.44772 13 2 12.5523 2 12Z" fill="black"/>
<path fill-rule="evenodd" clip-rule="evenodd" d="M2 18C2 17.4477 2.44772 17 3 17H16C16.5523 17 17 17.4477 17 18C17 18.5523 16.5523 19 16 19H3C2.44772 19 2 18.5523 2 18Z" fill="black"/>
<path fill-rule="evenodd" clip-rule="evenodd" d="M2 6C2 5.44772 2.44772 5 3 5H16C16.5523 5 17 5.44772 17 6C17 6.55228 16.5523 7 16 7H3C2.44772 7 2 6.55228 2 6Z" fill="black"/>
<path fill-rule="evenodd" clip-rule="evenodd" d="M20 12C20 11.4477 20.4477 11 21 11H21.01C21.5623 11 22.01 11.4477 22.01 12C22.01 12.5523 21.5623 13 21.01 13H21C20.4477 13 20 12.5523 20 12Z" fill="black"/>
<path fill-rule="evenodd" clip-rule="evenodd" d="M20 18C20 17.4477 20.4477 17 21 17H21.01C21.5623 17 22.01 17.4477 22.01 18C22.01 18.5523 21.5623 19 21.01 19H21C20.4477 19 20 18.5523 20 18Z" fill="black"/>
<path fill-rule="evenodd" clip-rule="evenodd" d="M20 6C20 5.44772 20.4477 5 21 5H21.01C21.5623 5 22.01 5.44772 22.01 6C22.01 6.55228 21.5623 7 21.01 7H21C20.4477 7 20 6.55228 20 6Z" fill="black"/>
</svg>
