<svg width="24" height="24" viewBox="0 0 24 24" fill="none" xmlns="http://www.w3.org/2000/svg">
<path fill-rule="evenodd" clip-rule="evenodd" d="M12.0001 4C11.4696 4 10.9609 4.21071 10.5858 4.58579C10.2108 4.96086 10.0001 5.46957 10.0001 6V6.03C10.0001 6.32052 9.87371 6.59667 9.6539 6.78663C9.43408 6.97658 9.14253 7.06155 8.85508 7.01944C8.35847 6.94667 7.85146 7.02508 7.40002 7.24444C6.94858 7.4638 6.57362 7.81397 6.32394 8.24937C6.07426 8.68478 5.96142 9.18525 6.00009 9.68567C6.03877 10.1861 6.22718 10.6633 6.5408 11.0552C6.71555 11.2735 6.79088 11.5551 6.74851 11.8315C6.70614 12.1079 6.54994 12.354 6.31781 12.51C5.7837 12.8689 5.37915 13.3901 5.1639 13.9965C4.94865 14.6029 4.9341 15.2625 5.1224 15.8779C5.3107 16.4932 5.69187 17.0317 6.20963 17.4138C6.7274 17.7959 7.35431 18.0014 7.99781 18L8.00005 18H15.9986C15.9988 18 15.9991 18 15.9994 18C16.6405 17.9989 17.2644 17.7924 17.7797 17.4108C18.2951 17.0291 18.6746 16.4922 18.8625 15.879C19.0505 15.2657 19.0369 14.6083 18.8238 14.0034C18.6107 13.3984 18.2094 12.8776 17.6786 12.5175C17.4478 12.3609 17.2929 12.1151 17.2513 11.8393C17.2096 11.5635 17.285 11.2829 17.4593 11.0652C17.7729 10.6733 17.9613 10.1961 18 9.69567C18.0387 9.19525 17.9258 8.69478 17.6762 8.25937C17.4265 7.82397 17.0515 7.4738 16.6001 7.25444C16.1486 7.03508 15.6416 6.95667 15.145 7.02944C14.8576 7.07155 14.566 6.98658 14.3462 6.79663C14.1264 6.60667 14.0001 6.33052 14.0001 6.04V6C14.0001 5.46957 13.7893 4.96086 13.4143 4.58579C13.0392 4.21071 12.5305 4 12.0001 4ZM9.17162 3.17157C9.92177 2.42143 10.9392 2 12.0001 2C13.0609 2 14.0783 2.42143 14.8285 3.17157C15.3425 3.68564 15.7022 4.32522 15.8777 5.01829C16.4294 5.06384 16.971 5.21106 17.4742 5.45557C18.2868 5.85043 18.9617 6.48073 19.4111 7.26445C19.8606 8.04818 20.0637 8.94903 19.9941 9.84979C19.95 10.4205 19.7976 10.9745 19.5484 11.4832C20.0652 12.0055 20.4635 12.6383 20.7102 13.3389C21.0654 14.3472 21.088 15.4428 20.7748 16.4649C20.4616 17.487 19.829 18.3818 18.97 19.0181C18.1109 19.6543 17.0705 19.9984 16.0015 20L8.00114 20C6.92904 20.0022 5.88462 19.6597 5.02199 19.023C4.15906 18.3861 3.52377 17.4887 3.20994 16.4631C2.89611 15.4375 2.92036 14.3382 3.27911 13.3275C3.52833 12.6254 3.92979 11.9918 4.45014 11.4699C4.2018 10.9621 4.05005 10.4093 4.00604 9.83979C3.93642 8.93903 4.13954 8.03818 4.58897 7.25445C5.0384 6.47073 5.71332 5.84043 6.52591 5.44557C7.02989 5.20067 7.57236 5.05338 8.12498 5.00807C8.3014 4.31894 8.66008 3.68311 9.17162 3.17157Z" fill="black"/>
<path fill-rule="evenodd" clip-rule="evenodd" d="M12 18C12.5523 18 13 18.4477 13 19V22C13 22.5523 12.5523 23 12 23C11.4477 23 11 22.5523 11 22V19C11 18.4477 11.4477 18 12 18Z" fill="black"/>
</svg>
