<svg width="24" height="24" viewBox="0 0 24 24" fill="none" xmlns="http://www.w3.org/2000/svg">
<path fill-rule="evenodd" clip-rule="evenodd" d="M14.0902 17.3207C13.7658 17.1109 13.3876 16.9995 13.0013 17C12.449 17.0007 12.0007 16.5536 12 16.0013C11.9993 15.449 12.4464 15.0007 12.9987 15C13.7713 14.999 14.5277 15.2218 15.1764 15.6414C15.8251 16.061 16.3385 16.6595 16.6543 17.3646C16.9702 18.0697 17.0751 18.8512 16.9564 19.6146C16.8377 20.3781 16.5004 21.0908 15.9854 21.6667C15.6172 22.0783 14.985 22.1135 14.5733 21.7454C14.1617 21.3772 14.1265 20.745 14.4946 20.3333C14.7522 20.0454 14.9208 19.689 14.9802 19.3073C15.0395 18.9256 14.9871 18.5349 14.8291 18.1823C14.6712 17.8298 14.4145 17.5305 14.0902 17.3207Z" fill="black"/>
<path fill-rule="evenodd" clip-rule="evenodd" d="M17 12C17 11.4477 17.4477 11 18 11H18.01C18.5623 11 19.01 11.4477 19.01 12C19.01 12.5523 18.5623 13 18.01 13H18C17.4477 13 17 12.5523 17 12Z" fill="black"/>
<path fill-rule="evenodd" clip-rule="evenodd" d="M11 4.02014C10.7401 4.02014 10.4909 4.12338 10.3071 4.30715C10.1233 4.49091 10.0201 4.74016 10.0201 5.00004C10.0201 5.12872 10.0454 5.25614 10.0947 5.37503C10.1439 5.49392 10.2161 5.60194 10.3071 5.69293L13.9071 9.29293C14.1931 9.57893 14.2787 10.009 14.1239 10.3827C13.9691 10.7564 13.6045 11 13.2 11H13C11.4087 11 9.88258 11.6322 8.75736 12.7574C7.63214 13.8826 7 15.4087 7 17C7 17.7957 7.31607 18.5588 7.87868 19.1214C8.44129 19.684 9.20435 20 10 20H16H18C18.5523 20 19 20.4478 19 21C19 21.5523 18.5523 22 18 22H10C8.67392 22 7.40215 21.4733 6.46447 20.5356C5.52678 19.5979 5 18.3261 5 17C5 14.8783 5.84286 12.8435 7.34315 11.3432C8.37007 10.3163 9.64743 9.59736 11.0317 9.24594L8.89289 7.10715C8.61619 6.83044 8.39669 6.50194 8.24693 6.1404C8.09718 5.77886 8.0201 5.39137 8.0201 5.00004C8.0201 4.20972 8.33405 3.45177 8.89289 2.89293C9.45173 2.33409 10.2097 2.02014 11 2.02014C11.3913 2.02014 11.7788 2.09722 12.1404 2.24697C12.5019 2.39673 12.8304 2.61622 13.1071 2.89293L16.5071 6.29293L15.8 7.00004V6.00004H16C19.8523 6.00004 23 9.14776 23 13V14C23 14.7957 22.6839 15.5588 22.1213 16.1214C21.5587 16.684 20.7957 17 20 17H19C18.4696 17 17.9609 17.2108 17.5858 17.5858C17.2107 17.9609 17 18.4696 17 19C17 19.5523 16.5523 20 16 20C15.4477 20 15 19.5523 15 19C15 17.9392 15.4214 16.9218 16.1716 16.1716C16.9217 15.4215 17.9391 15 19 15H20C20.2652 15 20.5196 14.8947 20.7071 14.7071C20.8946 14.5196 21 14.2653 21 14V13C21 10.2523 18.7477 8.00004 16 8.00004H15.8C15.5348 8.00004 15.2804 7.89468 15.0929 7.70715L11.6929 4.30715C11.6019 4.21616 11.4939 4.14398 11.375 4.09473C11.2561 4.04549 11.1287 4.02014 11 4.02014Z" fill="black"/>
<path fill-rule="evenodd" clip-rule="evenodd" d="M15.8787 1.87868C16.4413 1.31607 17.2044 1 18 1C18.7956 1 19.5587 1.31607 20.1213 1.87868C20.6839 2.44129 21 3.20435 21 4V8.54C21 9.09228 20.5523 9.54 20 9.54C19.4477 9.54 19 9.09228 19 8.54V4C19 3.73478 18.8946 3.48043 18.7071 3.29289C18.5196 3.10536 18.2652 3 18 3C17.7348 3 17.4804 3.10536 17.2929 3.29289C17.1054 3.48043 17 3.73478 17 4V7C17 7.55228 16.5523 8 16 8C15.4477 8 15 7.55228 15 7V4C15 3.20435 15.3161 2.44129 15.8787 1.87868Z" fill="black"/>
<path fill-rule="evenodd" clip-rule="evenodd" d="M4.68427 10.0122C5.44403 9.95207 6.20518 10.1102 6.87811 10.468C7.55103 10.8258 8.10772 11.3685 8.48265 12.032C8.75434 12.5129 8.58479 13.1229 8.10395 13.3946C7.62312 13.6663 7.01307 13.4967 6.74139 13.0159C6.55392 12.6841 6.27558 12.4128 5.93911 12.2339C5.60265 12.055 5.22208 11.9759 4.8422 12.006C4.46231 12.0361 4.09893 12.1741 3.79483 12.4037C3.49073 12.6334 3.25857 12.9451 3.12568 13.3023C2.99279 13.6594 2.96469 14.0471 3.04471 14.4197C3.12472 14.7923 3.30951 15.1342 3.57733 15.4053C3.84514 15.6764 4.18483 15.8654 4.55641 15.9499C4.92798 16.0345 5.31598 16.0111 5.67472 15.8826C6.19464 15.6963 6.76713 15.9667 6.95342 16.4867C7.1397 17.0066 6.86924 17.5791 6.34932 17.7653C5.63183 18.0224 4.85584 18.0692 4.11269 17.9001C3.36954 17.731 2.69016 17.3531 2.15453 16.8109C1.6189 16.2687 1.24932 15.5848 1.08929 14.8396C0.929264 14.0945 0.98545 13.3191 1.25124 12.6048C1.51702 11.8905 1.98134 11.267 2.58954 10.8077C3.19774 10.3484 3.9245 10.0724 4.68427 10.0122Z" fill="black"/>
</svg>
