<svg width="24" height="24" viewBox="0 0 24 24" fill="none" xmlns="http://www.w3.org/2000/svg">
<path fill-rule="evenodd" clip-rule="evenodd" d="M3.37798 3.37799L5.94661 9.98305L6.58858 7.9096C6.58862 7.90947 6.58866 7.90934 6.5887 7.90921C6.78235 7.28332 7.28215 6.78348 7.90802 6.58977C7.90821 6.58971 7.90839 6.58965 7.90858 6.5896L9.98342 5.94678L3.37798 3.37799ZM3.04644 1.10315C1.80857 0.614171 0.639967 1.87283 1.10309 3.04634L4.60143 12.0421C4.60153 12.0423 4.60162 12.0426 4.60172 12.0428C5.10011 13.328 7.02578 13.2609 7.43322 11.9437C7.43329 11.9435 7.43336 11.9433 7.43343 11.9431L8.49809 8.50438C8.49818 8.50426 8.49828 8.50413 8.49839 8.504C8.49867 8.50363 8.499 8.50324 8.49937 8.50282C8.49974 8.50241 8.50014 8.50199 8.50055 8.50157C8.50097 8.50116 8.50139 8.50076 8.5018 8.50039C8.50222 8.50002 8.50261 8.49969 8.50298 8.49941C8.50312 8.4993 8.50324 8.4992 8.50337 8.49911L11.943 7.43345C11.9432 7.43339 11.9434 7.43333 11.9436 7.43327C11.9437 7.43324 11.9438 7.43321 11.9439 7.43318C13.2609 7.02562 13.3279 5.10009 12.0428 4.60174C12.0426 4.60164 12.0423 4.60154 12.042 4.60144L3.04644 1.10315ZM8.49738 8.50538C8.49731 8.50552 8.4973 8.50553 8.49735 8.50545L8.49738 8.50538Z" fill="black"/>
<path d="M16 22C19.3137 22 22 19.3137 22 16C22 12.6863 19.3137 10 16 10C12.6863 10 10 12.6863 10 16C10 19.3137 12.6863 22 16 22Z" stroke="black" stroke-width="2" stroke-linecap="round" stroke-linejoin="round"/>
<path d="M11.7998 11.8L20.1998 20.2" stroke="black" stroke-width="2" stroke-linecap="round" stroke-linejoin="round"/>
</svg>
