<svg width="24" height="24" viewBox="0 0 24 24" fill="none" xmlns="http://www.w3.org/2000/svg">
<path fill-rule="evenodd" clip-rule="evenodd" d="M7 2C7 1.44772 7.44772 1 8 1H16C16.5523 1 17 1.44772 17 2C17 2.55228 16.5523 3 16 3H8C7.44772 3 7 2.55228 7 2Z" fill="black"/>
<path fill-rule="evenodd" clip-rule="evenodd" d="M9 1C9.55228 1 10 1.44772 10 2V3.343C10 3.89528 9.55228 4.343 9 4.343C8.44772 4.343 8 3.89528 8 3.343V2C8 1.44772 8.44772 1 9 1ZM15 1C15.5523 1 16 1.44772 16 2V4.78897C16 4.78898 16 4.78899 16 4.789C16 5.38133 16.1754 5.9604 16.504 6.45322L16.5041 6.4533L17.16 7.43722C17.16 7.43725 17.16 7.43728 17.16 7.4373C17.7079 8.25896 18.0002 9.22445 18 10.212C18 10.2121 18 10.2121 18 10.2122V11.343C18 11.8953 17.5523 12.343 17 12.343C16.4477 12.343 16 11.8953 16 11.343V10.2118C16.0001 9.61918 15.8248 9.03982 15.496 8.54678L15.4959 8.5467L14.84 7.56278C14.84 7.56275 14.84 7.56272 14.8399 7.5627C14.2923 6.74134 14 5.77623 14 4.78903V2C14 1.44772 14.4477 1 15 1ZM8.3547 6.96795C8.81423 7.2743 8.9384 7.89517 8.63205 8.3547L8.504 8.54678C8.17524 9.03982 7.99987 9.61918 8 10.2118V20C8 20.2652 8.10536 20.5196 8.29289 20.7071C8.48043 20.8946 8.73478 21 9 21H15C15.2652 21 15.5196 20.8946 15.7071 20.7071C15.8946 20.5196 16 20.2652 16 20V17C16 16.4477 16.4477 16 17 16C17.5523 16 18 16.4477 18 17V20C18 20.7957 17.6839 21.5587 17.1213 22.1213C16.5587 22.6839 15.7956 23 15 23H9C8.20435 23 7.44129 22.6839 6.87868 22.1213C6.31607 21.5587 6 20.7956 6 20L6 10.2122C6 10.2121 6 10.2121 6 10.212C5.99982 9.22445 6.29209 8.25896 6.83995 7.4373C6.83997 7.43727 6.83998 7.43725 6.84 7.43722L6.96795 7.2453C7.2743 6.78577 7.89517 6.6616 8.3547 6.96795Z" fill="black"/>
<path fill-rule="evenodd" clip-rule="evenodd" d="M9.50002 15.4976C8.77427 15.4976 8.05579 15.642 7.38641 15.9224C6.87702 16.1358 6.29109 15.8959 6.07768 15.3865C5.86428 14.8771 6.10423 14.2911 6.61362 14.0777C7.52774 13.6948 8.50892 13.4976 9.50002 13.4976C10.4911 13.4976 11.4723 13.6948 12.3864 14.0777L12.3864 14.0778C13.3032 14.4618 14.3072 14.589 15.2907 14.4455C15.8372 14.3658 16.3448 14.7443 16.4245 15.2908C16.5043 15.8373 16.1258 16.3449 15.5793 16.4246C14.2364 16.6205 12.8654 16.4469 11.6136 15.9224M9.50002 15.4976C10.2257 15.4976 10.9442 15.642 11.6136 15.9224L9.50002 15.4976Z" fill="black"/>
<path fill-rule="evenodd" clip-rule="evenodd" d="M1.29289 1.29289C1.68342 0.902369 2.31658 0.902369 2.70711 1.29289L22.7071 21.2929C23.0976 21.6834 23.0976 22.3166 22.7071 22.7071C22.3166 23.0976 21.6834 23.0976 21.2929 22.7071L1.29289 2.70711C0.902369 2.31658 0.902369 1.68342 1.29289 1.29289Z" fill="black"/>
</svg>
