<svg width="24" height="24" viewBox="0 0 24 24" fill="none" xmlns="http://www.w3.org/2000/svg">
<path fill-rule="evenodd" clip-rule="evenodd" d="M5 4C4.44772 4 4 4.44772 4 5V19C4 19.5523 4.44772 20 5 20H19C19.5523 20 20 19.5523 20 19V5C20 4.44772 19.5523 4 19 4H5ZM2 5C2 3.34315 3.34315 2 5 2H19C20.6569 2 22 3.34315 22 5V19C22 20.6569 20.6569 22 19 22H5C3.34315 22 2 20.6569 2 19V5Z" fill="black"/>
<path d="M7.5 8C7.77614 8 8 7.77614 8 7.5C8 7.22386 7.77614 7 7.5 7C7.22386 7 7 7.22386 7 7.5C7 7.77614 7.22386 8 7.5 8Z" fill="black"/>
<path fill-rule="evenodd" clip-rule="evenodd" d="M7.5 8C7.77614 8 8 7.77614 8 7.5C8 7.22386 7.77614 7 7.5 7C7.22386 7 7 7.22386 7 7.5C7 7.77614 7.22386 8 7.5 8ZM6 7.5C6 6.67157 6.67157 6 7.5 6C8.32843 6 9 6.67157 9 7.5C9 8.32843 8.32843 9 7.5 9C6.67157 9 6 8.32843 6 7.5Z" fill="black"/>
<path fill-rule="evenodd" clip-rule="evenodd" d="M7.1928 7.1928C7.58332 6.80227 8.21648 6.80227 8.60701 7.1928L11.307 9.8928C11.6975 10.2833 11.6975 10.9165 11.307 11.307C10.9165 11.6975 10.2833 11.6975 9.8928 11.307L7.1928 8.60701C6.80227 8.21648 6.80227 7.58332 7.1928 7.1928Z" fill="black"/>
<path d="M16.5 8C16.7761 8 17 7.77614 17 7.5C17 7.22386 16.7761 7 16.5 7C16.2239 7 16 7.22386 16 7.5C16 7.77614 16.2239 8 16.5 8Z" fill="black"/>
<path fill-rule="evenodd" clip-rule="evenodd" d="M16.5 8C16.7761 8 17 7.77614 17 7.5C17 7.22386 16.7761 7 16.5 7C16.2239 7 16 7.22386 16 7.5C16 7.77614 16.2239 8 16.5 8ZM15 7.5C15 6.67157 15.6716 6 16.5 6C17.3284 6 18 6.67157 18 7.5C18 8.32843 17.3284 9 16.5 9C15.6716 9 15 8.32843 15 7.5Z" fill="black"/>
<path fill-rule="evenodd" clip-rule="evenodd" d="M16.807 7.1928C17.1975 7.58332 17.1975 8.21648 16.807 8.60701L14.107 11.307C13.7165 11.6975 13.0833 11.6975 12.6928 11.307C12.3023 10.9165 12.3023 10.2833 12.6928 9.8928L15.3928 7.1928C15.7833 6.80227 16.4165 6.80227 16.807 7.1928Z" fill="black"/>
<path d="M7.5 17C7.77614 17 8 16.7761 8 16.5C8 16.2239 7.77614 16 7.5 16C7.22386 16 7 16.2239 7 16.5C7 16.7761 7.22386 17 7.5 17Z" fill="black"/>
<path fill-rule="evenodd" clip-rule="evenodd" d="M7.5 17C7.77614 17 8 16.7761 8 16.5C8 16.2239 7.77614 16 7.5 16C7.22386 16 7 16.2239 7 16.5C7 16.7761 7.22386 17 7.5 17ZM6 16.5C6 15.6716 6.67157 15 7.5 15C8.32843 15 9 15.6716 9 16.5C9 17.3284 8.32843 18 7.5 18C6.67157 18 6 17.3284 6 16.5Z" fill="black"/>
<path fill-rule="evenodd" clip-rule="evenodd" d="M11.307 12.6928C11.6975 13.0833 11.6975 13.7165 11.307 14.107L8.60701 16.807C8.21648 17.1975 7.58332 17.1975 7.1928 16.807C6.80227 16.4165 6.80227 15.7833 7.1928 15.3928L9.8928 12.6928C10.2833 12.3023 10.9165 12.3023 11.307 12.6928Z" fill="black"/>
<path d="M16.5 17C16.7761 17 17 16.7761 17 16.5C17 16.2239 16.7761 16 16.5 16C16.2239 16 16 16.2239 16 16.5C16 16.7761 16.2239 17 16.5 17Z" fill="black"/>
<path fill-rule="evenodd" clip-rule="evenodd" d="M16.5 17C16.7761 17 17 16.7761 17 16.5C17 16.2239 16.7761 16 16.5 16C16.2239 16 16 16.2239 16 16.5C16 16.7761 16.2239 17 16.5 17ZM15 16.5C15 15.6716 15.6716 15 16.5 15C17.3284 15 18 15.6716 18 16.5C18 17.3284 17.3284 18 16.5 18C15.6716 18 15 17.3284 15 16.5Z" fill="black"/>
<path fill-rule="evenodd" clip-rule="evenodd" d="M12.6928 12.6928C13.0833 12.3023 13.7165 12.3023 14.107 12.6928L16.807 15.3928C17.1975 15.7833 17.1975 16.4165 16.807 16.807C16.4165 17.1975 15.7833 17.1975 15.3928 16.807L12.6928 14.107C12.3023 13.7165 12.3023 13.0833 12.6928 12.6928Z" fill="black"/>
<path fill-rule="evenodd" clip-rule="evenodd" d="M12 11C11.4477 11 11 11.4477 11 12C11 12.5523 11.4477 13 12 13C12.5523 13 13 12.5523 13 12C13 11.4477 12.5523 11 12 11ZM9 12C9 10.3431 10.3431 9 12 9C13.6569 9 15 10.3431 15 12C15 13.6569 13.6569 15 12 15C10.3431 15 9 13.6569 9 12Z" fill="black"/>
</svg>
