<svg width="24" height="24" viewBox="0 0 24 24" fill="none" xmlns="http://www.w3.org/2000/svg">
<path fill-rule="evenodd" clip-rule="evenodd" d="M4 3C3.73478 3 3.48043 3.10536 3.29289 3.29289C3.10536 3.48043 3 3.73478 3 4V16C3 16.5523 2.55228 17 2 17C1.44772 17 1 16.5523 1 16V4C1 3.20435 1.31607 2.44129 1.87868 1.87868C2.44129 1.31607 3.20435 1 4 1H15C15.5523 1 16 1.44772 16 2C16 2.55228 15.5523 3 15 3H4Z" fill="black"/>
<path fill-rule="evenodd" clip-rule="evenodd" d="M8.87868 5.87868C9.44129 5.31607 10.2044 5 11 5H21.5C21.8978 5 22.2794 5.15804 22.5607 5.43934C22.842 5.72065 23 6.10218 23 6.5V21.5C23 21.8978 22.842 22.2794 22.5607 22.5607C22.2794 22.842 21.8978 23 21.5 23H11C10.2043 23 9.44129 22.6839 8.87868 22.1213C8.31607 21.5587 8 20.7957 8 20V8C8 7.20435 8.31607 6.44129 8.87868 5.87868ZM10 17.1716V8C10 7.73478 10.1054 7.48043 10.2929 7.29289C10.4804 7.10536 10.7348 7 11 7H21V17H11C10.6561 17 10.3182 17.0591 10 17.1716ZM21 19H11C10.7348 19 10.4804 19.1054 10.2929 19.2929C10.1054 19.4804 10 19.7348 10 20C10 20.2652 10.1054 20.5196 10.2929 20.7071C10.4804 20.8946 10.7348 21 11 21H21V19Z" fill="black"/>
<path fill-rule="evenodd" clip-rule="evenodd" d="M1.87868 13.8787C2.44129 13.3161 3.20435 13 4 13H5C5.55228 13 6 13.4477 6 14C6 14.5523 5.55228 15 5 15H4C3.73478 15 3.48043 15.1054 3.29289 15.2929C3.10536 15.4804 3 15.7348 3 16C3 16.2652 3.10536 16.5196 3.29289 16.7071C3.48043 16.8946 3.73478 17 4 17H5C5.55228 17 6 17.4477 6 18C6 18.5523 5.55228 19 5 19H4C3.20435 19 2.44129 18.6839 1.87868 18.1213C1.31607 17.5587 1 16.7956 1 16C1 15.2044 1.31607 14.4413 1.87868 13.8787Z" fill="black"/>
</svg>
