<svg width="24" height="24" viewBox="0 0 24 24" fill="none" xmlns="http://www.w3.org/2000/svg">
<path fill-rule="evenodd" clip-rule="evenodd" d="M2.87868 2.87868C3.44129 2.31607 4.20435 2 5 2H12C12.5523 2 13 2.44772 13 3C13 3.55228 12.5523 4 12 4H5C4.73478 4 4.48043 4.10536 4.29289 4.29289C4.10536 4.48043 4 4.73478 4 5V19C4 19.2652 4.10536 19.5196 4.29289 19.7071C4.48043 19.8946 4.73478 20 5 20H19C19.2652 20 19.5196 19.8946 19.7071 19.7071C19.8946 19.5196 20 19.2652 20 19V12C20 11.4477 20.4477 11 21 11C21.5523 11 22 11.4477 22 12V19C22 19.7957 21.6839 20.5587 21.1213 21.1213C20.5587 21.6839 19.7957 22 19 22H5C4.20435 22 3.44129 21.6839 2.87868 21.1213C2.31607 20.5587 2 19.7956 2 19V5C2 4.20435 2.31607 3.44129 2.87868 2.87868Z" fill="black"/>
<path fill-rule="evenodd" clip-rule="evenodd" d="M19.0822 3.33205C19.0822 3.33206 19.0822 3.33208 19.0822 3.33209L10.0686 12.3467C9.94997 12.4651 9.86301 12.6115 9.81572 12.7723C9.81568 12.7724 9.81564 12.7725 9.81559 12.7727L9.23227 14.7678L11.2285 14.1842L11.2288 14.1841C11.3897 14.1371 11.5363 14.0504 11.6549 13.9319C11.655 13.9319 11.655 13.9319 11.655 13.9318C11.6551 13.9317 11.6552 13.9317 11.6553 13.9316L20.668 4.91788C20.8783 4.70759 20.9964 4.42237 20.9964 4.12498C20.9964 3.82759 20.8783 3.54238 20.668 3.33209C20.4577 3.1218 20.1725 3.00366 19.8751 3.00366C19.5777 3.00366 19.2925 3.12179 19.0822 3.33205ZM17.668 1.91788C18.2533 1.33251 19.0473 1.00366 19.8751 1.00366C20.7029 1.00366 21.4968 1.33251 22.0822 1.91788C22.6676 2.50324 22.9964 3.29716 22.9964 4.12498C22.9964 4.95279 22.6676 5.74669 22.0822 6.33205C22.0822 6.33206 22.0822 6.33208 22.0822 6.33209L13.0689 15.3464C12.7128 15.7022 12.2729 15.9626 11.7897 16.1038C11.7896 16.1038 11.7895 16.1039 11.7894 16.1039L8.91609 16.944C8.65795 17.0193 8.38431 17.0238 8.12382 16.9571C7.86334 16.8903 7.62558 16.7548 7.43543 16.5646C7.24529 16.3745 7.10976 16.1367 7.04302 15.8763C6.97629 15.6158 6.9808 15.3421 7.05609 15.084L7.8966 12.2093C8.03836 11.7264 8.29931 11.287 8.65542 10.9314C8.65548 10.9314 8.65554 10.9313 8.6556 10.9313L17.6679 1.91791L17.668 1.91788Z" fill="black"/>
</svg>
