<svg width="24" height="24" viewBox="0 0 24 24" fill="none" xmlns="http://www.w3.org/2000/svg">
<path fill-rule="evenodd" clip-rule="evenodd" d="M17.5861 11.9998C17.9611 11.6248 18.4698 11.4142 19.0001 11.4142C19.5304 11.4142 20.039 11.6248 20.4141 11.9998L19.7048 12.7092L20.4142 11.9999L22.0002 13.5859L21.2939 14.2922L22.0003 13.586C22.3752 13.961 22.5859 14.4696 22.5859 15C22.5859 15.5303 22.3752 16.0389 22.0003 16.414L21.2911 15.7049L22.0002 16.4141L16.4142 22.0001L15.7071 21.293L16.4141 22.0002C16.039 22.3751 15.5304 22.5858 15.0001 22.5858C14.4698 22.5858 13.9611 22.3751 13.5861 22.0002L14.2939 21.2922L13.586 22.0001L12 20.4141L12.7081 19.706L11.9999 20.414C11.6249 20.0389 11.4143 19.5303 11.4143 19C11.4143 18.4696 11.6249 17.961 11.9999 17.586L12.7084 18.2943L12 17.5859L17.586 11.9999L18.2932 12.707L17.5861 11.9998ZM19.0001 13.4142L13.4143 19L15.0001 20.5858L20.5859 15L19.0001 13.4142Z" fill="black"/>
<path fill-rule="evenodd" clip-rule="evenodd" d="M2.45866 1.07465C2.78861 0.981885 3.13687 0.975466 3.47001 1.05601C3.4764 1.05756 3.48276 1.05916 3.48911 1.06083L16.1251 4.38071C16.4913 4.4714 16.8246 4.66388 17.0862 4.93603C17.3506 5.21101 17.5308 5.55584 17.6056 5.92986C17.6056 5.92988 17.6056 5.92989 17.6056 5.92991L18.9806 12.8039C19.0889 13.3454 18.7377 13.8723 18.1961 13.9806C17.6546 14.0889 17.1278 13.7377 17.0194 13.1961L15.6444 6.32215L15.6444 6.3221C15.6401 6.32106 15.6358 6.31999 15.6315 6.3189C15.6293 6.31833 15.6271 6.31776 15.6249 6.31718L3.00027 3.00027L6.31718 15.6249C6.31889 15.6314 6.32053 15.6379 6.3221 15.6444L6.32215 15.6444L13.1961 17.0194C13.7377 17.1278 14.0889 17.6546 13.9806 18.1961C13.8723 18.7377 13.3454 19.0889 12.8039 18.9806L5.92991 17.6056C5.92989 17.6056 5.92988 17.6056 5.92986 17.6056C5.55584 17.5308 5.21101 17.3506 4.93603 17.0862C4.66388 16.8246 4.4714 16.4913 4.38071 16.1251L1.06083 3.48911C1.05916 3.48276 1.05756 3.4764 1.05601 3.47001C0.975466 3.13687 0.981885 2.78861 1.07465 2.45866C1.16742 2.12871 1.34343 1.82814 1.58579 1.58579C1.82814 1.34343 2.12871 1.16742 2.45866 1.07465Z" fill="black"/>
<path fill-rule="evenodd" clip-rule="evenodd" d="M1.59294 1.59294C1.98347 1.20242 2.61663 1.20242 3.00716 1.59294L10.2932 8.87894C10.6837 9.26947 10.6837 9.90263 10.2932 10.2932C9.90263 10.6837 9.26947 10.6837 8.87894 10.2932L1.59294 3.00716C1.20242 2.61663 1.20242 1.98347 1.59294 1.59294Z" fill="black"/>
<path fill-rule="evenodd" clip-rule="evenodd" d="M11 10C10.4477 10 10 10.4477 10 11C10 11.5523 10.4477 12 11 12C11.5523 12 12 11.5523 12 11C12 10.4477 11.5523 10 11 10ZM8 11C8 9.34315 9.34315 8 11 8C12.6569 8 14 9.34315 14 11C14 12.6569 12.6569 14 11 14C9.34315 14 8 12.6569 8 11Z" fill="black"/>
</svg>
