<svg width="24" height="24" viewBox="0 0 24 24" fill="none" xmlns="http://www.w3.org/2000/svg">
<path fill-rule="evenodd" clip-rule="evenodd" d="M11.6306 4.22867C11.6304 4.22876 11.6302 4.22884 11.63 4.22893L3.62999 7.42893C3.44472 7.50272 3.28574 7.63022 3.17347 7.79504C3.06153 7.95941 3.00114 8.15341 3 8.35226V19.9999C3 20.2651 3.10536 20.5195 3.29289 20.707C3.48043 20.8945 3.73478 20.9999 4 20.9999H20C20.2652 20.9999 20.5196 20.8945 20.7071 20.707C20.8946 20.5195 21 20.2651 21 19.9999V8.35219C20.9989 8.15337 20.9385 7.95939 20.8265 7.79504C20.7143 7.63022 20.5553 7.50272 20.37 7.42893L12.37 4.22893C12.3698 4.22886 12.3697 4.22879 12.3695 4.22873C12.1322 4.13439 11.8679 4.13437 11.6306 4.22867ZM10.89 2.37086C11.6028 2.08699 12.3972 2.08699 13.11 2.37086L21.11 5.57086C21.1103 5.57097 21.1105 5.57107 21.1108 5.57118C21.6663 5.79258 22.1429 6.17495 22.4795 6.6692C22.8163 7.16369 22.9976 7.74758 23 8.34586L23 8.3499V19.9999C23 20.7955 22.6839 21.5586 22.1213 22.1212C21.5587 22.6838 20.7957 22.9999 20 22.9999H4C3.20435 22.9999 2.44129 22.6838 1.87868 22.1212C1.31607 21.5586 1 20.7955 1 19.9999V8.3499C1 8.34855 1 8.34721 1.00001 8.34586C1.00242 7.74758 1.18367 7.16369 1.52045 6.6692C1.85709 6.17494 2.33375 5.79256 2.88926 5.57116C2.88951 5.57106 2.88976 5.57096 2.89001 5.57086L10.89 2.37086Z" fill="black"/>
<path fill-rule="evenodd" clip-rule="evenodd" d="M5 18C5 17.4477 5.44772 17 6 17H18C18.5523 17 19 17.4477 19 18C19 18.5523 18.5523 19 18 19H6C5.44772 19 5 18.5523 5 18Z" fill="black"/>
<path fill-rule="evenodd" clip-rule="evenodd" d="M5 14C5 13.4477 5.44772 13 6 13H18C18.5523 13 19 13.4477 19 14C19 14.5523 18.5523 15 18 15H6C5.44772 15 5 14.5523 5 14Z" fill="black"/>
<path fill-rule="evenodd" clip-rule="evenodd" d="M5 10C5 9.44772 5.44772 9 6 9H18C18.5523 9 19 9.44772 19 10V22C19 22.5523 18.5523 23 18 23H6C5.44772 23 5 22.5523 5 22V10ZM7 11V21H17V11H7Z" fill="black"/>
</svg>
