<svg width="24" height="24" viewBox="0 0 24 24" fill="none" xmlns="http://www.w3.org/2000/svg">
<path fill-rule="evenodd" clip-rule="evenodd" d="M8.78114 2.55216C10.5458 1.95848 12.4412 1.86923 14.2538 2.29447C16.0664 2.71972 17.7243 3.64256 19.0409 4.95908C20.3574 6.27561 21.2802 7.93353 21.7055 9.74617C22.1307 11.5588 22.0415 13.4542 21.4478 15.2188C21.2717 15.7423 20.7046 16.0239 20.1811 15.8478C19.6577 15.6717 19.3761 15.1045 19.5522 14.5811C20.0271 13.1694 20.0985 11.6531 19.7584 10.203C19.4182 8.75286 18.6799 7.42652 17.6267 6.3733C16.5734 5.32008 15.2471 4.5818 13.797 4.24161C12.3469 3.90142 10.8306 3.97281 9.41887 4.44776C8.89542 4.62386 8.32831 4.34228 8.1522 3.81883C7.9761 3.29537 8.25768 2.72826 8.78114 2.55216Z" fill="black"/>
<path fill-rule="evenodd" clip-rule="evenodd" d="M1.29289 1.29289C1.68342 0.902369 2.31658 0.902369 2.70711 1.29289L22.7071 21.2929C23.0976 21.6834 23.0976 22.3166 22.7071 22.7071C22.3166 23.0976 21.6834 23.0976 21.2929 22.7071L1.29289 2.70711C0.902369 2.31658 0.902369 1.68342 1.29289 1.29289Z" fill="black"/>
<path fill-rule="evenodd" clip-rule="evenodd" d="M6.29367 4.87966C6.69149 5.26274 6.70343 5.8958 6.32035 6.29362C3.99725 8.70607 3.29762 12.4477 4.88931 15.5426C5.01241 15.782 5.03382 16.0609 4.94871 16.3162L3.58117 20.4188L7.6838 19.0513C7.94306 18.9649 8.22639 18.9883 8.46791 19.1162C11.4656 20.7032 15.183 20.0918 17.5802 17.6058C17.9635 17.2083 18.5966 17.1968 18.9942 17.5801C19.3917 17.9635 19.4032 18.5966 19.0199 18.9941C16.1193 22.0021 11.6513 22.8404 7.9234 21.0796L2.31625 22.9487C1.95692 23.0684 1.56075 22.9749 1.29292 22.7071C1.02509 22.4393 0.931566 22.0431 1.05134 21.6837L2.9224 16.0706C1.16365 12.2484 2.09721 7.79585 4.87971 4.90634C5.26279 4.50851 5.89585 4.49657 6.29367 4.87966Z" fill="black"/>
</svg>
