<svg width="24" height="24" viewBox="0 0 24 24" fill="none" xmlns="http://www.w3.org/2000/svg">
<path fill-rule="evenodd" clip-rule="evenodd" d="M4 4V20H10V4H4ZM2 4C2 2.89543 2.89543 2 4 2H10C11.1046 2 12 2.89543 12 4V20C12 21.1046 11.1046 22 10 22H4C2.89543 22 2 21.1046 2 20V4Z" fill="black"/>
<path fill-rule="evenodd" clip-rule="evenodd" d="M7 2C7.55228 2 8 2.44772 8 3V21C8 21.5523 7.55228 22 7 22C6.44772 22 6 21.5523 6 21V3C6 2.44772 6.44772 2 7 2Z" fill="black"/>
<path fill-rule="evenodd" clip-rule="evenodd" d="M13.9358 4.04201L12.0705 4.72924C12.0688 4.73039 12.066 4.73251 12.0623 4.73604C12.0544 4.74373 12.047 4.75387 12.0419 4.76421L17.5295 19.93C17.5307 19.9318 17.5327 19.9344 17.5359 19.9376C17.5436 19.9456 17.5537 19.953 17.564 19.9581L19.4294 19.2709C19.4311 19.2697 19.4339 19.2676 19.4375 19.2641C19.4455 19.2564 19.4529 19.2462 19.458 19.2359L13.9704 4.07008C13.9692 4.06835 13.9671 4.06574 13.964 4.06247C13.9563 4.05453 13.9462 4.04713 13.9358 4.04201ZM13.2436 2.16564C14.3163 1.74669 15.4518 2.38712 15.8284 3.32867C15.8325 3.33898 15.8365 3.34936 15.8403 3.35981L21.3356 18.5469C21.752 19.6187 21.1119 20.7523 20.1713 21.1285C20.1628 21.1319 20.1542 21.1352 20.1456 21.1384L18.2563 21.8345C17.1836 22.2534 16.0481 21.613 15.6715 20.6714C15.6673 20.6611 15.6634 20.6508 15.6596 20.6403L10.1643 5.45324C9.74784 4.38142 10.3879 3.24783 11.3285 2.87158C11.3371 2.86817 11.3456 2.86489 11.3542 2.86171L13.2436 2.16564Z" fill="black"/>
</svg>
