<svg width="24" height="24" viewBox="0 0 24 24" fill="none" xmlns="http://www.w3.org/2000/svg">
<path fill-rule="evenodd" clip-rule="evenodd" d="M1.29289 1.29289C1.68342 0.902369 2.31658 0.902369 2.70711 1.29289L22.7071 21.2929C23.0976 21.6834 23.0976 22.3166 22.7071 22.7071C22.3166 23.0976 21.6834 23.0976 21.2929 22.7071L1.29289 2.70711C0.902369 2.31658 0.902369 1.68342 1.29289 1.29289Z" fill="black"/>
<path fill-rule="evenodd" clip-rule="evenodd" d="M8.28712 6.87285C8.67764 7.26337 8.67764 7.89654 8.28712 8.28706C8.19415 8.38002 8.12041 8.49039 8.0701 8.61185C8.01979 8.73331 7.9939 8.86349 7.9939 8.99496C7.9939 9.12642 8.01979 9.2566 8.0701 9.37807C8.12041 9.49953 8.19415 9.60989 8.28712 9.70285C8.38008 9.79581 8.49044 9.86955 8.6119 9.91986C8.73336 9.97017 8.86354 9.99607 8.99501 9.99607C9.12648 9.99607 9.25666 9.97017 9.37812 9.91986C9.49958 9.86955 9.60994 9.79581 9.7029 9.70285C10.0934 9.31233 10.7266 9.31233 11.1171 9.70285C11.5076 10.0934 11.5076 10.7265 11.1171 11.1171C10.8384 11.3957 10.5076 11.6168 10.1435 11.7676C9.77937 11.9184 9.38912 11.9961 8.99501 11.9961C8.6009 11.9961 8.21064 11.9184 7.84653 11.7676C7.48242 11.6168 7.15158 11.3957 6.8729 11.1171C6.59422 10.8384 6.37316 10.5075 6.22234 10.1434C6.07152 9.77932 5.9939 9.38907 5.9939 8.99496C5.9939 8.60084 6.07152 8.21059 6.22234 7.84648C6.37316 7.48237 6.59422 7.15153 6.8729 6.87285C7.26343 6.48232 7.89659 6.48232 8.28712 6.87285Z" fill="black"/>
<path fill-rule="evenodd" clip-rule="evenodd" d="M14.2071 12.7929C14.5976 13.1834 14.5976 13.8166 14.2071 14.2071L6.70711 21.7071C6.31658 22.0976 5.68342 22.0976 5.29289 21.7071C4.90237 21.3166 4.90237 20.6834 5.29289 20.2929L12.7929 12.7929C13.1834 12.4024 13.8166 12.4024 14.2071 12.7929Z" fill="black"/>
<path fill-rule="evenodd" clip-rule="evenodd" d="M17.2929 11.2929C17.6834 10.9024 18.3166 10.9024 18.7071 11.2929L21.7071 14.2929C22.0976 14.6834 22.0976 15.3166 21.7071 15.7071C21.3166 16.0976 20.6834 16.0976 20.2929 15.7071L17.2929 12.7071C16.9024 12.3166 16.9024 11.6834 17.2929 11.2929Z" fill="black"/>
<path fill-rule="evenodd" clip-rule="evenodd" d="M4.30068 2.88645C4.68922 3.27895 4.68601 3.91211 4.29352 4.30065C4.20077 4.39245 4.1271 4.50169 4.07673 4.62207C4.02647 4.74218 4.00039 4.87102 4 5.00122V19C4 19.2652 4.10536 19.5195 4.29289 19.7071C4.48043 19.8946 4.73478 20 5 20H19C19.2794 20 19.522 19.8897 19.6913 19.7146C20.0754 19.3177 20.7084 19.3073 21.1054 19.6913C21.5023 20.0753 21.5127 20.7084 21.1287 21.1053C20.582 21.6703 19.8206 22 19 22H5C4.20435 22 3.44129 21.6839 2.87868 21.1213C2.31607 20.5587 2 19.7956 2 19V4.99997L2 4.99783C2.00084 4.6037 2.0796 4.21363 2.23173 3.85005C2.38387 3.48647 2.60639 3.15656 2.88648 2.87929C3.27898 2.49075 3.91214 2.49395 4.30068 2.88645Z" fill="black"/>
<path fill-rule="evenodd" clip-rule="evenodd" d="M8 3C8 2.44772 8.44772 2 9 2H19C19.7956 2 20.5587 2.31607 21.1213 2.87868C21.6839 3.44129 22 4.20435 22 5V15C22 15.5523 21.5523 16 21 16C20.4477 16 20 15.5523 20 15V5C20 4.73478 19.8946 4.48043 19.7071 4.29289C19.5196 4.10536 19.2652 4 19 4H9C8.44772 4 8 3.55228 8 3Z" fill="black"/>
</svg>
