<svg width="24" height="24" viewBox="0 0 24 24" fill="none" xmlns="http://www.w3.org/2000/svg">
<path fill-rule="evenodd" clip-rule="evenodd" d="M4 15C3.44772 15 3 15.4477 3 16V20C3 20.5523 3.44772 21 4 21H20C20.5523 21 21 20.5523 21 20V16C21 15.4477 20.5523 15 20 15H4ZM1 16C1 14.3431 2.34315 13 4 13H20C21.6569 13 23 14.3431 23 16V20C23 21.6569 21.6569 23 20 23H4C2.34315 23 1 21.6569 1 20V16Z" fill="black"/>
<path fill-rule="evenodd" clip-rule="evenodd" d="M5 18C5 17.4477 5.44772 17 6 17H6.01C6.56228 17 7.01 17.4477 7.01 18C7.01 18.5523 6.56228 19 6.01 19H6C5.44772 19 5 18.5523 5 18Z" fill="black"/>
<path fill-rule="evenodd" clip-rule="evenodd" d="M9 18C9 17.4477 9.44772 17 10 17H10.01C10.5623 17 11.01 17.4477 11.01 18C11.01 18.5523 10.5623 19 10.01 19H10C9.44772 19 9 18.5523 9 18Z" fill="black"/>
<path fill-rule="evenodd" clip-rule="evenodd" d="M15 9C15.5523 9 16 9.44772 16 10V14C16 14.5523 15.5523 15 15 15C14.4477 15 14 14.5523 14 14V10C14 9.44772 14.4477 9 15 9Z" fill="black"/>
<path fill-rule="evenodd" clip-rule="evenodd" d="M13.0952 5.37796C13.7022 5.12634 14.3529 4.99683 15.0099 4.99683C15.667 4.99683 16.3176 5.12634 16.9246 5.37796C17.5316 5.62958 18.0831 5.99838 18.5474 6.46326C18.9377 6.854 18.9374 7.48717 18.5466 7.87747C18.1559 8.26778 17.5227 8.26743 17.1324 7.87669C16.8538 7.59776 16.5229 7.37648 16.1588 7.22551C15.7946 7.07453 15.4042 6.99683 15.0099 6.99683C14.6157 6.99683 14.2253 7.07453 13.8611 7.22551C13.4969 7.37648 13.1661 7.59776 12.8874 7.87669C12.4971 8.26743 11.864 8.26778 11.4732 7.87747C11.0825 7.48717 11.0821 6.854 11.4724 6.46326C11.9368 5.99838 12.4882 5.62958 13.0952 5.37796Z" fill="black"/>
<path fill-rule="evenodd" clip-rule="evenodd" d="M8.64322 3.63261C10.3309 1.94606 12.6192 0.998657 15.0051 0.998657C17.391 0.998657 19.6793 1.94606 21.367 3.63261C21.7576 4.02301 21.7578 4.65617 21.3674 5.04682C20.977 5.43748 20.3439 5.43768 19.9532 5.04729C18.6406 3.73553 16.8608 2.99866 15.0051 2.99866C13.1494 2.99866 11.3696 3.73553 10.057 5.04729C9.66632 5.43768 9.03316 5.43748 8.64276 5.04682C8.25236 4.65617 8.25257 4.02301 8.64322 3.63261Z" fill="black"/>
</svg>
