<svg width="24" height="24" viewBox="0 0 24 24" fill="none" xmlns="http://www.w3.org/2000/svg">
<path fill-rule="evenodd" clip-rule="evenodd" d="M10.999 3.00104C10.999 1.92752 11.8902 0.93537 13.0965 1.056L12.997 2.05104L13.0967 1.05602C15.6222 1.30906 17.9825 2.42765 19.7774 4.22217C21.5723 6.01669 22.6914 8.3767 22.945 10.9021L22.945 10.9024C23.0657 12.1072 22.0742 13 21.0001 13C21.0001 13 21.0001 13 21 13L12.999 13.001C12.4686 13.001 11.9599 12.7903 11.5848 12.4152C11.2097 12.0402 10.999 11.5315 10.999 11.001V3.00104ZM12.999 3.05683V11.001L20.9442 11C20.7172 8.97227 19.8077 7.08062 18.3633 5.63654C16.9189 4.19241 15.0269 3.2833 12.999 3.05683Z" fill="black"/>
<path fill-rule="evenodd" clip-rule="evenodd" d="M8.91657 2.43007C9.13746 2.93625 8.90618 3.52567 8.4 3.74656C7.05259 4.33454 5.86973 5.24365 4.95484 6.39439C4.03994 7.54512 3.42087 8.90246 3.15173 10.3477C2.8826 11.793 2.97161 13.2822 3.41097 14.6851C3.85033 16.088 4.62667 17.362 5.67211 18.3955C6.71756 19.4291 8.00028 20.1909 9.40813 20.6142C10.816 21.0375 12.3061 21.1095 13.7482 20.8239C15.1903 20.5382 16.5405 19.9037 17.6807 18.9757C18.8209 18.0478 19.7164 16.8546 20.289 15.5006C20.5041 14.9919 21.0908 14.7539 21.5995 14.969C22.1082 15.1841 22.3462 15.7708 22.1311 16.2795C21.4313 17.9344 20.3367 19.3927 18.9431 20.5269C17.5495 21.6611 15.8993 22.4367 14.1368 22.7858C12.3742 23.1348 10.5529 23.0469 8.83224 22.5295C7.11153 22.0121 5.54377 21.0811 4.266 19.8178C2.98823 18.5546 2.03937 16.9975 1.50238 15.2828C0.965379 13.5682 0.856595 11.748 1.18553 9.98159C1.51447 8.21515 2.27112 6.55618 3.38933 5.14973C4.50753 3.74327 5.95325 2.63214 7.60008 1.91349C8.10627 1.6926 8.69568 1.92388 8.91657 2.43007Z" fill="black"/>
</svg>
