<svg width="24" height="24" viewBox="0 0 24 24" fill="none" xmlns="http://www.w3.org/2000/svg">
<path fill-rule="evenodd" clip-rule="evenodd" d="M14 1C14.5523 1 15 1.44772 15 2V6C15 6.26522 15.1054 6.51957 15.2929 6.70711C15.4804 6.89464 15.7348 7 16 7H20C20.5523 7 21 7.44772 21 8C21 8.55228 20.5523 9 20 9H16C15.2044 9 14.4413 8.68393 13.8787 8.12132C13.3161 7.55871 13 6.79565 13 6V2C13 1.44772 13.4477 1 14 1Z" fill="black"/>
<path fill-rule="evenodd" clip-rule="evenodd" d="M6 3C5.73478 3 5.48043 3.10536 5.29289 3.29289C5.10536 3.48043 5 3.73478 5 4V7C5 7.55228 4.55228 8 4 8C3.44772 8 3 7.55228 3 7V4C3 3.20435 3.31607 2.44129 3.87868 1.87868C4.44129 1.31607 5.20435 1 6 1C6.55228 1 7 1.44772 7 2C7 2.55228 6.55228 3 6 3Z" fill="black"/>
<path fill-rule="evenodd" clip-rule="evenodd" d="M5.00004 2C5.00004 1.44772 5.44776 1 6.00004 1H15C15.2653 1 15.5196 1.10536 15.7071 1.29289L20.7071 6.29289C20.8947 6.48043 21 6.73478 21 7V20C21 20.7957 20.684 21.5587 20.1214 22.1213C19.5588 22.6839 18.7957 23 18 23L6.12128 22.999C5.55172 23.0595 4.9762 22.9556 4.46302 22.699C3.92852 22.4318 3.48602 22.011 3.19223 21.4906C2.92072 21.0097 3.09049 20.3997 3.57142 20.1282C4.05236 19.8567 4.66234 20.0264 4.93385 20.5074C5.03178 20.6808 5.17928 20.8211 5.35745 20.9102C5.53561 20.9993 5.73633 21.0331 5.93385 21.0074C5.97672 21.0018 6.0199 20.999 6.06313 20.999L18 21C18.0001 21 18.0001 21 18.0001 21C18.2653 21 18.5196 20.8946 18.7071 20.7071C18.8947 20.5196 19 20.2652 19 20V7.41421L14.5858 3H6.00004C5.44776 3 5.00004 2.55228 5.00004 2Z" fill="black"/>
<path fill-rule="evenodd" clip-rule="evenodd" d="M5.70711 10.2929C6.09763 10.6834 6.09763 11.3166 5.70711 11.7071L2.70711 14.7071C2.31658 15.0976 1.68342 15.0976 1.29289 14.7071C0.902369 14.3166 0.902369 13.6834 1.29289 13.2929L4.29289 10.2929C4.68342 9.90237 5.31658 9.90237 5.70711 10.2929Z" fill="black"/>
<path fill-rule="evenodd" clip-rule="evenodd" d="M1.07615 13.6173C1.23093 13.2436 1.59557 13 2.00003 13H12C12.5523 13 13 13.4477 13 14C13 14.5523 12.5523 15 12 15H4.41424L5.70714 16.2929C6.09766 16.6834 6.09766 17.3166 5.70714 17.7071C5.31661 18.0976 4.68345 18.0976 4.29292 17.7071L1.29292 14.7071C1.00692 14.4211 0.921369 13.991 1.07615 13.6173Z" fill="black"/>
</svg>
