<svg width="24" height="24" viewBox="0 0 24 24" fill="none" xmlns="http://www.w3.org/2000/svg">
<path fill-rule="evenodd" clip-rule="evenodd" d="M17.6532 5.93274C18.0438 5.54231 18.677 5.54246 19.0674 5.93308C20.2625 7.1288 21.135 8.60801 21.6033 10.2324C22.0716 11.8569 22.1204 13.5735 21.7452 15.222C21.6226 15.7605 21.0867 16.0977 20.5482 15.9751C20.0096 15.8525 19.6725 15.3166 19.7951 14.7781C20.0952 13.4593 20.0562 12.086 19.6816 10.7864C19.3069 9.48689 18.6089 8.30353 17.6528 7.34695C17.2624 6.95633 17.2626 6.32316 17.6532 5.93274Z" fill="black"/>
<path fill-rule="evenodd" clip-rule="evenodd" d="M6.92571 5.51679C7.28091 5.9397 7.22602 6.57048 6.80311 6.92568C5.95387 7.63895 5.2622 8.521 4.77203 9.51584C4.28186 10.5107 4.0039 11.5966 3.95578 12.7046C3.90766 13.8125 4.09044 14.9184 4.49251 15.952C4.89459 16.9856 5.50718 17.9243 6.29139 18.7085C7.0756 19.4927 8.01429 20.1053 9.04788 20.5074C10.0815 20.9095 11.1874 21.0922 12.2954 21.0441C13.4033 20.996 14.4892 20.718 15.4841 20.2279C16.4789 19.7377 17.361 19.046 18.0742 18.1968C18.4294 17.7739 19.0602 17.719 19.4831 18.0742C19.906 18.4294 19.9609 19.0602 19.6057 19.4831C18.7141 20.5446 17.6116 21.4092 16.368 22.0219C15.1245 22.6346 13.7671 22.9821 12.3821 23.0422C10.9971 23.1024 9.61477 22.8739 8.32278 22.3713C7.0308 21.8687 5.85743 21.103 4.87717 20.1227C3.89691 19.1425 3.13118 17.9691 2.62858 16.6771C2.12599 15.3851 1.89751 14.0028 1.95766 12.6178C2.01781 11.2328 2.36527 9.87543 2.97798 8.63188C3.59069 7.38834 4.45527 6.28577 5.51683 5.39419C5.93974 5.03899 6.57052 5.09388 6.92571 5.51679Z" fill="black"/>
<path fill-rule="evenodd" clip-rule="evenodd" d="M12 1C12.5523 1 13 1.44772 13 2V6C13 6.55228 12.5523 7 12 7C11.4477 7 11 6.55228 11 6V2C11 1.44772 11.4477 1 12 1Z" fill="black"/>
<path fill-rule="evenodd" clip-rule="evenodd" d="M1.29289 1.29289C1.68342 0.902369 2.31658 0.902369 2.70711 1.29289L22.7071 21.2929C23.0976 21.6834 23.0976 22.3166 22.7071 22.7071C22.3166 23.0976 21.6834 23.0976 21.2929 22.7071L1.29289 2.70711C0.902369 2.31658 0.902369 1.68342 1.29289 1.29289Z" fill="black"/>
</svg>
