<svg width="24" height="24" viewBox="0 0 24 24" fill="none" xmlns="http://www.w3.org/2000/svg">
<path fill-rule="evenodd" clip-rule="evenodd" d="M12.7058 1.43067C13.1155 1.19777 13.5787 1.07532 14.05 1.07532C14.5213 1.07532 14.9845 1.19777 15.3942 1.43067C15.405 1.43683 15.4158 1.4432 15.4264 1.44976L21.7264 5.34976C21.7516 5.36541 21.7762 5.38218 21.8 5.40002C22.382 5.83651 23 6.70717 23 7.70003V14.2C23 14.6859 22.8178 15.1624 22.5984 15.5338C22.3748 15.9123 22.0421 16.3009 21.6145 16.5575C21.6108 16.5597 21.6071 16.5619 21.6033 16.5641L11.3033 22.5641C11.3003 22.5659 11.2972 22.5676 11.2942 22.5694C10.8845 22.8023 10.4213 22.9247 9.95 22.9247C9.47872 22.9247 9.01553 22.8023 8.60581 22.5694C8.59497 22.5632 8.58425 22.5569 8.57365 22.5503L2.27365 18.6503C2.24836 18.6346 2.22379 18.6179 2.2 18.6C1.85307 18.3398 1.56821 17.9634 1.3721 17.6039C1.17968 17.2511 1 16.7815 1 16.3V9.70002C1 8.75027 1.58559 7.79202 2.45001 7.40486L12.6967 1.43594C12.6983 1.435 12.6999 1.43406 12.7015 1.43313C12.7029 1.43231 12.7044 1.43149 12.7058 1.43067ZM13.6978 3.16733L3.40335 9.16411C3.361 9.18878 3.3169 9.2103 3.27139 9.2285C3.24798 9.23787 3.17355 9.28331 3.10094 9.39501C3.03049 9.5034 3 9.61668 3 9.70002V16.3C3 16.2999 3.00001 16.2999 3.00003 16.3003C3.00027 16.3039 3.00266 16.3388 3.02361 16.4061C3.04529 16.4758 3.08024 16.5588 3.1279 16.6462C3.21901 16.8132 3.31878 16.9288 3.37774 16.9816L9.60703 20.8378C9.71227 20.8948 9.83015 20.9247 9.95 20.9247C10.0734 20.9247 10.1947 20.893 10.3022 20.8327L20.5891 14.8403C20.6618 14.7954 20.7769 14.6849 20.8766 14.5163C20.9236 14.4367 20.9573 14.3604 20.9779 14.2965C20.9994 14.2296 21 14.1972 21 14.2V7.70003C21 7.61658 20.9693 7.48687 20.8818 7.33366C20.8035 7.19668 20.7058 7.08726 20.6268 7.02131L14.393 3.16225C14.2877 3.10523 14.1698 3.07532 14.05 3.07532C13.9266 3.07532 13.8054 3.10701 13.6978 3.16733Z" fill="black"/>
<path fill-rule="evenodd" clip-rule="evenodd" d="M1.25018 8.57283C1.54129 8.1035 2.15775 7.95902 2.62709 8.25012L10.5271 13.1501C10.8211 13.3325 11 13.6539 11 13.9999V21.8999C11 22.4522 10.5523 22.8999 9.99999 22.8999C9.44771 22.8999 8.99999 22.4522 8.99999 21.8999V14.5564L1.5729 9.94974C1.10356 9.65863 0.959078 9.04217 1.25018 8.57283Z" fill="black"/>
<path fill-rule="evenodd" clip-rule="evenodd" d="M22.7651 6.59835C23.0422 7.07613 22.8794 7.68802 22.4017 7.96505L10.5017 14.8651C10.0239 15.1421 9.41198 14.9793 9.13495 14.5016C8.85792 14.0238 9.02066 13.4119 9.49843 13.1349L21.3984 6.23486C21.8762 5.95783 22.4881 6.12057 22.7651 6.59835Z" fill="black"/>
<path fill-rule="evenodd" clip-rule="evenodd" d="M14 10.7C14.5523 10.7 15 11.1477 15 11.7V19.8C15 20.3523 14.5523 20.8 14 20.8C13.4477 20.8 13 20.3523 13 19.8V11.7C13 11.1477 13.4477 10.7 14 10.7Z" fill="black"/>
<path fill-rule="evenodd" clip-rule="evenodd" d="M18 8.40002C18.5523 8.40002 19 8.84774 19 9.40002V17.5C19 18.0523 18.5523 18.5 18 18.5C17.4477 18.5 17 18.0523 17 17.5V9.40002C17 8.84774 17.4477 8.40002 18 8.40002Z" fill="black"/>
</svg>
