<svg width="24" height="24" viewBox="0 0 24 24" fill="none" xmlns="http://www.w3.org/2000/svg">
<path fill-rule="evenodd" clip-rule="evenodd" d="M9 3V5H15V3H9ZM7 3C7 1.89543 7.89543 1 9 1H15C16.1046 1 17 1.89543 17 3V5C17 6.10457 16.1046 7 15 7H9C7.89543 7 7 6.10457 7 5V3Z" fill="black"/>
<path fill-rule="evenodd" clip-rule="evenodd" d="M15 4C15 3.44772 15.4477 3 16 3H18C18.7956 3 19.5587 3.31607 20.1213 3.87868C20.6839 4.44129 21 5.20435 21 6V20C21 20.7957 20.6839 21.5587 20.1213 22.1213C19.5587 22.6839 18.7957 23 18 23H12.5C11.9477 23 11.5 22.5523 11.5 22C11.5 21.4477 11.9477 21 12.5 21H18C18.2652 21 18.5196 20.8946 18.7071 20.7071C18.8946 20.5196 19 20.2652 19 20V6C19 5.73478 18.8946 5.48043 18.7071 5.29289C18.5196 5.10536 18.2652 5 18 5H16C15.4477 5 15 4.55228 15 4Z" fill="black"/>
<path fill-rule="evenodd" clip-rule="evenodd" d="M6 5C5.73478 5 5.48043 5.10536 5.29289 5.29289C5.10536 5.48043 5 5.73478 5 6V13.5C5 14.0523 4.55228 14.5 4 14.5C3.44772 14.5 3 14.0523 3 13.5V6C3 5.20435 3.31607 4.44129 3.87868 3.87868C4.44129 3.31607 5.20435 3 6 3H8C8.55228 3 9 3.44772 9 4C9 4.55228 8.55228 5 8 5H6Z" fill="black"/>
<path fill-rule="evenodd" clip-rule="evenodd" d="M10.6804 11.2377C11.0595 11.0807 11.4657 10.9999 11.876 10.9999C12.2862 10.9999 12.6925 11.0807 13.0715 11.2377C13.4506 11.3947 13.795 11.6248 14.0851 11.9149C14.3752 12.205 14.6053 12.5494 14.7623 12.9285C14.9193 13.3075 15.0001 13.7138 15.0001 14.124C15.0001 14.5343 14.9193 14.9405 14.7623 15.3196C14.6053 15.6986 14.3752 16.043 14.0851 16.3331L9.07228 21.3419C9.07226 21.342 9.07224 21.342 9.07222 21.342C8.7158 21.6986 8.27525 21.9596 7.79128 22.1009L4.92098 22.938C4.92097 22.938 4.92096 22.938 4.92095 22.938C4.66281 23.0133 4.38918 23.0178 4.12871 22.9511C3.86821 22.8844 3.63046 22.7488 3.44032 22.5587C3.25018 22.3685 3.11464 22.1308 3.04791 21.8703C2.98117 21.6098 2.98568 21.3362 3.06097 21.0781C3.06097 21.078 3.06097 21.078 3.06098 21.078L3.89806 18.2077C4.03935 17.7239 4.30027 17.2834 4.65673 16.9271C4.65684 16.9269 4.65695 16.9268 4.65706 16.9267L9.66673 11.9151L10.3731 12.6212L9.66687 11.9149C9.95697 11.6248 10.3014 11.3947 10.6804 11.2377ZM11.0812 13.329C11.0812 13.329 11.0811 13.3291 11.0811 13.3291L6.07089 18.3413C5.95209 18.4601 5.86512 18.6068 5.81798 18.768C5.81797 18.768 5.81796 18.7681 5.81795 18.7681C5.81793 18.7682 5.81791 18.7683 5.81789 18.7683L5.23623 20.7628L7.23068 20.1811C7.23078 20.1811 7.23089 20.1811 7.231 20.181C7.3922 20.1339 7.53894 20.0469 7.65767 19.9281L12.6709 14.9189C12.7753 14.8145 12.8581 14.6906 12.9146 14.5542C12.971 14.4178 13.0001 14.2717 13.0001 14.124C13.0001 13.9764 12.971 13.8302 12.9146 13.6938C12.8581 13.5574 12.7753 13.4335 12.6709 13.3291C12.5665 13.2247 12.4426 13.1419 12.3062 13.0854C12.1698 13.029 12.0236 12.9999 11.876 12.9999C11.7283 12.9999 11.5822 13.029 11.4458 13.0854C11.3095 13.1419 11.1856 13.2247 11.0812 13.329ZM4.36139 21.0179C4.36126 21.0179 4.36113 21.018 4.361 21.018C4.36099 21.018 4.36099 21.018 4.36098 21.018M4.36139 21.0179L4.361 21.018L4.36139 21.0179Z" fill="black"/>
</svg>
