<svg width="24" height="24" viewBox="0 0 24 24" fill="none" xmlns="http://www.w3.org/2000/svg">
<path fill-rule="evenodd" clip-rule="evenodd" d="M3.06054 14.1285C3.54184 14.3993 3.71244 15.0091 3.44158 15.4904C3.2499 15.831 3.12719 16.206 3.08045 16.594C3.0337 16.982 3.06384 17.3754 3.16914 17.7518C3.27444 18.1281 3.45283 18.4801 3.69414 18.7875C3.93546 19.0949 4.23496 19.3518 4.57554 19.5435C4.91613 19.7351 5.29113 19.8578 5.67914 19.9046C6.06715 19.9513 6.46057 19.9212 6.83694 19.8159C7.2133 19.7106 7.56524 19.5322 7.87266 19.2909C8.18008 19.0496 8.43695 18.7501 8.62863 18.4095C8.6297 18.4076 8.63077 18.4057 8.63186 18.4038C8.94589 17.8542 9.36676 17.2682 9.90469 16.8122C10.4463 16.353 11.1557 15.9873 12.0083 15.9999H17.0001C17.5524 15.9999 18.0001 16.4476 18.0001 16.9999C18.0001 17.5522 17.5524 17.9999 17.0001 17.9999H12.0001C11.994 17.9999 11.9879 17.9999 11.9818 17.9998C11.7489 17.9955 11.4917 18.0887 11.198 18.3377C10.899 18.5912 10.6155 18.9641 10.3698 19.3935C10.0495 19.9617 9.62065 20.4614 9.10757 20.8641C8.59355 21.2676 8.0051 21.5659 7.3758 21.7419C6.74651 21.918 6.08869 21.9684 5.43993 21.8902C4.79116 21.8121 4.16413 21.6069 3.59466 21.2864C3.02519 20.9659 2.52441 20.5364 2.12093 20.0224C1.71745 19.5084 1.41916 18.9199 1.2431 18.2906C1.06704 17.6613 1.01665 17.0035 1.0948 16.3548C1.17296 15.706 1.37814 15.079 1.69863 14.5095C1.96949 14.0282 2.57924 13.8576 3.06054 14.1285Z" fill="black"/>
<path fill-rule="evenodd" clip-rule="evenodd" d="M12.3311 3.02795C11.8513 2.97938 11.3668 3.04721 10.9187 3.22569C10.4707 3.40418 10.0723 3.68806 9.75725 4.05327C9.39653 4.47148 8.76508 4.51809 8.34687 4.15737C7.92867 3.79664 7.88206 3.1652 8.24278 2.74699C8.76779 2.1383 9.43182 1.66517 10.1786 1.36769C10.9253 1.07022 11.7328 0.957164 12.5325 1.03812C13.3323 1.11907 14.1007 1.39165 14.7727 1.83274C15.4447 2.27383 16.0004 2.87044 16.3928 3.57199C16.6624 4.054 16.4902 4.6633 16.0082 4.93289C15.5261 5.20249 14.9168 5.03029 14.6473 4.54827C14.4118 4.12734 14.0784 3.76938 13.6752 3.50472C13.272 3.24007 12.8109 3.07652 12.3311 3.02795Z" fill="black"/>
<path fill-rule="evenodd" clip-rule="evenodd" d="M8.7723 8.22686C9.28209 8.01442 9.86758 8.25547 10.08 8.76527C10.2704 9.2221 10.3617 9.71411 10.3479 10.2088C10.3342 10.7035 10.2157 11.1897 10.0002 11.6353C9.99435 11.6474 9.98824 11.6594 9.98188 11.6713L6.88188 17.4713C6.62155 17.9584 6.01565 18.1422 5.52858 17.8819C5.0415 17.6215 4.85769 17.0156 5.11802 16.5285L8.20728 10.7486C8.29481 10.5621 8.34299 10.3594 8.34872 10.1532C8.35461 9.94122 8.31548 9.73036 8.23389 9.53457C8.02145 9.02478 8.26251 8.43929 8.7723 8.22686Z" fill="black"/>
<path fill-rule="evenodd" clip-rule="evenodd" d="M21.125 19.7349C21.4371 20.1905 21.3208 20.8129 20.8652 21.1251C20.0193 21.7047 19.0156 22.0101 17.9902 22.0001C17.4379 21.9947 16.9946 21.5426 17 20.9903C17.0055 20.4381 17.4575 19.9948 18.0098 20.0002C18.625 20.0062 19.2272 19.8229 19.7348 19.4752C20.1904 19.163 20.8128 19.2793 21.125 19.7349Z" fill="black"/>
<path fill-rule="evenodd" clip-rule="evenodd" d="M17.6116 12.8483C17.6953 12.3024 18.2057 11.9277 18.7516 12.0115C19.8178 12.175 20.8025 12.6789 21.5587 13.448C22.315 14.2171 22.8023 15.2102 22.9478 16.279C23.0224 16.8262 22.6392 17.3302 22.0919 17.4047C21.5447 17.4793 21.0407 17.0961 20.9661 16.5488C20.8788 15.9076 20.5864 15.3117 20.1327 14.8503C19.6789 14.3888 19.0881 14.0865 18.4484 13.9883C17.9025 13.9046 17.5278 13.3942 17.6116 12.8483Z" fill="black"/>
<path fill-rule="evenodd" clip-rule="evenodd" d="M11.4854 5.14241C11.959 4.85827 12.5733 5.01183 12.8574 5.48541L13.4574 6.48541C13.7415 6.95899 13.588 7.57325 13.1144 7.8574C12.6408 8.14155 12.0266 7.98798 11.7424 7.5144L11.1424 6.5144C10.8583 6.04082 11.0118 5.42656 11.4854 5.14241Z" fill="black"/>
<path fill-rule="evenodd" clip-rule="evenodd" d="M1.29289 1.29289C1.68342 0.902369 2.31658 0.902369 2.70711 1.29289L22.7071 21.2929C23.0976 21.6834 23.0976 22.3166 22.7071 22.7071C22.3166 23.0976 21.6834 23.0976 21.2929 22.7071L1.29289 2.70711C0.902369 2.31658 0.902369 1.68342 1.29289 1.29289Z" fill="black"/>
</svg>
