<svg width="24" height="24" viewBox="0 0 24 24" fill="none" xmlns="http://www.w3.org/2000/svg">
<path fill-rule="evenodd" clip-rule="evenodd" d="M12 3C7.02944 3 3 7.02944 3 12C3 16.9706 7.02944 21 12 21C16.9706 21 21 16.9706 21 12C21 7.02944 16.9706 3 12 3ZM1 12C1 5.92487 5.92487 1 12 1C18.0751 1 23 5.92487 23 12C23 18.0751 18.0751 23 12 23C5.92487 23 1 18.0751 1 12Z" fill="black"/>
<path fill-rule="evenodd" clip-rule="evenodd" d="M19.8246 4.3706C20.2219 4.75419 20.2331 5.38726 19.8495 5.78459C15.6655 10.1183 10.1141 11.4347 2.31442 11.938C1.76328 11.9735 1.28767 11.5555 1.25211 11.0044C1.21655 10.4533 1.63451 9.97766 2.18565 9.9421C9.88595 9.44531 14.7745 8.16172 18.4106 4.39546C18.7942 3.99813 19.4273 3.987 19.8246 4.3706Z" fill="black"/>
<path fill-rule="evenodd" clip-rule="evenodd" d="M4.58802 18.5368C9.02875 12.9649 14.9151 10.3618 21.9584 11.862C22.4985 11.977 22.8431 12.5082 22.7281 13.0483C22.613 13.5885 22.0819 13.9331 21.5417 13.8181C15.345 12.4982 10.1913 14.7152 6.15205 19.7833C5.80783 20.2152 5.17867 20.2863 4.74677 19.942C4.31488 19.5978 4.2438 18.9687 4.58802 18.5368Z" fill="black"/>
<path fill-rule="evenodd" clip-rule="evenodd" d="M7.97127 1.94168C8.4177 1.61653 9.04319 1.71485 9.36833 2.16128C11.5714 5.18609 13.1151 7.6029 14.3588 10.333C15.6008 13.0594 16.5259 16.0596 17.5322 20.2357C17.6616 20.7727 17.3312 21.3128 16.7943 21.4422C16.2573 21.5716 15.7172 21.2412 15.5878 20.7043C14.5941 16.5804 13.7042 13.7206 12.5387 11.1621C11.3749 8.60711 9.91861 6.31393 7.75168 3.33874C7.42653 2.89231 7.52485 2.26683 7.97127 1.94168Z" fill="black"/>
</svg>
