<svg width="24" height="24" viewBox="0 0 24 24" fill="none" xmlns="http://www.w3.org/2000/svg">
<path fill-rule="evenodd" clip-rule="evenodd" d="M1.87868 3.87868C2.44129 3.31607 3.20435 3 4 3H20C20.7956 3 21.5587 3.31607 22.1213 3.87868C22.6839 4.44129 23 5.20435 23 6V10.5C23 11.0523 22.5523 11.5 22 11.5C21.4477 11.5 21 11.0523 21 10.5V6C21 5.73478 20.8946 5.48043 20.7071 5.29289C20.5196 5.10536 20.2652 5 20 5H4C3.73478 5 3.48043 5.10536 3.29289 5.29289C3.10536 5.48043 3 5.73478 3 6V18C3 18.5477 3.45228 19 4 19H16.5C17.0523 19 17.5 19.4477 17.5 20C17.5 20.5523 17.0523 21 16.5 21H4C2.34772 21 1 19.6523 1 18V6C1 5.20435 1.31607 4.44129 1.87868 3.87868Z" fill="black"/>
<path fill-rule="evenodd" clip-rule="evenodd" d="M1.15599 6.46368C1.4522 5.99754 2.0702 5.85979 2.53633 6.15599L11.5031 11.854C11.6522 11.9468 11.8243 11.996 12 11.996C12.1756 11.996 12.3477 11.9468 12.4968 11.854L21.4637 6.15599C21.9298 5.85979 22.5478 5.99754 22.844 6.46368C23.1402 6.92981 23.0025 7.54781 22.5363 7.84401L13.5663 13.544C13.5645 13.5452 13.5627 13.5463 13.5609 13.5474C13.0931 13.8406 12.5521 13.996 12 13.996C11.4479 13.996 10.9069 13.8406 10.4391 13.5474C10.4373 13.5463 10.4355 13.5452 10.4337 13.544L1.46368 7.84401C0.997543 7.54781 0.859789 6.92981 1.15599 6.46368Z" fill="black"/>
<path fill-rule="evenodd" clip-rule="evenodd" d="M20.1183 15.0108C19.8707 14.9727 19.6174 15.0203 19.4005 15.1457C19.383 15.1558 19.3652 15.1654 19.3472 15.1744C19.226 15.235 19.0514 15.4132 18.8944 15.7272C18.6474 16.2212 18.0467 16.4214 17.5528 16.1744C17.0588 15.9275 16.8586 15.3268 17.1055 14.8328C17.3452 14.3535 17.7622 13.7422 18.4247 13.3999C19.0304 13.0572 19.7341 12.9282 20.4224 13.0341C21.1204 13.1415 21.7607 13.4839 22.2376 14.0048C22.2596 14.0288 22.2804 14.0539 22.3 14.08C22.6658 14.5678 23 15.1769 23 15.98C23 17.1645 22.1087 17.9257 21.5594 18.2964C21.2511 18.5045 20.9496 18.6583 20.7291 18.7594C20.6175 18.8106 20.5231 18.8498 20.4544 18.877C20.42 18.8907 20.3918 18.9014 20.3708 18.9092C20.3603 18.9131 20.3516 18.9163 20.3448 18.9187C20.3414 18.9199 20.3385 18.921 20.3361 18.9218C20.3349 18.9223 20.3338 18.9227 20.3328 18.923L20.3315 18.9235L20.3309 18.9237C20.3306 18.9238 20.3303 18.9239 20 17.98L20.3303 18.9239C19.809 19.1063 19.2386 18.8316 19.0561 18.3104C18.874 17.7901 19.1473 17.2207 19.6667 17.0372C19.6676 17.0369 19.6701 17.036 19.6741 17.0345C19.6824 17.0314 19.6971 17.0258 19.7174 17.0178C19.7581 17.0017 19.82 16.976 19.8958 16.9413C20.0503 16.8705 20.2489 16.768 20.4405 16.6387C20.8913 16.3344 21 16.0955 21 15.98C21 15.7924 20.9402 15.6103 20.7319 15.3233C20.5664 15.1565 20.3514 15.0467 20.1183 15.0108Z" fill="black"/>
<path fill-rule="evenodd" clip-rule="evenodd" d="M20 21C20.5523 21 21 21.4477 21 22V22.01C21 22.5623 20.5523 23.01 20 23.01C19.4477 23.01 19 22.5623 19 22.01V22C19 21.4477 19.4477 21 20 21Z" fill="black"/>
</svg>
