<svg width="24" height="24" viewBox="0 0 24 24" fill="none" xmlns="http://www.w3.org/2000/svg">
<path fill-rule="evenodd" clip-rule="evenodd" d="M4 3C3.73478 3 3.48043 3.10536 3.29289 3.29289C3.10536 3.48043 3 3.73478 3 4V8C3 8.26522 3.10536 8.51957 3.29289 8.70711C3.48043 8.89464 3.73478 9 4 9H13V3H4ZM1.87868 1.87868C2.44129 1.31607 3.20435 1 4 1H13C13.5272 1 14.0443 1.18011 14.4321 1.56789C14.8199 1.95567 15 2.47275 15 3V9C15 9.52725 14.8199 10.0443 14.4321 10.4321C14.0443 10.8199 13.5272 11 13 11H4C3.20435 11 2.44129 10.6839 1.87868 10.1213C1.31607 9.55871 1 8.79565 1 8V4C1 3.20435 1.31607 2.44129 1.87868 1.87868Z" fill="black"/>
<path fill-rule="evenodd" clip-rule="evenodd" d="M17 6C17 5.44772 17.4477 5 18 5H22C22.5523 5 23 5.44772 23 6C23 6.55228 22.5523 7 22 7H18C17.4477 7 17 6.55228 17 6Z" fill="black"/>
<path fill-rule="evenodd" clip-rule="evenodd" d="M13 4C13 3.44772 13.4477 3 14 3H17C17.5304 3 18.0391 3.21071 18.4142 3.58579C18.7893 3.96086 19 4.46957 19 5V7C19 7.53043 18.7893 8.03914 18.4142 8.41421C18.0391 8.78929 17.5304 9 17 9H14C13.4477 9 13 8.55228 13 8C13 7.44772 13.4477 7 14 7H17L17 5L14 5C13.4477 5 13 4.55228 13 4Z" fill="black"/>
<path fill-rule="evenodd" clip-rule="evenodd" d="M5.24253 9.02985C5.77832 9.1638 6.10408 9.70673 5.97013 10.2425L3.97013 18.2425C3.83619 18.7783 3.29325 19.1041 2.75746 18.9701C2.22166 18.8362 1.8959 18.2933 2.02985 17.7575L4.02985 9.75746C4.1638 9.22166 4.70673 8.8959 5.24253 9.02985Z" fill="black"/>
<path fill-rule="evenodd" clip-rule="evenodd" d="M12 9C12.5523 9 13 9.44772 13 10V13C13 13.5272 12.8199 14.0443 12.4321 14.4321C12.0443 14.8199 11.5272 15 11 15H8C7.44772 15 7 14.5523 7 14C7 13.4477 7.44772 13 8 13H11V10C11 9.44772 11.4477 9 12 9Z" fill="black"/>
<path fill-rule="evenodd" clip-rule="evenodd" d="M9.24253 9.02985C9.77832 9.1638 10.1041 9.70673 9.97013 10.2425L7.97013 18.2425C7.83619 18.7783 7.29325 19.1041 6.75746 18.9701C6.22166 18.8362 5.8959 18.2933 6.02985 17.7575L8.02985 9.75746C8.1638 9.22166 8.70673 8.8959 9.24253 9.02985Z" fill="black"/>
<path fill-rule="evenodd" clip-rule="evenodd" d="M3 19C3 20.1477 3.85228 21 5 21H10V19H3ZM1.56789 17.5679C1.95567 17.1801 2.47275 17 3 17H10C10.5272 17 11.0443 17.1801 11.4321 17.5679C11.8199 17.9557 12 18.4728 12 19V21C12 21.5272 11.8199 22.0443 11.4321 22.4321C11.0443 22.8199 10.5272 23 10 23H5C2.74772 23 1 21.2523 1 19C1 18.4728 1.18011 17.9557 1.56789 17.5679Z" fill="black"/>
</svg>
