<svg width="24" height="24" viewBox="0 0 24 24" fill="none" xmlns="http://www.w3.org/2000/svg">
<path fill-rule="evenodd" clip-rule="evenodd" d="M12 1C12.5523 1 13 1.44772 13 2V4C13 4.55228 12.5523 5 12 5C11.4477 5 11 4.55228 11 4V2C11 1.44772 11.4477 1 12 1Z" fill="black"/>
<path fill-rule="evenodd" clip-rule="evenodd" d="M5 9C5.55228 9 6 9.44772 6 10V13.9999C6 13.9999 6 14 6 14C6.00017 15.3346 6.44496 16.631 7.26413 17.6846C8.08314 18.738 9.22971 19.4885 10.5228 19.8177C11.027 19.9451 11.5573 20.1813 12 20.5892C12.4426 20.1814 12.9728 19.9452 13.4769 19.8178C14.9283 19.4478 16.1892 18.5493 17.0127 17.2982C17.3163 16.8369 17.9365 16.7091 18.3978 17.0127C18.8591 17.3163 18.9869 17.9365 18.6833 18.3978C17.5856 20.0655 15.9046 21.2632 13.9699 21.7561L13.9677 21.7566C13.6814 21.8289 13.4688 21.9454 13.3281 22.0861L12.7071 22.7071C12.3166 23.0976 11.6834 23.0976 11.2929 22.7071L10.6719 22.0861C10.5312 21.9454 10.3186 21.8289 10.0323 21.7566L10.0304 21.7561C8.3062 21.3174 6.77729 20.3168 5.68522 18.9122C4.59316 17.5076 4.00019 15.7793 4 14.0001V10C4 9.44772 4.44772 9 5 9Z" fill="black"/>
<path fill-rule="evenodd" clip-rule="evenodd" d="M19 9C19.5523 9 20 9.44772 20 10V13.343C20 13.8953 19.5523 14.343 19 14.343C18.4477 14.343 18 13.8953 18 13.343V10C18 9.44772 18.4477 9 19 9Z" fill="black"/>
<path fill-rule="evenodd" clip-rule="evenodd" d="M9.67291 3.20781C10.4187 3.0736 11.1989 3 12 3C14.1589 3 16.1928 3.53789 17.7751 4.36342C19.3071 5.16272 20.6168 6.34395 20.9702 7.75746L20.9703 7.75794C21.1656 8.54092 21.5183 9.33532 22.6241 10.2187C22.9391 10.4703 23.0722 10.8864 22.9617 11.2741C22.8512 11.6618 22.5187 11.9452 22.1184 11.993C21.3837 12.0806 20.7247 12.0713 20.0713 11.8492C19.8216 11.7643 19.5876 11.6533 19.3624 11.5205C19.3124 11.5876 19.2593 11.6533 19.2028 11.7177C18.8438 12.1268 18.402 12.4183 17.902 12.676C17.4111 12.9289 16.808 12.736 16.5551 12.245C16.3021 11.7541 16.4951 11.151 16.986 10.8981C17.373 10.6987 17.5713 10.5447 17.6995 10.3985C17.822 10.259 17.9331 10.0667 18.0443 9.70562C18.1445 9.3806 18.4029 9.12875 18.7304 9.03704C18.9127 8.98598 19.1026 8.98847 19.2789 9.03968C19.1763 8.77239 19.0958 8.50651 19.0299 8.24254C18.8833 7.65605 18.193 6.83728 16.85 6.13658C15.5572 5.46211 13.8412 5 12 5C11.3211 5 10.6594 5.0624 10.0272 5.17619C9.48361 5.27401 8.96367 4.91268 8.86585 4.36913C8.76802 3.82557 9.12936 3.30564 9.67291 3.20781ZM6.6117 5.22003C6.92648 5.67382 6.8138 6.29687 6.36001 6.61166C5.50594 7.20411 5.08076 7.80019 4.97018 8.24254L4.97006 8.24301C4.90167 8.51601 4.80781 8.78448 4.69075 9.04903C4.85885 8.99436 5.04016 8.98468 5.21611 9.02362C5.48755 9.08369 5.72172 9.25405 5.86245 9.4938C6.1056 9.90806 6.30151 10.1706 6.52702 10.3955C6.67543 10.5436 6.8507 10.6894 7.08512 10.8557C7.48875 10.6546 7.75572 10.4856 7.95735 10.321C8.21554 10.1102 8.40796 9.87302 8.64456 9.48216C8.82623 9.18203 9.15189 8.99906 9.50272 9C9.85355 9.00095 10.1782 9.18567 10.3583 9.48677C10.6142 9.91479 10.8285 10.1677 11.09 10.3758C11.3664 10.5958 11.7449 10.8052 12.391 11.0796C12.8993 11.2955 13.1364 11.8826 12.9204 12.391C12.7045 12.8993 12.1174 13.1363 11.6091 12.9204C10.9061 12.6218 10.3322 12.3287 9.84459 11.9407C9.71944 11.8411 9.60305 11.7378 9.49359 11.6299C9.40858 11.7116 9.31847 11.7917 9.22222 11.8702C8.7459 12.2591 8.1639 12.5762 7.40705 12.9134C7.1015 13.0496 6.74811 13.0239 6.46542 12.8451C5.92894 12.5057 5.49443 12.1904 5.11455 11.8115C4.96658 11.6639 4.83189 11.5116 4.70528 11.3514C4.4503 11.4841 4.19243 11.595 3.91905 11.6852C3.34496 11.8745 2.75563 11.9547 2.06251 11.998C1.64462 12.0242 1.25468 11.7873 1.0854 11.4043C0.916124 11.0213 1.00335 10.5735 1.30397 10.282C2.3273 9.28993 2.85235 8.46559 3.02989 7.75746C3.02991 7.75739 3.02993 7.75732 3.02994 7.75725C3.02997 7.75716 3.02999 7.75708 3.03001 7.75699C3.30755 6.64754 4.17427 5.69378 5.22006 4.96834C5.67385 4.65355 6.29691 4.76623 6.6117 5.22003Z" fill="black"/>
<path fill-rule="evenodd" clip-rule="evenodd" d="M1.29289 1.29289C1.68342 0.902369 2.31658 0.902369 2.70711 1.29289L22.7071 21.2929C23.0976 21.6834 23.0976 22.3166 22.7071 22.7071C22.3166 23.0976 21.6834 23.0976 21.2929 22.7071L1.29289 2.70711C0.902369 2.31658 0.902369 1.68342 1.29289 1.29289Z" fill="black"/>
</svg>
