<svg width="24" height="24" viewBox="0 0 24 24" fill="none" xmlns="http://www.w3.org/2000/svg">
<path fill-rule="evenodd" clip-rule="evenodd" d="M6.00003 11C6.26525 11 6.5196 11.1054 6.70714 11.2929L12.7071 17.2929C12.8947 17.4804 13 17.7348 13 18C13 18.2652 12.8947 18.5196 12.7071 18.7071L10.4084 21.0059C10.4081 21.0061 10.4079 21.0064 10.4076 21.0067C10.0919 21.3233 9.71682 21.5745 9.30388 21.746C8.89061 21.9176 8.44752 22.0059 8.00003 22.0059C7.55255 22.0059 7.10946 21.9176 6.69618 21.746C6.28329 21.5745 5.90827 21.3233 5.59258 21.0068C5.59229 21.0065 5.59199 21.0062 5.5917 21.0059L2.99416 18.4083C2.99399 18.4082 2.99382 18.408 2.99366 18.4078C2.67692 18.0921 2.4256 17.7169 2.25408 17.3038C2.08248 16.8906 1.99414 16.4475 1.99414 16C1.99414 15.5525 2.08248 15.1094 2.25408 14.6962C2.42556 14.2832 2.67682 13.9081 2.99346 13.5924C2.99369 13.5921 2.99392 13.5919 2.99416 13.5917L5.29293 11.2929C5.48046 11.1054 5.73482 11 6.00003 11ZM6.00003 13.4142L4.40591 15.0083C4.27539 15.1384 4.17184 15.2929 4.10117 15.4631C4.03051 15.6333 3.99414 15.8157 3.99414 16C3.99414 16.1843 4.03051 16.3667 4.10117 16.5369C4.17184 16.7071 4.27539 16.8616 4.40591 16.9917L7.00837 19.5941C7.13843 19.7246 7.29298 19.8282 7.46315 19.8989C7.63332 19.9695 7.81577 20.0059 8.00003 20.0059C8.18429 20.0059 8.36674 19.9695 8.53691 19.8989C8.70708 19.8282 8.86163 19.7246 8.9917 19.5941L10.5858 18L6.00003 13.4142Z" fill="black"/>
<path fill-rule="evenodd" clip-rule="evenodd" d="M5.70711 18.2929C6.09763 18.6834 6.09763 19.3166 5.70711 19.7071L2.70711 22.7071C2.31658 23.0976 1.68342 23.0976 1.29289 22.7071C0.902369 22.3166 0.902369 21.6834 1.29289 21.2929L4.29289 18.2929C4.68342 17.9024 5.31658 17.9024 5.70711 18.2929Z" fill="black"/>
<path fill-rule="evenodd" clip-rule="evenodd" d="M10.7071 10.2929C11.0976 10.6834 11.0976 11.3166 10.7071 11.7071L8.20711 14.2071C7.81658 14.5976 7.18342 14.5976 6.79289 14.2071C6.40237 13.8166 6.40237 13.1834 6.79289 12.7929L9.29289 10.2929C9.68342 9.90237 10.3166 9.90237 10.7071 10.2929Z" fill="black"/>
<path fill-rule="evenodd" clip-rule="evenodd" d="M13.7071 13.2929C14.0976 13.6834 14.0976 14.3166 13.7071 14.7071L11.2071 17.2071C10.8166 17.5976 10.1834 17.5976 9.79289 17.2071C9.40237 16.8166 9.40237 16.1834 9.79289 15.7929L12.2929 13.2929C12.6834 12.9024 13.3166 12.9024 13.7071 13.2929Z" fill="black"/>
<path fill-rule="evenodd" clip-rule="evenodd" d="M18.7071 2.29289C19.0977 2.68342 19.0977 3.31658 18.7071 3.70711L16.4142 6H20C20.4045 6 20.7691 6.24364 20.9239 6.61732C21.0787 6.99099 20.9931 7.42111 20.7071 7.70711L16.7071 11.7071C16.3166 12.0976 15.6834 12.0976 15.2929 11.7071C14.9024 11.3166 14.9024 10.6834 15.2929 10.2929L17.5858 8H14C13.5956 8 13.2309 7.75636 13.0761 7.38268C12.9214 7.00901 13.0069 6.57889 13.2929 6.29289L17.2929 2.29289C17.6834 1.90237 18.3166 1.90237 18.7071 2.29289Z" fill="black"/>
</svg>
