<svg width="24" height="24" viewBox="0 0 24 24" fill="none" xmlns="http://www.w3.org/2000/svg">
<path fill-rule="evenodd" clip-rule="evenodd" d="M3 7V17H8V7H3ZM1 7C1 5.89543 1.89543 5 3 5H8C9.10457 5 10 5.89543 10 7V17C10 18.1046 9.10457 19 8 19H3C1.89543 19 1 18.1046 1 17V7Z" fill="black"/>
<path fill-rule="evenodd" clip-rule="evenodd" d="M12.5046 7.45127C12.9844 7.17773 13.5951 7.34492 13.8687 7.82471C14.5939 9.09674 14.9753 10.5357 14.9753 12C14.9753 13.4642 14.5939 14.9032 13.8687 16.1753C13.5951 16.6551 12.9844 16.8223 12.5046 16.5487C12.0249 16.2752 11.8577 15.6645 12.1312 15.1847C12.6844 14.2145 12.9753 13.1169 12.9753 12C12.9753 10.8831 12.6844 9.78553 12.1312 8.81529C11.8577 8.3355 12.0249 7.72481 12.5046 7.45127Z" fill="black"/>
<path fill-rule="evenodd" clip-rule="evenodd" d="M15.9678 5.33974C16.4485 5.06782 17.0586 5.23708 17.3305 5.71779C18.4145 7.63416 18.9842 9.79842 18.9842 12.0001C18.9842 14.2019 18.4145 16.3661 17.3305 18.2825C17.0586 18.7632 16.4485 18.9325 15.9678 18.6605C15.4871 18.3886 15.3178 17.7785 15.5897 17.2978C16.5038 15.6818 16.9842 13.8568 16.9842 12.0001C16.9842 10.1435 16.5038 8.31848 15.5897 6.70248C15.3178 6.22177 15.4871 5.61165 15.9678 5.33974Z" fill="black"/>
<path fill-rule="evenodd" clip-rule="evenodd" d="M19.413 3.23233C19.8922 2.95779 20.5032 3.12372 20.7778 3.60293C22.2419 6.1587 23.0131 9.0526 23.015 11.9981C23.0169 14.9435 22.2493 17.8384 20.7884 20.396C20.5145 20.8756 19.9037 21.0423 19.4241 20.7683C18.9445 20.4944 18.7778 19.8836 19.0518 19.404C20.3399 17.1489 21.0167 14.5964 21.015 11.9993C21.0134 9.40223 20.3334 6.85061 19.0424 4.59712C18.7678 4.1179 18.9338 3.50686 19.413 3.23233Z" fill="black"/>
</svg>
