<svg width="24" height="24" viewBox="0 0 24 24" fill="none" xmlns="http://www.w3.org/2000/svg">
<path fill-rule="evenodd" clip-rule="evenodd" d="M12 12C12.5523 12 13 12.4477 13 13V21C13 21.4045 12.7564 21.7691 12.3827 21.9239C12.009 22.0787 11.5789 21.9931 11.2929 21.7071L7.29289 17.7071C6.90237 17.3166 6.90237 16.6834 7.29289 16.2929C7.68342 15.9024 8.31658 15.9024 8.70711 16.2929L11 18.5858V13C11 12.4477 11.4477 12 12 12Z" fill="black"/>
<path fill-rule="evenodd" clip-rule="evenodd" d="M16.7071 16.2929C17.0976 16.6834 17.0976 17.3166 16.7071 17.7071L12.7071 21.7071C12.3166 22.0976 11.6834 22.0976 11.2929 21.7071C10.9024 21.3166 10.9024 20.6834 11.2929 20.2929L15.2929 16.2929C15.6834 15.9024 16.3166 15.9024 16.7071 16.2929Z" fill="black"/>
<path fill-rule="evenodd" clip-rule="evenodd" d="M11.0876 4.37458C10.2155 4.05127 9.28012 3.93514 8.35541 4.03536C7.43071 4.13559 6.54196 4.44943 5.75937 4.9521C4.97678 5.45476 4.32176 6.13249 3.84606 6.93176C3.37035 7.73103 3.08698 8.62995 3.01832 9.55753C2.94967 10.4851 3.0976 11.416 3.45045 12.2766C3.80329 13.1372 4.35139 13.9039 5.05145 14.5163C5.46713 14.88 5.50932 15.5117 5.14568 15.9274C4.78205 16.3431 4.15029 16.3853 3.73461 16.0217C2.8012 15.2051 2.07041 14.1827 1.59995 13.0353C1.12948 11.8878 0.932236 10.6467 1.02378 9.4099C1.11532 8.17312 1.49315 6.97456 2.12742 5.90887C2.7617 4.84318 3.63505 3.93954 4.67851 3.26932C5.72197 2.5991 6.90696 2.18065 8.1399 2.04701C9.37284 1.91337 10.62 2.06821 11.7828 2.4993C12.9456 2.93039 13.9923 3.62592 14.8402 4.53096C15.5151 5.25139 16.0493 6.08887 16.418 7H17.4999C17.4999 7 17.5 7 17.5 7C18.6881 6.99987 19.8442 7.38444 20.7955 8.09615C21.7468 8.80789 22.442 9.80854 22.7772 10.9484C23.1124 12.0882 23.0694 13.3059 22.6548 14.4193C22.2403 15.5327 21.4763 16.4819 20.4772 17.1249C20.0128 17.4238 19.394 17.2896 19.0951 16.8252C18.7962 16.3608 18.9304 15.742 19.3948 15.4431C20.0306 15.0339 20.5167 14.4299 20.7806 13.7214C21.0444 13.0128 21.0717 12.2379 20.8584 11.5126C20.6451 10.7873 20.2027 10.1505 19.5973 9.69755C18.992 9.24463 18.2562 8.9999 17.5002 9H15.71C15.2678 9 14.8781 8.70955 14.7517 8.28577C14.4859 7.39444 14.0165 6.57711 13.3806 5.89833C12.7447 5.21954 11.9597 4.6979 11.0876 4.37458Z" fill="black"/>
</svg>
