<svg width="24" height="24" viewBox="0 0 24 24" fill="none" xmlns="http://www.w3.org/2000/svg">
<path fill-rule="evenodd" clip-rule="evenodd" d="M12 5C10.3523 5 9 6.35228 9 8V20C9 20.5523 8.55228 21 8 21C7.44772 21 7 20.5523 7 20V8C7 5.24771 9.24771 3 12 3C13.8659 3 15.4898 3.99788 16.3638 5.49613C16.6421 5.97318 16.4809 6.5855 16.0039 6.86378C15.5268 7.14206 14.9145 6.98092 14.6362 6.50387C14.1102 5.60212 13.1341 5 12 5Z" fill="black"/>
<path fill-rule="evenodd" clip-rule="evenodd" d="M5 12C5 11.4477 5.44772 11 6 11H10C10.5523 11 11 11.4477 11 12C11 12.5523 10.5523 13 10 13H6C5.44772 13 5 12.5523 5 12Z" fill="black"/>
<path fill-rule="evenodd" clip-rule="evenodd" d="M13 12C13 11.4477 13.4477 11 14 11H16C16.5523 11 17 11.4477 17 12V20C17 20.5523 16.5523 21 16 21C15.4477 21 15 20.5523 15 20V13H14C13.4477 13 13 12.5523 13 12Z" fill="black"/>
<path fill-rule="evenodd" clip-rule="evenodd" d="M5 20C5 19.4477 5.44772 19 6 19H10C10.5523 19 11 19.4477 11 20C11 20.5523 10.5523 21 10 21H6C5.44772 21 5 20.5523 5 20Z" fill="black"/>
<path fill-rule="evenodd" clip-rule="evenodd" d="M13 20C13 19.4477 13.4477 19 14 19H18C18.5523 19 19 19.4477 19 20C19 20.5523 18.5523 21 18 21H14C13.4477 21 13 20.5523 13 20Z" fill="black"/>
</svg>
