<svg width="24" height="24" viewBox="0 0 24 24" fill="none" xmlns="http://www.w3.org/2000/svg">
<path fill-rule="evenodd" clip-rule="evenodd" d="M8.5974 1.52056C10.9286 0.77058 13.4434 0.819949 15.7434 1.66084C16.0192 1.76168 16.2367 1.97863 16.3383 2.25415C16.4398 2.52967 16.4152 2.83591 16.2708 3.09162C16.1025 3.38982 16.0157 3.72709 16.019 4.06951C16.0224 4.41193 16.1159 4.74742 16.2901 5.04223C16.4644 5.33704 16.7131 5.58077 17.0114 5.74892C17.3097 5.91707 17.6471 6.0037 17.9895 6.0001C17.993 6.00006 17.9965 6.00004 18 6.00004H18.1C18.4003 6.00004 18.6847 6.13501 18.8747 6.36766C19.0646 6.60031 19.1399 6.90599 19.0798 7.20024C19.0357 7.41574 19.0396 7.63829 19.0912 7.85211C19.1427 8.06594 19.2407 8.26582 19.3781 8.43757C19.5155 8.60933 19.689 8.74876 19.8863 8.846C20.0806 8.94179 20.2934 8.99431 20.5099 9.00001C20.8053 8.99816 21.0756 8.91442 21.1453 8.86799C21.4179 8.68626 21.7622 8.64958 22.067 8.76982C22.3717 8.89005 22.5983 9.15194 22.6734 9.47084C23.2346 11.8545 22.9845 14.3573 21.9624 16.5828C20.9404 18.8082 19.205 20.6289 17.0312 21.7565C14.8574 22.8841 12.3695 23.2541 9.96161 22.8078C7.55374 22.3615 5.36364 21.1245 3.7383 19.2928C2.11296 17.4611 1.14533 15.1394 0.988714 12.6955C0.832098 10.2516 1.49545 7.82541 2.87368 5.80119C4.25191 3.77697 6.26619 2.27054 8.5974 1.52056ZM14.1011 3.24887C12.4921 2.85597 10.7989 2.91327 9.20991 3.42446C7.30256 4.03808 5.65451 5.27061 4.52687 6.92679C3.39923 8.58297 2.85648 10.5681 2.98462 12.5676C3.11276 14.5671 3.90446 16.4667 5.23428 17.9654C6.56411 19.4641 8.356 20.4762 10.3261 20.8413C12.2961 21.2064 14.3317 20.9037 16.1103 19.9811C17.8889 19.0586 19.3088 17.5689 20.1449 15.7481C20.8325 14.251 21.0931 12.6004 20.9088 10.9768C20.763 10.9929 20.6246 11 20.5 11C20.4934 11 20.4868 11 20.4802 10.9998C19.9671 10.9897 19.4625 10.8668 19.0021 10.64C18.5418 10.4131 18.137 10.0877 17.8163 9.68696C17.4957 9.2862 17.2672 8.81983 17.1469 8.3209C17.1131 8.18093 17.0881 8.03936 17.0719 7.897C16.7084 7.81224 16.3573 7.67603 16.0293 7.4912C15.4251 7.15059 14.9212 6.65686 14.5683 6.05968C14.2154 5.4625 14.026 4.78293 14.0191 4.08932C14.0163 3.80586 14.0441 3.52415 14.1011 3.24887Z" fill="black"/>
<path fill-rule="evenodd" clip-rule="evenodd" d="M12 10C10.8954 10 10 10.8954 10 12C10 13.1046 10.8954 14 12 14C13.1046 14 14 13.1046 14 12C14 10.8954 13.1046 10 12 10ZM8 12C8 9.79086 9.79086 8 12 8C14.2091 8 16 9.79086 16 12C16 14.2091 14.2091 16 12 16C9.79086 16 8 14.2091 8 12Z" fill="black"/>
</svg>
