<svg width="24" height="24" viewBox="0 0 24 24" fill="none" xmlns="http://www.w3.org/2000/svg">
<path fill-rule="evenodd" clip-rule="evenodd" d="M9 9C9 8.44772 9.44772 8 10 8H14C14.5523 8 15 8.44772 15 9C15 9.55228 14.5523 10 14 10H10C9.44772 10 9 9.55228 9 9Z" fill="black"/>
<path fill-rule="evenodd" clip-rule="evenodd" d="M12 6C12.5523 6 13 6.44772 13 7V12C13 12.5523 12.5523 13 12 13C11.4477 13 11 12.5523 11 12V7C11 6.44772 11.4477 6 12 6Z" fill="black"/>
<path fill-rule="evenodd" clip-rule="evenodd" d="M9.87868 15.8787C10.4413 15.3161 11.2043 15 12 15C12.7957 15 13.5587 15.3161 14.1213 15.8787C14.6839 16.4413 15 17.2043 15 18V22C15 22.5523 14.5523 23 14 23C13.4477 23 13 22.5523 13 22V18C13 17.7348 12.8946 17.4804 12.7071 17.2929C12.5196 17.1054 12.2652 17 12 17C11.7348 17 11.4804 17.1054 11.2929 17.2929C11.1054 17.4804 11 17.7348 11 18V22C11 22.5523 10.5523 23 10 23C9.44772 23 9 22.5523 9 22V18C9 17.2043 9.31607 16.4413 9.87868 15.8787Z" fill="black"/>
<path fill-rule="evenodd" clip-rule="evenodd" d="M10.659 1.55248C11.0754 1.34441 11.5345 1.23608 12 1.23608C12.4655 1.23608 12.9246 1.34441 13.341 1.55248L17.894 3.82948C17.8941 3.82953 17.8942 3.82958 17.8943 3.82963C18.2263 3.99561 18.5056 4.25073 18.7009 4.56643C18.8962 4.88222 18.9998 5.24616 19 5.61748V22C19 22.5523 18.5523 23 18 23C17.4477 23 17 22.5523 17 22L17 5.61855L12.447 3.34155C12.4469 3.34152 12.4469 3.34148 12.4468 3.34145C12.4468 3.34144 12.4467 3.34142 12.4467 3.3414C12.308 3.27214 12.1551 3.23608 12 3.23608C11.8449 3.23608 11.692 3.27214 11.5533 3.3414C11.5533 3.34142 11.5532 3.34144 11.5532 3.34145C11.5531 3.34148 11.5531 3.34152 11.553 3.34155L7 5.61855V22C7 22.5523 6.55228 23 6 23C5.44772 23 5 22.5523 5 22L5 5.61748C5.0002 5.24616 5.10377 4.88222 5.2991 4.56643C5.49439 4.25073 5.77367 3.99561 6.10571 3.82963C6.10581 3.82958 6.1059 3.82953 6.106 3.82948L10.659 1.55248Z" fill="black"/>
<path fill-rule="evenodd" clip-rule="evenodd" d="M6.89437 6.55266C7.14142 7.04661 6.94127 7.6473 6.44732 7.89435L3 9.61851V20C3 20.2652 3.10536 20.5195 3.29289 20.7071C3.48043 20.8946 3.73478 21 4 21H20C20.2652 21 20.5196 20.8946 20.7071 20.7071C20.8946 20.5195 21 20.2652 21 20V9.61851L20.9997 9.61835L17.5527 7.89435C17.0587 7.6473 16.8586 7.04661 17.1056 6.55266C17.3527 6.05871 17.9534 5.85855 18.4473 6.1056L21.894 7.82944C21.894 7.82946 21.8941 7.82948 21.8941 7.8295C21.8942 7.82953 21.8942 7.82957 21.8943 7.8296C22.2263 7.99558 22.5056 8.2507 22.7009 8.56639C22.8962 8.88218 22.9998 9.24612 23 9.61744V20C23 20.7956 22.6839 21.5587 22.1213 22.1213C21.5587 22.6839 20.7957 23 20 23H4C3.20435 23 2.44129 22.6839 1.87868 22.1213C1.31607 21.5587 1 20.7956 1 20L1 9.61744C1.0002 9.24612 1.10377 8.88218 1.2991 8.56639C1.49438 8.2507 1.77366 7.99559 2.10568 7.8296C2.10576 7.82956 2.10584 7.82952 2.10592 7.82948C2.10595 7.82947 2.10597 7.82945 2.106 7.82944L5.55268 6.1056C6.04663 5.85855 6.64733 6.05871 6.89437 6.55266Z" fill="black"/>
</svg>
