<svg width="24" height="24" viewBox="0 0 24 24" fill="none" xmlns="http://www.w3.org/2000/svg">
<path fill-rule="evenodd" clip-rule="evenodd" d="M4 3C3.73478 3 3.48043 3.10536 3.29289 3.29289C3.10536 3.48043 3 3.73478 3 4V20C3 20.2652 3.10536 20.5196 3.29289 20.7071C3.48043 20.8946 3.73478 21 4 21C4.55228 21 5 21.4477 5 22C5 22.5523 4.55228 23 4 23C3.20435 23 2.44129 22.6839 1.87868 22.1213C1.31607 21.5587 1 20.7956 1 20V4C1 3.20435 1.31607 2.44129 1.87868 1.87868C2.44129 1.31607 3.20435 1 4 1H20C20.7956 1 21.5587 1.31607 22.1213 1.87868C22.6839 2.44129 23 3.20435 23 4V20C23 20.7957 22.6839 21.5587 22.1213 22.1213C21.5587 22.6839 20.7957 23 20 23C19.4477 23 19 22.5523 19 22C19 21.4477 19.4477 21 20 21C20.2652 21 20.5196 20.8946 20.7071 20.7071C20.8946 20.5196 21 20.2652 21 20V4C21 3.73478 20.8946 3.48043 20.7071 3.29289C20.5196 3.10536 20.2652 3 20 3H4Z" fill="black"/>
<path fill-rule="evenodd" clip-rule="evenodd" d="M7 22C7 21.4477 7.44772 21 8 21H10C10.5523 21 11 21.4477 11 22C11 22.5523 10.5523 23 10 23H8C7.44772 23 7 22.5523 7 22Z" fill="black"/>
<path fill-rule="evenodd" clip-rule="evenodd" d="M13 22C13 21.4477 13.4477 21 14 21H16C16.5523 21 17 21.4477 17 22C17 22.5523 16.5523 23 16 23H14C13.4477 23 13 22.5523 13 22Z" fill="black"/>
<path fill-rule="evenodd" clip-rule="evenodd" d="M8 7C7.44772 7 7 7.44772 7 8C7 8.55228 7.44772 9 8 9C8.55228 9 9 8.55228 9 8C9 7.44772 8.55228 7 8 7ZM5 8C5 6.34315 6.34315 5 8 5C9.65685 5 11 6.34315 11 8C11 9.65685 9.65685 11 8 11C6.34315 11 5 9.65685 5 8Z" fill="black"/>
<path fill-rule="evenodd" clip-rule="evenodd" d="M8.70671 8.70696C9.09724 8.31643 9.7304 8.31643 10.1209 8.70696L12.7069 11.293C13.0974 11.6835 13.0974 12.3166 12.7069 12.7072C12.3164 13.0977 11.6832 13.0977 11.2927 12.7072L8.70671 10.1212C8.31619 9.73064 8.31619 9.09748 8.70671 8.70696Z" fill="black"/>
<path fill-rule="evenodd" clip-rule="evenodd" d="M14.0929 14.0929C14.4835 13.7024 15.1166 13.7024 15.5072 14.0929L18.7072 17.2929C19.0977 17.6835 19.0977 18.3166 18.7072 18.7072C18.3166 19.0977 17.6835 19.0977 17.2929 18.7072L14.0929 15.5072C13.7024 15.1166 13.7024 14.4835 14.0929 14.0929Z" fill="black"/>
<path fill-rule="evenodd" clip-rule="evenodd" d="M8 15C7.44772 15 7 15.4477 7 16C7 16.5523 7.44772 17 8 17C8.55228 17 9 16.5523 9 16C9 15.4477 8.55228 15 8 15ZM5 16C5 14.3431 6.34315 13 8 13C9.65685 13 11 14.3431 11 16C11 17.6569 9.65685 19 8 19C6.34315 19 5 17.6569 5 16Z" fill="black"/>
<path fill-rule="evenodd" clip-rule="evenodd" d="M18.7069 5.29289C19.0975 5.68342 19.0975 6.31658 18.7069 6.70711L10.1209 15.2931C9.7304 15.6836 9.09724 15.6836 8.70671 15.2931C8.31619 14.9026 8.31619 14.2694 8.70671 13.8789L17.2927 5.29289C17.6832 4.90237 18.3164 4.90237 18.7069 5.29289Z" fill="black"/>
</svg>
