<svg width="24" height="24" viewBox="0 0 24 24" fill="none" xmlns="http://www.w3.org/2000/svg">
<path fill-rule="evenodd" clip-rule="evenodd" d="M10.6247 8.71917C11.056 9.06418 11.1259 9.69347 10.7809 10.1247L9.28062 12L10.7809 13.8753C11.1259 14.3066 11.056 14.9359 10.6247 15.2809C10.1934 15.6259 9.56414 15.556 9.21913 15.1247L7.21913 12.6247C6.92696 12.2595 6.92696 11.7406 7.21913 11.3753L9.21913 8.87534C9.56414 8.44408 10.1934 8.37416 10.6247 8.71917Z" fill="black"/>
<path fill-rule="evenodd" clip-rule="evenodd" d="M13.3753 8.71917C13.8066 8.37416 14.4359 8.44408 14.7809 8.87534L16.7809 11.3753C17.0731 11.7406 17.0731 12.2595 16.7809 12.6247L14.7809 15.1247C14.4359 15.556 13.8066 15.6259 13.3753 15.2809C12.9441 14.9359 12.8742 14.3066 13.2192 13.8753L14.7194 12L13.2192 10.1247C12.8742 9.69347 12.9441 9.06418 13.3753 8.71917Z" fill="black"/>
<path fill-rule="evenodd" clip-rule="evenodd" d="M5 4C4.44772 4 4 4.44772 4 5V19C4 19.5523 4.44772 20 5 20H19C19.5523 20 20 19.5523 20 19V5C20 4.44772 19.5523 4 19 4H5ZM2 5C2 3.34315 3.34315 2 5 2H19C20.6569 2 22 3.34315 22 5V19C22 20.6569 20.6569 22 19 22H5C3.34315 22 2 20.6569 2 19V5Z" fill="black"/>
</svg>
