<svg width="24" height="24" viewBox="0 0 24 24" fill="none" xmlns="http://www.w3.org/2000/svg">
<path fill-rule="evenodd" clip-rule="evenodd" d="M5 4C4.44772 4 4 4.44772 4 5V19C4 19.5523 4.44772 20 5 20H19C19.5523 20 20 19.5523 20 19V5C20 4.44772 19.5523 4 19 4H5ZM2 5C2 3.34315 3.34315 2 5 2H19C20.6569 2 22 3.34315 22 5V19C22 20.6569 20.6569 22 19 22H5C3.34315 22 2 20.6569 2 19V5Z" fill="black"/>
<path fill-rule="evenodd" clip-rule="evenodd" d="M13.2904 8.33627C13.0168 8.61631 12.8 9.14219 12.8 10V14.2C12.8 15.2263 12.5744 16.2255 11.876 16.9628C11.1675 17.7106 10.1537 18 9 18C8.44772 18 8 17.5523 8 17C8 16.4477 8.44772 16 9 16C9.84635 16 10.2325 15.7895 10.424 15.5873C10.6256 15.3746 10.8 14.9738 10.8 14.2V10C10.8 8.85788 11.0832 7.73375 11.8596 6.93879C12.6668 6.11242 13.8191 5.82975 15.1351 6.0092C15.6823 6.08382 16.0655 6.58793 15.9908 7.13515C15.9162 7.68237 15.4121 8.06548 14.8649 7.99086C13.9809 7.87032 13.5332 8.08764 13.2904 8.33627Z" fill="black"/>
<path fill-rule="evenodd" clip-rule="evenodd" d="M8 11.2C8 10.6477 8.44772 10.2 9 10.2H14.7C15.2523 10.2 15.7 10.6477 15.7 11.2C15.7 11.7522 15.2523 12.2 14.7 12.2H9C8.44772 12.2 8 11.7522 8 11.2Z" fill="black"/>
</svg>
