<svg width="24" height="24" viewBox="0 0 24 24" fill="none" xmlns="http://www.w3.org/2000/svg">
<path fill-rule="evenodd" clip-rule="evenodd" d="M10.7068 9.29261C11.0975 9.68297 11.0978 10.3161 10.7074 10.7068L4.54974 16.8695C4.43353 16.9856 4.34771 17.1285 4.29985 17.2856C4.29981 17.2857 4.29978 17.2859 4.29974 17.286L3.24946 20.7498L6.70786 19.6999C6.70823 19.6998 6.7086 19.6997 6.70896 19.6996C6.86526 19.6515 7.00738 19.5658 7.12286 19.4499L13.2926 13.2752C13.683 12.8845 14.3161 12.8842 14.7068 13.2746C15.0975 13.665 15.0978 14.2981 14.7074 14.6888L8.53915 20.8621C8.53905 20.8622 8.53895 20.8623 8.53884 20.8624C8.19165 21.2105 7.76421 21.4679 7.29415 21.6121L7.2915 21.6129L2.9335 22.9359C2.93233 22.9362 2.93117 22.9366 2.93 22.9369C2.67024 23.0148 2.39424 23.0207 2.13137 22.9542C1.86851 22.8876 1.62859 22.751 1.43715 22.559C1.24571 22.3669 1.10992 22.1266 1.04421 21.8635C0.978507 21.6004 0.985346 21.3244 1.064 21.0649L1.06403 21.0648L2.38628 16.704C2.52974 16.2323 2.78723 15.8033 3.13597 15.4548C3.13607 15.4547 3.13618 15.4546 3.13628 15.4545L9.29261 9.29318C9.68298 8.9025 10.3161 8.90224 10.7068 9.29261Z" fill="black"/>
<path fill-rule="evenodd" clip-rule="evenodd" d="M19.1811 3.00049C18.9423 3.00049 18.7058 3.04753 18.4852 3.13892C18.2645 3.2303 18.0641 3.36426 17.8952 3.53312L13.5352 7.88018C13.144 8.27012 12.5109 8.26917 12.1209 7.87807C11.731 7.48696 11.7319 6.85379 12.1231 6.46385L16.481 2.11891C16.4812 2.11874 16.4813 2.11856 16.4815 2.11839C16.836 1.76405 17.2568 1.48296 17.7198 1.29116C18.1831 1.09926 18.6796 1.00049 19.1811 1.00049C19.6826 1.00049 20.1791 1.09926 20.6424 1.29116C21.1057 1.48306 21.5266 1.76433 21.8812 2.11891C22.2358 2.47349 22.5171 2.89444 22.709 3.35773C22.9009 3.82102 22.9996 4.31756 22.9996 4.81902C22.9996 5.32047 22.9009 5.81702 22.709 6.2803C22.5171 6.74359 22.2358 7.16454 21.8812 7.51912L17.5282 11.8721C17.1377 12.2626 16.5045 12.2626 16.114 11.8721C15.7235 11.4816 15.7235 10.8484 16.114 10.4579L20.467 6.10491C20.6359 5.93604 20.7698 5.73557 20.8612 5.51494C20.9526 5.2943 20.9996 5.05783 20.9996 4.81902C20.9996 4.5802 20.9526 4.34373 20.8612 4.1231C20.7698 3.90246 20.6359 3.70199 20.467 3.53312C20.2981 3.36426 20.0977 3.2303 19.877 3.13892C19.6564 3.04753 19.4199 3.00049 19.1811 3.00049Z" fill="black"/>
<path fill-rule="evenodd" clip-rule="evenodd" d="M1.29289 1.29289C1.68342 0.902369 2.31658 0.902369 2.70711 1.29289L22.7071 21.2929C23.0976 21.6834 23.0976 22.3166 22.7071 22.7071C22.3166 23.0976 21.6834 23.0976 21.2929 22.7071L1.29289 2.70711C0.902369 2.31658 0.902369 1.68342 1.29289 1.29289Z" fill="black"/>
</svg>
