<svg width="24" height="24" viewBox="0 0 24 24" fill="none" xmlns="http://www.w3.org/2000/svg">
<path fill-rule="evenodd" clip-rule="evenodd" d="M12 3C10.6739 3 9.40215 3.52678 8.46447 4.46447C7.52678 5.40215 7 6.67392 7 8C7 9.48054 7.81015 11.1217 8.93132 12.6481C10.002 14.1058 11.2543 15.3224 12 15.996C12.746 15.3226 13.9983 14.106 15.069 12.6482C16.19 11.1218 17 9.48061 17 8C17 6.67392 16.4732 5.40215 15.5355 4.46447C14.5979 3.52678 13.3261 3 12 3ZM7.05025 3.05025C8.36301 1.7375 10.1435 1 12 1C13.8565 1 15.637 1.7375 16.9497 3.05025C18.2625 4.36301 19 6.14348 19 8C19 10.1324 17.8755 12.2057 16.681 13.8321C15.4656 15.4869 14.0611 16.8345 13.2745 17.5397C13.255 17.5571 13.2348 17.5738 13.214 17.5897C12.8653 17.856 12.4387 18.0003 12 18.0003C11.5613 18.0003 11.1347 17.856 10.786 17.5897C10.7651 17.5737 10.7449 17.557 10.7253 17.5394C9.93936 16.8345 8.53487 15.4869 7.31943 13.8321C6.12485 12.2058 5 10.1325 5 8C5 6.14348 5.7375 4.36301 7.05025 3.05025Z" fill="black"/>
<path fill-rule="evenodd" clip-rule="evenodd" d="M12 7C11.4477 7 11 7.44772 11 8C11 8.55228 11.4477 9 12 9C12.5523 9 13 8.55228 13 8C13 7.44772 12.5523 7 12 7ZM9 8C9 6.34315 10.3431 5 12 5C13.6569 5 15 6.34315 15 8C15 9.65685 13.6569 11 12 11C10.3431 11 9 9.65685 9 8Z" fill="black"/>
<path fill-rule="evenodd" clip-rule="evenodd" d="M5.00364 13L8.71406 13C9.26635 13 9.71406 13.4477 9.71406 14C9.71406 14.5523 9.26635 15 8.71406 15H5.00449L3.00049 21L20.9993 21L18.9994 15.0002L18.9993 15H15.2871C14.7348 15 14.2871 14.5523 14.2871 14C14.2871 13.4477 14.7348 13 15.2871 13L18.9988 13C18.9989 13 18.999 13 18.9991 13C19.4189 12.9999 19.8281 13.132 20.1687 13.3775C20.5094 13.6231 20.7641 13.9696 20.8968 14.368L22.8968 20.368C22.9969 20.6685 23.0242 20.9885 22.9764 21.3016C22.9287 21.6147 22.8072 21.912 22.6221 22.169C22.437 22.426 22.1934 22.6353 21.9116 22.7798C21.6297 22.9243 21.3176 22.9998 21.0008 23H2.99964C2.68267 22.9999 2.37027 22.9244 2.0882 22.7798C1.80612 22.6352 1.56245 22.4257 1.37728 22.1684C1.1921 21.9112 1.07072 21.6136 1.02315 21.3002C0.975581 20.9869 1.00315 20.6668 1.10357 20.3662C1.10359 20.3661 1.10361 20.3661 1.10364 20.366L3.10764 14.366C3.24057 13.9683 3.49515 13.6224 3.83538 13.3773C4.17562 13.1322 4.5843 13.0002 5.00364 13Z" fill="black"/>
</svg>
