<svg width="24" height="24" viewBox="0 0 24 24" fill="none" xmlns="http://www.w3.org/2000/svg">
<path fill-rule="evenodd" clip-rule="evenodd" d="M6.41713 22.589C5.8873 22.8433 5.27014 23 4.50003 23C3.71124 23 3.08572 22.8459 2.55196 22.5877C2.05303 22.3462 1.67256 22.029 1.38479 21.789C1.3764 21.782 1.36808 21.7751 1.35984 21.7682C0.935564 21.4147 0.87824 20.7841 1.2318 20.3598C1.58537 19.9355 2.21593 19.8782 2.64021 20.2318C2.94959 20.4896 3.16158 20.6608 3.42309 20.7873C3.66433 20.9041 3.98881 21 4.50003 21C4.97991 21 5.30025 20.9067 5.55167 20.786C5.82439 20.6551 6.05281 20.4771 6.37533 20.2191C6.3837 20.2124 6.39215 20.2057 6.40066 20.1989C6.69985 19.9594 7.08847 19.6483 7.58292 19.411C8.11275 19.1567 8.72991 19 9.50003 19C10.2888 19 10.9143 19.1541 11.4481 19.4123C11.947 19.6538 12.3275 19.971 12.6153 20.211C12.6237 20.218 12.632 20.2249 12.6402 20.2318C12.9496 20.4896 13.1616 20.6608 13.4231 20.7873C13.6643 20.9041 13.9888 21 14.5 21C14.9799 21 15.3003 20.9067 15.5517 20.786C15.8244 20.6551 16.0528 20.4771 16.3753 20.2191C16.3837 20.2124 16.3921 20.2057 16.4007 20.1989C16.6998 19.9594 17.0885 19.6483 17.5829 19.411C18.1128 19.1567 18.7299 19 19.5 19C20.2888 19 20.9143 19.1541 21.4481 19.4123C21.947 19.6538 22.3275 19.971 22.6152 20.211C22.6236 20.218 22.632 20.2249 22.6402 20.2318C23.0645 20.5853 23.1218 21.2159 22.7682 21.6402C22.4147 22.0645 21.7841 22.1218 21.3598 21.7682C21.0505 21.5104 20.8385 21.3392 20.577 21.2127C20.3357 21.0959 20.0112 21 19.5 21C19.0201 21 18.6998 21.0933 18.4484 21.214C18.1757 21.3449 17.9472 21.5229 17.6247 21.7809C17.6164 21.7876 17.6079 21.7943 17.5994 21.8011C17.3002 22.0406 16.9116 22.3517 16.4171 22.589C15.8873 22.8433 15.2701 23 14.5 23C13.7112 23 13.0857 22.8459 12.552 22.5877C12.053 22.3462 11.6726 22.029 11.3848 21.789C11.3764 21.782 11.3681 21.7751 11.3598 21.7682C11.0505 21.5104 10.8385 21.3392 10.577 21.2127C10.3357 21.0959 10.0112 21 9.50003 21C9.02014 21 8.6998 21.0933 8.44838 21.214C8.17566 21.3449 7.94724 21.5229 7.62472 21.7809C7.61635 21.7876 7.60791 21.7943 7.59939 21.8011C7.3002 22.0406 6.91158 22.3517 6.41713 22.589Z" fill="black"/>
<path fill-rule="evenodd" clip-rule="evenodd" d="M11.5939 9.08619C11.8524 8.97127 12.1476 8.97127 12.4061 9.08619L21.4061 13.0862C21.7648 13.2456 21.997 13.6001 22 13.9925C22.0171 16.2845 21.4087 18.5378 20.2403 20.5098C19.9588 20.9849 19.3454 21.1418 18.8702 20.8603C18.3951 20.5788 18.2381 19.9654 18.5197 19.4902C19.3943 18.0141 19.8959 16.3506 19.9857 14.6435L12 11.0943L4.01706 14.6423C4.14466 17.0125 4.98958 19.0628 6.60128 21.1486C6.93898 21.5856 6.85846 22.2136 6.42145 22.5513C5.98443 22.889 5.35641 22.8085 5.01871 22.3714C3.03422 19.8033 2 17.1531 2 14C2 13.6048 2.23273 13.2467 2.59386 13.0862L11.5939 9.08619Z" fill="black"/>
<path fill-rule="evenodd" clip-rule="evenodd" d="M4.87868 4.87868C5.44129 4.31607 6.20435 4 7 4H17C17.7956 4 18.5587 4.31607 19.1213 4.87868C19.6839 5.44129 20 6.20435 20 7V13C20 13.5523 19.5523 14 19 14C18.4477 14 18 13.5523 18 13V7C18 6.73478 17.8946 6.48043 17.7071 6.29289C17.5196 6.10536 17.2652 6 17 6H7C6.73478 6 6.48043 6.10536 6.29289 6.29289C6.10536 6.48043 6 6.73478 6 7V13C6 13.5523 5.55228 14 5 14C4.44772 14 4 13.5523 4 13V7C4 6.20435 4.31607 5.44129 4.87868 4.87868Z" fill="black"/>
<path fill-rule="evenodd" clip-rule="evenodd" d="M12 9C12.5523 9 13 9.44772 13 10V14C13 14.5523 12.5523 15 12 15C11.4477 15 11 14.5523 11 14V10C11 9.44772 11.4477 9 12 9Z" fill="black"/>
<path fill-rule="evenodd" clip-rule="evenodd" d="M12 1C12.5523 1 13 1.44772 13 2V5C13 5.55228 12.5523 6 12 6C11.4477 6 11 5.55228 11 5V2C11 1.44772 11.4477 1 12 1Z" fill="black"/>
</svg>
