<svg width="24" height="24" viewBox="0 0 24 24" fill="none" xmlns="http://www.w3.org/2000/svg">
<g clip-path="url(#clip0_11_35049)">
<path fill-rule="evenodd" clip-rule="evenodd" d="M6.58579 12.5858C6.96086 12.2107 7.46957 12 8 12H13C13.5523 12 14 12.4477 14 13C14 13.5523 13.5523 14 13 14L8 14L8 21C8 21.5523 7.55228 22 7 22C6.44772 22 6 21.5523 6 21V14C6 13.4696 6.21071 12.9609 6.58579 12.5858Z" fill="black"/>
<path fill-rule="evenodd" clip-rule="evenodd" d="M13 8C13 7.44772 13.4477 7 14 7H15C15.5523 7 16 7.44772 16 8C16 8.55228 15.5523 9 15 9H14C13.4477 9 13 8.55228 13 8Z" fill="black"/>
<path fill-rule="evenodd" clip-rule="evenodd" d="M17 16C17.5523 16 18 16.4477 18 17V21C18 21.5523 17.5523 22 17 22C16.4477 22 16 21.5523 16 21V17C16 16.4477 16.4477 16 17 16Z" fill="black"/>
<path fill-rule="evenodd" clip-rule="evenodd" d="M1.29289 1.29289C1.68342 0.902369 2.31658 0.902369 2.70711 1.29289L22.7071 21.2929C23.0976 21.6834 23.0976 22.3166 22.7071 22.7071C22.3166 23.0976 21.6834 23.0976 21.2929 22.7071L1.29289 2.70711C0.902369 2.31658 0.902369 1.68342 1.29289 1.29289Z" fill="black"/>
<path fill-rule="evenodd" clip-rule="evenodd" d="M4.29922 2.88497C4.68857 3.27666 4.68668 3.90983 4.29499 4.29918C4.10761 4.48545 4.00157 4.73828 4 5.00244V19C4 19.2652 4.10536 19.5195 4.29289 19.7071C4.48043 19.8946 4.73478 20 5 20H18.9975C19.2617 19.9984 19.5145 19.8924 19.7008 19.705C20.0901 19.3133 20.7233 19.3114 21.115 19.7007C21.5067 20.0901 21.5086 20.7233 21.1192 21.115C20.5592 21.6783 19.7986 21.9966 19.0042 22C19.0028 22 19.0014 22 19 22H5C4.20435 22 3.44129 21.6839 2.87868 21.1213C2.31607 20.5587 2 19.7956 2 19V4.99997C2 4.99856 2 4.99716 2.00001 4.99575C2.00336 4.20138 2.32163 3.44078 2.88501 2.88075C3.2767 2.49139 3.90986 2.49329 4.29922 2.88497Z" fill="black"/>
<path fill-rule="evenodd" clip-rule="evenodd" d="M8 3C8 2.44772 8.44772 2 9 2H15.2C15.2047 2 15.2095 2.00003 15.2142 2.0001C16.0037 2.01135 16.7568 2.33333 17.3103 2.89609L21.1039 6.68966C21.6667 7.24319 21.9887 7.99631 21.9999 8.78576C21.9999 8.78833 22 8.79091 22 8.79348C22 8.79565 22 8.79783 22 8.8V15C22 15.5523 21.5523 16 21 16C20.4477 16 20 15.5523 20 15V8.80835C19.9947 8.54673 19.8871 8.2975 19.7001 8.11424C19.699 8.11314 19.6979 8.11205 19.6968 8.11094C19.6955 8.10967 19.6942 8.10839 19.6929 8.10711L15.8929 4.30711C15.8916 4.30582 15.8903 4.30452 15.889 4.30323C15.8879 4.30212 15.8868 4.30101 15.8858 4.2999C15.7025 4.11289 15.4533 4.00527 15.1917 4H9C8.44772 4 8 3.55228 8 3Z" fill="black"/>
</g>
<defs>
<clipPath id="clip0_11_35049">
<rect width="24" height="24" fill="white"/>
</clipPath>
</defs>
</svg>
