<svg width="24" height="24" viewBox="0 0 24 24" fill="none" xmlns="http://www.w3.org/2000/svg">
<path fill-rule="evenodd" clip-rule="evenodd" d="M5 4C4.73478 4 4.48043 4.10536 4.29289 4.29289C4.10536 4.48043 4 4.73478 4 5V7C4 7.55228 3.55228 8 3 8C2.44772 8 2 7.55228 2 7V5C2 4.20435 2.31607 3.44129 2.87868 2.87868C3.44129 2.31607 4.20435 2 5 2H7C7.55228 2 8 2.44772 8 3C8 3.55228 7.55228 4 7 4H5Z" fill="black"/>
<path fill-rule="evenodd" clip-rule="evenodd" d="M16 3C16 2.44772 16.4477 2 17 2H19C19.7956 2 20.5587 2.31607 21.1213 2.87868C21.6839 3.44129 22 4.20435 22 5V7C22 7.55228 21.5523 8 21 8C20.4477 8 20 7.55228 20 7V5C20 4.73478 19.8946 4.48043 19.7071 4.29289C19.5196 4.10536 19.2652 4 19 4H17C16.4477 4 16 3.55228 16 3Z" fill="black"/>
<path fill-rule="evenodd" clip-rule="evenodd" d="M21 16C21.5523 16 22 16.4477 22 17V19C22 19.7957 21.6839 20.5587 21.1213 21.1213C20.5587 21.6839 19.7957 22 19 22H17C16.4477 22 16 21.5523 16 21C16 20.4477 16.4477 20 17 20H19C19.2652 20 19.5196 19.8946 19.7071 19.7071C19.8946 19.5196 20 19.2652 20 19V17C20 16.4477 20.4477 16 21 16Z" fill="black"/>
<path fill-rule="evenodd" clip-rule="evenodd" d="M3 16C3.55228 16 4 16.4477 4 17V19C4 19.2652 4.10536 19.5196 4.29289 19.7071C4.48043 19.8946 4.73478 20 5 20H7C7.55228 20 8 20.4477 8 21C8 21.5523 7.55228 22 7 22H5C4.20435 22 3.44129 21.6839 2.87868 21.1213C2.31607 20.5587 2 19.7956 2 19V17C2 16.4477 2.44772 16 3 16Z" fill="black"/>
<path fill-rule="evenodd" clip-rule="evenodd" d="M8.79706 13.396C8.46492 12.9576 7.84056 12.8696 7.40006 13.1999C6.95823 13.5313 6.86869 14.1581 7.20006 14.5999L8.00006 13.9999C7.20006 14.5999 7.2003 14.6003 7.20055 14.6006L7.20107 14.6013L7.20222 14.6028C7.20263 14.6033 7.20305 14.6039 7.2035 14.6045C7.20397 14.6051 7.20445 14.6058 7.20496 14.6064C7.20698 14.6091 7.20938 14.6122 7.21217 14.6158C7.21774 14.6231 7.22485 14.6322 7.23347 14.6431C7.25071 14.6649 7.27407 14.6938 7.30342 14.7287C7.36207 14.7986 7.44506 14.8933 7.55151 15.0043C7.76358 15.2256 8.07349 15.5171 8.47439 15.8087C9.27233 16.389 10.4745 16.9999 12.0001 16.9999C13.5256 16.9999 14.7278 16.389 15.5257 15.8087C15.9266 15.5171 16.2365 15.2256 16.4486 15.0043C16.5551 14.8933 16.6381 14.7986 16.6967 14.7287C16.7261 14.6938 16.7494 14.6649 16.7666 14.6431C16.7753 14.6322 16.7824 14.6231 16.7879 14.6158C16.7907 14.6122 16.7931 14.6091 16.7952 14.6064L16.7961 14.6052C16.7968 14.6043 16.7973 14.6035 16.7979 14.6028L16.799 14.6013L16.7996 14.6006C16.7998 14.6003 16.8001 14.5999 16.0001 13.9999L16.8001 14.5999C17.1314 14.1581 17.0419 13.5313 16.6001 13.1999C16.1596 12.8696 15.5352 12.9576 15.2031 13.396C15.2024 13.3968 15.2009 13.3987 15.1986 13.4017C15.1926 13.4092 15.1813 13.4233 15.1647 13.443C15.1316 13.4825 15.0779 13.5441 15.0046 13.6205C14.8573 13.7742 14.636 13.9828 14.3494 14.1912C13.7723 14.6109 12.9745 14.9999 12.0001 14.9999C11.0256 14.9999 10.2278 14.6109 9.65073 14.1912C9.36413 13.9828 9.14278 13.7742 8.99548 13.6205C8.92225 13.5441 8.86852 13.4825 8.83537 13.443C8.81883 13.4233 8.80751 13.4092 8.80156 13.4017C8.79923 13.3988 8.79773 13.3968 8.79706 13.396ZM15.201 13.3987L15.2009 13.3988L15.2005 13.3993C15.2007 13.3991 15.2008 13.3989 15.201 13.3987Z" fill="black"/>
<path fill-rule="evenodd" clip-rule="evenodd" d="M8 9C8 8.44772 8.44772 8 9 8H9.01C9.56228 8 10.01 8.44772 10.01 9C10.01 9.55228 9.56228 10 9.01 10H9C8.44772 10 8 9.55228 8 9Z" fill="black"/>
<path fill-rule="evenodd" clip-rule="evenodd" d="M14 9C14 8.44772 14.4477 8 15 8H15.01C15.5623 8 16.01 8.44772 16.01 9C16.01 9.55228 15.5623 10 15.01 10H15C14.4477 10 14 9.55228 14 9Z" fill="black"/>
</svg>
