<svg width="24" height="24" viewBox="0 0 24 24" fill="none" xmlns="http://www.w3.org/2000/svg">
<path fill-rule="evenodd" clip-rule="evenodd" d="M10.191 5.00004C10.194 5.00001 10.197 5 10.2 5C10.8734 5 11.4864 5.16491 12 5.50555C12.5136 5.16491 13.1266 5 13.8 5C13.803 5 13.806 5.00001 13.809 5.00004C14.6529 5.00761 15.4602 5.34623 16.057 5.94303C16.6538 6.53982 16.9924 7.34707 17 8.19103C17 8.19395 17 8.19686 17 8.19978C17.0002 9.10054 16.6443 9.96485 16.0099 10.6043C16.003 10.6113 15.9959 10.6182 15.9887 10.625C14.8918 11.6671 13.7891 12.703 12.6806 13.7327C12.2937 14.0921 11.694 14.0887 11.3112 13.7249C10.1955 12.6648 9.09057 11.5934 7.99661 10.5108C7.99537 10.5096 7.99413 10.5083 7.99289 10.5071C7.44139 9.95561 7 9.11217 7 8.2C7 8.19701 7.00001 8.19402 7.00004 8.19103C7.00761 7.34707 7.34623 6.53982 7.94303 5.94303C8.53982 5.34623 9.34707 5.00761 10.191 5.00004ZM10.2048 7C9.88652 7.00396 9.58236 7.13212 9.35724 7.35724C9.13224 7.58224 9.0041 7.88619 9.00001 8.20424C9.00155 8.49071 9.15914 8.84408 9.40551 9.09129C10.2663 9.94311 11.134 10.788 12.0084 11.6258C12.8756 10.8166 13.7391 10.0034 14.5991 9.18654C14.8551 8.92381 14.9989 8.57169 15 8.20466C14.996 7.88646 14.8679 7.58234 14.6428 7.35724C14.4176 7.13212 14.1135 7.00396 13.7952 7C13.2896 7.00104 13.0233 7.1678 12.832 7.4547C12.6466 7.7329 12.3344 7.9 12 7.9C11.6656 7.9 11.3534 7.7329 11.1679 7.4547C10.9767 7.1678 10.7104 7.00104 10.2048 7Z" fill="black"/>
<path fill-rule="evenodd" clip-rule="evenodd" d="M6.5 3C6.10218 3 5.72064 3.15804 5.43934 3.43934C5.15804 3.72064 5 4.10218 5 4.5V16.3377C5.46443 16.1174 5.97616 16 6.5 16H19V3H6.5ZM21 3C21 2.46957 20.7893 1.96086 20.4142 1.58579C20.0391 1.21071 19.5304 1 19 1H6.5C5.57174 1 4.6815 1.36875 4.02513 2.02513C3.36875 2.6815 3 3.57174 3 4.5V19.5C3 20.4283 3.36875 21.3185 4.02513 21.9749C4.6815 22.6312 5.57174 23 6.5 23H19C19.5304 23 20.0391 22.7893 20.4142 22.4142C20.7893 22.0391 21 21.5304 21 21V3ZM19 18H6.5C6.10218 18 5.72064 18.158 5.43934 18.4393C5.15804 18.7206 5 19.1022 5 19.5C5 19.8978 5.15804 20.2794 5.43934 20.5607C5.72064 20.842 6.10218 21 6.5 21H19V18Z" fill="black"/>
</svg>
