<svg width="24" height="24" viewBox="0 0 24 24" fill="none" xmlns="http://www.w3.org/2000/svg">
<path fill-rule="evenodd" clip-rule="evenodd" d="M12 12C12.5523 12 13 12.4477 13 13V21C13 21.5523 12.5523 22 12 22C11.4477 22 11 21.5523 11 21V13C11 12.4477 11.4477 12 12 12Z" fill="black"/>
<path fill-rule="evenodd" clip-rule="evenodd" d="M12 2C12.5523 2 13 2.44772 13 3V6C13 6.55228 12.5523 7 12 7C11.4477 7 11 6.55228 11 6V3C11 2.44772 11.4477 2 12 2Z" fill="black"/>
<path fill-rule="evenodd" clip-rule="evenodd" d="M5.99953 5H18.0005C18.7762 5.00037 19.5217 5.30124 20.0804 5.83944C20.0804 5.83949 20.0805 5.83954 20.0806 5.83959C20.0807 5.83973 20.0808 5.83986 20.081 5.84L22.388 8.06C22.5815 8.24657 22.7355 8.47025 22.8407 8.71766C22.9458 8.96508 23 9.23116 23 9.5C23 9.76884 22.9458 10.0349 22.8407 10.2823C22.7355 10.5298 22.5815 10.7534 22.388 10.94L20.081 13.16C20.0808 13.1602 20.0806 13.1603 20.0805 13.1605C20.0804 13.1605 20.0804 13.1605 20.0804 13.1606C19.5217 13.6988 18.7762 13.9996 18.0005 14H5.99953C5.22368 13.9996 4.47816 13.6987 3.91946 13.1604C3.91931 13.1603 3.91917 13.1601 3.91903 13.16L1.61303 10.94C1.41946 10.7534 1.2655 10.5298 1.16034 10.2823C1.05518 10.0349 1.00098 9.76884 1.00098 9.5C1.00098 9.23116 1.05518 8.96508 1.16034 8.71766C1.2655 8.47025 1.41946 8.24657 1.61303 8.06L3.91903 5.84C3.91915 5.83988 3.91928 5.83976 3.9194 5.83964C3.91942 5.83962 3.91944 5.8396 3.91946 5.83959C4.47816 5.30129 5.22368 5.00037 5.99953 5ZM17.9995 7H6.00048C6.00043 7 6.00038 7 6.00034 7C5.74171 7.00016 5.49319 7.10051 5.30698 7.28L3.00098 9.5L5.30698 11.72C5.49323 11.8995 5.7418 11.9999 6.00048 12H17.9995C18.2582 11.9999 18.5068 11.8995 18.693 11.72L21 9.5L18.693 7.28C18.5068 7.10051 18.2583 7.00016 17.9997 7C17.9996 7 17.9996 7 17.9995 7Z" fill="black"/>
</svg>
