<svg width="24" height="24" viewBox="0 0 24 24" fill="none" xmlns="http://www.w3.org/2000/svg">
<path fill-rule="evenodd" clip-rule="evenodd" d="M4.23398 8.34444C3.22017 11.5527 3.0634 15.4621 3.00875 18.196L3.00874 18.1968C3.0031 18.4683 3.10731 18.6476 3.22452 18.7347C4.17869 19.4409 5.60298 20.0152 7.33886 20.4096C9.06134 20.8009 11.0241 21 13 21C17.6938 21 21 18.0962 21 15V14.9995C21.0004 14.0789 20.6833 13.1864 20.1021 12.4724C19.521 11.7585 18.7114 11.2668 17.8099 11.0804C16.9083 10.894 15.9701 11.0243 15.1535 11.4493C14.7163 11.6768 14.3282 11.9813 14.0061 12.3449C14.576 12.5472 15.1137 12.8351 15.6002 13.2002C16.0419 13.5317 16.1313 14.1585 15.7998 14.6002C15.4683 15.042 14.8415 15.1313 14.3997 14.7998C13.9169 14.4375 13.3584 14.1892 12.766 14.0734C12.6351 14.0479 12.5033 14.0289 12.3711 14.0166C12.3418 14.0155 12.3124 14.013 12.283 14.0093C11.8456 13.9782 11.405 14.0191 10.9789 14.1314C10.3952 14.2854 9.85395 14.5694 9.39564 14.9622C9.19103 15.1376 9.00532 15.3327 8.84094 15.5441C8.82749 15.5629 8.81383 15.5815 8.79995 15.6C8.79057 15.6125 8.78095 15.6247 8.77111 15.6367C8.59783 15.8734 8.45058 16.1292 8.33254 16.3998C8.11171 16.9061 7.52233 17.1374 7.01611 16.9166C6.5099 16.6958 6.27854 16.1064 6.49937 15.6002C6.69296 15.1564 6.93891 14.7391 7.23099 14.3568C7.43395 14.0617 7.58383 13.5931 7.67486 12.909C7.75568 12.3017 7.77844 11.6379 7.80296 10.9227C7.80707 10.8026 7.81124 10.681 7.81575 10.5579C7.84558 9.7428 7.8904 8.84948 8.07465 8.07551C8.16123 7.71182 8.2889 7.3297 8.48741 6.97592C8.36138 6.8341 8.25387 6.68764 8.16054 6.5435C7.86038 6.07991 7.99286 5.46076 8.45645 5.16059C8.92004 4.86042 9.53919 4.99291 9.83936 5.4565C9.96096 5.6443 10.0775 5.76094 10.2155 5.83958C10.2453 5.85655 10.2795 5.8737 10.3191 5.89015C10.3292 5.89398 10.3393 5.89798 10.3493 5.90215C10.4916 5.95625 10.6969 6 11 6C11.2652 6 11.5195 5.89464 11.7071 5.70711C11.8946 5.51957 12 5.26522 12 5C12 4.46957 11.7892 3.96086 11.4142 3.58579C11.0391 3.21071 10.5304 3 9.99995 3C8.43091 3 7.26924 3.55832 6.36468 4.4664C5.43383 5.40088 4.73928 6.74536 4.23398 8.34444ZM10.2419 7.93658C10.4796 7.97892 10.7321 8 11 8C11.7956 8 12.5587 7.68393 13.1213 7.12132C13.6839 6.55871 14 5.79565 14 5C14 3.93913 13.5785 2.92172 12.8284 2.17157C12.0782 1.42143 11.0608 1 9.99995 1C7.8825 1 6.21567 1.78205 4.94772 3.05494C3.70607 4.30143 2.88412 5.97851 2.32693 7.74181C1.21578 11.2581 1.06352 15.4365 1.00916 18.1556C1.00916 18.1558 1.00915 18.1559 1.00915 18.156C0.993003 18.9441 1.29871 19.7963 2.03318 20.3412L2.03395 20.3417C3.29778 21.2773 5.02027 21.9338 6.8958 22.3599C8.78506 22.7891 10.8988 23 13 23C18.3059 23 22.9996 19.636 23 15.0005M10.2419 7.93658C10.1636 8.06928 10.0864 8.26079 10.0203 8.53868C9.88832 9.09302 9.84495 9.79645 9.81441 10.6311C9.8103 10.7434 9.80642 10.8581 9.80248 10.9747C9.78653 11.4471 9.76954 11.9498 9.73182 12.444C9.97131 12.3462 10.2175 12.2638 10.4689 12.1975C10.9056 12.0824 11.3525 12.0173 11.801 12.0025C12.3698 11.015 13.2109 10.2055 14.2303 9.6751C15.4552 9.03767 16.8625 8.84227 18.2148 9.12186C19.5671 9.40145 20.7815 10.1389 21.6532 11.2098C22.5249 12.2807 23.0005 13.6193 23 15" fill="black"/>
</svg>
