<svg width="24" height="24" viewBox="0 0 24 24" fill="none" xmlns="http://www.w3.org/2000/svg">
<path fill-rule="evenodd" clip-rule="evenodd" d="M10.4476 9.10572C10.9415 9.35289 11.1415 9.95364 10.8943 10.4475L5.61428 20.9975C5.61387 20.9984 5.61345 20.9992 5.61304 21C5.61455 21 5.61606 21 5.61757 21L5.62002 21H18.38C18.3823 21 18.3847 21 18.387 21L18.3857 20.9975L17.1137 18.4555C16.8666 17.9616 17.0666 17.3608 17.5605 17.1137C18.0544 16.8665 18.6552 17.0666 18.9023 17.5605L20.173 20.0999C20.1733 20.1004 20.1735 20.1009 20.1737 20.1013C20.3275 20.4069 20.4002 20.7469 20.385 21.0887C20.3698 21.431 20.267 21.7636 20.0863 22.0547C19.9056 22.3458 19.6531 22.5856 19.3531 22.7512C19.0543 22.916 18.7183 23.0017 18.3771 23H5.62291C5.28169 23.0017 4.9457 22.916 4.64689 22.7512C4.3469 22.5856 4.09445 22.3458 3.91376 22.0547C3.73307 21.7636 3.63019 21.431 3.615 21.0887C3.59984 20.747 3.67256 20.4071 3.82622 20.1015C3.82648 20.101 3.82674 20.1005 3.827 20.0999L9.10576 9.55242C9.35294 9.05854 9.95369 8.85854 10.4476 9.10572Z" fill="black"/>
<path fill-rule="evenodd" clip-rule="evenodd" d="M10 1C10.5523 1 11 1.44772 11 2V4.343C11 4.89528 10.5523 5.343 10 5.343C9.44772 5.343 9 4.89528 9 4.343V2C9 1.44772 9.44772 1 10 1Z" fill="black"/>
<path fill-rule="evenodd" clip-rule="evenodd" d="M14 1C14.5523 1 15 1.44772 15 2V8.343C15 8.89528 14.5523 9.343 14 9.343C13.4477 9.343 13 8.89528 13 8.343V2C13 1.44772 13.4477 1 14 1Z" fill="black"/>
<path fill-rule="evenodd" clip-rule="evenodd" d="M7.5 2C7.5 1.44772 7.94772 1 8.5 1H15.5C16.0523 1 16.5 1.44772 16.5 2C16.5 2.55228 16.0523 3 15.5 3H8.5C7.94772 3 7.5 2.55228 7.5 2Z" fill="black"/>
<path fill-rule="evenodd" clip-rule="evenodd" d="M6 16C6 15.4477 6.44772 15 7 15H16C16.5523 15 17 15.4477 17 16C17 16.5523 16.5523 17 16 17H7C6.44772 17 6 16.5523 6 16Z" fill="black"/>
<path fill-rule="evenodd" clip-rule="evenodd" d="M1.29289 1.29289C1.68342 0.902369 2.31658 0.902369 2.70711 1.29289L22.7071 21.2929C23.0976 21.6834 23.0976 22.3166 22.7071 22.7071C22.3166 23.0976 21.6834 23.0976 21.2929 22.7071L1.29289 2.70711C0.902369 2.31658 0.902369 1.68342 1.29289 1.29289Z" fill="black"/>
</svg>
