<svg width="24" height="24" viewBox="0 0 24 24" fill="none" xmlns="http://www.w3.org/2000/svg">
<path fill-rule="evenodd" clip-rule="evenodd" d="M12 1C12.5523 1 13 1.44772 13 2V6C13 6.55228 12.5523 7 12 7C11.4477 7 11 6.55228 11 6V2C11 1.44772 11.4477 1 12 1Z" fill="black"/>
<path fill-rule="evenodd" clip-rule="evenodd" d="M19.8071 4.19292C20.1976 4.58344 20.1976 5.21661 19.8071 5.60713L16.9071 8.50713C16.5165 8.89766 15.8834 8.89766 15.4928 8.50713C15.1023 8.11661 15.1023 7.48344 15.4928 7.09292L18.3928 4.19292C18.7834 3.80239 19.4165 3.80239 19.8071 4.19292Z" fill="black"/>
<path fill-rule="evenodd" clip-rule="evenodd" d="M17 12C17 11.4477 17.4477 11 18 11H22C22.5523 11 23 11.4477 23 12C23 12.5523 22.5523 13 22 13H18C17.4477 13 17 12.5523 17 12Z" fill="black"/>
<path fill-rule="evenodd" clip-rule="evenodd" d="M15.4928 15.4928C15.8834 15.1023 16.5165 15.1023 16.9071 15.4928L19.8071 18.3928C20.1976 18.7834 20.1976 19.4165 19.8071 19.8071C19.4165 20.1976 18.7834 20.1976 18.3928 19.8071L15.4928 16.9071C15.1023 16.5165 15.1023 15.8834 15.4928 15.4928Z" fill="black"/>
<path fill-rule="evenodd" clip-rule="evenodd" d="M12 17C12.5523 17 13 17.4477 13 18V22C13 22.5523 12.5523 23 12 23C11.4477 23 11 22.5523 11 22V18C11 17.4477 11.4477 17 12 17Z" fill="black"/>
<path fill-rule="evenodd" clip-rule="evenodd" d="M8.50701 15.4928C8.89753 15.8834 8.89753 16.5165 8.50701 16.9071L5.60701 19.8071C5.21648 20.1976 4.58332 20.1976 4.1928 19.8071C3.80227 19.4165 3.80227 18.7834 4.1928 18.3928L7.0928 15.4928C7.48332 15.1023 8.11649 15.1023 8.50701 15.4928Z" fill="black"/>
<path fill-rule="evenodd" clip-rule="evenodd" d="M1 12C1 11.4477 1.44772 11 2 11H6C6.55228 11 7 11.4477 7 12C7 12.5523 6.55228 13 6 13H2C1.44772 13 1 12.5523 1 12Z" fill="black"/>
<path fill-rule="evenodd" clip-rule="evenodd" d="M4.1928 4.19292C4.58332 3.80239 5.21648 3.80239 5.60701 4.19292L8.50701 7.09292C8.89753 7.48344 8.89753 8.11661 8.50701 8.50713C8.11649 8.89766 7.48332 8.89766 7.0928 8.50713L4.1928 5.60713C3.80227 5.21661 3.80227 4.58344 4.1928 4.19292Z" fill="black"/>
</svg>
