<svg width="24" height="24" viewBox="0 0 24 24" fill="none" xmlns="http://www.w3.org/2000/svg">
<path fill-rule="evenodd" clip-rule="evenodd" d="M16.9471 7.05287C17.215 7.32072 17.3085 7.71691 17.1887 8.07626L15.3847 13.4872C15.3847 13.4872 15.3847 13.4872 15.3847 13.4873C15.2374 13.9291 14.9893 14.3306 14.66 14.6599C14.3306 14.9892 13.9291 15.2374 13.4873 15.3846C13.4873 15.3847 13.4873 15.3847 13.4872 15.3847L8.07632 17.1886C7.71697 17.3084 7.32078 17.2149 7.05293 16.9471C6.78508 16.6792 6.69157 16.283 6.81137 15.9237L8.61534 10.5128C8.61535 10.5128 8.61536 10.5127 8.61537 10.5127C8.76265 10.0709 9.01078 9.66937 9.34011 9.34004C9.66944 9.01071 10.0709 8.76258 10.5128 8.6153C10.5128 8.61529 10.5128 8.61529 10.5128 8.61528L15.9238 6.81131C16.2831 6.69151 16.6793 6.78502 16.9471 7.05287ZM14.6587 9.34129L11.1452 10.5127C10.9979 10.5618 10.8641 10.6445 10.7543 10.7543C10.6445 10.864 10.5618 10.9979 10.5127 11.1452L9.34135 14.6587L12.8548 13.4873C13.0021 13.4382 13.136 13.3555 13.2458 13.2457C13.3555 13.1359 13.4383 13.0021 13.4873 12.8548L14.6587 9.34129Z" fill="black"/>
<path fill-rule="evenodd" clip-rule="evenodd" d="M12 3C7.02944 3 3 7.02944 3 12C3 16.9706 7.02944 21 12 21C16.9706 21 21 16.9706 21 12C21 7.02944 16.9706 3 12 3ZM1 12C1 5.92487 5.92487 1 12 1C18.0751 1 23 5.92487 23 12C23 18.0751 18.0751 23 12 23C5.92487 23 1 18.0751 1 12Z" fill="black"/>
</svg>
