<svg width="24" height="24" viewBox="0 0 24 24" fill="none" xmlns="http://www.w3.org/2000/svg">
<path fill-rule="evenodd" clip-rule="evenodd" d="M18 16C17.7348 16 17.4804 16.1054 17.2929 16.2929C17.1054 16.4804 17 16.7348 17 17L17 18C17.5523 18 18 18.4477 18 19V21C18 21.5523 17.5523 22 17 22C16.4477 22 16 21.5523 16 21V19.7321C15.8499 19.6454 15.7105 19.5389 15.5858 19.4142C15.2107 19.0391 15 18.5304 15 18V17C15 16.2043 15.3161 15.4413 15.8787 14.8787C16.4413 14.3161 17.2043 14 18 14H20C20.7957 14 21.5587 14.3161 22.1213 14.8787C22.6839 15.4413 23 16.2043 23 17V18C23 18.5304 22.7893 19.0391 22.4142 19.4142C22.0391 19.7893 21.5304 20 21 20C20.4477 20 20 19.5523 20 19C20 18.4477 20.4477 18 21 18V17C21 16.7348 20.8946 16.4804 20.7071 16.2929C20.5196 16.1054 20.2652 16 20 16H18Z" fill="black"/>
<path fill-rule="evenodd" clip-rule="evenodd" d="M12.318 3.31802C13.1619 2.47411 14.3065 2 15.5 2C16.6935 2 17.8381 2.47411 18.682 3.31802C19.5259 4.16193 20 5.30653 20 6.5V15C20 15.5523 19.5523 16 19 16C18.4477 16 18 15.5523 18 15V6.5C18 5.83696 17.7366 5.20107 17.2678 4.73223C16.7989 4.26339 16.163 4 15.5 4C14.837 4 14.2011 4.26339 13.7322 4.73223C13.2634 5.20107 13 5.83696 13 6.5V17.5C13 18.6935 12.5259 19.8381 11.682 20.682C10.8381 21.5259 9.69347 22 8.5 22C7.30653 22 6.16193 21.5259 5.31802 20.682C4.47411 19.8381 4 18.6935 4 17.5V9C4 8.44772 4.44772 8 5 8C5.55228 8 6 8.44772 6 9V17.5C6 18.163 6.26339 18.7989 6.73223 19.2678C7.20107 19.7366 7.83696 20 8.5 20C9.16304 20 9.79893 19.7366 10.2678 19.2678C10.7366 18.7989 11 18.163 11 17.5V6.5C11 5.30653 11.4741 4.16193 12.318 3.31802Z" fill="black"/>
<path fill-rule="evenodd" clip-rule="evenodd" d="M16 19C16 18.4477 16.4477 18 17 18H21C21.5523 18 22 18.4477 22 19V21C22 21.5523 21.5523 22 21 22C20.4477 22 20 21.5523 20 21V20H17C16.4477 20 16 19.5523 16 19Z" fill="black"/>
<path fill-rule="evenodd" clip-rule="evenodd" d="M7 2C7.55228 2 8 2.44772 8 3V5C8 5.55228 7.55228 6 7 6H3C2.44772 6 2 5.55228 2 5C2 4.44772 2.44772 4 3 4H6V3C6 2.44772 6.44772 2 7 2Z" fill="black"/>
<path fill-rule="evenodd" clip-rule="evenodd" d="M3 2C3.55228 2 4 2.44772 4 3V5C4 5.26522 3.89464 5.51957 3.70711 5.70711C3.51957 5.89464 3.26522 6 3 6V7C3 7.26522 3.10536 7.51957 3.29289 7.70711C3.48043 7.89464 3.73478 8 4 8H6C6.26522 8 6.51957 7.89464 6.70711 7.70711C6.89464 7.51957 7 7.26522 7 7V6C6.44771 6 6 5.55228 6 5C6 4.44772 6.44771 4 7 4C7.53043 4 8.03914 4.21071 8.41421 4.58579C8.78929 4.96086 9 5.46957 9 6V7C9 7.79565 8.68393 8.55871 8.12132 9.12132C7.55871 9.68393 6.79565 10 6 10H4C3.20435 10 2.44129 9.68393 1.87868 9.12132C1.31607 8.55871 1 7.79565 1 7V6C1 5.46957 1.21071 4.96086 1.58579 4.58579C1.71046 4.46111 1.8499 4.3546 2 4.26794V3C2 2.44772 2.44772 2 3 2Z" fill="black"/>
</svg>
