<svg width="24" height="24" viewBox="0 0 24 24" fill="none" xmlns="http://www.w3.org/2000/svg">
<path fill-rule="evenodd" clip-rule="evenodd" d="M13.0053 5.01475C13.7917 5.01078 14.5711 5.16275 15.2984 5.46186C16.0258 5.76098 16.6866 6.20131 17.2426 6.75739C17.7987 7.31348 18.2391 7.97428 18.5382 8.7016C18.8373 9.42892 18.9893 10.2083 18.9853 10.9947C18.9813 11.7811 18.8215 12.559 18.515 13.2832C18.2093 14.0058 17.7636 14.6608 17.2037 15.2105L15.2105 17.2038C14.6608 17.7637 14.0058 18.2093 13.2832 18.5151C12.5589 18.8215 11.7811 18.9813 10.9947 18.9853C10.2083 18.9893 9.42889 18.8373 8.70157 18.5382C7.97425 18.2391 7.31345 17.7988 6.75736 17.2427C6.20128 16.6866 5.76095 16.0258 5.46183 15.2985C5.16272 14.5711 5.01075 13.7918 5.01472 13.0053C5.0187 12.2189 5.17853 11.4411 5.48497 10.7168C5.79074 9.9942 6.23641 9.33919 6.79632 8.78951L8.78948 6.79635C9.33916 6.23644 9.99417 5.79077 10.7168 5.485C11.4411 5.17856 12.2189 5.01873 13.0053 5.01475ZM14.5377 7.31155C14.0549 7.11298 13.5375 7.01209 13.0154 7.01473C12.4933 7.01737 11.977 7.12347 11.4962 7.32691C11.0153 7.53035 10.5796 7.82709 10.2142 8.19996C10.2119 8.20237 10.2095 8.20476 10.2071 8.20714L8.20711 10.2071C8.20578 10.2085 8.20444 10.2098 8.20309 10.2111C8.20204 10.2122 8.20099 10.2132 8.19993 10.2142C7.82706 10.5797 7.53032 11.0154 7.32688 11.4962C7.12344 11.977 7.01734 12.4934 7.0147 13.0154C7.01206 13.5375 7.11295 14.0549 7.31152 14.5378C7.51009 15.0206 7.80241 15.4593 8.17158 15.8285C8.54074 16.1976 8.97943 16.4899 9.46227 16.6885C9.94511 16.8871 10.4625 16.988 10.9846 16.9853C11.5067 16.9827 12.023 16.8766 12.5039 16.6732C12.9847 16.4697 13.4204 16.173 13.7858 15.8001C13.7881 15.7977 13.7905 15.7953 13.7929 15.7929L15.7929 13.7929C15.7953 13.7905 15.7977 13.7882 15.8001 13.7858C16.173 13.4204 16.4697 12.9847 16.6731 12.5039C16.8766 12.0231 16.9827 11.5067 16.9853 10.9846C16.9879 10.4626 16.8871 9.94514 16.6885 9.4623C16.4899 8.97946 16.1976 8.54077 15.8284 8.17161C15.4593 7.80244 15.0206 7.51012 14.5377 7.31155Z" fill="black"/>
<path fill-rule="evenodd" clip-rule="evenodd" d="M14 5.5C14.5523 5.5 15 5.94772 15 6.5V16.5C15 17.0523 14.5523 17.5 14 17.5C13.4477 17.5 13 17.0523 13 16.5V6.5C13 5.94772 13.4477 5.5 14 5.5Z" fill="black"/>
<path fill-rule="evenodd" clip-rule="evenodd" d="M10 6.5C10.5523 6.5 11 6.94772 11 7.5V17.5C11 18.0523 10.5523 18.5 10 18.5C9.44772 18.5 9 18.0523 9 17.5V7.5C9 6.94772 9.44772 6.5 10 6.5Z" fill="black"/>
<path fill-rule="evenodd" clip-rule="evenodd" d="M16.5593 1.10233C16.8386 0.965212 17.1658 0.965929 17.4445 1.10427L18.8145 1.78427C18.8162 1.78507 18.8178 1.78588 18.8194 1.78669C19.0937 1.92472 19.3962 1.99771 19.7033 2H20.9999C21.5522 2 21.9999 2.44772 21.9999 3V4.3C21.9999 4.61737 22.0691 4.91108 22.2011 5.15718C22.2061 5.16651 22.211 5.17592 22.2157 5.1854L22.8957 6.5554C23.034 6.83412 23.0347 7.16135 22.8976 7.44066C22.7605 7.71998 22.5012 7.91956 22.1961 7.98058L17.1961 8.98058C16.6545 9.08889 16.1277 8.73768 16.0194 8.19612C16.0062 8.13035 15.9998 8.0648 15.9998 8.00019C15.9351 8.00011 15.8696 7.99373 15.8038 7.98058C15.2623 7.87227 14.9111 7.34544 15.0194 6.80388L16.0194 1.80388C16.0804 1.49877 16.28 1.23944 16.5593 1.10233ZM17.0247 6.97524L20.5239 6.27541L20.4307 6.08763C20.1285 5.51788 19.9999 4.89732 19.9999 4.3V4H19.6999C19.6979 4 19.6959 3.99999 19.6939 3.99998C19.0787 3.99623 18.4728 3.85067 17.9231 3.57462L17.7245 3.47606L17.0247 6.97524Z" fill="black"/>
<path fill-rule="evenodd" clip-rule="evenodd" d="M8.00019 15.9998C8.00011 15.9352 7.99373 15.8697 7.98058 15.8039C7.87227 15.2624 7.34544 14.9111 6.80388 15.0195L1.80388 16.0195C1.49877 16.0805 1.23944 16.2801 1.10233 16.5594C0.965212 16.8387 0.965929 17.1659 1.10427 17.4446L1.78427 18.8146C1.78507 18.8163 1.78588 18.8179 1.78669 18.8195C1.92472 19.0938 1.99771 19.3963 2 19.7034V21C2 21.5523 2.44772 22 3 22H4.29661C4.60372 22.0023 4.90619 22.0753 5.18057 22.2134C5.18218 22.2142 5.18379 22.215 5.1854 22.2158L6.5554 22.8958C6.83412 23.0341 7.16135 23.0348 7.44066 22.8977C7.71998 22.7606 7.91956 22.5013 7.98058 22.1962L8.98058 17.1962C9.08889 16.6546 8.73768 16.1278 8.19612 16.0195C8.13035 16.0063 8.0648 15.9999 8.00019 15.9998ZM6.97524 17.0248L3.47606 17.7246L3.57462 17.9232C3.85067 18.4729 3.99623 19.0788 3.99998 19.6939C3.99999 19.696 4 19.698 4 19.7V20H4.3C4.30203 20 4.30407 20 4.3061 20.0001C4.92122 20.0038 5.52717 20.1494 6.07685 20.4254L6.27541 20.524L6.97524 17.0248Z" fill="black"/>
</svg>
