<svg width="24" height="24" viewBox="0 0 24 24" fill="none" xmlns="http://www.w3.org/2000/svg">
<path fill-rule="evenodd" clip-rule="evenodd" d="M1.29289 1.29289C1.68342 0.902369 2.31658 0.902369 2.70711 1.29289L22.7071 21.2929C23.0976 21.6834 23.0976 22.3166 22.7071 22.7071C22.3166 23.0976 21.6834 23.0976 21.2929 22.7071L1.29289 2.70711C0.902369 2.31658 0.902369 1.68342 1.29289 1.29289Z" fill="black"/>
<path fill-rule="evenodd" clip-rule="evenodd" d="M3.58579 4.58579C3.96086 4.21071 4.46957 4 5 4C5.55228 4 6 4.44772 6 5C6 5.55228 5.55228 6 5 6L5 13C5 15.2359 5.77079 16.861 6.98675 18.1064C8.22994 19.3796 9.98374 20.2997 11.9964 20.9948C12.004 20.9974 12.0115 21.0001 12.019 21.0029C14.2885 20.21 16.2151 19.1396 17.4652 17.6077C17.8144 17.1798 18.4444 17.1161 18.8723 17.4652C19.3001 17.8144 19.3639 18.4444 19.0147 18.8723C17.4264 20.8185 15.0962 22.0474 12.6695 22.8942C12.6666 22.8952 12.6638 22.8961 12.6609 22.8971C12.2297 23.0432 11.7616 23.0378 11.3341 22.8819C9.18014 22.1372 7.10278 21.088 5.55575 19.5036C3.97921 17.889 3 15.7641 3 13V6C3 5.46957 3.21071 4.96086 3.58579 4.58579Z" fill="black"/>
<path fill-rule="evenodd" clip-rule="evenodd" d="M11.8911 3.03907C11.2457 3.59855 10.5476 4.09432 9.80669 4.51944C9.32766 4.79431 8.71651 4.6288 8.44165 4.14977C8.16679 3.67074 8.33229 3.05959 8.81132 2.78472C9.44176 2.42298 10.0357 2.00101 10.5847 1.52471C10.5866 1.52306 10.5885 1.52142 10.5904 1.51978C10.9834 1.18408 11.4832 0.999634 12 0.999634C12.5168 0.999634 13.0167 1.18408 13.4096 1.51978C13.4125 1.52225 13.4153 1.52474 13.4182 1.52724C15.0577 2.96065 17.3229 4.00008 19 4.00008C19.5304 4.00008 20.0391 4.2108 20.4142 4.58587C20.7893 4.96094 21 5.46965 21 6.00008L21 12.9985C21 12.9988 21 12.9991 21 12.9993C21.0007 13.4649 20.9712 13.93 20.9118 14.3917C20.8413 14.9395 20.3401 15.3264 19.7924 15.2559C19.2446 15.1854 18.8577 14.6842 18.9282 14.1365C18.9766 13.7601 19.0006 13.3811 19 13.0016L19 6.00008C16.6797 6.00008 13.9684 4.66254 12.1081 3.03842C12.0777 3.01337 12.0395 2.99963 12 2.99963C11.9602 2.99963 11.9217 3.0136 11.8911 3.03907Z" fill="black"/>
</svg>
