<svg width="24" height="24" viewBox="0 0 24 24" fill="none" xmlns="http://www.w3.org/2000/svg">
<path fill-rule="evenodd" clip-rule="evenodd" d="M3 12C3 11.4477 3.44772 11 4 11H12C12.5523 11 13 11.4477 13 12C13 12.5523 12.5523 13 12 13H4C3.44772 13 3 12.5523 3 12Z" fill="black"/>
<path fill-rule="evenodd" clip-rule="evenodd" d="M4 5C4.55228 5 5 5.44772 5 6V18C5 18.5523 4.55228 19 4 19C3.44772 19 3 18.5523 3 18V6C3 5.44772 3.44772 5 4 5Z" fill="black"/>
<path fill-rule="evenodd" clip-rule="evenodd" d="M12 5C12.5523 5 13 5.44772 13 6V18C13 18.5523 12.5523 19 12 19C11.4477 19 11 18.5523 11 18V6C11 5.44772 11.4477 5 12 5Z" fill="black"/>
<path fill-rule="evenodd" clip-rule="evenodd" d="M19.4609 11.2169C19.1136 11.0531 18.5877 11.0204 18.0071 11.3619C17.531 11.642 16.9181 11.4831 16.6381 11.007C16.3581 10.531 16.517 9.91809 16.993 9.63807C18.1124 8.97962 19.3365 8.94691 20.3142 9.40808C21.2841 9.86558 22 10.818 22 12C22 12.7957 21.684 13.5587 21.1214 14.1213C20.5587 14.6839 19.7957 15 19 15C18.4478 15 18 14.5523 18 14C18 13.4477 18.4478 13 19 13C19.2653 13 19.5196 12.8947 19.7071 12.7071C19.8947 12.5196 20 12.2652 20 12C20 11.6821 19.816 11.3844 19.4609 11.2169Z" fill="black"/>
<path fill-rule="evenodd" clip-rule="evenodd" d="M17.9999 14C17.9999 13.4477 18.4477 13 18.9999 13C19.7956 13 20.5586 13.3161 21.1213 13.8787C21.6839 14.4413 21.9999 15.2043 21.9999 16C21.9999 17.2853 21.2766 18.3971 20.1603 18.8994C19.0256 19.41 17.6419 19.2315 16.3999 18.3C15.9581 17.9686 15.8686 17.3418 16.1999 16.9C16.5313 16.4582 17.1581 16.3686 17.5999 16.7C18.358 17.2685 18.9743 17.24 19.3396 17.0756C19.7233 16.9029 19.9999 16.5147 19.9999 16C19.9999 15.7348 19.8946 15.4804 19.707 15.2929C19.5195 15.1054 19.2652 15 18.9999 15C18.4477 15 17.9999 14.5523 17.9999 14Z" fill="black"/>
</svg>
