<svg width="24" height="24" viewBox="0 0 24 24" fill="none" xmlns="http://www.w3.org/2000/svg">
<path fill-rule="evenodd" clip-rule="evenodd" d="M5 4C4.44772 4 4 4.44772 4 5V19C4 19.5523 4.44772 20 5 20H19C19.5523 20 20 19.5523 20 19V5C20 4.44772 19.5523 4 19 4H5ZM2 5C2 3.34315 3.34315 2 5 2H19C20.6569 2 22 3.34315 22 5V19C22 20.6569 20.6569 22 19 22H5C3.34315 22 2 20.6569 2 19V5Z" fill="black"/>
<path fill-rule="evenodd" clip-rule="evenodd" d="M12 7C12.5523 7 13 7.44772 13 8V16C13 16.5523 12.5523 17 12 17C11.4477 17 11 16.5523 11 16V8C11 7.44772 11.4477 7 12 7Z" fill="black"/>
<path fill-rule="evenodd" clip-rule="evenodd" d="M16.3682 9.50379C16.6422 9.98331 16.4756 10.5942 15.9961 10.8682L8.99607 14.8682C8.51655 15.1422 7.90569 14.9756 7.63168 14.4961C7.35767 14.0165 7.52427 13.4057 8.00379 13.1317L15.0038 9.13168C15.4833 8.85767 16.0942 9.02427 16.3682 9.50379Z" fill="black"/>
<path fill-rule="evenodd" clip-rule="evenodd" d="M7.63168 9.50379C7.90569 9.02427 8.51655 8.85767 8.99607 9.13168L15.9961 13.1317C16.4756 13.4057 16.6422 14.0165 16.3682 14.4961C16.0942 14.9756 15.4833 15.1422 15.0038 14.8682L8.00379 10.8682C7.52427 10.5942 7.35767 9.98331 7.63168 9.50379Z" fill="black"/>
</svg>
