<svg width="24" height="24" viewBox="0 0 24 24" fill="none" xmlns="http://www.w3.org/2000/svg">
<path fill-rule="evenodd" clip-rule="evenodd" d="M6.11896 3.91008C8.04524 2.50653 10.4095 1.83712 12.7856 2.02249C15.1618 2.20787 17.3936 3.23583 19.0789 4.92113C20.7642 6.60644 21.7922 8.83827 21.9776 11.2144C22.163 13.5906 21.4935 15.9548 20.09 17.8811C18.6864 19.8074 16.641 21.169 14.3224 21.7207C12.1442 22.2389 9.85945 22.0103 7.83253 21.0788L2.32107 22.9471C1.96061 23.0693 1.56205 22.9763 1.29292 22.7072C1.02379 22.438 0.930774 22.0395 1.05296 21.679L2.92125 16.1675C1.98982 14.1406 1.7612 11.8559 2.2794 9.67771C2.83104 7.35904 4.19268 5.31364 6.11896 3.91008ZM12.6301 4.01644C10.7292 3.86814 8.83776 4.40366 7.29674 5.52651C5.75572 6.64935 4.6664 8.28568 4.2251 10.1406C3.78379 11.9955 4.01951 13.9471 4.88979 15.6436C5.01328 15.8844 5.03395 16.1649 4.94709 16.4211L3.5974 20.4027L7.57899 19.053C7.83523 18.9661 8.11572 18.9868 8.35646 19.1103C10.053 19.9806 12.0045 20.2163 13.8595 19.775C15.7144 19.3337 17.3507 18.2444 18.4736 16.7033C19.5964 15.1623 20.1319 13.2709 19.9836 11.37C19.8353 9.46905 19.013 7.68359 17.6647 6.33535C16.3165 4.9871 14.531 4.16473 12.6301 4.01644Z" fill="black"/>
<path fill-rule="evenodd" clip-rule="evenodd" d="M11.9235 8.20544C12.5309 7.7408 13.2774 7.48535 14.05 7.48535C14.8788 7.48535 15.6777 7.77931 16.3068 8.31013C16.4121 8.36414 16.5095 8.43787 16.5933 8.53103C17.1978 9.20263 17.5551 10.0687 17.5373 10.9942C17.5194 11.9282 17.1211 12.8431 16.3571 13.6071C16.3538 13.6104 16.3505 13.6137 16.3471 13.617L12.7471 17.117C12.359 17.4943 11.7411 17.4943 11.3529 17.117L7.79983 13.6626C7.44111 13.3893 7.13977 13.0475 6.91341 12.6569C6.67404 12.2438 6.52382 11.7852 6.47241 11.3105C6.42099 10.8359 6.46952 10.3557 6.61488 9.90097C6.76023 9.44621 6.99919 9.02692 7.31638 8.67009C7.63356 8.31326 8.02194 8.02679 8.45652 7.82912C8.8911 7.63145 9.36225 7.52696 9.83965 7.52237C10.3171 7.51779 10.7901 7.6132 11.2284 7.80249C11.4758 7.90932 11.709 8.04471 11.9235 8.20544ZM13.0485 9.86865L12.8 10.2C12.6341 10.4212 12.384 10.5639 12.1091 10.594C11.8343 10.6242 11.5592 10.5392 11.3492 10.3593L10.9992 10.0593C10.9698 10.034 10.9418 10.0071 10.9155 9.9786C10.781 9.833 10.6175 9.71718 10.4355 9.63859C10.2535 9.56 10.0571 9.52038 9.85887 9.52228C9.66065 9.52419 9.46503 9.56757 9.28459 9.64965C9.10415 9.73172 8.94289 9.85066 8.81119 9.99882C8.6795 10.147 8.58028 10.3211 8.51993 10.5099C8.45958 10.6987 8.43943 10.8981 8.46077 11.0951C8.48212 11.2922 8.54449 11.4826 8.64388 11.6542C8.74326 11.8257 8.87746 11.9745 9.03782 12.091C9.07639 12.119 9.11291 12.1498 9.14709 12.183L12.05 15.0053L14.9475 12.1883C15.38 11.7538 15.5307 11.3205 15.5377 10.9558C15.5438 10.6383 15.4422 10.314 15.2311 10.0226C15.1852 9.99073 15.1413 9.95458 15.1 9.91414C14.8196 9.6393 14.4426 9.48535 14.05 9.48535C13.6796 9.48535 13.3231 9.62237 13.0485 9.86865Z" fill="black"/>
</svg>
