<svg width="24" height="24" viewBox="0 0 24 24" fill="none" xmlns="http://www.w3.org/2000/svg">
<path fill-rule="evenodd" clip-rule="evenodd" d="M17.2884 3.88276C16.7243 3.31957 15.9594 3.00357 15.1623 3.00427C14.3651 3.00498 13.6008 3.32233 13.0377 3.88652L4.46703 12.4571C3.52872 13.3954 3.00159 14.6681 3.00159 15.995C3.00159 17.322 3.52872 18.5946 4.46703 19.5329C5.40534 20.4712 6.67796 20.9984 8.00492 20.9984C9.33189 20.9984 10.6045 20.4712 11.5428 19.5329L20.7328 10.3429C21.1233 9.9524 21.7565 9.9524 22.147 10.3429C22.5376 10.7335 22.5376 11.3666 22.147 11.7571L12.957 20.9471C11.6437 22.2605 9.86232 22.9984 8.00492 22.9984C6.14752 22.9984 4.3662 22.2605 3.05282 20.9471C1.73944 19.6338 1.00159 17.8524 1.00159 15.995C1.00159 14.1376 1.73944 12.3563 3.05282 11.0429L11.6222 2.47355C11.6223 2.47343 11.6224 2.47331 11.6226 2.47318C12.5605 1.53382 13.8331 1.00545 15.1605 1.00427C16.4881 1.0031 17.7618 1.52937 18.7014 2.4673C19.641 3.40524 20.1695 4.67801 20.1707 6.00562C20.1719 7.33322 19.6456 8.60693 18.7077 9.54652L18.7062 9.54796L10.117 18.1171C10.1169 18.1172 10.1168 18.1174 10.1167 18.1175C9.55392 18.6801 8.79072 18.9961 7.99492 18.9961C7.19898 18.9961 6.43563 18.68 5.87282 18.1171C5.31 17.5543 4.99381 16.791 4.99381 15.995C4.99381 15.1991 5.31 14.4357 5.87282 13.8729L14.3632 5.39251C14.754 5.00222 15.3872 5.00259 15.7774 5.39334C16.1677 5.7841 16.1674 6.41726 15.7766 6.80756L7.28703 15.2871C7.09929 15.4749 6.99381 15.7295 6.99381 15.995C6.99381 16.2605 7.09929 16.5152 7.28703 16.7029C7.47478 16.8907 7.72941 16.9961 7.99492 16.9961C8.26043 16.9961 8.51507 16.8907 8.70282 16.7029L17.2922 8.13355C17.2925 8.13326 17.2928 8.13296 17.2931 8.13267C17.8557 7.56857 18.1714 6.80414 18.1707 6.00738C18.17 5.2102 17.8526 4.44596 17.2884 3.88276Z" fill="black"/>
</svg>
