<svg width="24" height="24" viewBox="0 0 24 24" fill="none" xmlns="http://www.w3.org/2000/svg">
<path fill-rule="evenodd" clip-rule="evenodd" d="M14.4996 5.36183C13.3849 5.94264 12.6282 7.15859 12.9779 8.79045C13.0401 9.08071 12.9701 9.38359 12.7869 9.61716C12.6037 9.85072 12.3262 9.99082 12.0295 9.99955C8.8533 10.093 5.68323 8.90754 3.33194 6.77791C2.17223 10.5584 4.34471 14.8593 8.28743 16.0422C8.63596 16.1467 8.90018 16.4323 8.97734 16.7879C9.05451 17.1435 8.93243 17.5129 8.65859 17.7526C7.72719 18.5675 6.6254 19.167 5.44473 19.5424C12.6551 21.7458 20.3026 15.6202 19.0126 7.55797C18.962 7.24134 19.0662 6.91961 19.293 6.69287C19.4741 6.51172 19.6445 6.3078 19.8029 6.09233C19.5442 6.156 19.2701 6.19998 19.0001 6.19998C18.7468 6.19998 18.5029 6.10386 18.3178 5.93103C17.1476 4.83891 15.6361 4.76975 14.4996 5.36183ZM22.0001 3.99998C22.9488 4.31621 22.9487 4.31639 22.9486 4.31657L22.9482 4.31797L22.9473 4.32051C22.9467 4.32246 22.9458 4.32492 22.9448 4.32788C22.9428 4.3338 22.9401 4.34172 22.9367 4.35155C22.9299 4.3712 22.9203 4.39851 22.9079 4.43277C22.8831 4.50125 22.8472 4.59771 22.8003 4.71634C22.7066 4.95306 22.5679 5.2811 22.3853 5.65315C22.0842 6.26634 21.6424 7.04363 21.0565 7.72865C22.3643 18.3194 10.6486 25.9318 1.44762 19.8335C1.07288 19.5851 0.909959 19.1172 1.0494 18.6898C1.18885 18.2624 1.59638 17.9806 2.04549 18.001C3.40598 18.0629 4.75236 17.7813 5.91186 17.2016C1.55046 14.7954 -0.367412 9.10199 2.12146 4.52247C2.27908 4.23244 2.56968 4.03888 2.89805 4.0052C3.22641 3.97152 3.55025 4.10205 3.76347 4.35404C5.53211 6.44424 8.16427 7.75899 10.8911 7.97358C10.9017 5.98024 12.0241 4.39644 13.5755 3.58813C15.2934 2.6931 17.5349 2.74856 19.3144 4.15277C19.4009 4.1318 19.5004 4.10309 19.6127 4.06514C19.8908 3.97114 20.1895 3.84066 20.4727 3.70192C20.7537 3.5643 21.0052 3.42559 21.1869 3.32095C21.2773 3.26888 21.3493 3.22588 21.3977 3.19651C21.4219 3.18184 21.4401 3.17061 21.4518 3.16341C21.4576 3.15981 21.4617 3.15721 21.4642 3.1557L21.4661 3.15449C21.4662 3.15445 21.4662 3.15441 21.4663 3.15437C21.4662 3.15443 21.4661 3.15449 22.0001 3.99998ZM21.4663 3.15437C21.4663 3.15435 21.4663 3.15434 21.4664 3.15432C21.4664 3.15427 21.4665 3.15422 21.4666 3.15417C21.8239 2.92881 22.2843 2.95226 22.6168 3.21282C22.9496 3.47351 23.0824 3.91522 22.9488 4.31621L22.0001 3.99998" fill="black"/>
</svg>
