<svg width="24" height="24" viewBox="0 0 24 24" fill="none" xmlns="http://www.w3.org/2000/svg">
<path fill-rule="evenodd" clip-rule="evenodd" d="M8 3C5.23858 3 3 5.23858 3 8C3 10.7614 5.23858 13 8 13C10.7614 13 13 10.7614 13 8C13 5.23858 10.7614 3 8 3ZM1 8C1 4.13401 4.13401 1 8 1C11.866 1 15 4.13401 15 8C15 11.866 11.866 15 8 15C4.13401 15 1 11.866 1 8Z" fill="black"/>
<path fill-rule="evenodd" clip-rule="evenodd" d="M17.1531 10.0207C17.346 9.5032 17.922 9.24009 18.4394 9.43302C19.5423 9.84419 20.5237 10.5268 21.2928 11.4178C22.062 12.3087 22.594 13.3792 22.8398 14.5303C23.0856 15.6813 23.0372 16.8758 22.699 18.0032C22.3608 19.1306 21.7439 20.1545 20.9051 20.9802C20.0664 21.806 19.033 22.4069 17.9004 22.7275C16.7679 23.048 15.5728 23.0778 14.4257 22.8141C13.2787 22.5503 12.2166 22.0016 11.3377 21.2187C10.4589 20.4357 9.79169 19.4438 9.39778 18.3347C9.21295 17.8143 9.48501 17.2425 10.0054 17.0577C10.5259 16.8729 11.0976 17.1449 11.2825 17.6654C11.5638 18.4576 12.0404 19.1661 12.6681 19.7254C13.2959 20.2846 14.0545 20.6765 14.8739 20.8649C15.6932 21.0533 16.5468 21.032 17.3558 20.803C18.1647 20.5741 18.9029 20.1449 19.502 19.555C20.1011 18.9652 20.5418 18.2338 20.7833 17.4286C21.0249 16.6233 21.0595 15.7701 20.8839 14.9479C20.7083 14.1257 20.3283 13.3611 19.7789 12.7247C19.2295 12.0883 18.5285 11.6007 17.7408 11.307C17.2233 11.1141 16.9602 10.5382 17.1531 10.0207Z" fill="black"/>
<path fill-rule="evenodd" clip-rule="evenodd" d="M6 6C6 5.44772 6.44772 5 7 5H8C8.55228 5 9 5.44772 9 6V10C9 10.5523 8.55228 11 8 11C7.44772 11 7 10.5523 7 10V7C6.44772 7 6 6.55228 6 6Z" fill="black"/>
<path fill-rule="evenodd" clip-rule="evenodd" d="M16.008 13.1679C16.4013 12.7802 17.0344 12.7846 17.4222 13.1779L18.1222 13.8879C18.508 14.2792 18.5058 14.9085 18.1172 15.2971L15.2972 18.1171C14.9067 18.5076 14.2735 18.5076 13.883 18.1171C13.4925 17.7266 13.4925 17.0934 13.883 16.7029L16.0009 14.585L15.998 14.5821C15.6102 14.1888 15.6147 13.5556 16.008 13.1679Z" fill="black"/>
</svg>
