<svg width="24" height="24" viewBox="0 0 24 24" fill="none" xmlns="http://www.w3.org/2000/svg">
<g clip-path="url(#clip0_11_34538)">
<path fill-rule="evenodd" clip-rule="evenodd" d="M3 1C3.55228 1 4 1.44772 4 2V2.86135C4.08459 2.92023 4.2171 2.99052 4.44721 3.10557C4.45874 3.11134 4.47066 3.11728 4.48293 3.1234C4.70661 3.23494 5.04866 3.4055 5.32768 3.63803C5.65495 3.91075 6 4.35488 6 5C6 5.64512 5.65495 6.08925 5.32768 6.36197C5.04866 6.5945 4.70661 6.76506 4.48293 6.8766C4.47066 6.88272 4.45874 6.88866 4.44721 6.89443C4.36686 6.9346 4.29841 6.96932 4.23974 7C4.29841 7.03068 4.36686 7.0654 4.44721 7.10557C4.45874 7.11134 4.47066 7.11728 4.48293 7.1234C4.70661 7.23494 5.04866 7.40551 5.32768 7.63803C5.65495 7.91075 6 8.35488 6 9C6 9.64512 5.65495 10.0892 5.32768 10.362C5.04866 10.5945 4.70661 10.7651 4.48294 10.8766C4.47066 10.8827 4.45874 10.8887 4.44721 10.8944C4.36686 10.9346 4.29841 10.9693 4.23974 11C4.29841 11.0307 4.36686 11.0654 4.44721 11.1056C4.45874 11.1113 4.47066 11.1173 4.48294 11.1234C4.70661 11.2349 5.04866 11.4055 5.32768 11.638C5.65495 11.9108 6 12.3549 6 13C6 13.5523 5.55228 14 5 14C4.49736 14 4.08134 13.6292 4.0106 13.1462C3.92658 13.0857 3.79275 13.0144 3.55279 12.8944C3.54125 12.8887 3.52934 12.8827 3.51706 12.8766C3.29338 12.7651 2.95134 12.5945 2.67232 12.362C2.34505 12.0892 2 11.6451 2 11C2 10.3549 2.34505 9.91075 2.67232 9.63803C2.95134 9.40551 3.29339 9.23494 3.51707 9.1234C3.52934 9.11728 3.54126 9.11134 3.55279 9.10557C3.63314 9.0654 3.70159 9.03068 3.76026 9C3.70159 8.96932 3.63314 8.9346 3.55279 8.89443C3.54126 8.88866 3.52934 8.88272 3.51707 8.8766C3.29339 8.76506 2.95134 8.59449 2.67232 8.36197C2.34505 8.08925 2 7.64512 2 7C2 6.35488 2.34505 5.91075 2.67232 5.63803C2.95134 5.4055 3.29339 5.23494 3.51707 5.1234C3.52934 5.11728 3.54126 5.11134 3.55279 5.10557C3.63314 5.0654 3.70159 5.03068 3.76026 5C3.70159 4.96932 3.63314 4.9346 3.55279 4.89443C3.54126 4.88866 3.52934 4.88272 3.51707 4.8766C3.29339 4.76506 2.95134 4.5945 2.67232 4.36197C2.34505 4.08925 2 3.64512 2 3V2C2 1.44772 2.44772 1 3 1Z" fill="black"/>
<path fill-rule="evenodd" clip-rule="evenodd" d="M17 6C17 5.44772 17.4477 5 18 5H18.01C18.5623 5 19.01 5.44772 19.01 6C19.01 6.55228 18.5623 7 18.01 7H18C17.4477 7 17 6.55228 17 6Z" fill="black"/>
<path fill-rule="evenodd" clip-rule="evenodd" d="M5 18C5 17.4477 5.44772 17 6 17H6.01C6.56228 17 7.01 17.4477 7.01 18C7.01 18.5523 6.56228 19 6.01 19H6C5.44772 19 5 18.5523 5 18Z" fill="black"/>
<path fill-rule="evenodd" clip-rule="evenodd" d="M16.0858 1.37857C16.6927 1.12719 17.3431 0.997803 18 0.997803C18.6569 0.997803 19.3074 1.12719 19.9143 1.37857C20.5212 1.62996 21.0726 1.99842 21.5371 2.46292C22.0016 2.92742 22.3701 3.47886 22.6215 4.08576C22.8729 4.69266 23.0023 5.34313 23.0023 6.00003C23.0023 6.65693 22.8729 7.3074 22.6215 7.9143C22.3701 8.52119 22.0016 9.07263 21.5371 9.53713L9.53713 21.5371C8.59903 22.4752 7.3267 23.0023 6.00003 23.0023C5.34313 23.0023 4.69266 22.8729 4.08576 22.6215C3.47886 22.3701 2.92742 22.0016 2.46292 21.5371C1.99842 21.0726 1.62996 20.5212 1.37857 19.9143C1.12719 19.3074 0.997803 18.6569 0.997803 18C0.997803 16.6734 1.52482 15.401 2.46292 14.4629L14.4629 2.46292C14.9274 1.99842 15.4789 1.62996 16.0858 1.37857ZM18 2.9978C17.6058 2.9978 17.2154 3.07546 16.8511 3.22633C16.4869 3.37721 16.1559 3.59835 15.8771 3.87713L3.87713 15.8771C3.31411 16.4402 2.9978 17.2038 2.9978 18C2.9978 18.3943 3.07546 18.7847 3.22633 19.1489C3.37721 19.5132 3.59835 19.8441 3.87713 20.1229C4.15592 20.4017 4.48688 20.6228 4.85113 20.7737C5.21537 20.9246 5.60577 21.0023 6.00003 21.0023C6.79627 21.0023 7.55989 20.6859 8.12292 20.1229L20.1229 8.12292C20.4017 7.84414 20.6228 7.51318 20.7737 7.14893C20.9246 6.78468 21.0023 6.39428 21.0023 6.00003C21.0023 5.60577 20.9246 5.21537 20.7737 4.85113C20.6228 4.48688 20.4017 4.15592 20.1229 3.87713C19.8441 3.59835 19.5132 3.37721 19.1489 3.22633C18.7847 3.07546 18.3943 2.9978 18 2.9978Z" fill="black"/>
<path fill-rule="evenodd" clip-rule="evenodd" d="M22 5C22.5523 5 23 5.44772 23 6V18C23 19.3261 22.4732 20.5979 21.5355 21.5355C20.5979 22.4732 19.3261 23 18 23C17.4477 23 17 22.5523 17 22V11.66C17 11.1077 17.4477 10.66 18 10.66C18.5523 10.66 19 11.1077 19 11.66V20.8284C19.4179 20.6807 19.8019 20.4407 20.1213 20.1213C20.6839 19.5587 21 18.7956 21 18V6C21 5.44772 21.4477 5 22 5Z" fill="black"/>
</g>
<defs>
<clipPath id="clip0_11_34538">
<rect width="24" height="24" fill="white"/>
</clipPath>
</defs>
</svg>
