<svg width="24" height="24" viewBox="0 0 24 24" fill="none" xmlns="http://www.w3.org/2000/svg">
<path fill-rule="evenodd" clip-rule="evenodd" d="M1.29289 1.29289C1.68342 0.902369 2.31658 0.902369 2.70711 1.29289L22.7071 21.2929C23.0976 21.6834 23.0976 22.3166 22.7071 22.7071C22.3166 23.0976 21.6834 23.0976 21.2929 22.7071L1.29289 2.70711C0.902369 2.31658 0.902369 1.68342 1.29289 1.29289Z" fill="black"/>
<path fill-rule="evenodd" clip-rule="evenodd" d="M13.8354 3.19637C12.1232 2.8373 10.3435 2.98504 8.71393 3.62149C8.19949 3.82242 7.61957 3.56826 7.41865 3.05383C7.21772 2.53939 7.47188 1.95947 7.98632 1.75854C9.978 0.980651 12.1532 0.800092 14.2459 1.23895C16.3386 1.67781 18.258 2.71707 19.7694 4.22959C21.2807 5.74212 22.3185 7.66233 22.7557 9.75535C23.193 11.8484 23.0107 14.0235 22.2313 16.0145C22.03 16.5288 21.4499 16.7825 20.9356 16.5812C20.4213 16.3799 20.1676 15.7998 20.3689 15.2855C21.0066 13.6564 21.1557 11.8768 20.798 10.1643C20.4403 8.45187 19.5912 6.88078 18.3546 5.64326C17.118 4.40574 15.5476 3.55544 13.8354 3.19637Z" fill="black"/>
<path fill-rule="evenodd" clip-rule="evenodd" d="M5.62704 4.21288C6.01757 4.6034 6.01757 5.23657 5.62704 5.62709C4.79014 6.46399 4.12628 7.45753 3.67335 8.551C3.22042 9.64446 2.9873 10.8164 2.9873 12C2.9873 13.1835 3.22042 14.3555 3.67335 15.449C4.12628 16.5424 4.79014 17.536 5.62704 18.3729C6.46394 19.2098 7.45749 19.8736 8.55095 20.3266C9.64441 20.7795 10.8164 21.0126 11.9999 21.0126C13.1835 21.0126 14.3555 20.7795 15.4489 20.3266C16.5424 19.8736 17.5359 19.2098 18.3728 18.3729C18.7634 17.9824 19.3965 17.9824 19.787 18.3729C20.1776 18.7634 20.1776 19.3966 19.787 19.7871C18.7644 20.8097 17.5504 21.6209 16.2143 22.1743C14.8782 22.7278 13.4461 23.0126 11.9999 23.0126C10.5537 23.0126 9.1217 22.7278 7.78558 22.1743C6.44947 21.6209 5.23545 20.8097 4.21283 19.7871C3.19021 18.7645 2.37903 17.5504 1.82559 16.2143C1.27215 14.8782 0.987305 13.4462 0.987305 12C0.987305 10.5538 1.27215 9.12174 1.82559 7.78563C2.37903 6.44952 3.19021 5.23549 4.21283 4.21288C4.60335 3.82235 5.23652 3.82235 5.62704 4.21288Z" fill="black"/>
</svg>
