<svg width="24" height="24" viewBox="0 0 24 24" fill="none" xmlns="http://www.w3.org/2000/svg">
<path fill-rule="evenodd" clip-rule="evenodd" d="M15 7C15 6.44772 15.4477 6 16 6H16.01C16.5623 6 17.01 6.44772 17.01 7C17.01 7.55228 16.5623 8 16.01 8H16C15.4477 8 15 7.55228 15 7Z" fill="black"/>
<path fill-rule="evenodd" clip-rule="evenodd" d="M14.3906 2.25552C15.3991 1.91269 16.4906 1.90085 17.5063 2.22173C18.5219 2.5426 19.4085 3.17942 20.037 4.03939C20.6651 4.89896 21.0025 5.93658 21 7.00118V10C21 12.387 20.0518 14.6761 18.3639 16.364C16.6761 18.0518 14.3869 19 12 19H3.92165L2.81894 20.5738C2.50203 21.0261 1.87845 21.1359 1.42614 20.819C0.973832 20.5021 0.86407 19.8785 1.18098 19.4262L2.55374 17.4669C2.57091 17.4397 2.58936 17.4134 2.609 17.3881L11.9 4.12765C11.9002 4.12737 11.9004 4.12709 11.9005 4.1268C12.5102 3.25383 13.3825 2.59824 14.3906 2.25552ZM5.32296 17H12C13.8565 17 15.637 16.2625 16.9497 14.9498C18.2625 13.637 19 11.8565 19 10V7.00001L19 6.99737C19.0017 6.3583 18.7992 5.73539 18.4222 5.21941C18.0451 4.70343 17.5131 4.32134 16.9037 4.12881C16.2944 3.93629 15.6394 3.94339 15.0344 4.14909C14.4293 4.35479 13.9057 4.74833 13.54 5.27237L5.32296 17Z" fill="black"/>
<path fill-rule="evenodd" clip-rule="evenodd" d="M19.0298 6.75746C19.1638 6.22166 19.7067 5.8959 20.2425 6.02985L22.2425 6.52985C22.6877 6.64114 23 7.04112 23 7.49999C23 7.95886 22.6877 8.35884 22.2425 8.47013L20.2425 8.97013C19.7067 9.10408 19.1638 8.77832 19.0298 8.24253C18.9643 7.9805 19.0088 7.71676 19.134 7.49999C19.0088 7.28322 18.9643 7.01948 19.0298 6.75746Z" fill="black"/>
<path fill-rule="evenodd" clip-rule="evenodd" d="M10 17C10.5523 17 11 17.4477 11 18V21C11 21.5523 10.5523 22 10 22C9.44772 22 9 21.5523 9 21V18C9 17.4477 9.44772 17 10 17Z" fill="black"/>
<path fill-rule="evenodd" clip-rule="evenodd" d="M14 16.75C14.5523 16.75 15 17.1977 15 17.75V21C15 21.5523 14.5523 22 14 22C13.4477 22 13 21.5523 13 21V17.75C13 17.1977 13.4477 16.75 14 16.75Z" fill="black"/>
<path fill-rule="evenodd" clip-rule="evenodd" d="M10.0717 6.74999C10.4252 6.32565 11.0557 6.26822 11.4801 6.62171C12.5854 7.54251 13.3802 8.78152 13.7563 10.1701C14.1324 11.5587 14.0715 13.0295 13.5819 14.3823C13.0923 15.735 12.1978 16.9041 11.0201 17.7304C9.84237 18.5566 8.43869 19 7.00005 19C6.44777 19.0001 6.00003 18.5524 6 18.0001C5.99997 17.4478 6.44767 17.0001 6.99995 17C8.02755 17 9.03018 16.6833 9.87139 16.0931C10.7126 15.5029 11.3515 14.6679 11.7013 13.7016C12.051 12.7354 12.0945 11.6848 11.8258 10.693C11.5572 9.7011 10.9895 8.81609 10.2 8.15837C9.77561 7.80488 9.71818 7.17433 10.0717 6.74999Z" fill="black"/>
</svg>
