<svg width="24" height="24" viewBox="0 0 24 24" fill="none" xmlns="http://www.w3.org/2000/svg">
<path fill-rule="evenodd" clip-rule="evenodd" d="M11.7814 6.84136C11.9187 6.30641 12.4637 5.98406 12.9986 6.12136C13.6926 6.29948 14.326 6.66073 14.8326 7.16735C15.3392 7.67398 15.7005 8.30738 15.8786 9.00136C16.0159 9.5363 15.6935 10.0813 15.1586 10.2186C14.6237 10.3559 14.0787 10.0335 13.9414 9.49857C13.8523 9.15158 13.6717 8.83488 13.4184 8.58156C13.1651 8.32825 12.8484 8.14763 12.5014 8.05857C11.9664 7.92127 11.6441 7.3763 11.7814 6.84136Z" fill="black"/>
<path fill-rule="evenodd" clip-rule="evenodd" d="M6.00293 4.61097C6.45635 4.92629 6.56832 5.54948 6.253 6.0029C5.43715 7.17611 4.9999 8.57091 5 9.9999V9.99997C5 12.1593 6.21668 14.4866 7.79774 16.564C9.32602 18.5719 11.0797 20.198 12 20.9966C12.9348 20.1855 14.7293 18.5207 16.2732 16.4704C16.6054 16.0293 17.2323 15.9409 17.6735 16.2731C18.1147 16.6053 18.2031 17.2323 17.8709 17.6735C16.1761 19.9241 14.2237 21.7191 13.2545 22.5559C13.2375 22.5706 13.22 22.5847 13.202 22.5982C12.8554 22.8588 12.4336 22.9997 12 22.9997C11.5664 22.9997 11.1446 22.8588 10.798 22.5982C10.78 22.5847 10.7625 22.5706 10.7455 22.5559C9.79028 21.7311 7.88287 19.9781 6.20626 17.7752C4.55284 15.6028 3.00003 12.8337 3 10M6.00293 4.61097C5.5495 4.29566 4.92632 4.40762 4.611 4.86105L6.00293 4.61097ZM4.611 4.86105C3.56206 6.36943 2.99988 8.16272 3 9.99997L4.611 4.86105Z" fill="black"/>
<path fill-rule="evenodd" clip-rule="evenodd" d="M1.29289 1.29289C1.68342 0.902369 2.31658 0.902369 2.70711 1.29289L22.7071 21.2929C23.0976 21.6834 23.0976 22.3166 22.7071 22.7071C22.3166 23.0976 21.6834 23.0976 21.2929 22.7071L1.29289 2.70711C0.902369 2.31658 0.902369 1.68342 1.29289 1.29289Z" fill="black"/>
<path fill-rule="evenodd" clip-rule="evenodd" d="M12.3534 3.00843C11.166 2.94843 9.98294 3.19183 8.9157 3.71567C8.41992 3.95902 7.82074 3.75439 7.57739 3.25861C7.33404 2.76283 7.53867 2.16364 8.03445 1.92029C9.40662 1.24677 10.9277 0.933836 12.4543 1.01098C13.9809 1.08813 15.4627 1.55282 16.76 2.36124C18.0573 3.16966 19.1273 4.29517 19.8691 5.63164C20.6109 6.96809 21.0002 8.47145 21.0001 9.99998M12.3534 3.00843C13.5407 3.06844 14.6932 3.42987 15.7022 4.05864L12.3534 3.00843ZM15.7022 4.05864C16.7112 4.68741 17.5435 5.5628 18.1204 6.60228L15.7022 4.05864ZM18.1204 6.60228C18.6974 7.64175 19.0001 8.81105 19.0001 9.99992L18.1204 6.60228ZM19.0001 9.99992V9.99998V9.99992ZM19.0001 9.99998C19.0001 11.0103 18.7345 12.0672 18.2723 13.136L19.0001 9.99998ZM21.0001 10C21.0001 11.3557 20.6456 12.6868 20.1079 13.93C19.8887 14.4369 19.3 14.6701 18.7931 14.4508C18.2862 14.2316 18.053 13.6429 18.2723 13.136" fill="black"/>
<path fill-rule="evenodd" clip-rule="evenodd" d="M9.4194 8.17284C9.94804 8.33272 10.247 8.89087 10.0871 9.41951C9.98234 9.76591 9.97353 10.1342 10.0616 10.4852C10.1497 10.8363 10.3314 11.1568 10.5873 11.4127C10.8431 11.6686 11.1637 11.8503 11.5147 11.9383C11.8657 12.0264 12.234 12.0176 12.5804 11.9128C13.1091 11.753 13.6672 12.0519 13.8271 12.5805C13.987 13.1092 13.688 13.6673 13.1594 13.8272C12.4666 14.0367 11.7299 14.0544 11.0279 13.8782C10.3259 13.702 9.68483 13.3387 9.17304 12.8269C8.66124 12.3151 8.29791 11.674 8.12175 10.972C7.94559 10.27 7.96321 9.53334 8.17273 8.84054C8.33261 8.3119 8.89076 8.01296 9.4194 8.17284Z" fill="black"/>
</svg>
