<svg width="24" height="24" viewBox="0 0 24 24" fill="none" xmlns="http://www.w3.org/2000/svg">
<path fill-rule="evenodd" clip-rule="evenodd" d="M18 16C16.8954 16 16 16.8954 16 18C16 19.1046 16.8954 20 18 20C19.1046 20 20 19.1046 20 18C20 16.8954 19.1046 16 18 16ZM14 18C14 15.7909 15.7909 14 18 14C20.2091 14 22 15.7909 22 18C22 20.2091 20.2091 22 18 22C15.7909 22 14 20.2091 14 18Z" fill="black"/>
<path fill-rule="evenodd" clip-rule="evenodd" d="M8.38965 4.11724C8.24203 4.03862 8.07705 3.99829 7.9098 3.99993C7.90654 3.99996 7.90327 3.99997 7.9 3.99997H4C3.73478 3.99997 3.48043 4.10533 3.29289 4.29287C3.10536 4.4804 3 4.73476 3 4.99997V18C3 18.2652 3.10536 18.5195 3.29289 18.7071C3.48043 18.8946 3.73478 19 4 19H10.3C10.8523 19 11.3 19.4477 11.3 20C11.3 20.5523 10.8523 21 10.3 21H4C3.20435 21 2.44129 20.6839 1.87868 20.1213C1.31607 19.5587 1 18.7956 1 18V4.99997C1 4.20432 1.31607 3.44126 1.87868 2.87865C2.44129 2.31604 3.20435 1.99997 4 1.99997H7.89559C8.39548 1.99597 8.88846 2.11695 9.32975 2.35195C9.77076 2.58681 10.1461 2.92809 10.4217 3.34477L11.2288 4.5405C11.231 4.54365 11.2331 4.5468 11.2352 4.54997C11.3262 4.68824 11.4502 4.80173 11.5959 4.88028C11.7416 4.95879 11.9045 4.99992 12.07 4.99997C12.0701 4.99997 12.0701 4.99997 12.0702 4.99997H20C20.7956 4.99997 21.5587 5.31604 22.1213 5.87865C22.6839 6.44126 23 7.20432 23 7.99997V11.3C23 11.8523 22.5523 12.3 22 12.3C21.4477 12.3 21 11.8523 21 11.3V7.99997C21 7.73476 20.8946 7.4804 20.7071 7.29287C20.5196 7.10533 20.2652 6.99997 20 6.99997H12.07V5.99812L12.0698 6.99997C11.5732 6.99989 11.0843 6.8765 10.6471 6.64088C10.2117 6.40625 9.84114 6.06764 9.56829 5.65521L8.76115 4.45945C8.75902 4.45629 8.7569 4.45311 8.7548 4.44993C8.66282 4.31024 8.53728 4.19585 8.38965 4.11724Z" fill="black"/>
<path fill-rule="evenodd" clip-rule="evenodd" d="M19.8514 18.7838C20.026 18.2598 20.5924 17.9767 21.1163 18.1513L22.0163 18.4513C22.5402 18.626 22.8234 19.1923 22.6488 19.7162C22.4741 20.2402 21.9078 20.5233 21.3839 20.3487L20.4838 20.0487C19.9599 19.874 19.6767 19.3077 19.8514 18.7838Z" fill="black"/>
<path fill-rule="evenodd" clip-rule="evenodd" d="M13.3514 16.2838C13.526 15.7598 14.0924 15.4767 14.6163 15.6513L15.5163 15.9513C16.0402 16.126 16.3234 16.6923 16.1488 17.2162C15.9741 17.7402 15.4078 18.0233 14.8838 17.8487L13.9838 17.5487C13.4599 17.374 13.1767 16.8077 13.3514 16.2838Z" fill="black"/>
<path fill-rule="evenodd" clip-rule="evenodd" d="M17.2162 19.8513C17.7402 20.0259 18.0233 20.5922 17.8487 21.1162L17.5487 22.0162C17.374 22.5401 16.8077 22.8233 16.2838 22.6486C15.7598 22.474 15.4767 21.9077 15.6513 21.3837L15.9513 20.4837C16.126 19.9598 16.6923 19.6766 17.2162 19.8513Z" fill="black"/>
<path fill-rule="evenodd" clip-rule="evenodd" d="M19.7162 13.3513C20.2402 13.5259 20.5233 14.0922 20.3487 14.6162L20.0487 15.5162C19.874 16.0401 19.3077 16.3233 18.7838 16.1486C18.2598 15.974 17.9767 15.4077 18.1513 14.8837L18.4513 13.9837C18.626 13.4598 19.1923 13.1766 19.7162 13.3513Z" fill="black"/>
<path fill-rule="evenodd" clip-rule="evenodd" d="M18.8286 19.7715C19.3414 19.5664 19.9233 19.8158 20.1284 20.3286L20.5284 21.3286C20.7336 21.8414 20.4841 22.4233 19.9714 22.6284C19.4586 22.8336 18.8766 22.5841 18.6715 22.0714L18.2715 21.0714C18.0664 20.5586 18.3158 19.9766 18.8286 19.7715Z" fill="black"/>
<path fill-rule="evenodd" clip-rule="evenodd" d="M16.0287 13.3715C16.5414 13.1664 17.1234 13.4158 17.3285 13.9286L17.7285 14.9286C17.9336 15.4413 17.6842 16.0233 17.1714 16.2284C16.6587 16.4335 16.0767 16.1841 15.8716 15.6713L15.4716 14.6713C15.2665 14.1586 15.5159 13.5766 16.0287 13.3715Z" fill="black"/>
<path fill-rule="evenodd" clip-rule="evenodd" d="M16.2285 18.8286C16.4337 19.3414 16.1842 19.9233 15.6715 20.1284L14.6715 20.5284C14.1587 20.7336 13.5767 20.4841 13.3716 19.9714C13.1665 19.4586 13.4159 18.8766 13.9287 18.6715L14.9287 18.2715C15.4415 18.0664 16.0234 18.3158 16.2285 18.8286Z" fill="black"/>
<path fill-rule="evenodd" clip-rule="evenodd" d="M22.6284 16.0287C22.8336 16.5414 22.5841 17.1234 22.0714 17.3285L21.0714 17.7285C20.5586 17.9336 19.9766 17.6842 19.7715 17.1714C19.5664 16.6587 19.8158 16.0767 20.3286 15.8716L21.3286 15.4716C21.8414 15.2665 22.4233 15.5159 22.6284 16.0287Z" fill="black"/>
</svg>
