<svg width="24" height="24" viewBox="0 0 24 24" fill="none" xmlns="http://www.w3.org/2000/svg">
<path fill-rule="evenodd" clip-rule="evenodd" d="M10.4797 2.39403C10.9382 2.12685 11.4594 1.98608 11.9901 1.98608C12.5207 1.98608 13.0419 2.12685 13.5004 2.39403C13.9584 2.66087 14.3374 3.04425 14.599 3.50516C14.5994 3.50575 14.5997 3.50634 14.6001 3.50693L22.5961 17.5C22.5964 17.5006 22.5968 17.5013 22.5972 17.5019C22.8596 17.9573 22.9979 18.4736 22.998 18.9992C22.9981 19.5256 22.8598 20.0427 22.5968 20.4987C22.3339 20.9546 21.9556 21.3334 21.5 21.5969C21.0444 21.8604 20.5274 21.9994 20.0011 22H4.00412C3.47693 22.0039 2.95799 21.8687 2.49959 21.6082C2.03977 21.3468 1.65722 20.9685 1.39072 20.5117C1.12422 20.0548 0.983234 19.5356 0.982063 19.0067C0.980894 18.4786 1.11914 17.9596 1.3828 17.5021C1.38322 17.5014 1.38363 17.5007 1.38405 17.4999L9.38005 3.50693C9.38036 3.50639 9.38066 3.50585 9.38097 3.50531C9.64259 3.04434 10.0217 2.6609 10.4797 2.39403ZM11.9901 3.98608C11.8132 3.98608 11.6394 4.03301 11.4866 4.12207C11.3338 4.21113 11.2073 4.33913 11.1201 4.49303C11.1195 4.49406 11.1189 4.49509 11.1183 4.49612L3.11829 18.4961C3.11755 18.4974 3.1168 18.4987 3.11605 18.5C3.02789 18.6527 2.98167 18.826 2.98206 19.0023C2.98245 19.1786 3.02944 19.3516 3.11828 19.5039C3.20711 19.6562 3.33463 19.7823 3.4879 19.8694C3.64118 19.9566 3.81476 20.0016 3.99105 20C3.99405 20 3.99705 20 4.00005 20L19.999 20C19.9993 20 19.9996 20 19.9999 20C20.175 19.9997 20.347 19.9533 20.4987 19.8656C20.6505 19.7778 20.7766 19.6515 20.8643 19.4995C20.9519 19.3475 20.998 19.1752 20.998 18.9997C20.998 18.8243 20.9518 18.6519 20.864 18.5C20.8633 18.4987 20.8625 18.4974 20.8618 18.4961L12.861 4.49462L12.8601 4.49303C12.7728 4.33913 12.6464 4.21113 12.4935 4.12207C12.3407 4.03301 12.1669 3.98608 11.9901 3.98608Z" fill="black"/>
<path fill-rule="evenodd" clip-rule="evenodd" d="M12 8C12.5523 8 13 8.44772 13 9V13C13 13.5523 12.5523 14 12 14C11.4477 14 11 13.5523 11 13V9C11 8.44772 11.4477 8 12 8Z" fill="black"/>
<path fill-rule="evenodd" clip-rule="evenodd" d="M11 17C11 16.4477 11.4477 16 12 16H12.01C12.5623 16 13.01 16.4477 13.01 17C13.01 17.5523 12.5623 18 12.01 18H12C11.4477 18 11 17.5523 11 17Z" fill="black"/>
</svg>
