<svg width="24" height="24" viewBox="0 0 24 24" fill="none" xmlns="http://www.w3.org/2000/svg">
<path fill-rule="evenodd" clip-rule="evenodd" d="M22.3827 1.07615C22.7563 1.23093 23 1.59557 23 2.00003V5.00003C23 5.55231 22.5523 6.00003 22 6.00003C21.4477 6.00003 21 5.55231 21 5.00003V4.41424L16.8171 8.59714C16.4266 8.98766 15.7934 8.98766 15.4029 8.59714C15.0124 8.20661 15.0124 7.57345 15.4029 7.18292L21.2929 1.29292C21.5789 1.00692 22.009 0.921369 22.3827 1.07615Z" fill="black"/>
<path fill-rule="evenodd" clip-rule="evenodd" d="M16.6 13.89C15.4954 13.89 14.6 14.7854 14.6 15.89C14.6 16.9946 15.4954 17.89 16.6 17.89C17.7045 17.89 18.6 16.9946 18.6 15.89C18.6 14.7854 17.7045 13.89 16.6 13.89ZM12.6 15.89C12.6 13.6809 14.3908 11.89 16.6 11.89C18.8091 11.89 20.6 13.6809 20.6 15.89C20.6 18.0992 18.8091 19.89 16.6 19.89C14.3908 19.89 12.6 18.0992 12.6 15.89Z" fill="black"/>
<path fill-rule="evenodd" clip-rule="evenodd" d="M8.10998 5.40002C7.00542 5.40002 6.10999 6.29545 6.10999 7.40002C6.10999 8.50459 7.00542 9.40002 8.10998 9.40002C9.21455 9.40002 10.11 8.50459 10.11 7.40002C10.11 6.29545 9.21455 5.40002 8.10998 5.40002ZM4.10999 7.40002C4.10999 5.19089 5.90085 3.40002 8.10998 3.40002C10.3191 3.40002 12.11 5.19089 12.11 7.40002C12.11 9.60916 10.3191 11.4 8.10998 11.4C5.90085 11.4 4.10999 9.60916 4.10999 7.40002Z" fill="black"/>
<path fill-rule="evenodd" clip-rule="evenodd" d="M12.35 9.65002C11.2454 9.65002 10.35 10.5455 10.35 11.65C10.35 12.7546 11.2454 13.65 12.35 13.65C13.4545 13.65 14.35 12.7546 14.35 11.65C14.35 10.5455 13.4545 9.65002 12.35 9.65002ZM8.34998 11.65C8.34998 9.44089 10.1408 7.65002 12.35 7.65002C14.5591 7.65002 16.35 9.44089 16.35 11.65C16.35 13.8592 14.5591 15.65 12.35 15.65C10.1408 15.65 8.34998 13.8592 8.34998 11.65Z" fill="black"/>
<path fill-rule="evenodd" clip-rule="evenodd" d="M13.91 3.84998C12.8055 3.84998 11.91 4.74541 11.91 5.84998C11.91 6.95455 12.8055 7.84998 13.91 7.84998C15.0146 7.84998 15.91 6.95455 15.91 5.84998C15.91 4.74541 15.0146 3.84998 13.91 3.84998ZM9.91003 5.84998C9.91003 3.64084 11.7009 1.84998 13.91 1.84998C16.1192 1.84998 17.91 3.64084 17.91 5.84998C17.91 8.05911 16.1192 9.84998 13.91 9.84998C11.7009 9.84998 9.91003 8.05911 9.91003 5.84998Z" fill="black"/>
<path fill-rule="evenodd" clip-rule="evenodd" d="M18.15 8.08997C17.0455 8.08997 16.15 8.9854 16.15 10.09C16.15 11.1945 17.0455 12.09 18.15 12.09C19.2546 12.09 20.15 11.1945 20.15 10.09C20.15 8.9854 19.2546 8.08997 18.15 8.08997ZM14.15 10.09C14.15 7.88083 15.9409 6.08997 18.15 6.08997C20.3592 6.08997 22.15 7.88083 22.15 10.09C22.15 12.2991 20.3592 14.09 18.15 14.09C15.9409 14.09 14.15 12.2991 14.15 10.09Z" fill="black"/>
<path fill-rule="evenodd" clip-rule="evenodd" d="M6.56006 11.2C5.45549 11.2 4.56006 12.0954 4.56006 13.2C4.56006 14.3045 5.45549 15.2 6.56006 15.2C7.66463 15.2 8.56006 14.3045 8.56006 13.2C8.56006 12.0954 7.66463 11.2 6.56006 11.2ZM2.56006 13.2C2.56006 10.9908 4.35092 9.19995 6.56006 9.19995C8.7692 9.19995 10.5601 10.9908 10.5601 13.2C10.5601 15.4091 8.7692 17.2 6.56006 17.2C4.35092 17.2 2.56006 15.4091 2.56006 13.2Z" fill="black"/>
<path fill-rule="evenodd" clip-rule="evenodd" d="M10.8 15.4399C9.69548 15.4399 8.80005 16.3354 8.80005 17.4399C8.80005 18.5445 9.69548 19.4399 10.8 19.4399C11.9046 19.4399 12.8 18.5445 12.8 17.4399C12.8 16.3354 11.9046 15.4399 10.8 15.4399ZM6.80005 17.4399C6.80005 15.2308 8.59091 13.4399 10.8 13.4399C13.0092 13.4399 14.8 15.2308 14.8 17.4399C14.8 19.6491 13.0092 21.4399 10.8 21.4399C8.59091 21.4399 6.80005 19.6491 6.80005 17.4399Z" fill="black"/>
<path fill-rule="evenodd" clip-rule="evenodd" d="M5 17C3.89543 17 3 17.8954 3 19C3 20.1046 3.89543 21 5 21C6.10457 21 7 20.1046 7 19C7 17.8954 6.10457 17 5 17ZM1 19C1 16.7909 2.79086 15 5 15C7.20914 15 9 16.7909 9 19C9 21.2091 7.20914 23 5 23C2.79086 23 1 21.2091 1 19Z" fill="black"/>
</svg>
