<svg width="24" height="24" viewBox="0 0 24 24" fill="none" xmlns="http://www.w3.org/2000/svg">
<path fill-rule="evenodd" clip-rule="evenodd" d="M5.60708 1.19292C5.99761 1.58344 5.99761 2.21661 5.60708 2.60713C2.09761 6.11661 2.09761 11.8834 5.60708 15.3929C5.99761 15.7834 5.99761 16.4166 5.60708 16.8071C5.21656 17.1977 4.58339 17.1977 4.19287 16.8071C-0.0976557 12.5166 -0.0976557 5.48344 4.19287 1.19292C4.58339 0.802393 5.21656 0.802393 5.60708 1.19292Z" fill="black"/>
<path fill-rule="evenodd" clip-rule="evenodd" d="M8.49448 3.98041C8.89187 4.36394 8.9031 4.99701 8.51957 5.3944C7.72538 6.21729 7.2283 7.28153 7.10701 8.4187C6.98571 9.55587 7.24712 10.701 7.84986 11.6729C8.14094 12.1423 7.99643 12.7587 7.52708 13.0498C7.05772 13.3409 6.44127 13.1964 6.15019 12.727C5.31292 11.3769 4.94979 9.78622 5.11829 8.20657C5.28678 6.62692 5.97728 5.14857 7.08049 4.0055C7.46402 3.60811 8.09708 3.59688 8.49448 3.98041Z" fill="black"/>
<path fill-rule="evenodd" clip-rule="evenodd" d="M12 8C11.4477 8 11 8.44772 11 9C11 9.55228 11.4477 10 12 10C12.5523 10 13 9.55228 13 9C13 8.44772 12.5523 8 12 8ZM9 9C9 7.34315 10.3431 6 12 6C13.6569 6 15 7.34315 15 9C15 10.6569 13.6569 12 12 12C10.3431 12 9 10.6569 9 9Z" fill="black"/>
<path fill-rule="evenodd" clip-rule="evenodd" d="M15.4928 4.09294C15.8834 3.70242 16.5165 3.70242 16.9071 4.09294C19.254 6.43985 19.5401 10.0647 17.8504 12.7962C17.5598 13.2658 16.9435 13.411 16.4738 13.1205C16.0042 12.8299 15.859 12.2136 16.1495 11.7439C17.3798 9.75536 17.1459 7.16025 15.4928 5.50716C15.1023 5.11663 15.1023 4.48347 15.4928 4.09294Z" fill="black"/>
<path fill-rule="evenodd" clip-rule="evenodd" d="M18.3921 1.19364C18.7823 0.802718 19.4154 0.802069 19.8064 1.19219C20.8265 2.21021 21.6358 3.41943 22.188 4.75062C22.7402 6.08182 23.0244 7.50885 23.0244 8.95002C23.0244 10.3912 22.7402 11.8182 22.188 13.1494C21.6358 14.4806 20.8265 15.6898 19.8064 16.7079C19.4154 17.098 18.7823 17.0973 18.3921 16.7064C18.002 16.3155 18.0027 15.6823 18.3936 15.2922C19.2276 14.4599 19.8892 13.4714 20.3406 12.3831C20.792 11.2948 21.0244 10.1282 21.0244 8.95002C21.0244 7.77183 20.792 6.60521 20.3406 5.51694C19.8892 4.42866 19.2276 3.44011 18.3936 2.60786C18.0027 2.21773 18.002 1.58457 18.3921 1.19364Z" fill="black"/>
<path fill-rule="evenodd" clip-rule="evenodd" d="M8.5 18C8.5 17.4477 8.94772 17 9.5 17H14.5C15.0523 17 15.5 17.4477 15.5 18C15.5 18.5523 15.0523 19 14.5 19H9.5C8.94772 19 8.5 18.5523 8.5 18Z" fill="black"/>
<path fill-rule="evenodd" clip-rule="evenodd" d="M12 10C12.4205 10 12.7961 10.2631 12.9398 10.6583L16.9398 21.6583C17.1286 22.1773 16.8608 22.7511 16.3418 22.9398C15.8227 23.1285 15.249 22.8608 15.0602 22.3417L12 13.9262L8.93982 22.3417C8.75108 22.8608 8.17732 23.1285 7.65828 22.9398C7.13925 22.7511 6.8715 22.1773 7.06023 21.6583L11.0602 10.6583C11.2039 10.2631 11.5795 10 12 10Z" fill="black"/>
</svg>
