<svg width="24" height="24" viewBox="0 0 24 24" fill="none" xmlns="http://www.w3.org/2000/svg">
<path fill-rule="evenodd" clip-rule="evenodd" d="M13.092 3.42215L9.42203 7.09216C9.17179 7.36798 9.03296 7.72723 9.03296 8.10005C9.03296 8.47287 9.17179 8.83212 9.42203 9.10794L14.892 14.5779C15.1679 14.8282 15.5271 14.967 15.8999 14.967C16.2728 14.967 16.632 14.8282 16.9078 14.5779L20.5778 10.908C20.8281 10.6321 20.9669 10.2729 20.9669 9.90005C20.9669 9.52723 20.8281 9.16797 20.5778 8.89215L15.1078 3.42215C14.832 3.17191 14.4727 3.03308 14.0999 3.03308C13.7271 3.03308 13.3679 3.17191 13.092 3.42215ZM11.7199 1.96684C12.3671 1.36661 13.2172 1.03308 14.0999 1.03308C14.9826 1.03308 15.8327 1.36661 16.4799 1.96684C16.4891 1.97537 16.4982 1.98407 16.507 1.99294L22.007 7.49294C22.0159 7.50181 22.0246 7.51085 22.0331 7.52005C22.6334 8.16725 22.9669 9.01735 22.9669 9.90005C22.9669 10.7827 22.6334 11.6328 22.0331 12.2801C22.0246 12.2892 22.0159 12.2983 22.007 12.3072L18.307 16.0072C18.2982 16.016 18.2891 16.0247 18.2799 16.0333C17.6327 16.6335 16.7826 16.967 15.8999 16.967C15.0172 16.967 14.1671 16.6335 13.5199 16.0333C13.5107 16.0247 13.5017 16.016 13.4928 16.0072L7.99282 10.5072C7.98395 10.4983 7.97525 10.4892 7.96672 10.4801C7.36648 9.83285 7.03296 8.98275 7.03296 8.10005C7.03296 7.21735 7.36648 6.36725 7.96672 5.72005C7.97525 5.71085 7.98395 5.70182 7.99282 5.69294L11.6928 1.99294C11.7017 1.98407 11.7107 1.97537 11.7199 1.96684Z" fill="black"/>
<path fill-rule="evenodd" clip-rule="evenodd" d="M13.2929 6.29289C13.6834 5.90237 14.3166 5.90237 14.7071 6.29289L17.7071 9.29289C18.0976 9.68342 18.0976 10.3166 17.7071 10.7071C17.3166 11.0976 16.6834 11.0976 16.2929 10.7071L13.2929 7.70711C12.9024 7.31658 12.9024 6.68342 13.2929 6.29289Z" fill="black"/>
<path fill-rule="evenodd" clip-rule="evenodd" d="M10.1071 9.89287C10.4976 10.2834 10.4976 10.9166 10.1071 11.3071L3.29311 18.1211L2.58491 17.4129L3.293 18.1212C3.1055 18.3086 3.00011 18.5629 3 18.828C3 18.828 3 18.8281 3 18.8282V21H6V20C6 19.4695 6.21071 18.9608 6.58579 18.5858C6.96086 18.2107 7.46957 18 8 18H9V17C9 16.4695 9.21071 15.9608 9.58579 15.5858C9.96086 15.2107 10.4696 15 11 15H11.1718C11.1719 15 11.1719 15 11.172 15C11.4371 14.9999 11.6913 14.8945 11.8788 14.707L12.585 15.413L11.8789 14.7069L12.6929 13.8929C13.0834 13.5023 13.7166 13.5023 14.1071 13.8929C14.4976 14.2834 14.4976 14.9166 14.1071 15.3071L13.2932 16.121C12.7307 16.6836 11.9678 16.9998 11.1722 17L11 17V18C11 18.5304 10.7893 19.0391 10.4142 19.4142C10.0391 19.7893 9.53043 20 9 20L8 20V21C8 21.5304 7.78929 22.0391 7.41421 22.4142C7.03914 22.7893 6.53043 23 6 23H3C2.46957 23 1.96086 22.7893 1.58579 22.4142C1.21071 22.0391 1 21.5304 1 21V18.8278C1.00017 18.0322 1.31631 17.2693 1.87889 16.7069C1.87893 16.7068 1.87896 16.7068 1.879 16.7068L8.69289 9.89287C9.08342 9.50234 9.71658 9.50234 10.1071 9.89287Z" fill="black"/>
</svg>
