<svg width="24" height="24" viewBox="0 0 24 24" fill="none" xmlns="http://www.w3.org/2000/svg">
<path fill-rule="evenodd" clip-rule="evenodd" d="M1 12C1 11.4477 1.44772 11 2 11H5C5.55228 11 6 11.4477 6 12C6 12.5523 5.55228 13 5 13H2C1.44772 13 1 12.5523 1 12Z" fill="black"/>
<path fill-rule="evenodd" clip-rule="evenodd" d="M18 12C18 11.4477 18.4477 11 19 11H22C22.5523 11 23 11.4477 23 12C23 12.5523 22.5523 13 22 13H19C18.4477 13 18 12.5523 18 12Z" fill="black"/>
<path fill-rule="evenodd" clip-rule="evenodd" d="M12 1C12.5523 1 13 1.44772 13 2V5C13 5.55228 12.5523 6 12 6C11.4477 6 11 5.55228 11 5V2C11 1.44772 11.4477 1 12 1Z" fill="black"/>
<path fill-rule="evenodd" clip-rule="evenodd" d="M12 18C12.5523 18 13 18.4477 13 19V22C13 22.5523 12.5523 23 12 23C11.4477 23 11 22.5523 11 22V19C11 18.4477 11.4477 18 12 18Z" fill="black"/>
<path fill-rule="evenodd" clip-rule="evenodd" d="M7.81711 6.40288C8.20763 6.7934 8.20763 7.42657 7.81711 7.81709C6.69688 8.93732 6 10.402 6 12C6 15.3177 8.68229 18 12 18C13.5979 18 15.0627 17.3031 16.1829 16.1829C16.5734 15.7924 17.2066 15.7924 17.5971 16.1829C17.9876 16.5734 17.9876 17.2066 17.5971 17.5971C16.1573 19.0369 14.2021 20 12 20C7.57772 20 4 16.4223 4 12C4 9.79793 4.96312 7.84265 6.40289 6.40288C6.79342 6.01235 7.42658 6.01235 7.81711 6.40288Z" fill="black"/>
<path fill-rule="evenodd" clip-rule="evenodd" d="M9.75132 4.33259C10.4733 4.11486 11.2305 4 12.0001 4C16.4223 4 20.0001 7.57772 20.0001 12C20.0001 12.7696 19.8852 13.5268 19.6675 14.2487C19.508 14.7775 18.9501 15.0769 18.4213 14.9174C17.8926 14.7579 17.5932 14.2 17.7527 13.6713C17.9149 13.1332 18.0001 12.5704 18.0001 12C18.0001 8.68228 15.3178 6 12.0001 6C11.4296 6 10.8669 6.08514 10.3288 6.24741C9.80004 6.40687 9.24212 6.1075 9.08265 5.57874C8.92318 5.04998 9.22256 4.49206 9.75132 4.33259Z" fill="black"/>
<path fill-rule="evenodd" clip-rule="evenodd" d="M1.29289 1.29289C1.68342 0.902369 2.31658 0.902369 2.70711 1.29289L22.7071 21.2929C23.0976 21.6834 23.0976 22.3166 22.7071 22.7071C22.3166 23.0976 21.6834 23.0976 21.2929 22.7071L1.29289 2.70711C0.902369 2.31658 0.902369 1.68342 1.29289 1.29289Z" fill="black"/>
</svg>
