<svg width="24" height="24" viewBox="0 0 24 24" fill="none" xmlns="http://www.w3.org/2000/svg">
<path fill-rule="evenodd" clip-rule="evenodd" d="M8 7C8 5.89543 8.89543 5 10 5C11.1046 5 12 5.89543 12 7C12 8.10457 11.1046 9 10 9C8.89543 9 8 8.10457 8 7Z" fill="black"/>
<path fill-rule="evenodd" clip-rule="evenodd" d="M2 20C2 18.8954 2.89543 18 4 18C5.10457 18 6 18.8954 6 20C6 21.1046 5.10457 22 4 22C2.89543 22 2 21.1046 2 20Z" fill="black"/>
<path fill-rule="evenodd" clip-rule="evenodd" d="M19.7071 4.29289C20.0976 4.68342 20.0976 5.31658 19.7071 5.70711L5.40706 20.0071C5.01653 20.3976 4.38337 20.3976 3.99284 20.0071C3.60232 19.6166 3.60232 18.9834 3.99284 18.5929L18.2928 4.29289C18.6834 3.90237 19.3165 3.90237 19.7071 4.29289Z" fill="black"/>
<path fill-rule="evenodd" clip-rule="evenodd" d="M21.7071 2.29292C21.975 2.56075 22.0685 2.95692 21.9487 3.31625L20.9487 6.31626C20.8391 6.64505 20.5671 6.89365 20.2298 6.97328C19.8925 7.0529 19.538 6.9522 19.2929 6.70713L17.2929 4.70713C17.0478 4.46207 16.9471 4.10758 17.0268 3.77027C17.1064 3.43297 17.355 3.16094 17.6838 3.05134L20.6838 2.05134C21.0431 1.93157 21.4393 2.02509 21.7071 2.29292Z" fill="black"/>
<path fill-rule="evenodd" clip-rule="evenodd" d="M9.96217 6.96814C10.3554 7.35593 10.3598 7.98908 9.97206 8.38232L6.17154 12.2364L7.9285 16.6288C8.13362 17.1416 7.8842 17.7235 7.37142 17.9287C6.85863 18.1338 6.27666 17.8843 6.07155 17.3716L4.07155 12.3716C3.92393 12.0025 4.0089 11.5811 4.28799 11.298L8.54799 6.97803C8.93578 6.58479 9.56893 6.58036 9.96217 6.96814Z" fill="black"/>
<path fill-rule="evenodd" clip-rule="evenodd" d="M19.2071 11.7929C19.5977 12.1834 19.5977 12.8166 19.2071 13.2071L15.7071 16.7071C15.4243 16.99 15 17.077 14.6286 16.9285L9.62863 14.9285C9.11585 14.7234 8.86643 14.1414 9.07155 13.6286C9.27666 13.1158 9.85863 12.8664 10.3714 13.0715L14.7592 14.8266L17.7929 11.7929C18.1834 11.4024 18.8166 11.4024 19.2071 11.7929Z" fill="black"/>
<path fill-rule="evenodd" clip-rule="evenodd" d="M18.2929 10.2929C18.6834 9.90237 19.3166 9.90237 19.7071 10.2929L20.7071 11.2929C21.0976 11.6834 21.0976 12.3166 20.7071 12.7071L19.7071 13.7071C19.3166 14.0976 18.6834 14.0976 18.2929 13.7071L17.2929 12.7071C16.9024 12.3166 16.9024 11.6834 17.2929 11.2929L18.2929 10.2929Z" fill="black"/>
</svg>
