<svg width="24" height="24" viewBox="0 0 24 24" fill="none" xmlns="http://www.w3.org/2000/svg">
<g clip-path="url(#clip0_11_29815)">
<path fill-rule="evenodd" clip-rule="evenodd" d="M18.5002 3.66618C17.3508 3.00306 15.985 2.82371 14.7034 3.16756C13.4218 3.51142 12.3292 4.35032 11.6661 5.49972C11.6615 5.50768 11.6568 5.51558 11.652 5.52341L3.06168 19.5076C2.93339 19.739 2.9004 20.0116 2.97012 20.2672C3.04099 20.5271 3.21218 20.7481 3.44604 20.8817C3.67989 21.0154 3.95726 21.0506 4.21711 20.9798C4.34578 20.9447 4.46627 20.8846 4.57172 20.8029C4.67716 20.7213 4.76549 20.6196 4.83165 20.5039C4.83666 20.4951 4.84179 20.4864 4.84706 20.4778L13.4114 6.49028C13.606 6.15275 13.8645 5.8563 14.1725 5.61754C14.4851 5.37513 14.8427 5.19697 15.2245 5.09331C15.6063 4.98965 16.0049 4.96253 16.3972 5.01353C16.7896 5.06452 17.1679 5.19262 17.5106 5.39045C17.8532 5.58827 18.1533 5.85191 18.3936 6.1662C18.634 6.48048 18.8098 6.8392 18.9109 7.2217C19.012 7.6042 19.0365 8.00292 18.9829 8.39491C18.9293 8.78691 18.7987 9.16443 18.5986 9.50574C18.5319 9.61951 18.4883 9.74535 18.4705 9.87601C18.4526 10.0067 18.4608 10.1396 18.4945 10.2671C18.5282 10.3946 18.5868 10.5142 18.6669 10.6189C18.747 10.7237 18.847 10.8116 18.9613 10.8775C19.0755 10.9434 19.2016 10.9861 19.3324 11.0031C19.4631 11.0201 19.596 11.0111 19.7233 10.9765C19.8505 10.942 19.9697 10.8826 20.074 10.8018C20.1782 10.721 20.2654 10.6204 20.3306 10.5057C20.3316 10.5039 20.3327 10.5021 20.3337 10.5003C20.9968 9.35087 21.1762 7.98513 20.8323 6.70349C20.4885 5.42185 19.6496 4.32929 18.5002 3.66618ZM14.1851 1.23587C15.9791 0.75457 17.8908 1.00562 19.4996 1.93381C21.1085 2.86199 22.2827 4.39127 22.764 6.18523C23.2451 7.97823 22.9945 9.88884 22.0676 11.4972C21.8722 11.8399 21.6111 12.1407 21.2993 12.3825C20.9867 12.6249 20.6291 12.803 20.2473 12.9067C19.8655 13.0103 19.4669 13.0375 19.0746 12.9865C18.6822 12.9355 18.3039 12.8074 17.9612 12.6095C17.6186 12.4117 17.3185 12.1481 17.0782 11.8338C16.8378 11.5195 16.662 11.1608 16.5609 10.7783C16.4598 10.3958 16.4353 9.99707 16.4889 9.60507C16.5425 9.21308 16.6731 8.83556 16.8732 8.49425C16.9399 8.38048 16.9834 8.25464 17.0013 8.12397C17.0192 7.99331 17.011 7.8604 16.9773 7.7329C16.9436 7.6054 16.885 7.48583 16.8049 7.38107C16.7248 7.27631 16.6248 7.18843 16.5105 7.12248C16.3963 7.05654 16.2702 7.01384 16.1394 6.99685C16.0086 6.97985 15.8758 6.98888 15.7485 7.02344C15.6212 7.05799 15.5021 7.11738 15.3978 7.19818C15.2936 7.27898 15.2064 7.3796 15.1412 7.49425C15.1359 7.50364 15.1304 7.51295 15.1247 7.52217L6.55984 21.5106C6.36431 21.8484 6.10501 22.1451 5.79629 22.3842C5.48319 22.6267 5.1254 22.8051 4.74335 22.9093C3.97175 23.1197 3.14816 23.015 2.45376 22.6182C1.75936 22.2214 1.25103 21.565 1.04059 20.7934C0.830155 20.0218 0.934854 19.1983 1.33165 18.5039C1.3369 18.4947 1.34229 18.4856 1.34782 18.4766L9.94088 4.48787C10.8698 2.88539 12.3958 1.71594 14.1851 1.23587Z" fill="black"/>
<path fill-rule="evenodd" clip-rule="evenodd" d="M14.5105 1.22798C14.9921 0.957684 15.6017 1.129 15.872 1.61062L18.622 6.51062C18.8923 6.99224 18.721 7.60179 18.2394 7.87208C17.7577 8.14238 17.1482 7.97107 16.8779 7.48945L14.1279 2.58945C13.8576 2.10783 14.0289 1.49828 14.5105 1.22798Z" fill="black"/>
<path fill-rule="evenodd" clip-rule="evenodd" d="M10.4529 3.90557C10.9469 3.65858 11.5476 3.8588 11.7945 4.35278L13.8945 8.55278C14.1415 9.04676 13.9413 9.64743 13.4473 9.89442C12.9534 10.1414 12.3527 9.94118 12.1057 9.44721L10.0057 5.24721C9.7587 4.75323 9.95893 4.15256 10.4529 3.90557Z" fill="black"/>
<path fill-rule="evenodd" clip-rule="evenodd" d="M7.4861 8.78965C7.98888 8.56111 8.58173 8.78343 8.81027 9.28621L10.8103 13.6862C11.0388 14.189 10.8165 14.7818 10.3137 15.0104C9.81092 15.2389 9.21807 15.0166 8.98954 14.5138L6.98954 10.1138C6.761 9.61103 6.98332 9.01818 7.4861 8.78965Z" fill="black"/>
<path fill-rule="evenodd" clip-rule="evenodd" d="M4.45291 13.8056C4.94689 13.5586 5.54756 13.7588 5.79455 14.2528L7.89455 18.4528C8.14154 18.9468 7.94131 19.5474 7.44734 19.7944C6.95336 20.0414 6.35268 19.8412 6.10569 19.3472L4.00569 15.1472C3.7587 14.6532 3.95893 14.0525 4.45291 13.8056Z" fill="black"/>
</g>
<defs>
<clipPath id="clip0_11_29815">
<rect width="24" height="24" fill="white"/>
</clipPath>
</defs>
</svg>
