<svg width="24" height="24" viewBox="0 0 24 24" fill="none" xmlns="http://www.w3.org/2000/svg">
<path fill-rule="evenodd" clip-rule="evenodd" d="M3.8787 4.87868C4.44131 4.31607 5.20437 4 6.00002 4H18C18.7957 4 19.5587 4.31607 20.1213 4.87868C20.684 5.44129 21 6.20435 21 7V15.7631L22.173 18.1C22.1731 18.1 22.1731 18.1001 22.1731 18.1001C22.3273 18.4061 22.4002 18.7465 22.385 19.0887C22.3698 19.431 22.267 19.7636 22.0863 20.0548C21.9056 20.3459 21.6531 20.5857 21.3531 20.7512C21.0543 20.916 20.7183 21.0017 20.3771 21H3.62291C3.28169 21.0017 2.9457 20.916 2.64689 20.7512C2.3469 20.5857 2.09445 20.3459 1.91376 20.0548C1.73307 19.7636 1.63019 19.431 1.615 19.0887C1.59982 18.7466 1.67271 18.4064 1.82668 18.1006C1.82679 18.1004 1.8269 18.1002 1.827 18.1L3.00002 15.7631V7C3.00002 6.20435 3.31609 5.44129 3.8787 4.87868ZM4.61697 17L3.61304 19C3.61442 19 3.6158 19 3.61719 19L3.62002 19H20.38L20.3834 19L20.387 19L20.3863 18.9986L19.3831 17H4.61697ZM19 15V7C19 6.73478 18.8947 6.48043 18.7071 6.29289C18.5196 6.10536 18.2652 6 18 6H6.00002C5.7348 6 5.48045 6.10536 5.29291 6.29289C5.10538 6.48043 5.00002 6.73478 5.00002 7V15H19Z" fill="black"/>
</svg>
