<svg width="24" height="24" viewBox="0 0 24 24" fill="none" xmlns="http://www.w3.org/2000/svg">
<path fill-rule="evenodd" clip-rule="evenodd" d="M5 4C4.73478 4 4.48043 4.10536 4.29289 4.29289C4.10536 4.48043 4 4.73478 4 5V17C4 17.7956 4.31607 18.5587 4.87868 19.1213C5.44129 19.6839 6.20435 20 7 20C7.79565 20 8.55871 19.6839 9.12132 19.1213C9.68393 18.5587 10 17.7956 10 17V5C10 4.73478 9.89464 4.48043 9.70711 4.29289C9.51957 4.10536 9.26522 4 9 4H5ZM2.87868 2.87868C3.44129 2.31607 4.20435 2 5 2H9C9.79565 2 10.5587 2.31607 11.1213 2.87868C11.6839 3.44129 12 4.20435 12 5V17C12 18.3261 11.4732 19.5979 10.5355 20.5355C9.59785 21.4732 8.32608 22 7 22C5.67392 22 4.40215 21.4732 3.46447 20.5355C2.52678 19.5979 2 18.3261 2 17V5C2 4.20435 2.31607 3.44129 2.87868 2.87868Z" fill="black"/>
<path fill-rule="evenodd" clip-rule="evenodd" d="M15.7 13C15.7 12.4477 16.1477 12 16.7 12H19C19.7957 12 20.5587 12.3161 21.1213 12.8787C21.6839 13.4413 22 14.2043 22 15V19C22 19.7957 21.6839 20.5587 21.1213 21.1213C20.5587 21.6839 19.7957 22 19 22H7C6.44772 22 6 21.5523 6 21C6 20.4477 6.44772 20 7 20H19C19.2652 20 19.5196 19.8946 19.7071 19.7071C19.8946 19.5196 20 19.2652 20 19V15C20 14.7348 19.8946 14.4804 19.7071 14.2929C19.5196 14.1054 19.2652 14 19 14H16.7C16.1477 14 15.7 13.5523 15.7 13Z" fill="black"/>
<path fill-rule="evenodd" clip-rule="evenodd" d="M6 17C6 16.4477 6.44772 16 7 16H7.01C7.56228 16 8.01 16.4477 8.01 17C8.01 17.5523 7.56228 18 7.01 18H7C6.44772 18 6 17.5523 6 17Z" fill="black"/>
<path fill-rule="evenodd" clip-rule="evenodd" d="M15.0016 5.99414C14.817 5.99392 14.6343 6.03019 14.4638 6.10086C14.2933 6.17153 14.1385 6.2752 14.0082 6.40592L11.707 8.70715C11.3165 9.09768 10.6833 9.09768 10.2928 8.70715C9.90227 8.31663 9.90227 7.68346 10.2928 7.29294L12.5916 4.99417C12.5918 4.99395 12.592 4.99372 12.5922 4.99349C12.9084 4.67636 13.2842 4.42482 13.6979 4.25332C14.1119 4.0817 14.5557 3.99362 15.0039 3.99414C15.4521 3.99467 15.8957 4.08379 16.3093 4.25639C16.7222 4.42869 17.097 4.68079 17.4123 4.99823C17.4128 4.99877 17.4134 4.9993 17.4139 4.99984L19.3007 6.88667C19.6239 7.19942 19.8818 7.57318 20.0595 7.98634C20.2386 8.40273 20.3326 8.85073 20.336 9.304C20.3395 9.75726 20.2522 10.2066 20.0795 10.6257C19.9071 11.0437 19.6532 11.4231 19.3324 11.7417L10.6086 20.5055C10.219 20.8969 9.58583 20.8984 9.19441 20.5088C8.803 20.1191 8.80155 19.486 9.19118 19.0946L17.9172 10.3286C17.9187 10.327 17.9203 10.3255 17.9218 10.3239C18.0544 10.1925 18.1593 10.0359 18.2304 9.86337C18.3016 9.69081 18.3375 9.50578 18.3361 9.31914C18.3347 9.1325 18.296 8.94803 18.2222 8.77658C18.1485 8.60512 18.0412 8.45014 17.9067 8.32075C17.902 8.31626 17.8974 8.31173 17.8928 8.30715L15.9968 6.41115C15.9958 6.41019 15.9949 6.40922 15.9939 6.40825C15.864 6.27723 15.7094 6.17319 15.5391 6.10212C15.3688 6.03106 15.1861 5.99436 15.0016 5.99414Z" fill="black"/>
</svg>
