<svg width="24" height="24" viewBox="0 0 24 24" fill="none" xmlns="http://www.w3.org/2000/svg">
<path fill-rule="evenodd" clip-rule="evenodd" d="M17 1C17.5523 1 18 1.44772 18 2V14C18 14.5523 17.5523 15 17 15C16.4477 15 16 14.5523 16 14V2C16 1.44772 16.4477 1 17 1Z" fill="black"/>
<path fill-rule="evenodd" clip-rule="evenodd" d="M6.50004 3C6.28367 3 6.07314 3.07018 5.90004 3.2C5.72705 3.32975 5.60078 3.51207 5.54015 3.71963C5.54013 3.71972 5.5401 3.7198 5.54008 3.71989C5.54006 3.71993 5.54005 3.71996 5.54004 3.72L3.21004 11.72C3.16658 11.869 3.1584 12.0261 3.18617 12.1789C3.21395 12.3316 3.2769 12.4758 3.37004 12.6C3.46319 12.7242 3.58398 12.825 3.72283 12.8944C3.86169 12.9639 4.0148 13 4.17004 13H10C10.3068 13 10.5965 13.1408 10.7861 13.3819C10.9757 13.623 11.0442 13.9378 10.9718 14.2359L9.97183 18.3559C9.97152 18.3571 9.97121 18.3584 9.97089 18.3597C9.89397 18.6713 9.88844 18.9962 9.95474 19.3102C10.021 19.6242 10.1574 19.9192 10.3537 20.1731C10.5501 20.427 10.8012 20.6333 11.0884 20.7765C11.1976 20.8309 11.311 20.8757 11.4272 20.9105L14.5545 14.665C14.5548 14.6645 14.555 14.664 14.5552 14.6636C14.8036 14.1644 15.1862 13.7443 15.6601 13.4504C16.1344 13.1563 16.6814 13.0003 17.2395 13H20C20.2653 13 20.5196 12.8946 20.7071 12.7071C20.8947 12.5196 21 12.2652 21 12V4C21 3.73478 20.8947 3.48043 20.7071 3.29289C20.5196 3.10536 20.2653 3 20 3H6.50004ZM4.70004 1.6C5.21933 1.21053 5.85093 1 6.50004 1H20C20.7957 1 21.5588 1.31607 22.1214 1.87868C22.684 2.44129 23 3.20435 23 4V12C23 12.7957 22.684 13.5587 22.1214 14.1213C21.5588 14.6839 20.7957 15 20 15H17.2406C17.0545 15.0001 16.8722 15.0521 16.7141 15.1501C16.556 15.2482 16.4284 15.3884 16.3456 15.555L16.3442 15.5577L12.8942 22.4477C12.7227 22.7902 12.3707 23.0047 11.9877 22.9999C11.3654 22.9922 10.753 22.844 10.1961 22.5663C9.63914 22.2887 9.15217 21.8888 8.77153 21.3965C8.39089 20.9042 8.12642 20.3322 7.99787 19.7234C7.86947 19.1152 7.88001 18.4858 8.02871 17.8823C8.02887 17.8816 8.02903 17.881 8.02919 17.8803L8.72829 15H4.17004C3.70431 15 3.24497 14.8916 2.8284 14.6833C2.41184 14.475 2.04948 14.1726 1.77004 13.8C1.4906 13.4274 1.30175 12.9949 1.21843 12.5367C1.13514 12.0786 1.15962 11.6074 1.28994 11.1604C1.28997 11.1602 1.29001 11.1601 1.29004 11.16L3.62004 3.16C3.8018 2.53685 4.18076 1.98947 4.70004 1.6Z" fill="black"/>
</svg>
