<svg width="24" height="24" viewBox="0 0 24 24" fill="none" xmlns="http://www.w3.org/2000/svg">
<path fill-rule="evenodd" clip-rule="evenodd" d="M6.32219 3.93341C6.1899 3.89971 6.05211 3.89346 5.91731 3.91503C5.78252 3.93661 5.65356 3.98556 5.5384 4.05886C5.42323 4.13216 5.3243 4.22827 5.24769 4.34126C5.23788 4.35571 5.22771 4.36991 5.21716 4.38383C3.77537 6.28737 2.99663 8.6107 3.00001 10.9986L3.00001 11C3.00001 13.387 3.94822 15.6762 5.63605 17.364C7.32388 19.0518 9.61306 20 12 20C14.387 20 16.6761 19.0518 18.364 17.364C20.0518 15.6762 21 13.387 21 11C21 9.14353 20.2625 7.36306 18.9498 6.0503C17.637 4.73755 15.8565 4.00005 14 4.00005C12.1435 4.00005 10.363 4.73755 9.05026 6.0503C8.85064 6.24993 8.66431 6.46037 8.49186 6.68026C8.46632 6.71497 8.44002 6.74916 8.41296 6.78279C7.5013 7.99053 7.00001 9.46945 7.00001 11C7.00001 12.3261 7.5268 13.5979 8.46448 14.5356C9.40216 15.4733 10.6739 16 12 16C13.3261 16 14.5979 15.4733 15.5355 14.5356C16.4732 13.5979 17 12.3261 17 11C17 10.2044 16.6839 9.44134 16.1213 8.87873C15.5587 8.31612 14.7957 8.00005 14 8.00005C13.2044 8.00005 12.4413 8.31612 11.8787 8.87873C11.3161 9.44134 11 10.2044 11 11C11 11.2653 11.1054 11.5196 11.2929 11.7072C11.4804 11.8947 11.7348 12 12 12C12.2652 12 12.5196 11.8947 12.7071 11.7072C12.8947 11.5196 13 11.2653 13 11C13 10.4478 13.4477 10 14 10C14.5523 10 15 10.4478 15 11C15 11.7957 14.6839 12.5588 14.1213 13.1214C13.5587 13.684 12.7957 14 12 14C11.2044 14 10.4413 13.684 9.87869 13.1214C9.31608 12.5588 9.00001 11.7957 9.00001 11C9.00001 9.67397 9.5268 8.4022 10.4645 7.46452C11.4022 6.52683 12.6739 6.00005 14 6.00005C15.3261 6.00005 16.5979 6.52683 17.5355 7.46452C18.4732 8.4022 19 9.67397 19 11C19 12.8566 18.2625 14.637 16.9498 15.9498C15.637 17.2626 13.8565 18 12 18C10.1435 18 8.36302 17.2626 7.05026 15.9498C5.73751 14.637 5.00001 12.8566 5.00001 11C5.00001 9.08478 5.6105 7.23246 6.72371 5.70324C6.75364 5.65379 6.78828 5.60625 6.82769 5.56126C6.83226 5.55603 6.83679 5.55076 6.84125 5.54544C6.85842 5.5229 6.87571 5.50044 6.8931 5.47805C6.95108 5.39568 6.9964 5.30485 7.02736 5.20856C7.06915 5.0786 7.08388 4.94146 7.07066 4.80559C7.05743 4.66972 7.01653 4.53799 6.95046 4.41853C6.8844 4.29907 6.79458 4.19439 6.68652 4.11096C6.57847 4.02753 6.45448 3.9671 6.32219 3.93341ZM8.80254 3.65247C8.77118 3.58405 8.73721 3.51673 8.70067 3.45065C8.50248 3.09226 8.233 2.77825 7.90885 2.52795C7.58469 2.27765 7.21272 2.09638 6.81585 1.99529C6.41898 1.8942 6.00562 1.87544 5.60122 1.94017C5.19683 2.0049 4.80997 2.15174 4.46448 2.37165C4.12695 2.58648 3.83589 2.86661 3.60834 3.19547C1.91216 5.44355 0.99618 8.18416 1.00001 11.0008C1.0002 13.9179 2.15911 16.7155 4.22184 18.7782C6.28474 20.8411 9.08263 22 12 22C14.9174 22 17.7153 20.8411 19.7782 18.7782C21.8411 16.7153 23 13.9174 23 11C23 8.6131 22.0518 6.32392 20.364 4.63609C18.6761 2.94826 16.387 2.00005 14 2.00005C12.126 2.00005 10.3123 2.5845 8.80254 3.65247Z" fill="black"/>
</svg>
