<svg width="24" height="24" viewBox="0 0 24 24" fill="none" xmlns="http://www.w3.org/2000/svg">
<path fill-rule="evenodd" clip-rule="evenodd" d="M15.806 14.3971C16.161 14.8202 16.1059 15.4509 15.6829 15.806C14.5865 16.7261 14 17.4147 14 18.5C14 19.0909 13.8836 19.6761 13.6575 20.2221C13.4313 20.768 13.0998 21.2641 12.682 21.682C12.2641 22.0998 11.768 22.4313 11.2221 22.6575C10.6761 22.8836 10.0909 23 9.5 23C8.90905 23 8.32389 22.8836 7.77792 22.6575C7.23196 22.4313 6.73588 22.0998 6.31802 21.682C5.90016 21.2641 5.56869 20.768 5.34254 20.2221C5.1164 19.6761 5 19.091 5 18.5C5 17.9477 5.44772 17.5 6 17.5C6.55228 17.5 7 17.9477 7 18.5C7 18.8283 7.06466 19.1534 7.1903 19.4567C7.31594 19.76 7.50009 20.0356 7.73223 20.2678C7.96438 20.4999 8.23998 20.6841 8.54329 20.8097C8.84661 20.9353 9.1717 21 9.5 21C9.8283 21 10.1534 20.9353 10.4567 20.8097C10.76 20.6841 11.0356 20.4999 11.2678 20.2678C11.4999 20.0356 11.6841 19.76 11.8097 19.4567C11.9353 19.1534 12 18.8283 12 18.5C12 16.4453 13.2535 15.2339 14.3971 14.274C14.8202 13.919 15.4509 13.9741 15.806 14.3971Z" fill="black"/>
<path fill-rule="evenodd" clip-rule="evenodd" d="M6.68469 5.41419C7.20705 5.59351 7.48514 6.16234 7.30582 6.6847C7.10976 7.25583 7 7.86628 7 8.50001C7 9.0523 6.55228 9.50001 6 9.50001C5.44772 9.50001 5 9.0523 5 8.50001C5 7.63374 5.15024 6.8042 5.41418 6.03533C5.5935 5.51297 6.16232 5.23487 6.68469 5.41419Z" fill="black"/>
<path fill-rule="evenodd" clip-rule="evenodd" d="M15.0546 3.62347C14.1654 3.15707 13.1654 2.94299 12.1632 3.00446C11.161 3.06593 10.1947 3.40059 9.36913 3.97217C8.91505 4.28654 8.2921 4.1733 7.97772 3.71922C7.66334 3.26514 7.77659 2.64219 8.23066 2.32781C9.35643 1.54839 10.6741 1.09203 12.0408 1.00821C13.4075 0.924389 14.771 1.21631 15.9836 1.85232C17.1962 2.48833 18.2115 3.44416 18.9195 4.61616C19.6275 5.78817 20.0011 7.13164 19.9999 8.50089C19.9997 10.3324 19.4986 11.7089 18.7352 12.8247C18.4233 13.2805 17.801 13.3972 17.3452 13.0853C16.8894 12.7734 16.7727 12.1511 17.0846 11.6953C17.621 10.9113 17.9999 9.92801 17.9999 8.49999V8.49909C18.0008 7.49497 17.7268 6.50976 17.2076 5.65029C16.6884 4.79082 15.9438 4.08988 15.0546 3.62347Z" fill="black"/>
<path fill-rule="evenodd" clip-rule="evenodd" d="M11.5 6C11.5 5.44772 11.9477 5 12.5 5C13.4283 5 14.3185 5.36875 14.9749 6.02513C15.6313 6.6815 16 7.57174 16 8.5C16 9.05228 15.5523 9.5 15 9.5C14.4477 9.5 14 9.05228 14 8.5C14 8.10218 13.842 7.72064 13.5607 7.43934C13.2794 7.15804 12.8978 7 12.5 7C11.9477 7 11.5 6.55228 11.5 6ZM12.23 10.9079C12.7337 11.1343 12.9585 11.7263 12.7321 12.23C12.4955 12.7563 12.1121 13.2033 11.6279 13.5172C11.1437 13.8312 10.5792 13.9988 10.0021 14C9.4498 14.0012 9.00115 13.5544 9 13.0021C8.99885 12.4498 9.44563 12.0012 9.99791 12C10.1903 11.9996 10.3784 11.9437 10.5398 11.8391C10.7012 11.7344 10.829 11.5855 10.9079 11.41C11.1343 10.9063 11.7263 10.6815 12.23 10.9079Z" fill="black"/>
<path fill-rule="evenodd" clip-rule="evenodd" d="M1.29289 1.29289C1.68342 0.902369 2.31658 0.902369 2.70711 1.29289L22.7071 21.2929C23.0976 21.6834 23.0976 22.3166 22.7071 22.7071C22.3166 23.0976 21.6834 23.0976 21.2929 22.7071L1.29289 2.70711C0.902369 2.31658 0.902369 1.68342 1.29289 1.29289Z" fill="black"/>
</svg>
