<svg width="24" height="24" viewBox="0 0 24 24" fill="none" xmlns="http://www.w3.org/2000/svg">
<path fill-rule="evenodd" clip-rule="evenodd" d="M5 1C5.55228 1 6 1.44772 6 2C6 4.70449 5.1881 6.86848 4.3779 8.35385C3.97271 9.0967 3.56596 9.6737 3.25625 10.0694C3.10123 10.2675 2.96996 10.4209 2.87456 10.5277C2.82684 10.5811 2.78804 10.6229 2.75964 10.6528C2.74545 10.6678 2.73384 10.6799 2.72503 10.6889C2.72062 10.6934 2.71691 10.6972 2.71391 10.7003C2.71241 10.7018 2.7111 10.7031 2.70996 10.7042L2.7084 10.7058L2.70772 10.7065C2.70741 10.7068 2.70711 10.7071 2 10L2.70711 10.7071C2.31658 11.0976 1.68342 11.0976 1.29289 10.7071C0.903091 10.3173 0.902371 9.68576 1.29073 9.29506C1.29102 9.29477 1.2915 9.29427 1.29218 9.29357C1.29472 9.29097 1.29996 9.28555 1.30774 9.27734C1.32329 9.26093 1.34894 9.23339 1.38325 9.195C1.45192 9.11816 1.55502 8.9981 1.68124 8.83682C1.93404 8.5138 2.27729 8.0283 2.6221 7.39615C3.3119 6.13152 4 4.29551 4 2C4 1.44772 4.44771 1 5 1ZM1.29044 9.29536L1.29046 9.29534C1.29042 9.29538 1.29041 9.29538 1.29044 9.29536ZM1.29234 9.29345L1.29235 9.29344L1.29234 9.29345Z" fill="black"/>
<path fill-rule="evenodd" clip-rule="evenodd" d="M19 1C19.5523 1 20 1.44772 20 2C20 4.29551 20.6881 6.13152 21.3779 7.39615C21.7227 8.0283 22.066 8.5138 22.3188 8.83682C22.445 8.9981 22.5481 9.11816 22.6168 9.195C22.6511 9.23339 22.6767 9.26093 22.6923 9.27734C22.7 9.28555 22.7053 9.29097 22.7078 9.29357C22.7085 9.29426 22.709 9.29476 22.7093 9.29505C23.0976 9.68575 23.0969 10.3173 22.7071 10.7071C22.3166 11.0976 21.6834 11.0976 21.2929 10.7071L22 10C21.2929 10.7071 21.2926 10.7068 21.2923 10.7065L21.2916 10.7058L21.29 10.7042C21.2889 10.7031 21.2876 10.7018 21.2861 10.7003C21.2831 10.6972 21.2794 10.6934 21.275 10.6889C21.2662 10.6799 21.2546 10.6678 21.2404 10.6528C21.212 10.6229 21.1732 10.5811 21.1254 10.5277C21.03 10.4209 20.8988 10.2675 20.7437 10.0694C20.434 9.6737 20.0273 9.0967 19.6221 8.35385C18.8119 6.86848 18 4.70449 18 2C18 1.44772 18.4477 1 19 1ZM22.7096 9.29536C22.7096 9.29538 22.7096 9.29538 22.7095 9.29534L22.7096 9.29536Z" fill="black"/>
<path fill-rule="evenodd" clip-rule="evenodd" d="M10 1C10.5523 1 11 1.44772 11 2C11 6.95228 6.95228 11 2 11C1.44772 11 1 10.5523 1 10C1 9.44771 1.44772 9 2 9C5.84772 9 9 5.84772 9 2C9 1.44772 9.44771 1 10 1Z" fill="black"/>
<path fill-rule="evenodd" clip-rule="evenodd" d="M14 1C14.5523 1 15 1.44772 15 2C15 5.84772 18.1523 9 22 9C22.5523 9 23 9.44771 23 10C23 10.5523 22.5523 11 22 11C17.0477 11 13 6.95228 13 2C13 1.44772 13.4477 1 14 1Z" fill="black"/>
<path fill-rule="evenodd" clip-rule="evenodd" d="M1.29289 9.29289C1.68342 8.90237 2.31658 8.90237 2.70711 9.29289L2 10C2.70711 9.29289 2.70737 9.29316 2.70765 9.29343L2.70824 9.29402L2.70955 9.29534C2.71049 9.29629 2.71155 9.29736 2.71273 9.29855C2.71509 9.30094 2.71793 9.30383 2.72124 9.30722C2.72787 9.31401 2.73636 9.32279 2.7466 9.33354C2.76707 9.35504 2.79456 9.38444 2.82804 9.42151C2.89496 9.4956 2.98613 9.60063 3.09337 9.73468C3.30735 10.0022 3.58818 10.3887 3.86824 10.8789C4.426 11.8549 5 13.2762 5 15C5 15.5523 4.55228 16 4 16C3.44772 16 3 15.5523 3 15C3 13.7238 2.574 12.6451 2.13176 11.8711C1.91182 11.4863 1.69265 11.1853 1.53163 10.9841C1.45137 10.8837 1.38629 10.8091 1.34383 10.7621C1.32263 10.7386 1.30715 10.7221 1.29832 10.7128C1.29391 10.7082 1.29118 10.7054 1.29023 10.7044C1.29022 10.7044 1.29021 10.7044 1.29021 10.7044C0.902371 10.3137 0.903267 9.68252 1.29289 9.29289Z" fill="black"/>
<path fill-rule="evenodd" clip-rule="evenodd" d="M22.7071 9.29289C23.0967 9.68252 23.0976 10.3137 22.7098 10.7044C22.7089 10.7053 22.708 10.7062 22.7071 10.7071L22.0148 10.0148C22.7071 10.7071 22.7074 10.7069 22.7076 10.7066L22.7081 10.7062L22.7098 10.7044C22.7088 10.7054 22.7061 10.7082 22.7017 10.7128C22.6929 10.7221 22.6774 10.7386 22.6562 10.7621C22.6137 10.8091 22.5486 10.8837 22.4684 10.9841C22.3074 11.1853 22.0882 11.4863 21.8682 11.8711C21.426 12.6451 21 13.7238 21 15C21 15.5523 20.5523 16 20 16C19.4477 16 19 15.5523 19 15C19 13.2762 19.574 11.8549 20.1318 10.8789C20.4118 10.3887 20.6926 10.0022 20.9066 9.73468C21.0139 9.60063 21.105 9.4956 21.172 9.42151C21.2054 9.38444 21.2329 9.35504 21.2534 9.33354C21.2636 9.32279 21.2721 9.31401 21.2788 9.30722C21.2821 9.30383 21.2849 9.30094 21.2873 9.29855C21.2885 9.29736 21.2895 9.29629 21.2905 9.29534L21.2918 9.29402L21.2924 9.29343C21.2926 9.29316 21.2929 9.29289 22 10L21.2929 9.29289C21.6834 8.90237 22.3166 8.90237 22.7071 9.29289Z" fill="black"/>
<path fill-rule="evenodd" clip-rule="evenodd" d="M7 15C7 14.4477 7.44772 14 8 14H16C16.5523 14 17 14.4477 17 15C17 15.5523 16.5523 16 16 16H8C7.44772 16 7 15.5523 7 15Z" fill="black"/>
<path fill-rule="evenodd" clip-rule="evenodd" d="M4 20C3.73478 20 3.48043 20.1054 3.29289 20.2929C3.10536 20.4804 3 20.7348 3 21V22C3 22.5523 2.55228 23 2 23C1.44772 23 1 22.5523 1 22V21C1 20.2044 1.31607 19.4413 1.87868 18.8787C2.44129 18.3161 3.20435 18 4 18H8C8.79565 18 9.55871 18.3161 10.1213 18.8787C10.6839 19.4413 11 20.2043 11 21V22C11 22.5523 10.5523 23 10 23C9.44771 23 9 22.5523 9 22V21C9 20.7348 8.89464 20.4804 8.70711 20.2929C8.51957 20.1054 8.26522 20 8 20H4Z" fill="black"/>
<path fill-rule="evenodd" clip-rule="evenodd" d="M16 20C15.7348 20 15.4804 20.1054 15.2929 20.2929C15.1054 20.4804 15 20.7348 15 21V22C15 22.5523 14.5523 23 14 23C13.4477 23 13 22.5523 13 22V21C13 20.2043 13.3161 19.4413 13.8787 18.8787C14.4413 18.3161 15.2043 18 16 18H20C20.7957 18 21.5587 18.3161 22.1213 18.8787C22.6839 19.4413 23 20.2043 23 21V22C23 22.5523 22.5523 23 22 23C21.4477 23 21 22.5523 21 22V21C21 20.7348 20.8946 20.4804 20.7071 20.2929C20.5196 20.1054 20.2652 20 20 20H16Z" fill="black"/>
</svg>
