<svg width="24" height="24" viewBox="0 0 24 24" fill="none" xmlns="http://www.w3.org/2000/svg">
<path fill-rule="evenodd" clip-rule="evenodd" d="M8 8C7.44772 8 7 8.44772 7 9C7 9.55228 7.44772 10 8 10C8.55228 10 9 9.55228 9 9C9 8.44772 8.55228 8 8 8ZM5 9C5 7.34315 6.34315 6 8 6C9.65685 6 11 7.34315 11 9C11 10.6569 9.65685 12 8 12C6.34315 12 5 10.6569 5 9Z" fill="black"/>
<path fill-rule="evenodd" clip-rule="evenodd" d="M1.87868 2.87868C2.44129 2.31607 3.20435 2 4 2H20C20.7956 2 21.5587 2.31607 22.1213 2.87868C22.6839 3.44129 23 4.20435 23 5V15C23 15.7957 22.6839 16.5587 22.1213 17.1213C21.5587 17.6839 20.7957 18 20 18H4C3.20435 18 2.44129 17.6839 1.87868 17.1213C1.31607 16.5587 1 15.7956 1 15V5C1 4.20435 1.31607 3.44129 1.87868 2.87868ZM4 4C3.73478 4 3.48043 4.10536 3.29289 4.29289C3.10536 4.48043 3 4.73478 3 5V15C3 15.2652 3.10536 15.5196 3.29289 15.7071C3.48043 15.8946 3.73478 16 4 16H8.58579L14.3929 10.1929C14.394 10.1918 14.3952 10.1906 14.3963 10.1895C14.3976 10.1883 14.3988 10.187 14.4 10.1858C14.9635 9.63362 15.7217 9.32556 16.5106 9.32837C17.2995 9.33118 18.0556 9.64462 18.615 10.2008L18.6171 10.2029L21 12.5858V5C21 4.73478 20.8946 4.48043 20.7071 4.29289C20.5196 4.10536 20.2652 4 20 4H4ZM20.9365 15.3507L17.205 11.6192C17.2047 11.6189 17.2044 11.6186 17.2041 11.6183C17.0177 11.4334 16.7661 11.3293 16.5035 11.3284C16.2419 11.3274 15.9904 11.429 15.8029 11.6113L11.4142 16H20C20.2652 16 20.5196 15.8946 20.7071 15.7071C20.8091 15.6051 20.8868 15.4833 20.9365 15.3507Z" fill="black"/>
<path fill-rule="evenodd" clip-rule="evenodd" d="M7 21C7 20.4477 7.44772 20 8 20H16C16.5523 20 17 20.4477 17 21C17 21.5523 16.5523 22 16 22H8C7.44772 22 7 21.5523 7 21Z" fill="black"/>
<path fill-rule="evenodd" clip-rule="evenodd" d="M12 16C12.5523 16 13 16.4477 13 17V21C13 21.5523 12.5523 22 12 22C11.4477 22 11 21.5523 11 21V17C11 16.4477 11.4477 16 12 16Z" fill="black"/>
</svg>
