<svg width="24" height="24" viewBox="0 0 24 24" fill="none" xmlns="http://www.w3.org/2000/svg">
<path fill-rule="evenodd" clip-rule="evenodd" d="M12 1C12.5523 1 13 1.44772 13 2V4C13 4.55228 12.5523 5 12 5C11.4477 5 11 4.55228 11 4V2C11 1.44772 11.4477 1 12 1Z" fill="black"/>
<path fill-rule="evenodd" clip-rule="evenodd" d="M4.22282 4.22289C4.61335 3.83236 5.24651 3.83236 5.63704 4.22289L7.04704 5.63289C7.43756 6.02341 7.43756 6.65658 7.04704 7.0471C6.65651 7.43762 6.02335 7.43762 5.63283 7.0471L4.22282 5.6371C3.8323 5.24658 3.8323 4.61341 4.22282 4.22289Z" fill="black"/>
<path fill-rule="evenodd" clip-rule="evenodd" d="M19 12C19 11.4477 19.4477 11 20 11H22C22.5523 11 23 11.4477 23 12C23 12.5523 22.5523 13 22 13H20C19.4477 13 19 12.5523 19 12Z" fill="black"/>
<path fill-rule="evenodd" clip-rule="evenodd" d="M19.777 4.22289C20.1675 4.61341 20.1675 5.24657 19.777 5.6371L18.367 7.0471C17.9765 7.43762 17.3433 7.43762 16.9528 7.0471C16.5623 6.65658 16.5623 6.02341 16.9528 5.63289L18.3628 4.22289C18.7533 3.83236 19.3865 3.83236 19.777 4.22289Z" fill="black"/>
<path fill-rule="evenodd" clip-rule="evenodd" d="M9.5273 7.65288C10.3482 7.18574 11.2846 6.96064 12.2281 7.00367C13.1716 7.04669 14.0836 7.35607 14.8586 7.89598C15.6335 8.4359 16.2397 9.18427 16.6069 10.0544C16.9741 10.9246 17.0874 11.881 16.9335 12.8129C16.8436 13.3578 16.3289 13.7266 15.784 13.6366C15.2391 13.5467 14.8703 13.032 14.9603 12.4871C15.0526 11.928 14.9846 11.3542 14.7643 10.8321C14.5439 10.31 14.1802 9.86093 13.7153 9.53698C13.2503 9.21303 12.7031 9.0274 12.137 9.00159C11.5709 8.97578 11.009 9.11083 10.5165 9.39112C10.0365 9.66428 9.42595 9.49661 9.15278 9.01661C8.87962 8.53661 9.0473 7.92605 9.5273 7.65288Z" fill="black"/>
<path fill-rule="evenodd" clip-rule="evenodd" d="M7.10335 13.0032C6.50389 12.9879 5.90866 13.1076 5.36171 13.3534C4.81476 13.5993 4.33007 13.9649 3.94351 14.4233C3.55695 14.8818 3.27841 15.4212 3.12849 16.0019C2.97857 16.5825 2.96111 17.1894 3.07741 17.7776C3.1937 18.3659 3.44077 18.9205 3.80034 19.4004C4.13151 19.8424 4.04167 20.4691 3.59969 20.8003C3.1577 21.1315 2.53095 21.0416 2.19978 20.5996C1.66043 19.8798 1.28982 19.0479 1.11538 18.1655C0.940938 17.2831 0.967124 16.3728 1.192 15.5018C1.41688 14.6309 1.83469 13.8217 2.41453 13.1341C2.99437 12.4464 3.7214 11.8979 4.54183 11.5292C5.36226 11.1605 6.2551 10.9809 7.15429 11.0038C8.05348 11.0268 8.93602 11.2515 9.73661 11.6616C10.5372 12.0716 11.2353 12.6564 11.7794 13.3727C12.1555 13.8678 12.4513 14.417 12.6577 15H12.9993C13.8103 14.999 14.6025 15.2445 15.2708 15.704C15.9393 16.1637 16.4522 16.8157 16.7415 17.5737C17.0308 18.3316 17.0828 19.1596 16.8906 19.9478C16.6983 20.7359 16.271 21.447 15.6653 21.9867C15.2529 22.3541 14.6208 22.3176 14.2534 21.9052C13.886 21.4928 13.9225 20.8607 14.3349 20.4934C14.6377 20.2235 14.8514 19.868 14.9475 19.4739C15.0436 19.0798 15.0176 18.6658 14.873 18.2868C14.7283 17.9079 14.4719 17.5818 14.1376 17.352C13.8034 17.1222 13.4072 16.9994 13.0015 17L11.9001 17C11.425 17 11.0155 16.6658 10.9203 16.2004C10.8002 15.6129 10.5495 15.0599 10.1868 14.5824C9.82405 14.1049 9.35862 13.715 8.82489 13.4417C8.29117 13.1683 7.70281 13.0185 7.10335 13.0032Z" fill="black"/>
<path fill-rule="evenodd" clip-rule="evenodd" d="M11 19C11.5523 19 12 19.4477 12 20V22C12 22.5523 11.5523 23 11 23C10.4477 23 10 22.5523 10 22V20C10 19.4477 10.4477 19 11 19Z" fill="black"/>
<path fill-rule="evenodd" clip-rule="evenodd" d="M7 18C7.55228 18 8 18.4477 8 19V21C8 21.5523 7.55228 22 7 22C6.44772 22 6 21.5523 6 21V19C6 18.4477 6.44772 18 7 18Z" fill="black"/>
</svg>
