<svg width="24" height="24" viewBox="0 0 24 24" fill="none" xmlns="http://www.w3.org/2000/svg">
<path fill-rule="evenodd" clip-rule="evenodd" d="M3.4731 3.88099C3.94812 3.62624 4.13706 3.03802 3.89443 2.55276C3.64744 2.05878 3.04676 1.85856 2.55279 2.10555L3 2.99997C2.55279 2.10555 2.55226 2.10581 2.55173 2.10608L2.55064 2.10662C2.54991 2.10699 2.54916 2.10737 2.54839 2.10776C2.54775 2.10808 2.5471 2.10842 2.54643 2.10875C2.54551 2.10922 2.54457 2.1097 2.5436 2.11019C2.54028 2.1119 2.5367 2.11375 2.53286 2.11576C2.52518 2.11979 2.51649 2.12444 2.50685 2.12974C2.48758 2.14034 2.46446 2.15357 2.43805 2.1696C2.38533 2.20161 2.31897 2.24512 2.24375 2.30154C2.09376 2.41403 1.90487 2.58061 1.71913 2.81278C1.33751 3.28981 1 4.00706 1 4.99998V15C1 15.7956 1.31607 16.5587 1.87868 17.1213C2.44129 17.6839 3.20435 18 4 18H17C17.5523 18 18 17.5523 18 17C18 16.4477 17.5523 16 17 16H4C3.73478 16 3.48043 15.8946 3.29289 15.7071C3.10536 15.5195 3 15.2652 3 15V4.99998C3 4.49289 3.16249 4.21014 3.28087 4.06217C3.34513 3.98184 3.40624 3.92967 3.44375 3.90154C3.45799 3.89086 3.46823 3.88409 3.4731 3.88099Z" fill="black"/>
<path fill-rule="evenodd" clip-rule="evenodd" d="M8 3C8 2.44772 8.44772 2 9 2H20C20.7956 2 21.5587 2.31607 22.1213 2.87868C22.6839 3.44129 23 4.20435 23 5V15C23 15.5523 22.5523 16 22 16C21.4477 16 21 15.5523 21 15V5C21 4.73478 20.8946 4.48043 20.7071 4.29289C20.5196 4.10536 20.2652 4 20 4H9C8.44772 4 8 3.55228 8 3Z" fill="black"/>
<path fill-rule="evenodd" clip-rule="evenodd" d="M7 21C7 20.4477 7.44772 20 8 20H16C16.5523 20 17 20.4477 17 21C17 21.5523 16.5523 22 16 22H8C7.44772 22 7 21.5523 7 21Z" fill="black"/>
<path fill-rule="evenodd" clip-rule="evenodd" d="M12 16C12.5523 16 13 16.4477 13 17V21C13 21.5523 12.5523 22 12 22C11.4477 22 11 21.5523 11 21V17C11 16.4477 11.4477 16 12 16Z" fill="black"/>
<path fill-rule="evenodd" clip-rule="evenodd" d="M1.29289 1.29289C1.68342 0.902369 2.31658 0.902369 2.70711 1.29289L22.7071 21.2929C23.0976 21.6834 23.0976 22.3166 22.7071 22.7071C22.3166 23.0976 21.6834 23.0976 21.2929 22.7071L1.29289 2.70711C0.902369 2.31658 0.902369 1.68342 1.29289 1.29289Z" fill="black"/>
</svg>
