<svg width="24" height="24" viewBox="0 0 24 24" fill="none" xmlns="http://www.w3.org/2000/svg">
<path fill-rule="evenodd" clip-rule="evenodd" d="M6.11896 3.91008C8.04524 2.50653 10.4095 1.83712 12.7856 2.02249C15.1618 2.20787 17.3936 3.23583 19.0789 4.92113C20.7642 6.60644 21.7922 8.83827 21.9776 11.2144C22.163 13.5906 21.4935 15.9548 20.09 17.8811C18.6864 19.8074 16.641 21.169 14.3224 21.7207C12.1442 22.2389 9.85945 22.0103 7.83253 21.0788L2.32107 22.9471C1.96061 23.0693 1.56205 22.9763 1.29292 22.7072C1.02379 22.438 0.930774 22.0395 1.05296 21.679L2.92125 16.1675C1.98982 14.1406 1.7612 11.8559 2.2794 9.67771C2.83104 7.35904 4.19268 5.31364 6.11896 3.91008ZM12.6301 4.01644C10.7292 3.86814 8.83776 4.40366 7.29674 5.52651C5.75572 6.64935 4.6664 8.28568 4.2251 10.1406C3.78379 11.9955 4.01951 13.9471 4.88979 15.6436C5.01328 15.8844 5.03395 16.1649 4.94709 16.4211L3.5974 20.4027L7.57899 19.053C7.83523 18.9661 8.11572 18.9868 8.35646 19.1103C10.053 19.9806 12.0045 20.2163 13.8595 19.775C15.7144 19.3337 17.3507 18.2444 18.4736 16.7033C19.5964 15.1623 20.1319 13.2709 19.9836 11.37C19.8353 9.46905 19.013 7.68359 17.6647 6.33535C16.3165 4.9871 14.531 4.16473 12.6301 4.01644Z" fill="black"/>
<path fill-rule="evenodd" clip-rule="evenodd" d="M12.2581 8.02428C11.7926 7.94443 11.3138 8.03191 10.9066 8.27123C10.4994 8.51054 10.1901 8.88625 10.0333 9.3318C9.85006 9.85279 9.27914 10.1266 8.75815 9.9433C8.23716 9.76002 7.96339 9.18911 8.14666 8.66812C8.46013 7.77701 9.07886 7.02559 9.89327 6.54696C10.7077 6.06833 11.6652 5.89337 12.5962 6.05307C13.5273 6.21277 14.3717 6.69682 14.9801 7.41949C15.5883 8.14195 15.9212 9.05628 15.92 10.0006C15.9197 11.5311 14.785 12.5418 13.9747 13.082C13.5391 13.3724 13.1105 13.586 12.7949 13.7263C12.6356 13.7971 12.5015 13.8508 12.4049 13.8876C12.3565 13.906 12.3173 13.9203 12.2887 13.9305C12.2744 13.9355 12.2628 13.9396 12.254 13.9426C12.2496 13.9441 12.2459 13.9454 12.2429 13.9464C12.2414 13.9469 12.2401 13.9473 12.239 13.9477L12.2375 13.9482L12.2368 13.9484C12.2365 13.9485 12.2362 13.9486 11.92 13L12.2362 13.9486C11.7123 14.1233 11.146 13.8401 10.9713 13.3162C10.7969 12.7929 11.0791 12.2274 11.6017 12.052C11.602 12.0519 11.6025 12.0517 11.6032 12.0514C11.6058 12.0506 11.611 12.0488 11.6187 12.046C11.6341 12.0406 11.6593 12.0314 11.6929 12.0186C11.7603 11.9929 11.8606 11.9529 11.9826 11.8986C12.2294 11.7889 12.5509 11.6275 12.8653 11.4179C13.5549 10.9582 13.92 10.4691 13.92 9.99996L13.92 9.99847C13.9207 9.52615 13.7542 9.06883 13.45 8.70749C13.1459 8.34615 12.7236 8.10413 12.2581 8.02428ZM11.6031 12.0515C11.6031 12.0515 11.6032 12.0515 11.6032 12.0515C11.6032 12.0515 11.6032 12.0515 11.6032 12.0515" fill="black"/>
<path fill-rule="evenodd" clip-rule="evenodd" d="M11 17C11 16.4477 11.4477 16 12 16H12.01C12.5623 16 13.01 16.4477 13.01 17C13.01 17.5523 12.5623 18 12.01 18H12C11.4477 18 11 17.5523 11 17Z" fill="black"/>
</svg>
