<svg width="24" height="24" viewBox="0 0 24 24" fill="none" xmlns="http://www.w3.org/2000/svg">
<path fill-rule="evenodd" clip-rule="evenodd" d="M5.87868 1.87868C6.44129 1.31607 7.20435 1 8 1C8.73983 1 9.45148 1.27328 10 1.76393C10.5485 1.27328 11.2602 1 12 1C12.7398 1 13.4515 1.27328 14 1.76393C14.5485 1.27328 15.2602 1 16 1C16.7956 1 17.5587 1.31607 18.1213 1.87868C18.4734 2.23073 18.7289 2.66127 18.8708 3.12917C19.3387 3.27111 19.7693 3.52663 20.1213 3.87868C20.6839 4.44129 21 5.20435 21 6C21 6.79565 20.6839 7.55871 20.1213 8.12132C19.5587 8.68393 18.7956 9 18 9C17.4477 9 17 8.55228 17 8C17 7.44772 17.4477 7 18 7C18.2652 7 18.5196 6.89464 18.7071 6.70711C18.8946 6.51957 19 6.26522 19 6C19 5.73478 18.8946 5.48043 18.7071 5.29289C18.5196 5.10536 18.2652 5 18 5C17.4477 5 17 4.55228 17 4C17 3.73478 16.8946 3.48043 16.7071 3.29289C16.5196 3.10536 16.2652 3 16 3C15.7348 3 15.4804 3.10536 15.2929 3.29289C15.1054 3.48043 15 3.73478 15 4C15 4.55228 14.5523 5 14 5C13.4477 5 13 4.55228 13 4C13 3.73478 12.8946 3.48043 12.7071 3.29289C12.5196 3.10536 12.2652 3 12 3C11.7348 3 11.4804 3.10536 11.2929 3.29289C11.1054 3.48043 11 3.73478 11 4C11 4.55228 10.5523 5 10 5C9.44772 5 9 4.55228 9 4C9 3.73478 8.89464 3.48043 8.70711 3.29289C8.51957 3.10536 8.26522 3 8 3C7.73478 3 7.48043 3.10536 7.29289 3.29289C7.10536 3.48043 7 3.73478 7 4C7 4.55228 6.55228 5 6 5C5.73478 5 5.48043 5.10536 5.29289 5.29289C5.10536 5.48043 5 5.73478 5 6C5 6.26522 5.10536 6.51957 5.29289 6.70711C5.48043 6.89464 5.73478 7 6 7C6.55228 7 7 7.44772 7 8C7 8.55228 6.55228 9 6 9C5.20435 9 4.44129 8.68393 3.87868 8.12132C3.31607 7.55871 3 6.79565 3 6C3 5.20435 3.31607 4.44129 3.87868 3.87868C4.23073 3.52663 4.66127 3.27111 5.12917 3.12917C5.27111 2.66127 5.52663 2.23073 5.87868 1.87868Z" fill="black"/>
<path fill-rule="evenodd" clip-rule="evenodd" d="M8.9288 7.00258C9.47968 6.96324 9.95815 7.37791 9.9975 7.9288L10.9975 21.9288C11.0369 22.4797 10.6222 22.9582 10.0713 22.9975C9.52041 23.0368 9.04193 22.6222 9.00258 22.0713L8.00258 8.07129C7.96324 7.52041 8.37791 7.04193 8.9288 7.00258Z" fill="black"/>
<path fill-rule="evenodd" clip-rule="evenodd" d="M15.0713 7.00258C15.6222 7.04193 16.0369 7.52041 15.9975 8.07129L14.9975 22.0713C14.9582 22.6222 14.4797 23.0368 13.9288 22.9975C13.3779 22.9582 12.9632 22.4797 13.0026 21.9288L14.0026 7.9288C14.0419 7.37791 14.5204 6.96324 15.0713 7.00258Z" fill="black"/>
<path fill-rule="evenodd" clip-rule="evenodd" d="M4.22304 9H19.7766L17.2225 20.7882C17.2225 20.7885 17.2224 20.7888 17.2223 20.789C17.2202 20.7934 17.2159 20.8013 17.2084 20.8125C17.1879 20.8433 17.1544 20.882 17.1097 20.9193C17.0648 20.9566 17.0222 20.9813 16.9916 20.9943C16.9856 20.9969 16.9808 20.9987 16.9771 21H6.99984C6.9244 21 6.87589 20.976 6.84804 20.9531C6.82222 20.9318 6.79658 20.8977 6.78623 20.8356C6.78359 20.8197 6.78056 20.804 6.77716 20.7882L4.22304 9ZM16.9691 21.0024C16.9691 21.0024 16.9693 21.0024 16.9697 21.0023C16.9693 21.0024 16.9691 21.0025 16.9691 21.0024ZM2.61558 7.62421C2.9702 7.21048 3.48118 7 3.99984 7H19.9998C20.5185 7 21.0295 7.21048 21.3841 7.62421C21.7461 8.04659 21.8798 8.60321 21.7862 9.1644C21.7836 9.18025 21.7806 9.19604 21.7772 9.21175L19.1785 21.2055C19.0685 21.7411 18.7288 22.1734 18.39 22.4557C18.0511 22.7382 17.5571 23 16.9998 23H6.99984C5.94419 23 5.01311 22.2822 4.81811 21.1915L2.22251 9.21175C2.21911 9.19604 2.21608 9.18025 2.21344 9.1644C2.11991 8.60321 2.25354 8.04659 2.61558 7.62421Z" fill="black"/>
</svg>
