<svg width="24" height="24" viewBox="0 0 24 24" fill="none" xmlns="http://www.w3.org/2000/svg">
<path fill-rule="evenodd" clip-rule="evenodd" d="M14.3677 3.60714C13.5734 3.1801 12.6784 2.97583 11.7775 3.01598C10.8765 3.05612 10.0032 3.33919 9.25006 3.8352C8.78882 4.13896 8.16866 4.01129 7.8649 3.55004C7.56114 3.08879 7.68881 2.46863 8.15006 2.16487C9.20451 1.47046 10.4271 1.07417 11.6884 1.01796C12.9498 0.961751 14.2028 1.24773 15.3148 1.84559C16.4269 2.44346 17.3565 3.33096 18.0052 4.41409C18.654 5.49722 18.9978 6.73565 19.0001 7.99821L19.0001 7.9991C19.0016 9.60454 19.1935 11.2041 19.5719 12.7644C19.7021 13.3011 19.3725 13.8417 18.8357 13.9719C18.299 14.102 17.7584 13.7724 17.6282 13.2357C17.2126 11.5219 17.0018 9.76491 17.0001 8.00146C17.0001 8.0013 17.0001 8.00114 17.0001 8.00098L18.0001 8.00004L17.0001 8.00187C17.0001 8.00173 17.0001 8.0016 17.0001 8.00146C16.9983 7.09977 16.7528 6.21533 16.2895 5.44178C15.8261 4.66812 15.1621 4.03419 14.3677 3.60714Z" fill="black"/>
<path fill-rule="evenodd" clip-rule="evenodd" d="M6.65288 5.36442C7.16965 5.55927 7.43062 6.13615 7.23577 6.65293C7.07485 7.07973 6.9949 7.53279 7.00001 7.9889C7.00006 7.99264 7.00008 7.99638 7.00008 8.00012C7.00008 11.6475 6.21715 14.0655 5.37797 15.604C5.30188 15.7435 5.22549 15.8754 5.1494 16.0001H17.0001C17.5524 16.0001 18.0001 16.4478 18.0001 17.0001C18.0001 17.5524 17.5524 18.0001 17.0001 18.0001H3.00008C2.55941 18.0001 2.17068 17.7117 2.04299 17.2899C1.91664 16.8726 2.07528 16.4222 2.43377 16.1759C2.43447 16.1754 2.43542 16.1747 2.43663 16.1738C2.44432 16.1681 2.46218 16.1545 2.4888 16.1323C2.54202 16.0879 2.6304 16.0092 2.74288 15.8905C2.9673 15.6536 3.29039 15.2546 3.62218 14.6463C4.28266 13.4354 4.99933 11.355 5.00008 8.0054C4.99293 7.30274 5.11646 6.60486 5.36438 5.94732C5.55923 5.43055 6.13611 5.16958 6.65288 5.36442Z" fill="black"/>
<path fill-rule="evenodd" clip-rule="evenodd" d="M9.8182 20.1237C10.3022 19.8577 10.9102 20.0343 11.1763 20.5182C11.2574 20.6658 11.3766 20.7888 11.5215 20.8745C11.6664 20.9602 11.8317 21.0054 12 21.0054C12.1683 21.0054 12.3336 20.9602 12.4785 20.8745C12.6234 20.7888 12.7426 20.6658 12.8237 20.5182C13.0898 20.0343 13.6978 19.8577 14.1818 20.1237C14.6657 20.3898 14.8424 20.9979 14.5763 21.4818C14.3226 21.9432 13.9497 22.328 13.4965 22.596C13.0433 22.864 12.5265 23.0054 12 23.0054C11.4735 23.0054 10.9566 22.864 10.5035 22.596C10.0503 22.328 9.67736 21.9432 9.4237 21.4818C9.15762 20.9979 9.33424 20.3898 9.8182 20.1237Z" fill="black"/>
<path fill-rule="evenodd" clip-rule="evenodd" d="M1.29289 1.29289C1.68342 0.902369 2.31658 0.902369 2.70711 1.29289L22.7071 21.2929C23.0976 21.6834 23.0976 22.3166 22.7071 22.7071C22.3166 23.0976 21.6834 23.0976 21.2929 22.7071L1.29289 2.70711C0.902369 2.31658 0.902369 1.68342 1.29289 1.29289Z" fill="black"/>
</svg>
