<svg width="24" height="24" viewBox="0 0 24 24" fill="none" xmlns="http://www.w3.org/2000/svg">
<path fill-rule="evenodd" clip-rule="evenodd" d="M13 12C13.5523 12 14 12.4477 14 13V18C14 18.5523 13.5523 19 13 19C12.4477 19 12 18.5523 12 18V13C12 12.4477 12.4477 12 13 12Z" fill="black"/>
<path fill-rule="evenodd" clip-rule="evenodd" d="M17 7C17.5523 7 18 7.44772 18 8V11.47C18 12.0223 17.5523 12.47 17 12.47C16.4477 12.47 16 12.0223 16 11.47V8C16 7.44772 16.4477 7 17 7Z" fill="black"/>
<path fill-rule="evenodd" clip-rule="evenodd" d="M16 11C16 10.4477 16.4477 10 17 10H17.9999C17.9999 10 18 10 18 10C18.6655 9.99995 19.3205 10.166 19.9057 10.483C20.4909 10.8 20.9877 11.2581 21.3512 11.8157C21.7147 12.3732 21.9332 13.0127 21.9871 13.676C22.041 14.3394 21.9286 15.0057 21.6599 15.6147C21.437 16.12 20.8466 16.3488 20.3413 16.1259C19.836 15.903 19.6072 15.3126 19.8301 14.8073C19.9644 14.5029 20.0207 14.1697 19.9937 13.838C19.9668 13.5063 19.8575 13.1866 19.6757 12.9078C19.494 12.6291 19.2456 12.4 18.953 12.2415C18.6604 12.083 18.3329 12 18.0001 12H17C16.4477 12 16 11.5523 16 11Z" fill="black"/>
<path fill-rule="evenodd" clip-rule="evenodd" d="M1.29289 1.29289C1.68342 0.902369 2.31658 0.902369 2.70711 1.29289L22.7071 21.2929C23.0976 21.6834 23.0976 22.3166 22.7071 22.7071C22.3166 23.0976 21.6834 23.0976 21.2929 22.7071L1.29289 2.70711C0.902369 2.31658 0.902369 1.68342 1.29289 1.29289Z" fill="black"/>
<path fill-rule="evenodd" clip-rule="evenodd" d="M5 7C5.55228 7 6 7.44772 6 8V20C6 20.2652 6.10536 20.5196 6.29289 20.7071C6.48043 20.8946 6.73478 21 7 21H15C15.2652 21 15.5196 20.8946 15.7071 20.7071C15.8946 20.5196 16 20.2652 16 20V17C16 16.4477 16.4477 16 17 16C17.5523 16 18 16.4477 18 17V20C18 20.7957 17.6839 21.5587 17.1213 22.1213C16.5587 22.6839 15.7957 23 15 23H7C6.20435 23 5.44129 22.6839 4.87868 22.1213C4.31607 21.5587 4 20.7956 4 20V8C4 7.44772 4.44772 7 5 7Z" fill="black"/>
<path fill-rule="evenodd" clip-rule="evenodd" d="M4.43918 3.02501C4.82965 3.41559 4.82957 4.04875 4.43899 4.43923C4.22916 4.64901 4.08625 4.9163 4.02835 5.20731C3.97045 5.49832 4.00016 5.79996 4.11371 6.07409C4.22726 6.34821 4.41957 6.5825 4.66629 6.74732C4.91302 6.91214 5.20308 7.00008 5.49979 7.00002L5.49998 7.99962V7.00002C5.6606 7.00002 5.84762 6.95704 6.17999 6.85462C6.2154 6.84371 6.25272 6.83203 6.29179 6.8198C6.58143 6.72915 6.96765 6.60827 7.38952 6.54581C7.93585 6.46492 8.44431 6.84224 8.5252 7.38857C8.60608 7.9349 8.22876 8.44336 7.68243 8.52424C7.42516 8.56233 7.19372 8.63417 6.89219 8.72777C6.85241 8.74012 6.81141 8.75285 6.76897 8.76593C6.43938 8.8675 5.99347 8.99999 5.50017 9.00002M5.49998 9.00002C4.80772 9.00012 4.13097 8.79492 3.55533 8.41038C2.97964 8.0258 2.53093 7.47913 2.26597 6.83951C2.00101 6.19988 1.9317 5.49605 2.0668 4.81703C2.2019 4.13801 2.53535 3.51431 3.02497 3.02483C3.41554 2.63435 4.04871 2.63444 4.43918 3.02501" fill="black"/>
<path fill-rule="evenodd" clip-rule="evenodd" d="M9.76318 3.64097C9.63755 3.75101 9.48333 3.8861 9.32953 4.00218C8.88871 4.33489 8.26164 4.24724 7.92893 3.80642C7.59622 3.3656 7.68386 2.73853 8.12468 2.40582C8.2155 2.33728 8.30591 2.25827 8.43315 2.14709C8.45823 2.12517 8.48474 2.102 8.51297 2.07742C8.66996 1.94069 8.86686 1.77249 9.09407 1.61547C9.5673 1.28842 10.1858 1 11.0001 1C12.1574 1 12.8935 1.58308 13.3674 1.99634C13.4373 2.0573 13.4971 2.11036 13.55 2.15724C13.6959 2.2866 13.7886 2.36878 13.8922 2.4394C13.9566 2.4833 13.9899 2.49655 14.0021 2.5C14.3366 2.49967 14.6395 2.41814 15.036 2.29499C15.0655 2.28585 15.0962 2.27617 15.1281 2.26612C15.4786 2.15579 15.9734 2 16.5001 2C17.4284 2 18.3186 2.36875 18.975 3.02513C19.6314 3.6815 20.0001 4.57174 20.0001 5.5C20.0001 6.42826 19.6314 7.3185 18.975 7.97487C18.3186 8.63125 17.4284 9 16.5001 9C15.9734 9 15.4786 8.84421 15.1281 8.73388C15.0962 8.72383 15.0655 8.71415 15.036 8.70501C14.6399 8.58198 14.3372 8.50049 14.0031 8.5C13.8098 8.50146 13.6176 8.529 13.4316 8.58187C12.9004 8.73292 12.3473 8.42472 12.1962 7.89349C12.0452 7.36226 12.3534 6.80917 12.8846 6.65813C13.2456 6.5555 13.6188 6.50231 13.994 6.50002C13.996 6.50001 13.9981 6.5 14.0001 6.5C14.6648 6.5 15.2215 6.66839 15.6292 6.79499C16.0815 6.93548 16.2948 7 16.5001 7C16.8979 7 17.2795 6.84196 17.5608 6.56066C17.8421 6.27936 18.0001 5.89782 18.0001 5.5C18.0001 5.10218 17.8421 4.72064 17.5608 4.43934C17.2795 4.15804 16.8979 4 16.5001 4C16.2948 4 16.0815 4.06452 15.6292 4.20501C15.2215 4.33161 14.6648 4.5 14.0001 4.5C13.4788 4.5 13.0683 4.29828 12.7655 4.09185C12.5455 3.94186 12.3238 3.74437 12.1586 3.59727C12.12 3.5629 12.0845 3.53128 12.0528 3.50366C11.6667 3.16692 11.4028 3 11.0001 3C10.6994 3 10.4709 3.09508 10.2311 3.26078C10.1019 3.35013 9.97575 3.45562 9.82649 3.58562C9.80637 3.60314 9.78522 3.62167 9.76318 3.64097ZM14.0077 2.50098C14.0078 2.5012 14.0061 2.50112 14.0023 2.50005C14.0057 2.50023 14.0076 2.50076 14.0077 2.50098Z" fill="black"/>
<path fill-rule="evenodd" clip-rule="evenodd" d="M9 13.6C9.55228 13.6 10 14.0477 10 14.6V18C10 18.5523 9.55228 19 9 19C8.44772 19 8 18.5523 8 18V14.6C8 14.0477 8.44772 13.6 9 13.6Z" fill="black"/>
</svg>
