<svg width="24" height="24" viewBox="0 0 24 24" fill="none" xmlns="http://www.w3.org/2000/svg">
<path fill-rule="evenodd" clip-rule="evenodd" d="M3.87868 1.87868C4.44129 1.31607 5.20435 1 6 1H15C15.2652 1 15.5196 1.10536 15.7071 1.29289L20.7071 6.29289C20.8946 6.48043 21 6.73478 21 7V20C21 20.7957 20.6839 21.5587 20.1213 22.1213C19.5587 22.6839 18.7957 23 18 23H4C3.44772 23 3 22.5523 3 22C3 21.4477 3.44772 21 4 21H18C18.2652 21 18.5196 20.8946 18.7071 20.7071C18.8946 20.5196 19 20.2652 19 20V7.41421L14.5858 3H6C5.73478 3 5.48043 3.10536 5.29289 3.29289C5.10536 3.48043 5 3.73478 5 4V6C5 6.55228 4.55228 7 4 7C3.44772 7 3 6.55228 3 6V4C3 3.20435 3.31607 2.44129 3.87868 1.87868Z" fill="black"/>
<path fill-rule="evenodd" clip-rule="evenodd" d="M14 1C14.5523 1 15 1.44772 15 2V6C15 6.26522 15.1054 6.51957 15.2929 6.70711C15.4804 6.89464 15.7348 7 16 7H20C20.5523 7 21 7.44772 21 8C21 8.55228 20.5523 9 20 9H16C15.2044 9 14.4413 8.68393 13.8787 8.12132C13.3161 7.55871 13 6.79565 13 6V2C13 1.44772 13.4477 1 14 1Z" fill="black"/>
<path fill-rule="evenodd" clip-rule="evenodd" d="M7.24477 9.25717C7.87197 8.99374 8.56336 8.92276 9.23105 9.05328C9.89975 9.18401 10.5144 9.51093 10.9965 9.99237C11.0282 10.024 11.0576 10.0576 11.0845 10.0928C12.3732 11.4658 12.3251 13.6265 10.81 15.1542C10.8083 15.1559 10.8066 15.1576 10.8048 15.1593C10.8039 15.1602 10.803 15.1611 10.8021 15.162L7.2021 18.712C6.81236 19.0964 6.18604 19.0959 5.79682 18.7111L2.20683 15.1611C2.20451 15.1588 2.20221 15.1565 2.19992 15.1542C0.655771 13.5972 0.620401 11.3728 2.00471 10.001C2.31728 9.68891 2.68635 9.42935 3.12309 9.25373C3.74916 8.99598 4.43756 8.92926 5.10155 9.06206C5.60969 9.16369 6.08609 9.37867 6.49631 9.68856C6.72858 9.51074 6.98181 9.36626 7.24477 9.25717ZM8.84733 11.0161C8.56854 10.9616 8.27984 10.9914 8.01803 11.1016C8.01613 11.1024 8.01422 11.1032 8.01231 11.104C7.84378 11.1738 7.69154 11.2769 7.5726 11.4012C7.56414 11.4101 7.55552 11.4188 7.54674 11.4273L7.19675 11.7673C6.8087 12.1442 6.19122 12.1442 5.80317 11.7673L5.45317 11.4273C5.44932 11.4235 5.44549 11.4198 5.44169 11.416C5.24183 11.2154 4.98694 11.0787 4.70932 11.0232C4.4317 10.9677 4.14384 10.9958 3.88223 11.1041C3.87861 11.1056 3.87498 11.107 3.87135 11.1085C3.71135 11.1725 3.5628 11.2714 3.41707 11.4171C3.41635 11.4178 3.41563 11.4185 3.41491 11.4193C3.41438 11.4198 3.41385 11.4203 3.41331 11.4208C2.90018 11.9286 2.76518 12.8812 3.61683 13.7426L6.50094 16.5946L9.39354 13.7422C10.2396 12.886 10.1045 11.9333 9.5866 11.4208C9.5631 11.3976 9.54087 11.3733 9.51996 11.3481C9.32968 11.1799 9.09759 11.0651 8.84733 11.0161Z" fill="black"/>
</svg>
