<svg width="24" height="24" viewBox="0 0 24 24" fill="none" xmlns="http://www.w3.org/2000/svg">
<path fill-rule="evenodd" clip-rule="evenodd" d="M5.71542 2.00006C6.04054 1.9882 6.35995 2.09162 6.61678 2.29282C6.65655 2.32398 6.6939 2.3581 6.72851 2.3949C6.88074 2.55675 6.99272 2.75193 7.0557 2.96461L9.04083 8.92001H14.9631L16.993 2.9291C16.9993 2.91034 17.0062 2.89177 17.0137 2.87341C17.1123 2.63079 17.2761 2.42017 17.487 2.26484C17.494 2.25969 17.5011 2.25463 17.5082 2.24966C17.7484 2.08225 18.0353 1.99494 18.328 2.00017C18.3667 2.00087 18.4054 2.00381 18.4437 2.00899C18.7203 2.04629 18.9784 2.16644 19.1845 2.35269C19.3659 2.50228 19.5076 2.69487 19.5965 2.91341C19.6046 2.93339 19.612 2.95362 19.6189 2.97407L22.9489 12.9741C22.9494 12.9757 22.9499 12.9773 22.9505 12.9789C23.0711 13.3474 23.0629 13.746 22.9272 14.1092C22.7971 14.4576 22.5571 14.7537 22.2441 14.9531L12.579 21.8154C12.2329 22.0611 11.7693 22.0616 11.4227 21.8165L1.69273 14.9365C1.68998 14.9346 1.68725 14.9326 1.68452 14.9307C1.38549 14.7146 1.16284 14.4092 1.04873 14.0584C0.934612 13.7076 0.934939 13.3296 1.04966 12.979C1.05012 12.9776 1.05059 12.9762 1.05107 12.9748C1.05139 12.9738 1.05172 12.9728 1.05205 12.9718L4.42205 2.9318C4.42866 2.91212 4.43588 2.89265 4.4437 2.87341C4.54233 2.63079 4.70615 2.42017 4.91703 2.26484C4.92403 2.25969 4.93109 2.25463 4.93822 2.24966C5.16673 2.09037 5.43754 2.00359 5.71542 2.00006ZM5.73137 5.3162L7.37139 10.2362C7.5075 10.6446 7.88964 10.92 8.32007 10.92H15.6801C16.1087 10.92 16.4896 10.6469 16.6272 10.2409L18.2933 5.32368L20.9816 13.3966L11.9989 19.7744L3.01144 13.4195L5.73137 5.3162Z" fill="black"/>
</svg>
