<svg width="24" height="24" viewBox="0 0 24 24" fill="none" xmlns="http://www.w3.org/2000/svg">
<path fill-rule="evenodd" clip-rule="evenodd" d="M16 1C16.5523 1 17 1.44772 17 2V7H22C22.5523 7 23 7.44772 23 8C23 8.55228 22.5523 9 22 9H16C15.4477 9 15 8.55228 15 8V2C15 1.44772 15.4477 1 16 1Z" fill="black"/>
<path fill-rule="evenodd" clip-rule="evenodd" d="M22.7071 1.29289C23.0976 1.68342 23.0976 2.31658 22.7071 2.70711L16.7071 8.70711C16.3166 9.09763 15.6834 9.09763 15.2929 8.70711C14.9024 8.31658 14.9024 7.68342 15.2929 7.29289L21.2929 1.29289C21.6834 0.902369 22.3166 0.902369 22.7071 1.29289Z" fill="black"/>
<path fill-rule="evenodd" clip-rule="evenodd" d="M7.78166 3.24169C7.59767 3.08347 7.36243 2.99754 7.11978 2.99993C7.11649 2.99996 7.11321 2.99997 7.10993 2.99997H4.11047C3.97178 3.00016 3.83464 3.0292 3.70777 3.08524C3.58078 3.14133 3.46686 3.22325 3.37326 3.32578C3.27966 3.42832 3.20844 3.54922 3.16413 3.68079C3.12051 3.81027 3.10391 3.9473 3.1153 4.08341C3.42805 7.01497 4.42624 9.83185 6.02921 12.3063C6.0308 12.3087 6.03238 12.3112 6.03395 12.3137C7.49055 14.6059 9.43399 16.5494 11.7263 18.006C11.7279 18.007 11.7295 18.008 11.731 18.009L11.734 18.011C14.1969 19.6081 16.9996 20.606 19.9175 20.9247C20.0537 20.936 20.1908 20.9192 20.3203 20.8754C20.4522 20.8308 20.5734 20.7591 20.676 20.665C20.7786 20.5708 20.8604 20.4563 20.9162 20.3287C20.972 20.2011 21.0005 20.0633 20.9999 19.924C20.9999 19.9227 20.9999 19.9213 20.9999 19.92V16.92C20.9999 16.9117 21 16.9034 21.0002 16.8952C21.0063 16.65 20.9221 16.4111 20.7635 16.2239C20.6057 16.0377 20.3853 15.9157 20.1439 15.8807C19.1109 15.744 18.0966 15.4912 17.1203 15.1269L17.1181 15.126C16.9391 15.0588 16.7446 15.0442 16.5576 15.0841C16.3714 15.1238 16.2004 15.2159 16.0647 15.3494C16.0642 15.3499 16.0636 15.3505 16.0631 15.351L14.797 16.6171C14.4787 16.9354 13.987 17.0018 13.5956 16.7793C10.9356 15.2667 8.73317 13.0643 7.22064 10.4043C6.99813 10.0129 7.06451 9.52118 7.38283 9.20287L8.65054 7.93516C8.78407 7.79948 8.87612 7.62849 8.91583 7.44228C8.95571 7.25529 8.94115 7.0608 8.87388 6.88184L8.87304 6.87958C8.50876 5.90337 8.25589 4.88915 8.11924 3.8562C8.08457 3.61738 7.96469 3.3991 7.78166 3.24169ZM7.10551 0.999975C7.83155 0.994139 8.53515 1.25182 9.08573 1.72532C9.63769 2.2 9.99821 2.85919 10.1001 3.58002C10.1005 3.58309 10.1009 3.58615 10.1013 3.58922C10.2181 4.47422 10.4345 5.34318 10.7465 6.17953C10.9479 6.71603 10.9914 7.29898 10.8718 7.85943C10.7522 8.42038 10.4743 8.93528 10.071 9.34311C10.0697 9.34444 10.0684 9.34576 10.067 9.34708L9.34995 10.0642C10.5258 11.9088 12.0911 13.4741 13.9357 14.65L14.6528 13.9329C14.6541 13.9316 14.6555 13.9302 14.6568 13.9289C15.0646 13.5256 15.5795 13.2477 16.1405 13.1281C16.701 13.0085 17.284 13.052 17.8206 13.2535C18.6569 13.5654 19.5258 13.7818 20.4107 13.8986C20.4137 13.899 20.4167 13.8994 20.4196 13.8998C21.1483 14.0026 21.8137 14.3696 22.2894 14.931C22.7622 15.489 23.0147 16.2003 22.9999 16.9311V19.9186C23.0013 20.3355 22.9157 20.748 22.7487 21.1299C22.5813 21.5127 22.3359 21.8563 22.028 22.1387C21.7202 22.4211 21.3568 22.6361 20.961 22.77C20.5653 22.9038 20.146 22.9535 19.7299 22.9159C19.7239 22.9154 19.7179 22.9148 19.7119 22.9141C16.4808 22.563 13.377 21.4593 10.6497 19.6915C8.11255 18.0785 5.96125 15.9272 4.34826 13.39C2.57424 10.6503 1.4702 7.5313 1.12552 4.28557C1.12497 4.28038 1.12446 4.27518 1.12399 4.26998C1.08651 3.85518 1.1358 3.43712 1.26874 3.04241C1.40168 2.64771 1.61535 2.28501 1.89614 1.97741C2.17693 1.66981 2.5187 1.42404 2.89968 1.25576C3.28066 1.08748 3.6925 1.00037 4.10899 0.999975L7.10551 0.999975Z" fill="black"/>
</svg>
