<svg width="24" height="24" viewBox="0 0 24 24" fill="none" xmlns="http://www.w3.org/2000/svg">
<path fill-rule="evenodd" clip-rule="evenodd" d="M9.87773 15.7855C10.0625 15.265 10.6342 14.9929 11.1547 15.1777C12.6834 15.7204 14.755 15.9087 16.017 15.9697C16.3996 15.6111 17.0003 15.6081 17.3867 15.973C17.7882 16.3522 17.8063 16.9851 17.4271 17.3866C17.0422 17.7942 16.5053 17.9887 15.9644 17.9694C15.9606 17.9692 15.9567 17.9691 15.9529 17.9689C14.6718 17.9084 12.3245 17.7153 10.4855 17.0624C9.96507 16.8776 9.69295 16.3059 9.87773 15.7855Z" fill="black"/>
<path fill-rule="evenodd" clip-rule="evenodd" d="M15.3909 15.9766C15.9285 15.8501 16.4668 16.1834 16.5933 16.721C16.7899 17.5566 17.2508 19.6116 17.1168 21.3088C17.1166 21.3114 17.1164 21.314 17.1161 21.3167C17.0249 22.3664 16.0921 23.0623 15.0906 22.9317C15.0834 22.9307 15.0763 22.9297 15.0692 22.9286C13.2694 22.6543 11.2271 21.7117 10.7216 21.4784L10.7208 21.478C10.2194 21.2466 10.0005 20.6524 10.2319 20.151C10.4634 19.6495 11.0575 19.4307 11.5589 19.6621C12.0669 19.8965 13.7074 20.6423 15.1368 20.9115C15.1852 19.605 14.838 17.9929 14.6465 17.1791C14.52 16.6415 14.8532 16.1031 15.3909 15.9766Z" fill="black"/>
<path fill-rule="evenodd" clip-rule="evenodd" d="M15.1957 20.6933C15.3927 20.1773 15.9707 19.9187 16.4866 20.1157C17.9744 20.6838 19.8572 20.8893 21.0274 20.9598C21.4206 20.6021 22.0295 20.6138 22.4084 20.9943C22.7982 21.3856 22.7969 22.0187 22.4056 22.4085C22.2129 22.6004 21.9813 22.7487 21.7263 22.8434C21.4738 22.9372 21.2043 22.9762 20.9357 22.9579C19.7224 22.8863 17.5694 22.67 15.7732 21.9842C15.2573 21.7872 14.9987 21.2092 15.1957 20.6933Z" fill="black"/>
<path fill-rule="evenodd" clip-rule="evenodd" d="M17.3135 4.78356C17.7203 4.40995 18.3529 4.43681 18.7265 4.84355C20.0302 6.26294 21.1403 7.84874 22.0277 9.55959C22.0356 9.57477 22.043 9.59015 22.0501 9.60572C22.1712 9.87157 22.2257 10.1629 22.2089 10.4545C22.1922 10.7461 22.1048 11.0293 21.9542 11.2796C21.8036 11.5298 21.5943 11.7397 21.3445 11.8911C21.0988 12.0398 20.8213 12.1276 20.5349 12.1473C19.2624 12.2549 17.8428 12.1659 16.3706 11.8819C15.8283 11.7773 15.4735 11.2529 15.5781 10.7107C15.6827 10.1684 16.2071 9.81353 16.7494 9.91812C17.9567 10.151 19.0917 10.2307 20.0899 10.1739C19.3122 8.73665 18.3596 7.40065 17.2535 6.1965C16.8799 5.78976 16.9068 5.15716 17.3135 4.78356Z" fill="black"/>
<path fill-rule="evenodd" clip-rule="evenodd" d="M20.151 10.2321C20.6525 10.0006 21.2466 10.2195 21.478 10.721L21.4784 10.7218C21.7117 11.2273 22.6543 13.2695 22.9286 15.0693C22.9296 15.0755 22.9305 15.0817 22.9313 15.0878C23.0159 15.7226 22.7678 16.3967 22.2011 16.7909C21.7478 17.1063 21.1245 16.9944 20.8092 16.5411C20.5255 16.1334 20.5874 15.5883 20.9325 15.2533C20.6834 13.7978 19.9029 12.0809 19.6621 11.5591C19.4307 11.0576 19.6496 10.4635 20.151 10.2321Z" fill="black"/>
<path fill-rule="evenodd" clip-rule="evenodd" d="M5.63696 4.22287C6.02752 4.61336 6.02759 5.24652 5.6371 5.63709C4.05957 7.21495 3.12437 9.32254 3.01295 11.551C2.91066 13.5966 3.50928 15.6102 4.70069 17.263C4.91384 16.5553 5.09638 15.6412 5.23388 14.6863C5.41024 13.4615 5.49992 12.2606 5.49992 11.5001C5.49992 11.1782 5.65482 10.876 5.91612 10.6882C6.17742 10.5003 6.51318 10.4496 6.81827 10.5521C8.10992 10.9858 9.66664 11.3678 11.1901 11.1375C11.5828 10.7826 12.1892 10.7947 12.5674 11.1734C12.9577 11.5641 12.9574 12.1973 12.5666 12.5876C12.2858 12.8681 11.9222 13.0508 11.5297 13.1088C10.0663 13.3379 8.64287 13.132 7.446 12.8255C7.39841 13.4896 7.31999 14.2315 7.21346 14.9713C7.0294 16.2496 6.74868 17.6142 6.35727 18.5842L6.35716 18.5845C6.11593 19.1819 5.593 19.5712 4.9814 19.6228C4.39711 19.672 3.84691 19.4062 3.48508 18.9622C1.75941 16.8511 0.87928 14.1744 1.01544 11.4511C1.15162 8.72746 2.29464 6.15152 4.22274 4.22302C4.61323 3.83246 5.24639 3.83239 5.63696 4.22287Z" fill="black"/>
<path fill-rule="evenodd" clip-rule="evenodd" d="M9.19585 11.2567C9.70575 11.0445 10.2911 11.2859 10.5033 11.7958C11.7864 14.8793 12.3618 17.9979 12.1473 20.5349C12.1277 20.8212 12.0398 21.0988 11.8911 21.3444C11.7397 21.5943 11.5299 21.8035 11.2796 21.9541C11.0293 22.1047 10.7461 22.1922 10.4545 22.2089C10.1629 22.2256 9.87157 22.1711 9.60572 22.0501C9.60474 22.0496 9.60376 22.0492 9.60278 22.0487C7.87286 21.2545 5.92267 19.7028 4.84911 18.7315C4.43958 18.3609 4.40796 17.7286 4.77849 17.319C5.14903 16.9095 5.7814 16.8779 6.19094 17.2484C7.1558 18.1214 8.77751 19.4005 10.1731 20.1038C10.295 18.0003 9.80215 15.3167 8.65677 12.5641C8.44459 12.0542 8.68595 11.4689 9.19585 11.2567Z" fill="black"/>
<path fill-rule="evenodd" clip-rule="evenodd" d="M13.3977 3.10449C11.8192 2.85457 10.2025 3.02953 8.71393 3.61138C8.19955 3.81244 7.61956 3.55844 7.4185 3.04406C7.21744 2.52967 7.47144 1.94969 7.98582 1.74862C9.80518 1.03748 11.7811 0.823639 13.7105 1.12909C15.6393 1.43446 17.452 2.24779 18.9625 3.48554C19.4062 3.84738 19.6718 4.39739 19.6226 4.98147C19.5711 5.59308 19.1817 6.11601 18.5843 6.35724L18.5832 6.35772L18.5813 6.35848C16.9217 7.02232 13.9856 7.40779 12.1794 7.47922C11.6275 7.50105 11.1625 7.07137 11.1407 6.51952C11.1188 5.96767 11.5485 5.50261 12.1004 5.48078C13.6119 5.421 15.8303 5.1287 17.2624 4.69949C16.1193 3.87334 14.7958 3.32582 13.3977 3.10449Z" fill="black"/>
<path fill-rule="evenodd" clip-rule="evenodd" d="M1.29289 1.29289C1.68342 0.902369 2.31658 0.902369 2.70711 1.29289L22.7071 21.2929C23.0976 21.6834 23.0976 22.3166 22.7071 22.7071C22.3166 23.0976 21.6834 23.0976 21.2929 22.7071L1.29289 2.70711C0.902369 2.31658 0.902369 1.68342 1.29289 1.29289Z" fill="black"/>
</svg>
