<svg width="24" height="24" viewBox="0 0 24 24" fill="none" xmlns="http://www.w3.org/2000/svg">
<path fill-rule="evenodd" clip-rule="evenodd" d="M1.29289 1.29289C1.68342 0.902369 2.31658 0.902369 2.70711 1.29289L22.7071 21.2929C23.0976 21.6834 23.0976 22.3166 22.7071 22.7071C22.3166 23.0976 21.6834 23.0976 21.2929 22.7071L1.29289 2.70711C0.902369 2.31658 0.902369 1.68342 1.29289 1.29289Z" fill="black"/>
<path fill-rule="evenodd" clip-rule="evenodd" d="M1.87868 6.87868C2.44129 6.31607 3.20435 6 4 6H7C7.55228 6 8 6.44772 8 7C8 7.55228 7.55228 8 7 8H4C3.73478 8 3.48043 8.10536 3.29289 8.29289C3.10536 8.48043 3 8.73478 3 9V18C3 18.2652 3.10536 18.5196 3.29289 18.7071C3.48043 18.8946 3.73478 19 4 19H20C20.5523 19 21 19.4477 21 20C21 20.5523 20.5523 21 20 21H4C3.20435 21 2.44129 20.6839 1.87868 20.1213C1.31607 19.5587 1 18.7956 1 18V9C1 8.20435 1.31607 7.44129 1.87868 6.87868Z" fill="black"/>
<path fill-rule="evenodd" clip-rule="evenodd" d="M8.5 4C8.5 3.44772 8.94772 3 9.5 3H14.5C14.7968 3 15.0782 3.13182 15.2682 3.35982L17.4684 6H20C20.7956 6 21.5587 6.31607 22.1213 6.87868C22.6839 7.44129 23 8.20435 23 9V16.5C23 17.0523 22.5523 17.5 22 17.5C21.4477 17.5 21 17.0523 21 16.5V9C21 8.73478 20.8946 8.48043 20.7071 8.29289C20.5196 8.10536 20.2652 8 20 8H17C16.7032 8 16.4218 7.86818 16.2318 7.64018L14.0316 5H9.5C8.94772 5 8.5 4.55228 8.5 4Z" fill="black"/>
<path fill-rule="evenodd" clip-rule="evenodd" d="M10.6064 10.1928C10.9859 10.5941 10.9683 11.227 10.5671 11.6065C10.3729 11.7902 10.2174 12.011 10.11 12.2558C10.0026 12.5005 9.94532 12.7644 9.9416 13.0317C9.93788 13.299 9.98779 13.5643 10.0884 13.812C10.189 14.0597 10.3382 14.2847 10.5272 14.4737C10.7162 14.6627 10.9412 14.812 11.1889 14.9125C11.4366 15.0131 11.7019 15.063 11.9692 15.0593C12.2365 15.0556 12.5004 14.9983 12.7451 14.8909C12.9899 14.7835 13.2107 14.628 13.3944 14.4338C13.7739 14.0326 14.4068 14.015 14.8081 14.3945C15.2093 14.774 15.2269 15.4069 14.8474 15.8082C14.48 16.1966 14.0385 16.5074 13.5489 16.7223C13.0593 16.9371 12.5316 17.0517 11.997 17.0591C11.4624 17.0665 10.9318 16.9667 10.4364 16.7656C9.94104 16.5644 9.49103 16.266 9.11298 15.8879C8.73492 15.5099 8.4365 15.0599 8.23533 14.5645C8.03417 14.0691 7.93436 13.5385 7.94179 13.0039C7.94923 12.4693 8.06376 11.9416 8.27862 11.452C8.49348 10.9624 8.8043 10.5209 9.19273 10.1535C9.59396 9.774 10.2269 9.7916 10.6064 10.1928Z" fill="black"/>
</svg>
