<svg width="24" height="24" viewBox="0 0 24 24" fill="none" xmlns="http://www.w3.org/2000/svg">
<path fill-rule="evenodd" clip-rule="evenodd" d="M11.5548 1.16793C12.0143 1.47429 12.1385 2.09516 11.8322 2.55468C11.4179 3.17612 11.4084 3.4961 11.4288 3.64907C11.4559 3.8523 11.5623 4.04046 11.8322 4.44528C11.8421 4.46022 11.8524 4.47556 11.8629 4.4913C12.0958 4.8394 12.4602 5.38407 12.5538 6.08657C12.6584 6.8711 12.4179 7.67612 11.8322 8.55469C11.5258 9.01421 10.9049 9.13839 10.4454 8.83204C9.98588 8.52568 9.86171 7.90481 10.1681 7.44528C10.5824 6.82385 10.5918 6.50387 10.5714 6.3509C10.5443 6.14767 10.4379 5.95951 10.1681 5.55468C10.1581 5.53975 10.1478 5.52441 10.1373 5.50867C9.90443 5.16057 9.54005 4.6159 9.44638 3.9134C9.34178 3.12887 9.58235 2.32385 10.1681 1.44528C10.4744 0.985755 11.0953 0.861581 11.5548 1.16793Z" fill="black"/>
<path fill-rule="evenodd" clip-rule="evenodd" d="M16.0548 1.16793C16.5143 1.47429 16.6385 2.09516 16.3322 2.55468C15.9179 3.17612 15.9084 3.4961 15.9288 3.64907C15.9559 3.8523 16.0623 4.04046 16.3322 4.44528C16.3421 4.46022 16.3524 4.47556 16.3629 4.4913C16.5958 4.8394 16.9602 5.38407 17.0538 6.08657C17.1584 6.8711 16.9179 7.67612 16.3322 8.55469C16.0258 9.01421 15.4049 9.13839 14.9454 8.83204C14.4859 8.52568 14.3617 7.90481 14.6681 7.44528C15.0824 6.82385 15.0918 6.50387 15.0714 6.3509C15.0443 6.14767 14.9379 5.95951 14.6681 5.55468C14.6581 5.53975 14.6478 5.52441 14.6373 5.50867C14.4044 5.16057 14.04 4.6159 13.9464 3.9134C13.8418 3.12887 14.0824 2.32385 14.6681 1.44528C14.9744 0.985755 15.5953 0.861581 16.0548 1.16793Z" fill="black"/>
<path fill-rule="evenodd" clip-rule="evenodd" d="M5 10C5 9.44772 5.44772 9 6 9H6.01C6.56228 9 7.01 9.44772 7.01 10C7.01 10.5523 6.56228 11 6.01 11H6C5.44772 11 5 10.5523 5 10Z" fill="black"/>
<path fill-rule="evenodd" clip-rule="evenodd" d="M5 14C5 13.4477 5.44772 13 6 13H6.01C6.56228 13 7.01 13.4477 7.01 14C7.01 14.5523 6.56228 15 6.01 15H6C5.44772 15 5 14.5523 5 14Z" fill="black"/>
<path fill-rule="evenodd" clip-rule="evenodd" d="M10 11C10.5523 11 11 11.4477 11 12V16C11 16.5523 10.5523 17 10 17C9.44772 17 9 16.5523 9 16V12C9 11.4477 9.44772 11 10 11Z" fill="black"/>
<path fill-rule="evenodd" clip-rule="evenodd" d="M14 11C14.5523 11 15 11.4477 15 12V16C15 16.5523 14.5523 17 14 17C13.4477 17 13 16.5523 13 16V12C13 11.4477 13.4477 11 14 11Z" fill="black"/>
<path fill-rule="evenodd" clip-rule="evenodd" d="M18 11C18.5523 11 19 11.4477 19 12V16C19 16.5523 18.5523 17 18 17C17.4477 17 17 16.5523 17 16V12C17 11.4477 17.4477 11 18 11Z" fill="black"/>
<path fill-rule="evenodd" clip-rule="evenodd" d="M4 7C3.73478 7 3.48043 7.10536 3.29289 7.29289C3.10536 7.48043 3 7.73478 3 8V18C3 18.2652 3.10536 18.5196 3.29289 18.7071C3.48043 18.8946 3.73478 19 4 19H20C20.2652 19 20.5196 18.8946 20.7071 18.7071C20.8946 18.5196 21 18.2652 21 18V8C21 7.73478 20.8946 7.48043 20.7071 7.29289C20.5196 7.10536 20.2652 7 20 7C19.4477 7 19 6.55228 19 6C19 5.44772 19.4477 5 20 5C20.7956 5 21.5587 5.31607 22.1213 5.87868C22.6839 6.44129 23 7.20435 23 8V18C23 18.7957 22.6839 19.5587 22.1213 20.1213C21.5587 20.6839 20.7957 21 20 21H4C3.20435 21 2.44129 20.6839 1.87868 20.1213C1.31607 19.5587 1 18.7956 1 18V8C1 7.20435 1.31607 6.44129 1.87868 5.87868C2.44129 5.31607 3.20435 5 4 5H7C7.55228 5 8 5.44772 8 6C8 6.55228 7.55228 7 7 7H4Z" fill="black"/>
<path fill-rule="evenodd" clip-rule="evenodd" d="M5 19C5.55228 19 6 19.4477 6 20V22C6 22.5523 5.55228 23 5 23C4.44772 23 4 22.5523 4 22V20C4 19.4477 4.44772 19 5 19Z" fill="black"/>
<path fill-rule="evenodd" clip-rule="evenodd" d="M19 19C19.5523 19 20 19.4477 20 20V22C20 22.5523 19.5523 23 19 23C18.4477 23 18 22.5523 18 22V20C18 19.4477 18.4477 19 19 19Z" fill="black"/>
</svg>
