<svg width="24" height="24" viewBox="0 0 24 24" fill="none" xmlns="http://www.w3.org/2000/svg">
<path fill-rule="evenodd" clip-rule="evenodd" d="M12.5007 5.86787C12.9824 5.59764 13.5919 5.76903 13.8622 6.25069L15.7922 9.69069C16.0624 10.1723 15.891 10.7819 15.4093 11.0521C14.9277 11.3223 14.3182 11.1509 14.0479 10.6693L12.1179 7.22928C11.8477 6.74763 12.0191 6.1381 12.5007 5.86787Z" fill="black"/>
<path fill-rule="evenodd" clip-rule="evenodd" d="M4.16439 11.2865C4.55847 10.8995 5.19161 10.9053 5.57854 11.2994C6.4163 12.1526 7.41568 12.8304 8.51832 13.293C9.62095 13.7557 10.8047 13.994 12.0005 13.994C13.1963 13.994 14.38 13.7557 15.4827 13.293C16.5853 12.8304 17.5847 12.1526 18.4224 11.2994C18.8094 10.9053 19.4425 10.8995 19.8366 11.2865C20.2307 11.6734 20.2365 12.3065 19.8495 12.7006C18.8256 13.7434 17.6041 14.5718 16.2565 15.1373C14.9088 15.7027 13.462 15.994 12.0005 15.994C10.539 15.994 9.09217 15.7027 7.7445 15.1373C6.39684 14.5718 5.17537 13.7434 4.15144 12.7006C3.76451 12.3065 3.7703 11.6734 4.16439 11.2865Z" fill="black"/>
<path fill-rule="evenodd" clip-rule="evenodd" d="M18.3498 16.2885C18.8311 16.0177 19.4408 16.1884 19.7116 16.6698L21.8716 20.5098C22.1424 20.9911 21.9716 21.6008 21.4903 21.8716C21.0089 22.1424 20.3992 21.9716 20.1284 21.4903L17.9684 17.6503C17.6977 17.1689 17.8684 16.5592 18.3498 16.2885Z" fill="black"/>
<path fill-rule="evenodd" clip-rule="evenodd" d="M11.5103 5.86838C11.9916 6.13911 12.1624 6.74881 11.8917 7.23019L3.87166 21.4902C3.60093 21.9716 2.99123 22.1423 2.50985 21.8716C2.02848 21.6009 1.85772 20.9912 2.12845 20.5098L10.1484 6.24978C10.4192 5.76841 11.0289 5.59764 11.5103 5.86838Z" fill="black"/>
<path fill-rule="evenodd" clip-rule="evenodd" d="M12 4C11.4477 4 11 4.44772 11 5C11 5.55228 11.4477 6 12 6C12.5523 6 13 5.55228 13 5C13 4.44772 12.5523 4 12 4ZM9 5C9 3.34315 10.3431 2 12 2C13.6569 2 15 3.34315 15 5C15 6.65685 13.6569 8 12 8C10.3431 8 9 6.65685 9 5Z" fill="black"/>
</svg>
