<svg width="24" height="24" viewBox="0 0 24 24" fill="none" xmlns="http://www.w3.org/2000/svg">
<path fill-rule="evenodd" clip-rule="evenodd" d="M8.19995 9.20001C8.19995 8.64773 8.64767 8.20001 9.19995 8.20001H9.20995C9.76224 8.20001 10.21 8.64773 10.21 9.20001C10.21 9.7523 9.76224 10.2 9.20995 10.2H9.19995C8.64767 10.2 8.19995 9.7523 8.19995 9.20001Z" fill="black"/>
<path fill-rule="evenodd" clip-rule="evenodd" d="M15.2071 8.79289C15.5976 9.18342 15.5976 9.81658 15.2071 10.2071L10.2071 15.2071C9.81658 15.5976 9.18342 15.5976 8.79289 15.2071C8.40237 14.8166 8.40237 14.1834 8.79289 13.7929L13.7929 8.79289C14.1834 8.40237 14.8166 8.40237 15.2071 8.79289Z" fill="black"/>
<path fill-rule="evenodd" clip-rule="evenodd" d="M13.7 14.8C13.7 14.2477 14.1477 13.8 14.7 13.8H14.71C15.2622 13.8 15.71 14.2477 15.71 14.8C15.71 15.3523 15.2622 15.8 14.71 15.8H14.7C14.1477 15.8 13.7 15.3523 13.7 14.8Z" fill="black"/>
<path fill-rule="evenodd" clip-rule="evenodd" d="M9.58279 2.00286C10.9007 0.683985 13.0896 0.684106 14.4074 2.00322L21.9966 9.5925C23.3154 10.9103 23.3158 13.0993 21.997 14.4171L14.4074 22.0067C13.0894 23.3256 10.9002 23.3258 9.58243 22.0067L1.99316 14.4074L2.6999 13.7L1.99233 14.4066L1.99316 14.4074C0.674274 13.0895 0.674038 10.9103 1.99316 9.5925M21.997 14.4171C21.9969 14.4172 21.9971 14.417 21.997 14.4171V14.4171ZM12.9924 3.41671C12.4558 2.87949 11.534 2.87949 10.9974 3.41671L3.40701 11.0071C2.86979 11.5437 2.86942 12.4558 3.40665 12.9925L3.40747 12.9933L10.9974 20.5932C10.9973 20.5932 10.9974 20.5933 10.9974 20.5932C11.5341 21.1303 12.4558 21.1304 12.9924 20.5932L20.5828 13.0029C21.12 12.4662 21.1204 11.5441 20.5832 11.0074L12.9924 3.41671Z" fill="black"/>
</svg>
