<svg width="24" height="24" viewBox="0 0 24 24" fill="none" xmlns="http://www.w3.org/2000/svg">
<path fill-rule="evenodd" clip-rule="evenodd" d="M15.7071 11.2929C16.0976 11.6834 16.0976 12.3166 15.7071 12.7071L6.70711 21.7071C6.51957 21.8946 6.26522 22 6 22H3.41421L2.70711 22.7071C2.31658 23.0976 1.68342 23.0976 1.29289 22.7071C0.902369 22.3166 0.902369 21.6834 1.29289 21.2929L2.29289 20.2929C2.48043 20.1054 2.73478 20 3 20H5.58579L14.2929 11.2929C14.6834 10.9024 15.3166 10.9024 15.7071 11.2929Z" fill="black"/>
<path fill-rule="evenodd" clip-rule="evenodd" d="M12.7071 8.29289C13.0976 8.68342 13.0976 9.31658 12.7071 9.70711L4 18.4142V21C4 21.5523 3.55228 22 3 22C2.44772 22 2 21.5523 2 21V18C2 17.7348 2.10536 17.4804 2.29289 17.2929L11.2929 8.29289C11.6834 7.90237 12.3166 7.90237 12.7071 8.29289Z" fill="black"/>
<path fill-rule="evenodd" clip-rule="evenodd" d="M19.9 2.97864C19.6026 2.97864 19.3174 3.09678 19.1071 3.30706L15.7071 6.70706C15.5195 6.8946 15.2652 6.99996 15 6.99996C14.7347 6.99996 14.4804 6.8946 14.2929 6.70706L13.8929 6.30706C13.7887 6.20294 13.6651 6.12034 13.5291 6.06399C13.393 6.00764 13.2472 5.97864 13.1 5.97864C12.9527 5.97864 12.8069 6.00764 12.6708 6.06399C12.5348 6.12034 12.4112 6.20294 12.3071 6.30706C12.2029 6.41119 12.1203 6.5348 12.064 6.67085C12.0076 6.80689 11.9786 6.9527 11.9786 7.09996C11.9786 7.24721 12.0076 7.39302 12.064 7.52907C12.1203 7.66511 12.2029 7.78873 12.3071 7.89285L16.1071 11.6929C16.2112 11.797 16.3348 11.8796 16.4708 11.9359C16.6069 11.9923 16.7527 12.0213 16.9 12.0213C17.0472 12.0213 17.193 11.9923 17.3291 11.9359C17.4651 11.8796 17.5887 11.797 17.6929 11.6929C17.797 11.5887 17.8796 11.4651 17.9359 11.3291C17.9923 11.193 18.0213 11.0472 18.0213 10.9C18.0213 10.7527 17.9923 10.6069 17.9359 10.4708C17.8796 10.3348 17.797 10.2112 17.6929 10.1071L17.2929 9.70706C16.9023 9.31654 16.9023 8.68338 17.2929 8.29285L20.6929 4.89285C20.9031 4.68256 21.0213 4.39735 21.0213 4.09996C21.0213 3.80257 20.9031 3.51735 20.6929 3.30706C20.4826 3.09678 20.1974 2.97864 19.9 2.97864ZM17.6929 1.89285C18.2782 1.30749 19.0721 0.978638 19.9 0.978638C20.7278 0.978638 21.5217 1.30749 22.1071 1.89285C22.6924 2.47821 23.0213 3.27213 23.0213 4.09996C23.0213 4.92778 22.6924 5.7217 22.1071 6.30706L19.3927 9.02143C19.551 9.23155 19.6825 9.46132 19.7837 9.70548C19.9405 10.0842 20.0213 10.4901 20.0213 10.9C20.0213 11.3099 19.9405 11.7157 19.7837 12.0944C19.6268 12.4731 19.3969 12.8172 19.1071 13.1071C18.8172 13.3969 18.4731 13.6268 18.0944 13.7837C17.7157 13.9405 17.3099 14.0213 16.9 14.0213C16.4901 14.0213 16.0842 13.9405 15.7055 13.7837C15.3268 13.6268 14.9827 13.3969 14.6929 13.1071L10.8929 9.30707C10.603 9.01722 10.3731 8.67313 10.2162 8.29444C10.0594 7.91574 9.97864 7.50986 9.97864 7.09996C9.97864 6.69006 10.0594 6.28418 10.2162 5.90548C10.3731 5.52678 10.603 5.18269 10.8929 4.89285C11.1827 4.60301 11.5268 4.3731 11.9055 4.21623C12.2842 4.05937 12.6901 3.97864 13.1 3.97864C13.5099 3.97864 13.9157 4.05937 14.2944 4.21623C14.5386 4.31737 14.7684 4.44887 14.9785 4.60721L17.6929 1.89285Z" fill="black"/>
</svg>
