<svg width="24" height="24" viewBox="0 0 24 24" fill="none" xmlns="http://www.w3.org/2000/svg">
<g clip-path="url(#clip0_11_34625)">
<path fill-rule="evenodd" clip-rule="evenodd" d="M11.9987 2.99793C11.814 2.99769 11.6312 3.03392 11.4606 3.10454C11.29 3.17515 11.1351 3.27876 11.0046 3.40942L9.47903 4.93503C9.4621 4.95197 9.45476 4.97491 9.45798 4.99736C9.45835 4.99974 9.45946 5.00557 9.46611 5.01756C9.47386 5.03154 9.49035 5.05577 9.52278 5.08763C9.59159 5.15521 9.70529 5.23046 9.85561 5.29159L9.85658 5.29198C10.391 5.50996 10.8633 5.85672 11.2313 6.3014C11.5992 6.74608 11.8515 7.27486 11.9657 7.84065C12.0798 8.40644 12.0523 8.99167 11.8855 9.54424C11.7187 10.0968 11.4178 10.5995 11.0097 11.0077C10.6015 11.4158 10.0988 11.7167 9.54624 11.8835C8.99367 12.0503 8.40843 12.0778 7.84265 11.9637C7.27686 11.8495 6.74808 11.5972 6.3034 11.2293C5.85872 10.8613 5.51196 10.389 5.29398 9.85458L5.29359 9.85361C5.23246 9.70329 5.15721 9.58959 5.08962 9.52078C5.05777 9.48835 5.03355 9.47186 5.01956 9.46411C5.00767 9.45752 5.00184 9.45637 4.99942 9.45599C4.97764 9.45286 4.95349 9.46057 4.93703 9.47703L3.41103 11.003C3.13581 11.2783 2.99793 11.6377 2.99793 11.9999L2.99793 12.0012C2.99769 12.186 3.03398 12.3689 3.10469 12.5396C3.17541 12.7103 3.27917 12.8653 3.41 12.9958L4.97903 14.5648L4.97925 14.565C5.20309 14.789 5.37132 15.0623 5.47042 15.3631C5.56942 15.6635 5.5967 15.983 5.55008 16.2958C5.39965 17.3104 4.56156 17.8659 3.9565 18.1009C3.72433 18.1914 3.51836 18.3384 3.35723 18.5285C3.19599 18.7187 3.08472 18.9461 3.03348 19.1902C2.98224 19.4342 2.99265 19.6872 3.06377 19.9262C3.1349 20.1652 3.26448 20.3827 3.44081 20.559C3.61714 20.7354 3.83465 20.865 4.07366 20.9361C4.31267 21.0072 4.56564 21.0176 4.80968 20.9664C5.05373 20.9151 5.28115 20.8039 5.47137 20.6426C5.66138 20.4816 5.80828 20.2757 5.89883 20.0437C6.13393 19.438 6.68917 18.6011 7.70249 18.449L7.70388 18.4488C8.01721 18.4022 8.3371 18.4298 8.63786 18.5292C8.93834 18.6286 9.21136 18.7969 9.43503 19.0208C9.43511 19.0209 9.43518 19.021 9.43525 19.021C9.43539 19.0212 9.43552 19.0213 9.43566 19.0214L11.003 20.5888L11.0041 20.5898C11.1345 20.7207 11.2895 20.8244 11.4602 20.8952C11.6309 20.9659 11.8139 21.0022 11.9987 21.0019H12.0009C12.1859 21.0021 12.3691 20.9657 12.5399 20.8948C12.7108 20.824 12.866 20.7201 12.9966 20.589L14.5947 18.9909C14.5896 18.9845 14.5823 18.9762 14.5718 18.966C14.5239 18.9194 14.4376 18.862 14.3176 18.8173C13.7676 18.6134 13.2776 18.2745 12.8927 17.8318C12.5075 17.3888 12.2399 16.8561 12.1145 16.2827C11.9891 15.7093 12.0099 15.1135 12.1749 14.5502C12.34 13.9869 12.644 13.4741 13.0591 13.0591C13.4741 12.644 13.9869 12.34 14.5502 12.1749C15.1135 12.0099 15.7093 11.9891 16.2827 12.1145C16.8561 12.2399 17.3888 12.5075 17.8318 12.8927C18.2744 13.2775 18.6132 13.7674 18.8172 14.3173C18.8617 14.4363 18.9192 14.5229 18.9664 14.5714C18.9765 14.5818 18.9848 14.5892 18.9913 14.5944L20.5888 12.9968C20.8648 12.7208 21.0019 12.3624 21.0019 11.9999C21.0019 11.6377 20.864 11.2783 20.5888 11.003L19.0208 9.43503C18.5679 8.9821 18.3537 8.33923 18.45 7.70164C18.6011 6.68685 19.4402 6.13311 20.0437 5.89883C20.2757 5.80828 20.4816 5.66138 20.6426 5.47137C20.8039 5.28115 20.9151 5.05373 20.9664 4.80968C21.0176 4.56564 21.0072 4.31267 20.9361 4.07366C20.865 3.83465 20.7354 3.61714 20.559 3.44081C20.3827 3.26448 20.1652 3.1349 19.9262 3.06377C19.6872 2.99265 19.4342 2.98224 19.1902 3.03348C18.9461 3.08472 18.7187 3.19599 18.5285 3.35723C18.3384 3.51836 18.1914 3.72432 18.1009 3.95649C17.8657 4.56214 17.3105 5.39878 16.2974 5.55085L16.2968 5.55093C15.6607 5.64605 15.0179 5.43215 14.5648 4.97903L12.9968 3.41103C12.7216 3.13581 12.3621 2.99793 11.9999 2.99793L11.9987 2.99793ZM19.0054 14.6042C19.0072 14.6048 19.0081 14.6053 19.008 14.6054C19.008 14.6054 19.0071 14.6051 19.0054 14.6042ZM14.6052 19.007C14.6051 19.007 14.6046 19.0061 14.6039 19.0043C14.6049 19.006 14.6052 19.0069 14.6052 19.007ZM12.0006 0.997927C11.5528 0.997434 11.1094 1.08535 10.6956 1.25662C10.282 1.42786 9.90619 1.67906 9.58982 1.99582C9.58976 1.99588 9.5897 1.99594 9.58965 1.99599C9.5895 1.99614 9.58935 1.99629 9.58921 1.99643L8.06482 3.52082C7.59985 3.98579 7.38318 4.64269 7.47982 5.29212L7.47992 5.2928C7.6348 6.32871 8.49402 6.89679 9.10161 7.14401C9.33052 7.23744 9.53279 7.386 9.69042 7.57648C9.84813 7.76706 9.95625 7.99368 10.0052 8.23616C10.0541 8.47864 10.0423 8.72946 9.9708 8.96627C9.89931 9.20308 9.77037 9.41854 9.59545 9.59346C9.42054 9.76837 9.20508 9.89731 8.96827 9.9688C8.73146 10.0403 8.48064 10.0521 8.23816 10.0032C7.99568 9.95425 7.76906 9.84613 7.57848 9.68842C7.38805 9.53083 7.23952 9.32863 7.14609 9.09979C6.8989 8.49219 6.33082 7.63282 5.2948 7.47792L5.29412 7.47782C4.64398 7.38107 3.98628 7.59936 3.52282 8.06282L1.99682 9.58882C1.33222 10.2534 0.998103 11.1277 0.997927 11.9992C0.997433 12.4474 1.08548 12.8912 1.257 13.3052C1.42851 13.7191 1.68009 14.0951 1.9973 14.4115C1.99748 14.4117 1.99767 14.4119 1.99785 14.4121L3.5646 15.9788C3.56747 15.9817 3.56963 15.9852 3.5709 15.9891C3.57217 15.9929 3.57252 15.997 3.57192 16.001L3.57189 16.0013C3.56911 16.0083 3.55845 16.0285 3.52466 16.0616C3.4665 16.1185 3.36675 16.1844 3.23226 16.2366L3.23091 16.2371C2.68875 16.4484 2.2078 16.7914 1.83157 17.2353C1.45534 17.6791 1.19571 18.2098 1.07615 18.7792C0.956596 19.3487 0.980893 19.9389 1.14684 20.4966C1.31279 21.0543 1.61516 21.5618 2.0266 21.9733C2.43803 22.3847 2.94555 22.6871 3.50324 22.853C4.06092 23.019 4.65118 23.0433 5.22063 22.9237C5.79007 22.8041 6.32072 22.5445 6.76457 22.1683C7.20843 21.7921 7.55148 21.3111 7.76271 20.7689L7.76323 20.7676C7.81539 20.6332 7.8814 20.5332 7.93854 20.4748C7.97206 20.4405 7.99261 20.4297 7.9999 20.4268C8.00329 20.4266 8.00671 20.427 8.00995 20.4281C8.01381 20.4294 8.01732 20.4315 8.02019 20.4344L9.58779 22.002C9.58794 22.0022 9.58809 22.0023 9.58824 22.0025C9.90469 22.3197 10.2807 22.5713 10.6947 22.7429C11.1086 22.9143 11.5523 23.0024 12.0003 23.0019C12.4484 23.0022 12.8921 22.9139 13.306 22.7423C13.72 22.5707 14.096 22.3189 14.4124 22.0016C14.4127 22.0014 14.413 22.0011 14.4132 22.0008L16.022 20.392C16.022 20.392 16.022 20.392 16.022 20.392C16.2408 20.1733 16.4052 19.9062 16.5021 19.6124C16.5989 19.3188 16.6256 19.0067 16.5801 18.7009C16.58 18.7007 16.58 18.7005 16.58 18.7004C16.58 18.7003 16.58 18.7002 16.5799 18.7001C16.432 17.7074 15.6146 17.166 15.0147 16.9427L15.0133 16.9422C14.7773 16.8548 14.5671 16.7094 14.4019 16.5195C14.2368 16.3296 14.1221 16.1012 14.0683 15.8554C14.0145 15.6095 14.0234 15.3541 14.0942 15.1126C14.165 14.8711 14.2953 14.6512 14.4733 14.4733C14.6512 14.2953 14.8711 14.165 15.1126 14.0942C15.3541 14.0234 15.6095 14.0145 15.8554 14.0683C16.1012 14.1221 16.3296 14.2368 16.5195 14.4019C16.7094 14.5671 16.8548 14.7773 16.9422 15.0133L16.943 15.0154C17.1662 15.6138 17.7086 16.4323 18.7006 16.58C19.0064 16.6256 19.3187 16.5989 19.6124 16.502C19.906 16.4052 20.1729 16.2409 20.3917 16.0224L20.392 16.022L22.003 14.411C22.669 13.745 23.0019 12.8714 23.0019 11.9999C23.0019 11.1281 22.6678 10.2536 22.003 9.58882L20.435 8.02082C20.4285 8.01426 20.4267 8.00607 20.4275 8.00037C20.4277 7.99947 20.4278 7.99856 20.428 7.99766C20.4308 7.99062 20.4414 7.97077 20.4747 7.9383C20.5327 7.88161 20.6325 7.81564 20.7676 7.76323L20.7689 7.76271C21.3111 7.55148 21.7921 7.20843 22.1683 6.76457C22.5445 6.32072 22.8041 5.79007 22.9237 5.22063C23.0433 4.65118 23.019 4.06092 22.853 3.50324C22.6871 2.94555 22.3847 2.43803 21.9733 2.0266C21.5618 1.61516 21.0543 1.31279 20.4966 1.14684C19.9389 0.980893 19.3487 0.956596 18.7792 1.07615C18.2098 1.19571 17.6791 1.45534 17.2353 1.83157C16.7914 2.2078 16.4484 2.68875 16.2371 3.23091L16.2366 3.23226C16.1845 3.3667 16.1185 3.46661 16.0613 3.52504C16.0276 3.55953 16.007 3.57028 15.9998 3.57306C15.9973 3.57327 15.9941 3.57303 15.9904 3.57179C15.986 3.57033 15.9821 3.56792 15.979 3.56482L14.411 1.99682C13.7464 1.33222 12.8722 0.998103 12.0006 0.997927ZM15.997 3.57389C15.997 3.5738 15.9978 3.57347 15.9996 3.57315C15.9978 3.57381 15.997 3.57397 15.997 3.57389ZM20.4279 7.99777C20.4274 7.99906 20.4272 7.9999 20.4271 8.0003C20.4271 8.00047 20.4271 8.00056 20.4271 8.00056C20.4271 8.00056 20.4272 8.00048 20.4272 8.00032C20.4274 7.99994 20.4277 7.99909 20.4279 7.99777ZM3.57195 16.001C3.57194 16.0011 3.57193 16.0011 3.57192 16.0012C3.57194 16.0011 3.57196 16.0011 3.57198 16.001C3.57264 15.9993 3.5728 15.9985 3.57271 15.9985C3.57262 15.9985 3.57228 15.9993 3.57195 16.001ZM8.00027 20.4267C8.00205 20.426 8.00292 20.4259 8.00289 20.426C8.00285 20.4261 8.00198 20.4264 8.00027 20.4267Z" fill="black"/>
</g>
<defs>
<clipPath id="clip0_11_34625">
<rect width="24" height="24" fill="white"/>
</clipPath>
</defs>
</svg>
