<svg width="24" height="24" viewBox="0 0 24 24" fill="none" xmlns="http://www.w3.org/2000/svg">
<path fill-rule="evenodd" clip-rule="evenodd" d="M7 2C7 1.44772 7.44772 1 8 1C9.69345 1 11.0967 1.56148 12.3157 2.04923C12.3343 2.05668 12.3529 2.06411 12.3714 2.07152C13.6395 2.57876 14.7193 3 16 3C17.3873 3 18.2595 2.76917 18.7536 2.57152C19.0016 2.47234 19.1589 2.37972 19.2422 2.3242C19.2836 2.29655 19.3074 2.27769 19.3153 2.2712C19.601 2.00265 20.0186 1.92533 20.3827 2.07612C20.7564 2.2309 21 2.59554 21 3V14C21 14.5523 20.5523 15 20 15C19.4477 15 19 14.5523 19 14V4.6032C18.2724 4.82731 17.2918 5 16 5C14.3066 5 12.9033 4.43852 11.6843 3.95077C11.6657 3.94332 11.6471 3.93589 11.6286 3.92848C10.3605 3.42124 9.28069 3 8 3C7.44772 3 7 2.55228 7 2Z" fill="black"/>
<path fill-rule="evenodd" clip-rule="evenodd" d="M4 3C4.55228 3 5 3.44772 5 4V22C5 22.5523 4.55228 23 4 23C3.44772 23 3 22.5523 3 22V4C3 3.44772 3.44772 3 4 3Z" fill="black"/>
<path fill-rule="evenodd" clip-rule="evenodd" d="M4 15L3.29289 14.2929C2.90237 14.6834 2.90237 15.3166 3.29289 15.7071C3.67607 16.0903 4.29283 16.0975 4.6848 15.7287C4.69277 15.7222 4.71648 15.7034 4.75783 15.6758C4.8411 15.6203 4.99844 15.5277 5.24639 15.4285C5.74051 15.2308 6.61272 15 8 15C9.28069 15 10.3605 15.4212 11.6286 15.9285C11.6471 15.9359 11.6657 15.9433 11.6843 15.9508C12.9033 16.4385 14.3066 17 16 17C16.5523 17 17 16.5523 17 16C17 15.4477 16.5523 15 16 15C14.7193 15 13.6395 14.5788 12.3714 14.0715C12.3529 14.0641 12.3343 14.0567 12.3157 14.0492C11.0967 13.5615 9.69345 13 8 13C6.38728 13 5.25949 13.2692 4.50361 13.5715C4.12656 13.7223 3.8464 13.8797 3.64842 14.0117C3.54962 14.0776 3.47183 14.1368 3.41312 14.1851C3.38378 14.2093 3.35926 14.2307 3.33929 14.2488C3.32931 14.2579 3.32047 14.2662 3.31275 14.2735C3.30889 14.2772 3.3053 14.2807 3.302 14.2839C3.30034 14.2855 3.29876 14.2871 3.29724 14.2886C3.29648 14.2893 3.29574 14.2901 3.29502 14.2908L3.29394 14.2918C3.29342 14.2924 3.29289 14.2929 4 15Z" fill="black"/>
<path fill-rule="evenodd" clip-rule="evenodd" d="M1.29289 1.29289C1.68342 0.902369 2.31658 0.902369 2.70711 1.29289L22.7071 21.2929C23.0976 21.6834 23.0976 22.3166 22.7071 22.7071C22.3166 23.0976 21.6834 23.0976 21.2929 22.7071L1.29289 2.70711C0.902369 2.31658 0.902369 1.68342 1.29289 1.29289Z" fill="black"/>
</svg>
