<svg width="24" height="24" viewBox="0 0 24 24" fill="none" xmlns="http://www.w3.org/2000/svg">
<path fill-rule="evenodd" clip-rule="evenodd" d="M16.1291 4.00243C14.494 3.15833 12.6394 2.83574 10.8153 3.07812C8.99113 3.32051 7.28513 4.11623 5.92716 5.35805C4.56918 6.59987 3.6245 8.22811 3.22041 10.0234C2.81633 11.8186 2.97225 13.6946 3.66717 15.3985C4.3621 17.1024 5.56262 18.5523 7.10698 19.5529C8.65133 20.5535 10.4653 21.0567 12.3044 20.9946C12.8564 20.9759 13.3189 21.4083 13.3376 21.9603C13.3562 22.5122 12.9238 22.9748 12.3719 22.9934C10.1241 23.0693 7.90701 22.4544 6.01947 21.2314C4.13193 20.0085 2.66462 18.2363 1.81527 16.1538C0.965918 14.0712 0.775345 11.7784 1.26923 9.58417C1.76312 7.38998 2.91773 5.3999 4.57747 3.88212C6.23722 2.36434 8.32232 1.3918 10.5518 1.09555C12.7813 0.799298 15.048 1.19358 17.0465 2.22526C19.0451 3.25694 20.6793 4.87644 21.7291 6.86552C22.7788 8.85459 23.1936 11.1177 22.9176 13.3497C22.8498 13.8979 22.3505 14.2872 21.8024 14.2195C21.2543 14.1517 20.8649 13.6524 20.9327 13.1043C21.1585 11.278 20.8192 9.42643 19.9603 7.799C19.1014 6.17158 17.7643 4.84653 16.1291 4.00243Z" fill="black"/>
<path fill-rule="evenodd" clip-rule="evenodd" d="M12 5C12.5523 5 13 5.44772 13 6V11.382L14.4472 12.1056C14.9412 12.3526 15.1414 12.9532 14.8944 13.4472C14.6474 13.9412 14.0468 14.1414 13.5528 13.8944L11.5528 12.8944C11.214 12.725 11 12.3788 11 12V6C11 5.44772 11.4477 5 12 5Z" fill="black"/>
<path fill-rule="evenodd" clip-rule="evenodd" d="M13.2929 17.2929C13.6834 16.9024 14.3166 16.9024 14.7071 17.2929L18 20.5858L21.2929 17.2929C21.6834 16.9024 22.3166 16.9024 22.7071 17.2929C23.0976 17.6834 23.0976 18.3166 22.7071 18.7071L18.7071 22.7071C18.3166 23.0976 17.6834 23.0976 17.2929 22.7071L13.2929 18.7071C12.9024 18.3166 12.9024 17.6834 13.2929 17.2929Z" fill="black"/>
<path fill-rule="evenodd" clip-rule="evenodd" d="M18 13C18.5523 13 19 13.4477 19 14V22C19 22.5523 18.5523 23 18 23C17.4477 23 17 22.5523 17 22V14C17 13.4477 17.4477 13 18 13Z" fill="black"/>
</svg>
