<svg width="24" height="24" viewBox="0 0 24 24" fill="none" xmlns="http://www.w3.org/2000/svg">
<path fill-rule="evenodd" clip-rule="evenodd" d="M1.87868 3.87868C2.44129 3.31607 3.20435 3 4 3H20C20.7956 3 21.5587 3.31607 22.1213 3.87868C22.6839 4.44129 23 5.20435 23 6V13C23 13.5523 22.5523 14 22 14C21.4477 14 21 13.5523 21 13V6C21 5.73478 20.8946 5.48043 20.7071 5.29289C20.5196 5.10536 20.2652 5 20 5H4C3.73478 5 3.48043 5.10536 3.29289 5.29289C3.10536 5.48043 3 5.73478 3 6V18C3 18.5477 3.45228 19 4 19H12C12.5523 19 13 19.4477 13 20C13 20.5523 12.5523 21 12 21H4C2.34772 21 1 19.6523 1 18V6C1 5.20435 1.31607 4.44129 1.87868 3.87868Z" fill="black"/>
<path fill-rule="evenodd" clip-rule="evenodd" d="M1.15612 6.46368C1.45232 5.99754 2.07032 5.85979 2.53645 6.15599L11.5033 11.854C11.6523 11.9468 11.8245 11.996 12.0001 11.996C12.1758 11.996 12.3479 11.9468 12.4969 11.854L21.4638 6.15599C21.9299 5.85979 22.5479 5.99754 22.8441 6.46368C23.1403 6.92981 23.0026 7.54781 22.5365 7.84401L13.5665 13.544C13.5647 13.5452 13.5629 13.5463 13.5611 13.5474C13.0932 13.8406 12.5522 13.996 12.0001 13.996C11.448 13.996 10.9071 13.8406 10.4392 13.5474C10.4374 13.5463 10.4356 13.5452 10.4338 13.544L1.4638 7.84401C0.997666 7.54781 0.859911 6.92981 1.15612 6.46368Z" fill="black"/>
<path fill-rule="evenodd" clip-rule="evenodd" d="M22.7071 16.2929C23.0976 16.6834 23.0976 17.3166 22.7071 17.7071L18.7071 21.7071C18.3166 22.0976 17.6834 22.0976 17.2929 21.7071L15.2929 19.7071C14.9024 19.3166 14.9024 18.6834 15.2929 18.2929C15.6834 17.9024 16.3166 17.9024 16.7071 18.2929L18 19.5858L21.2929 16.2929C21.6834 15.9024 22.3166 15.9024 22.7071 16.2929Z" fill="black"/>
</svg>
