<svg width="24" height="24" viewBox="0 0 24 24" fill="none" xmlns="http://www.w3.org/2000/svg">
<path fill-rule="evenodd" clip-rule="evenodd" d="M15.3999 8.20006C15.8418 7.86869 16.4686 7.95823 16.7999 8.40006C17.5789 9.43864 17.9999 10.7018 17.9999 12.0001C17.9999 13.2983 17.5789 14.5615 16.7999 15.6001C16.4686 16.0419 15.8418 16.1314 15.3999 15.8001C14.9581 15.4687 14.8686 14.8419 15.1999 14.4001C15.7192 13.7077 15.9999 12.8655 15.9999 12.0001C15.9999 11.1346 15.7192 10.2924 15.1999 9.60006C14.8686 9.15823 14.9581 8.53143 15.3999 8.20006Z" fill="black"/>
<path fill-rule="evenodd" clip-rule="evenodd" d="M11.4332 4.09871C11.7797 4.26523 12 4.6156 12 5.00001V19C12 19.3844 11.7797 19.7348 11.4332 19.9013C11.0867 20.0678 10.6755 20.021 10.3753 19.7809L5.64922 16H2C1.44772 16 1 15.5523 1 15V9.00001C1 8.44772 1.44772 8.00001 2 8.00001H5.64922L10.3753 4.21914C10.6755 3.979 11.0867 3.93219 11.4332 4.09871ZM10 7.08063L6.62469 9.78088C6.44738 9.92273 6.22707 10 6 10H3V14H6C6.22707 14 6.44738 14.0773 6.62469 14.2191L10 16.9194V7.08063Z" fill="black"/>
</svg>
