<svg width="24" height="24" viewBox="0 0 24 24" fill="none" xmlns="http://www.w3.org/2000/svg">
<path fill-rule="evenodd" clip-rule="evenodd" d="M21.0084 1.08291C21.2728 0.989546 21.5582 0.972359 21.832 1.03342C22.1094 1.09526 22.3633 1.23481 22.5643 1.43573C22.7652 1.63665 22.9047 1.89063 22.9666 2.16797C23.0276 2.4418 23.0104 2.7272 22.9171 2.99161L16.4188 21.9864C16.3196 22.276 16.1341 22.5282 15.8873 22.7092C15.6406 22.8903 15.3443 22.9915 15.0384 22.9994C14.7324 23.0072 14.4314 22.9213 14.1757 22.7531C13.92 22.5849 13.7218 22.3425 13.6079 22.0584L10.4282 14.1274C10.4282 14.1272 10.4281 14.1271 10.428 14.1269C10.3776 14.0019 10.3025 13.8883 10.207 13.793C10.1115 13.6976 9.99758 13.6226 9.87224 13.5724L1.94154 10.3921C1.65749 10.2782 1.4151 10.08 1.24691 9.82431C1.07872 9.56861 0.992777 9.26757 1.00061 8.96161C1.00845 8.65565 1.10969 8.35941 1.29075 8.11265C1.47182 7.86588 1.72403 7.68042 2.01354 7.58113L21.0084 1.08291ZM20.6966 3.30334L3.93618 9.03719L10.6156 11.7157C10.6157 11.7157 10.6158 11.7158 10.6159 11.7158C10.616 11.7158 10.616 11.7159 10.6161 11.7159C10.992 11.8665 11.3334 12.0915 11.62 12.3775C11.9066 12.6637 12.1324 13.0049 12.2836 13.3807L12.2841 13.3819L14.9629 20.0636L20.6966 3.30334Z" fill="black"/>
<path fill-rule="evenodd" clip-rule="evenodd" d="M22.5611 1.4399C22.9516 1.83044 22.9516 2.46361 22.561 2.85411L11.621 13.7931C11.2305 14.1836 10.5973 14.1836 10.2068 13.793C9.81629 13.4025 9.81632 12.7693 10.2069 12.3788L21.1469 1.43983C21.5374 1.04933 22.1706 1.04936 22.5611 1.4399Z" fill="black"/>
</svg>
