<svg width="24" height="24" viewBox="0 0 24 24" fill="none" xmlns="http://www.w3.org/2000/svg">
<path fill-rule="evenodd" clip-rule="evenodd" d="M10.2235 8.99222C10.3714 9.52433 10.0599 10.0756 9.5278 10.2235L4 11.76V13.1977L17.3568 16.1638C17.8959 16.2835 18.2359 16.8177 18.1162 17.3568C17.9965 17.896 17.4624 18.236 16.9232 18.1162L2.78322 14.9762C2.32561 14.8746 2 14.4688 2 14V11C2 10.5509 2.29946 10.1568 2.7322 10.0365L8.9922 8.29655C9.52431 8.14864 10.0756 8.4601 10.2235 8.99222Z" fill="black"/>
<path fill-rule="evenodd" clip-rule="evenodd" d="M21.6051 5.2039C21.8539 5.393 22 5.68752 22 6.00001V15.34C22 15.8923 21.5522 16.34 21 16.34C20.4477 16.34 20 15.8923 20 15.34V7.31555L13.9575 8.99355C13.4254 9.14132 12.8742 8.82973 12.7264 8.29758C12.5786 7.76544 12.8902 7.21425 13.4224 7.06647L20.7324 5.03647C21.0335 4.95286 21.3563 5.0148 21.6051 5.2039Z" fill="black"/>
<path fill-rule="evenodd" clip-rule="evenodd" d="M6.0659 14.236C6.5983 14.3828 6.91083 14.9335 6.76397 15.4659C6.69383 15.7201 6.67446 15.9857 6.70695 16.2474C6.73945 16.5091 6.82318 16.7619 6.95336 16.9913C7.08355 17.2206 7.25763 17.4221 7.46568 17.5842C7.67372 17.7463 7.91166 17.8658 8.1659 17.936C8.42014 18.0061 8.68571 18.0255 8.94743 17.993C9.20916 17.9605 9.46192 17.8768 9.69129 17.7466C9.92066 17.6164 10.1221 17.4423 10.2842 17.2343C10.4463 17.0262 10.5658 16.7883 10.636 16.534C10.7828 16.0016 11.3335 15.6891 11.8659 15.836C12.3983 15.9828 12.7108 16.5335 12.564 17.0659C12.424 17.5733 12.1854 18.0482 11.8619 18.4634C11.5384 18.8787 11.1363 19.2261 10.6785 19.4859C10.2207 19.7458 9.71624 19.9129 9.19387 19.9777C8.6715 20.0426 8.14147 20.0039 7.63404 19.864C7.12662 19.724 6.65173 19.4854 6.2365 19.1619C5.82126 18.8384 5.47382 18.4363 5.21399 17.9785C4.95417 17.5207 4.78705 17.0162 4.7222 16.4939C4.65734 15.9715 4.696 15.4415 4.83598 14.934C4.98285 14.4016 5.5335 14.0891 6.0659 14.236Z" fill="black"/>
<path fill-rule="evenodd" clip-rule="evenodd" d="M1.29289 1.29289C1.68342 0.902369 2.31658 0.902369 2.70711 1.29289L22.7071 21.2929C23.0976 21.6834 23.0976 22.3166 22.7071 22.7071C22.3166 23.0976 21.6834 23.0976 21.2929 22.7071L1.29289 2.70711C0.902369 2.31658 0.902369 1.68342 1.29289 1.29289Z" fill="black"/>
</svg>
