<svg width="24" height="24" viewBox="0 0 24 24" fill="none" xmlns="http://www.w3.org/2000/svg">
<path fill-rule="evenodd" clip-rule="evenodd" d="M7 4.29999C7.47668 4.29999 7.8871 4.63645 7.98058 5.10387C8.22292 6.31558 8.95318 7.49466 9.92213 8.28512C11.2407 9.36082 12 10.726 12 12.25C12 15.0093 9.76515 17.3 7 17.3C4.23484 17.3 2 15.0093 2 12.25C2 10.7439 2.74214 9.35365 4.0853 8.27912C5.05247 7.50539 5.77579 6.32204 6.01942 5.10387C6.1129 4.63645 6.52332 4.29999 7 4.29999ZM7.0031 7.94522C6.55461 8.66943 5.98735 9.31873 5.3347 9.84086C4.37786 10.6063 4 11.456 4 12.25C4 13.9307 5.36516 15.3 7 15.3C8.63484 15.3 10 13.9307 10 12.25C10 11.454 9.61928 10.6192 8.65787 9.83485C8.01647 9.3116 7.45197 8.66596 7.0031 7.94522Z" fill="black"/>
<path fill-rule="evenodd" clip-rule="evenodd" d="M14.0041 2.02003C14.4792 2.02199 14.8874 2.358 14.9805 2.8239C15.4325 5.0838 16.8008 7.28004 18.6247 8.73915C20.8036 10.4823 21.9993 12.6482 22 15.0179C22.0061 16.5976 21.5433 18.1435 20.6701 19.4599C19.7966 20.7768 18.5517 21.8048 17.0932 22.4134C15.6348 23.022 14.0284 23.1838 12.4779 22.8784C10.9273 22.573 9.50238 21.8141 8.38365 20.6979C7.99269 20.3078 7.99198 19.6747 8.38207 19.2837C8.77215 18.8927 9.40532 18.892 9.79628 19.2821C10.6346 20.1186 11.7024 20.6873 12.8644 20.9161C14.0263 21.145 15.2301 21.0237 16.323 20.5676C17.4159 20.1116 18.3488 19.3413 19.0034 18.3544C19.658 17.3675 20.0049 16.2084 20 15.0242C20 15.0228 20 15.0214 20 15.02C20 13.3906 19.1956 11.7572 17.3753 10.3009C15.9774 9.1826 14.8042 7.70827 13.9985 6.07047C13.8199 6.43301 13.6227 6.78686 13.4076 7.13055C13.1146 7.5987 12.4976 7.74069 12.0294 7.44768C11.5613 7.15468 11.4193 6.53764 11.7123 6.06949C12.3374 5.07078 12.7805 3.96919 13.021 2.81583C13.1181 2.35071 13.529 2.01807 14.0041 2.02003Z" fill="black"/>
</svg>
