<svg width="24" height="24" viewBox="0 0 24 24" fill="none" xmlns="http://www.w3.org/2000/svg">
<path fill-rule="evenodd" clip-rule="evenodd" d="M10.5021 1.40277C10.9577 1.14026 11.4742 1.00208 12 1.00208C12.5258 1.00208 13.0423 1.14026 13.4979 1.40277C13.4986 1.40318 13.4993 1.40359 13.5 1.404L20.4961 5.40178C20.4974 5.40252 20.4987 5.40326 20.5 5.404C20.9556 5.66704 21.334 6.04527 21.5973 6.50074C21.8606 6.95621 21.9995 7.47291 22 7.999V10C22 10.5523 21.5523 11 21 11C20.4477 11 20 10.5523 20 10V8.00105C19.9998 7.82569 19.9535 7.65345 19.8658 7.50163C19.7783 7.35033 19.6527 7.22459 19.5016 7.13695C19.501 7.13665 19.5005 7.13635 19.5 7.13605L12.5039 3.13827C12.5026 3.13753 12.5013 3.13679 12.5 3.13605C12.348 3.04828 12.1755 3.00208 12 3.00208C11.8245 3.00208 11.652 3.04828 11.5 3.13605C11.4987 3.13679 11.4974 3.13753 11.4961 3.13827L4.49841 7.13697C4.34725 7.22461 4.22168 7.35034 4.13423 7.50163C4.04654 7.65333 4.00025 7.82541 4 8.00062V15.9994C4.00025 16.1746 4.04654 16.3467 4.13423 16.4984C4.22167 16.6497 4.34721 16.7754 4.49834 16.863C4.49889 16.8634 4.49945 16.8637 4.5 16.864L11.4961 20.8618C11.4974 20.8625 11.4987 20.8633 11.5 20.864C11.652 20.9518 11.8245 20.998 12 20.998C12.1755 20.998 12.348 20.9518 12.5 20.864C12.5016 20.8631 12.5032 20.8622 12.5048 20.8612L14.5048 19.7212C14.9846 19.4478 15.5953 19.615 15.8688 20.0948C16.1423 20.5746 15.975 21.1853 15.4952 21.4588L13.5 22.5961C13.4992 22.5965 13.4983 22.597 13.4975 22.5975C13.042 22.8599 12.5256 22.998 12 22.998C11.4741 22.998 10.9575 22.8597 10.5019 22.5972C10.5013 22.5968 10.5006 22.5964 10.5 22.5961L3.50386 18.5983C3.50257 18.5975 3.50129 18.5968 3.5 18.5961C3.04439 18.333 2.66597 17.9548 2.40269 17.4993C2.13941 17.0438 2.00054 16.5271 2 16.0011V7.999C2.00054 7.47291 2.13941 6.95621 2.40269 6.50074C2.66597 6.04527 3.04439 5.66704 3.5 5.404C3.50129 5.40326 3.50257 5.40252 3.50386 5.40178L10.5021 1.40277Z" fill="black"/>
<path fill-rule="evenodd" clip-rule="evenodd" d="M6.6321 3.77341C6.9064 3.29406 7.51735 3.12783 7.99671 3.40212L16.9967 8.55212C17.4761 8.82642 17.6423 9.43737 17.368 9.91673C17.0937 10.3961 16.4827 10.5623 16.0034 10.288L7.00339 5.13801C6.52404 4.86372 6.35781 4.25276 6.6321 3.77341Z" fill="black"/>
<path fill-rule="evenodd" clip-rule="evenodd" d="M2.4227 6.50219C2.69766 6.02322 3.30884 5.85783 3.78782 6.13279L12 10.847L20.2121 6.13279C20.6911 5.85783 21.3023 6.02322 21.5772 6.50219C21.8522 6.98117 21.6868 7.59235 21.2078 7.86731L12.4978 12.8673C12.1895 13.0443 11.8104 13.0443 11.5021 12.8673L2.79211 7.86731C2.31314 7.59235 2.14775 6.98117 2.4227 6.50219Z" fill="black"/>
<path fill-rule="evenodd" clip-rule="evenodd" d="M12 11C12.5523 11 13 11.4477 13 12V22C13 22.5523 12.5523 23 12 23C11.4477 23 11 22.5523 11 22V12C11 11.4477 11.4477 11 12 11Z" fill="black"/>
<path fill-rule="evenodd" clip-rule="evenodd" d="M18.5 14C17.6716 14 17 14.6716 17 15.5C17 16.3284 17.6716 17 18.5 17C19.3284 17 20 16.3284 20 15.5C20 14.6716 19.3284 14 18.5 14ZM15 15.5C15 13.567 16.567 12 18.5 12C20.433 12 22 13.567 22 15.5C22 17.433 20.433 19 18.5 19C16.567 19 15 17.433 15 15.5Z" fill="black"/>
<path fill-rule="evenodd" clip-rule="evenodd" d="M19.5629 16.5629C19.9534 16.1724 20.5866 16.1724 20.9771 16.5629L22.7071 18.2929C23.0977 18.6834 23.0977 19.3166 22.7071 19.7071C22.3166 20.0977 21.6834 20.0977 21.2929 19.7071L19.5629 17.9771C19.1724 17.5866 19.1724 16.9534 19.5629 16.5629Z" fill="black"/>
</svg>
