<svg width="24" height="24" viewBox="0 0 24 24" fill="none" xmlns="http://www.w3.org/2000/svg">
<path fill-rule="evenodd" clip-rule="evenodd" d="M12.4684 14.4487C11.409 14.0495 10.2686 13.9132 9.14502 14.0514C8.02141 14.1897 6.9481 14.5984 6.01713 15.2426C5.08616 15.8867 4.32531 16.747 3.79982 17.7498C3.27433 18.7525 2.99988 19.8677 3 20.9998C3.00006 21.5521 2.5524 21.9998 2.00011 21.9999C1.44783 22 1.00006 21.5523 1 21C0.99984 19.5445 1.35271 18.1106 2.02834 16.8214C2.70397 15.5322 3.68221 14.426 4.87917 13.5979C6.07613 12.7697 7.4561 12.2442 8.90074 12.0664C10.3454 11.8886 11.8116 12.0639 13.1736 12.5771C13.6904 12.7719 13.9515 13.3487 13.7568 13.8655C13.562 14.3823 12.9852 14.6434 12.4684 14.4487Z" fill="black"/>
<path fill-rule="evenodd" clip-rule="evenodd" d="M17.6669 12.9148C18.2528 12.3289 19.0474 11.9998 19.876 11.9998C20.7046 11.9998 21.4992 12.3289 22.0851 12.9148C22.671 13.5007 23.0001 14.2953 23.0001 15.1239C23.0001 15.9525 22.671 16.7471 22.0851 17.333L18.0723 21.3418C18.0722 21.3419 18.0722 21.3419 18.0721 21.342C17.7157 21.6985 17.2752 21.9595 16.7913 22.1008L16.791 22.1009L13.921 22.9379C13.921 22.9379 13.921 22.9379 13.921 22.9379C13.6628 23.0132 13.3892 23.0177 13.1287 22.951C12.8682 22.8842 12.6305 22.7487 12.4403 22.5586C12.2502 22.3684 12.1146 22.1307 12.0479 21.8702C11.9812 21.6097 11.9857 21.3361 12.061 21.0779C12.061 21.0779 12.061 21.0779 12.061 21.0779L12.8981 18.2076C13.0393 17.7238 13.3003 17.2833 13.6567 16.927C13.6568 16.9269 13.6568 16.9269 13.6569 16.9268C13.6569 16.9267 13.657 16.9267 13.6571 16.9266L17.6669 12.9148ZM19.0813 14.3288C19.0812 14.3288 19.0812 14.3289 19.0812 14.3289C19.0812 14.3289 19.0811 14.329 19.0811 14.329L15.0709 18.3412C14.9521 18.4599 14.8651 18.6067 14.818 18.7679C14.818 18.7679 14.818 18.7679 14.818 18.768C14.8179 18.7681 14.8179 18.7681 14.8179 18.7682L14.2362 20.7626L16.2307 20.181C16.2308 20.181 16.2309 20.1809 16.231 20.1809C16.3922 20.1338 16.5389 20.0468 16.6577 19.928L20.6709 15.9188C20.6709 15.9188 20.6709 15.9188 20.6709 15.9188C20.8817 15.7079 21.0001 15.422 21.0001 15.1239C21.0001 14.8258 20.8817 14.5398 20.6709 14.329C20.4601 14.1182 20.1741 13.9998 19.876 13.9998C19.5779 13.9998 19.2921 14.1181 19.0813 14.3288ZM13.3614 21.0178C13.3612 21.0178 13.3611 21.0179 13.361 21.0179C13.361 21.0179 13.361 21.0179 13.361 21.0179M13.3614 21.0178L13.361 21.0179L13.3614 21.0178Z" fill="black"/>
<path fill-rule="evenodd" clip-rule="evenodd" d="M10 4C7.79086 4 6 5.79086 6 8C6 10.2091 7.79086 12 10 12C12.2091 12 14 10.2091 14 8C14 5.79086 12.2091 4 10 4ZM4 8C4 4.68629 6.68629 2 10 2C13.3137 2 16 4.68629 16 8C16 11.3137 13.3137 14 10 14C6.68629 14 4 11.3137 4 8Z" fill="black"/>
</svg>
