<svg width="24" height="24" viewBox="0 0 24 24" fill="none" xmlns="http://www.w3.org/2000/svg">
<path fill-rule="evenodd" clip-rule="evenodd" d="M3.09489 14.1487C3.56498 14.4386 3.71106 15.0547 3.42117 15.5248C3.15362 15.9586 3.00883 16.4772 3.00001 17.0069C3.00184 17.6733 3.22555 18.3203 3.63596 18.8456C4.04786 19.3728 4.62418 19.7472 5.2733 19.9093C5.92242 20.0714 6.60709 20.0118 7.21847 19.7401C7.82984 19.4683 8.33284 19 8.6475 18.4096C8.64982 18.4052 8.65217 18.4009 8.65455 18.3966C9.21283 17.3854 10.3186 15.9799 12.01 15.9799H18C18.5523 15.9799 19 16.4276 19 16.9799C19 17.5322 18.5523 17.9799 18 17.9799H12.01C11.5025 17.9799 10.9097 18.4524 10.4087 19.3573C9.88401 20.338 9.04727 21.1159 8.03078 21.5677C7.01182 22.0206 5.8707 22.1198 4.78884 21.8497C3.70697 21.5796 2.74644 20.9556 2.05993 20.0769C1.37343 19.1982 1.00035 18.1153 1 17.0002C0.999999 16.9953 1.00003 16.9905 1.0001 16.9856C1.0125 16.1178 1.24761 15.2391 1.71883 14.475C2.00872 14.0049 2.6248 13.8588 3.09489 14.1487Z" fill="black"/>
<path fill-rule="evenodd" clip-rule="evenodd" d="M12.8103 3.10483C12.4238 2.9995 12.0201 2.97264 11.6231 3.02585C11.226 3.07905 10.8436 3.21124 10.4985 3.41462C10.1533 3.618 9.85244 3.88845 9.6135 4.21001C9.37457 4.53156 9.20246 4.89772 9.10733 5.28687C9.0122 5.67602 8.99598 6.08028 9.05961 6.4758C9.12279 6.86852 9.26344 7.24473 9.47334 7.58254C9.81498 8.10812 10.1325 8.75096 10.2812 9.44026C10.432 10.1389 10.4194 10.9442 10.0085 11.6976C10.0081 11.6982 10.0078 11.6988 10.0075 11.6994L6.87929 17.4761C6.6163 17.9618 6.00941 18.1423 5.52376 17.8793C5.03811 17.6163 4.85761 17.0094 5.1206 16.5238L8.2506 10.7438C8.2512 10.7427 8.2518 10.7415 8.2524 10.7405C8.37047 10.5244 8.40782 10.2404 8.3262 9.86211C8.24327 9.4778 8.0485 9.05899 7.79234 8.6662C7.78886 8.66087 7.78543 8.6555 7.78205 8.6501C7.42807 8.08398 7.19106 7.45269 7.085 6.79349C6.97895 6.13429 7.00599 5.46052 7.16454 4.81194C7.32309 4.16335 7.60994 3.55309 8.00816 3.01717C8.40638 2.48124 8.9079 2.03049 9.48314 1.69153C10.0584 1.35256 10.6957 1.13224 11.3575 1.04356C12.0192 0.954885 12.692 0.999648 13.3362 1.17521C13.9804 1.35077 14.5829 1.65357 15.1082 2.06575C15.6334 2.47793 16.0708 2.99114 16.3946 3.5751C16.6623 4.05813 16.4878 4.66678 16.0048 4.93454C15.5217 5.20231 14.9131 5.0278 14.6453 4.54477C14.4511 4.19439 14.1887 3.88647 13.8735 3.63916C13.5584 3.39185 13.1969 3.21017 12.8103 3.10483Z" fill="black"/>
<path fill-rule="evenodd" clip-rule="evenodd" d="M11.5206 5.12234C12.0052 4.85758 12.6128 5.03587 12.8775 5.52056L16.0075 11.2505C16.0075 11.2505 16.0075 11.2505 16.0075 11.2506C16.2543 11.702 16.9648 11.9999 17.9999 11.9999C19.326 11.9999 20.5978 12.5267 21.5355 13.4644C22.4732 14.4021 22.9999 15.6739 22.9999 16.9999C22.9999 18.326 22.4732 19.5978 21.5355 20.5355C20.5978 21.4732 19.326 21.9999 17.9999 21.9999C17.4477 21.9999 16.9999 21.5522 16.9999 20.9999C16.9999 20.4477 17.4477 19.9999 17.9999 19.9999C18.7956 19.9999 19.5587 19.6839 20.1213 19.1213C20.6839 18.5587 20.9999 17.7956 20.9999 16.9999C20.9999 16.2043 20.6839 15.4412 20.1213 14.8786C19.5587 14.316 18.7956 13.9999 17.9999 13.9999C16.8351 13.9999 15.0657 13.6979 14.2524 12.2094L11.1223 6.47933C10.8576 5.99465 11.0359 5.3871 11.5206 5.12234Z" fill="black"/>
</svg>
