<svg width="24" height="24" viewBox="0 0 24 24" fill="none" xmlns="http://www.w3.org/2000/svg">
<path fill-rule="evenodd" clip-rule="evenodd" d="M9.29289 12.2929C9.68342 11.9024 10.3166 11.9024 10.7071 12.2929L12.7071 14.2929C12.8946 14.4804 13 14.7348 13 15V22C13 22.5523 12.5523 23 12 23C11.4477 23 11 22.5523 11 22V15.4142L9.29289 13.7071C8.90237 13.3166 8.90237 12.6834 9.29289 12.2929Z" fill="black"/>
<path fill-rule="evenodd" clip-rule="evenodd" d="M12 4C10.9392 4 9.92174 4.42143 9.1716 5.17157C8.42145 5.92172 8.00003 6.93913 8.00003 8C8.00003 8.34509 7.82209 8.6658 7.5293 8.84845C6.54273 9.46389 5.77659 10.3762 5.34093 11.4543C4.90527 12.5324 4.82251 13.7208 5.10453 14.8489C5.38655 15.977 6.01884 16.9866 6.91058 17.7329C7.79402 18.4722 8.88706 18.9152 10.0354 19H13.8C13.8119 19 13.8237 19.0002 13.8356 19.0006C14.9519 19.0403 16.0493 18.7051 16.9528 18.0484C17.8564 17.3917 18.5141 16.4514 18.8209 15.3774C19.1278 14.3034 19.0662 13.1576 18.6459 12.1226C18.2257 11.0877 17.471 10.2233 16.5022 9.6673C16.1916 9.489 16 9.15818 16 8.8V8C16 6.93913 15.5786 5.92172 14.8285 5.17157C14.0783 4.42143 13.0609 4 12 4ZM7.75738 3.75736C8.8826 2.63214 10.4087 2 12 2C13.5913 2 15.1174 2.63214 16.2427 3.75736C17.3679 4.88258 18 6.4087 18 8V8.25C19.1151 9.02257 19.9854 10.1054 20.499 11.3702C21.0873 12.8191 21.1736 14.4232 20.744 15.9268C20.3144 17.4305 19.3936 18.7469 18.1287 19.6663C16.8687 20.582 15.3394 21.0512 13.7829 21H10C9.97743 21 9.95484 20.9992 9.93229 20.9977C8.3503 20.8903 6.84306 20.2843 5.62704 19.2667C4.41103 18.2491 3.54881 16.8722 3.16424 15.3339C2.77967 13.7957 2.89253 12.1751 3.48661 10.7049C4.01335 9.40145 4.89436 8.27572 6.02506 7.45228C6.15247 6.06186 6.762 4.75274 7.75738 3.75736Z" fill="black"/>
<path fill-rule="evenodd" clip-rule="evenodd" d="M14.7071 13.2929C15.0976 13.6834 15.0976 14.3166 14.7071 14.7071L12.7071 16.7071C12.3166 17.0976 11.6834 17.0976 11.2929 16.7071C10.9024 16.3166 10.9024 15.6834 11.2929 15.2929L13.2929 13.2929C13.6834 12.9024 14.3166 12.9024 14.7071 13.2929Z" fill="black"/>
</svg>
