<svg width="24" height="24" viewBox="0 0 24 24" fill="none" xmlns="http://www.w3.org/2000/svg">
<path fill-rule="evenodd" clip-rule="evenodd" d="M8.49521 5.60661C8.82294 5.16207 9.44899 5.06738 9.89352 5.39511C10.5037 5.845 11.242 6.08771 12.0001 6.08771C12.7583 6.08771 13.4965 5.845 14.1067 5.39511C14.5512 5.06738 15.1773 5.16207 15.505 5.60661C15.8327 6.05115 15.7381 6.67719 15.2935 7.00492C14.3395 7.70826 13.1854 8.08771 12.0001 8.08771C10.8149 8.08771 9.66073 7.70826 8.70671 7.00492C8.26217 6.67719 8.16748 6.05115 8.49521 5.60661Z" fill="black"/>
<path fill-rule="evenodd" clip-rule="evenodd" d="M7.1525 10.0356C7.51942 9.62282 8.15149 9.58563 8.56428 9.95255C9.22931 10.5437 10.4651 11 11.9999 11C13.5347 11 14.7705 10.5437 15.4356 9.95255C15.8483 9.58563 16.4804 9.62282 16.8473 10.0356C17.2142 10.4484 17.1771 11.0805 16.7643 11.4474C15.6293 12.4562 13.8651 13 11.9999 13C10.1347 13 8.37052 12.4562 7.23555 11.4474C6.82277 11.0805 6.78559 10.4484 7.1525 10.0356Z" fill="black"/>
<path fill-rule="evenodd" clip-rule="evenodd" d="M10.1675 1.49189C10.7067 1.06318 11.3796 0.838119 12.0682 0.856239C12.7568 0.87436 13.417 1.1345 13.9328 1.59098C14.4289 2.02995 14.761 2.62351 14.8762 3.27425L17.8149 13.0696C17.9258 13.2703 17.9619 13.4628 17.9774 13.5712C18.0003 13.7317 18.0001 13.8959 18 13.9831C18 13.9892 18 13.9948 18 14.0001C18 15.3284 17.1379 16.354 16.0627 16.9961C14.9776 17.6442 13.5419 18.0001 12 18.0001C10.4581 18.0001 9.02235 17.6442 7.93722 16.9961C6.86203 16.354 5.99996 15.3284 5.99996 14.0001C5.99996 13.9906 5.99991 13.9803 5.99987 13.9693C5.99912 13.7926 5.9976 13.4298 6.16184 13.047L9.13047 3.15161C9.27559 2.49636 9.64145 1.91022 10.1675 1.49189ZM12.0156 2.85555C11.797 2.8498 11.5834 2.92123 11.4123 3.05731C11.2412 3.19338 11.1235 3.3854 11.0798 3.59964C11.0738 3.62922 11.0665 3.65851 11.0578 3.68743L8.05778 13.6874C8.04348 13.7351 8.02565 13.7816 8.00444 13.8266C8.00325 13.8369 8.00189 13.8537 8.00103 13.8813C8.00004 13.9131 7.99996 13.9475 7.99996 14.0001C7.99996 14.3718 8.23788 14.8462 8.9627 15.279C9.67756 15.706 10.7419 16.0001 12 16.0001C13.2581 16.0001 14.3224 15.706 15.0372 15.279C15.762 14.8462 16 14.3718 16 14.0001C16 13.9747 15.9999 13.9538 15.9998 13.9357C15.9768 13.888 15.9574 13.8385 15.9421 13.7874L12.9421 3.78743C12.9284 3.7417 12.918 3.69504 12.9109 3.64782C12.8786 3.43159 12.7712 3.23364 12.6074 3.08876C12.4437 2.94387 12.2342 2.8613 12.0156 2.85555Z" fill="black"/>
<path fill-rule="evenodd" clip-rule="evenodd" d="M15.6409 11.5882C15.9236 11.1137 16.5373 10.9582 17.0118 11.2409L21.7118 14.0409L21.7145 14.0425C22.3456 14.4212 23 15.0877 23 16C23 16.9635 22.2873 17.6189 21.4575 17.9913L13.9095 22.4605C13.9016 22.4652 13.8937 22.4697 13.8856 22.4742C12.6836 23.142 11.1164 23.142 9.91436 22.4742C9.90928 22.4713 9.90423 22.4685 9.89921 22.4656C9.8963 22.4639 9.8934 22.4622 9.89051 22.4605L2.29051 17.9605C2.28884 17.9595 2.28717 17.9585 2.2855 17.9575C1.65442 17.5788 1 16.9123 1 16C1 15.0877 1.65442 14.4212 2.2855 14.0425C2.29093 14.0393 2.29639 14.0361 2.30188 14.0329L7.00188 11.3329C7.48076 11.0578 8.092 11.223 8.36711 11.7019C8.64221 12.1808 8.47701 12.792 7.99812 13.0671L3.3073 15.7618C3.15291 15.8555 3.06473 15.9428 3.02177 16C3.06519 16.0578 3.1548 16.1464 3.31228 16.2412L10.8963 20.7317C11.4899 21.0561 12.3101 21.0561 12.9037 20.7317L20.4905 16.2395C20.5277 16.2175 20.5663 16.1979 20.6061 16.1809C20.7932 16.1007 20.9016 16.0272 20.9602 15.9775C20.9118 15.9204 20.8256 15.8417 20.6868 15.7583C20.6863 15.758 20.6859 15.7578 20.6855 15.7575L15.9882 12.9591C15.5137 12.6764 15.3582 12.0627 15.6409 11.5882ZM21.006 16.0445C21.006 16.0445 21.0057 16.0441 21.0054 16.0431C21.0058 16.0441 21.006 16.0445 21.006 16.0445ZM2.99402 15.9555C2.99405 15.9555 2.99425 15.956 2.99457 15.9569C2.99416 15.9559 2.994 15.9555 2.99402 15.9555ZM2.99457 16.0431C2.99425 16.0441 2.99405 16.0445 2.99402 16.0445C2.994 16.0445 2.99416 16.0441 2.99457 16.0431Z" fill="black"/>
</svg>
