<svg width="24" height="24" viewBox="0 0 24 24" fill="none" xmlns="http://www.w3.org/2000/svg">
<path fill-rule="evenodd" clip-rule="evenodd" d="M11.4492 1.01471C14.1723 0.877934 16.8491 1.75736 18.9606 3.48242C21.072 5.20748 22.4676 7.65523 22.8765 10.3509C23.2855 13.0466 22.6788 15.7981 21.174 18.0718C20.8691 18.5324 20.2487 18.6586 19.7881 18.3538C19.3276 18.049 19.2013 17.4286 19.5061 16.968C20.7373 15.1077 21.2338 12.8565 20.8992 10.6509C20.5646 8.44534 19.4228 6.44264 17.6952 5.03123C15.9677 3.61981 13.7775 2.90029 11.5495 3.0122C9.32149 3.12411 7.21445 4.05948 5.63703 5.6369C4.0596 7.21432 3.12423 9.32137 3.01232 11.5494C2.90041 13.7774 3.61993 15.9675 5.03135 17.6951C6.44276 19.4226 8.44547 20.5644 10.651 20.899C12.8566 21.2337 15.1079 20.7372 16.9681 19.506C17.4287 19.2012 18.0491 19.3275 18.354 19.788C18.6588 20.2486 18.5325 20.869 18.072 21.1738C15.7983 22.6786 13.0468 23.2854 10.3511 22.8764C7.65535 22.4675 5.2076 21.0719 3.48254 18.9605C1.75748 16.849 0.878056 14.1721 1.01484 11.449C1.15162 8.72592 2.29485 6.15065 4.22281 4.22269C6.15077 2.29473 8.72604 1.1515 11.4492 1.01471Z" fill="black"/>
<path fill-rule="evenodd" clip-rule="evenodd" d="M19 18C18.4477 18 18 18.4477 18 19C18 19.5523 18.4477 20 19 20C19.5523 20 20 19.5523 20 19C20 18.4477 19.5523 18 19 18ZM16 19C16 17.3431 17.3431 16 19 16C20.6569 16 22 17.3431 22 19C22 20.6569 20.6569 22 19 22C17.3431 22 16 20.6569 16 19Z" fill="black"/>
<path fill-rule="evenodd" clip-rule="evenodd" d="M12.7028 12.7028C13.0933 12.3123 13.7265 12.3123 14.117 12.7028L18.297 16.8828C18.6875 17.2733 18.6875 17.9065 18.297 18.297C17.9065 18.6875 17.2733 18.6875 16.8828 18.297L12.7028 14.117C12.3123 13.7265 12.3123 13.0933 12.7028 12.7028Z" fill="black"/>
<path fill-rule="evenodd" clip-rule="evenodd" d="M12 11C11.4477 11 11 11.4477 11 12C11 12.5523 11.4477 13 12 13C12.5523 13 13 12.5523 13 12C13 11.4477 12.5523 11 12 11ZM9 12C9 10.3431 10.3431 9 12 9C13.6569 9 15 10.3431 15 12C15 13.6569 13.6569 15 12 15C10.3431 15 9 13.6569 9 12Z" fill="black"/>
</svg>
