<svg width="24" height="24" viewBox="0 0 24 24" fill="none" xmlns="http://www.w3.org/2000/svg">
<path fill-rule="evenodd" clip-rule="evenodd" d="M11.5524 2.10859C12.9909 1.20611 14.6931 0.818532 16.3806 1.00926C18.068 1.19998 19.6407 1.95772 20.8415 3.1585C22.0423 4.35929 22.8001 5.93204 22.9908 7.61947C23.1815 9.30689 22.7939 11.0091 21.8915 12.4476C20.989 13.8861 19.625 14.9758 18.0227 15.5383C16.6229 16.0298 15.1135 16.0935 13.685 15.7292L13.2932 16.121C13.2932 16.1211 13.2931 16.1211 13.2931 16.1211C12.7306 16.6837 11.9677 16.9999 11.1722 17H11V18C11 18.5305 10.7893 19.0392 10.4142 19.4143C10.0391 19.7893 9.53043 20 9 20H8V21C8 21.5305 7.78929 22.0392 7.41421 22.4143C7.03914 22.7893 6.53043 23 6 23H3C2.46957 23 1.96086 22.7893 1.58579 22.4143C1.21071 22.0392 1 21.5305 1 21V18.8278C1.00017 18.0322 1.31635 17.2693 1.879 16.7068L8.2708 10.315C7.90651 8.88657 7.97023 7.37717 8.46171 5.97729C9.02426 4.37501 10.1139 3.01106 11.5524 2.10859ZM2.58794 17.416L3.293 18.1213C3.1055 18.3087 3.00011 18.5629 3 18.828C3 18.8281 3 18.8282 3 18.8283V21H6V20C6 19.4696 6.21071 18.9609 6.58579 18.5858C6.96086 18.2108 7.46957 18 8 18H9V17C9 16.4696 9.21071 15.9609 9.58579 15.5858C9.96086 15.2108 10.4696 15 11 15H11.1718C11.1719 15 11.1719 15 11.172 15C11.4371 14.9999 11.6913 14.8945 11.8788 14.707L12.583 15.411L11.8789 14.7069L12.6929 13.8929C12.9642 13.6217 13.3667 13.5295 13.729 13.6557C14.905 14.0654 16.1852 14.0638 17.3602 13.6513C18.5352 13.2387 19.5354 12.4396 20.1973 11.3847C20.8591 10.3298 21.1433 9.08153 21.0034 7.84409C20.8636 6.60664 20.3079 5.45329 19.4273 4.57272C18.5467 3.69214 17.3934 3.13647 16.156 2.9966C14.9185 2.85674 13.6702 3.14096 12.6153 3.80278C11.5604 4.46459 10.7613 5.46482 10.3488 6.63983C9.93625 7.81484 9.93468 9.09507 10.3443 10.2711C10.4705 10.6334 10.3784 11.0359 10.1071 11.3071L3.29311 18.1211L2.58794 17.416Z" fill="black"/>
<path d="M16.5 8C16.7761 8 17 7.77614 17 7.5C17 7.22386 16.7761 7 16.5 7C16.2239 7 16 7.22386 16 7.5C16 7.77614 16.2239 8 16.5 8Z" fill="black"/>
<path fill-rule="evenodd" clip-rule="evenodd" d="M16.5 8C16.7761 8 17 7.77614 17 7.5C17 7.22386 16.7761 7 16.5 7C16.2239 7 16 7.22386 16 7.5C16 7.77614 16.2239 8 16.5 8ZM15 7.5C15 6.67157 15.6716 6 16.5 6C17.3284 6 18 6.67157 18 7.5C18 8.32843 17.3284 9 16.5 9C15.6716 9 15 8.32843 15 7.5Z" fill="black"/>
</svg>
