<svg width="24" height="24" viewBox="0 0 24 24" fill="none" xmlns="http://www.w3.org/2000/svg">
<path fill-rule="evenodd" clip-rule="evenodd" d="M13.378 13.378L15.9462 19.9821L16.5886 17.9096C16.5886 17.9094 16.5886 17.9093 16.5887 17.9091C16.5887 17.9091 16.5887 17.909 16.5888 17.9089C16.6849 17.5984 16.8552 17.316 17.0851 17.0861C17.315 16.8562 17.5975 16.6858 17.9082 16.5897C17.9083 16.5896 17.9084 16.5896 17.9086 16.5896L19.9825 15.9464L13.378 13.378ZM13.0462 11.103C12.7755 10.9963 12.4796 10.9706 12.1945 11.0293C11.9076 11.0884 11.6444 11.2302 11.4373 11.4373C11.2302 11.6444 11.0884 11.9076 11.0293 12.1945C10.9706 12.4796 10.9963 12.7755 11.103 13.0462L14.6025 22.0449C14.7156 22.3344 14.9159 22.5815 15.1755 22.7523C15.4352 22.923 15.7415 23.0089 16.0521 22.998C16.3627 22.9872 16.6622 22.8801 16.9094 22.6916C17.1565 22.5031 17.3389 22.2425 17.4315 21.9459L17.4321 21.9439L18.4991 18.5009L18.4993 18.5003L21.9459 17.4315C22.2425 17.3389 22.5031 17.1565 22.6916 16.9094C22.8801 16.6622 22.9872 16.3627 22.998 16.0521C23.0089 15.7415 22.923 15.4352 22.7523 15.1755C22.5815 14.9159 22.3344 14.7156 22.0449 14.6025L13.0462 11.103Z" fill="black"/>
<path fill-rule="evenodd" clip-rule="evenodd" d="M2.87868 2.87868C3.44129 2.31607 4.20435 2 5 2C5.55228 2 6 2.44772 6 3C6 3.55228 5.55228 4 5 4C4.73478 4 4.48043 4.10536 4.29289 4.29289C4.10536 4.48043 4 4.73478 4 5C4 5.55228 3.55228 6 3 6C2.44772 6 2 5.55228 2 5C2 4.20435 2.31607 3.44129 2.87868 2.87868Z" fill="black"/>
<path fill-rule="evenodd" clip-rule="evenodd" d="M18 3C18 2.44772 18.4477 2 19 2C19.7956 2 20.5587 2.31607 21.1213 2.87868C21.6839 3.44129 22 4.20435 22 5C22 5.55228 21.5523 6 21 6C20.4477 6 20 5.55228 20 5C20 4.73478 19.8946 4.48043 19.7071 4.29289C19.5196 4.10536 19.2652 4 19 4C18.4477 4 18 3.55228 18 3Z" fill="black"/>
<path fill-rule="evenodd" clip-rule="evenodd" d="M3 18C3.55228 18 4 18.4477 4 19C4 19.2652 4.10536 19.5196 4.29289 19.7071C4.48043 19.8946 4.73478 20 5 20C5.55228 20 6 20.4477 6 21C6 21.5523 5.55228 22 5 22C4.20435 22 3.44129 21.6839 2.87868 21.1213C2.31607 20.5587 2 19.7956 2 19C2 18.4477 2.44772 18 3 18Z" fill="black"/>
<path fill-rule="evenodd" clip-rule="evenodd" d="M8 3C8 2.44772 8.44772 2 9 2H10C10.5523 2 11 2.44772 11 3C11 3.55228 10.5523 4 10 4H9C8.44772 4 8 3.55228 8 3Z" fill="black"/>
<path fill-rule="evenodd" clip-rule="evenodd" d="M8 21C8 20.4477 8.44772 20 9 20H11C11.5523 20 12 20.4477 12 21C12 21.5523 11.5523 22 11 22H9C8.44772 22 8 21.5523 8 21Z" fill="black"/>
<path fill-rule="evenodd" clip-rule="evenodd" d="M13 3C13 2.44772 13.4477 2 14 2H15C15.5523 2 16 2.44772 16 3C16 3.55228 15.5523 4 15 4H14C13.4477 4 13 3.55228 13 3Z" fill="black"/>
<path fill-rule="evenodd" clip-rule="evenodd" d="M3 8C3.55228 8 4 8.44772 4 9V10C4 10.5523 3.55228 11 3 11C2.44772 11 2 10.5523 2 10V9C2 8.44772 2.44772 8 3 8Z" fill="black"/>
<path fill-rule="evenodd" clip-rule="evenodd" d="M21 8C21.5523 8 22 8.44772 22 9V11C22 11.5523 21.5523 12 21 12C20.4477 12 20 11.5523 20 11V9C20 8.44772 20.4477 8 21 8Z" fill="black"/>
<path fill-rule="evenodd" clip-rule="evenodd" d="M3 13C3.55228 13 4 13.4477 4 14V15C4 15.5523 3.55228 16 3 16C2.44772 16 2 15.5523 2 15V14C2 13.4477 2.44772 13 3 13Z" fill="black"/>
</svg>
