<svg width="24" height="24" viewBox="0 0 24 24" fill="none" xmlns="http://www.w3.org/2000/svg">
<path fill-rule="evenodd" clip-rule="evenodd" d="M9.2072 7.79289C9.59773 8.18342 9.59773 8.81658 9.2072 9.20711L8.21098 10.2033C7.48466 10.9463 7.08025 11.9455 7.0855 12.9846C7.09076 14.0253 7.5065 15.0218 8.24238 15.7577C8.97826 16.4936 9.97482 16.9093 11.0155 16.9146C12.0546 16.9198 13.0538 16.5154 13.7967 15.7891L14.793 14.7929C15.1835 14.4024 15.8167 14.4024 16.2072 14.7929C16.5977 15.1834 16.5977 15.8166 16.2072 16.2071L15.2072 17.2071C15.2048 17.2095 15.2024 17.2119 15.2 17.2142C14.0804 18.3114 12.573 18.9225 11.0054 18.9146C9.43779 18.9067 7.93664 18.2804 6.82816 17.1719C5.71968 16.0634 5.09344 14.5623 5.08553 12.9947C5.07761 11.4271 5.68865 9.91969 6.78588 8.80007C6.78824 8.79767 6.79061 8.79527 6.79299 8.79289L7.79299 7.79289C8.18351 7.40237 8.81668 7.40237 9.2072 7.79289Z" fill="black"/>
<path fill-rule="evenodd" clip-rule="evenodd" d="M14.0716 7.19778C13.421 7.01435 12.7342 7.00108 12.077 7.15926C11.54 7.28849 11 6.95796 10.8708 6.42101C10.7415 5.88406 11.0721 5.34401 11.609 5.21478C12.5992 4.97646 13.6341 4.99645 14.6143 5.27283C15.5945 5.54919 16.4874 6.07264 17.2072 6.79303C17.2073 6.79308 17.2073 6.79314 17.2074 6.79319C17.9276 7.51299 18.4509 8.40565 18.7272 9.38568C19.0036 10.366 19.0236 11.4008 18.7852 12.391C18.656 12.928 18.116 13.2585 17.579 13.1293C17.0421 13 16.7115 12.46 16.8408 11.923C16.9989 11.2658 16.9857 10.579 16.8022 9.9284C16.6188 9.27779 16.2714 8.6852 15.7932 8.20741L15.7926 8.20684C15.3148 7.72867 14.7222 7.38122 14.0716 7.19778Z" fill="black"/>
<path fill-rule="evenodd" clip-rule="evenodd" d="M14 13C14.5523 13 15 13.4477 15 14V16.5C15 17.0523 14.5523 17.5 14 17.5C13.4477 17.5 13 17.0523 13 16.5V14C13 13.4477 13.4477 13 14 13Z" fill="black"/>
<path fill-rule="evenodd" clip-rule="evenodd" d="M14 5.5C14.5523 5.5 15 5.94772 15 6.5V8.343C15 8.89529 14.5523 9.343 14 9.343C13.4477 9.343 13 8.89529 13 8.343V6.5C13 5.94772 13.4477 5.5 14 5.5Z" fill="black"/>
<path fill-rule="evenodd" clip-rule="evenodd" d="M10 9C10.5523 9 11 9.44772 11 10V17.5C11 18.0523 10.5523 18.5 10 18.5C9.44772 18.5 9 18.0523 9 17.5V10C9 9.44772 9.44772 9 10 9Z" fill="black"/>
<path fill-rule="evenodd" clip-rule="evenodd" d="M16.5605 1.10175C16.8404 0.964797 17.1681 0.966162 17.4469 1.10544L18.8144 1.78867C19.0918 1.92746 19.3977 1.99981 19.7079 2C19.708 2 19.7081 2 19.7082 2H20.9999C21.5522 2 21.9999 2.44772 21.9999 3V4.2916C21.9999 4.29173 21.9999 4.29187 21.9999 4.292C22.0001 4.60222 22.0725 4.90815 22.2113 5.1856L22.2115 5.18605L22.8945 6.55305C23.0338 6.83181 23.0352 7.15957 22.8982 7.43948C22.7612 7.7194 22.5016 7.91947 22.1961 7.98058L17.1961 8.98058C16.6545 9.08889 16.1277 8.73768 16.0194 8.19612C16.0062 8.13035 15.9998 8.0648 15.9998 8.00019C15.9351 8.00011 15.8696 7.99373 15.8038 7.98058C15.2623 7.87227 14.9111 7.34544 15.0194 6.80388L16.0194 1.80388C16.0805 1.49831 16.2806 1.2387 16.5605 1.10175ZM17.0247 6.97524L20.5204 6.27611L20.4226 6.0804C20.4225 6.08025 20.4225 6.0801 20.4224 6.07995C20.1448 5.52494 20.0002 4.91295 19.9999 4.2924V4L19.7075 4C19.087 3.99975 18.475 3.85512 17.92 3.57756C17.9199 3.57751 17.9198 3.57746 17.9197 3.57741C17.9196 3.57738 17.9196 3.57736 17.9195 3.57733L17.7238 3.47955L17.0247 6.97524Z" fill="black"/>
<path fill-rule="evenodd" clip-rule="evenodd" d="M8.00019 15.9998C8.00011 15.9352 7.99373 15.8697 7.98058 15.8039C7.87227 15.2624 7.34544 14.9111 6.80388 15.0195L1.80388 16.0195C1.49831 16.0806 1.2387 16.2806 1.10175 16.5606C0.964797 16.8405 0.966162 17.1682 1.10544 17.447L1.78867 18.8144C1.92746 19.0919 1.99981 19.3978 2 19.708C2 19.7081 2 19.7082 2 19.7083V21C2 21.5523 2.44772 22 3 22H4.2916C4.29173 22 4.29187 22 4.292 22C4.60222 22.0002 4.90815 22.0726 5.1856 22.2114L5.18605 22.2116L6.55305 22.8946C6.83181 23.0339 7.15957 23.0352 7.43948 22.8983C7.7194 22.7613 7.91947 22.5017 7.98058 22.1962L8.98058 17.1962C9.08889 16.6546 8.73768 16.1278 8.19612 16.0195C8.13035 16.0063 8.0648 15.9999 8.00019 15.9998ZM6.97524 17.0248L3.47955 17.7239L3.57733 17.9196C3.57736 17.9197 3.57738 17.9197 3.57741 17.9198C3.57746 17.9199 3.57751 17.92 3.57756 17.9201C3.85512 18.4751 3.99975 19.0871 4 19.7076L4 20H4.2924C4.91295 20.0003 5.52494 20.1449 6.07995 20.4225C6.0801 20.4226 6.08025 20.4226 6.0804 20.4227L6.27611 20.5205L6.97524 17.0248Z" fill="black"/>
<path fill-rule="evenodd" clip-rule="evenodd" d="M1.29289 1.29289C1.68342 0.902369 2.31658 0.902369 2.70711 1.29289L22.7071 21.2929C23.0976 21.6834 23.0976 22.3166 22.7071 22.7071C22.3166 23.0976 21.6834 23.0976 21.2929 22.7071L1.29289 2.70711C0.902369 2.31658 0.902369 1.68342 1.29289 1.29289Z" fill="black"/>
</svg>
