<svg width="24" height="24" viewBox="0 0 24 24" fill="none" xmlns="http://www.w3.org/2000/svg">
<path fill-rule="evenodd" clip-rule="evenodd" d="M19 18C18.4477 18 18 18.4477 18 19C18 19.5523 18.4477 20 19 20C19.5523 20 20 19.5523 20 19C20 18.4477 19.5523 18 19 18ZM16 19C16 17.3431 17.3431 16 19 16C20.6569 16 22 17.3431 22 19C22 20.6569 20.6569 22 19 22C17.3431 22 16 20.6569 16 19Z" fill="black"/>
<path fill-rule="evenodd" clip-rule="evenodd" d="M5 4C4.44772 4 4 4.44772 4 5C4 5.55228 4.44772 6 5 6C5.55228 6 6 5.55228 6 5C6 4.44772 5.55228 4 5 4ZM2 5C2 3.34315 3.34315 2 5 2C6.65685 2 8 3.34315 8 5C8 6.65685 6.65685 8 5 8C3.34315 8 2 6.65685 2 5Z" fill="black"/>
<path fill-rule="evenodd" clip-rule="evenodd" d="M5 6C5.55228 6 6 6.44772 6 7V18H17C17.5523 18 18 18.4477 18 19C18 19.5523 17.5523 20 17 20H5C4.44772 20 4 19.5523 4 19V7C4 6.44772 4.44772 6 5 6Z" fill="black"/>
<path fill-rule="evenodd" clip-rule="evenodd" d="M11.7071 12.2929C12.0976 12.6834 12.0976 13.3166 11.7071 13.7071L5.70711 19.7071C5.31658 20.0976 4.68342 20.0976 4.29289 19.7071C3.90237 19.3166 3.90237 18.6834 4.29289 18.2929L10.2929 12.2929C10.6834 11.9024 11.3166 11.9024 11.7071 12.2929Z" fill="black"/>
</svg>
