<svg width="24" height="24" viewBox="0 0 24 24" fill="none" xmlns="http://www.w3.org/2000/svg">
<path fill-rule="evenodd" clip-rule="evenodd" d="M8.38965 4.11724C8.24203 4.03862 8.07705 3.99829 7.9098 3.99993C7.90654 3.99996 7.90327 3.99997 7.9 3.99997H4C3.73478 3.99997 3.48043 4.10533 3.29289 4.29287C3.10536 4.4804 3 4.73476 3 4.99997V18C3 18.2652 3.10536 18.5195 3.29289 18.7071C3.48043 18.8946 3.73478 19 4 19H18.45C18.4523 19 18.4545 19 18.4568 19C18.6796 19.0015 18.8966 18.9285 19.0732 18.7926C19.2496 18.6569 19.3757 18.4663 19.4315 18.2508C19.4316 18.2505 19.4317 18.2503 19.4317 18.25L20.9718 12.25C21.0099 12.1021 21.0137 11.9474 20.9829 11.7977C20.952 11.6481 20.8872 11.5076 20.7935 11.3869C20.6999 11.2662 20.5798 11.1686 20.4426 11.1015C20.3053 11.0344 20.1545 10.9997 20.0018 11L20 11H9.25356C9.07568 11.0058 8.90251 11.059 8.75197 11.1542C8.59872 11.2511 8.4747 11.3878 8.39316 11.5497C8.39153 11.5529 8.38988 11.5562 8.38822 11.5594L6.88822 14.4594C6.63449 14.9499 6.03113 15.1419 5.54058 14.8882C5.05003 14.6345 4.85805 14.0311 5.11178 13.5406L6.60952 10.6449C6.85417 10.1615 7.2252 9.75324 7.68325 9.46366C8.14299 9.17303 8.67308 9.01284 9.21684 9.00024C9.22456 9.00006 9.23228 8.99997 9.24 8.99997H19V7.99997C19 7.73476 18.8946 7.4804 18.7071 7.29287C18.5196 7.10533 18.2652 6.99997 18 6.99997H12.07V5.99812L12.0698 6.99997C11.5732 6.99989 11.0843 6.8765 10.6471 6.64088C10.2117 6.40625 9.84114 6.06764 9.56829 5.65521L8.76115 4.45945C8.75902 4.45629 8.7569 4.45311 8.7548 4.44993C8.66282 4.31024 8.53728 4.19585 8.38965 4.11724ZM12.07 4.99997C12.0701 4.99997 12.0701 4.99997 12.0702 4.99997H18C18.7957 4.99997 19.5587 5.31604 20.1213 5.87865C20.6839 6.44126 21 7.20432 21 7.99997V9.17031C21.1091 9.20874 21.2162 9.25355 21.3207 9.3046C21.7325 9.50582 22.0926 9.79871 22.3736 10.1608C22.6546 10.5228 22.8489 10.9445 22.9415 11.3933C23.0342 11.8421 23.0228 12.3062 22.9082 12.75L21.3686 18.7486L21.3683 18.75C21.2011 19.3973 20.8226 19.9703 20.2926 20.3779C19.7637 20.7848 19.1143 21.0036 18.447 21H4C3.20435 21 2.44129 20.6839 1.87868 20.1213C1.31607 19.5587 1 18.7956 1 18V4.99997C1 4.20432 1.31607 3.44126 1.87868 2.87865C2.44129 2.31604 3.20435 1.99997 4 1.99997H7.8956C8.39548 1.99597 8.88846 2.11695 9.32975 2.35195C9.77076 2.58681 10.1461 2.92809 10.4217 3.34477L11.2288 4.5405C11.231 4.54365 11.2331 4.5468 11.2352 4.54997C11.3262 4.68824 11.4502 4.80173 11.5959 4.88028C11.7416 4.95879 11.9045 4.99992 12.07 4.99997Z" fill="black"/>
</svg>
