<svg width="24" height="24" viewBox="0 0 24 24" fill="none" xmlns="http://www.w3.org/2000/svg">
<g clip-path="url(#clip0_11_34355)">
<path fill-rule="evenodd" clip-rule="evenodd" d="M4.59465 1.99123C5.23367 1.3553 6.09852 0.998291 7.00005 0.998291C7.90158 0.998291 8.76642 1.3553 9.40544 1.99123L9.40715 1.99294L13.7072 6.29294C14.0977 6.68346 14.0977 7.31663 13.7072 7.70715C13.3166 8.09768 12.6835 8.09768 12.2929 7.70715L7.99465 3.40886C7.99443 3.40864 7.99421 3.40842 7.99399 3.4082C7.72982 3.14566 7.37251 2.99829 7.00005 2.99829C6.62763 2.99829 6.27036 3.14562 6.00621 3.4081C6.00595 3.40835 6.0057 3.40861 6.00544 3.40886L3.40886 6.00544C3.40861 6.0057 3.40835 6.00595 3.4081 6.00621C3.14562 6.27036 2.99829 6.62763 2.99829 7.00005C2.99829 7.37251 3.14566 7.72982 3.4082 7.99399C3.40842 7.99421 3.40864 7.99443 3.40886 7.99465L7.70715 12.2929C8.09768 12.6835 8.09768 13.3166 7.70715 13.7072C7.31663 14.0977 6.68346 14.0977 6.29294 13.7072L1.99294 9.40715L1.99123 9.40544C1.3553 8.76642 0.998291 7.90158 0.998291 7.00005C0.998291 6.09852 1.3553 5.23367 1.99123 4.59465L1.99294 4.59294L4.59294 1.99294L4.59465 1.99123Z" fill="black"/>
<path fill-rule="evenodd" clip-rule="evenodd" d="M10.7071 3.29289C11.0976 3.68342 11.0976 4.31658 10.7071 4.70711L8.70711 6.70711C8.31658 7.09763 7.68342 7.09763 7.29289 6.70711C6.90237 6.31658 6.90237 5.68342 7.29289 5.29289L9.29289 3.29289C9.68342 2.90237 10.3166 2.90237 10.7071 3.29289Z" fill="black"/>
<path fill-rule="evenodd" clip-rule="evenodd" d="M20.7071 13.2929C21.0976 13.6834 21.0976 14.3166 20.7071 14.7071L18.7071 16.7071C18.3166 17.0976 17.6834 17.0976 17.2929 16.7071C16.9024 16.3166 16.9024 15.6834 17.2929 15.2929L19.2929 13.2929C19.6834 12.9024 20.3166 12.9024 20.7071 13.2929Z" fill="black"/>
<path fill-rule="evenodd" clip-rule="evenodd" d="M16.2929 10.2929C16.6834 9.90237 17.3166 9.90237 17.7071 10.2929L22.0071 14.5929C23.3376 15.9234 23.3376 18.0766 22.0071 19.4071L19.4071 22.0071C18.0766 23.3376 15.9234 23.3376 14.5929 22.0071L10.2929 17.7071C9.90237 17.3166 9.90237 16.6834 10.2929 16.2929C10.6834 15.9024 11.3166 15.9024 11.7071 16.2929L16.0071 20.5929C16.5566 21.1424 17.4434 21.1424 17.9929 20.5929L20.5929 17.9929C21.1424 17.4434 21.1424 16.5566 20.5929 16.0071L16.2929 11.7071C15.9024 11.3166 15.9024 10.6834 16.2929 10.2929Z" fill="black"/>
<path fill-rule="evenodd" clip-rule="evenodd" d="M16.4812 2.11782C17.1974 1.40173 18.1688 0.999507 19.1817 0.999634C20.1945 0.999761 21.1658 1.40223 21.8819 2.1185C22.598 2.83477 23.0002 3.80616 23.0001 4.81899C22.9999 5.83176 22.5975 6.80299 21.8813 7.51907C21.8813 7.51912 21.8812 7.51916 21.8812 7.51921L8.53434 20.8681L8.53316 20.8692C8.18542 21.2159 7.75792 21.4719 7.28816 21.6147L7.28737 21.615L2.93437 22.935L2.93205 22.9357C2.67272 23.0136 2.39713 23.0199 2.13452 22.9539C1.87191 22.8879 1.63207 22.752 1.44044 22.5607C1.24881 22.3694 1.11254 22.1297 1.0461 21.8672C0.979658 21.6047 0.985513 21.3291 1.06305 21.0697C1.06346 21.0683 1.06387 21.0669 1.06429 21.0656L2.38529 16.7136L2.38611 16.7109C2.53016 16.2411 2.78741 15.8138 3.13524 15.4667C3.13553 15.4664 3.13582 15.4662 3.13611 15.4659L16.4812 2.11782ZM17.8952 3.53221L4.54936 16.881L4.54825 16.8822C4.43244 16.9976 4.34672 17.1397 4.2986 17.296C4.29848 17.2964 4.29836 17.2968 4.29825 17.2972L3.25042 20.7492L6.7062 19.7013C6.86258 19.6537 7.00492 19.5685 7.12076 19.4532C7.12091 19.4531 7.12105 19.4529 7.12119 19.4528L20.4672 6.10482C20.8083 5.76375 21 5.30114 21.0001 4.81874C21.0001 4.33635 20.8085 3.87368 20.4675 3.53253C20.1264 3.19138 19.6638 2.99969 19.1814 2.99963C18.699 2.99957 18.2363 3.19115 17.8952 3.53221Z" fill="black"/>
<path fill-rule="evenodd" clip-rule="evenodd" d="M14.2929 4.29289C14.6834 3.90237 15.3166 3.90237 15.7071 4.29289L19.7071 8.29289C20.0976 8.68342 20.0976 9.31658 19.7071 9.70711C19.3166 10.0976 18.6834 10.0976 18.2929 9.70711L14.2929 5.70711C13.9024 5.31658 13.9024 4.68342 14.2929 4.29289Z" fill="black"/>
</g>
<defs>
<clipPath id="clip0_11_34355">
<rect width="24" height="24" fill="white"/>
</clipPath>
</defs>
</svg>
