<svg width="24" height="24" viewBox="0 0 24 24" fill="none" xmlns="http://www.w3.org/2000/svg">
<path fill-rule="evenodd" clip-rule="evenodd" d="M6.13469 10.3576C6.65513 10.5424 6.9272 11.1142 6.74237 11.6346L3.64489 20.3565L12.3661 17.2673C12.8867 17.0829 13.4582 17.3555 13.6426 17.8761C13.827 18.3967 13.5545 18.9682 13.0339 19.1526L2.33391 22.9426C1.97038 23.0713 1.56521 22.9796 1.29263 22.7068C1.02004 22.434 0.928626 22.0287 1.05769 21.6653L4.85769 10.9653C5.04252 10.4449 5.61425 10.1728 6.13469 10.3576Z" fill="black"/>
<path fill-rule="evenodd" clip-rule="evenodd" d="M3 3C3 2.44772 3.44772 2 4 2H4.01C4.56228 2 5.01 2.44772 5.01 3C5.01 3.55228 4.56228 4 4.01 4H4C3.44772 4 3 3.55228 3 3Z" fill="black"/>
<path fill-rule="evenodd" clip-rule="evenodd" d="M21 8C21 7.44772 21.4477 7 22 7H22.01C22.5623 7 23.01 7.44772 23.01 8C23.01 8.55228 22.5623 9 22.01 9H22C21.4477 9 21 8.55228 21 8Z" fill="black"/>
<path fill-rule="evenodd" clip-rule="evenodd" d="M14 2C14 1.44772 14.4477 1 15 1H15.01C15.5623 1 16.01 1.44772 16.01 2C16.01 2.55228 15.5623 3 15.01 3H15C14.4477 3 14 2.55228 14 2Z" fill="black"/>
<path fill-rule="evenodd" clip-rule="evenodd" d="M21 20C21 19.4477 21.4477 19 22 19H22.01C22.5623 19 23.01 19.4477 23.01 20C23.01 20.5523 22.5623 21 22.01 21H22C21.4477 21 21 20.5523 21 20Z" fill="black"/>
<path fill-rule="evenodd" clip-rule="evenodd" d="M22.9483 1.68253C23.1237 2.20624 22.8413 2.77294 22.3176 2.94829L20.0761 3.69878C19.6583 3.83793 19.3019 4.11785 19.0677 4.4907C18.8334 4.86355 18.736 5.30617 18.792 5.74292C18.7925 5.74678 18.7929 5.75065 18.7934 5.75453C18.9615 7.20062 17.8361 8.50003 16.3501 8.50003H15.9701C15.5783 8.50003 15.2604 8.77042 15.1924 9.12714C15.1919 9.12955 15.1915 9.13196 15.191 9.13436L14.981 10.1944C14.8737 10.7361 14.3475 11.0883 13.8057 10.981C13.264 10.8736 12.9118 10.3474 13.0191 9.80569L13.2285 8.7489C13.4821 7.42776 14.6432 6.50003 15.9701 6.50003H16.3501C16.6228 6.50003 16.8366 6.26166 16.8072 5.98934C16.6945 5.0954 16.8947 4.1899 17.3741 3.4268C17.8547 2.66174 18.5861 2.08729 19.4432 1.80157C19.4435 1.80147 19.4438 1.80137 19.444 1.80128L21.6826 1.05177C22.2063 0.876419 22.773 1.15882 22.9483 1.68253Z" fill="black"/>
<path fill-rule="evenodd" clip-rule="evenodd" d="M18.2151 13.6068C18.4843 12.076 20.0964 11.1663 21.5477 11.74C21.5496 11.7408 21.5514 11.7415 21.5533 11.7423L22.3733 12.0723C22.8857 12.2785 23.1339 12.861 22.9277 13.3733C22.7215 13.8857 22.139 14.1339 21.6267 13.9277L20.8103 13.5992C20.5438 13.4953 20.2395 13.6626 20.1859 13.9477C19.9939 15.13 18.9659 16 17.77 16H17C16.4477 16 16 15.5523 16 15C16 14.4477 16.4477 14 17 14H17.77C17.9899 14 18.1789 13.8362 18.2121 13.6248C18.2131 13.6188 18.2141 13.6128 18.2151 13.6068Z" fill="black"/>
<path fill-rule="evenodd" clip-rule="evenodd" d="M10.6267 1.07233C11.139 0.866137 11.7215 1.11433 11.9277 1.62668L12.2577 2.44668C12.2585 2.44857 12.2592 2.45047 12.26 2.45236C12.8337 3.90366 11.924 5.51575 10.3932 5.78491C10.3826 5.78677 10.372 5.78846 10.3614 5.78997C10.1726 5.81695 10 5.99874 10 6.23002V7.00002C10 7.55231 9.55228 8.00002 9 8.00002C8.44772 8.00002 8 7.55231 8 7.00002V6.23002C8 5.04858 8.85684 3.99604 10.0564 3.81334C10.339 3.75762 10.5042 3.45497 10.4008 3.18973L10.0723 2.37336C9.86612 1.86101 10.1143 1.27852 10.6267 1.07233Z" fill="black"/>
<path fill-rule="evenodd" clip-rule="evenodd" d="M6.69322 11.7181C6.69309 11.718 6.69451 11.7169 6.69784 11.7153C6.695 11.7174 6.69334 11.7182 6.69322 11.7181ZM6.71025 11.7103C6.73282 11.7024 6.78018 11.6915 6.86615 11.6909C7.05231 11.6898 7.33794 11.742 7.71568 11.8933C8.46757 12.1945 9.40006 12.8143 10.2929 13.7071C11.1858 14.6 11.8055 15.5325 12.1067 16.2843C12.258 16.6621 12.3102 16.9477 12.3091 17.1339C12.3086 17.2199 12.2976 17.2672 12.2898 17.2898C12.2672 17.2976 12.2199 17.3086 12.1339 17.3091C11.9477 17.3102 11.6621 17.258 11.2843 17.1067C10.5325 16.8055 9.59997 16.1858 8.70712 15.2929C7.81428 14.4001 7.19448 13.4676 6.89332 12.7157C6.74201 12.3379 6.68979 12.0523 6.69094 11.8661C6.69146 11.7802 6.70241 11.7328 6.71025 11.7103ZM12.2819 17.3068C12.2818 17.3067 12.2826 17.305 12.2847 17.3022C12.2831 17.3055 12.282 17.3069 12.2819 17.3068ZM12.3022 17.2847C12.305 17.2826 12.3067 17.2818 12.3068 17.2819C12.3069 17.282 12.3055 17.2831 12.3022 17.2847ZM6.7153 11.6978C6.71694 11.6945 6.718 11.6931 6.71812 11.6932C6.71824 11.6933 6.71742 11.695 6.7153 11.6978ZM8.45935 10.0367C9.51747 10.4605 10.67 11.2558 11.7071 12.2929C12.7443 13.3301 13.5395 14.4826 13.9633 15.5407C14.1745 16.0679 14.3123 16.6186 14.3091 17.1461C14.3058 17.6799 14.1538 18.2604 13.7071 18.7071C13.2604 19.1538 12.6799 19.3058 12.1461 19.3091C11.6186 19.3123 11.0679 19.1745 10.5407 18.9633C9.48257 18.5395 8.33007 17.7443 7.29291 16.7071C6.25576 15.67 5.46055 14.5175 5.03672 13.4593C4.82552 12.9321 4.68774 12.3815 4.69097 11.8539C4.69425 11.3202 4.84619 10.7396 5.29291 10.2929C5.73963 9.84619 6.32015 9.69425 6.85389 9.69097C7.38147 9.68774 7.93209 9.82552 8.45935 10.0367Z" fill="black"/>
</svg>
