<svg width="24" height="24" viewBox="0 0 24 24" fill="none" xmlns="http://www.w3.org/2000/svg">
<path fill-rule="evenodd" clip-rule="evenodd" d="M18.6491 1.17163C18.9187 1.05914 19.2079 1.00122 19.5 1.00122C19.7922 1.00122 20.0814 1.05914 20.351 1.17163C20.6197 1.28374 20.8636 1.44783 21.0687 1.65447C21.0694 1.65518 21.0701 1.65589 21.0708 1.65659L22.3431 2.92884C22.5511 3.13273 22.7166 3.37592 22.8299 3.64433C22.9442 3.91513 23.0031 4.2061 23.0031 4.50005C23.0031 4.79399 22.9442 5.08496 22.8299 5.35576C22.7166 5.62415 22.5511 5.86734 22.3431 6.07122L6.07122 22.3431C5.86734 22.5511 5.62415 22.7166 5.35576 22.8299C5.08496 22.9442 4.79399 23.0031 4.50005 23.0031C4.2061 23.0031 3.91513 22.9442 3.64433 22.8299C3.37592 22.7166 3.13273 22.5511 2.92884 22.3431L1.65659 21.0708C1.65589 21.0701 1.65518 21.0694 1.65447 21.0687C1.44783 20.8636 1.28374 20.6197 1.17163 20.351C1.05914 20.0814 1.00122 19.7922 1.00122 19.5C1.00122 19.2079 1.05914 18.9187 1.17163 18.6491C1.28373 18.3804 1.4478 18.1365 1.65441 17.9315C1.65514 17.9307 1.65587 17.93 1.65659 17.9293L17.9293 1.65659C17.93 1.65587 17.9307 1.65514 17.9315 1.65441C18.1365 1.4478 18.3804 1.28373 18.6491 1.17163ZM19.5 3.00122C19.4723 3.00122 19.4448 3.00672 19.4192 3.01741C19.3936 3.0281 19.3703 3.04377 19.3508 3.0635C19.3496 3.06472 19.3484 3.06594 19.3472 3.06715L3.06715 19.3472C3.06594 19.3484 3.06472 19.3496 3.0635 19.3508C3.04377 19.3703 3.0281 19.3936 3.01741 19.4192C3.00672 19.4448 3.00122 19.4723 3.00122 19.5C3.00122 19.5278 3.00672 19.5553 3.01741 19.5809C3.0281 19.6065 3.04377 19.6298 3.0635 19.6493C3.06472 19.6505 3.06594 19.6517 3.06715 19.6529L4.34715 20.9329C4.35036 20.9361 4.35355 20.9394 4.35671 20.9426C4.37535 20.9618 4.39764 20.977 4.42225 20.9874C4.44687 20.9978 4.47332 21.0031 4.50005 21.0031C4.52677 21.0031 4.55322 20.9978 4.57784 20.9874C4.60245 20.977 4.62474 20.9618 4.64338 20.9426C4.64654 20.9394 4.64973 20.9361 4.65294 20.9329L20.9329 4.65294C20.9361 4.64973 20.9394 4.64654 20.9426 4.64338C20.9618 4.62474 20.977 4.60245 20.9874 4.57784C20.9978 4.55322 21.0031 4.52677 21.0031 4.50005C21.0031 4.47332 20.9978 4.44687 20.9874 4.42225C20.977 4.39764 20.9618 4.37535 20.9426 4.35671C20.9394 4.35355 20.9361 4.35036 20.9329 4.34715L19.6529 3.06715L19.6509 3.06513L19.6493 3.0635C19.6298 3.04377 19.6065 3.0281 19.5809 3.01741C19.5553 3.00672 19.5278 3.00122 19.5 3.00122Z" fill="black"/>
<path fill-rule="evenodd" clip-rule="evenodd" d="M13.2929 6.29289C13.6834 5.90237 14.3166 5.90237 14.7071 6.29289L17.7071 9.29289C18.0976 9.68342 18.0976 10.3166 17.7071 10.7071C17.3166 11.0976 16.6834 11.0976 16.2929 10.7071L13.2929 7.70711C12.9024 7.31658 12.9024 6.68342 13.2929 6.29289Z" fill="black"/>
<path fill-rule="evenodd" clip-rule="evenodd" d="M5 5C5.55228 5 6 5.44772 6 6V10C6 10.5523 5.55228 11 5 11C4.44772 11 4 10.5523 4 10V6C4 5.44772 4.44772 5 5 5Z" fill="black"/>
<path fill-rule="evenodd" clip-rule="evenodd" d="M19 13C19.5523 13 20 13.4477 20 14V18C20 18.5523 19.5523 19 19 19C18.4477 19 18 18.5523 18 18V14C18 13.4477 18.4477 13 19 13Z" fill="black"/>
<path fill-rule="evenodd" clip-rule="evenodd" d="M10 1C10.5523 1 11 1.44772 11 2V4C11 4.55228 10.5523 5 10 5C9.44772 5 9 4.55228 9 4V2C9 1.44772 9.44772 1 10 1Z" fill="black"/>
<path fill-rule="evenodd" clip-rule="evenodd" d="M2 8C2 7.44772 2.44772 7 3 7H7C7.55228 7 8 7.44772 8 8C8 8.55228 7.55228 9 7 9H3C2.44772 9 2 8.55228 2 8Z" fill="black"/>
<path fill-rule="evenodd" clip-rule="evenodd" d="M16 16C16 15.4477 16.4477 15 17 15H21C21.5523 15 22 15.4477 22 16C22 16.5523 21.5523 17 21 17H17C16.4477 17 16 16.5523 16 16Z" fill="black"/>
<path fill-rule="evenodd" clip-rule="evenodd" d="M8 3C8 2.44772 8.44772 2 9 2H11C11.5523 2 12 2.44772 12 3C12 3.55228 11.5523 4 11 4H9C8.44772 4 8 3.55228 8 3Z" fill="black"/>
</svg>
