<svg width="24" height="24" viewBox="0 0 24 24" fill="none" xmlns="http://www.w3.org/2000/svg">
<path fill-rule="evenodd" clip-rule="evenodd" d="M10.7554 1.26998C11.1461 1.09183 11.5705 0.999634 12 0.999634C12.4293 0.999634 12.8536 1.09178 13.2442 1.26984C13.2443 1.26986 13.2443 1.26987 13.2443 1.26989C13.2445 1.26998 13.2448 1.27007 13.245 1.27017L21.8298 5.1778C22.1819 5.33453 22.4813 5.58972 22.6919 5.9127C22.9037 6.23762 23.0165 6.61712 23.0165 7.00499C23.0165 7.39286 22.9037 7.77236 22.6919 8.09728C22.4813 8.42033 22.1818 8.67556 21.8295 8.83228L13.255 12.7298C13.2548 12.7299 13.2547 12.7299 13.2545 12.73C12.8638 12.9082 12.4394 13.0003 12.01 13.0003C11.5805 13.0003 11.156 12.9081 10.7653 12.73C10.7652 12.7299 10.7652 12.7299 10.7652 12.7299C10.7651 12.7299 10.765 12.7298 10.765 12.7298L2.18993 8.82208C1.83788 8.66533 1.53856 8.41019 1.32804 8.08728C1.1162 7.76236 1.00342 7.38286 1.00342 6.99499C1.00342 6.60712 1.1162 6.22762 1.32804 5.9027C1.53861 5.57972 1.83803 5.32453 2.19019 5.16779L10.755 1.27017C10.7551 1.2701 10.7552 1.27004 10.7554 1.26998ZM12 2.99963C11.8568 2.99963 11.7152 3.03039 11.585 3.08981L3.01417 6.99018C3.01059 6.9918 3.00701 6.99341 3.00342 6.99499C3.00717 6.99665 3.01091 6.99832 3.01465 7.00002L11.595 10.9102C11.7252 10.9696 11.8668 11.0003 12.01 11.0003C12.1532 11.0003 12.2947 10.9696 12.425 10.9102L21.0062 7.00962C21.0096 7.00806 21.0131 7.00652 21.0165 7.00499C21.0129 7.0034 21.0093 7.00178 21.0057 7.00014L12.415 3.08981C12.2847 3.03039 12.1432 2.99963 12 2.99963Z" fill="black"/>
<path fill-rule="evenodd" clip-rule="evenodd" d="M16.9995 9.08639C17.2279 8.58356 17.8207 8.36112 18.3236 8.58955L21.8194 10.1777C22.1717 10.3344 22.4712 10.5896 22.6819 10.9127C22.8937 11.2376 23.0065 11.6171 23.0065 12.005C23.0065 12.3929 22.8937 12.7724 22.6819 13.0973C22.4713 13.4203 22.1718 13.6756 21.8195 13.8323L13.2425 17.731C12.8537 17.907 12.4318 17.9981 12.005 17.9981C11.5782 17.9981 11.1563 17.907 10.7675 17.731L2.16608 13.8203C2.16222 13.8186 2.15838 13.8168 2.15455 13.815C1.81096 13.6535 1.52043 13.3975 1.31693 13.077C1.11343 12.7565 1.00537 12.3847 1.00537 12.005C1.00537 11.6253 1.11343 11.2535 1.31693 10.933C1.52043 10.6125 1.81096 10.3565 2.15455 10.195C2.15776 10.1935 2.16097 10.192 2.1642 10.1905L5.6642 8.59053C6.16649 8.36091 6.75982 8.58195 6.98943 9.08424C7.21905 9.58653 6.99801 10.1799 6.49572 10.4095L3.00554 12.005L11.5925 15.909C11.5927 15.9092 11.5929 15.9093 11.5932 15.9094C11.7226 15.9678 11.863 15.9981 12.005 15.9981C12.147 15.9981 12.2874 15.9678 12.4169 15.9093C12.4171 15.9092 12.4173 15.9091 12.4175 15.909L20.9962 12.0096C20.9996 12.0081 21.003 12.0065 21.0065 12.005C21.0049 12.0043 21.0032 12.0036 21.0016 12.0028C20.9999 12.002 20.9981 12.0013 20.9964 12.0005L17.4964 10.4105C16.9935 10.182 16.7711 9.58922 16.9995 9.08639Z" fill="black"/>
<path fill-rule="evenodd" clip-rule="evenodd" d="M16.9995 14.0864C17.2279 13.5836 17.8207 13.3611 18.3236 13.5895L21.8194 15.1777C22.1717 15.3344 22.4712 15.5896 22.6819 15.9127C22.8937 16.2376 23.0065 16.6171 23.0065 17.005C23.0065 17.3929 22.8937 17.7724 22.6819 18.0973C22.4713 18.4203 22.1718 18.6756 21.8195 18.8323L13.2425 22.731C12.8537 22.907 12.4318 22.9981 12.005 22.9981C11.5782 22.9981 11.1563 22.907 10.7675 22.731L2.16608 18.8203C2.16222 18.8186 2.15838 18.8168 2.15455 18.815C1.81096 18.6535 1.52043 18.3975 1.31693 18.077C1.11343 17.7565 1.00537 17.3847 1.00537 17.005C1.00537 16.6253 1.11344 16.2535 1.31693 15.933C1.52043 15.6125 1.81096 15.3565 2.15455 15.195C2.15776 15.1935 2.16097 15.192 2.1642 15.1905L5.6642 13.5905C6.16649 13.3609 6.75982 13.582 6.98943 14.0842C7.21905 14.5865 6.99801 15.1799 6.49572 15.4095L3.00554 17.005L11.5925 20.909C11.5927 20.9092 11.5929 20.9093 11.5932 20.9094C11.7226 20.9678 11.863 20.9981 12.005 20.9981C12.147 20.9981 12.2874 20.9678 12.4169 20.9093C12.4171 20.9092 12.4173 20.9091 12.4175 20.909L20.9962 17.0096C20.9996 17.0081 21.003 17.0065 21.0065 17.005C21.0049 17.0043 21.0032 17.0036 21.0016 17.0028C20.9999 17.002 20.9981 17.0013 20.9964 17.0005L17.4964 15.4105C16.9935 15.182 16.7711 14.5892 16.9995 14.0864Z" fill="black"/>
</svg>
