<svg width="24" height="24" viewBox="0 0 24 24" fill="none" xmlns="http://www.w3.org/2000/svg">
<path fill-rule="evenodd" clip-rule="evenodd" d="M14.2929 4.29289C14.6834 3.90237 15.3166 3.90237 15.7071 4.29289L22.0059 10.5917C22.0061 10.5919 22.0064 10.5922 22.0067 10.5924C22.3233 10.9082 22.5745 11.2832 22.746 11.6962C22.9176 12.1094 23.0059 12.5525 23.0059 13C23.0059 13.4475 22.9176 13.8906 22.746 14.3039C22.5746 14.7166 22.3235 15.0915 22.0071 15.4071L22.0059 15.4083M22.0059 15.4083L17.7071 19.7071C17.3166 20.0976 16.6834 20.0976 16.2929 19.7071C15.9024 19.3166 15.9024 18.6834 16.2929 18.2929L20.5941 13.9917C20.7246 13.8616 20.8282 13.7071 20.8989 13.5369C20.9695 13.3667 21.0059 13.1843 21.0059 13C21.0059 12.8157 20.9695 12.6333 20.8989 12.4631C20.8282 12.2929 20.7246 12.1384 20.5941 12.0083L14.2929 5.70711C13.9024 5.31658 13.9024 4.68342 14.2929 4.29289" fill="black"/>
<path fill-rule="evenodd" clip-rule="evenodd" d="M1.58579 4.58579C1.96086 4.21071 2.46957 4 3 4H8.17221C8.96775 4.00017 9.73064 4.31631 10.2931 4.87889C10.2931 4.87893 10.2932 4.87896 10.2932 4.879L15.9971 10.5829C15.9979 10.5836 15.9986 10.5844 15.9993 10.5851C16.6372 11.227 16.9951 12.0951 16.9951 13C16.9951 13.9049 16.6372 14.773 15.9993 15.4149C15.9986 15.4156 15.9979 15.4164 15.9971 15.4171L12.4171 18.9971L12.4149 18.9993C11.773 19.6372 10.9049 19.9951 10 19.9951C9.09513 19.9951 8.227 19.6372 7.58514 18.9993C7.58439 18.9986 7.58364 18.9979 7.58289 18.9971L1.879 13.2932C1.87896 13.2932 1.87893 13.2931 1.87889 13.2931C1.31631 12.7306 1.00017 11.9677 1 11.1722V6C1 5.46957 1.21071 4.96086 1.58579 4.58579ZM2.58576 12.5862L3.29311 11.8789L8.99486 17.5807C8.99517 17.581 8.99548 17.5813 8.99579 17.5816C9.26286 17.8465 9.6238 17.9951 10 17.9951C10.3762 17.9951 10.7371 17.8465 11.0042 17.5816C11.0045 17.5813 11.0048 17.581 11.0051 17.5807L14.5807 14.0051C14.581 14.0048 14.5814 14.0044 14.5817 14.0041C14.8465 13.737 14.9951 13.3761 14.9951 13C14.9951 12.6239 14.8465 12.263 14.5817 11.9959C14.5814 11.9956 14.581 11.9952 14.5807 11.9949L8.87889 6.29311L9.58608 5.58592L8.87879 6.293C8.69134 6.1055 8.43712 6.00011 8.172 6C8.17193 6 8.17186 6 8.17179 6L3 6V11.1718C3 11.1719 3 11.1719 3 11.172C3.00011 11.4371 3.1055 11.6913 3.293 11.8788L2.58576 12.5862Z" fill="black"/>
<path d="M6.5 10C6.77614 10 7 9.77614 7 9.5C7 9.22386 6.77614 9 6.5 9C6.22386 9 6 9.22386 6 9.5C6 9.77614 6.22386 10 6.5 10Z" fill="black"/>
<path fill-rule="evenodd" clip-rule="evenodd" d="M6.5 10C6.77614 10 7 9.77614 7 9.5C7 9.22386 6.77614 9 6.5 9C6.22386 9 6 9.22386 6 9.5C6 9.77614 6.22386 10 6.5 10ZM5 9.5C5 8.67157 5.67157 8 6.5 8C7.32843 8 8 8.67157 8 9.5C8 10.3284 7.32843 11 6.5 11C5.67157 11 5 10.3284 5 9.5Z" fill="black"/>
</svg>
