<svg width="24" height="24" viewBox="0 0 24 24" fill="none" xmlns="http://www.w3.org/2000/svg">
<path fill-rule="evenodd" clip-rule="evenodd" d="M1.29289 1.29289C1.68342 0.902369 2.31658 0.902369 2.70711 1.29289L22.7071 21.2929C23.0976 21.6834 23.0976 22.3166 22.7071 22.7071C22.3166 23.0976 21.6834 23.0976 21.2929 22.7071L1.29289 2.70711C0.902369 2.31658 0.902369 1.68342 1.29289 1.29289Z" fill="black"/>
<path fill-rule="evenodd" clip-rule="evenodd" d="M4.9317 3.53904C5.2691 3.97629 5.18815 4.60426 4.75091 4.94165C4.20655 5.3617 3.76568 5.90091 3.46216 6.51788C3.1587 7.13473 3.0006 7.8129 3 8.50035C3.00017 10.347 4.20081 11.8366 5.69502 13.281C5.69908 13.2849 5.70311 13.2888 5.70711 13.2928L12 19.5857L15.7929 15.7928C16.1834 15.4023 16.8166 15.4023 17.2071 15.7928C17.5976 16.1834 17.5976 16.8165 17.2071 17.2071L12.7071 21.7071C12.3166 22.0976 11.6834 22.0976 11.2929 21.7071L4.29886 14.713C2.79443 13.258 1 11.2494 1 8.49995L1 8.49916C1.00079 7.50598 1.22916 6.52619 1.66757 5.63502C2.10599 4.74385 2.74279 3.96499 3.52909 3.35825C3.96634 3.02085 4.59431 3.1018 4.9317 3.53904Z" fill="black"/>
<path fill-rule="evenodd" clip-rule="evenodd" d="M14.5518 4.35432C13.9839 4.60163 13.4001 5.0141 12.7071 5.70711C12.519 5.89519 12.2637 6.00059 11.9977 6C11.7317 5.9994 11.4769 5.89286 11.2897 5.70393C10.2818 4.68693 9.47455 4.25484 8.57205 4.08219C8.0296 3.97842 7.67399 3.45455 7.77776 2.9121C7.88153 2.36966 8.4054 2.01404 8.94785 2.11781C10.0714 2.33275 11.0368 2.81953 12.0019 3.63766C12.5692 3.1585 13.141 2.78731 13.7531 2.52068C14.6268 2.14018 15.5198 2 16.5 2C18.2239 2 19.8772 2.68482 21.0961 3.90381C22.3151 5.12279 23 6.77609 23 8.5C23 11.047 21.4347 12.9591 20.0422 14.372C19.6545 14.7653 19.0213 14.7699 18.628 14.3822C18.2346 13.9945 18.2301 13.3614 18.6177 12.968C19.9652 11.6009 21 10.193 21 8.5C21 7.30653 20.5258 6.16193 19.6819 5.31802C18.838 4.47411 17.6934 4 16.5 4C15.7201 4 15.1131 4.10982 14.5518 4.35432Z" fill="black"/>
</svg>
