<svg width="24" height="24" viewBox="0 0 24 24" fill="none" xmlns="http://www.w3.org/2000/svg">
<path fill-rule="evenodd" clip-rule="evenodd" d="M9.00011 3C9.00018 3 9.00025 3 9.00032 3H16.0001C16.5524 3 17.0001 3.44772 17.0001 4C17.0001 4.55228 16.5524 5 16.0001 5H8.99958C8.67953 4.99983 8.36412 5.07648 8.07983 5.22349C7.79555 5.37051 7.55069 5.5836 7.36585 5.84487C7.181 6.10614 7.06155 6.40796 7.01754 6.72497C6.97352 7.04198 7.00623 7.36492 7.11292 7.66667C7.29701 8.18737 7.02414 8.75871 6.50344 8.94281C5.98274 9.1269 5.4114 8.85403 5.2273 8.33333C5.01393 7.72984 4.94851 7.08396 5.03654 6.44994C5.12456 5.81592 5.36346 5.21229 5.73315 4.68974C6.10285 4.1672 6.59256 3.74101 7.16113 3.44698C7.72955 3.15303 8.36019 2.99975 9.00011 3Z" fill="black"/>
<path fill-rule="evenodd" clip-rule="evenodd" d="M13 12C13 11.4477 13.4477 11 14 11C15.3261 11 16.5979 11.5268 17.5355 12.4645C18.4732 13.4021 19 14.6739 19 16C19 17.3261 18.4732 18.5979 17.5355 19.5355C16.5979 20.4732 15.3261 21 14 21H6C5.44772 21 5 20.5523 5 20C5 19.4477 5.44772 19 6 19H14C14.7956 19 15.5587 18.6839 16.1213 18.1213C16.6839 17.5587 17 16.7956 17 16C17 15.2044 16.6839 14.4413 16.1213 13.8787C15.5587 13.3161 14.7956 13 14 13C13.4477 13 13 12.5523 13 12Z" fill="black"/>
<path fill-rule="evenodd" clip-rule="evenodd" d="M3 12C3 11.4477 3.44772 11 4 11H20C20.5523 11 21 11.4477 21 12C21 12.5523 20.5523 13 20 13H4C3.44772 13 3 12.5523 3 12Z" fill="black"/>
</svg>
