<svg width="24" height="24" viewBox="0 0 24 24" fill="none" xmlns="http://www.w3.org/2000/svg">
<path fill-rule="evenodd" clip-rule="evenodd" d="M8 2.1001C8.55228 2.1001 9 2.54781 9 3.1001V7.0001C9 7.79575 9.31607 8.55881 9.87868 9.12142C10.4413 9.68403 11.2043 10.0001 12 10.0001C12.7956 10.0001 13.5587 9.68403 14.1213 9.12142C14.6839 8.55881 15 7.79575 15 7.0001V3.1001C15 2.54781 15.4477 2.1001 16 2.1001C16.5523 2.1001 17 2.54781 17 3.1001V7.0001C17 8.32618 16.4732 9.59795 15.5355 10.5356C14.5979 11.4733 13.3261 12.0001 12 12.0001C10.6739 12.0001 9.40215 11.4733 8.46447 10.5356C7.52678 9.59795 7 8.32618 7 7.0001V3.1001C7 2.54781 7.44772 2.1001 8 2.1001Z" fill="black"/>
<path fill-rule="evenodd" clip-rule="evenodd" d="M7.29289 13.2929C7.68342 12.9024 8.31658 12.9024 8.70711 13.2929L9.70711 14.2929C10.0976 14.6834 10.0976 15.3166 9.70711 15.7071C9.31658 16.0976 8.68342 16.0976 8.29289 15.7071L7.29289 14.7071C6.90237 14.3166 6.90237 13.6834 7.29289 13.2929Z" fill="black"/>
<path fill-rule="evenodd" clip-rule="evenodd" d="M16.7071 13.2929C17.0976 13.6834 17.0976 14.3166 16.7071 14.7071L15.7071 15.7071C15.3166 16.0976 14.6834 16.0976 14.2929 15.7071C13.9024 15.3166 13.9024 14.6834 14.2929 14.2929L15.2929 13.2929C15.6834 12.9024 16.3166 12.9024 16.7071 13.2929Z" fill="black"/>
<path fill-rule="evenodd" clip-rule="evenodd" d="M12 3C10.1435 3 8.36301 3.7375 7.05025 5.05025C5.7375 6.36301 5 8.14348 5 10V14C5 16.2477 6.75228 18 9 18H15C17.2477 18 19 16.2477 19 14V10C19 8.14348 18.2625 6.36301 16.9497 5.05025C15.637 3.7375 13.8565 3 12 3ZM5.63604 3.63604C7.32387 1.94821 9.61305 1 12 1C14.3869 1 16.6761 1.94821 18.364 3.63604C20.0518 5.32387 21 7.61305 21 10V14C21 17.3523 18.3523 20 15 20H9C5.64772 20 3 17.3523 3 14V10C3 7.61305 3.94821 5.32387 5.63604 3.63604Z" fill="black"/>
<path fill-rule="evenodd" clip-rule="evenodd" d="M8.55481 18.1681C9.01434 18.4744 9.13851 19.0953 8.83216 19.5548L6.83216 22.5548C6.5258 23.0143 5.90493 23.1385 5.44541 22.8322C4.98588 22.5258 4.8617 21.9049 5.16806 21.4454L7.16806 18.4454C7.47441 17.9859 8.09528 17.8617 8.55481 18.1681Z" fill="black"/>
<path fill-rule="evenodd" clip-rule="evenodd" d="M15.4454 18.1681C15.9049 17.8617 16.5258 17.9859 16.8322 18.4454L18.8322 21.4454C19.1385 21.9049 19.0143 22.5258 18.5548 22.8322C18.0953 23.1385 17.4744 23.0143 17.1681 22.5548L15.1681 19.5548C14.8617 19.0953 14.9859 18.4744 15.4454 18.1681Z" fill="black"/>
</svg>
