<svg width="24" height="24" viewBox="0 0 24 24" fill="none" xmlns="http://www.w3.org/2000/svg">
<path fill-rule="evenodd" clip-rule="evenodd" d="M6.99998 6C7.37875 6 7.72501 6.214 7.8944 6.55279L11.8944 14.5528C12.1414 15.0468 11.9412 15.6474 11.4472 15.8944C10.9532 16.1414 10.3525 15.9412 10.1055 15.4472L6.99998 9.23607L3.8944 15.4472C3.64741 15.9412 3.04674 16.1414 2.55276 15.8944C2.05878 15.6474 1.85856 15.0468 2.10555 14.5528L6.10555 6.55279C6.27494 6.214 6.6212 6 6.99998 6Z" fill="black"/>
<path fill-rule="evenodd" clip-rule="evenodd" d="M3 13C3 12.4477 3.44772 12 4 12H10C10.5523 12 11 12.4477 11 13C11 13.5523 10.5523 14 10 14H4C3.44772 14 3 13.5523 3 13Z" fill="black"/>
<path fill-rule="evenodd" clip-rule="evenodd" d="M18 10C16.8954 10 16 10.8954 16 12C16 13.1046 16.8954 14 18 14C19.1046 14 20 13.1046 20 12C20 10.8954 19.1046 10 18 10ZM14 12C14 9.79086 15.7909 8 18 8C20.2091 8 22 9.79086 22 12C22 14.2091 20.2091 16 18 16C15.7909 16 14 14.2091 14 12Z" fill="black"/>
<path fill-rule="evenodd" clip-rule="evenodd" d="M21 8C21.5523 8 22 8.44772 22 9V15C22 15.5523 21.5523 16 21 16C20.4477 16 20 15.5523 20 15V9C20 8.44772 20.4477 8 21 8Z" fill="black"/>
</svg>
