<svg width="24" height="24" viewBox="0 0 24 24" fill="none" xmlns="http://www.w3.org/2000/svg">
<path fill-rule="evenodd" clip-rule="evenodd" d="M14 12C14 11.4477 14.4477 11 15 11H21C21.5523 11 22 11.4477 22 12C22 12.5523 21.5523 13 21 13H15C14.4477 13 14 12.5523 14 12Z" fill="black"/>
<path fill-rule="evenodd" clip-rule="evenodd" d="M14 6C14 5.44772 14.4477 5 15 5H21C21.5523 5 22 5.44772 22 6C22 6.55228 21.5523 7 21 7H15C14.4477 7 14 6.55228 14 6Z" fill="black"/>
<path fill-rule="evenodd" clip-rule="evenodd" d="M6.21201 4.22365C6.44884 4.07744 6.72167 4 7 4C7.27832 4 7.55116 4.07744 7.78799 4.22365C8.02481 4.36986 8.21629 4.57908 8.341 4.8279C8.346 4.83787 8.35083 4.84793 8.35549 4.85806L11.9085 12.5821C12.1393 13.0838 11.9196 13.6777 11.4179 13.9085C10.9162 14.1393 10.3223 13.9196 10.0915 13.4179L7 6.69712L3.90849 13.4179C3.67769 13.9196 3.08384 14.1393 2.5821 13.9085C2.08035 13.6777 1.8607 13.0838 2.09151 12.5821L5.64451 4.85806C5.64917 4.84793 5.654 4.83787 5.659 4.8279C5.78371 4.57908 5.97518 4.36986 6.21201 4.22365Z" fill="black"/>
<path fill-rule="evenodd" clip-rule="evenodd" d="M2 18C2 17.4477 2.44772 17 3 17H21C21.5523 17 22 17.4477 22 18C22 18.5523 21.5523 19 21 19H3C2.44772 19 2 18.5523 2 18Z" fill="black"/>
<path fill-rule="evenodd" clip-rule="evenodd" d="M3 11C3 10.4477 3.44772 10 4 10H10C10.5523 10 11 10.4477 11 11C11 11.5523 10.5523 12 10 12H4C3.44772 12 3 11.5523 3 11Z" fill="black"/>
</svg>
