<svg width="24" height="24" viewBox="0 0 24 24" fill="none" xmlns="http://www.w3.org/2000/svg">
<path fill-rule="evenodd" clip-rule="evenodd" d="M9.89649 6.22371C10.1678 6.07212 10.4747 5.99553 10.7854 6.00182C11.0962 6.00812 11.3997 6.09707 11.6647 6.25953L15.3295 8.50906C15.5843 8.66563 15.7948 8.88489 15.9407 9.14591C16.0867 9.40693 16.1633 9.701 16.1633 10.0001C16.1633 10.2991 16.0867 10.5932 15.9407 10.8542C15.7948 11.1152 15.5843 11.3345 15.3295 11.4911L11.6647 13.7416C11.3993 13.9043 11.0954 13.9932 10.7843 13.9993C10.4731 14.0054 10.1659 13.9284 9.89446 13.7763C9.62296 13.6241 9.39696 13.4023 9.23973 13.1337C9.08264 12.8654 8.99989 12.56 9 12.2491C9 12.249 9 12.2488 9 12.2487L9 7.74819C9.00058 7.43737 9.08394 7.1323 9.2415 6.86437C9.39906 6.59644 9.62514 6.37531 9.89649 6.22371ZM11 8.19826L13.9355 10.0001L11 11.8028V8.19826Z" fill="black"/>
<path fill-rule="evenodd" clip-rule="evenodd" d="M12 16C12.5523 16 13 16.4477 13 17V21C13 21.5523 12.5523 22 12 22C11.4477 22 11 21.5523 11 21V17C11 16.4477 11.4477 16 12 16Z" fill="black"/>
<path fill-rule="evenodd" clip-rule="evenodd" d="M7 21C7 20.4477 7.44772 20 8 20H16C16.5523 20 17 20.4477 17 21C17 21.5523 16.5523 22 16 22H8C7.44772 22 7 21.5523 7 21Z" fill="black"/>
<path fill-rule="evenodd" clip-rule="evenodd" d="M4 4C3.44772 4 3 4.44772 3 5V15C3 15.5523 3.44772 16 4 16H20C20.5523 16 21 15.5523 21 15V5C21 4.44772 20.5523 4 20 4H4ZM1 5C1 3.34315 2.34315 2 4 2H20C21.6569 2 23 3.34315 23 5V15C23 16.6569 21.6569 18 20 18H4C2.34315 18 1 16.6569 1 15V5Z" fill="black"/>
</svg>
