<svg width="24" height="24" viewBox="0 0 24 24" fill="none" xmlns="http://www.w3.org/2000/svg">
<path fill-rule="evenodd" clip-rule="evenodd" d="M12 5C12.5523 5 13 5.44772 13 6V6.343C13 6.89528 12.5523 7.343 12 7.343C11.4477 7.343 11 6.89528 11 6.343V6C11 5.44772 11.4477 5 12 5Z" fill="black"/>
<path fill-rule="evenodd" clip-rule="evenodd" d="M6.24129 4.89366C6.73188 5.14732 6.92395 5.75065 6.67029 6.24124C6.22946 7.09382 5.99959 8.03972 6 8.99952V15.0004C5.99943 16.3452 6.4507 17.6513 7.28139 18.709C8.11208 19.7666 9.27402 20.5145 10.5807 20.8326C11.8874 21.1508 13.2631 21.0207 14.487 20.4632C15.7109 19.9058 16.712 18.9533 17.3297 17.7587C17.5834 17.2681 18.1867 17.076 18.6773 17.3297C19.1679 17.5833 19.3599 18.1867 19.1063 18.6772C18.2827 20.2701 16.9479 21.54 15.316 22.2833C13.6841 23.0266 11.8499 23.2 10.1076 22.7759C8.36536 22.3517 6.81611 21.3545 5.70853 19.9443C4.60103 18.5342 3.99934 16.793 4 14.9999C4 14.9999 4 14.9998 4 14.9997C4 14.9996 4 14.9996 4 14.9995V9.00037C4 9.00031 4 9.00025 4 9.00018C4 9.0001 4 9.00003 4 8.99995C3.99953 7.72035 4.30601 6.45931 4.89372 5.32265C5.14737 4.83207 5.75071 4.64 6.24129 4.89366Z" fill="black"/>
<path fill-rule="evenodd" clip-rule="evenodd" d="M8.06856 2.03107C9.28589 1.34417 10.6619 0.988211 12.0597 0.998636C13.4574 1.00906 14.828 1.38551 16.0349 2.09049C17.2419 2.79546 18.243 3.80436 18.9387 5.01669C19.6344 6.22895 20.0003 7.60231 20 8.99999C20 9.00006 20 9.00014 20 9.00021V13.343C20 13.8953 19.5523 14.343 19 14.343C18.4477 14.343 18 13.8953 18 13.343V8.99976C18.0002 7.95145 17.7258 6.92137 17.204 6.01212C16.6823 5.10287 15.9314 4.3462 15.0262 3.81747C14.121 3.28874 13.093 3.0064 12.0447 2.99858C10.9965 2.99076 9.96442 3.25773 9.05142 3.77291C8.57042 4.04431 7.96048 3.87441 7.68907 3.39342C7.41766 2.91242 7.58757 2.30248 8.06856 2.03107Z" fill="black"/>
<path fill-rule="evenodd" clip-rule="evenodd" d="M1.29289 1.29289C1.68342 0.902369 2.31658 0.902369 2.70711 1.29289L22.7071 21.2929C23.0976 21.6834 23.0976 22.3166 22.7071 22.7071C22.3166 23.0976 21.6834 23.0976 21.2929 22.7071L1.29289 2.70711C0.902369 2.31658 0.902369 1.68342 1.29289 1.29289Z" fill="black"/>
</svg>
