<svg width="24" height="24" viewBox="0 0 24 24" fill="none" xmlns="http://www.w3.org/2000/svg">
<path fill-rule="evenodd" clip-rule="evenodd" d="M12 3C7.02944 3 3 7.02944 3 12C3 16.9706 7.02944 21 12 21C16.9706 21 21 16.9706 21 12C21 7.02944 16.9706 3 12 3ZM1 12C1 5.92487 5.92487 1 12 1C18.0751 1 23 5.92487 23 12C23 18.0751 18.0751 23 12 23C5.92487 23 1 18.0751 1 12Z" fill="black"/>
<path fill-rule="evenodd" clip-rule="evenodd" d="M8.47439 14.1913C9.27233 13.6109 10.4745 13 12.0001 13C13.5256 13 14.7278 13.6109 15.5257 14.1913C15.9266 14.4828 16.2365 14.7743 16.4486 14.9956C16.5551 15.1067 16.6381 15.2013 16.6967 15.2712C16.7261 15.3062 16.7494 15.3351 16.7666 15.3568C16.7753 15.3677 16.7824 15.3769 16.7879 15.3841C16.7893 15.3858 16.7905 15.3875 16.7917 15.389C16.793 15.3906 16.7941 15.3921 16.7952 15.3935C16.7962 15.3948 16.7971 15.396 16.7979 15.3971L16.799 15.3987L16.7996 15.3994C16.7998 15.3997 16.8001 15.4 16.0001 16L16.8001 15.4C17.1314 15.8418 17.0419 16.4686 16.6001 16.8C16.1596 17.1304 15.5352 17.0424 15.2031 16.604C15.2024 16.6031 15.2009 16.6012 15.1986 16.5982C15.1926 16.5907 15.1813 16.5766 15.1647 16.5569C15.1316 16.5174 15.0779 16.4558 15.0046 16.3794C14.8573 16.2257 14.636 16.0172 14.3494 15.8087C13.7723 15.3891 12.9745 15 12.0001 15C11.0256 15 10.2278 15.3891 9.65073 15.8087C9.36413 16.0172 9.14278 16.2257 8.99548 16.3794C8.92225 16.4558 8.86852 16.5174 8.83537 16.5569C8.81883 16.5766 8.80751 16.5907 8.80156 16.5982C8.79923 16.6012 8.79772 16.6031 8.79706 16.604C8.46492 17.0424 7.84056 17.1304 7.40006 16.8C6.95823 16.4686 6.86869 15.8418 7.20006 15.4L8.00006 16C7.20006 15.4 7.2003 15.3997 7.20055 15.3994L7.20107 15.3987L7.20222 15.3971C7.20304 15.396 7.20395 15.3948 7.20496 15.3935C7.20698 15.3909 7.20938 15.3877 7.21217 15.3841C7.21774 15.3769 7.22485 15.3677 7.23347 15.3568C7.25071 15.3351 7.27407 15.3062 7.30342 15.2712C7.36207 15.2013 7.44506 15.1067 7.55151 14.9956C7.76358 14.7743 8.07349 14.4828 8.47439 14.1913ZM15.2005 16.6006C15.2007 16.6008 15.2009 16.6011 15.201 16.6013L15.2005 16.6006Z" fill="black"/>
<path fill-rule="evenodd" clip-rule="evenodd" d="M8 9C8 8.44772 8.44772 8 9 8H9.01C9.56228 8 10.01 8.44772 10.01 9C10.01 9.55228 9.56228 10 9.01 10H9C8.44772 10 8 9.55228 8 9Z" fill="black"/>
<path fill-rule="evenodd" clip-rule="evenodd" d="M14 9C14 8.44772 14.4477 8 15 8H15.01C15.5623 8 16.01 8.44772 16.01 9C16.01 9.55228 15.5623 10 15.01 10H15C14.4477 10 14 9.55228 14 9Z" fill="black"/>
</svg>
