<svg width="24" height="24" viewBox="0 0 24 24" fill="none" xmlns="http://www.w3.org/2000/svg">
<path fill-rule="evenodd" clip-rule="evenodd" d="M12 4C12 3.44772 12.4477 3 13 3H16C16.7956 3 17.5587 3.31607 18.1213 3.87868C18.6839 4.44129 19 5.20435 19 6V20C19 20.5523 18.5523 21 18 21C17.4477 21 17 20.5523 17 20V6C17 5.73478 16.8946 5.48043 16.7071 5.29289C16.5196 5.10536 16.2652 5 16 5H13C12.4477 5 12 4.55228 12 4Z" fill="black"/>
<path fill-rule="evenodd" clip-rule="evenodd" d="M1 20C1 19.4477 1.44772 19 2 19H5C5.55228 19 6 19.4477 6 20C6 20.5523 5.55228 21 5 21H2C1.44772 21 1 20.5523 1 20Z" fill="black"/>
<path fill-rule="evenodd" clip-rule="evenodd" d="M12 20C12 19.4477 12.4477 19 13 19H22C22.5523 19 23 19.4477 23 20C23 20.5523 22.5523 21 22 21H13C12.4477 21 12 20.5523 12 20Z" fill="black"/>
<path fill-rule="evenodd" clip-rule="evenodd" d="M10 11C10.5523 11 11 11.4477 11 12V12.01C11 12.5623 10.5523 13.01 10 13.01C9.44772 13.01 9 12.5623 9 12.01V12C9 11.4477 9.44772 11 10 11Z" fill="black"/>
<path fill-rule="evenodd" clip-rule="evenodd" d="M10.7575 3.59216C10.7575 3.59216 10.7575 3.59216 10.7575 3.59217L6.75754 4.59216L6.7575 4.59217C6.54116 4.64624 6.3491 4.77108 6.21185 4.94683C6.07463 5.12254 6.00007 5.33907 6 5.56201C6 5.56206 6 5.56211 6 5.56217V19.2192L12 20.7187V4.56267C11.9999 4.41024 11.965 4.25941 11.8985 4.12337C11.8318 3.98688 11.7349 3.86737 11.6152 3.77392C11.4954 3.68047 11.3559 3.61554 11.2073 3.58404C11.0587 3.55255 10.9049 3.55533 10.7575 3.59216ZM5 5.56201H4V20C4 20.4589 4.31233 20.8589 4.75753 20.9702L11.5155 22.6592L11.516 22.6593C11.8108 22.7328 12.1184 22.7382 12.4156 22.6751C12.7127 22.612 12.9916 22.482 13.231 22.295C13.4705 22.108 13.6642 21.8689 13.7974 21.5959C13.9306 21.3229 13.9999 21.0231 14 20.7193V4.56136C13.9997 4.10615 13.8958 3.65542 13.6955 3.24548C13.4955 2.83601 13.2048 2.47748 12.8455 2.19713C12.4862 1.91678 12.0678 1.72197 11.6219 1.62749C11.1761 1.53301 10.7146 1.54135 10.2725 1.65186L6.2725 2.65186C6.27249 2.65187 6.27248 2.65187 6.27246 2.65187C5.62346 2.81411 5.0473 3.18861 4.63556 3.71586C4.22381 4.24312 4.0001 4.89288 4 5.56186L5 5.56201Z" fill="black"/>
</svg>
