<svg width="24" height="24" viewBox="0 0 24 24" fill="none" xmlns="http://www.w3.org/2000/svg">
<path fill-rule="evenodd" clip-rule="evenodd" d="M8 5C7.44772 5 7 5.44772 7 6V15C7 15.5523 7.44772 16 8 16H20C20.5523 16 21 15.5523 21 15V6C21 5.44772 20.5523 5 20 5H8ZM5 6C5 4.34315 6.34315 3 8 3H20C21.6569 3 23 4.34315 23 6V15C23 16.6569 21.6569 18 20 18H8C6.34315 18 5 16.6569 5 15V6Z" fill="black"/>
<path fill-rule="evenodd" clip-rule="evenodd" d="M5.11726 6.53001C5.3768 6.04251 5.9824 5.85771 6.4699 6.11726L13.5674 9.89594C13.8449 10.0413 14.155 10.0413 14.4325 9.89594C14.4331 9.89564 14.4336 9.89534 14.4342 9.89504L21.53 6.11726C22.0175 5.85771 22.6231 6.04251 22.8827 6.53001C23.1422 7.01751 22.9574 7.62311 22.4699 7.88265L15.3699 11.6627L15.3679 11.6637C15.3672 11.6641 15.3664 11.6645 15.3657 11.6649C14.5042 12.1183 13.4957 12.1183 12.6342 11.6649C12.6328 11.6641 12.6314 11.6634 12.63 11.6627L5.53001 7.88265C5.04251 7.62311 4.85771 7.01751 5.11726 6.53001Z" fill="black"/>
<path fill-rule="evenodd" clip-rule="evenodd" d="M2 7C2.55228 7 3 7.44772 3 8V19C3 19.5477 3.45228 20 4 20H18C18.5523 20 19 20.4477 19 21C19 21.5523 18.5523 22 18 22H4C2.34772 22 1 20.6523 1 19V8C1 7.44772 1.44772 7 2 7Z" fill="black"/>
</svg>
