<svg width="24" height="24" viewBox="0 0 24 24" fill="none" xmlns="http://www.w3.org/2000/svg">
<path fill-rule="evenodd" clip-rule="evenodd" d="M12 7C9.23858 7 7 9.23858 7 12C7 14.7614 9.23858 17 12 17C14.7614 17 17 14.7614 17 12C17 9.23858 14.7614 7 12 7ZM5 12C5 8.13401 8.13401 5 12 5C15.866 5 19 8.13401 19 12C19 15.866 15.866 19 12 19C8.13401 19 5 15.866 5 12Z" fill="black"/>
<path fill-rule="evenodd" clip-rule="evenodd" d="M12 9C12.5523 9 13 9.44772 13 10V11.5858L13.7071 12.2929C14.0976 12.6834 14.0976 13.3166 13.7071 13.7071C13.3166 14.0976 12.6834 14.0976 12.2929 13.7071L11.2929 12.7071C11.1054 12.5196 11 12.2652 11 12V10C11 9.44772 11.4477 9 12 9Z" fill="black"/>
<path fill-rule="evenodd" clip-rule="evenodd" d="M10.6487 0.999879H13.3114C14.0117 0.98892 14.6939 1.22331 15.2396 1.66262C15.7878 2.10393 16.1634 2.72393 16.3007 3.41416C16.3008 3.41446 16.3008 3.41476 16.3009 3.41506L17.1106 7.46376C17.2189 8.00532 16.8677 8.53215 16.3262 8.64046C15.7846 8.74877 15.2578 8.39755 15.1495 7.85599L14.3392 3.8047C14.2935 3.5745 14.1683 3.36772 13.9854 3.22055C13.8026 3.07338 13.5739 2.9952 13.3392 2.9997C13.3328 2.99982 13.3264 2.99988 13.32 2.99988H10.64C10.6337 2.99988 10.6273 2.99982 10.6209 2.9997C10.3862 2.9952 10.1575 3.07338 9.97466 3.22055C9.79247 3.36721 9.66747 3.57308 9.62136 3.80233L8.842 7.849C8.73756 8.39131 8.21325 8.74628 7.67093 8.64183C7.12861 8.53739 6.77365 8.01308 6.87809 7.47076L7.65809 3.42076C7.65846 3.41886 7.65883 3.41696 7.65921 3.41506C7.79638 2.72447 8.17207 2.10412 8.72053 1.66262C9.26624 1.22331 9.9484 0.98892 10.6487 0.999879Z" fill="black"/>
<path fill-rule="evenodd" clip-rule="evenodd" d="M16.4062 15.3294C16.9478 15.4377 17.299 15.9646 17.1907 16.5061L16.3809 20.5548C16.3809 20.5551 16.3808 20.5555 16.3807 20.5558C16.2434 21.246 15.8678 21.866 15.3196 22.3073C14.7739 22.7466 14.0917 22.981 13.3915 22.97H10.6887C9.98843 22.981 9.30627 22.7466 8.76055 22.3073C8.21229 21.8659 7.83666 21.2458 7.69938 20.5555C7.69933 20.5553 7.69928 20.5551 7.69924 20.5548L6.89949 16.5561C6.79118 16.0146 7.1424 15.4877 7.68396 15.3794C8.22552 15.2711 8.75234 15.6223 8.86066 16.1639L9.66092 20.1652C9.70664 20.3954 9.83187 20.6022 10.0147 20.7493C10.1975 20.8965 10.4263 20.9747 10.6609 20.9702C10.6673 20.9701 10.6737 20.97 10.6801 20.97H13.4001C13.4065 20.97 13.4128 20.9701 13.4192 20.9702C13.6539 20.9747 13.8826 20.8965 14.0655 20.7493C14.2483 20.6022 14.3735 20.3954 14.4192 20.1652L15.2295 16.1139C15.3378 15.5723 15.8646 15.2211 16.4062 15.3294Z" fill="black"/>
</svg>
