<svg width="24" height="24" viewBox="0 0 24 24" fill="none" xmlns="http://www.w3.org/2000/svg">
<path fill-rule="evenodd" clip-rule="evenodd" d="M18.9999 7C19.4168 7 19.7899 7.25857 19.9363 7.64888L22.9363 15.6489C23.0925 16.0653 22.9548 16.5349 22.5985 16.8011C21.5567 17.5795 20.297 18 18.9999 18C17.7029 18 16.4432 17.5795 15.4014 16.8011C15.0451 16.5349 14.9074 16.0653 15.0636 15.6489L18.0636 7.64888C18.21 7.25857 18.5831 7 18.9999 7ZM17.2242 15.5835C17.7752 15.8566 18.3817 16 18.9999 16C19.6182 16 20.2247 15.8566 20.7757 15.5835L18.9999 10.848L17.2242 15.5835Z" fill="black"/>
<path fill-rule="evenodd" clip-rule="evenodd" d="M4.99995 7C5.41679 7 5.78991 7.25857 5.93628 7.64888L8.93628 15.6489C9.09245 16.0653 8.95479 16.5349 8.59847 16.8011C7.55668 17.5795 6.29698 18 4.99995 18C3.70292 18 2.44322 17.5795 1.40142 16.8011C1.04511 16.5349 0.907448 16.0653 1.06362 15.6489L4.06362 7.64888C4.20998 7.25857 4.58311 7 4.99995 7ZM3.22415 15.5835C3.77518 15.8566 4.38175 16 4.99995 16C5.61815 16 6.22472 15.8566 6.77575 15.5835L4.99995 10.848L3.22415 15.5835Z" fill="black"/>
<path fill-rule="evenodd" clip-rule="evenodd" d="M6 21C6 20.4477 6.44772 20 7 20H17C17.5523 20 18 20.4477 18 21C18 21.5523 17.5523 22 17 22H7C6.44772 22 6 21.5523 6 21Z" fill="black"/>
<path fill-rule="evenodd" clip-rule="evenodd" d="M12 2C12.5523 2 13 2.44772 13 3V21C13 21.5523 12.5523 22 12 22C11.4477 22 11 21.5523 11 21V3C11 2.44772 11.4477 2 12 2Z" fill="black"/>
<path fill-rule="evenodd" clip-rule="evenodd" d="M11.5528 4.10557C11.8343 3.96481 12.1657 3.96481 12.4472 4.10557C14.3906 5.07727 17.2266 6 19 6H21C21.5523 6 22 6.44772 22 7C22 7.55228 21.5523 8 21 8H19C16.9292 8 14.0475 7.06819 12 6.11059C9.95248 7.06819 7.0708 8 5 8H3C2.44772 8 2 7.55228 2 7C2 6.44772 2.44772 6 3 6H5C6.77342 6 9.60939 5.07727 11.5528 4.10557Z" fill="black"/>
</svg>
