<svg width="24" height="24" viewBox="0 0 24 24" fill="none" xmlns="http://www.w3.org/2000/svg">
<path fill-rule="evenodd" clip-rule="evenodd" d="M2.90381 3.90381C4.12279 2.68482 5.77609 2 7.5 2C8.48018 2 9.37318 2.14018 10.2468 2.52068C10.8597 2.78762 11.4321 3.15937 12 3.63935C12.5679 3.15937 13.1403 2.78762 13.7532 2.52068C14.6268 2.14018 15.5198 2 16.5 2C18.2239 2 19.8772 2.68482 21.0962 3.90381C22.3152 5.12279 23 6.77609 23 8.5C23 11.2418 21.1907 13.2531 19.7036 14.7106L12.7071 21.7071C12.3166 22.0976 11.6834 22.0976 11.2929 21.7071L4.29883 14.713C2.7944 13.258 1 11.2494 1 8.5C1 6.77609 1.68482 5.12279 2.90381 3.90381ZM7.5 4C6.30653 4 5.16193 4.47411 4.31802 5.31802C3.47411 6.16193 3 7.30653 3 8.5C3 10.3469 4.2007 11.8365 5.69502 13.281C5.69908 13.2849 5.70311 13.2889 5.70711 13.2929L12 19.5858L18.2929 13.2929C18.2953 13.2905 18.2977 13.2881 18.3001 13.2857C19.7923 11.8236 21 10.3359 21 8.5C21 7.30653 20.5259 6.16193 19.682 5.31802C18.8381 4.47411 17.6935 4 16.5 4C15.7202 4 15.1132 4.10982 14.5518 4.35432C13.984 4.60163 13.4001 5.0141 12.7071 5.70711C12.3166 6.09763 11.6834 6.09763 11.2929 5.70711C10.5999 5.0141 10.016 4.60163 9.44819 4.35432C8.88682 4.10982 8.27982 4 7.5 4Z" fill="black"/>
<path fill-rule="evenodd" clip-rule="evenodd" d="M12.7072 4.29289C13.0977 4.68342 13.0977 5.31658 12.7072 5.70711L9.74721 8.66711C9.74635 8.66797 9.74549 8.66882 9.74463 8.66968C9.63508 8.77843 9.54814 8.90779 9.4888 9.05029C9.42947 9.1928 9.39893 9.34564 9.39893 9.5C9.39893 9.65436 9.42947 9.8072 9.4888 9.94971C9.54814 10.0922 9.63508 10.2216 9.74463 10.3303C9.74549 10.3312 9.74635 10.332 9.74721 10.3329C10.1853 10.7709 10.8888 10.7957 11.3688 10.3688L13.4339 8.47329C13.4353 8.472 13.4367 8.47072 13.4381 8.46944C14.141 7.83168 15.056 7.47839 16.0051 7.47839C16.9533 7.47839 17.8676 7.83103 18.5701 8.46767C18.5708 8.46826 18.5714 8.46885 18.5721 8.46944L21.5285 11.1262C21.9393 11.4954 21.973 12.1276 21.6039 12.5384C21.2347 12.9492 20.6025 12.9829 20.1917 12.6138L17.2317 9.95379C17.2305 9.95272 17.2293 9.95164 17.2281 9.95056C16.8933 9.64671 16.4573 9.47839 16.0051 9.47839C15.5538 9.47839 15.1186 9.64609 14.784 9.94887L12.7163 11.8467C12.7134 11.8493 12.7106 11.852 12.7076 11.8546C11.4482 12.9838 9.53507 12.9479 8.33419 11.7483C8.03803 11.4539 7.80295 11.1039 7.64244 10.7184C7.48169 10.3323 7.39893 9.91823 7.39893 9.5C7.39893 9.08177 7.48169 8.66767 7.64244 8.28156C7.80294 7.89607 8.03802 7.54609 8.33416 7.25173L11.293 4.29289C11.6835 3.90237 12.3167 3.90237 12.7072 4.29289Z" fill="black"/>
<path fill-rule="evenodd" clip-rule="evenodd" d="M15.2929 12.2929C15.6834 11.9024 16.3166 11.9024 16.7071 12.2929L18.7071 14.2929C19.0976 14.6834 19.0976 15.3166 18.7071 15.7071C18.3166 16.0976 17.6834 16.0976 17.2929 15.7071L15.2929 13.7071C14.9024 13.3166 14.9024 12.6834 15.2929 12.2929Z" fill="black"/>
<path fill-rule="evenodd" clip-rule="evenodd" d="M12.2929 15.2929C12.6834 14.9024 13.3166 14.9024 13.7071 15.2929L15.7071 17.2929C16.0976 17.6834 16.0976 18.3166 15.7071 18.7071C15.3166 19.0976 14.6834 19.0976 14.2929 18.7071L12.2929 16.7071C11.9024 16.3166 11.9024 15.6834 12.2929 15.2929Z" fill="black"/>
</svg>
