<svg width="24" height="24" viewBox="0 0 24 24" fill="none" xmlns="http://www.w3.org/2000/svg">
<path fill-rule="evenodd" clip-rule="evenodd" d="M11.5907 6.79405C12.0364 7.12023 12.1332 7.74594 11.8071 8.19161L5.81306 16.3816L5.81299 16.3817L6.62981 17.1995L14.4834 11.2051C14.9224 10.87 15.5499 10.9543 15.885 11.3933C16.2201 11.8323 16.1358 12.4598 15.6968 12.7949L7.84437 18.7885C7.84419 18.7886 7.844 18.7888 7.84382 18.7889C7.45908 19.0828 6.98078 19.2271 6.49768 19.1952C6.01436 19.1632 5.55907 18.9568 5.21637 18.6145L4.39919 17.7963C4.39911 17.7963 4.39903 17.7962 4.39895 17.7961C4.06132 17.4585 3.85557 17.0114 3.8189 16.5353C3.78222 16.0592 3.91709 15.5857 4.19912 15.2004C4.19914 15.2004 4.19917 15.2004 4.19919 15.2003L10.1931 7.01043C10.5193 6.56475 11.145 6.46788 11.5907 6.79405Z" fill="black"/>
<path fill-rule="evenodd" clip-rule="evenodd" d="M6.24823 16.8364C6.61473 17.2496 6.5769 17.8816 6.16374 18.2481C5.92519 18.4597 5.73997 19.0272 5.95462 19.7593C6.1583 20.4539 6.62043 20.9201 7.16948 21.0145C7.80847 21.1242 8.49042 20.8291 9.52113 20.2586C9.58471 20.2234 9.64977 20.1871 9.71614 20.1502C10.137 19.9157 10.6101 19.6521 11.0883 19.445C11.6513 19.2011 12.2963 19 13.0001 19C14.6359 19 15.9571 19.6021 17.059 20.3448C17.517 20.6535 17.638 21.2749 17.3294 21.7329C17.0207 22.1909 16.3992 22.3119 15.9412 22.0032C15.0431 21.3979 14.1084 21 13.0001 21C12.675 21 12.3145 21.0934 11.8833 21.2802C11.5038 21.4446 11.1276 21.6538 10.7002 21.8915C10.6314 21.9298 10.5613 21.9688 10.4897 22.0084C9.55286 22.5269 8.26382 23.2318 6.83081 22.9856C5.30785 22.7239 4.38249 21.5056 4.03542 20.322C3.69932 19.1758 3.8001 17.6713 4.83654 16.7519C5.2497 16.3854 5.88174 16.4233 6.24823 16.8364Z" fill="black"/>
<path fill-rule="evenodd" clip-rule="evenodd" d="M16 3C13.7909 3 12 4.79086 12 7C12 9.20914 13.7909 11 16 11C18.2091 11 20 9.20914 20 7C20 4.79086 18.2091 3 16 3ZM10 7C10 3.68629 12.6863 1 16 1C19.3137 1 22 3.68629 22 7C22 10.3137 19.3137 13 16 13C12.6863 13 10 10.3137 10 7Z" fill="black"/>
</svg>
