<svg width="24" height="24" viewBox="0 0 24 24" fill="none" xmlns="http://www.w3.org/2000/svg">
<path fill-rule="evenodd" clip-rule="evenodd" d="M9.70711 10.2929C10.0976 10.6834 10.0976 11.3166 9.70711 11.7071L4 17.4142V19H11.5858L14.2929 16.2929C14.6834 15.9024 15.3166 15.9024 15.7071 16.2929C16.0976 16.6834 16.0976 17.3166 15.7071 17.7071L12.7071 20.7071C12.5196 20.8946 12.2652 21 12 21H3C2.44772 21 2 20.5523 2 20V17C2 16.7348 2.10536 16.4804 2.29289 16.2929L8.29289 10.2929C8.68342 9.90237 9.31658 9.90237 9.70711 10.2929Z" fill="black"/>
<path fill-rule="evenodd" clip-rule="evenodd" d="M14.7072 3.29289C15.0977 3.68342 15.0977 4.31658 14.7072 4.70711L10.1113 9.30295C9.92992 9.48957 9.82837 9.73962 9.82837 10C9.82837 10.2604 9.92992 10.5104 10.1113 10.6971L15.3031 15.8888C15.4897 16.0702 15.7397 16.1717 16.0001 16.1717C16.2605 16.1717 16.5105 16.0702 16.6971 15.8888L21.293 11.2929C21.6835 10.9024 22.3167 10.9024 22.7072 11.2929C23.0977 11.6834 23.0977 12.3166 22.7072 12.7071L18.1072 17.3071C18.1048 17.3095 18.1025 17.3118 18.1001 17.3141C17.5393 17.8638 16.7853 18.1717 16.0001 18.1717C15.2148 18.1717 14.4609 17.8638 13.9001 17.3141C13.8977 17.3118 13.8953 17.3095 13.893 17.3071L8.69298 12.1071C8.69062 12.1047 8.68827 12.1024 8.68594 12.1C8.13626 11.5392 7.82837 10.7853 7.82837 10C7.82837 9.21474 8.13626 8.46079 8.68594 7.9C8.68827 7.89762 8.69062 7.89525 8.69298 7.89289L13.293 3.29289C13.6835 2.90237 14.3167 2.90237 14.7072 3.29289Z" fill="black"/>
</svg>
