<svg width="24" height="24" viewBox="0 0 24 24" fill="none" xmlns="http://www.w3.org/2000/svg">
<path fill-rule="evenodd" clip-rule="evenodd" d="M8.91673 0.992049C9.44991 0.980936 9.97993 1.07655 10.4756 1.27327C10.9713 1.47 11.4226 1.76385 11.8031 2.13756C12.1836 2.51127 12.4854 2.95728 12.691 3.44937C12.8963 3.9409 13.0014 4.46849 13.0001 5.00117V18L13.0001 18.0011C12.9993 18.6845 12.8585 19.3605 12.5863 19.9874C12.314 20.6143 11.9162 21.1787 11.4173 21.6458C10.9184 22.1129 10.329 22.4727 9.68556 22.7031C9.04212 22.9335 8.35829 23.0295 7.67629 22.9853C6.9943 22.941 6.32861 22.7574 5.72035 22.4458C5.11209 22.1342 4.57417 21.7012 4.1398 21.1735C3.70544 20.6459 3.38387 20.0348 3.19493 19.378C3.06579 18.929 3.0005 18.4653 3.00008 18.0002C2.52421 17.6435 2.11438 17.2036 1.79128 16.7001C1.3513 16.0146 1.08549 15.2318 1.01698 14.4201C0.948473 13.6084 1.07934 12.7922 1.3982 12.0425C1.61488 11.5331 1.91391 11.0649 2.28171 10.656C2.11774 10.1892 2.02348 9.69918 2.00329 9.20191C1.9725 8.44389 2.11461 7.6888 2.41886 6.99383C2.7231 6.29886 3.1815 5.68224 3.75934 5.19066C4.14615 4.86159 4.5797 4.59434 5.04448 4.39692C5.085 4.12718 5.15311 3.86163 5.24814 3.6045C5.43301 3.10428 5.71605 2.64607 6.08061 2.25684C6.44516 1.8676 6.88386 1.55519 7.37092 1.33799C7.85798 1.12078 8.38355 1.00316 8.91673 0.992049ZM9.73785 3.13223C9.49001 3.03387 9.225 2.98606 8.95841 2.99161C8.69182 2.99717 8.42903 3.05598 8.1855 3.16458C7.94198 3.27319 7.72262 3.42939 7.54035 3.62401C7.35807 3.81863 7.21655 4.04773 7.12411 4.29784C7.03167 4.54795 6.99018 4.81403 7.00208 5.08041C7.02318 5.55299 6.71025 5.97571 6.2521 6.09352C5.81125 6.20687 5.40197 6.41905 5.05527 6.714C4.70857 7.00895 4.43353 7.37892 4.25098 7.7959C4.06843 8.21288 3.98317 8.66594 4.00164 9.12075C4.02011 9.57557 4.14184 10.0202 4.3576 10.421C4.58515 10.8437 4.48022 11.3685 4.10762 11.6712C3.72826 11.9794 3.42994 12.3756 3.23863 12.8254C3.04731 13.2752 2.96879 13.7649 3.0099 14.2519C3.051 14.739 3.21049 15.2086 3.47448 15.6199C3.73847 16.0313 4.09897 16.3719 4.52462 16.6122C4.87919 16.8123 5.07701 17.2074 5.02483 17.6112C4.97226 18.0179 5.00363 18.431 5.11699 18.8251C5.23035 19.2192 5.4233 19.5858 5.68391 19.9024C5.94453 20.219 6.26728 20.4788 6.63224 20.6658C6.9972 20.8527 7.39661 20.9629 7.80581 20.9895C8.21501 21.016 8.62531 20.9584 9.01136 20.8202C9.39742 20.6819 9.75105 20.466 10.0504 20.1858C10.3497 19.9055 10.5885 19.5669 10.7518 19.1908C10.9151 18.8148 10.9996 18.4094 11.0001 17.9995C11.0001 17.9993 11.0001 17.9991 11.0001 17.999V5.00002C11.0001 4.99904 11.0001 4.99806 11.0001 4.99707C11.0009 4.73043 10.9483 4.46632 10.8455 4.22027C10.7428 3.97423 10.5918 3.75122 10.4016 3.56437C10.2114 3.37752 9.98569 3.23059 9.73785 3.13223Z" fill="black"/>
<path fill-rule="evenodd" clip-rule="evenodd" d="M15.0417 2.99161C14.7751 2.98606 14.5101 3.03387 14.2622 3.13223C14.0144 3.23059 13.7887 3.37752 13.5985 3.56437C13.4083 3.75122 13.2573 3.97423 13.1545 4.22027C13.0518 4.46632 12.9992 4.73043 13 4.99707C13 4.99806 13 4.99904 13 5.00002V17.9995C13.0005 18.4094 13.085 18.8148 13.2483 19.1908C13.4116 19.5669 13.6503 19.9055 13.9497 20.1858C14.249 20.466 14.6027 20.6819 14.9887 20.8202C15.3748 20.9584 15.7851 21.016 16.1943 20.9895C16.6035 20.9629 17.0029 20.8527 17.3678 20.6658C17.7328 20.4788 18.0556 20.219 18.3162 19.9024C18.5768 19.5858 18.7697 19.2192 18.8831 18.8251C18.9965 18.431 19.0278 18.0179 18.9753 17.6112C18.9231 17.2074 19.1209 16.8123 19.4755 16.6122C19.9011 16.3719 20.2616 16.0313 20.5256 15.6199C20.7896 15.2086 20.9491 14.739 20.9902 14.2519C21.0313 13.7649 20.9528 13.2752 20.7615 12.8254C20.5701 12.3756 20.2718 11.9794 19.8925 11.6712C19.5199 11.3685 19.4149 10.8437 19.6425 10.421C19.8583 10.0202 19.98 9.57557 19.9984 9.12075C20.0169 8.66594 19.9317 8.21288 19.7491 7.7959C19.5666 7.37892 19.2915 7.00895 18.9448 6.714C18.5981 6.41905 18.1888 6.20687 17.748 6.09352C17.2898 5.97571 16.9769 5.55299 16.998 5.08041C17.0099 4.81402 16.9684 4.54795 16.876 4.29784C16.7835 4.04773 16.642 3.81863 16.4597 3.62401C16.2775 3.42939 16.0581 3.27319 15.8146 3.16458C15.5711 3.05598 15.3083 2.99717 15.0417 2.99161ZM13.5245 1.27327C14.0202 1.07655 14.5502 0.980936 15.0834 0.992049C15.6165 1.00316 16.1421 1.12078 16.6292 1.33799C17.1162 1.55519 17.5549 1.8676 17.9195 2.25684C18.284 2.64607 18.5671 3.10428 18.7519 3.6045C18.847 3.86163 18.9151 4.12718 18.9556 4.39692C19.4204 4.59434 19.8539 4.86159 20.2407 5.19066C20.8186 5.68224 21.277 6.29886 21.5812 6.99383C21.8855 7.6888 22.0276 8.44389 21.9968 9.20191C21.9766 9.69918 21.8823 10.1892 21.7184 10.656C22.0862 11.0649 22.3852 11.5331 22.6019 12.0425C22.9207 12.7922 23.0516 13.6084 22.9831 14.4201C22.9146 15.2318 22.6488 16.0146 22.2088 16.7001C21.8857 17.2036 21.4759 17.6435 21 18.0002C20.9996 18.4653 20.9343 18.929 20.8052 19.378C20.6162 20.0348 20.2946 20.6459 19.8603 21.1735C19.4259 21.7012 18.888 22.1342 18.2797 22.4458C17.6715 22.7574 17.0058 22.941 16.3238 22.9853C15.6418 23.0295 14.958 22.9335 14.3145 22.7031C13.6711 22.4727 13.0817 22.1129 12.5828 21.6458C12.0839 21.1787 11.686 20.6143 11.4138 19.9874C11.1416 19.3605 11.0007 18.6845 11 18.0011L11 5.00138C10.9987 4.46863 11.1037 3.94096 11.3091 3.44937C11.5147 2.95728 11.8165 2.51127 12.197 2.13756C12.5774 1.76385 13.0288 1.47 13.5245 1.27327Z" fill="black"/>
<path fill-rule="evenodd" clip-rule="evenodd" d="M12 8C12.5312 8 12.9696 8.41521 12.9985 8.94556C13.0362 9.63674 13.278 10.3012 13.6934 10.855C14.1087 11.4088 14.6789 11.827 15.3319 12.0567C15.8529 12.2399 16.1266 12.8109 15.9434 13.3319C15.7601 13.8528 15.1892 14.1266 14.6682 13.9433C13.6421 13.5824 12.746 12.9252 12.0934 12.055C12.0616 12.0127 12.0305 11.9699 12 11.9268C11.9696 11.9699 11.9385 12.0127 11.9067 12.055C11.254 12.9252 10.358 13.5824 9.33188 13.9433C8.81089 14.1266 8.23997 13.8528 8.0567 13.3319C7.87342 12.8109 8.14719 12.2399 8.66818 12.0567C9.32117 11.827 9.89137 11.4088 10.3067 10.855C10.722 10.3012 10.9638 9.63674 11.0015 8.94556C11.0304 8.41521 11.4689 8 12 8Z" fill="black"/>
<path fill-rule="evenodd" clip-rule="evenodd" d="M18.0395 4.12588C18.5913 4.14878 19.0201 4.61467 18.9972 5.16648C18.9704 5.81157 18.7879 6.4406 18.4652 6.99982C18.1892 7.47817 17.5776 7.64219 17.0992 7.36616C16.6209 7.09012 16.4569 6.47857 16.7329 6.00021C16.8943 5.72061 16.9855 5.4061 16.9989 5.08355C17.0218 4.53174 17.4877 4.10297 18.0395 4.12588Z" fill="black"/>
<path fill-rule="evenodd" clip-rule="evenodd" d="M5.9621 4.12585C6.51392 4.10329 6.97955 4.53235 7.00211 5.08417C7.01529 5.40666 7.10633 5.72117 7.26744 6.00084C7.54313 6.47939 7.37868 7.09083 6.90012 7.36651C6.42157 7.6422 5.81014 7.47775 5.53445 6.9992C5.21222 6.43986 5.03015 5.81084 5.00378 5.16586C4.98122 4.61404 5.41028 4.14841 5.9621 4.12585Z" fill="black"/>
<path fill-rule="evenodd" clip-rule="evenodd" d="M4.93646 10.0148C5.20445 10.4977 5.03024 11.1064 4.54733 11.3744C4.39261 11.4603 4.24579 11.5597 4.10858 11.6714C3.68036 12.0202 3.05048 11.9558 2.70171 11.5275C2.35294 11.0993 2.41735 10.4694 2.84558 10.1207C3.07425 9.93441 3.31896 9.76877 3.57683 9.62566C4.05973 9.35766 4.66846 9.53187 4.93646 10.0148Z" fill="black"/>
<path fill-rule="evenodd" clip-rule="evenodd" d="M19.0636 10.0148C19.3315 9.53187 19.9403 9.35766 20.4232 9.62566C20.681 9.76877 20.9258 9.93441 21.1544 10.1207C21.5827 10.4694 21.6471 11.0993 21.2983 11.5275C20.9495 11.9558 20.3197 12.0202 19.8914 11.6714C19.7542 11.5597 19.6074 11.4603 19.4527 11.3744C18.9698 11.1064 18.7956 10.4977 19.0636 10.0148Z" fill="black"/>
<path fill-rule="evenodd" clip-rule="evenodd" d="M3.16189 16.9927C3.43322 16.5117 4.04313 16.3417 4.52417 16.613C4.97438 16.8669 5.48255 17.0002 5.99942 17C6.55171 16.9997 6.99963 17.4473 6.99989 17.9995C7.00015 18.5518 6.55264 18.9997 6.00036 19C5.13889 19.0004 4.29194 18.7782 3.54161 18.355C3.06057 18.0837 2.89056 17.4738 3.16189 16.9927Z" fill="black"/>
<path fill-rule="evenodd" clip-rule="evenodd" d="M20.838 16.9927C21.1093 17.4738 20.9393 18.0837 20.4583 18.355C19.7079 18.7782 18.861 19.0004 17.9995 19C17.4472 18.9997 16.9997 18.5518 17 17.9995C17.0003 17.4473 17.4482 16.9997 18.0005 17C18.5173 17.0002 19.0255 16.8669 19.4757 16.613C19.9568 16.3417 20.5667 16.5117 20.838 16.9927Z" fill="black"/>
</svg>
