<svg width="24" height="24" viewBox="0 0 24 24" fill="none" xmlns="http://www.w3.org/2000/svg">
<path fill-rule="evenodd" clip-rule="evenodd" d="M12.7758 2.75018C13.8953 1.67063 15.3898 1.06738 16.945 1.06738C18.5002 1.06738 19.9947 1.67063 21.1142 2.75018L21.1156 2.75155C22.2584 3.858 22.9154 5.37275 22.9424 6.9632C22.9683 8.48624 22.4143 9.95951 21.3973 11.0868C21.3595 11.1447 21.3154 11.1991 21.265 11.2492L19.545 12.9592C19.1534 13.3485 18.5202 13.3467 18.1308 12.955C17.7415 12.5634 17.7433 11.9302 18.135 11.5408L19.7261 9.95895C19.7544 9.91928 19.7859 9.88136 19.8204 9.84557C20.5571 9.08225 20.9607 8.0578 20.9427 6.99714C20.9247 5.9368 20.4868 4.92692 19.7251 4.1891C18.9785 3.46948 17.982 3.06738 16.945 3.06738C15.9101 3.06738 14.9154 3.46789 14.1693 4.18483L12.455 5.88916C12.0634 6.27854 11.4302 6.2767 11.0408 5.88504C10.6515 5.49337 10.6533 4.86021 11.045 4.47083L12.765 2.76083C12.7686 2.75725 12.7722 2.7537 12.7758 2.75018Z" fill="black"/>
<path fill-rule="evenodd" clip-rule="evenodd" d="M5.87705 11.0429C6.26757 11.4334 6.26757 12.0666 5.87705 12.4571L4.17368 14.1605C3.44072 14.9232 3.03926 15.945 3.05722 17.0029C3.07522 18.0632 3.51315 19.0731 4.2749 19.811C5.02148 20.5305 6.018 20.9326 7.05494 20.9326C8.08939 20.9326 9.08362 20.5325 9.8296 19.8161L11.5328 18.1129C11.9234 17.7224 12.5565 17.7224 12.947 18.1129C13.3376 18.5034 13.3376 19.1366 12.947 19.5271L11.237 21.2371C11.2328 21.2414 11.2285 21.2456 11.2241 21.2498C10.1047 22.3294 8.61012 22.9326 7.05494 22.9326C5.49976 22.9326 4.00521 22.3294 2.88577 21.2498L2.88435 21.2484C1.74154 20.142 1.0845 18.6273 1.05751 17.0368C1.03051 15.4463 1.63576 13.9102 2.74037 12.7656C2.74449 12.7613 2.74864 12.7571 2.75283 12.7529L4.46283 11.0429C4.85336 10.6524 5.48652 10.6524 5.87705 11.0429Z" fill="black"/>
<path fill-rule="evenodd" clip-rule="evenodd" d="M8 1C8.55228 1 9 1.44772 9 2V5C9 5.55228 8.55228 6 8 6C7.44772 6 7 5.55228 7 5V2C7 1.44772 7.44772 1 8 1Z" fill="black"/>
<path fill-rule="evenodd" clip-rule="evenodd" d="M1 8C1 7.44772 1.44772 7 2 7H5C5.55228 7 6 7.44772 6 8C6 8.55228 5.55228 9 5 9H2C1.44772 9 1 8.55228 1 8Z" fill="black"/>
<path fill-rule="evenodd" clip-rule="evenodd" d="M16 18C16.5523 18 17 18.4477 17 19V22C17 22.5523 16.5523 23 16 23C15.4477 23 15 22.5523 15 22V19C15 18.4477 15.4477 18 16 18Z" fill="black"/>
<path fill-rule="evenodd" clip-rule="evenodd" d="M18 16C18 15.4477 18.4477 15 19 15H22C22.5523 15 23 15.4477 23 16C23 16.5523 22.5523 17 22 17H19C18.4477 17 18 16.5523 18 16Z" fill="black"/>
</svg>
