<svg width="24" height="24" viewBox="0 0 24 24" fill="none" xmlns="http://www.w3.org/2000/svg">
<path fill-rule="evenodd" clip-rule="evenodd" d="M14 1C14.5523 1 15 1.44772 15 2V6C15 6.26522 15.1054 6.51957 15.2929 6.70711C15.4804 6.89464 15.7348 7 16 7H20C20.5523 7 21 7.44772 21 8C21 8.55228 20.5523 9 20 9H16C15.2044 9 14.4413 8.68393 13.8787 8.12132C13.3161 7.55871 13 6.79565 13 6V2C13 1.44772 13.4477 1 14 1Z" fill="black"/>
<path fill-rule="evenodd" clip-rule="evenodd" d="M1.38624 12.0939C1.61055 11.5892 2.20151 11.3619 2.70619 11.5862L3.60619 11.9862C4.11088 12.2105 4.33817 12.8015 4.11387 13.3061C3.88956 13.8108 3.2986 14.0381 2.79392 13.8138L1.89392 13.4138C1.38923 13.1895 1.16194 12.5986 1.38624 12.0939Z" fill="black"/>
<path fill-rule="evenodd" clip-rule="evenodd" d="M4.11387 14.6939C4.33817 15.1986 4.11088 15.7895 3.60619 16.0139L2.70619 16.4139C2.20151 16.6382 1.61055 16.4109 1.38624 15.9062C1.16194 15.4015 1.38923 14.8105 1.89392 14.5862L2.79392 14.1862C3.2986 13.9619 3.88956 14.1892 4.11387 14.6939Z" fill="black"/>
<path fill-rule="evenodd" clip-rule="evenodd" d="M3.87868 1.87868C4.44129 1.31607 5.20435 1 6 1H15C15.2652 1 15.5196 1.10536 15.7071 1.29289L20.7071 6.29289C20.8946 6.48043 21 6.73478 21 7V20C21 20.7957 20.6839 21.5587 20.1213 22.1213C19.5587 22.6839 18.7957 23 18 23H5.99C5.98835 23 5.9867 23 5.98505 23C5.25945 22.9964 4.55974 22.7299 4.01555 22.25C3.60134 21.8847 3.5617 21.2528 3.92701 20.8385C4.29232 20.4243 4.92424 20.3847 5.33845 20.75C5.51934 20.9095 5.75177 20.9983 5.99291 21H18C18.2652 21 18.5196 20.8946 18.7071 20.7071C18.8946 20.5196 19 20.2652 19 20V7.41421L14.5858 3H6C5.73478 3 5.48043 3.10536 5.29289 3.29289C5.10536 3.48043 5 3.73478 5 4V6.5C5 7.05228 4.55228 7.5 4 7.5C3.44772 7.5 3 7.05228 3 6.5V4C3 3.20435 3.31607 2.44129 3.87868 1.87868Z" fill="black"/>
<path fill-rule="evenodd" clip-rule="evenodd" d="M4.09387 9.38618C4.59855 9.16188 5.18951 9.38917 5.41382 9.89385L5.81382 10.7939C6.03812 11.2985 5.81083 11.8895 5.30614 12.1138C4.80146 12.3381 4.2105 12.1108 3.98619 11.6061L3.58619 10.7061C3.36189 10.2014 3.58918 9.61049 4.09387 9.38618Z" fill="black"/>
<path fill-rule="evenodd" clip-rule="evenodd" d="M5.30614 15.8862C5.81083 16.1105 6.03812 16.7014 5.81382 17.2061L5.41382 18.1061C5.18951 18.6108 4.59855 18.8381 4.09387 18.6138C3.58918 18.3895 3.36189 17.7985 3.58619 17.2939L3.98619 16.3939C4.2105 15.8892 4.80146 15.6619 5.30614 15.8862Z" fill="black"/>
<path fill-rule="evenodd" clip-rule="evenodd" d="M7.90624 9.38618C8.41093 9.61049 8.63822 10.2014 8.41391 10.7061L8.01391 11.6061C7.78961 12.1108 7.19865 12.3381 6.69396 12.1138C6.18928 11.8895 5.96199 11.2985 6.18629 10.7939L6.58629 9.89385C6.8106 9.38917 7.40156 9.16188 7.90624 9.38618Z" fill="black"/>
<path fill-rule="evenodd" clip-rule="evenodd" d="M6.69397 15.8862C7.19865 15.6619 7.78961 15.8892 8.01392 16.3939L8.41392 17.2939C8.63822 17.7985 8.41093 18.3895 7.90624 18.6138C7.40156 18.8381 6.8106 18.6108 6.58629 18.1061L6.18629 17.2061C5.96199 16.7014 6.18928 16.1105 6.69397 15.8862Z" fill="black"/>
<path fill-rule="evenodd" clip-rule="evenodd" d="M10.6139 12.0939C10.8382 12.5986 10.6109 13.1895 10.1062 13.4138L9.20619 13.8138C8.70151 14.0381 8.11055 13.8108 7.88624 13.3061C7.66194 12.8015 7.88923 12.2105 8.39392 11.9862L9.29392 11.5862C9.7986 11.3619 10.3896 11.5892 10.6139 12.0939Z" fill="black"/>
<path fill-rule="evenodd" clip-rule="evenodd" d="M7.88624 14.6939C8.11055 14.1892 8.70151 13.9619 9.20619 14.1862L10.1062 14.5862C10.6109 14.8105 10.8382 15.4015 10.6139 15.9062C10.3896 16.4109 9.7986 16.6382 9.29392 16.4139L8.39392 16.0139C7.88923 15.7895 7.66194 15.1986 7.88624 14.6939Z" fill="black"/>
<path fill-rule="evenodd" clip-rule="evenodd" d="M6 12C4.89543 12 4 12.8954 4 14C4 15.1046 4.89543 16 6 16C7.10457 16 8 15.1046 8 14C8 12.8954 7.10457 12 6 12ZM2 14C2 11.7909 3.79086 10 6 10C8.20914 10 10 11.7909 10 14C10 16.2091 8.20914 18 6 18C3.79086 18 2 16.2091 2 14Z" fill="black"/>
</svg>
