<svg width="24" height="24" viewBox="0 0 24 24" fill="none" xmlns="http://www.w3.org/2000/svg">
<path fill-rule="evenodd" clip-rule="evenodd" d="M8.495 7.50305C8.10582 7.50305 7.72201 7.59391 7.37414 7.7684C7.02627 7.94289 6.72393 8.19618 6.49121 8.50811C6.25849 8.82005 6.10181 9.18201 6.03365 9.56517C6.00803 9.70918 5.99518 9.85469 5.995 10H10.995C10.9948 9.85469 10.982 9.70918 10.9564 9.56517C10.8882 9.18201 10.7315 8.82005 10.4988 8.50811C10.2661 8.19618 9.96373 7.94289 9.61586 7.7684C9.26799 7.59391 8.88418 7.50305 8.495 7.50305ZM12.995 10C12.9948 9.73761 12.9717 9.47488 12.9254 9.21487C12.8027 8.52517 12.5207 7.87365 12.1018 7.31217C11.6829 6.75068 11.1387 6.29475 10.5125 5.98068C9.88638 5.6666 9.19553 5.50305 8.495 5.50305C7.79447 5.50305 7.10362 5.6666 6.47745 5.98068C5.85128 6.29475 5.30708 6.75068 4.88818 7.31217C4.46929 7.87365 4.18726 8.52517 4.06456 9.21487C4.01831 9.47489 3.99518 9.73762 3.995 10C3.44502 10.0027 3 10.4494 3 11C3 14.8091 6.22487 17.6207 11.0006 17.9646C11.0002 17.9764 11 17.9882 11 18V20H8C7.44772 20 7 20.4477 7 21C7 21.5523 7.44772 22 8 22H16C16.5523 22 17 21.5523 17 21C17 20.4477 16.5523 20 16 20H13V18C13 17.9882 12.9998 17.9764 12.9994 17.9646C17.7751 17.6207 21 14.8091 21 11C21 10.4477 20.5523 10 20 10H12.995ZM11.8276 12C11.8428 12.0004 11.8581 12.0004 11.8732 12H18.8785C18.3461 14.1551 16.0621 16 12 16C7.93795 16 5.65402 14.1552 5.12152 12.0001C5.13511 12.0004 5.14874 12.0003 5.1624 12H11.8276Z" fill="black"/>
<path fill-rule="evenodd" clip-rule="evenodd" d="M15.4951 7.50305C15.1059 7.50305 14.7221 7.59391 14.3743 7.7684C14.0264 7.94289 13.7241 8.19618 13.4913 8.50811C13.2586 8.82005 13.1019 9.18201 13.0338 9.56517C12.9656 9.94834 12.9878 10.3421 13.0987 10.7152C13.256 11.2446 12.9544 11.8013 12.425 11.9586C11.8956 12.1159 11.3389 11.8143 11.1815 11.2849C10.982 10.6134 10.942 9.90457 11.0647 9.21487C11.1874 8.52517 11.4694 7.87365 11.8883 7.31217C12.3072 6.75068 12.8514 6.29475 13.4776 5.98068C14.1037 5.6666 14.7946 5.50305 15.4951 5.50305C16.1956 5.50305 16.8865 5.6666 17.5127 5.98068C18.1388 6.29475 18.683 6.75068 19.1019 7.31217C19.5208 7.87365 19.8029 8.52517 19.9256 9.21487C20.0483 9.90456 20.0082 10.6134 19.8087 11.2849C19.6514 11.8143 19.0947 12.1159 18.5653 11.9586C18.0359 11.8013 17.7342 11.2446 17.8915 10.7152C18.0024 10.3421 18.0246 9.94834 17.9565 9.56517C17.8883 9.18201 17.7316 8.82005 17.4989 8.50811C17.2662 8.19618 16.9639 7.94289 16.616 7.7684C16.2681 7.59391 15.8843 7.50305 15.4951 7.50305Z" fill="black"/>
<path fill-rule="evenodd" clip-rule="evenodd" d="M10.2779 2.34254C10.8239 2.1164 11.4091 2 12 2C12.5909 2 13.1761 2.1164 13.7221 2.34254C14.268 2.56869 14.7641 2.90016 15.182 3.31802C15.5998 3.73588 15.9313 4.23196 16.1575 4.77792C16.3836 5.32389 16.5 5.90905 16.5 6.5C16.5 7.05228 16.0523 7.5 15.5 7.5C14.9477 7.5 14.5 7.05228 14.5 6.5C14.5 6.17169 14.4353 5.8466 14.3097 5.54329C14.1841 5.23998 13.9999 4.96438 13.7678 4.73223C13.5356 4.50009 13.26 4.31594 12.9567 4.1903C12.6534 4.06466 12.3283 4 12 4C11.6717 4 11.3466 4.06466 11.0433 4.1903C10.74 4.31594 10.4644 4.50009 10.2322 4.73223C10.0001 4.96438 9.81594 5.23998 9.6903 5.54329C9.56466 5.8466 9.5 6.17169 9.5 6.5C9.5 7.05228 9.05228 7.5 8.5 7.5C7.94772 7.5 7.5 7.05228 7.5 6.5C7.5 5.90905 7.6164 5.32389 7.84254 4.77792C8.06869 4.23196 8.40016 3.73588 8.81802 3.31802C9.23588 2.90016 9.73196 2.56869 10.2779 2.34254Z" fill="black"/>
</svg>
