<svg width="24" height="24" viewBox="0 0 24 24" fill="none" xmlns="http://www.w3.org/2000/svg">
<path fill-rule="evenodd" clip-rule="evenodd" d="M12 16C12.5523 16 13 16.4477 13 17V21C13 21.5523 12.5523 22 12 22C11.4477 22 11 21.5523 11 21V17C11 16.4477 11.4477 16 12 16Z" fill="black"/>
<path fill-rule="evenodd" clip-rule="evenodd" d="M13.3862 4.09387C13.6105 3.58918 14.2015 3.36189 14.7062 3.58619L15.6062 3.98619C16.1109 4.2105 16.3382 4.80146 16.1139 5.30614C15.8896 5.81083 15.2986 6.03812 14.7939 5.81382L13.8939 5.41382C13.3892 5.18951 13.1619 4.59855 13.3862 4.09387Z" fill="black"/>
<path fill-rule="evenodd" clip-rule="evenodd" d="M16.1139 6.69384C16.3382 7.19853 16.1109 7.78949 15.6062 8.01379L14.7062 8.41379C14.2015 8.6381 13.6105 8.4108 13.3862 7.90612C13.1619 7.40144 13.3892 6.81047 13.8939 6.58617L14.7939 6.18617C15.2986 5.96187 15.8896 6.18916 16.1139 6.69384Z" fill="black"/>
<path fill-rule="evenodd" clip-rule="evenodd" d="M16.0939 1.38624C16.5986 1.16194 17.1895 1.38923 17.4138 1.89392L17.8138 2.79392C18.0381 3.2986 17.8108 3.88956 17.3061 4.11387C16.8015 4.33817 16.2105 4.11088 15.9862 3.60619L15.5862 2.70619C15.3619 2.20151 15.5892 1.61055 16.0939 1.38624Z" fill="black"/>
<path fill-rule="evenodd" clip-rule="evenodd" d="M17.3061 7.88624C17.8108 8.11055 18.0381 8.70151 17.8138 9.20619L17.4138 10.1062C17.1895 10.6109 16.5986 10.8382 16.0939 10.6139C15.5892 10.3896 15.3619 9.7986 15.5862 9.29392L15.9862 8.39392C16.2105 7.88923 16.8015 7.66194 17.3061 7.88624Z" fill="black"/>
<path fill-rule="evenodd" clip-rule="evenodd" d="M19.9061 1.38624C20.4108 1.61055 20.6381 2.20151 20.4138 2.70619L20.0138 3.60619C19.7895 4.11088 19.1985 4.33817 18.6938 4.11387C18.1892 3.88956 17.9619 3.2986 18.1862 2.79392L18.5862 1.89392C18.8105 1.38923 19.4014 1.16194 19.9061 1.38624Z" fill="black"/>
<path fill-rule="evenodd" clip-rule="evenodd" d="M18.6938 7.88624C19.1985 7.66194 19.7895 7.88923 20.0138 8.39392L20.4138 9.29392C20.6381 9.7986 20.4108 10.3896 19.9061 10.6139C19.4014 10.8382 18.8105 10.6109 18.5862 10.1062L18.1862 9.20619C17.9619 8.70151 18.1892 8.11055 18.6938 7.88624Z" fill="black"/>
<path fill-rule="evenodd" clip-rule="evenodd" d="M22.6139 4.09387C22.8382 4.59855 22.6109 5.18951 22.1062 5.41382L21.2062 5.81382C20.7015 6.03812 20.1105 5.81083 19.8862 5.30614C19.6619 4.80146 19.8892 4.2105 20.3939 3.98619L21.2939 3.58619C21.7986 3.36189 22.3896 3.58918 22.6139 4.09387Z" fill="black"/>
<path fill-rule="evenodd" clip-rule="evenodd" d="M19.8862 6.69384C20.1105 6.18916 20.7015 5.96187 21.2062 6.18617L22.1062 6.58617C22.6109 6.81047 22.8382 7.40143 22.6139 7.90612C22.3896 8.4108 21.7986 8.6381 21.2939 8.41379L20.3939 8.01379C19.8892 7.78949 19.6619 7.19853 19.8862 6.69384Z" fill="black"/>
<path fill-rule="evenodd" clip-rule="evenodd" d="M4 4C3.73478 4 3.48043 4.10536 3.29289 4.29289C3.10536 4.48043 3 4.73478 3 5V15C3 15.2652 3.10536 15.5196 3.29289 15.7071C3.48043 15.8946 3.73478 16 4 16H20C20.2652 16 20.5196 15.8946 20.7071 15.7071C20.8946 15.5196 21 15.2652 21 15V13C21 12.4477 21.4477 12 22 12C22.5523 12 23 12.4477 23 13V15C23 15.7957 22.6839 16.5587 22.1213 17.1213C21.5587 17.6839 20.7957 18 20 18H4C3.20435 18 2.44129 17.6839 1.87868 17.1213C1.31607 16.5587 1 15.7956 1 15V5C1 4.20435 1.31607 3.44129 1.87868 2.87868C2.44129 2.31607 3.20435 2 4 2H11C11.5523 2 12 2.44772 12 3C12 3.55228 11.5523 4 11 4H4Z" fill="black"/>
<path fill-rule="evenodd" clip-rule="evenodd" d="M7 21C7 20.4477 7.44772 20 8 20H16C16.5523 20 17 20.4477 17 21C17 21.5523 16.5523 22 16 22H8C7.44772 22 7 21.5523 7 21Z" fill="black"/>
<path fill-rule="evenodd" clip-rule="evenodd" d="M18 4C16.8954 4 16 4.89543 16 6C16 7.10457 16.8954 8 18 8C19.1046 8 20 7.10457 20 6C20 4.89543 19.1046 4 18 4ZM14 6C14 3.79086 15.7909 2 18 2C20.2091 2 22 3.79086 22 6C22 8.20914 20.2091 10 18 10C15.7909 10 14 8.20914 14 6Z" fill="black"/>
</svg>
