<svg width="24" height="24" viewBox="0 0 24 24" fill="none" xmlns="http://www.w3.org/2000/svg">
<path fill-rule="evenodd" clip-rule="evenodd" d="M12 6C12.5523 6 13 6.44772 13 7V11C13 11.5523 12.5523 12 12 12C11.4477 12 11 11.5523 11 11V7C11 6.44772 11.4477 6 12 6Z" fill="black"/>
<path fill-rule="evenodd" clip-rule="evenodd" d="M15.3974 8.1983C15.839 7.86665 16.4659 7.9558 16.7975 8.39742C17.4666 9.28842 17.8744 10.3481 17.9752 11.4579C18.0759 12.5676 17.8657 13.6834 17.368 14.6803C16.8703 15.6773 16.1048 16.516 15.1573 17.1024C14.2098 17.6888 13.1178 17.9997 12.0035 18.0004C10.8892 18.0011 9.79678 17.6915 8.84856 17.1063C7.90034 16.5211 7.13381 15.6834 6.63487 14.6871C6.13593 13.6907 5.92429 12.5752 6.02367 11.4653C6.12304 10.3555 6.5295 9.29526 7.19751 8.40342C7.5286 7.96139 8.15535 7.87145 8.59738 8.20255C9.03942 8.53364 9.12935 9.16039 8.79826 9.60242C8.35292 10.197 8.08195 10.9038 8.0157 11.6437C7.94945 12.3836 8.09054 13.1273 8.42317 13.7915C8.7558 14.4557 9.26681 15.0142 9.89896 15.4043C10.5311 15.7945 11.2594 16.0009 12.0023 16.0004C12.7451 16 13.4731 15.7926 14.1048 15.4017C14.7365 15.0108 15.2468 14.4517 15.5786 13.787C15.9104 13.1224 16.0505 12.3785 15.9834 11.6387C15.9162 10.8989 15.6443 10.1924 15.1983 9.59842C14.8666 9.1568 14.9558 8.52994 15.3974 8.1983Z" fill="black"/>
<path fill-rule="evenodd" clip-rule="evenodd" d="M12 3C7.02944 3 3 7.02944 3 12C3 16.9706 7.02944 21 12 21C16.9706 21 21 16.9706 21 12C21 7.02944 16.9706 3 12 3ZM1 12C1 5.92487 5.92487 1 12 1C18.0751 1 23 5.92487 23 12C23 18.0751 18.0751 23 12 23C5.92487 23 1 18.0751 1 12Z" fill="black"/>
</svg>
