<svg width="24" height="24" viewBox="0 0 24 24" fill="none" xmlns="http://www.w3.org/2000/svg">
<path fill-rule="evenodd" clip-rule="evenodd" d="M7.01033 3.99997C8.33248 4.00219 9.48925 4.43103 10.41 4.89818C10.8731 5.13315 11.288 5.38391 11.6389 5.60308C11.7433 5.66835 11.8388 5.72864 11.9271 5.78436C11.952 5.80005 11.9763 5.81538 12 5.83036C12.0237 5.81538 12.048 5.80005 12.0729 5.78436C12.1612 5.72864 12.2567 5.66834 12.3611 5.60308C12.712 5.38391 13.1269 5.13315 13.59 4.89818C14.511 4.43091 15.6681 4.00198 16.9907 3.99997C18.5467 3.97336 20.0506 4.5616 21.1757 5.63718C22.303 6.71492 22.9586 8.19458 22.9997 9.75366C22.9998 9.75904 22.9999 9.76441 22.9999 9.76979C23 9.77318 23 9.77657 23 9.77996C23 12.0683 22.2027 15.2638 21.0386 17.8791C20.4541 19.1924 19.7508 20.4199 18.9607 21.3368C18.1991 22.2206 17.1952 23 16 23C15.1996 23 14.4299 22.6865 13.8492 22.45C13.8048 22.4319 13.7614 22.4142 13.7193 22.3972C13.049 22.1265 12.5305 21.94 12 21.94C11.4695 21.94 10.951 22.1265 10.2807 22.3972C10.2386 22.4142 10.1952 22.4319 10.1508 22.45C9.57011 22.6865 8.80036 23 8 23C6.80476 23 5.80092 22.2206 5.03934 21.3368C4.24921 20.4199 3.54595 19.1924 2.96141 17.8791C1.79734 15.2638 1 12.0683 1 9.77996C1 9.77187 1.0001 9.76378 1.00029 9.75568C1.03819 8.19502 1.69308 6.71299 2.8215 5.63421C3.94743 4.55782 5.45323 3.97046 7.01033 3.99997ZM6.9793 5.99975C5.94759 5.97838 4.94947 6.36678 4.20356 7.07987C3.46049 7.79024 3.02806 8.76514 3.00001 9.79243C3.00302 11.7242 3.70499 14.6313 4.78859 17.0658C5.32905 18.2801 5.93829 19.3162 6.55441 20.0312C7.19908 20.7793 7.69524 21 8 21C8.38843 21 8.81233 20.8332 9.53182 20.5427C10.174 20.2834 11.0305 19.94 12 19.94C12.9695 19.94 13.826 20.2834 14.4682 20.5427C15.1877 20.8332 15.6116 21 16 21C16.3048 21 16.8009 20.7793 17.4456 20.0312C18.0617 19.3162 18.6709 18.2801 19.2114 17.0658C20.2948 14.6318 20.9967 11.7253 21 9.79349C20.9696 8.76671 20.5364 7.79292 19.7936 7.08284C19.0478 6.36982 18.0503 5.98052 17.0187 5.99979C17.0125 5.9999 17.0062 5.99996 17 5.99996C16.1064 5.99996 15.2668 6.29011 14.495 6.68174C14.1106 6.87677 13.7542 7.09101 13.4207 7.29934C13.343 7.34786 13.2638 7.39791 13.1843 7.44811C12.9422 7.60101 12.6978 7.75533 12.4886 7.87247C12.185 8.04246 11.815 8.04246 11.5114 7.87247C11.3022 7.75533 11.0578 7.601 10.8157 7.4481C10.7362 7.3979 10.6569 7.34786 10.5793 7.29934C10.2458 7.09101 9.88942 6.87677 9.50503 6.68174C8.73315 6.29011 7.89355 5.99996 7 5.99996C6.9931 5.99996 6.9862 5.99989 6.9793 5.99975Z" fill="black"/>
<path fill-rule="evenodd" clip-rule="evenodd" d="M9.10555 1.55277C9.35254 1.05879 9.95321 0.858566 10.4472 1.10556C11.9388 1.85136 13 3.82926 13 6.99998C13 7.55227 12.5523 7.99998 12 7.99998C11.4477 7.99998 11 7.55227 11 6.99998C11 4.17071 10.0612 3.14861 9.55276 2.89441C9.05878 2.64742 8.85856 2.04675 9.10555 1.55277Z" fill="black"/>
</svg>
