<svg width="24" height="24" viewBox="0 0 24 24" fill="none" xmlns="http://www.w3.org/2000/svg">
<path fill-rule="evenodd" clip-rule="evenodd" d="M7.69685 8.6345C8.17487 8.91111 8.33816 9.52286 8.06155 10.0009L4.10832 16.8328C4.10809 16.8332 4.10786 16.8336 4.10763 16.834C4.03953 16.9532 4.00384 17.0881 4.00415 17.2253C4.00445 17.3598 4.03928 17.4919 4.10523 17.6089C4.17907 17.7274 4.28166 17.8255 4.40355 17.8939C4.52831 17.9639 4.66906 18.0005 4.81212 18C4.81308 18 4.81405 18 4.81501 18H7.00001C7.5523 18 8.00001 18.4478 8.00001 19C8.00001 19.5523 7.5523 20 7.00001 20H4.81652C4.3292 20.0012 3.84982 19.8765 3.42482 19.638C2.99942 19.3993 2.64294 19.0547 2.38998 18.6376C2.38658 18.632 2.38324 18.6264 2.37995 18.6207C2.13485 18.1981 2.00525 17.7184 2.00416 17.2298C2.00306 16.7413 2.13051 16.261 2.37371 15.8373C2.37429 15.8362 2.37488 15.8352 2.37547 15.8342L6.33047 8.99921C6.60707 8.52118 7.21882 8.3579 7.69685 8.6345Z" fill="black"/>
<path fill-rule="evenodd" clip-rule="evenodd" d="M19.0324 13.3493C19.5105 13.0729 20.1222 13.2363 20.3987 13.7144L21.6247 15.8344C21.6253 15.8354 21.6259 15.8365 21.6265 15.8375C21.8682 16.2591 21.9954 16.7366 21.9954 17.2225C21.9954 17.7085 21.8682 18.1859 21.6265 18.6075C21.6234 18.6129 21.6202 18.6183 21.617 18.6236C21.3677 19.0402 21.0153 19.3856 20.5939 19.6266C20.1725 19.8676 19.6962 19.9962 19.2107 20C19.2082 20 19.2056 20 19.203 20H11C10.4477 20 10 19.5523 10 19C10 18.4477 10.4477 18 11 18H19.1984C19.3397 17.9984 19.4782 17.9607 19.6009 17.8905C19.7218 17.8214 19.8233 17.723 19.8961 17.6044C19.9612 17.4877 19.9954 17.3563 19.9954 17.2225C19.9954 17.0861 19.9599 16.9521 19.8922 16.8337C19.892 16.8333 19.8918 16.8329 19.8915 16.8325L18.6673 14.7156C18.3908 14.2375 18.5543 13.6258 19.0324 13.3493Z" fill="black"/>
<path fill-rule="evenodd" clip-rule="evenodd" d="M14.7071 15.2929C15.0976 15.6834 15.0976 16.3166 14.7071 16.7071L12.4142 19L14.7071 21.2929C15.0976 21.6834 15.0976 22.3166 14.7071 22.7071C14.3166 23.0976 13.6834 23.0976 13.2929 22.7071L10.2929 19.7071C9.90237 19.3166 9.90237 18.6834 10.2929 18.2929L13.2929 15.2929C13.6834 14.9024 14.3166 14.9024 14.7071 15.2929Z" fill="black"/>
<path fill-rule="evenodd" clip-rule="evenodd" d="M7.69611 8.63398C7.92582 8.76661 8.09344 8.98507 8.16206 9.2413L9.25906 13.3373C9.40194 13.8708 9.08529 14.4191 8.55181 14.562C8.01832 14.7048 7.47002 14.3882 7.32715 13.8547L6.48891 10.7249L3.35903 11.5639C2.82558 11.7069 2.2772 11.3904 2.1342 10.8569C1.9912 10.3235 2.30773 9.7751 2.84118 9.6321L6.93718 8.53411C7.19339 8.46542 7.46639 8.50135 7.69611 8.63398Z" fill="black"/>
<path fill-rule="evenodd" clip-rule="evenodd" d="M11.9965 4.00004C11.857 4.00471 11.7208 4.04453 11.6006 4.11588C11.4776 4.18891 11.3755 4.29249 11.3043 4.41659C11.3038 4.41747 11.3033 4.41835 11.3028 4.41923L10.2098 6.31123C9.93355 6.78945 9.32191 6.95317 8.84369 6.6769C8.36547 6.40063 8.20175 5.789 8.47802 5.31078L9.57034 3.41995C9.81302 2.99749 10.1607 2.64482 10.5796 2.3961C10.999 2.1471 11.4757 2.01073 11.9634 2.00023C11.97 2.00009 11.9765 2.00002 11.9831 2C12.4714 1.99909 12.9514 2.12666 13.3749 2.36989C13.7983 2.61313 14.1504 2.96347 14.3956 3.38576C14.396 3.38645 14.3964 3.38713 14.3968 3.38782L18.3404 10.2317C18.6161 10.7103 18.4517 11.3217 17.9732 11.5975C17.4946 11.8732 16.8832 11.7088 16.6075 11.2303L12.6662 4.39024C12.666 4.38985 12.6657 4.38945 12.6655 4.38905C12.5965 4.27066 12.4976 4.17243 12.3787 4.10417C12.2623 4.03729 12.1307 4.00146 11.9965 4.00004Z" fill="black"/>
<path fill-rule="evenodd" clip-rule="evenodd" d="M18.8299 5.66906C19.3634 5.81194 19.68 6.36023 19.5371 6.89372L18.4401 10.9897C18.3715 11.2459 18.2039 11.4644 17.9742 11.597C17.7445 11.7297 17.4715 11.7656 17.2153 11.6969L13.1193 10.5989C12.5858 10.4559 12.2693 9.90754 12.4123 9.37409C12.5553 8.84064 13.1037 8.52412 13.6371 8.66712L16.767 9.50613L17.6052 6.37631C17.7481 5.84283 18.2964 5.52618 18.8299 5.66906Z" fill="black"/>
</svg>
