<svg width="24" height="24" viewBox="0 0 24 24" fill="none" xmlns="http://www.w3.org/2000/svg">
<path fill-rule="evenodd" clip-rule="evenodd" d="M17.1722 3.06235L3.68742 7.05784C3.687 7.05797 3.68658 7.0581 3.68615 7.05822C3.25253 7.18911 2.91188 7.70082 3.055 8.29849L3.61096 9.78104L18.9456 5.3233L18.4443 3.6941C18.4436 3.69186 18.4429 3.68961 18.4423 3.68736C18.3099 3.24604 17.783 2.90055 17.1722 3.06235ZM20.3568 3.1089C19.8883 1.55479 18.221 0.703229 16.637 1.13525C16.6299 1.13716 16.623 1.13915 16.616 1.14122L3.11599 5.14122C3.1149 5.14154 3.11381 5.14186 3.11273 5.14219C1.55622 5.60914 0.702941 7.27777 1.13531 8.86313C1.14343 8.89289 1.15292 8.92226 1.16375 8.95114L2.06375 11.3511C2.24734 11.8407 2.77712 12.1062 3.27922 11.9603L20.4792 6.96027C20.7365 6.88548 20.953 6.71058 21.0802 6.47478C21.2074 6.23898 21.2346 5.962 21.1559 5.70593L20.3568 3.1089Z" fill="black"/>
<path fill-rule="evenodd" clip-rule="evenodd" d="M5.57775 4.5172C6.01009 4.17355 6.63916 4.24544 6.98281 4.67778L10.0828 8.57778C10.4265 9.01012 10.3546 9.63919 9.92223 9.98285C9.48989 10.3265 8.86082 10.2546 8.51717 9.82227L5.41717 5.92227C5.07351 5.48993 5.1454 4.86086 5.57775 4.5172Z" fill="black"/>
<path fill-rule="evenodd" clip-rule="evenodd" d="M11.7875 2.60966C12.224 2.27134 12.8522 2.35097 13.1905 2.7875L16.2905 6.7875C16.6288 7.22403 16.5492 7.85217 16.1126 8.19049C15.6761 8.5288 15.048 8.44918 14.7097 8.01264L11.6097 4.01264C11.2713 3.57611 11.351 2.94797 11.7875 2.60966Z" fill="black"/>
<path fill-rule="evenodd" clip-rule="evenodd" d="M2 11C2 10.4477 2.44772 10 3 10H21C21.5523 10 22 10.4477 22 11V19C22 19.7956 21.6839 20.5587 21.1213 21.1213C20.5587 21.6839 19.7957 22 19 22H5C4.20435 22 3.44129 21.6839 2.87868 21.1213C2.31607 20.5587 2 19.7956 2 19V11ZM4 12V19C4 19.2652 4.10536 19.5196 4.29289 19.7071C4.48043 19.8946 4.73478 20 5 20H19C19.2652 20 19.5196 19.8946 19.7071 19.7071C19.8946 19.5196 20 19.2652 20 19V12H4Z" fill="black"/>
</svg>
