<svg width="24" height="24" viewBox="0 0 24 24" fill="none" xmlns="http://www.w3.org/2000/svg">
<path fill-rule="evenodd" clip-rule="evenodd" d="M12 3C7.02944 3 3 7.02944 3 12C3 16.9706 7.02944 21 12 21C16.9706 21 21 16.9706 21 12C21 7.02944 16.9706 3 12 3ZM1 12C1 5.92487 5.92487 1 12 1C18.0751 1 23 5.92487 23 12C23 18.0751 18.0751 23 12 23C5.92487 23 1 18.0751 1 12Z" fill="black"/>
<path fill-rule="evenodd" clip-rule="evenodd" d="M8.47427 14.1913C9.2722 13.6109 10.4744 13 11.9999 13C13.5255 13 14.7277 13.6109 15.5256 14.1913C15.9265 14.4828 16.2364 14.7743 16.4485 14.9956C16.5549 15.1067 16.6379 15.2013 16.6966 15.2712C16.7259 15.3062 16.7493 15.3351 16.7665 15.3568C16.7752 15.3677 16.7823 15.3769 16.7878 15.3841C16.7892 15.3858 16.7904 15.3875 16.7916 15.389C16.7928 15.3906 16.794 15.3921 16.795 15.3935C16.796 15.3948 16.797 15.396 16.7978 15.3971L16.7989 15.3987L16.7994 15.3994C16.7997 15.3997 16.7999 15.4 15.9999 16L16.7999 15.4C17.1313 15.8418 17.0418 16.4686 16.5999 16.8C16.1594 17.1304 15.5351 17.0424 15.2029 16.604C15.2023 16.6031 15.2008 16.6012 15.1984 16.5982C15.1925 16.5907 15.1812 16.5766 15.1646 16.5569C15.1315 16.5174 15.0777 16.4558 15.0045 16.3794C14.8572 16.2257 14.6359 16.0172 14.3493 15.8087C13.7722 15.3891 12.9744 15 11.9999 15C11.0255 15 10.2277 15.3891 9.65061 15.8087C9.364 16.0172 9.14266 16.2257 8.99536 16.3794C8.92213 16.4558 8.8684 16.5174 8.83525 16.5569C8.8187 16.5766 8.80739 16.5907 8.80144 16.5982C8.7991 16.6012 8.7976 16.6031 8.79694 16.604C8.4648 17.0424 7.84044 17.1304 7.39994 16.8C6.95811 16.4686 6.86857 15.8418 7.19994 15.4L7.99994 16C7.19994 15.4 7.20018 15.3997 7.20042 15.3994L7.20095 15.3987L7.2021 15.3971C7.20292 15.396 7.20383 15.3948 7.20484 15.3935C7.20686 15.3909 7.20926 15.3877 7.21205 15.3841C7.21762 15.3769 7.22472 15.3677 7.23335 15.3568C7.25059 15.3351 7.27394 15.3062 7.3033 15.2712C7.36194 15.2013 7.44494 15.1067 7.55139 14.9956C7.76346 14.7743 8.07337 14.4828 8.47427 14.1913ZM15.2004 16.6006C15.2006 16.6008 15.2007 16.6011 15.2009 16.6013L15.2004 16.6006Z" fill="black"/>
<path fill-rule="evenodd" clip-rule="evenodd" d="M6.57155 7.62864C6.77666 7.11586 7.35863 6.86644 7.87141 7.07155L10.3714 8.07155C10.8842 8.27667 11.1336 8.85864 10.9285 9.37142C10.7234 9.8842 10.1414 10.1336 9.62863 9.92851L7.12863 8.92851C6.61585 8.72339 6.36643 8.14142 6.57155 7.62864Z" fill="black"/>
<path fill-rule="evenodd" clip-rule="evenodd" d="M17.4285 7.62864C17.6336 8.14142 17.3842 8.72339 16.8714 8.92851L14.3714 9.92851C13.8586 10.1336 13.2767 9.8842 13.0715 9.37142C12.8664 8.85864 13.1158 8.27667 13.6286 8.07155L16.1286 7.07155C16.6414 6.86644 17.2234 7.11586 17.4285 7.62864Z" fill="black"/>
<path fill-rule="evenodd" clip-rule="evenodd" d="M8 10C8 9.44772 8.44772 9 9 9H9.01C9.56228 9 10.01 9.44772 10.01 10C10.01 10.5523 9.56228 11 9.01 11H9C8.44772 11 8 10.5523 8 10Z" fill="black"/>
<path fill-rule="evenodd" clip-rule="evenodd" d="M14 10C14 9.44772 14.4477 9 15 9H15.01C15.5623 9 16.01 9.44772 16.01 10C16.01 10.5523 15.5623 11 15.01 11H15C14.4477 11 14 10.5523 14 10Z" fill="black"/>
</svg>
