<svg width="24" height="24" viewBox="0 0 24 24" fill="none" xmlns="http://www.w3.org/2000/svg">
<path fill-rule="evenodd" clip-rule="evenodd" d="M10 5C10 3.89543 10.8954 3 12 3C13.1046 3 14 3.89543 14 5C14 6.10457 13.1046 7 12 7C10.8954 7 10 6.10457 10 5Z" fill="black"/>
<path fill-rule="evenodd" clip-rule="evenodd" d="M12 13C12.3787 13 12.725 13.214 12.8944 13.5528L15.8944 19.5528C16.1414 20.0468 15.9412 20.6474 15.4472 20.8944C14.9532 21.1414 14.3525 20.9412 14.1055 20.4472L12 16.2361L9.8944 20.4472C9.64741 20.9412 9.04674 21.1414 8.55276 20.8944C8.05878 20.6474 7.85856 20.0468 8.10555 19.5528L11.1055 13.5528C11.2749 13.214 11.6212 13 12 13Z" fill="black"/>
<path fill-rule="evenodd" clip-rule="evenodd" d="M5.05134 7.6838C5.22599 7.15986 5.79231 6.8767 6.31625 7.05134L12 8.94593L17.6838 7.05134C18.2077 6.8767 18.7741 7.15986 18.9487 7.6838C19.1234 8.20774 18.8402 8.77406 18.3163 8.94871L12.3163 10.9487C12.111 11.0171 11.8891 11.0171 11.6838 10.9487L5.6838 8.94871C5.15986 8.77406 4.8767 8.20774 5.05134 7.6838Z" fill="black"/>
<path fill-rule="evenodd" clip-rule="evenodd" d="M12 9C12.5523 9 13 9.44772 13 10V14C13 14.5523 12.5523 15 12 15C11.4477 15 11 14.5523 11 14V10C11 9.44772 11.4477 9 12 9Z" fill="black"/>
</svg>
