<svg width="24" height="24" viewBox="0 0 24 24" fill="none" xmlns="http://www.w3.org/2000/svg">
<path fill-rule="evenodd" clip-rule="evenodd" d="M9 2C9 1.44772 9.44772 1 10 1H14C14.5523 1 15 1.44772 15 2C15 2.55228 14.5523 3 14 3H10C9.44772 3 9 2.55228 9 2Z" fill="black"/>
<path fill-rule="evenodd" clip-rule="evenodd" d="M12 9C12.5523 9 13 9.44772 13 10V14C13 14.5523 12.5523 15 12 15C11.4477 15 11 14.5523 11 14V10C11 9.44772 11.4477 9 12 9Z" fill="black"/>
<path fill-rule="evenodd" clip-rule="evenodd" d="M11.9923 6.99997C10.2779 6.98653 8.61813 7.60274 7.32786 8.73172C6.03759 9.8607 5.20652 11.4239 4.99227 13.125C4.92325 13.6729 4.42309 14.0612 3.87514 13.9922C3.32718 13.9231 2.93893 13.423 3.00795 12.875C3.28342 10.688 4.35194 8.67812 6.01085 7.22657C7.66891 5.77576 9.80152 4.98356 12.0046 5.00001C13.4592 5.0021 14.8917 5.35675 16.1793 6.03361C17.4679 6.71099 18.573 7.69086 19.3997 8.88915C20.2264 10.0875 20.7501 11.4684 20.9258 12.9136C21.1015 14.3587 20.9241 15.8249 20.4086 17.1864C19.8932 18.548 19.0552 19.7641 17.9665 20.7306C16.8778 21.6971 15.5709 22.385 14.1579 22.7354C12.7449 23.0858 11.2679 23.0882 9.85381 22.7424C8.43967 22.3966 7.13052 21.7129 6.03867 20.75C6.03769 20.7491 6.03672 20.7483 6.03574 20.7474L3.33574 18.3474C2.92296 17.9805 2.88578 17.3484 3.2527 16.9356C3.61962 16.5229 4.25169 16.4857 4.66447 16.8526L7.36154 19.25C7.362 19.2504 7.36246 19.2508 7.36292 19.2512C8.21186 19.9995 9.22958 20.5308 10.3289 20.7997C11.4288 21.0686 12.5775 21.0667 13.6765 20.7942C14.7755 20.5217 15.792 19.9866 16.6387 19.2349C17.4855 18.4832 18.1373 17.5373 18.5382 16.4783C18.9391 15.4194 19.0771 14.279 18.9404 13.155C18.8037 12.031 18.3964 10.9569 17.7534 10.0249C17.1104 9.09289 16.2509 8.33077 15.2487 7.80392C14.2464 7.27706 13.1313 7.0012 11.999 7C11.9968 7 11.9945 6.99999 11.9923 6.99997Z" fill="black"/>
<path fill-rule="evenodd" clip-rule="evenodd" d="M3 17C3 16.4477 3.44772 16 4 16H9C9.55228 16 10 16.4477 10 17C10 17.5523 9.55228 18 9 18H5V22C5 22.5523 4.55228 23 4 23C3.44772 23 3 22.5523 3 22V17Z" fill="black"/>
</svg>
