<svg width="24" height="24" viewBox="0 0 24 24" fill="none" xmlns="http://www.w3.org/2000/svg">
<path fill-rule="evenodd" clip-rule="evenodd" d="M8.29289 2.29289C8.68342 1.90237 9.31658 1.90237 9.70711 2.29289L13.7071 6.29289C14.0976 6.68342 14.0976 7.31658 13.7071 7.70711C13.3166 8.09763 12.6834 8.09763 12.2929 7.70711L9 4.41421L6.41421 7L9.70711 10.2929C10.0976 10.6834 10.0976 11.3166 9.70711 11.7071C9.31658 12.0976 8.68342 12.0976 8.29289 11.7071L4.29289 7.70711C3.90237 7.31658 3.90237 6.68342 4.29289 6.29289L8.29289 2.29289Z" fill="black"/>
<path fill-rule="evenodd" clip-rule="evenodd" d="M16.2929 10.2929C16.6834 9.90237 17.3166 9.90237 17.7071 10.2929L21.7071 14.2929C22.0976 14.6834 22.0976 15.3166 21.7071 15.7071L17.7071 19.7071C17.3166 20.0976 16.6834 20.0976 16.2929 19.7071L12.2929 15.7071C11.9024 15.3166 11.9024 14.6834 12.2929 14.2929C12.6834 13.9024 13.3166 13.9024 13.7071 14.2929L17 17.5858L19.5858 15L16.2929 11.7071C15.9024 11.3166 15.9024 10.6834 16.2929 10.2929Z" fill="black"/>
<path fill-rule="evenodd" clip-rule="evenodd" d="M13.2929 5.29289C13.6834 4.90237 14.3166 4.90237 14.7071 5.29289L18.7071 9.29289C19.0976 9.68342 19.0976 10.3166 18.7071 10.7071L12.7071 16.7071C12.3166 17.0976 11.6834 17.0976 11.2929 16.7071L7.29289 12.7071C6.90237 12.3166 6.90237 11.6834 7.29289 11.2929L13.2929 5.29289ZM9.41421 12L12 14.5858L16.5858 10L14 7.41421L9.41421 12Z" fill="black"/>
<path fill-rule="evenodd" clip-rule="evenodd" d="M19.7071 4.29289C20.0976 4.68342 20.0976 5.31658 19.7071 5.70711L16.7071 8.70711C16.3166 9.09763 15.6834 9.09763 15.2929 8.70711C14.9024 8.31658 14.9024 7.68342 15.2929 7.29289L18.2929 4.29289C18.6834 3.90237 19.3166 3.90237 19.7071 4.29289Z" fill="black"/>
<path fill-rule="evenodd" clip-rule="evenodd" d="M2 15C2 14.4477 2.44772 14 3 14C4.85652 14 6.63699 14.7375 7.94975 16.0503C9.2625 17.363 10 19.1435 10 21C10 21.5523 9.55228 22 9 22C8.44772 22 8 21.5523 8 21C8 19.6739 7.47322 18.4021 6.53553 17.4645C5.59785 16.5268 4.32608 16 3 16C2.44772 16 2 15.5523 2 15Z" fill="black"/>
</svg>
