<svg width="24" height="24" viewBox="0 0 24 24" fill="none" xmlns="http://www.w3.org/2000/svg">
<path fill-rule="evenodd" clip-rule="evenodd" d="M4 4C3.73478 4 3.48043 4.10536 3.29289 4.29289C3.10536 4.48043 3 4.73478 3 5V11.5C3 12.0523 2.55228 12.5 2 12.5C1.44772 12.5 1 12.0523 1 11.5V5C1 4.20435 1.31607 3.44129 1.87868 2.87868C2.44129 2.31607 3.20435 2 4 2H7.9C8.9183 2 9.83786 2.45401 10.4321 3.3453L11.232 4.5453C11.4379 4.85401 11.7183 5 12.1 5H20C20.7956 5 21.5587 5.31607 22.1213 5.87868C22.6839 6.44129 23 7.20435 23 8V18C23 18.7957 22.6839 19.5587 22.1213 20.1213C21.5587 20.6839 20.7957 21 20 21H10.5C9.94771 21 9.5 20.5523 9.5 20C9.5 19.4477 9.94771 19 10.5 19H20C20.2652 19 20.5196 18.8946 20.7071 18.7071C20.8946 18.5196 21 18.2652 21 18V8C21 7.73478 20.8946 7.48043 20.7071 7.29289C20.5196 7.10536 20.2652 7 20 7H12.1C11.0817 7 10.1621 6.54599 9.56795 5.6547L8.76795 4.4547C8.56215 4.14599 8.2817 4 7.9 4H4Z" fill="black"/>
<path fill-rule="evenodd" clip-rule="evenodd" d="M8.68042 9.23769C9.05946 9.08069 9.46571 8.99988 9.87598 8.99988C10.2862 8.99988 10.6925 9.08069 11.0715 9.23769C11.4506 9.39469 11.795 9.62482 12.0851 9.91492C12.3752 10.205 12.6053 10.5494 12.7623 10.9285C12.9193 11.3075 13.0001 11.7138 13.0001 12.124C13.0001 12.5343 12.9193 12.9405 12.7623 13.3196C12.6053 13.6986 12.3752 14.043 12.0851 14.3331L7.07228 19.3419C7.07226 19.342 7.07224 19.342 7.07222 19.342C6.7158 19.6986 6.27525 19.9596 5.79128 20.1009L2.92098 20.938C2.92097 20.938 2.92096 20.938 2.92095 20.938C2.66281 21.0133 2.38918 21.0178 2.12871 20.9511C1.86821 20.8844 1.63046 20.7488 1.44032 20.5587C1.25018 20.3685 1.11464 20.1308 1.04791 19.8703C0.981172 19.6098 0.985684 19.3362 1.06097 19.0781C1.06097 19.078 1.06097 19.078 1.06098 19.078L1.89806 16.2077C2.03935 15.7239 2.30027 15.2834 2.65673 14.9271C2.65684 14.9269 2.65695 14.9268 2.65706 14.9267L7.66673 9.91506L8.3732 10.6213L7.66687 9.91492C7.95697 9.62482 8.30138 9.39469 8.68042 9.23769ZM9.08122 11.329C9.08118 11.329 9.08113 11.3291 9.08108 11.3291L4.07089 16.3413C3.95209 16.4601 3.86512 16.6068 3.81798 16.768C3.81798 16.768 3.81797 16.768 3.81797 16.7681C3.81794 16.7682 3.81791 16.7682 3.81789 16.7683L3.23623 18.7628L5.23068 18.1811C5.23078 18.1811 5.23089 18.1811 5.231 18.181C5.3922 18.1339 5.53894 18.0469 5.65767 17.9281L10.6709 12.9189C10.7753 12.8145 10.8581 12.6906 10.9146 12.5542C10.971 12.4178 11.0001 12.2717 11.0001 12.124C11.0001 11.9764 10.971 11.8302 10.9146 11.6938C10.8581 11.5574 10.7753 11.4335 10.6709 11.3291C10.5665 11.2247 10.4426 11.1419 10.3062 11.0854C10.1698 11.029 10.0236 10.9999 9.87598 10.9999C9.72835 10.9999 9.58217 11.029 9.44578 11.0854C9.30946 11.1419 9.18558 11.2247 9.08122 11.329ZM2.36138 19.0179C2.36126 19.0179 2.36113 19.018 2.361 19.018C2.36099 19.018 2.36099 19.018 2.36098 19.018M2.36138 19.0179L2.361 19.018L2.36138 19.0179Z" fill="black"/>
</svg>
