<svg width="24" height="24" viewBox="0 0 24 24" fill="none" xmlns="http://www.w3.org/2000/svg">
<path fill-rule="evenodd" clip-rule="evenodd" d="M15.3983 3.66705C13.6943 2.97218 11.8183 2.81633 10.023 3.22051C8.22775 3.62468 6.59953 4.56947 5.35776 5.92753C4.116 7.2856 3.32037 8.99168 3.0781 10.8159C2.83584 12.64 3.15857 14.4947 4.00282 16.1298C4.84707 17.7649 6.17225 19.1019 7.79978 19.9606C9.42732 20.8194 11.279 21.1586 13.1052 20.9326C13.6533 20.8647 14.1527 21.2541 14.2205 21.8022C14.2883 22.3503 13.899 22.8496 13.3509 22.9174C11.1188 23.1937 8.85566 22.7791 6.86645 21.7295C4.87724 20.6799 3.25758 19.0458 2.22572 17.0473C1.19386 15.0489 0.799407 12.7821 1.09551 10.5526C1.39162 8.323 2.36405 6.23779 3.88176 4.57793C5.39948 2.91807 7.38953 1.76334 9.58374 1.26934C11.778 0.775346 14.0709 0.96583 16.1535 1.81513C18.2361 2.66442 20.0083 4.13171 21.2313 6.01925C22.4543 7.9068 23.0694 10.1239 22.9935 12.3717C22.9749 12.9237 22.5123 13.3561 21.9603 13.3374C21.4084 13.3188 20.976 12.8563 20.9946 12.3043C21.0567 10.4651 20.5535 8.65115 19.5529 7.1068C18.5522 5.56244 17.1022 4.36193 15.3983 3.66705Z" fill="black"/>
<path fill-rule="evenodd" clip-rule="evenodd" d="M12 5C12.5523 5 13 5.44772 13 6V11.382L14.0092 11.8866C14.5032 12.1336 14.7034 12.7342 14.4564 13.2282C14.2094 13.7222 13.6088 13.9224 13.1148 13.6754L11.5528 12.8944C11.214 12.725 11 12.3788 11 12V6C11 5.44772 11.4477 5 12 5Z" fill="black"/>
<path fill-rule="evenodd" clip-rule="evenodd" d="M17.2929 13.2929C17.6834 12.9024 18.3166 12.9024 18.7071 13.2929L22.7071 17.2929C23.0976 17.6834 23.0976 18.3166 22.7071 18.7071C22.3166 19.0976 21.6834 19.0976 21.2929 18.7071L18 15.4142L14.7071 18.7071C14.3166 19.0976 13.6834 19.0976 13.2929 18.7071C12.9024 18.3166 12.9024 17.6834 13.2929 17.2929L17.2929 13.2929Z" fill="black"/>
<path fill-rule="evenodd" clip-rule="evenodd" d="M18 13C18.5523 13 19 13.4477 19 14V22C19 22.5523 18.5523 23 18 23C17.4477 23 17 22.5523 17 22V14C17 13.4477 17.4477 13 18 13Z" fill="black"/>
</svg>
