<svg width="24" height="24" viewBox="0 0 24 24" fill="none" xmlns="http://www.w3.org/2000/svg">
<path fill-rule="evenodd" clip-rule="evenodd" d="M6.5 3C6.10218 3 5.72064 3.15804 5.43934 3.43934C5.15804 3.72064 5 4.10218 5 4.5V16.3377C5.46443 16.1174 5.97616 16 6.5 16H19V3H6.5ZM21 3C21 2.46957 20.7893 1.96086 20.4142 1.58579C20.0391 1.21071 19.5304 1 19 1H6.5C5.57174 1 4.6815 1.36875 4.02513 2.02513C3.36875 2.6815 3 3.57174 3 4.5V19.5C3 20.4283 3.36875 21.3185 4.02513 21.9749C4.6815 22.6312 5.57174 23 6.5 23H19C19.5304 23 20.0391 22.7893 20.4142 22.4142C20.7893 22.0391 21 21.5304 21 21V3ZM19 18H6.5C6.10218 18 5.72064 18.158 5.43934 18.4393C5.15804 18.7206 5 19.1022 5 19.5C5 19.8978 5.15804 20.2794 5.43934 20.5607C5.72064 20.842 6.10218 21 6.5 21H19V18Z" fill="black"/>
<path fill-rule="evenodd" clip-rule="evenodd" d="M11.9999 5C12.3588 5 12.6901 5.19229 12.8682 5.50386L16.8682 12.5039C17.1422 12.9834 16.9756 13.5942 16.4961 13.8682C16.0165 14.1423 15.4057 13.9757 15.1317 13.4961L11.9999 8.01556L8.86817 13.4961C8.59416 13.9757 7.98331 14.1423 7.50379 13.8682C7.02427 13.5942 6.85767 12.9834 7.13168 12.5039L11.1317 5.50386C11.3097 5.19229 11.6411 5 11.9999 5Z" fill="black"/>
<path fill-rule="evenodd" clip-rule="evenodd" d="M8.1001 11C8.1001 10.4477 8.54781 10 9.1001 10H14.8001C15.3524 10 15.8001 10.4477 15.8001 11C15.8001 11.5523 15.3524 12 14.8001 12H9.1001C8.54781 12 8.1001 11.5523 8.1001 11Z" fill="black"/>
</svg>
