<svg width="24" height="24" viewBox="0 0 24 24" fill="none" xmlns="http://www.w3.org/2000/svg">
<path fill-rule="evenodd" clip-rule="evenodd" d="M14.8787 10.8787C15.4413 10.3161 16.2043 10 17 10C17.7957 10 18.5587 10.3161 19.1213 10.8787C19.6839 11.4413 20 12.2043 20 13V15C20 15.5523 19.5523 16 19 16C18.4477 16 18 15.5523 18 15V13C18 12.7348 17.8946 12.4804 17.7071 12.2929C17.5196 12.1054 17.2652 12 17 12C16.7348 12 16.4804 12.1054 16.2929 12.2929C16.1054 12.4804 16 12.7348 16 13V15C16 15.5523 15.5523 16 15 16C14.4477 16 14 15.5523 14 15V13C14 12.2043 14.3161 11.4413 14.8787 10.8787Z" fill="black"/>
<path fill-rule="evenodd" clip-rule="evenodd" d="M5 4C4.73478 4 4.48043 4.10536 4.29289 4.29289C4.10536 4.48043 4 4.73478 4 5V18.5858L6.29289 16.2929C6.48043 16.1054 6.73478 16 7 16H9C9.55228 16 10 16.4477 10 17C10 17.5523 9.55228 18 9 18H7.41421L3.70711 21.7071C3.42111 21.9931 2.99099 22.0787 2.61732 21.9239C2.24364 21.7691 2 21.4045 2 21V5C2 4.20435 2.31607 3.44129 2.87868 2.87868C3.44129 2.31607 4.20435 2 5 2H19C19.7956 2 20.5587 2.31607 21.1213 2.87868C21.6839 3.44129 22 4.20435 22 5V8.5C22 9.05228 21.5523 9.5 21 9.5C20.4477 9.5 20 9.05228 20 8.5V5C20 4.73478 19.8946 4.48043 19.7071 4.29289C19.5196 4.10536 19.2652 4 19 4H5Z" fill="black"/>
<path fill-rule="evenodd" clip-rule="evenodd" d="M14 16V19H20V16H14ZM20.0012 19C20.0013 18.9999 20.0013 18.9999 20.0012 19L20.0012 19ZM13.9988 19C13.9987 18.9999 13.9987 18.9999 13.9988 19L13.9988 19ZM12 16C12 14.8954 12.8954 14 14 14H20C21.1046 14 22 14.8954 22 16V19C22 20.1046 21.1046 21 20 21H14C12.8954 21 12 20.1046 12 19V16Z" fill="black"/>
</svg>
