<svg width="24" height="24" viewBox="0 0 24 24" fill="none" xmlns="http://www.w3.org/2000/svg">
<path fill-rule="evenodd" clip-rule="evenodd" d="M7.98421 4.77832C8.53614 4.2775 9.25472 4.00004 10 4H20.0001C20.7957 4 21.5588 4.31607 22.1214 4.87868C22.684 5.44129 23.0001 6.20435 23.0001 7V17C23.0001 17.7956 22.684 18.5587 22.1214 19.1213C21.5588 19.6839 20.7957 20 20.0001 20H10C9.25463 20 8.53596 19.7224 7.98401 19.2215L1.65614 13.4806L2.32807 12.74L1.65601 13.4805C1.44945 13.293 1.28439 13.0644 1.17143 12.8094C1.05847 12.5543 1.00012 12.2784 1.00012 11.9995C1.00012 11.7206 1.05847 11.4447 1.17143 11.1896C1.28439 10.9346 1.44945 10.706 1.65601 10.5185L7.98401 4.7785C7.98408 4.77844 7.98414 4.77838 7.98421 4.77832ZM3.00012 11.9995L9.32812 6.2595C9.51209 6.09253 9.75163 6.00003 10.0001 6C10.0001 6 10.0001 6 10.0001 6H20.0001C20.2653 6 20.5196 6.10536 20.7072 6.29289C20.8947 6.48043 21.0001 6.73478 21.0001 7V17C21.0001 17.2652 20.8947 17.5196 20.7072 17.7071C20.5196 17.8946 20.2653 18 20.0001 18H10.0001C10.0001 18 10.0001 18 10.0001 18C9.75163 18 9.51209 17.9075 9.32812 17.7405L8.65607 18.481L9.32799 17.7404L3.00012 11.9995Z" fill="black"/>
<path fill-rule="evenodd" clip-rule="evenodd" d="M11.2929 8.29289C11.6834 7.90237 12.3166 7.90237 12.7071 8.29289L18.7071 14.2929C19.0976 14.6834 19.0976 15.3166 18.7071 15.7071C18.3166 16.0976 17.6834 16.0976 17.2929 15.7071L11.2929 9.70711C10.9024 9.31658 10.9024 8.68342 11.2929 8.29289Z" fill="black"/>
<path fill-rule="evenodd" clip-rule="evenodd" d="M18.7071 8.29289C19.0976 8.68342 19.0976 9.31658 18.7071 9.70711L12.7071 15.7071C12.3166 16.0976 11.6834 16.0976 11.2929 15.7071C10.9024 15.3166 10.9024 14.6834 11.2929 14.2929L17.2929 8.29289C17.6834 7.90237 18.3166 7.90237 18.7071 8.29289Z" fill="black"/>
</svg>
