<svg width="24" height="24" viewBox="0 0 24 24" fill="none" xmlns="http://www.w3.org/2000/svg">
<path fill-rule="evenodd" clip-rule="evenodd" d="M4 3C3.44772 3 3 3.44772 3 4V20C3 20.5523 3.44772 21 4 21H20C20.5523 21 21 20.5523 21 20V4C21 3.44772 20.5523 3 20 3H4ZM1 4C1 2.34315 2.34315 1 4 1H20C21.6569 1 23 2.34315 23 4V20C23 21.6569 21.6569 23 20 23H4C2.34315 23 1 21.6569 1 20V4Z" fill="black"/>
<path fill-rule="evenodd" clip-rule="evenodd" d="M8 7C7.44772 7 7 7.44772 7 8C7 8.55228 7.44772 9 8 9C8.55228 9 9 8.55228 9 8C9 7.44772 8.55228 7 8 7ZM5 8C5 6.34315 6.34315 5 8 5C9.65685 5 11 6.34315 11 8C11 9.65685 9.65685 11 8 11C6.34315 11 5 9.65685 5 8Z" fill="black"/>
<path fill-rule="evenodd" clip-rule="evenodd" d="M8.70696 8.70696C9.09748 8.31643 9.73064 8.31643 10.1212 8.70696L12.7072 11.293C13.0977 11.6835 13.0977 12.3166 12.7072 12.7072C12.3166 13.0977 11.6835 13.0977 11.293 12.7072L8.70696 10.1212C8.31643 9.73064 8.31643 9.09748 8.70696 8.70696Z" fill="black"/>
<path fill-rule="evenodd" clip-rule="evenodd" d="M14.0929 14.0929C14.4835 13.7024 15.1166 13.7024 15.5072 14.0929L18.7072 17.2929C19.0977 17.6835 19.0977 18.3166 18.7072 18.7072C18.3166 19.0977 17.6835 19.0977 17.2929 18.7072L14.0929 15.5072C13.7024 15.1166 13.7024 14.4835 14.0929 14.0929Z" fill="black"/>
<path fill-rule="evenodd" clip-rule="evenodd" d="M8 15C7.44772 15 7 15.4477 7 16C7 16.5523 7.44772 17 8 17C8.55228 17 9 16.5523 9 16C9 15.4477 8.55228 15 8 15ZM5 16C5 14.3431 6.34315 13 8 13C9.65685 13 11 14.3431 11 16C11 17.6569 9.65685 19 8 19C6.34315 19 5 17.6569 5 16Z" fill="black"/>
<path fill-rule="evenodd" clip-rule="evenodd" d="M18.7072 5.29289C19.0977 5.68342 19.0977 6.31658 18.7072 6.70711L10.1212 15.2931C9.73065 15.6836 9.09748 15.6836 8.70696 15.2931C8.31643 14.9026 8.31643 14.2694 8.70696 13.8789L17.293 5.29289C17.6835 4.90237 18.3166 4.90237 18.7072 5.29289Z" fill="black"/>
</svg>
