<svg width="24" height="24" viewBox="0 0 24 24" fill="none" xmlns="http://www.w3.org/2000/svg">
<path fill-rule="evenodd" clip-rule="evenodd" d="M10.5028 2.40381C10.9582 2.14149 11.4746 2.00342 12.0001 2.00342C12.5257 2.00342 13.0421 2.14149 13.4975 2.40381C13.9529 2.66613 14.3314 3.04349 14.5951 3.4981C14.5962 3.49998 14.5973 3.50185 14.5984 3.50374L22.5962 17.4999C22.5965 17.5005 22.5969 17.5011 22.5972 17.5017C22.8597 17.9571 22.998 18.4734 22.9981 18.9991C22.9982 19.5255 22.8599 20.0426 22.5969 20.4985C22.334 20.9545 21.9557 21.3333 21.5001 21.5968C21.0445 21.8603 20.5275 21.9993 20.0012 21.9999L20.0001 21.9999H4.00015L3.99912 21.9999C3.47277 21.9993 2.95583 21.8603 2.5002 21.5968C2.04457 21.3333 1.66629 20.9545 1.40335 20.4985C1.14041 20.0426 1.00206 19.5255 1.0022 18.9991C1.00233 18.4735 1.14054 17.9572 1.40295 17.5019C1.40334 17.5012 1.40373 17.5006 1.40412 17.4999L9.40191 3.50374C9.40298 3.50185 9.40406 3.49998 9.40515 3.4981C9.66886 3.04349 10.0474 2.66613 10.5028 2.40381ZM12.0001 4.00342C11.825 4.00342 11.6528 4.04944 11.501 4.13688C11.35 4.22387 11.2244 4.34881 11.1365 4.4993L3.13839 18.496C3.13765 18.4973 3.13691 18.4986 3.13617 18.4999C3.04845 18.6518 3.00224 18.8242 3.0022 18.9996C3.00215 19.1751 3.04827 19.3474 3.13592 19.4994C3.22356 19.6514 3.34966 19.7777 3.50153 19.8655C3.65341 19.9534 3.82572 19.9997 4.00117 19.9999H19.9991C20.1746 19.9997 20.3469 19.9534 20.4988 19.8655C20.6506 19.7777 20.7767 19.6514 20.8644 19.4994C20.952 19.3474 20.9981 19.1751 20.9981 18.9996C20.9981 18.8242 20.9518 18.6518 20.8641 18.4999L20.863 18.498L12.8638 4.4993C12.7759 4.34881 12.6503 4.22387 12.4993 4.13688C12.3475 4.04944 12.1753 4.00342 12.0001 4.00342Z" fill="black"/>
</svg>
