<svg width="24" height="24" viewBox="0 0 24 24" fill="none" xmlns="http://www.w3.org/2000/svg">
<path fill-rule="evenodd" clip-rule="evenodd" d="M7 3C6.44772 3 6 3.44772 6 4V20C6 20.5523 6.44772 21 7 21H17C17.5523 21 18 20.5523 18 20V4C18 3.44772 17.5523 3 17 3H7ZM4 4C4 2.34315 5.34315 1 7 1H17C18.6569 1 20 2.34315 20 4V20C20 21.6569 18.6569 23 17 23H7C5.34315 23 4 21.6569 4 20V4Z" fill="black"/>
<path fill-rule="evenodd" clip-rule="evenodd" d="M13.2217 7.16809C13.6813 7.47447 13.8054 8.09534 13.499 8.55485L11.8686 11.0001H14C14.3688 11.0001 14.7077 11.2031 14.8817 11.5283C15.0557 11.8534 15.0366 12.248 14.832 12.5549L12.165 16.5549C11.8586 17.0144 11.2378 17.1385 10.7783 16.8321C10.3187 16.5257 10.1946 15.9049 10.501 15.4454L12.1314 13.0001H10C9.6312 13.0001 9.29233 12.7971 9.11831 12.4719C8.9443 12.1468 8.96339 11.7522 9.16798 11.4454L11.835 7.44536C12.1414 6.98585 12.7622 6.86171 13.2217 7.16809Z" fill="black"/>
</svg>
