<svg width="24" height="24" viewBox="0 0 24 24" fill="none" xmlns="http://www.w3.org/2000/svg">
<path fill-rule="evenodd" clip-rule="evenodd" d="M1.29289 1.29289C1.68342 0.902369 2.31658 0.902369 2.70711 1.29289L22.7071 21.2929C23.0976 21.6834 23.0976 22.3166 22.7071 22.7071C22.3166 23.0976 21.6834 23.0976 21.2929 22.7071L1.29289 2.70711C0.902369 2.31658 0.902369 1.68342 1.29289 1.29289Z" fill="black"/>
<path fill-rule="evenodd" clip-rule="evenodd" d="M6.67032 5.32272C6.92398 5.8133 6.73192 6.41663 6.24133 6.67029C5.0467 7.28798 4.09423 8.28911 3.53678 9.513C2.97933 10.7369 2.84923 12.1126 3.16736 13.4193C3.48548 14.726 4.23338 15.8879 5.29103 16.7186C6.34868 17.5493 7.65475 18.0006 8.99961 18H17.5008C17.8452 18.0003 18.1877 17.9497 18.5173 17.8499C19.0459 17.6899 19.6041 17.9887 19.7641 18.5173C19.9242 19.0459 19.6254 19.6041 19.0968 19.7641C18.5788 19.9209 18.0405 20.0004 17.4993 20H9.00046C9.00032 20 9.00018 20 9.00004 20C7.20703 20.0007 5.46577 19.399 4.05568 18.2915C2.64548 17.1839 1.64828 15.6346 1.22412 13.8924C0.79995 12.1501 0.97342 10.3159 1.71669 8.684C2.45995 7.05214 3.72991 5.7173 5.32275 4.89372C5.81333 4.64006 6.41666 4.83213 6.67032 5.32272Z" fill="black"/>
<path fill-rule="evenodd" clip-rule="evenodd" d="M9.01034 4.92662C9.08953 4.38005 9.59682 4.00116 10.1434 4.08035C11.655 4.29936 13.0724 4.94608 14.2285 5.94424C15.193 6.77704 15.9421 7.8255 16.4177 9.00001H17.4998C17.4999 9.00001 17.4999 9.00001 17.5 9.00001C18.4361 8.99987 19.3567 9.23864 20.1748 9.69374C20.9929 10.1489 21.6812 10.8053 22.1747 11.6008C22.6682 12.3963 22.9504 13.3047 22.9947 14.2398C23.039 15.1749 22.8439 16.1058 22.4278 16.9445C22.1824 17.4392 21.5823 17.6413 21.0876 17.3958C20.5928 17.1504 20.3907 16.5503 20.6362 16.0556C20.901 15.5219 21.0251 14.9295 20.997 14.3344C20.9688 13.7393 20.7892 13.1613 20.4751 12.6551C20.1611 12.1488 19.723 11.7311 19.2024 11.4415C18.6819 11.1518 18.0959 10.9999 17.5002 11L17.5 10V11H15.71C15.268 11 14.8783 10.7098 14.7518 10.2862C14.4239 9.18822 13.7888 8.20693 12.9214 7.45806C12.0541 6.7092 10.9907 6.22399 9.85662 6.05968C9.31004 5.98049 8.93115 5.4732 9.01034 4.92662Z" fill="black"/>
</svg>
