<svg width="24" height="24" viewBox="0 0 24 24" fill="none" xmlns="http://www.w3.org/2000/svg">
<path fill-rule="evenodd" clip-rule="evenodd" d="M13.8787 7.87868C14.4413 7.31607 15.2043 7 16 7C16.7957 7 17.5587 7.31607 18.1213 7.87868C18.6839 8.44129 19 9.20435 19 10V12.5C19 13.0523 18.5523 13.5 18 13.5C17.4477 13.5 17 13.0523 17 12.5V10C17 9.73478 16.8946 9.48043 16.7071 9.29289C16.5196 9.10536 16.2652 9 16 9C15.7348 9 15.4804 9.10536 15.2929 9.29289C15.1054 9.48043 15 9.73478 15 10V11.4C15 11.9523 14.5523 12.4 14 12.4C13.4477 12.4 13 11.9523 13 11.4V10C13 9.20435 13.3161 8.44129 13.8787 7.87868Z" fill="black"/>
<path fill-rule="evenodd" clip-rule="evenodd" d="M9.87868 6.87868C10.4413 6.31607 11.2044 6 12 6C12.7956 6 13.5587 6.31607 14.1213 6.87868C14.6839 7.44129 15 8.20435 15 9V11C15 11.5523 14.5523 12 14 12C13.4477 12 13 11.5523 13 11V9C13 8.73478 12.8946 8.48043 12.7071 8.29289C12.5196 8.10536 12.2652 8 12 8C11.7348 8 11.4804 8.10536 11.2929 8.29289C11.1054 8.48043 11 8.73478 11 9V11C11 11.5523 10.5523 12 10 12C9.44772 12 9 11.5523 9 11V9C9 8.20435 9.31607 7.44129 9.87868 6.87868Z" fill="black"/>
<path fill-rule="evenodd" clip-rule="evenodd" d="M5.87868 2.87868C6.44129 2.31607 7.20435 2 8 2C8.79565 2 9.55871 2.31607 10.1213 2.87868C10.6839 3.44129 11 4.20435 11 5V10.5C11 11.0523 10.5523 11.5 10 11.5C9.44772 11.5 9 11.0523 9 10.5V5C9 4.73478 8.89464 4.48043 8.70711 4.29289C8.51957 4.10536 8.26522 4 8 4C7.73478 4 7.48043 4.10536 7.29289 4.29289C7.10536 4.48043 7 4.73478 7 5V14C7 14.5523 6.55228 15 6 15C5.44772 15 5 14.5523 5 14V5C5 4.20435 5.31607 3.44129 5.87868 2.87868Z" fill="black"/>
<path fill-rule="evenodd" clip-rule="evenodd" d="M17.8785 4.87868C18.4411 4.31607 19.2042 4 19.9999 4C20.7955 4 21.5586 4.31607 22.1212 4.87868C22.6838 5.44129 22.9999 6.20435 22.9999 7V14C22.9999 16.3869 22.0516 18.6761 20.3638 20.364C18.676 22.0518 16.3868 23 13.9999 23H11.9999C8.93105 23 6.97907 22.0322 5.30514 20.3695C5.30434 20.3687 5.30355 20.3679 5.30275 20.3671L1.70275 16.7671C1.69074 16.7551 1.67903 16.7428 1.66764 16.7302C1.15155 16.1586 0.875026 15.4104 0.895331 14.6406C0.915637 13.8707 1.23121 13.1382 1.77673 12.5946C2.32224 12.051 3.0559 11.738 3.8258 11.7205C4.59571 11.7029 5.34289 11.982 5.91264 12.5002C5.92434 12.5108 5.93579 12.5217 5.94697 12.5329L7.70697 14.2929C8.09749 14.6834 8.09749 15.3166 7.70697 15.7071C7.31644 16.0976 6.68328 16.0976 6.29275 15.7071L4.5524 13.9668C4.36442 13.8024 4.12154 13.7142 3.87146 13.7199C3.61482 13.7258 3.37027 13.8301 3.18843 14.0113C3.0066 14.1925 2.9014 14.4367 2.89464 14.6933C2.88805 14.9429 2.97506 15.1856 3.13809 15.374L6.71458 18.9505C6.71498 18.9509 6.71538 18.9513 6.71578 18.9517C8.02153 20.2483 9.46944 21 11.9999 21H13.9999C15.8564 21 17.6369 20.2625 18.9496 18.9497C20.2624 17.637 20.9999 15.8565 20.9999 14V7C20.9999 6.73478 20.8945 6.48043 20.707 6.29289C20.5194 6.10536 20.2651 6 19.9999 6C19.7346 6 19.4803 6.10536 19.2928 6.29289C19.1052 6.48043 18.9999 6.73478 18.9999 7V12C18.9999 12.5523 18.5521 13 17.9999 13C17.4476 13 16.9999 12.5523 16.9999 12V7C16.9999 6.20435 17.3159 5.44129 17.8785 4.87868Z" fill="black"/>
</svg>
