<svg width="24" height="24" viewBox="0 0 24 24" fill="none" xmlns="http://www.w3.org/2000/svg">
<path fill-rule="evenodd" clip-rule="evenodd" d="M10.049 8.09211C8.95341 7.89789 7.82538 8.01216 6.79097 8.42213C5.75657 8.83211 4.85654 9.52165 4.19147 10.4137C3.5264 11.3057 3.12248 12.3652 3.02485 13.4736C2.92722 14.582 3.13973 15.6957 3.63863 16.6902C4.13753 17.6848 4.90317 18.5211 5.84998 19.1055C6.79672 19.69 7.88732 19.9997 8.99992 20C9 20 9.00009 20 9.00017 20H17.4999C17.9595 20 18.4147 19.9095 18.8393 19.7336C19.2639 19.5577 19.6498 19.2999 19.9748 18.9749C20.2998 18.6499 20.5576 18.264 20.7335 17.8394C20.9094 17.4148 20.9999 16.9596 20.9999 16.5C20.9999 16.0404 20.9094 15.5853 20.7335 15.1606C20.5576 14.736 20.2998 14.3501 19.9748 14.0251C19.6498 13.7001 19.2639 13.4423 18.8393 13.2664C18.4147 13.0905 17.9595 13 17.4999 13H15.7099C15.2677 13 14.878 12.7095 14.7516 12.2857C14.4337 11.2194 13.8255 10.2625 12.9951 9.52195C12.1646 8.78139 11.1446 8.28633 10.049 8.09211ZM6.05406 6.56284C7.43327 6.01621 8.93731 5.86386 10.3981 6.12282C11.8589 6.38178 13.2189 7.04185 14.3262 8.02926C15.2446 8.84821 15.959 9.86557 16.4179 11H17.4999C18.2222 11 18.9374 11.1423 19.6047 11.4187C20.272 11.6951 20.8783 12.1002 21.389 12.6109C21.8997 13.1216 22.3049 13.728 22.5813 14.3952C22.8577 15.0625 22.9999 15.7777 22.9999 16.5C22.9999 17.2223 22.8577 17.9375 22.5813 18.6048C22.3049 19.2721 21.8997 19.8784 21.389 20.3891C20.8783 20.8998 20.272 21.3049 19.6047 21.5813C18.9374 21.8577 18.2222 22 17.4999 22H8.99966C7.51608 21.9996 6.06182 21.5867 4.7994 20.8074C3.53699 20.0281 2.51614 18.9131 1.85094 17.587C1.18574 16.2609 0.902396 14.7759 1.03257 13.2981C1.16274 11.8202 1.70129 10.4077 2.58806 9.21827C3.47482 8.02887 4.67485 7.10948 6.05406 6.56284Z" fill="black"/>
<path fill-rule="evenodd" clip-rule="evenodd" d="M11.1971 2.00922C12.662 1.94078 14.1071 2.36957 15.2975 3.22594C16.2787 3.93174 17.0394 4.89381 17.501 6H19C20.0609 6 21.0783 6.42143 21.8284 7.17157C22.5786 7.92172 23 8.93913 23 10C23 10.5523 22.5523 11 22 11C21.4477 11 21 10.5523 21 10C21 9.46957 20.7893 8.96086 20.4142 8.58579C20.0391 8.21071 19.5304 8 19 8H16.793C16.346 8 15.9533 7.70335 15.8311 7.27338C15.5535 6.29666 14.9539 5.44246 14.1296 4.84951C13.3053 4.25655 12.3048 3.95966 11.2905 4.00705C10.2762 4.05443 9.3077 4.44332 8.5423 5.11055C7.77689 5.77777 7.25952 6.68416 7.0742 7.6825C6.97341 8.22551 6.4515 8.584 5.90849 8.4832C5.36548 8.38241 5.007 7.8605 5.10779 7.31749C5.37543 5.87563 6.12264 4.56659 7.22808 3.60295C8.33352 2.63931 9.73226 2.07766 11.1971 2.00922Z" fill="black"/>
</svg>
