<svg width="24" height="24" viewBox="0 0 24 24" fill="none" xmlns="http://www.w3.org/2000/svg">
<path fill-rule="evenodd" clip-rule="evenodd" d="M18.6896 3.35201C17.7165 2.93641 16.4884 2.87056 15.1684 3.23886C13.8489 3.60703 12.544 4.38147 11.4628 5.46272C10.3815 6.54398 9.60709 7.84881 9.23893 9.16834C8.87063 10.4884 8.93647 11.7164 9.35207 12.6895C9.76259 13.6507 10.5102 14.3592 11.5078 14.724C12.2578 14.9982 13.1418 15.0739 14.0893 14.9208C13.9635 14.2717 13.9884 13.5837 14.1473 12.9068C14.4096 11.7896 15.0278 10.7273 15.8776 9.87751C16.7273 9.02777 17.7897 8.40959 18.9069 8.14728C19.5838 7.98834 20.2718 7.96341 20.9208 8.08921C21.074 7.14173 20.9983 6.25779 20.724 5.50773C20.3592 4.51012 19.6508 3.76253 18.6896 3.35201ZM14.6309 1.31244C16.3088 0.844289 18.0131 0.88832 19.4751 1.51274C20.949 2.14225 22.0499 3.30991 22.6024 4.8209C23.1503 6.31944 23.1178 8.03603 22.5822 9.70547C22.4901 9.9925 22.2735 10.2227 21.9925 10.332C21.7116 10.4412 21.3964 10.4179 21.1345 10.2686C20.6979 10.0195 20.0841 9.92526 19.364 10.0943C18.6435 10.2635 17.9043 10.6792 17.2918 11.2917C16.6792 11.9043 16.2636 12.6434 16.0944 13.364C15.9253 14.084 16.0196 14.6978 16.2686 15.1345C16.418 15.3963 16.4413 15.7116 16.332 15.9925C16.2227 16.2734 15.9926 16.4901 15.7055 16.5822C14.0361 17.1178 12.3195 17.1503 10.821 16.6023C9.30997 16.0498 8.14231 14.949 7.5128 13.475C6.88838 12.013 6.84435 10.3087 7.3125 8.63085C7.78079 6.95247 8.74495 5.35213 10.0486 4.04851C11.3522 2.74489 12.9525 1.78073 14.6309 1.31244Z" fill="black"/>
<path fill-rule="evenodd" clip-rule="evenodd" d="M8.99711 12.0029C9.38764 12.3934 9.38764 13.0266 8.99711 13.4171L6.39711 16.0171C6.08233 16.3319 5.59737 16.4007 5.20746 16.1859C5.01694 16.0809 4.80586 16.0187 4.58888 16.0034C4.37189 15.9881 4.15418 16.0203 3.95084 16.0975C3.7475 16.1748 3.5634 16.2953 3.4113 16.4509C3.2592 16.6064 3.14274 16.7931 3.07 16.9981C2.99726 17.2031 2.96997 17.4215 2.99004 17.6381C3.0101 17.8546 3.07703 18.0643 3.18619 18.2524C3.29535 18.4406 3.44412 18.6027 3.6222 18.7277C3.80027 18.8526 4.00339 18.9373 4.21746 18.9759C4.62198 19.0488 4.94066 19.3619 5.02081 19.765C5.06282 19.9763 5.14984 20.1761 5.27596 20.3507C5.40208 20.5254 5.56433 20.6708 5.75169 20.7771C5.93905 20.8834 6.14711 20.9481 6.36171 20.9669C6.57632 20.9856 6.79244 20.9578 6.99537 20.8856C7.1983 20.8133 7.38328 20.6981 7.53772 20.5479C7.69217 20.3978 7.81245 20.2161 7.89039 20.0153C7.96833 19.8144 8.00211 19.5992 7.98941 19.3841C7.97671 19.1691 7.91784 18.9593 7.81681 18.769C7.6107 18.3809 7.68215 17.9037 7.9929 17.5929L10.5829 15.0029C10.9734 14.6124 11.6066 14.6124 11.9971 15.0029C12.3876 15.3934 12.3876 16.0266 11.9971 16.4171L9.86739 18.5469C9.93165 18.7812 9.97153 19.0223 9.98593 19.2662C10.0156 19.768 9.93676 20.2703 9.75489 20.7389C9.57303 21.2075 9.29236 21.6314 8.93199 21.9818C8.57163 22.3322 8.14001 22.6009 7.6665 22.7696C7.193 22.9383 6.68872 23.003 6.18797 22.9593C5.68722 22.9156 5.20175 22.7646 4.76459 22.5165C4.32743 22.2685 3.94883 21.9291 3.65455 21.5216C3.48651 21.2889 3.34822 21.0371 3.24225 20.7722C2.97088 20.6692 2.71258 20.5326 2.47361 20.365C2.0581 20.0735 1.71096 19.6951 1.45625 19.2561C1.20155 18.8171 1.04538 18.3279 0.998562 17.8225C0.951748 17.3171 1.01541 16.8076 1.18515 16.3293C1.35488 15.8509 1.62661 15.4152 1.98151 15.0524C2.33641 14.6895 2.76598 14.4082 3.24044 14.2279C3.71489 14.0477 4.22289 13.9727 4.72919 14.0083C4.97399 14.0255 5.21556 14.0684 5.45005 14.1358L7.5829 12.0029C7.97342 11.6124 8.60659 11.6124 8.99711 12.0029Z" fill="black"/>
</svg>
