<svg width="24" height="24" viewBox="0 0 24 24" fill="none" xmlns="http://www.w3.org/2000/svg">
<path fill-rule="evenodd" clip-rule="evenodd" d="M5.63604 5.63604C7.32387 3.94821 9.61305 3 12 3C14.3869 3 16.6761 3.94821 18.364 5.63604C20.0518 7.32387 21 9.61305 21 12C21 14.3869 20.0518 16.6761 18.364 18.364C16.6761 20.0518 14.3869 21 12 21C9.61305 21 7.32387 20.0518 5.63604 18.364C3.94821 16.6761 3 14.3869 3 12C3 9.61305 3.94821 7.32387 5.63604 5.63604ZM12 5C10.1435 5 8.36301 5.7375 7.05025 7.05025C5.7375 8.36301 5 10.1435 5 12C5 13.8565 5.7375 15.637 7.05025 16.9497C8.36301 18.2625 10.1435 19 12 19C13.8565 19 15.637 18.2625 16.9497 16.9497C18.2625 15.637 19 13.8565 19 12C19 10.1435 18.2625 8.36301 16.9497 7.05025C15.637 5.7375 13.8565 5 12 5Z" fill="black"/>
<path fill-rule="evenodd" clip-rule="evenodd" d="M9.87868 9.87868C10.4413 9.31607 11.2043 9 12 9C12.7957 9 13.5587 9.31607 14.1213 9.87868C14.6839 10.4413 15 11.2043 15 12C15 12.7957 14.6839 13.5587 14.1213 14.1213C13.5587 14.6839 12.7957 15 12 15C11.2043 15 10.4413 14.6839 9.87868 14.1213C9.31607 13.5587 9 12.7957 9 12C9 11.2043 9.31607 10.4413 9.87868 9.87868ZM12 11C11.7348 11 11.4804 11.1054 11.2929 11.2929C11.1054 11.4804 11 11.7348 11 12C11 12.2652 11.1054 12.5196 11.2929 12.7071C11.4804 12.8946 11.7348 13 12 13C12.2652 13 12.5196 12.8946 12.7071 12.7071C12.8946 12.5196 13 12.2652 13 12C13 11.7348 12.8946 11.4804 12.7071 11.2929C12.5196 11.1054 12.2652 11 12 11Z" fill="black"/>
<path fill-rule="evenodd" clip-rule="evenodd" d="M12 1C12.5523 1 13 1.44772 13 2V4C13 4.55228 12.5523 5 12 5C11.4477 5 11 4.55228 11 4V2C11 1.44772 11.4477 1 12 1Z" fill="black"/>
<path fill-rule="evenodd" clip-rule="evenodd" d="M12 19C12.5523 19 13 19.4477 13 20V22C13 22.5523 12.5523 23 12 23C11.4477 23 11 22.5523 11 22V20C11 19.4477 11.4477 19 12 19Z" fill="black"/>
<path fill-rule="evenodd" clip-rule="evenodd" d="M15.4995 18.0643C15.9776 17.7879 16.5893 17.9514 16.8657 18.4296L17.8657 20.1596C18.1421 20.6377 17.9785 21.2494 17.5004 21.5258C17.0222 21.8022 16.4105 21.6386 16.1342 21.1605L15.1342 19.4305C14.8578 18.9523 15.0213 18.3407 15.4995 18.0643Z" fill="black"/>
<path fill-rule="evenodd" clip-rule="evenodd" d="M6.50002 2.47399C6.97834 2.1979 7.58992 2.36185 7.866 2.84017L11.866 9.77017C12.1421 10.2485 11.9781 10.8601 11.4998 11.1362C11.0215 11.4122 10.4099 11.2483 10.1338 10.77L6.13384 3.83997C5.85775 3.36165 6.0217 2.75008 6.50002 2.47399Z" fill="black"/>
<path fill-rule="evenodd" clip-rule="evenodd" d="M18.0643 15.4995C18.3407 15.0214 18.9524 14.8578 19.4305 15.1342L21.1605 16.1342C21.6387 16.4106 21.8023 17.0223 21.5259 17.5004C21.2495 17.9786 20.6378 18.1421 20.1597 17.8658L18.4297 16.8658C17.9515 16.5894 17.7879 15.9777 18.0643 15.4995Z" fill="black"/>
<path fill-rule="evenodd" clip-rule="evenodd" d="M2.47424 6.49954C2.75063 6.02139 3.3623 5.85783 3.84045 6.13421L5.57045 7.13421C6.04861 7.4106 6.21217 8.02228 5.93578 8.50043C5.65939 8.97858 5.04772 9.14214 4.56957 8.86575L2.83957 7.86575C2.36142 7.58936 2.19785 6.97769 2.47424 6.49954Z" fill="black"/>
<path fill-rule="evenodd" clip-rule="evenodd" d="M13 12C13 11.4477 13.4477 11 14 11H22C22.5523 11 23 11.4477 23 12C23 12.5523 22.5523 13 22 13H14C13.4477 13 13 12.5523 13 12Z" fill="black"/>
<path fill-rule="evenodd" clip-rule="evenodd" d="M1 12C1 11.4477 1.44772 11 2 11H4C4.55228 11 5 11.4477 5 12C5 12.5523 4.55228 13 4 13H2C1.44772 13 1 12.5523 1 12Z" fill="black"/>
<path fill-rule="evenodd" clip-rule="evenodd" d="M21.5259 6.49954C21.8023 6.97769 21.6387 7.58936 21.1605 7.86575L19.4305 8.86575C18.9524 9.14214 18.3407 8.97858 18.0643 8.50043C17.7879 8.02228 17.9515 7.4106 18.4297 7.13421L20.1597 6.13421C20.6378 5.85783 21.2495 6.02139 21.5259 6.49954Z" fill="black"/>
<path fill-rule="evenodd" clip-rule="evenodd" d="M5.93578 15.4995C6.21217 15.9777 6.04861 16.5894 5.57045 16.8658L3.84045 17.8658C3.3623 18.1421 2.75063 17.9786 2.47424 17.5004C2.19785 17.0223 2.36142 16.4106 2.83957 16.1342L4.56957 15.1342C5.04772 14.8578 5.65939 15.0214 5.93578 15.4995Z" fill="black"/>
<path fill-rule="evenodd" clip-rule="evenodd" d="M17.5004 2.4743C17.9785 2.75069 18.1421 3.36236 17.8657 3.84052L16.8657 5.57052C16.5893 6.04867 15.9776 6.21223 15.4995 5.93584C15.0213 5.65945 14.8578 5.04778 15.1342 4.56963L16.1342 2.83963C16.4105 2.36148 17.0222 2.19791 17.5004 2.4743Z" fill="black"/>
<path fill-rule="evenodd" clip-rule="evenodd" d="M11.4998 12.8639C11.9781 13.14 12.1421 13.7516 11.866 14.2299L7.866 21.1599C7.58992 21.6383 6.97834 21.8022 6.50002 21.5261C6.0217 21.25 5.85775 20.6384 6.13384 20.1601L10.1338 13.2301C10.4099 12.7518 11.0215 12.5879 11.4998 12.8639Z" fill="black"/>
</svg>
