<svg width="24" height="24" viewBox="0 0 24 24" fill="none" xmlns="http://www.w3.org/2000/svg">
<path fill-rule="evenodd" clip-rule="evenodd" d="M17.3849 4.94183C17.5574 5.46649 17.2719 6.03165 16.7472 6.20415L3.25396 10.6406C3.23867 10.6466 3.22594 10.6578 3.21804 10.6723C3.20987 10.6872 3.20744 10.7046 3.2112 10.7213L3.73554 12.8205L9.85633 11.5152C10.3965 11.4 10.9277 11.7445 11.0429 12.2846C11.1581 12.8247 10.8136 13.356 10.2735 13.4712L4.09699 14.7884C4.09635 14.7886 4.0957 14.7887 4.09505 14.7888C3.59893 14.896 3.08054 14.8038 2.65175 14.5321C2.22524 14.2619 1.92144 13.8357 1.805 13.3447L1.26971 11.2015C1.26943 11.2004 1.26916 11.1993 1.26888 11.1981C1.2687 11.1974 1.26852 11.1967 1.26835 11.196C1.14621 10.6948 1.21557 10.1662 1.46284 9.71348C1.71011 9.2608 2.11747 8.91676 2.60514 8.74873C2.60961 8.74719 2.61408 8.74568 2.61857 8.74421L16.1226 4.30421C16.6472 4.13171 17.2124 4.41718 17.3849 4.94183Z" fill="black"/>
<path fill-rule="evenodd" clip-rule="evenodd" d="M18.87 10.6144C18.9852 11.1545 18.6408 11.6858 18.1006 11.801L13.7686 12.725C13.2285 12.8402 12.6972 12.4957 12.582 11.9556C12.4668 11.4154 12.8113 10.8842 13.3514 10.769L17.6834 9.84496C18.2236 9.72975 18.7548 10.0742 18.87 10.6144Z" fill="black"/>
<path fill-rule="evenodd" clip-rule="evenodd" d="M12.4478 13.8956C12.9418 13.6486 13.5424 13.8488 13.7894 14.3428L16.8944 20.5528C17.1414 21.0468 16.9412 21.6475 16.4472 21.8944C15.9532 22.1414 15.3526 21.9412 15.1056 21.4472L12.0006 15.2372C11.7536 14.7432 11.9538 14.1426 12.4478 13.8956Z" fill="black"/>
<path fill-rule="evenodd" clip-rule="evenodd" d="M18.7879 2.27285C19.3021 2.14457 19.8463 2.22565 20.3008 2.49827C20.7553 2.7709 21.083 3.21278 21.2119 3.72685L22.727 9.78714C22.727 9.78729 22.7271 9.78743 22.7271 9.78758C22.8558 10.302 22.775 10.8464 22.5024 11.3013C22.2297 11.7562 21.7875 12.0842 21.273 12.2131L20.1823 12.4853C20.1823 12.4853 20.1822 12.4853 20.1822 12.4853C20.1821 12.4853 20.1821 12.4854 20.1821 12.4854C19.4104 12.6781 18.5937 12.5565 17.9117 12.1472C17.2295 11.738 16.7379 11.0745 16.5448 10.3028L17.5149 10.0601L16.5448 10.3027L15.5148 6.18265L16.4849 5.94012L15.5148 6.18251C15.3219 5.41074 15.4435 4.59398 15.8528 3.91185C16.2621 3.22971 16.9256 2.73806 17.6973 2.54501L18.7879 2.27285ZM18.4851 9.81744C18.4851 9.81749 18.4851 9.81754 18.4851 9.81758C18.5495 10.0748 18.7133 10.2959 18.9407 10.4323C19.168 10.5687 19.4403 10.6092 19.6976 10.5449L20.7869 10.2731L19.272 4.21338L18.1826 4.48523C18.1825 4.48525 18.1824 4.48527 18.1823 4.4853C17.9252 4.5497 17.7042 4.71354 17.5678 4.94084C17.4314 5.16817 17.3909 5.44037 17.4551 5.69758" fill="black"/>
<path fill-rule="evenodd" clip-rule="evenodd" d="M5.91542 7.66291C6.45121 7.52896 6.99415 7.85472 7.12809 8.39051L8.24209 12.8465C8.37604 13.3823 8.05028 13.9252 7.51449 14.0592C6.97869 14.1931 6.43576 13.8674 6.30181 13.3316L5.18781 8.87558C5.05386 8.33979 5.37962 7.79686 5.91542 7.66291Z" fill="black"/>
<path fill-rule="evenodd" clip-rule="evenodd" d="M11.5522 13.8956C12.0462 14.1426 12.2464 14.7432 11.9994 15.2372L8.8944 21.4472C8.64741 21.9412 8.04674 22.1414 7.55276 21.8944C7.05878 21.6475 6.85856 21.0468 7.10555 20.5528L10.2105 14.3428C10.4575 13.8488 11.0582 13.6486 11.5522 13.8956Z" fill="black"/>
<path fill-rule="evenodd" clip-rule="evenodd" d="M12 12C11.4477 12 11 12.4477 11 13C11 13.5523 11.4477 14 12 14C12.5523 14 13 13.5523 13 13C13 12.4477 12.5523 12 12 12ZM9 13C9 11.3431 10.3431 10 12 10C13.6569 10 15 11.3431 15 13C15 14.6569 13.6569 16 12 16C10.3431 16 9 14.6569 9 13Z" fill="black"/>
</svg>
