<svg width="24" height="24" viewBox="0 0 24 24" fill="none" xmlns="http://www.w3.org/2000/svg">
<path fill-rule="evenodd" clip-rule="evenodd" d="M18.2929 2.29289C18.6834 1.90237 19.3166 1.90237 19.7071 2.29289L20.7071 3.29289C21.0976 3.68342 21.0976 4.31658 20.7071 4.70711C20.3166 5.09763 19.6834 5.09763 19.2929 4.70711L18.2929 3.70711C17.9024 3.31658 17.9024 2.68342 18.2929 2.29289Z" fill="black"/>
<path fill-rule="evenodd" clip-rule="evenodd" d="M20.7071 1.29289C21.0976 1.68342 21.0976 2.31658 20.7071 2.70711L16.2071 7.20711C15.8166 7.59763 15.1834 7.59763 14.7929 7.20711C14.4024 6.81658 14.4024 6.18342 14.7929 5.79289L19.2929 1.29289C19.6834 0.902369 20.3166 0.902369 20.7071 1.29289Z" fill="black"/>
<path fill-rule="evenodd" clip-rule="evenodd" d="M20 7C20.5523 7 21 7.44772 21 8V21C21 21.5304 20.7893 22.0391 20.4142 22.4142C20.0391 22.7893 19.5304 23 19 23H6.5C5.57174 23 4.6815 22.6313 4.02513 21.9749C3.36875 21.3185 3 20.4283 3 19.5C3 18.5717 3.36875 17.6815 4.02513 17.0251C4.6815 16.3687 5.57174 16 6.5 16H19V8C19 7.44772 19.4477 7 20 7ZM19 18H6.5C6.10218 18 5.72064 18.158 5.43934 18.4393C5.15804 18.7206 5 19.1022 5 19.5C5 19.8978 5.15804 20.2794 5.43934 20.5607C5.72064 20.842 6.10218 21 6.5 21H19V18Z" fill="black"/>
<path fill-rule="evenodd" clip-rule="evenodd" d="M6.5 3C6.10218 3 5.72064 3.15804 5.43934 3.43934C5.15804 3.72064 5 4.10218 5 4.5V19.5C5 20.0523 4.55228 20.5 4 20.5C3.44772 20.5 3 20.0523 3 19.5V4.5C3 3.57174 3.36875 2.6815 4.02513 2.02513C4.6815 1.36875 5.57174 1 6.5 1H14C14.5523 1 15 1.44772 15 2C15 2.55228 14.5523 3 14 3H6.5Z" fill="black"/>
<path fill-rule="evenodd" clip-rule="evenodd" d="M14 7C13.4477 7 13 7.44772 13 8C13 8.55228 13.4477 9 14 9C14.5523 9 15 8.55228 15 8C15 7.44772 14.5523 7 14 7ZM11 8C11 6.34315 12.3431 5 14 5C15.6569 5 17 6.34315 17 8C17 9.65685 15.6569 11 14 11C12.3431 11 11 9.65685 11 8Z" fill="black"/>
</svg>
