<svg width="24" height="24" viewBox="0 0 24 24" fill="none" xmlns="http://www.w3.org/2000/svg">
<path fill-rule="evenodd" clip-rule="evenodd" d="M9 11C9 10.4477 9.44772 10 10 10H10.01C10.5623 10 11.01 10.4477 11.01 11C11.01 11.5523 10.5623 12 10.01 12H10C9.44772 12 9 11.5523 9 11Z" fill="black"/>
<path fill-rule="evenodd" clip-rule="evenodd" d="M13 6C13 5.44772 13.4477 5 14 5H14.01C14.5623 5 15.01 5.44772 15.01 6C15.01 6.55228 14.5623 7 14.01 7H14C13.4477 7 13 6.55228 13 6Z" fill="black"/>
<path fill-rule="evenodd" clip-rule="evenodd" d="M17 6C17 5.44772 17.4477 5 18 5H18.01C18.5623 5 19.01 5.44772 19.01 6C19.01 6.55228 18.5623 7 18.01 7H18C17.4477 7 17 6.55228 17 6Z" fill="black"/>
<path fill-rule="evenodd" clip-rule="evenodd" d="M5.5 13.1C5.5 12.5477 5.94772 12.1 6.5 12.1H6.51C7.06228 12.1 7.51 12.5477 7.51 13.1C7.51 13.6523 7.06228 14.1 6.51 14.1H6.5C5.94772 14.1 5.5 13.6523 5.5 13.1Z" fill="black"/>
<path fill-rule="evenodd" clip-rule="evenodd" d="M11.2071 4.2422C11.0784 4.4352 11 4.67498 11 5C11 9.35753 11.9685 12.15 13.082 13.8203C14.2186 15.5251 15.4461 16 16 16C16.5539 16 17.7814 15.5251 18.9179 13.8203C20.0315 12.15 21 9.35753 21 5C21 4.67498 20.9216 4.4352 20.7929 4.2422C20.6601 4.04294 20.4342 3.83511 20.0528 3.64443C19.2617 3.24891 17.9489 3 16 3C14.0511 3 12.7383 3.24891 11.9472 3.64443C11.5658 3.83511 11.3399 4.04294 11.2071 4.2422ZM11.0528 1.85557C12.2617 1.25109 13.9489 1 16 1C18.0511 1 19.7383 1.25109 20.9472 1.85557C21.5658 2.16489 22.0899 2.58206 22.4571 3.1328C22.8284 3.6898 23 4.32502 23 5C23 9.64247 21.9685 12.85 20.5821 14.9297C19.2186 16.9749 17.4461 18 16 18C14.5539 18 12.7814 16.9749 11.4179 14.9297C10.0315 12.85 9 9.64247 9 5C9 4.32502 9.17162 3.6898 9.54295 3.1328C9.91011 2.58206 10.4342 2.16489 11.0528 1.85557Z" fill="black"/>
<path fill-rule="evenodd" clip-rule="evenodd" d="M13.8929 9.19292C14.2834 8.80239 14.9166 8.80239 15.3071 9.19292C15.7166 9.60239 16.2834 9.60239 16.6929 9.19292C17.0834 8.80239 17.7166 8.80239 18.1071 9.19292C18.4976 9.58344 18.4976 10.2166 18.1071 10.6071C16.9166 11.7977 15.0834 11.7977 13.8929 10.6071C13.5023 10.2166 13.5023 9.58344 13.8929 9.19292Z" fill="black"/>
<path fill-rule="evenodd" clip-rule="evenodd" d="M11.0959 7.00944C11.1459 7.55946 10.7405 8.04587 10.1905 8.09587C9.29958 8.17686 8.14949 8.59458 6.48215 9.4762C4.78901 10.4454 3.78156 11.3218 3.29963 12.0594C3.0663 12.4166 2.97637 12.7103 2.96227 12.9482C2.94863 13.1785 3.00179 13.4208 3.1619 13.693C3.16332 13.6954 3.16474 13.6978 3.16615 13.7003C5.34423 17.4756 7.58777 19.412 9.39274 20.3034C11.2394 21.2153 12.5353 21.0073 12.9929 20.738C13 20.7339 13.0071 20.7298 13.0143 20.7258C13.4728 20.4711 14.4 19.3052 14.4 16.9C14.4 16.3477 14.8477 15.9 15.4 15.9C15.9522 15.9 16.4 16.3477 16.4 16.9C16.4 19.6872 15.3329 21.7179 13.9964 22.4681C12.7531 23.1926 10.7043 23.1816 8.50718 22.0966C6.26279 20.9883 3.75712 18.7256 1.43576 14.7031C1.09737 14.1264 0.926378 13.495 0.965774 12.8299C1.00481 12.1709 1.24613 11.5459 1.6253 10.9655C2.36704 9.83021 3.70538 8.75942 5.50382 7.73174C5.51316 7.7264 5.52257 7.72122 5.53207 7.71619C7.257 6.80299 8.70289 6.22286 10.0094 6.10409C10.5594 6.05408 11.0459 6.45943 11.0959 7.00944Z" fill="black"/>
<path fill-rule="evenodd" clip-rule="evenodd" d="M11.2126 16.0578C10.774 15.9263 10.2232 16.1821 10.0647 16.7631C9.91943 17.296 9.36969 17.6101 8.83687 17.4648C8.30404 17.3195 7.9899 16.7697 8.13522 16.2369C8.57676 14.6179 10.226 13.6738 11.7873 14.1422C12.3163 14.3009 12.6165 14.8584 12.4578 15.3874C12.2991 15.9164 11.7416 16.2165 11.2126 16.0578Z" fill="black"/>
</svg>
