<svg width="24" height="24" viewBox="0 0 24 24" fill="none" xmlns="http://www.w3.org/2000/svg">
<path fill-rule="evenodd" clip-rule="evenodd" d="M5.99996 3C5.84471 3 5.6916 3.03614 5.55274 3.10557C5.41389 3.175 5.2931 3.2758 5.19996 3.4L3.59054 5.53923C3.59033 5.5395 3.59013 5.53977 3.58993 5.54004C3.47291 5.6967 3.40439 5.88425 3.39286 6.07947C3.38131 6.27494 3.4274 6.4695 3.52541 6.63901C3.52545 6.63908 3.52549 6.63915 3.52554 6.63923L8.07541 14.499C8.3521 14.977 8.18892 15.5888 7.71095 15.8655C7.23297 16.1421 6.6212 15.979 6.3445 15.501L1.79438 7.64077C1.50008 7.13208 1.36167 6.54816 1.39634 5.96149C1.431 5.37483 1.63722 4.81126 1.98938 4.34077C1.98987 4.34012 1.99036 4.33946 1.99085 4.33881L3.59996 2.2C3.60012 2.19978 3.60028 2.19957 3.60044 2.19935C3.87982 1.82706 4.24199 1.52488 4.65832 1.31672C5.07488 1.10844 5.53422 1 5.99996 1H18C18.4657 1 18.925 1.10844 19.3416 1.31672C19.7582 1.525 20.1205 1.82741 20.4 2.2L21.9977 4.33701C21.9983 4.33777 21.9989 4.33853 21.9994 4.3393C22.3529 4.80782 22.5611 5.36973 22.5984 5.95546C22.6357 6.54215 22.4999 7.12688 22.2077 7.63701C22.2069 7.63834 22.2062 7.63967 22.2054 7.64099L17.6554 15.501C17.3787 15.979 16.7669 16.1421 16.289 15.8655C15.811 15.5888 15.6478 14.977 15.9245 14.499L20.4722 6.64299C20.4725 6.64243 20.4728 6.64187 20.4732 6.64131C20.5699 6.47167 20.6148 6.2774 20.6024 6.08248C20.59 5.88691 20.5204 5.69932 20.4022 5.54299C20.4012 5.5416 20.4001 5.5402 20.3991 5.5388L18.8 3.4C18.7998 3.39984 18.7997 3.39969 18.7996 3.39953C18.7065 3.27555 18.5858 3.17491 18.4472 3.10557C18.3083 3.03614 18.1552 3 18 3H5.99996Z" fill="black"/>
<path fill-rule="evenodd" clip-rule="evenodd" d="M4.60553 1.34249C5.07911 1.05834 5.69337 1.2119 5.97752 1.68548L11.8575 11.4855C12.1417 11.9591 11.9881 12.5733 11.5145 12.8575C11.0409 13.1416 10.4267 12.9881 10.1425 12.5145L4.26253 2.71448C3.97838 2.2409 4.13195 1.62664 4.60553 1.34249Z" fill="black"/>
<path fill-rule="evenodd" clip-rule="evenodd" d="M19.3944 1.34249C19.868 1.62664 20.0215 2.2409 19.7374 2.71448L13.8574 12.5145C13.5733 12.9881 12.959 13.1416 12.4854 12.8575C12.0118 12.5733 11.8583 11.9591 12.1424 11.4855L18.0224 1.68548C18.3066 1.2119 18.9208 1.05834 19.3944 1.34249Z" fill="black"/>
<path fill-rule="evenodd" clip-rule="evenodd" d="M7 7C7 6.44772 7.44772 6 8 6H16C16.5523 6 17 6.44772 17 7C17 7.55228 16.5523 8 16 8H8C7.44772 8 7 7.55228 7 7Z" fill="black"/>
<path fill-rule="evenodd" clip-rule="evenodd" d="M12 13C9.79086 13 8 14.7909 8 17C8 19.2091 9.79086 21 12 21C14.2091 21 16 19.2091 16 17C16 14.7909 14.2091 13 12 13ZM6 17C6 13.6863 8.68629 11 12 11C15.3137 11 18 13.6863 18 17C18 20.3137 15.3137 23 12 23C8.68629 23 6 20.3137 6 17Z" fill="black"/>
<path fill-rule="evenodd" clip-rule="evenodd" d="M10.5 16C10.5 15.4477 10.9477 15 11.5 15H12C12.5523 15 13 15.4477 13 16V18C13 18.5523 12.5523 19 12 19C11.4477 19 11 18.5523 11 18V16.8662C10.7011 16.6933 10.5 16.3701 10.5 16Z" fill="black"/>
</svg>
