<svg width="24" height="24" viewBox="0 0 24 24" fill="none" xmlns="http://www.w3.org/2000/svg">
<path fill-rule="evenodd" clip-rule="evenodd" d="M9.87868 15.8787C10.4413 15.3161 11.2043 15 12 15C12.7957 15 13.5587 15.3161 14.1213 15.8787C14.6839 16.4413 15 17.2043 15 18V22C15 22.5523 14.5523 23 14 23C13.4477 23 13 22.5523 13 22V18C13 17.7348 12.8946 17.4804 12.7071 17.2929C12.5196 17.1054 12.2652 17 12 17C11.7348 17 11.4804 17.1054 11.2929 17.2929C11.1054 17.4804 11 17.7348 11 18V22C11 22.5523 10.5523 23 10 23C9.44772 23 9 22.5523 9 22V18C9 17.2043 9.31607 16.4413 9.87868 15.8787Z" fill="black"/>
<path fill-rule="evenodd" clip-rule="evenodd" d="M6.89443 9.55276C7.14142 10.0467 6.94119 10.6474 6.44721 10.8944L3 12.618V20C3 20.2652 3.10536 20.5195 3.29289 20.7071C3.48043 20.8946 3.73478 21 4 21H20C20.2652 21 20.5196 20.8946 20.7071 20.7071C20.8946 20.5195 21 20.2652 21 20V12.618L17.5528 10.8944C17.0588 10.6474 16.8586 10.0467 17.1056 9.55276C17.3526 9.05878 17.9532 8.85856 18.4472 9.10555L22.4472 11.1055C22.786 11.2749 23 11.6212 23 12V20C23 20.7956 22.6839 21.5587 22.1213 22.1213C21.5587 22.6839 20.7957 23 20 23H4C3.20435 23 2.44129 22.6839 1.87868 22.1213C1.31607 21.5587 1 20.7956 1 20V12C1 11.6212 1.214 11.2749 1.55279 11.1055L5.55279 9.10555C6.04676 8.85856 6.64744 9.05878 6.89443 9.55276Z" fill="black"/>
<path fill-rule="evenodd" clip-rule="evenodd" d="M18 4C18.5523 4 19 4.44772 19 5V22C19 22.5523 18.5523 23 18 23C17.4477 23 17 22.5523 17 22V5C17 4.44772 17.4477 4 18 4Z" fill="black"/>
<path fill-rule="evenodd" clip-rule="evenodd" d="M11.5528 1.10557C11.8343 0.964809 12.1657 0.964809 12.4472 1.10557L20.4472 5.10557C20.9412 5.35256 21.1414 5.95324 20.8944 6.44721C20.6474 6.94119 20.0467 7.14142 19.5528 6.89443L12 3.11803L4.44719 6.89443C3.95321 7.14142 3.35254 6.94119 3.10555 6.44721C2.85856 5.95324 3.05878 5.35256 3.55276 5.10557L11.5528 1.10557Z" fill="black"/>
<path fill-rule="evenodd" clip-rule="evenodd" d="M6 4C6.55228 4 7 4.44772 7 5V22C7 22.5523 6.55228 23 6 23C5.44772 23 5 22.5523 5 22V5C5 4.44772 5.44772 4 6 4Z" fill="black"/>
<path fill-rule="evenodd" clip-rule="evenodd" d="M12 8C11.4477 8 11 8.44772 11 9C11 9.55228 11.4477 10 12 10C12.5523 10 13 9.55228 13 9C13 8.44772 12.5523 8 12 8ZM9 9C9 7.34315 10.3431 6 12 6C13.6569 6 15 7.34315 15 9C15 10.6569 13.6569 12 12 12C10.3431 12 9 10.6569 9 9Z" fill="black"/>
</svg>
