<svg width="24" height="24" viewBox="0 0 24 24" fill="none" xmlns="http://www.w3.org/2000/svg">
<path fill-rule="evenodd" clip-rule="evenodd" d="M12 1C12.5523 1 13 1.44772 13 2V4C13 4.55228 12.5523 5 12 5C11.4477 5 11 4.55228 11 4V2C11 1.44772 11.4477 1 12 1Z" fill="black"/>
<path fill-rule="evenodd" clip-rule="evenodd" d="M5 9C5.55228 9 6 9.44772 6 10V13.9999C6 13.9999 6 14 6 14C6.00017 15.3346 6.44496 16.631 7.26413 17.6846C8.08314 18.738 9.22971 19.4885 10.5228 19.8177C11.027 19.9451 11.5573 20.1813 12 20.5892C12.4427 20.1813 12.973 19.9451 13.4772 19.8177C14.7704 19.4887 15.917 18.7382 16.7361 17.6847C17.5553 16.6311 18 15.3346 18 14V10C18 9.44772 18.4477 9 19 9C19.5523 9 20 9.44772 20 10V14C20 15.7792 19.4071 17.5077 18.315 18.9124C17.2229 20.317 15.6938 21.3176 13.9695 21.7562L13.9677 21.7566C13.6814 21.8289 13.4688 21.9454 13.3281 22.0861L12.7071 22.7071C12.3166 23.0976 11.6834 23.0976 11.2929 22.7071L10.6719 22.0861C10.5312 21.9454 10.3186 21.8289 10.0323 21.7566L10.0304 21.7561C8.3062 21.3174 6.77729 20.3168 5.68522 18.9122C4.59316 17.5076 4.00019 15.7793 4 14.0001V10C4 9.44772 4.44772 9 5 9Z" fill="black"/>
<path fill-rule="evenodd" clip-rule="evenodd" d="M6.22497 4.36342C7.80723 3.53789 9.84118 3 12 3C14.1589 3 16.1928 3.53789 17.7751 4.36342C19.3071 5.16272 20.6168 6.34395 20.9702 7.75746L20.9703 7.75794C21.1656 8.54092 21.5183 9.33532 22.6241 10.2187C22.9391 10.4703 23.0722 10.8864 22.9617 11.2741C22.8512 11.6618 22.5187 11.9452 22.1184 11.993C21.3837 12.0806 20.7247 12.0713 20.0713 11.8492C19.8215 11.7643 19.5873 11.6532 19.362 11.5203C19.2645 11.6512 19.1556 11.7764 19.033 11.8965C18.5948 12.3254 18.0429 12.6252 17.4129 12.9108C17.1563 13.0271 16.8627 13.0298 16.604 12.9183C15.8996 12.6145 15.3376 12.3164 14.8564 11.9284C14.7221 11.8201 14.5978 11.7078 14.4809 11.5907C14.3694 11.698 14.2518 11.8014 14.126 11.9018C13.6557 12.2774 13.1097 12.5807 12.4284 12.9036C12.1702 13.026 11.872 13.0321 11.6091 12.9204C10.9061 12.6218 10.3322 12.3287 9.84459 11.9407C9.71944 11.8411 9.60305 11.7378 9.49359 11.6299C9.40858 11.7116 9.31847 11.7917 9.22222 11.8702C8.7459 12.2591 8.1639 12.5762 7.40705 12.9134C7.1015 13.0496 6.74811 13.0239 6.46542 12.8451C5.92894 12.5057 5.49443 12.1904 5.11455 11.8115C4.96658 11.6639 4.83189 11.5116 4.70528 11.3514C4.4503 11.4841 4.19243 11.595 3.91905 11.6852C3.34496 11.8745 2.75563 11.9547 2.06251 11.998C1.64462 12.0242 1.25468 11.7873 1.0854 11.4043C0.916124 11.0213 1.00335 10.5735 1.30397 10.282C2.3273 9.28993 2.85235 8.46559 3.02989 7.75746C3.02991 7.75739 3.02993 7.75732 3.02994 7.75725C3.02997 7.75716 3.02999 7.75708 3.03001 7.75699C3.38356 6.34369 4.69314 5.16263 6.22497 4.36342ZM19.2789 9.03968C19.1763 8.77239 19.0958 8.50651 19.0299 8.24254C18.8833 7.65605 18.193 6.83728 16.85 6.13658C15.5572 5.46211 13.8412 5 12 5C10.1589 5 8.44284 5.46211 7.1501 6.13658C5.8071 6.83728 5.1168 7.65605 4.97018 8.24254L4.97006 8.24301C4.90167 8.51601 4.80781 8.78448 4.69075 9.04903C4.85885 8.99436 5.04016 8.98468 5.21611 9.02362C5.48755 9.08369 5.72172 9.25405 5.86245 9.4938C6.1056 9.90806 6.30151 10.1706 6.52702 10.3955C6.67543 10.5436 6.8507 10.6894 7.08512 10.8557C7.48875 10.6546 7.75572 10.4856 7.95735 10.321C8.21554 10.1102 8.40796 9.87302 8.64456 9.48216C8.82623 9.18203 9.15189 8.99906 9.50272 9C9.85355 9.00095 10.1782 9.18567 10.3583 9.48677C10.6142 9.91479 10.8285 10.1677 11.09 10.3758C11.3016 10.5442 11.573 10.7064 11.9784 10.8962C12.3771 10.6913 12.6545 10.5174 12.8781 10.3389C13.1592 10.1144 13.3916 9.85331 13.6721 9.43923C13.8604 9.16112 14.1758 8.99615 14.5117 9.00007C14.8476 9.00398 15.159 9.17626 15.3408 9.45868C15.6211 9.89397 15.8443 10.1558 16.1119 10.3716C16.3234 10.5422 16.5911 10.7069 16.9877 10.8968C17.3105 10.7305 17.5016 10.5968 17.6339 10.4673C17.7895 10.315 17.9173 10.1158 18.0448 9.7041C18.1454 9.37951 18.4039 9.1282 18.7311 9.03683C18.9133 8.98599 19.1028 8.98854 19.2789 9.03968Z" fill="black"/>
</svg>
