<svg width="24" height="24" viewBox="0 0 24 24" fill="none" xmlns="http://www.w3.org/2000/svg">
<path fill-rule="evenodd" clip-rule="evenodd" d="M11 20C11 19.4477 11.4477 19 12 19H12.01C12.5623 19 13.01 19.4477 13.01 20C13.01 20.5523 12.5623 21 12.01 21H12C11.4477 21 11 20.5523 11 20Z" fill="black"/>
<path fill-rule="evenodd" clip-rule="evenodd" d="M12 15.9998C10.953 15.9998 9.94772 16.4103 9.2 17.1432C8.80559 17.5298 8.17246 17.5235 7.78586 17.129C7.39926 16.7346 7.40559 16.1015 7.8 15.7149C8.92157 14.6155 10.4295 13.9998 12 13.9998C13.5705 13.9998 15.0784 14.6155 16.2 15.7149C16.5944 16.1015 16.6007 16.7346 16.2141 17.129C15.8275 17.5235 15.1944 17.5298 14.8 17.1432C14.0523 16.4103 13.047 15.9998 12 15.9998Z" fill="black"/>
</svg>
