<svg width="24" height="24" viewBox="0 0 24 24" fill="none" xmlns="http://www.w3.org/2000/svg">
<path fill-rule="evenodd" clip-rule="evenodd" d="M2.00003 16C1.14254 15.4855 1.14279 15.485 1.14307 15.4846L1.14382 15.4833C1.14439 15.4824 1.14509 15.4812 1.14593 15.4798C1.14696 15.4781 1.14818 15.4761 1.1496 15.4738C1.15053 15.4722 1.15155 15.4706 1.15265 15.4688C1.15823 15.4596 1.16601 15.4469 1.17596 15.4309C1.19586 15.3987 1.22446 15.353 1.26155 15.2951C1.33572 15.1792 1.44395 15.0141 1.58455 14.8099C1.86551 14.4018 2.27712 13.8354 2.80594 13.1927C3.11421 12.8181 3.4645 12.4147 3.85418 12C3.4645 11.5852 3.11421 11.1819 2.80594 10.8072C2.27712 10.1645 1.86551 9.59817 1.58455 9.19007C1.44395 8.98583 1.33572 8.82071 1.26155 8.70484C1.22446 8.64689 1.19586 8.60122 1.17596 8.56907C1.16601 8.553 1.15823 8.54031 1.15265 8.53116C1.14986 8.52658 1.14762 8.52289 1.14593 8.5201C1.14509 8.5187 1.14439 8.51753 1.14382 8.51659L1.14307 8.51535C1.14279 8.51488 1.14254 8.51446 1.997 8.00178L1.14254 8.51446C0.858388 8.04088 1.01195 7.42662 1.48553 7.14247C1.95889 6.85846 2.57279 7.01174 2.85711 7.48479C2.85714 7.48483 2.85716 7.48487 2.85719 7.48491L2.85741 7.48528C2.85792 7.48612 2.85896 7.48784 2.86054 7.49043C2.8637 7.49561 2.86899 7.50426 2.87641 7.51624C2.89124 7.54019 2.91451 7.5774 2.94603 7.62663C3.00907 7.72511 3.10494 7.87151 3.23191 8.05595C3.48611 8.42519 3.86356 8.94482 4.35037 9.53647C4.62984 9.87614 4.94326 10.237 5.28798 10.6051C5.90726 10.0571 6.5889 9.52209 7.327 9.0385C9.25588 7.77476 11.6233 6.82901 14.2931 6.98606C16.9788 7.14404 19.8235 8.40919 22.7071 11.2929C23.0977 11.6834 23.0977 12.3165 22.7071 12.7071C19.8235 15.5907 16.9788 16.8559 14.2931 17.0139C11.6233 17.1709 9.25588 16.2252 7.327 14.9614C6.5889 14.4778 5.90726 13.9428 5.28798 13.3948C4.94326 13.763 4.62984 14.1238 4.35037 14.4635C3.86356 15.0551 3.48611 15.5747 3.23191 15.944C3.10494 16.1284 3.00907 16.2748 2.94603 16.3733C2.91451 16.4225 2.89124 16.4597 2.87641 16.4837C2.86899 16.4957 2.8637 16.5043 2.86054 16.5095C2.85896 16.5121 2.85792 16.5138 2.85741 16.5146L2.85719 16.515M6.73067 12C7.25307 12.4542 7.81891 12.8927 8.42306 13.2885C10.1192 14.3998 12.0643 15.1415 14.1757 15.0173C16.0707 14.9058 18.219 14.0898 20.5475 12C18.219 9.9101 16.0707 9.09408 14.1757 8.98261C12.0643 8.85841 10.1192 9.60017 8.42306 10.7114C7.81891 11.1072 7.25307 11.5457 6.73067 12Z" fill="black"/>
</svg>
