<svg width="24" height="24" viewBox="0 0 24 24" fill="none" xmlns="http://www.w3.org/2000/svg">
<path fill-rule="evenodd" clip-rule="evenodd" d="M11.1161 6.40124C11.4373 6.714 11.6844 7.09489 11.8391 7.51599C11.9982 7.94905 12.0552 8.41297 12.0059 8.87169C11.9565 9.3304 11.8019 9.77153 11.5543 10.1608C11.3066 10.5501 10.9726 10.877 10.578 11.1161C10.1834 11.3552 9.73905 11.5001 9.27938 11.5395C8.94114 11.5685 8.60134 11.5398 8.27429 11.4555C8.47348 11.9654 8.77709 12.4339 9.17164 12.8284C9.92178 13.5786 10.9392 14 12.0001 14C13.0609 14 14.0783 13.5786 14.8285 12.8284C15.577 12.08 15.9982 11.0654 16.0001 10.0071C15.9832 8.95464 15.5521 7.9511 14.8002 7.21424C14.7989 7.21303 14.7977 7.21181 14.7965 7.2106C14.7953 7.20944 14.7941 7.20827 14.793 7.20711C14.6307 7.04489 14.4212 6.88104 14.1811 6.69334C13.4001 6.08266 12.2961 5.21949 11.4488 3.33844C11.2018 3.53662 10.9595 3.79709 10.7806 4.0928C10.5741 4.43393 10.4709 4.78785 10.4947 5.1387C10.5173 5.4737 10.6617 5.90176 11.1161 6.40124ZM10.4088 1.61796C10.845 1.30591 11.4323 1 12.0001 1C12.4305 1 12.8126 1.27543 12.9487 1.68377C13.6116 3.67241 14.4018 4.29745 15.2604 4.97657C15.567 5.21908 15.8823 5.46848 16.2036 5.78934C17.3318 6.89679 17.9774 8.40485 18 9.98576C18 9.9905 18.0001 9.99525 18.0001 10C18.0001 11.5913 17.3679 13.1174 16.2427 14.2426C15.1175 15.3679 13.5914 16 12.0001 16C10.4088 16 8.88264 15.3679 7.75742 14.2426C6.63221 13.1174 6.00006 11.5913 6.00006 10C6.00006 9.98782 6.00005 9.97529 6.00003 9.96242C5.99969 9.68204 5.99916 9.24044 6.15138 8.78377C6.29003 8.36784 6.68344 8.09072 7.12177 8.10024C7.56011 8.10975 7.94112 8.40369 8.06158 8.82525C8.10383 8.97312 8.17962 9.10925 8.28305 9.22306C8.38648 9.33687 8.51477 9.42529 8.65794 9.48145C8.80111 9.53761 8.9553 9.55998 9.10852 9.54685C9.26175 9.53371 9.40988 9.48541 9.5414 9.4057C9.67292 9.32599 9.78428 9.21703 9.86683 9.08727C9.94938 8.95751 10.0009 8.81047 10.0173 8.65756C10.0338 8.50466 10.0148 8.35002 9.96176 8.20566C9.90873 8.06131 9.82312 7.93113 9.71158 7.82525C9.69563 7.81011 9.68018 7.79444 9.66526 7.77828C8.93442 6.98654 8.55748 6.13423 8.49922 5.2738C8.44173 4.42465 8.70103 3.66607 9.06956 3.0572C9.43571 2.45226 9.92817 1.96184 10.4088 1.61796Z" fill="black"/>
<path fill-rule="evenodd" clip-rule="evenodd" d="M19.9615 17.7253C20.1133 18.2563 19.8058 18.8098 19.2747 18.9615L5.27473 22.9615C4.7437 23.1133 4.19021 22.8058 4.03849 22.2747C3.88677 21.7437 4.19426 21.1902 4.72529 21.0385L18.7253 17.0385C19.2563 16.8868 19.8098 17.1943 19.9615 17.7253Z" fill="black"/>
<path fill-rule="evenodd" clip-rule="evenodd" d="M4.03849 17.7253C4.19021 17.1943 4.7437 16.8868 5.27473 17.0385L19.2747 21.0385C19.8058 21.1902 20.1133 21.7437 19.9615 22.2747C19.8098 22.8058 19.2563 23.1133 18.7253 22.9615L4.72529 18.9615C4.19426 18.8098 3.88677 18.2563 4.03849 17.7253Z" fill="black"/>
</svg>
