<svg width="24" height="24" viewBox="0 0 24 24" fill="none" xmlns="http://www.w3.org/2000/svg">
<path fill-rule="evenodd" clip-rule="evenodd" d="M14.725 3.41123C15.1054 3.81163 15.0892 4.44459 14.6888 4.82498L12.6888 6.72498C12.2883 7.10536 11.6554 7.08913 11.275 6.68873C10.8946 6.28832 10.9108 5.65536 11.3113 5.27498L13.3113 3.37498C13.7117 2.99459 14.3446 3.01082 14.725 3.41123Z" fill="black"/>
<path fill-rule="evenodd" clip-rule="evenodd" d="M1.23597 6.93403C1.38284 6.40163 1.93349 6.0891 2.46589 6.23597L5.36589 7.03597C5.89829 7.18284 6.21082 7.73349 6.06395 8.26589C5.91708 8.79829 5.36643 9.11082 4.83403 8.96395L1.93403 8.16395C1.40163 8.01708 1.0891 7.46643 1.23597 6.93403Z" fill="black"/>
<path fill-rule="evenodd" clip-rule="evenodd" d="M6.68885 11.275C7.08926 11.6554 7.10549 12.2883 6.7251 12.6888L4.8251 14.6888C4.44471 15.0892 3.81176 15.1054 3.41135 14.725C3.01094 14.3446 2.99471 13.7117 3.3751 13.3113L5.2751 11.3113C5.65549 10.9108 6.28844 10.8946 6.68885 11.275Z" fill="black"/>
<path fill-rule="evenodd" clip-rule="evenodd" d="M6.93403 1.23597C7.46643 1.0891 8.01708 1.40163 8.16395 1.93403L8.96395 4.83403C9.11082 5.36643 8.79829 5.91708 8.26589 6.06395C7.73349 6.21082 7.18284 5.89829 7.03597 5.36589L6.23597 2.46589C6.0891 1.93349 6.40163 1.38284 6.93403 1.23597Z" fill="black"/>
<path fill-rule="evenodd" clip-rule="evenodd" d="M10.4133 10.4134L13.8749 18.8752L14.5546 16.0324C14.6408 15.6734 14.8248 15.3454 15.086 15.0845C15.3472 14.8236 15.6755 14.6402 16.0346 14.5544L18.8742 13.8747L10.4133 10.4134ZM10.073 8.1133C9.80024 7.99931 9.4998 7.96853 9.2095 8.02496C8.91647 8.08191 8.64715 8.22511 8.43607 8.43619C8.22499 8.64727 8.08179 8.9166 8.02484 9.20962C7.96841 9.49992 7.99918 9.80036 8.11318 10.0731L12.6105 21.0665C12.6107 21.067 12.6109 21.0676 12.6111 21.0681C12.7311 21.3623 12.9413 21.6108 13.2116 21.7778C13.4823 21.9451 13.7993 22.022 14.1166 21.9973C14.434 21.9726 14.7352 21.8475 14.9768 21.6403C15.2177 21.4336 15.3869 21.1558 15.4599 20.8469C15.4601 20.8461 15.4603 20.8453 15.4605 20.8445L16.4992 16.4997L20.8474 15.4589C20.8477 15.4588 20.8479 15.4587 20.8481 15.4587C21.1567 15.3851 21.434 15.2156 21.6401 14.9745C21.8465 14.7332 21.9709 14.4327 21.9956 14.1162C22.0203 13.7997 21.9439 13.4836 21.7775 13.2132C21.6111 12.9429 21.3632 12.7323 21.0694 12.6119L10.073 8.1133Z" fill="black"/>
</svg>
