<svg width="24" height="24" viewBox="0 0 24 24" fill="none" xmlns="http://www.w3.org/2000/svg">
<path fill-rule="evenodd" clip-rule="evenodd" d="M3.87868 1.87868C4.44129 1.31607 5.20435 1 6 1H15C15.2652 1 15.5196 1.10536 15.7071 1.29289L20.7071 6.29289C20.8946 6.48043 21 6.73478 21 7V20C21 20.7957 20.6839 21.5587 20.1213 22.1213C19.5587 22.6839 18.7957 23 18 23H6C5.20435 23 4.44129 22.6839 3.87868 22.1213C3.31607 21.5587 3 20.7956 3 20V4C3 3.20435 3.31607 2.44129 3.87868 1.87868ZM6 3C5.73478 3 5.48043 3.10536 5.29289 3.29289C5.10536 3.48043 5 3.73478 5 4V20C5 20.2652 5.10536 20.5196 5.29289 20.7071C5.48043 20.8946 5.73478 21 6 21H18C18.2652 21 18.5196 20.8946 18.7071 20.7071C18.8946 20.5196 19 20.2652 19 20V7.41421L14.5858 3H6Z" fill="black"/>
<path fill-rule="evenodd" clip-rule="evenodd" d="M14 1C14.5523 1 15 1.44772 15 2V6C15 6.26522 15.1054 6.51957 15.2929 6.70711C15.4804 6.89464 15.7348 7 16 7H20C20.5523 7 21 7.44772 21 8C21 8.55228 20.5523 9 20 9H16C15.2044 9 14.4413 8.68393 13.8787 8.12132C13.3161 7.55871 13 6.79565 13 6V2C13 1.44772 13.4477 1 14 1Z" fill="black"/>
<path fill-rule="evenodd" clip-rule="evenodd" d="M10 11C9.44772 11 9 11.4477 9 12C9 12.5523 9.44772 13 10 13C10.5523 13 11 12.5523 11 12C11 11.4477 10.5523 11 10 11ZM7 12C7 10.3431 8.34315 9 10 9C11.6569 9 13 10.3431 13 12C13 13.6569 11.6569 15 10 15C8.34315 15 7 13.6569 7 12Z" fill="black"/>
<path fill-rule="evenodd" clip-rule="evenodd" d="M14.5889 14.9969C15.2284 14.3575 16.0957 13.9983 17 13.9983C17.9043 13.9983 18.7716 14.3575 19.4111 14.9969L19.4111 14.9969L20.7071 16.2929C21.0976 16.6835 21.0976 17.3166 20.7071 17.7071C20.3166 18.0977 19.6834 18.0977 19.2929 17.7071L17.9969 16.4112C17.9969 16.4112 17.9969 16.4112 17.9969 16.4111C17.7325 16.1468 17.3739 15.9983 17 15.9983C16.6261 15.9983 16.2675 16.1468 16.0031 16.4111C16.0031 16.4112 16.0031 16.4112 16.0031 16.4112L9.70711 22.7071C9.31658 23.0977 8.68342 23.0977 8.29289 22.7071C7.90237 22.3166 7.90237 21.6835 8.29289 21.2929L14.5889 14.9969L14.5889 14.9969Z" fill="black"/>
</svg>
