<svg width="24" height="24" viewBox="0 0 24 24" fill="none" xmlns="http://www.w3.org/2000/svg">
<path fill-rule="evenodd" clip-rule="evenodd" d="M6 4C5.44772 4 5 4.44772 5 5V17C5 17.5523 5.44772 18 6 18H18C18.5523 18 19 17.5523 19 17V5C19 4.44772 18.5523 4 18 4H6ZM3 5C3 3.34315 4.34315 2 6 2H18C19.6569 2 21 3.34315 21 5V17C21 18.6569 19.6569 20 18 20H6C4.34315 20 3 18.6569 3 17V5Z" fill="black"/>
<path fill-rule="evenodd" clip-rule="evenodd" d="M3 11C3 10.4477 3.44772 10 4 10H20C20.5523 10 21 10.4477 21 11C21 11.5523 20.5523 12 20 12H4C3.44772 12 3 11.5523 3 11Z" fill="black"/>
<path fill-rule="evenodd" clip-rule="evenodd" d="M12 2C12.5523 2 13 2.44772 13 3V11C13 11.5523 12.5523 12 12 12C11.4477 12 11 11.5523 11 11V3C11 2.44772 11.4477 2 12 2Z" fill="black"/>
<path fill-rule="evenodd" clip-rule="evenodd" d="M8.55468 18.1681C9.01421 18.4744 9.13839 19.0953 8.83203 19.5548L6.83203 22.5548C6.52568 23.0143 5.90481 23.1385 5.44528 22.8322C4.98576 22.5258 4.86158 21.9049 5.16793 21.4454L7.16793 18.4454C7.47429 17.9859 8.09516 17.8617 8.55468 18.1681Z" fill="black"/>
<path fill-rule="evenodd" clip-rule="evenodd" d="M15.4453 18.1681C15.9048 17.8617 16.5257 17.9859 16.832 18.4454L18.832 21.4454C19.1384 21.9049 19.0142 22.5258 18.5547 22.8322C18.0952 23.1385 17.4743 23.0143 17.1679 22.5548L15.1679 19.5548C14.8616 19.0953 14.9858 18.4744 15.4453 18.1681Z" fill="black"/>
<path fill-rule="evenodd" clip-rule="evenodd" d="M7 15C7 14.4477 7.44772 14 8 14H8.01C8.56228 14 9.01 14.4477 9.01 15C9.01 15.5523 8.56228 16 8.01 16H8C7.44772 16 7 15.5523 7 15Z" fill="black"/>
<path fill-rule="evenodd" clip-rule="evenodd" d="M15 15C15 14.4477 15.4477 14 16 14H16.01C16.5623 14 17.01 14.4477 17.01 15C17.01 15.5523 16.5623 16 16.01 16H16C15.4477 16 15 15.5523 15 15Z" fill="black"/>
</svg>
