<svg width="24" height="24" viewBox="0 0 24 24" fill="none" xmlns="http://www.w3.org/2000/svg">
<path fill-rule="evenodd" clip-rule="evenodd" d="M3.63604 14.636C5.32387 12.9482 7.61305 12 10 12C12.3869 12 14.6761 12.9482 16.364 14.636C18.0518 16.3239 19 18.6131 19 21C19 21.5523 18.5523 22 18 22C17.4477 22 17 21.5523 17 21C17 19.1435 16.2625 17.363 14.9497 16.0503C13.637 14.7375 11.8565 14 10 14C8.14348 14 6.36301 14.7375 5.05025 16.0503C3.7375 17.363 3 19.1435 3 21C3 21.5523 2.55228 22 2 22C1.44772 22 1 21.5523 1 21C1 18.6131 1.94821 16.3239 3.63604 14.636Z" fill="black"/>
<path fill-rule="evenodd" clip-rule="evenodd" d="M10 4C7.79086 4 6 5.79086 6 8C6 10.2091 7.79086 12 10 12C12.2091 12 14 10.2091 14 8C14 5.79086 12.2091 4 10 4ZM4 8C4 4.68629 6.68629 2 10 2C13.3137 2 16 4.68629 16 8C16 11.3137 13.3137 14 10 14C6.68629 14 4 11.3137 4 8Z" fill="black"/>
<path fill-rule="evenodd" clip-rule="evenodd" d="M16.6899 3.18973C16.9716 2.71471 17.5851 2.55803 18.0601 2.83977C18.9084 3.34288 19.6195 4.04734 20.1307 4.89081C20.6418 5.73427 20.9371 6.69073 20.9905 7.67553C21.0439 8.66033 20.8537 9.64311 20.4368 10.5369C20.1929 11.0596 19.876 11.5424 19.497 11.9716C21.3685 13.7946 23 16.7782 23 19.9999C23 20.5521 22.5522 20.9999 22 20.9999C21.4477 20.9999 21 20.5521 21 19.9999C21 16.9891 19.186 14.1394 17.4 12.7999C17.1482 12.611 17 12.3147 17 11.9999C16.9999 11.6852 17.1481 11.3888 17.3998 11.2C17.9258 10.8054 18.3463 10.2872 18.6243 9.69138C18.9022 9.09552 19.029 8.44034 18.9934 7.7838C18.9579 7.12727 18.761 6.48963 18.4202 5.92732C18.0795 5.36501 17.6053 4.89537 17.0398 4.55996C16.5648 4.27822 16.4081 3.66475 16.6899 3.18973Z" fill="black"/>
</svg>
