<svg width="24" height="24" viewBox="0 0 24 24" fill="none" xmlns="http://www.w3.org/2000/svg">
<path fill-rule="evenodd" clip-rule="evenodd" d="M7 9C7.55228 9 8 9.44772 8 10V22C8 22.5523 7.55228 23 7 23C6.44772 23 6 22.5523 6 22V10C6 9.44772 6.44772 9 7 9Z" fill="black"/>
<path fill-rule="evenodd" clip-rule="evenodd" d="M11.1058 1.55227C11.2773 1.20978 11.6294 0.995334 12.0124 1.00008C12.6346 1.00778 13.2471 1.156 13.804 1.43366C14.3609 1.71131 14.8479 2.11123 15.2285 2.60352C15.6092 3.09582 15.8736 3.66777 16.0022 4.27663C16.1306 4.88478 16.12 5.51406 15.9714 6.11756C15.9712 6.11827 15.971 6.11898 15.9708 6.11969L15.2718 9H19.83C20.2957 9 20.7551 9.10844 21.1716 9.31672C21.5882 9.525 21.9506 9.82741 22.23 10.2C22.5094 10.5726 22.6983 11.0051 22.7816 11.4633C22.8649 11.9214 22.8404 12.3926 22.7101 12.8396C22.7101 12.8397 22.7101 12.8398 22.71 12.8399C22.71 12.8399 22.71 12.84 22.71 12.84L20.38 20.84C20.1982 21.4631 19.8193 22.0105 19.3 22.4C18.7807 22.7895 18.1491 23 17.5 23H4C3.20435 23 2.44129 22.6839 1.87868 22.1213C1.31607 21.5587 1 20.7956 1 20V12C1 11.2044 1.31607 10.4413 1.87868 9.87868C2.44129 9.31607 3.20435 9 4 9H6.75947C6.94551 8.9999 7.12784 8.94791 7.28595 8.84986C7.44406 8.75181 7.57168 8.61161 7.65447 8.445C7.65492 8.44409 7.65538 8.44318 7.65583 8.44227L11.1058 1.55227ZM12.5728 3.08945L9.44553 9.335C9.44529 9.33548 9.44505 9.33597 9.44481 9.33645C9.19642 9.83563 8.81383 10.2557 8.33996 10.5496C7.86563 10.8437 7.31866 10.9997 6.76053 11H4C3.73478 11 3.48043 11.1054 3.29289 11.2929C3.10536 11.4804 3 11.7348 3 12V20C3 20.2652 3.10536 20.5196 3.29289 20.7071C3.48043 20.8946 3.73478 21 4 21H17.5C17.7164 21 17.9269 20.9298 18.1 20.8C18.273 20.6703 18.3993 20.4879 18.4599 20.2804C18.4599 20.2803 18.4599 20.2802 18.46 20.2801C18.46 20.2801 18.46 20.28 18.46 20.28L20.79 12.28C20.8335 12.131 20.8416 11.9739 20.8139 11.8211C20.7861 11.6684 20.7231 11.5242 20.63 11.4C20.5369 11.2758 20.4161 11.175 20.2772 11.1056C20.1384 11.0361 19.9852 11 19.83 11H14C13.6933 11 13.4035 10.8592 13.2139 10.6181C13.0243 10.377 12.9559 10.0622 13.0282 9.76413L14.0282 5.64413C14.0284 5.64323 14.0287 5.64233 14.0289 5.64143L14.0292 5.64031C14.1061 5.32872 14.1116 5.00379 14.0453 4.68977C13.979 4.37575 13.8426 4.08078 13.6463 3.82688C13.45 3.57299 13.1988 3.36673 12.9116 3.22354C12.8024 3.16909 12.689 3.12429 12.5728 3.08945Z" fill="black"/>
</svg>
