<svg width="24" height="24" viewBox="0 0 24 24" fill="none" xmlns="http://www.w3.org/2000/svg">
<path fill-rule="evenodd" clip-rule="evenodd" d="M14 1C14.5523 1 15 1.44772 15 2V6C15 6.26522 15.1054 6.51957 15.2929 6.70711C15.4804 6.89464 15.7348 7 16 7H20C20.5523 7 21 7.44772 21 8C21 8.55228 20.5523 9 20 9H16C15.2044 9 14.4413 8.68393 13.8787 8.12132C13.3161 7.55871 13 6.79565 13 6V2C13 1.44772 13.4477 1 14 1Z" fill="black"/>
<path fill-rule="evenodd" clip-rule="evenodd" d="M3.87868 1.87868C4.44129 1.31607 5.20435 1 6 1H15C15.2652 1 15.5196 1.10536 15.7071 1.29289L20.7071 6.29289C20.8946 6.48043 21 6.73478 21 7V20C21 20.7957 20.6839 21.5587 20.1213 22.1213C19.5587 22.6839 18.7957 23 18 23H16C15.4477 23 15 22.5523 15 22C15 21.4477 15.4477 21 16 21H18C18.2652 21 18.5196 20.8946 18.7071 20.7071C18.8946 20.5196 19 20.2652 19 20V7.41421L14.5858 3H6C5.73478 3 5.48043 3.10536 5.29289 3.29289C5.10536 3.48043 5 3.73478 5 4V7.5C5 8.05228 4.55228 8.5 4 8.5C3.44772 8.5 3 8.05228 3 7.5V4C3 3.20435 3.31607 2.44129 3.87868 1.87868Z" fill="black"/>
<path fill-rule="evenodd" clip-rule="evenodd" d="M4.76489 10.8482C5.13148 11.2613 5.09379 11.8933 4.68071 12.2599C4.17102 12.7122 3.75917 13.264 3.47045 13.8812C3.18173 14.4985 3.02224 15.1683 3.00177 15.8494C2.9813 16.5306 3.10028 17.2087 3.3514 17.8422C3.60253 18.4757 3.9805 19.0512 4.4621 19.5333C4.9437 20.0154 5.51878 20.394 6.152 20.6458C6.78523 20.8976 7.46325 21.0173 8.14441 20.9975C8.82558 20.9778 9.49552 20.819 10.1131 20.531C10.7307 20.2429 11.2828 19.8316 11.7357 19.3224C12.1027 18.9097 12.7348 18.8727 13.1475 19.2397C13.5602 19.6068 13.5972 20.2388 13.2302 20.6515C12.5962 21.3644 11.8231 21.9402 10.9585 22.3435C10.0939 22.7468 9.15601 22.9691 8.20238 22.9967C7.24874 23.0244 6.29952 22.8568 5.413 22.5043C4.52648 22.1517 3.72138 21.6217 3.04714 20.9468C2.37289 20.2718 1.84373 19.4661 1.49216 18.5792C1.14058 17.6924 0.97401 16.743 1.00267 15.7893C1.03133 14.8357 1.25462 13.8981 1.65883 13.0339C2.06303 12.1697 2.63962 11.3973 3.35319 10.764C3.76627 10.3974 4.39831 10.4351 4.76489 10.8482Z" fill="black"/>
<path fill-rule="evenodd" clip-rule="evenodd" d="M9.00011 10.9985C9.00012 10.9985 9.00011 10.9988 9.00002 10.9992C9.00004 10.9987 9.00009 10.9985 9.00011 10.9985ZM9 11.1009V15H12.8991C12.7033 14.0406 12.2297 13.1585 11.5356 12.4644C10.8415 11.7702 9.95933 11.2967 9 11.1009ZM13.0012 14.9999C13.0012 14.9999 13.001 14.9999 13.0005 15C13.0009 14.9999 13.0012 14.9999 13.0012 14.9999ZM7 11C7 9.95067 7.89159 8.88489 9.15969 9.09663L9.16082 9.09682C10.5962 9.33817 11.9206 10.021 12.9498 11.0502C13.979 12.0794 14.6618 13.4038 14.9032 14.8391L14.9033 14.84C15.1152 16.1068 14.0498 17 13 17H9C8.46957 17 7.96086 16.7893 7.58579 16.4142C7.21071 16.0391 7 15.5304 7 15V11Z" fill="black"/>
</svg>
