<svg width="24" height="24" viewBox="0 0 24 24" fill="none" xmlns="http://www.w3.org/2000/svg">
<path fill-rule="evenodd" clip-rule="evenodd" d="M12 3C7.02944 3 3 7.02944 3 12C3 16.9706 7.02944 21 12 21C16.9706 21 21 16.9706 21 12C21 7.02944 16.9706 3 12 3ZM1 12C1 5.92487 5.92487 1 12 1C18.0751 1 23 5.92487 23 12C23 18.0751 18.0751 23 12 23C5.92487 23 1 18.0751 1 12Z" fill="black"/>
<path fill-rule="evenodd" clip-rule="evenodd" d="M12.7071 1.29289C13.0977 1.68342 13.0977 2.31658 12.7071 2.70711C11.5686 3.84565 10.929 5.38985 10.929 7C10.929 8.61015 11.5686 10.1543 12.7071 11.2929C13.8457 12.4314 15.3899 13.0711 17 13.0711C18.6102 13.0711 20.1544 12.4314 21.2929 11.2929C21.6834 10.9024 22.3166 10.9024 22.7071 11.2929C23.0977 11.6834 23.0977 12.3166 22.7071 12.7071C21.1935 14.2207 19.1406 15.0711 17 15.0711C14.8594 15.0711 12.8065 14.2207 11.2929 12.7071C9.7793 11.1935 8.92896 9.14058 8.92896 7C8.92896 4.85942 9.7793 2.80651 11.2929 1.29289C11.6834 0.902369 12.3166 0.902369 12.7071 1.29289Z" fill="black"/>
</svg>
