<svg width="24" height="24" viewBox="0 0 24 24" fill="none" xmlns="http://www.w3.org/2000/svg">
<path fill-rule="evenodd" clip-rule="evenodd" d="M1 12C1 11.4477 1.44772 11 2 11H22C22.5523 11 23 11.4477 23 12C23 12.5523 22.5523 13 22 13H2C1.44772 13 1 12.5523 1 12Z" fill="black"/>
<path fill-rule="evenodd" clip-rule="evenodd" d="M4 11C4.55228 11 5 11.4477 5 12V20C5 20.2652 5.10536 20.5196 5.29289 20.7071C5.48043 20.8946 5.73478 21 6 21H18C18.2652 21 18.5196 20.8946 18.7071 20.7071C18.8946 20.5196 19 20.2652 19 20V12C19 11.4477 19.4477 11 20 11C20.5523 11 21 11.4477 21 12V20C21 20.7956 20.6839 21.5587 20.1213 22.1213C19.5587 22.6839 18.7957 23 18 23H6C5.20435 23 4.44129 22.6839 3.87868 22.1213C3.31607 21.5587 3 20.7956 3 20V12C3 11.4477 3.44772 11 4 11Z" fill="black"/>
<path fill-rule="evenodd" clip-rule="evenodd" d="M20.9701 3.75746C21.1041 4.29325 20.7783 4.83619 20.2425 4.97013L4.24253 8.97013C3.70673 9.10408 3.1638 8.77832 3.02985 8.24253C2.8959 7.70673 3.22166 7.1638 3.75746 7.02985L19.7575 3.02985C20.2933 2.8959 20.8362 3.22166 20.9701 3.75746Z" fill="black"/>
<path fill-rule="evenodd" clip-rule="evenodd" d="M12.4347 3.01032C12.3045 2.99101 12.1716 2.99762 12.0439 3.02978C12.0431 3.02998 12.0423 3.03018 12.0415 3.03037C12.041 3.03051 12.0405 3.03064 12.0399 3.03077L10.1024 3.51016C9.97567 3.54235 9.85646 3.5991 9.75154 3.6772C9.64614 3.75566 9.55723 3.85412 9.4899 3.96696C9.42256 4.07979 9.37813 4.2048 9.35914 4.33482C9.34014 4.46484 9.34696 4.59732 9.37919 4.72471C9.37954 4.72606 9.37988 4.72741 9.38021 4.72877L9.83021 6.53877C9.96347 7.07474 9.637 7.61725 9.10103 7.7505C8.56506 7.88375 8.02255 7.55728 7.8893 7.02132L7.43975 5.21314C7.34353 4.83167 7.32327 4.435 7.38014 4.0457C7.43713 3.65564 7.57043 3.28064 7.77242 2.94213C7.97441 2.60361 8.24114 2.30823 8.55736 2.07285C8.87357 1.83748 9.23308 1.66674 9.61532 1.57038C9.61674 1.57002 9.61816 1.56967 9.61958 1.56931L11.5578 1.08976C11.9403 0.99376 12.3379 0.974113 12.728 1.03195C13.1189 1.08989 13.4944 1.22448 13.8331 1.42797C14.1718 1.63146 14.467 1.89985 14.7016 2.21773C14.936 2.53522 15.1055 2.89583 15.2002 3.2789C15.2004 3.27937 15.2005 3.27984 15.2006 3.28031L15.6499 5.07751C15.7838 5.6133 15.4581 6.15624 14.9223 6.29019C14.3865 6.42413 13.8436 6.09837 13.7096 5.56258L13.2596 3.76258C13.2595 3.76192 13.2593 3.76127 13.2591 3.76062L13.2589 3.75978C13.2273 3.63191 13.1708 3.51154 13.0926 3.40558C13.0144 3.29962 12.916 3.21016 12.8031 3.14233C12.6902 3.0745 12.565 3.02964 12.4347 3.01032Z" fill="black"/>
</svg>
