<svg width="24" height="24" viewBox="0 0 24 24" fill="none" xmlns="http://www.w3.org/2000/svg">
<path fill-rule="evenodd" clip-rule="evenodd" d="M5 17C5.55228 17 6 17.4477 6 18C6 18.621 6.14458 19.2334 6.42229 19.7889C6.7 20.3443 7.10322 20.8274 7.6 21.2C8.04183 21.5314 8.13137 22.1582 7.8 22.6C7.46863 23.0418 6.84183 23.1314 6.4 22.8C5.65482 22.2411 5.05 21.5164 4.63344 20.6833C4.21687 19.8501 4 18.9315 4 18C4 17.4477 4.44772 17 5 17Z" fill="black"/>
<path fill-rule="evenodd" clip-rule="evenodd" d="M12 3C6.83252 3 3 6.34898 3 10H2L3 10.0002C2.99977 11.226 3.38796 12.4204 4.10882 13.4119C4.4336 13.8586 4.33475 14.4841 3.88805 14.8088C3.44135 15.1336 2.81595 15.0348 2.49118 14.5881C1.52177 13.2547 0.999736 11.6485 1 10M1 9.99982C1.00012 4.85092 6.16755 1 12 1C17.8325 1 23 4.85102 23 10C23 15.1465 17.8375 18.9963 12.0084 19C10.1489 19.0299 8.30458 18.6604 6.60003 17.9165C6.09384 17.6956 5.86257 17.1062 6.08347 16.6C6.30437 16.0938 6.89379 15.8626 7.39997 16.0835C8.84444 16.7138 10.4075 17.0264 11.9833 17.0001C11.9868 17.0001 11.9904 17 11.9939 17C11.9959 17 11.998 17 12 17C17.1675 17 21 13.651 21 10C21 6.34898 17.1675 3 12 3" fill="black"/>
<path fill-rule="evenodd" clip-rule="evenodd" d="M2.87868 13.8787C3.44129 13.3161 4.20435 13 5 13C5.79565 13 6.55871 13.3161 7.12132 13.8787C7.68393 14.4413 8 15.2044 8 16C8 16.7956 7.68393 17.5587 7.12132 18.1213C6.55871 18.6839 5.79565 19 5 19C4.20435 19 3.44129 18.6839 2.87868 18.1213C2.31607 17.5587 2 16.7956 2 16C2 15.2044 2.31607 14.4413 2.87868 13.8787ZM5 15C4.73478 15 4.48043 15.1054 4.29289 15.2929C4.10536 15.4804 4 15.7348 4 16C4 16.2652 4.10536 16.5196 4.29289 16.7071C4.48043 16.8946 4.73478 17 5 17C5.26522 17 5.51957 16.8946 5.70711 16.7071C5.89464 16.5196 6 16.2652 6 16C6 15.7348 5.89464 15.4804 5.70711 15.2929C5.51957 15.1054 5.26522 15 5 15Z" fill="black"/>
</svg>
