<svg width="24" height="24" viewBox="0 0 24 24" fill="none" xmlns="http://www.w3.org/2000/svg">
<path fill-rule="evenodd" clip-rule="evenodd" d="M9.00338 10.9185C9.04842 10.3681 9.53115 9.95835 10.0816 10.0034L21.0816 10.9034C21.119 10.9064 21.1562 10.9116 21.193 10.9188C21.688 11.0162 22.1279 11.2969 22.4246 11.7049C22.7213 12.1129 22.8529 12.6179 22.793 13.1188C22.7914 13.1319 22.7896 13.145 22.7875 13.158L22.1225 17.316L22.1225 17.3161C22.0473 17.7859 21.807 18.2136 21.4449 18.5223C21.0828 18.8308 20.6227 19.0002 20.1471 19.0001C20.1469 19.0001 20.1467 19.0001 20.1465 19.0001H20.0001C19.4478 19.0001 19.0001 18.5523 19.0001 18.0001C19.0001 17.4478 19.4478 17.0001 20.0001 17.0001H20.1471L20.1476 17.0001L20.8054 12.8875L9.91851 11.9967C9.36806 11.9517 8.95835 11.469 9.00338 10.9185Z" fill="black"/>
<path fill-rule="evenodd" clip-rule="evenodd" d="M10 18C10 17.4477 10.4477 17 11 17H16C16.5523 17 17 17.4477 17 18C17 18.5523 16.5523 19 16 19H11C10.4477 19 10 18.5523 10 18Z" fill="black"/>
<path fill-rule="evenodd" clip-rule="evenodd" d="M16.5858 4.58579C16.9609 4.21071 17.4696 4 18 4C18.5523 4 19 4.44772 19 5C19 5.55228 18.5523 6 18 6V11.573C18 12.1253 17.5523 12.573 17 12.573C16.4477 12.573 16 12.1253 16 11.573V6C16 5.46957 16.2107 4.96086 16.5858 4.58579Z" fill="black"/>
<path fill-rule="evenodd" clip-rule="evenodd" d="M2 4C2 3.44772 2.44772 3 3 3L11.1296 3C11.6123 3.00028 12.0787 3.17517 12.4426 3.4924C12.8065 3.80963 13.0434 4.24778 13.1096 4.726L13.9906 11.1093C14.0661 11.6564 13.6838 12.1611 13.1367 12.2366C12.5896 12.3121 12.0849 11.9298 12.0094 11.3827L11.1284 5H3C2.44772 5 2 4.55228 2 4Z" fill="black"/>
<path fill-rule="evenodd" clip-rule="evenodd" d="M4 3C4.55228 3 5 3.44772 5 4V11C5 11.5523 4.55228 12 4 12C3.44772 12 3 11.5523 3 11V4C3 3.44772 3.44772 3 4 3Z" fill="black"/>
<path fill-rule="evenodd" clip-rule="evenodd" d="M6 15C6 14.4477 6.44772 14 7 14H7.01C7.56228 14 8.01 14.4477 8.01 15C8.01 15.5523 7.56228 16 7.01 16H7C6.44772 16 6 15.5523 6 15Z" fill="black"/>
<path fill-rule="evenodd" clip-rule="evenodd" d="M8 3C8.55228 3 9 3.44772 9 4V10.1C9 10.6523 8.55228 11.1 8 11.1C7.44772 11.1 7 10.6523 7 10.1V4C7 3.44772 7.44772 3 8 3Z" fill="black"/>
<path fill-rule="evenodd" clip-rule="evenodd" d="M18 17C17.4477 17 17 17.4477 17 18C17 18.5523 17.4477 19 18 19C18.5523 19 19 18.5523 19 18C19 17.4477 18.5523 17 18 17ZM15 18C15 16.3431 16.3431 15 18 15C19.6569 15 21 16.3431 21 18C21 19.6569 19.6569 21 18 21C16.3431 21 15 19.6569 15 18Z" fill="black"/>
<path fill-rule="evenodd" clip-rule="evenodd" d="M7 11C4.79086 11 3 12.7909 3 15C3 17.2091 4.79086 19 7 19C9.20914 19 11 17.2091 11 15C11 12.7909 9.20914 11 7 11ZM1 15C1 11.6863 3.68629 9 7 9C10.3137 9 13 11.6863 13 15C13 18.3137 10.3137 21 7 21C3.68629 21 1 18.3137 1 15Z" fill="black"/>
</svg>
