<svg width="24" height="24" viewBox="0 0 24 24" fill="none" xmlns="http://www.w3.org/2000/svg">
<path fill-rule="evenodd" clip-rule="evenodd" d="M15.3999 8.20006C15.8418 7.86869 16.4686 7.95823 16.7999 8.40006C17.5789 9.43864 17.9999 10.7018 17.9999 12.0001C17.9999 13.2983 17.5789 14.5615 16.7999 15.6001C16.4686 16.0419 15.8418 16.1314 15.3999 15.8001C14.9581 15.4687 14.8686 14.8419 15.1999 14.4001C15.7192 13.7077 15.9999 12.8655 15.9999 12.0001C15.9999 11.1346 15.7192 10.2924 15.1999 9.60006C14.8686 9.15823 14.9581 8.53143 15.3999 8.20006Z" fill="black"/>
<path fill-rule="evenodd" clip-rule="evenodd" d="M18.6569 4.92888C19.0474 4.53836 19.6806 4.53835 20.0711 4.92888C20.9997 5.85746 21.7363 6.95986 22.2389 8.17312C22.7414 9.38639 23.0001 10.6868 23.0001 12C23.0001 13.3132 22.7414 14.6136 22.2389 15.8268C21.7363 17.0401 20.9997 18.1425 20.0711 19.0711C19.6806 19.4616 19.0474 19.4616 18.6569 19.0711C18.2664 18.6806 18.2664 18.0474 18.6569 17.6569C19.3998 16.914 19.9891 16.0321 20.3911 15.0615C20.7932 14.0909 21.0001 13.0506 21.0001 12C21.0001 10.9494 20.7932 9.90911 20.3911 8.9385C19.9891 7.96788 19.3998 7.08597 18.6569 6.3431C18.2664 5.95258 18.2664 5.31941 18.6569 4.92888Z" fill="black"/>
<path fill-rule="evenodd" clip-rule="evenodd" d="M11.4332 4.09871C11.7797 4.26523 12 4.6156 12 5.00001V19C12 19.3844 11.7797 19.7348 11.4332 19.9013C11.0867 20.0678 10.6755 20.021 10.3753 19.7809L5.64922 16H2C1.44772 16 1 15.5523 1 15V9.00001C1 8.44772 1.44772 8.00001 2 8.00001H5.64922L10.3753 4.21914C10.6755 3.979 11.0867 3.93219 11.4332 4.09871ZM10 7.08063L6.62469 9.78088C6.44738 9.92273 6.22707 10 6 10H3V14H6C6.22707 14 6.44738 14.0773 6.62469 14.2191L10 16.9194V7.08063Z" fill="black"/>
</svg>
