<svg width="24" height="24" viewBox="0 0 24 24" fill="none" xmlns="http://www.w3.org/2000/svg">
<path fill-rule="evenodd" clip-rule="evenodd" d="M1.58579 14.5858C1.96086 14.2107 2.46957 14 3 14H21C21.5304 14 22.0391 14.2107 22.4142 14.5858C22.7893 14.9609 23 15.4696 23 16V18C23 18.5304 22.7893 19.0391 22.4142 19.4142C22.0391 19.7893 21.5304 20 21 20H3C2.46957 20 1.96086 19.7893 1.58579 19.4142C1.21071 19.0391 1 18.5304 1 18V16C1 15.4696 1.21071 14.9609 1.58579 14.5858ZM21 16H3V18L21 18V16Z" fill="black"/>
<path fill-rule="evenodd" clip-rule="evenodd" d="M9.58579 3.58579C9.96086 3.21071 10.4696 3 11 3H13C13.5304 3 14.0391 3.21071 14.4142 3.58579C14.7893 3.96086 15 4.46957 15 5V10C15 10.5523 14.5523 11 14 11C13.4477 11 13 10.5523 13 10V5L11 5L11 10C11 10.5523 10.5523 11 10 11C9.44772 11 9 10.5523 9 10V5C9 4.46957 9.21071 3.96086 9.58579 3.58579Z" fill="black"/>
<path fill-rule="evenodd" clip-rule="evenodd" d="M10 7C8.67392 7 7.40215 7.52678 6.46447 8.46447C5.52678 9.40215 5 10.6739 5 12V15C5 15.5523 4.55228 16 4 16C3.44772 16 3 15.5523 3 15V12C3 10.1435 3.7375 8.36301 5.05025 7.05025C6.36301 5.7375 8.14348 5 10 5C10.5523 5 11 5.44772 11 6C11 6.55228 10.5523 7 10 7Z" fill="black"/>
<path fill-rule="evenodd" clip-rule="evenodd" d="M13 6C13 5.44772 13.4477 5 14 5C15.8565 5 17.637 5.7375 18.9497 7.05025C20.2625 8.36301 21 10.1435 21 12V15C21 15.5523 20.5523 16 20 16C19.4477 16 19 15.5523 19 15V12C19 10.6739 18.4732 9.40215 17.5355 8.46447C16.5979 7.52678 15.3261 7 14 7C13.4477 7 13 6.55228 13 6Z" fill="black"/>
</svg>
