<svg width="24" height="24" viewBox="0 0 24 24" fill="none" xmlns="http://www.w3.org/2000/svg">
<path fill-rule="evenodd" clip-rule="evenodd" d="M3 4C3 3.44772 3.44772 3 4 3H20C20.5523 3 21 3.44772 21 4V7C21 7.55228 20.5523 8 20 8C19.4477 8 19 7.55228 19 7V5H5V7C5 7.55228 4.55228 8 4 8C3.44772 8 3 7.55228 3 7V4Z" fill="black"/>
<path fill-rule="evenodd" clip-rule="evenodd" d="M4 20C4 19.4477 4.44772 19 5 19H11C11.5523 19 12 19.4477 12 20C12 20.5523 11.5523 21 11 21H5C4.44772 21 4 20.5523 4 20Z" fill="black"/>
<path fill-rule="evenodd" clip-rule="evenodd" d="M13.2983 3.04554C13.8254 3.21028 14.1192 3.77115 13.9545 4.2983L8.9545 20.2983C8.78977 20.8254 8.22889 21.1192 7.70175 20.9545C7.1746 20.7898 6.88081 20.2289 7.04554 19.7017L12.0455 3.70175C12.2103 3.1746 12.7712 2.88081 13.2983 3.04554Z" fill="black"/>
<path fill-rule="evenodd" clip-rule="evenodd" d="M14.2929 14.2929C14.6834 13.9024 15.3166 13.9024 15.7071 14.2929L20.7071 19.2929C21.0976 19.6834 21.0976 20.3166 20.7071 20.7071C20.3166 21.0976 19.6834 21.0976 19.2929 20.7071L14.2929 15.7071C13.9024 15.3166 13.9024 14.6834 14.2929 14.2929Z" fill="black"/>
<path fill-rule="evenodd" clip-rule="evenodd" d="M20.7071 14.2929C21.0976 14.6834 21.0976 15.3166 20.7071 15.7071L15.7071 20.7071C15.3166 21.0976 14.6834 21.0976 14.2929 20.7071C13.9024 20.3166 13.9024 19.6834 14.2929 19.2929L19.2929 14.2929C19.6834 13.9024 20.3166 13.9024 20.7071 14.2929Z" fill="black"/>
</svg>
