<svg width="24" height="24" viewBox="0 0 24 24" fill="none" xmlns="http://www.w3.org/2000/svg">
<path fill-rule="evenodd" clip-rule="evenodd" d="M6 15C6.55228 15 7 15.4477 7 16V19C7 19.5523 6.55228 20 6 20C5.44772 20 5 19.5523 5 19V16C5 15.4477 5.44772 15 6 15Z" fill="black"/>
<path fill-rule="evenodd" clip-rule="evenodd" d="M10 15C10.5523 15 11 15.4477 11 16V19C11 19.5523 10.5523 20 10 20C9.44772 20 9 19.5523 9 19V16C9 15.4477 9.44772 15 10 15Z" fill="black"/>
<path fill-rule="evenodd" clip-rule="evenodd" d="M14 15C14.5523 15 15 15.4477 15 16V19C15 19.5523 14.5523 20 14 20C13.4477 20 13 19.5523 13 19V16C13 15.4477 13.4477 15 14 15Z" fill="black"/>
<path fill-rule="evenodd" clip-rule="evenodd" d="M18 15C18.5523 15 19 15.4477 19 16V19C19 19.5523 18.5523 20 18 20C17.4477 20 17 19.5523 17 19V16C17 15.4477 17.4477 15 18 15Z" fill="black"/>
<path fill-rule="evenodd" clip-rule="evenodd" d="M8 8C8.55228 8 9 8.44772 9 9V11C9 11.5523 8.55228 12 8 12C7.44772 12 7 11.5523 7 11V9C7 8.44772 7.44772 8 8 8Z" fill="black"/>
<path fill-rule="evenodd" clip-rule="evenodd" d="M16 8C16.5523 8 17 8.44772 17 9V11C17 11.5523 16.5523 12 16 12C15.4477 12 15 11.5523 15 11V9C15 8.44772 15.4477 8 16 8Z" fill="black"/>
<path fill-rule="evenodd" clip-rule="evenodd" d="M12 8C12.5523 8 13 8.44772 13 9V11C13 11.5523 12.5523 12 12 12C11.4477 12 11 11.5523 11 11V9C11 8.44772 11.4477 8 12 8Z" fill="black"/>
<path fill-rule="evenodd" clip-rule="evenodd" d="M1 15C1 14.4477 1.44772 14 2 14H22C22.5523 14 23 14.4477 23 15C23 15.5523 22.5523 16 22 16H2C1.44772 16 1 15.5523 1 15Z" fill="black"/>
<path fill-rule="evenodd" clip-rule="evenodd" d="M4 6C3.73478 6 3.48043 6.10536 3.29289 6.29289C3.10536 6.48043 3 6.73478 3 7V7.42212C3.32297 7.61963 3.6077 7.87774 3.83728 8.1847C4.22523 8.70341 4.43488 9.33376 4.43488 9.9815C4.43488 10.6292 4.22523 11.2596 3.83728 11.7783C3.6077 12.0853 3.32297 12.3434 3 12.5409V17C3 17.2652 3.10536 17.5196 3.29289 17.7071C3.48043 17.8946 3.73478 18 4 18H20C20.2652 18 20.5196 17.8946 20.7071 17.7071C20.8946 17.5196 21 17.2652 21 17V12.5779C20.677 12.3804 20.3923 12.1223 20.1627 11.8153C19.7748 11.2966 19.5651 10.6662 19.5651 10.0185C19.5651 9.37076 19.7748 8.74041 20.1627 8.2217C20.3923 7.91474 20.677 7.65663 21 7.45912V7C21 6.73478 20.8946 6.48043 20.7071 6.29289C20.5196 6.10536 20.2652 6 20 6H4ZM1.87868 4.87868C2.44129 4.31607 3.20435 4 4 4H20C20.7956 4 21.5587 4.31607 22.1213 4.87868C22.6839 5.44129 23 6.20435 23 7V8.1C23 8.54346 22.7079 8.93395 22.2826 9.05925C22.0754 9.12026 21.8936 9.24666 21.7643 9.41957C21.635 9.59247 21.5651 9.80259 21.5651 10.0185C21.5651 10.2344 21.635 10.4445 21.7643 10.6174C21.8936 10.7903 22.0754 10.9167 22.2826 10.9778C22.7079 11.1031 23 11.4935 23 11.937V17C23 17.7957 22.6839 18.5587 22.1213 19.1213C21.5587 19.6839 20.7957 20 20 20H4C3.20435 20 2.44129 19.6839 1.87868 19.1213C1.31607 18.5587 1 17.7956 1 17V11.9C1 11.4565 1.29206 11.0661 1.71744 10.9407C1.92456 10.8797 2.10636 10.7533 2.23568 10.5804C2.365 10.4075 2.43488 10.1974 2.43488 9.9815C2.43488 9.76559 2.365 9.55547 2.23568 9.38257C2.10636 9.20966 1.92456 9.08326 1.71744 9.02225C1.29206 8.89695 1 8.50646 1 8.063V7C1 6.20435 1.31607 5.44129 1.87868 4.87868Z" fill="black"/>
</svg>
