<svg width="24" height="24" viewBox="0 0 24 24" fill="none" xmlns="http://www.w3.org/2000/svg">
<path fill-rule="evenodd" clip-rule="evenodd" d="M19.4472 11.1055C19.9412 11.3525 20.1414 11.9532 19.8944 12.4472L18.3944 15.4472C18.1474 15.9412 17.5467 16.1414 17.0528 15.8944C16.5588 15.6474 16.3586 15.0467 16.6055 14.5528L18.1055 11.5528C18.3525 11.0588 18.9532 10.8586 19.4472 11.1055Z" fill="black"/>
<path fill-rule="evenodd" clip-rule="evenodd" d="M18.7363 18.3613C18.9841 17.8677 19.5851 17.6685 20.0787 17.9164L22.4487 19.1064C22.9423 19.3542 23.1415 19.9552 22.8937 20.4488C22.6458 20.9423 22.0448 21.1415 21.5513 20.8937L19.1813 19.7037C18.6877 19.4559 18.4885 18.8549 18.7363 18.3613Z" fill="black"/>
<path fill-rule="evenodd" clip-rule="evenodd" d="M3.43526 3.03686C4.76752 2.24123 6.3101 1.86895 7.85876 1.96945C9.41098 2.07018 10.8957 2.64107 12.1156 3.60621C13.3354 4.57135 14.2325 5.88499 14.6876 7.37241C15.1422 8.85833 15.1341 10.4473 14.6645 11.9285L14.0272 13.9997C13.9837 14.1473 13.986 14.3047 14.0338 14.451C14.082 14.5982 14.174 14.7272 14.2976 14.8207C14.4211 14.9142 14.5703 14.9677 14.7251 14.974C14.8792 14.9803 15.0316 14.9396 15.162 14.8573C15.1626 14.8569 15.1632 14.8565 15.1637 14.8561L15.5759 14.5911C15.5766 14.5907 15.5772 14.5903 15.5778 14.5899C15.9639 14.3399 16.3955 14.1682 16.8479 14.0847C17.301 14.001 17.7662 14.0074 18.2169 14.1035C18.6675 14.1996 19.0948 14.3835 19.4744 14.6448C19.854 14.906 20.1784 15.2395 20.4291 15.6261C20.6798 16.0127 20.8519 16.4449 20.9355 16.898C21.0192 17.3512 21.0128 17.8163 20.9167 18.267C20.8206 18.7176 20.6367 19.145 20.3754 19.5245C20.1142 19.9041 19.7807 20.2285 19.3941 20.4792L19.392 20.4806L18.9745 20.749C17.6377 21.6248 16.0631 22.0665 14.4657 22.0138C12.8668 21.961 11.3232 21.4153 10.0464 20.4513C8.76951 19.4874 7.8218 18.1524 7.33296 16.6291C6.84438 15.1065 6.83808 13.4702 7.31489 11.944L7.95125 9.87582C7.98699 9.74786 7.98446 9.61219 7.94392 9.48557C7.90273 9.3569 7.82413 9.24342 7.71816 9.1596C7.6122 9.07578 7.48367 9.02543 7.34896 9.01497C7.21793 9.00479 7.08684 9.03281 6.97152 9.09551L6.30637 9.49655C6.30421 9.49786 6.30203 9.49916 6.29985 9.50045C6.29878 9.50109 6.29769 9.50173 6.29661 9.50236C5.49243 9.97487 4.53347 10.1086 3.63072 9.87402C2.72796 9.63949 1.95534 9.05594 1.48284 8.25176C1.01033 7.44757 0.87664 6.48862 1.11117 5.58586C1.2273 5.13886 1.43034 4.71911 1.70869 4.35058C1.98704 3.98204 2.33525 3.67194 2.73344 3.43798C2.73691 3.43594 2.74039 3.43393 2.74389 3.43193L3.43526 3.03686ZM7.72925 3.96525C6.58232 3.89083 5.4399 4.16734 4.45395 4.75801C4.44806 4.76154 4.44213 4.76501 4.43617 4.76841L3.74207 5.16504C3.57222 5.26563 3.42362 5.39842 3.30463 5.55597C3.18457 5.71492 3.097 5.89597 3.04691 6.08876C2.94576 6.47813 3.00342 6.89173 3.20722 7.23858C3.41101 7.58544 3.74425 7.83713 4.13362 7.93828C4.52138 8.03902 4.93319 7.98225 5.27916 7.78049L5.95368 7.37379C5.96178 7.36891 5.96995 7.36414 5.97819 7.35948C6.44182 7.09759 6.97295 6.97974 7.50383 7.02098C8.03471 7.06221 8.54128 7.26065 8.95891 7.59099C9.37654 7.92132 9.6863 8.36858 9.84867 8.8757C10.011 9.38282 10.0187 9.92682 9.87057 10.4383C9.86903 10.4436 9.86744 10.4489 9.86581 10.4543L9.22581 12.5343C9.22535 12.5357 9.2249 12.5372 9.22444 12.5387C8.86997 13.672 8.87447 14.8873 9.23731 16.018C9.60016 17.1487 10.3036 18.1396 11.2514 18.8551C12.1991 19.5706 13.3449 19.9757 14.5317 20.0149C15.7186 20.0541 16.8886 19.7255 17.8815 19.0741C17.8841 19.0724 17.8867 19.0707 17.8893 19.069L18.306 18.8011C18.3064 18.8008 18.3069 18.8005 18.3074 18.8002C18.473 18.6925 18.6159 18.5534 18.7279 18.3906C18.8403 18.2274 18.9194 18.0436 18.9607 17.8499C19.002 17.6561 19.0048 17.456 18.9688 17.2612C18.9328 17.0664 18.8588 16.8805 18.751 16.7142C18.6432 16.548 18.5037 16.4046 18.3405 16.2923C18.1773 16.1799 17.9935 16.1008 17.7997 16.0595C17.6059 16.0182 17.4059 16.0154 17.2111 16.0514C17.0162 16.0874 16.8304 16.1614 16.6641 16.2692C16.663 16.2699 16.6619 16.2706 16.6608 16.2713L16.2408 16.5413C16.2393 16.5423 16.2378 16.5433 16.2363 16.5442C15.7614 16.846 15.2056 16.9953 14.6434 16.9724C14.0812 16.9494 13.5395 16.7551 13.0908 16.4156C12.6421 16.0761 12.3079 15.6076 12.133 15.0728C11.958 14.538 11.9507 13.9626 12.112 13.4235C12.1127 13.421 12.1135 13.4186 12.1142 13.4161L12.7542 11.3361C12.7551 11.3332 12.7561 11.3303 12.757 11.3273C13.105 10.232 13.1113 9.05658 12.7751 7.95752C12.4389 6.85846 11.776 5.8878 10.8746 5.17466C9.97329 4.46152 8.87619 4.03968 7.72925 3.96525Z" fill="black"/>
</svg>
