<svg width="24" height="24" viewBox="0 0 24 24" fill="none" xmlns="http://www.w3.org/2000/svg">
<path fill-rule="evenodd" clip-rule="evenodd" d="M5.50464 7.45127C5.98442 7.17773 6.59512 7.34492 6.86866 7.82471C7.59388 9.09674 7.97528 10.5357 7.97528 12C7.97528 13.4642 7.59388 14.9032 6.86866 16.1753C6.59512 16.6551 5.98442 16.8223 5.50464 16.5487C5.02485 16.2752 4.85766 15.6645 5.1312 15.1847C5.68437 14.2145 5.97528 13.1169 5.97528 12C5.97528 10.8831 5.68437 9.78553 5.1312 8.81529C4.85766 8.3355 5.02485 7.72481 5.50464 7.45127Z" fill="black"/>
<path fill-rule="evenodd" clip-rule="evenodd" d="M8.96754 5.33962C9.44825 5.0677 10.0584 5.23696 10.3303 5.71767C11.4143 7.63404 11.984 9.7983 11.984 12C11.984 14.2017 11.4143 16.366 10.3303 18.2824C10.0584 18.7631 9.44825 18.9323 8.96754 18.6604C8.48684 18.3885 8.31758 17.7784 8.58949 17.2977C9.50359 15.6817 9.984 13.8566 9.984 12C9.984 10.1434 9.50359 8.31836 8.58949 6.70236C8.31758 6.22165 8.48684 5.61153 8.96754 5.33962Z" fill="black"/>
<path fill-rule="evenodd" clip-rule="evenodd" d="M12.413 3.23233C12.8922 2.95779 13.5032 3.12372 13.7778 3.60293C15.2419 6.1587 16.0131 9.0526 16.015 11.9981C16.0169 14.9435 15.2493 17.8384 13.7884 20.396C13.5145 20.8756 12.9037 21.0423 12.4241 20.7683C11.9445 20.4944 11.7778 19.8836 12.0518 19.404C13.3399 17.1489 14.0167 14.5964 14.015 11.9993C14.0134 9.40223 13.3334 6.85061 12.0424 4.59712C11.7678 4.1179 11.9338 3.50686 12.413 3.23233Z" fill="black"/>
<path fill-rule="evenodd" clip-rule="evenodd" d="M15.874 1.13174C16.3536 0.857794 16.9644 1.02447 17.2383 1.50402C19.0645 4.7007 20.025 8.31852 20.025 12C20.025 15.6816 19.0645 19.2994 17.2383 22.4961C16.9644 22.9756 16.3536 23.1423 15.874 22.8684C15.3945 22.5944 15.2278 21.9836 15.5017 21.504C17.1553 18.6095 18.025 15.3336 18.025 12C18.025 8.66649 17.1553 5.39062 15.5017 2.49608C15.2278 2.01653 15.3945 1.4057 15.874 1.13174Z" fill="black"/>
</svg>
