<svg width="24" height="24" viewBox="0 0 24 24" fill="none" xmlns="http://www.w3.org/2000/svg">
<path fill-rule="evenodd" clip-rule="evenodd" d="M11.3712 5.22318C11.3711 5.22323 11.3711 5.22328 11.371 5.22333L2.99921 12.0002C2.56994 12.3477 1.94025 12.2814 1.59277 11.8521C1.24528 11.4228 1.31158 10.7931 1.74085 10.4457L10.113 3.66852C10.647 3.23646 11.3131 3.00073 12 3.00073C12.6869 3.00073 13.353 3.23646 13.887 3.66852L22.2583 10.4457C22.6875 10.7932 22.7538 11.4229 22.4063 11.8521C22.0587 12.2814 21.4291 12.3477 20.9998 12.0001L12.629 5.22333C12.451 5.07931 12.229 5.00073 12 5.00073C11.7711 5.00073 11.5492 5.07925 11.3712 5.22318Z" fill="black"/>
<path fill-rule="evenodd" clip-rule="evenodd" d="M20 15C20 14.4477 20.4477 14 21 14C21.5304 14 22.0391 14.2107 22.4142 14.5858C22.7893 14.9609 23 15.4696 23 16V18C23 18.5304 22.7893 19.0391 22.4142 19.4142C22.0391 19.7893 21.5304 20 21 20H15.75C15.1977 20 14.75 19.5523 14.75 19C14.75 18.4477 15.1977 18 15.75 18H21L21 16C20.4477 16 20 15.5523 20 15Z" fill="black"/>
<path fill-rule="evenodd" clip-rule="evenodd" d="M1.58579 14.5858C1.96086 14.2107 2.46957 14 3 14C3.55228 14 4 14.4477 4 15C4 15.5523 3.55228 16 3 16V18L12 18C12.5523 18 13 18.4477 13 19C13 19.5523 12.5523 20 12 20H3C2.46957 20 1.96086 19.7893 1.58579 19.4142C1.21071 19.0391 1 18.5304 1 18V16C1 15.4696 1.21071 14.9609 1.58579 14.5858Z" fill="black"/>
<path fill-rule="evenodd" clip-rule="evenodd" d="M19.3501 14.1999C19.7919 14.5313 19.8815 15.1581 19.5501 15.5999L16.4001 19.7999C16.1637 20.1151 15.8676 20.3806 15.5286 20.5814C15.1896 20.7821 14.8144 20.9141 14.4244 20.9698C14.0344 21.0255 13.6372 21.0039 13.2556 20.9061C12.8739 20.8083 12.5153 20.6363 12.2001 20.3999L6.06989 15.7998C5.62815 15.4683 5.53877 14.8415 5.87026 14.3997C6.20175 13.958 6.82857 13.8686 7.27031 14.2001L13.4001 18.7999C13.4002 18.8 13.4002 18.8 13.4003 18.8001C13.4003 18.8001 13.4003 18.8001 13.4003 18.8001C13.5053 18.8788 13.6248 18.9361 13.7519 18.9687C13.8791 19.0012 14.0115 19.0085 14.1415 18.9899C14.2715 18.9713 14.3966 18.9273 14.5096 18.8604C14.6226 18.7935 14.7213 18.705 14.8001 18.5999L17.9501 14.3999C18.2815 13.9581 18.9083 13.8686 19.3501 14.1999Z" fill="black"/>
<path fill-rule="evenodd" clip-rule="evenodd" d="M3 12V14H21V12H3ZM1 12C1 10.8954 1.89543 10 3 10H21C22.1046 10 23 10.8954 23 12V14C23 15.1046 22.1046 16 21 16H3C1.89543 16 1 15.1046 1 14V12Z" fill="black"/>
</svg>
