<svg width="24" height="24" viewBox="0 0 24 24" fill="none" xmlns="http://www.w3.org/2000/svg">
<path fill-rule="evenodd" clip-rule="evenodd" d="M8.58475 1.18877C8.84552 1.37672 9.00004 1.67856 9.00004 2.00001C9.00004 2.79566 9.31611 3.55872 9.87872 4.12133C10.4413 4.68394 11.2044 5.00001 12 5.00001C12.7957 5.00001 13.5588 4.68394 14.1214 4.12133C14.684 3.55872 15 2.79566 15 2.00001C15 1.67856 15.1546 1.37672 15.4153 1.18877C15.6761 1.00081 16.0113 0.949675 16.3163 1.05132L20.6961 2.51127C20.6962 2.51129 20.6962 2.51131 20.6963 2.51132C21.3751 2.73753 21.9508 3.19894 22.3193 3.81229C22.6879 4.42562 22.8251 5.15049 22.7062 5.85607C22.7061 5.85614 22.7061 5.85621 22.7061 5.85628L22.1272 9.32C22.127 9.32094 22.1269 9.32188 22.1267 9.32282C22.05 9.79153 21.8091 10.2177 21.4469 10.525C21.0844 10.8326 20.6242 11.001 20.1489 11H19V20C19 20.7957 18.684 21.5587 18.1214 22.1213C17.5588 22.6839 16.7957 23 16 23H8.00004C6.34776 23 5.00004 21.6523 5.00004 20V11H3.85118C3.37584 11.001 2.91568 10.8326 2.55321 10.525C2.19102 10.2177 1.95005 9.79155 1.87339 9.32284L1.29396 5.85628C1.29392 5.85603 1.29388 5.85579 1.29384 5.85555C1.17507 5.15012 1.31229 4.42547 1.68074 3.81229C2.0493 3.19894 2.62495 2.73753 3.30381 2.51132C3.30384 2.51132 3.30386 2.51131 3.30388 2.5113C3.30391 2.51129 3.30393 2.51128 3.30396 2.51127L7.68382 1.05132C7.98876 0.949675 8.32398 1.00081 8.58475 1.18877ZM3.62005 3.46004L3.93612 4.40874C3.70981 4.48414 3.51791 4.63795 3.39505 4.84241C3.27219 5.04688 3.22646 5.28852 3.26612 5.52374L3.84636 8.99515C3.84663 8.99677 3.8469 8.99839 3.84716 9.00001L3.84884 9.00001L6.00004 9.00001C6.55233 9.00001 7.00004 9.44772 7.00004 10V20C7.00004 20.5477 7.45233 21 8.00004 21H16C16.2653 21 16.5196 20.8946 16.7071 20.7071C16.8947 20.5196 17 20.2652 17 20V10C17 9.44772 17.4478 9.00001 18 9.00001H20.15L20.1529 9.00001L20.1532 8.9981L20.1537 8.99515L20.7337 5.52515L20.734 5.52374C20.7736 5.28852 20.7279 5.04687 20.605 4.84241C20.4822 4.63795 20.2903 4.48414 20.064 4.40874L20.38 3.46008L20.0638 4.40869L16.8206 3.32761C16.5926 4.15524 16.1532 4.91787 15.5356 5.53554C14.5979 6.47322 13.3261 7.00001 12 7.00001C10.674 7.00001 9.40219 6.47322 8.46451 5.53554C7.84684 4.91787 7.40746 4.15524 7.1795 3.32761L3.93627 4.40869L3.62005 3.46004Z" fill="black"/>
</svg>
