<svg width="24" height="24" viewBox="0 0 24 24" fill="none" xmlns="http://www.w3.org/2000/svg">
<path fill-rule="evenodd" clip-rule="evenodd" d="M8.38965 4.11724C8.24203 4.03862 8.07705 3.99829 7.9098 3.99993C7.90654 3.99996 7.90327 3.99997 7.9 3.99997H4C3.73478 3.99997 3.48043 4.10533 3.29289 4.29287C3.10536 4.4804 3 4.73476 3 4.99997V18C3 18.2652 3.10536 18.5195 3.29289 18.7071C3.48043 18.8946 3.73478 19 4 19H10.7C11.2523 19 11.7 19.4477 11.7 20C11.7 20.5523 11.2523 21 10.7 21H4C3.20435 21 2.44129 20.6839 1.87868 20.1213C1.31607 19.5587 1 18.7956 1 18V4.99997C1 4.20432 1.31607 3.44126 1.87868 2.87865C2.44129 2.31604 3.20435 1.99997 4 1.99997H7.89559C8.39548 1.99597 8.88846 2.11695 9.32975 2.35195C9.77076 2.58681 10.1461 2.92809 10.4217 3.34477L11.2288 4.5405C11.231 4.54365 11.2331 4.5468 11.2352 4.54997C11.3262 4.68824 11.4502 4.80173 11.5959 4.88028C11.7416 4.95879 11.9045 4.99992 12.07 4.99997C12.0701 4.99997 12.0701 4.99997 12.0702 4.99997H20C20.7956 4.99997 21.5587 5.31604 22.1213 5.87865C22.6839 6.44126 23 7.20432 23 7.99997V12.1C23 12.6523 22.5523 13.1 22 13.1C21.4477 13.1 21 12.6523 21 12.1V7.99997C21 7.73476 20.8946 7.4804 20.7071 7.29287C20.5196 7.10533 20.2652 6.99997 20 6.99997H12.07V5.99812L12.0698 6.99997C11.5732 6.99989 11.0843 6.8765 10.6471 6.64088C10.2117 6.40625 9.84114 6.06764 9.56829 5.65521L8.76115 4.45945C8.75902 4.45629 8.7569 4.45311 8.7548 4.44993C8.66282 4.31024 8.53728 4.19585 8.38965 4.11724Z" fill="black"/>
<path fill-rule="evenodd" clip-rule="evenodd" d="M18.3927 18.3929C18.7833 18.0023 19.4164 18.0023 19.807 18.3929L21.707 20.2929C22.0975 20.6834 22.0975 21.3166 21.707 21.7071C21.3164 22.0976 20.6833 22.0976 20.2927 21.7071L18.3927 19.8071C18.0022 19.4166 18.0022 18.7834 18.3927 18.3929Z" fill="black"/>
<path fill-rule="evenodd" clip-rule="evenodd" d="M17 15C15.8954 15 15 15.8954 15 17C15 18.1046 15.8954 19 17 19C18.1046 19 19 18.1046 19 17C19 15.8954 18.1046 15 17 15ZM13 17C13 14.7909 14.7909 13 17 13C19.2091 13 21 14.7909 21 17C21 19.2091 19.2091 21 17 21C14.7909 21 13 19.2091 13 17Z" fill="black"/>
</svg>
