<svg width="24" height="24" viewBox="0 0 24 24" fill="none" xmlns="http://www.w3.org/2000/svg">
<path fill-rule="evenodd" clip-rule="evenodd" d="M12.374 4.37441L11.6504 6.64303C11.4825 7.1692 11.773 7.7318 12.2992 7.89963C12.8253 8.06746 13.3879 7.77697 13.5558 7.25081L14.9328 2.93381C14.9369 2.92099 14.9407 2.9081 14.9443 2.89513C15.0345 2.56707 15.0105 2.21809 14.8763 1.90545C14.742 1.59282 14.5055 1.33511 14.2054 1.17464C13.9054 1.01416 13.5598 0.960455 13.2252 1.02233C12.9024 1.08202 12.6084 1.24589 12.3881 1.48831L9.79548 4.15944C9.41083 4.55575 9.42028 5.18885 9.81659 5.5735C10.2129 5.95815 10.846 5.9487 11.2306 5.5524L12.374 4.37441Z" fill="black"/>
<path fill-rule="evenodd" clip-rule="evenodd" d="M19.9986 9.00001C20.3764 8.99909 20.7467 9.1052 21.0667 9.30606C21.3872 9.50726 21.6441 9.7953 21.8075 10.1367C21.9709 10.4781 22.034 10.8588 21.9896 11.2347C21.9452 11.6105 21.795 11.9661 21.5566 12.26C21.538 12.283 21.5183 12.3051 21.4978 12.3263L19.7778 14.0993C19.3932 14.4957 18.7601 14.5053 18.3637 14.1208C17.9673 13.7362 17.9577 13.1031 18.3423 12.7067L19.9979 11H15.656C15.1037 11 14.656 10.5523 14.656 10C14.656 9.44772 15.1037 9.00001 15.656 9.00001H19.9986Z" fill="black"/>
<path fill-rule="evenodd" clip-rule="evenodd" d="M8.42351 7.00951C8.8198 7.39419 8.82921 8.02729 8.44453 8.42357L4.0021 13.0001H10.9985C11.3214 12.9993 11.6397 13.0767 11.9262 13.2257C12.2132 13.375 12.4597 13.5917 12.6446 13.8572C12.8294 14.1227 12.9471 14.4291 12.9876 14.75C13.0268 15.0615 12.9921 15.3778 12.8866 15.6732L11.626 19.6254L15.5554 15.5766C15.94 15.1803 16.5731 15.1708 16.9694 15.5554C17.3658 15.9401 17.3752 16.5732 16.9906 16.9695L11.612 22.5117C11.3916 22.7541 11.0977 22.918 10.7749 22.9776C10.4403 23.0395 10.0946 22.9858 9.79461 22.8253C9.49459 22.6649 9.25804 22.4072 9.12379 22.0945C8.98954 21.7819 8.96557 21.4329 9.0558 21.1048C9.05937 21.0919 9.06319 21.079 9.06728 21.0662L10.9873 15.0462C10.9922 15.0307 10.9975 15.0153 11.0032 15C11.0022 15 11.0011 15.0001 11 15.0001H4.00128C3.62355 15.0009 3.25327 14.8948 2.93331 14.694C2.61275 14.4928 2.35587 14.2048 2.1925 13.8634C2.02913 13.522 1.96599 13.1412 2.0104 12.7654C2.05481 12.3895 2.20496 12.034 2.4434 11.74C2.46209 11.717 2.48179 11.6948 2.50246 11.6735L7.00946 7.03053C7.39413 6.63425 8.02723 6.62484 8.42351 7.00951Z" fill="black"/>
<path fill-rule="evenodd" clip-rule="evenodd" d="M1.29289 1.29289C1.68342 0.902369 2.31658 0.902369 2.70711 1.29289L22.7071 21.2929C23.0976 21.6834 23.0976 22.3166 22.7071 22.7071C22.3166 23.0976 21.6834 23.0976 21.2929 22.7071L1.29289 2.70711C0.902369 2.31658 0.902369 1.68342 1.29289 1.29289Z" fill="black"/>
</svg>
