<svg width="24" height="24" viewBox="0 0 24 24" fill="none" xmlns="http://www.w3.org/2000/svg">
<path fill-rule="evenodd" clip-rule="evenodd" d="M12.2071 8.79289C12.5976 9.18342 12.5976 9.81658 12.2071 10.2071L4.20709 18.2071C3.9968 18.4174 3.87866 18.7026 3.87866 19C3.87866 19.2974 3.9968 19.5826 4.20709 19.7929C4.41738 20.0032 4.70259 20.1213 4.99998 20.1213C5.29737 20.1213 5.58259 20.0032 5.79288 19.7929L13.7929 11.7929C14.1834 11.4024 14.8166 11.4024 15.2071 11.7929C15.5976 12.1834 15.5976 12.8166 15.2071 13.2071L7.20709 21.2071C6.62173 21.7925 5.82781 22.1213 4.99998 22.1213C4.17216 22.1213 3.37824 21.7925 2.79288 21.2071C2.20751 20.6217 1.87866 19.8278 1.87866 19C1.87866 18.1722 2.20751 17.3783 2.79288 16.7929L10.7929 8.79289C11.1834 8.40237 11.8166 8.40237 12.2071 8.79289Z" fill="black"/>
<path fill-rule="evenodd" clip-rule="evenodd" d="M22.7071 9.29289C23.0976 9.68342 23.0976 10.3166 22.7071 10.7071L16.7071 16.7071C16.3166 17.0976 15.6834 17.0976 15.2929 16.7071C14.9024 16.3166 14.9024 15.6834 15.2929 15.2929L21.2929 9.29289C21.6834 8.90237 22.3166 8.90237 22.7071 9.29289Z" fill="black"/>
<path fill-rule="evenodd" clip-rule="evenodd" d="M14.7071 1.29289C15.0976 1.68342 15.0976 2.31658 14.7071 2.70711L8.70711 8.70711C8.31658 9.09763 7.68342 9.09763 7.29289 8.70711C6.90237 8.31658 6.90237 7.68342 7.29289 7.29289L13.2929 1.29289C13.6834 0.902369 14.3166 0.902369 14.7071 1.29289Z" fill="black"/>
<path fill-rule="evenodd" clip-rule="evenodd" d="M8.29289 6.29289C8.68342 5.90237 9.31658 5.90237 9.70711 6.29289L17.7071 14.2929C18.0976 14.6834 18.0976 15.3166 17.7071 15.7071C17.3166 16.0976 16.6834 16.0976 16.2929 15.7071L8.29289 7.70711C7.90237 7.31658 7.90237 6.68342 8.29289 6.29289Z" fill="black"/>
<path fill-rule="evenodd" clip-rule="evenodd" d="M12.2929 2.29289C12.6834 1.90237 13.3166 1.90237 13.7071 2.29289L21.7071 10.2929C22.0976 10.6834 22.0976 11.3166 21.7071 11.7071C21.3166 12.0976 20.6834 12.0976 20.2929 11.7071L12.2929 3.70711C11.9024 3.31658 11.9024 2.68342 12.2929 2.29289Z" fill="black"/>
</svg>
