<svg width="24" height="24" viewBox="0 0 24 24" fill="none" xmlns="http://www.w3.org/2000/svg">
<path fill-rule="evenodd" clip-rule="evenodd" d="M9 3C9 2.44772 9.44772 2 10 2H10.01C10.5623 2 11.01 2.44772 11.01 3C11.01 3.55228 10.5623 4 10.01 4H10C9.44772 4 9 3.55228 9 3Z" fill="black"/>
<path fill-rule="evenodd" clip-rule="evenodd" d="M13 2C13 1.44772 13.4477 1 14 1H14.01C14.5623 1 15.01 1.44772 15.01 2C15.01 2.55228 14.5623 3 14.01 3H14C13.4477 3 13 2.55228 13 2Z" fill="black"/>
<path fill-rule="evenodd" clip-rule="evenodd" d="M22.9701 3.75746C23.1041 4.29325 22.7783 4.83619 22.2425 4.97013L2.24253 9.97013C1.70673 10.1041 1.1638 9.77832 1.02985 9.24253C0.895901 8.70673 1.22166 8.1638 1.75746 8.02985L21.7575 3.02985C22.2933 2.8959 22.8362 3.22166 22.9701 3.75746Z" fill="black"/>
<path fill-rule="evenodd" clip-rule="evenodd" d="M12 5.5C12.5523 5.5 13 5.94772 13 6.5V12C13 12.5523 12.5523 13 12 13C11.4477 13 11 12.5523 11 12V6.5C11 5.94772 11.4477 5.5 12 5.5Z" fill="black"/>
<path fill-rule="evenodd" clip-rule="evenodd" d="M7 13C5.89543 13 5 13.8954 5 15V19C5 20.1046 5.89543 21 7 21H17C18.1046 21 19 20.1046 19 19V15C19 13.8954 18.1046 13 17 13H7ZM3 15C3 12.7909 4.79086 11 7 11H17C19.2091 11 21 12.7909 21 15V19C21 21.2091 19.2091 23 17 23H7C4.79086 23 3 21.2091 3 19V15Z" fill="black"/>
<path fill-rule="evenodd" clip-rule="evenodd" d="M9 11C9.55228 11 10 11.4477 10 12V17C10 17.5523 9.55228 18 9 18C8.44772 18 8 17.5523 8 17V12C8 11.4477 8.44772 11 9 11Z" fill="black"/>
<path fill-rule="evenodd" clip-rule="evenodd" d="M15 11C15.5523 11 16 11.4477 16 12V17C16 17.5523 15.5523 18 15 18C14.4477 18 14 17.5523 14 17V12C14 11.4477 14.4477 11 15 11Z" fill="black"/>
<path fill-rule="evenodd" clip-rule="evenodd" d="M3 17C3 16.4477 3.44772 16 4 16H20C20.5523 16 21 16.4477 21 17C21 17.5523 20.5523 18 20 18H4C3.44772 18 3 17.5523 3 17Z" fill="black"/>
</svg>
