<svg width="24" height="24" viewBox="0 0 24 24" fill="none" xmlns="http://www.w3.org/2000/svg">
<path fill-rule="evenodd" clip-rule="evenodd" d="M12.3215 2.0531C12.6594 2.16783 12.9106 2.45395 12.9806 2.8039C13.4326 5.0638 14.8008 7.26004 16.6247 8.71915C18.8043 10.4628 20 12.6294 20 15C20 16.0506 19.7931 17.0909 19.391 18.0615C18.989 19.0321 18.3997 19.914 17.6569 20.6569C16.914 21.3997 16.0321 21.989 15.0615 22.3911C14.0909 22.7931 13.0506 23 12 23C10.9494 23 9.90914 22.7931 8.93853 22.3911C7.96793 21.989 7.08601 21.3997 6.34315 20.6569C5.60028 19.914 5.011 19.0321 4.60896 18.0615C4.20693 17.0909 4 16.0506 4 15C4 13.6266 4.50618 12.263 5.22032 11.3738C5.48603 11.043 5.93162 10.9159 6.3319 11.0567C6.73219 11.1975 7 11.5757 7 12C7 12.3978 7.15804 12.7794 7.43934 13.0607C7.72064 13.342 8.10218 13.5 8.5 13.5C8.89782 13.5 9.27936 13.342 9.56066 13.0607C9.84196 12.7794 10 12.3978 10 12C10 11.139 9.789 10.7432 9.41857 10.0485C9.32428 9.87163 9.21967 9.67542 9.10557 9.44723C8.45529 8.14717 8.36858 6.85 8.82311 5.58742C9.26089 4.3714 10.1696 3.27287 11.3415 2.24744C11.6101 2.01243 11.9835 1.93837 12.3215 2.0531ZM10 9.00002L10.8944 8.5528C10.968 8.69986 11.048 8.84738 11.1302 8.99904C11.5376 9.75008 12 10.6024 12 12C12 12.9283 11.6313 13.8185 10.9749 14.4749C10.3185 15.1313 9.42826 15.5 8.5 15.5C7.57649 15.5 6.69062 15.135 6.03523 14.485C6.01238 14.6545 6 14.827 6 15C6 15.7879 6.15519 16.5682 6.45672 17.2961C6.75825 18.0241 7.20021 18.6855 7.75736 19.2427C8.31451 19.7998 8.97595 20.2418 9.7039 20.5433C10.4319 20.8448 11.2121 21 12 21C12.7879 21 13.5681 20.8448 14.2961 20.5433C15.0241 20.2418 15.6855 19.7998 16.2426 19.2427C16.7998 18.6855 17.2417 18.0241 17.5433 17.2961C17.8448 16.5682 18 15.7879 18 15C18 13.3706 17.1957 11.7372 15.3753 10.2809C13.6615 8.90985 12.2853 7.00364 11.5103 4.91713C11.1227 5.39039 10.8584 5.83833 10.7049 6.26487C10.4474 6.97998 10.4727 7.70975 10.8943 8.55264L10 9.00002Z" fill="black"/>
</svg>
