<svg width="24" height="24" viewBox="0 0 24 24" fill="none" xmlns="http://www.w3.org/2000/svg">
<path fill-rule="evenodd" clip-rule="evenodd" d="M15 10C15 9.44772 15.4477 9 16 9H18C18.5523 9 19 9.44772 19 10C19 10.5523 18.5523 11 18 11H16C15.4477 11 15 10.5523 15 10Z" fill="black"/>
<path fill-rule="evenodd" clip-rule="evenodd" d="M15 14C15 13.4477 15.4477 13 16 13H18C18.5523 13 19 13.4477 19 14C19 14.5523 18.5523 15 18 15H16C15.4477 15 15 14.5523 15 14Z" fill="black"/>
<path fill-rule="evenodd" clip-rule="evenodd" d="M9.00019 13.9955C8.58607 13.9955 8.18215 14.124 7.84421 14.3634C7.50626 14.6028 7.25095 14.9411 7.11353 15.3318C6.93025 15.8528 6.35934 16.1266 5.83835 15.9433C5.31736 15.76 5.04359 15.1891 5.22686 14.6681C5.50171 13.8868 6.01233 13.21 6.68822 12.7313C7.36411 12.2526 8.17194 11.9955 9.00019 11.9955C9.82845 11.9955 10.6363 12.2526 11.3122 12.7313C11.9881 13.21 12.4987 13.8868 12.7735 14.6681C12.9568 15.1891 12.683 15.76 12.162 15.9433C11.6411 16.1266 11.0701 15.8528 10.8869 15.3318C10.7494 14.9411 10.4941 14.6028 10.1562 14.3634C9.81824 14.124 9.41432 13.9955 9.00019 13.9955Z" fill="black"/>
<path fill-rule="evenodd" clip-rule="evenodd" d="M9 10C8.44772 10 8 10.4477 8 11C8 11.5523 8.44772 12 9 12C9.55228 12 10 11.5523 10 11C10 10.4477 9.55228 10 9 10ZM6 11C6 9.34315 7.34315 8 9 8C10.6569 8 12 9.34315 12 11C12 12.6569 10.6569 14 9 14C7.34315 14 6 12.6569 6 11Z" fill="black"/>
<path fill-rule="evenodd" clip-rule="evenodd" d="M4 6C3.44772 6 3 6.44772 3 7V17C3 17.5523 3.44772 18 4 18H20C20.5523 18 21 17.5523 21 17V7C21 6.44772 20.5523 6 20 6H4ZM1 7C1 5.34315 2.34315 4 4 4H20C21.6569 4 23 5.34315 23 7V17C23 18.6569 21.6569 20 20 20H4C2.34315 20 1 18.6569 1 17V7Z" fill="black"/>
</svg>
