<svg width="24" height="24" viewBox="0 0 24 24" fill="none" xmlns="http://www.w3.org/2000/svg">
<path fill-rule="evenodd" clip-rule="evenodd" d="M6.24185 2.62908C7.97372 1.56442 9.96675 1.00053 11.9997 1C12.3998 0.999896 12.7614 1.23825 12.9191 1.60596C13.0767 1.97367 13 2.39995 12.7241 2.68966C10.3334 5.19987 8.99996 8.53352 8.99996 12C8.99996 15.0991 10.0657 18.092 11.9999 20.4853C13.3357 18.8322 14.2658 16.8826 14.7076 14.7931C14.8218 14.2528 15.3525 13.9074 15.8928 14.0216C16.4332 14.1359 16.7786 14.6665 16.6643 15.2069C16.2477 17.1772 15.453 19.0391 14.3326 20.6932C15.6481 20.3406 16.8703 19.6929 17.9043 18.7948C19.1601 17.7041 20.089 16.2867 20.588 14.7C20.7537 14.1732 21.3151 13.8804 21.842 14.0461C22.3688 14.2117 22.6616 14.7732 22.4959 15.3C21.886 17.2393 20.7506 18.9717 19.2158 20.3048C17.681 21.6379 15.8067 22.5196 13.8011 22.852C11.7956 23.1844 9.73709 22.9545 7.85425 22.1878C5.97141 21.4211 4.33785 20.1477 3.13493 18.5088C1.93201 16.87 1.20678 14.9298 1.03976 12.9038C0.872731 10.8777 1.27044 8.84496 2.18873 7.03123C3.10703 5.21751 4.50998 3.69374 6.24185 2.62908ZM9.66597 20.6914C9.30764 20.5951 8.95444 20.4763 8.60849 20.3355C7.06798 19.7082 5.73144 18.6663 4.74723 17.3254C3.76302 15.9845 3.16965 14.3971 3.033 12.7394C2.89634 11.0817 3.22174 9.4186 3.97307 7.93465C4.7244 6.45069 5.87227 5.20397 7.28925 4.33288C8.03153 3.87657 8.83244 3.53269 9.66597 3.30861C7.93945 5.85805 6.99996 8.88223 6.99996 12C6.99996 15.1178 7.93945 18.142 9.66597 20.6914Z" fill="black"/>
<path fill-rule="evenodd" clip-rule="evenodd" d="M1 12C1 11.4477 1.44772 11 2 11H10.5C11.0523 11 11.5 11.4477 11.5 12C11.5 12.5523 11.0523 13 10.5 13H2C1.44772 13 1 12.5523 1 12Z" fill="black"/>
<path fill-rule="evenodd" clip-rule="evenodd" d="M15.8787 1.87868C16.4413 1.31607 17.2044 1 18 1C18.7956 1 19.5587 1.31607 20.1213 1.87868C20.6839 2.44129 21 3.20435 21 4V6C21 6.55228 20.5523 7 20 7C19.4477 7 19 6.55228 19 6V4C19 3.73478 18.8946 3.48043 18.7071 3.29289C18.5196 3.10536 18.2652 3 18 3C17.7348 3 17.4804 3.10536 17.2929 3.29289C17.1054 3.48043 17 3.73478 17 4V6C17 6.55228 16.5523 7 16 7C15.4477 7 15 6.55228 15 6V4C15 3.20435 15.3161 2.44129 15.8787 1.87868Z" fill="black"/>
<path fill-rule="evenodd" clip-rule="evenodd" d="M15 7V10H21V7H15ZM21.0012 9.99995C21.0013 9.99995 21.0013 9.99995 21.0012 9.99995L21.0012 9.99995ZM14.9988 9.99995C14.9987 9.99995 14.9987 9.99995 14.9988 9.99995L14.9988 9.99995ZM13 7C13 5.89543 13.8954 5 15 5H21C22.1046 5 23 5.89543 23 7V10C23 11.1046 22.1046 12 21 12H15C13.8954 12 13 11.1046 13 10V7Z" fill="black"/>
</svg>
