<svg width="24" height="24" viewBox="0 0 24 24" fill="none" xmlns="http://www.w3.org/2000/svg">
<path fill-rule="evenodd" clip-rule="evenodd" d="M12 3C11.4477 3 11 3.44772 11 4C11 4.55228 11.4477 5 12 5C12.5523 5 13 4.55228 13 4C13 3.44772 12.5523 3 12 3ZM9 4C9 2.34315 10.3431 1 12 1C13.6569 1 15 2.34315 15 4C15 5.65685 13.6569 7 12 7C10.3431 7 9 5.65685 9 4Z" fill="black"/>
<path fill-rule="evenodd" clip-rule="evenodd" d="M11.1858 3.03219C11.2785 3.57664 10.9123 4.09314 10.3678 4.18581C6.15088 4.90358 3 8.58503 3 13C3 13.2652 3.10536 13.5196 3.29289 13.7071C3.48043 13.8946 3.73478 14 4 14C4.26522 14 4.51957 13.8946 4.70711 13.7071C4.89464 13.5196 5 13.2652 5 13V12C5 11.2043 5.31607 10.4413 5.87868 9.87867C6.44129 9.31606 7.20435 8.99999 8 8.99999C8.79565 8.99999 9.55871 9.31606 10.1213 9.87867C10.6839 10.4413 11 11.2043 11 12V16C11 16.2652 11.1054 16.5196 11.2929 16.7071C11.4804 16.8946 11.7348 17 12 17C12.2652 17 12.5196 16.8946 12.7071 16.7071C12.8946 16.5196 13 16.2652 13 16V12C13 11.2043 13.3161 10.4413 13.8787 9.87867C14.4413 9.31606 15.2043 8.99999 16 8.99999C16.7957 8.99999 17.5587 9.31606 18.1213 9.87867C18.6839 10.4413 19 11.2043 19 12V13C19 13.2652 19.1054 13.5196 19.2929 13.7071C19.4804 13.8946 19.7348 14 20 14C20.2652 14 20.5196 13.8946 20.7071 13.7071C20.8946 13.5196 21 13.2652 21 13C21 8.58503 17.8491 4.90358 13.6322 4.18581C13.0877 4.09314 12.7215 3.57664 12.8142 3.03219C12.9069 2.48774 13.4233 2.1215 13.9678 2.21417C19.1509 3.09639 23 7.61495 23 13C23 13.7956 22.6839 14.5587 22.1213 15.1213C21.5587 15.6839 20.7957 16 20 16C19.2043 16 18.4413 15.6839 17.8787 15.1213C17.3161 14.5587 17 13.7956 17 13V12C17 11.7348 16.8946 11.4804 16.7071 11.2929C16.5196 11.1053 16.2652 11 16 11C15.7348 11 15.4804 11.1053 15.2929 11.2929C15.1054 11.4804 15 11.7348 15 12V16C15 16.7956 14.6839 17.5587 14.1213 18.1213C13.5587 18.6839 12.7957 19 12 19C11.2043 19 10.4413 18.6839 9.87868 18.1213C9.31607 17.5587 9 16.7956 9 16V12C9 11.7348 8.89464 11.4804 8.70711 11.2929C8.51957 11.1053 8.26522 11 8 11C7.73478 11 7.48043 11.1053 7.29289 11.2929C7.10536 11.4804 7 11.7348 7 12V13C7 13.7956 6.68393 14.5587 6.12132 15.1213C5.55871 15.6839 4.79565 16 4 16C3.20435 16 2.44129 15.6839 1.87868 15.1213C1.31607 14.5587 1 13.7956 1 13C1 7.61495 4.84912 3.09639 10.0322 2.21417C10.5767 2.1215 11.0931 2.48774 11.1858 3.03219Z" fill="black"/>
<path fill-rule="evenodd" clip-rule="evenodd" d="M2.99027 13.8222C3.53028 13.7065 4.06191 14.0504 4.17769 14.5904C4.56143 16.3801 5.54732 17.9842 6.97086 19.1348C8.3944 20.2855 10.1695 20.9132 11.9999 20.9132C13.8304 20.9132 15.6054 20.2855 17.029 19.1348C18.4525 17.9842 19.4384 16.3801 19.8221 14.5904C19.9379 14.0504 20.4695 13.7065 21.0096 13.8222C21.5496 13.938 21.8935 14.4696 21.7777 15.0097C21.298 17.2469 20.0657 19.2519 18.2862 20.6902C16.5068 22.1286 14.288 22.9132 11.9999 22.9132C9.71187 22.9132 7.49302 22.1286 5.7136 20.6902C3.93417 19.2519 2.70181 17.2469 2.22214 15.0097C2.10635 14.4696 2.45026 13.938 2.99027 13.8222Z" fill="black"/>
</svg>
