<svg width="24" height="24" viewBox="0 0 24 24" fill="none" xmlns="http://www.w3.org/2000/svg">
<path fill-rule="evenodd" clip-rule="evenodd" d="M5.40936 5.40949L10.8935 18.909L12.0949 14.248C12.2294 13.7293 12.5004 13.256 12.8798 12.8775C13.259 12.499 13.7327 12.2291 14.2516 12.0956C14.2517 12.0956 14.2518 12.0955 14.2519 12.0955L18.9094 10.8939L5.40936 5.40949ZM5.07206 3.11372C4.80051 2.99919 4.50104 2.96743 4.21131 3.02263C3.9168 3.07874 3.64596 3.2221 3.43397 3.43409C3.22198 3.64609 3.07862 3.91692 3.02251 4.21143C2.96731 4.50116 2.99907 4.80063 3.1136 5.07219L9.61081 21.0653C9.72972 21.3572 9.93753 21.6042 10.2048 21.7713C10.472 21.9383 10.7851 22.017 11.0995 21.9961C11.414 21.9751 11.7139 21.8557 11.9566 21.6547C12.1993 21.4537 12.3726 21.1814 12.4518 20.8763L14.0309 14.75C14.0309 14.75 14.0309 14.7499 14.0309 14.7498C14.0758 14.577 14.1661 14.4193 14.2925 14.2932C14.4189 14.167 14.5769 14.077 14.7499 14.0325L14.7507 14.0323L20.8762 12.4519C21.1812 12.3727 21.4536 12.1995 21.6546 11.9567C21.8556 11.714 21.975 11.4141 21.9959 11.0996C22.0169 10.7852 21.9382 10.4721 21.7711 10.2049C21.6041 9.93765 21.3571 9.72984 21.0652 9.61093L5.07206 3.11372Z" fill="black"/>
</svg>
