<svg width="24" height="24" viewBox="0 0 24 24" fill="none" xmlns="http://www.w3.org/2000/svg">
<path fill-rule="evenodd" clip-rule="evenodd" d="M9 12C9 11.4477 9.44772 11 10 11H21C21.5523 11 22 11.4477 22 12C22 12.5523 21.5523 13 21 13H10C9.44772 13 9 12.5523 9 12Z" fill="black"/>
<path fill-rule="evenodd" clip-rule="evenodd" d="M9 18C9 17.4477 9.44772 17 10 17H21C21.5523 17 22 17.4477 22 18C22 18.5523 21.5523 19 21 19H10C9.44772 19 9 18.5523 9 18Z" fill="black"/>
<path fill-rule="evenodd" clip-rule="evenodd" d="M9 6C9 5.44772 9.44772 5 10 5H21C21.5523 5 22 5.44772 22 6C22 6.55228 21.5523 7 21 7H10C9.44772 7 9 6.55228 9 6Z" fill="black"/>
<path fill-rule="evenodd" clip-rule="evenodd" d="M3 10C3 9.44772 3.44772 9 4 9H6C6.55228 9 7 9.44772 7 10C7 10.5523 6.55228 11 6 11H4C3.44772 11 3 10.5523 3 10Z" fill="black"/>
<path fill-rule="evenodd" clip-rule="evenodd" d="M3 6C3 5.44772 3.44772 5 4 5H5C5.55228 5 6 5.44772 6 6V10C6 10.5523 5.55228 11 5 11C4.44772 11 4 10.5523 4 10V7C3.44772 7 3 6.55228 3 6Z" fill="black"/>
<path fill-rule="evenodd" clip-rule="evenodd" d="M5.82219 13.043C6.54543 13.4047 6.99998 14.1319 6.99998 15C6.99998 15.5763 6.71806 16.0425 6.48748 16.35C6.31395 16.5813 6.1052 16.8044 5.91309 17H5.99998C6.55226 17 6.99998 17.4477 6.99998 18C6.99998 18.5522 6.55226 19 5.99998 19H3.99997C3.44769 19 2.99997 18.5522 2.99997 18C2.99997 17.4237 3.28189 16.9574 3.51248 16.65C3.74323 16.3423 4.03626 16.0494 4.26965 15.8161C4.27746 15.8083 4.2852 15.8005 4.29287 15.7929C4.55594 15.5298 4.75095 15.332 4.88748 15.15C4.96287 15.0494 4.99021 14.9922 4.99911 14.9713C4.99535 14.9111 4.9803 14.882 4.9739 14.8715C4.96613 14.8587 4.95382 14.8449 4.92776 14.8319C4.87723 14.8066 4.71156 14.7622 4.44719 14.8944C3.95321 15.1414 3.35254 14.9412 3.10555 14.4472C2.85856 13.9532 3.05878 13.3525 3.55276 13.1055C4.28839 12.7377 5.12272 12.6933 5.82219 13.043Z" fill="black"/>
</svg>
