<svg width="24" height="24" viewBox="0 0 24 24" fill="none" xmlns="http://www.w3.org/2000/svg">
<path fill-rule="evenodd" clip-rule="evenodd" d="M14.9567 4.36899C14.4736 3.83223 13.6384 3.7758 13.0071 4.40713L3.40707 14.0071C3.39467 14.0195 3.38196 14.0316 3.36893 14.0433C2.83217 14.5264 2.77573 15.3616 3.40707 15.9929L7.70707 20.2929C8.09759 20.6834 8.09759 21.3166 7.70707 21.7071C7.31654 22.0977 6.68338 22.0977 6.29286 21.7071L1.99286 17.4071C0.630799 16.0451 0.568334 13.8945 2.00991 12.5759L11.5929 2.99292C12.9549 1.63086 15.1055 1.56839 16.4241 3.00997L22.0071 8.59292C23.3691 9.95497 23.4316 12.1055 21.99 13.4242L13.7071 21.7071C13.3165 22.0977 12.6834 22.0977 12.2929 21.7071C11.9023 21.3166 11.9023 20.6834 12.2929 20.2929L20.5929 11.9929C20.6052 11.9805 20.618 11.9685 20.631 11.9567C21.1678 11.4736 21.2242 10.6385 20.5929 10.0071L14.9929 4.40713C14.9805 4.39474 14.9684 4.38202 14.9567 4.36899Z" fill="black"/>
<path fill-rule="evenodd" clip-rule="evenodd" d="M6 21C6 20.4477 6.44772 20 7 20H22C22.5523 20 23 20.4477 23 21C23 21.5523 22.5523 22 22 22H7C6.44772 22 6 21.5523 6 21Z" fill="black"/>
<path fill-rule="evenodd" clip-rule="evenodd" d="M4.29289 10.2929C4.68342 9.90237 5.31658 9.90237 5.70711 10.2929L14.7071 19.2929C15.0976 19.6834 15.0976 20.3166 14.7071 20.7071C14.3166 21.0976 13.6834 21.0976 13.2929 20.7071L4.29289 11.7071C3.90237 11.3166 3.90237 10.6834 4.29289 10.2929Z" fill="black"/>
</svg>
