<svg width="24" height="24" viewBox="0 0 24 24" fill="none" xmlns="http://www.w3.org/2000/svg">
<path fill-rule="evenodd" clip-rule="evenodd" d="M21.3481 11.8583C18.5001 9.40982 14.8623 8.07484 11.1067 8.09996C10.5544 8.10365 10.1037 7.65894 10.1 7.10667C10.0963 6.5544 10.541 6.1037 11.0933 6.1C15.332 6.07165 19.4377 7.57834 22.6519 10.3417C23.0707 10.7017 23.1183 11.3331 22.7583 11.7519C22.3982 12.1707 21.7668 12.2183 21.3481 11.8583Z" fill="black"/>
<path fill-rule="evenodd" clip-rule="evenodd" d="M12.5969 11.1977C13.04 11.5274 13.132 12.1539 12.8023 12.597C11.6902 14.0918 10.2829 15.3421 8.66751 16.2705C7.05216 17.1989 5.26329 17.7854 3.41186 17.9938C2.86304 18.0556 2.36806 17.6607 2.30629 17.1119C2.24452 16.5631 2.63936 16.0681 3.18818 16.0063C4.76734 15.8286 6.29314 15.3283 7.67094 14.5365C9.04874 13.7446 10.2491 12.6781 11.1977 11.4032C11.5274 10.9601 12.1538 10.8681 12.5969 11.1977Z" fill="black"/>
<path fill-rule="evenodd" clip-rule="evenodd" d="M17.2919 12.7294C17.7727 13.0011 17.9423 13.6111 17.6706 14.0919C15.5654 17.818 12.1714 20.6464 8.1268 22.0451C7.60484 22.2256 7.03538 21.9488 6.85488 21.4269C6.67437 20.9049 6.95116 20.3355 7.47311 20.1549C11.0568 18.9156 14.064 16.4095 15.9293 13.1081C16.201 12.6273 16.811 12.4577 17.2919 12.7294Z" fill="black"/>
<path fill-rule="evenodd" clip-rule="evenodd" d="M12.3759 1.07338C12.8876 1.281 13.1342 1.86419 12.9266 2.37596C11.7948 5.16554 11.7278 8.26673 12.7253 11.0932C14.3546 11.3616 15.9241 11.9205 17.3586 12.7449C18.9704 13.6713 20.3784 14.9137 21.4982 16.3977C21.8308 16.8386 21.7431 17.4656 21.3022 17.7983C20.8614 18.1309 20.2343 18.0432 19.9017 17.6023C18.9442 16.3334 17.7402 15.271 16.362 14.479C14.9838 13.6869 13.4598 13.1814 11.8814 12.993C11.5197 12.9498 11.2102 12.7134 11.0733 12.376C9.67463 8.92846 9.67463 5.07158 11.0733 1.62408C11.2809 1.11231 11.8641 0.86575 12.3759 1.07338Z" fill="black"/>
<path fill-rule="evenodd" clip-rule="evenodd" d="M6.49496 2.81917C7.03665 2.92679 7.38854 3.45316 7.28092 3.99486C6.54602 7.69389 7.18046 11.5339 9.06612 14.8C9.34226 15.2783 9.17838 15.8899 8.70009 16.166C8.2218 16.4422 7.61021 16.2783 7.33406 15.8C5.20588 12.1139 4.48984 7.77991 5.31926 3.60513C5.42688 3.06343 5.95326 2.71154 6.49496 2.81917Z" fill="black"/>
<path fill-rule="evenodd" clip-rule="evenodd" d="M12 3C7.02944 3 3 7.02944 3 12C3 16.9706 7.02944 21 12 21C16.9706 21 21 16.9706 21 12C21 7.02944 16.9706 3 12 3ZM1 12C1 5.92487 5.92487 1 12 1C18.0751 1 23 5.92487 23 12C23 18.0751 18.0751 23 12 23C5.92487 23 1 18.0751 1 12Z" fill="black"/>
</svg>
