<svg width="24" height="24" viewBox="0 0 24 24" fill="none" xmlns="http://www.w3.org/2000/svg">
<path fill-rule="evenodd" clip-rule="evenodd" d="M2.90481 3.70604C4.11659 2.50536 5.75571 1.83523 7.46158 1.84309C9.16745 1.85094 10.8003 2.53612 12.001 3.7479C13.2011 4.9591 13.8712 6.59721 13.864 8.30219V14.0001C13.864 14.0286 13.8628 14.0571 13.8603 14.0855C13.7924 14.8774 13.441 15.6183 12.8706 16.1718C12.3001 16.7254 11.5491 17.0544 10.7555 17.0985C10.702 17.1015 10.6485 17.1002 10.5953 17.0946L9.79998 17.0109V20.0001C9.79998 20.5524 9.35226 21.0001 8.79998 21.0001C8.24769 21.0001 7.79998 20.5524 7.79998 20.0001V15.9001C7.79998 15.6166 7.92026 15.3465 8.13091 15.1569C8.34156 14.9672 8.62278 14.8759 8.90466 14.9056L10.7133 15.096C11.0004 15.0647 11.2696 14.9385 11.4777 14.7365C11.6936 14.527 11.8299 14.2494 11.864 13.9512V8.30008C11.864 8.29854 11.864 8.29701 11.864 8.29547C11.8694 7.12003 11.4076 5.99058 10.5803 5.15559C9.75297 4.32061 8.62782 3.84847 7.45238 3.84306C6.27693 3.83765 5.14749 4.29941 4.3125 5.12675C3.47803 5.95356 3.00597 7.07782 2.99998 8.25246C3.00016 9.56182 3.15212 10.2117 3.31638 10.6882C3.37934 10.8708 3.44061 11.0207 3.51237 11.1963C3.54802 11.2835 3.58625 11.3771 3.62857 11.4841C3.74782 11.7858 3.87095 12.1292 3.97164 12.5634C4.24116 13.6191 4.25188 14.7244 4.00283 15.7853C4.00271 15.7858 4.00258 15.7863 4.00245 15.7869L2.97418 20.2258C2.84954 20.7638 2.31234 21.0989 1.7743 20.9743C1.23626 20.8496 0.901138 20.3124 1.02578 19.7744L2.05478 15.3324C2.05502 15.3314 2.05526 15.3303 2.0555 15.3293C2.23195 14.5785 2.22372 13.7962 2.03153 13.0493C2.02938 13.0409 2.02734 13.0326 2.02541 13.0242C1.95463 12.7164 1.86799 12.4707 1.76863 12.2194C1.74325 12.1552 1.71441 12.0845 1.68358 12.009C1.60234 11.8099 1.50732 11.5771 1.42557 11.34C1.17593 10.6158 0.999978 9.73912 0.999978 8.25008C0.999978 8.24854 0.999982 8.24701 0.999989 8.24547C1.00784 6.5396 1.69302 4.90672 2.90481 3.70604Z" fill="black"/>
<path fill-rule="evenodd" clip-rule="evenodd" d="M19.0964 6.48947C19.4871 6.09919 20.1203 6.09959 20.5106 6.49035C22.103 8.0847 22.9971 10.2461 22.9964 12.4994C22.9958 14.7528 22.1005 16.9136 20.5072 18.5071C20.1167 18.8976 19.4835 18.8977 19.093 18.5072C18.7024 18.1167 18.7024 17.4835 19.0929 17.093C20.3113 15.8744 20.996 14.222 20.9964 12.4989C20.9969 10.7757 20.3132 9.12289 19.0955 7.90369C18.7052 7.51292 18.7056 6.87976 19.0964 6.48947Z" fill="black"/>
<path fill-rule="evenodd" clip-rule="evenodd" d="M16.2607 9.32501C16.6473 8.93054 17.2804 8.92411 17.6749 9.31065C18.0997 9.72697 18.4378 10.2234 18.6696 10.7712C18.9014 11.319 19.0223 11.9073 19.0253 12.5022C19.0283 13.097 18.9133 13.6865 18.687 14.2366C18.4608 14.7867 18.1277 15.2865 17.707 15.7071C17.3164 16.0976 16.6833 16.0975 16.2928 15.7069C15.9023 15.3164 15.9024 14.6832 16.2929 14.2927C16.5266 14.0591 16.7117 13.7814 16.8374 13.4758C16.9631 13.1702 17.027 12.8427 17.0253 12.5122C17.0237 12.1818 16.9565 11.8549 16.8277 11.5506C16.699 11.2462 16.5111 10.9704 16.2751 10.7392C15.8806 10.3526 15.8742 9.71948 16.2607 9.32501Z" fill="black"/>
</svg>
