<svg width="24" height="24" viewBox="0 0 24 24" fill="none" xmlns="http://www.w3.org/2000/svg">
<path fill-rule="evenodd" clip-rule="evenodd" d="M1 22C1 21.4477 1.44772 21 2 21H22C22.5523 21 23 21.4477 23 22C23 22.5523 22.5523 23 22 23H2C1.44772 23 1 22.5523 1 22Z" fill="black"/>
<path fill-rule="evenodd" clip-rule="evenodd" d="M6.3438 6.44613L6.34162 6.44722L8.8944 11.5528C9.01384 11.7917 9.03276 12.0684 8.94696 12.3213C8.86115 12.5742 8.67775 12.7823 8.43761 12.8992L7.31319 13.4464C6.89625 13.6552 6.43634 13.7639 5.96997 13.7639C5.50108 13.7639 5.03871 13.654 4.61998 13.443C4.60064 13.4333 4.58162 13.4229 4.56295 13.4119L4.42577 13.3312C4.29268 13.2686 4.14729 13.2361 3.99997 13.2361C3.84368 13.2361 3.68955 13.2727 3.54997 13.343L3.54872 13.3437L3.54719 13.3444L3.34162 13.4472L4.66744 16.0989L6.32892 16.3805C6.39439 16.3784 6.46043 16.3828 6.52612 16.3939C6.73386 16.4289 6.94735 16.3974 7.13612 16.3039L19.9697 9.9371C20.2441 9.79576 20.4601 9.57373 20.5955 9.30279L20.9755 8.54279C20.9773 8.53922 20.9791 8.53566 20.981 8.53211C21.0082 8.47928 21.0233 8.42105 21.0252 8.36165C21.027 8.30225 21.0157 8.24318 20.9919 8.18872C20.9681 8.13427 20.9324 8.08581 20.8875 8.04685C20.8427 8.0079 20.7897 7.97944 20.7324 7.96354C20.7291 7.96263 20.7259 7.96171 20.7226 7.96078L19.7581 7.68235C19.4213 7.58988 19.0621 7.6257 18.7501 7.78296C18.7471 7.78446 18.7442 7.78594 18.7412 7.78741L14.5544 9.84581C14.5538 9.8461 14.5532 9.84639 14.5526 9.84669C14.0522 10.0945 13.4926 10.1978 12.9367 10.1449C12.3818 10.092 11.8526 9.88565 11.4085 9.54893L7.39189 6.55144C7.39005 6.55007 7.38822 6.54869 7.38639 6.5473C7.23859 6.43542 7.0626 6.36681 6.87807 6.34915C6.69443 6.33158 6.50952 6.36515 6.3438 6.44613ZM6.43771 18.397C6.35672 18.4033 6.27452 18.3998 6.19287 18.3859L3.83287 17.9859C3.51838 17.9326 3.24819 17.7325 3.10555 17.4472L1.10555 13.4472C0.858559 12.9532 1.05878 12.3526 1.55276 12.1056L2.64997 11.557C2.65052 11.5567 2.65107 11.5564 2.65162 11.5561C3.06993 11.3457 3.5317 11.2361 3.99997 11.2361C4.46887 11.2361 4.93124 11.346 5.34998 11.557C5.36931 11.5667 5.38833 11.5771 5.407 11.5881L5.54418 11.6688C5.67727 11.7314 5.82266 11.7639 5.96997 11.7639C6.12627 11.7639 6.2804 11.7273 6.41997 11.657C6.42408 11.6549 6.4282 11.6529 6.43233 11.6509L6.65353 11.5432L4.10555 6.44722C3.98694 6.21 3.96742 5.93538 4.05129 5.68378C4.13516 5.43217 4.31554 5.22418 4.55276 5.10558L5.45276 4.65558C5.45386 4.65502 5.45497 4.65448 5.45607 4.65393C5.4569 4.65352 5.45773 4.65311 5.45856 4.6527C5.95757 4.40722 6.51499 4.30527 7.06859 4.35825C7.62092 4.4111 8.14774 4.61609 8.59051 4.9504L12.6081 7.94857C12.6106 7.95043 12.613 7.95231 12.6155 7.9542C12.7638 8.06705 12.9407 8.13622 13.1263 8.15389C13.3118 8.17156 13.4986 8.13703 13.6655 8.0542C13.6666 8.05366 13.6677 8.05313 13.6688 8.0526L17.8547 5.99461C18.6112 5.61477 19.482 5.52986 20.2977 5.7565C20.3009 5.7574 20.3041 5.7583 20.3073 5.75923L21.2731 6.038C21.6145 6.13371 21.9306 6.3039 22.1984 6.53636C22.4677 6.77007 22.6816 7.06085 22.8244 7.38757C22.9672 7.71428 23.0355 8.06872 23.0242 8.42511C23.0129 8.77921 22.9234 9.12641 22.7621 9.44178L22.3844 10.1972C22.0606 10.8448 21.5382 11.3818 20.8748 11.7206C20.8713 11.7224 20.8679 11.7241 20.8644 11.7258L8.02383 18.0961C7.53116 18.3401 6.98241 18.4434 6.43771 18.397Z" fill="black"/>
</svg>
