<svg width="24" height="24" viewBox="0 0 24 24" fill="none" xmlns="http://www.w3.org/2000/svg">
<path fill-rule="evenodd" clip-rule="evenodd" d="M6.90715 5.53765C7.38284 5.81824 7.54099 6.43134 7.2604 6.90703C6.28411 8.5621 5.63188 10.45 5.49667 12.0825L5.49661 12.0832C5.32231 14.1701 5.63295 16.4305 6.63676 18.135C7.60171 19.7735 9.24451 20.9755 12.0001 20.9999C14.8737 20.9746 16.5461 19.667 17.4941 17.9018C17.7554 17.4153 18.3617 17.2327 18.8482 17.494C19.3348 17.7553 19.5174 18.3615 19.2561 18.8481C17.973 21.2372 15.6415 22.9709 12.0081 22.9999C12.0027 23 11.9974 23 11.9921 22.9999C8.52247 22.9721 6.23252 21.3898 4.9134 19.1499C3.63226 16.9745 3.30788 14.2601 3.50352 11.917C3.50353 11.9169 3.50354 11.9168 3.50355 11.9167C3.66846 9.92739 4.44017 7.75161 5.53776 5.89089C5.81836 5.4152 6.43146 5.25705 6.90715 5.53765Z" fill="black"/>
<path fill-rule="evenodd" clip-rule="evenodd" d="M11.9886 1.00007C11.9962 0.999979 12.0038 0.999978 12.0114 1.00006C14.2836 1.02567 16.3249 2.78482 17.7618 4.80858C19.2344 6.88269 20.2995 9.54074 20.4967 11.9171C20.4967 11.9172 20.4967 11.9173 20.4967 11.9173C20.5527 12.5849 20.5641 13.2555 20.5309 13.9246C20.5035 14.4762 20.0341 14.9012 19.4825 14.8738C18.9309 14.8464 18.506 14.377 18.5334 13.8254C18.5622 13.2448 18.5523 12.6629 18.5036 12.0837L18.5036 12.0827C18.3407 10.1191 17.4309 7.79724 16.131 5.96641C14.7993 4.09077 13.2758 3.0207 12.0003 3.00009C11.2706 3.01203 10.4468 3.36224 9.59037 4.06849C9.16429 4.41988 8.53402 4.35932 8.18264 3.93324C7.83125 3.50716 7.89181 2.87689 8.31789 2.52551C9.38504 1.64544 10.6411 1.01562 11.9886 1.00007Z" fill="black"/>
<path fill-rule="evenodd" clip-rule="evenodd" d="M1.29289 1.29289C1.68342 0.902369 2.31658 0.902369 2.70711 1.29289L22.7071 21.2929C23.0976 21.6834 23.0976 22.3166 22.7071 22.7071C22.3166 23.0976 21.6834 23.0976 21.2929 22.7071L1.29289 2.70711C0.902369 2.31658 0.902369 1.68342 1.29289 1.29289Z" fill="black"/>
</svg>
