<svg width="24" height="24" viewBox="0 0 24 24" fill="none" xmlns="http://www.w3.org/2000/svg">
<path fill-rule="evenodd" clip-rule="evenodd" d="M8.38965 4.11724C8.24203 4.03862 8.07705 3.99829 7.9098 3.99993C7.90654 3.99996 7.90327 3.99997 7.9 3.99997H4C3.73478 3.99997 3.48043 4.10533 3.29289 4.29287C3.10536 4.4804 3 4.73476 3 4.99997V18C3 18.2652 3.10536 18.5195 3.29289 18.7071C3.48043 18.8946 3.73478 19 4 19H11C11.5523 19 12 19.4477 12 20C12 20.5523 11.5523 21 11 21H4C3.20435 21 2.44129 20.6839 1.87868 20.1213C1.31607 19.5587 1 18.7956 1 18V4.99997C1 4.20432 1.31607 3.44126 1.87868 2.87865C2.44129 2.31604 3.20435 1.99997 4 1.99997H7.89559C8.39548 1.99597 8.88846 2.11695 9.32975 2.35195C9.77076 2.58681 10.1461 2.92809 10.4217 3.34477L11.2288 4.5405C11.231 4.54365 11.2331 4.5468 11.2352 4.54997C11.3262 4.68824 11.4502 4.80173 11.5959 4.88028C11.7416 4.95879 11.9045 4.99992 12.07 4.99997C12.0701 4.99997 12.0701 4.99997 12.0702 4.99997H20C20.7956 4.99997 21.5587 5.31604 22.1213 5.87865C22.6839 6.44126 23 7.20432 23 7.99997V9.49997C23 10.0523 22.5523 10.5 22 10.5C21.4477 10.5 21 10.0523 21 9.49997V7.99997C21 7.73476 20.8946 7.4804 20.7071 7.29287C20.5196 7.10533 20.2652 6.99997 20 6.99997H12.07V5.99812L12.0698 6.99997C11.5732 6.99989 11.0843 6.8765 10.6471 6.64088C10.2117 6.40625 9.84114 6.06764 9.56829 5.65521L8.76115 4.45945C8.75902 4.45629 8.7569 4.45311 8.7548 4.44993C8.66282 4.31024 8.53728 4.19585 8.38965 4.11724Z" fill="black"/>
<path fill-rule="evenodd" clip-rule="evenodd" d="M20.1159 14.1048C19.9415 14.0327 19.7545 13.9959 19.5658 13.9965C19.377 13.997 19.1903 14.0349 19.0162 14.108C18.8422 14.1811 18.6844 14.2879 18.5519 14.4222C18.5503 14.4238 18.5487 14.4255 18.547 14.4271L18.207 14.7671C17.8244 15.1497 17.2067 15.1586 16.8133 14.787L16.4533 14.447C16.4461 14.4402 16.4391 14.4333 16.4321 14.4264C16.2993 14.2933 16.1415 14.1877 15.9678 14.1156C15.7942 14.0436 15.608 14.0065 15.4199 14.0065C15.2319 14.0065 15.0457 14.0436 14.872 14.1156C14.6984 14.1877 14.5406 14.2933 14.4078 14.4264C14.4063 14.4279 14.4048 14.4293 14.4033 14.4308C13.8961 14.9326 13.7601 15.8939 14.6048 16.7406L17.499 19.5946L20.3831 16.7426C21.2325 15.8834 21.1031 14.9374 20.5828 14.4171L20.5821 14.4163C20.4488 14.2827 20.2903 14.1769 20.1159 14.1048ZM19.56 11.9965C20.0127 11.9952 20.4611 12.0835 20.8795 12.2563C21.2978 12.4291 21.6776 12.6829 21.9973 13.0031C23.3761 14.3822 23.3469 16.5943 21.8 18.1541C21.7977 18.1564 21.7954 18.1587 21.7931 18.161L18.2031 21.711C17.8139 22.0959 17.1875 22.0963 16.7978 21.712L13.1978 18.162C13.1961 18.1604 13.1945 18.1587 13.1928 18.1571C11.6409 16.6052 11.6242 14.3694 12.9944 13.0113C13.3125 12.6931 13.6901 12.4407 14.1057 12.2683C14.5223 12.0954 14.9689 12.0065 15.4199 12.0065C15.871 12.0065 16.3175 12.0954 16.7341 12.2683C17.0034 12.38 17.2568 12.5253 17.4883 12.7003C17.7194 12.5238 17.9726 12.3771 18.2419 12.264C18.6593 12.0887 19.1073 11.9978 19.56 11.9965Z" fill="black"/>
</svg>
