<svg width="24" height="24" viewBox="0 0 24 24" fill="none" xmlns="http://www.w3.org/2000/svg">
<path fill-rule="evenodd" clip-rule="evenodd" d="M12 5C12.5523 5 13 5.44772 13 6V11.382L16.4472 13.1056C16.9412 13.3526 17.1414 13.9532 16.8944 14.4472C16.6474 14.9412 16.0468 15.1414 15.5528 14.8944L11.5528 12.8944C11.214 12.725 11 12.3788 11 12V6C11 5.44772 11.4477 5 12 5Z" fill="black"/>
<path fill-rule="evenodd" clip-rule="evenodd" d="M16.5952 4.25966C15.0777 3.35772 13.3284 2.92196 11.5651 3.00664C9.80186 3.09131 8.10242 3.69267 6.67832 4.73588C5.25422 5.77908 4.16836 7.21805 3.55588 8.87371C2.94341 10.5294 2.83136 12.3286 3.23368 14.0474C3.636 15.7663 4.53493 17.3289 5.81859 18.5407C7.10225 19.7525 8.71395 20.5601 10.4531 20.8629C12.1922 21.1657 13.982 20.9503 15.5997 20.2437C16.1058 20.0226 16.6953 20.2536 16.9164 20.7597C17.1375 21.2658 16.9065 21.8553 16.4004 22.0764C14.4232 22.9401 12.2357 23.2033 10.11 22.8333C7.98442 22.4632 6.01457 21.4761 4.44565 19.995C2.87674 18.5139 1.77804 16.6041 1.28631 14.5032C0.794583 12.4024 0.931534 10.2034 1.68012 8.1798C2.4287 6.15622 3.75587 4.39748 5.49643 3.12245C7.23699 1.84743 9.31409 1.11243 11.4692 1.00894C13.6243 0.90545 15.7623 1.43803 17.617 2.54041C19.4717 3.64278 20.9613 5.26627 21.9004 7.2088C22.1407 7.70604 21.9325 8.30398 21.4353 8.54435C20.938 8.78472 20.3401 8.57649 20.0997 8.07925C19.3314 6.48991 18.1127 5.1616 16.5952 4.25966Z" fill="black"/>
<path fill-rule="evenodd" clip-rule="evenodd" d="M20 10.5C20.5523 10.5 21 10.9477 21 11.5V17.5C21 18.0523 20.5523 18.5 20 18.5C19.4477 18.5 19 18.0523 19 17.5V11.5C19 10.9477 19.4477 10.5 20 10.5Z" fill="black"/>
<path fill-rule="evenodd" clip-rule="evenodd" d="M19 21.5C19 20.9477 19.4477 20.5 20 20.5H20.01C20.5623 20.5 21.01 20.9477 21.01 21.5C21.01 22.0523 20.5623 22.5 20.01 22.5H20C19.4477 22.5 19 22.0523 19 21.5Z" fill="black"/>
</svg>
