<svg width="24" height="24" viewBox="0 0 24 24" fill="none" xmlns="http://www.w3.org/2000/svg">
<path fill-rule="evenodd" clip-rule="evenodd" d="M10 4C7.79086 4 6 5.79086 6 8C6 10.2091 7.79086 12 10 12C12.2091 12 14 10.2091 14 8C14 5.79086 12.2091 4 10 4ZM4 8C4 4.68629 6.68629 2 10 2C13.3137 2 16 4.68629 16 8C16 11.3137 13.3137 14 10 14C6.68629 14 4 11.3137 4 8Z" fill="black"/>
<path fill-rule="evenodd" clip-rule="evenodd" d="M12.1297 14.3326C11.0803 13.9974 9.9666 13.9147 8.87916 14.0911C7.79171 14.2674 6.76126 14.698 5.8716 15.3477C4.98193 15.9975 4.25818 16.848 3.7592 17.8302C3.26022 18.8124 3.0001 19.8984 3 21.0001C2.99995 21.5524 2.55219 22 1.99991 22C1.44762 21.9999 0.999949 21.5522 1 20.9999C1.00013 19.5835 1.33457 18.1871 1.97611 16.9243C2.61766 15.6615 3.5482 14.568 4.69205 13.7326C5.83591 12.8972 7.16078 12.3437 8.55891 12.1169C9.95705 11.8901 11.389 11.9965 12.7382 12.4274C13.2644 12.5954 13.5546 13.1581 13.3866 13.6842C13.2186 14.2103 12.6559 14.5006 12.1297 14.3326Z" fill="black"/>
<path fill-rule="evenodd" clip-rule="evenodd" d="M18 16C16.8954 16 16 16.8954 16 18C16 19.1046 16.8954 20 18 20C19.1046 20 20 19.1046 20 18C20 16.8954 19.1046 16 18 16ZM14 18C14 15.7909 15.7909 14 18 14C20.2091 14 22 15.7909 22 18C22 20.2091 20.2091 22 18 22C15.7909 22 14 20.2091 14 18Z" fill="black"/>
<path fill-rule="evenodd" clip-rule="evenodd" d="M19.393 19.393C19.7835 19.0025 20.4167 19.0025 20.8072 19.393L22.7072 21.293C23.0977 21.6835 23.0977 22.3167 22.7072 22.7072C22.3167 23.0977 21.6835 23.0977 21.293 22.7072L19.393 20.8072C19.0025 20.4167 19.0025 19.7835 19.393 19.393Z" fill="black"/>
</svg>
