<svg width="24" height="24" viewBox="0 0 24 24" fill="none" xmlns="http://www.w3.org/2000/svg">
<path fill-rule="evenodd" clip-rule="evenodd" d="M1 11C1 10.4477 1.44772 10 2 10H22C22.5523 10 23 10.4477 23 11V20C23 20.7956 22.6839 21.5587 22.1213 22.1213C21.5587 22.6839 20.7957 23 20 23H4C3.20435 23 2.44129 22.6839 1.87868 22.1213C1.31607 21.5587 1 20.7956 1 20V11ZM3 12V20C3 20.2652 3.10536 20.5196 3.29289 20.7071C3.48043 20.8946 3.73478 21 4 21H20C20.2652 21 20.5196 20.8946 20.7071 20.7071C20.8946 20.5196 21 20.2652 21 20V12H3Z" fill="black"/>
<path fill-rule="evenodd" clip-rule="evenodd" d="M5 4C5 3.44772 5.44772 3 6 3H18C18.5523 3 19 3.44772 19 4V11C19 11.5523 18.5523 12 18 12C17.4477 12 17 11.5523 17 11V5H7V11C7 11.5523 6.55228 12 6 12C5.44772 12 5 11.5523 5 11V4Z" fill="black"/>
<path fill-rule="evenodd" clip-rule="evenodd" d="M9.17157 15.1716C9.92172 14.4214 10.9391 14 12 14C13.0609 14 14.0783 14.4214 14.8284 15.1716C15.5786 15.9217 16 16.9391 16 18V22C16 22.5523 15.5523 23 15 23C14.4477 23 14 22.5523 14 22V18C14 17.4696 13.7893 16.9609 13.4142 16.5858C13.0391 16.2107 12.5304 16 12 16C11.4696 16 10.9609 16.2107 10.5858 16.5858C10.2107 16.9609 10 17.4696 10 18V22C10 22.5523 9.55228 23 9 23C8.44772 23 8 22.5523 8 22V18C8 16.9391 8.42143 15.9217 9.17157 15.1716Z" fill="black"/>
<path fill-rule="evenodd" clip-rule="evenodd" d="M22 8C22.5523 8 23 8.44772 23 9V11C23 11.5523 22.5523 12 22 12C21.4477 12 21 11.5523 21 11V9C21 8.44772 21.4477 8 22 8Z" fill="black"/>
<path fill-rule="evenodd" clip-rule="evenodd" d="M2 8C2.55228 8 3 8.44772 3 9V11C3 11.5523 2.55228 12 2 12C1.44772 12 1 11.5523 1 11V9C1 8.44772 1.44772 8 2 8Z" fill="black"/>
<path fill-rule="evenodd" clip-rule="evenodd" d="M6 1C6.55228 1 7 1.44772 7 2V4C7 4.55228 6.55228 5 6 5C5.44772 5 5 4.55228 5 4V2C5 1.44772 5.44772 1 6 1Z" fill="black"/>
<path fill-rule="evenodd" clip-rule="evenodd" d="M18 1C18.5523 1 19 1.44772 19 2V4C19 4.55228 18.5523 5 18 5C17.4477 5 17 4.55228 17 4V2C17 1.44772 17.4477 1 18 1Z" fill="black"/>
<path fill-rule="evenodd" clip-rule="evenodd" d="M10 1C10.5523 1 11 1.44772 11 2V4C11 4.55228 10.5523 5 10 5C9.44772 5 9 4.55228 9 4V2C9 1.44772 9.44772 1 10 1Z" fill="black"/>
<path fill-rule="evenodd" clip-rule="evenodd" d="M14 1C14.5523 1 15 1.44772 15 2V4C15 4.55228 14.5523 5 14 5C13.4477 5 13 4.55228 13 4V2C13 1.44772 13.4477 1 14 1Z" fill="black"/>
</svg>
