<svg width="24" height="24" viewBox="0 0 24 24" fill="none" xmlns="http://www.w3.org/2000/svg">
<path fill-rule="evenodd" clip-rule="evenodd" d="M7.30046 1.28541C7.69511 0.899064 8.32824 0.905799 8.71459 1.30046L9.95327 2.56578C10.3347 2.33862 10.7533 2.17531 11.1928 2.08476C11.9704 1.92457 12.778 1.99935 13.5129 2.2996C14.2477 2.59984 14.8767 3.11197 15.3196 3.77079C15.7625 4.42961 15.9993 5.20532 16 5.99918V7.13C16 7.68229 15.5523 8.13 15 8.13C14.4477 8.13 14 7.68229 14 7.13L14 6.00082C14 6.00062 14 6.00041 14 6.0002C13.9995 5.60349 13.8811 5.21587 13.6598 4.88663C13.4383 4.55722 13.1239 4.30116 12.7564 4.15104C12.389 4.00091 11.9852 3.96352 11.5964 4.04362C11.2076 4.12372 10.8515 4.31768 10.5733 4.60082C10.3851 4.79242 10.1277 4.90024 9.8591 4.9C9.59051 4.89976 9.3333 4.79148 9.14541 4.59955L7.28541 2.69954C6.89906 2.30489 6.9058 1.67176 7.30046 1.28541Z" fill="black"/>
<path fill-rule="evenodd" clip-rule="evenodd" d="M16.7072 1.29289C17.0977 1.68342 17.0977 2.31658 16.7072 2.70711L14.8272 4.58711C14.4367 4.97763 13.8035 4.97763 13.413 4.58711C13.0225 4.19658 13.0225 3.56342 13.413 3.17289L15.293 1.29289C15.6835 0.902369 16.3167 0.902369 16.7072 1.29289Z" fill="black"/>
<path fill-rule="evenodd" clip-rule="evenodd" d="M11.7 7C11.7 6.44772 12.1477 6 12.7 6H14C15.326 6 16.5978 6.52678 17.5355 7.46447C18.4732 8.40215 19 9.67392 19 11V12H22C22.5522 12 23 12.4477 23 13C23 13.5523 22.5522 14 22 14H18C17.4477 14 17 13.5523 17 13V11C17 10.2044 16.6839 9.44129 16.1213 8.87868C15.5587 8.31607 14.7956 8 14 8H12.7C12.1477 8 11.7 7.55228 11.7 7Z" fill="black"/>
<path fill-rule="evenodd" clip-rule="evenodd" d="M20.9701 4C21.5223 4 21.9701 4.44772 21.9701 5C21.9701 7.60626 19.9891 9.74036 17.5747 9.99451C17.0255 10.0523 16.5334 9.65393 16.4755 9.10468C16.4177 8.55543 16.8161 8.06331 17.3654 8.00549C18.751 7.85964 19.9701 6.59374 19.9701 5C19.9701 4.44772 20.4178 4 20.9701 4Z" fill="black"/>
<path fill-rule="evenodd" clip-rule="evenodd" d="M1.29289 1.29289C1.68342 0.902369 2.31658 0.902369 2.70711 1.29289L22.7071 21.2929C23.0976 21.6834 23.0976 22.3166 22.7071 22.7071C22.3166 23.0976 21.6834 23.0976 21.2929 22.7071L1.29289 2.70711C0.902369 2.31658 0.902369 1.68342 1.29289 1.29289Z" fill="black"/>
<path fill-rule="evenodd" clip-rule="evenodd" d="M8.51826 7.12503C8.83581 7.57689 8.72693 8.20062 8.27507 8.51817C7.87836 8.79697 7.55513 9.16777 7.33308 9.59881C7.11102 10.0299 6.99676 10.5083 7.00007 10.9932C7.00009 10.9955 7.00009 10.9977 7.00009 11V14C7.00009 14.001 7.00009 14.002 7.00009 14.0031C6.99676 15.0958 7.35148 16.1595 8.01 17.0315C8.66851 17.9035 9.59455 18.5358 10.6465 18.8316C11.6984 19.1274 12.8182 19.0705 13.8347 18.6695C14.8512 18.2686 15.7084 17.5457 16.2751 16.6114C16.5615 16.1392 17.1765 15.9886 17.6487 16.275C18.1209 16.5614 18.2715 17.1764 17.9851 17.6486C17.1917 18.9566 15.9917 19.9687 14.5686 20.53C13.1455 21.0913 11.5777 21.171 10.105 20.7569C8.63235 20.3427 7.33589 19.4576 6.41397 18.2368C5.49237 17.0164 4.99578 15.5278 5.00009 13.9985V11.0032C4.99516 10.1963 5.18559 9.40024 5.55513 8.6829C5.92522 7.96449 6.46393 7.34649 7.12512 6.88184C7.57698 6.56428 8.20071 6.67317 8.51826 7.12503Z" fill="black"/>
<path fill-rule="evenodd" clip-rule="evenodd" d="M12 11C12.5523 11 13 11.4477 13 12V20C13 20.5523 12.5523 21 12 21C11.4477 21 11 20.5523 11 20V12C11 11.4477 11.4477 11 12 11Z" fill="black"/>
<path fill-rule="evenodd" clip-rule="evenodd" d="M1 13C1 12.4477 1.44772 12 2 12H6C6.55228 12 7 12.4477 7 13C7 13.5523 6.55228 14 6 14H2C1.44772 14 1 13.5523 1 13Z" fill="black"/>
<path fill-rule="evenodd" clip-rule="evenodd" d="M7.79887 16.9525C7.82514 17.5041 7.39922 17.9726 6.84757 17.9989C5.28581 18.0733 4 19.4287 4 21C4 21.5523 3.55228 22 3 22C2.44772 22 2 21.5523 2 21C2 18.3713 4.11419 16.1268 6.75243 16.0012C7.30409 15.9749 7.7726 16.4008 7.79887 16.9525Z" fill="black"/>
</svg>
