<svg width="24" height="24" viewBox="0 0 24 24" fill="none" xmlns="http://www.w3.org/2000/svg">
<path fill-rule="evenodd" clip-rule="evenodd" d="M6 17C4.89543 17 4 17.8954 4 19C4 20.1046 4.89543 21 6 21C7.10457 21 8 20.1046 8 19C8 17.8954 7.10457 17 6 17ZM2 19C2 16.7909 3.79086 15 6 15C8.20914 15 10 16.7909 10 19C10 21.2091 8.20914 23 6 23C3.79086 23 2 21.2091 2 19Z" fill="black"/>
<path fill-rule="evenodd" clip-rule="evenodd" d="M19.7701 18.5575C19.9041 19.0933 19.5783 19.6362 19.0425 19.7702C18.6284 19.8737 18.0291 20 17.5 20H9C8.44772 20 8 19.5523 8 19C8 18.4478 8.44772 18 9 18H17.5C17.7709 18 18.1716 17.9264 18.5575 17.8299C19.0933 17.696 19.6362 18.0217 19.7701 18.5575Z" fill="black"/>
<path fill-rule="evenodd" clip-rule="evenodd" d="M6.1253 4.82056C6.33484 5.33155 6.09047 5.91566 5.57948 6.1252C5.04461 6.34453 4.59979 6.74505 4.32256 7.26043C4.04525 7.77598 3.9535 8.37348 4.06383 8.95057C4.17414 9.52758 4.4792 10.0464 4.92487 10.4195C5.36973 10.7919 5.92741 10.9964 6.50289 11H12.0001C12.5524 11 13.0001 11.4477 13.0001 12C13.0001 12.5523 12.5524 13 12.0001 13L6.49788 13C6.49686 13 6.49584 13 6.49482 13C5.4509 12.9945 4.44237 12.6239 3.64109 11.9531C2.83998 11.2825 2.29586 10.3537 2.09941 9.32612C1.90297 8.2986 2.06588 7.23385 2.56121 6.313C3.05662 5.39198 3.85458 4.6709 4.82067 4.27474C5.33166 4.0652 5.91576 4.30957 6.1253 4.82056Z" fill="black"/>
<path fill-rule="evenodd" clip-rule="evenodd" d="M1.29289 1.29289C1.68342 0.902369 2.31658 0.902369 2.70711 1.29289L22.7071 21.2929C23.0976 21.6834 23.0976 22.3166 22.7071 22.7071C22.3166 23.0976 21.6834 23.0976 21.2929 22.7071L1.29289 2.70711C0.902369 2.31658 0.902369 1.68342 1.29289 1.29289Z" fill="black"/>
<path fill-rule="evenodd" clip-rule="evenodd" d="M16.7015 11.9444C16.7322 11.393 17.2041 10.9709 17.7556 11.0016C18.8608 11.0631 19.9046 11.5299 20.6874 12.3126C21.4701 13.0954 21.9369 14.1392 21.9984 15.2444C22.0291 15.7959 21.607 16.2678 21.0556 16.2985C20.5041 16.3292 20.0322 15.9071 20.0015 15.3556C19.9673 14.7416 19.708 14.1617 19.2732 13.7268C18.8383 13.292 18.2584 13.0327 17.6444 12.9985C17.093 12.9678 16.6708 12.4959 16.7015 11.9444Z" fill="black"/>
<path fill-rule="evenodd" clip-rule="evenodd" d="M9.69995 5C9.69995 4.44772 10.1477 4 10.7 4H15C15.5522 4 16 4.44772 16 5C16 5.55228 15.5522 6 15 6H10.7C10.1477 6 9.69995 5.55228 9.69995 5Z" fill="black"/>
<path fill-rule="evenodd" clip-rule="evenodd" d="M18 3C16.8954 3 16 3.89543 16 5C16 6.10457 16.8954 7 18 7C19.1046 7 20 6.10457 20 5C20 3.89543 19.1046 3 18 3ZM14 5C14 2.79086 15.7909 1 18 1C20.2091 1 22 2.79086 22 5C22 7.20914 20.2091 9 18 9C15.7909 9 14 7.20914 14 5Z" fill="black"/>
</svg>
