<svg width="24" height="24" viewBox="0 0 24 24" fill="none" xmlns="http://www.w3.org/2000/svg">
<path fill-rule="evenodd" clip-rule="evenodd" d="M13 13.8041V20.1958L18.113 17L18.113 16.9999L18.113 16.9999L13 13.8041ZM11.7728 11.59C12.007 11.4602 12.2717 11.3954 12.5394 11.4025C12.807 11.4095 13.0679 11.488 13.295 11.63L19.173 15.3039C19.173 15.304 19.173 15.304 19.173 15.304C19.4607 15.4837 19.6979 15.7337 19.8623 16.0304C20.0267 16.3271 20.113 16.6607 20.113 16.9999C20.113 17.3392 20.0267 17.6728 19.8623 17.9695C19.6978 18.2662 19.4606 18.5162 19.173 18.6959L13.295 22.3699L13.295 22.3699C13.068 22.5119 12.807 22.5904 12.5394 22.5974C12.2717 22.6045 12.007 22.5397 11.7728 22.4099C11.5387 22.2801 11.3435 22.09 11.2076 21.8593C11.0717 21.6286 11 21.3657 11 21.0979V12.902C11 12.902 11 12.902 11 12.902C11 12.6342 11.0717 12.3713 11.2076 12.1406C11.3435 11.9099 11.5387 11.7198 11.7728 11.59Z" fill="black"/>
<path fill-rule="evenodd" clip-rule="evenodd" d="M16.7072 1.29289C17.0977 1.68342 17.0977 2.31658 16.7072 2.70711L14.8272 4.58711C14.4367 4.97763 13.8035 4.97763 13.413 4.58711C13.0225 4.19658 13.0225 3.56342 13.413 3.17289L15.293 1.29289C15.6835 0.902369 16.3167 0.902369 16.7072 1.29289Z" fill="black"/>
<path fill-rule="evenodd" clip-rule="evenodd" d="M6.46447 7.46447C7.40215 6.52678 8.67392 6 10 6H14C15.3261 6 16.5979 6.52678 17.5355 7.46447C18.4732 8.40215 19 9.67392 19 11C19 11.5523 18.5523 12 18 12C17.4477 12 17 11.5523 17 11C17 10.2044 16.6839 9.44129 16.1213 8.87868C15.5587 8.31607 14.7956 8 14 8H10C9.20435 8 8.44129 8.31607 7.87868 8.87868C7.31607 9.44129 7 10.2043 7 11V13.9986C7.00212 14.707 7.15181 15.4073 7.43954 16.0547C7.72745 16.7024 8.14724 17.2831 8.67213 17.7596C9.08106 18.1308 9.11164 18.7632 8.74044 19.1721C8.36923 19.5811 7.7368 19.6116 7.32787 19.2404C6.59715 18.5771 6.01273 17.7688 5.61192 16.8669C5.2111 15.9651 5.0027 14.9896 5 14.0027C5 14.0018 5 14.0009 5 14V11C5 9.67392 5.52678 8.40215 6.46447 7.46447Z" fill="black"/>
<path fill-rule="evenodd" clip-rule="evenodd" d="M20.9701 4C21.5223 4 21.9701 4.44772 21.9701 5C21.9701 7.60626 19.9891 9.74036 17.5747 9.99451C17.0255 10.0523 16.5334 9.65393 16.4755 9.10468C16.4177 8.55543 16.8161 8.06331 17.3654 8.00549C18.751 7.85964 19.9701 6.59374 19.9701 5C19.9701 4.44772 20.4178 4 20.9701 4Z" fill="black"/>
<path fill-rule="evenodd" clip-rule="evenodd" d="M7.79887 16.9525C7.82514 17.5041 7.39922 17.9726 6.84757 17.9989C5.28581 18.0733 4 19.4287 4 21C4 21.5523 3.55228 22 3 22C2.44772 22 2 21.5523 2 21C2 18.3713 4.11419 16.1268 6.75243 16.0012C7.30409 15.9749 7.7726 16.4008 7.79887 16.9525Z" fill="black"/>
<path fill-rule="evenodd" clip-rule="evenodd" d="M1 13C1 12.4477 1.44772 12 2 12H6C6.55228 12 7 12.4477 7 13C7 13.5523 6.55228 14 6 14H2C1.44772 14 1 13.5523 1 13Z" fill="black"/>
<path fill-rule="evenodd" clip-rule="evenodd" d="M3 4C3.55228 4 4 4.44772 4 5C4 6.58934 5.21443 7.85832 6.63308 8.00533C7.18242 8.06225 7.5816 8.55373 7.52467 9.10308C7.46775 9.65242 6.97627 10.0516 6.42693 9.99467C3.98557 9.74168 2 7.61066 2 5C2 4.44772 2.44772 4 3 4Z" fill="black"/>
<path fill-rule="evenodd" clip-rule="evenodd" d="M7.29289 1.29289C7.68342 0.902369 8.31658 0.902369 8.70711 1.29289L10.5871 3.17289C10.9776 3.56342 10.9776 4.19658 10.5871 4.58711C10.1966 4.97763 9.56342 4.97763 9.17289 4.58711L7.29289 2.70711C6.90237 2.31658 6.90237 1.68342 7.29289 1.29289Z" fill="black"/>
<path fill-rule="evenodd" clip-rule="evenodd" d="M12.0001 3.9928C11.7295 3.9928 11.4617 4.04762 11.2129 4.15395C10.9641 4.26028 10.7394 4.41592 10.5524 4.61147C10.3654 4.80702 10.22 5.03844 10.1249 5.29175C10.0298 5.54505 9.98698 5.81501 9.99907 6.08531C9.99974 6.10019 10.0001 6.11509 10.0001 6.13V7.13C10.0001 7.68228 9.55236 8.13 9.00007 8.13C8.44779 8.13 8.00007 7.68228 8.00007 7.13V6.15075C7.97945 5.61855 8.06525 5.0875 8.25251 4.58875C8.44258 4.08251 8.73325 3.62003 9.10697 3.22922C9.48069 2.83841 9.92972 2.52736 10.427 2.31486C10.9242 2.10236 11.4593 1.9928 12.0001 1.9928C12.5408 1.9928 13.0759 2.10236 13.5732 2.31486C14.0704 2.52736 14.5195 2.83841 14.8932 3.22922C15.2669 3.62003 15.5576 4.08251 15.7476 4.58875C15.9349 5.0875 16.0207 5.61855 16.0001 6.15074V7.13C16.0001 7.68228 15.5524 8.13 15.0001 8.13C14.4478 8.13 14.0001 7.68228 14.0001 7.13V6.13C14.0001 6.11509 14.0004 6.10019 14.0011 6.08531C14.0132 5.81501 13.9704 5.54505 13.8753 5.29175C13.7801 5.03844 13.6347 4.80702 13.4477 4.61147C13.2607 4.41592 13.036 4.26028 12.7872 4.15395C12.5384 4.04762 12.2706 3.9928 12.0001 3.9928Z" fill="black"/>
</svg>
