<svg width="24" height="24" viewBox="0 0 24 24" fill="none" xmlns="http://www.w3.org/2000/svg">
<path fill-rule="evenodd" clip-rule="evenodd" d="M4 13C4.55228 13 5 13.4477 5 14V21C5 21.5523 4.55228 22 4 22C3.44772 22 3 21.5523 3 21V14C3 13.4477 3.44772 13 4 13Z" fill="black"/>
<path fill-rule="evenodd" clip-rule="evenodd" d="M4 2C4.55228 2 5 2.44772 5 3V10C5 10.5523 4.55228 11 4 11C3.44772 11 3 10.5523 3 10V3C3 2.44772 3.44772 2 4 2Z" fill="black"/>
<path fill-rule="evenodd" clip-rule="evenodd" d="M12 11C12.5523 11 13 11.4477 13 12V21C13 21.5523 12.5523 22 12 22C11.4477 22 11 21.5523 11 21V12C11 11.4477 11.4477 11 12 11Z" fill="black"/>
<path fill-rule="evenodd" clip-rule="evenodd" d="M12 2C12.5523 2 13 2.44772 13 3V8C13 8.55228 12.5523 9 12 9C11.4477 9 11 8.55228 11 8V3C11 2.44772 11.4477 2 12 2Z" fill="black"/>
<path fill-rule="evenodd" clip-rule="evenodd" d="M20 15C20.5523 15 21 15.4477 21 16V21C21 21.5523 20.5523 22 20 22C19.4477 22 19 21.5523 19 21V16C19 15.4477 19.4477 15 20 15Z" fill="black"/>
<path fill-rule="evenodd" clip-rule="evenodd" d="M20 2C20.5523 2 21 2.44772 21 3V12C21 12.5523 20.5523 13 20 13C19.4477 13 19 12.5523 19 12V3C19 2.44772 19.4477 2 20 2Z" fill="black"/>
<path fill-rule="evenodd" clip-rule="evenodd" d="M1 14C1 13.4477 1.44772 13 2 13H6C6.55228 13 7 13.4477 7 14C7 14.5523 6.55228 15 6 15H2C1.44772 15 1 14.5523 1 14Z" fill="black"/>
<path fill-rule="evenodd" clip-rule="evenodd" d="M9 8C9 7.44772 9.44772 7 10 7H14C14.5523 7 15 7.44772 15 8C15 8.55228 14.5523 9 14 9H10C9.44772 9 9 8.55228 9 8Z" fill="black"/>
<path fill-rule="evenodd" clip-rule="evenodd" d="M17 16C17 15.4477 17.4477 15 18 15H22C22.5523 15 23 15.4477 23 16C23 16.5523 22.5523 17 22 17H18C17.4477 17 17 16.5523 17 16Z" fill="black"/>
</svg>
