<svg width="24" height="24" viewBox="0 0 24 24" fill="none" xmlns="http://www.w3.org/2000/svg">
<path fill-rule="evenodd" clip-rule="evenodd" d="M4.04451 3.87285C4.01985 3.97541 3.99756 4.13579 3.99142 4.36517C3.97589 4.94585 4.06748 5.72323 4.21332 6.54216C4.35694 7.34859 4.54356 8.1438 4.69558 8.74119C4.77132 9.03883 4.83787 9.28498 4.88524 9.45593C4.90892 9.54135 4.92777 9.60787 4.94055 9.6525L4.95499 9.70261L4.95849 9.71463L4.95926 9.71726C5.02914 9.95474 5.00858 10.2102 4.90132 10.4333C4.40106 11.4738 4.00006 12.4401 4.00006 13.44C4.00006 17.2616 7.37573 20 12.0001 20C16.6148 20 20.0001 17.1694 20.0001 13.44C20.0001 12.4723 19.6506 11.471 19.1175 10.4702C18.996 10.2421 18.9675 9.97595 19.0379 9.72738M21.0664 9.88757C21.1121 9.71387 21.17 9.48801 21.2342 9.22437C21.3863 8.59973 21.576 7.75347 21.7214 6.88213C21.8648 6.02327 21.9745 5.08651 21.9443 4.30005C21.9294 3.91059 21.8785 3.4951 21.7435 3.12484C21.6102 2.75919 21.3411 2.30016 20.8051 2.07711C20.2684 1.85312 19.6387 1.79568 19.0271 1.82863C18.4017 1.86231 17.7247 1.99425 17.051 2.21023C15.8874 2.58328 14.6565 3.23252 13.6744 4.16137C13.1237 4.05544 12.56 3.99999 12.0001 3.99999L11.9971 4C11.4404 4.00162 10.8851 4.04955 10.3369 4.14313C9.34335 3.20455 8.08404 2.55853 6.89927 2.19213C6.21589 1.9808 5.53024 1.85381 4.89958 1.82363C4.28356 1.79415 3.65045 1.85368 3.11498 2.07711C2.5745 2.30263 2.30844 2.76817 2.17922 3.13521C2.04847 3.50656 2.00255 3.92256 1.99214 4.31169C1.97111 5.09788 2.0914 6.03425 2.2443 6.89283C2.39944 7.76389 2.59844 8.60993 2.75736 9.23442C2.82609 9.50451 2.88778 9.73494 2.93588 9.91024C2.47776 10.8934 2.00006 12.1004 2.00006 13.44C2.00006 18.7384 6.68439 22 12.0001 22C17.3253 22 22.0001 18.6306 22.0001 13.44C22.0001 12.155 21.5891 10.9454 21.0664 9.88757ZM19.0379 9.72738L19.0388 9.72432L19.0422 9.71232L19.0561 9.66224C19.0683 9.61764 19.0865 9.55116 19.1092 9.46576C19.1547 9.29488 19.2185 9.04879 19.2909 8.75124C19.4364 8.154 19.6141 7.35902 19.7487 6.55285C19.8854 5.73422 19.9681 4.95722 19.9458 4.37681C19.9367 4.14113 19.9114 3.97792 19.8845 3.87513C19.7133 3.8337 19.4643 3.80798 19.1346 3.82573C18.704 3.84893 18.1966 3.94323 17.6616 4.11476C16.5811 4.46112 15.4919 5.08788 14.7471 5.92482C14.4971 6.20566 14.1108 6.32258 13.747 6.22745C13.1775 6.07851 12.583 6.00012 12.0015 5.99999C11.4033 6.00185 10.8072 6.07045 10.2242 6.20454C9.86823 6.28643 9.49592 6.16769 9.25307 5.89482C8.51393 5.06433 7.41113 4.44389 6.30836 4.10285C5.76298 3.93419 5.24427 3.84242 4.80398 3.82135C4.47084 3.80541 4.21843 3.83156 4.04451 3.87285M20.0373 3.92385C20.0365 3.92352 20.0358 3.9232 20.035 3.92287L20.0373 3.92385Z" fill="black"/>
<path fill-rule="evenodd" clip-rule="evenodd" d="M8 13C8.55228 13 9 13.4477 9 14V14.5C9 15.0523 8.55228 15.5 8 15.5C7.44772 15.5 7 15.0523 7 14.5V14C7 13.4477 7.44772 13 8 13Z" fill="black"/>
<path fill-rule="evenodd" clip-rule="evenodd" d="M16 13C16.5523 13 17 13.4477 17 14V14.5C17 15.0523 16.5523 15.5 16 15.5C15.4477 15.5 15 15.0523 15 14.5V14C15 13.4477 15.4477 13 16 13Z" fill="black"/>
<path fill-rule="evenodd" clip-rule="evenodd" d="M10.3261 15.8673C10.4809 15.4936 10.8456 15.25 11.25 15.25H12.75C13.1545 15.25 13.5191 15.4936 13.6739 15.8673C13.8287 16.241 13.7431 16.6711 13.4571 16.9571L12.7071 17.7071C12.3166 18.0976 11.6834 18.0976 11.2929 17.7071L10.5429 16.9571C10.2569 16.6711 10.1714 16.241 10.3261 15.8673Z" fill="black"/>
</svg>
