<svg width="24" height="24" viewBox="0 0 24 24" fill="none" xmlns="http://www.w3.org/2000/svg">
<path fill-rule="evenodd" clip-rule="evenodd" d="M14.5038 2.13614C14.9808 2.41442 15.142 3.02674 14.8637 3.50379L4.3637 21.5038C4.08542 21.9808 3.4731 22.142 2.99605 21.8637C2.519 21.5854 2.35786 20.9731 2.63614 20.496L13.1361 2.49605C13.4144 2.019 14.0267 1.85786 14.5038 2.13614Z" fill="black"/>
<path fill-rule="evenodd" clip-rule="evenodd" d="M9.49605 2.13614C9.9731 1.85786 10.5854 2.019 10.8637 2.49605L21.3637 20.496C21.642 20.9731 21.4808 21.5854 21.0038 21.8637C20.5267 22.142 19.9144 21.9808 19.6361 21.5038L9.13614 3.50379C8.85786 3.02674 9.019 2.41442 9.49605 2.13614Z" fill="black"/>
<path fill-rule="evenodd" clip-rule="evenodd" d="M11.9999 14C12.3556 14 12.6845 14.1889 12.8637 14.4961L16.3637 20.4961C16.642 20.9732 16.4808 21.5855 16.0038 21.8638C15.5267 22.1421 14.9144 21.9809 14.6361 21.5039L11.9999 16.9846L9.3637 21.5039C9.08542 21.9809 8.4731 22.1421 7.99605 21.8638C7.519 21.5855 7.35786 20.9732 7.63614 20.4961L11.1361 14.4961C11.3154 14.1889 11.6443 14 11.9999 14Z" fill="black"/>
<path fill-rule="evenodd" clip-rule="evenodd" d="M1 21C1 20.4477 1.44772 20 2 20H22C22.5523 20 23 20.4477 23 21C23 21.5523 22.5523 22 22 22H2C1.44772 22 1 21.5523 1 21Z" fill="black"/>
</svg>
