<svg width="24" height="24" viewBox="0 0 24 24" fill="none" xmlns="http://www.w3.org/2000/svg">
<path fill-rule="evenodd" clip-rule="evenodd" d="M4 22C4 21.4477 4.44772 21 5 21H19C19.5523 21 20 21.4477 20 22C20 22.5523 19.5523 23 19 23H5C4.44772 23 4 22.5523 4 22Z" fill="black"/>
<path fill-rule="evenodd" clip-rule="evenodd" d="M17.4992 12C17.9588 11.9993 18.414 12.0891 18.8389 12.2644C19.2641 12.4397 19.6506 12.6972 19.9762 13.022L19.9771 13.0229C20.6376 13.6834 21 14.579 21 15.5V17C21 17.5304 20.7893 18.0391 20.4142 18.4142C20.0391 18.7893 19.5304 19 19 19H5C4.46957 19 3.96086 18.7893 3.58579 18.4142C3.21071 18.0391 3 17.5304 3 17V15.5C3 14.5717 3.36875 13.6815 4.02513 13.0251C4.6815 12.3688 5.57174 12 6.5 12H17.4992ZM18.0764 14.1133C17.8942 14.0382 17.6989 13.9997 17.5018 14L6.5 14C6.10218 14 5.72064 14.158 5.43934 14.4393C5.15804 14.7206 5 15.1022 5 15.5V17H19V15.5C19 15.1011 18.8425 14.7169 18.5632 14.4374C18.4237 14.2985 18.2583 14.1884 18.0764 14.1133Z" fill="black"/>
<path fill-rule="evenodd" clip-rule="evenodd" d="M9.19978 2.01468C9.96434 1.31002 10.9748 1 12 1C13.0609 1 14.0783 1.42143 14.8284 2.17157C15.5786 2.92172 16 3.93913 16 5C16 6.22378 15.676 6.89507 15.3682 7.43364C15.351 7.46373 15.3345 7.49255 15.3186 7.52026C15.0992 7.90212 15 8.07475 15 8.5V13C15 13.5523 14.5523 14 14 14C13.4477 14 13 13.5523 13 13V8.5C13 7.53125 13.3323 6.95813 13.5767 6.53678C13.5956 6.5041 13.6141 6.47233 13.6318 6.44136C13.824 6.10493 14 5.77622 14 5C14 4.46957 13.7893 3.96086 13.4142 3.58579C13.0391 3.21071 12.5304 3 12 3C11.3652 3 10.8757 3.18998 10.5552 3.48532C10.2481 3.76835 10 4.23579 10 5C10 5.77622 10.176 6.10493 10.3682 6.44136C10.3859 6.47233 10.4044 6.5041 10.4233 6.53678C10.6677 6.95813 11 7.53125 11 8.5V13C11 13.5523 10.5523 14 10 14C9.44772 14 9 13.5523 9 13V8.5C9 8.07475 8.90082 7.90212 8.68143 7.52026C8.66551 7.49255 8.64895 7.46373 8.63176 7.43364C8.324 6.89507 8 6.22378 8 5C8 3.76421 8.42187 2.73165 9.19978 2.01468Z" fill="black"/>
</svg>
