<svg width="24" height="24" viewBox="0 0 24 24" fill="none" xmlns="http://www.w3.org/2000/svg">
<path fill-rule="evenodd" clip-rule="evenodd" d="M10.5021 1.40277C10.9577 1.14026 11.4742 1.00208 12 1.00208C12.5258 1.00208 13.0423 1.14026 13.4979 1.40277C13.4986 1.40318 13.4993 1.40359 13.5 1.404L20.4961 5.40178C20.4974 5.40252 20.4987 5.40326 20.5 5.404C20.9556 5.66704 21.334 6.04527 21.5973 6.50074C21.8606 6.95621 21.9995 7.47291 22 7.999V16.0011C21.9995 16.5271 21.8606 17.0438 21.5973 17.4993C21.334 17.9548 20.9556 18.333 20.5 18.5961C20.4987 18.5968 20.4974 18.5975 20.4961 18.5983L13.5 22.5961C13.4994 22.5964 13.4987 22.5968 13.4981 22.5972C13.0425 22.8597 12.5259 22.998 12 22.998C11.4741 22.998 10.9575 22.8597 10.5019 22.5972C10.5013 22.5968 10.5006 22.5964 10.5 22.5961L3.50386 18.5983C3.50257 18.5975 3.50129 18.5968 3.5 18.5961C3.04439 18.333 2.66597 17.9548 2.40269 17.4993C2.13941 17.0438 2.00054 16.5271 2 16.0011V7.999C2.00054 7.47291 2.13941 6.95621 2.40269 6.50074C2.66597 6.04527 3.04439 5.66704 3.5 5.404C3.50129 5.40326 3.50257 5.40252 3.50386 5.40178L10.5021 1.40277ZM12 3.00208C11.8245 3.00208 11.652 3.04828 11.5 3.13605C11.4987 3.13679 11.4974 3.13753 11.4961 3.13827L4.49841 7.13697C4.34725 7.22461 4.22168 7.35034 4.13423 7.50163C4.04654 7.65333 4.00025 7.82541 4 8.00062V15.9994C4.00025 16.1746 4.04654 16.3467 4.13423 16.4984C4.22167 16.6497 4.34721 16.7754 4.49834 16.863C4.49889 16.8634 4.49945 16.8637 4.5 16.864L11.4961 20.8618C11.4974 20.8625 11.4987 20.8633 11.5 20.864C11.652 20.9518 11.8245 20.998 12 20.998C12.1755 20.998 12.348 20.9518 12.5 20.864C12.5013 20.8633 12.5026 20.8625 12.5039 20.8618L19.5 16.864C19.5005 16.8637 19.5011 16.8634 19.5016 16.8631C19.6528 16.7754 19.7783 16.6497 19.8658 16.4984C19.9535 16.3466 19.9998 16.1744 20 15.999V8.00105C19.9998 7.82569 19.9535 7.65345 19.8658 7.50163C19.7783 7.35033 19.6527 7.22459 19.5016 7.13695C19.501 7.13665 19.5005 7.13635 19.5 7.13605L12.5039 3.13827C12.5026 3.13753 12.5013 3.13679 12.5 3.13605C12.348 3.04828 12.1755 3.00208 12 3.00208Z" fill="black"/>
</svg>
