<svg width="24" height="24" viewBox="0 0 24 24" fill="none" xmlns="http://www.w3.org/2000/svg">
<path fill-rule="evenodd" clip-rule="evenodd" d="M1 8C1 4.60061 3.99905 2 7.5 2C11.001 2 14 4.60061 14 8C14 8.55228 13.5523 9 13 9C12.4477 9 12 8.55228 12 8C12 5.87939 10.079 4 7.5 4C5.33676 4 3.63651 5.32224 3.1445 7H3.58579L4.29289 6.29289C4.68342 5.90237 5.31658 5.90237 5.70711 6.29289L6.41421 7H10C10.5523 7 11 7.44771 11 8C11 8.55228 10.5523 9 10 9H6C5.73478 9 5.48043 8.89464 5.29289 8.70711L5 8.41421L4.70711 8.70711C4.51957 8.89464 4.26522 9 4 9H2C1.44772 9 1 8.55228 1 8Z" fill="black"/>
<path fill-rule="evenodd" clip-rule="evenodd" d="M16.4931 6.99987C15.4502 6.99269 14.4331 7.32398 13.5944 7.94399C13.1503 8.27232 12.5242 8.17848 12.1958 7.73439C11.8675 7.2903 11.9614 6.66412 12.4054 6.33579C13.5911 5.45919 15.0289 4.99049 16.5034 4.99989C20.0029 5.0016 22.9999 7.60161 22.9999 10.9999C22.9999 11.5522 22.5522 11.9999 21.9999 11.9999H18.9999C18.7347 11.9999 18.4804 11.8945 18.2928 11.707L17.9999 11.4141L17.707 11.707C17.5195 11.8945 17.2652 11.9999 16.9999 11.9999H13.9999C13.4477 11.9999 12.9999 11.5522 12.9999 10.9999C12.9999 10.4476 13.4477 9.99989 13.9999 9.99989H16.5857L17.2928 9.29279C17.6834 8.90226 18.3165 8.90226 18.707 9.29279L19.4142 9.99989H20.8554C20.3634 8.32213 18.6632 6.99989 16.4999 6.99989C16.4976 6.99989 16.4954 6.99989 16.4931 6.99987Z" fill="black"/>
<path fill-rule="evenodd" clip-rule="evenodd" d="M5.1829 9.00285C7.65752 6.52823 11.6154 6.23882 14.0189 8.65466C14.4077 9.04548 14.4069 9.67725 14.0171 10.0671L6.24794 17.8462C6.06017 18.0344 5.80518 18.1401 5.53932 18.14C5.27345 18.1398 5.01861 18.0337 4.83109 17.8453C2.43362 15.4355 2.70461 11.4811 5.1829 9.00285ZM11.7959 9.45987C10.2643 8.61732 8.12903 8.88515 6.59711 10.4171C5.0691 11.9451 4.80234 14.0809 5.64272 15.6211L11.7959 9.45987Z" fill="black"/>
<path fill-rule="evenodd" clip-rule="evenodd" d="M12.7575 7.02985C13.2933 6.8959 13.8362 7.22166 13.9701 7.75746C14.0261 7.98129 14.1207 8.30107 14.2379 8.69719C14.5735 9.83187 15.0944 11.5929 15.4232 13.5192C15.8738 16.1583 16.025 19.3575 14.9398 22.3417C14.7961 22.7369 14.4205 23 14 23H10C9.6659 23 9.35387 22.8331 9.16835 22.5553C8.98282 22.2774 8.94832 21.9253 9.07638 21.6167C9.88964 19.657 10.4585 17.8913 10.0194 15.6961C9.91111 15.1545 10.2623 14.6277 10.8039 14.5194C11.3454 14.4111 11.8723 14.7623 11.9806 15.3039C12.4177 17.4897 12.0459 19.329 11.4597 21H13.2751C13.9555 18.6608 13.8395 16.1268 13.4518 13.8558C13.1451 12.0597 12.6992 10.5539 12.3651 9.42559C12.2292 8.96689 12.1119 8.57058 12.0299 8.24253C11.8959 7.70673 12.2217 7.1638 12.7575 7.02985Z" fill="black"/>
</svg>
