<svg width="24" height="24" viewBox="0 0 24 24" fill="none" xmlns="http://www.w3.org/2000/svg">
<path fill-rule="evenodd" clip-rule="evenodd" d="M3 13C3.55228 13 4 13.4477 4 14V18.5858L6.29289 16.2929C6.48043 16.1054 6.73478 16 7 16H10C10.5523 16 11 16.4477 11 17C11 17.5523 10.5523 18 10 18H7.41421L3.70711 21.7071C3.42111 21.9931 2.99099 22.0787 2.61732 21.9239C2.24364 21.7691 2 21.4045 2 21V14C2 13.4477 2.44772 13 3 13Z" fill="black"/>
<path fill-rule="evenodd" clip-rule="evenodd" d="M13 17C13 16.4477 13.4477 16 14 16H15C15.5523 16 16 16.4477 16 17C16 17.5523 15.5523 18 15 18H14C13.4477 18 13 17.5523 13 17Z" fill="black"/>
<path fill-rule="evenodd" clip-rule="evenodd" d="M13 3C13 2.44772 13.4477 2 14 2H15C15.5523 2 16 2.44772 16 3C16 3.55228 15.5523 4 15 4H14C13.4477 4 13 3.55228 13 3Z" fill="black"/>
<path fill-rule="evenodd" clip-rule="evenodd" d="M18 3C18 2.44772 18.4477 2 19 2C19.7956 2 20.5587 2.31607 21.1213 2.87868C21.6839 3.44129 22 4.20435 22 5C22 5.55228 21.5523 6 21 6C20.4477 6 20 5.55228 20 5C20 4.73478 19.8946 4.48043 19.7071 4.29289C19.5196 4.10536 19.2652 4 19 4C18.4477 4 18 3.55228 18 3Z" fill="black"/>
<path fill-rule="evenodd" clip-rule="evenodd" d="M21 13C21.5523 13 22 13.4477 22 14V15C22 15.7957 21.6839 16.5587 21.1213 17.1213C20.5587 17.6839 19.7957 18 19 18C18.4477 18 18 17.5523 18 17C18 16.4477 18.4477 16 19 16C19.2652 16 19.5196 15.8946 19.7071 15.7071C19.8946 15.5196 20 15.2652 20 15V14C20 13.4477 20.4477 13 21 13Z" fill="black"/>
<path fill-rule="evenodd" clip-rule="evenodd" d="M21 8C21.5523 8 22 8.44772 22 9V10C22 10.5523 21.5523 11 21 11C20.4477 11 20 10.5523 20 10V9C20 8.44772 20.4477 8 21 8Z" fill="black"/>
<path fill-rule="evenodd" clip-rule="evenodd" d="M3 8C3.55228 8 4 8.44772 4 9V10C4 10.5523 3.55228 11 3 11C2.44772 11 2 10.5523 2 10V9C2 8.44772 2.44772 8 3 8Z" fill="black"/>
<path fill-rule="evenodd" clip-rule="evenodd" d="M2.87868 2.87868C3.44129 2.31607 4.20435 2 5 2C5.55228 2 6 2.44772 6 3C6 3.55228 5.55228 4 5 4C4.73478 4 4.48043 4.10536 4.29289 4.29289C4.10536 4.48043 4 4.73478 4 5C4 5.55228 3.55228 6 3 6C2.44772 6 2 5.55228 2 5C2 4.20435 2.31607 3.44129 2.87868 2.87868Z" fill="black"/>
<path fill-rule="evenodd" clip-rule="evenodd" d="M8 3C8 2.44772 8.44772 2 9 2H10C10.5523 2 11 2.44772 11 3C11 3.55228 10.5523 4 10 4H9C8.44772 4 8 3.55228 8 3Z" fill="black"/>
</svg>
