<svg width="24" height="24" viewBox="0 0 24 24" fill="none" xmlns="http://www.w3.org/2000/svg">
<path fill-rule="evenodd" clip-rule="evenodd" d="M3 2C3.55228 2 4 2.44772 4 3V19C4 19.2652 4.10536 19.5196 4.29289 19.7071C4.48043 19.8946 4.73478 20 5 20H21C21.5523 20 22 20.4477 22 21C22 21.5523 21.5523 22 21 22H5C4.20435 22 3.44129 21.6839 2.87868 21.1213C2.31607 20.5587 2 19.7956 2 19V3C2 2.44772 2.44772 2 3 2Z" fill="black"/>
<path fill-rule="evenodd" clip-rule="evenodd" d="M20.2425 4.02985C20.7783 4.1638 21.1041 4.70673 20.9701 5.24253C20.7005 6.32124 20.0427 8.16141 19.1138 9.75386C18.6493 10.5501 18.0901 11.3315 17.4404 11.9255C16.7954 12.5152 15.9711 13 15 13C13.4554 13 12.6758 11.822 12.2265 11.143C12.2063 11.1125 12.1868 11.083 12.1679 11.0547C11.6074 10.2139 11.386 9.99999 11 9.99999C10.7471 9.99999 10.4653 10.1158 10.1316 10.484C9.78853 10.8626 9.46613 11.4313 9.17307 12.1346C8.67736 13.3243 8.34889 14.6822 8.10072 15.7082C8.05461 15.8988 8.01126 16.078 7.97013 16.2425C7.83619 16.7783 7.29325 17.1041 6.75746 16.9701C6.22166 16.8362 5.8959 16.2933 6.02985 15.7575C6.06533 15.6155 6.10437 15.4535 6.14733 15.2752C6.39199 14.2598 6.76364 12.7172 7.32692 11.3654C7.65885 10.5687 8.08645 9.76241 8.64963 9.14097C9.22223 8.50914 10.0029 7.99999 11 7.99999C12.5446 7.99999 13.3242 9.178 13.7735 9.85703C13.7937 9.88751 13.8132 9.91698 13.832 9.94529C14.3926 10.7861 14.614 11 15 11C15.2789 11 15.642 10.8598 16.0908 10.4495C16.5349 10.0435 16.9757 9.44991 17.3862 8.74612C18.2073 7.33858 18.7995 5.67875 19.0299 4.75746C19.1638 4.22166 19.7067 3.8959 20.2425 4.02985Z" fill="black"/>
</svg>
