<svg width="24" height="24" viewBox="0 0 24 24" fill="none" xmlns="http://www.w3.org/2000/svg">
<path fill-rule="evenodd" clip-rule="evenodd" d="M3.87868 1.87868C4.44129 1.31607 5.20435 1 6 1H15C15.2652 1 15.5196 1.10536 15.7071 1.29289L20.7071 6.29289C20.8946 6.48043 21 6.73478 21 7V20C21 20.7957 20.6839 21.5587 20.1213 22.1213C19.5587 22.6839 18.7957 23 18 23H6C5.20435 23 4.44129 22.6839 3.87868 22.1213C3.31607 21.5587 3 20.7956 3 20V4C3 3.20435 3.31607 2.44129 3.87868 1.87868ZM6 3C5.73478 3 5.48043 3.10536 5.29289 3.29289C5.10536 3.48043 5 3.73478 5 4V20C5 20.2652 5.10536 20.5196 5.29289 20.7071C5.48043 20.8946 5.73478 21 6 21H18C18.2652 21 18.5196 20.8946 18.7071 20.7071C18.8946 20.5196 19 20.2652 19 20V7.41421L14.5858 3H6Z" fill="black"/>
<path fill-rule="evenodd" clip-rule="evenodd" d="M9 13V17H15V13H9ZM7 13C7 11.8954 7.89543 11 9 11H15C16.1046 11 17 11.8954 17 13V17C17 18.1046 16.1046 19 15 19H9C7.89543 19 7 18.1046 7 17V13Z" fill="black"/>
<path fill-rule="evenodd" clip-rule="evenodd" d="M12 9C11.7348 9 11.4804 9.10536 11.2929 9.29289C11.1054 9.48043 11 9.73478 11 10V12C11 12.5523 10.5523 13 10 13C9.44772 13 9 12.5523 9 12V10C9 9.20435 9.31607 8.44129 9.87868 7.87868C10.4413 7.31607 11.2043 7 12 7C12.7957 7 13.5587 7.31607 14.1213 7.87868C14.6839 8.44129 15 9.20435 15 10V12C15 12.5523 14.5523 13 14 13C13.4477 13 13 12.5523 13 12V10C13 9.73478 12.8946 9.48043 12.7071 9.29289C12.5196 9.10536 12.2652 9 12 9Z" fill="black"/>
</svg>
