<svg width="24" height="24" viewBox="0 0 24 24" fill="none" xmlns="http://www.w3.org/2000/svg">
<path fill-rule="evenodd" clip-rule="evenodd" d="M8.00003 6C8.00003 5.44772 8.44774 5 9.00003 5H15C15.5523 5 16 5.44772 16 6V11H19C19.4045 11 19.7691 11.2436 19.9239 11.6173C20.0787 11.991 19.9931 12.4211 19.7071 12.7071L12.7071 19.7071C12.3166 20.0976 11.6834 20.0976 11.2929 19.7071L4.29292 12.7071C4.00692 12.4211 3.92137 11.991 4.07615 11.6173C4.23093 11.2436 4.59557 11 5.00003 11H8.00003V6ZM10 7V12C10 12.5523 9.55231 13 9.00003 13H7.41424L12 17.5858L16.5858 13H15C14.4477 13 14 12.5523 14 12V7H10Z" fill="black"/>
</svg>
