<svg width="24" height="24" viewBox="0 0 24 24" fill="none" xmlns="http://www.w3.org/2000/svg">
<path fill-rule="evenodd" clip-rule="evenodd" d="M7.10562 0.6531C8.977 0.230984 10.9381 0.506941 12.6203 1.4291C14.2835 2.34078 15.5607 3.82199 16.2183 5.59938C16.6652 6.4526 17.517 6.99996 18.5 6.99996C20.9523 6.99996 23 9.04768 23 11.5V20C23 20.7956 22.684 21.5587 22.1213 22.1213C21.5587 22.6839 20.7957 23 20 23H4.00003C3.20438 23 2.44131 22.6839 1.8787 22.1213C1.3161 21.5587 1.00002 20.7956 1.00002 20V9.04716C0.826889 7.15465 1.34442 5.26272 2.45802 3.72135C3.58148 2.16633 5.23424 1.07522 7.10562 0.6531ZM11.659 3.18288C10.4042 2.49507 8.9415 2.28924 7.54569 2.60408C6.14988 2.91893 4.91714 3.73276 4.07918 4.8926C3.24123 6.05244 2.85577 7.47842 2.99526 8.90247C2.99844 8.93487 3.00002 8.96741 3.00002 8.99996V20C3.00002 20.2652 3.10538 20.5195 3.29292 20.7071C3.48045 20.8946 3.73481 21 4.00003 21H20C20.2652 21 20.5196 20.8946 20.7071 20.7071C20.8947 20.5195 21 20.2652 21 20V11.5C21 10.1522 19.8477 8.99996 18.5 8.99996C16.7009 8.99996 15.1657 7.96732 14.4056 6.44718C14.3881 6.41211 14.3726 6.37604 14.3593 6.33916C13.874 4.99311 12.9137 3.87069 11.659 3.18288Z" fill="black"/>
<path fill-rule="evenodd" clip-rule="evenodd" d="M1 14C1 13.4477 1.44772 13 2 13H22C22.5523 13 23 13.4477 23 14C23 14.5523 22.5523 15 22 15H2C1.44772 15 1 14.5523 1 14Z" fill="black"/>
<path fill-rule="evenodd" clip-rule="evenodd" d="M6 13C6.55228 13 7 13.4477 7 14V18C7 18.5523 6.55228 19 6 19C5.44772 19 5 18.5523 5 18V14C5 13.4477 5.44772 13 6 13Z" fill="black"/>
<path fill-rule="evenodd" clip-rule="evenodd" d="M10 13C10.5523 13 11 13.4477 11 14V18C11 18.5523 10.5523 19 10 19C9.44772 19 9 18.5523 9 18V14C9 13.4477 9.44772 13 10 13Z" fill="black"/>
<path fill-rule="evenodd" clip-rule="evenodd" d="M14 13C14.5523 13 15 13.4477 15 14V18C15 18.5523 14.5523 19 14 19C13.4477 19 13 18.5523 13 18V14C13 13.4477 13.4477 13 14 13Z" fill="black"/>
<path fill-rule="evenodd" clip-rule="evenodd" d="M18 13C18.5523 13 19 13.4477 19 14V18C19 18.5523 18.5523 19 18 19C17.4477 19 17 18.5523 17 18V14C17 13.4477 17.4477 13 18 13Z" fill="black"/>
</svg>
