<svg width="24" height="24" viewBox="0 0 24 24" fill="none" xmlns="http://www.w3.org/2000/svg">
<path fill-rule="evenodd" clip-rule="evenodd" d="M5.6072 4.19292C5.99773 4.58344 5.99773 5.21661 5.6072 5.60713C2.09773 9.11661 2.09773 14.8834 5.6072 18.3929C5.99773 18.7834 5.99773 19.4166 5.6072 19.8071C5.21668 20.1977 4.58352 20.1977 4.19299 19.8071C-0.0975336 15.5166 -0.0975336 8.48344 4.19299 4.19292C4.58352 3.80239 5.21668 3.80239 5.6072 4.19292Z" fill="black"/>
<path fill-rule="evenodd" clip-rule="evenodd" d="M8.49186 6.97796C8.8906 7.36009 8.90407 7.99311 8.52194 8.39186C6.58453 10.4135 6.60568 13.5915 8.50706 15.4928C8.89758 15.8834 8.89758 16.5165 8.50706 16.9071C8.11653 17.2976 7.48337 17.2976 7.09285 16.9071C4.39423 14.2084 4.41538 9.7864 7.07796 7.00805C7.46009 6.6093 8.09311 6.59584 8.49186 6.97796Z" fill="black"/>
<path fill-rule="evenodd" clip-rule="evenodd" d="M12 11C11.4477 11 11 11.4477 11 12C11 12.5523 11.4477 13 12 13C12.5523 13 13 12.5523 13 12C13 11.4477 12.5523 11 12 11ZM9 12C9 10.3431 10.3431 9 12 9C13.6569 9 15 10.3431 15 12C15 13.6569 13.6569 15 12 15C10.3431 15 9 13.6569 9 12Z" fill="black"/>
<path fill-rule="evenodd" clip-rule="evenodd" d="M15.4928 7.09294C15.8834 6.70242 16.5165 6.70242 16.9071 7.09294C19.6057 9.79156 19.5845 14.2136 16.9219 16.992C16.5398 17.3907 15.9068 17.4042 15.508 17.022C15.1093 16.6399 15.0958 16.0069 15.478 15.6081C17.4154 13.5865 17.3942 10.4085 15.4928 8.50716C15.1023 8.11663 15.1023 7.48347 15.4928 7.09294Z" fill="black"/>
<path fill-rule="evenodd" clip-rule="evenodd" d="M18.393 4.19292C18.7835 3.80239 19.4167 3.80239 19.8072 4.19292C24.0977 8.48344 24.0977 15.4166 19.8072 19.7071C19.4167 20.0977 18.7835 20.0977 18.393 19.7071C18.0025 19.3166 18.0025 18.6834 18.393 18.2929C21.9025 14.7834 21.9025 9.11661 18.393 5.60713C18.0025 5.21661 18.0025 4.58344 18.393 4.19292Z" fill="black"/>
</svg>
