<svg width="24" height="24" viewBox="0 0 24 24" fill="none" xmlns="http://www.w3.org/2000/svg">
<path fill-rule="evenodd" clip-rule="evenodd" d="M3.87868 1.87868C4.44129 1.31607 5.20435 1 6 1H15C15.2652 1 15.5196 1.10536 15.7071 1.29289L20.7071 6.29289C20.8946 6.48043 21 6.73478 21 7V20C21 20.7957 20.6839 21.5587 20.1213 22.1213C19.5587 22.6839 18.7957 23 18 23H14.5C13.9477 23 13.5 22.5523 13.5 22C13.5 21.4477 13.9477 21 14.5 21H18C18.2652 21 18.5196 20.8946 18.7071 20.7071C18.8946 20.5196 19 20.2652 19 20V7.41421L14.5858 3H6C5.73478 3 5.48043 3.10536 5.29289 3.29289C5.10536 3.48043 5 3.73478 5 4V8C5 8.55228 4.55228 9 4 9C3.44772 9 3 8.55228 3 8V4C3 3.20435 3.31607 2.44129 3.87868 1.87868Z" fill="black"/>
<path fill-rule="evenodd" clip-rule="evenodd" d="M14 1C14.5523 1 15 1.44772 15 2V6C15 6.26522 15.1054 6.51957 15.2929 6.70711C15.4804 6.89464 15.7348 7 16 7H20C20.5523 7 21 7.44772 21 8C21 8.55228 20.5523 9 20 9H16C15.2044 9 14.4413 8.68393 13.8787 8.12132C13.3161 7.55871 13 6.79565 13 6V2C13 1.44772 13.4477 1 14 1Z" fill="black"/>
<path fill-rule="evenodd" clip-rule="evenodd" d="M5.46682 10.4259C5.92953 10.1564 6.45592 10.0157 6.99137 10.0183C7.52681 10.021 8.0518 10.1669 8.51183 10.4409C8.51288 10.4415 8.51394 10.4422 8.51499 10.4428L11.5446 12.2625C11.5447 12.2626 11.5448 12.2627 11.545 12.2628C12.0032 12.5378 12.3797 12.9303 12.6354 13.3995C12.8883 13.8637 13.0141 14.3864 13.0001 14.9146V18.1338C13.0061 18.6649 12.871 19.1881 12.6086 19.6499C12.3471 20.1102 11.9685 20.493 11.5113 20.7595L8.55048 22.564C8.5448 22.5674 8.53908 22.5708 8.53334 22.5742C8.07063 22.8436 7.54424 22.9844 7.00879 22.9817C6.47335 22.9791 5.94836 22.8332 5.48834 22.5592L5.48667 22.5582L2.45561 20.7375C2.45556 20.7375 2.45551 20.7375 2.45547 20.7375C2.45537 20.7374 2.45527 20.7373 2.45517 20.7373C1.99694 20.4623 1.6205 20.0698 1.36477 19.6005C1.11182 19.1364 0.986059 18.6137 1.00008 18.0854V14.8663C0.994044 14.3352 1.1291 13.812 1.39152 13.3502C1.65303 12.8899 2.03164 12.5071 2.48883 12.2405L5.44968 10.4361C5.45536 10.4327 5.46107 10.4292 5.46682 10.4259ZM6.4805 12.15L3.52048 13.954C3.5137 13.9581 3.50686 13.9621 3.49998 13.9661C3.34589 14.0551 3.21832 14.1835 3.13043 14.3382C3.04254 14.4929 2.99751 14.6682 2.99998 14.8461C3.00005 14.8508 3.00008 14.8554 3.00008 14.86V18.1C3.00008 18.1109 2.9999 18.1217 2.99955 18.1325C2.99376 18.3106 3.03567 18.4871 3.12094 18.6435C3.20621 18.8 3.33174 18.9308 3.48455 19.0225L6.51182 20.8409C6.51225 20.8411 6.51267 20.8414 6.51309 20.8416C6.66613 20.9325 6.84065 20.9809 7.01864 20.9817C7.19437 20.9826 7.36717 20.9372 7.51966 20.85L10.4797 19.0461C10.4865 19.042 10.4933 19.0379 10.5002 19.034C10.6543 18.945 10.7818 18.8166 10.8697 18.6619C10.9576 18.5072 11.0027 18.3319 11.0002 18.154C11.0001 18.1493 11.0001 18.1447 11.0001 18.14V14.9C11.0001 14.8892 11.0003 14.8784 11.0006 14.8675C11.0064 14.6894 10.9645 14.513 10.8792 14.3565C10.794 14.2001 10.6684 14.0692 10.5156 13.9775L7.48834 12.1592C7.4879 12.1589 7.48746 12.1586 7.48702 12.1584C7.33399 12.0676 7.15949 12.0192 6.98152 12.0183C6.80579 12.0175 6.63299 12.0629 6.4805 12.15Z" fill="black"/>
<path fill-rule="evenodd" clip-rule="evenodd" d="M7 16C7.55228 16 8 16.4477 8 17V22C8 22.5523 7.55228 23 7 23C6.44772 23 6 22.5523 6 22V17C6 16.4477 6.44772 16 7 16Z" fill="black"/>
<path fill-rule="evenodd" clip-rule="evenodd" d="M1.44086 13.6882C1.72352 13.2137 2.3373 13.0582 2.81176 13.3409L6.99996 15.836L11.1882 13.3409C11.6626 13.0582 12.2764 13.2137 12.5591 13.6882C12.8417 14.1626 12.6862 14.7764 12.2118 15.0591L7.51176 17.8591C7.19642 18.0469 6.8035 18.0469 6.48815 17.8591L1.78815 15.0591C1.31368 14.7764 1.1582 14.1626 1.44086 13.6882Z" fill="black"/>
</svg>
