<svg width="24" height="24" viewBox="0 0 24 24" fill="none" xmlns="http://www.w3.org/2000/svg">
<path fill-rule="evenodd" clip-rule="evenodd" d="M10.7797 1.65223C11.3236 1.74814 11.6867 2.26681 11.5908 2.8107L11.4171 3.79604L13.3872 4.14345L13.5613 3.15808C13.6573 2.61422 14.1761 2.25121 14.72 2.34729C15.2639 2.44336 15.6269 2.96213 15.5308 3.50599L15.3422 4.57368C16.3364 4.93391 17.1009 5.54465 17.6122 6.31395C18.2689 7.30199 18.462 8.48282 18.2697 9.57356C18.0774 10.6643 17.492 11.7078 16.5371 12.4117C16.3765 12.53 16.2073 12.6374 16.0301 12.733C16.1636 12.8832 16.2855 13.0417 16.3957 13.2075C17.0522 14.1956 17.2452 15.3764 17.0528 16.4671C16.8604 17.5578 16.275 18.6013 15.3201 19.3052C14.577 19.853 13.6502 20.1655 12.5935 20.1643L12.406 21.232C12.3104 21.776 11.792 22.1395 11.248 22.044C10.7041 21.9484 10.3406 21.43 10.4361 20.8861L10.6092 19.9002L8.63855 19.5526L8.46484 20.5377C8.36893 21.0816 7.85026 21.4448 7.30637 21.3488C6.76248 21.2529 6.39931 20.7343 6.49523 20.1904L6.66896 19.2052L5.68631 19.0318C5.14242 18.9359 4.77929 18.4172 4.87524 17.8733C4.97118 17.3294 5.48986 16.9663 6.03375 17.0622L7.01628 17.2356L9.10015 5.41832L8.11637 5.24484C7.57248 5.14893 7.20931 4.63027 7.30523 4.08638C7.40114 3.54248 7.9198 3.17932 8.46369 3.27523L9.44747 3.44871L9.62123 2.46338C9.71714 1.91948 10.2358 1.55632 10.7797 1.65223ZM11.0698 5.76565L10.2015 10.6895L13.1575 11.2102L13.1578 11.2103C14.1444 11.3844 14.861 11.1625 15.3505 10.8017C15.8545 10.4302 16.1885 9.85891 16.3001 9.22627C16.4116 8.59363 16.2931 7.94253 15.9465 7.42097C15.6117 6.91724 15.0188 6.46568 14.0414 6.2897C14.0356 6.28878 14.0298 6.28781 14.0241 6.28679C14.018 6.28571 14.0119 6.28458 14.0058 6.2834L11.0698 5.76565ZM9.85415 12.6591L8.98587 17.583L11.9406 18.1042C12.9272 18.2781 13.6439 18.0561 14.1334 17.6953C14.6376 17.3237 14.9716 16.7524 15.0832 16.1197C15.1948 15.487 15.0764 14.8359 14.7298 14.3143C14.3933 13.8077 13.7958 13.3539 12.8092 13.1798C12.8032 13.1787 12.7971 13.1776 12.7911 13.1764L9.85415 12.6591Z" fill="black"/>
</svg>
