<svg width="24" height="24" viewBox="0 0 24 24" fill="none" xmlns="http://www.w3.org/2000/svg">
<path fill-rule="evenodd" clip-rule="evenodd" d="M3.87868 1.87868C4.44129 1.31607 5.20435 1 6 1H13.4C13.9523 1 14.4 1.44772 14.4 2C14.4 2.55228 13.9523 3 13.4 3H6C5.73478 3 5.48043 3.10536 5.29289 3.29289C5.10536 3.48043 5 3.73478 5 4V20C5 20.2652 5.10536 20.5196 5.29289 20.7071C5.48043 20.8946 5.73478 21 6 21H18C18.2652 21 18.5196 20.8946 18.7071 20.7071C18.8946 20.5196 19 20.2652 19 20V12.6C19 12.0477 19.4477 11.6 20 11.6C20.5523 11.6 21 12.0477 21 12.6V20C21 20.7957 20.6839 21.5587 20.1213 22.1213C19.5587 22.6839 18.7957 23 18 23H6C5.20435 23 4.44129 22.6839 3.87868 22.1213C3.31607 21.5587 3 20.7956 3 20V4C3 3.20435 3.31607 2.44129 3.87868 1.87868Z" fill="black"/>
<path fill-rule="evenodd" clip-rule="evenodd" d="M1 6C1 5.44772 1.44772 5 2 5H6C6.55228 5 7 5.44772 7 6C7 6.55228 6.55228 7 6 7H2C1.44772 7 1 6.55228 1 6Z" fill="black"/>
<path fill-rule="evenodd" clip-rule="evenodd" d="M1 10C1 9.44772 1.44772 9 2 9H6C6.55228 9 7 9.44772 7 10C7 10.5523 6.55228 11 6 11H2C1.44772 11 1 10.5523 1 10Z" fill="black"/>
<path fill-rule="evenodd" clip-rule="evenodd" d="M1 14C1 13.4477 1.44772 13 2 13H6C6.55228 13 7 13.4477 7 14C7 14.5523 6.55228 15 6 15H2C1.44772 15 1 14.5523 1 14Z" fill="black"/>
<path fill-rule="evenodd" clip-rule="evenodd" d="M1 18C1 17.4477 1.44772 17 2 17H6C6.55228 17 7 17.4477 7 18C7 18.5523 6.55228 19 6 19H2C1.44772 19 1 18.5523 1 18Z" fill="black"/>
<path fill-rule="evenodd" clip-rule="evenodd" d="M17.6669 1.91492C18.2528 1.32903 19.0474 0.999878 19.876 0.999878C20.7046 0.999878 21.4992 1.32903 22.0851 1.91492C22.671 2.50081 23.0001 3.29545 23.0001 4.12403C23.0001 4.9526 22.671 5.74724 22.0851 6.33313L17.0723 11.3419C17.0723 11.342 17.0722 11.342 17.0722 11.342C16.7158 11.6986 16.2752 11.9596 15.7913 12.1009L12.921 12.938C12.921 12.938 12.921 12.938 12.921 12.938C12.6628 13.0133 12.3892 13.0178 12.1287 12.9511C11.8682 12.8844 11.6305 12.7488 11.4403 12.5587C11.2502 12.3685 11.1146 12.1308 11.0479 11.8703C10.9812 11.6098 10.9857 11.3362 11.061 11.0781C11.061 11.078 11.061 11.078 11.061 11.078L11.8981 8.20773C12.0394 7.72388 12.3003 7.28343 12.6567 6.92706C12.6568 6.92695 12.657 6.92684 12.6571 6.92672L17.6667 1.91506L18.3739 2.62194L17.6669 1.91492ZM19.0812 3.32899C19.0812 3.32904 19.0811 3.32909 19.0811 3.32913L14.0709 8.34133C13.9521 8.46006 13.8651 8.6068 13.818 8.768C13.818 8.76803 13.818 8.76807 13.818 8.7681C13.8179 8.76818 13.8179 8.76825 13.8179 8.76833L13.2362 10.7628L15.2307 10.1811C15.392 10.134 15.5389 10.047 15.6577 9.92811L20.6709 4.91892C20.671 4.91883 20.6711 4.91873 20.6712 4.91864C20.8818 4.70785 21.0001 4.42204 21.0001 4.12403C21.0001 3.82588 20.8817 3.53995 20.6709 3.32913C20.4601 3.11831 20.1741 2.99988 19.876 2.99988C19.5779 2.99988 19.292 3.11826 19.0812 3.32899Z" fill="black"/>
</svg>
