<svg width="24" height="24" viewBox="0 0 24 24" fill="none" xmlns="http://www.w3.org/2000/svg">
<path fill-rule="evenodd" clip-rule="evenodd" d="M8.9054 1.00924C9.43759 0.996637 9.96695 1.09039 10.4624 1.28501C10.9579 1.47964 11.4096 1.7712 11.791 2.14263C11.8635 2.21331 11.9333 2.28661 12.0001 2.36235C12.0669 2.28661 12.1366 2.21331 12.2092 2.14263C12.5905 1.7712 13.0422 1.47964 13.5377 1.28501C14.0332 1.09039 14.5626 0.996637 15.0948 1.00924C15.6269 1.02184 16.1513 1.14055 16.637 1.3584C17.1227 1.57626 17.5601 1.88887 17.9234 2.27794C18.2868 2.667 18.5688 3.12468 18.753 3.62414C18.8475 3.88044 18.9153 4.1451 18.9557 4.41391C19.4205 4.61132 19.854 4.87858 20.2408 5.20765C20.8186 5.69922 21.2771 6.31585 21.5813 7.01082C21.8855 7.70579 22.0276 8.46087 21.9969 9.2189C21.9767 9.71617 21.8824 10.2061 21.7184 10.673C22.0862 11.0819 22.3853 11.5501 22.6019 12.0595C22.9208 12.8092 23.0517 13.6253 22.9832 14.4371C22.9147 15.2488 22.6489 16.0315 22.2089 16.7171C21.8858 17.2206 21.4759 17.6604 21.0001 18.0172C20.9992 18.9956 20.7111 19.9576 20.1643 20.7803C19.4975 21.7837 18.4908 22.5125 17.3294 22.8328C16.1681 23.1531 14.9301 23.0433 13.8432 22.5236C13.1109 22.1735 12.4803 21.6531 12.0001 21.0128C11.5198 21.6531 10.8893 22.1735 10.1569 22.5236C9.07003 23.0433 7.83207 23.1531 6.67071 22.8328C5.50935 22.5125 4.50269 21.7837 3.83586 20.7803C3.28906 19.9576 3.00093 18.9956 3.00006 18.0172C2.5242 17.6604 2.11437 17.2206 1.79128 16.7171C1.3513 16.0315 1.08549 15.2488 1.01698 14.4371C0.948473 13.6253 1.07934 12.8092 1.3982 12.0595C1.61488 11.5501 1.91391 11.0819 2.28171 10.673C2.11774 10.2061 2.02348 9.71617 2.00329 9.2189C1.9725 8.46087 2.11461 7.70579 2.41886 7.01082C2.7231 6.31585 3.1815 5.69922 3.75934 5.20765C4.14615 4.87858 4.57969 4.61132 5.04447 4.41391C5.08485 4.1451 5.15262 3.88044 5.24714 3.62414C5.43133 3.12468 5.71336 2.667 6.07671 2.27794C6.44006 1.88888 6.87742 1.57626 7.36314 1.3584C7.84887 1.14055 8.3732 1.02184 8.9054 1.00924ZM13.2545 19.2219C13.5437 19.8784 14.0585 20.4097 14.706 20.7193C15.3581 21.0311 16.1009 21.097 16.7977 20.9048C17.4945 20.7126 18.0985 20.2753 18.4986 19.6733C18.8987 19.0713 19.068 18.3451 18.9753 17.6282C18.9231 17.2244 19.121 16.8293 19.4755 16.6292C19.9012 16.3889 20.2617 16.0483 20.5257 15.6369C20.7897 15.2256 20.9491 14.7559 20.9903 14.2689C21.0314 13.7818 20.9528 13.2921 20.7615 12.8424C20.5702 12.3926 20.2719 11.9964 19.8925 11.6882C19.5199 11.3855 19.415 10.8607 19.6426 10.438C19.8583 10.0372 19.98 9.59255 19.9985 9.13774C20.017 8.68292 19.9317 8.22987 19.7492 7.81289C19.5666 7.39591 19.2916 7.02593 18.9449 6.73098C18.5982 6.43604 18.1889 6.22385 17.7481 6.1105C17.2899 5.9927 16.977 5.56997 16.9981 5.09737C17.0099 4.83147 16.9686 4.56586 16.8765 4.31613C16.7844 4.0664 16.6434 3.83756 16.4618 3.64303C16.2801 3.4485 16.0614 3.29219 15.8185 3.18326C15.5757 3.07433 15.3135 3.01498 15.0474 3.00868C14.7813 3.00238 14.5166 3.04926 14.2689 3.14657C14.0211 3.24388 13.7953 3.38966 13.6046 3.57538C13.4139 3.76109 13.2623 3.983 13.1584 4.22809C13.0546 4.47319 13.0008 4.73654 13.0001 5.00271C12.9986 5.55394 12.5513 6 12.0001 6C11.4488 6 11.0016 5.55394 11.0001 5.00271C10.9994 4.73654 10.9455 4.47319 10.8417 4.22809C10.7379 3.983 10.5862 3.76109 10.3955 3.57538C10.2048 3.38966 9.97901 3.24388 9.73127 3.14657C9.48352 3.04926 9.21884 3.00238 8.95274 3.00868C8.68664 3.01498 8.42448 3.07433 8.18162 3.18326C7.93875 3.29219 7.72007 3.4485 7.5384 3.64303C7.35672 3.83756 7.21571 4.0664 7.12361 4.31613C7.03152 4.56586 6.9902 4.83147 7.00208 5.09737C7.02319 5.56997 6.71026 5.9927 6.2521 6.1105C5.81125 6.22385 5.40197 6.43604 5.05527 6.73098C4.70857 7.02593 4.43353 7.39591 4.25098 7.81289C4.06843 8.22987 3.98317 8.68292 4.00164 9.13774C4.02011 9.59255 4.14184 10.0372 4.3576 10.438C4.58515 10.8607 4.48022 11.3855 4.10762 11.6882C3.72826 11.9964 3.42994 12.3926 3.23863 12.8424C3.04731 13.2921 2.96879 13.7818 3.0099 14.2689C3.051 14.7559 3.21049 15.2256 3.47448 15.6369C3.73847 16.0483 4.09897 16.3889 4.52462 16.6292C4.87919 16.8293 5.07702 17.2244 5.02482 17.6282C4.93217 18.3451 5.10145 19.0713 5.50155 19.6733C5.90164 20.2753 6.50564 20.7126 7.20246 20.9048C7.89927 21.097 8.64205 21.0311 9.29417 20.7193C9.94189 20.4096 10.4569 19.878 10.746 19.2211C10.7921 19.1037 10.8281 18.9824 10.8535 18.8588C10.8542 18.8557 10.8548 18.8526 10.8555 18.8494C10.941 18.4525 11.211 18.2174 11.4224 18.1046C11.6266 17.9957 11.8339 17.9625 12.0002 17.9625C12.1667 17.9625 12.3733 17.9957 12.5767 18.1038C12.7868 18.2155 13.0561 18.448 13.1441 18.8423C13.1448 18.8456 13.1456 18.849 13.1463 18.8523C13.1468 18.855 13.1474 18.8577 13.1479 18.8604C13.1731 18.9837 13.2087 19.1047 13.2545 19.2219Z" fill="black"/>
<path fill-rule="evenodd" clip-rule="evenodd" d="M18.0395 4.12588C18.5913 4.14878 19.0201 4.61467 18.9972 5.16648C18.9704 5.81157 18.7879 6.4406 18.4652 6.99982C18.1892 7.47817 17.5776 7.64219 17.0992 7.36616C16.6209 7.09012 16.4569 6.47857 16.7329 6.00021C16.8943 5.72061 16.9855 5.4061 16.9989 5.08355C17.0218 4.53174 17.4877 4.10297 18.0395 4.12588Z" fill="black"/>
<path fill-rule="evenodd" clip-rule="evenodd" d="M5.9621 4.12585C6.51392 4.10329 6.97955 4.53235 7.00211 5.08417C7.01529 5.40666 7.10633 5.72117 7.26744 6.00084C7.54313 6.47939 7.37868 7.09083 6.90012 7.36651C6.42157 7.6422 5.81014 7.47775 5.53445 6.9992C5.21222 6.43986 5.03015 5.81084 5.00378 5.16586C4.98122 4.61404 5.41028 4.14841 5.9621 4.12585Z" fill="black"/>
<path fill-rule="evenodd" clip-rule="evenodd" d="M4.93646 10.0148C5.20445 10.4977 5.03024 11.1064 4.54733 11.3744C4.39261 11.4603 4.24579 11.5597 4.10858 11.6714C3.68036 12.0202 3.05048 11.9558 2.70171 11.5275C2.35294 11.0993 2.41735 10.4694 2.84558 10.1207C3.07425 9.93441 3.31896 9.76877 3.57683 9.62566C4.05973 9.35766 4.66846 9.53187 4.93646 10.0148Z" fill="black"/>
<path fill-rule="evenodd" clip-rule="evenodd" d="M19.0636 10.0148C19.3315 9.53187 19.9403 9.35766 20.4232 9.62566C20.681 9.76877 20.9258 9.93441 21.1544 10.1207C21.5827 10.4694 21.6471 11.0993 21.2983 11.5275C20.9495 11.9558 20.3197 12.0202 19.8914 11.6714C19.7542 11.5597 19.6074 11.4603 19.4527 11.3744C18.9698 11.1064 18.7956 10.4977 19.0636 10.0148Z" fill="black"/>
<path fill-rule="evenodd" clip-rule="evenodd" d="M3.16189 16.9927C3.43322 16.5117 4.04313 16.3417 4.52417 16.613C4.97438 16.8669 5.48255 17.0002 5.99942 17C6.55171 16.9997 6.99963 17.4473 6.99989 17.9995C7.00015 18.5518 6.55264 18.9997 6.00036 19C5.13889 19.0004 4.29194 18.7782 3.54161 18.355C3.06057 18.0837 2.89056 17.4738 3.16189 16.9927Z" fill="black"/>
<path fill-rule="evenodd" clip-rule="evenodd" d="M20.838 16.9927C21.1093 17.4738 20.9393 18.0837 20.4583 18.355C19.7079 18.7782 18.861 19.0004 17.9995 19C17.4472 18.9997 16.9997 18.5518 17 17.9995C17.0003 17.4473 17.4482 16.9997 18.0005 17C18.5173 17.0002 19.0255 16.8669 19.4757 16.613C19.9568 16.3417 20.5667 16.5117 20.838 16.9927Z" fill="black"/>
<path fill-rule="evenodd" clip-rule="evenodd" d="M12 10C10.8954 10 10 10.8954 10 12C10 13.1046 10.8954 14 12 14C13.1046 14 14 13.1046 14 12C14 10.8954 13.1046 10 12 10ZM8 12C8 9.79086 9.79086 8 12 8C14.2091 8 16 9.79086 16 12C16 14.2091 14.2091 16 12 16C9.79086 16 8 14.2091 8 12Z" fill="black"/>
<path fill-rule="evenodd" clip-rule="evenodd" d="M16.6139 9.99389C16.8382 10.4986 16.6109 11.0895 16.1062 11.3138L15.2062 11.7138C14.7015 11.9381 14.1105 11.7109 13.8862 11.2062C13.6619 10.7015 13.8892 10.1105 14.3939 9.88622L15.2939 9.48622C15.7986 9.26191 16.3896 9.48921 16.6139 9.99389Z" fill="black"/>
<path fill-rule="evenodd" clip-rule="evenodd" d="M10.1139 12.7939C10.3382 13.2986 10.1109 13.8895 9.60619 14.1138L8.70619 14.5138C8.20151 14.7381 7.61055 14.5108 7.38624 14.0062C7.16194 13.5015 7.38923 12.9105 7.89392 12.6862L8.79391 12.2862C9.2986 12.0619 9.88956 12.2892 10.1139 12.7939Z" fill="black"/>
<path fill-rule="evenodd" clip-rule="evenodd" d="M12.7938 13.8862C13.2985 13.6619 13.8895 13.8892 14.1138 14.3939L14.5138 15.2939C14.7381 15.7986 14.5108 16.3895 14.0061 16.6138C13.5014 16.8381 12.9105 16.6108 12.6861 16.1062L12.2861 15.2062C12.0618 14.7015 12.2891 14.1105 12.7938 13.8862Z" fill="black"/>
<path fill-rule="evenodd" clip-rule="evenodd" d="M9.99377 7.38621C10.4985 7.16191 11.0894 7.3892 11.3137 7.89388L11.7137 8.79388C11.938 9.29857 11.7107 9.88953 11.206 10.1138C10.7014 10.3381 10.1104 10.1108 9.8861 9.60616L9.4861 8.70616C9.26179 8.20148 9.48908 7.61052 9.99377 7.38621Z" fill="black"/>
<path fill-rule="evenodd" clip-rule="evenodd" d="M13.8862 12.6939C14.1105 12.1892 14.7015 11.9619 15.2062 12.1862L16.1062 12.5862C16.6109 12.8105 16.8382 13.4015 16.6139 13.9061C16.3896 14.4108 15.7986 14.6381 15.2939 14.4138L14.3939 14.0138C13.8892 13.7895 13.6619 13.1986 13.8862 12.6939Z" fill="black"/>
<path fill-rule="evenodd" clip-rule="evenodd" d="M7.38624 10.0939C7.61055 9.58918 8.20151 9.36189 8.70619 9.58619L9.60619 9.98619C10.1109 10.2105 10.3382 10.8015 10.1139 11.3061C9.88956 11.8108 9.2986 12.0381 8.79392 11.8138L7.89392 11.4138C7.38923 11.1895 7.16194 10.5986 7.38624 10.0939Z" fill="black"/>
<path fill-rule="evenodd" clip-rule="evenodd" d="M11.3061 13.8862C11.8108 14.1105 12.0381 14.7015 11.8138 15.2062L11.4138 16.1062C11.1895 16.6108 10.5986 16.8381 10.0939 16.6138C9.58918 16.3895 9.36189 15.7986 9.58619 15.2939L9.98619 14.3939C10.2105 13.8892 10.8015 13.6619 11.3061 13.8862Z" fill="black"/>
<path fill-rule="evenodd" clip-rule="evenodd" d="M13.9062 7.38621C14.4109 7.61052 14.6382 8.20148 14.4139 8.70616L14.0139 9.60616C13.7896 10.1108 13.1986 10.3381 12.694 10.1138C12.1893 9.88953 11.962 9.29857 12.1863 8.79388L12.5863 7.89389C12.8106 7.3892 13.4016 7.16191 13.9062 7.38621Z" fill="black"/>
</svg>
