<svg width="24" height="24" viewBox="0 0 24 24" fill="none" xmlns="http://www.w3.org/2000/svg">
<path fill-rule="evenodd" clip-rule="evenodd" d="M7.38505 1.0642C7.82166 0.972755 8.27317 0.979827 8.7067 1.0849C9.14023 1.18998 9.54488 1.39041 9.89117 1.67161C10.2375 1.95281 10.5167 2.3077 10.7085 2.71044C10.9003 3.11317 10.9999 3.55362 11 3.9997V3.99996V4.49996C11 5.05225 10.5523 5.49996 10 5.49996C9.44776 5.49996 9.00005 5.05225 9.00005 4.49996V4.00023C9.00005 4.00014 9.00005 4.00005 9.00005 3.99996C8.99997 3.85136 8.96677 3.70464 8.90287 3.57047C8.83893 3.43623 8.74585 3.31793 8.63042 3.2242C8.51499 3.13046 8.38011 3.06365 8.2356 3.02863C8.09109 2.9936 7.94058 2.99124 7.79505 3.02173C7.25449 3.13494 6.7245 2.78852 6.61128 2.24796C6.49807 1.70741 6.84449 1.17742 7.38505 1.0642Z" fill="black"/>
<path fill-rule="evenodd" clip-rule="evenodd" d="M11.694 6.78057C11.8732 6.25816 12.4419 5.97992 12.9644 6.1591C13.4097 6.31186 13.8129 6.5673 14.1412 6.90476C14.4696 7.24222 14.7139 7.65222 14.8544 8.1016C15.0192 8.62872 14.7254 9.18964 14.1983 9.35445C13.6712 9.51925 13.1103 9.22554 12.9455 8.69841C12.8986 8.54862 12.8172 8.41195 12.7078 8.29947C12.5983 8.18698 12.4639 8.10183 12.3155 8.05092C11.7931 7.87173 11.5148 7.30298 11.694 6.78057Z" fill="black"/>
<path fill-rule="evenodd" clip-rule="evenodd" d="M15.0507 7.15501C15.654 6.95374 16.3057 6.94945 16.9117 7.14276C17.5177 7.33607 18.0465 7.71696 18.4219 8.23045C18.459 8.28122 18.4944 8.33303 18.5281 8.38579C18.9735 8.13503 19.4798 7.99993 20 7.99993C20.7956 7.99993 21.5587 8.316 22.1213 8.87861C22.6839 9.44122 23 10.2043 23 10.9999V13.9981C23.0029 14.8342 22.8893 15.6665 22.6624 16.4712C22.5126 17.0028 21.9602 17.3123 21.4286 17.1624C20.8971 17.0126 20.5876 16.4602 20.7375 15.9286C20.914 15.3023 21.0024 14.6544 21 14.0036C21 14.0024 21 14.0012 21 13.9999V10.9999C21 10.7347 20.8946 10.4804 20.7071 10.2928C20.5195 10.1053 20.2652 9.99993 20 9.99993C19.7347 9.99993 19.4804 10.1053 19.2928 10.2928C19.1053 10.4804 19 10.7347 19 10.9999C19 11.5522 18.5522 11.9999 18 11.9999C17.4477 11.9999 17 11.5522 17 10.9999L17 10.0004C17 10.0002 17 10.0001 17 9.99995C17 9.99994 17 9.99994 17 9.99993C16.9998 9.78808 16.9323 9.58176 16.8073 9.41072C16.6821 9.23956 16.5059 9.11259 16.3039 9.04816C16.1019 8.98372 15.8846 8.98515 15.6835 9.05224C15.4824 9.11933 15.3078 9.2486 15.185 9.42139C14.8649 9.87151 14.2406 9.97696 13.7905 9.65693C13.3404 9.33691 13.2349 8.71258 13.555 8.26247C13.9235 7.74409 14.4473 7.35627 15.0507 7.15501Z" fill="black"/>
<path fill-rule="evenodd" clip-rule="evenodd" d="M3.76467 11.6985C4.53508 11.6706 5.28666 11.9403 5.86351 12.4518C5.87848 12.465 5.89305 12.4788 5.90721 12.4929L7.70721 14.2929C8.09773 14.6834 8.09773 15.3166 7.70721 15.7071C7.31668 16.0976 6.68352 16.0976 6.29299 15.7071L4.51787 13.932C4.32821 13.7721 4.08559 13.6882 3.83709 13.6972C3.58028 13.7065 3.33692 13.8143 3.15748 13.9982C2.97804 14.1822 2.8763 14.4281 2.87336 14.6851C2.87046 14.9381 2.9636 15.1827 3.13374 15.3696L6.71334 18.9991C7.38999 19.6876 8.20666 20.2228 9.10808 20.5683C10.0095 20.9139 10.9746 21.0617 11.9381 21.0019C11.9588 21.0007 11.9794 21 12.0001 21H14.0001C14.9194 21 15.8297 20.819 16.679 20.4673C17.5283 20.1155 18.3 19.5999 18.95 18.9499C19.3405 18.5594 19.9737 18.5594 20.3642 18.9499C20.7547 19.3405 20.7547 19.9736 20.3642 20.3641C19.5284 21.1999 18.5362 21.8628 17.4443 22.315C16.3523 22.7673 15.182 23.0001 14.0001 23C14.0001 23 14.0001 23 14.0001 23H12.0302C10.7913 23.0724 9.55116 22.8801 8.39221 22.4358C7.22364 21.9879 6.1649 21.2942 5.2876 20.4017C5.28736 20.4014 5.28711 20.4012 5.28686 20.4009L1.69812 16.7622C1.69149 16.7555 1.68495 16.7487 1.67851 16.7418C1.15295 16.1778 0.864671 15.4331 0.873487 14.6622C0.882303 13.8914 1.18753 13.1535 1.72585 12.6017C2.26417 12.0498 2.99427 11.7264 3.76467 11.6985Z" fill="black"/>
<path fill-rule="evenodd" clip-rule="evenodd" d="M6 5C6.55228 5 7 5.44772 7 6V14C7 14.5523 6.55228 15 6 15C5.44772 15 5 14.5523 5 14V6C5 5.44772 5.44772 5 6 5Z" fill="black"/>
<path fill-rule="evenodd" clip-rule="evenodd" d="M1.29289 1.29289C1.68342 0.902369 2.31658 0.902369 2.70711 1.29289L22.7071 21.2929C23.0976 21.6834 23.0976 22.3166 22.7071 22.7071C22.3166 23.0976 21.6834 23.0976 21.2929 22.7071L1.29289 2.70711C0.902369 2.31658 0.902369 1.68342 1.29289 1.29289Z" fill="black"/>
</svg>
