<svg width="24" height="24" viewBox="0 0 24 24" fill="none" xmlns="http://www.w3.org/2000/svg">
<path fill-rule="evenodd" clip-rule="evenodd" d="M4.8944 5.55276C5.14139 6.04674 4.94117 6.64741 4.44719 6.8944L2.44719 7.8944C1.95321 8.14139 1.35254 7.94117 1.10555 7.44719C0.858558 6.95321 1.05878 6.35254 1.55276 6.10555L3.55276 5.10555C4.04674 4.85856 4.64741 5.05878 4.8944 5.55276Z" fill="black"/>
<path fill-rule="evenodd" clip-rule="evenodd" d="M9 6C9 5.44772 9.44772 5 10 5H14C14.5523 5 15 5.44772 15 6C15 6.55228 14.5523 7 14 7H10C9.44772 7 9 6.55228 9 6Z" fill="black"/>
<path fill-rule="evenodd" clip-rule="evenodd" d="M19.1055 5.55276C19.3525 5.05878 19.9532 4.85856 20.4472 5.10555L22.4472 6.10555C22.9412 6.35254 23.1414 6.95321 22.8944 7.44719C22.6474 7.94117 22.0467 8.14139 21.5528 7.8944L19.5528 6.8944C19.0588 6.64741 18.8586 6.04674 19.1055 5.55276Z" fill="black"/>
<path fill-rule="evenodd" clip-rule="evenodd" d="M6 4C5.44772 4 5 4.44772 5 5V17C5 17.5523 5.44772 18 6 18H18C18.5523 18 19 17.5523 19 17V5C19 4.44772 18.5523 4 18 4H6ZM3 5C3 3.34315 4.34315 2 6 2H18C19.6569 2 21 3.34315 21 5V17C21 18.6569 19.6569 20 18 20H6C4.34315 20 3 18.6569 3 17V5Z" fill="black"/>
<path fill-rule="evenodd" clip-rule="evenodd" d="M3 11C3 10.4477 3.44772 10 4 10H20C20.5523 10 21 10.4477 21 11C21 11.5523 20.5523 12 20 12H4C3.44772 12 3 11.5523 3 11Z" fill="black"/>
<path fill-rule="evenodd" clip-rule="evenodd" d="M7 15C7 14.4477 7.44772 14 8 14H8.01C8.56228 14 9.01 14.4477 9.01 15C9.01 15.5523 8.56228 16 8.01 16H8C7.44772 16 7 15.5523 7 15Z" fill="black"/>
<path fill-rule="evenodd" clip-rule="evenodd" d="M15 15C15 14.4477 15.4477 14 16 14H16.01C16.5623 14 17.01 14.4477 17.01 15C17.01 15.5523 16.5623 16 16.01 16H16C15.4477 16 15 15.5523 15 15Z" fill="black"/>
<path fill-rule="evenodd" clip-rule="evenodd" d="M6 18C6.55228 18 7 18.4477 7 19V21C7 21.5523 6.55228 22 6 22C5.44772 22 5 21.5523 5 21V19C5 18.4477 5.44772 18 6 18Z" fill="black"/>
<path fill-rule="evenodd" clip-rule="evenodd" d="M18 18C18.5523 18 19 18.4477 19 19V21C19 21.5523 18.5523 22 18 22C17.4477 22 17 21.5523 17 21V19C17 18.4477 17.4477 18 18 18Z" fill="black"/>
</svg>
