<svg width="24" height="24" viewBox="0 0 24 24" fill="none" xmlns="http://www.w3.org/2000/svg">
<path fill-rule="evenodd" clip-rule="evenodd" d="M10.4001 10.2C10.8419 9.86863 11.4687 9.95817 11.8001 10.4C12.579 11.4386 13.0001 12.7018 13.0001 14C13.0001 15.2982 12.579 16.5614 11.8001 17.6C11.4687 18.0418 10.8419 18.1314 10.4001 17.8C9.95823 17.4686 9.86869 16.8418 10.2001 16.4C10.7193 15.7076 11.0001 14.8655 11.0001 14C11.0001 13.1345 10.7193 12.2924 10.2001 11.6C9.86869 11.1582 9.95823 10.5314 10.4001 10.2Z" fill="black"/>
<path fill-rule="evenodd" clip-rule="evenodd" d="M14 1C14.5523 1 15 1.44772 15 2V6C15 6.26522 15.1054 6.51957 15.2929 6.70711C15.4804 6.89464 15.7348 7 16 7H20C20.5523 7 21 7.44772 21 8C21 8.55228 20.5523 9 20 9H16C15.2044 9 14.4413 8.68393 13.8787 8.12132C13.3161 7.55871 13 6.79565 13 6V2C13 1.44772 13.4477 1 14 1Z" fill="black"/>
<path fill-rule="evenodd" clip-rule="evenodd" d="M6 3C5.73478 3 5.48043 3.10536 5.29289 3.29289C5.10536 3.48043 5 3.73478 5 4V6.765C5 7.31728 4.55228 7.765 4 7.765C3.44772 7.765 3 7.31728 3 6.765V4C3 3.20435 3.31607 2.44129 3.87868 1.87868C4.44129 1.31607 5.20435 1 6 1H15C15.2652 1 15.5196 1.10536 15.7071 1.29289L20.7071 6.29289C20.8946 6.48043 21 6.73478 21 7V20C21 20.7957 20.6839 21.5587 20.1213 22.1213C19.5587 22.6839 18.7957 23 18 23H5.99941C5.51333 22.9997 5.03459 22.8813 4.60441 22.655C4.11564 22.3979 3.92786 21.7932 4.185 21.3044C4.44214 20.8156 5.04682 20.6279 5.53559 20.885C5.67899 20.9604 5.83856 20.9999 6.00059 21H18C18.2652 21 18.5196 20.8946 18.7071 20.7071C18.8946 20.5196 19 20.2652 19 20V7.41421L14.5858 3H6Z" fill="black"/>
<path fill-rule="evenodd" clip-rule="evenodd" d="M6.2914 9.02367C6.5759 8.98372 6.8659 9.02631 7.12691 9.14638C7.38792 9.26646 7.60895 9.45897 7.76373 9.70101C7.91825 9.94267 8.00025 10.2236 8 10.5104V17.4916C8.00025 17.7784 7.91825 18.0593 7.76373 18.301C7.60895 18.543 7.38792 18.7355 7.12691 18.8556C6.86591 18.9757 6.57591 19.0183 6.2914 18.9783C6.00688 18.9383 5.73983 18.8175 5.522 18.6302L3.62875 17H2.5C2.10218 17 1.72065 16.842 1.43934 16.5606C1.15804 16.2793 1 15.8978 1 15.5V12.5C1 12.1022 1.15804 11.7206 1.43934 11.4393C1.72065 11.158 2.10218 11 2.5 11H3.62875L5.522 9.37177C5.73984 9.18445 6.00689 9.06363 6.2914 9.02367ZM6 11.5986L4.93326 12.516C4.93319 12.516 4.93311 12.5161 4.93304 12.5162C4.57084 12.8278 4.10905 12.9994 3.63126 13L3 13V15H3.62925C4.10783 15.0001 4.5705 15.1718 4.93325 15.484L6 16.4025V11.5986Z" fill="black"/>
</svg>
