<svg width="24" height="24" viewBox="0 0 24 24" fill="none" xmlns="http://www.w3.org/2000/svg">
<path fill-rule="evenodd" clip-rule="evenodd" d="M12.5 7C11.6716 7 11 7.67157 11 8.5C11 9.32843 11.6716 10 12.5 10C13.3284 10 14 9.32843 14 8.5C14 7.67157 13.3284 7 12.5 7ZM9 8.5C9 6.567 10.567 5 12.5 5C14.433 5 16 6.567 16 8.5C16 10.433 14.433 12 12.5 12C10.567 12 9 10.433 9 8.5Z" fill="black"/>
<path fill-rule="evenodd" clip-rule="evenodd" d="M12.5006 1C14.0745 1.00013 15.6085 1.4954 16.8853 2.41568C18.1623 3.33609 19.1173 4.63495 19.6151 6.12829C20.1129 7.62163 20.1282 9.23374 19.6588 10.7363C19.1921 12.2305 18.2695 13.5409 17.0208 14.4843C13.8652 17.106 9.25422 19 4.99996 19L4.99929 19C4.17474 18.9995 3.37051 18.7441 2.69667 18.2689C2.02283 17.7937 1.51231 17.1219 1.23499 16.3453C0.95766 15.5688 0.927082 14.7256 1.14744 13.931C1.36534 13.1453 1.8181 12.4452 2.44476 11.9242C3.56139 10.9074 3.972 10.288 4.25466 9.61097C4.40943 9.24027 4.53331 8.83372 4.69786 8.27935C4.70572 8.25288 4.71365 8.22614 4.72166 8.19914C4.87716 7.67486 5.06296 7.04847 5.32986 6.2874C5.80177 4.75897 6.75008 3.42126 8.0365 2.46989C9.32844 1.51443 10.8931 0.999167 12.5 1M12.4994 3C11.3208 2.9993 10.1733 3.37716 9.22571 4.07792C8.27817 4.77868 7.58077 5.76526 7.23628 6.89231C7.23225 6.90548 7.22796 6.91857 7.22339 6.93156C6.96969 7.65345 6.79433 8.24459 6.63734 8.77377C6.62991 8.7988 6.62253 8.8237 6.61518 8.84846C6.45535 9.38691 6.30298 9.89598 6.10025 10.3815C5.66936 11.4136 5.04272 12.2663 3.77232 13.4202C3.75981 13.4316 3.74702 13.4426 3.73395 13.4533C3.41513 13.7147 3.18487 14.0682 3.07469 14.4655C2.96452 14.8628 2.97981 15.2844 3.11847 15.6727C3.25713 16.0609 3.51239 16.3968 3.84931 16.6344C4.18623 16.8721 4.58835 16.9997 5.00062 17C8.7375 16.9998 12.916 15.3016 15.7598 12.9318C15.7729 12.9208 15.7863 12.9102 15.8 12.9C16.7234 12.2074 17.4056 11.2418 17.7498 10.1399C18.094 9.03808 18.0828 7.85586 17.7177 6.76075C17.3527 5.66563 16.6523 4.71313 15.7159 4.03817C14.7794 3.36321 13.6543 3 12.5 3H12.4994Z" fill="black"/>
<path fill-rule="evenodd" clip-rule="evenodd" d="M18.0623 5.10083C18.5589 4.85915 19.1574 5.0658 19.399 5.5624L21.589 10.0624C21.6098 10.1051 21.6275 10.1492 21.642 10.1944C21.8813 10.9399 22.0021 11.7184 21.9999 12.5013C22.0004 13.6653 21.7297 14.8135 21.2091 15.8546C20.6922 16.8885 19.9431 17.7886 19.0205 18.4845C15.8649 21.1061 11.254 23 6.99988 23L6.99851 23C6.25618 22.999 5.52877 22.7914 4.89769 22.4005C4.26678 22.0097 3.75703 21.4511 3.42545 20.7872C3.42543 20.7872 3.42542 20.7871 3.4254 20.7871C3.42532 20.787 3.42525 20.7868 3.42518 20.7867L1.50545 16.9472C1.25846 16.4532 1.45869 15.8526 1.95266 15.6056C2.44664 15.3586 3.04732 15.5588 3.2943 16.0528L5.21458 19.8933C5.38037 20.2254 5.63529 20.5048 5.95083 20.7003C6.26615 20.8956 6.62956 20.9993 7.00046 21C10.7374 20.9998 14.9159 19.3016 17.7597 16.9318C17.773 16.9207 17.7866 16.9099 17.8005 16.8995C18.4839 16.3878 19.0385 15.7238 19.4203 14.9602C19.8021 14.1966 20.0005 13.3545 19.9999 12.5008C19.9999 12.4995 19.9999 12.4982 19.9999 12.497C20.0016 11.9457 19.92 11.3975 19.7582 10.8708L17.6007 6.4376C17.359 5.941 17.5657 5.3425 18.0623 5.10083Z" fill="black"/>
</svg>
