<svg width="24" height="24" viewBox="0 0 24 24" fill="none" xmlns="http://www.w3.org/2000/svg">
<path fill-rule="evenodd" clip-rule="evenodd" d="M12 3C7.02944 3 3 7.02944 3 12C3 16.9706 7.02944 21 12 21C16.9706 21 21 16.9706 21 12C21 7.02944 16.9706 3 12 3ZM1 12C1 5.92487 5.92487 1 12 1C18.0751 1 23 5.92487 23 12C23 18.0751 18.0751 23 12 23C5.92487 23 1 18.0751 1 12Z" fill="black"/>
<path fill-rule="evenodd" clip-rule="evenodd" d="M12.0001 5C12.5524 5 13.0001 5.44772 13.0001 6V12C13.0001 12.1874 12.9475 12.3711 12.8481 12.53L10.3481 16.53C10.0554 16.9983 9.43847 17.1407 8.97013 16.848C8.5018 16.5553 8.35943 15.9383 8.65214 15.47L11.0001 11.7132V6C11.0001 5.44772 11.4478 5 12.0001 5Z" fill="black"/>
</svg>
