<svg width="24" height="24" viewBox="0 0 24 24" fill="none" xmlns="http://www.w3.org/2000/svg">
<path fill-rule="evenodd" clip-rule="evenodd" d="M12 1C12.5523 1 13 1.44772 13 2V3C13 3.55228 12.5523 4 12 4C11.4477 4 11 3.55228 11 3V2C11 1.44772 11.4477 1 12 1Z" fill="black"/>
<path fill-rule="evenodd" clip-rule="evenodd" d="M11.9999 5.0874C10.559 5.0874 9.16456 5.5975 8.06375 6.5273C6.96294 7.4571 6.22682 8.74657 5.98583 10.1672C5.89346 10.7117 5.37718 11.0783 4.83267 10.9859C4.28817 10.8935 3.92163 10.3772 4.014 9.83272C4.334 7.94629 5.31147 6.23405 6.7732 4.99939C8.23493 3.76474 10.0865 3.0874 11.9999 3.0874C13.9133 3.0874 15.7649 3.76474 17.2266 4.99939C18.6884 6.23405 19.6658 7.94629 19.9858 9.83272C20.0782 10.3772 19.7117 10.8935 19.1672 10.9859C18.6227 11.0783 18.1064 10.7117 18.014 10.1672C17.773 8.74657 17.0369 7.4571 15.9361 6.5273C14.8353 5.5975 13.4409 5.0874 11.9999 5.0874Z" fill="black"/>
<path fill-rule="evenodd" clip-rule="evenodd" d="M3 10C3 9.44772 3.44772 9 4 9H20C20.5523 9 21 9.44772 21 10C21 10.5523 20.5523 11 20 11H4C3.44772 11 3 10.5523 3 10Z" fill="black"/>
<path fill-rule="evenodd" clip-rule="evenodd" d="M1 14C1 13.4477 1.44772 13 2 13H14C14.7957 13 15.5587 13.3161 16.1213 13.8787C16.6839 14.4413 17 15.2043 17 16C17 16.7957 16.6839 17.5587 16.1213 18.1213C15.5587 18.6839 14.7957 19 14 19H12C11.4477 19 11 18.5523 11 18C11 17.4477 11.4477 17 12 17H14C14.2652 17 14.5196 16.8946 14.7071 16.7071C14.8946 16.5196 15 16.2652 15 16C15 15.7348 14.8946 15.4804 14.7071 15.2929C14.5196 15.1054 14.2652 15 14 15H2C1.44772 15 1 14.5523 1 14Z" fill="black"/>
<path fill-rule="evenodd" clip-rule="evenodd" d="M20.0178 15.0346C19.7485 15.0299 19.4884 15.1323 19.2946 15.3194C19.2829 15.3307 19.2708 15.3418 19.2585 15.3526L16.0585 18.1526C15.6429 18.5162 15.0111 18.4741 14.6474 18.0585C14.2838 17.6429 14.3259 17.0111 14.7415 16.6474L17.9249 13.862C18.4981 13.3183 19.2622 13.021 20.0529 13.0349C20.8526 13.0489 21.6139 13.38 22.1694 13.9554C22.7249 14.5308 23.0291 15.3032 23.0151 16.1029C23.0011 16.9025 22.67 17.6639 22.0946 18.2194C22.0884 18.2254 22.0821 18.2313 22.0757 18.2371L18.5138 21.5023C17.6008 22.5187 16.328 23 15 23H11C9.67599 23 8.40693 22.5216 7.49451 21.5114L4.34151 18.7526C3.92587 18.3889 3.88375 17.7571 4.24744 17.3415C4.61112 16.9258 5.24288 16.8837 5.65852 17.2474L8.85852 20.0474C8.89193 20.0766 8.92336 20.1081 8.95259 20.1415C9.43703 20.6951 10.147 21 11 21H15C15.8531 21 16.563 20.6951 17.0474 20.1415C17.0716 20.1139 17.0972 20.0876 17.1243 20.0628L20.7131 16.7731C20.9021 16.5867 21.0108 16.3335 21.0154 16.0678C21.0201 15.7985 20.9177 15.5383 20.7306 15.3446C20.5435 15.1508 20.2871 15.0393 20.0178 15.0346Z" fill="black"/>
<path fill-rule="evenodd" clip-rule="evenodd" d="M5 13C5.55228 13 6 13.4477 6 14V21C6 21.5523 5.55228 22 5 22H2C1.44772 22 1 21.5523 1 21C1 20.4477 1.44772 20 2 20H4V14C4 13.4477 4.44772 13 5 13Z" fill="black"/>
</svg>
