<svg width="24" height="24" viewBox="0 0 24 24" fill="none" xmlns="http://www.w3.org/2000/svg">
<path fill-rule="evenodd" clip-rule="evenodd" d="M1.87868 3.87868C2.44129 3.31607 3.20435 3 4 3H20C20.7956 3 21.5587 3.31607 22.1213 3.87868C22.6839 4.44129 23 5.20435 23 6V15C23 15.5523 22.5523 16 22 16C21.4477 16 21 15.5523 21 15V6C21 5.73478 20.8946 5.48043 20.7071 5.29289C20.5196 5.10536 20.2652 5 20 5H4C3.73478 5 3.48043 5.10536 3.29289 5.29289C3.10536 5.48043 3 5.73478 3 6V18C3 18.5477 3.45228 19 4 19H12C12.5523 19 13 19.4477 13 20C13 20.5523 12.5523 21 12 21H4C2.34772 21 1 19.6523 1 18V6C1 5.20435 1.31607 4.44129 1.87868 3.87868Z" fill="black"/>
<path fill-rule="evenodd" clip-rule="evenodd" d="M1.15587 6.46368C1.45208 5.99754 2.07008 5.85979 2.53621 6.15599L11.503 11.854C11.6521 11.9468 11.8242 11.996 11.9999 11.996C12.1755 11.996 12.3476 11.9468 12.4967 11.854L21.4636 6.15599C21.9297 5.85979 22.5477 5.99754 22.8439 6.46368C23.1401 6.92981 23.0023 7.54781 22.5362 7.84401L13.5662 13.544C13.5644 13.5452 13.5626 13.5463 13.5608 13.5474C13.0929 13.8406 12.552 13.996 11.9999 13.996C11.4478 13.996 10.9068 13.8406 10.439 13.5474C10.4372 13.5463 10.4354 13.5452 10.4336 13.544L1.46356 7.84401C0.997421 7.54781 0.859667 6.92981 1.15587 6.46368Z" fill="black"/>
<path fill-rule="evenodd" clip-rule="evenodd" d="M15 19C15 18.4477 15.4477 18 16 18H22C22.5523 18 23 18.4477 23 19C23 19.5523 22.5523 20 22 20H16C15.4477 20 15 19.5523 15 19Z" fill="black"/>
</svg>
