<svg width="24" height="24" viewBox="0 0 24 24" fill="none" xmlns="http://www.w3.org/2000/svg">
<path fill-rule="evenodd" clip-rule="evenodd" d="M2.97739 14.7209C3.12272 14.1881 3.67246 13.8739 4.20529 14.0193L14.8853 16.9323C15.4181 17.0776 15.7322 17.6273 15.5869 18.1602C15.4416 18.693 14.8918 19.0071 14.359 18.8618L3.67901 15.9488C3.14618 15.8034 2.83206 15.2537 2.97739 14.7209Z" fill="black"/>
<path fill-rule="evenodd" clip-rule="evenodd" d="M19.8769 3.00024C19.7295 3.00024 19.5835 3.02928 19.4473 3.08571C19.311 3.14213 19.1873 3.22483 19.083 3.32909L15.064 7.34809L14.3569 6.64098L15.0639 7.34819C14.7826 7.6294 14.4012 7.78737 14.0034 7.78737C13.6057 7.78737 13.2242 7.6294 12.9429 7.34819L13.6499 6.64098L12.9428 7.34809L11.9989 6.40414C11.9988 6.40412 11.9988 6.4041 11.9988 6.40409C11.7344 6.13974 11.3758 5.99123 11.0019 5.99123C10.628 5.99123 10.2694 6.13974 10.005 6.40409C10.005 6.4041 10.005 6.40412 10.005 6.40414L9.41465 6.99446L17.0064 14.5853L17.5968 13.9949C17.5968 13.9949 17.5968 13.9949 17.5968 13.9949C17.8612 13.7305 18.0097 13.3719 18.0097 12.998C18.0097 12.6241 17.8612 12.2655 17.5968 12.0011C17.5968 12.0011 17.5968 12.001 17.5968 12.001L16.6528 11.0571L17.3619 10.348L16.6527 11.057C16.3715 10.7757 16.2135 10.3942 16.2135 9.99648C16.2135 9.59873 16.3715 9.21727 16.6527 8.93598L16.6527 8.93596L20.6707 4.91696L20.6708 4.91687C20.7751 4.81262 20.8578 4.68885 20.9142 4.55263C20.9706 4.41642 20.9996 4.27042 20.9996 4.12298C20.9996 3.97554 20.9706 3.82954 20.9142 3.69333C20.8578 3.55711 20.7751 3.43334 20.6708 3.32909C20.5666 3.22483 20.4428 3.14213 20.3066 3.08571C20.1703 3.02928 20.0244 3.00024 19.8769 3.00024ZM18.4206 9.99644L19.011 10.5869L19.0111 10.5869C19.6505 11.2264 20.0097 12.0937 20.0097 12.998C20.0097 13.9023 19.6505 14.7695 19.0111 15.409L19.011 15.4091L18.067 16.3531L17.3599 15.646L18.0669 16.3532C17.7856 16.6344 17.4042 16.7924 17.0064 16.7924C16.6087 16.7924 16.2272 16.6344 15.9459 16.3532L15.9458 16.3531L7.6467 8.05498C7.3655 7.77369 7.20752 7.39223 7.20752 6.99448C7.20752 6.59673 7.36549 6.21527 7.6467 5.93398L8.35284 6.63991L7.64681 5.93387L8.59081 4.98987L8.59086 4.98982C9.23034 4.35043 10.0976 3.99123 11.0019 3.99123C11.9062 3.99123 12.7735 4.35043 13.413 4.98982L14.0034 5.58027L17.6688 1.91487C17.9588 1.6249 18.303 1.39488 18.6819 1.23795C19.0608 1.08102 19.4668 1.00024 19.8769 1.00024C20.287 1.00024 20.6931 1.08102 21.0719 1.23795C21.4508 1.39488 21.795 1.6249 22.085 1.91487C22.375 2.20484 22.605 2.54909 22.7619 2.92796C22.9189 3.30683 22.9996 3.7129 22.9996 4.12298C22.9996 4.53306 22.9189 4.93913 22.7619 5.318C22.605 5.69683 22.375 6.04104 22.0851 6.331C22.0851 6.33103 22.085 6.33106 22.085 6.33109L18.4206 9.99644Z" fill="black"/>
<path fill-rule="evenodd" clip-rule="evenodd" d="M9.55405 7.16756C10.0138 7.4736 10.1384 8.09438 9.83235 8.55412C8.84466 10.0378 7.73168 11.0187 6.48488 11.6883C5.50406 12.2149 4.4692 12.5328 3.41064 12.7669L10.1591 20.9563C11.1087 20.2838 12.3327 19.1287 13.332 17.9188C13.8473 17.2949 14.2816 16.6819 14.5816 16.1393C14.8977 15.5675 14.9999 15.1886 14.9999 15C14.9999 14.4477 15.4476 14 15.9999 14C16.5522 14 16.9999 14.4477 16.9999 15C16.9999 15.7073 16.694 16.4521 16.3319 17.107C15.9536 17.7911 15.4394 18.5079 14.8741 19.1924C13.7491 20.5544 12.3371 21.8897 11.1851 22.6789C11.1504 22.7027 11.1143 22.7243 11.0768 22.7435C10.691 22.9417 10.2512 23.0091 9.82368 22.9355C9.39618 22.8619 9.00421 22.6513 8.70685 22.3355C8.69175 22.3195 8.67719 22.3029 8.66319 22.2859L1.34319 13.4029C1.34201 13.4015 1.34083 13.4001 1.33966 13.3986C1.17423 13.1956 1.06457 12.9529 1.02149 12.6946C0.978422 12.4362 1.00343 12.1711 1.09404 11.9254C1.18466 11.6796 1.33775 11.4617 1.53824 11.2932C1.73808 11.1252 1.97813 11.012 2.23485 10.9647C3.50731 10.727 4.58161 10.4402 5.53871 9.92622C6.47916 9.42122 7.35118 8.67212 8.16749 7.44585C8.47353 6.98611 9.09432 6.86152 9.55405 7.16756Z" fill="black"/>
</svg>
