<svg width="24" height="24" viewBox="0 0 24 24" fill="none" xmlns="http://www.w3.org/2000/svg">
<path fill-rule="evenodd" clip-rule="evenodd" d="M16.9175 4.46102C15.4548 3.50731 13.7463 2.99968 12.0002 3C11.4479 3.0001 11.0001 2.55247 11 2.00018C10.9999 1.4479 11.4475 1.0001 11.9998 1C14.134 0.999611 16.2222 1.62005 18.0099 2.78569C19.7976 3.95134 21.2076 5.61185 22.0681 7.56484C22.9286 9.51783 23.2023 11.679 22.8561 13.7848C22.5098 15.8907 21.5584 17.8504 20.1178 19.425C19.745 19.8325 19.1125 19.8606 18.705 19.4878C18.2975 19.115 18.2694 18.4825 18.6422 18.075C19.8208 16.7867 20.5992 15.1833 20.8826 13.4603C21.1659 11.7373 20.9419 9.96914 20.2378 8.37123C19.5338 6.77333 18.3802 5.41473 16.9175 4.46102Z" fill="black"/>
<path fill-rule="evenodd" clip-rule="evenodd" d="M12 7C12.5523 7 13 7.44772 13 8V16C13 16.5523 12.5523 17 12 17C11.4477 17 11 16.5523 11 16V8C11 7.44772 11.4477 7 12 7Z" fill="black"/>
<path fill-rule="evenodd" clip-rule="evenodd" d="M7 12C7 11.4477 7.44772 11 8 11H16C16.5523 11 17 11.4477 17 12C17 12.5523 16.5523 13 16 13H8C7.44772 13 7 12.5523 7 12Z" fill="black"/>
<path fill-rule="evenodd" clip-rule="evenodd" d="M2.81249 7.9251C3.33712 8.09769 3.62251 8.66289 3.44992 9.18751C3.16314 10.0593 3.01138 10.9698 2.99992 11.8875C2.99303 12.4398 2.53976 12.8818 1.98751 12.8749C1.43527 12.8681 0.993183 12.4148 1.00008 11.8625C1.01409 10.7409 1.19956 9.62806 1.55008 8.56254C1.72266 8.03791 2.28786 7.75252 2.81249 7.9251Z" fill="black"/>
<path fill-rule="evenodd" clip-rule="evenodd" d="M2.43146 15.0829C2.93797 14.8627 3.52704 15.0949 3.7472 15.6014C4.25255 16.764 4.99782 17.8068 5.9342 18.6614C6.34213 19.0337 6.37102 19.6662 5.99872 20.0741C5.62642 20.4821 4.99391 20.5109 4.58598 20.1386C3.44152 19.0941 2.53063 17.8196 1.91298 16.3986C1.69282 15.8921 1.92495 15.3031 2.43146 15.0829Z" fill="black"/>
<path fill-rule="evenodd" clip-rule="evenodd" d="M6.28919 3.73066C6.64671 4.15161 6.59529 4.78269 6.17434 5.14021C5.89139 5.38052 5.62358 5.63811 5.37244 5.91151C4.99882 6.31824 4.36622 6.34508 3.9595 5.97146C3.55277 5.59784 3.52593 4.96524 3.89955 4.55852C4.20649 4.22437 4.53382 3.90953 4.87965 3.61582C5.30059 3.2583 5.93167 3.30972 6.28919 3.73066Z" fill="black"/>
<path fill-rule="evenodd" clip-rule="evenodd" d="M17.1791 20.6125C17.4152 21.1118 17.2019 21.7079 16.7026 21.944C14.0702 23.1889 11.0515 23.3392 8.30848 22.362C7.78823 22.1767 7.51672 21.6047 7.70206 21.0844C7.8874 20.5642 8.4594 20.2927 8.97966 20.478C11.224 21.2776 13.6938 21.1546 15.8476 20.136C16.3468 19.8999 16.943 20.1132 17.1791 20.6125Z" fill="black"/>
</svg>
