<svg width="24" height="24" viewBox="0 0 24 24" fill="none" xmlns="http://www.w3.org/2000/svg">
<path fill-rule="evenodd" clip-rule="evenodd" d="M16.8771 7.12291C17.2676 7.51343 17.2676 8.1466 16.8771 8.53712L2.70711 22.7071C2.31658 23.0976 1.68342 23.0976 1.29289 22.7071C0.902369 22.3166 0.902369 21.6834 1.29289 21.2929L15.4629 7.12291C15.8534 6.73239 16.4866 6.73239 16.8771 7.12291Z" fill="black"/>
<path fill-rule="evenodd" clip-rule="evenodd" d="M9.95334 4.00968C9.70716 3.99311 9.46018 4.02657 9.22728 4.10804C8.99438 4.18952 8.7804 4.31733 8.59825 4.48376C8.41609 4.65019 8.26953 4.85179 8.16741 5.07641C8.0653 5.30102 8.00973 5.54399 8.00408 5.79067C7.99842 6.03734 8.04279 6.2826 8.1345 6.51166C8.22621 6.74072 8.36338 6.94883 8.53771 7.12344C8.92772 7.51405 8.92747 8.14679 8.53716 8.5371C8.14685 8.92741 7.51411 8.92766 7.1235 8.53765C6.94889 8.36332 6.74078 8.22615 6.51172 8.13444C6.28267 8.04273 6.0374 7.99836 5.79073 8.00402C5.54405 8.00967 5.30108 8.06524 5.07647 8.16735C4.85186 8.26947 4.65025 8.41603 4.48382 8.59818C4.31739 8.78034 4.18958 8.99432 4.1081 9.22722C4.02663 9.46011 3.99317 9.7071 4.00974 9.95328C4.02632 10.1995 4.09259 10.4397 4.20456 10.6596C4.31653 10.8795 4.47187 11.0744 4.66122 11.2326C5.08504 11.5867 5.14157 12.2173 4.78746 12.6412C4.72809 12.7122 4.66094 12.773 4.5883 12.8232C4.28405 13.143 4.10459 13.5634 4.08573 14.0072C4.06511 14.4924 4.23807 14.9659 4.56655 15.3236C4.89504 15.6812 5.35214 15.8937 5.83731 15.9143C6.32248 15.9349 6.79597 15.762 7.15361 15.4335C7.55416 15.0656 8.17529 15.0853 8.55175 15.4778C8.92822 15.8703 8.92198 16.4917 8.53771 16.8766C8.36338 17.0512 8.22621 17.2593 8.1345 17.4883C8.04279 17.7174 7.99842 17.9626 8.00408 18.2093C8.00973 18.456 8.0653 18.699 8.16741 18.9236C8.26953 19.1482 8.41609 19.3498 8.59825 19.5162C8.7804 19.6827 8.99438 19.8105 9.22728 19.8919C9.46018 19.9734 9.70716 20.0069 9.95334 19.9903C10.1995 19.9737 10.4398 19.9075 10.6597 19.7955C10.8795 19.6835 11.0745 19.5282 11.2326 19.3388C11.4226 19.1114 11.7037 18.98 12.0001 18.98C12.2964 18.98 12.5775 19.1114 12.7675 19.3388C12.9257 19.5282 13.1206 19.6835 13.3404 19.7955C13.5603 19.9075 13.8006 19.9737 14.0468 19.9903C14.293 20.0069 14.5399 19.9734 14.7728 19.8919C15.0057 19.8105 15.2197 19.6827 15.4019 19.5162C15.584 19.3498 15.7306 19.1482 15.8327 18.9236C15.9348 18.699 15.9904 18.456 15.996 18.2093C16.0017 17.9627 15.9573 17.7174 15.8656 17.4883C15.7739 17.2593 15.6367 17.0512 15.4624 16.8766C15.0724 16.4859 15.0726 15.8532 15.4629 15.4629C15.8533 15.0726 16.486 15.0723 16.8766 15.4623C17.0512 15.6367 17.2593 15.7738 17.4884 15.8656C17.7175 15.9573 17.9627 16.0016 18.2094 15.996C18.4561 15.9903 18.699 15.9348 18.9236 15.8326C19.1483 15.7305 19.3499 15.584 19.5163 15.4018C19.6827 15.2197 19.8105 15.0057 19.892 14.7728C19.9735 14.5399 20.0069 14.2929 19.9904 14.0467C19.9738 13.8005 19.9075 13.5603 19.7956 13.3404C19.6836 13.1205 19.5282 12.9256 19.3389 12.7674C19.1115 12.5774 18.9801 12.2963 18.9801 12C18.9801 11.7037 19.1115 11.4226 19.3389 11.2326C19.5282 11.0744 19.6836 10.8795 19.7956 10.6596C19.9075 10.4397 19.9738 10.1995 19.9904 9.95328C20.0069 9.7071 19.9735 9.46011 19.892 9.22722C19.8105 8.99432 19.6827 8.78034 19.5163 8.59818C19.3499 8.41603 19.1483 8.26947 18.9236 8.16735C18.699 8.06524 18.4561 8.00967 18.2094 8.00402C17.9627 7.99836 17.7174 8.04273 17.4884 8.13444C17.2593 8.22615 17.0512 8.36332 16.8766 8.53765C16.486 8.92766 15.8533 8.92741 15.4629 8.5371C15.0726 8.14679 15.0724 7.51405 15.4624 7.12344C15.6367 6.94883 15.7739 6.74072 15.8656 6.51166C15.9573 6.2826 16.0017 6.03734 15.996 5.79067C15.9904 5.54399 15.9348 5.30102 15.8327 5.07641C15.7306 4.85179 15.584 4.65019 15.4019 4.48376C15.2197 4.31733 15.0057 4.18952 14.7728 4.10804C14.5399 4.02657 14.293 3.99311 14.0468 4.00968C13.8006 4.02626 13.5603 4.09253 13.3404 4.2045C13.1206 4.31646 12.9257 4.47181 12.7675 4.66116C12.5775 4.88857 12.2964 5.02 12.0001 5.02C11.7037 5.02 11.4226 4.88857 11.2326 4.66116C11.0745 4.47181 10.8795 4.31646 10.6597 4.2045C10.4398 4.09253 10.1995 4.02626 9.95334 4.00968ZM2.69091 12.0159C2.59149 11.8729 2.50171 11.723 2.42234 11.5672C2.1878 11.1066 2.04899 10.6033 2.01426 10.0877C1.97954 9.57198 2.04963 9.05462 2.2203 8.56677C2.39097 8.07892 2.65869 7.6307 3.00731 7.24914C3.35593 6.86758 3.77823 6.56059 4.24872 6.34668C4.71922 6.13278 5.22817 6.01639 5.74488 6.00454C5.83259 6.00253 5.92021 6.00354 6.0076 6.00754C6.0036 5.92015 6.00259 5.83252 6.0046 5.74481C6.01645 5.22811 6.13284 4.71916 6.34675 4.24866C6.56065 3.77816 6.86764 3.35587 7.2492 3.00725C7.63076 2.65863 8.07898 2.39091 8.56683 2.22024C9.05468 2.04957 9.57204 1.97948 10.0877 2.0142C10.6034 2.04893 11.1067 2.18774 11.5672 2.42228C11.7174 2.49872 11.8619 2.58481 12.0001 2.67988C12.1382 2.58481 12.2828 2.49872 12.4329 2.42228C12.8934 2.18774 13.3967 2.04893 13.9124 2.0142C14.4281 1.97948 14.9454 2.04957 15.4333 2.22024C15.9211 2.39091 16.3694 2.65863 16.7509 3.00725C17.1325 3.35587 17.4395 3.77816 17.6534 4.24866C17.8673 4.71916 17.9837 5.22811 17.9955 5.74481C17.9975 5.83252 17.9965 5.92015 17.9925 6.00754C18.0799 6.00354 18.1675 6.00253 18.2552 6.00454C18.7719 6.01639 19.2809 6.13278 19.7514 6.34668C20.2219 6.56059 20.6442 6.86758 20.9928 7.24914C21.3414 7.6307 21.6091 8.07892 21.7798 8.56677C21.9505 9.05462 22.0206 9.57198 21.9859 10.0877C21.9511 10.6033 21.8123 11.1066 21.5778 11.5672C21.5013 11.7173 21.4152 11.8618 21.3202 12C21.4152 12.1381 21.5013 12.2827 21.5778 12.4328C21.8123 12.8934 21.9511 13.3967 21.9859 13.9123C22.0206 14.428 21.9505 14.9454 21.7798 15.4332C21.6091 15.9211 21.3414 16.3693 20.9928 16.7508C20.6442 17.1324 20.2219 17.4394 19.7514 17.6533C19.2809 17.8672 18.7719 17.9836 18.2552 17.9955C18.1675 17.9975 18.0799 17.9965 17.9925 17.9925C17.9965 18.0798 17.9975 18.1675 17.9955 18.2552C17.9837 18.7719 17.8673 19.2808 17.6534 19.7513C17.4395 20.2218 17.1325 20.6441 16.7509 20.9927C16.3694 21.3414 15.9211 21.6091 15.4333 21.7798C14.9454 21.9504 14.4281 22.0205 13.9124 21.9858C13.3967 21.9511 12.8934 21.8122 12.4329 21.5777C12.2828 21.5013 12.1382 21.4152 12.0001 21.3201C11.8619 21.4152 11.7174 21.5013 11.5672 21.5777C11.1067 21.8122 10.6034 21.9511 10.0877 21.9858C9.57204 22.0205 9.05468 21.9504 8.56683 21.7798C8.07898 21.6091 7.63076 21.3414 7.2492 20.9927C6.86764 20.6441 6.56065 20.2218 6.34675 19.7513C6.13284 19.2808 6.01645 18.7719 6.0046 18.2552C6.00199 18.1415 6.00446 18.0279 6.01195 17.9148C5.9257 17.9169 5.83913 17.9162 5.75239 17.9125C4.73726 17.8694 3.78086 17.4247 3.09356 16.6764C2.40627 15.9281 2.04439 14.9374 2.08753 13.9223C2.11658 13.2388 2.32766 12.5819 2.69091 12.0159Z" fill="black"/>
<path fill-rule="evenodd" clip-rule="evenodd" d="M7.12297 7.12291C7.5135 6.73239 8.14666 6.73239 8.53718 7.12291L16.8772 15.4629C17.2677 15.8534 17.2677 16.4866 16.8772 16.8771C16.4867 17.2676 15.8535 17.2676 15.463 16.8771L7.12297 8.53712C6.73245 8.1466 6.73245 7.51343 7.12297 7.12291Z" fill="black"/>
</svg>
