<svg width="24" height="24" viewBox="0 0 24 24" fill="none" xmlns="http://www.w3.org/2000/svg">
<path fill-rule="evenodd" clip-rule="evenodd" d="M13.3862 16.0939C13.6105 15.5892 14.2015 15.3619 14.7062 15.5862L15.6062 15.9862C16.1109 16.2105 16.3382 16.8015 16.1139 17.3061C15.8896 17.8108 15.2986 18.0381 14.7939 17.8138L13.8939 17.4138C13.3892 17.1895 13.1619 16.5986 13.3862 16.0939Z" fill="black"/>
<path fill-rule="evenodd" clip-rule="evenodd" d="M16.1139 18.6939C16.3382 19.1986 16.1109 19.7895 15.6062 20.0138L14.7062 20.4138C14.2015 20.6381 13.6105 20.4108 13.3862 19.9061C13.1619 19.4015 13.3892 18.8105 13.8939 18.5862L14.7939 18.1862C15.2986 17.9619 15.8896 18.1892 16.1139 18.6939Z" fill="black"/>
<path fill-rule="evenodd" clip-rule="evenodd" d="M16 1C16.5523 1 17 1.44772 17 2V6C17 6.55228 16.5523 7 16 7C15.4477 7 15 6.55228 15 6V2C15 1.44772 15.4477 1 16 1Z" fill="black"/>
<path fill-rule="evenodd" clip-rule="evenodd" d="M16.0939 13.3862C16.5986 13.1619 17.1895 13.3892 17.4138 13.8939L17.8138 14.7939C18.0381 15.2986 17.8108 15.8895 17.3061 16.1138C16.8015 16.3381 16.2105 16.1108 15.9862 15.6062L15.5862 14.7062C15.3619 14.2015 15.5892 13.6105 16.0939 13.3862Z" fill="black"/>
<path fill-rule="evenodd" clip-rule="evenodd" d="M17.3061 19.8862C17.8108 20.1105 18.0381 20.7015 17.8138 21.2062L17.4138 22.1062C17.1895 22.6108 16.5986 22.8381 16.0939 22.6138C15.5892 22.3895 15.3619 21.7986 15.5862 21.2939L15.9862 20.3939C16.2105 19.8892 16.8015 19.6619 17.3061 19.8862Z" fill="black"/>
<path fill-rule="evenodd" clip-rule="evenodd" d="M19.9062 13.3862C20.4109 13.6105 20.6382 14.2015 20.4139 14.7062L20.0139 15.6062C19.7896 16.1108 19.1986 16.3381 18.694 16.1138C18.1893 15.8895 17.962 15.2986 18.1863 14.7939L18.5863 13.8939C18.8106 13.3892 19.4016 13.1619 19.9062 13.3862Z" fill="black"/>
<path fill-rule="evenodd" clip-rule="evenodd" d="M18.694 19.8862C19.1986 19.6619 19.7896 19.8892 20.0139 20.3939L20.4139 21.2939C20.6382 21.7986 20.4109 22.3895 19.9062 22.6138C19.4016 22.8381 18.8106 22.6108 18.5863 22.1062L18.1863 21.2062C17.962 20.7015 18.1893 20.1105 18.694 19.8862Z" fill="black"/>
<path fill-rule="evenodd" clip-rule="evenodd" d="M2.87868 3.87868C3.44129 3.31607 4.20435 3 5 3H19C19.7956 3 20.5587 3.31607 21.1213 3.87868C21.6839 4.44129 22 5.20435 22 6V10.5C22 11.0523 21.5523 11.5 21 11.5C20.4477 11.5 20 11.0523 20 10.5V6C20 5.73478 19.8946 5.48043 19.7071 5.29289C19.5196 5.10536 19.2652 5 19 5H5C4.73478 5 4.48043 5.10536 4.29289 5.29289C4.10536 5.48043 4 5.73478 4 6V20C4 20.2652 4.10536 20.5196 4.29289 20.7071C4.48043 20.8946 4.73478 21 5 21H11C11.5523 21 12 21.4477 12 22C12 22.5523 11.5523 23 11 23H5C4.20435 23 3.44129 22.6839 2.87868 22.1213C2.31607 21.5587 2 20.7956 2 20V6C2 5.20435 2.31607 4.44129 2.87868 3.87868Z" fill="black"/>
<path fill-rule="evenodd" clip-rule="evenodd" d="M22.6139 16.0939C22.8382 16.5986 22.6109 17.1895 22.1062 17.4138L21.2062 17.8138C20.7015 18.0381 20.1105 17.8108 19.8862 17.3061C19.6619 16.8015 19.8892 16.2105 20.3939 15.9862L21.2939 15.5862C21.7986 15.3619 22.3896 15.5892 22.6139 16.0939Z" fill="black"/>
<path fill-rule="evenodd" clip-rule="evenodd" d="M19.8862 18.6939C20.1105 18.1892 20.7015 17.9619 21.2062 18.1862L22.1062 18.5862C22.6109 18.8105 22.8382 19.4015 22.6139 19.9061C22.3896 20.4108 21.7986 20.6381 21.2939 20.4138L20.3939 20.0138C19.8892 19.7895 19.6619 19.1986 19.8862 18.6939Z" fill="black"/>
<path fill-rule="evenodd" clip-rule="evenodd" d="M2 10C2 9.44772 2.44772 9 3 9H21C21.5523 9 22 9.44772 22 10C22 10.5523 21.5523 11 21 11H3C2.44772 11 2 10.5523 2 10Z" fill="black"/>
<path fill-rule="evenodd" clip-rule="evenodd" d="M8 1C8.55228 1 9 1.44772 9 2V6C9 6.55228 8.55228 7 8 7C7.44772 7 7 6.55228 7 6V2C7 1.44772 7.44772 1 8 1Z" fill="black"/>
<path fill-rule="evenodd" clip-rule="evenodd" d="M18 16C16.8954 16 16 16.8954 16 18C16 19.1046 16.8954 20 18 20C19.1046 20 20 19.1046 20 18C20 16.8954 19.1046 16 18 16ZM14 18C14 15.7909 15.7909 14 18 14C20.2091 14 22 15.7909 22 18C22 20.2091 20.2091 22 18 22C15.7909 22 14 20.2091 14 18Z" fill="black"/>
</svg>
