<svg width="24" height="24" viewBox="0 0 24 24" fill="none" xmlns="http://www.w3.org/2000/svg">
<path fill-rule="evenodd" clip-rule="evenodd" d="M12.238 8.76091C12.6285 9.15144 12.6285 9.7846 12.238 10.1751L4.32599 18.0871C4.1157 18.2974 3.99756 18.5826 3.99756 18.88C3.99756 19.1774 4.1157 19.4626 4.32599 19.6729C4.53627 19.8832 4.82149 20.0013 5.11888 20.0013C5.41627 20.0013 5.70148 19.8832 5.91177 19.6729L13.8238 11.7619C14.2144 11.3714 14.8475 11.3714 15.238 11.762C15.6285 12.1525 15.6285 12.7857 15.2379 13.1762L7.32599 21.0871C7.32597 21.0871 7.32596 21.0872 7.32594 21.0872C6.74058 21.6725 5.94668 22.0013 5.11888 22.0013C4.29105 22.0013 3.49713 21.6725 2.91177 21.0871C2.32641 20.5018 1.99756 19.7078 1.99756 18.88C1.99756 18.0522 2.32641 17.2583 2.91177 16.6729L10.8238 8.76091C11.2143 8.37039 11.8475 8.37039 12.238 8.76091Z" fill="black"/>
<path fill-rule="evenodd" clip-rule="evenodd" d="M5.17177 2.00077C7.01069 1.44512 8.94702 1.28833 10.8514 1.54088C12.7557 1.79342 14.5843 2.44949 16.2148 3.46525C16.6835 3.75727 16.8268 4.37401 16.5348 4.84278C16.2428 5.31154 15.626 5.45482 15.1573 5.1628C13.7683 4.29753 12.2107 3.73865 10.5884 3.52352C9.07748 3.32314 7.54289 3.42526 6.07374 3.82268C8.39071 4.63437 10.5632 5.81192 12.5084 7.31092C12.9459 7.64803 13.0272 8.27595 12.6901 8.71341C12.353 9.15088 11.7251 9.23223 11.2876 8.89512C9.46803 7.49294 7.4307 6.39882 5.25681 5.65635C5.22458 5.64534 5.19293 5.63269 5.16199 5.61846C4.83551 5.46822 4.55555 5.23279 4.35153 4.93692C4.14752 4.64105 4.027 4.29568 4.00265 3.93712C3.97829 3.57856 4.051 3.22006 4.21313 2.89932C4.37527 2.57858 4.62083 2.30746 4.92399 2.11446C5.00101 2.06543 5.08438 2.02717 5.17177 2.00077Z" fill="black"/>
<path fill-rule="evenodd" clip-rule="evenodd" d="M15.5999 2.9859C15.9738 2.61944 16.4764 2.41418 16.9999 2.41418C17.5234 2.41418 18.0261 2.61944 18.3999 2.9859C18.4023 2.98823 18.4047 2.99058 18.407 2.99294L21.007 5.59294C21.0094 5.59529 21.0117 5.59766 21.0141 5.60004C21.3805 5.9739 21.5858 6.47653 21.5858 7.00004C21.5858 7.52355 21.3805 8.02619 21.0141 8.40004C21.0117 8.40242 21.0094 8.40479 21.007 8.40715L16.407 13.0071C16.4047 13.0095 16.4023 13.0119 16.3999 13.0142C16.0261 13.3806 15.5234 13.5859 14.9999 13.5859C14.4764 13.5859 13.9738 13.3806 13.5999 13.0142C13.5975 13.0119 13.5952 13.0095 13.5928 13.0071L10.9928 10.4071C10.9905 10.4048 10.9881 10.4024 10.9858 10.4C10.6193 10.0262 10.4141 9.52355 10.4141 9.00004C10.4141 8.47654 10.6193 7.9739 10.9858 7.60004C10.9881 7.59766 10.9905 7.59529 10.9928 7.59294L15.5928 2.99294C15.5952 2.99058 15.5975 2.98823 15.5999 2.9859ZM16.9999 4.41425L12.4141 9.00004L14.9999 11.5858L19.5857 7.00004L16.9999 4.41425Z" fill="black"/>
<path fill-rule="evenodd" clip-rule="evenodd" d="M19.1573 7.46518C19.6261 7.17318 20.2428 7.31648 20.5348 7.78525C21.5505 9.41579 22.2065 11.2443 22.459 13.1486C22.7116 15.053 22.5548 16.9893 21.9993 18.8282C21.9728 18.9159 21.9343 18.9996 21.885 19.0769C21.6918 19.3796 21.4208 19.6247 21.1003 19.7865C20.7798 19.9483 20.4216 20.0208 20.0634 19.9964C19.7052 19.9721 19.3601 19.8518 19.0645 19.6481C18.7688 19.4444 18.5334 19.1649 18.383 18.8389C18.3686 18.8077 18.3558 18.7757 18.3446 18.7431C17.6023 16.5689 16.5081 14.5312 15.1059 12.7113C14.7688 12.2739 14.8502 11.6459 15.2876 11.3088C15.7251 10.9718 16.353 11.0531 16.6901 11.4906C18.1889 13.4357 19.3662 15.6079 20.1778 17.9246C20.5748 16.4559 20.6767 14.922 20.4764 13.4116C20.2613 11.7893 19.7024 10.2317 18.8372 8.8427C18.5452 8.37393 18.6885 7.75719 19.1573 7.46518Z" fill="black"/>
</svg>
