<svg width="24" height="24" viewBox="0 0 24 24" fill="none" xmlns="http://www.w3.org/2000/svg">
<path fill-rule="evenodd" clip-rule="evenodd" d="M12 6C12.5523 6 13 6.44772 13 7V11C13 11.5523 12.5523 12 12 12C11.4477 12 11 11.5523 11 11V7C11 6.44772 11.4477 6 12 6Z" fill="black"/>
<path fill-rule="evenodd" clip-rule="evenodd" d="M15.3974 8.19824C15.839 7.86659 16.4659 7.95574 16.7975 8.39736C17.4666 9.28836 17.8744 10.3481 17.9752 11.4578C18.0759 12.5675 17.8657 13.6833 17.368 14.6803C16.8703 15.6772 16.1048 16.5159 15.1573 17.1023C14.2098 17.6887 13.1178 17.9997 12.0035 18.0004C10.8892 18.0011 9.79678 17.6914 8.84856 17.1062C7.90034 16.521 7.13381 15.6833 6.63487 14.687C6.13593 13.6907 5.92429 12.5751 6.02367 11.4653C6.12304 10.3554 6.5295 9.2952 7.19751 8.40336C7.5286 7.96133 8.15535 7.87139 8.59738 8.20249C9.03942 8.53358 9.12935 9.16033 8.79826 9.60236C8.35292 10.1969 8.08195 10.9037 8.0157 11.6436C7.94945 12.3835 8.09054 13.1272 8.42317 13.7915C8.7558 14.4557 9.26681 15.0141 9.89896 15.4043C10.5311 15.7944 11.2594 16.0008 12.0023 16.0004C12.7451 15.9999 13.4731 15.7926 14.1048 15.4016C14.7365 15.0107 15.2468 14.4516 15.5786 13.787C15.9104 13.1223 16.0505 12.3785 15.9834 11.6386C15.9162 10.8988 15.6443 10.1924 15.1983 9.59836C14.8666 9.15674 14.9558 8.52988 15.3974 8.19824Z" fill="black"/>
<path fill-rule="evenodd" clip-rule="evenodd" d="M5 4C4.44772 4 4 4.44772 4 5V19C4 19.5523 4.44772 20 5 20H19C19.5523 20 20 19.5523 20 19V5C20 4.44772 19.5523 4 19 4H5ZM2 5C2 3.34315 3.34315 2 5 2H19C20.6569 2 22 3.34315 22 5V19C22 20.6569 20.6569 22 19 22H5C3.34315 22 2 20.6569 2 19V5Z" fill="black"/>
</svg>
