<svg width="24" height="24" viewBox="0 0 24 24" fill="none" xmlns="http://www.w3.org/2000/svg">
<path fill-rule="evenodd" clip-rule="evenodd" d="M16.1 7C15.0815 7 14.1299 7.47285 13.6437 8.23688C13.6347 8.251 13.6253 8.26489 13.6157 8.27854L7.51565 16.8785C7.51337 16.8818 7.51106 16.885 7.50874 16.8882C6.52188 18.2451 5.02217 19 3.4 19H2C1.44772 19 1 18.5523 1 18C1 17.4477 1.44772 17 2 17H3.4C4.37609 17 5.27493 16.5565 5.888 15.7163L11.9708 7.1406C12.8874 5.71955 14.5268 5 16.1 5H22C22.5523 5 23 5.44772 23 6C23 6.55228 22.5523 7 22 7H16.1Z" fill="black"/>
<path fill-rule="evenodd" clip-rule="evenodd" d="M17.2929 1.29289C17.6834 0.902369 18.3166 0.902369 18.7071 1.29289L22.7071 5.29289C23.0976 5.68342 23.0976 6.31658 22.7071 6.70711L18.7071 10.7071C18.3166 11.0976 17.6834 11.0976 17.2929 10.7071C16.9024 10.3166 16.9024 9.68342 17.2929 9.29289L20.5858 6L17.2929 2.70711C16.9024 2.31658 16.9024 1.68342 17.2929 1.29289Z" fill="black"/>
<path fill-rule="evenodd" clip-rule="evenodd" d="M1 6C1 5.44772 1.44772 5 2 5H3.9C5.79326 5 7.51843 6.12496 8.38047 7.7259C8.64231 8.21217 8.46037 8.81863 7.9741 9.08047C7.48783 9.34231 6.88137 9.16037 6.61953 8.6741C6.08157 7.67504 5.00674 7 3.9 7H2C1.44772 7 1 6.55228 1 6Z" fill="black"/>
<path fill-rule="evenodd" clip-rule="evenodd" d="M11.7701 14.552C12.2384 14.2593 12.8553 14.4017 13.1481 14.87L13.6457 15.6663C14.1593 16.4707 15.1368 17 16.1001 17H22.0001C22.5523 17 23.0001 17.4478 23.0001 18C23.0001 18.5523 22.5523 19 22.0001 19H16.1001C14.4646 19 12.8434 18.1307 11.9564 16.7369C11.9549 16.7346 11.9535 16.7323 11.9521 16.73L11.4521 15.93C11.1594 15.4617 11.3017 14.8447 11.7701 14.552Z" fill="black"/>
<path fill-rule="evenodd" clip-rule="evenodd" d="M17.2929 13.2929C17.6834 12.9024 18.3166 12.9024 18.7071 13.2929L22.7071 17.2929C23.0976 17.6834 23.0976 18.3166 22.7071 18.7071L18.7071 22.7071C18.3166 23.0976 17.6834 23.0976 17.2929 22.7071C16.9024 22.3166 16.9024 21.6834 17.2929 21.2929L20.5858 18L17.2929 14.7071C16.9024 14.3166 16.9024 13.6834 17.2929 13.2929Z" fill="black"/>
</svg>
