<svg width="24" height="24" viewBox="0 0 24 24" fill="none" xmlns="http://www.w3.org/2000/svg">
<path fill-rule="evenodd" clip-rule="evenodd" d="M12 10C10.8954 10 10 10.8954 10 12C10 13.1046 10.8954 14 12 14C13.1046 14 14 13.1046 14 12C14 10.8954 13.1046 10 12 10ZM8 12C8 9.79086 9.79086 8 12 8C14.2091 8 16 9.79086 16 12C16 14.2091 14.2091 16 12 16C9.79086 16 8 14.2091 8 12Z" fill="black"/>
<path fill-rule="evenodd" clip-rule="evenodd" d="M4 3C3.73478 3 3.48043 3.10536 3.29289 3.29289C3.10536 3.48043 3 3.73478 3 4V8C3 8.26522 3.10536 8.51957 3.29289 8.70711C3.48043 8.89464 3.73478 9 4 9H4.5C5.05228 9 5.5 9.44771 5.5 10C5.5 10.5523 5.05228 11 4.5 11H4C3.20435 11 2.44129 10.6839 1.87868 10.1213C1.31607 9.55871 1 8.79565 1 8V4C1 3.20435 1.31607 2.44129 1.87868 1.87868C2.44129 1.31607 3.20435 1 4 1H20C20.7956 1 21.5587 1.31607 22.1213 1.87868C22.6839 2.44129 23 3.20435 23 4V8C23 8.79565 22.6839 9.55871 22.1213 10.1213C21.5587 10.6839 20.7957 11 20 11H19.5C18.9477 11 18.5 10.5523 18.5 10C18.5 9.44771 18.9477 9 19.5 9H20C20.2652 9 20.5196 8.89464 20.7071 8.70711C20.8946 8.51957 21 8.26522 21 8V4C21 3.73478 20.8946 3.48043 20.7071 3.29289C20.5196 3.10536 20.2652 3 20 3H4Z" fill="black"/>
<path fill-rule="evenodd" clip-rule="evenodd" d="M1.87868 13.8787C2.44129 13.3161 3.20435 13 4 13H4.5C5.05228 13 5.5 13.4477 5.5 14C5.5 14.5523 5.05228 15 4.5 15H4C3.73478 15 3.48043 15.1054 3.29289 15.2929C3.10536 15.4804 3 15.7348 3 16V20C3 20.2652 3.10536 20.5196 3.29289 20.7071C3.48043 20.8946 3.73478 21 4 21H20C20.2652 21 20.5196 20.8946 20.7071 20.7071C20.8946 20.5196 21 20.2652 21 20V16C21 15.7348 20.8946 15.4804 20.7071 15.2929C20.5196 15.1054 20.2652 15 20 15H19.5C18.9477 15 18.5 14.5523 18.5 14C18.5 13.4477 18.9477 13 19.5 13H20C20.7957 13 21.5587 13.3161 22.1213 13.8787C22.6839 14.4413 23 15.2043 23 16V20C23 20.7957 22.6839 21.5587 22.1213 22.1213C21.5587 22.6839 20.7957 23 20 23H4C3.20435 23 2.44129 22.6839 1.87868 22.1213C1.31607 21.5587 1 20.7956 1 20V16C1 15.2044 1.31607 14.4413 1.87868 13.8787Z" fill="black"/>
<path fill-rule="evenodd" clip-rule="evenodd" d="M5 6C5 5.44772 5.44772 5 6 5H6.01C6.56228 5 7.01 5.44772 7.01 6C7.01 6.55228 6.56228 7 6.01 7H6C5.44772 7 5 6.55228 5 6Z" fill="black"/>
<path fill-rule="evenodd" clip-rule="evenodd" d="M5 18C5 17.4477 5.44772 17 6 17H6.01C6.56228 17 7.01 17.4477 7.01 18C7.01 18.5523 6.56228 19 6.01 19H6C5.44772 19 5 18.5523 5 18Z" fill="black"/>
<path fill-rule="evenodd" clip-rule="evenodd" d="M13.8514 12.7837C14.026 12.2597 14.5924 11.9765 15.1163 12.1512L16.0163 12.4512C16.5402 12.6258 16.8234 13.1922 16.6488 13.7161C16.4741 14.2401 15.9078 14.5232 15.3838 14.3486L14.4838 14.0486C13.9599 13.8739 13.6767 13.3076 13.8514 12.7837Z" fill="black"/>
<path fill-rule="evenodd" clip-rule="evenodd" d="M7.35139 10.2837C7.52604 9.75971 8.09236 9.47655 8.6163 9.6512L9.5163 9.9512C10.0402 10.1258 10.3234 10.6922 10.1488 11.2161C9.97411 11.7401 9.40779 12.0232 8.88385 11.8486L7.98385 11.5486C7.45991 11.3739 7.17675 10.8076 7.35139 10.2837Z" fill="black"/>
<path fill-rule="evenodd" clip-rule="evenodd" d="M11.2162 13.8514C11.7402 14.026 12.0233 14.5924 11.8487 15.1163L11.5487 16.0163C11.374 16.5402 10.8077 16.8234 10.2838 16.6488C9.75983 16.4741 9.47667 15.9078 9.65132 15.3838L9.95132 14.4838C10.126 13.9599 10.6923 13.6767 11.2162 13.8514Z" fill="black"/>
<path fill-rule="evenodd" clip-rule="evenodd" d="M12.8286 13.7715C13.3414 13.5664 13.9233 13.8158 14.1284 14.3286L14.5285 15.3286C14.7336 15.8414 14.4841 16.4233 13.9714 16.6284C13.4586 16.8336 12.8766 16.5841 12.6715 16.0714L12.2715 15.0714C12.0664 14.5586 12.3158 13.9766 12.8286 13.7715Z" fill="black"/>
<path fill-rule="evenodd" clip-rule="evenodd" d="M10.0287 7.37159C10.5414 7.16648 11.1234 7.4159 11.3285 7.92868L11.7285 8.92868C11.9336 9.44146 11.6842 10.0234 11.1714 10.2285C10.6587 10.4337 10.0767 10.1842 9.87157 9.67146L9.47157 8.67146C9.26646 8.15868 9.51587 7.57671 10.0287 7.37159Z" fill="black"/>
<path fill-rule="evenodd" clip-rule="evenodd" d="M10.2285 12.8286C10.4337 13.3414 10.1842 13.9233 9.67146 14.1284L8.67146 14.5285C8.15868 14.7336 7.57671 14.4841 7.37159 13.9714C7.16648 13.4586 7.4159 12.8766 7.92868 12.6715L8.92868 12.2715C9.44146 12.0664 10.0234 12.3158 10.2285 12.8286Z" fill="black"/>
<path fill-rule="evenodd" clip-rule="evenodd" d="M16.6284 10.0285C16.8336 10.5413 16.5841 11.1233 16.0714 11.3284L15.0714 11.7284C14.5586 11.9335 13.9766 11.6841 13.7715 11.1713C13.5664 10.6585 13.8158 10.0766 14.3286 9.87145L15.3286 9.47145C15.8414 9.26633 16.4233 9.51575 16.6284 10.0285Z" fill="black"/>
<path fill-rule="evenodd" clip-rule="evenodd" d="M13.7162 7.35139C14.2402 7.52604 14.5233 8.09236 14.3487 8.6163L14.0487 9.5163C13.874 10.0402 13.3077 10.3234 12.7838 10.1488C12.2598 9.97411 11.9767 9.40779 12.1513 8.88385L12.4513 7.98385C12.626 7.45991 13.1923 7.17675 13.7162 7.35139Z" fill="black"/>
</svg>
