<svg width="24" height="24" viewBox="0 0 24 24" fill="none" xmlns="http://www.w3.org/2000/svg">
<path fill-rule="evenodd" clip-rule="evenodd" d="M10 1C10.5523 1 11 1.44772 11 2V9.31C11 9.86228 10.5523 10.31 10 10.31C9.44772 10.31 9 9.86228 9 9.31V2C9 1.44772 9.44772 1 10 1Z" fill="black"/>
<path fill-rule="evenodd" clip-rule="evenodd" d="M14 0.98999C14.5523 0.98999 15 1.43771 15 1.98999V9.29999C15 9.85227 14.5523 10.3 14 10.3C13.4477 10.3 13 9.85227 13 9.29999V1.98999C13 1.43771 13.4477 0.98999 14 0.98999Z" fill="black"/>
<path fill-rule="evenodd" clip-rule="evenodd" d="M7.5 2C7.5 1.44772 7.94772 1 8.5 1H15.5C16.0523 1 16.5 1.44772 16.5 2C16.5 2.55228 16.0523 3 15.5 3H8.5C7.94772 3 7.5 2.55228 7.5 2Z" fill="black"/>
<path fill-rule="evenodd" clip-rule="evenodd" d="M10.9515 8.99226C11.1214 9.51775 10.8332 10.0815 10.3077 10.2514C9.06105 10.6546 7.99926 11.4895 7.3135 12.606C6.62774 13.7224 6.36307 15.047 6.56713 16.3412C6.7712 17.6355 7.43059 18.8143 8.4266 19.6656C9.4226 20.5169 10.6898 20.9846 12 20.9846C13.3102 20.9846 14.5774 20.5169 15.5734 19.6656C16.5694 18.8143 17.2288 17.6355 17.4329 16.3412C17.637 15.047 17.3723 13.7224 16.6865 12.606C16.0008 11.4895 14.939 10.6546 13.6923 10.2514C13.1668 10.0815 12.8786 9.51775 13.0485 8.99226C13.2185 8.46677 13.7822 8.17853 14.3077 8.34847C16.0077 8.89821 17.4556 10.0368 18.3907 11.5592C19.3258 13.0816 19.6868 14.8878 19.4085 16.6527C19.1302 18.4176 18.2311 20.0251 16.8729 21.186C15.5147 22.3468 13.7867 22.9846 12 22.9846C10.2133 22.9846 8.48536 22.3468 7.12717 21.186C5.76898 20.0251 4.86981 18.4176 4.59154 16.6527C4.31327 14.8878 4.67419 13.0816 5.60931 11.5592C6.54444 10.0368 7.99233 8.89821 9.69232 8.34847C10.2178 8.17853 10.7816 8.46677 10.9515 8.99226Z" fill="black"/>
<path fill-rule="evenodd" clip-rule="evenodd" d="M4.52002 16C4.52002 15.4477 4.96773 15 5.52002 15H18.48C19.0323 15 19.48 15.4477 19.48 16C19.48 16.5523 19.0323 17 18.48 17H5.52002C4.96773 17 4.52002 16.5523 4.52002 16Z" fill="black"/>
</svg>
