<svg width="24" height="24" viewBox="0 0 24 24" fill="none" xmlns="http://www.w3.org/2000/svg">
<path fill-rule="evenodd" clip-rule="evenodd" d="M12.0001 3C9.25236 3 7.00008 5.25228 7.00008 8C7.00008 11.6473 6.21715 14.0654 5.37797 15.6039C5.30188 15.7434 5.22549 15.8753 5.1494 16H18.8809C18.7608 15.8075 18.639 15.598 18.5177 15.3706C18.2578 14.8833 18.4422 14.2775 18.9295 14.0176C19.4168 13.7577 20.0225 13.9421 20.2824 14.4294C20.643 15.1055 20.9967 15.566 21.2475 15.8481C21.373 15.9894 21.4732 16.0863 21.5359 16.1435C21.5673 16.172 21.5893 16.1907 21.6005 16.1999C21.6042 16.203 21.6068 16.205 21.608 16.206C21.9466 16.4652 22.0838 16.911 21.9488 17.3162C21.8126 17.7246 21.4305 18 21.0001 18H3.00008C2.55941 18 2.17068 17.7115 2.04299 17.2898C1.91664 16.8725 2.07528 16.4221 2.43378 16.1758C2.43448 16.1753 2.43543 16.1746 2.43663 16.1737C2.44432 16.168 2.46218 16.1544 2.4888 16.1322C2.54202 16.0878 2.6304 16.0091 2.74288 15.8904C2.9673 15.6535 3.29039 15.2544 3.62218 14.6461C4.28301 13.4346 5.00008 11.3527 5.00008 8C5.00008 4.14772 8.14779 1 12.0001 1C12.8045 1 13.5115 1.11639 14.2163 1.35132C14.7402 1.52596 15.0234 2.09228 14.8488 2.61623C14.6741 3.14017 14.1078 3.42333 13.5838 3.24868C13.0886 3.08361 12.5956 3 12.0001 3ZM21.6023 16.2017L21.6022 16.2016L21.6019 16.2014C21.602 16.2015 21.6022 16.2016 21.6023 16.2017ZM21.6089 16.2067L21.609 16.2068C21.609 16.2068 21.609 16.2068 21.6089 16.2067Z" fill="black"/>
<path fill-rule="evenodd" clip-rule="evenodd" d="M9.8182 20.1237C10.3022 19.8577 10.9102 20.0343 11.1763 20.5182C11.2574 20.6658 11.3766 20.7888 11.5215 20.8745C11.6664 20.9602 11.8317 21.0054 12 21.0054C12.1683 21.0054 12.3336 20.9602 12.4785 20.8745C12.6234 20.7888 12.7426 20.6658 12.8237 20.5182C13.0898 20.0343 13.6978 19.8577 14.1818 20.1237C14.6657 20.3898 14.8424 20.9979 14.5763 21.4818C14.3226 21.9432 13.9497 22.328 13.4965 22.596C13.0433 22.864 12.5265 23.0054 12 23.0054C11.4735 23.0054 10.9566 22.864 10.5035 22.596C10.0503 22.328 9.67736 21.9432 9.4237 21.4818C9.15762 20.9979 9.33424 20.3898 9.8182 20.1237Z" fill="black"/>
<path fill-rule="evenodd" clip-rule="evenodd" d="M18 6C16.8954 6 16 6.89543 16 8C16 9.10457 16.8954 10 18 10C19.1046 10 20 9.10457 20 8C20 6.89543 19.1046 6 18 6ZM14 8C14 5.79086 15.7909 4 18 4C20.2091 4 22 5.79086 22 8C22 10.2091 20.2091 12 18 12C15.7909 12 14 10.2091 14 8Z" fill="black"/>
</svg>
