<svg width="24" height="24" viewBox="0 0 24 24" fill="none" xmlns="http://www.w3.org/2000/svg">
<path fill-rule="evenodd" clip-rule="evenodd" d="M12.374 4.3743L4.00209 12.9999H10.9985C11.3214 12.9992 11.6397 13.0766 11.9262 13.2256C12.2132 13.3749 12.4597 13.5916 12.6446 13.8571C12.8294 14.1226 12.9471 14.4289 12.9876 14.7499C13.0268 15.0614 12.9921 15.3776 12.8866 15.673L11.626 19.6255L19.9979 10.9999H13.0015C12.6786 11.0007 12.3603 10.9233 12.0738 10.7742C11.7868 10.6249 11.5403 10.4083 11.3554 10.1428C11.1706 9.87728 11.0529 9.5709 11.0124 9.24993C10.9732 8.93842 11.0078 8.62219 11.1134 8.3268L12.374 4.3743ZM13.2251 1.02233C13.5597 0.960455 13.9054 1.01416 14.2054 1.17464C14.5054 1.33511 14.7419 1.59282 14.8762 1.90545C15.0104 2.21809 15.0344 2.56707 14.9442 2.89513C14.9406 2.90809 14.9368 2.92097 14.9327 2.93378L13.0127 8.95378C13.0078 8.96929 13.0024 8.98468 12.9967 8.99993C12.9978 8.99992 12.9989 8.99992 13 8.99992H19.9987C20.3764 8.99903 20.7467 9.10514 21.0667 9.30597C21.3872 9.50718 21.6441 9.79521 21.8075 10.1366C21.9709 10.478 22.034 10.8588 21.9896 11.2346C21.9452 11.6105 21.795 11.966 21.5566 12.2599C21.5379 12.2829 21.5182 12.3051 21.4976 12.3264L11.612 22.5116C11.3916 22.754 11.0976 22.9178 10.7749 22.9775C10.4403 23.0394 10.0946 22.9857 9.79461 22.8252C9.49459 22.6647 9.25804 22.407 9.12379 22.0944C8.98954 21.7818 8.96557 21.4328 9.0558 21.1047C9.05937 21.0918 9.06319 21.0789 9.06728 21.0661L10.9873 15.0461C10.9922 15.0306 10.9975 15.0152 11.0032 14.9999C11.0022 14.9999 11.0011 14.9999 11 14.9999H4.00128C3.62355 15.0008 3.25327 14.8947 2.93331 14.6939C2.61275 14.4927 2.35587 14.2046 2.1925 13.8632C2.02913 13.5218 1.96599 13.1411 2.0104 12.7652C2.05481 12.3894 2.20496 12.0338 2.4434 11.7399C2.46208 11.7169 2.48177 11.6947 2.50241 11.6734L12.388 1.48831C12.6084 1.24589 12.9023 1.08202 13.2251 1.02233Z" fill="black"/>
</svg>
