<svg width="24" height="24" viewBox="0 0 24 24" fill="none" xmlns="http://www.w3.org/2000/svg">
<path fill-rule="evenodd" clip-rule="evenodd" d="M5.59117 3.01651C5.57844 3.01134 5.56479 3.00884 5.55106 3.00919C5.53732 3.00953 5.52381 3.01269 5.51135 3.01849C5.50156 3.02304 5.49259 3.02915 5.48478 3.03654C3.7618 5.1439 2.88116 7.81561 3.01381 10.5351C3.14691 13.2639 4.29072 15.8455 6.22257 17.7774C8.15441 19.7092 10.736 20.853 13.4648 20.9861C16.1876 21.1189 18.8624 20.236 20.9709 18.509C20.9776 18.5024 20.9832 18.4947 20.9872 18.4861C20.992 18.476 20.9946 18.465 20.9949 18.4539C20.9951 18.4427 20.9931 18.4316 20.9888 18.4213C20.9846 18.411 20.9782 18.4017 20.9701 18.394C20.9642 18.3883 20.9584 18.3826 20.9526 18.3769L5.63259 3.04688C5.63006 3.04434 5.62754 3.04179 5.62503 3.03923C5.61542 3.02941 5.6039 3.02168 5.59117 3.01651ZM5.50138 1.0098C5.78977 1.00264 6.07654 1.05497 6.34381 1.16353C6.60915 1.2713 6.84962 1.4322 7.05045 1.63631L22.36 16.9559C22.5654 17.1543 22.7277 17.3928 22.8369 17.6567C22.9479 17.925 23.0015 18.2136 22.9942 18.5039C22.987 18.7941 22.919 19.0797 22.7948 19.3421C22.6705 19.6045 22.4927 19.838 22.2727 20.0275C22.2668 20.0326 22.2609 20.0376 22.2549 20.0426C19.7604 22.0926 16.5923 23.1411 13.3674 22.9837C10.1424 22.8264 7.09145 21.4747 4.80836 19.1916C2.52527 16.9085 1.17349 13.8575 1.01618 10.6325C0.858877 7.4076 1.90731 4.23952 3.95736 1.74507C3.96513 1.73562 3.97307 1.7263 3.98119 1.71714C4.17241 1.50115 4.40608 1.32687 4.66763 1.20517C4.92918 1.08347 5.213 1.01697 5.50138 1.0098Z" fill="black"/>
<path fill-rule="evenodd" clip-rule="evenodd" d="M9.03945 3.61567C9.43951 3.99643 9.45515 4.6294 9.07439 5.02945C7.81585 6.35177 7.12365 8.11342 7.14539 9.93879C7.16714 11.7642 7.9011 13.5088 9.19078 14.8008C10.4805 16.0927 12.2238 16.8298 14.0491 16.8548C15.8745 16.8797 17.6373 16.1907 18.9619 14.9345C19.3626 14.5544 19.9956 14.5712 20.3756 14.9719C20.7557 15.3726 20.7389 16.0056 20.3382 16.3856C18.6352 18.0007 16.3686 18.8867 14.0218 18.8546C11.6749 18.8225 9.43347 17.8748 7.77531 16.2137C6.11715 14.5527 5.17349 12.3095 5.14554 9.96261C5.11758 7.61571 6.00755 5.35073 7.62567 3.65061C8.00643 3.25055 8.6394 3.23491 9.03945 3.61567Z" fill="black"/>
<path fill-rule="evenodd" clip-rule="evenodd" d="M14.7071 9.29289C15.0976 9.68342 15.0976 10.3166 14.7071 10.7071L9.20711 16.2071C8.81658 16.5976 8.18342 16.5976 7.79289 16.2071C7.40237 15.8166 7.40237 15.1834 7.79289 14.7929L13.2929 9.29289C13.6834 8.90237 14.3166 8.90237 14.7071 9.29289Z" fill="black"/>
<path fill-rule="evenodd" clip-rule="evenodd" d="M5.15002 10C5.15002 9.44772 5.59774 9 6.15002 9H14C14.5523 9 15 9.44772 15 10V17.85C15 18.4023 14.5523 18.85 14 18.85C13.4477 18.85 13 18.4023 13 17.85V11H6.15002C5.59774 11 5.15002 10.5523 5.15002 10Z" fill="black"/>
</svg>
