<svg width="24" height="24" viewBox="0 0 24 24" fill="none" xmlns="http://www.w3.org/2000/svg">
<path fill-rule="evenodd" clip-rule="evenodd" d="M3.47427 1.14935C3.76909 0.967144 4.13723 0.95058 4.44721 1.10557L6 1.88197L7.55279 1.10557C7.83431 0.96481 8.16569 0.96481 8.44721 1.10557L10 1.88197L11.5528 1.10557C11.8343 0.96481 12.1657 0.96481 12.4472 1.10557L14 1.88197L15.5528 1.10557C15.8343 0.96481 16.1657 0.96481 16.4472 1.10557L18 1.88197L19.5528 1.10557C19.8628 0.95058 20.2309 0.967144 20.5257 1.14935C20.8205 1.33156 21 1.65342 21 2V22C21 22.3466 20.8205 22.6684 20.5257 22.8507C20.2309 23.0329 19.8628 23.0494 19.5528 22.8944L18 22.118L16.4472 22.8944C16.1657 23.0352 15.8343 23.0352 15.5528 22.8944L14 22.118L12.4472 22.8944C12.1657 23.0352 11.8343 23.0352 11.5528 22.8944L10 22.118L8.44721 22.8944C8.16569 23.0352 7.83431 23.0352 7.55279 22.8944L6 22.118L4.44721 22.8944C4.13723 23.0494 3.76909 23.0329 3.47427 22.8507C3.17945 22.6684 3 22.3466 3 22V2C3 1.65342 3.17945 1.33156 3.47427 1.14935ZM5 3.61803V20.382L5.55279 20.1056C5.83431 19.9648 6.16569 19.9648 6.44721 20.1056L8 20.882L9.55279 20.1056C9.83431 19.9648 10.1657 19.9648 10.4472 20.1056L12 20.882L13.5528 20.1056C13.8343 19.9648 14.1657 19.9648 14.4472 20.1056L16 20.882L17.5528 20.1056C17.8343 19.9648 18.1657 19.9648 18.4472 20.1056L19 20.382V3.61803L18.4472 3.89443C18.1657 4.03519 17.8343 4.03519 17.5528 3.89443L16 3.11803L14.4472 3.89443C14.1657 4.03519 13.8343 4.03519 13.5528 3.89443L12 3.11804L10.4472 3.89443C10.1657 4.03519 9.83431 4.03519 9.55279 3.89443L8 3.11804L6.44721 3.89443C6.16569 4.03519 5.83431 4.03519 5.55279 3.89443L5 3.61803Z" fill="black"/>
<path fill-rule="evenodd" clip-rule="evenodd" d="M7 7C7 6.44772 7.44772 6 8 6H16C16.5523 6 17 6.44772 17 7C17 7.55228 16.5523 8 16 8H8C7.44772 8 7 7.55228 7 7Z" fill="black"/>
<path fill-rule="evenodd" clip-rule="evenodd" d="M8.00008 7C8.00008 6.44772 8.4478 6 9.00008 6C10.3262 6 11.5979 6.52678 12.5356 7.46447C13.4733 8.40215 14.0001 9.67392 14.0001 11C14.0001 12.3261 13.4733 13.5979 12.5356 14.5355C12.0612 15.0099 11.5013 15.3792 10.892 15.6282L12.5301 16.652C12.9984 16.9447 13.1408 17.5617 12.8481 18.03C12.5554 18.4983 11.9384 18.6407 11.4701 18.348L7.47009 15.848C7.09178 15.6116 6.91585 15.1531 7.03884 14.7243C7.16182 14.2955 7.55397 14 8.00008 14H9.00008C9.79573 14 10.5588 13.6839 11.1214 13.1213C11.684 12.5587 12.0001 11.7956 12.0001 11C12.0001 10.2043 11.684 9.44129 11.1214 8.87868C10.5588 8.31607 9.79573 8 9.00008 8C8.4478 8 8.00008 7.55228 8.00008 7Z" fill="black"/>
<path fill-rule="evenodd" clip-rule="evenodd" d="M7 11C7 10.4477 7.44772 10 8 10H16C16.5523 10 17 10.4477 17 11C17 11.5523 16.5523 12 16 12H8C7.44772 12 7 11.5523 7 11Z" fill="black"/>
</svg>
