<svg width="24" height="24" viewBox="0 0 24 24" fill="none" xmlns="http://www.w3.org/2000/svg">
<path fill-rule="evenodd" clip-rule="evenodd" d="M12 15C10.8954 15 10 15.8954 10 17C10 18.1046 10.8954 19 12 19C13.1046 19 14 18.1046 14 17C14 15.8954 13.1046 15 12 15ZM8 17C8 14.7909 9.79086 13 12 13C14.2091 13 16 14.7909 16 17C16 19.2091 14.2091 21 12 21C9.79086 21 8 19.2091 8 17Z" fill="black"/>
<path fill-rule="evenodd" clip-rule="evenodd" d="M11.1377 4.40116C10.2776 4.07399 9.35374 3.94905 8.43763 4.036C7.52153 4.12294 6.63769 4.41944 5.85449 4.90256C5.07129 5.38568 4.40971 6.04248 3.92091 6.82216C3.43212 7.60183 3.12922 8.48349 3.03563 9.39895C2.94204 10.3144 3.06028 11.2391 3.38119 12.1016C3.7021 12.964 4.2171 13.7411 4.88634 14.3727C5.28799 14.7518 5.3063 15.3847 4.92724 15.7863C4.54817 16.188 3.91527 16.2063 3.51361 15.8272C2.62129 14.9851 1.93463 13.949 1.50675 12.799C1.07886 11.6491 0.921214 10.4161 1.046 9.19554C1.17078 7.97494 1.57466 6.79939 2.22638 5.75982C2.8781 4.72026 3.76021 3.84453 4.80448 3.20036C5.84875 2.5562 7.02719 2.16087 8.24867 2.04494C9.47015 1.92902 10.7019 2.09561 11.8487 2.53183C12.9955 2.96804 14.0266 3.6622 14.8623 4.56061C15.5259 5.27404 16.0521 6.10108 16.417 6.99997H17.5C17.5045 6.99997 17.509 7 17.5135 7.00006C18.6793 7.01578 19.81 7.40159 20.7423 8.10179C21.6746 8.80199 22.3602 9.78035 22.7002 10.8956C23.0403 12.0109 23.0171 13.2054 22.634 14.3066C22.2509 15.4078 21.5278 16.3588 20.569 17.0223C20.1149 17.3366 19.4919 17.2232 19.1777 16.769C18.8634 16.3149 18.9768 15.6919 19.4309 15.3777C20.0411 14.9555 20.5012 14.3503 20.745 13.6495C20.9888 12.9487 21.0036 12.1886 20.7872 11.4789C20.5708 10.7692 20.1345 10.1466 19.5412 9.70098C18.9496 9.25666 18.2325 9.01128 17.4928 8.99997H15.71C15.2682 8.99997 14.8788 8.71014 14.7521 8.287C14.4879 7.40549 14.0246 6.59655 13.3978 5.92275C12.7711 5.24894 11.9978 4.72832 11.1377 4.40116Z" fill="black"/>
<path fill-rule="evenodd" clip-rule="evenodd" d="M13.8514 17.7837C14.026 17.2598 14.5924 16.9766 15.1163 17.1513L16.0163 17.4513C16.5402 17.6259 16.8234 18.1922 16.6488 18.7162C16.4741 19.2401 15.9078 19.5233 15.3838 19.3486L14.4838 19.0486C13.9599 18.874 13.6767 18.3077 13.8514 17.7837Z" fill="black"/>
<path fill-rule="evenodd" clip-rule="evenodd" d="M7.35139 15.2837C7.52604 14.7598 8.09236 14.4766 8.6163 14.6513L9.5163 14.9513C10.0402 15.1259 10.3234 15.6922 10.1488 16.2162C9.97411 16.7401 9.40779 17.0233 8.88385 16.8486L7.98385 16.5486C7.45991 16.374 7.17675 15.8077 7.35139 15.2837Z" fill="black"/>
<path fill-rule="evenodd" clip-rule="evenodd" d="M11.2162 18.8513C11.7402 19.026 12.0233 19.5923 11.8487 20.1162L11.5487 21.0162C11.374 21.5402 10.8077 21.8233 10.2838 21.6487C9.75983 21.4741 9.47667 20.9077 9.65132 20.3838L9.95132 19.4838C10.126 18.9598 10.6923 18.6767 11.2162 18.8513Z" fill="black"/>
<path fill-rule="evenodd" clip-rule="evenodd" d="M13.7162 12.3513C14.2402 12.526 14.5233 13.0923 14.3487 13.6162L14.0487 14.5162C13.874 15.0402 13.3077 15.3233 12.7838 15.1487C12.2598 14.9741 11.9767 14.4077 12.1513 13.8838L12.4513 12.9838C12.626 12.4598 13.1923 12.1767 13.7162 12.3513Z" fill="black"/>
<path fill-rule="evenodd" clip-rule="evenodd" d="M12.8286 18.7715C13.3414 18.5664 13.9233 18.8158 14.1284 19.3286L14.5285 20.3286C14.7336 20.8414 14.4841 21.4233 13.9714 21.6284C13.4586 21.8336 12.8766 21.5841 12.6715 21.0714L12.2715 20.0714C12.0664 19.5586 12.3158 18.9766 12.8286 18.7715Z" fill="black"/>
<path fill-rule="evenodd" clip-rule="evenodd" d="M10.0287 12.3715C10.5414 12.1664 11.1234 12.4158 11.3285 12.9286L11.7285 13.9286C11.9336 14.4414 11.6842 15.0234 11.1714 15.2285C10.6587 15.4336 10.0767 15.1842 9.87157 14.6714L9.47157 13.6714C9.26646 13.1586 9.51587 12.5766 10.0287 12.3715Z" fill="black"/>
<path fill-rule="evenodd" clip-rule="evenodd" d="M10.2285 17.8286C10.4337 18.3414 10.1842 18.9233 9.67146 19.1284L8.67146 19.5284C8.15868 19.7336 7.57671 19.4841 7.37159 18.9714C7.16648 18.4586 7.4159 17.8766 7.92868 17.6715L8.92868 17.2715C9.44146 17.0664 10.0234 17.3158 10.2285 17.8286Z" fill="black"/>
<path fill-rule="evenodd" clip-rule="evenodd" d="M16.6284 15.0287C16.8336 15.5414 16.5841 16.1234 16.0714 16.3285L15.0714 16.7285C14.5586 16.9336 13.9766 16.6842 13.7715 16.1714C13.5664 15.6587 13.8158 15.0767 14.3286 14.8716L15.3286 14.4716C15.8414 14.2665 16.4233 14.5159 16.6284 15.0287Z" fill="black"/>
</svg>
