<svg width="24" height="24" viewBox="0 0 24 24" fill="none" xmlns="http://www.w3.org/2000/svg">
<path fill-rule="evenodd" clip-rule="evenodd" d="M6 21C6 19.8954 6.89543 19 8 19C9.10457 19 10 19.8954 10 21C10 22.1046 9.10457 23 8 23C6.89543 23 6 22.1046 6 21Z" fill="black"/>
<path fill-rule="evenodd" clip-rule="evenodd" d="M17 21C17 19.8954 17.8954 19 19 19C20.1046 19 21 19.8954 21 21C21 22.1046 20.1046 23 19 23C17.8954 23 17 22.1046 17 21Z" fill="black"/>
<path fill-rule="evenodd" clip-rule="evenodd" d="M1.05005 2.05005C1.05005 1.49776 1.49776 1.05005 2.05005 1.05005H4.05005C4.52163 1.05005 4.92912 1.37951 5.02787 1.84063L5.92941 6.05005H22.09C22.3933 6.05005 22.6803 6.1877 22.87 6.42426C23.0598 6.66083 23.132 6.97076 23.0663 7.26684L21.4167 14.695C21.4166 14.6953 21.4166 14.6955 21.4165 14.6957C21.2696 15.3622 20.8998 15.9588 20.3682 16.3868C19.8364 16.815 19.1744 17.0489 18.4917 17.05L8.7201 17.05C8.02672 17.0627 7.35023 16.8346 6.80586 16.4046C6.2583 15.972 5.87866 15.3621 5.73229 14.6798L4.15277 7.30473C4.14511 7.27557 4.13874 7.24589 4.13372 7.21576L3.24154 3.05005H2.05005C1.49776 3.05005 1.05005 2.60233 1.05005 2.05005ZM6.35775 8.05005L7.6878 14.2603C7.68783 14.2604 7.68785 14.2605 7.68787 14.2606C7.73672 14.4879 7.86323 14.6911 8.04566 14.8352C8.22818 14.9794 8.45526 15.0555 8.6878 15.0503C8.69522 15.0501 8.70263 15.05 8.71005 15.05L18.4884 15.05C18.4886 15.05 18.4889 15.05 18.4891 15.05C18.7164 15.0495 18.9368 14.9716 19.1139 14.829C19.2912 14.6862 19.4145 14.4873 19.4634 14.265L19.4638 14.2633L20.8436 8.05005H6.35775Z" fill="black"/>
</svg>
