<svg width="24" height="24" viewBox="0 0 24 24" fill="none" xmlns="http://www.w3.org/2000/svg">
<path fill-rule="evenodd" clip-rule="evenodd" d="M4 11C3.44772 11 3 11.4477 3 12V20C3 20.5523 3.44772 21 4 21H12C12.5523 21 13 20.5523 13 20V12C13 11.4477 12.5523 11 12 11H4ZM1 12C1 10.3431 2.34315 9 4 9H12C13.6569 9 15 10.3431 15 12V20C15 21.6569 13.6569 23 12 23H4C2.34315 23 1 21.6569 1 20V12Z" fill="black"/>
<path fill-rule="evenodd" clip-rule="evenodd" d="M12.7504 1.83731C13.3456 1.30063 14.1186 1.0036 14.92 1.0036C15.7214 1.0036 16.4944 1.30063 17.0896 1.83731C17.1004 1.84704 17.111 1.85701 17.1214 1.8672L22.1214 6.7872C22.1356 6.80117 22.1493 6.81556 22.1627 6.83035C22.6994 7.42556 22.9964 8.19856 22.9964 8.99999C22.9964 9.80142 22.6994 10.5744 22.1627 11.1696C22.1511 11.1824 22.1393 11.1949 22.1271 11.2071L18.6271 14.7071C18.2366 15.0976 17.6034 15.0976 17.2129 14.7071C16.8224 14.3166 16.8224 13.6834 17.2129 13.2929L20.6919 9.81384C20.8881 9.58835 20.9964 9.29935 20.9964 8.99999C20.9964 8.70178 20.8889 8.41385 20.6942 8.18875L15.7364 3.31032C15.5106 3.11273 15.2205 3.0036 14.92 3.0036C14.6206 3.0036 14.3316 3.11189 14.1062 3.30805L10.7071 6.7071C10.3166 7.09762 9.68342 7.09762 9.29289 6.7071C8.90237 6.31657 8.90237 5.68341 9.29289 5.29288L12.7129 1.87288C12.7251 1.8607 12.7376 1.84884 12.7504 1.83731Z" fill="black"/>
<path fill-rule="evenodd" clip-rule="evenodd" d="M5 18C5 17.4477 5.44772 17 6 17H6.01C6.56228 17 7.01 17.4477 7.01 18C7.01 18.5523 6.56228 19 6.01 19H6C5.44772 19 5 18.5523 5 18Z" fill="black"/>
<path fill-rule="evenodd" clip-rule="evenodd" d="M9 14C9 13.4477 9.44772 13 10 13H10.01C10.5623 13 11.01 13.4477 11.01 14C11.01 14.5523 10.5623 15 10.01 15H10C9.44772 15 9 14.5523 9 14Z" fill="black"/>
<path fill-rule="evenodd" clip-rule="evenodd" d="M14 6C14 5.44772 14.4477 5 15 5H15.01C15.5623 5 16.01 5.44772 16.01 6C16.01 6.55228 15.5623 7 15.01 7H15C14.4477 7 14 6.55228 14 6Z" fill="black"/>
<path fill-rule="evenodd" clip-rule="evenodd" d="M17 9C17 8.44772 17.4477 8 18 8H18.01C18.5623 8 19.01 8.44772 19.01 9C19.01 9.55228 18.5623 10 18.01 10H18C17.4477 10 17 9.55228 17 9Z" fill="black"/>
</svg>
