<svg width="24" height="24" viewBox="0 0 24 24" fill="none" xmlns="http://www.w3.org/2000/svg">
<path fill-rule="evenodd" clip-rule="evenodd" d="M10.7555 4.26998C11.1462 4.09183 11.5706 3.99963 12 3.99963C12.4294 3.99963 12.8538 4.09182 13.2446 4.26995C13.2447 4.27002 13.2449 4.2701 13.245 4.27017L21.8033 8.16835C22.1569 8.31969 22.4596 8.56989 22.6748 8.88908C22.8935 9.21356 23.0123 9.59508 23.0163 9.98639C23.0204 10.3777 22.9095 10.7616 22.6975 11.0905C22.4866 11.4177 22.1849 11.6762 21.8293 11.8344L13.245 15.7298C13.2448 15.7299 13.2446 15.73 13.2444 15.7301C12.8538 15.9082 12.4294 16.0003 12 16.0003C11.5705 16.0003 11.1459 15.9081 10.7551 15.7299C10.7551 15.7298 10.7551 15.7298 10.755 15.7298L2.1908 11.8244C1.83823 11.6682 1.53829 11.4133 1.3272 11.0904C1.1145 10.765 1.00122 10.3847 1.00122 9.99599C1.00122 9.60728 1.1145 9.22698 1.3272 8.90162C1.53837 8.57859 1.83846 8.32361 2.19121 8.16736L10.755 4.27017C10.7552 4.2701 10.7553 4.27004 10.7555 4.26998ZM12 5.99963C11.8568 5.99963 11.7153 6.03039 11.585 6.08981L3.01425 9.99018C3.00992 9.99215 3.00558 9.99408 3.00122 9.99599C3.00581 9.998 3.01039 10 3.01495 10.0021L11.5849 13.9101L11.585 13.9102C11.7153 13.9696 11.8569 14.0003 12 14.0003C12.1432 14.0003 12.2848 13.9696 12.415 13.9102L21.0068 10.0114C21.01 10.0099 21.0132 10.0085 21.0164 10.0071C21.0064 10.0029 20.9964 9.99854 20.9865 9.99403L12.415 6.08981C12.2848 6.03039 12.1432 5.99963 12 5.99963Z" fill="black"/>
<path fill-rule="evenodd" clip-rule="evenodd" d="M22 9C22.5523 9 23 9.44772 23 10V16C23 16.5523 22.5523 17 22 17C21.4477 17 21 16.5523 21 16V10C21 9.44772 21.4477 9 22 9Z" fill="black"/>
<path fill-rule="evenodd" clip-rule="evenodd" d="M6 11.5C6.55228 11.5 7 11.9477 7 12.5V16C7 16.2251 7.20327 16.7262 8.20457 17.2269C9.15909 17.7042 10.5239 18 12 18C13.4761 18 14.8409 17.7042 15.7954 17.2269C16.7967 16.7262 17 16.2251 17 16V12.5C17 11.9477 17.4477 11.5 18 11.5C18.5523 11.5 19 11.9477 19 12.5V16C19 17.3662 17.939 18.3912 16.6899 19.0157C15.3939 19.6637 13.7065 20 12 20C10.2935 20 8.60606 19.6637 7.31015 19.0157C6.06101 18.3912 5 17.3662 5 16V12.5C5 11.9477 5.44772 11.5 6 11.5Z" fill="black"/>
</svg>
