<svg width="24" height="24" viewBox="0 0 24 24" fill="none" xmlns="http://www.w3.org/2000/svg">
<path fill-rule="evenodd" clip-rule="evenodd" d="M3 12C3 11.4477 3.44772 11 4 11H12C12.5523 11 13 11.4477 13 12C13 12.5523 12.5523 13 12 13H4C3.44772 13 3 12.5523 3 12Z" fill="black"/>
<path fill-rule="evenodd" clip-rule="evenodd" d="M4 5C4.55228 5 5 5.44772 5 6V18C5 18.5523 4.55228 19 4 19C3.44772 19 3 18.5523 3 18V6C3 5.44772 3.44772 5 4 5Z" fill="black"/>
<path fill-rule="evenodd" clip-rule="evenodd" d="M12 5C12.5523 5 13 5.44772 13 6V18C13 18.5523 12.5523 19 12 19C11.4477 19 11 18.5523 11 18V6C11 5.44772 11.4477 5 12 5Z" fill="black"/>
<path fill-rule="evenodd" clip-rule="evenodd" d="M17 9C17.5523 9 18 9.44772 18 10V13H21C21.5523 13 22 13.4477 22 14C22 14.5523 21.5523 15 21 15H17C16.4477 15 16 14.5523 16 14V10C16 9.44772 16.4477 9 17 9Z" fill="black"/>
<path fill-rule="evenodd" clip-rule="evenodd" d="M21 9C21.5523 9 22 9.44772 22 10V18C22 18.5523 21.5523 19 21 19C20.4477 19 20 18.5523 20 18V10C20 9.44772 20.4477 9 21 9Z" fill="black"/>
</svg>
