<svg width="24" height="24" viewBox="0 0 24 24" fill="none" xmlns="http://www.w3.org/2000/svg">
<path fill-rule="evenodd" clip-rule="evenodd" d="M5 4C4.73478 4 4.48043 4.10536 4.29289 4.29289C4.10536 4.48043 4 4.73478 4 5V18.5858L6.29289 16.2929C6.48043 16.1054 6.73478 16 7 16H19C19.2652 16 19.5196 15.8946 19.7071 15.7071C19.8946 15.5196 20 15.2652 20 15V5C20 4.73478 19.8946 4.48043 19.7071 4.29289C19.5196 4.10536 19.2652 4 19 4H5ZM2.87868 2.87868C3.44129 2.31607 4.20435 2 5 2H19C19.7956 2 20.5587 2.31607 21.1213 2.87868C21.6839 3.44129 22 4.20435 22 5V15C22 15.7957 21.6839 16.5587 21.1213 17.1213C20.5587 17.6839 19.7957 18 19 18H7.41421L3.70711 21.7071C3.42111 21.9931 2.99099 22.0787 2.61732 21.9239C2.24364 21.7691 2 21.4045 2 21V5C2 4.20435 2.31607 3.44129 2.87868 2.87868Z" fill="black"/>
<path fill-rule="evenodd" clip-rule="evenodd" d="M11.9249 6.43888C12.388 6.1303 12.9353 5.96216 13.4999 5.96216C14.2523 5.96216 14.974 6.26073 15.5064 6.79231L15.507 6.7929C16.5975 7.88342 16.6975 9.71659 15.407 11.0071L12.707 13.7071C12.5195 13.8946 12.2651 14 11.9999 14C11.7347 14 11.4803 13.8946 11.2928 13.7071L8.61703 11.0313C8.34797 10.7936 8.12624 10.507 7.9637 10.1866C7.79473 9.85357 7.69303 9.49049 7.66438 9.11812C7.63574 8.74575 7.68072 8.37139 7.79676 8.01641C7.91279 7.66143 8.09761 7.33277 8.34066 7.04921C8.58371 6.76566 8.88023 6.53275 9.21329 6.36379C9.54635 6.19482 9.90943 6.09312 10.2818 6.06447C10.6542 6.03583 11.0285 6.08081 11.3835 6.19685C11.5724 6.25858 11.7538 6.33979 11.9249 6.43888ZM11.0252 8.23952C10.9467 8.17708 10.8576 8.12908 10.7621 8.09786C10.6568 8.06343 10.5457 8.05008 10.4352 8.05858C10.3247 8.06708 10.217 8.09726 10.1181 8.1474C10.0193 8.19754 9.9313 8.26665 9.85917 8.3508C9.78705 8.43494 9.73221 8.53247 9.69777 8.63781C9.66334 8.74315 9.64999 8.85424 9.65849 8.96473C9.66699 9.07523 9.69717 9.18297 9.74731 9.2818C9.79745 9.38064 9.86656 9.46863 9.95071 9.54075C9.97014 9.55741 9.98892 9.5748 10.007 9.5929L11.9999 11.5858L13.9928 9.5929C14.5022 9.08354 14.4023 8.51685 14.093 8.20733C13.9356 8.05033 13.7223 7.96216 13.4999 7.96216C13.3043 7.96216 13.1157 8.03039 12.966 8.15369L12.832 8.35471C12.6658 8.60398 12.3966 8.76562 12.0985 8.79514C11.8003 8.82466 11.5047 8.71896 11.2928 8.50711L11.0252 8.23952Z" fill="black"/>
</svg>
