<?xml version="1.0" standalone="no"?>
<!DOCTYPE svg PUBLIC "-//W3C//DTD SVG 1.1//EN" "http://www.w3.org/Graphics/SVG/1.1/DTD/svg11.dtd" >
<svg xmlns="http://www.w3.org/2000/svg">
<metadata>Generated by IcoMoon</metadata>
<defs>
<font id="lucide" horiz-adv-x="1024">
<font-face units-per-em="1024" ascent="960" descent="-64" />
<missing-glyph horiz-adv-x="1024" />
<glyph unicode="&#x20;" horiz-adv-x="512" d="" />
<glyph unicode="&#xe900;" glyph-name="lucide_map_pin_off" d="M502.673 668.102c5.858 22.825 29.111 36.578 51.934 30.72 29.611-7.6 56.636-23.013 78.251-44.629s37.030-48.641 44.629-78.251c5.858-22.824-7.898-46.077-30.72-51.936s-46.076 7.898-51.934 30.721c-3.802 14.805-11.507 28.317-22.315 39.126s-24.32 18.514-39.125 22.314c-22.827 5.858-36.578 29.11-30.72 51.934zM256.125 763.265c19.346-13.454 24.123-40.043 10.67-59.389-34.81-50.057-53.466-109.568-53.461-170.539v-0.003c0-92.131 51.912-191.43 119.37-280.065 65.207-85.67 140.030-155.051 179.296-189.124 39.885 34.607 116.45 105.638 182.323 193.118 14.174 18.82 40.922 22.592 59.746 8.418s22.596-40.926 8.422-59.75c-72.311-96.026-155.614-172.612-196.966-208.316-0.725-0.627-1.472-1.229-2.24-1.805-14.788-11.119-32.785-17.131-51.285-17.131s-36.497 6.012-51.285 17.131c-0.768 0.576-1.515 1.178-2.24 1.805-40.756 35.191-122.139 109.986-193.674 203.977-70.546 92.689-136.799 210.837-136.8 331.742zM256.125 763.265c-19.346 13.453-45.935 8.676-59.389-10.67l59.389 10.67zM196.736 752.595c-44.755-64.358-68.741-140.871-68.736-219.261l68.736 219.261zM55.163 904.837c16.663 16.662 43.677 16.662 60.34 0l853.333-853.334c16.661-16.661 16.661-43.678 0-60.339s-43.678-16.661-60.339 0l-853.334 853.333c-16.662 16.663-16.662 43.677 0 60.34zM896.004 533.334c0.004 65.217-16.606 129.361-48.256 186.383s-77.303 105.044-132.655 139.537c-55.351 34.493-118.575 54.319-183.71 57.611s-130.034-10.060-188.58-38.797c-21.153-10.383-29.884-35.948-19.501-57.102s35.948-29.884 57.101-19.501c45.536 22.351 96.013 32.736 146.675 30.176zM527.078 831.64c50.658-2.56 99.831-17.981 142.882-44.809l-142.882 44.809zM669.961 786.831c43.051-26.828 78.562-64.177 103.177-108.529l-103.177 108.529zM773.137 678.303c24.619-44.351 37.534-94.241 37.534-144.966l-37.534 144.966zM810.671 533.337v0zM810.671 533.334c0-43.107-11.332-88.201-31.053-133.804l31.053 133.804zM896.004 533.333c0-57.843-15.125-114.637-38.067-167.68-9.353-21.628-34.47-31.578-56.098-22.221-21.628 9.353-31.578 34.47-22.221 56.098zM401.894 611.292c22.555-6.822 35.311-30.636 28.489-53.191-4.47-14.78-4.846-30.493-1.088-45.469 3.759-14.98 11.511-28.655 22.43-39.573 10.914-10.918 24.593-18.671 39.569-22.426 14.976-3.759 30.69-3.383 45.47 1.088 22.558 6.818 46.37-5.935 53.193-28.489 6.822-22.558-5.935-46.37-28.489-53.193-29.559-8.939-60.992-9.694-90.944-2.176s-57.304 23.019-79.141 44.855c-21.837 21.837-37.339 49.19-44.855 79.142s-6.764 61.383 2.175 90.942c6.822 22.555 30.636 35.31 53.191 28.489z" />
<glyph unicode="&#xe901;" glyph-name="lucide_swiss_franc" d="M384 832c0 23.564 19.103 42.667 42.667 42.667h341.333c23.565 0 42.667-19.103 42.667-42.667s-19.102-42.667-42.667-42.667h-298.667v-725.333c0-23.565-19.102-42.667-42.667-42.667s-42.667 19.102-42.667 42.667v768zM213.333 277.333c0 23.565 19.103 42.667 42.667 42.667h384c23.565 0 42.667-19.102 42.667-42.667s-19.102-42.667-42.667-42.667h-384c-23.564 0-42.667 19.102-42.667 42.667zM384 554.667c0 23.564 19.103 42.667 42.667 42.667h298.667c23.565 0 42.667-19.103 42.667-42.667s-19.102-42.667-42.667-42.667h-298.667c-23.564 0-42.667 19.102-42.667 42.667z" />
<glyph unicode="&#xe902;" glyph-name="lucide_alucidegn_vertical_space_between" d="M298.667 277.333c-23.564 0-42.667-19.102-42.667-42.667v-85.333c0-23.565 19.103-42.667 42.667-42.667h426.667c23.565 0 42.667 19.102 42.667 42.667v85.333c0 23.565-19.102 42.667-42.667 42.667h-426.667zM170.667 234.667c0 70.694 57.308 128 128 128h426.667c70.694 0 128-57.306 128-128v-85.333c0-70.694-57.306-128-128-128h-426.667c-70.692 0-128 57.306-128 128v85.333zM384 789.333c-23.564 0-42.667-19.103-42.667-42.667v-85.333c0-23.564 19.103-42.667 42.667-42.667h256c23.565 0 42.667 19.103 42.667 42.667v85.333c0 23.564-19.102 42.667-42.667 42.667h-256zM256 746.667c0 70.692 57.308 128 128 128h256c70.694 0 128-57.308 128-128v-85.333c0-70.692-57.306-128-128-128h-256c-70.692 0-128 57.308-128 128v85.333zM42.667 64c0 23.565 19.103 42.667 42.667 42.667h853.333c23.565 0 42.667-19.102 42.667-42.667s-19.102-42.667-42.667-42.667h-853.333c-23.564 0-42.667 19.102-42.667 42.667zM42.667 832c0 23.564 19.103 42.667 42.667 42.667h853.333c23.565 0 42.667-19.103 42.667-42.667s-19.102-42.667-42.667-42.667h-853.333c-23.564 0-42.667 19.103-42.667 42.667z" />
<glyph unicode="&#xe903;" glyph-name="lucide_between_vertical_start" d="M170.667 576v-469.333h213.333v469.333h-213.333zM85.333 576c0 47.128 38.205 85.333 85.333 85.333h213.333c47.13 0 85.333-38.205 85.333-85.333v-469.333c0-47.13-38.204-85.333-85.333-85.333h-213.333c-47.128 0-85.333 38.204-85.333 85.333v469.333zM353.83 904.837c16.663 16.662 43.677 16.662 60.34 0l97.83-97.83 97.83 97.83c16.661 16.662 43.678 16.662 60.339 0s16.661-43.677 0-60.34l-128-128c-16.661-16.662-43.678-16.662-60.339 0l-128 128c-16.662 16.663-16.662 43.677 0 60.34zM640 576v-469.333h213.333v469.333h-213.333zM554.667 576c0 47.128 38.204 85.333 85.333 85.333h213.333c47.13 0 85.333-38.205 85.333-85.333v-469.333c0-47.13-38.204-85.333-85.333-85.333h-213.333c-47.13 0-85.333 38.204-85.333 85.333v469.333z" />
<glyph unicode="&#xe904;" glyph-name="lucide_badge" d="M511.996 831.797c-21.483 0-42.624-5.409-61.47-15.728s-34.793-25.216-46.368-43.319c-9.669-15.121-27.767-22.575-45.281-18.649-21.029 4.715-42.909 4.043-63.609-1.952s-39.553-17.12-54.808-32.343c-15.255-15.223-26.419-34.052-32.458-54.74s-6.756-42.566-2.085-63.605c3.898-17.561-3.636-35.68-18.836-45.3-18.241-11.544-33.266-27.513-43.678-46.427-10.412-18.91-15.872-40.145-15.872-61.734 0-21.585 5.46-42.825 15.872-61.734s25.437-34.88 43.678-46.426c15.2-9.617 22.735-27.738 18.836-45.299-4.671-21.039-3.953-42.918 2.085-63.603 6.039-20.689 17.203-39.518 32.458-54.741s34.107-26.347 54.808-32.346c20.701-5.995 42.58-6.665 63.609-1.95 17.549 3.934 35.681-3.558 45.334-18.731 11.56-18.172 27.516-33.135 46.396-43.499 18.88-10.368 40.068-15.799 61.602-15.799 21.538 0 42.726 5.431 61.606 15.799 18.88 10.364 34.837 25.327 46.396 43.499 9.634 15.147 27.721 22.639 45.248 18.752 21.039-4.672 42.914-3.955 63.603 2.082 20.689 6.042 39.518 17.203 54.741 32.461 15.223 15.253 26.347 34.103 32.341 54.805s6.669 42.581 1.954 63.612c-3.93 17.51 3.524 35.61 18.645 45.278 18.103 11.575 33.003 27.52 43.319 46.366 10.321 18.846 15.731 39.987 15.731 61.474s-5.41 42.628-15.731 61.474c-10.317 18.846-25.216 34.792-43.319 46.367-15.125 9.674-22.579 27.785-18.641 45.306 4.736 21.062 4.066 42.978-1.941 63.712-6.012 20.733-17.169 39.61-32.431 54.875-15.266 15.264-34.142 26.42-54.874 32.43-20.736 6.010-42.654 6.678-63.714 1.943-17.519-3.939-35.631 3.514-45.308 18.643-11.571 18.102-27.52 33-46.366 43.319s-39.987 15.728-61.474 15.728zM409.542 890.917c31.409 17.199 66.644 26.214 102.454 26.214 35.814 0 71.049-9.015 102.46-26.214 23.002-12.595 43.409-29.282 60.267-49.163 26.129 2.275 52.54-0.282 77.888-7.63 34.56-10.016 66.018-28.61 91.46-54.050s44.032-56.902 54.050-91.459c7.347-25.35 9.903-51.76 7.629-77.891 19.883-16.855 36.57-37.265 49.165-60.268 17.199-31.409 26.214-66.647 26.214-102.457s-9.015-71.044-26.214-102.455c-12.599-23.006-29.291-43.422-49.178-60.279 2.257-26.078-0.299-52.433-7.625-77.734-9.993-34.5-28.535-65.92-53.905-91.345-25.374-25.425-56.755-44.032-91.234-54.097-25.28-7.377-51.631-9.988-77.713-7.787-16.862-19.989-37.312-36.77-60.373-49.434-31.467-17.276-66.782-26.33-102.677-26.33-35.891 0-71.206 9.054-102.671 26.33-23.048 12.655-43.483 29.419-60.339 49.387-26.057-2.244-52.39 0.311-77.669 7.633-34.501 9.993-65.921 28.531-91.346 53.905s-44.032 56.751-54.097 91.234c-7.373 25.259-9.986 51.584-7.795 77.645-20.067 16.862-36.92 37.333-49.641 60.437-17.353 31.518-26.452 66.914-26.452 102.891 0 35.981 9.1 71.373 26.452 102.892 12.721 23.105 29.574 43.575 49.641 60.438-2.191 26.060 0.422 52.385 7.795 77.646 10.064 34.48 28.672 65.861 54.097 91.233s56.845 43.913 91.346 53.905c25.3 7.327 51.655 9.883 77.734 7.627 16.857 19.886 37.271 36.578 60.279 49.175z" />
<glyph unicode="&#xe905;" glyph-name="lucide_biceps_flexed" d="M180.65 603.971c-43.256-136.886-49.945-303.687-52.276-420.333v-0.034c-0.241-11.584 4.206-19.234 9.207-22.95 40.711-30.131 101.481-54.635 175.545-71.462 73.492-16.695 157.237-25.19 241.542-25.19 200.269 0 341.333 123.895 341.333 256v0.021c0.017 39.279-13.513 77.359-38.31 107.823-24.794 30.46-59.337 51.439-97.801 59.392-38.468 7.953-78.498 2.394-113.34-15.74-18.654-9.707-35.213-22.699-48.956-38.212 24.316-8.631 47.258-20.915 68.015-36.493 18.846-14.144 22.66-40.887 8.516-59.733-14.144-18.85-40.887-22.66-59.738-8.516-20.599 15.458-44.429 26.052-69.705 30.993-5.585 1.088-11.209 1.899-16.849 2.423-1.25 0.047-2.505 0.154-3.759 0.311-18.662 1.327-37.461-0.418-55.642-5.21-24.905-6.571-47.998-18.688-67.552-35.447-8.73-7.484-16.654-15.808-23.667-24.828-0.574-0.802-1.157-1.596-1.749-2.385-0.4-0.533-0.811-1.054-1.231-1.566-7.393-10.099-13.676-21.013-18.712-32.559-9.422-21.602-34.569-31.471-56.168-22.050s-31.47 34.569-22.048 56.166c8.26 18.935 18.754 36.74 31.216 53.052 8.66 12.591 15.055 32.585 18.938 61.773 3.448 25.911 4.419 54.234 5.466 84.749 0.175 5.124 0.353 10.313 0.546 15.565 1.273 34.778 3.185 72.893 11.046 105.915 3.694 15.517 9.141 31.821 17.611 46.916-5.377 6.051-9.964 12.3-13.946 18.45-12.807 19.78-7.154 46.197 12.625 59.004s46.197 7.154 59.004-12.625c5.188-8.013 10.161-12.989 16.049-16.345 1.271-0.724 2.731-1.456 4.42-2.158 0.431-0.163 0.862-0.334 1.289-0.512 6.071-2.308 14.831-4.175 27.763-4.175 11.315 0 22.165 4.495 30.17 12.497 8 8.002 12.497 18.854 12.497 30.17 0 22.632-8.994 44.337-24.994 60.34-16.004 16.003-37.709 24.994-60.341 24.994-66.946 0-116.51-23.822-155.105-62.566-39.716-39.871-69.35-97.236-90.91-165.463zM436.988 621.373c10.142-1.807 20.915-2.706 32.346-2.706 33.946 0 66.505 13.486 90.509 37.49s37.491 56.562 37.491 90.51c0 45.264-17.984 88.673-49.988 120.68-32.009 32.006-75.418 49.987-120.681 49.987-90.345 0-161.463-33.367-215.562-87.677-52.977-53.184-88.047-124.739-111.82-199.973-47.409-150.028-53.905-328.307-56.225-444.322 0-0.009 0-0.013 0-0.017-0.689-33.626 12.355-69.986 43.692-93.235l0.033-0.021c53.923-39.919 127.416-67.93 207.439-86.11 80.608-18.313 170.795-27.311 260.446-27.311 226.385 0 426.65 143.531 426.667 341.312zM436.988 621.373c-3.341-5.662-6.635-13.833-9.455-25.69-5.631-23.652-7.482-53.665-8.785-89.277-0.175-4.791-0.341-9.685-0.509-14.66-0.681-20.156-1.405-41.604-3.015-62.69 10.218 4.173 20.722 7.689 31.449 10.517 18.633 4.911 37.7 7.689 56.836 8.32 24.269 42.133 60.156 76.672 103.65 99.302 52.262 27.197 112.307 35.534 170.005 23.605s109.513-43.394 146.705-89.085c37.193-45.692 57.485-102.805 57.463-161.715z" />
<glyph unicode="&#xe906;" glyph-name="lucide_save_all" d="M426.667 917.333c23.565 0 42.667-19.103 42.667-42.667v-128h213.333c23.565 0 42.667-19.103 42.667-42.667s-19.102-42.667-42.667-42.667h-213.333c-22.63 0-44.337 8.99-60.34 24.994s-24.994 37.708-24.994 60.34v128c0 23.564 19.103 42.667 42.667 42.667zM408.994 508.339c16.003 16.004 37.709 24.994 60.34 24.994h256c22.63 0 44.335-8.99 60.339-24.994s24.994-37.709 24.994-60.339v-256c0-23.565-19.102-42.667-42.667-42.667s-42.667 19.102-42.667 42.667v256h-256v-256c0-23.565-19.102-42.667-42.667-42.667s-42.667 19.102-42.667 42.667v256c0 22.63 8.99 44.335 24.994 60.339zM85.333 746.667c23.564 0 42.667-19.103 42.667-42.667v-597.333c0-11.315 4.495-22.17 12.497-30.17s18.854-12.497 30.17-12.497h597.333c23.565 0 42.667-19.102 42.667-42.667s-19.102-42.667-42.667-42.667h-597.333c-33.948 0-66.505 13.487-90.51 37.491s-37.49 56.563-37.49 90.509v597.333c0 23.564 19.103 42.667 42.667 42.667zM341.333 832h391.33c0.004 0 0.004 0 0.009 0 11.311-0.005 22.157-4.501 30.157-12.501l0.004-0.005 120.665-120.665c8-7.998 12.497-18.845 12.501-30.156 0-0.003 0-0.006 0-0.009v-391.33c0-5.623-1.109-11.187-3.268-16.38-2.159-5.188-5.321-9.903-9.306-13.867-3.981-3.964-8.713-7.104-13.914-9.233-5.201-2.133-10.773-3.217-16.393-3.187-0.073 0-0.141 0-0.213 0h-511.573c-11.316 0-22.168 4.497-30.17 12.497s-12.497 18.854-12.497 30.17v512c0 11.316 4.495 22.168 12.497 30.17s18.854 12.497 30.17 12.497zM823.172 879.834c-24 24.003-56.55 37.492-90.492 37.499h-391.347c-33.948 0-66.505-13.486-90.51-37.49s-37.49-56.562-37.49-90.51v-512c0-33.946 13.486-66.505 37.49-90.509s56.562-37.491 90.51-37.491h511.475c16.823-0.068 33.498 3.179 49.067 9.562 15.603 6.391 29.79 15.808 41.741 27.703 11.955 11.891 21.44 26.031 27.913 41.604 6.473 15.569 9.805 32.269 9.805 49.131v391.348c-0.009 33.945-13.5 66.497-37.504 90.496l-120.653 120.652c0 0.002-0.004 0.003-0.004 0.005z" />
<glyph unicode="&#xe907;" glyph-name="lucide_proportions" d="M170.667 746.667c-23.564 0-42.667-19.103-42.667-42.667v-512c0-23.565 19.103-42.667 42.667-42.667h682.667c23.565 0 42.667 19.102 42.667 42.667v512c0 23.564-19.102 42.667-42.667 42.667h-682.667zM42.667 704c0 70.692 57.308 128 128 128h682.667c70.694 0 128-57.308 128-128v-512c0-70.694-57.306-128-128-128h-682.667c-70.692 0-128 57.306-128 128v512zM512 618.667c23.565 0 42.667-19.103 42.667-42.667v-469.333c0-23.565-19.102-42.667-42.667-42.667s-42.667 19.102-42.667 42.667v469.333c0 23.564 19.102 42.667 42.667 42.667zM42.667 576c0 23.564 19.103 42.667 42.667 42.667h554.667c33.95 0 66.505-13.486 90.509-37.49s37.491-56.56 37.491-90.51v-384c0-23.565-19.102-42.667-42.667-42.667s-42.667 19.102-42.667 42.667v384c0 11.315-4.497 22.17-12.497 30.17s-18.854 12.497-30.17 12.497h-554.667c-23.564 0-42.667 19.103-42.667 42.667z" />
<glyph unicode="&#xe908;" glyph-name="lucide_user_round_x" d="M571.26 325.333c-45.47 25.156-96.717 38.016-148.678 37.303-51.96-0.708-102.836-14.963-147.601-41.357-44.765-26.389-81.868-64.004-107.645-109.129-25.777-45.12-39.336-96.188-39.336-148.151 0-23.565-19.102-42.667-42.667-42.667s-42.667 19.102-42.667 42.667c0 66.812 17.432 132.467 50.574 190.481s80.847 106.377 138.402 140.309c57.554 33.933 122.966 52.258 189.772 53.175 66.807 0.913 132.693-15.62 191.155-47.966 20.621-11.409 28.087-37.372 16.678-57.988-11.409-20.621-37.372-28.087-57.988-16.678zM426.667 789.333c-94.257 0-170.667-76.41-170.667-170.667 0-94.255 76.41-170.667 170.667-170.667 94.255 0 170.667 76.412 170.667 170.667 0 94.257-76.412 170.667-170.667 170.667zM170.667 618.667c0 141.385 114.615 256 256 256s256-114.615 256-256c0-141.385-114.615-256-256-256s-256 114.615-256 256zM695.164 264.836c16.661 16.661 43.678 16.661 60.339 0l213.333-213.333c16.661-16.661 16.661-43.678 0-60.339s-43.678-16.661-60.339 0l-213.333 213.333c-16.661 16.661-16.661 43.678 0 60.339zM968.836 264.836c16.661-16.661 16.661-43.678 0-60.339l-213.333-213.333c-16.661-16.661-43.678-16.661-60.339 0s-16.661 43.678 0 60.339l213.333 213.333c16.661 16.661 43.678 16.661 60.339 0z" />
<glyph unicode="&#xe909;" glyph-name="lucide_arrow_big_up" d="M481.83 776.837c16.661 16.662 43.678 16.662 60.339 0l298.667-298.667c12.203-12.203 15.855-30.554 9.25-46.498s-22.161-26.338-39.42-26.338h-128v-213.333c0-23.565-19.102-42.667-42.667-42.667h-255.999c-23.564 0-42.667 19.102-42.667 42.667v213.333h-128c-17.257 0-32.815 10.394-39.419 26.338s-2.954 34.295 9.249 46.498l298.666 298.667zM316.341 490.667h67.66c23.564 0 42.665-19.102 42.665-42.667v-213.333h170.667v213.333c0 23.565 19.102 42.667 42.667 42.667h67.661l-195.661 195.66-195.659-195.66z" />
<glyph unicode="&#xe90a;" glyph-name="lucide_chef_hat" d="M371.223 832.658c41.795 27.518 90.737 42.183 140.777 42.183s98.982-14.665 140.779-42.183c33.493-22.052 61.218-51.582 81.088-86.099 39.689-1.551 78.374-14.166 111.561-36.712 41.591-28.259 71.868-70.303 85.478-118.71s9.685-100.069-11.081-145.863c-20.766-45.781-57.033-82.761-102.4-104.414-2.961-1.429-4.988-3.29-6.037-4.723-0.495-0.683-0.67-1.101-0.721-1.276v-228.194c0-22.63-8.99-44.335-24.994-60.339-16-16.004-37.705-24.994-60.339-24.994h-426.666c-22.632 0-44.337 8.99-60.34 24.994s-24.994 37.709-24.994 60.339v228.215c-0.055 0.179-0.231 0.593-0.721 1.267-1.058 1.446-3.11 3.332-6.103 4.783-45.312 21.679-81.521 58.65-102.251 104.405-20.741 45.781-24.653 97.412-11.046 145.795s43.858 90.407 85.421 118.665c33.161 22.546 71.825 35.173 111.493 36.745 19.87 34.524 47.599 64.060 81.097 86.115zM213.356 334.78c-0.003 0-0.012 0.030-0.017 0.085 0.017-0.055 0.020-0.085 0.017-0.085zM810.65 334.767c-0.004 0 0 0.030 0.013 0.085-0.004-0.060-0.013-0.090-0.013-0.085zM512 789.508c-33.361 0-65.988-9.777-93.851-28.122s-49.739-44.454-62.922-75.099c-7.369-17.129-25.008-27.488-43.557-25.581-29.997 3.084-60.12-4.522-85.058-21.477s-43.089-42.17-51.253-71.199c-8.164-29.030-5.817-60.011 6.628-87.475 12.445-27.469 34.188-49.66 61.395-62.665 0.040-0.021 0.079-0.038 0.119-0.060 27.837-13.41 55.168-42.577 55.168-82.854v-228.309h426.666v228.267c0 40.294 27.307 69.5 55.245 82.893l0.073 0.034c27.23 12.992 48.998 35.183 61.457 62.66 12.463 27.477 14.818 58.472 6.652 87.517s-26.334 54.27-51.29 71.226c-24.956 16.955-55.1 24.55-85.107 21.444-18.56-1.92-36.215 8.44-43.588 25.579-13.184 30.645-35.059 56.754-62.921 75.099-27.866 18.345-60.493 28.122-93.854 28.122zM213.333 234.667c0 23.565 19.103 42.667 42.667 42.667h512c23.565 0 42.667-19.102 42.667-42.667s-19.102-42.667-42.667-42.667h-512c-23.564 0-42.667 19.102-42.667 42.667z" />
<glyph unicode="&#xe90b;" glyph-name="lucide_amphora" d="M426.667 917.333c23.565 0 42.667-19.103 42.667-42.667v-240.299c0-37.093-23.479-66.319-51.689-80.181-35.73-17.62-65.813-44.892-86.841-78.731-21.031-33.843-32.163-72.9-32.137-112.747 0.116-74.402 28.004-140.501 66.611-193.626 38.904-53.534 87.019-91.529 123.136-109.589 21.077-10.539 29.619-36.164 19.081-57.242s-36.164-29.619-57.242-19.081c-49.214 24.606-107.64 71.945-154.005 135.744-46.659 64.205-82.77 147.43-82.915 243.686v0.034c-0.041 55.787 15.545 110.473 44.991 157.858s71.576 85.575 121.615 110.243l0.067 0.033c1.819 0.893 3.011 2.068 3.604 2.935 0.26 0.38 0.358 0.618 0.39 0.725v240.235c0 23.564 19.103 42.667 42.667 42.667zM384.014 634.497c0.002 0 0-0.017-0.011-0.055 0.003 0.035 0.009 0.054 0.011 0.055zM250.824 751.843c24.005 24.005 56.562 37.49 90.51 37.49h85.333c23.565 0 42.667-19.103 42.667-42.667s-19.102-42.667-42.667-42.667h-85.333c-11.316 0-22.168-4.495-30.17-12.497s-12.497-18.854-12.497-30.17c0-11.316 4.495-22.168 12.497-30.17s18.854-12.497 30.17-12.497h29.013c23.564 0 42.667-19.103 42.667-42.667s-19.102-42.667-42.667-42.667h-29.013c-33.948 0-66.505 13.486-90.51 37.49s-37.49 56.562-37.49 90.51c0 33.948 13.486 66.505 37.49 90.51zM597.333 917.333c23.565 0 42.667-19.103 42.667-42.667v-240.237c0.030-0.108 0.128-0.351 0.397-0.741 0.597-0.876 1.792-2.051 3.593-2.938l0.021-0.009c50.048-24.661 92.186-62.848 121.643-110.234s45.047-102.076 45.013-157.871c-0.009-96.286-36.134-179.529-82.829-243.733-46.404-63.804-104.896-111.134-154.091-135.731-21.077-10.539-46.707-1.997-57.246 19.081-10.534 21.077-1.993 46.703 19.085 57.242 36.134 18.069 84.309 56.073 123.238 109.602 38.639 53.124 66.509 119.202 66.509 193.57v0.030c0.026 39.851-11.115 78.916-32.154 112.759-21.039 33.847-51.14 61.126-86.886 78.74-28.156 13.864-51.627 43.086-51.627 80.172v240.299c0 23.564 19.102 42.667 42.667 42.667zM639.987 634.495c0 0 0.004-0.019 0.009-0.054-0.009 0.037-0.013 0.055-0.009 0.054zM554.667 746.667c0 23.564 19.102 42.667 42.667 42.667h85.333c33.946 0 66.505-13.486 90.509-37.49s37.491-56.562 37.491-90.51c0-33.948-13.487-66.505-37.491-90.51s-56.559-37.49-90.509-37.49h-29.013c-23.565 0-42.667 19.103-42.667 42.667s19.102 42.667 42.667 42.667h29.013c11.315 0 22.17 4.495 30.17 12.497s12.497 18.854 12.497 30.17c0 11.316-4.497 22.168-12.497 30.17s-18.854 12.497-30.17 12.497h-85.333c-23.565 0-42.667 19.103-42.667 42.667zM213.333 21.333c0 23.565 19.103 42.667 42.667 42.667h512c23.565 0 42.667-19.102 42.667-42.667s-19.102-42.667-42.667-42.667h-512c-23.564 0-42.667 19.102-42.667 42.667zM341.333 874.667c0 23.564 19.103 42.667 42.667 42.667h256c23.565 0 42.667-19.103 42.667-42.667s-19.102-42.667-42.667-42.667h-256c-23.564 0-42.667 19.103-42.667 42.667z" />
<glyph unicode="&#xe90c;" glyph-name="lucide_receipt_text" d="M148.236 910.961c12.579 7.774 28.286 8.481 41.512 1.868l66.252-33.126 66.252 33.126c12.012 6.006 26.15 6.006 38.162 0l66.252-33.126 66.253 33.126c12.011 6.006 26.15 6.006 38.161 0l66.253-33.126 66.253 33.126c12.011 6.006 26.15 6.006 38.161 0l66.253-33.126 66.253 33.126c13.227 6.613 28.932 5.906 41.51-1.868s20.237-21.507 20.237-36.294v-853.333c0-14.788-7.659-28.518-20.237-36.297-12.578-7.774-28.284-8.478-41.51-1.865l-66.253 33.126-66.253-33.126c-12.011-6.007-26.15-6.007-38.161 0l-66.253 33.126-66.253-33.126c-12.011-6.007-26.15-6.007-38.161 0l-66.253 33.126-66.252-33.126c-12.012-6.007-26.15-6.007-38.162 0l-66.252 33.126-66.252-33.126c-13.226-6.613-28.933-5.909-41.512 1.865-12.579 7.778-20.236 21.508-20.236 36.297v853.333c0 14.787 7.657 28.52 20.236 36.294zM213.333 805.631v-715.263l23.586 11.793c12.012 6.007 26.15 6.007 38.162 0l66.252-33.126 66.252 33.126c12.012 6.007 26.151 6.007 38.161 0l66.253-33.126 66.253 33.126c12.011 6.007 26.15 6.007 38.161 0l66.253-33.126 66.253 33.126c12.011 6.007 26.15 6.007 38.161 0l23.586-11.793v715.263l-23.586-11.793c-12.011-6.006-26.15-6.006-38.161 0l-66.253 33.126-66.253-33.126c-12.011-6.006-26.15-6.006-38.161 0l-66.253 33.126-66.253-33.126c-12.011-6.006-26.15-6.006-38.161 0l-66.252 33.126-66.252-33.126c-12.012-6.006-26.15-6.006-38.162 0l-23.586 11.793zM298.667 618.667c0 23.564 19.103 42.667 42.667 42.667h256c23.565 0 42.667-19.103 42.667-42.667s-19.102-42.667-42.667-42.667h-256c-23.564 0-42.667 19.103-42.667 42.667zM298.667 448c0 23.565 19.103 42.667 42.667 42.667h341.333c23.565 0 42.667-19.102 42.667-42.667s-19.102-42.667-42.667-42.667h-341.333c-23.564 0-42.667 19.102-42.667 42.667zM298.667 277.333c0 23.565 19.103 42.667 42.667 42.667h213.333c23.565 0 42.667-19.102 42.667-42.667s-19.102-42.667-42.667-42.667h-213.333c-23.564 0-42.667 19.102-42.667 42.667z" />
<glyph unicode="&#xe90d;" glyph-name="lucide_octagon_pause" d="M426.667 618.667c23.565 0 42.667-19.103 42.667-42.667v-256c0-23.565-19.102-42.667-42.667-42.667s-42.667 19.102-42.667 42.667v256c0 23.564 19.103 42.667 42.667 42.667zM597.333 618.667c23.565 0 42.667-19.103 42.667-42.667v-256c0-23.565-19.102-42.667-42.667-42.667s-42.667 19.102-42.667 42.667v256c0 23.564 19.102 42.667 42.667 42.667zM298.961 904.837c8.002 8.001 18.854 12.497 30.17 12.497h365.739c11.315 0 22.17-4.495 30.17-12.497l243.797-243.797c8-8.002 12.497-18.854 12.497-30.17v-365.739c0-11.315-4.497-22.17-12.497-30.17l-243.797-243.797c-8-8-18.854-12.497-30.17-12.497h-365.739c-11.316 0-22.168 4.497-30.17 12.497l-243.797 243.797c-8.001 8-12.497 18.854-12.497 30.17v365.739c0 11.316 4.495 22.168 12.497 30.17l243.797 243.797zM346.804 832l-218.804-218.804v-330.393l218.804-218.803h330.393l218.803 218.803v330.393l-218.803 218.804h-330.393z" />
<glyph unicode="&#xe90e;" glyph-name="lucide_dribbble" d="M512 832c-212.077 0-384-171.923-384-384 0-212.079 171.923-384 384-384 212.079 0 384 171.921 384 384 0 212.077-171.921 384-384 384zM42.667 448c0 259.206 210.128 469.333 469.333 469.333 259.204 0 469.333-210.128 469.333-469.333 0-259.204-210.129-469.333-469.333-469.333-259.206 0-469.333 210.129-469.333 469.333zM845.85 773.521c16.951-16.367 17.429-43.377 1.062-60.33-178.517-184.905-415.377-241.071-748.163-262.545-23.515-1.515-43.808 16.32-45.325 39.834s16.316 43.808 39.831 45.325c328.546 21.196 537.124 75.963 692.265 236.657 16.367 16.953 43.379 17.428 60.331 1.061zM195.756 169.097c189.471 237.734 440.622 348.8 741.136 284.791 23.044-4.907 37.747-27.571 32.841-50.615-4.911-23.049-27.571-37.751-50.62-32.845-264.393 56.316-484.284-38.276-656.625-254.515-14.687-18.428-41.531-21.461-59.959-6.771-18.427 14.686-21.46 41.527-6.773 59.955zM340.108 877.155c19.048 13.873 45.735 9.678 59.608-9.37 93.998-129.059 159.862-232.176 212.927-348.66 52.992-116.326 92.463-244.335 135.398-422.515 5.521-22.912-8.576-45.956-31.484-51.477-22.912-5.521-45.956 8.576-51.477 31.484-42.398 175.953-80.367 297.971-130.095 407.134-49.655 109.013-111.791 206.855-204.246 333.797-13.873 19.048-9.678 45.735 9.369 59.608z" />
<glyph unicode="&#xe90f;" glyph-name="lucide_wifi" d="M469.333 106.667c0 23.565 19.102 42.667 42.667 42.667h0.427c23.565 0 42.667-19.102 42.667-42.667s-19.102-42.667-42.667-42.667h-0.427c-23.565 0-42.667 19.102-42.667 42.667zM512 703.979c-146.93 0-288.706-54.153-398.222-152.107-17.564-15.709-44.537-14.206-60.247 3.357s-14.206 44.537 3.357 60.246c125.161 111.947 287.191 173.837 455.111 173.837 167.919 0 329.95-61.89 455.113-173.837 17.562-15.709 19.068-42.683 3.358-60.246s-42.684-19.067-60.25-3.357c-109.513 97.954-251.29 152.107-398.221 152.107zM512 490.645c-100.513 0-197.019-39.411-268.8-109.769-16.828-16.495-43.842-16.226-60.337 0.602-16.495 16.832-16.225 43.844 0.603 60.339 87.732 85.995 205.684 134.161 328.533 134.161s240.802-48.167 328.533-134.161c16.828-16.495 17.097-43.507 0.602-60.339-16.495-16.828-43.507-17.097-60.335-0.602-71.782 70.357-168.286 109.769-268.8 109.769zM512 277.342c-44.672 0-87.564-17.515-119.467-48.785-16.828-16.495-43.842-16.226-60.337 0.606-16.495 16.828-16.225 43.84 0.603 60.335 47.854 46.908 112.192 73.178 179.2 73.178s131.345-26.27 179.2-73.178c16.828-16.495 17.097-43.507 0.602-60.335-16.495-16.832-43.507-17.101-60.335-0.606-31.902 31.27-74.795 48.785-119.467 48.785z" />
<glyph unicode="&#xe910;" glyph-name="lucide_blucidends" d="M85.333 832c0 23.564 19.103 42.667 42.667 42.667h768c23.565 0 42.667-19.103 42.667-42.667s-19.102-42.667-42.667-42.667h-768c-23.564 0-42.667 19.103-42.667 42.667zM298.667 661.333c0 23.564 19.103 42.667 42.667 42.667h512c23.565 0 42.667-19.103 42.667-42.667s-19.102-42.667-42.667-42.667h-512c-23.564 0-42.667 19.103-42.667 42.667zM298.667 490.667c0 23.565 19.103 42.667 42.667 42.667h512c23.565 0 42.667-19.102 42.667-42.667s-19.102-42.667-42.667-42.667h-512c-23.564 0-42.667 19.102-42.667 42.667zM384 149.333c0 23.565 19.103 42.667 42.667 42.667h426.667c23.565 0 42.667-19.102 42.667-42.667s-19.102-42.667-42.667-42.667h-426.667c-23.564 0-42.667 19.102-42.667 42.667zM298.667 320c0 23.565 19.103 42.667 42.667 42.667h512c23.565 0 42.667-19.102 42.667-42.667s-19.102-42.667-42.667-42.667h-512c-23.564 0-42.667 19.102-42.667 42.667zM170.667 874.667c23.564 0 42.667-19.103 42.667-42.667v-597.333c0-23.565-19.103-42.667-42.667-42.667s-42.667 19.102-42.667 42.667v597.333c0 23.564 19.103 42.667 42.667 42.667zM170.667 192c-23.564 0-42.667-19.102-42.667-42.667s19.103-42.667 42.667-42.667c23.564 0 42.667 19.102 42.667 42.667s-19.103 42.667-42.667 42.667zM42.667 149.333c0 70.694 57.308 128 128 128s128-57.306 128-128c0-70.694-57.308-128-128-128s-128 57.306-128 128z" />
<glyph unicode="&#xe911;" glyph-name="lucide_lucidest_music" d="M896 746.667c23.565 0 42.667-19.103 42.667-42.667v-384c0-23.565-19.102-42.667-42.667-42.667s-42.667 19.102-42.667 42.667v384c0 23.564 19.102 42.667 42.667 42.667zM683.738 404.262c28.006 28.006 65.988 43.738 105.596 43.738s77.589-15.731 105.596-43.738c28.006-28.006 43.738-65.988 43.738-105.596s-15.731-77.589-43.738-105.596c-28.006-28.006-65.988-43.738-105.596-43.738s-77.589 15.731-105.596 43.738c-28.006 28.006-43.738 65.988-43.738 105.596s15.731 77.589 43.738 105.596zM789.333 362.667c-16.973 0-33.254-6.741-45.257-18.743s-18.743-28.284-18.743-45.257c0-16.973 6.741-33.254 18.743-45.257s28.284-18.743 45.257-18.743c16.973 0 33.254 6.741 45.257 18.743s18.743 28.284 18.743 45.257c0 16.973-6.741 33.254-18.743 45.257s-28.284 18.743-45.257 18.743zM85.333 448c0 23.565 19.103 42.667 42.667 42.667h384c23.565 0 42.667-19.102 42.667-42.667s-19.102-42.667-42.667-42.667h-384c-23.564 0-42.667 19.102-42.667 42.667zM85.333 704c0 23.564 19.103 42.667 42.667 42.667h554.667c23.565 0 42.667-19.103 42.667-42.667s-19.102-42.667-42.667-42.667h-554.667c-23.564 0-42.667 19.103-42.667 42.667zM85.333 192c0 23.565 19.103 42.667 42.667 42.667h384c23.565 0 42.667-19.102 42.667-42.667s-19.102-42.667-42.667-42.667h-384c-23.564 0-42.667 19.102-42.667 42.667z" />
<glyph unicode="&#xe912;" glyph-name="lucide_square_parking_off" d="M212.73 874.662c0.202 0.003 0.405 0.004 0.608 0.004h597.333c33.946 0 66.505-13.486 90.509-37.49s37.491-56.562 37.491-90.51v-597.333c0-0.060 0-0.119 0-0.179-0.145-33.894-13.722-66.347-37.76-90.24-16.713-16.614-43.729-16.533-60.339 0.179-16.614 16.713-16.533 43.729 0.179 60.339 7.996 7.949 12.518 18.735 12.587 30.007v597.227c0 11.316-4.497 22.168-12.497 30.17s-18.854 12.497-30.17 12.497h-596.977c-11.162-0.225-21.796-4.817-29.615-12.796-16.492-16.83-43.506-17.105-60.337-0.612s-17.105 43.506-0.612 60.337c23.633 24.117 55.837 37.919 89.6 38.4zM128 631.469c23.564 0 42.667-19.103 42.667-42.667v-439.469c0-11.315 4.495-22.165 12.497-30.17 8.002-8 18.854-12.497 30.17-12.497h439.467c23.565 0 42.667-19.102 42.667-42.667 0-23.561-19.102-42.667-42.667-42.667h-439.467c-33.948 0-66.505 13.487-90.51 37.491s-37.49 56.563-37.49 90.509v439.469c0 23.564 19.103 42.667 42.667 42.667zM55.163 904.837c16.663 16.662 43.677 16.662 60.34 0l853.333-853.334c16.661-16.661 16.661-43.678 0-60.339s-43.678-16.661-60.339 0l-853.334 853.333c-16.662 16.663-16.662 43.677 0 60.34zM341.333 661.333c0 23.564 19.103 42.667 42.667 42.667h170.667c45.265 0 88.674-17.981 120.678-49.987 32.009-32.006 49.988-75.416 49.988-120.68 0-45.265-17.98-88.674-49.988-120.678-32.004-32.009-75.413-49.988-120.678-49.988-23.565 0-42.667 19.102-42.667 42.667s19.102 42.667 42.667 42.667c22.63 0 44.335 8.99 60.339 24.994s24.994 37.709 24.994 60.339c0 22.632-8.99 44.337-24.994 60.34s-37.709 24.994-60.339 24.994h-128v-42.667c0-23.564-19.103-42.667-42.667-42.667s-42.667 19.103-42.667 42.667v85.333zM384 375.467c23.564 0 42.667-19.102 42.667-42.667v-98.133c0-23.561-19.103-42.667-42.667-42.667s-42.667 19.106-42.667 42.667v98.133c0 23.565 19.103 42.667 42.667 42.667z" />
<glyph unicode="&#xe913;" glyph-name="lucide_a_arrow_up" d="M277.332 704c16.161 0 30.935-9.131 38.162-23.586l127.616-255.232c0.277-0.525 0.542-1.058 0.798-1.591l63.586-127.177c10.539-21.077 1.997-46.703-19.081-57.242s-46.707-1.997-57.246 19.081l-52.205 104.414h-203.261l-52.207-104.414c-10.538-21.077-36.167-29.619-57.243-19.081s-29.619 36.164-19.081 57.242l63.587 127.172c0.255 0.538 0.521 1.071 0.797 1.596l127.616 255.232c7.227 14.455 22.001 23.586 38.162 23.586zM218.368 448h117.928l-58.964 117.928-58.964-117.928zM737.83 691.503c16.661 16.662 43.678 16.662 60.339 0l170.667-170.667c16.661-16.661 16.661-43.678 0-60.339s-43.678-16.661-60.339 0l-97.83 97.83v-280.994c0-23.565-19.102-42.667-42.667-42.667s-42.667 19.102-42.667 42.667v280.994l-97.83-97.83c-16.661-16.661-43.678-16.661-60.339 0-16.666 16.661-16.666 43.678 0 60.339l170.667 170.667z" />
<glyph unicode="&#xe914;" glyph-name="lucide_droplet" d="M512 874.667c20.339 0 37.85-14.356 41.839-34.299 19.285-96.422 77.662-190.129 155.482-252.384 92.996-74.397 144.013-166.838 144.013-267.984 0-90.526-35.964-177.348-99.972-241.361-64.013-64.009-150.835-99.972-241.361-99.972-90.527 0-177.347 35.964-241.359 99.972-64.013 64.013-99.974 150.835-99.974 241.361 0 101.146 51.016 193.587 144.013 267.984 77.819 62.255 136.196 155.962 155.482 252.384 3.989 19.943 21.5 34.299 41.839 34.299zM512 701.723c-34.372-69.83-84.407-132.688-144.013-180.375-77.669-62.135-111.987-131.827-111.987-201.348 0-67.895 26.971-133.009 74.981-181.018 48.009-48.013 113.124-74.982 181.019-74.982s133.009 26.97 181.018 74.982c48.013 48.009 74.982 113.122 74.982 181.018 0 69.521-34.317 139.213-111.987 201.348-59.605 47.686-109.641 110.545-144.013 180.375z" />
<glyph unicode="&#xe915;" glyph-name="lucide_banknote" d="M170.667 661.333c-23.564 0-42.667-19.103-42.667-42.667v-341.333c0-23.565 19.103-42.667 42.667-42.667h682.667c23.565 0 42.667 19.102 42.667 42.667v341.333c0 23.564-19.102 42.667-42.667 42.667h-682.667zM42.667 618.667c0 70.692 57.308 128 128 128h682.667c70.694 0 128-57.308 128-128v-341.333c0-70.694-57.306-128-128-128h-682.667c-70.692 0-128 57.306-128 128v341.333zM512 490.667c-23.565 0-42.667-19.102-42.667-42.667s19.102-42.667 42.667-42.667c23.565 0 42.667 19.102 42.667 42.667s-19.102 42.667-42.667 42.667zM384 448c0 70.694 57.306 128 128 128s128-57.306 128-128c0-70.694-57.306-128-128-128s-128 57.306-128 128zM213.333 448c0 23.565 19.103 42.667 42.667 42.667h0.427c23.564 0 42.667-19.102 42.667-42.667s-19.103-42.667-42.667-42.667h-0.427c-23.564 0-42.667 19.102-42.667 42.667zM725.333 448c0 23.565 19.102 42.667 42.667 42.667h0.427c23.565 0 42.667-19.102 42.667-42.667s-19.102-42.667-42.667-42.667h-0.427c-23.565 0-42.667 19.102-42.667 42.667z" />
<glyph unicode="&#xe916;" glyph-name="lucide_eclucidepse" d="M512 832c-212.077 0-384-171.923-384-384 0-212.079 171.923-384 384-384 212.079 0 384 171.921 384 384 0 212.077-171.921 384-384 384zM42.667 448c0 259.206 210.128 469.333 469.333 469.333 259.204 0 469.333-210.128 469.333-469.333 0-259.204-210.129-469.333-469.333-469.333-259.206 0-469.333 210.129-469.333 469.333zM542.17 904.837c16.666-16.663 16.666-43.677 0-60.34-48.576-48.578-75.866-114.464-75.866-183.163s27.29-134.583 75.866-183.164c48.58-48.576 114.466-75.87 183.164-75.87 68.702 0 134.588 27.294 183.164 75.87 16.661 16.661 43.678 16.661 60.339 0 16.666-16.661 16.666-43.678 0-60.339-64.58-64.58-152.171-100.864-243.503-100.864s-178.923 36.284-243.503 100.864c-64.58 64.58-100.861 152.172-100.861 243.503s36.281 178.922 100.861 243.503c16.661 16.662 43.678 16.662 60.339 0z" />
<glyph unicode="&#xe917;" glyph-name="lucide_search" d="M469.333 789.333c-164.949 0-298.667-133.718-298.667-298.667s133.718-298.667 298.667-298.667c164.949 0 298.667 133.717 298.667 298.667s-133.717 298.667-298.667 298.667zM85.333 490.667c0 212.077 171.923 384 384 384 212.079 0 384-171.923 384-384 0-212.079-171.921-384-384-384-212.077 0-384 171.921-384 384zM682.359 277.641c16.666 16.661 43.678 16.661 60.343 0l183.467-183.467c16.661-16.666 16.661-43.678 0-60.343-16.666-16.661-43.678-16.661-60.343 0l-183.467 183.467c-16.661 16.666-16.661 43.678 0 60.343z" />
<glyph unicode="&#xe918;" glyph-name="lucide_croissant" d="M539.959 475.802c29.338-29.026 33.664-59.11 24.405-75.661l-137.442-247.991c-0.004-0.009-0.009-0.013-0.013-0.021-6.332-11.375-13.263-15.996-19.86-18.197-7.56-2.522-18.819-3.136-34.475 0.853-32.060 8.166-71.577 32.943-106.462 67.703-34.906 34.786-59.647 74.061-67.669 105.907-3.907 15.509-3.235 26.701-0.624 34.308 2.306 6.72 7.192 13.969 19.162 20.638 0.009 0.004 0.018 0.009 0.026 0.013l247.017 136.947c15.872 8.819 46.447 4.676 75.934-24.499zM638.874 358.549c36.745 65.775 2.257 137.195-38.895 177.912-41.011 40.576-112.606 74.404-177.364 38.452-0.004-0.003-0.009-0.005-0.013-0.008-0.007-0.003-0.013-0.007-0.020-0.011l-247.065-136.974c-28.651-15.94-48.639-39.049-58.41-67.516-9.467-27.584-8.072-56.418-1.412-82.859 13.111-52.045 48.876-104.341 90.184-145.506 41.329-41.182 93.731-76.727 145.632-89.95 26.324-6.703 55.055-8.277 82.537 0.887 28.442 9.485 51.597 29.193 67.452 57.694l137.331 247.795c0.013 0.030 0.030 0.055 0.043 0.081zM82.558 714.194c30.155 27.497 71.257 32.473 109.442 32.473h149.333c26.665 0 49.795-8.41 68.357-24.92 17.071-15.183 27.537-34.83 34.922-52.706l42.487-97.299c9.434-21.595-0.431-46.745-22.025-56.175-21.594-9.434-46.746 0.431-56.176 22.025l-42.667 97.707c-0.124 0.284-0.245 0.57-0.363 0.857-5.405 13.151-9.839 19.115-12.893 21.831-1.705 1.516-4.175 3.347-11.643 3.347h-149.333c-34.775 0-47.007-5.691-51.945-10.194-3.969-3.619-11.917-14.666-12.053-52.81 3.328-66.246 29.555-129.29 74.217-178.353 15.862-17.429 14.595-44.412-2.831-60.275s-44.411-14.596-60.273 2.833c-58.265 64.009-92.36 146.347-96.401 232.807-0.031 0.663-0.047 1.328-0.047 1.992 0 46.385 8.802 88.511 39.892 116.861zM178.699 893.817c21.689 15.337 47.757 23.517 77.301 23.517 32.114 0 59.959-9.007 81.623-27.813 20.998-18.227 32.015-42.055 38.046-64.156 9.551-35.002 8.927-76.894 8.489-106.25-0.082-5.525-0.158-10.607-0.158-15.115 0-23.564-19.103-42.667-42.667-42.667s-42.667 19.103-42.667 42.667c0 6.956 0.072 13.787 0.142 20.474 0.31 29.53 0.59 56.242-5.463 78.428-3.356 12.299-7.698 18.738-11.661 22.178-3.296 2.861-10.012 6.921-25.684 6.921-13.123 0-21.721-3.394-28.032-7.857-6.73-4.759-13.225-12.456-18.929-24.187-11.874-24.421-17.038-59.546-17.038-95.956 0-23.564-19.103-42.667-42.667-42.667s-42.667 19.103-42.667 42.667c0 41.67 5.502 91.878 25.629 133.27 10.296 21.175 25.134 41.506 46.403 56.547zM579.563 401.075c9.429 21.594 34.581 31.454 56.175 22.025l97.301-42.487c17.873-7.386 37.521-17.852 52.706-34.923 16.508-18.56 24.917-41.694 24.917-68.356v-149.333c0-38.187-4.975-79.287-32.469-109.44-28.352-31.091-70.477-39.893-116.864-39.893-0.661 0-1.327 0.017-1.993 0.047-86.46 4.041-168.798 38.135-232.807 96.401-17.426 15.863-18.694 42.846-2.831 60.271 15.863 17.429 42.849 18.697 60.274 2.833 49.062-44.663 112.111-70.891 178.355-74.219 38.144 0.137 49.19 8.085 52.809 12.053 4.501 4.941 10.193 17.169 10.193 51.947v149.333c0 7.467-1.83 9.937-3.345 11.644-2.718 3.051-8.683 7.488-21.833 12.894-0.286 0.115-0.572 0.235-0.858 0.363l-97.707 42.667c-21.594 9.429-31.454 34.577-22.025 56.175zM788.476 234.807c-6.69-0.068-13.521-0.141-20.476-0.141-23.565 0-42.667 19.102-42.667 42.667s19.102 42.667 42.667 42.667c4.51 0 9.587 0.077 15.117 0.158 29.355 0.439 71.245 1.062 106.249-8.486 22.101-6.033 45.926-17.050 64.154-38.046 18.807-21.666 27.814-49.51 27.814-81.626 0-29.542-8.179-55.612-23.518-77.299-15.040-21.269-35.371-36.109-56.546-46.404-41.391-20.126-91.601-25.63-133.269-25.63-23.565 0-42.667 19.102-42.667 42.667s19.102 42.667 42.667 42.667c36.412 0 71.535 5.167 95.957 17.041 11.729 5.7 19.426 12.198 24.188 18.927 4.463 6.31 7.855 14.912 7.855 28.032 0 15.671-4.058 22.387-6.921 25.685-3.439 3.964-9.877 8.303-22.178 11.661-22.187 6.054-48.896 5.773-78.426 5.461z" />
<glyph unicode="&#xe919;" glyph-name="lucide_award" d="M652.885 452.036c23.202 4.122 45.355-11.345 49.476-34.547l64.64-363.776c0.013-0.068 0.026-0.141 0.034-0.209 0.009-0.047 0.017-0.094 0.026-0.145 2.172-12.851 0.371-26.057-5.167-37.854s-14.545-21.623-25.818-28.169c-11.273-6.541-24.273-9.481-37.265-8.435-12.604 1.015-24.619 5.743-34.526 13.572l-152.137 114.189-152.419-114.167c-9.9-7.808-21.894-12.527-34.479-13.542-12.975-1.050-25.962 1.882-37.227 8.405s-20.273 16.324-25.823 28.1c-5.55 11.776-7.377 24.964-5.238 37.803 0.025 0.149 0.051 0.299 0.077 0.448l64.597 363.776c4.12 23.202 26.268 38.669 49.469 34.551 23.201-4.122 38.669-26.27 34.549-49.472l-55.107-310.327 110.527 82.786c14.746 11.017 32.661 16.973 51.072 16.973s36.322-5.956 51.072-16.973l110.259-82.756-55.138 310.293c-4.122 23.202 11.345 45.35 34.543 49.476zM512 832c-117.821 0-213.333-95.513-213.333-213.333s95.513-213.333 213.333-213.333c117.82 0 213.333 95.514 213.333 213.333s-95.514 213.333-213.333 213.333zM213.333 618.667c0 164.949 133.718 298.667 298.667 298.667s298.667-133.718 298.667-298.667c0-164.949-133.717-298.667-298.667-298.667s-298.667 133.717-298.667 298.667z" />
<glyph unicode="&#xe91a;" glyph-name="lucide_alucidegn_start_horizontal" d="M42.667 874.667c0 23.564 19.103 42.667 42.667 42.667h853.333c23.565 0 42.667-19.103 42.667-42.667s-19.102-42.667-42.667-42.667h-853.333c-23.564 0-42.667 19.103-42.667 42.667zM256 661.333c-23.564 0-42.667-19.103-42.667-42.667v-512c0-23.565 19.103-42.667 42.667-42.667h85.333c23.564 0 42.667 19.102 42.667 42.667v512c0 23.564-19.103 42.667-42.667 42.667h-85.333zM128 618.667c0 70.692 57.308 128 128 128h85.333c70.692 0 128-57.308 128-128v-512c0-70.694-57.308-128-128-128h-85.333c-70.692 0-128 57.306-128 128v512zM682.667 661.333c-23.565 0-42.667-19.103-42.667-42.667v-213.333c0-23.565 19.102-42.667 42.667-42.667h85.333c23.565 0 42.667 19.102 42.667 42.667v213.333c0 23.564-19.102 42.667-42.667 42.667h-85.333zM554.667 618.667c0 70.692 57.306 128 128 128h85.333c70.694 0 128-57.308 128-128v-213.333c0-70.694-57.306-128-128-128h-85.333c-70.694 0-128 57.306-128 128v213.333z" />
<glyph unicode="&#xe91b;" glyph-name="lucide_pilcrow" d="M554.667 832c23.565 0 42.667-19.103 42.667-42.667v-682.667c0-23.565-19.102-42.667-42.667-42.667s-42.667 19.102-42.667 42.667v682.667c0 23.564 19.102 42.667 42.667 42.667zM725.333 832c23.565 0 42.667-19.103 42.667-42.667v-682.667c0-23.565-19.102-42.667-42.667-42.667s-42.667 19.102-42.667 42.667v682.667c0 23.564 19.102 42.667 42.667 42.667zM239.399 763.268c44.009 44.009 103.697 68.732 165.935 68.732h405.333c23.565 0 42.667-19.103 42.667-42.667s-19.102-42.667-42.667-42.667h-405.333c-39.606 0-77.589-15.733-105.594-43.739s-43.739-65.989-43.739-105.594c0-39.606 15.733-77.589 43.739-105.596s65.989-43.738 105.594-43.738h149.333c23.565 0 42.667-19.102 42.667-42.667s-19.102-42.667-42.667-42.667h-149.333c-62.237 0-121.926 24.725-165.935 68.732-44.009 44.011-68.732 103.697-68.732 165.935s24.724 121.926 68.732 165.935z" />
<glyph unicode="&#xe91c;" glyph-name="lucide_gem" d="M220.499 855.667c7.913 11.87 21.235 18.999 35.501 18.999h512c14.268 0 27.588-7.13 35.503-18.999l170.667-256c10.138-15.211 9.463-35.191-1.685-49.681l-426.667-554.666c-8.077-10.5-20.57-16.653-33.818-16.653s-25.741 6.153-33.818 16.653l-426.668 554.666c-11.146 14.49-11.823 34.471-1.682 49.681l170.667 256zM278.834 789.333l-141.038-211.557 374.203-486.465 374.204 486.465-141.039 211.557h-466.33zM512 831.077c0.128-6.123 1.583-12.315 4.506-18.157l120.354-240.71-124.86-405.793-124.859 405.793 120.354 240.71c2.923 5.842 4.378 12.034 4.506 18.157zM512 832.859c-0.32 15.329-8.917 29.971-23.586 37.304-21.077 10.538-46.703 1.996-57.242-19.081l-128.001-256c-4.907-9.814-5.844-21.141-2.618-31.629l170.666-554.668c5.508-17.903 22.050-30.118 40.781-30.118s35.273 12.215 40.781 30.118l170.667 554.668c3.226 10.487 2.287 21.815-2.62 31.629l-128 256c-10.539 21.076-36.164 29.619-57.242 19.081-14.669-7.333-23.266-21.975-23.586-37.304zM42.667 576c0 23.564 19.103 42.667 42.667 42.667h853.333c23.565 0 42.667-19.103 42.667-42.667s-19.102-42.667-42.667-42.667h-853.333c-23.564 0-42.667 19.103-42.667 42.667z" />
<glyph unicode="&#xe91d;" glyph-name="lucide_file_down" d="M165.49 879.843c24.005 24.005 56.562 37.49 90.51 37.49h384c11.315 0 22.17-4.495 30.17-12.497l213.333-213.333c8-8.002 12.497-18.854 12.497-30.17v-554.667c0-33.95-13.487-66.505-37.491-90.509s-56.559-37.491-90.509-37.491h-512c-33.948 0-66.505 13.487-90.51 37.491s-37.49 56.563-37.49 90.509v682.667c0 33.948 13.486 66.505 37.49 90.51zM256 832c-11.316 0-22.168-4.495-30.17-12.497s-12.497-18.854-12.497-30.17v-682.667c0-11.315 4.495-22.17 12.497-30.17s18.854-12.497 30.17-12.497h512c11.315 0 22.17 4.497 30.17 12.497s12.497 18.854 12.497 30.17v536.994l-188.339 188.34h-366.327zM597.333 917.333c23.565 0 42.667-19.103 42.667-42.667v-170.667c0-11.316 4.497-22.168 12.497-30.17s18.854-12.497 30.17-12.497h170.667c23.565 0 42.667-19.103 42.667-42.667s-19.102-42.667-42.667-42.667h-170.667c-33.946 0-66.505 13.486-90.509 37.49s-37.491 56.562-37.491 90.51v170.667c0 23.564 19.102 42.667 42.667 42.667zM512 490.667c23.565 0 42.667-19.102 42.667-42.667v-256c0-23.565-19.102-42.667-42.667-42.667s-42.667 19.102-42.667 42.667v256c0 23.565 19.102 42.667 42.667 42.667zM353.83 350.17c16.663 16.661 43.677 16.661 60.34 0l97.83-97.83 97.83 97.83c16.661 16.661 43.678 16.661 60.339 0s16.661-43.678 0-60.339l-128-128c-16.661-16.661-43.678-16.661-60.339 0l-128 128c-16.662 16.661-16.662 43.678 0 60.339z" />
<glyph unicode="&#xe91e;" glyph-name="lucide_info" d="M512 832c-212.077 0-384-171.923-384-384 0-212.079 171.923-384 384-384 212.079 0 384 171.921 384 384 0 212.077-171.921 384-384 384zM42.667 448c0 259.206 210.128 469.333 469.333 469.333 259.204 0 469.333-210.128 469.333-469.333 0-259.204-210.129-469.333-469.333-469.333-259.206 0-469.333 210.129-469.333 469.333zM512 490.667c23.565 0 42.667-19.102 42.667-42.667v-170.667c0-23.565-19.102-42.667-42.667-42.667s-42.667 19.102-42.667 42.667v170.667c0 23.565 19.102 42.667 42.667 42.667zM469.333 618.667c0 23.564 19.102 42.667 42.667 42.667h0.427c23.565 0 42.667-19.103 42.667-42.667s-19.102-42.667-42.667-42.667h-0.427c-23.565 0-42.667 19.103-42.667 42.667z" />
<glyph unicode="&#xe91f;" glyph-name="lucide_remove_formatting" d="M128 789.333c0 23.564 19.103 42.667 42.667 42.667h682.667c23.565 0 42.667-19.103 42.667-42.667v-128c0-23.564-19.102-42.667-42.667-42.667s-42.667 19.103-42.667 42.667v85.333h-597.333v-85.333c0-23.564-19.103-42.667-42.667-42.667s-42.667 19.103-42.667 42.667v128zM170.667 106.667c0 23.565 19.103 42.667 42.667 42.667h256c23.565 0 42.667-19.102 42.667-42.667s-19.102-42.667-42.667-42.667h-256c-23.564 0-42.667 19.102-42.667 42.667zM567.394 830.057c22.49-7.029 35.025-30.959 27.998-53.451l-213.333-682.667c-7.028-22.49-30.959-35.025-53.451-27.998s-35.027 30.959-27.998 53.453l213.332 682.665c7.031 22.492 30.963 35.027 53.453 27.998zM609.83 350.17c16.661 16.661 43.678 16.661 60.339 0l213.333-213.333c16.661-16.661 16.661-43.678 0-60.339s-43.678-16.661-60.339 0l-213.333 213.333c-16.661 16.661-16.661 43.678 0 60.339zM883.503 350.17c16.661-16.661 16.661-43.678 0-60.339l-213.333-213.333c-16.661-16.661-43.678-16.661-60.339 0s-16.661 43.678 0 60.339l213.333 213.333c16.661 16.661 43.678 16.661 60.339 0z" />
<glyph unicode="&#xe920;" glyph-name="lucide_lollucidepop" d="M469.333 789.333c-164.949 0-298.667-133.718-298.667-298.667s133.718-298.667 298.667-298.667c164.949 0 298.667 133.717 298.667 298.667s-133.717 298.667-298.667 298.667zM85.333 490.667c0 212.077 171.923 384 384 384 212.079 0 384-171.923 384-384 0-212.079-171.921-384-384-384-212.077 0-384 171.921-384 384zM682.359 277.641c16.666 16.661 43.678 16.661 60.343 0l183.467-183.467c16.661-16.666 16.661-43.678 0-60.343-16.666-16.661-43.678-16.661-60.343 0l-183.467 183.467c-16.661 16.666-16.661 43.678 0 60.343zM318.484 641.516c40.008 40.008 94.27 62.484 150.849 62.484s110.844-22.476 150.848-62.484c40.009-40.008 62.485-94.27 62.485-150.849 0-33.95-13.487-66.505-37.491-90.509s-56.559-37.491-90.509-37.491c-33.95 0-66.505 13.487-90.509 37.491s-37.491 56.559-37.491 90.509c0 23.565 19.102 42.667 42.667 42.667s42.667-19.102 42.667-42.667c0-11.315 4.497-22.17 12.497-30.17s18.854-12.497 30.17-12.497c11.315 0 22.17 4.497 30.17 12.497s12.497 18.854 12.497 30.17c0 33.95-13.487 66.505-37.491 90.51s-56.563 37.49-90.509 37.49c-33.95 0-66.505-13.486-90.51-37.49s-37.49-56.56-37.49-90.51c0-56.58 22.476-110.844 62.484-150.848 40.006-40.009 94.269-62.485 150.849-62.485s110.844 22.477 150.848 62.485c40.009 40.004 62.485 94.268 62.485 150.848 0 23.565 19.102 42.667 42.667 42.667s42.667-19.102 42.667-42.667c0-79.211-31.467-155.179-87.479-211.187-56.009-56.013-131.977-87.479-211.187-87.479s-155.178 31.467-211.189 87.479c-56.011 56.009-87.477 131.977-87.477 211.187 0 56.579 22.476 110.842 62.484 150.849z" />
<glyph unicode="&#xe921;" glyph-name="lucide_bus" d="M341.333 746.667c23.564 0 42.667-19.103 42.667-42.667v-256c0-23.565-19.103-42.667-42.667-42.667s-42.667 19.102-42.667 42.667v256c0 23.564 19.103 42.667 42.667 42.667zM640 746.667c23.565 0 42.667-19.103 42.667-42.667v-256c0-23.565-19.102-42.667-42.667-42.667s-42.667 19.102-42.667 42.667v256c0 23.564 19.102 42.667 42.667 42.667zM42.667 448c0 23.565 19.103 42.667 42.667 42.667h836.267c23.565 0 42.667-19.102 42.667-42.667s-19.102-42.667-42.667-42.667h-836.267c-23.564 0-42.667 19.102-42.667 42.667zM80.157 709.176c24.005 24.005 56.562 37.49 90.51 37.49h597.333c66.701 0 125.325-47.395 143.266-107.206 0.077-0.251 0.149-0.503 0.222-0.756l59.733-213.335c0.107-0.384 0.209-0.768 0.303-1.156 0.145-0.58 0.294-1.165 0.444-1.762 3.985-15.91 9.365-37.389 9.365-59.785s-5.38-43.874-9.365-59.785c-0.149-0.597-0.299-1.182-0.444-1.762-0.047-0.205-0.102-0.405-0.154-0.61-0.026-0.090-0.051-0.179-0.073-0.269-6.49-23.791-15.095-53.909-22.042-77.948-3.482-12.049-6.558-22.622-8.768-30.187-0.631-2.167-1.195-4.083-1.673-5.722-0.358-1.225-0.67-2.287-0.93-3.179-0.307-1.045-0.546-1.852-0.704-2.402l-0.23-0.785-0.013-0.043-0.004-0.013c0-0.004 0-0.004-40.934 12.036l40.934-12.041c-5.342-18.155-22.007-30.626-40.934-30.626h-128c-23.565 0-42.667 19.102-42.667 42.667s19.102 42.667 42.667 42.667h96.004c1.037 3.575 2.133 7.36 3.273 11.307 6.878 23.812 15.275 53.205 21.572 76.284 4.454 17.818 7.151 29.602 7.151 40.41 0 10.782-2.684 22.528-7.117 40.273l-59.447 212.321c-7.782 25.376-34.385 46.073-61.436 46.073h-597.333c-11.316 0-22.168-4.495-30.17-12.497s-12.497-18.854-12.497-30.17v-384h85.333c23.564 0 42.667-19.102 42.667-42.667s-19.103-42.667-42.667-42.667h-128c-23.564 0-42.667 19.102-42.667 42.667v426.667c0 33.948 13.486 66.505 37.49 90.51zM298.667 234.667c-23.564 0-42.667-19.102-42.667-42.667s19.103-42.667 42.667-42.667c23.564 0 42.667 19.102 42.667 42.667s-19.103 42.667-42.667 42.667zM170.667 192c0 70.694 57.308 128 128 128s128-57.306 128-128c0-70.694-57.308-128-128-128s-128 57.306-128 128zM341.333 192c0 23.565 19.103 42.667 42.667 42.667h213.333c23.565 0 42.667-19.102 42.667-42.667s-19.102-42.667-42.667-42.667h-213.333c-23.564 0-42.667 19.102-42.667 42.667zM682.667 234.667c-23.565 0-42.667-19.102-42.667-42.667s19.102-42.667 42.667-42.667c23.565 0 42.667 19.102 42.667 42.667s-19.102 42.667-42.667 42.667zM554.667 192c0 70.694 57.306 128 128 128s128-57.306 128-128c0-70.694-57.306-128-128-128s-128 57.306-128 128z" />
<glyph unicode="&#xe922;" glyph-name="lucide_signpost_big" d="M140.497 776.837c8.002 8.001 18.854 12.497 30.17 12.497h256c23.565 0 42.667-19.103 42.667-42.667s-19.102-42.667-42.667-42.667h-238.327l-42.667-42.667 42.667-42.667h238.327c23.565 0 42.667-19.103 42.667-42.667s-19.102-42.667-42.667-42.667h-256c-11.316 0-22.168 4.495-30.17 12.497l-85.333 85.333c-16.662 16.663-16.662 43.677 0 60.34l85.333 85.333zM554.667 746.667c0 23.564 19.102 42.667 42.667 42.667h256c11.315 0 22.17-4.495 30.17-12.497l85.333-85.333c16.661-16.663 16.661-43.677 0-60.34l-85.333-85.333c-8-8.001-18.854-12.497-30.17-12.497h-256c-23.565 0-42.667 19.103-42.667 42.667s19.102 42.667 42.667 42.667h238.327l42.667 42.667-42.667 42.667h-238.327c-23.565 0-42.667 19.103-42.667 42.667zM512 832c-11.315 0-22.17-4.495-30.17-12.497s-12.497-18.854-12.497-30.17v-768c0-23.565-19.102-42.667-42.667-42.667s-42.667 19.102-42.667 42.667v768c0 33.948 13.486 66.505 37.49 90.51s56.564 37.49 90.51 37.49c33.946 0 66.505-13.486 90.509-37.49s37.491-56.562 37.491-90.51v-768c0-23.565-19.102-42.667-42.667-42.667s-42.667 19.102-42.667 42.667v768c0 11.316-4.497 22.168-12.497 30.17s-18.854 12.497-30.17 12.497zM298.667 21.333c0 23.565 19.103 42.667 42.667 42.667h341.333c23.565 0 42.667-19.102 42.667-42.667s-19.102-42.667-42.667-42.667h-341.333c-23.564 0-42.667 19.102-42.667 42.667z" />
<glyph unicode="&#xe923;" glyph-name="lucide_arrow_down_up" d="M97.83 307.503c16.663 16.661 43.677 16.661 60.34 0l140.497-140.497 140.497 140.497c16.661 16.661 43.678 16.661 60.339 0s16.661-43.678 0-60.339l-170.666-170.667c-16.663-16.661-43.677-16.661-60.34 0l-170.667 170.667c-16.662 16.661-16.662 43.678 0 60.339zM298.667 832c23.564 0 42.667-19.103 42.667-42.667v-682.667c0-23.565-19.103-42.667-42.667-42.667s-42.667 19.102-42.667 42.667v682.667c0 23.564 19.103 42.667 42.667 42.667zM695.164 819.503c16.661 16.662 43.678 16.662 60.339 0l170.667-170.667c16.661-16.663 16.661-43.677 0-60.34s-43.678-16.662-60.339 0l-140.497 140.497-140.497-140.497c-16.661-16.662-43.678-16.662-60.339 0s-16.661 43.677 0 60.34l170.667 170.667zM725.333 832c23.565 0 42.667-19.103 42.667-42.667v-682.667c0-23.565-19.102-42.667-42.667-42.667s-42.667 19.102-42.667 42.667v682.667c0 23.564 19.102 42.667 42.667 42.667z" />
<glyph unicode="&#xe924;" glyph-name="lucide_currency" d="M512 746.667c-164.949 0-298.667-133.718-298.667-298.667s133.718-298.667 298.667-298.667c164.949 0 298.667 133.717 298.667 298.667s-133.717 298.667-298.667 298.667zM128 448c0 212.077 171.923 384 384 384 212.079 0 384-171.923 384-384 0-212.079-171.921-384-384-384-212.077 0-384 171.921-384 384zM97.83 862.17c16.663 16.662 43.677 16.662 60.34 0l128-128c16.662-16.663 16.662-43.677 0-60.34s-43.677-16.662-60.34 0l-128 128c-16.662 16.663-16.662 43.677 0 60.34zM926.17 862.17c16.661-16.663 16.661-43.677 0-60.34l-128-128c-16.661-16.662-43.678-16.662-60.339 0s-16.661 43.677 0 60.34l128 128c16.661 16.662 43.678 16.662 60.339 0zM286.17 222.17c16.662-16.661 16.662-43.678 0-60.339l-128-128c-16.663-16.661-43.677-16.661-60.34 0s-16.662 43.678 0 60.339l128 128c16.663 16.661 43.677 16.661 60.34 0zM737.83 222.17c16.661 16.661 43.678 16.661 60.339 0l128-128c16.661-16.661 16.661-43.678 0-60.339s-43.678-16.661-60.339 0l-128 128c-16.661 16.661-16.661 43.678 0 60.339z" />
<glyph unicode="&#xe925;" glyph-name="lucide_lucideghtbulb" d="M300.811 829.856c56.011 56.011 131.979 87.477 211.189 87.477s155.179-31.467 211.187-87.477c56.013-56.011 87.479-131.978 87.479-211.189 0-65.641-25.092-132.813-77.231-180.241-30.81-30.933-45.461-53.444-51.597-84.126-4.621-23.108-27.102-38.093-50.206-33.472-23.108 4.621-38.093 27.102-33.472 50.206 10.88 54.409 38.716 91.516 75.669 128.469 0.529 0.529 1.071 1.045 1.626 1.545 32.589 29.329 49.877 72.7 49.877 117.619 0 56.579-22.477 110.842-62.485 150.849-40.004 40.008-94.268 62.484-150.848 62.484s-110.842-22.476-150.849-62.484c-40.008-40.008-62.484-94.27-62.484-150.849 0-34.315 5.915-73.575 51.503-119.164 32.266-32.265 64.715-73.702 75.668-128.469 4.622-23.104-10.364-45.585-33.47-50.206s-45.585 10.364-50.206 33.472c-6.113 30.566-24.864 57.395-52.332 84.864-65.345 65.344-76.497 128.484-76.497 179.503 0 79.212 31.467 155.178 87.477 211.189zM341.333 192c0 23.565 19.103 42.667 42.667 42.667h256c23.565 0 42.667-19.102 42.667-42.667s-19.102-42.667-42.667-42.667h-256c-23.564 0-42.667 19.102-42.667 42.667zM384 21.333c0 23.565 19.103 42.667 42.667 42.667h170.667c23.565 0 42.667-19.102 42.667-42.667s-19.102-42.667-42.667-42.667h-170.667c-23.564 0-42.667 19.102-42.667 42.667z" />
<glyph unicode="&#xe926;" glyph-name="lucide_eraser" d="M638.153 773.59c-20.612 22.902-56.247 25.309-83.183-1.627l-409.601-409.599c-0.529-0.529-1.071-1.045-1.627-1.545-22.902-20.612-25.31-56.247 1.627-83.183l183.467-183.467c16.662-16.661 16.662-43.678 0-60.339-16.663-16.666-43.677-16.666-60.34 0l-183.467 183.467c-58.115 58.112-60.78 149.871 0.727 206.131l408.874 408.874c58.112 58.115 149.871 60.78 206.131-0.727l238.208-238.206c58.112-58.114 60.779-149.87-0.73-206.135l-353.404-353.404c-16.666-16.666-43.678-16.666-60.339 0-16.666 16.661-16.666 43.678 0 60.339l354.133 354.133c0.525 0.529 1.071 1.041 1.626 1.545 22.903 20.612 25.31 56.243-1.626 83.183l-238.933 238.932c-0.529 0.529-1.045 1.071-1.545 1.627zM256 64c0 23.565 19.103 42.667 42.667 42.667h640c23.565 0 42.667-19.102 42.667-42.667s-19.102-42.667-42.667-42.667h-640c-23.564 0-42.667 19.102-42.667 42.667zM183.163 520.836c16.663 16.663 43.677 16.663 60.34 0l384-384c16.661-16.661 16.661-43.678 0-60.339s-43.678-16.661-60.339 0l-384 384c-16.662 16.661-16.662 43.678 0 60.339z" />
<glyph unicode="&#xe927;" glyph-name="lucide_id_card" d="M640 533.333c0 23.564 19.102 42.667 42.667 42.667h85.333c23.565 0 42.667-19.103 42.667-42.667s-19.102-42.667-42.667-42.667h-85.333c-23.565 0-42.667 19.102-42.667 42.667zM640 362.667c0 23.565 19.102 42.667 42.667 42.667h85.333c23.565 0 42.667-19.102 42.667-42.667s-19.102-42.667-42.667-42.667h-85.333c-23.565 0-42.667 19.102-42.667 42.667zM384.008 362.859c-17.669 0-34.903-5.483-49.322-15.697s-25.312-24.649-31.176-41.318c-7.82-22.229-32.179-33.911-54.408-26.091s-33.91 32.179-26.090 54.409c11.727 33.335 33.513 62.212 62.351 82.637s63.305 31.394 98.644 31.394c35.339 0 69.807-10.97 98.646-31.394s50.624-49.301 62.349-82.637c7.821-22.229-3.861-46.588-26.091-54.409-22.225-7.821-46.588 3.861-54.404 26.091-5.867 16.67-16.759 31.104-31.177 41.318-14.42 10.214-31.654 15.697-49.323 15.697zM384 533.333c-23.564 0-42.667-19.102-42.667-42.667s19.103-42.667 42.667-42.667c23.564 0 42.667 19.102 42.667 42.667s-19.103 42.667-42.667 42.667zM256 490.667c0 70.692 57.308 128 128 128 70.694 0 128-57.308 128-128 0-70.694-57.306-128-128-128-70.692 0-128 57.306-128 128zM170.667 704c-23.564 0-42.667-19.103-42.667-42.667v-426.667c0-23.565 19.103-42.667 42.667-42.667h682.667c23.565 0 42.667 19.102 42.667 42.667v426.667c0 23.564-19.102 42.667-42.667 42.667h-682.667zM42.667 661.333c0 70.692 57.308 128 128 128h682.667c70.694 0 128-57.308 128-128v-426.667c0-70.694-57.306-128-128-128h-682.667c-70.692 0-128 57.306-128 128v426.667z" />
<glyph unicode="&#xe928;" glyph-name="lucide_credit_card" d="M170.667 704c-23.564 0-42.667-19.103-42.667-42.667v-426.667c0-23.565 19.103-42.667 42.667-42.667h682.667c23.565 0 42.667 19.102 42.667 42.667v426.667c0 23.564-19.102 42.667-42.667 42.667h-682.667zM42.667 661.333c0 70.692 57.308 128 128 128h682.667c70.694 0 128-57.308 128-128v-426.667c0-70.694-57.306-128-128-128h-682.667c-70.692 0-128 57.306-128 128v426.667zM42.667 533.333c0 23.564 19.103 42.667 42.667 42.667h853.333c23.565 0 42.667-19.103 42.667-42.667s-19.102-42.667-42.667-42.667h-853.333c-23.564 0-42.667 19.102-42.667 42.667z" />
<glyph unicode="&#xe929;" glyph-name="lucide_crosshair" d="M512 832c-212.077 0-384-171.923-384-384 0-212.079 171.923-384 384-384 212.079 0 384 171.921 384 384 0 212.077-171.921 384-384 384zM42.667 448c0 259.206 210.128 469.333 469.333 469.333 259.204 0 469.333-210.128 469.333-469.333 0-259.204-210.129-469.333-469.333-469.333-259.206 0-469.333 210.129-469.333 469.333zM725.333 448c0 23.565 19.102 42.667 42.667 42.667h170.667c23.565 0 42.667-19.102 42.667-42.667s-19.102-42.667-42.667-42.667h-170.667c-23.565 0-42.667 19.102-42.667 42.667zM42.667 448c0 23.565 19.103 42.667 42.667 42.667h170.667c23.564 0 42.667-19.102 42.667-42.667s-19.103-42.667-42.667-42.667h-170.667c-23.564 0-42.667 19.102-42.667 42.667zM512 917.333c23.565 0 42.667-19.103 42.667-42.667v-170.667c0-23.564-19.102-42.667-42.667-42.667s-42.667 19.103-42.667 42.667v170.667c0 23.564 19.102 42.667 42.667 42.667zM512 234.667c23.565 0 42.667-19.102 42.667-42.667v-170.667c0-23.565-19.102-42.667-42.667-42.667s-42.667 19.102-42.667 42.667v170.667c0 23.565 19.102 42.667 42.667 42.667z" />
<glyph unicode="&#xe92a;" glyph-name="lucide_alucidegn_horizontal_justify_end" d="M938.667 917.333c23.565 0 42.667-19.103 42.667-42.667v-853.333c0-23.565-19.102-42.667-42.667-42.667s-42.667 19.102-42.667 42.667v853.333c0 23.564 19.102 42.667 42.667 42.667zM170.667 704c-23.564 0-42.667-19.102-42.667-42.667v-426.667c0-23.565 19.103-42.667 42.667-42.667h85.333c23.564 0 42.667 19.102 42.667 42.667v426.667c0 23.564-19.103 42.667-42.667 42.667h-85.333zM42.667 661.333c0 70.692 57.308 128 128 128h85.333c70.692 0 128-57.308 128-128v-426.667c0-70.694-57.308-128-128-128h-85.333c-70.692 0-128 57.306-128 128v426.667zM597.333 618.667c-23.565 0-42.667-19.103-42.667-42.667v-256c0-23.565 19.102-42.667 42.667-42.667h85.333c23.565 0 42.667 19.102 42.667 42.667v256c0 23.564-19.102 42.667-42.667 42.667h-85.333zM469.333 576c0 70.692 57.306 128 128 128h85.333c70.694 0 128-57.308 128-128v-256c0-70.694-57.306-128-128-128h-85.333c-70.694 0-128 57.306-128 128v256z" />
<glyph unicode="&#xe92b;" glyph-name="lucide_egg" d="M511.522 917.331c0.32 0.003 0.64 0.003 0.96 0 96.947-1.093 184.047-76.15 245.35-162.497 62.835-88.498 108.279-201.913 116.693-303.305 8.346-99.968-5.5-215.778-60.156-308.595-56.286-95.569-153.988-163.076-302.025-164.267-0.226 0-0.457 0-0.683 0-148.038 1.19-245.742 68.698-302.025 164.267-54.66 92.817-68.501 208.627-60.156 308.595 0 0.004 0.001 0.009 0.001 0.009 0 0.004 0.001 0.009 0.001 0.013 8.416 101.389 53.861 214.793 116.689 303.284 61.306 86.347 148.403 161.404 245.349 162.497zM335.753 705.433c-55.461-78.115-94.28-177.181-101.229-260.962l-0.002-0.021c-7.437-89.041 5.817-185.489 48.646-258.21 41.171-69.914 111.263-121.195 228.836-122.24 117.572 1.045 187.665 52.326 228.834 122.24 42.829 72.721 56.085 169.169 48.644 258.21v0.021c-6.95 83.78-45.769 182.846-101.231 260.962-56.819 80.030-121.826 125.687-176.247 126.563-54.426-0.876-119.43-46.533-176.251-126.563z" />
<glyph unicode="&#xe92c;" glyph-name="lucide_waypoints" d="M512 832c-35.345 0-64-28.654-64-64s28.655-64 64-64c35.345 0 64 28.654 64 64s-28.655 64-64 64zM362.667 768c0 82.475 66.859 149.333 149.333 149.333s149.333-66.859 149.333-149.333c0-82.475-66.859-149.333-149.333-149.333s-149.333 66.859-149.333 149.333zM465.374 721.368c16.661-16.663 16.661-43.677 0-60.34l-166.402-166.402c-16.663-16.661-43.677-16.661-60.34 0-16.662 16.666-16.662 43.679 0 60.342l166.4 166.4c16.663 16.662 43.676 16.662 60.342 0zM192 512c-35.346 0-64-28.655-64-64s28.654-64 64-64c35.346 0 64 28.655 64 64s-28.654 64-64 64zM42.667 448c0 82.475 66.859 149.333 149.333 149.333s149.333-66.859 149.333-149.333c0-82.475-66.859-149.333-149.333-149.333s-149.333 66.859-149.333 149.333zM256 448c0 23.565 19.103 42.667 42.667 42.667h426.667c23.565 0 42.667-19.102 42.667-42.667s-19.102-42.667-42.667-42.667h-426.667c-23.564 0-42.667 19.102-42.667 42.667zM832 512c-35.345 0-64-28.655-64-64s28.655-64 64-64c35.345 0 64 28.655 64 64s-28.655 64-64 64zM682.667 448c0 82.475 66.859 149.333 149.333 149.333s149.333-66.859 149.333-149.333c0-82.475-66.859-149.333-149.333-149.333s-149.333 66.859-149.333 149.333zM785.374 401.37c16.661-16.666 16.661-43.678 0-60.343l-166.4-166.4c-16.666-16.661-43.678-16.661-60.343 0-16.661 16.666-16.661 43.678 0 60.343l166.4 166.4c16.666 16.661 43.678 16.661 60.343 0zM512 192c-35.345 0-64-28.655-64-64s28.655-64 64-64c35.345 0 64 28.655 64 64s-28.655 64-64 64zM362.667 128c0 82.475 66.859 149.333 149.333 149.333s149.333-66.859 149.333-149.333c0-82.475-66.859-149.333-149.333-149.333s-149.333 66.859-149.333 149.333z" />
<glyph unicode="&#xe92d;" glyph-name="lucide_wifi_off" d="M469.333 106.667c0 23.565 19.102 42.667 42.667 42.667h0.427c23.565 0 42.667-19.102 42.667-42.667s-19.102-42.667-42.667-42.667h-0.427c-23.565 0-42.667 19.102-42.667 42.667zM512 277.342c-44.672 0-87.564-17.515-119.467-48.785-16.828-16.495-43.842-16.226-60.337 0.606-16.495 16.828-16.225 43.84 0.603 60.335 47.854 46.908 112.192 73.178 179.2 73.178s131.345-26.27 179.2-73.178c16.828-16.495 17.097-43.507 0.602-60.335-16.495-16.832-43.507-17.101-60.335-0.606-31.902 31.27-74.795 48.785-119.467 48.785zM475.866 533.937c4.314-23.166-10.97-45.443-34.138-49.756-74.962-13.956-144.074-49.916-198.526-103.296-16.827-16.495-43.841-16.226-60.337 0.602s-16.227 43.84 0.6 60.335c66.553 65.242 151.023 109.193 242.645 126.252 23.165 4.313 45.442-10.97 49.755-34.136zM688.073 497.63c11.767 20.416 37.854 27.43 58.27 15.663 34.287-19.759 65.937-43.776 94.195-71.479 16.828-16.495 17.097-43.507 0.602-60.335s-43.511-17.097-60.335-0.602c-23.125 22.665-49.020 42.317-77.069 58.483-20.42 11.767-27.43 37.854-15.663 58.27zM302.874 713.009c9.147-21.716-1.043-46.736-22.76-55.883-60.884-25.644-117.094-61.21-166.337-105.25-17.565-15.709-44.538-14.204-60.246 3.361s-14.204 44.538 3.36 60.246c56.279 50.332 120.518 90.979 190.1 120.286 21.716 9.146 46.736-1.044 55.883-22.76zM453.38 786.78c92.787 7.998 186.227-3.073 274.577-32.533s169.737-76.685 239.151-138.771c17.566-15.709 19.068-42.682 3.358-60.247-15.706-17.564-42.679-19.068-60.245-3.359-60.74 54.325-131.951 95.647-209.259 121.425-77.303 25.777-159.066 35.465-240.252 28.466-23.479-2.024-44.151 15.367-46.175 38.845s15.366 44.15 38.845 46.173zM55.163 904.837c16.663 16.662 43.677 16.662 60.34 0l853.333-853.334c16.661-16.661 16.661-43.678 0-60.339s-43.678-16.661-60.339 0l-853.334 853.333c-16.662 16.663-16.662 43.677 0 60.34z" />
<glyph unicode="&#xe92e;" glyph-name="lucide_crown" d="M479.437 865.46c-9.86-5.828-17.98-14.196-23.505-24.23-0.124-0.231-0.252-0.463-0.375-0.696l-125.702-238.675-181.861 155.832c-0.277 0.237-0.557 0.471-0.84 0.701-10.509 8.547-23.459 13.54-36.987 14.259s-26.934-2.873-38.289-10.258c-11.356-7.386-20.076-18.184-24.904-30.841s-5.516-26.519-1.964-39.592c0.017-0.061 0.034-0.123 0.051-0.184l120.868-437.098c0.001-0.004 0.002-0.009 0.003-0.013s0.002-0.004 0.003-0.009c4.943-17.894 15.588-33.694 30.32-44.992 14.739-11.302 32.763-17.489 51.337-17.621 0.099 0 0.198 0 0.298 0h528.254c0.115 0 0.23 0 0.341 0 18.56 0.149 36.565 6.345 51.285 17.647 14.724 11.302 25.357 27.098 30.293 44.988l120.909 437.138c0.021 0.062 0.038 0.125 0.051 0.187 3.554 13.073 2.867 26.935-1.963 39.591-4.826 12.657-13.547 23.456-24.905 30.841-11.354 7.386-24.759 10.977-38.289 10.258-13.525-0.719-26.475-5.711-36.988-14.259-0.282-0.229-0.559-0.462-0.836-0.698l-181.905-155.835-125.705 238.635c-0.124 0.233-0.247 0.464-0.375 0.694-5.521 10.034-13.641 18.402-23.501 24.23s-21.107 8.902-32.563 8.902c-11.452 0-22.699-3.074-32.559-8.902zM512 764.577l106.889-202.915c0.081-0.154 0.162-0.308 0.247-0.461 6.003-11.073 14.391-20.678 24.55-28.128s21.841-12.553 34.21-14.955c12.365-2.398 25.109-2.027 37.316 1.084s23.578 8.887 33.289 16.911c0.192 0.161 0.384 0.323 0.576 0.487l128.994 110.506-102.263-369.731h-527.62l-102.225 369.679 128.95-110.494c0.193-0.165 0.387-0.329 0.583-0.491 9.711-8.024 21.078-13.801 33.286-16.911s24.952-3.482 37.319-1.084c12.367 2.402 24.050 7.509 34.209 14.955 10.16 7.45 18.544 17.056 24.551 28.128 0.084 0.154 0.166 0.308 0.247 0.463l106.892 202.955zM170.667 64c0 23.565 19.103 42.667 42.667 42.667h597.333c23.565 0 42.667-19.102 42.667-42.667s-19.102-42.667-42.667-42.667h-597.333c-23.564 0-42.667 19.102-42.667 42.667z" />
<glyph unicode="&#xe92f;" glyph-name="lucide_book_marked" d="M426.667 917.333c23.565 0 42.667-19.103 42.667-42.667v-238.327l55.164 55.164c16.661 16.662 43.678 16.662 60.339 0l55.164-55.164v238.327c0 23.564 19.102 42.667 42.667 42.667s42.667-19.103 42.667-42.667v-341.333c0-17.259-10.394-32.815-26.338-39.42s-34.295-2.953-46.498 9.25l-97.83 97.83-97.83-97.83c-12.203-12.203-30.554-15.855-46.497-9.25s-26.339 22.161-26.339 39.42v341.333c0 23.564 19.103 42.667 42.667 42.667zM277.333 832h533.333v-554.667h-533.333c-22.351 0-44.184-5.009-64-14.409v505.075c0 16.974 6.743 33.253 18.745 45.255s28.281 18.745 45.255 18.745zM896 832c0 22.632-8.99 44.337-24.994 60.34s-37.709 24.994-60.339 24.994h-533.333c-39.606 0-77.589-15.733-105.594-43.739s-43.739-65.989-43.739-105.594v-640c0-39.607 15.733-77.589 43.739-105.596 28.005-28.002 65.989-43.738 105.594-43.738h533.333c22.63 0 44.335 8.99 60.339 24.994s24.994 37.709 24.994 60.339v768zM810.667 192v-128h-533.333c-16.974 0-33.253 6.741-45.255 18.743s-18.745 28.284-18.745 45.257c0 16.973 6.743 33.254 18.745 45.257s28.281 18.743 45.255 18.743h533.333z" />
<glyph unicode="&#xe930;" glyph-name="lucide_donut" d="M366.822 895.123c99.465 31.999 206.763 29.893 304.896-5.985 11.767-4.303 21.047-13.559 25.382-25.315 4.331-11.756 3.281-24.822-2.88-35.732-7.181-12.723-10.884-27.113-10.743-41.723 0.145-14.61 4.134-28.924 11.567-41.503 7.437-12.579 18.048-22.978 30.775-30.152s27.123-10.871 41.732-10.717c0.149 0.002 0.299 0.003 0.448 0.003h4.267c12.813 0 24.947-5.759 33.054-15.685 8.102-9.926 11.315-22.969 8.751-35.523-1.882-9.195-1.715-18.69 0.486-27.813 2.197-9.123 6.379-17.652 12.241-24.98s13.265-13.277 21.683-17.426c8.29-4.087 17.37-6.328 26.607-6.571 12.604 0.079 24.137 3.652 27.11 5.633 11.631 7.754 26.321 9.319 39.326 4.189 13.001-5.13 22.669-16.304 25.873-29.91 23.945-101.703 13.274-208.489-30.336-303.444-43.605-94.95-117.649-172.634-210.398-220.745s-198.899-63.898-301.636-44.855c-102.736 19.042-196.18 71.821-265.528 149.973s-110.633 177.212-117.316 281.485c-6.682 104.273 21.621 207.791 80.425 294.157s144.747 150.641 244.212 182.64zM601.647 821.382c-68.651 16.764-140.894 14.319-208.691-7.492-81.38-26.181-151.697-78.769-199.81-149.433s-71.27-155.363-65.803-240.675c5.467-85.312 39.247-166.362 95.985-230.306s133.193-107.127 217.251-122.705c84.053-15.578 170.906-2.662 246.793 36.702 75.887 39.36 136.469 102.921 172.143 180.608 29.338 63.876 40.457 134.302 32.593 203.575-6.221-0.687-12.126-0.99-17.442-0.99-0.282 0-0.563 0-0.845 0.009-21.892 0.431-43.422 5.675-63.066 15.351-19.639 9.681-36.911 23.565-50.594 40.663-13.679 17.099-23.428 36.998-28.561 58.285-1.442 5.972-2.509 12.012-3.2 18.086-15.509 3.616-30.49 9.428-44.484 17.314-25.779 14.533-47.279 35.599-62.336 61.078s-23.138 54.475-23.433 84.069c-0.119 12.094 1.067 24.114 3.499 35.859zM512 533.333c-47.13 0-85.333-38.204-85.333-85.333s38.204-85.333 85.333-85.333c47.13 0 85.333 38.204 85.333 85.333s-38.204 85.333-85.333 85.333zM341.333 448c0 94.257 76.41 170.667 170.667 170.667 94.255 0 170.667-76.41 170.667-170.667 0-94.255-76.412-170.667-170.667-170.667-94.257 0-170.667 76.412-170.667 170.667z" />
<glyph unicode="&#xe931;" glyph-name="lucide_alucidegn_horizontal_distribute_center" d="M298.667 917.333c23.564 0 42.667-19.103 42.667-42.667v-85.333c70.692 0 128-57.308 128-128v-426.667c0-70.694-57.308-128-128-128v-85.333c0-23.565-19.103-42.667-42.667-42.667s-42.667 19.102-42.667 42.667v85.333c-70.692 0-128 57.306-128 128v426.667c0 70.692 57.308 128 128 128v85.333c0 23.564 19.103 42.667 42.667 42.667zM256 704c-23.564 0-42.667-19.102-42.667-42.667v-426.667c0-23.565 19.103-42.667 42.667-42.667h85.333c23.564 0 42.667 19.102 42.667 42.667v426.667c0 23.564-19.103 42.667-42.667 42.667h-85.333zM725.333 917.333c23.565 0 42.667-19.103 42.667-42.667v-170.667c70.694 0 128-57.308 128-128v-256c0-70.694-57.306-128-128-128v-170.667c0-23.565-19.102-42.667-42.667-42.667s-42.667 19.102-42.667 42.667v170.667c-70.694 0-128 57.306-128 128v256c0 70.692 57.306 128 128 128v170.667c0 23.564 19.102 42.667 42.667 42.667zM682.667 618.667c-23.565 0-42.667-19.103-42.667-42.667v-256c0-23.565 19.102-42.667 42.667-42.667h85.333c23.565 0 42.667 19.102 42.667 42.667v256c0 23.564-19.102 42.667-42.667 42.667h-85.333z" />
<glyph unicode="&#xe932;" glyph-name="lucide_subscript" d="M140.497 776.837c16.663 16.662 43.677 16.662 60.34 0l341.333-341.334c16.661-16.661 16.661-43.678 0-60.339s-43.678-16.661-60.339 0l-341.334 341.333c-16.662 16.663-16.662 43.677 0 60.34zM542.17 776.837c16.661-16.663 16.661-43.677 0-60.34l-341.333-341.333c-16.663-16.661-43.677-16.661-60.34 0s-16.662 43.678 0 60.339l341.334 341.334c16.661 16.662 43.678 16.662 60.339 0zM700.070 473.617c26.475 14.972 57.289 20.39 87.283 15.351 29.995-5.035 57.348-20.224 77.483-43.021 0.115-0.132 0.235-0.269 0.35-0.405 19.887-23.091 30.814-52.595 30.814-82.88 0-46.178-25.762-78.507-52.292-99.857-24.764-19.921-54.98-34.159-76.442-44.271-0.811-0.38-1.609-0.755-2.398-1.126-20.45-9.647-27.571-16.094-31.334-21.914-0.636-0.99-1.293-2.138-1.941-3.499h121.741c23.565 0 42.667-19.102 42.667-42.667s-19.102-42.667-42.667-42.667h-170.667c-23.565 0-42.667 19.102-42.667 42.667 0 35.379 5.018 66.428 21.879 92.501 16.93 26.185 41.813 41.071 66.586 52.753 23.659 11.162 45.423 21.572 61.751 34.709 15.492 12.467 20.45 22.801 20.45 33.37 0 9.741-3.516 19.405-9.971 26.999-7.168 8.026-16.858 13.372-27.473 15.151-10.675 1.792-21.641-0.124-31.070-5.431-9.165-5.261-15.945-13.457-19.285-22.852-7.893-22.204-32.29-33.801-54.494-25.907s-33.801 32.294-25.907 54.494c10.304 28.979 30.801 53.188 57.434 68.407 0.055 0.030 0.111 0.064 0.171 0.094z" />
<glyph unicode="&#xe933;" glyph-name="lucide_book_a" d="M277.333 832h533.333v-554.667h-533.333c-22.351 0-44.184-5.009-64-14.409v505.075c0 16.974 6.743 33.253 18.745 45.255s28.281 18.745 45.255 18.745zM896 832c0 22.632-8.99 44.337-24.994 60.34s-37.709 24.994-60.339 24.994h-533.333c-39.606 0-77.589-15.733-105.594-43.739s-43.739-65.989-43.739-105.594v-640c0-39.607 15.733-77.589 43.739-105.596 28.005-28.002 65.989-43.738 105.594-43.738h533.333c22.63 0 44.335 8.99 60.339 24.994s24.994 37.709 24.994 60.339v768zM810.667 192v-128h-533.333c-16.974 0-33.253 6.741-45.255 18.743s-18.745 28.284-18.745 45.257c0 16.973 6.743 33.254 18.745 45.257s28.281 18.743 45.255 18.743h533.333zM511.996 746.667c15.313 0 29.449-8.204 37.047-21.498l170.667-298.668c11.691-20.459 4.582-46.519-15.876-58.21-20.463-11.695-46.524-4.587-58.214 15.876l-133.623 233.836-133.62-233.836c-11.691-20.463-37.754-27.571-58.214-15.876-20.46 11.691-27.568 37.751-15.877 58.21l170.668 298.668c7.595 13.294 21.734 21.498 37.043 21.498zM345.604 490.667c0 23.565 19.102 42.667 42.667 42.667h243.2c23.565 0 42.667-19.102 42.667-42.667s-19.102-42.667-42.667-42.667h-243.2c-23.564 0-42.667 19.102-42.667 42.667z" />
<glyph unicode="&#xe934;" glyph-name="lucide_book_plus" d="M512 704c23.565 0 42.667-19.103 42.667-42.667v-256c0-23.565-19.102-42.667-42.667-42.667s-42.667 19.102-42.667 42.667v256c0 23.564 19.102 42.667 42.667 42.667zM277.333 832h533.333v-554.667h-533.333c-22.351 0-44.184-5.009-64-14.409v505.075c0 16.974 6.743 33.253 18.745 45.255s28.281 18.745 45.255 18.745zM896 832c0 22.632-8.99 44.337-24.994 60.34s-37.709 24.994-60.339 24.994h-533.333c-39.606 0-77.589-15.733-105.594-43.739s-43.739-65.989-43.739-105.594v-640c0-39.607 15.733-77.589 43.739-105.596 28.005-28.002 65.989-43.738 105.594-43.738h533.333c22.63 0 44.335 8.99 60.339 24.994s24.994 37.709 24.994 60.339v768zM810.667 192v-128h-533.333c-16.974 0-33.253 6.741-45.255 18.743s-18.745 28.284-18.745 45.257c0 16.973 6.743 33.254 18.745 45.257s28.281 18.743 45.255 18.743h533.333zM341.333 533.333c0 23.564 19.103 42.667 42.667 42.667h256c23.565 0 42.667-19.103 42.667-42.667s-19.102-42.667-42.667-42.667h-256c-23.564 0-42.667 19.102-42.667 42.667z" />
<glyph unicode="&#xe935;" glyph-name="lucide_user_check" d="M105.151 300.181c40.008 40.009 94.27 62.485 150.849 62.485h256c56.58 0 110.844-22.477 150.848-62.485 40.009-40.004 62.485-94.268 62.485-150.848v-85.333c0-23.565-19.102-42.667-42.667-42.667s-42.667 19.102-42.667 42.667v85.333c0 33.946-13.487 66.505-37.491 90.509s-56.563 37.491-90.509 37.491h-256c-33.948 0-66.505-13.487-90.51-37.491s-37.49-56.563-37.49-90.509v-85.333c0-23.565-19.103-42.667-42.667-42.667s-42.667 19.102-42.667 42.667v85.333c0 56.58 22.476 110.844 62.484 150.848zM384 789.333c-70.692 0-128-57.308-128-128s57.308-128 128-128c70.694 0 128 57.308 128 128s-57.306 128-128 128zM170.667 661.333c0 117.821 95.513 213.333 213.333 213.333s213.333-95.513 213.333-213.333c0-117.821-95.514-213.333-213.333-213.333s-213.333 95.513-213.333 213.333zM968.836 606.17c16.661-16.663 16.661-43.677 0-60.34l-170.667-170.666c-16.661-16.661-43.678-16.661-60.339 0l-85.333 85.333c-16.661 16.661-16.661 43.678 0 60.339 16.661 16.663 43.678 16.663 60.339 0l55.164-55.164 140.497 140.497c16.661 16.662 43.678 16.662 60.339 0z" />
<glyph unicode="&#xe936;" glyph-name="lucide_pc_case" d="M298.667 832c-23.564 0-42.667-19.103-42.667-42.667v-682.667c0-23.565 19.103-42.667 42.667-42.667h426.667c23.565 0 42.667 19.102 42.667 42.667v682.667c0 23.564-19.102 42.667-42.667 42.667h-426.667zM170.667 789.333c0 70.692 57.308 128 128 128h426.667c70.694 0 128-57.308 128-128v-682.667c0-70.694-57.306-128-128-128h-426.667c-70.692 0-128 57.306-128 128v682.667zM597.333 362.667c0 23.565 19.102 42.667 42.667 42.667h0.427c23.565 0 42.667-19.102 42.667-42.667s-19.102-42.667-42.667-42.667h-0.427c-23.565 0-42.667 19.102-42.667 42.667zM341.333 704c0 23.564 19.103 42.667 42.667 42.667h256c23.565 0 42.667-19.103 42.667-42.667s-19.102-42.667-42.667-42.667h-256c-23.564 0-42.667 19.103-42.667 42.667zM341.333 533.333c0 23.564 19.103 42.667 42.667 42.667h256c23.565 0 42.667-19.103 42.667-42.667s-19.102-42.667-42.667-42.667h-256c-23.564 0-42.667 19.102-42.667 42.667z" />
<glyph unicode="&#xe937;" glyph-name="lucide_door_closed" d="M250.824 794.51c24.005 24.005 56.562 37.49 90.51 37.49h341.333c33.946 0 66.505-13.486 90.509-37.49s37.491-56.562 37.491-90.51v-597.333c0-23.565-19.102-42.667-42.667-42.667s-42.667 19.102-42.667 42.667v597.333c0 11.316-4.497 22.168-12.497 30.17s-18.854 12.497-30.17 12.497h-341.333c-11.316 0-22.168-4.495-30.17-12.497s-12.497-18.854-12.497-30.17v-597.333c0-23.565-19.103-42.667-42.667-42.667s-42.667 19.102-42.667 42.667v597.333c0 33.948 13.486 66.505 37.49 90.51zM42.667 106.667c0 23.565 19.103 42.667 42.667 42.667h853.333c23.565 0 42.667-19.102 42.667-42.667s-19.102-42.667-42.667-42.667h-853.333c-23.564 0-42.667 19.102-42.667 42.667zM597.333 490.667c23.565 0 42.667-19.102 42.667-42.667v-0.427c0-23.565-19.102-42.667-42.667-42.667s-42.667 19.102-42.667 42.667v0.427c0 23.565 19.102 42.667 42.667 42.667z" />
<glyph unicode="&#xe938;" glyph-name="lucide_move_right" d="M737.83 648.837c16.661 16.662 43.678 16.662 60.339 0l170.667-170.667c16.661-16.661 16.661-43.678 0-60.339l-170.667-170.667c-16.661-16.661-43.678-16.661-60.339 0s-16.661 43.678 0 60.339l140.497 140.497-140.497 140.497c-16.661 16.663-16.661 43.677 0 60.34zM42.667 448c0 23.565 19.103 42.667 42.667 42.667h853.333c23.565 0 42.667-19.102 42.667-42.667s-19.102-42.667-42.667-42.667h-853.333c-23.564 0-42.667 19.102-42.667 42.667z" />
<glyph unicode="&#xe939;" glyph-name="lucide_folder_archive" d="M640 192c-23.565 0-42.667-19.102-42.667-42.667s19.102-42.667 42.667-42.667c23.565 0 42.667 19.102 42.667 42.667s-19.102 42.667-42.667 42.667zM512 149.333c0 70.694 57.306 128 128 128s128-57.306 128-128c0-70.694-57.306-128-128-128s-128 57.306-128 128zM80.157 837.176c24.005 24.005 56.562 37.49 90.51 37.49h167.687c21.191-0.003 42.049-5.268 60.704-15.321 18.575-10.011 34.385-24.458 46.028-42.054l34.436-51.021c0.094-0.135 0.183-0.27 0.273-0.406 3.925-5.96 9.28-10.84 15.578-14.195 6.302-3.354 13.342-5.075 20.476-5.005 0.141 0.001 0.277 0.002 0.418 0.002h337.067c33.95 0 66.505-13.486 90.509-37.49s37.491-56.562 37.491-90.51v-426.534c0.137-23.799-6.366-47.164-18.778-67.473-12.442-20.352-30.319-36.83-51.622-47.561-21.043-10.607-46.699-2.142-57.301 18.901-10.607 21.043-2.142 46.699 18.901 57.301 7.104 3.58 13.060 9.071 17.207 15.855 4.147 6.788 6.315 14.596 6.259 22.545 0 0.102 0 0.201 0 0.299v426.667c0 11.316-4.497 22.168-12.497 30.17s-18.854 12.497-30.17 12.497h-336.879c-21.329-0.171-42.364 4.991-61.188 15.018-18.82 10.021-34.833 24.582-46.593 42.36l-34.437 51.018c-0.090 0.134-0.18 0.269-0.269 0.404-3.885 5.9-9.174 10.742-15.392 14.093-6.216 3.35-13.167 5.105-20.228 5.107-0.002 0-0.005 0-0.007 0h-167.673c-11.316 0-22.168-4.495-30.17-12.497s-12.497-18.854-12.497-30.17v-554.667c0-11.315 4.495-22.17 12.497-30.17s18.854-12.497 30.17-12.497h217.6c23.564 0 42.667-19.102 42.667-42.667s-19.102-42.667-42.667-42.667h-217.6c-33.948 0-66.505 13.487-90.51 37.491s-37.49 56.563-37.49 90.509v554.667c0 33.948 13.486 66.505 37.49 90.51zM640 576c23.565 0 42.667-19.103 42.667-42.667v-42.667c0-23.565-19.102-42.667-42.667-42.667s-42.667 19.102-42.667 42.667v42.667c0 23.564 19.102 42.667 42.667 42.667zM640 362.667c23.565 0 42.667-19.102 42.667-42.667v-85.333c0-23.565-19.102-42.667-42.667-42.667s-42.667 19.102-42.667 42.667v85.333c0 23.565 19.102 42.667 42.667 42.667z" />
<glyph unicode="&#xe93a;" glyph-name="lucide_package" d="M448.090 900.148c19.439 11.2 41.476 17.096 63.91 17.096s44.471-5.896 63.91-17.096c0.030-0.017 0.060-0.035 0.090-0.052l298.5-170.572c0.055-0.032 0.111-0.063 0.166-0.095 19.439-11.223 35.584-27.361 46.818-46.794s17.161-41.479 17.182-63.926v-341.423c-0.021-22.443-5.948-44.489-17.182-63.923s-27.379-35.571-46.818-46.797c-0.055-0.030-0.111-0.060-0.166-0.094l-298.5-170.573c-0.026-0.013-0.055-0.030-0.081-0.047-19.439-11.2-41.481-17.101-63.919-17.101s-44.48 5.901-63.919 17.101c-0.026 0.017-0.055 0.034-0.081 0.047l-298.502 170.573c-0.055 0.034-0.11 0.064-0.165 0.094-19.439 11.226-35.585 27.362-46.819 46.797s-17.158 41.481-17.181 63.923v341.423c0.023 22.447 5.948 44.492 17.181 63.926s27.379 35.571 46.819 46.794c0.055 0.032 0.11 0.063 0.165 0.095l298.592 170.624zM512 831.911c-7.488 0-14.848-1.971-21.333-5.716-0.055-0.032-0.111-0.063-0.166-0.095l-298.568-170.611c-6.449-3.739-11.807-9.104-15.538-15.559-3.741-6.473-5.716-13.815-5.727-21.29v-341.281c0.011-7.475 1.986-14.818 5.727-21.291 3.731-6.455 9.087-11.819 15.535-15.556 0.023-0.017 0.047-0.030 0.071-0.043l298.5-170.573c0.055-0.030 0.111-0.064 0.166-0.094 6.485-3.746 13.845-5.717 21.333-5.717s14.848 1.971 21.333 5.717c0.055 0.030 0.111 0.064 0.166 0.094l298.5 170.573c0.021 0.013 0.047 0.026 0.068 0.038 6.451 3.742 11.806 9.105 15.539 15.561 3.742 6.477 5.717 13.824 5.726 21.308v341.246c-0.009 7.482-1.984 14.831-5.726 21.309-3.733 6.455-9.092 11.82-15.539 15.56-0.026 0.013-0.047 0.026-0.068 0.038l-298.5 170.572c-0.055 0.032-0.111 0.063-0.166 0.095-6.485 3.745-13.845 5.716-21.333 5.716zM512 490.667c23.565 0 42.667-19.102 42.667-42.667v-426.667c0-23.565-19.102-42.667-42.667-42.667s-42.667 19.102-42.667 42.667v426.667c0 23.565 19.102 42.667 42.667 42.667zM104.447 683.672c12.338 20.076 38.615 26.349 58.691 14.011l328.041-201.602c6.357-3.554 13.525-5.423 20.817-5.423 7.296 0 14.464 1.869 20.821 5.423l328.043 201.602c20.075 12.338 46.349 6.065 58.688-14.011s6.067-46.353-14.012-58.691l-328.661-201.984c-0.354-0.218-0.708-0.431-1.071-0.636-19.409-11.162-41.412-17.037-63.808-17.037-22.391 0-44.395 5.875-63.808 17.037-0.358 0.205-0.717 0.418-1.067 0.636l-328.663 201.984c-20.076 12.338-26.349 38.615-14.010 58.691zM282.964 799.001c11.703 20.452 37.771 27.545 58.223 15.842l384.001-219.733c20.45-11.703 27.546-37.771 15.842-58.223s-37.773-27.544-58.223-15.841l-384.001 219.733c-20.453 11.703-27.545 37.771-15.842 58.223z" />
<glyph unicode="&#xe93b;" glyph-name="lucide_mail_check" d="M80.157 794.51c24.005 24.005 56.562 37.49 90.51 37.49h682.667c33.946 0 66.505-13.486 90.509-37.49s37.491-56.562 37.491-90.51v-298.667c0-23.565-19.102-42.667-42.667-42.667s-42.667 19.102-42.667 42.667v298.667c0 11.316-4.497 22.168-12.497 30.17s-18.854 12.497-30.17 12.497h-682.667c-11.316 0-22.168-4.495-30.17-12.497s-12.497-18.854-12.497-30.17v-512c0-23.369 19.297-42.667 42.667-42.667h341.333c23.565 0 42.667-19.102 42.667-42.667s-19.102-42.667-42.667-42.667h-341.333c-70.497 0-128 57.502-128 128v512c0 33.948 13.486 66.505 37.49 90.51zM49.328 684.216c12.638 19.889 39.006 25.766 58.894 13.128l382.586-243.115c6.357-3.959 13.705-6.059 21.197-6.059 7.497 0 14.839 2.099 21.197 6.059l382.588 243.115c19.887 12.638 46.255 6.761 58.893-13.128s6.763-46.256-13.124-58.894l-382.72-243.2c-0.077-0.051-0.154-0.098-0.23-0.145-19.964-12.51-43.046-19.14-66.603-19.14s-46.635 6.63-66.598 19.14c-0.077 0.047-0.154 0.094-0.23 0.145l-382.72 243.2c-19.888 12.638-25.766 39.006-13.128 58.894zM968.836 264.836c16.661-16.661 16.661-43.678 0-60.339l-170.667-170.667c-16.661-16.661-43.678-16.661-60.339 0l-85.333 85.333c-16.661 16.661-16.661 43.678 0 60.339s43.678 16.661 60.339 0l55.164-55.164 140.497 140.497c16.661 16.661 43.678 16.661 60.339 0z" />
<glyph unicode="&#xe93c;" glyph-name="lucide_move_up" d="M481.83 904.837c16.661 16.662 43.678 16.662 60.339 0l170.667-170.667c16.661-16.663 16.661-43.677 0-60.34s-43.678-16.662-60.339 0l-140.497 140.497-140.497-140.497c-16.663-16.662-43.677-16.662-60.34 0s-16.662 43.677 0 60.34l170.667 170.667zM512 917.333c23.565 0 42.667-19.103 42.667-42.667v-853.333c0-23.565-19.102-42.667-42.667-42.667s-42.667 19.102-42.667 42.667v853.333c0 23.564 19.102 42.667 42.667 42.667z" />
<glyph unicode="&#xe93d;" glyph-name="lucide_unfold_vertical" d="M512 320c23.565 0 42.667-19.102 42.667-42.667v-256c0-23.565-19.102-42.667-42.667-42.667s-42.667 19.102-42.667 42.667v256c0 23.565 19.102 42.667 42.667 42.667zM512 917.333c23.565 0 42.667-19.103 42.667-42.667v-256c0-23.564-19.102-42.667-42.667-42.667s-42.667 19.103-42.667 42.667v256c0 23.564 19.102 42.667 42.667 42.667zM42.667 448c0 23.565 19.103 42.667 42.667 42.667h85.333c23.564 0 42.667-19.102 42.667-42.667s-19.103-42.667-42.667-42.667h-85.333c-23.564 0-42.667 19.102-42.667 42.667zM298.667 448c0 23.565 19.103 42.667 42.667 42.667h85.333c23.565 0 42.667-19.102 42.667-42.667s-19.102-42.667-42.667-42.667h-85.333c-23.564 0-42.667 19.102-42.667 42.667zM554.667 448c0 23.565 19.102 42.667 42.667 42.667h85.333c23.565 0 42.667-19.102 42.667-42.667s-19.102-42.667-42.667-42.667h-85.333c-23.565 0-42.667 19.102-42.667 42.667zM810.667 448c0 23.565 19.102 42.667 42.667 42.667h85.333c23.565 0 42.667-19.102 42.667-42.667s-19.102-42.667-42.667-42.667h-85.333c-23.565 0-42.667 19.102-42.667 42.667zM353.83 179.503c16.663 16.661 43.677 16.661 60.34 0l97.83-97.83 97.83 97.83c16.661 16.661 43.678 16.661 60.339 0s16.661-43.678 0-60.339l-128-128c-16.661-16.661-43.678-16.661-60.339 0l-128 128c-16.662 16.661-16.662 43.678 0 60.339zM481.83 904.837c16.661 16.662 43.678 16.662 60.339 0l128-128c16.661-16.663 16.661-43.677 0-60.34s-43.678-16.662-60.339 0l-97.83 97.83-97.83-97.83c-16.663-16.662-43.677-16.662-60.34 0s-16.662 43.677 0 60.34l128 128z" />
<glyph unicode="&#xe93e;" glyph-name="lucide_triangle_right" d="M896 742.367l-733.050-593.030h690.383c11.315 0 22.17 4.497 30.17 12.497 8.004 8 12.497 18.854 12.497 30.17v550.363zM935.949 829.533c35.917-15.616 45.385-53.425 45.385-82.862v-554.667c0-33.95-13.483-66.505-37.491-90.509-24.004-24.004-56.559-37.491-90.509-37.491h-725.332c-15.026 0-30.562 1.967-44.441 7.817-14.072 5.935-30.212 17.741-36.779 38.537-6.468 20.48-0.32 39.236 7.206 52.083 7.475 12.757 18.434 23.748 30.409 33.109l759.171 614.159c0.209 0.172 0.422 0.341 0.64 0.508 23.1 17.969 57.502 34.203 91.742 19.316z" />
<glyph unicode="&#xe93f;" glyph-name="lucide_message_square_plus" d="M213.333 789.333c-11.316 0-22.168-4.495-30.17-12.497s-12.497-18.854-12.497-30.17v-579.661l97.83 97.83c8.002 8 18.854 12.497 30.17 12.497h512c11.315 0 22.17 4.497 30.17 12.497s12.497 18.854 12.497 30.17v426.667c0 11.316-4.497 22.168-12.497 30.17s-18.854 12.497-30.17 12.497h-597.333zM122.824 837.176c24.005 24.005 56.562 37.49 90.51 37.49h597.333c33.946 0 66.505-13.486 90.509-37.49s37.491-56.562 37.491-90.51v-426.667c0-33.95-13.487-66.505-37.491-90.509s-56.559-37.491-90.509-37.491h-494.327l-158.17-158.17c-12.203-12.203-30.554-15.855-46.498-9.25s-26.339 22.161-26.339 39.42v682.667c0 33.948 13.486 66.505 37.49 90.51zM512 704c23.565 0 42.667-19.103 42.667-42.667v-256c0-23.565-19.102-42.667-42.667-42.667s-42.667 19.102-42.667 42.667v256c0 23.564 19.102 42.667 42.667 42.667zM341.333 533.333c0 23.564 19.103 42.667 42.667 42.667h256c23.565 0 42.667-19.103 42.667-42.667s-19.102-42.667-42.667-42.667h-256c-23.564 0-42.667 19.102-42.667 42.667z" />
<glyph unicode="&#xe940;" glyph-name="lucide_file_key_2" d="M165.49 879.843c24.005 24.005 56.562 37.49 90.51 37.49h384c11.315 0 22.17-4.495 30.17-12.497l213.333-213.333c8-8.002 12.497-18.854 12.497-30.17v-554.667c0-33.95-13.487-66.505-37.491-90.509s-56.559-37.491-90.509-37.491h-597.333c-23.564 0-42.667 19.102-42.667 42.667s19.103 42.667 42.667 42.667h597.333c11.315 0 22.17 4.497 30.17 12.497s12.497 18.854 12.497 30.17v536.994l-188.339 188.34h-366.327c-11.316 0-22.168-4.495-30.17-12.497s-12.497-18.854-12.497-30.17v-256c0-23.565-19.103-42.667-42.667-42.667s-42.667 19.102-42.667 42.667v256c0 33.948 13.486 66.505 37.49 90.51zM597.333 917.333c23.565 0 42.667-19.103 42.667-42.667v-170.667c0-11.316 4.497-22.168 12.497-30.17s18.854-12.497 30.17-12.497h170.667c23.565 0 42.667-19.103 42.667-42.667s-19.102-42.667-42.667-42.667h-170.667c-33.946 0-66.505 13.486-90.509 37.49s-37.491 56.562-37.491 90.51v170.667c0 23.564 19.102 42.667 42.667 42.667zM170.667 320c-23.564 0-42.667-19.102-42.667-42.667s19.103-42.667 42.667-42.667c23.564 0 42.667 19.102 42.667 42.667s-19.103 42.667-42.667 42.667zM42.667 277.333c0 70.694 57.308 128 128 128s128-57.306 128-128c0-70.694-57.308-128-128-128s-128 57.306-128 128zM456.836 563.503c16.661-16.663 16.661-43.678 0-60.34l-192-192c-16.663-16.661-43.677-16.661-60.34 0s-16.662 43.678 0 60.339l192 192c16.663 16.662 43.678 16.662 60.34 0zM353.83 520.836c16.663 16.663 43.677 16.663 60.34 0l42.666-42.667c16.661-16.661 16.661-43.678 0-60.339s-43.677-16.661-60.34 0l-42.667 42.667c-16.662 16.661-16.662 43.678 0 60.339z" />
<glyph unicode="&#xe941;" glyph-name="lucide_chevron_left" d="M670.17 734.17c16.661-16.663 16.661-43.677 0-60.34l-225.83-225.83 225.83-225.83c16.661-16.661 16.661-43.678 0-60.339s-43.678-16.661-60.339 0l-256 256c-16.662 16.661-16.662 43.678 0 60.339l256 256c16.661 16.662 43.678 16.662 60.339 0z" />
<glyph unicode="&#xe942;" glyph-name="lucide_clucidepboard_minus" d="M384 832v-85.333h256v85.333h-256zM298.667 832c0 47.128 38.205 85.333 85.333 85.333h256c47.13 0 85.333-38.205 85.333-85.333v-85.333c0-47.128-38.204-85.333-85.333-85.333h-256c-47.128 0-85.333 38.205-85.333 85.333v85.333zM256 746.667c-11.316 0-22.168-4.495-30.17-12.497s-12.497-18.854-12.497-30.17v-597.333c0-11.315 4.495-22.17 12.497-30.17s18.854-12.497 30.17-12.497h512c11.315 0 22.17 4.497 30.17 12.497s12.497 18.854 12.497 30.17v597.333c0 11.316-4.497 22.168-12.497 30.17s-18.854 12.497-30.17 12.497h-85.333c-23.565 0-42.667 19.103-42.667 42.667s19.102 42.667 42.667 42.667h85.333c33.946 0 66.505-13.486 90.509-37.49s37.491-56.562 37.491-90.51v-597.333c0-33.95-13.487-66.505-37.491-90.509s-56.559-37.491-90.509-37.491h-512c-33.948 0-66.505 13.487-90.51 37.491s-37.49 56.563-37.49 90.509v597.333c0 33.948 13.486 66.505 37.49 90.51s56.562 37.49 90.51 37.49h85.333c23.564 0 42.667-19.103 42.667-42.667s-19.103-42.667-42.667-42.667h-85.333zM341.333 362.667c0 23.565 19.103 42.667 42.667 42.667h256c23.565 0 42.667-19.102 42.667-42.667s-19.102-42.667-42.667-42.667h-256c-23.564 0-42.667 19.102-42.667 42.667z" />
<glyph unicode="&#xe943;" glyph-name="lucide_bold" d="M238.327 807.006c16.003 16.003 37.708 24.994 60.34 24.994h298.667c56.58 0 110.844-22.476 150.848-62.484 40.009-40.008 62.485-94.27 62.485-150.849s-22.477-110.844-62.485-150.848c-1.408-1.412-2.833-2.799-4.279-4.164 17.067-9.515 32.887-21.41 46.946-35.473 40.009-40.004 62.485-94.268 62.485-150.848s-22.477-110.844-62.485-150.848c-40.004-40.009-94.268-62.485-150.848-62.485h-341.333c-22.632 0-44.337 8.99-60.34 24.994s-24.994 37.709-24.994 60.339v597.333c0 22.632 8.99 44.337 24.994 60.34zM298.667 405.333v-256h341.333c33.946 0 66.505 13.487 90.509 37.491s37.491 56.563 37.491 90.509c0 33.946-13.487 66.505-37.491 90.509s-56.563 37.491-90.509 37.491h-341.333zM597.333 490.667c33.946 0 66.505 13.487 90.509 37.491s37.491 56.561 37.491 90.509c0 33.948-13.487 66.505-37.491 90.51s-56.563 37.49-90.509 37.49h-298.667v-256h298.667z" />
<glyph unicode="&#xe944;" glyph-name="lucide_table" d="M512 874.667c23.565 0 42.667-19.103 42.667-42.667v-768c0-23.565-19.102-42.667-42.667-42.667s-42.667 19.102-42.667 42.667v768c0 23.564 19.102 42.667 42.667 42.667zM213.333 789.333c-23.564 0-42.667-19.103-42.667-42.667v-597.333c0-23.565 19.103-42.667 42.667-42.667h597.333c23.565 0 42.667 19.102 42.667 42.667v597.333c0 23.564-19.102 42.667-42.667 42.667h-597.333zM85.333 746.667c0 70.692 57.308 128 128 128h597.333c70.694 0 128-57.308 128-128v-597.333c0-70.694-57.306-128-128-128h-597.333c-70.692 0-128 57.306-128 128v597.333zM85.333 576c0 23.564 19.103 42.667 42.667 42.667h768c23.565 0 42.667-19.103 42.667-42.667s-19.102-42.667-42.667-42.667h-768c-23.564 0-42.667 19.103-42.667 42.667zM85.333 320c0 23.565 19.103 42.667 42.667 42.667h768c23.565 0 42.667-19.102 42.667-42.667s-19.102-42.667-42.667-42.667h-768c-23.564 0-42.667 19.102-42.667 42.667z" />
<glyph unicode="&#xe945;" glyph-name="lucide_hash" d="M128 576c0 23.564 19.103 42.667 42.667 42.667h682.667c23.565 0 42.667-19.103 42.667-42.667s-19.102-42.667-42.667-42.667h-682.667c-23.564 0-42.667 19.103-42.667 42.667zM128 320c0 23.565 19.103 42.667 42.667 42.667h682.667c23.565 0 42.667-19.102 42.667-42.667s-19.102-42.667-42.667-42.667h-682.667c-23.564 0-42.667 19.102-42.667 42.667zM431.381 874.407c23.42-2.602 40.299-23.697 37.696-47.118l-85.335-768c-2.602-23.42-23.697-40.294-47.117-37.692-23.42 2.598-40.297 23.697-37.694 47.117l85.333 767.999c2.602 23.42 23.697 40.296 47.117 37.694zM687.381 874.407c23.42-2.602 40.299-23.697 37.696-47.118l-85.333-768c-2.603-23.42-23.697-40.294-47.117-37.692-23.424 2.598-40.299 23.697-37.696 47.117l85.333 767.999c2.603 23.42 23.697 40.296 47.117 37.694z" />
<glyph unicode="&#xe946;" glyph-name="lucide_map_pin_x" d="M240.471 804.862c72.014 72.014 169.686 112.471 271.529 112.471 101.841 0 199.514-40.457 271.531-112.471 72.013-72.014 112.469-169.686 112.469-271.529 0-0.090 0-0.175 0-0.265-0.192-30.886-4.203-61.632-11.942-91.533-5.905-22.814-29.184-36.523-51.994-30.618-22.814 5.905-36.523 29.184-30.618 51.994 5.965 23.049 9.062 46.746 9.22 70.552-0.034 79.164-31.497 155.078-87.479 211.058-56.009 56.011-131.977 87.477-211.187 87.477s-155.178-31.467-211.189-87.477c-56.011-56.011-87.477-131.978-87.477-211.189 0-92.13 51.912-191.433 119.37-280.064 65.216-85.683 140.052-155.068 179.313-189.137 0.542 0.465 1.084 0.93 1.626 1.395 17.86 15.377 44.8 13.363 60.173-4.493 15.377-17.86 13.363-44.8-4.493-60.173-1.344-1.156-2.692-2.313-4.045-3.46-0.649-0.55-1.314-1.084-1.993-1.591-14.788-11.119-32.785-17.135-51.285-17.135s-36.497 6.016-51.285 17.135c-0.768 0.576-1.515 1.178-2.24 1.805-40.756 35.187-122.139 109.986-193.674 203.972-70.547 92.693-136.8 210.842-136.8 331.746 0 101.843 40.457 199.515 112.471 271.529zM512 618.667c-47.13 0-85.333-38.205-85.333-85.333 0-47.13 38.204-85.333 85.333-85.333s85.333 38.204 85.333 85.333c0 47.128-38.204 85.333-85.333 85.333zM341.333 533.333c0 94.257 76.41 170.667 170.667 170.667 94.255 0 170.667-76.41 170.667-170.667 0-94.255-76.412-170.667-170.667-170.667-94.257 0-170.667 76.412-170.667 170.667zM947.503 328.836c16.661-16.661 16.661-43.678 0-60.339l-213.333-213.333c-16.661-16.661-43.678-16.661-60.339 0s-16.661 43.678 0 60.339l213.333 213.333c16.661 16.661 43.678 16.661 60.339 0zM673.83 328.836c16.661 16.661 43.678 16.661 60.339 0l213.333-213.333c16.661-16.661 16.661-43.678 0-60.339s-43.678-16.661-60.339 0l-213.333 213.333c-16.661 16.661-16.661 43.678 0 60.339z" />
<glyph unicode="&#xe947;" glyph-name="lucide_folder_cog" d="M768 277.333c-47.13 0-85.333-38.204-85.333-85.333s38.204-85.333 85.333-85.333c47.13 0 85.333 38.204 85.333 85.333s-38.204 85.333-85.333 85.333zM597.333 192c0 94.255 76.412 170.667 170.667 170.667s170.667-76.412 170.667-170.667c0-94.255-76.412-170.667-170.667-170.667s-170.667 76.412-170.667 170.667zM357.958 784.331c-6.298 3.354-13.338 5.075-20.474 5.005-0.139-0.001-0.279-0.002-0.418-0.002h-166.4c-11.316 0-22.168-4.495-30.17-12.497s-12.497-18.854-12.497-30.17v-554.668c0-11.315 4.495-22.165 12.497-30.17 8.002-8 18.854-12.497 30.17-12.497h268.8c23.565 0 42.667-19.102 42.667-42.667s-19.102-42.667-42.667-42.667h-268.8c-33.948 0-66.505 13.487-90.51 37.491s-37.49 56.563-37.49 90.509v554.668c0 33.948 13.486 66.505 37.49 90.51s56.562 37.49 90.51 37.49h166.212c21.329 0.171 42.362-4.991 61.191-15.018 18.816-10.021 34.831-24.582 46.59-42.36l34.436-51.018c0.094-0.134 0.183-0.269 0.273-0.404 3.883-5.9 9.173-10.742 15.39-14.093s13.167-5.105 20.228-5.107c0.004 0 0.004 0 0.009 0h338.338c33.946 0 66.505-13.486 90.509-37.49s37.491-56.562 37.491-90.51v-140.801c0-23.565-19.102-42.667-42.667-42.667s-42.667 19.102-42.667 42.667v140.801c0 11.316-4.497 22.168-12.497 30.17s-18.854 12.497-30.17 12.497h-338.356c-21.188 0.003-42.048 5.268-60.702 15.321-18.577 10.011-34.388 24.458-46.029 42.055l-34.438 51.019c-0.091 0.135-0.181 0.271-0.271 0.406-3.924 5.96-9.281 10.841-15.58 14.195zM846.993 158.558c7.45 22.357 31.616 34.436 53.969 26.987l38.4-12.8c22.353-7.454 34.436-31.616 26.987-53.969-7.454-22.357-31.616-34.436-53.969-26.987l-38.404 12.8c-22.353 7.454-34.436 31.616-26.982 53.969zM569.66 265.225c7.45 22.357 31.616 34.436 53.969 26.987l38.4-12.8c22.353-7.454 34.436-31.616 26.987-53.969-7.454-22.357-31.616-34.436-53.973-26.987l-38.4 12.8c-22.353 7.454-34.436 31.616-26.982 53.969zM734.558 113.011c22.357-7.45 34.436-31.612 26.987-53.969l-12.8-38.4c-7.454-22.353-31.616-34.436-53.969-26.982-22.357 7.45-34.436 31.612-26.987 53.969l12.8 38.4c7.454 22.353 31.616 34.436 53.969 26.982zM841.225 390.345c22.357-7.45 34.436-31.612 26.987-53.969l-12.8-38.4c-7.454-22.353-31.616-34.436-53.969-26.982-22.357 7.45-34.436 31.612-26.987 53.969l12.8 38.4c7.454 22.353 31.616 34.436 53.969 26.982zM803.354 116.416c21.879 8.751 46.707-1.89 55.458-23.77l17.067-42.667c8.755-21.879-1.89-46.707-23.765-55.458-21.879-8.755-46.711 1.89-55.462 23.765l-17.067 42.667c-8.751 21.879 1.89 46.711 23.77 55.462zM683.891 389.483c21.875 8.751 46.707-1.89 55.458-23.77l17.067-42.667c8.751-21.875-1.89-46.707-23.77-55.458-21.875-8.751-46.707 1.89-55.458 23.77l-17.067 42.667c-8.751 21.875 1.89 46.707 23.77 55.458zM692.416 156.646c8.755-21.879-1.89-46.707-23.765-55.458l-42.667-17.067c-21.879-8.755-46.711 1.89-55.462 23.765-8.751 21.879 1.89 46.711 23.77 55.462l42.667 17.067c21.879 8.751 46.707-1.89 55.458-23.77zM965.478 276.109c8.755-21.875-1.89-46.707-23.765-55.458l-42.667-17.067c-21.879-8.751-46.711 1.89-55.462 23.77-8.751 21.875 1.89 46.707 23.77 55.458l42.667 17.067c21.879 8.751 46.707-1.89 55.458-23.77z" />
<glyph unicode="&#xe948;" glyph-name="lucide_arrow_right_to_lucidene" d="M85.333 448c0 23.565 19.103 42.667 42.667 42.667h597.333c23.565 0 42.667-19.102 42.667-42.667s-19.102-42.667-42.667-42.667h-597.333c-23.564 0-42.667 19.102-42.667 42.667zM439.164 734.17c16.661 16.662 43.678 16.662 60.339 0l256-256c16.661-16.661 16.661-43.678 0-60.339l-256-256c-16.661-16.661-43.678-16.661-60.339 0-16.663 16.661-16.663 43.678 0 60.339l225.83 225.83-225.83 225.83c-16.663 16.663-16.663 43.677 0 60.34zM896 789.333c23.565 0 42.667-19.103 42.667-42.667v-597.333c0-23.565-19.102-42.667-42.667-42.667s-42.667 19.102-42.667 42.667v597.333c0 23.564 19.102 42.667 42.667 42.667z" />
<glyph unicode="&#xe949;" glyph-name="lucide_dice_1" d="M213.333 789.333c-23.564 0-42.667-19.103-42.667-42.667v-597.333c0-23.565 19.103-42.667 42.667-42.667h597.333c23.565 0 42.667 19.102 42.667 42.667v597.333c0 23.564-19.102 42.667-42.667 42.667h-597.333zM85.333 746.667c0 70.692 57.308 128 128 128h597.333c70.694 0 128-57.308 128-128v-597.333c0-70.694-57.306-128-128-128h-597.333c-70.692 0-128 57.306-128 128v597.333zM469.333 448c0 23.565 19.102 42.667 42.667 42.667h0.427c23.565 0 42.667-19.102 42.667-42.667s-19.102-42.667-42.667-42.667h-0.427c-23.565 0-42.667 19.102-42.667 42.667z" />
<glyph unicode="&#xe94a;" glyph-name="lucide_footprints" d="M212.216 767.13c-26.697-41.568-40.988-97.391-41.556-148.934l-0.001-0.041c-0.559-46.589 8.516-78.823 18.982-112.951 0.617-2.014 1.242-4.041 1.872-6.084 10.205-33.088 21.816-70.729 21.816-120.239v-101.547c0-11.315 4.495-22.17 12.497-30.17s18.854-12.497 30.17-12.497c11.316 0 22.168 4.497 30.17 12.497s12.497 18.854 12.497 30.17v77.653c0 71.403 23.181 136.439 43.731 194.096 0.471 1.322 0.941 2.639 1.409 3.953 21.673 60.847 40.193 114.449 40.193 172.297 0 32.1-6.121 60.927-17.485 80.17-9.922 16.801-23.411 26.496-46.515 26.496-46.122 0-81.698-24.259-107.78-64.87zM140.416 813.243c37.492 58.376 97.276 104.090 179.581 104.090 56.683 0 96.527-28.704 119.991-68.437 22.025-37.29 29.342-83.13 29.342-123.563 0-74.21-23.74-140.85-44.605-199.428l-0.535-1.502c-21.783-61.154-40.193-113.6-40.193-169.417v-77.653c0-33.946-13.486-66.505-37.49-90.509s-56.562-37.491-90.51-37.491c-33.948 0-66.505 13.487-90.51 37.491s-37.49 56.563-37.49 90.509v101.547c0 36.395-8.2 63.087-18.645 97.092-0.428 1.391-0.859 2.795-1.293 4.211-11.187 36.48-23.444 78.909-22.726 138.976 0.716 64.505 18.211 136.672 55.084 194.084zM584.009 678.23c23.462 39.732 63.309 68.437 119.991 68.437 82.304 0 142.089-45.714 179.58-104.090 36.868-57.406 54.366-129.565 55.083-194.065 0-0.004 0-0.009 0-0.013 0.721-60.070-11.537-102.498-22.724-138.982-0.435-1.417-0.866-2.82-1.293-4.211-10.445-34.005-18.645-60.698-18.645-97.092v-101.547c0-33.95-13.487-66.505-37.491-90.509s-56.559-37.491-90.509-37.491c-33.95 0-66.505 13.487-90.509 37.491s-37.491 56.559-37.491 90.509v77.653c0 55.817-18.411 108.262-40.192 169.417l-0.538 1.502c-20.864 58.577-44.604 125.218-44.604 199.428 0 40.433 7.322 86.273 29.342 123.563zM657.485 634.837c-11.366-19.244-17.485-48.070-17.485-80.17 0-57.847 18.522-111.45 40.192-172.297 0.469-1.314 0.939-2.633 1.408-3.955 20.553-57.655 43.733-122.692 43.733-194.095v-77.653c0-11.315 4.497-22.17 12.497-30.17s18.854-12.497 30.17-12.497c11.315 0 22.17 4.497 30.17 12.497s12.497 18.854 12.497 30.17v101.547c0 49.51 11.61 87.151 21.815 120.239 0.631 2.044 1.254 4.070 1.873 6.084 10.466 34.129 19.541 66.364 18.982 112.951v0.043c-0.572 51.541-14.861 107.365-41.557 148.933-26.082 40.611-61.658 64.87-107.78 64.87-23.104 0-36.591-9.696-46.515-26.496zM640 234.667c0 23.565 19.102 42.667 42.667 42.667h170.667c23.565 0 42.667-19.102 42.667-42.667s-19.102-42.667-42.667-42.667h-170.667c-23.565 0-42.667 19.102-42.667 42.667zM128 405.333c0 23.565 19.103 42.667 42.667 42.667h170.667c23.564 0 42.667-19.102 42.667-42.667s-19.103-42.667-42.667-42.667h-170.667c-23.564 0-42.667 19.102-42.667 42.667z" />
</font>
</defs>
</svg>
