<svg width="25" height="25" viewBox="0 0 25 25" fill="none" xmlns="http://www.w3.org/2000/svg">
<path fill-rule="evenodd" clip-rule="evenodd" d="M17.1941 17.2308H17.0921C16.6781 17.2308 16.3421 16.8948 16.3421 16.4808C16.3421 16.0668 16.6781 15.7308 17.0921 15.7308H17.1941C17.6081 15.7308 17.9441 16.0668 17.9441 16.4808C17.9441 16.8948 17.6081 17.2308 17.1941 17.2308ZM15.4631 13.8188H15.3611C14.9471 13.8188 14.6111 13.4828 14.6111 13.0688C14.6111 12.6548 14.9471 12.3188 15.3611 12.3188H15.4631C15.8771 12.3188 16.2131 12.6548 16.2131 13.0688C16.2131 13.4828 15.8771 13.8188 15.4631 13.8188ZM11.0651 15.4978H9.99115V16.5358C9.99115 16.9498 9.65515 17.2858 9.24115 17.2858C8.82715 17.2858 8.49115 16.9498 8.49115 16.5358V15.4978H7.41715C7.00315 15.4978 6.66715 15.1618 6.66715 14.7478C6.66715 14.3338 7.00315 13.9978 7.41715 13.9978H8.49115V12.9598C8.49115 12.5458 8.82715 12.2098 9.24115 12.2098C9.65515 12.2098 9.99115 12.5458 9.99115 12.9598V13.9978H11.0651C11.4791 13.9978 11.8151 14.3338 11.8151 14.7478C11.8151 15.1618 11.4791 15.4978 11.0651 15.4978ZM13.5841 6.9038V6.3608C13.5641 4.8518 12.3401 3.5968 10.8141 3.6438H9.79315C9.65015 3.6438 9.51515 3.5888 9.41315 3.4888C9.30915 3.3868 9.25215 3.2518 9.25015 3.1068C9.24615 2.6918 8.89015 2.3388 8.49315 2.3638C8.07915 2.3678 7.74615 2.7068 7.75015 3.1208C7.76115 4.2408 8.67515 5.1438 9.78615 5.1438H10.8281C11.5121 5.1438 12.0751 5.6978 12.0841 6.3718V6.8828C4.79715 6.9148 2.20215 8.9948 2.20215 14.7928C2.20215 20.6348 4.83215 22.7068 12.2511 22.7068C19.6691 22.7068 22.2981 20.6348 22.2981 14.7928C22.2981 9.3138 19.9871 7.1518 13.5841 6.9038Z" fill="black"/>
</svg>
