<svg width="24" height="24" viewBox="0 0 24 24" fill="none" xmlns="http://www.w3.org/2000/svg">
<path d="M2.60966 9.34969C2.72166 9.40769 2.84166 9.43569 2.95866 9.43569C3.22866 9.43569 3.48866 9.28969 3.62266 9.03569C4.23188 7.87849 5.34574 6.29234 6.27881 5.63739V17.2049C6.27881 17.6189 6.61481 17.9549 7.02881 17.9549C7.44281 17.9549 7.77881 17.6189 7.77881 17.2049V5.63771C8.71325 6.29305 9.83263 7.8796 10.4457 9.03669C10.6397 9.40169 11.0937 9.54269 11.4597 9.34869C11.8257 9.15469 11.9657 8.70069 11.7717 8.33469C11.3747 7.58369 9.27666 3.83569 7.02866 3.83569C4.78066 3.83569 2.69166 7.58469 2.29666 8.33569C2.10366 8.70269 2.24366 9.15669 2.60966 9.34969Z" fill="black"/>
<path d="M17.7095 18.3623V6.79541C17.7095 6.38141 17.3735 6.04541 16.9595 6.04541C16.5455 6.04541 16.2095 6.38141 16.2095 6.79541V18.3626C15.275 17.7074 14.1554 16.1206 13.5423 14.9634C13.3493 14.5984 12.8943 14.4574 12.5283 14.6514C12.1623 14.8454 12.0223 15.2994 12.2163 15.6644C12.6133 16.4164 14.7113 20.1644 16.9593 20.1644C19.2073 20.1644 21.3053 16.4164 21.7023 15.6644C21.8963 15.2994 21.7563 14.8454 21.3903 14.6514C21.0243 14.4574 20.5703 14.5984 20.3763 14.9634C19.7632 16.1204 18.6439 17.707 17.7095 18.3623Z" fill="black"/>
</svg>
