<svg width="24" height="24" viewBox="0 0 24 24" fill="none" xmlns="http://www.w3.org/2000/svg">
<path fill-rule="evenodd" clip-rule="evenodd" d="M11.7769 13.465C11.1079 13.465 10.4409 13.244 9.88289 12.802L5.39789 9.18599C5.07489 8.92599 5.02489 8.45299 5.28389 8.13099C5.54489 7.80999 6.01689 7.75899 6.33889 8.01799L10.8199 11.63C11.3829 12.076 12.1759 12.076 12.7429 11.626L17.1789 8.01999C17.5009 7.75699 17.9729 7.80699 18.2349 8.12899C18.4959 8.44999 18.4469 8.92199 18.1259 9.18399L13.6819 12.796C13.1199 13.242 12.4479 13.465 11.7769 13.465" fill="black"/>
<mask id="mask0_11_73696" style="mask-type:luminance" maskUnits="userSpaceOnUse" x="1" y="2" width="22" height="20">
<path fill-rule="evenodd" clip-rule="evenodd" d="M1 2H22.4999V21.5H1V2Z" fill="white"/>
</mask>
<g mask="url(#mask0_11_73696)">
<path fill-rule="evenodd" clip-rule="evenodd" d="M6.83891 20H16.6589C16.6609 19.998 16.6689 20 16.6749 20C17.8159 20 18.8279 19.592 19.6039 18.817C20.5049 17.92 20.9999 16.631 20.9999 15.188V8.32C20.9999 5.527 19.1739 3.5 16.6589 3.5H6.84091C4.32591 3.5 2.49991 5.527 2.49991 8.32V15.188C2.49991 16.631 2.99591 17.92 3.89591 18.817C4.67191 19.592 5.68491 20 6.82491 20H6.83891ZM6.82191 21.5C5.27891 21.5 3.90091 20.94 2.83691 19.88C1.65191 18.698 0.999908 17.032 0.999908 15.188V8.32C0.999908 4.717 3.51091 2 6.84091 2H16.6589C19.9889 2 22.4999 4.717 22.4999 8.32V15.188C22.4999 17.032 21.8479 18.698 20.6629 19.88C19.5999 20.939 18.2209 21.5 16.6749 21.5H16.6589H6.84091H6.82191Z" fill="black"/>
</g>
</svg>
