<svg width="25" height="24" viewBox="0 0 25 24" fill="none" xmlns="http://www.w3.org/2000/svg">
<path fill-rule="evenodd" clip-rule="evenodd" d="M21.4998 14.5548C20.1558 14.5548 18.8898 15.0888 17.8998 15.9438V5.20976H15.8998V15.9408C14.9128 15.0868 13.6498 14.5548 12.3098 14.5548H11.3098V16.5548H12.3098C14.1878 16.5548 15.8998 18.2688 15.8998 20.1508V21.1508H17.8998V20.1508C17.8998 18.2688 19.6158 16.5548 21.4998 16.5548H22.4998V14.5548H21.4998Z" fill="black"/>
<path fill-rule="evenodd" clip-rule="evenodd" d="M12.1902 9.44537H13.1902V7.44537H12.1902C10.3112 7.44537 8.59924 5.73137 8.59924 3.84937V2.84937H6.59924V3.84937C6.59924 5.73137 4.88324 7.44537 3.00024 7.44537H2.00024V9.44537H3.00024C4.34324 9.44537 5.61024 8.91137 6.59924 8.05637V18.7894H8.59924V8.05937C9.58624 8.91337 10.8502 9.44537 12.1902 9.44537Z" fill="black"/>
</svg>
