<svg width="25" height="24" viewBox="0 0 25 24" fill="none" xmlns="http://www.w3.org/2000/svg">
<path fill-rule="evenodd" clip-rule="evenodd" d="M18.7252 12.3085C17.5852 12.3085 16.5152 12.5385 15.6152 12.9285C18.7652 13.8385 20.9952 16.0185 21.0552 18.5685C22.6952 18.3585 24.4652 17.7385 24.4652 16.0485C24.4652 14.0185 21.8352 12.3085 18.7252 12.3085Z" fill="black"/>
<path fill-rule="evenodd" clip-rule="evenodd" d="M18.6952 10.8685H18.7152C20.8451 10.8685 22.5852 9.12855 22.5852 7.00855C22.5852 4.87855 20.8451 3.13855 18.7152 3.13855C18.2952 3.13855 17.8952 3.20855 17.5152 3.32855C18.2052 4.34855 18.6052 5.57855 18.6052 6.90855C18.6152 8.25855 18.1952 9.55855 17.4052 10.6385C17.8152 10.7885 18.2452 10.8685 18.6952 10.8685Z" fill="black"/>
<path fill-rule="evenodd" clip-rule="evenodd" d="M8.87516 12.9185C7.97516 12.5385 6.90516 12.3085 5.77516 12.3085C2.66516 12.3085 0.0351562 14.0185 0.0351562 16.0485C0.0351562 17.7385 1.79516 18.3485 3.43516 18.5685C3.48516 16.0185 5.71516 13.8385 8.87516 12.9185Z" fill="black"/>
<path fill-rule="evenodd" clip-rule="evenodd" d="M5.77516 10.8685H5.80516C6.25516 10.8685 6.68516 10.7885 7.09516 10.6385C6.33516 9.59855 5.88516 8.30855 5.88516 6.90855C5.88516 5.57855 6.28516 4.34855 6.97516 3.32855C6.59516 3.20855 6.19516 3.13855 5.77516 3.13855C3.64516 3.13855 1.91516 4.87855 1.91516 7.00855C1.91516 9.12855 3.64516 10.8685 5.77516 10.8685Z" fill="black"/>
<path fill-rule="evenodd" clip-rule="evenodd" d="M12.2448 13.9456C8.28377 13.9456 4.93677 16.1016 4.93677 18.6536C4.93677 21.9536 10.4368 21.9536 12.2448 21.9536C15.3828 21.9536 19.5548 21.6136 19.5548 18.6746C19.5548 16.1106 16.2068 13.9456 12.2448 13.9456Z" fill="black"/>
<path fill-rule="evenodd" clip-rule="evenodd" d="M12.2458 11.7746H12.2788C13.5738 11.7706 14.7898 11.2616 15.7018 10.3426C16.6148 9.42363 17.1148 8.20463 17.1098 6.91163C17.1098 4.22863 14.9288 2.04663 12.2458 2.04663C9.56375 2.04663 7.38275 4.22863 7.38275 6.91163C7.38275 9.59263 9.56375 11.7746 12.2458 11.7746Z" fill="black"/>
</svg>
