<svg width="24" height="24" viewBox="0 0 24 24" fill="none" xmlns="http://www.w3.org/2000/svg">
<path fill-rule="evenodd" clip-rule="evenodd" d="M6.36475 12.9282C6.77896 12.9282 7.11475 13.264 7.11475 13.6782C7.11475 16.395 9.31696 18.5972 12.0337 18.5972C14.7516 18.5972 16.9537 16.3949 16.9537 13.6782C16.9537 13.264 17.2895 12.9282 17.7037 12.9282C18.118 12.9282 18.4537 13.264 18.4537 13.6782C18.4537 17.2235 15.5799 20.0972 12.0337 20.0972C8.48853 20.0972 5.61475 17.2234 5.61475 13.6782C5.61475 13.264 5.95053 12.9282 6.36475 12.9282Z" fill="black"/>
<path fill-rule="evenodd" clip-rule="evenodd" d="M5.61475 8.169C5.61475 4.62379 8.48853 1.75 12.0337 1.75C15.5799 1.75 18.4537 4.6237 18.4537 8.169V10.423C18.4537 10.8372 18.118 11.173 17.7037 11.173C17.2895 11.173 16.9537 10.8372 16.9537 10.423V8.169C16.9537 5.4523 14.7516 3.25 12.0337 3.25C9.31696 3.25 7.11475 5.45221 7.11475 8.169V10.423C7.11475 10.8372 6.77896 11.173 6.36475 11.173C5.95053 11.173 5.61475 10.8372 5.61475 10.423V8.169Z" fill="black"/>
<path fill-rule="evenodd" clip-rule="evenodd" d="M12.0337 18.5977C12.4479 18.5977 12.7837 18.9334 12.7837 19.3477V21.4997C12.7837 21.9139 12.4479 22.2497 12.0337 22.2497C11.6195 22.2497 11.2837 21.9139 11.2837 21.4997V19.3477C11.2837 18.9334 11.6195 18.5977 12.0337 18.5977Z" fill="black"/>
<path fill-rule="evenodd" clip-rule="evenodd" d="M4.1499 13.6782C4.1499 13.264 4.48569 12.9282 4.8999 12.9282H19.1679C19.5821 12.9282 19.9179 13.264 19.9179 13.6782C19.9179 14.0924 19.5821 14.4282 19.1679 14.4282H4.8999C4.48569 14.4282 4.1499 14.0924 4.1499 13.6782Z" fill="black"/>
</svg>
