<svg width="24" height="24" viewBox="0 0 24 24" fill="none" xmlns="http://www.w3.org/2000/svg">
<path fill-rule="evenodd" clip-rule="evenodd" d="M11.9609 13.1387C12.3752 13.1387 12.7109 13.4745 12.7109 13.8887V16.5167C12.7109 16.9309 12.3752 17.2667 11.9609 17.2667C11.5467 17.2667 11.2109 16.9309 11.2109 16.5167V13.8887C11.2109 13.4745 11.5467 13.1387 11.9609 13.1387Z" fill="black"/>
<path fill-rule="evenodd" clip-rule="evenodd" d="M2.21767 11.0475C2.45521 10.7082 2.92286 10.6256 3.26219 10.8632L3.27398 10.8714C5.5624 12.2763 8.60498 13.1416 11.9561 13.1416C15.3051 13.1416 18.3545 12.2775 20.6432 10.8745L20.6492 10.8702C20.9847 10.6272 21.4536 10.7022 21.6965 11.0377C21.9395 11.3732 21.8645 11.8421 21.529 12.0851L21.5 12.1061C21.4849 12.117 21.4694 12.1274 21.4535 12.1372C18.9007 13.7097 15.5636 14.6416 11.9561 14.6416C8.3482 14.6416 5.02011 13.7095 2.46861 12.1371C2.45617 12.1294 2.44397 12.1214 2.432 12.113L2.402 12.092C2.06266 11.8545 1.98014 11.3868 2.21767 11.0475Z" fill="black"/>
<path fill-rule="evenodd" clip-rule="evenodd" d="M5.2638 7.5023C4.07181 8.56384 3.5 10.3338 3.5 13.3507C3.5 16.3676 4.07181 18.1376 5.2638 19.1991C6.48218 20.2842 8.53488 20.8037 11.961 20.8037C15.3877 20.8037 17.4403 20.2842 18.6586 19.1991C19.8504 18.1376 20.422 16.3677 20.422 13.3507C20.422 10.3337 19.8504 8.5638 18.6586 7.50227C17.4403 6.41726 15.3877 5.89771 11.961 5.89771C8.53488 5.89771 6.48218 6.41725 5.2638 7.5023ZM4.2662 6.38212C5.92632 4.90366 8.47912 4.39771 11.961 4.39771C15.4434 4.39771 17.9962 4.90365 19.6562 6.38214C21.3426 7.88412 21.922 10.2157 21.922 13.3507C21.922 16.4857 21.3426 18.8173 19.6562 20.3193C17.9962 21.7978 15.4434 22.3037 11.961 22.3037C8.47912 22.3037 5.92632 21.7977 4.2662 20.3193C2.57969 18.8173 2 16.4858 2 13.3507C2 10.2156 2.57969 7.88407 4.2662 6.38212Z" fill="black"/>
<path fill-rule="evenodd" clip-rule="evenodd" d="M7.94873 4.7392C7.94873 3.13717 9.13523 1.7002 10.7587 1.7002H13.1637C14.7872 1.7002 15.9737 3.13717 15.9737 4.7392V5.3692C15.9737 5.78341 15.6379 6.11919 15.2237 6.11919C14.8095 6.11919 14.4737 5.78341 14.4737 5.3692V4.7392C14.4737 3.81322 13.8142 3.2002 13.1637 3.2002H10.7587C10.1082 3.2002 9.44873 3.81322 9.44873 4.7392V5.3692C9.44873 5.78341 9.11294 6.11919 8.69873 6.11919C8.28452 6.11919 7.94873 5.78341 7.94873 5.3692V4.7392Z" fill="black"/>
</svg>
