<svg width="24" height="24" viewBox="0 0 24 24" fill="none" xmlns="http://www.w3.org/2000/svg">
<path fill-rule="evenodd" clip-rule="evenodd" d="M16.7129 9.27193C17.0403 9.52564 17.1001 9.99674 16.8464 10.3242L13.9174 14.1042C13.795 14.262 13.6148 14.3646 13.4166 14.3891C13.2183 14.4136 13.0185 14.3581 12.8614 14.2347L10.043 12.0223L7.51188 15.3112C7.25925 15.6395 6.78835 15.7008 6.46009 15.4481C6.13184 15.1955 6.07053 14.7246 6.32316 14.3964L9.31616 10.5074C9.43823 10.3487 9.61865 10.2455 9.81726 10.2206C10.0159 10.1957 10.2162 10.2512 10.3736 10.3748L13.194 12.5888L15.6607 9.4054C15.9144 9.07798 16.3855 9.01822 16.7129 9.27193Z" fill="black"/>
<path fill-rule="evenodd" clip-rule="evenodd" d="M19.6671 3.1001C19.0193 3.1001 18.4951 3.62431 18.4951 4.2721C18.4951 4.91914 19.0196 5.4441 19.6671 5.4441C20.3146 5.4441 20.8391 4.91914 20.8391 4.2721C20.8391 3.62431 20.3149 3.1001 19.6671 3.1001ZM16.9951 4.2721C16.9951 2.79588 18.1909 1.6001 19.6671 1.6001C21.1433 1.6001 22.3391 2.79588 22.3391 4.2721C22.3391 5.74706 21.1436 6.9441 19.6671 6.9441C18.1906 6.9441 16.9951 5.74706 16.9951 4.2721Z" fill="black"/>
<path fill-rule="evenodd" clip-rule="evenodd" d="M5.00366 5.60693C3.78069 6.82991 3.19971 8.87608 3.19971 12.303C3.19971 15.7304 3.7807 17.7765 5.00364 18.9994C6.22659 20.2222 8.27274 20.803 11.6997 20.803C15.1272 20.803 17.1733 20.2222 18.3961 18.9994C19.6189 17.7766 20.1997 15.7305 20.1997 12.303C20.1997 11.1973 20.14 10.2278 20.0139 9.37922C19.953 8.96951 20.2358 8.58801 20.6455 8.52712C21.0552 8.46624 21.4367 8.74902 21.4976 9.15874C21.6375 10.1001 21.6997 11.1467 21.6997 12.303C21.6997 15.8135 21.1245 18.3924 19.4568 20.0601C17.7891 21.7277 15.2102 22.303 11.6997 22.303C8.18967 22.303 5.61082 21.7277 3.94303 20.0601C2.27521 18.3924 1.69971 15.8135 1.69971 12.303C1.69971 8.79288 2.27522 6.21405 3.943 4.54627C5.61078 2.8785 8.18961 2.30298 11.6997 2.30298C12.8348 2.30298 13.8633 2.36321 14.7904 2.49775C15.2003 2.55724 15.4844 2.93777 15.4249 3.34769C15.3654 3.75761 14.9849 4.04169 14.575 3.9822C13.7381 3.86075 12.7847 3.80298 11.6997 3.80298C8.27281 3.80298 6.22663 4.38396 5.00366 5.60693Z" fill="black"/>
</svg>
