<svg width="24" height="24" viewBox="0 0 24 24" fill="none" xmlns="http://www.w3.org/2000/svg">
<path d="M13.0197 10.892H15.7927C16.2067 10.892 16.5427 10.556 16.5427 10.142C16.5427 9.72803 16.2067 9.39203 15.7927 9.39203H13.0197C12.6047 9.39203 12.2697 9.72803 12.2697 10.142C12.2697 10.556 12.6047 10.892 13.0197 10.892Z" fill="black"/>
<path fill-rule="evenodd" clip-rule="evenodd" d="M12.3316 17.8023C12.5806 17.8093 12.8356 17.8133 13.0976 17.8133C15.0606 17.8133 17.3146 17.5823 18.8776 16.3673C20.5976 15.0303 21.7526 11.8943 21.4516 9.37534C21.2516 7.69834 20.4156 6.44834 19.0986 5.85534C18.1456 5.42534 17.1166 5.45834 16.2106 5.48934L16.2016 5.48964C16.0267 5.49554 15.8537 5.50137 15.6826 5.50334C14.6046 5.51734 13.5256 5.55034 12.4466 5.58834C10.4216 5.6602 8.39753 5.75597 6.37249 5.85178L6.3606 5.85234L6.3166 5.85434C6.3176 5.70234 6.3166 5.55234 6.3136 5.40534C6.3676 3.35334 4.5816 2.54234 3.6296 2.40034C3.2256 2.33634 2.8386 2.62134 2.7766 3.03134C2.7166 3.44134 2.9986 3.82234 3.4086 3.88334C3.4676 3.89234 4.8476 4.11334 4.8136 5.40334C4.8346 6.27134 4.7606 7.25034 4.6816 8.28634L4.68147 8.28802C4.4525 11.3076 4.19302 14.7296 6.4536 16.3393C8.1506 17.5483 10.4866 17.7563 12.3316 17.8023ZM6.18538 8.2984C6.20974 7.97954 6.23372 7.66572 6.2536 7.35934L6.4326 7.35134C8.4546 7.25534 10.4776 7.15934 12.4996 7.08734C13.5666 7.04934 14.6356 7.01734 15.7016 7.00334C15.8817 7.0004 16.0637 6.99459 16.2476 6.98872L16.2596 6.98834L16.2779 6.98778C17.0861 6.96297 17.8514 6.93948 18.4826 7.22334C19.3256 7.60234 19.8226 8.38634 19.9626 9.55234C20.1986 11.5383 19.2626 14.1693 17.9576 15.1823C16.5456 16.2803 14.0946 16.3493 12.3696 16.3033C10.7376 16.2623 8.6906 16.0903 7.3246 15.1183C5.7526 13.9983 5.9686 11.1523 6.1776 8.40034L6.18538 8.2984Z" fill="black"/>
<path d="M5.98792 20.3129C5.98792 21.0269 6.56892 21.6079 7.28392 21.6079C7.99792 21.6079 8.57792 21.0269 8.57792 20.3129C8.57792 19.5999 7.99792 19.0189 7.28392 19.0189C6.56892 19.0189 5.98792 19.5999 5.98792 20.3129Z" fill="black"/>
<path d="M16.32 20.3129C16.32 21.0269 16.901 21.6079 17.615 21.6079C18.329 21.6079 18.91 21.0269 18.91 20.3129C18.91 19.5999 18.329 19.0189 17.615 19.0189C16.901 19.0189 16.32 19.5999 16.32 20.3129Z" fill="black"/>
</svg>
