<svg width="25" height="24" viewBox="0 0 25 24" fill="none" xmlns="http://www.w3.org/2000/svg">
<path fill-rule="evenodd" clip-rule="evenodd" d="M20.1968 5.40848C19.9668 5.06448 19.4988 4.97148 19.1558 5.20348C18.8118 5.43348 18.7198 5.89948 18.9508 6.24448C21.2618 9.69148 21.2618 14.3215 18.9508 17.7655C18.7198 18.1095 18.8118 18.5755 19.1558 18.8065C19.2838 18.8925 19.4288 18.9335 19.5728 18.9335C19.8148 18.9335 20.0518 18.8175 20.1968 18.6015C22.8428 14.6585 22.8428 9.35648 20.1968 5.40848Z" fill="black"/>
<path fill-rule="evenodd" clip-rule="evenodd" d="M16.7647 7.61255C16.4017 7.81155 16.2697 8.26855 16.4707 8.63155C17.6207 10.7165 17.6207 13.3015 16.4707 15.3785C16.2697 15.7405 16.4017 16.1965 16.7637 16.3975C16.8787 16.4615 17.0037 16.4916 17.1267 16.4916C17.3897 16.4916 17.6457 16.3516 17.7837 16.1046C19.1807 13.5816 19.1817 10.4395 17.7837 7.90655C17.5827 7.54355 17.1267 7.41255 16.7647 7.61255Z" fill="black"/>
<path fill-rule="evenodd" clip-rule="evenodd" d="M12.5435 5.11848C10.8375 4.10348 9.2685 5.30848 8.1225 6.18548C7.6525 6.54548 7.2085 6.88548 6.8715 6.99648C6.4135 7.14648 6.0185 7.19448 5.6355 7.24048C4.9685 7.31948 4.2795 7.40148 3.5245 8.04248C2.3155 9.06948 2.3175 10.6975 2.3195 12.0055C2.3175 13.3125 2.3155 14.9405 3.5255 15.9685C4.2795 16.6085 4.9685 16.6905 5.6355 16.7695C6.0185 16.8155 6.4135 16.8635 6.8715 17.0145C7.2085 17.1255 7.6515 17.4655 8.1215 17.8245C8.9525 18.4615 10.0065 19.2685 11.1885 19.2685C11.6355 19.2685 12.1005 19.1535 12.5785 18.8695C13.9445 17.8985 14.4285 16.1015 14.4285 12.0055C14.4285 7.85448 13.9615 6.12248 12.5435 5.11848Z" fill="black"/>
</svg>
