<svg width="24" height="24" viewBox="0 0 24 24" fill="none" xmlns="http://www.w3.org/2000/svg">
<path d="M9.00725 6.64209C11.3173 6.53309 14.4853 6.26709 15.5583 6.25309C16.5833 6.24009 17.6933 6.10609 18.6563 6.53909C21.9593 8.02609 20.5663 14.0011 18.2833 15.7751C16.6923 17.0111 14.1483 17.1031 12.2173 17.0531C10.4253 17.0081 8.26325 16.8031 6.75525 15.7291C4.15625 13.8781 5.51425 8.83409 5.42925 5.38509C5.48025 3.45509 3.38525 3.14209 3.38525 3.14209" stroke="black" stroke-width="1.5" stroke-linecap="round" stroke-linejoin="round"/>
<path d="M12.8853 10.1421H15.6583" stroke="black" stroke-width="1.5" stroke-linecap="round" stroke-linejoin="round"/>
<path fill-rule="evenodd" clip-rule="evenodd" d="M7.149 19.769C7.449 19.769 7.693 20.013 7.693 20.313C7.693 20.614 7.449 20.858 7.149 20.858C6.848 20.858 6.604 20.614 6.604 20.313C6.604 20.013 6.848 19.769 7.149 19.769Z" fill="black"/>
<path fill-rule="evenodd" clip-rule="evenodd" d="M7.149 19.769C7.449 19.769 7.693 20.013 7.693 20.313C7.693 20.614 7.449 20.858 7.149 20.858C6.848 20.858 6.604 20.614 6.604 20.313C6.604 20.013 6.848 19.769 7.149 19.769Z" stroke="black" stroke-width="1.5" stroke-linecap="round" stroke-linejoin="round"/>
<path fill-rule="evenodd" clip-rule="evenodd" d="M17.48 19.769C17.781 19.769 18.025 20.013 18.025 20.313C18.025 20.614 17.781 20.858 17.48 20.858C17.18 20.858 16.936 20.614 16.936 20.313C16.936 20.013 17.18 19.769 17.48 19.769Z" fill="black"/>
<path fill-rule="evenodd" clip-rule="evenodd" d="M17.48 19.769C17.781 19.769 18.025 20.013 18.025 20.313C18.025 20.614 17.781 20.858 17.48 20.858C17.18 20.858 16.936 20.614 16.936 20.313C16.936 20.013 17.18 19.769 17.48 19.769Z" stroke="black" stroke-width="1.5" stroke-linecap="round" stroke-linejoin="round"/>
</svg>
