<svg width="24" height="24" viewBox="0 0 24 24" fill="none" xmlns="http://www.w3.org/2000/svg">
<path fill-rule="evenodd" clip-rule="evenodd" d="M0.700195 12.8003C0.700195 12.3861 1.03598 12.0503 1.4502 12.0503H22.5822C22.9964 12.0503 23.3322 12.3861 23.3322 12.8003C23.3322 13.2145 22.9964 13.5503 22.5822 13.5503H1.4502C1.03598 13.5503 0.700195 13.2145 0.700195 12.8003Z" fill="black"/>
<path fill-rule="evenodd" clip-rule="evenodd" d="M9.50635 2.82884C9.5733 3.2376 9.2962 3.62325 8.88744 3.6902C7.24382 3.95942 6.10982 4.48461 5.32029 5.27415C4.53075 6.06368 4.00556 7.19767 3.73635 8.84129C3.66939 9.25006 3.28375 9.52716 2.87498 9.4602C2.46621 9.39325 2.18912 9.0076 2.25607 8.59884C2.55686 6.76246 3.17666 5.29645 4.25963 4.21349C5.34259 3.13052 6.8086 2.51071 8.64498 2.20993C9.05375 2.14298 9.43939 2.42007 9.50635 2.82884Z" fill="black"/>
<path fill-rule="evenodd" clip-rule="evenodd" d="M2.76831 12.0544C3.18242 12.0451 3.52566 12.3732 3.53497 12.7874C3.55387 13.6285 3.61774 14.3842 3.7263 15.0487C3.73018 15.0652 3.73352 15.082 3.7363 15.099C4.00546 16.7423 4.53051 17.8737 5.31989 18.662C6.1097 19.4508 7.24435 19.9762 8.88946 20.2504C9.29804 20.3185 9.57405 20.7049 9.50596 21.1135C9.43786 21.5221 9.05144 21.7981 8.64286 21.73C6.80797 21.4242 5.34262 20.8046 4.25993 19.7234C3.18752 18.6524 2.56916 17.207 2.26504 15.3958C2.26139 15.3802 2.25821 15.3645 2.25553 15.3485C2.12726 14.5852 2.05596 13.7382 2.03535 12.8211C2.02604 12.4069 2.3542 12.0637 2.76831 12.0544Z" fill="black"/>
<path fill-rule="evenodd" clip-rule="evenodd" d="M21.2616 12.0544C21.6757 12.0637 22.0039 12.4069 21.9946 12.8211C21.9744 13.719 21.9047 14.5486 21.7827 15.2977C21.7812 15.3123 21.7793 15.327 21.7768 15.3416C21.4755 17.1783 20.8553 18.6418 19.7721 19.7234C18.6893 20.8046 17.2239 21.4242 15.389 21.73C14.9805 21.7981 14.594 21.5221 14.5259 21.1135C14.4579 20.7049 14.7339 20.3185 15.1424 20.2504C16.7875 19.9762 17.9222 19.4508 18.7122 18.662C19.4942 17.8811 20.0169 16.7637 20.2888 15.1457C20.2904 15.1308 20.2925 15.1158 20.2949 15.1009C20.4079 14.423 20.4756 13.6494 20.4949 12.7874C20.5042 12.3732 20.8475 12.0451 21.2616 12.0544Z" fill="black"/>
<path fill-rule="evenodd" clip-rule="evenodd" d="M14.5261 2.82884C14.593 2.42007 14.9787 2.14298 15.3875 2.20993C17.2238 2.51071 18.6898 3.13052 19.7728 4.21349C20.8558 5.29645 21.4756 6.76246 21.7764 8.59884C21.8433 9.0076 21.5662 9.39325 21.1575 9.4602C20.7487 9.52716 20.363 9.25006 20.2961 8.84129C20.0269 7.19767 19.5017 6.06368 18.7121 5.27415C17.9226 4.48461 16.7886 3.95942 15.145 3.6902C14.7362 3.62325 14.4591 3.2376 14.5261 2.82884Z" fill="black"/>
</svg>
