<svg width="24" height="24" viewBox="0 0 24 24" fill="none" xmlns="http://www.w3.org/2000/svg">
<path fill-rule="evenodd" clip-rule="evenodd" d="M10.3395 7.70213C9.96212 7.98625 9.50999 8.31008 9.04916 8.46158L9.04772 8.46206C8.47342 8.64958 7.94758 8.71266 7.55076 8.76026C7.4383 8.77376 7.3362 8.786 7.2463 8.79949C6.83903 8.86058 6.53322 8.95067 6.16893 9.26016C5.83212 9.54629 5.63649 9.94596 5.52997 10.4645C5.42072 10.9964 5.41772 11.5862 5.42226 12.2084L5.42234 12.2193L5.42226 12.2193C5.41772 12.8415 5.42072 13.4313 5.52997 13.9631C5.63635 14.4811 5.83162 14.8804 6.16762 15.1664C6.49694 15.4432 6.77572 15.5397 7.10821 15.5992C7.25489 15.6254 7.4007 15.6426 7.57816 15.6636C7.62905 15.6696 7.68255 15.6759 7.73942 15.6829C7.9831 15.7126 8.26292 15.751 8.57242 15.8226C8.97597 15.916 9.22741 16.3188 9.13403 16.7224C9.04064 17.1259 8.6378 17.3774 8.23425 17.284C8.00244 17.2304 7.78455 17.1995 7.55794 17.1718C7.51548 17.1667 7.47143 17.1615 7.42622 17.1562C7.2424 17.1345 7.03925 17.1106 6.84426 17.0758C6.31378 16.9809 5.77418 16.7958 5.20041 16.3129L5.19775 16.3107C4.5235 15.7379 4.20913 14.9878 4.06065 14.2649C3.91534 13.5575 3.91788 12.8165 3.92226 12.2138C3.91788 11.6112 3.91534 10.8702 4.06065 10.1627C4.20913 9.43988 4.5235 8.68981 5.19775 8.117C5.84451 7.56753 6.44685 7.40263 7.02379 7.31608C7.18073 7.29254 7.3248 7.27507 7.46301 7.2583C7.8328 7.21344 8.16072 7.17366 8.5813 7.03641C8.77357 6.97302 9.04045 6.80256 9.43739 6.50374C9.52372 6.43875 9.61577 6.36805 9.71229 6.29392C10.0167 6.06012 10.3655 5.7922 10.7196 5.56158C11.6565 4.95134 12.9661 4.37896 14.3678 5.2064C14.3854 5.2168 14.4026 5.22791 14.4193 5.23972C15.5109 6.01099 16.0322 7.23455 16.2363 9.39649C16.2753 9.80887 15.9725 10.1747 15.5602 10.2137C15.1478 10.2526 14.7819 9.94988 14.743 9.5375C14.5563 7.56077 14.122 6.87767 13.5792 6.48305C12.9586 6.13113 12.3416 6.29524 11.5383 6.81847C11.2375 7.01435 10.9563 7.23024 10.6633 7.45523C10.5574 7.53651 10.45 7.61898 10.3395 7.70213Z" fill="black"/>
<path fill-rule="evenodd" clip-rule="evenodd" d="M15.6084 12.9224C16.0223 12.9385 16.3448 13.287 16.3288 13.7009C16.2116 16.7293 15.691 18.2755 14.421 19.1776C14.4045 19.1893 14.3876 19.2003 14.3702 19.2107C12.9336 20.0652 11.5884 19.4379 10.6495 18.8025C10.3065 18.5703 10.2166 18.104 10.4488 17.761C10.6809 17.418 11.1472 17.3281 11.4903 17.5602C12.3118 18.1162 12.9468 18.2969 13.5776 17.9365C14.2106 17.4736 14.716 16.5882 14.8299 13.6429C14.8459 13.229 15.1945 12.9064 15.6084 12.9224Z" fill="black"/>
<path fill-rule="evenodd" clip-rule="evenodd" d="M20.8155 4.14057C21.1084 4.43346 21.1084 4.90834 20.8155 5.20123L5.47076 20.546C5.17787 20.8389 4.70299 20.8389 4.4101 20.546C4.11721 20.2531 4.11721 19.7782 4.4101 19.4853L19.7548 4.14057C20.0477 3.84768 20.5226 3.84768 20.8155 4.14057Z" fill="black"/>
</svg>
