<svg width="25" height="25" viewBox="0 0 25 25" fill="none" xmlns="http://www.w3.org/2000/svg">
<path fill-rule="evenodd" clip-rule="evenodd" d="M17.62 7.51458H16.07C15.57 5.88458 14.05 4.69458 12.25 4.69458C10.45 4.69458 8.92997 5.88458 8.42997 7.51458H6.87997C7.41997 5.04458 9.62997 3.19458 12.25 3.19458C14.87 3.19458 17.08 5.04458 17.62 7.51458Z" fill="black"/>
<path fill-rule="evenodd" clip-rule="evenodd" d="M22.04 7.51458L20.9 21.8746H3.59996L2.45996 7.51458L6.87997 7.51458C6.78997 7.89458 6.74996 8.28458 6.74996 8.69458V10.5546H8.24996V8.69458C8.24996 8.28458 8.30997 7.89458 8.42997 7.51458H16.07C16.19 7.89458 16.25 8.28458 16.25 8.69458V10.5546H17.75V8.69458C17.75 8.28458 17.71 7.89458 17.62 7.51458L22.04 7.51458Z" fill="black"/>
</svg>
