<svg width="24" height="24" viewBox="0 0 24 24" fill="none" xmlns="http://www.w3.org/2000/svg">
<mask id="mask0_11_73261" style="mask-type:luminance" maskUnits="userSpaceOnUse" x="2" y="5" width="16" height="16">
<path fill-rule="evenodd" clip-rule="evenodd" d="M2.00018 5.00049H17.5005V20.5018H2.00018V5.00049Z" fill="white"/>
</mask>
<g mask="url(#mask0_11_73261)">
<path fill-rule="evenodd" clip-rule="evenodd" d="M6.84729 6.50183C6.40829 6.50183 6.12529 6.50183 6.07629 6.50383C5.33829 6.53483 4.65729 6.84783 4.16629 7.38383C3.70829 7.88483 3.47229 8.52483 3.50329 9.18883C3.50329 12.0818 3.50429 16.4238 3.51129 16.6618C3.62529 18.0468 4.92329 19.1058 6.40929 18.9918C9.15929 18.9958 13.2333 19.0048 13.4243 18.9978C14.1593 18.9678 14.8413 18.6558 15.3323 18.1208C15.7913 17.6218 16.0273 16.9818 15.9983 16.3208C15.9973 16.3098 15.9973 16.2988 15.9973 16.2878C15.9983 13.4278 15.9983 9.08883 15.9913 8.85583C15.8783 7.46383 14.5743 6.39183 13.0803 6.50883C11.0143 6.50583 8.19529 6.50183 6.84729 6.50183M6.14629 20.5018C4.03229 20.5028 2.18829 18.8828 2.01429 16.7578C2.01129 16.7168 2.00129 16.5918 2.00429 9.22283C1.95629 8.19183 2.33029 7.16783 3.06029 6.37083C3.82229 5.53883 4.87329 5.05383 6.02029 5.00483C6.15929 4.99483 10.9673 5.00683 13.0263 5.01083C15.2763 4.85283 17.3073 6.52283 17.4883 8.76383C17.4963 8.87283 17.4993 11.3978 17.4973 16.2728C17.5393 17.3288 17.1633 18.3458 16.4373 19.1358C15.6743 19.9668 14.6223 20.4498 13.4763 20.4968C13.3363 20.5068 8.52629 20.4938 6.46429 20.4898C6.35829 20.4978 6.25229 20.5018 6.14629 20.5018" fill="black"/>
</g>
<path fill-rule="evenodd" clip-rule="evenodd" d="M20.8185 18.3493C20.3675 18.3493 19.9225 18.1943 19.5555 17.8933L16.2745 15.1973C15.9545 14.9343 15.9085 14.4613 16.1715 14.1413C16.4335 13.8223 16.9065 13.7743 17.2265 14.0383L20.5065 16.7343C20.7275 16.9143 20.9495 16.8403 21.0355 16.7983C21.1215 16.7583 21.3205 16.6333 21.3205 16.3493L21.3325 9.00031C21.3335 8.71631 21.1335 8.59131 21.0475 8.55031C20.9625 8.51031 20.7375 8.43531 20.5185 8.61531L17.2255 11.3103C16.9035 11.5733 16.4325 11.5263 16.1705 11.2043C15.9075 10.8843 15.9555 10.4123 16.2755 10.1503L19.5685 7.45431C20.1725 6.95931 20.9855 6.86231 21.6905 7.19531C22.3955 7.53031 22.8335 8.22231 22.8325 9.00231L22.8205 16.3513C22.8195 17.1313 22.3805 17.8233 21.6765 18.1553C21.4005 18.2863 21.1085 18.3493 20.8185 18.3493" fill="black"/>
</svg>
