<svg width="24" height="24" viewBox="0 0 24 24" fill="none" xmlns="http://www.w3.org/2000/svg">
<path d="M4.30212 15.7251C3.31812 14.5461 2.74512 13.2201 2.74512 12.0031C2.74512 8.72313 6.88512 4.70312 11.9951 4.70312C14.0851 4.70312 16.0251 5.37313 17.5851 6.41313" stroke="black" stroke-width="1.5" stroke-linecap="round" stroke-linejoin="round"/>
<path d="M19.8452 8.47266C20.7362 9.60266 21.2552 10.8527 21.2552 12.0027C21.2552 15.2827 17.1052 19.3027 11.9952 19.3027C11.0852 19.3027 10.1962 19.1727 9.36523 18.9427" stroke="black" stroke-width="1.5" stroke-linecap="round" stroke-linejoin="round"/>
<path d="M9.76096 14.23C9.16596 13.641 8.83296 12.838 8.83596 12.001C8.83196 10.256 10.244 8.83796 11.99 8.83496" stroke="black" stroke-width="1.5" stroke-linecap="round" stroke-linejoin="round"/>
<path d="M15.1054 12.562C14.8714 13.854 13.8604 14.867 12.5684 15.104" stroke="black" stroke-width="1.5" stroke-linecap="round" stroke-linejoin="round"/>
<path d="M19.8873 4.11279L4.11328 19.8868" stroke="black" stroke-width="1.5" stroke-linecap="round" stroke-linejoin="round"/>
</svg>
