<svg width="24" height="24" viewBox="0 0 24 24" fill="none" xmlns="http://www.w3.org/2000/svg">
<path fill-rule="evenodd" clip-rule="evenodd" d="M6.60352 13.0825C7.01773 13.0825 7.35352 13.4183 7.35352 13.8325C7.35352 16.3927 9.42874 18.4681 11.99 18.4681C14.5503 18.4681 16.6256 16.3928 16.6256 13.8325C16.6256 13.4183 16.9614 13.0825 17.3756 13.0825C17.7898 13.0825 18.1256 13.4183 18.1256 13.8325C18.1256 17.2212 15.3787 19.9681 11.99 19.9681C8.60049 19.9681 5.85352 17.2213 5.85352 13.8325C5.85352 13.4183 6.1893 13.0825 6.60352 13.0825Z" fill="black"/>
<path fill-rule="evenodd" clip-rule="evenodd" d="M5.85352 8.59844C5.85352 5.20969 8.60049 2.46289 11.99 2.46289C15.3787 2.46289 18.1256 5.20978 18.1256 8.59844V10.7397C18.1256 11.154 17.7898 11.4897 17.3756 11.4897C16.9614 11.4897 16.6256 11.154 16.6256 10.7397V8.59844C16.6256 6.0382 14.5503 3.96289 11.99 3.96289C9.42874 3.96289 7.35352 6.03829 7.35352 8.59844V10.7397C7.35352 11.154 7.01773 11.4897 6.60352 11.4897C6.1893 11.4897 5.85352 11.154 5.85352 10.7397V8.59844Z" fill="black"/>
<path fill-rule="evenodd" clip-rule="evenodd" d="M11.9897 18.4683C12.404 18.4683 12.7397 18.804 12.7397 19.2183V21.2627C12.7397 21.6769 12.404 22.0127 11.9897 22.0127C11.5755 22.0127 11.2397 21.6769 11.2397 21.2627V19.2183C11.2397 18.804 11.5755 18.4683 11.9897 18.4683Z" fill="black"/>
<path fill-rule="evenodd" clip-rule="evenodd" d="M4.46191 13.8325C4.46191 13.4183 4.7977 13.0825 5.21191 13.0825H18.7675C19.1817 13.0825 19.5175 13.4183 19.5175 13.8325C19.5175 14.2467 19.1817 14.5825 18.7675 14.5825H5.21191C4.7977 14.5825 4.46191 14.2467 4.46191 13.8325Z" fill="black"/>
<path fill-rule="evenodd" clip-rule="evenodd" d="M9.74707 10.4517C9.74707 10.0374 10.0829 9.70166 10.4971 9.70166H13.482C13.8962 9.70166 14.232 10.0374 14.232 10.4517C14.232 10.8659 13.8962 11.2017 13.482 11.2017H10.4971C10.0829 11.2017 9.74707 10.8659 9.74707 10.4517Z" fill="black"/>
<path fill-rule="evenodd" clip-rule="evenodd" d="M10.7378 7.68213C10.7378 7.26792 11.0736 6.93213 11.4878 6.93213H12.491C12.9052 6.93213 13.241 7.26792 13.241 7.68213C13.241 8.09634 12.9052 8.43213 12.491 8.43213H11.4878C11.0736 8.43213 10.7378 8.09634 10.7378 7.68213Z" fill="black"/>
</svg>
