<svg width="24" height="24" viewBox="0 0 24 24" fill="none" xmlns="http://www.w3.org/2000/svg">
<path d="M18.6843 13.8052C18.7463 13.6932 18.7743 13.5712 18.7743 13.4512C18.7743 13.1832 18.6313 12.9262 18.3803 12.7902C18.0153 12.5942 17.5603 12.7292 17.3643 13.0942C16.3493 14.9754 14.3576 17.8052 12.75 18.5598L12.75 4.49976C12.75 4.08576 12.414 3.74976 12 3.74976C11.586 3.74976 11.25 4.08576 11.25 4.49976L11.25 18.5581C9.64085 17.8012 7.65043 14.9741 6.63529 13.0942C6.43829 12.7292 5.98429 12.5942 5.61929 12.7902C5.25529 12.9872 5.12029 13.4442 5.31529 13.8052C5.67029 14.4662 8.87929 20.2502 12.0023 20.2502C15.1213 20.2502 18.3293 14.4662 18.6843 13.8052Z" fill="black"/>
</svg>
