<svg width="25" height="24" viewBox="0 0 25 24" fill="none" xmlns="http://www.w3.org/2000/svg">
<path fill-rule="evenodd" clip-rule="evenodd" d="M21.7156 2.74131C21.6686 2.65331 21.5976 2.58131 21.5096 2.53431C19.4236 1.42431 6.94457 5.29231 3.71658 7.15431C2.87558 7.63931 2.50058 8.20931 2.60358 8.84531C2.90058 10.6873 7.86357 12.0833 10.5566 12.7083L15.6136 7.65231C15.9066 7.35931 16.3816 7.35931 16.6746 7.65231C16.9676 7.94531 16.9676 8.42031 16.6746 8.71331L11.5686 13.8173C12.2096 16.5383 13.5906 21.3533 15.4036 21.6453C15.4716 21.6563 15.5396 21.6623 15.6066 21.6623C16.1606 21.6623 16.6606 21.2823 17.0936 20.5323C18.9556 17.3073 22.8266 4.83031 21.7156 2.74131Z" fill="black"/>
</svg>
