<svg width="24" height="24" viewBox="0 0 24 24" fill="none" xmlns="http://www.w3.org/2000/svg">
<path d="M21.0003 6.70623C21.0003 8.73523 19.3553 10.3802 17.3273 10.3802C15.2983 10.3802 13.6543 8.73523 13.6543 6.70623C13.6543 4.67723 15.2983 3.03223 17.3273 3.03223C18.0643 3.03223 18.7513 3.25023 19.3263 3.62423" stroke="black" stroke-width="1.5" stroke-linecap="round" stroke-linejoin="round"/>
<path fill-rule="evenodd" clip-rule="evenodd" d="M10.347 6.70623C10.347 8.73523 8.702 10.3802 6.673 10.3802C4.645 10.3802 3 8.73523 3 6.70623C3 4.67723 4.645 3.03223 6.673 3.03223C8.702 3.03223 10.347 4.67723 10.347 6.70623Z" stroke="black" stroke-width="1.5" stroke-linecap="round" stroke-linejoin="round"/>
<path fill-rule="evenodd" clip-rule="evenodd" d="M21.0003 17.2946C21.0003 19.3236 19.3553 20.9676 17.3273 20.9676C15.2983 20.9676 13.6543 19.3236 13.6543 17.2946C13.6543 15.2656 15.2983 13.6206 17.3273 13.6206C19.3553 13.6206 21.0003 15.2656 21.0003 17.2946Z" stroke="black" stroke-width="1.5" stroke-linecap="round" stroke-linejoin="round"/>
<path d="M3.484 19.1176C3.176 18.5806 3 17.9576 3 17.2946C3 15.2656 4.645 13.6206 6.673 13.6206C8.702 13.6206 10.347 15.2656 10.347 17.2946C10.347 19.3226 8.702 20.9676 6.673 20.9676" stroke="black" stroke-width="1.5" stroke-linecap="round" stroke-linejoin="round"/>
</svg>
