<svg width="24" height="24" viewBox="0 0 24 24" fill="none" xmlns="http://www.w3.org/2000/svg">
<path d="M20.7846 3.21967C21.0774 2.92678 21.5523 2.92678 21.8452 3.21967C22.1115 3.48594 22.1357 3.9026 21.9178 4.19621L21.8452 4.28033L15.8452 10.2803C15.5523 10.5732 15.0774 10.5732 14.7846 10.2803C14.5183 10.0141 14.4941 9.5974 14.7119 9.30379L14.7846 9.21967L20.7846 3.21967Z" fill="black"/>
<path d="M14.7846 3.21967C15.0508 2.9534 15.4675 2.9292 15.7611 3.14705L15.8452 3.21967L21.8452 9.21967C22.1381 9.51256 22.1381 9.98744 21.8452 10.2803C21.5789 10.5466 21.1623 10.5708 20.8687 10.3529L20.7846 10.2803L14.7846 4.28033C14.4917 3.98744 14.4917 3.51256 14.7846 3.21967Z" fill="black"/>
<path fill-rule="evenodd" clip-rule="evenodd" d="M2.47103 3.82955L2.54358 3.75374C4.471 1.82614 5.72616 1.31521 7.06538 2.08532C7.45061 2.30685 7.81176 2.61693 8.30285 3.11571L9.80923 4.67773C10.6413 5.58563 10.8304 6.45648 10.5595 7.47635L10.5222 7.61137L10.4807 7.74562L10.2793 8.33644C9.84833 9.66142 10.0283 10.409 11.5618 11.9421C13.1565 13.5364 13.9009 13.6668 15.3281 13.1681L15.5824 13.0797L15.89 12.9798L16.0246 12.9424C17.1086 12.6532 18.0243 12.884 18.9955 13.8545L20.2092 15.0269L20.5665 15.3783C20.9626 15.7822 21.2244 16.1023 21.4178 16.4406C22.1831 17.7794 21.6716 19.0338 19.6886 21.0094L19.5 21.2006C19.2039 21.4859 18.9273 21.6903 18.5209 21.8833C17.8388 22.2072 17.0329 22.3293 16.0965 22.199C13.789 21.8781 10.8625 20.0575 7.15419 16.3502C6.85233 16.0484 6.56321 15.7524 6.28656 15.4622L5.74979 14.8893C0.719935 9.42454 0.2762 6.06758 2.33749 3.9622L2.47103 3.82955ZM7.08873 4.02262C6.76293 3.70143 6.52627 3.50564 6.31763 3.38566C5.8561 3.12026 5.35781 3.23244 4.43561 4.02617L4.14584 4.28504C4.0953 4.3317 4.0436 4.38013 3.99069 4.43038L3.65842 4.75401L3.62848 4.79142L3.40322 5.01773C2.85887 5.57374 2.60102 6.25234 2.82322 7.41937C3.18782 9.33439 4.85673 11.9322 8.21472 15.2894C11.7136 18.7873 14.3795 20.4458 16.3031 20.7133C17.4245 20.8693 17.9965 20.5977 18.5799 20.0001L19.0247 19.5512C19.2333 19.3329 19.4115 19.135 19.5621 18.9543L19.7674 18.6956C20.292 17.9968 20.3399 17.5775 20.1156 17.185C20.0302 17.0356 19.906 16.8719 19.7252 16.6717L19.48 16.4127L19.3348 16.2675L17.8036 14.7889C17.2919 14.317 16.9422 14.2501 16.4113 14.3917L16.258 14.4358L15.6237 14.6511C13.7836 15.2454 12.4561 14.9572 10.5012 13.0029C8.47661 10.9787 8.23916 9.62707 8.91753 7.68087L8.96105 7.55581L9.08139 7.19323L9.14054 6.96213C9.24545 6.45916 9.12568 6.10847 8.585 5.56771C8.56274 5.54544 8.53786 5.52036 8.51079 5.4929L7.08873 4.02262Z" fill="black"/>
</svg>
