<svg width="24" height="24" viewBox="0 0 24 24" fill="none" xmlns="http://www.w3.org/2000/svg">
<path d="M12 18.9748C13.866 18.9748 15.771 21.9938 17.541 20.6598C19.311 19.3248 17.241 16.6428 17.66 14.7338C18.079 12.8238 21.468 12.0688 20.945 9.8438C20.423 7.6198 16.653 9.0528 15.442 7.7998" stroke="black" stroke-width="1.5" stroke-linecap="round" stroke-linejoin="round"/>
<path d="M14.1282 5.16151C13.6542 4.02151 13.0922 2.99951 12.0002 2.99951C9.96418 2.99951 9.77118 6.54651 8.55918 7.79951C7.34718 9.05251 3.57818 7.61951 3.05518 9.84351C2.53218 12.0685 5.92218 12.8235 6.34018 14.7335C6.76118 16.6425 4.68918 19.3245 6.45918 20.6595C7.41218 21.3785 8.40518 20.8345 9.40918 20.1785" stroke="black" stroke-width="1.5" stroke-linecap="round" stroke-linejoin="round"/>
</svg>
