<svg width="25" height="25" viewBox="0 0 25 25" fill="none" xmlns="http://www.w3.org/2000/svg">
<path fill-rule="evenodd" clip-rule="evenodd" d="M16.6411 11.784C15.6551 13.478 14.0071 14.522 12.3281 14.522C12.2811 14.522 12.2341 14.522 12.1861 14.522C10.5321 14.522 8.88409 13.478 7.89809 11.784L7.52009 11.136L8.81709 10.381L9.19409 11.029C9.76409 12.008 10.8501 13.073 12.2571 13.021C13.6741 13.065 14.7751 12.009 15.3451 11.029L15.7221 10.381L17.0181 11.136L16.6411 11.784ZM17.6901 3.50899C15.5931 2.83299 13.6841 3.39599 12.2501 5.09399C10.8151 3.39599 8.90609 2.83299 6.80909 3.50899C4.16309 4.36199 2.51209 6.75399 2.50009 9.74999C2.47509 14.884 7.41609 18.906 12.0481 20.957L12.2511 21.047L12.4541 20.957C17.0851 18.905 22.0251 14.883 22.0001 9.74899C21.9881 6.75299 20.3371 4.36199 17.6901 3.50899Z" fill="black"/>
</svg>
