<svg width="24" height="24" viewBox="0 0 24 24" fill="none" xmlns="http://www.w3.org/2000/svg">
<path fill-rule="evenodd" clip-rule="evenodd" d="M12 3.5C7.30616 3.5 3.5 7.30527 3.5 12C3.5 16.6938 7.30621 20.5 12 20.5C16.6947 20.5 20.5 16.6938 20.5 12C20.5 7.30521 16.6948 3.5 12 3.5ZM2 12C2 6.47673 6.47784 2 12 2C17.5232 2 22 6.47679 22 12C22 17.5222 17.5233 22 12 22C6.47779 22 2 17.5222 2 12Z" fill="black"/>
<path fill-rule="evenodd" clip-rule="evenodd" d="M11.6611 7.09619C12.0753 7.09619 12.4111 7.43198 12.4111 7.84619V11.9553L16.2034 12.0173C16.6175 12.0241 16.9478 12.3653 16.941 12.7794C16.9343 13.1936 16.593 13.5239 16.1789 13.5171L11.6489 13.4431C11.2395 13.4364 10.9111 13.1026 10.9111 12.6932V7.84619C10.9111 7.43198 11.2469 7.09619 11.6611 7.09619Z" fill="black"/>
</svg>
