<svg width="25" height="24" viewBox="0 0 25 24" fill="none" xmlns="http://www.w3.org/2000/svg">
<path fill-rule="evenodd" clip-rule="evenodd" d="M19.8771 13.9624C19.0301 12.0994 19.0521 11.3984 19.0911 10.1244C19.1011 9.82342 19.1111 9.49642 19.1111 9.12142C19.1111 6.14442 16.9821 1.95142 12.2501 1.95142C7.51812 1.95142 5.38912 6.14442 5.38912 9.12142C5.38912 9.49542 5.39912 9.82342 5.40912 10.1244C5.44812 11.3984 5.46912 12.0994 4.61312 13.9874C4.24712 14.9314 4.29112 15.7464 4.74612 16.4104C5.83812 18.0084 8.99812 18.2284 12.2501 18.2284C15.5021 18.2284 18.6621 18.0084 19.7541 16.4104C20.2101 15.7464 20.2541 14.9314 19.8771 13.9624Z" fill="black"/>
<path fill-rule="evenodd" clip-rule="evenodd" d="M14.9474 19.2407C13.3164 19.4217 11.5484 19.4207 9.53841 19.2387C9.23741 19.2147 8.93941 19.3737 8.80141 19.6487C8.66241 19.9247 8.70641 20.2557 8.91141 20.4857C9.81141 21.4927 10.9954 22.0487 12.2454 22.0487H12.2474C13.5004 22.0487 14.6874 21.4937 15.5894 20.4857C15.7964 20.2547 15.8394 19.9187 15.6974 19.6417C15.5544 19.3667 15.2604 19.2127 14.9474 19.2407Z" fill="black"/>
</svg>
