<svg width="24" height="24" viewBox="0 0 24 24" fill="none" xmlns="http://www.w3.org/2000/svg">
<path fill-rule="evenodd" clip-rule="evenodd" d="M5.30396 5.30396C4.08098 6.52693 3.5 8.5731 3.5 12C3.5 15.4269 4.08098 17.4731 5.30396 18.696C6.52693 19.919 8.5731 20.5 12 20.5C15.4269 20.5 17.4731 19.919 18.696 18.696C19.919 17.4731 20.5 15.4269 20.5 12C20.5 8.5731 19.919 6.52693 18.696 5.30396C17.4731 4.08098 15.4269 3.5 12 3.5C8.5731 3.5 6.52693 4.08098 5.30396 5.30396ZM4.24329 4.24329C5.91107 2.57552 8.4899 2 12 2C15.5101 2 18.0889 2.57552 19.7567 4.24329C21.4245 5.91107 22 8.4899 22 12C22 15.5101 21.4245 18.0889 19.7567 19.7567C18.0889 21.4245 15.5101 22 12 22C8.4899 22 5.91107 21.4245 4.24329 19.7567C2.57552 18.0889 2 15.5101 2 12C2 8.4899 2.57552 5.91107 4.24329 4.24329Z" fill="black"/>
<path fill-rule="evenodd" clip-rule="evenodd" d="M14.2041 13.8999C14.2041 13.3476 14.6518 12.8999 15.2041 12.8999H15.2131C15.7654 12.8999 16.2131 13.3476 16.2131 13.8999C16.2131 14.4522 15.7654 14.8999 15.2131 14.8999H15.2041C14.6518 14.8999 14.2041 14.4522 14.2041 13.8999Z" fill="black"/>
<path fill-rule="evenodd" clip-rule="evenodd" d="M11.2041 9.8999C11.2041 9.34762 11.6518 8.8999 12.2041 8.8999H12.2131C12.7654 8.8999 13.2131 9.34762 13.2131 9.8999C13.2131 10.4522 12.7654 10.8999 12.2131 10.8999H12.2041C11.6518 10.8999 11.2041 10.4522 11.2041 9.8999Z" fill="black"/>
<path fill-rule="evenodd" clip-rule="evenodd" d="M8.19531 13.8999C8.19531 13.3476 8.64303 12.8999 9.19531 12.8999H9.20431C9.7566 12.8999 10.2043 13.3476 10.2043 13.8999C10.2043 14.4522 9.7566 14.8999 9.20431 14.8999H9.19531C8.64303 14.8999 8.19531 14.4522 8.19531 13.8999Z" fill="black"/>
</svg>
