<svg width="24" height="24" viewBox="0 0 24 24" fill="none" xmlns="http://www.w3.org/2000/svg">
<path fill-rule="evenodd" clip-rule="evenodd" d="M19.018 5.15151C19.3621 4.92087 19.828 5.01282 20.0586 5.35689C22.7213 9.32902 22.7293 14.5681 20.0585 18.5496C19.8277 18.8936 19.3618 18.9854 19.0178 18.7546C18.6738 18.5239 18.582 18.0579 18.8128 17.714C21.1438 14.239 21.1373 9.65996 18.8126 6.1921C18.582 5.84803 18.674 5.38215 19.018 5.15151Z" fill="black"/>
<path fill-rule="evenodd" clip-rule="evenodd" d="M16.6265 7.56078C16.9892 7.36064 17.4454 7.49239 17.6456 7.85505C19.0516 10.4029 19.0522 13.5116 17.645 16.0526C17.4443 16.415 16.9879 16.546 16.6256 16.3453C16.2632 16.1447 16.1321 15.6882 16.3328 15.3259C17.4892 13.2378 17.4898 10.6774 16.3323 8.5798C16.1321 8.21714 16.2639 7.76091 16.6265 7.56078Z" fill="black"/>
<path fill-rule="evenodd" clip-rule="evenodd" d="M8.83811 5.2061C9.79026 4.58745 11.116 4.01082 12.533 4.85047C12.5507 4.86099 12.568 4.87223 12.5848 4.88417C13.3211 5.40698 13.8172 6.14025 14.1215 7.26787C14.4161 8.35935 14.5406 9.85346 14.5406 11.953C14.5406 14.0547 14.4099 15.5525 14.1122 16.6458C13.8055 17.7722 13.3107 18.506 12.585 19.0216C12.5682 19.0336 12.5509 19.0448 12.5332 19.0553C11.1163 19.8956 9.7904 19.3193 8.83811 18.7005C8.47809 18.4666 8.12345 18.1948 7.8134 17.9572C7.71522 17.8819 7.62152 17.8101 7.53353 17.744C7.12913 17.4402 6.85468 17.2647 6.655 17.1989C6.22755 17.0583 5.89378 17.0184 5.51688 16.9733C5.37854 16.9567 5.23439 16.9394 5.07767 16.9163C4.49324 16.8298 3.88282 16.6641 3.22608 16.1065C2.54227 15.526 2.22508 14.7663 2.07525 14.034C1.92941 13.3211 1.93105 12.5726 1.93239 11.9646L1.93242 11.9546V11.9513L1.93239 11.9413C1.93105 11.3333 1.92941 10.5849 2.07525 9.87196C2.22508 9.13957 2.54228 8.37993 3.22613 7.79939L3.22638 7.79918C3.88316 7.2421 4.49355 7.07676 5.07767 6.99036C5.23365 6.96728 5.3772 6.95006 5.515 6.93353C5.89255 6.88825 6.22685 6.84815 6.65486 6.70704L6.65544 6.70685C6.85493 6.64126 7.12926 6.46604 7.53364 6.16236C7.62183 6.09613 7.71578 6.02415 7.81422 5.94873C8.12407 5.71132 8.47844 5.43979 8.83811 5.2061ZM7.12395 8.13181C6.53946 8.32443 6.00582 8.38762 5.60239 8.43539C5.48997 8.44871 5.38766 8.46082 5.29717 8.47421C4.88275 8.53551 4.57 8.62652 4.19689 8.9429C3.85165 9.23599 3.65294 9.64408 3.54481 10.1726C3.43377 10.7154 3.43103 11.3153 3.43242 11.9513V11.9546C3.43103 12.5906 3.43377 13.1905 3.54481 13.7333C3.65294 14.2618 3.85165 14.6699 4.19689 14.963L4.19694 14.9631C4.5702 15.28 4.88296 15.3711 5.29717 15.4324C5.38784 15.4458 5.49045 15.4579 5.60325 15.4713C6.00654 15.519 6.54011 15.582 7.12409 15.7742L7.12438 15.7743C7.59107 15.928 8.04969 16.2556 8.43449 16.5447C8.54652 16.6289 8.65556 16.7124 8.76307 16.7948C9.06182 17.0237 9.34879 17.2435 9.65537 17.4427C10.4736 17.9744 11.1058 18.143 11.7418 17.7804C12.1193 17.5044 12.4354 17.0944 12.6649 16.2517C12.9085 15.357 13.0406 14.0221 13.0406 11.953C13.0406 9.88156 12.9142 8.55112 12.6733 7.65874C12.4472 6.8208 12.1321 6.41031 11.742 6.12568C11.106 5.76331 10.4738 5.93214 9.65537 6.46391C9.34904 6.66295 9.06235 6.88253 8.76389 7.11111C8.65608 7.19368 8.54674 7.27743 8.43438 7.3618C8.04955 7.6508 7.59082 7.9783 7.12395 8.13181Z" fill="black"/>
</svg>
