<svg width="24" height="24" viewBox="0 0 24 24" fill="none" xmlns="http://www.w3.org/2000/svg">
<path d="M7.19434 15.4756H16.7873C17.2013 15.4756 17.5373 15.1396 17.5373 14.7256C17.5373 14.3116 17.2013 13.9756 16.7873 13.9756H7.19434C6.78034 13.9756 6.44434 14.3116 6.44434 14.7256C6.44434 15.1396 6.78034 15.4756 7.19434 15.4756Z" fill="black"/>
<path fill-rule="evenodd" clip-rule="evenodd" d="M1.63965 14.0154C1.63965 21.5054 6.12965 22.1004 11.9996 22.1004C17.8696 22.1004 22.3596 21.5054 22.3596 13.9884C22.3596 12.1664 22.3596 9.11842 20.4746 7.08442C19.3016 5.81842 17.7796 5.84742 16.5576 5.87142C15.8206 5.88742 15.1226 5.89942 14.6596 5.63642C14.0776 5.30542 13.8796 4.93642 13.6296 4.46942C13.3426 3.93142 12.9836 3.26242 12.0376 2.75242C10.3586 1.84642 8.39465 1.66842 5.86065 2.18942C3.29665 2.71542 1.63965 4.97642 1.63965 7.94942V14.0154ZM6.16265 3.65842C6.99565 3.48742 7.75065 3.40142 8.44165 3.40142C9.54965 3.40142 10.4926 3.62342 11.3256 4.07242C11.875 4.3691 12.0563 4.70768 12.3068 5.17589L12.3082 5.17842C12.5991 5.72025 12.9612 6.39476 13.9186 6.94042C14.732 7.40208 15.6592 7.38675 16.5612 7.37184L16.5866 7.37142C17.6976 7.34842 18.6586 7.33242 19.3746 8.10342C20.8596 9.70642 20.8596 12.2824 20.8596 14.0154C20.8596 19.9514 18.0226 20.6004 11.9996 20.6004C5.83865 20.6004 3.13965 19.9774 3.13965 14.0154V7.94942C3.13965 6.17542 3.93365 4.11542 6.16265 3.65842Z" fill="black"/>
</svg>
