<svg width="24" height="24" viewBox="0 0 24 24" fill="none" xmlns="http://www.w3.org/2000/svg">
<path fill-rule="evenodd" clip-rule="evenodd" d="M9.87652 11.9864H9.90852C12.8215 11.9864 15.1915 9.61639 15.1915 6.70339C15.1915 3.79039 12.8215 1.42139 9.90852 1.42139C6.99552 1.42139 4.62552 3.79039 4.62552 6.70039C4.61552 9.60539 6.96952 11.9774 9.87652 11.9864ZM6.12552 6.70339C6.12552 4.61739 7.82252 2.92139 9.90852 2.92139C11.9945 2.92139 13.6915 4.61739 13.6915 6.70339C13.6915 8.78939 11.9945 10.4864 9.90852 10.4864H9.87952C7.80252 10.4804 6.11852 8.78339 6.12552 6.70339Z" fill="black"/>
<path fill-rule="evenodd" clip-rule="evenodd" d="M2.08691 18.9418C2.08691 22.2018 6.55091 22.5788 9.90891 22.5788C11.8439 22.5788 17.7309 22.5788 17.7309 18.9218C17.7309 16.1348 14.1489 13.7808 9.90891 13.7808C5.66891 13.7808 2.08691 16.1438 2.08691 18.9418ZM3.58691 18.9418C3.58691 17.2138 6.29091 15.2808 9.90891 15.2808C13.5269 15.2808 16.2309 17.2028 16.2309 18.9218C16.2309 20.3528 14.1039 21.0788 9.90891 21.0788C5.71391 21.0788 3.58691 20.3598 3.58691 18.9418Z" fill="black"/>
<path d="M19.1167 12.9097C18.7027 12.9097 18.3667 12.5737 18.3667 12.1597V10.9048H17.0737C16.6597 10.9048 16.3237 10.5688 16.3237 10.1548C16.3237 9.74079 16.6597 9.40479 17.0737 9.40479H18.3667V8.14966C18.3667 7.73566 18.7027 7.39966 19.1167 7.39966C19.5307 7.39966 19.8667 7.73566 19.8667 8.14966V9.40479H21.1637C21.5777 9.40479 21.9137 9.74079 21.9137 10.1548C21.9137 10.5688 21.5777 10.9048 21.1637 10.9048H19.8667V12.1597C19.8667 12.5737 19.5307 12.9097 19.1167 12.9097Z" fill="black"/>
</svg>
