<svg width="24" height="24" viewBox="0 0 24 24" fill="none" xmlns="http://www.w3.org/2000/svg">
<mask id="mask0_11_73395" style="mask-type:luminance" maskUnits="userSpaceOnUse" x="2" y="2" width="21" height="21">
<path fill-rule="evenodd" clip-rule="evenodd" d="M2.00018 2.00024H22.0029V22.0012H2.00018V2.00024Z" fill="white"/>
</mask>
<g mask="url(#mask0_11_73395)">
<path fill-rule="evenodd" clip-rule="evenodd" d="M10.9449 20.0756C11.5349 20.6516 12.4849 20.6446 13.0709 20.0556L13.7929 19.3356C14.3529 18.7766 15.1269 18.4576 15.9159 18.4576H16.9459C17.7799 18.4576 18.4579 17.7796 18.4579 16.9466V15.9176C18.4579 15.1166 18.7679 14.3636 19.3339 13.7966L20.0539 13.0756C20.3469 12.7816 20.5039 12.4006 20.5029 11.9966C20.5019 11.5936 20.3429 11.2146 20.0559 10.9286L19.3349 10.2066C18.7679 9.63563 18.4579 8.88363 18.4579 8.08263V7.05563C18.4579 6.22163 17.7799 5.54363 16.9459 5.54363H15.9179C15.1169 5.54363 14.3639 5.23263 13.7969 4.66963L13.0749 3.94663C12.4739 3.35163 11.5149 3.35463 10.9279 3.94563L10.2089 4.66663C9.63491 5.23363 8.88191 5.54363 8.08391 5.54363H7.05491C6.22191 5.54463 5.54391 6.22263 5.54391 7.05563V8.08063C5.54391 8.88163 5.23291 9.63463 4.66891 10.2026L3.95891 10.9136C3.95191 10.9216 3.94491 10.9276 3.93791 10.9346C3.35091 11.5256 3.35391 12.4846 3.94491 13.0716L4.66691 13.7936C5.23291 14.3616 5.54391 15.1146 5.54391 15.9156V16.9466C5.54391 17.7796 6.22091 18.4576 7.05491 18.4576H8.08191C8.88391 18.4586 9.63691 18.7696 10.2039 19.3346L10.9249 20.0536C10.9309 20.0606 10.9379 20.0676 10.9449 20.0756V20.0756ZM11.9989 22.0016C11.2319 22.0016 10.4649 21.7116 9.87791 21.1296C9.86991 21.1216 9.86191 21.1136 9.85391 21.1046L9.14391 20.3956C8.86091 20.1146 8.48291 19.9586 8.08091 19.9576H7.05491C5.39391 19.9576 4.04391 18.6066 4.04391 16.9466V15.9156C4.04391 15.5136 3.88691 15.1366 3.60491 14.8526L2.88591 14.1346C1.71791 12.9726 1.70391 11.0806 2.85091 9.90063C2.85991 9.89163 2.86891 9.88263 2.87791 9.87363L3.60591 9.14363C3.88691 8.86063 4.04391 8.48163 4.04391 8.08063V7.05563C4.04391 5.39563 5.39391 4.04463 7.05391 4.04363H8.08391C8.48491 4.04363 8.86291 3.88663 9.14991 3.60363L9.86491 2.88663C11.0339 1.70963 12.9449 1.70363 14.1239 2.87563L14.8549 3.60663C15.1379 3.88763 15.5159 4.04363 15.9179 4.04363H16.9459C18.6069 4.04363 19.9579 5.39463 19.9579 7.05563V8.08263C19.9579 8.48363 20.1139 8.86263 20.3969 9.14763L21.1149 9.86663C21.6839 10.4316 21.9999 11.1866 22.0029 11.9916C22.0059 12.7966 21.6949 13.5536 21.1279 14.1246L20.3949 14.8556C20.1139 15.1386 19.9579 15.5156 19.9579 15.9176V16.9466C19.9579 18.6066 18.6069 19.9576 16.9469 19.9576H15.9159C15.5199 19.9576 15.1329 20.1176 14.8519 20.3966L14.1339 21.1146C13.5469 21.7056 12.7729 22.0016 11.9989 22.0016V22.0016Z" fill="black"/>
</g>
<path fill-rule="evenodd" clip-rule="evenodd" d="M9.43029 15.3214C9.23829 15.3214 9.04629 15.2484 8.90029 15.1014C8.60729 14.8084 8.60729 14.3344 8.90029 14.0414L14.0403 8.90041C14.3333 8.60741 14.8083 8.60741 15.1013 8.90041C15.3943 9.19341 15.3943 9.66841 15.1013 9.96141L9.96029 15.1014C9.81429 15.2484 9.62229 15.3214 9.43029 15.3214" fill="black"/>
<path fill-rule="evenodd" clip-rule="evenodd" d="M14.5035 15.499C13.9505 15.499 13.4985 15.052 13.4985 14.499C13.4985 13.946 13.9415 13.499 14.4945 13.499H14.5035C15.0565 13.499 15.5035 13.946 15.5035 14.499C15.5035 15.052 15.0565 15.499 14.5035 15.499" fill="black"/>
<path fill-rule="evenodd" clip-rule="evenodd" d="M9.50354 10.499C8.95054 10.499 8.49854 10.052 8.49854 9.49902C8.49854 8.94602 8.94154 8.49902 9.49454 8.49902H9.50354C10.0565 8.49902 10.5035 8.94602 10.5035 9.49902C10.5035 10.052 10.0565 10.499 9.50354 10.499" fill="black"/>
</svg>
