<svg width="24" height="24" viewBox="0 0 24 24" fill="none" xmlns="http://www.w3.org/2000/svg">
<path fill-rule="evenodd" clip-rule="evenodd" d="M13.2143 4.87707C9.54201 5.88816 5.7196 7.24598 4.05362 8.20762C3.65568 8.43734 3.56781 8.5906 3.55212 8.62434C3.55952 8.65024 3.58852 8.71244 3.68961 8.81967C3.8749 9.0162 4.20136 9.2467 4.67173 9.49435C5.13205 9.73671 5.68587 9.97276 6.28665 10.1961C7.48794 10.6427 8.8261 11.0199 9.87243 11.2868C10.3937 11.4198 10.8387 11.5244 11.1528 11.5956C11.3098 11.6313 11.4339 11.6585 11.5183 11.6767L11.6142 11.6972L11.6382 11.7023L11.6451 11.7037C11.9381 11.7644 12.1672 11.9933 12.2278 12.2862L12.2293 12.2934L12.2344 12.3174L12.2549 12.4133C12.2731 12.4977 12.3003 12.6218 12.336 12.7788C12.4072 13.0929 12.5118 13.5379 12.6448 14.0592C12.9117 15.1055 13.2889 16.4437 13.7355 17.645C13.9588 18.2457 14.1949 18.7996 14.4373 19.2599C14.6849 19.7302 14.9154 20.0567 15.1119 20.242C15.2192 20.3431 15.2814 20.3721 15.3073 20.3795C15.341 20.3638 15.4943 20.2759 15.724 19.878C16.6856 18.212 18.0434 14.3896 19.0545 10.7173C19.5566 8.89368 19.9639 7.14058 20.1898 5.74933C20.3031 5.05203 20.3677 4.46366 20.3796 4.01131C20.3843 3.83098 20.3803 3.68164 20.3699 3.56168C20.25 3.55128 20.1006 3.5473 19.9203 3.55202C19.4679 3.56386 18.8796 3.62852 18.1823 3.74176C16.791 3.96768 15.0379 4.37496 13.2143 4.87707ZM15.3215 20.3813C15.3216 20.3819 15.3184 20.3822 15.3115 20.3806C15.318 20.38 15.3214 20.3808 15.3215 20.3813ZM10.8635 13.0681C10.8496 13.065 10.8354 13.0618 10.821 13.0585C10.4964 12.9849 10.0382 12.8771 9.50169 12.7403C8.43246 12.4675 7.03658 12.0752 5.76395 11.6021C5.12777 11.3656 4.50967 11.1042 3.97291 10.8216C3.44621 10.5443 2.95045 10.2223 2.59821 9.84867C2.24716 9.47634 1.93544 8.93318 2.0899 8.28396C2.23322 7.6816 2.7255 7.24232 3.30373 6.90853C5.1499 5.84287 9.13555 4.44425 12.8161 3.43089C14.6688 2.92078 16.4783 2.49882 17.9418 2.26115C18.672 2.14259 19.3341 2.06685 19.881 2.05254C20.1546 2.04538 20.414 2.05311 20.647 2.08305C20.8709 2.11184 21.1187 2.16686 21.3383 2.28385C21.4699 2.35394 21.5777 2.46166 21.6478 2.59326C21.7647 2.81293 21.8198 3.06072 21.8486 3.28464C21.8785 3.51758 21.8862 3.77704 21.8791 4.05055C21.8648 4.59753 21.789 5.25965 21.6705 5.98977C21.4328 7.45335 21.0108 9.26282 20.5007 11.1155C19.4874 14.796 18.0887 18.7817 17.0231 20.6279C16.6893 21.2061 16.25 21.6984 15.6476 21.8417C14.9984 21.9962 14.4553 21.6844 14.0829 21.3334C13.7093 20.9812 13.3873 20.4854 13.11 19.9587C12.8274 19.4219 12.566 18.8038 12.3295 18.1676C11.8564 16.895 11.4641 15.4991 11.1913 14.4299C11.0545 13.8934 10.9468 13.4352 10.8731 13.1106C10.8698 13.0962 10.8666 13.082 10.8635 13.0681ZM3.55027 8.61006C3.55081 8.61016 3.55162 8.61361 3.55103 8.62014C3.54943 8.61323 3.54972 8.60997 3.55027 8.61006Z" fill="black"/>
<path fill-rule="evenodd" clip-rule="evenodd" d="M21.5159 2.41547C21.8088 2.70836 21.8088 3.18324 21.5159 3.47613L12.0235 12.9685C11.7306 13.2614 11.2557 13.2614 10.9628 12.9685C10.6699 12.6756 10.6699 12.2008 10.9628 11.9079L20.4552 2.41547C20.7481 2.12258 21.223 2.12258 21.5159 2.41547Z" fill="black"/>
</svg>
