<svg width="25" height="25" viewBox="0 0 25 25" fill="none" xmlns="http://www.w3.org/2000/svg">
<path fill-rule="evenodd" clip-rule="evenodd" d="M11.7451 8.60757H19.8871V7.10757H11.7451V8.60757Z" fill="black"/>
<path fill-rule="evenodd" clip-rule="evenodd" d="M6.88 10.9088C8.606 10.9088 10.01 9.51277 10.01 7.79777C10.01 6.08177 8.606 4.68677 6.88 4.68677C5.154 4.68677 3.75 6.08177 3.75 7.79777C3.75 9.51277 5.154 10.9088 6.88 10.9088Z" fill="black"/>
<path fill-rule="evenodd" clip-rule="evenodd" d="M4.6131 18.2206H12.7551V16.7206H4.6131V18.2206Z" fill="black"/>
<path fill-rule="evenodd" clip-rule="evenodd" d="M17.6202 14.2984C15.8942 14.2984 14.4902 15.6944 14.4902 17.4094C14.4902 19.1254 15.8942 20.5214 17.6202 20.5214C19.3462 20.5214 20.7502 19.1254 20.7502 17.4094C20.7502 15.6944 19.3462 14.2984 17.6202 14.2984Z" fill="black"/>
</svg>
