<svg width="24" height="24" viewBox="0 0 24 24" fill="none" xmlns="http://www.w3.org/2000/svg">
<path d="M12 21.25C18.937 21.25 21.25 18.937 21.25 12" stroke="black" stroke-width="1.5" stroke-linecap="round" stroke-linejoin="round"/>
<path d="M12 2.75C5.063 2.75 2.75 5.063 2.75 12C2.75 17.553 4.232 20.143 8.382 20.955" stroke="black" stroke-width="1.5" stroke-linecap="round" stroke-linejoin="round"/>
<path fill-rule="evenodd" clip-rule="evenodd" d="M19.529 4.30413V4.30413C18.536 3.42513 17.019 3.51713 16.14 4.51013C16.14 4.51013 11.771 9.44513 10.256 11.1581C8.73901 12.8701 9.85101 15.2351 9.85101 15.2351C9.85101 15.2351 12.355 16.0281 13.849 14.3401C15.344 12.6521 19.735 7.69313 19.735 7.69313C20.614 6.70013 20.521 5.18313 19.529 4.30413Z" stroke="black" stroke-width="1.5" stroke-linecap="round" stroke-linejoin="round"/>
<path d="M15.0093 5.80078L16.8223 7.40578" stroke="black" stroke-width="1.5" stroke-linecap="round" stroke-linejoin="round"/>
</svg>
