<svg width="24" height="24" viewBox="0 0 24 24" fill="none" xmlns="http://www.w3.org/2000/svg">
<path fill-rule="evenodd" clip-rule="evenodd" d="M17.284 10.2988C16.283 10.2988 15.4712 11.1107 15.4712 12.1117C15.4712 13.1138 16.2832 13.9255 17.284 13.9255H21.1707C21.5849 13.9255 21.9207 14.2613 21.9207 14.6755C21.9207 15.0897 21.5849 15.4255 21.1707 15.4255H17.284C15.4544 15.4255 13.9712 13.9419 13.9712 12.1117C13.9712 10.2822 15.4546 8.79883 17.284 8.79883H21.1402C21.5545 8.79883 21.8902 9.13461 21.8902 9.54883C21.8902 9.96304 21.5545 10.2988 21.1402 10.2988H17.284Z" fill="black"/>
<path fill-rule="evenodd" clip-rule="evenodd" d="M16.6748 12.0532C16.6748 11.639 17.0106 11.3032 17.4248 11.3032H17.7219C18.1362 11.3032 18.4719 11.639 18.4719 12.0532C18.4719 12.4674 18.1362 12.8032 17.7219 12.8032H17.4248C17.0106 12.8032 16.6748 12.4674 16.6748 12.0532Z" fill="black"/>
<path fill-rule="evenodd" clip-rule="evenodd" d="M6.85596 8.1438C6.85596 7.72959 7.19174 7.3938 7.60596 7.3938H11.666C12.0802 7.3938 12.416 7.72959 12.416 8.1438C12.416 8.55801 12.0802 8.8938 11.666 8.8938H7.60596C7.19174 8.8938 6.85596 8.55801 6.85596 8.1438Z" fill="black"/>
<path fill-rule="evenodd" clip-rule="evenodd" d="M5.25549 6.13433C4.0432 7.2473 3.46387 9.10479 3.46387 12.2532C3.46387 15.401 4.04319 17.2585 5.25551 18.3717C6.4871 19.5025 8.55785 20.0422 12.0148 20.0422C15.4713 20.0422 17.5418 19.5025 18.7733 18.3717C19.9855 17.2586 20.5648 15.401 20.5648 12.2532C20.5648 9.10479 19.9855 7.24728 18.7733 6.13431C17.5418 5.00364 15.4714 4.46411 12.0148 4.46411C8.55779 4.46411 6.48706 5.00365 5.25549 6.13433ZM4.24105 5.02937C5.91592 3.49172 8.49566 2.96411 12.0148 2.96411C15.5335 2.96411 18.113 3.49172 19.7878 5.02939C21.4818 6.58475 22.0648 8.99677 22.0648 12.2532C22.0648 15.5091 21.4818 17.9211 19.7878 19.4765C18.1131 21.0143 15.5336 21.5422 12.0148 21.5422C8.49559 21.5422 5.91587 21.0143 4.24103 19.4766C2.54693 17.9211 1.96387 15.5091 1.96387 12.2532C1.96387 8.99677 2.54691 6.58473 4.24105 5.02937Z" fill="black"/>
</svg>
