<svg width="25" height="25" viewBox="0 0 25 25" fill="none" xmlns="http://www.w3.org/2000/svg">
<path fill-rule="evenodd" clip-rule="evenodd" d="M7.85426 19.2787C7.15126 19.2787 6.58026 19.8497 6.58026 20.5527C6.58026 21.2557 7.15126 21.8277 7.85426 21.8277C8.55626 21.8277 9.12726 21.2557 9.12726 20.5527C9.12726 19.8497 8.55626 19.2787 7.85426 19.2787Z" fill="black"/>
<path fill-rule="evenodd" clip-rule="evenodd" d="M18.7214 19.2787C18.0184 19.2787 17.4474 19.8497 17.4474 20.5527C17.4474 21.2557 18.0184 21.8277 18.7214 21.8277C19.4244 21.8277 19.9954 21.2557 19.9954 20.5527C19.9954 19.8497 19.4244 19.2787 18.7214 19.2787Z" fill="black"/>
<path fill-rule="evenodd" clip-rule="evenodd" d="M13.8251 11.7115H17.9951V10.2115H13.8251V11.7115ZM6.39507 6.30146L6.09507 3.24146H2.19507V4.74146H4.73507L6.01507 17.4415H20.8351L22.3051 6.30146H6.39507Z" fill="black"/>
</svg>
