<svg width="24" height="24" viewBox="0 0 24 24" fill="none" xmlns="http://www.w3.org/2000/svg">
<path fill-rule="evenodd" clip-rule="evenodd" d="M1.9999 12C1.9999 6.48 6.4699 2 11.9999 2C17.5199 2 21.9999 6.48 21.9999 12C21.9999 17.53 17.5199 22 11.9999 22C6.4699 22 1.9999 17.53 1.9999 12ZM14.2299 13.83L15.8499 8.71C15.9599 8.36 15.6399 8.03 15.2899 8.14L10.1699 9.74C9.9599 9.81 9.7899 9.97 9.7299 10.18L8.1299 15.31C8.0199 15.65 8.3499 15.98 8.6899 15.87L13.7899 14.27C13.9999 14.21 14.1699 14.04 14.2299 13.83Z" fill="black"/>
</svg>
