<svg width="24" height="24" viewBox="0 0 24 24" fill="none" xmlns="http://www.w3.org/2000/svg">
<mask id="mask0_11_73742" style="mask-type:luminance" maskUnits="userSpaceOnUse" x="2" y="6" width="20" height="17">
<path fill-rule="evenodd" clip-rule="evenodd" d="M2 6.54004H21.5859V22.7216H2V6.54004Z" fill="white"/>
</mask>
<g mask="url(#mask0_11_73742)">
<path fill-rule="evenodd" clip-rule="evenodd" d="M6.71547 8.04004C6.27447 8.04004 4.80047 8.21804 4.37747 10.502L3.60547 16.502C3.35447 18.185 3.54847 19.403 4.18347 20.14C4.81047 20.868 5.93247 21.222 7.61247 21.222H15.9605C17.0085 21.222 18.4395 21.013 19.3035 20.015C19.9895 19.224 20.2255 18.046 20.0055 16.513L19.2265 10.461C18.8945 8.97004 18.0185 8.04004 16.8945 8.04004H6.71547ZM15.9605 22.722H7.61247C5.46947 22.722 3.97647 22.197 3.04747 21.118C2.11447 20.036 1.80247 18.413 2.12047 16.295L2.89647 10.269C3.40647 7.50604 5.27147 6.54004 6.71547 6.54004H16.8945C18.3445 6.54004 20.1075 7.50304 20.7025 10.204L21.4915 16.311C21.7745 18.282 21.4205 19.863 20.4375 20.997C19.4595 22.125 17.9115 22.722 15.9605 22.722V22.722Z" fill="black"/>
</g>
<path fill-rule="evenodd" clip-rule="evenodd" d="M16.0978 7.82024C15.6838 7.82024 15.3478 7.48424 15.3478 7.07024C15.3478 5.10124 13.7458 3.50024 11.7778 3.50024H11.7628C10.8218 3.50024 9.90478 3.87924 9.23978 4.54024C8.57178 5.20524 8.18878 6.12824 8.18878 7.07024C8.18878 7.48424 7.85278 7.82024 7.43878 7.82024C7.02478 7.82024 6.68878 7.48424 6.68878 7.07024C6.68878 5.73124 7.23278 4.42224 8.18078 3.47724C9.12578 2.53824 10.4288 2.00024 11.7598 2.00024H11.7808C14.5738 2.00024 16.8478 4.27424 16.8478 7.07024C16.8478 7.48424 16.5118 7.82024 16.0978 7.82024" fill="black"/>
<path fill-rule="evenodd" clip-rule="evenodd" d="M14.7433 12.3242H14.6973C14.2833 12.3242 13.9473 11.9882 13.9473 11.5742C13.9473 11.1602 14.2833 10.8242 14.6973 10.8242C15.1113 10.8242 15.4703 11.1602 15.4703 11.5742C15.4703 11.9882 15.1573 12.3242 14.7433 12.3242" fill="black"/>
<path fill-rule="evenodd" clip-rule="evenodd" d="M8.91219 12.3242H8.86719C8.45319 12.3242 8.11719 11.9882 8.11719 11.5742C8.11719 11.1602 8.45319 10.8242 8.86719 10.8242C9.28119 10.8242 9.64019 11.1602 9.64019 11.5742C9.64019 11.9882 9.32619 12.3242 8.91219 12.3242" fill="black"/>
</svg>
