<svg width="24" height="24" viewBox="0 0 24 24" fill="none" xmlns="http://www.w3.org/2000/svg">
<path fill-rule="evenodd" clip-rule="evenodd" d="M7.194 4.8317C7.59595 4.10118 8.03322 3.61283 8.68207 3.35457C9.87107 2.88179 14.1295 2.88179 15.3175 3.35467C15.966 3.61278 16.4035 4.10105 16.8057 4.83142L17.2579 5.69857C17.2683 5.71576 17.2778 5.73086 17.2863 5.74387L17.3247 5.79637C17.5308 6.02088 17.8756 6.1565 18.1032 6.1565C20.2552 6.1565 22.0002 7.90109 22.0002 10.0525V15.8475C22.0002 18.5917 19.7744 20.8175 17.0302 20.8175H6.97018C4.22529 20.8175 2.00018 18.592 2.00018 15.8475V10.0525C2.00018 7.90109 3.74516 6.1565 5.89718 6.1565C6.12396 6.1565 6.46926 6.02068 6.67562 5.79637C6.67975 5.79188 6.68513 5.78519 6.69163 5.77634L6.74306 5.69745L7.194 4.8317ZM15.4918 5.55508C15.2419 5.10124 15.016 4.84909 14.7628 4.74833L14.6435 4.70867C13.6144 4.41778 10.0346 4.431 9.23654 4.74833C8.98352 4.84904 8.75787 5.10105 8.5082 5.5548L8.12334 6.2989L8.02861 6.47033C7.94954 6.60186 7.87045 6.71289 7.78013 6.81129C7.27367 7.36179 6.52443 7.6565 5.89718 7.6565L5.73309 7.66203C4.48593 7.74636 3.50018 8.78472 3.50018 10.0525V15.8475C3.50018 17.7637 5.05377 19.3175 6.97018 19.3175H17.0302C18.946 19.3175 20.5002 17.7633 20.5002 15.8475V10.0525C20.5002 8.7296 19.4269 7.6565 18.1032 7.6565L17.9291 7.64922C17.3405 7.60079 16.6795 7.31166 16.2196 6.81063C16.1305 6.71353 16.0518 6.60329 15.9732 6.47287C15.962 6.45416 15.9479 6.42953 15.9318 6.40039L15.8157 6.18264L15.4918 5.55508Z" fill="black"/>
<path d="M17.5045 8.5C18.0568 8.5 18.5045 8.94772 18.5045 9.5C18.5045 10.0128 18.1184 10.4355 17.6211 10.4933L17.5045 10.5C16.9432 10.5 16.4955 10.0523 16.4955 9.5C16.4955 8.98716 16.8815 8.56449 17.3789 8.50673L17.5045 8.5Z" fill="black"/>
<path fill-rule="evenodd" clip-rule="evenodd" d="M8.07086 13.1282C8.07086 10.958 9.82965 9.19922 11.9999 9.19922C14.1701 9.19922 15.9289 10.958 15.9289 13.1282C15.9289 15.2984 14.1701 17.0572 11.9999 17.0572C9.82965 17.0572 8.07086 15.2984 8.07086 13.1282ZM14.4289 13.1282C14.4289 11.7864 13.3416 10.6992 11.9999 10.6992C10.6581 10.6992 9.57086 11.7864 9.57086 13.1282C9.57086 14.47 10.6581 15.5572 11.9999 15.5572C13.3416 15.5572 14.4289 14.47 14.4289 13.1282Z" fill="black"/>
</svg>
