<svg width="24" height="24" viewBox="0 0 24 24" fill="none" xmlns="http://www.w3.org/2000/svg">
<path d="M11.9995 17.0677C11.5855 17.0677 11.2495 16.7317 11.2495 16.3177V14.0967C11.2495 13.6827 11.5855 13.3467 11.9995 13.3467C12.4135 13.3467 12.7495 13.6827 12.7495 14.0967V16.3177C12.7495 16.7317 12.4135 17.0677 11.9995 17.0677Z" fill="black"/>
<path fill-rule="evenodd" clip-rule="evenodd" d="M8.1792 8.37322V7.19189C8.2222 5.11489 9.8772 3.46689 11.9492 3.44189H11.9962C13.6662 3.44189 15.1602 4.54689 15.6402 6.14489C15.7602 6.53989 16.1762 6.76689 16.5752 6.64789C16.9712 6.52889 17.1972 6.10989 17.0772 5.71289C16.4082 3.48389 14.3252 1.94189 11.9962 1.94189H11.9302C9.0452 1.97689 6.7392 4.26989 6.6792 7.17589V8.87067C4.48957 9.87317 3.58984 11.8195 3.58984 15.0359C3.58984 20.1549 5.86884 22.0579 11.9998 22.0579C18.1308 22.0579 20.4098 20.1549 20.4098 15.0359C20.4098 9.91689 18.1308 8.01489 11.9998 8.01489C10.5049 8.01489 9.23892 8.12798 8.1792 8.37322ZM7.60111 10.0751C7.65932 10.0614 7.71492 10.0409 7.76704 10.0146C8.79719 9.65783 10.1786 9.51489 11.9998 9.51489C17.3598 9.51489 18.9098 10.7529 18.9098 15.0359C18.9098 19.3199 17.3598 20.5579 11.9998 20.5579C6.63984 20.5579 5.08984 19.3199 5.08984 15.0359C5.08984 12.2878 5.72795 10.7933 7.60111 10.0751Z" fill="black"/>
</svg>
