<svg width="24" height="24" viewBox="0 0 24 24" fill="none" xmlns="http://www.w3.org/2000/svg">
<path d="M13.8055 5.31571C13.6935 5.25371 13.5715 5.22571 13.4515 5.22571C13.1835 5.22571 12.9265 5.36871 12.7905 5.61971C12.5945 5.98471 12.7295 6.43971 13.0945 6.63571C14.9757 7.65071 17.8054 9.64238 18.56 11.25L4.5 11.25C4.086 11.25 3.75 11.586 3.75 12C3.75 12.414 4.086 12.75 4.5 12.75L18.5584 12.75C17.8014 14.3592 14.9743 16.3496 13.0945 17.3647C12.7295 17.5617 12.5945 18.0157 12.7905 18.3807C12.9875 18.7447 13.4445 18.8797 13.8055 18.6847C14.4665 18.3297 20.2505 15.1207 20.2505 11.9977C20.2505 8.87871 14.4665 5.67071 13.8055 5.31571Z" fill="black"/>
</svg>
