<svg width="24" height="24" viewBox="0 0 24 24" fill="none" xmlns="http://www.w3.org/2000/svg">
<path d="M8.16162 3.78664C8.45262 3.70564 8.15862 3.78564 8.48062 3.72564C9.49262 3.53764 10.6606 3.45164 11.9996 3.45164C12.6446 3.45164 13.2496 3.47164 13.8166 3.51264" stroke="black" stroke-width="1.5" stroke-linecap="round" stroke-linejoin="round"/>
<path d="M11.9996 21.9998C5.04459 21.9998 2.72559 19.6818 2.72559 12.7258C2.72559 8.59881 3.54159 6.10381 5.65859 4.75781" stroke="black" stroke-width="1.5" stroke-linecap="round" stroke-linejoin="round"/>
<path d="M16.021 3.83105C19.883 4.73105 21.275 7.33606 21.275 12.7261C21.275 18.5821 19.631 21.1511 14.96 21.8171" stroke="black" stroke-width="1.5" stroke-linecap="round" stroke-linejoin="round"/>
<path d="M3.00049 9.27393H21.0085" stroke="black" stroke-width="1.5" stroke-linecap="round" stroke-linejoin="round"/>
<path d="M16.4037 13.2109H16.4127" stroke="black" stroke-width="1.5" stroke-linecap="round" stroke-linejoin="round"/>
<path d="M12.0043 13.2109H12.0133" stroke="black" stroke-width="1.5" stroke-linecap="round" stroke-linejoin="round"/>
<path d="M7.59657 13.2109H7.60557" stroke="black" stroke-width="1.5" stroke-linecap="round" stroke-linejoin="round"/>
<path d="M16.4037 17.063H16.4127" stroke="black" stroke-width="1.5" stroke-linecap="round" stroke-linejoin="round"/>
<path d="M12.0043 17.063H12.0133" stroke="black" stroke-width="1.5" stroke-linecap="round" stroke-linejoin="round"/>
<path d="M7.59657 17.063H7.60557" stroke="black" stroke-width="1.5" stroke-linecap="round" stroke-linejoin="round"/>
<path d="M16.0088 2V5.262" stroke="black" stroke-width="1.5" stroke-linecap="round" stroke-linejoin="round"/>
<path d="M8.00049 2V5.262" stroke="black" stroke-width="1.5" stroke-linecap="round" stroke-linejoin="round"/>
</svg>
