<svg width="24" height="24" viewBox="0 0 24 24" fill="none" xmlns="http://www.w3.org/2000/svg">
<path fill-rule="evenodd" clip-rule="evenodd" d="M7.43799 6.42087C7.44398 3.91874 9.47641 1.89487 11.9794 1.89967C14.4812 1.90566 16.5053 3.93853 16.5 6.44019C16.5 6.44062 16.5 6.44104 16.5 6.44146L15.75 6.43967L16.5 6.44019V9.47167C16.5 9.88588 16.1642 10.2217 15.75 10.2217C15.3358 10.2217 15 9.88588 15 9.47167V6.43967L15 6.43787C15.004 4.76423 13.6502 3.40387 11.9766 3.39966C10.302 3.39665 8.94245 4.75025 8.93799 6.42361V9.47167C8.93799 9.88588 8.6022 10.2217 8.18799 10.2217C7.77377 10.2217 7.43799 9.88588 7.43799 9.47167L7.43799 6.42087Z" fill="black"/>
<path fill-rule="evenodd" clip-rule="evenodd" d="M5.38545 9.28329C4.24847 10.1732 3.7002 11.6442 3.7002 14.2074C3.7002 16.7701 4.24845 18.2409 5.38542 19.1307C6.57946 20.0651 8.60363 20.5154 11.9692 20.5154C15.3348 20.5154 17.3589 20.0651 18.553 19.1307C19.6899 18.2409 20.2382 16.7701 20.2382 14.2074C20.2382 11.6442 19.6899 10.1732 18.5529 9.28329C17.3589 8.34875 15.3348 7.89844 11.9692 7.89844C8.60362 7.89844 6.57948 8.34875 5.38545 9.28329ZM4.46094 8.10208C6.08541 6.83063 8.57077 6.39844 11.9692 6.39844C15.3676 6.39844 17.853 6.83063 19.4775 8.10208C21.159 9.41818 21.7382 11.4767 21.7382 14.2074C21.7382 16.9377 21.1589 18.996 19.4774 20.3119C17.853 21.5832 15.3676 22.0154 11.9692 22.0154C8.57077 22.0154 6.08543 21.5832 4.46097 20.3119C2.77944 18.996 2.2002 16.9377 2.2002 14.2074C2.2002 11.4767 2.77942 9.41818 4.46094 8.10208Z" fill="black"/>
</svg>
