<svg width="25" height="25" viewBox="0 0 25 25" fill="none" xmlns="http://www.w3.org/2000/svg">
<path fill-rule="evenodd" clip-rule="evenodd" d="M17.4787 17.4526C17.4787 17.8666 17.1427 18.2026 16.7287 18.2026C16.3147 18.2026 15.9787 17.8666 15.9787 17.4526V14.2956C15.9787 13.8816 16.3147 13.5456 16.7287 13.5456C17.1427 13.5456 17.4787 13.8816 17.4787 14.2956V17.4526ZM12.9997 17.4526C12.9997 17.8666 12.6637 18.2026 12.2497 18.2026C11.8357 18.2026 11.4997 17.8666 11.4997 17.4526V7.55461C11.4997 7.13961 11.8357 6.80461 12.2497 6.80461C12.6637 6.80461 12.9997 7.13961 12.9997 7.55461V17.4526ZM8.4457 17.4526C8.4457 17.8666 8.1097 18.2026 7.6957 18.2026C7.2817 18.2026 6.9457 17.8666 6.9457 17.4526V10.7586C6.9457 10.3446 7.2817 10.0086 7.6957 10.0086C8.1097 10.0086 8.4457 10.3446 8.4457 10.7586V17.4526ZM12.2497 2.29761C4.6907 2.29761 2.0127 4.97561 2.0127 12.5346C2.0127 20.0936 4.6907 22.7716 12.2497 22.7716C19.8077 22.7716 22.4867 20.0936 22.4867 12.5346C22.4867 4.97561 19.8077 2.29761 12.2497 2.29761Z" fill="black"/>
</svg>
