<svg width="24" height="24" viewBox="0 0 24 24" fill="none" xmlns="http://www.w3.org/2000/svg">
<mask id="mask0_11_73410" style="mask-type:luminance" maskUnits="userSpaceOnUse" x="2" y="2" width="20" height="20">
<path fill-rule="evenodd" clip-rule="evenodd" d="M2.00043 2H21.9534V21.9539H2.00043V2Z" fill="white"/>
</mask>
<g mask="url(#mask0_11_73410)">
<path fill-rule="evenodd" clip-rule="evenodd" d="M7.65143 3.5C5.13043 3.5 3.50043 5.229 3.50043 7.904V16.05C3.50043 18.726 5.13043 20.454 7.65143 20.454H16.2974C18.8224 20.454 20.4534 18.726 20.4534 16.05V7.904C20.4554 6.541 20.0394 5.403 19.2514 4.614C18.5234 3.885 17.5044 3.5 16.3024 3.5H7.65143ZM16.2974 21.954H7.65143C4.27143 21.954 2.00043 19.581 2.00043 16.05V7.904C2.00043 4.373 4.27143 2 7.65143 2H16.3024C17.9104 2 19.2974 2.537 20.3124 3.554C21.3734 4.616 21.9554 6.161 21.9534 7.905V16.05C21.9534 19.581 19.6804 21.954 16.2974 21.954V21.954Z" fill="black"/>
</g>
<path fill-rule="evenodd" clip-rule="evenodd" d="M8.85641 7.68945C8.25241 7.68945 7.76141 8.18045 7.76141 8.78545C7.76141 9.38945 8.25241 9.88045 8.85741 9.88045C9.46141 9.88045 9.95341 9.38945 9.95341 8.78645C9.95241 8.18145 9.46041 7.69045 8.85641 7.68945M8.85741 11.3805C7.42541 11.3805 6.26141 10.2165 6.26141 8.78545C6.26141 7.35345 7.42541 6.18945 8.85741 6.18945C10.2884 6.19045 11.4524 7.35445 11.4534 8.78445V8.78545C11.4534 10.2165 10.2894 11.3805 8.85741 11.3805" fill="black"/>
<path fill-rule="evenodd" clip-rule="evenodd" d="M3.74906 20.111C3.62506 20.111 3.49906 20.08 3.38306 20.015C3.02106 19.812 2.89406 19.355 3.09606 18.994C3.15606 18.886 4.59106 16.349 6.17006 15.049C7.42206 14.019 8.77006 14.585 9.85606 15.042C10.4951 15.311 11.0991 15.565 11.6791 15.565C12.2111 15.565 12.8781 14.625 13.4681 13.796C14.2871 12.64 15.2171 11.332 16.5791 11.332C18.7491 11.332 20.6221 13.268 21.6291 14.308L21.7451 14.428C22.0331 14.725 22.0261 15.2 21.7291 15.489C21.4341 15.778 20.9591 15.771 20.6691 15.473L20.5511 15.351C19.6991 14.47 18.1131 12.832 16.5791 12.832C15.9911 12.832 15.3011 13.805 14.6901 14.664C13.8521 15.844 12.9851 17.065 11.6791 17.065C10.7961 17.065 9.98706 16.725 9.27406 16.424C8.14006 15.946 7.62606 15.793 7.12306 16.207C5.75906 17.331 4.41706 19.705 4.40406 19.728C4.26706 19.973 4.01206 20.111 3.74906 20.111" fill="black"/>
</svg>
