<svg width="25" height="25" viewBox="0 0 25 25" fill="none" xmlns="http://www.w3.org/2000/svg">
<path fill-rule="evenodd" clip-rule="evenodd" d="M14.3506 12.1385C14.3506 10.9787 13.4104 10.0386 12.2507 10.0386C11.0909 10.0386 10.1508 10.9787 10.1508 12.1385C10.1508 13.2982 11.0909 14.2384 12.2507 14.2384C13.4104 14.2384 14.3506 13.2982 14.3506 12.1385ZM12.2507 8.53857C14.2389 8.53857 15.8506 10.1503 15.8506 12.1385C15.8506 14.1266 14.2389 15.7384 12.2507 15.7384C10.2625 15.7384 8.65079 14.1266 8.65079 12.1385C8.65079 10.1503 10.2625 8.53857 12.2507 8.53857Z" fill="black"/>
<path fill-rule="evenodd" clip-rule="evenodd" d="M6.81705 2.72852L17.6831 2.72852L23.1161 12.1388L17.6831 21.549H6.81705L1.38403 12.1388L6.81705 2.72852ZM7.68307 4.22852L3.11608 12.1388L7.68307 20.049H16.817L21.384 12.1388L16.817 4.22852L7.68307 4.22852Z" fill="black"/>
</svg>
