<svg width="24" height="24" viewBox="0 0 24 24" fill="none" xmlns="http://www.w3.org/2000/svg">
<path d="M17.6312 10.6995H17.6562C18.0582 10.6995 18.3912 10.3805 18.4052 9.97451C18.4642 8.22951 17.4232 6.94651 15.8152 6.78151C15.4112 6.74751 15.0352 7.03851 14.9922 7.45051C14.9502 7.86251 15.2502 8.23051 15.6622 8.27351C16.4732 8.35651 16.9382 8.97351 16.9062 9.92451C16.8922 10.3385 17.2172 10.6855 17.6312 10.6995Z" fill="black"/>
<path fill-rule="evenodd" clip-rule="evenodd" d="M2.15907 12.639C3.95307 18.223 9.94607 21.236 12.0021 21.236C14.0731 21.236 20.0861 18.222 21.8421 12.638C22.9921 9.04603 21.7171 4.35803 17.6511 3.04803C15.9191 2.49303 13.5461 2.69703 11.9801 4.29003C10.5291 2.89603 8.37307 2.39303 6.34207 3.04903C2.28007 4.35603 1.00707 9.04503 2.15807 12.638L2.15907 12.639ZM12.0021 19.736C10.8171 19.736 5.23407 17.306 3.58707 12.181C2.65607 9.27303 3.62007 5.50103 6.80207 4.47603C8.19307 4.02703 10.2251 4.27903 11.3941 5.89303C11.5391 6.09203 11.7711 6.19203 12.0181 6.20203C12.2641 6.19703 12.4921 6.07103 12.6281 5.86603C13.6941 4.24803 15.7421 4.01203 17.1921 4.47603C20.3771 5.50203 21.3431 9.27403 20.4121 12.184C18.8011 17.307 13.1961 19.736 12.0021 19.736Z" fill="black"/>
</svg>
