<svg width="24" height="24" viewBox="0 0 24 24" fill="none" xmlns="http://www.w3.org/2000/svg">
<path fill-rule="evenodd" clip-rule="evenodd" d="M7.2163 16.0026C7.0563 16.0026 6.8953 15.9516 6.7593 15.8476C6.4313 15.5946 6.3693 15.1236 6.6223 14.7956L9.6153 10.9056C9.7373 10.7466 9.9183 10.6436 10.1163 10.6186C10.3183 10.5926 10.5163 10.6486 10.6733 10.7736L13.4933 12.9886L15.9603 9.80562C16.2143 9.47662 16.6843 9.41562 17.0123 9.67162C17.3403 9.92562 17.4003 10.3966 17.1463 10.7236L14.2163 14.5036C14.0943 14.6616 13.9143 14.7646 13.7163 14.7886C13.5163 14.8156 13.3183 14.7576 13.1603 14.6346L10.3423 12.4206L7.8113 15.7096C7.6633 15.9016 7.4413 16.0026 7.2163 16.0026" fill="black"/>
<mask id="mask0_11_73667" style="mask-type:luminance" maskUnits="userSpaceOnUse" x="17" y="2" width="6" height="6">
<path fill-rule="evenodd" clip-rule="evenodd" d="M17.2953 2H22.6393V7.3449H17.2953V2Z" fill="white"/>
</mask>
<g mask="url(#mask0_11_73667)">
<path fill-rule="evenodd" clip-rule="evenodd" d="M19.9673 3.5C19.3213 3.5 18.7953 4.025 18.7953 4.672C18.7953 5.318 19.3213 5.845 19.9673 5.845C20.6133 5.845 21.1393 5.318 21.1393 4.672C21.1393 4.025 20.6133 3.5 19.9673 3.5M19.9673 7.345C18.4943 7.345 17.2953 6.146 17.2953 4.672C17.2953 3.198 18.4943 2 19.9673 2C21.4413 2 22.6393 3.198 22.6393 4.672C22.6393 6.146 21.4413 7.345 19.9673 7.345" fill="black"/>
</g>
<mask id="mask1_11_73667" style="mask-type:luminance" maskUnits="userSpaceOnUse" x="2" y="2" width="20" height="21">
<path fill-rule="evenodd" clip-rule="evenodd" d="M2 2.84204H21.8619V22.703H2V2.84204Z" fill="white"/>
</mask>
<g mask="url(#mask1_11_73667)">
<path fill-rule="evenodd" clip-rule="evenodd" d="M16.2329 22.703H7.62889C4.26189 22.703 1.99989 20.338 1.99989 16.818V8.73604C1.99989 5.21104 4.26189 2.84204 7.62889 2.84204H14.8969C15.3109 2.84204 15.6469 3.17804 15.6469 3.59204C15.6469 4.00604 15.3109 4.34204 14.8969 4.34204H7.62889C5.12089 4.34204 3.49989 6.06604 3.49989 8.73604V16.818C3.49989 19.523 5.08189 21.203 7.62889 21.203H16.2329C18.7409 21.203 20.3619 19.482 20.3619 16.818V9.77904C20.3619 9.36504 20.6979 9.02904 21.1119 9.02904C21.5259 9.02904 21.8619 9.36504 21.8619 9.77904V16.818C21.8619 20.338 19.5999 22.703 16.2329 22.703" fill="black"/>
</g>
</svg>
