<svg width="25" height="24" viewBox="0 0 25 24" fill="none" xmlns="http://www.w3.org/2000/svg">
<path fill-rule="evenodd" clip-rule="evenodd" d="M15.2372 6.9572C14.4612 6.6362 13.5952 6.3802 13.0632 6.9142C12.6192 7.3602 12.3662 9.0872 12.3012 10.9992H4.0752C3.5222 10.9992 3.0752 11.4462 3.0752 11.9992C3.0752 12.5522 3.5222 12.9992 4.0752 12.9992H12.3022C12.3672 14.9072 12.6202 16.6282 13.0642 17.0722C13.2982 17.3062 13.5952 17.3942 13.9182 17.3942C14.3712 17.3942 14.8732 17.2202 15.3122 17.0382C16.8832 16.3882 21.4242 13.6422 21.4242 11.9922C21.4242 10.2892 16.6772 7.5542 15.2372 6.9572Z" fill="black"/>
</svg>
