<svg width="24" height="24" viewBox="0 0 24 24" fill="none" xmlns="http://www.w3.org/2000/svg">
<path fill-rule="evenodd" clip-rule="evenodd" d="M3.58303 20.4175C3.72903 20.5645 3.92103 20.6375 4.11303 20.6375C4.30503 20.6375 4.49703 20.5645 4.64303 20.4175L6.86954 18.191C6.92233 18.151 6.97048 18.1033 7.01226 18.0483L20.417 4.64354C20.71 4.35054 20.71 3.87554 20.417 3.58254C20.124 3.28954 19.65 3.28954 19.357 3.58254L17.4789 5.46078C15.8038 4.47238 13.9204 3.95264 11.9961 3.95264C6.45609 3.95264 1.99609 8.35664 1.99609 12.0026C1.99609 13.9524 3.25202 16.1089 5.25663 17.6838L3.58303 19.3575C3.29003 19.6505 3.29003 20.1245 3.58303 20.4175ZM6.32643 16.614C4.61323 15.3189 3.49609 13.5222 3.49609 12.0026C3.49609 9.05464 7.41809 5.45264 11.9961 5.45264C13.5227 5.45264 15.0209 5.83402 16.3778 6.56194L14.1845 8.75543C13.5425 8.32314 12.7768 8.08423 11.998 8.08423H11.989C10.944 8.08623 9.96297 8.49523 9.22497 9.23523C8.48797 9.97523 8.08297 10.9582 8.08597 11.9982C8.08294 12.7784 8.32108 13.5448 8.75459 14.1857L6.32643 16.614ZM9.84756 13.0926L13.091 9.84901C12.7542 9.67712 12.3781 9.58423 11.997 9.58423H11.992C11.347 9.58523 10.742 9.83723 10.288 10.2932C9.83397 10.7502 9.58397 11.3552 9.58597 11.9992C9.58416 12.3816 9.67636 12.7572 9.84756 13.0926Z" fill="black"/>
<path d="M11.9944 20.0534C11.0474 20.0534 10.0964 19.9234 9.16442 19.6654C8.76542 19.5554 8.53142 19.1424 8.64142 18.7434C8.75142 18.3434 9.16742 18.1104 9.56442 18.2204C10.3654 18.4414 11.1824 18.5534 11.9944 18.5534C16.5774 18.5534 20.5044 14.9514 20.5044 12.0024C20.5044 11.0474 20.0604 9.95842 19.2554 8.93842C18.9994 8.61342 19.0554 8.14142 19.3804 7.88442C19.7054 7.62842 20.1774 7.68342 20.4334 8.00842C21.4464 9.29342 22.0044 10.7114 22.0044 12.0024C22.0044 15.6494 17.5394 20.0534 11.9944 20.0534Z" fill="black"/>
<path d="M12.5664 15.8542C12.2114 15.8542 11.8964 15.6012 11.8294 15.2402C11.7544 14.8332 12.0244 14.4412 12.4324 14.3672C13.4114 14.1862 14.1894 13.4082 14.3664 12.4282C14.4404 12.0202 14.8294 11.7522 15.2384 11.8242C15.6454 11.8982 15.9164 12.2882 15.8424 12.6962C15.5544 14.2862 14.2934 15.5492 12.7024 15.8412C12.6574 15.8502 12.6114 15.8542 12.5664 15.8542Z" fill="black"/>
</svg>
