<svg width="24" height="24" viewBox="0 0 24 24" fill="none" xmlns="http://www.w3.org/2000/svg">
<path fill-rule="evenodd" clip-rule="evenodd" d="M4.93052 4.27249C6.46237 2.58293 8.83824 2 12.0399 2C12.9666 2 13.8214 2.05142 14.5917 2.15694C14.7477 2.17832 14.8931 2.24827 15.0071 2.3569L20.6771 7.7569C20.7923 7.86656 20.8696 8.00998 20.8979 8.16645C21.0983 9.27377 21.1899 10.5511 21.1899 12C21.1899 15.4998 20.6712 18.0653 19.1576 19.7318C17.6242 21.42 15.2455 22 12.0399 22C8.83897 22 6.46283 21.4199 4.93074 19.7315C3.41862 18.0651 2.8999 15.4999 2.8999 12C2.8999 8.5048 3.41874 5.93992 4.93052 4.27249ZM6.04178 5.28001C4.93107 6.50508 4.3999 8.5652 4.3999 12C4.3999 15.4401 4.93118 17.4999 6.04156 18.7235C7.13197 19.9251 8.95083 20.5 12.0399 20.5C15.1343 20.5 16.9557 19.925 18.0472 18.7232C19.1586 17.4997 19.6899 15.4402 19.6899 12C19.6899 10.7185 19.6149 9.61383 19.4626 8.67165L14.1509 3.61282C13.52 3.53823 12.8146 3.5 12.0399 3.5C8.95156 3.5 7.13244 4.07707 6.04178 5.28001Z" fill="black"/>
<path fill-rule="evenodd" clip-rule="evenodd" d="M13.9336 2.08276C14.3478 2.08276 14.6836 2.41855 14.6836 2.83276V5.49376C14.6836 6.93726 15.8535 8.10676 17.2976 8.10676H20.2486C20.6628 8.10676 20.9986 8.44255 20.9986 8.85676C20.9986 9.27098 20.6628 9.60676 20.2486 9.60676H17.2976C15.0257 9.60676 13.1836 7.76627 13.1836 5.49376V2.83276C13.1836 2.41855 13.5194 2.08276 13.9336 2.08276Z" fill="black"/>
<path fill-rule="evenodd" clip-rule="evenodd" d="M11.6592 9.22632C12.0734 9.22632 12.4092 9.5621 12.4092 9.97632V16.0173C12.4092 16.4315 12.0734 16.7673 11.6592 16.7673C11.245 16.7673 10.9092 16.4315 10.9092 16.0173V9.97632C10.9092 9.5621 11.245 9.22632 11.6592 9.22632Z" fill="black"/>
<path fill-rule="evenodd" clip-rule="evenodd" d="M11.6595 9.22681C11.8589 9.22681 12.0502 9.30626 12.1909 9.44761L14.5359 11.8026C14.8282 12.0961 14.8272 12.571 14.5337 12.8633C14.2401 13.1555 13.7653 13.1545 13.473 12.861L11.6595 11.0397L9.84591 12.861C9.55364 13.1545 9.07877 13.1555 8.78525 12.8633C8.49174 12.571 8.49073 12.0961 8.783 11.8026L11.128 9.44761C11.2687 9.30626 11.46 9.22681 11.6595 9.22681Z" fill="black"/>
</svg>
