<svg width="24" height="24" viewBox="0 0 24 24" fill="none" xmlns="http://www.w3.org/2000/svg">
<path fill-rule="evenodd" clip-rule="evenodd" d="M12.0366 7.71289C12.4508 7.71289 12.7866 8.04868 12.7866 8.46289V15.6113C12.7866 16.0255 12.4508 16.3613 12.0366 16.3613C11.6224 16.3613 11.2866 16.0255 11.2866 15.6113V8.46289C11.2866 8.04868 11.6224 7.71289 12.0366 7.71289Z" fill="black"/>
<path fill-rule="evenodd" clip-rule="evenodd" d="M7.7085 12.0371C7.7085 11.6229 8.04428 11.2871 8.4585 11.2871H15.6143C16.0285 11.2871 16.3643 11.6229 16.3643 12.0371C16.3643 12.4513 16.0285 12.7871 15.6143 12.7871H8.4585C8.04428 12.7871 7.7085 12.4513 7.7085 12.0371Z" fill="black"/>
<path fill-rule="evenodd" clip-rule="evenodd" d="M4.96027 4.96051C3.66122 6.25956 3.0498 8.42744 3.0498 12.0369C3.0498 15.6463 3.66122 17.8142 4.96027 19.1133C6.25931 20.4123 8.42719 21.0237 12.0366 21.0237C15.6461 21.0237 17.814 20.4123 19.113 19.1133C20.4121 17.8142 21.0235 15.6463 21.0235 12.0369C21.0235 8.42744 20.4121 6.25956 19.113 4.96051C17.814 3.66147 15.6461 3.05005 12.0366 3.05005C8.42719 3.05005 6.25931 3.66147 4.96027 4.96051ZM3.89961 3.89985C5.64346 2.156 8.344 1.55005 12.0366 1.55005C15.7293 1.55005 18.4298 2.156 20.1737 3.89985C21.9175 5.6437 22.5235 8.34424 22.5235 12.0369C22.5235 15.7295 21.9175 18.4301 20.1737 20.1739C18.4298 21.9178 15.7293 22.5237 12.0366 22.5237C8.344 22.5237 5.64346 21.9178 3.89961 20.1739C2.15576 18.4301 1.5498 15.7295 1.5498 12.0369C1.5498 8.34424 2.15576 5.6437 3.89961 3.89985Z" fill="black"/>
</svg>
