<svg width="24" height="24" viewBox="0 0 24 24" fill="none" xmlns="http://www.w3.org/2000/svg">
<path d="M6.55876 21.2778C4.35676 20.9778 2.80176 20.2398 2.80176 18.6738C2.80176 16.4498 5.91876 14.4458 9.61076 14.4458C13.2828 14.4458 16.4188 16.4308 16.4188 18.6538C16.4188 20.8768 13.3028 21.4528 9.61076 21.4528" stroke="black" stroke-width="1.5" stroke-linecap="round" stroke-linejoin="round"/>
<path d="M6.56512 3.78488C5.75212 4.57788 5.24612 5.68487 5.24612 6.91087C5.23712 9.31287 7.17812 11.2669 9.57912 11.2749H9.61013C12.0201 11.2749 13.9741 9.32087 13.9741 6.91087C13.9741 4.50087 12.0201 2.54688 9.61013 2.54688" stroke="black" stroke-width="1.5" stroke-linecap="round" stroke-linejoin="round"/>
<path d="M16.8525 10.0752C18.2555 9.70022 19.2895 8.42122 19.2895 6.89922C19.2905 5.31122 18.1635 3.98522 16.6655 3.67822" stroke="black" stroke-width="1.5" stroke-linecap="round" stroke-linejoin="round"/>
<path d="M17.5127 13.6504C19.5007 13.6504 21.1987 14.9984 21.1987 16.2014C21.1987 16.9104 20.6137 17.6384 19.7237 17.8474" stroke="black" stroke-width="1.5" stroke-linecap="round" stroke-linejoin="round"/>
</svg>
