<svg width="24" height="24" viewBox="0 0 24 24" fill="none" xmlns="http://www.w3.org/2000/svg">
<path fill-rule="evenodd" clip-rule="evenodd" d="M4.93052 4.27249C6.46237 2.58293 8.83824 2 12.0399 2C12.9666 2 13.8214 2.05142 14.5917 2.15694C14.7477 2.17832 14.8931 2.24827 15.0071 2.3569L20.6771 7.7569C20.7923 7.86656 20.8696 8.00998 20.8979 8.16645C21.0983 9.27377 21.1899 10.5511 21.1899 12C21.1899 15.4998 20.6712 18.0653 19.1576 19.7318C17.6242 21.42 15.2455 22 12.0399 22C8.83897 22 6.46283 21.4199 4.93074 19.7315C3.41862 18.0651 2.8999 15.4999 2.8999 12C2.8999 8.5048 3.41874 5.93992 4.93052 4.27249ZM6.04178 5.28001C4.93107 6.50508 4.3999 8.5652 4.3999 12C4.3999 15.4401 4.93118 17.4999 6.04156 18.7235C7.13197 19.9251 8.95083 20.5 12.0399 20.5C15.1343 20.5 16.9557 19.925 18.0472 18.7232C19.1586 17.4997 19.6899 15.4402 19.6899 12C19.6899 10.7185 19.6149 9.61383 19.4626 8.67165L14.1509 3.61282C13.52 3.53823 12.8146 3.5 12.0399 3.5C8.95156 3.5 7.13244 4.07707 6.04178 5.28001Z" fill="black"/>
<path fill-rule="evenodd" clip-rule="evenodd" d="M13.9336 2.08276C14.3478 2.08276 14.6836 2.41855 14.6836 2.83276V5.49376C14.6836 6.93726 15.8535 8.10676 17.2976 8.10676H20.2486C20.6628 8.10676 20.9986 8.44255 20.9986 8.85676C20.9986 9.27098 20.6628 9.60676 20.2486 9.60676H17.2976C15.0257 9.60676 13.1836 7.76627 13.1836 5.49376V2.83276C13.1836 2.41855 13.5194 2.08276 13.9336 2.08276Z" fill="black"/>
<path fill-rule="evenodd" clip-rule="evenodd" d="M9.59858 10.7182C9.89147 10.4253 10.3663 10.4253 10.6592 10.7182L14.1252 14.1842C14.4181 14.4771 14.4181 14.952 14.1252 15.2449C13.8323 15.5378 13.3575 15.5378 13.0646 15.2449L9.59858 11.7789C9.30568 11.486 9.30568 11.0111 9.59858 10.7182Z" fill="black"/>
<path fill-rule="evenodd" clip-rule="evenodd" d="M14.1257 10.7182C14.4186 11.0111 14.4186 11.486 14.1257 11.7789L10.6597 15.2449C10.3668 15.5378 9.89196 15.5378 9.59906 15.2449C9.30617 14.952 9.30617 14.4771 9.59906 14.1842L13.0651 10.7182C13.358 10.4253 13.8328 10.4253 14.1257 10.7182Z" fill="black"/>
</svg>
