<svg width="24" height="24" viewBox="0 0 24 24" fill="none" xmlns="http://www.w3.org/2000/svg">
<path fill-rule="evenodd" clip-rule="evenodd" d="M7.48291 9.51123C7.89712 9.51123 8.23291 9.84702 8.23291 10.2612V16.9549C8.23291 17.3691 7.89712 17.7049 7.48291 17.7049C7.0687 17.7049 6.73291 17.3691 6.73291 16.9549V10.2612C6.73291 9.84702 7.0687 9.51123 7.48291 9.51123Z" fill="black"/>
<path fill-rule="evenodd" clip-rule="evenodd" d="M12.0366 6.30762C12.4508 6.30762 12.7866 6.6434 12.7866 7.05762V16.9555C12.7866 17.3697 12.4508 17.7055 12.0366 17.7055C11.6224 17.7055 11.2866 17.3697 11.2866 16.9555V7.05762C11.2866 6.6434 11.6224 6.30762 12.0366 6.30762Z" fill="black"/>
<path fill-rule="evenodd" clip-rule="evenodd" d="M16.5156 13.0483C16.9298 13.0483 17.2656 13.3841 17.2656 13.7983V16.9552C17.2656 17.3694 16.9298 17.7052 16.5156 17.7052C16.1014 17.7052 15.7656 17.3694 15.7656 16.9552V13.7983C15.7656 13.3841 16.1014 13.0483 16.5156 13.0483Z" fill="black"/>
<path fill-rule="evenodd" clip-rule="evenodd" d="M4.96027 4.96051C3.66122 6.25956 3.0498 8.42744 3.0498 12.0369C3.0498 15.6463 3.66122 17.8142 4.96027 19.1133C6.25931 20.4123 8.42719 21.0237 12.0366 21.0237C15.6461 21.0237 17.814 20.4123 19.113 19.1133C20.4121 17.8142 21.0235 15.6463 21.0235 12.0369C21.0235 8.42744 20.4121 6.25956 19.113 4.96051C17.814 3.66147 15.6461 3.05005 12.0366 3.05005C8.42719 3.05005 6.25931 3.66147 4.96027 4.96051ZM3.89961 3.89985C5.64346 2.156 8.344 1.55005 12.0366 1.55005C15.7293 1.55005 18.4298 2.156 20.1737 3.89985C21.9175 5.6437 22.5235 8.34424 22.5235 12.0369C22.5235 15.7295 21.9175 18.4301 20.1737 20.1739C18.4298 21.9178 15.7293 22.5237 12.0366 22.5237C8.344 22.5237 5.64346 21.9178 3.89961 20.1739C2.15576 18.4301 1.5498 15.7295 1.5498 12.0369C1.5498 8.34424 2.15576 5.6437 3.89961 3.89985Z" fill="black"/>
</svg>
