<svg width="24" height="24" viewBox="0 0 24 24" fill="none" xmlns="http://www.w3.org/2000/svg">
<g clip-path="url(#clip0_51_70460)">
<path d="M13.0001 14.9996H11.0001V4.99962H13.0001V14.9996ZM12.7931 23.7076C14.9531 22.8396 22.0001 19.4276 22.0001 11.9906V5.46662C22.0003 4.83705 21.8019 4.22346 21.4331 3.71319C21.0643 3.20293 20.544 2.822 19.9461 2.62462L12.0001 -0.010376L4.05412 2.62462C3.45628 2.822 2.93594 3.20293 2.56716 3.71319C2.19837 4.22346 1.99995 4.83705 2.00012 5.46662V11.9906C2.00012 18.5536 9.00512 22.5666 11.1531 23.6416L11.9531 24.0416L12.7931 23.7076ZM19.3161 4.52262C19.5145 4.5887 19.6872 4.71531 19.8099 4.88465C19.9326 5.05398 19.9991 5.25752 20.0001 5.46662V11.9906C20.0001 18.1736 13.9131 21.1026 12.0471 21.8526C10.1591 20.9076 4.00012 17.4066 4.00012 11.9906V5.46662C4.00112 5.25752 4.06764 5.05398 4.19034 4.88465C4.31303 4.71531 4.48572 4.5887 4.68412 4.52262L12.0001 2.09962L19.3161 4.52262ZM13.0001 16.9996H11.0001V18.9996H13.0001V16.9996Z" fill="#374957"/>
</g>
<defs>
<clipPath id="clip0_51_70460">
<rect width="24" height="24" fill="white"/>
</clipPath>
</defs>
</svg>
