<svg width="24" height="24" viewBox="0 0 24 24" fill="none" xmlns="http://www.w3.org/2000/svg">
<g clip-path="url(#clip0_51_70860)">
<path d="M10.0001 -2.7368e-05H12.0001V8.99997C12.0001 9.79562 11.6841 10.5587 11.1214 11.1213C10.5588 11.6839 9.79577 12 9.00012 12H8.00012V24H6.00012V12H5.00012C4.20447 12 3.44141 11.6839 2.8788 11.1213C2.31619 10.5587 2.00012 9.79562 2.00012 8.99997V-2.7368e-05H4.00012V8.99997C4.00012 9.26519 4.10548 9.51954 4.29302 9.70708C4.48055 9.89462 4.73491 9.99997 5.00012 9.99997H6.00012V-2.7368e-05H8.00012V9.99997H9.00012C9.26534 9.99997 9.51969 9.89462 9.70723 9.70708C9.89477 9.51954 10.0001 9.26519 10.0001 8.99997V-2.7368e-05ZM22.0001 9.26697C22.0001 13.944 18.1231 18.458 17.0001 19.667V24H15.0001V1.99997C15.0001 1.57891 15.133 1.16859 15.3798 0.82746C15.6266 0.486333 15.9748 0.23181 16.3748 0.100156C16.7747 -0.0314981 17.206 -0.0335665 17.6072 0.0942455C18.0084 0.222058 18.359 0.473229 18.6091 0.811973C20.1551 2.88697 22.0001 6.03897 22.0001 9.26697ZM17.0001 16.527C20.9001 11.499 20.9201 7.04997 17.0001 2.00697V16.527Z" fill="#374957"/>
</g>
<defs>
<clipPath id="clip0_51_70860">
<rect width="24" height="24" fill="white"/>
</clipPath>
</defs>
</svg>
