<svg width="24" height="24" viewBox="0 0 24 24" fill="none" xmlns="http://www.w3.org/2000/svg">
<g clip-path="url(#clip0_51_72324)">
<path d="M12.0001 15.0001C11.7349 15.0001 11.4805 14.8948 11.293 14.7072C11.1055 14.5197 11.0001 14.2653 11.0001 14.0001C11.0372 13.3467 11.236 12.7127 11.5786 12.155C11.9213 11.5974 12.397 11.1335 12.9631 10.8051C13.333 10.6024 13.6291 10.2875 13.8088 9.90588C13.9885 9.52422 14.0425 9.09541 13.9631 8.68112C13.8861 8.2854 13.6926 7.92171 13.4076 7.63664C13.1225 7.35158 12.7588 7.15814 12.3631 7.08112C12.0742 7.0278 11.7772 7.03877 11.493 7.11325C11.2089 7.18773 10.9446 7.32388 10.719 7.51204C10.4934 7.7002 10.3121 7.93573 10.1878 8.20191C10.0636 8.46809 9.99948 8.75837 10.0001 9.05212C10.0001 9.31733 9.89474 9.57169 9.7072 9.75922C9.51967 9.94676 9.26531 10.0521 9.0001 10.0521C8.73488 10.0521 8.48052 9.94676 8.29299 9.75922C8.10545 9.57169 8.0001 9.31733 8.0001 9.05212C7.99999 8.46787 8.12788 7.89069 8.37476 7.36117C8.62164 6.83165 8.98152 6.36264 9.4291 5.98712C9.85685 5.62952 10.3546 5.3653 10.8905 5.2114C11.4264 5.0575 11.9885 5.01733 12.5408 5.09346C13.0931 5.16959 13.6234 5.36034 14.0977 5.65348C14.572 5.94661 14.9797 6.33565 15.2948 6.79564C15.6098 7.25562 15.8252 7.77639 15.9272 8.32452C16.0291 8.87266 16.0154 9.43606 15.8868 9.97856C15.7582 10.5211 15.5176 11.0307 15.1805 11.4748C14.8433 11.9188 14.4171 12.2875 13.9291 12.5571C13.6762 12.7129 13.4615 12.9234 13.3008 13.1731C13.14 13.4229 13.0373 13.7055 13.0001 14.0001C13.0001 14.2653 12.8947 14.5197 12.7072 14.7072C12.5197 14.8948 12.2653 15.0001 12.0001 15.0001V15.0001ZM12.7931 23.7601C14.9531 22.8921 22.0001 19.4791 22.0001 12.0431V6.87212C22.0012 5.82113 21.6706 4.79659 21.0555 3.94443C20.4403 3.09227 19.572 2.45596 18.5741 2.12612L12.3151 0.0511158C12.1108 -0.0178524 11.8894 -0.0178524 11.6851 0.0511158L5.42609 2.12612C4.42821 2.45596 3.55984 3.09227 2.9447 3.94443C2.32955 4.79659 1.99899 5.82113 2.00009 6.87212V12.0431C2.00009 18.6051 9.0051 22.6191 11.1531 23.6931C11.4128 23.8496 11.7005 23.9538 12.0001 24.0001C12.277 23.9701 12.546 23.8887 12.7931 23.7601V23.7601ZM17.9441 4.02412C18.5426 4.22253 19.0634 4.60449 19.4325 5.11575C19.8016 5.62701 20.0002 6.24156 20.0001 6.87212V12.0431C20.0001 18.2261 13.9131 21.1541 12.0471 21.9041C10.1591 20.9601 4.00009 17.4591 4.00009 12.0431V6.87212C4.00001 6.24156 4.19862 5.62701 4.5677 5.11575C4.93678 4.60449 5.45757 4.22253 6.0561 4.02412L12.0001 2.05412L17.9441 4.02412ZM12.0001 17.0001C11.8023 17.0001 11.609 17.0588 11.4445 17.1686C11.2801 17.2785 11.1519 17.4347 11.0762 17.6174C11.0005 17.8002 10.9807 18.0012 11.0193 18.1952C11.0579 18.3892 11.1531 18.5674 11.293 18.7072C11.4328 18.8471 11.611 18.9423 11.805 18.9809C11.999 19.0195 12.2001 18.9997 12.3828 18.924C12.5655 18.8483 12.7217 18.7201 12.8316 18.5557C12.9414 18.3912 13.0001 18.1979 13.0001 18.0001C13.0001 17.7349 12.8947 17.4805 12.7072 17.293C12.5197 17.1055 12.2653 17.0001 12.0001 17.0001Z" fill="#374957"/>
</g>
<defs>
<clipPath id="clip0_51_72324">
<rect width="24" height="24" fill="white"/>
</clipPath>
</defs>
</svg>
