<svg width="24" height="24" viewBox="0 0 24 24" fill="none" xmlns="http://www.w3.org/2000/svg">
<g clip-path="url(#clip0_51_69358)">
<path d="M24 15.0001C23.9976 17.1211 23.154 19.1545 21.6542 20.6543C20.1544 22.1541 18.121 22.9977 16 23.0001H15.763L18.178 20.5851C19.4174 20.1037 20.4615 19.2237 21.1459 18.0837C21.8303 16.9437 22.116 15.6084 21.9582 14.2882C21.8003 12.9679 21.2078 11.7377 20.274 10.7912C19.3401 9.84469 18.118 9.23567 16.8 9.06006L16.042 8.96006L15.942 8.20206C15.7318 6.70044 14.9609 5.33407 13.7843 4.3777C12.6077 3.42133 11.1127 2.94589 9.59982 3.04699C8.08694 3.14808 6.66844 3.81821 5.62956 4.92263C4.59067 6.02704 4.00845 7.48383 3.99996 9.00006C3.99881 10.2842 4.41349 11.5342 5.18196 12.5631L6.06596 13.7551L4.62796 14.1261C3.80272 14.3362 3.08276 14.8408 2.6036 15.5448C2.12443 16.2487 1.91911 17.1036 2.02628 17.9484C2.13344 18.7932 2.54571 19.5697 3.18548 20.1318C3.82524 20.6938 4.64838 21.0026 5.49996 21.0001H5.62096L7.62096 23.0001H5.49996C4.27595 23.0016 3.08652 22.594 2.12067 21.8422C1.15481 21.0903 0.467919 20.0372 0.169132 18.8502C-0.129654 17.6632 -0.0232008 16.4104 0.47158 15.2909C0.96636 14.1713 1.82109 13.2492 2.89996 12.6711C2.30779 11.5381 1.99898 10.2785 1.99996 9.00006C2.00621 7.03884 2.73267 5.14825 4.04132 3.68748C5.34997 2.22671 7.14962 1.29755 9.09835 1.07653C11.0471 0.855503 13.0091 1.35802 14.6117 2.4886C16.2142 3.61919 17.3456 5.29906 17.791 7.20906C19.5526 7.61775 21.1244 8.60968 22.2515 10.0239C23.3785 11.4381 23.9947 13.1917 24 15.0001V15.0001ZM13.813 22.1211L19.467 16.4671L18.053 15.0531L12.4 20.7071C12.2096 20.8891 11.9564 20.9907 11.693 20.9907C11.4296 20.9907 11.1763 20.8891 10.986 20.7071L7.59996 17.3231L6.18696 18.7371L9.57096 22.1211C10.1335 22.6835 10.8965 22.9994 11.692 22.9994C12.4875 22.9994 13.2504 22.6835 13.813 22.1211V22.1211Z" fill="#374957"/>
</g>
<defs>
<clipPath id="clip0_51_69358">
<rect width="24" height="24" fill="white"/>
</clipPath>
</defs>
</svg>
