<svg width="24" height="24" viewBox="0 0 24 24" fill="none" xmlns="http://www.w3.org/2000/svg">
<g clip-path="url(#clip0_51_71333)">
<path d="M21 17.9998C20.2244 18.0007 19.4795 18.3034 18.923 18.8438L15.963 17.3628C15.983 17.2427 15.9953 17.1215 16 16.9998C15.9953 16.8782 15.983 16.7569 15.963 16.6368L18.923 15.1558C19.4215 15.6333 20.0695 15.9238 20.7575 15.9783C21.4456 16.0328 22.1313 15.848 22.6987 15.455C23.2661 15.0621 23.6803 14.4851 23.8712 13.8219C24.0621 13.1587 24.018 12.4498 23.7464 11.8154C23.4748 11.1809 22.9923 10.6597 22.3806 10.3401C21.7689 10.0205 21.0656 9.92198 20.3896 10.0613C19.7136 10.2007 19.1066 10.5692 18.6711 11.1047C18.2357 11.6402 17.9986 12.3097 18 12.9998C18.0047 13.1215 18.0171 13.2427 18.037 13.3628L15.077 14.8438C14.6536 14.4342 14.119 14.1583 13.5398 14.0505C12.9606 13.9427 12.3625 14.0078 11.8201 14.2378C11.2777 14.4677 10.815 14.8522 10.4897 15.3434C10.1644 15.8346 9.99097 16.4107 9.99097 16.9998C9.99097 17.589 10.1644 18.1651 10.4897 18.6563C10.815 19.1475 11.2777 19.532 11.8201 19.7619C12.3625 19.9919 12.9606 20.057 13.5398 19.9492C14.119 19.8414 14.6536 19.5655 15.077 19.1558L18.037 20.6368C18.0171 20.7569 18.0047 20.8782 18 20.9998C18 21.5932 18.176 22.1732 18.5056 22.6666C18.8353 23.1599 19.3038 23.5444 19.852 23.7715C20.4002 23.9985 21.0034 24.058 21.5853 23.9422C22.1673 23.8264 22.7018 23.5407 23.1214 23.1212C23.5409 22.7016 23.8266 22.1671 23.9424 21.5851C24.0581 21.0032 23.9987 20.4 23.7717 19.8518C23.5446 19.3036 23.1601 18.8351 22.6667 18.5054C22.1734 18.1758 21.5934 17.9998 21 17.9998ZM21 11.9998C21.1978 11.9998 21.3912 12.0585 21.5556 12.1684C21.7201 12.2783 21.8482 12.4344 21.9239 12.6172C21.9996 12.7999 22.0194 13.001 21.9808 13.1949C21.9422 13.3889 21.847 13.5671 21.7071 13.707C21.5673 13.8468 21.3891 13.942 21.1951 13.9806C21.0011 14.0192 20.8001 13.9994 20.6174 13.9237C20.4346 13.848 20.2784 13.7199 20.1686 13.5554C20.0587 13.391 20 13.1976 20 12.9998C20 12.7346 20.1054 12.4803 20.2929 12.2927C20.4805 12.1052 20.7348 11.9998 21 11.9998ZM13 17.9998C12.8023 17.9998 12.6089 17.9412 12.4445 17.8313C12.28 17.7214 12.1518 17.5653 12.0762 17.3825C12.0005 17.1998 11.9807 16.9987 12.0193 16.8048C12.0578 16.6108 12.1531 16.4326 12.2929 16.2927C12.4328 16.1529 12.611 16.0576 12.8049 16.0191C12.9989 15.9805 13.2 16.0003 13.3827 16.076C13.5654 16.1517 13.7216 16.2798 13.8315 16.4443C13.9414 16.6087 14 16.8021 14 16.9998C14 17.2651 13.8947 17.5194 13.7071 17.707C13.5196 17.8945 13.2653 17.9998 13 17.9998ZM21 21.9998C20.8023 21.9998 20.6089 21.9412 20.4445 21.8313C20.28 21.7214 20.1518 21.5653 20.0762 21.3825C20.0005 21.1998 19.9807 20.9987 20.0193 20.8048C20.0578 20.6108 20.1531 20.4326 20.2929 20.2927C20.4328 20.1529 20.611 20.0576 20.8049 20.0191C20.9989 19.9805 21.2 20.0003 21.3827 20.076C21.5654 20.1517 21.7216 20.2798 21.8315 20.4443C21.9414 20.6087 22 20.8021 22 20.9998C22 21.2651 21.8947 21.5194 21.7071 21.707C21.5196 21.8945 21.2653 21.9998 21 21.9998ZM12 21.9998C12 22.2651 11.8947 22.5194 11.7071 22.707C11.5196 22.8945 11.2653 22.9998 11 22.9998H5.67904C4.34631 22.9755 3.06199 22.4961 2.03933 21.6411C1.01668 20.7862 0.317197 19.6072 0.0570366 18.2998C-0.113254 17.1745 0.0734827 16.0242 0.590985 15.0105C1.10849 13.9968 1.93072 13.1709 2.94204 12.6488C2.07389 11.0702 1.79059 9.23585 2.14204 7.46885C2.48376 5.72113 3.39885 4.13739 4.74235 2.96851C6.08586 1.79962 7.78096 1.11242 9.55915 1.01577C11.3373 0.919107 13.0969 1.41852 14.5592 2.43488C16.0215 3.45125 17.1029 4.92647 17.632 6.62685C17.6824 6.7994 17.7747 6.9568 17.9007 7.08504C18.0267 7.21328 18.1824 7.30837 18.354 7.36185C18.4824 7.39797 18.6023 7.45941 18.7065 7.54254C18.8108 7.62568 18.8974 7.72883 18.9612 7.84592C19.025 7.96302 19.0648 8.09169 19.0781 8.22438C19.0915 8.35706 19.0781 8.49108 19.0389 8.61854C18.9997 8.746 18.9354 8.86432 18.8497 8.96656C18.7641 9.06879 18.6589 9.15286 18.5403 9.21383C18.4217 9.27479 18.2921 9.31142 18.1591 9.32156C18.0262 9.33169 17.8925 9.31513 17.766 9.27285C17.2839 9.12297 16.8457 8.8576 16.4895 8.4998C16.1332 8.14201 15.8698 7.70263 15.722 7.21985C15.4814 6.41905 15.076 5.6774 14.5319 5.04246C13.9878 4.40753 13.317 3.89332 12.5625 3.53284C11.8081 3.17236 10.9866 2.97356 10.1508 2.94919C9.31494 2.92482 8.48326 3.07542 7.70906 3.39133C6.93486 3.70724 6.23524 4.18148 5.65508 4.78364C5.07492 5.38579 4.62702 6.10257 4.34012 6.88798C4.05322 7.67339 3.93366 8.5101 3.98909 9.34443C4.04453 10.1788 4.27375 10.9923 4.66204 11.7328C4.90947 12.1948 4.9651 12.7356 4.81688 13.2383C4.66867 13.7409 4.32853 14.165 3.87004 14.4188C3.22636 14.7519 2.70321 15.2783 2.37408 15.924C2.04495 16.5697 1.92638 17.3023 2.03504 18.0188C2.22014 18.8524 2.68009 19.5995 3.34099 20.1402C4.00188 20.6808 4.82533 20.9836 5.67904 20.9998H11C11.2653 20.9998 11.5196 21.1052 11.7071 21.2927C11.8947 21.4803 12 21.7346 12 21.9998Z" fill="#374957"/>
</g>
<defs>
<clipPath id="clip0_51_71333">
<rect width="24" height="24" fill="white"/>
</clipPath>
</defs>
</svg>
