<svg width="24" height="24" viewBox="0 0 24 24" fill="none" xmlns="http://www.w3.org/2000/svg">
<g clip-path="url(#clip0_51_69484)">
<path d="M22.3748 3.78499C20.9812 2.99323 19.4572 2.45712 17.8748 2.20199C17.7226 1.63514 17.4064 1.12586 16.9658 0.737986C16.6342 0.451505 16.2445 0.240025 15.8236 0.118005C15.4026 -0.00401555 14.9603 -0.0336983 14.5268 0.0309857C12.9351 0.268451 11.3859 0.733895 9.92683 1.41299C9.70754 1.28297 9.47222 1.18212 9.22683 1.11299C8.81861 1.00174 8.3916 0.977373 7.97337 1.04145C7.55515 1.10553 7.15502 1.25663 6.79883 1.48499V1.48499C4.68807 2.88044 2.87926 4.68585 1.47983 6.79399C1.25124 7.15007 1.10001 7.55021 1.03592 7.96847C0.971839 8.38673 0.996338 8.81379 1.10783 9.22199C1.17707 9.46734 1.27792 9.70264 1.40783 9.92199C0.730351 11.3831 0.266278 12.9339 0.0298315 14.527C-0.0340666 14.9607 -0.0039115 15.403 0.11825 15.824C0.240411 16.2451 0.451719 16.6349 0.737832 16.967C1.1251 17.4088 1.6345 17.7262 2.20183 17.879C2.45684 19.4614 2.99296 20.9854 3.78483 22.379C4.11472 22.9716 4.62609 23.4427 5.24371 23.723C5.86133 24.0033 6.55261 24.0779 7.21583 23.936C7.90188 23.8001 8.52603 23.4471 8.99603 22.9292C9.46604 22.4113 9.75697 21.756 9.82583 21.06C9.90625 20.0055 10.1603 18.9716 10.5778 18H11.7208C11.991 17.1438 12.3402 16.3146 12.7638 15.523L15.5228 12.764C16.3144 12.3403 17.1436 11.9912 17.9998 11.721V10.578C18.9702 10.1609 20.0027 9.90683 21.0558 9.82599C21.7518 9.75712 22.4072 9.46619 22.9251 8.99619C23.443 8.52618 23.796 7.90204 23.9318 7.21599C24.0749 6.55273 24.0008 5.86103 23.7204 5.24316C23.44 4.62528 22.9682 4.11403 22.3748 3.78499V3.78499ZM2.99983 11.267L10.8608 14.822C10.6511 15.2034 10.4638 15.5968 10.2998 16H2.99983C2.858 16.001 2.71767 15.971 2.58864 15.9121C2.45961 15.8532 2.34501 15.7668 2.25283 15.659C2.15446 15.544 2.08201 15.4092 2.04042 15.2638C1.99883 15.1183 1.98908 14.9656 2.01183 14.816C2.19119 13.5963 2.52312 12.4039 2.99983 11.267V11.267ZM7.83683 20.833C7.81276 21.1088 7.6995 21.3692 7.5142 21.5749C7.3289 21.7806 7.08164 21.9204 6.80983 21.973C6.55972 22.0299 6.29783 22.003 6.06453 21.8964C5.83124 21.7897 5.63948 21.6093 5.51883 21.383C4.91813 20.3296 4.48781 19.1878 4.24383 18H8.45983C8.17683 18.874 7.83883 20.833 7.83883 20.833H7.83683ZM12.2158 13.24L3.55483 9.32299C3.42844 9.25945 3.31685 9.16999 3.22734 9.06045C3.13783 8.9509 3.07241 8.82373 3.03533 8.68721C2.99825 8.55069 2.99035 8.4079 3.01215 8.26812C3.03395 8.12835 3.08495 7.99473 3.16183 7.87599C4.40158 6.00506 6.00465 4.40234 7.87583 3.16299C7.99465 3.08425 8.12914 3.03221 8.27001 3.01046C8.41088 2.98871 8.5548 2.99776 8.69183 3.03699C8.82202 3.07064 8.94381 3.13095 9.04949 3.21409C9.15518 3.29722 9.24246 3.40139 9.30583 3.51999L13.2398 12.22L12.2158 13.24ZM15.9998 10.3C15.5966 10.4639 15.2033 10.6513 14.8218 10.861L11.2668 2.99999C12.4033 2.521 13.5958 2.18736 14.8158 2.00699C14.9651 1.98406 15.1176 1.99374 15.2627 2.03534C15.4079 2.07694 15.5424 2.14949 15.6568 2.24799C15.7655 2.34065 15.8525 2.456 15.9118 2.58593C15.971 2.71585 16.0011 2.85719 15.9998 2.99999V10.3ZM21.9728 6.80999C21.9202 7.08179 21.7805 7.32905 21.5748 7.51435C21.3691 7.69966 21.1086 7.81291 20.8328 7.83699C20.8328 7.83699 18.8738 8.17699 17.9998 8.45999V4.24399C19.1878 4.48859 20.3296 4.91958 21.3828 5.52099C21.6088 5.64202 21.7889 5.83383 21.8955 6.06701C22.0021 6.30019 22.0292 6.56189 21.9728 6.81199V6.80999Z" fill="#374957"/>
</g>
<defs>
<clipPath id="clip0_51_69484">
<rect width="24" height="24" fill="white"/>
</clipPath>
</defs>
</svg>
