<svg width="24" height="24" viewBox="0 0 24 24" fill="none" xmlns="http://www.w3.org/2000/svg">
<g clip-path="url(#clip0_51_69256)">
<path d="M11.9999 -0.0130005L0.407858 19.6C0.145455 20.0426 0.00493746 20.5468 0.00059221 21.0614C-0.00375304 21.5759 0.128229 22.0825 0.383119 22.5295C0.638009 22.9765 1.00672 23.348 1.45176 23.6063C1.8968 23.8646 2.40229 24.0004 2.91686 24H21.0829C21.5974 24.0004 22.1029 23.8646 22.548 23.6063C22.993 23.348 23.3617 22.9765 23.6166 22.5295C23.8715 22.0825 24.0035 21.5759 23.9991 21.0614C23.9948 20.5468 23.8543 20.0426 23.5919 19.6L11.9999 -0.0130005ZM8.99986 22L11.9999 16.919L14.9999 22H8.99986ZM21.8799 21.539C21.8011 21.68 21.6858 21.7972 21.5461 21.8784C21.4064 21.9595 21.2474 22.0015 21.0859 22H17.3259L11.9999 12.987L6.67386 22H2.91686C2.75565 22.0002 2.59725 21.9578 2.45777 21.8769C2.3183 21.7961 2.20271 21.6798 2.12276 21.5398C2.04281 21.3998 2.00135 21.2411 2.0026 21.0799C2.00384 20.9187 2.04775 20.7607 2.12986 20.622L11.9999 3.919L21.8699 20.619C21.9537 20.7575 21.9986 20.9161 21.9998 21.078C22.001 21.24 21.9586 21.3992 21.8769 21.539H21.8799Z" fill="#374957"/>
</g>
<defs>
<clipPath id="clip0_51_69256">
<rect width="24" height="24" fill="white"/>
</clipPath>
</defs>
</svg>
