<svg width="24" height="24" viewBox="0 0 24 24" fill="none" xmlns="http://www.w3.org/2000/svg">
<g clip-path="url(#clip0_51_71906)">
<path d="M21.1549 19.7414C22.9915 17.5802 23.9998 14.8365 23.9998 12.0004C23.9998 9.16425 22.9915 6.42051 21.1549 4.25936L22.0149 3.39936C22.2024 3.21172 22.3077 2.95728 22.3076 2.69201C22.3075 2.42674 22.202 2.17237 22.0144 1.98486C21.8268 1.79736 21.5723 1.69207 21.307 1.69216C21.0418 1.69226 20.7874 1.79772 20.5999 1.98536L19.7399 2.84536C17.5787 1.00879 14.835 0.000427246 11.9989 0.000427246C9.16277 0.000427246 6.41904 1.00879 4.25789 2.84536L3.39789 1.98536C3.20916 1.80333 2.95649 1.70272 2.69429 1.70518C2.43209 1.70764 2.18135 1.81299 1.99607 1.99853C1.81079 2.18407 1.7058 2.43496 1.70371 2.69716C1.70162 2.95936 1.8026 3.21189 1.98489 3.40036L2.84489 4.26036C1.00832 6.42151 -4.57764e-05 9.16525 -4.57764e-05 12.0014C-4.57764e-05 14.8375 1.00832 17.5812 2.84489 19.7424L1.98489 20.6024C1.88945 20.6947 1.81335 20.8051 1.76103 20.9271C1.7087 21.0492 1.68121 21.1804 1.68015 21.3132C1.67909 21.446 1.70449 21.5776 1.75486 21.7005C1.80523 21.8233 1.87956 21.9349 1.97352 22.0288C2.06747 22.1226 2.17918 22.1968 2.30211 22.247C2.42504 22.2971 2.55673 22.3224 2.68951 22.3211C2.82229 22.3199 2.95349 22.2922 3.07545 22.2397C3.19742 22.1872 3.30771 22.1109 3.39989 22.0154L4.25989 21.1554C6.42104 22.9919 9.16477 24.0003 12.0009 24.0003C14.837 24.0003 17.5807 22.9919 19.7419 21.1554L20.6019 22.0154C20.7906 22.1974 21.0433 22.298 21.3055 22.2956C21.5677 22.2931 21.8184 22.1877 22.0037 22.0022C22.189 21.8167 22.294 21.5658 22.2961 21.3036C22.2982 21.0414 22.1972 20.7888 22.0149 20.6004L21.1549 19.7414ZM21.9999 12.0004C22.0017 14.3068 21.2021 16.5423 19.7379 18.3244L16.1669 14.7534C16.71 13.938 16.9998 12.9801 16.9998 12.0004C16.9998 11.0206 16.71 10.0628 16.1669 9.24736L19.7379 5.67636C21.2021 7.45844 22.0017 9.69389 21.9999 12.0004V12.0004ZM8.99989 12.0004C8.99989 11.407 9.17584 10.827 9.50548 10.3337C9.83513 9.84031 10.3037 9.45579 10.8518 9.22873C11.4 9.00166 12.0032 8.94225 12.5852 9.05801C13.1671 9.17376 13.7017 9.45949 14.1212 9.87904C14.5408 10.2986 14.8265 10.8332 14.9422 11.4151C15.058 11.997 14.9986 12.6002 14.7715 13.1484C14.5445 13.6966 14.1599 14.1651 13.6666 14.4948C13.1733 14.8244 12.5932 15.0004 11.9999 15.0004C11.2042 15.0004 10.4412 14.6843 9.87857 14.1217C9.31596 13.5591 8.99989 12.796 8.99989 12.0004ZM11.9999 2.00036C14.3064 1.99852 16.5418 2.79811 18.3239 4.26236L14.7529 7.83336C13.9375 7.29023 12.9796 7.00042 11.9999 7.00042C11.0202 7.00042 10.0623 7.29023 9.24689 7.83336L5.67589 4.26236C7.45796 2.79811 9.69342 1.99852 11.9999 2.00036V2.00036ZM1.99989 12.0004C1.99805 9.69389 2.79764 7.45844 4.26189 5.67636L7.83289 9.24736C7.28975 10.0628 6.99995 11.0206 6.99995 12.0004C6.99995 12.9801 7.28975 13.938 7.83289 14.7534L4.26189 18.3244C2.79764 16.5423 1.99805 14.3068 1.99989 12.0004V12.0004ZM11.9999 22.0004C9.69342 22.0022 7.45796 21.2026 5.67589 19.7384L9.24689 16.1674C10.0623 16.7105 11.0202 17.0003 11.9999 17.0003C12.9796 17.0003 13.9375 16.7105 14.7529 16.1674L18.3239 19.7384C16.5418 21.2026 14.3064 22.0022 11.9999 22.0004V22.0004Z" fill="#374957"/>
</g>
<defs>
<clipPath id="clip0_51_71906">
<rect width="24" height="24" fill="white"/>
</clipPath>
</defs>
</svg>
