<svg width="24" height="24" viewBox="0 0 24 24" fill="none" xmlns="http://www.w3.org/2000/svg">
<g clip-path="url(#clip0_51_68940)">
<path d="M23.0001 13C22.9965 10.2573 21.9693 7.61476 20.1197 5.58962C18.2701 3.56448 15.7312 2.3026 13.0001 2.051V0H11.0001V2.051C8.95442 2.2338 7.00103 2.98687 5.36201 4.2246C3.72299 5.46233 2.4641 7.13506 1.72844 9.05265C0.992777 10.9702 0.809861 13.0558 1.20048 15.0721C1.59111 17.0885 2.5396 18.9549 3.93813 20.459L2.01013 22.577L3.49013 23.923L5.42413 21.8C7.31838 23.2297 9.62693 24.0031 12.0001 24.0031C14.3733 24.0031 16.6819 23.2297 18.5761 21.8L20.5101 23.926L21.9901 22.58L20.0621 20.462C21.95 18.4358 22.9998 15.7694 23.0001 13V13ZM12.0001 22C10.2201 22 8.48004 21.4722 7 20.4832C5.51996 19.4943 4.36641 18.0887 3.68522 16.4442C3.00403 14.7996 2.8258 12.99 3.17306 11.2442C3.52033 9.49836 4.3775 7.89471 5.63617 6.63604C6.89484 5.37737 8.49849 4.5202 10.2443 4.17293C11.9901 3.82567 13.7997 4.0039 15.4443 4.68508C17.0888 5.36627 18.4944 6.51983 19.4834 7.99987C20.4723 9.47991 21.0001 11.22 21.0001 13C20.9972 15.3861 20.0481 17.6735 18.3609 19.3607C16.6737 21.0479 14.3862 21.9971 12.0001 22V22Z" fill="#374957"/>
<path d="M5.52285 1.745L4.45585 0.0559998C2.7298 1.06864 1.22116 2.41278 0.0168457 4.011L1.67985 5.12C2.7275 3.75422 4.03321 2.60751 5.52285 1.745V1.745Z" fill="#374957"/>
<path d="M22.3202 5.12L23.9832 4.011C22.7788 2.41278 21.2702 1.06864 19.5442 0.0559998L18.4772 1.745C19.9668 2.60751 21.2725 3.75422 22.3202 5.12V5.12Z" fill="#374957"/>
<path d="M11.0001 7.00002V12.414L14.2931 15.707L15.7071 14.293L13.0001 11.586V7.00002H11.0001Z" fill="#374957"/>
</g>
<defs>
<clipPath id="clip0_51_68940">
<rect width="24" height="24" fill="white"/>
</clipPath>
</defs>
</svg>
