<svg width="24" height="24" viewBox="0 0 24 24" fill="none" xmlns="http://www.w3.org/2000/svg">
<g clip-path="url(#clip0_51_69995)">
<path d="M23.9999 12.0004C24.0008 9.16408 22.9923 6.42006 21.1549 4.25936L22.0149 3.39936L20.5999 1.98536L19.7399 2.84536C17.5788 1.00879 14.8351 0.000427246 11.9989 0.000427246C9.16282 0.000427246 6.41909 1.00879 4.25794 2.84536L3.39794 1.98536L1.98494 3.40036L2.84494 4.26036C1.00836 6.42151 0 9.16525 0 12.0014C0 14.8375 1.00836 17.5812 2.84494 19.7424L1.98494 20.6024L3.39994 22.0154L4.25994 21.1554C6.42109 22.9919 9.16482 24.0003 12.0009 24.0003C14.8371 24.0003 17.5808 22.9919 19.7419 21.1554L20.6019 22.0154L22.0149 20.6004L21.1549 19.7404C22.9921 17.5799 24.0006 14.8363 23.9999 12.0004V12.0004ZM21.9999 12.0004C22.0018 14.3068 21.2022 16.5423 19.7379 18.3244L16.1669 14.7534C16.7101 13.938 16.9999 12.9801 16.9999 12.0004C16.9999 11.0206 16.7101 10.0628 16.1669 9.24736L19.7379 5.67636C21.2022 7.45844 22.0018 9.69389 21.9999 12.0004V12.0004ZM8.99994 12.0004C8.99994 11.407 9.17588 10.827 9.50553 10.3337C9.83517 9.84031 10.3037 9.45579 10.8519 9.22873C11.4001 9.00166 12.0033 8.94225 12.5852 9.05801C13.1672 9.17376 13.7017 9.45949 14.1213 9.87904C14.5408 10.2986 14.8265 10.8332 14.9423 11.4151C15.058 11.997 14.9986 12.6002 14.7716 13.1484C14.5445 13.6966 14.16 14.1651 13.6666 14.4948C13.1733 14.8244 12.5933 15.0004 11.9999 15.0004C11.2043 15.0004 10.4412 14.6843 9.87862 14.1217C9.31601 13.5591 8.99994 12.796 8.99994 12.0004ZM11.9999 2.00036C14.3064 1.99852 16.5419 2.79811 18.3239 4.26236L14.7529 7.83336C13.9375 7.29023 12.9797 7.00042 11.9999 7.00042C11.0202 7.00042 10.0623 7.29023 9.24694 7.83336L5.67594 4.26236C7.45801 2.79811 9.69347 1.99852 11.9999 2.00036V2.00036ZM1.99994 12.0004C1.9981 9.69389 2.79769 7.45844 4.26194 5.67636L7.83294 9.24736C7.2898 10.0628 6.99999 11.0206 6.99999 12.0004C6.99999 12.9801 7.2898 13.938 7.83294 14.7534L4.26194 18.3244C2.79769 16.5423 1.9981 14.3068 1.99994 12.0004V12.0004ZM11.9999 22.0004C9.69347 22.0022 7.45801 21.2026 5.67594 19.7384L9.24694 16.1674C10.0623 16.7105 11.0202 17.0003 11.9999 17.0003C12.9797 17.0003 13.9375 16.7105 14.7529 16.1674L18.3239 19.7384C16.5419 21.2026 14.3064 22.0022 11.9999 22.0004V22.0004Z" fill="#374957"/>
</g>
<defs>
<clipPath id="clip0_51_69995">
<rect width="24" height="24" fill="white"/>
</clipPath>
</defs>
</svg>
