<svg width="24" height="24" viewBox="0 0 24 24" fill="none" xmlns="http://www.w3.org/2000/svg">
<g clip-path="url(#clip0_51_69753)">
<path d="M22.74 9.25019L9 0.13719V6.48519L0 0.0571899V23.9432L9 17.5152V23.9432L22.741 14.1322C23.1295 13.8546 23.4461 13.4883 23.6646 13.0638C23.883 12.6392 23.997 12.1687 23.997 11.6912C23.997 11.2137 23.883 10.7432 23.6646 10.3186C23.4461 9.89404 23.1295 9.52775 22.741 9.25019H22.74ZM21.578 12.5052L11 20.0572V13.6282L2 20.0572V3.94319L11 10.3722V3.86319L21.59 10.8862C21.7172 10.9799 21.8204 11.1023 21.8911 11.2436C21.9618 11.3848 21.9981 11.5408 21.9969 11.6988C21.9957 11.8567 21.9572 12.0121 21.8843 12.1523C21.8115 12.2925 21.7066 12.4134 21.578 12.5052Z" fill="#374957"/>
</g>
<defs>
<clipPath id="clip0_51_69753">
<rect width="24" height="24" fill="white"/>
</clipPath>
</defs>
</svg>
