<svg width="24" height="24" viewBox="0 0 24 24" fill="none" xmlns="http://www.w3.org/2000/svg">
<g clip-path="url(#clip0_51_72321)">
<path d="M12.0001 15.0001C11.7349 15.0001 11.4805 14.8948 11.293 14.7072C11.1055 14.5197 11.0001 14.2653 11.0001 14.0001V6.00012C11.0001 5.7349 11.1055 5.48055 11.293 5.29301C11.4805 5.10547 11.7349 5.00012 12.0001 5.00012C12.2653 5.00012 12.5197 5.10547 12.7072 5.29301C12.8947 5.48055 13.0001 5.7349 13.0001 6.00012V14.0001C13.0001 14.2653 12.8947 14.5197 12.7072 14.7072C12.5197 14.8948 12.2653 15.0001 12.0001 15.0001ZM12.7931 23.7601C14.9531 22.8921 22.0001 19.4791 22.0001 12.0431V6.87212C22.0012 5.82113 21.6706 4.79659 21.0555 3.94443C20.4403 3.09227 19.572 2.45596 18.5741 2.12612L12.3151 0.0511158C12.1108 -0.0178524 11.8894 -0.0178524 11.6851 0.0511158L5.42609 2.12612C4.42821 2.45596 3.55984 3.09227 2.9447 3.94443C2.32955 4.79659 1.99899 5.82113 2.00009 6.87212V12.0431C2.00009 18.6051 9.0051 22.6191 11.1531 23.6931C11.4248 23.8228 11.7084 23.9256 12.0001 24.0001C12.2712 23.9447 12.5367 23.8643 12.7931 23.7601V23.7601ZM17.9441 4.02412C18.5426 4.22253 19.0634 4.60449 19.4325 5.11575C19.8016 5.62701 20.0002 6.24156 20.0001 6.87212V12.0431C20.0001 18.2261 13.9131 21.1541 12.0471 21.9041C10.1591 20.9601 4.00009 17.4591 4.00009 12.0431V6.87212C4.00001 6.24156 4.19862 5.62701 4.5677 5.11575C4.93678 4.60449 5.45757 4.22253 6.0561 4.02412L12.0001 2.05412L17.9441 4.02412ZM12.0001 17.0001C11.8023 17.0001 11.609 17.0588 11.4445 17.1686C11.2801 17.2785 11.1519 17.4347 11.0762 17.6174C11.0005 17.8002 10.9807 18.0012 11.0193 18.1952C11.0579 18.3892 11.1531 18.5674 11.293 18.7072C11.4328 18.8471 11.611 18.9423 11.805 18.9809C11.999 19.0195 12.2001 18.9997 12.3828 18.924C12.5655 18.8483 12.7217 18.7201 12.8316 18.5557C12.9414 18.3912 13.0001 18.1979 13.0001 18.0001C13.0001 17.7349 12.8947 17.4805 12.7072 17.293C12.5197 17.1055 12.2653 17.0001 12.0001 17.0001Z" fill="#374957"/>
</g>
<defs>
<clipPath id="clip0_51_72321">
<rect width="24" height="24" fill="white"/>
</clipPath>
</defs>
</svg>
