<svg width="24" height="24" viewBox="0 0 24 24" fill="none" xmlns="http://www.w3.org/2000/svg">
<g clip-path="url(#clip0_51_69796)">
<path d="M13.9999 19.9389V21.9999H17.9999V23.9999H7.99993V21.9999H11.9999V19.9489C9.7708 19.764 7.63782 18.9593 5.84196 17.6259C4.0461 16.2924 2.65894 14.4833 1.83719 12.4029C1.01544 10.3226 0.791866 8.05386 1.19172 5.8531C1.59157 3.65234 2.59891 1.60727 4.09993 -0.0510864L5.58493 1.28891C4.66674 2.30529 3.96713 3.49945 3.52949 4.79736C3.09185 6.09526 2.92551 7.46924 3.04079 8.83408C3.15606 10.1989 3.55049 11.5255 4.19961 12.7317C4.84874 13.9378 5.73872 14.9977 6.81438 15.8457C7.89003 16.6936 9.12842 17.3116 10.4527 17.6612C11.7771 18.0109 13.1591 18.0847 14.5132 17.8782C15.8672 17.6716 17.1644 17.1891 18.3243 16.4606C19.4841 15.7321 20.482 14.773 21.2559 13.6429L22.9069 14.7729C21.8991 16.2414 20.5768 17.467 19.0361 18.3605C17.4954 19.2541 15.775 19.7933 13.9999 19.9389ZM4.99993 7.99991C4.99993 6.41766 5.46912 4.87094 6.34817 3.55535C7.22722 2.23976 8.47665 1.21438 9.93846 0.608877C11.4003 0.00337625 13.0088 -0.15505 14.5607 0.153631C16.1125 0.462313 17.538 1.22424 18.6568 2.34306C19.7756 3.46188 20.5375 4.88734 20.8462 6.43919C21.1549 7.99104 20.9965 9.59957 20.391 11.0614C19.7855 12.5232 18.7601 13.7726 17.4445 14.6517C16.1289 15.5307 14.5822 15.9999 12.9999 15.9999C10.8789 15.9975 8.84548 15.1539 7.34571 13.6541C5.84593 12.1544 5.00231 10.1209 4.99993 7.99991V7.99991ZM6.99993 7.99991C6.99993 9.1866 7.35182 10.3466 8.01111 11.3333C8.6704 12.32 9.60747 13.0891 10.7038 13.5432C11.8002 13.9973 13.0066 14.1161 14.1705 13.8846C15.3344 13.6531 16.4035 13.0817 17.2426 12.2426C18.0817 11.4034 18.6531 10.3343 18.8846 9.17045C19.1162 8.00657 18.9973 6.80017 18.5432 5.70381C18.0891 4.60746 17.32 3.67038 16.3334 3.0111C15.3467 2.35181 14.1866 1.99991 12.9999 1.99991C11.4091 2.0015 9.88392 2.63415 8.75904 3.75903C7.63417 4.8839 7.00152 6.4091 6.99993 7.99991V7.99991Z" fill="#374957"/>
</g>
<defs>
<clipPath id="clip0_51_69796">
<rect width="24" height="24" fill="white"/>
</clipPath>
</defs>
</svg>
