<svg width="24" height="24" viewBox="0 0 24 24" fill="none" xmlns="http://www.w3.org/2000/svg">
<g clip-path="url(#clip0_51_69315)">
<path d="M2 20.9762V-0.0238037H0V20.9762C0 21.7718 0.31607 22.5349 0.87868 23.0975C1.44129 23.6601 2.20435 23.9762 3 23.9762H24V21.9762H3C2.73478 21.9762 2.48043 21.8708 2.29289 21.6833C2.10536 21.4958 2 21.2414 2 20.9762V20.9762Z" fill="#374957"/>
<path d="M22.5 3.97604H17L19.793 6.76904L15.5 11.062L13.5 9.06204L6.28101 16.281L7.70001 17.7L13.505 11.9L15.505 13.9L21.212 8.19304L24 10.976V5.47604C24 5.07822 23.842 4.69669 23.5607 4.41538C23.2794 4.13408 22.8978 3.97604 22.5 3.97604V3.97604Z" fill="#374957"/>
</g>
<defs>
<clipPath id="clip0_51_69315">
<rect width="24" height="24" fill="white"/>
</clipPath>
</defs>
</svg>
