<svg width="24" height="24" viewBox="0 0 24 24" fill="none" xmlns="http://www.w3.org/2000/svg">
<g clip-path="url(#clip0_51_69292)">
<path d="M19.9997 11.9998C19.3862 11.9997 18.7809 12.1409 18.2309 12.4125C17.6808 12.6841 17.2006 13.0787 16.8277 13.5658L16.7577 13.5358C17.0327 12.6838 17.0739 11.7736 16.877 10.9003C16.6802 10.0269 16.2524 9.22246 15.6384 8.57089C15.0244 7.91931 14.2468 7.44454 13.3867 7.19615C12.5265 6.94777 11.6155 6.93488 10.7487 7.15883L10.6577 6.98683C11.3841 6.34055 11.8498 5.45157 11.9677 4.48647C12.0855 3.52138 11.8474 2.54643 11.2979 1.74434C10.7484 0.942241 9.9253 0.368062 8.98279 0.129404C8.04027 -0.109254 7.04307 0.00399181 6.17807 0.447918C5.31307 0.891845 4.63965 1.63598 4.28401 2.54086C3.92837 3.44575 3.91492 4.44927 4.24619 5.36336C4.57746 6.27744 5.23071 7.03935 6.0835 7.50629C6.9363 7.97323 7.93011 8.11315 8.87868 7.89983L8.95168 8.03683C7.95174 8.80416 7.27907 9.92135 7.06873 11.1641C6.85839 12.4069 7.12594 13.6832 7.81768 14.7368L5.93268 16.4998C5.08065 16.0291 4.0862 15.8852 3.13567 16.0951C2.18515 16.305 1.3438 16.8544 0.76928 17.6402C0.19476 18.426 -0.0734964 19.3943 0.0147806 20.3637C0.103058 21.3332 0.541809 22.2371 1.24882 22.9062C1.95582 23.5753 2.88256 23.9637 3.85537 23.9984C4.82817 24.0332 5.78028 23.7121 6.53327 23.0952C7.28626 22.4783 7.78845 21.608 7.94574 20.6473C8.10302 19.6867 7.90461 18.7017 7.38768 17.8768L9.22568 16.1588C10.2352 16.8336 11.4559 17.1173 12.6595 16.957C13.8631 16.7967 14.967 16.2033 15.7647 15.2878L16.0437 15.4068C15.9226 16.2143 16.0516 17.0395 16.4132 17.7715C16.7748 18.5035 17.3518 19.1073 18.0667 19.5019C18.7815 19.8964 19.6 20.0627 20.4121 19.9785C21.2242 19.8943 21.9911 19.5636 22.6098 19.0307C23.2284 18.4979 23.6692 17.7886 23.873 16.9979C24.0767 16.2072 24.0336 15.3732 23.7494 14.6077C23.4653 13.8423 22.9537 13.1821 22.2834 12.716C21.6131 12.2498 20.8162 11.9999 19.9997 11.9998V11.9998ZM5.99968 3.99983C5.99968 3.60427 6.11698 3.21759 6.33674 2.88869C6.55651 2.55979 6.86886 2.30345 7.23432 2.15207C7.59977 2.0007 8.0019 1.96109 8.38986 2.03826C8.77783 2.11543 9.13419 2.30591 9.4139 2.58562C9.6936 2.86532 9.88408 3.22169 9.96125 3.60965C10.0384 3.99761 9.99882 4.39975 9.84744 4.7652C9.69607 5.13065 9.43972 5.44301 9.11082 5.66277C8.78193 5.88253 8.39525 5.99983 7.99968 5.99983C7.46925 5.99983 6.96054 5.78912 6.58547 5.41405C6.2104 5.03897 5.99968 4.53027 5.99968 3.99983ZM3.99968 21.9998C3.60412 21.9998 3.21744 21.8825 2.88854 21.6628C2.55964 21.443 2.3033 21.1307 2.15192 20.7652C2.00055 20.3997 1.96094 19.9976 2.03811 19.6097C2.11528 19.2217 2.30576 18.8653 2.58547 18.5856C2.86517 18.3059 3.22154 18.1154 3.6095 18.0383C3.99746 17.9611 4.3996 18.0007 4.76505 18.1521C5.1305 18.3034 5.44286 18.5598 5.66262 18.8887C5.88238 19.2176 5.99968 19.6043 5.99968 19.9998C5.99968 20.5303 5.78897 21.039 5.4139 21.414C5.03882 21.7891 4.53012 21.9998 3.99968 21.9998ZM11.9997 14.9998C11.3504 14.9986 10.719 14.7867 10.2004 14.396C9.68178 14.0053 9.30393 13.4568 9.12359 12.8331C8.94325 12.2093 8.97014 11.5439 9.20025 10.9367C9.43035 10.3295 9.85123 9.8134 10.3997 9.46583L10.8067 9.24883C11.2156 9.07094 11.6591 8.98646 12.1048 9.00155C12.5506 9.01664 12.9873 9.13091 13.3833 9.33605C13.7793 9.54119 14.1246 9.83204 14.394 10.1874C14.6634 10.5428 14.8502 10.9538 14.9408 11.3905C15.0314 11.8272 15.0235 12.2785 14.9176 12.7118C14.8118 13.145 14.6107 13.5492 14.329 13.8949C14.0473 14.2406 13.692 14.5192 13.2891 14.7103C12.8861 14.9015 12.4457 15.0004 11.9997 14.9998V14.9998ZM19.9997 17.9998C19.6041 17.9998 19.2174 17.8825 18.8885 17.6628C18.5596 17.443 18.3033 17.1307 18.1519 16.7652C18.0005 16.3997 17.9609 15.9976 18.0381 15.6097C18.1153 15.2217 18.3058 14.8653 18.5855 14.5856C18.8652 14.3059 19.2215 14.1154 19.6095 14.0383C19.9975 13.9611 20.3996 14.0007 20.7651 14.1521C21.1305 14.3034 21.4429 14.5598 21.6626 14.8887C21.8824 15.2176 21.9997 15.6043 21.9997 15.9998C21.9997 16.5303 21.789 17.039 21.4139 17.414C21.0388 17.7891 20.5301 17.9998 19.9997 17.9998Z" fill="#374957"/>
</g>
<defs>
<clipPath id="clip0_51_69292">
<rect width="24" height="24" fill="white"/>
</clipPath>
</defs>
</svg>
