<svg width="24" height="24" viewBox="0 0 24 24" fill="none" xmlns="http://www.w3.org/2000/svg">
<path d="M15.9996 23.0001H5.4996C4.27558 23.0017 3.08616 22.5941 2.1203 21.8422C1.15444 21.0904 0.467553 20.0373 0.168766 18.8503C-0.130021 17.6633 -0.023567 16.4105 0.471214 15.2909C0.965994 14.1714 1.82072 13.2493 2.8996 12.6711C2.30754 11.5381 1.99873 10.2785 1.99959 9.00015C2.00554 7.03844 2.73205 5.1473 4.04105 3.68619C5.35005 2.22508 7.15027 1.29586 9.09953 1.07516C11.0488 0.854462 13.0112 1.35767 14.6137 2.48913C16.2163 3.62059 17.3472 5.30143 17.7916 7.21215C19.6988 7.66008 21.3754 8.79227 22.5034 10.3941C23.6314 11.9958 24.1324 13.9559 23.9114 15.9025C23.6905 17.8491 22.7629 19.6469 21.3046 20.9552C19.8463 22.2634 17.9587 22.9911 15.9996 23.0001ZM9.9996 3.00015C8.40878 3.00173 6.88358 3.63439 5.75871 4.75926C4.63383 5.88413 4.00118 7.40933 3.9996 9.00015C3.99801 10.2841 4.41274 11.5339 5.1816 12.5621L6.0636 13.7551L4.6276 14.1261C3.80236 14.3363 3.0824 14.8409 2.60323 15.5449C2.12406 16.2488 1.91874 17.1037 2.02591 17.9485C2.13308 18.7933 2.54535 19.5698 3.18511 20.1318C3.82488 20.6939 4.64802 21.0027 5.4996 21.0001H15.9996C17.5113 20.9854 18.9617 20.4006 20.0609 19.3626C21.16 18.3246 21.8267 16.91 21.9278 15.4016C22.0289 13.8932 21.5568 12.4023 20.606 11.2269C19.6553 10.0515 18.2958 9.27842 16.7996 9.06215L16.0426 8.96215L15.9426 8.20415C15.7479 6.76511 15.0387 5.44526 13.9462 4.48861C12.8537 3.53196 11.4517 3.00322 9.9996 3.00015V3.00015Z" fill="#374957"/>
</svg>
