<svg width="24" height="24" viewBox="0 0 24 24" fill="none" xmlns="http://www.w3.org/2000/svg">
<g clip-path="url(#clip0_51_69885)">
<path d="M22 19.9996C22 20.53 21.7893 21.0387 21.4142 21.4138C21.0391 21.7889 20.5304 21.9996 20 21.9996H16V17.9996H22V14.0996C21.9973 12.7134 21.5157 11.3706 20.6369 10.2986C19.758 9.22659 18.5358 8.4911 17.177 8.21658L13.3 7.43958C12.8903 7.35795 12.5165 7.15011 12.231 6.84522C11.9455 6.54033 11.7626 6.1537 11.708 5.73958L11.3 2.57558C11.2408 2.16123 11.0955 1.76386 10.8735 1.40901C10.6515 1.05417 10.3578 0.7497 10.0111 0.515183C9.66438 0.280666 9.27245 0.121291 8.86049 0.0473034C8.44852 -0.0266844 8.02563 -0.0136472 7.619 0.0855768L0 2.24358V17.9996H5V21.9996H0V23.9996H20C21.0609 23.9996 22.0783 23.5781 22.8284 22.828C23.5786 22.0779 24 21.0604 24 19.9996H22ZM2 3.75558L8.107 2.02358C8.24073 1.99362 8.37919 1.99147 8.51378 2.01726C8.64838 2.04305 8.77623 2.09623 8.88942 2.1735C9.0026 2.25077 9.09869 2.35047 9.17173 2.46643C9.24477 2.58239 9.29319 2.71212 9.314 2.84758L9.466 3.99958H7V5.99958H9.729C9.77374 6.31328 9.856 6.62048 9.974 6.91458L7.635 8.33758L8.674 10.0466L11.14 8.54658C11.4003 8.76149 11.6869 8.94229 11.993 9.08458L10.638 11.3916L12.362 12.4046L14 9.61958L16.784 10.1766C17.6901 10.3596 18.5051 10.8501 19.0911 11.5649C19.6772 12.2798 19.9982 13.1752 20 14.0996V15.9996H2V3.75558ZM7 17.9996H14V21.9996H7V17.9996Z" fill="#374957"/>
</g>
<defs>
<clipPath id="clip0_51_69885">
<rect width="24" height="24" fill="white"/>
</clipPath>
</defs>
</svg>
