<svg width="24" height="24" viewBox="0 0 24 24" fill="none" xmlns="http://www.w3.org/2000/svg">
<g clip-path="url(#clip0_51_69946)">
<path d="M21 5.99969H13V1.99969H11V5.99969H3C2.20435 5.99969 1.44129 6.31577 0.87868 6.87837C0.31607 7.44098 0 8.20405 0 8.99969L0 19.9997H24V8.99969C24 8.20405 23.6839 7.44098 23.1213 6.87837C22.5587 6.31577 21.7956 5.99969 21 5.99969ZM22 17.9997H2V8.99969C2 8.73448 2.10536 8.48012 2.29289 8.29259C2.48043 8.10505 2.73478 7.99969 3 7.99969H21C21.2652 7.99969 21.5196 8.10505 21.7071 8.29259C21.8946 8.48012 22 8.73448 22 8.99969V17.9997Z" fill="#374957"/>
<path d="M16.0002 13.9997H8.00024V15.9997H16.0002V13.9997Z" fill="#374957"/>
<path d="M12 9.99939H9V11.9994H12V9.99939Z" fill="#374957"/>
<path d="M20.0002 9.99939H14.0002V11.9994H20.0002V9.99939Z" fill="#374957"/>
<path d="M6.99976 9.99939H3.99976V11.9994H6.99976V9.99939Z" fill="#374957"/>
<path d="M5.99975 13.9997H3.99976V15.9997H5.99975V13.9997Z" fill="#374957"/>
<path d="M20 13.9997H18V15.9997H20V13.9997Z" fill="#374957"/>
</g>
<defs>
<clipPath id="clip0_51_69946">
<rect width="24" height="24" fill="white"/>
</clipPath>
</defs>
</svg>
