<svg width="24" height="24" viewBox="0 0 24 24" fill="none" xmlns="http://www.w3.org/2000/svg">
<g clip-path="url(#clip0_51_70236)">
<path d="M14.2001 16.2614C11.2885 15.0276 8.97307 12.7068 7.7461 9.79236L11.1521 6.38636L4.8871 0.121358L1.7161 3.29136C1.16574 3.84424 0.730653 4.50091 0.43608 5.22326C0.141508 5.94562 -0.00668504 6.71928 0.000100867 7.49936C0.000100867 14.7474 9.2521 23.9994 16.5001 23.9994C17.2801 24.0063 18.0536 23.8582 18.7759 23.5637C19.4981 23.2691 20.1545 22.8339 20.7071 22.2834L23.8781 19.1124L17.6131 12.8484L14.2001 16.2614ZM19.2921 20.8704C18.9246 21.2339 18.4886 21.521 18.0093 21.7148C17.53 21.9086 17.017 22.0053 16.5001 21.9994C10.2661 21.9994 2.0001 13.7324 2.0001 7.49936C1.99421 6.98219 2.09106 6.469 2.28504 5.98955C2.47902 5.5101 2.76626 5.07394 3.1301 4.70636L4.8871 2.94936L8.3241 6.38636L5.3881 9.32136L5.6341 9.93536C6.35535 11.8647 7.48286 13.6164 8.94025 15.0719C10.3976 16.5274 12.1509 17.6526 14.0811 18.3714L14.6871 18.6024L17.6131 15.6764L21.0491 19.1124L19.2921 20.8704ZM20.9141 4.49936L23.9571 7.54236L22.5431 8.95636L19.5001 5.91336L16.4571 8.95636L15.0431 7.54236L18.0861 4.49936L15.0431 1.45636L16.4571 0.0423584L19.5001 3.08536L22.5431 0.0423584L23.9571 1.45636L20.9141 4.49936Z" fill="#374957"/>
</g>
<defs>
<clipPath id="clip0_51_70236">
<rect width="24" height="24" fill="white"/>
</clipPath>
</defs>
</svg>
