<svg width="24" height="24" viewBox="0 0 24 24" fill="none" xmlns="http://www.w3.org/2000/svg">
<g clip-path="url(#clip0_51_71917)">
<path d="M17.0002 13.1841V10.0001C17.0002 9.73486 16.8948 9.4805 16.7073 9.29297C16.5197 9.10543 16.2654 9.00007 16.0002 9.00007V2.41407C16.0002 2.00278 15.8951 1.59831 15.6948 1.23909C15.4945 0.879868 15.2056 0.577836 14.8557 0.361692C14.5058 0.145548 14.1064 0.022473 13.6955 0.00416197C13.2847 -0.0141491 12.8759 0.0729123 12.5082 0.257073L9.88615 1.56707C9.31835 1.84945 8.84084 2.28499 8.50757 2.82449C8.17429 3.36399 7.99853 3.98594 8.00015 4.62007V9.00007C7.73494 9.00007 7.48058 9.10543 7.29305 9.29297C7.10551 9.4805 7.00015 9.73486 7.00015 10.0001V13.1841C6.41724 13.3902 5.91224 13.7713 5.55424 14.2754C5.19624 14.7794 5.00272 15.3818 5.00015 16.0001V19.0001C5.00174 20.3257 5.52903 21.5965 6.46637 22.5339C7.40371 23.4712 8.67456 23.9985 10.0002 24.0001H14.0002C15.3257 23.9985 16.5966 23.4712 17.5339 22.5339C18.4713 21.5965 18.9986 20.3257 19.0002 19.0001V16.0001C18.9976 15.3818 18.8041 14.7794 18.4461 14.2754C18.0881 13.7713 17.5831 13.3902 17.0002 13.1841V13.1841ZM9.00015 13.0001V11.0001H15.0002V13.0001H9.00015ZM10.0002 4.62007C9.99942 4.3575 10.0722 4.09995 10.2102 3.87657C10.3482 3.6532 10.546 3.4729 10.7812 3.35607L13.4002 2.04607C13.463 2.01351 13.5333 1.99774 13.604 2.0003C13.6748 2.00286 13.7437 2.02366 13.804 2.06068C13.8644 2.0977 13.9142 2.14969 13.9485 2.21161C13.9829 2.27352 14.0007 2.34326 14.0002 2.41407V9.00007H10.0002V4.62007ZM17.0002 19.0001C17.0002 19.7957 16.6841 20.5588 16.1215 21.1214C15.5589 21.684 14.7958 22.0001 14.0002 22.0001H10.0002C9.2045 22.0001 8.44144 21.684 7.87883 21.1214C7.31622 20.5588 7.00015 19.7957 7.00015 19.0001V16.0001C7.00015 15.7349 7.10551 15.4805 7.29305 15.293C7.48058 15.1054 7.73494 15.0001 8.00015 15.0001H16.0002C16.2654 15.0001 16.5197 15.1054 16.7073 15.293C16.8948 15.4805 17.0002 15.7349 17.0002 16.0001V19.0001Z" fill="#374957"/>
</g>
<defs>
<clipPath id="clip0_51_71917">
<rect width="24" height="24" fill="white"/>
</clipPath>
</defs>
</svg>
