<svg width="24" height="24" viewBox="0 0 24 24" fill="none" xmlns="http://www.w3.org/2000/svg">
<g clip-path="url(#clip0_51_70138)">
<path d="M21.0002 24.0003H16.0002V22.0003H21.0002C21.2655 22.0003 21.5198 21.8949 21.7073 21.7074C21.8949 21.5199 22.0002 21.2655 22.0002 21.0003V16.0003H24.0002V21.0003C24.0002 21.7959 23.6842 22.559 23.1216 23.1216C22.5589 23.6842 21.7959 24.0003 21.0002 24.0003Z" fill="#374957"/>
<path d="M2 8H0V3C0 2.20435 0.31607 1.44129 0.87868 0.87868C1.44129 0.31607 2.20435 0 3 0L8 0V2H3C2.73478 2 2.48043 2.10536 2.29289 2.29289C2.10536 2.48043 2 2.73478 2 3V8Z" fill="#374957"/>
<path d="M8 24.0003H3C2.20435 24.0003 1.44129 23.6842 0.87868 23.1216C0.31607 22.559 0 21.7959 0 21.0003L0 16.0003H2V21.0003C2 21.2655 2.10536 21.5199 2.29289 21.7074C2.48043 21.8949 2.73478 22.0003 3 22.0003H8V24.0003Z" fill="#374957"/>
<path d="M24.0002 8H22.0002V3C22.0002 2.73478 21.8949 2.48043 21.7073 2.29289C21.5198 2.10536 21.2655 2 21.0002 2H16.0002V0H21.0002C21.7959 0 22.5589 0.31607 23.1216 0.87868C23.6842 1.44129 24.0002 2.20435 24.0002 3V8Z" fill="#374957"/>
<path d="M11.9995 10.9999C11.2084 10.9999 10.435 10.7653 9.77723 10.3258C9.11944 9.88629 8.60675 9.26158 8.304 8.53067C8.00124 7.79977 7.92203 6.9955 8.07637 6.21958C8.23071 5.44366 8.61168 4.73092 9.17109 4.17151C9.7305 3.6121 10.4432 3.23114 11.2192 3.0768C11.9951 2.92246 12.7993 3.00167 13.5302 3.30442C14.2612 3.60717 14.8859 4.11986 15.3254 4.77766C15.7649 5.43546 15.9995 6.20882 15.9995 6.99994C15.9995 8.06081 15.5781 9.07822 14.8279 9.82837C14.0778 10.5785 13.0604 10.9999 11.9995 10.9999ZM11.9995 4.99994C11.604 4.99994 11.2173 5.11724 10.8884 5.337C10.5595 5.55676 10.3031 5.86912 10.1518 6.23457C10.0004 6.60003 9.96077 7.00216 10.0379 7.39012C10.1151 7.77808 10.3056 8.13445 10.5853 8.41415C10.865 8.69386 11.2214 8.88434 11.6093 8.96151C11.9973 9.03868 12.3994 8.99908 12.7649 8.8477C13.1303 8.69632 13.4427 8.43998 13.6625 8.11108C13.8822 7.78218 13.9995 7.3955 13.9995 6.99994C13.9995 6.46951 13.7888 5.9608 13.4137 5.58573C13.0387 5.21065 12.5299 4.99994 11.9995 4.99994V4.99994Z" fill="#374957"/>
<path d="M18.9998 20.0003H16.9998V16.0003C16.9998 15.7351 16.8944 15.4807 16.7069 15.2932C16.5193 15.1057 16.265 15.0003 15.9998 15.0003H7.99976C7.73454 15.0003 7.48019 15.1057 7.29265 15.2932C7.10511 15.4807 6.99976 15.7351 6.99976 16.0003V20.0003H4.99976V16.0003C4.99976 15.2047 5.31583 14.4416 5.87844 13.879C6.44104 13.3164 7.20411 13.0003 7.99976 13.0003H15.9998C16.7954 13.0003 17.5585 13.3164 18.1211 13.879C18.6837 14.4416 18.9998 15.2047 18.9998 16.0003V20.0003Z" fill="#374957"/>
</g>
<defs>
<clipPath id="clip0_51_70138">
<rect width="24" height="24" fill="white"/>
</clipPath>
</defs>
</svg>
