<svg width="24" height="24" viewBox="0 0 24 24" fill="none" xmlns="http://www.w3.org/2000/svg">
<path d="M7.40003 5.55269C7.30776 5.3977 7.17681 5.26934 7.02 5.1802C6.86319 5.09106 6.68591 5.04419 6.50553 5.04419C6.32515 5.04419 6.14787 5.09106 5.99106 5.1802C5.83425 5.26934 5.7033 5.3977 5.61103 5.55269L0.111029 16.5527C0.0511147 16.6703 0.0150706 16.7986 0.00497485 16.9302C-0.0051209 17.0618 0.0109314 17.1941 0.0522062 17.3194C0.093481 17.4448 0.159162 17.5607 0.245462 17.6606C0.331762 17.7604 0.436973 17.8422 0.555031 17.9012C0.673089 17.9602 0.801657 17.9952 0.933323 18.0043C1.06499 18.0134 1.19715 17.9963 1.32218 17.954C1.44721 17.9118 1.56264 17.8452 1.66182 17.7581C1.761 17.6711 1.84195 17.5652 1.90003 17.4467L3.61903 13.9997H9.38303L11.107 17.4467C11.1651 17.5652 11.2461 17.6711 11.3452 17.7581C11.4444 17.8452 11.5598 17.9118 11.6849 17.954C11.8099 17.9963 11.9421 18.0134 12.0737 18.0043C12.2054 17.9952 12.334 17.9602 12.452 17.9012C12.5701 17.8422 12.6753 17.7604 12.7616 17.6606C12.8479 17.5607 12.9136 17.4448 12.9549 17.3194C12.9961 17.1941 13.0122 17.0618 13.0021 16.9302C12.992 16.7986 12.9559 16.6703 12.896 16.5527L7.40003 5.55269ZM4.61903 11.9997L6.50003 8.2357L8.38303 11.9997H4.61903Z" fill="#374957"/>
<path d="M22.9999 7.99969C22.7347 7.99969 22.4803 8.10505 22.2928 8.29259C22.1052 8.48012 21.9999 8.73448 21.9999 8.99969V9.02569C21.1395 8.36389 20.0854 8.00337 18.9999 7.99969C17.6738 7.99969 16.402 8.52648 15.4644 9.46416C14.5267 10.4018 13.9999 11.6736 13.9999 12.9997C13.9999 14.3258 14.5267 15.5975 15.4644 16.5352C16.402 17.4729 17.6738 17.9997 18.9999 17.9997C20.0854 17.996 21.1395 17.6355 21.9999 16.9737V16.9997C21.9999 17.2649 22.1052 17.5193 22.2928 17.7068C22.4803 17.8943 22.7347 17.9997 22.9999 17.9997C23.2651 17.9997 23.5195 17.8943 23.707 17.7068C23.8945 17.5193 23.9999 17.2649 23.9999 16.9997V8.99969C23.9999 8.73448 23.8945 8.48012 23.707 8.29259C23.5195 8.10505 23.2651 7.99969 22.9999 7.99969ZM18.9999 15.9997C18.4066 15.9997 17.8265 15.8237 17.3332 15.4941C16.8398 15.1645 16.4553 14.6959 16.2283 14.1477C16.0012 13.5996 15.9418 12.9964 16.0575 12.4144C16.1733 11.8325 16.459 11.2979 16.8786 10.8784C17.2981 10.4588 17.8327 10.1731 18.4146 10.0573C18.9966 9.94158 19.5998 10.001 20.1479 10.2281C20.6961 10.4551 21.1647 10.8396 21.4943 11.333C21.8239 11.8263 21.9999 12.4064 21.9999 12.9997C21.9999 13.7953 21.6838 14.5584 21.1212 15.121C20.5586 15.6836 19.7955 15.9997 18.9999 15.9997Z" fill="#374957"/>
</svg>
