<svg width="24" height="24" viewBox="0 0 24 24" fill="none" xmlns="http://www.w3.org/2000/svg">
<g clip-path="url(#clip0_51_71117)">
<path d="M24 23C24 23.2652 23.8947 23.5196 23.7072 23.7071C23.5196 23.8947 23.2653 24 23 24H1.00004C0.734824 24 0.48047 23.8947 0.292933 23.7071C0.105397 23.5196 3.98827e-05 23.2652 3.98827e-05 23C3.98827e-05 22.7348 0.105397 22.4805 0.292933 22.2929C0.48047 22.1054 0.734824 22 1.00004 22H23C23.2653 22 23.5196 22.1054 23.7072 22.2929C23.8947 22.4805 24 22.7348 24 23ZM0.29104 8.55203C0.0755622 8.15235 -0.0242655 7.70053 0.00276031 7.24728C0.0297861 6.79402 0.182596 6.35726 0.44404 5.98603C0.871298 5.35914 1.44348 4.84459 2.11204 4.48603L9.61304 0.582025C10.3503 0.198656 11.1691 -0.00149536 12 -0.00149536C12.831 -0.00149536 13.6498 0.198656 14.387 0.582025L21.887 4.48903C22.5556 4.84759 23.1278 5.36214 23.555 5.98903C23.8165 6.36026 23.9693 6.79702 23.9963 7.25028C24.0233 7.70353 23.9235 8.15535 23.708 8.55503C23.4761 8.99385 23.1281 9.36063 22.7021 9.61541C22.2761 9.8702 21.7884 10.0032 21.292 10H21V18H22C22.2653 18 22.5196 18.1054 22.7072 18.2929C22.8947 18.4805 23 18.7348 23 19C23 19.2652 22.8947 19.5196 22.7072 19.7071C22.5196 19.8947 22.2653 20 22 20H2.00004C1.73482 20 1.48047 19.8947 1.29293 19.7071C1.1054 19.5196 1.00004 19.2652 1.00004 19C1.00004 18.7348 1.1054 18.4805 1.29293 18.2929C1.48047 18.1054 1.73482 18 2.00004 18H3.00004V10H2.70804C2.2112 10.0031 1.72305 9.86973 1.29683 9.61439C0.870612 9.35905 0.522699 8.99157 0.29104 8.55203V8.55203ZM5.00004 18H8.00004V10H5.00004V18ZM10 10V18H14V10H10ZM19 10H16V18H19V10ZM2.06304 7.62503C2.12578 7.7407 2.21915 7.83688 2.33292 7.90303C2.44669 7.96917 2.57647 8.00273 2.70804 8.00003H21.292C21.4236 8.00273 21.5534 7.96917 21.6672 7.90303C21.7809 7.83688 21.8743 7.7407 21.937 7.62503C21.9827 7.54859 22.0048 7.46035 22.0006 7.3714C21.9963 7.28244 21.9659 7.19673 21.913 7.12503C21.6707 6.76494 21.3452 6.46857 20.964 6.26103L13.464 2.35402C13.012 2.11945 12.5103 1.997 12.001 1.997C11.4918 1.997 10.99 2.11945 10.538 2.35402L3.03804 6.26103C2.65702 6.46923 2.33157 6.76588 2.08904 7.12603C2.03613 7.19743 2.00544 7.28285 2.00082 7.37161C1.99619 7.46036 2.01784 7.54851 2.06304 7.62503V7.62503Z" fill="#374957"/>
</g>
<defs>
<clipPath id="clip0_51_71117">
<rect width="24" height="24" fill="white"/>
</clipPath>
</defs>
</svg>
