<svg width="24" height="24" viewBox="0 0 24 24" fill="none" xmlns="http://www.w3.org/2000/svg">
<g clip-path="url(#clip0_51_69349)">
<path d="M6.98296 24.0071C5.59669 24.0104 4.24067 23.6019 3.08679 22.8336C1.93291 22.0653 1.03315 20.9717 0.501556 19.6914C-0.0300351 18.4111 -0.169512 17.0018 0.100808 15.6421C0.371128 14.2825 1.03907 13.0337 2.01996 12.0541L12.62 1.46908C13.5582 0.528754 14.8315 -0.000358082 16.1598 -0.00185837C17.4881 -0.00335866 18.7626 0.522876 19.703 1.46108C20.6433 2.39928 21.1724 3.6726 21.1739 5.00092C21.1754 6.32924 20.6492 7.60375 19.711 8.54408L9.10996 19.1281C8.53662 19.6745 7.77498 19.9793 6.98296 19.9793C6.19094 19.9793 5.4293 19.6745 4.85596 19.1281C4.57703 18.8495 4.35575 18.5186 4.20478 18.1544C4.05381 17.7902 3.9761 17.3998 3.9761 17.0056C3.9761 16.6113 4.05381 16.221 4.20478 15.8568C4.35575 15.4926 4.57703 15.1617 4.85596 14.8831L14.75 5.00708L16.168 6.42208L6.27396 16.3001C6.08649 16.4876 5.98117 16.7419 5.98117 17.0071C5.98117 17.2722 6.08649 17.5266 6.27396 17.7141C6.465 17.8964 6.71891 17.9981 6.98296 17.9981C7.24702 17.9981 7.50093 17.8964 7.69196 17.7141L18.3 7.12908C18.8629 6.56483 19.1786 5.80007 19.1777 5.00304C19.1767 4.20601 18.8592 3.442 18.295 2.87908C17.7307 2.31616 16.966 2.00044 16.1689 2.00138C15.3719 2.00231 14.6079 2.31983 14.045 2.88408L3.43796 13.4681C2.49963 14.4083 1.97321 15.6827 1.97452 17.011C1.97584 18.3393 2.50477 19.6127 3.44496 20.5511C4.38515 21.4894 5.65959 22.0158 6.98791 22.0145C8.31623 22.0132 9.58963 21.4843 10.528 20.5441L22.549 8.54408L23.967 9.95908L11.946 21.9591C11.2942 22.6103 10.5203 23.1264 9.66862 23.4778C8.81695 23.8293 7.90429 24.0091 6.98296 24.0071V24.0071Z" fill="#374957"/>
</g>
<defs>
<clipPath id="clip0_51_69349">
<rect width="24" height="24" fill="white"/>
</clipPath>
</defs>
</svg>
