<svg width="24" height="24" viewBox="0 0 24 24" fill="none" xmlns="http://www.w3.org/2000/svg">
<g clip-path="url(#clip0_51_70655)">
<path d="M22.5353 7.32415L23.9653 5.92415L18.2153 0.0511475L16.7853 1.45115L19.0413 3.75115L16.8623 5.79215L15.9503 4.87915C15.6718 4.60052 15.341 4.37949 14.977 4.2287C14.613 4.0779 14.2228 4.00029 13.8288 4.00029C13.4348 4.00029 13.0447 4.0779 12.6807 4.2287C12.3167 4.37949 11.9859 4.60052 11.7073 4.87915L3.00033 13.5861V19.5861L0.043335 22.5431L1.45733 23.9572L4.41433 21.0001H10.4143L19.1213 12.2931C19.4 12.0146 19.621 11.6838 19.7718 11.3198C19.9226 10.9558 20.0002 10.5657 20.0002 10.1716C20.0002 9.77764 19.9226 9.38749 19.7718 9.02348C19.621 8.65947 19.4 8.32873 19.1213 8.05015L18.2773 7.20715L20.4403 5.18415L22.5353 7.32415ZM17.7073 10.8791L9.58634 19.0001H5.00033V15.2891L6.91833 17.2071L8.33233 15.7931L5.97733 13.4381L7.56333 11.8521L9.91833 14.2071L11.3323 12.7931L8.97733 10.4381L10.5633 8.85215L12.9183 11.2071L14.3323 9.79315L11.9773 7.43815L13.1213 6.29315C13.2142 6.20017 13.3245 6.12641 13.4459 6.07609C13.5673 6.02576 13.6974 5.99986 13.8288 5.99986C13.9603 5.99986 14.0904 6.02576 14.2118 6.07609C14.3332 6.12641 14.4435 6.20017 14.5363 6.29315L17.7073 9.46415C17.8003 9.55702 17.8741 9.66731 17.9244 9.78871C17.9747 9.91011 18.0006 10.0402 18.0006 10.1716C18.0006 10.3031 17.9747 10.4332 17.9244 10.5546C17.8741 10.676 17.8003 10.7863 17.7073 10.8791V10.8791Z" fill="#374957"/>
</g>
<defs>
<clipPath id="clip0_51_70655">
<rect width="24" height="24" fill="white"/>
</clipPath>
</defs>
</svg>
