<svg width="24" height="24" viewBox="0 0 24 24" fill="none" xmlns="http://www.w3.org/2000/svg">
<g clip-path="url(#clip0_51_70632)">
<path d="M14.0002 13C14.0018 13.3515 13.9107 13.6971 13.7362 14.0022C13.5617 14.3072 13.3099 14.5609 13.0061 14.7377C12.7023 14.9144 12.3573 15.008 12.0059 15.009C11.6544 15.01 11.3089 14.9184 11.0042 14.7434C10.6994 14.5683 10.4461 14.3161 10.2699 14.012C10.0936 13.7079 10.0006 13.3628 10.0002 13.0113C9.99983 12.6599 10.0921 12.3145 10.2676 12.01C10.4432 11.7056 10.6958 11.4527 11.0002 11.277V6H13.0002V11.277C13.3033 11.4513 13.5553 11.7023 13.7308 12.0047C13.9063 12.3071 13.9992 12.6503 14.0002 13V13ZM20.0602 5.539C21.5172 7.10778 22.4847 9.06766 22.8441 11.1783C23.2035 13.2889 22.9392 15.4586 22.0834 17.4212C21.2277 19.3837 19.8179 21.0539 18.0268 22.2269C16.2357 23.3999 14.1412 24.0247 12.0002 24.0247C9.8592 24.0247 7.76472 23.3999 5.97363 22.2269C4.18253 21.0539 2.77269 19.3837 1.91698 17.4212C1.06127 15.4586 0.796903 13.2889 1.15629 11.1783C1.51568 9.06766 2.4832 7.10778 3.94021 5.539L2.96221 4.452L2.08221 5.332L0.668213 3.918L3.91821 0.668L5.33221 2.082L4.37821 3.036L5.42621 4.2C7.04842 2.97963 8.97862 2.23546 11.0002 2.051V0H13.0002V2.051C15.0218 2.23546 16.952 2.97963 18.5742 4.2L19.6222 3.035L18.7302 2.144L20.1452 0.73L23.3322 3.918L21.9182 5.332L21.0382 4.452L20.0602 5.539ZM21.0002 13C21.0002 11.22 20.4724 9.47991 19.4834 7.99987C18.4945 6.51983 17.0889 5.36627 15.4444 4.68508C13.7998 4.0039 11.9902 3.82567 10.2444 4.17293C8.49857 4.5202 6.89492 5.37737 5.63625 6.63604C4.37758 7.89471 3.52041 9.49836 3.17315 11.2442C2.82588 12.99 3.00411 14.7996 3.6853 16.4442C4.36649 18.0887 5.52004 19.4943 7.00008 20.4832C8.48012 21.4722 10.2202 22 12.0002 22C14.3863 21.9974 16.674 21.0483 18.3613 19.361C20.0485 17.6738 20.9976 15.3861 21.0002 13V13Z" fill="#374957"/>
</g>
<defs>
<clipPath id="clip0_51_70632">
<rect width="24" height="24" fill="white"/>
</clipPath>
</defs>
</svg>
