<svg width="24" height="24" viewBox="0 0 24 24" fill="none" xmlns="http://www.w3.org/2000/svg">
<g clip-path="url(#clip0_51_70290)">
<path d="M22.0002 22H6.46024C7.4511 20.9033 7.99984 19.478 8.00024 18V14H16.0002V12H8.00024V8C8.00024 6.4087 8.63239 4.88258 9.7576 3.75736C10.8828 2.63214 12.4089 2 14.0002 2C15.5915 2 17.1177 2.63214 18.2429 3.75736C19.3681 4.88258 20.0002 6.4087 20.0002 8H22.0002C22.0002 5.87827 21.1574 3.84344 19.6571 2.34315C18.1568 0.842855 16.122 0 14.0002 0C11.8785 0 9.84368 0.842855 8.34339 2.34315C6.8431 3.84344 6.00024 5.87827 6.00024 8V12H3.00024V14H6.00024V18C6.00024 19.0609 5.57882 20.0783 4.82867 20.8284C4.07853 21.5786 3.06111 22 2.00024 22V24H22.0002V22Z" fill="#374957"/>
</g>
<defs>
<clipPath id="clip0_51_70290">
<rect width="24" height="24" fill="white"/>
</clipPath>
</defs>
</svg>
