<svg width="24" height="24" viewBox="0 0 24 24" fill="none" xmlns="http://www.w3.org/2000/svg">
<g clip-path="url(#clip0_51_69930)">
<path d="M12 24C9.62663 24 7.30655 23.2962 5.33316 21.9776C3.35977 20.6591 1.8217 18.7849 0.913451 16.5922C0.00519943 14.3995 -0.232441 11.9867 0.230582 9.65892C0.693605 7.33115 1.83649 5.19295 3.51472 3.51472C5.19295 1.83649 7.33115 0.693605 9.65892 0.230582C11.9867 -0.232441 14.3995 0.00519943 16.5922 0.913451C18.7849 1.8217 20.6591 3.35977 21.9776 5.33316C23.2962 7.30655 24 9.62663 24 12C23.9966 15.1815 22.7312 18.2318 20.4815 20.4815C18.2318 22.7312 15.1815 23.9966 12 24V24ZM12 2.00001C10.0222 2.00001 8.08879 2.5865 6.4443 3.68531C4.79981 4.78412 3.51809 6.34591 2.76121 8.17317C2.00433 10.0004 1.8063 12.0111 2.19215 13.9509C2.578 15.8907 3.53041 17.6725 4.92894 19.0711C6.32746 20.4696 8.10929 21.422 10.0491 21.8079C11.9889 22.1937 13.9996 21.9957 15.8268 21.2388C17.6541 20.4819 19.2159 19.2002 20.3147 17.5557C21.4135 15.9112 22 13.9778 22 12C21.9971 9.34873 20.9426 6.80689 19.0679 4.93215C17.1931 3.05742 14.6513 2.00292 12 2.00001V2.00001Z" fill="#374957"/>
<path d="M12.9996 14.9996H10.9996V14.2566C10.9849 13.551 11.1592 12.8544 11.5046 12.2389C11.8499 11.6235 12.3537 11.1117 12.9636 10.7566C13.3331 10.5531 13.6288 10.238 13.8084 9.85636C13.988 9.4747 14.0423 9.04602 13.9636 8.63162C13.8857 8.23682 13.6919 7.87421 13.4069 7.59011C13.1219 7.30601 12.7587 7.11331 12.3636 7.03662C12.0753 6.98326 11.7789 6.99394 11.4952 7.06788C11.2115 7.14183 10.9475 7.27725 10.7219 7.46454C10.4964 7.65183 10.3148 7.88642 10.19 8.1517C10.0651 8.41697 10.0002 8.70645 9.99963 8.99962H7.99963C7.99988 8.29413 8.18672 7.60125 8.54119 6.99127C8.89566 6.3813 9.40515 5.87592 10.018 5.52641C10.6308 5.1769 11.3252 4.99569 12.0306 5.00116C12.7361 5.00663 13.4276 5.19859 14.0349 5.55756C14.6423 5.91654 15.1439 6.42976 15.4888 7.04516C15.8338 7.66056 16.0099 8.35625 15.9992 9.06167C15.9885 9.76708 15.7914 10.4571 15.4279 11.0618C15.0645 11.6664 14.5476 12.1642 13.9296 12.5046C13.6344 12.6892 13.393 12.9483 13.2297 13.2559C13.0664 13.5635 12.9871 13.9086 12.9996 14.2566V14.9996Z" fill="#374957"/>
<path d="M12.9998 16.9997H10.9998V18.9997H12.9998V16.9997Z" fill="#374957"/>
</g>
<defs>
<clipPath id="clip0_51_69930">
<rect width="24" height="24" fill="white"/>
</clipPath>
</defs>
</svg>
