<svg width="24" height="24" viewBox="0 0 24 24" fill="none" xmlns="http://www.w3.org/2000/svg">
<path d="M12.0001 19.0001C10.6157 19.0001 9.26228 18.5895 8.11113 17.8204C6.95999 17.0512 6.06278 15.9579 5.53297 14.6788C5.00316 13.3998 4.86453 11.9923 5.13463 10.6344C5.40472 9.27657 6.07141 8.02928 7.05038 7.05032C8.02935 6.07135 9.27663 5.40466 10.6345 5.13457C11.9924 4.86447 13.3998 5.00309 14.6789 5.53291C15.958 6.06272 17.0512 6.95993 17.8204 8.11107C18.5896 9.26222 19.0001 10.6156 19.0001 12.0001C18.998 13.8559 18.2598 15.6352 16.9475 16.9475C15.6352 18.2598 13.856 18.9979 12.0001 19.0001V19.0001ZM12.0001 7.00006C11.0112 7.00006 10.0445 7.29331 9.22227 7.84272C8.40003 8.39212 7.75917 9.17302 7.38073 10.0866C7.00229 11.0003 6.90327 12.0056 7.0962 12.9755C7.28913 13.9454 7.76533 14.8363 8.46459 15.5356C9.16385 16.2349 10.0548 16.7111 11.0247 16.904C11.9946 17.0969 12.9999 16.9979 13.9135 16.6195C14.8272 16.241 15.6081 15.6002 16.1575 14.7779C16.7069 13.9557 17.0001 12.989 17.0001 12.0001C16.9985 10.6745 16.4712 9.40362 15.5339 8.46628C14.5966 7.52895 13.3257 7.00165 12.0001 7.00006V7.00006Z" fill="#374957"/>
</svg>
