<svg width="24" height="24" viewBox="0 0 24 24" fill="none" xmlns="http://www.w3.org/2000/svg">
<g clip-path="url(#clip0_51_72402)">
<path d="M21.8349 2.16561C21.1488 1.47927 20.3341 0.934826 19.4375 0.563373C18.5409 0.191919 17.5799 0.000732422 16.6094 0.000732422C15.6389 0.000732422 14.6779 0.191919 13.7813 0.563373C12.8847 0.934826 12.0701 1.47927 11.3839 2.16561L2.16493 11.3846C1.47566 12.0702 0.928426 12.885 0.554579 13.7824C0.180732 14.6798 -0.012381 15.6421 -0.0136956 16.6142C-0.0150103 17.5864 0.175499 18.5493 0.546917 19.4477C0.918336 20.3461 1.46336 21.1623 2.15078 21.8498C2.83819 22.5372 3.65448 23.0822 4.55288 23.4536C5.45129 23.825 6.41414 24.0155 7.38629 24.0142C8.35844 24.0129 9.32078 23.8198 10.2182 23.446C11.1156 23.0721 11.9304 22.5249 12.6159 21.8356L21.8349 12.6166C22.5213 11.9305 23.0657 11.1158 23.4372 10.2192C23.8086 9.3226 23.9998 8.36161 23.9998 7.39111C23.9998 6.42061 23.8086 5.45961 23.4372 4.56301C23.0657 3.66641 22.5213 2.85177 21.8349 2.16561V2.16561ZM20.4209 11.2006L11.1999 20.4216C10.7034 20.939 10.1085 21.3522 9.45028 21.6368C8.79203 21.9214 8.0836 22.0718 7.36648 22.0792C6.64937 22.0866 5.938 21.9507 5.27403 21.6797C4.61007 21.4087 4.00687 21.0079 3.49977 20.5008C2.99267 19.9937 2.59186 19.3905 2.32083 18.7265C2.04979 18.0625 1.91399 17.3512 1.92136 16.6341C1.92873 15.9169 2.07914 15.2085 2.36376 14.5503C2.64839 13.892 3.06151 13.2972 3.57893 12.8006L12.7999 3.57961C13.2965 3.06219 13.8913 2.64906 14.5496 2.36444C15.2078 2.07981 15.9163 1.92941 16.6334 1.92204C17.3505 1.91466 18.0619 2.05047 18.7258 2.3215C19.3898 2.59254 19.993 2.99334 20.5001 3.50045C21.0072 4.00755 21.408 4.61075 21.679 5.27471C21.9501 5.93867 22.0859 6.65005 22.0785 7.36716C22.0711 8.08427 21.9207 8.79271 21.6361 9.45096C21.3515 10.1092 20.9384 10.704 20.4209 11.2006ZM19.7069 8.29161C19.8944 8.47914 19.9997 8.73344 19.9997 8.99861C19.9997 9.26377 19.8944 9.51808 19.7069 9.70561L16.7069 12.7056C16.5183 12.8878 16.2657 12.9886 16.0035 12.9863C15.7413 12.984 15.4905 12.8788 15.3051 12.6934C15.1197 12.508 15.0145 12.2572 15.0123 11.995C15.01 11.7328 15.1108 11.4802 15.2929 11.2916L16.0859 10.4986L13.4999 7.91461L12.7069 8.70761C12.5183 8.88977 12.2657 8.99056 12.0035 8.98828C11.7413 8.986 11.4905 8.88084 11.3051 8.69543C11.1197 8.51002 11.0145 8.25921 11.0123 7.99701C11.01 7.73481 11.1108 7.48221 11.2929 7.29361L14.2929 4.29361C14.3852 4.1981 14.4955 4.12192 14.6175 4.06951C14.7395 4.0171 14.8708 3.98951 15.0035 3.98836C15.1363 3.9872 15.268 4.01251 15.3909 4.06279C15.5138 4.11307 15.6254 4.18732 15.7193 4.28121C15.8132 4.37511 15.8875 4.48676 15.9378 4.60965C15.988 4.73255 16.0133 4.86423 16.0122 4.99701C16.011 5.12979 15.9834 5.26101 15.931 5.38301C15.8786 5.50502 15.8024 5.61536 15.7069 5.70761L14.9139 6.50061L17.4999 9.08661L18.2929 8.29361C18.4805 8.10614 18.7348 8.00082 18.9999 8.00082C19.2651 8.00082 19.5194 8.10614 19.7069 8.29361V8.29161ZM12.7069 15.2916C12.8944 15.4791 12.9997 15.7334 12.9997 15.9986C12.9997 16.2638 12.8944 16.5181 12.7069 16.7056L9.70693 19.7056C9.51833 19.8878 9.26573 19.9886 9.00353 19.9863C8.74133 19.984 8.49052 19.8788 8.30511 19.6934C8.1197 19.508 8.01454 19.2572 8.01226 18.995C8.00998 18.7328 8.11077 18.4802 8.29293 18.2916L9.08593 17.4986L6.49993 14.9146L5.70693 15.7076C5.51833 15.8898 5.26573 15.9906 5.00353 15.9883C4.74133 15.986 4.49052 15.8808 4.30511 15.6954C4.1197 15.51 4.01454 15.2592 4.01226 14.997C4.00998 14.7348 4.11077 14.4822 4.29293 14.2936L7.29293 11.2936C7.48153 11.1115 7.73414 11.0107 7.99633 11.0129C8.25853 11.0152 8.50934 11.1204 8.69475 11.3058C8.88016 11.4912 8.98533 11.742 8.98761 12.0042C8.98988 12.2664 8.88909 12.519 8.70693 12.7076L7.91393 13.5006L10.4999 16.0866L11.2929 15.2936C11.4805 15.1061 11.7348 15.0008 11.9999 15.0008C12.2651 15.0008 12.5194 15.1061 12.7069 15.2936V15.2916Z" fill="#374957"/>
</g>
<defs>
<clipPath id="clip0_51_72402">
<rect width="24" height="24" fill="white"/>
</clipPath>
</defs>
</svg>
