<svg width="24" height="24" viewBox="0 0 24 24" fill="none" xmlns="http://www.w3.org/2000/svg">
<g clip-path="url(#clip0_51_72704)">
<path d="M21.9998 0H17.9998C17.7345 0 17.4802 0.105357 17.2927 0.292893C17.1051 0.48043 16.9998 0.734784 16.9998 1C16.9998 1.26522 17.1051 1.51957 17.2927 1.70711C17.4802 1.89464 17.7345 2 17.9998 2H20.5858L18.1858 4.4C17.0913 3.57348 15.7765 3.08974 14.4073 3.00983C13.0381 2.92992 11.676 3.25742 10.4928 3.951C9.60098 3.4357 8.60634 3.12387 7.57999 3.03781C6.55364 2.95176 5.52096 3.09361 4.55583 3.45322C3.5907 3.81283 2.71698 4.3813 1.99717 5.11798C1.27737 5.85465 0.729288 6.7413 0.39213 7.7145C0.0549727 8.68771 -0.0629218 9.7234 0.0468818 10.7475C0.156685 11.7716 0.491473 12.7587 1.02729 13.6383C1.56311 14.5179 2.28671 15.2682 3.14633 15.8355C4.00595 16.4029 4.98033 16.7732 5.99976 16.92V19H3.99976C3.73454 19 3.48019 19.1054 3.29265 19.2929C3.10512 19.4804 2.99976 19.7348 2.99976 20C2.99976 20.2652 3.10512 20.5196 3.29265 20.7071C3.48019 20.8946 3.73454 21 3.99976 21H5.99976V23C5.99976 23.2652 6.10512 23.5196 6.29265 23.7071C6.48019 23.8946 6.73454 24 6.99976 24C7.26498 24 7.51933 23.8946 7.70687 23.7071C7.8944 23.5196 7.99976 23.2652 7.99976 23V21H9.99976C10.265 21 10.5193 20.8946 10.7069 20.7071C10.8944 20.5196 10.9998 20.2652 10.9998 20C10.9998 19.7348 10.8944 19.4804 10.7069 19.2929C10.5193 19.1054 10.265 19 9.99976 19H7.99976V16.927C8.87882 16.796 9.7245 16.4973 10.4908 16.047C11.884 16.8619 13.5164 17.1692 15.1105 16.9168C16.7047 16.6643 18.1622 15.8677 19.2355 14.6622C20.3088 13.4567 20.9315 11.9168 20.9979 10.3042C21.0643 8.69152 20.5703 7.10563 19.5998 5.816L21.9998 3.416V6C21.9998 6.26522 22.1051 6.51957 22.2927 6.70711C22.4802 6.89464 22.7345 7 22.9998 7C23.265 7 23.5193 6.89464 23.7069 6.70711C23.8944 6.51957 23.9998 6.26522 23.9998 6V2C23.9998 1.46957 23.789 0.960859 23.414 0.585786C23.0389 0.210714 22.5302 0 21.9998 0V0ZM1.99976 10C1.99502 9.18785 2.18934 8.38691 2.56573 7.66722C2.94212 6.94754 3.48912 6.33104 4.15887 5.87165C4.82862 5.41226 5.60073 5.12396 6.40767 5.03198C7.21461 4.93999 8.0318 5.04712 8.78776 5.344C7.6367 6.62162 6.9997 8.28033 6.9997 10C6.9997 11.7197 7.6367 13.3784 8.78776 14.656C8.0318 14.9529 7.21461 15.06 6.40767 14.968C5.60073 14.876 4.82862 14.5877 4.15887 14.1284C3.48912 13.669 2.94212 13.0525 2.56573 12.3328C2.18934 11.6131 1.99502 10.8122 1.99976 10V10ZM13.9998 15C13.0109 15 12.0442 14.7068 11.2219 14.1573C10.3997 13.6079 9.7588 12.827 9.38036 11.9134C9.00192 10.9998 8.90291 9.99445 9.09583 9.02455C9.28876 8.05464 9.76496 7.16373 10.4642 6.46447C11.1635 5.7652 12.0544 5.289 13.0243 5.09607C13.9942 4.90315 14.9995 5.00216 15.9132 5.3806C16.8268 5.75904 17.6077 6.3999 18.1571 7.22215C18.7065 8.04439 18.9998 9.01109 18.9998 10C18.9982 11.3256 18.4709 12.5964 17.5335 13.5338C16.5962 14.4711 15.3254 14.9984 13.9998 15Z" fill="#374957"/>
</g>
<defs>
<clipPath id="clip0_51_72704">
<rect width="24" height="24" fill="white"/>
</clipPath>
</defs>
</svg>
