<svg width="24" height="24" viewBox="0 0 24 24" fill="none" xmlns="http://www.w3.org/2000/svg">
<g clip-path="url(#clip0_51_70766)">
<path d="M17.5662 23.9993H13.0002V14.9993C13.0002 14.7341 12.8949 14.4797 12.7074 14.2922C12.5198 14.1046 12.2655 13.9993 12.0002 13.9993C11.735 13.9993 11.4807 14.1046 11.2931 14.2922C11.1056 14.4797 11.0002 14.7341 11.0002 14.9993V23.9993H6.43425L6.14325 23.5143C3.28325 18.7473 0.000246562 12.4493 0.000246562 5.99927C-0.0299311 5.20324 0.10462 4.40955 0.39547 3.66794C0.686319 2.92634 1.1272 2.25279 1.69048 1.6895C2.25376 1.12622 2.92731 0.685342 3.66892 0.394493C4.41053 0.103644 5.20422 -0.0309076 6.00025 -0.00073C7.32926 -0.000218826 8.65009 0.207267 9.91525 0.61427C10.5868 0.84717 11.2898 0.976976 12.0002 0.99927C12.7107 0.976976 13.4137 0.84717 14.0852 0.61427C15.3504 0.20714 16.6712 -0.000349061 18.0002 -0.00073C18.7963 -0.0309076 19.59 0.103644 20.3316 0.394493C21.0732 0.685342 21.7467 1.12622 22.31 1.6895C22.8733 2.25279 23.3142 2.92634 23.605 3.66794C23.8959 4.40955 24.0304 5.20324 24.0002 5.99927C24.0002 12.4493 20.7182 18.7473 17.8572 23.5143L17.5662 23.9993ZM15.0002 21.9993H16.4322C19.0862 17.5183 22.0002 11.7483 22.0002 5.99927C22.0214 5.46833 21.9324 4.93876 21.7388 4.4439C21.5453 3.94904 21.2514 3.4996 20.8757 3.12387C20.4999 2.74814 20.0505 2.45425 19.5556 2.2607C19.0608 2.06716 18.5312 1.97815 18.0002 1.99927C16.8596 1.99868 15.7261 2.17961 14.6422 2.53527C13.7899 2.82165 12.8992 2.97807 12.0002 2.99927C11.1013 2.97816 10.2106 2.82174 9.35825 2.53527C8.27441 2.17971 7.14092 1.99878 6.00025 1.99927C2.04525 1.99927 2.00025 5.83627 2.00025 5.99927C2.00025 11.7483 4.91425 17.5183 7.56825 21.9993H9.00025V14.9993C9.00025 14.2036 9.31632 13.4406 9.87893 12.878C10.4415 12.3153 11.2046 11.9993 12.0002 11.9993C12.7959 11.9993 13.559 12.3153 14.1216 12.878C14.6842 13.4406 15.0002 14.2036 15.0002 14.9993V21.9993Z" fill="#374957"/>
</g>
<defs>
<clipPath id="clip0_51_70766">
<rect width="24" height="24" fill="white"/>
</clipPath>
</defs>
</svg>
