<svg width="24" height="24" viewBox="0 0 24 24" fill="none" xmlns="http://www.w3.org/2000/svg">
<g clip-path="url(#clip0_51_69029)">
<path d="M17.2422 6.19195C18.4857 4.7329 19.1123 2.84705 18.9892 0.933949L18.9252 0.0749486L18.0662 0.0109486C16.1523 -0.113446 14.2654 0.514081 12.8072 1.75995C12.5944 1.97564 12.4013 2.2099 12.2302 2.45995C11.9524 1.62926 11.6044 0.823698 11.1902 0.0519486L9.43517 1.00995C10.2654 2.55686 10.7813 4.25276 10.9532 5.99995H8.50017C6.18107 6.07082 3.98453 7.05768 2.39144 8.74448C0.798351 10.4313 -0.0614879 12.6806 0.00017174 15C-0.106828 21.331 6.41717 25.953 12.0002 23.2C17.5842 25.952 24.1072 21.331 24.0002 15C24.0385 12.9833 23.3907 11.0134 22.1629 9.41308C20.935 7.81279 19.2 6.67704 17.2422 6.19195V6.19195ZM14.2212 3.17395C14.9839 2.50462 15.9465 2.10628 16.9592 2.04095C16.8938 3.0536 16.4955 4.01623 15.8262 4.77895C15.0519 5.45546 14.0802 5.86435 13.0552 5.94495C13.1358 4.91993 13.5447 3.94821 14.2212 3.17395V3.17395ZM15.5002 22C14.4446 21.9998 13.4074 21.724 12.4912 21.2L12.0002 20.924L11.5092 21.202C7.20017 23.7 1.90717 20.061 2.00017 15C1.9385 13.211 2.58764 11.4704 3.80567 10.1586C5.02371 8.8469 6.71154 8.07078 8.50017 7.99995H15.5002C24.1002 8.32095 24.1002 21.682 15.5002 22Z" fill="#374957"/>
</g>
<defs>
<clipPath id="clip0_51_69029">
<rect width="24" height="24" fill="white"/>
</clipPath>
</defs>
</svg>
