<svg width="24" height="24" viewBox="0 0 24 24" fill="none" xmlns="http://www.w3.org/2000/svg">
<g clip-path="url(#clip0_51_70067)">
<path d="M11.958 24.0078L11.2609 23.4103C10.2999 22.6056 1.90894 15.3589 1.90894 10.058C1.90894 4.50814 6.40804 0.0090332 11.958 0.0090332C17.5079 0.0090332 22.007 4.50814 22.007 10.058C22.007 15.3589 13.616 22.6056 12.659 23.4142L11.958 24.0078ZM11.958 2.18192C7.61015 2.18685 4.08679 5.71021 4.08187 10.058C4.08187 13.3881 9.24431 18.7078 11.958 21.1427C14.6716 18.7069 19.834 13.3841 19.834 10.058C19.8291 5.71021 16.3058 2.18689 11.958 2.18192Z" fill="#374957"/>
<path d="M11.9581 14.041C9.75814 14.041 7.97473 12.2576 7.97473 10.0577C7.97473 7.85775 9.75814 6.07434 11.9581 6.07434C14.158 6.07434 15.9414 7.85775 15.9414 10.0577C15.9414 12.2576 14.1581 14.041 11.9581 14.041ZM11.9581 8.06597C10.8581 8.06597 9.9664 8.95767 9.9664 10.0576C9.9664 11.1576 10.8581 12.0493 11.9581 12.0493C13.058 12.0493 13.9497 11.1576 13.9497 10.0576C13.9497 8.95767 13.0581 8.06597 11.9581 8.06597Z" fill="#374957"/>
</g>
<defs>
<clipPath id="clip0_51_70067">
<rect width="24" height="24" fill="white"/>
</clipPath>
</defs>
</svg>
