<svg width="24" height="24" viewBox="0 0 24 24" fill="none" xmlns="http://www.w3.org/2000/svg">
<g clip-path="url(#clip0_51_69278)">
<path d="M24 5H20.414L23.707 1.707L22.293 0.293L19 3.586V0H17V5.456C16.1815 4.58461 15.2153 3.86486 14.146 3.33C13.3953 2.99886 12.557 2.92204 11.7585 3.11122C10.9601 3.3004 10.2454 3.74522 9.72304 4.378C7.31004 6.791 1.70804 20.1 1.07704 21.615L0.139038 23.861L2.38604 22.923C3.89604 22.292 17.21 16.69 19.622 14.277C20.2546 13.7548 20.6994 13.0402 20.8888 12.2421C21.0781 11.4439 21.0017 10.6057 20.671 9.855C20.1355 8.78564 19.4154 7.81916 18.544 7H24V5ZM18.208 12.863C17.4819 13.473 16.6892 13.999 15.845 14.431L13.457 12.043L12.043 13.457L14 15.416C11.084 16.916 7.21604 18.675 3.88704 20.116C4.72404 18.175 5.67304 16.051 6.61504 14.036L8.60504 16.02L10.02 14.605L7.52904 12.115C8.42904 10.253 9.28904 8.598 9.99804 7.415L12.543 9.96L13.957 8.546L11.174 5.76C12.021 4.971 12.54 4.838 13.357 5.168C14.4911 5.8152 15.508 6.64887 16.365 7.634C17.3505 8.49132 18.1845 9.50856 18.832 10.643C19.081 11.223 19.178 11.894 18.208 12.863Z" fill="#374957"/>
</g>
<defs>
<clipPath id="clip0_51_69278">
<rect width="24" height="24" fill="white"/>
</clipPath>
</defs>
</svg>
