<svg width="24" height="24" viewBox="0 0 24 24" fill="none" xmlns="http://www.w3.org/2000/svg">
<g clip-path="url(#clip0_51_72415)">
<path d="M22.7611 13.9704L20.3161 14.6164C19.9589 14.7117 19.6251 14.8791 19.3351 15.1084L16.7181 13.5864C17.0862 12.5604 17.0862 11.4384 16.7181 10.4124L19.3351 8.89036C19.6251 9.11962 19.9589 9.28706 20.3161 9.38236C20.3161 9.38236 22.9331 10.0614 23.0161 10.0614C23.256 10.0574 23.4865 9.96727 23.6655 9.80747C23.8445 9.64766 23.9601 9.42882 23.9911 9.19088C24.0222 8.95294 23.9666 8.71177 23.8346 8.51139C23.7026 8.311 23.503 8.16477 23.2721 8.09936L20.8281 7.45236C20.6451 7.40377 20.4888 7.28457 20.3936 7.12091C20.2983 6.95724 20.2719 6.76249 20.3201 6.57936L20.9671 4.13536C21.0007 4.00837 21.009 3.87601 20.9915 3.74582C20.9739 3.61563 20.9309 3.49018 20.8649 3.37661C20.7989 3.26304 20.7111 3.16359 20.6067 3.08394C20.5022 3.00428 20.3831 2.94598 20.2561 2.91236C20.1291 2.87874 19.9967 2.87047 19.8666 2.888C19.7364 2.90554 19.6109 2.94855 19.4974 3.01457C19.3838 3.08059 19.2843 3.16834 19.2047 3.27279C19.125 3.37725 19.0667 3.49637 19.0331 3.62336L18.3871 6.06736C18.292 6.42609 18.2723 6.80063 18.3291 7.16736L15.7131 8.68336C15.0035 7.87637 14.0517 7.32068 13.0001 7.09936V4.09936C13.3446 3.96498 13.6575 3.76069 13.9191 3.49936L15.7071 1.71136C15.8953 1.52385 16.0013 1.26928 16.0017 1.00363C16.0022 0.737985 15.8971 0.483034 15.7096 0.294862C15.5221 0.106691 15.2675 0.000714546 15.0019 0.000245703C14.7362 -0.00022314 14.4813 0.104854 14.2931 0.292362L12.5051 2.08036C12.3707 2.21337 12.1892 2.28797 12.0001 2.28797C11.811 2.28797 11.6295 2.21337 11.4951 2.08036L9.7071 0.292362C9.5185 0.110204 9.2659 0.00940999 9.0037 0.0116884C8.7415 0.0139668 8.49069 0.119136 8.30528 0.304544C8.11988 0.489952 8.01471 0.740764 8.01243 1.00296C8.01015 1.26516 8.11094 1.51776 8.2931 1.70636L10.0811 3.49936C10.3427 3.76069 10.6556 3.96498 11.0001 4.09936V7.09936C9.9485 7.32068 8.99675 7.87637 8.2871 8.68336L5.6711 7.16136C5.72794 6.79463 5.70819 6.42009 5.6131 6.06136L4.9671 3.61936C4.93348 3.49237 4.87518 3.37325 4.79553 3.26879C4.71587 3.16434 4.61642 3.07659 4.50285 3.01057C4.38929 2.94455 4.26383 2.90154 4.13364 2.884C4.00346 2.86647 3.87109 2.87474 3.7441 2.90836C3.61711 2.94198 3.49799 3.00028 3.39353 3.07994C3.28908 3.15959 3.20133 3.25904 3.13531 3.37261C3.06929 3.48618 3.02628 3.61163 3.00874 3.74182C2.99121 3.87201 2.99948 4.00437 3.0331 4.13136L3.6801 6.57536C3.72829 6.75849 3.70186 6.95324 3.60662 7.11691C3.51139 7.28057 3.35512 7.39977 3.1721 7.44836L0.728101 8.09936C0.494087 8.16198 0.29076 8.30743 0.155898 8.50866C0.0210358 8.7099 -0.0361917 8.95325 -0.00515202 9.1935C0.0258876 9.43376 0.143084 9.65457 0.324662 9.81493C0.506241 9.97528 0.739855 10.0643 0.982101 10.0654C1.0671 10.0654 3.6821 9.38636 3.6821 9.38636C4.03926 9.29106 4.37312 9.12362 4.6631 8.89436L7.2801 10.4164C6.91205 11.4424 6.91205 12.5644 7.2801 13.5904L4.6651 15.1084C4.37512 14.8791 4.04126 14.7117 3.6841 14.6164L1.2391 13.9704C0.990112 13.9219 0.73202 13.9699 0.517089 14.1046C0.302158 14.2393 0.14645 14.4507 0.0814961 14.6959C0.0165419 14.9411 0.0471956 15.2018 0.16725 15.4253C0.287304 15.6487 0.487787 15.8182 0.728101 15.8994L3.1721 16.5464C3.35512 16.595 3.51139 16.7142 3.60662 16.8778C3.70186 17.0415 3.72829 17.2362 3.6801 17.4194L3.0331 19.8634C2.99948 19.9904 2.99121 20.1227 3.00874 20.2529C3.02628 20.3831 3.06929 20.5086 3.13531 20.6221C3.20133 20.7357 3.28908 20.8351 3.39353 20.9148C3.49799 20.9944 3.61711 21.0527 3.7441 21.0864C3.87109 21.12 4.00346 21.1283 4.13364 21.1107C4.26383 21.0932 4.38929 21.0502 4.50285 20.9842C4.61642 20.9181 4.71587 20.8304 4.79553 20.7259C4.87518 20.6215 4.93348 20.5024 4.9671 20.3754L5.6131 17.9314C5.70819 17.5726 5.72794 17.1981 5.6711 16.8314L8.2871 15.3094C8.99588 16.1186 9.94773 16.6764 11.0001 16.8994V19.8994C10.6558 20.0341 10.343 20.2384 10.0811 20.4994L8.2931 22.2924C8.11094 22.481 8.01015 22.7336 8.01243 22.9958C8.01471 23.258 8.11988 23.5088 8.30528 23.6942C8.49069 23.8796 8.7415 23.9848 9.0037 23.987C9.2659 23.9893 9.5185 23.8885 9.7071 23.7064L11.5001 21.9184C11.6345 21.7854 11.816 21.7108 12.0051 21.7108C12.1942 21.7108 12.3757 21.7854 12.5101 21.9184L14.2981 23.7064C14.4867 23.8885 14.7393 23.9893 15.0015 23.987C15.2637 23.9848 15.5145 23.8796 15.6999 23.6942C15.8853 23.5088 15.9905 23.258 15.9928 22.9958C15.9951 22.7336 15.8943 22.481 15.7121 22.2924L13.9241 20.5044C13.6612 20.241 13.3466 20.035 13.0001 19.8994V16.8994C14.0516 16.6783 15.0033 16.123 15.7131 15.3164L18.3291 16.8384C18.2723 17.2051 18.292 17.5796 18.3871 17.9384L19.0331 20.3824C19.101 20.6388 19.268 20.8578 19.4974 20.9912C19.7267 21.1245 19.9996 21.1613 20.2561 21.0934C20.5126 21.0255 20.7316 20.8585 20.8649 20.6291C20.9982 20.3998 21.035 20.1268 20.9671 19.8704L20.3201 17.4264C20.2719 17.2432 20.2983 17.0485 20.3936 16.8848C20.4888 16.7212 20.6451 16.602 20.8281 16.5534L23.2721 15.9064C23.4018 15.8754 23.5241 15.8189 23.6316 15.74C23.7392 15.6611 23.8299 15.5615 23.8984 15.447C23.9668 15.3326 24.0117 15.2056 24.0304 15.0735C24.0491 14.9415 24.0411 14.807 24.007 14.678C23.9729 14.5491 23.9134 14.4283 23.8319 14.3227C23.7504 14.2171 23.6486 14.1289 23.5325 14.0632C23.4164 13.9975 23.2884 13.9558 23.1559 13.9403C23.0234 13.9249 22.8892 13.9361 22.7611 13.9734V13.9704ZM12.0001 14.9994C11.2045 14.9994 10.4414 14.6833 9.87878 14.1207C9.31617 13.5581 9.0001 12.795 9.0001 11.9994C9.0001 11.2037 9.31617 10.4407 9.87878 9.87804C10.4414 9.31543 11.2045 8.99936 12.0001 8.99936C12.7958 8.99936 13.5588 9.31543 14.1214 9.87804C14.684 10.4407 15.0001 11.2037 15.0001 11.9994C15.0001 12.795 14.684 13.5581 14.1214 14.1207C13.5588 14.6833 12.7958 14.9994 12.0001 14.9994Z" fill="#374957"/>
</g>
<defs>
<clipPath id="clip0_51_72415">
<rect width="24" height="24" fill="white"/>
</clipPath>
</defs>
</svg>
