<svg width="24" height="24" viewBox="0 0 24 24" fill="none" xmlns="http://www.w3.org/2000/svg">
<g clip-path="url(#clip0_51_69408)">
<path d="M23.9997 24H12.0177C9.67672 23.9989 7.38716 23.313 5.43105 22.027C3.47494 20.7409 1.93772 18.9107 1.00874 16.7619C0.0797547 14.6131 -0.200424 12.2395 0.202713 9.9335C0.60585 7.62746 1.6747 5.48969 3.2776 3.78351C4.8805 2.07733 6.94745 0.877261 9.22387 0.331108C11.5003 -0.215046 13.8867 -0.0834261 16.0893 0.709755C18.2918 1.50294 20.2143 2.92304 21.6198 4.79514C23.0254 6.66724 23.8526 8.90958 23.9997 11.246V11.309V24ZM12.0177 1.99997C9.36557 1.99997 6.82203 3.05354 4.94666 4.9289C3.0713 6.80427 2.01773 9.34781 2.01773 12C2.01773 14.6521 3.0713 17.1957 4.94666 19.071C6.82203 20.9464 9.36557 22 12.0177 22H21.9997V11.341C21.8283 8.80929 20.7024 6.437 18.8497 4.7032C16.9969 2.9694 14.5552 2.00329 12.0177 1.99997V1.99997Z" fill="#374957"/>
<path d="M13.0002 6.99982H7.00024V8.99981H13.0002V6.99982Z" fill="#374957"/>
<path d="M17.0002 11.0002H7.00024V13.0002H17.0002V11.0002Z" fill="#374957"/>
<path d="M17.0002 15H7.00024V17H17.0002V15Z" fill="#374957"/>
</g>
<defs>
<clipPath id="clip0_51_69408">
<rect width="24" height="24" fill="white"/>
</clipPath>
</defs>
</svg>
