<svg width="24" height="24" viewBox="0 0 24 24" fill="none" xmlns="http://www.w3.org/2000/svg">
<g clip-path="url(#clip0_51_70198)">
<path d="M17.5 10.9997C18.3284 10.9997 19 10.3281 19 9.49969C19 8.67127 18.3284 7.99969 17.5 7.99969C16.6716 7.99969 16 8.67127 16 9.49969C16 10.3281 16.6716 10.9997 17.5 10.9997Z" fill="#374957"/>
<path d="M12.4998 7.99969C13.3282 7.99969 13.9998 7.32812 13.9998 6.49969C13.9998 5.67127 13.3282 4.99969 12.4998 4.99969C11.6713 4.99969 10.9998 5.67127 10.9998 6.49969C10.9998 7.32812 11.6713 7.99969 12.4998 7.99969Z" fill="#374957"/>
<path d="M7.5 10.9997C8.32843 10.9997 9 10.3281 9 9.49969C9 8.67127 8.32843 7.99969 7.5 7.99969C6.67157 7.99969 6 8.67127 6 9.49969C6 10.3281 6.67157 10.9997 7.5 10.9997Z" fill="#374957"/>
<path d="M7.5 16.9997C8.32843 16.9997 9 16.3281 9 15.4997C9 14.6713 8.32843 13.9997 7.5 13.9997C6.67157 13.9997 6 14.6713 6 15.4997C6 16.3281 6.67157 16.9997 7.5 16.9997Z" fill="#374957"/>
<path d="M12.0829 23.9999C9.69216 23.9997 7.35597 23.2854 5.37392 21.9485C3.39187 20.6117 1.85431 18.7133 0.958409 16.4967C0.062511 14.2802 -0.150886 11.8466 0.345584 9.50796C0.842054 7.16933 2.02576 5.0323 3.7449 3.37091C4.89971 2.24563 6.27142 1.36709 7.77653 0.78877C9.28165 0.210447 10.8887 -0.0555689 12.4999 0.00691313C15.5447 0.149026 18.4249 1.4299 20.5697 3.59564C22.7145 5.76139 23.9674 8.65393 24.0799 11.6999C24.1206 13.2533 23.8574 14.7996 23.3049 16.2519C23.1925 16.5478 23.0074 16.8107 22.7668 17.0163C22.5262 17.222 22.2377 17.3639 21.9279 17.4289C21.613 17.4983 21.2857 17.4869 20.9764 17.3958C20.6672 17.3047 20.3859 17.1369 20.1589 16.9079L20.0589 16.8079C19.5582 16.3072 18.9198 15.9669 18.225 15.8303C17.5303 15.6937 16.8105 15.7669 16.1575 16.0407C15.5045 16.3145 14.9478 16.7765 14.5582 17.3677C14.1686 17.959 13.9638 18.6529 13.9699 19.3609L14.0099 23.8769L13.0859 23.9539C12.7529 23.9779 12.4209 23.9999 12.0829 23.9999ZM12.0829 1.99991C9.43074 1.98798 6.88246 3.0301 4.99866 4.89703C3.11485 6.76395 2.04984 9.30275 2.0379 11.9549C2.02597 14.6071 3.06809 17.1554 4.93502 19.0392C6.80194 20.923 9.34074 21.988 11.9929 21.9999L11.9689 19.3749C11.9644 18.6359 12.1062 17.9033 12.3861 17.2194C12.666 16.5354 13.0785 15.9137 13.5999 15.3899V15.3899C14.6443 14.3469 16.0599 13.7611 17.5359 13.7611C19.0119 13.7611 20.4275 14.3469 21.4719 15.3899L21.4859 15.4039C21.9125 14.2339 22.1144 12.9938 22.0809 11.7489C21.9874 9.21146 20.9441 6.8017 19.1577 4.99718C17.3714 3.19265 14.9723 2.12505 12.4359 2.00591C12.3169 1.99991 12.1999 1.99991 12.0819 1.99991H12.0829Z" fill="#374957"/>
</g>
<defs>
<clipPath id="clip0_51_70198">
<rect width="24" height="24" fill="white"/>
</clipPath>
</defs>
</svg>
