<svg width="24" height="24" viewBox="0 0 24 24" fill="none" xmlns="http://www.w3.org/2000/svg">
<g clip-path="url(#clip0_51_69769)">
<path d="M20.4 3H3.6L3.3 3.3C1.2 5.7 0 8.8 0 12C0 17.5 2.2 22 5 22C7.2 22 8.3 18.8 8.8 17H15.2C15.7 18.8 16.8 22 19 22C21.8 22 24 17.5 24 12C24 8.8 22.8 5.7 20.7 3.3L20.4 3ZM19 20C18.4 20 17.4 17.9 17 15.8L16.8 15H7.2L7 15.8C6.6 17.9 5.6 20 5 20C4 20 2 16.9 2 12C2 9.5 2.9 7 4.5 5H19.6C21.2 7 22 9.5 22 12C22 16.9 20 20 19 20Z" fill="#374957"/>
<path d="M8.00024 7.00031H6.00024V9.00031H4.00024V11.0003H6.00024V13.0003H8.00024V11.0003H10.0002V9.00031H8.00024V7.00031Z" fill="#374957"/>
<path d="M18.4996 10.0003C19.3281 10.0003 19.9996 9.32873 19.9996 8.50031C19.9996 7.67188 19.3281 7.00031 18.4996 7.00031C17.6712 7.00031 16.9996 7.67188 16.9996 8.50031C16.9996 9.32873 17.6712 10.0003 18.4996 10.0003Z" fill="#374957"/>
<path d="M15.4996 13.0003C16.3281 13.0003 16.9996 12.3287 16.9996 11.5003C16.9996 10.6719 16.3281 10.0003 15.4996 10.0003C14.6712 10.0003 13.9996 10.6719 13.9996 11.5003C13.9996 12.3287 14.6712 13.0003 15.4996 13.0003Z" fill="#374957"/>
</g>
<defs>
<clipPath id="clip0_51_69769">
<rect width="24" height="24" fill="white"/>
</clipPath>
</defs>
</svg>
