<svg width="24" height="24" viewBox="0 0 24 24" fill="none" xmlns="http://www.w3.org/2000/svg">
<g clip-path="url(#clip0_51_69173)">
<path d="M22.9998 24L11.9998 13.053L0.999756 24V3C0.999756 2.20435 1.31583 1.44129 1.87844 0.87868C2.44104 0.31607 3.20411 0 3.99976 0L19.9998 0C20.7954 0 21.5585 0.31607 22.1211 0.87868C22.6837 1.44129 22.9998 2.20435 22.9998 3V24ZM11.9998 10.232L20.9998 19.185V3C20.9998 2.73478 20.8944 2.48043 20.7069 2.29289C20.5193 2.10536 20.265 2 19.9998 2H3.99976C3.73454 2 3.48019 2.10536 3.29265 2.29289C3.10511 2.48043 2.99976 2.73478 2.99976 3V19.185L11.9998 10.232Z" fill="#374957"/>
</g>
<defs>
<clipPath id="clip0_51_69173">
<rect width="24" height="24" fill="white"/>
</clipPath>
</defs>
</svg>
