<svg width="24" height="24" viewBox="0 0 24 24" fill="none" xmlns="http://www.w3.org/2000/svg">
<g clip-path="url(#clip0_51_70572)">
<path d="M17 7.964V4H15V2H20V0H12C11.2044 0 10.4413 0.31607 9.87868 0.87868C9.31607 1.44129 9 2.20435 9 3V4H7V7.964C5.49832 8.70167 4.23368 9.84579 3.34981 11.2663C2.46594 12.6869 1.99829 14.3269 2 16V24H22V16C22.0017 14.3269 21.5341 12.6869 20.6502 11.2663C19.7663 9.84579 18.5017 8.70167 17 7.964V7.964ZM11 3C11 2.73478 11.1054 2.48043 11.2929 2.29289C11.4804 2.10536 11.7348 2 12 2H13V4H11V3ZM9 6H15V8H9V6ZM20 22H4V16C3.99701 14.7915 4.30831 13.6029 4.90333 12.551C5.49835 11.4991 6.35666 10.62 7.394 10H16.606C17.6434 10.62 18.5017 11.4991 19.0967 12.551C19.6917 13.6029 20.003 14.7915 20 16V22ZM6 20H18V14H6V20ZM8 16H16V18H8V16Z" fill="#374957"/>
</g>
<defs>
<clipPath id="clip0_51_70572">
<rect width="24" height="24" fill="white"/>
</clipPath>
</defs>
</svg>
