<svg width="24" height="24" viewBox="0 0 24 24" fill="none" xmlns="http://www.w3.org/2000/svg">
<g clip-path="url(#clip0_51_70183)">
<path d="M4.30908 5.6084L2.77208 4.32941C1.88053 5.39844 1.18269 6.61508 0.710083 7.9244L2.59108 8.6044C2.98463 7.51318 3.56607 6.49923 4.30908 5.6084V5.6084Z" fill="#374957"/>
<path d="M2.00014 12.0002C2.00018 11.423 2.0497 10.8469 2.14814 10.2782L0.177144 9.93622C-0.0601872 11.3067 -0.0601872 12.7078 0.177144 14.0782L2.14714 13.7342C2.04842 13.1615 1.99924 12.5814 2.00014 12.0002V12.0002Z" fill="#374957"/>
<path d="M8.50713 2.62656L7.80813 0.752563C6.50356 1.23901 5.29403 1.9497 4.23413 2.85256L5.53413 4.37656C6.41579 3.62474 7.42188 3.03252 8.50713 2.62656V2.62656Z" fill="#374957"/>
<path d="M4.24402 21.1567C5.30528 22.058 6.5158 22.767 7.82101 23.2517L8.52101 21.3767C7.43332 20.9733 6.42474 20.3823 5.54102 19.6307L4.24402 21.1567Z" fill="#374957"/>
<path d="M2.60009 15.4088L0.720093 16.0898C1.19478 17.3984 1.89391 18.6143 2.78609 19.6828L4.31709 18.4008C3.57526 17.5108 2.99423 16.4983 2.60009 15.4088V15.4088Z" fill="#374957"/>
<path d="M12.0002 0C11.272 0.00124052 10.5454 0.0681785 9.82922 0.2L10.1892 2.168C10.7866 2.05729 11.3927 2.00106 12.0002 2V22C11.3928 22.0003 10.7867 21.9454 10.1892 21.836L9.82922 23.8C11.5595 24.1165 13.3383 24.0491 15.0397 23.6024C16.7411 23.1558 18.3236 22.3409 19.6753 21.2153C21.0271 20.0897 22.1151 18.6809 22.8624 17.0885C23.6098 15.4961 23.9982 13.759 24.0002 12C23.9968 8.81846 22.7314 5.76821 20.4817 3.51852C18.232 1.26883 15.1818 0.00344108 12.0002 0V0Z" fill="#374957"/>
</g>
<defs>
<clipPath id="clip0_51_70183">
<rect width="24" height="24" fill="white"/>
</clipPath>
</defs>
</svg>
