<svg width="24" height="24" viewBox="0 0 24 24" fill="none" xmlns="http://www.w3.org/2000/svg">
<g clip-path="url(#clip0_51_69674)">
<path d="M21 0H3C2.20435 0 1.44129 0.31607 0.87868 0.87868C0.31607 1.44129 0 2.20435 0 3L0 24H18.35C20.556 21.793 21.793 20.556 24 18.35V3C24 2.20435 23.6839 1.44129 23.1213 0.87868C22.5587 0.31607 21.7956 0 21 0V0ZM2 3C2 2.73478 2.10536 2.48043 2.29289 2.29289C2.48043 2.10536 2.73478 2 3 2H21C21.2652 2 21.5196 2.10536 21.7071 2.29289C21.8946 2.48043 22 2.73478 22 3V16H16V22H2V3ZM18 21.521V18H21.521L18 21.521Z" fill="#374957"/>
<path d="M10.9838 4.99984H9.01685V11.0688H10.2668V8.96884H10.9838C11.5103 8.96884 12.0152 8.75971 12.3875 8.38745C12.7597 8.01519 12.9688 7.5103 12.9688 6.98384C12.9688 6.45739 12.7597 5.95249 12.3875 5.58023C12.0152 5.20797 11.5103 4.99884 10.9838 4.99884V4.99984ZM10.9838 7.71984H10.2738V6.24684H10.9888C11.1838 6.24684 11.3707 6.32428 11.5086 6.46212C11.6464 6.59996 11.7238 6.78691 11.7238 6.98184C11.7238 7.17677 11.6464 7.36372 11.5086 7.50156C11.3707 7.6394 11.1838 7.71684 10.9888 7.71684L10.9838 7.71984Z" fill="#374957"/>
<path d="M16.0599 9.76312C15.8363 9.76614 15.6145 9.72334 15.4082 9.63734C15.2018 9.55135 15.0152 9.42399 14.8599 9.26312L14.4399 8.80012L13.5139 9.64112L13.9339 10.1031C14.2059 10.3952 14.5357 10.6274 14.9025 10.7848C15.2693 10.9422 15.6648 11.0213 16.0639 11.0171C16.5318 11.0371 16.9918 10.8924 17.3638 10.608C17.7359 10.3237 17.9964 9.9178 18.0999 9.46112C18.1574 9.0106 18.045 8.55482 17.7847 8.18266C17.5244 7.81049 17.1348 7.54862 16.6919 7.44812C16.0329 7.20412 15.4349 6.94112 15.4189 6.94112C15.3705 6.90904 15.3325 6.86363 15.3095 6.81038C15.2864 6.75714 15.2792 6.69834 15.2889 6.64112C15.3065 6.55158 15.3504 6.46935 15.4151 6.40502C15.4798 6.34068 15.5623 6.29718 15.6519 6.28012C15.8758 6.23291 16.1073 6.2353 16.3302 6.28713C16.553 6.33896 16.7618 6.43896 16.9419 6.58012L17.4169 6.98012L18.2169 6.02412L17.7379 5.62412C17.3987 5.35088 17.0006 5.16015 16.5751 5.06696C16.1496 4.97377 15.7083 4.98067 15.2859 5.08712C14.9686 5.17371 14.683 5.34994 14.4632 5.59469C14.2435 5.83944 14.0989 6.14234 14.0469 6.46712C14.0042 6.77779 14.0553 7.09415 14.1938 7.37553C14.3322 7.65691 14.5517 7.89045 14.8239 8.04612C14.8239 8.04612 15.5019 8.34612 16.2539 8.62612C16.4129 8.68512 16.9259 8.90312 16.8639 9.24812C16.8057 9.4108 16.6953 9.5496 16.5498 9.64279C16.4043 9.73598 16.232 9.77829 16.0599 9.76312V9.76312Z" fill="#374957"/>
<path d="M3.99817 11.0213H7.26117V9.77128H5.24817V8.63428H7.11217V7.38428H5.24817V6.24628H7.26117V4.99628H3.99817V11.0213Z" fill="#374957"/>
</g>
<defs>
<clipPath id="clip0_51_69674">
<rect width="24" height="24" fill="white"/>
</clipPath>
</defs>
</svg>
