<svg width="24" height="24" viewBox="0 0 24 24" fill="none" xmlns="http://www.w3.org/2000/svg">
<g clip-path="url(#clip0_51_70775)">
<path d="M15 6H9V4H15V6ZM21 18.3L20.832 18.552C20.4199 19.102 19.919 19.5796 19.35 19.965L21 24H18.838L17.592 20.954C15.8197 21.6834 13.9161 22.0395 12 22C10.0839 22.0395 8.18025 21.6834 6.408 20.954L5.162 24H3L4.65 19.968C4.08096 19.5826 3.5801 19.105 3.168 18.555L3 18.3V4C3.05033 3.45257 3.25344 2.9303 3.58619 2.4927C3.91894 2.05511 4.36794 1.7198 4.882 1.525C7.1424 0.588724 9.55442 0.0719582 12 0C14.4456 0.0720694 16.8576 0.58883 19.118 1.525C19.632 1.7199 20.0809 2.05524 20.4137 2.49281C20.7464 2.93039 20.9496 3.45261 21 4V18.3ZM5.009 4.25C5.1 8.42 7.522 14 12 14C16.478 14 18.9 8.42 18.991 4.25C18.9829 4.06252 18.9211 3.88131 18.813 3.72796C18.7048 3.5746 18.5549 3.45556 18.381 3.385C16.3528 2.54898 14.1923 2.08002 12 2C9.80775 2.08002 7.64716 2.54898 5.619 3.385C5.44511 3.45556 5.29517 3.5746 5.18702 3.72796C5.07888 3.88131 5.01708 4.06252 5.009 4.25ZM19 11.411C17.417 14.094 14.981 16 12 16C9.019 16 6.583 14.094 5 11.411V17.648C5.552 18.257 7.526 20 12 20C16.474 20 18.438 18.265 19 17.647V11.411ZM12 17C11.8022 17 11.6089 17.0586 11.4444 17.1685C11.28 17.2784 11.1518 17.4346 11.0761 17.6173C11.0004 17.8 10.9806 18.0011 11.0192 18.1951C11.0578 18.3891 11.153 18.5673 11.2929 18.7071C11.4327 18.847 11.6109 18.9422 11.8049 18.9808C11.9989 19.0194 12.2 18.9996 12.3827 18.9239C12.5654 18.8482 12.7216 18.72 12.8315 18.5556C12.9414 18.3911 13 18.1978 13 18C13 17.7348 12.8946 17.4804 12.7071 17.2929C12.5196 17.1054 12.2652 17 12 17Z" fill="#374957"/>
</g>
<defs>
<clipPath id="clip0_51_70775">
<rect width="24" height="24" fill="white"/>
</clipPath>
</defs>
</svg>
