<svg width="24" height="24" viewBox="0 0 24 24" fill="none" xmlns="http://www.w3.org/2000/svg">
<g clip-path="url(#clip0_51_71132)">
<path d="M19.4998 9H18.9998V7C18.9998 6.73478 18.8945 6.48043 18.707 6.29289C18.5194 6.10535 18.2651 6 17.9998 6C18.0126 5.29068 17.8316 4.59132 17.4763 3.97724C17.1211 3.36315 16.6051 2.85759 15.9838 2.515C15.2656 2.11522 14.4435 1.94099 13.6248 2.015C13.5232 2.0276 13.4201 2.01369 13.3255 1.97461C13.2308 1.93553 13.1479 1.87262 13.0848 1.792C12.6496 1.2218 12.0846 0.763684 11.4368 0.455685C10.7889 0.147685 10.0769 -0.00130504 9.35996 0.0210883C8.64298 0.0434817 7.94169 0.236612 7.31434 0.58444C6.68698 0.932268 6.15166 1.42475 5.75285 2.021C4.73839 2.08208 3.7854 2.52768 3.08808 3.267C2.39075 4.00631 2.00157 4.9837 1.99985 6C1.73463 6 1.48028 6.10535 1.29274 6.29289C1.1052 6.48043 0.999847 6.73478 0.999847 7V19C1.00144 20.3256 1.52873 21.5964 2.46607 22.5338C3.40341 23.4711 4.67425 23.9984 5.99985 24H13.9998C15.3254 23.9984 16.5963 23.4711 17.5336 22.5338C18.471 21.5964 18.9983 20.3256 18.9998 19H19.4998C20.4281 19 21.3183 18.6312 21.9747 17.9749C22.6311 17.3185 22.9998 16.4283 22.9998 15.5V12.5C22.9998 11.5717 22.6311 10.6815 21.9747 10.0251C21.3183 9.36875 20.4281 9 19.4998 9ZM5.99985 4C6.05736 4.00187 6.11459 4.0089 6.17085 4.021C6.38635 4.05604 6.60741 4.01958 6.80025 3.9172C6.9931 3.81482 7.14714 3.65214 7.23885 3.454C7.42168 3.06585 7.70133 2.7313 8.05089 2.48251C8.40044 2.23373 8.80815 2.0791 9.23476 2.0335C9.66138 1.98789 10.0926 2.05285 10.4868 2.22212C10.8811 2.39139 11.2251 2.65927 11.4858 3C11.7538 3.35596 12.1096 3.63632 12.5183 3.81369C12.9271 3.99107 13.3748 4.0594 13.8178 4.012C14.245 3.97835 14.6725 4.0727 15.0458 4.283C15.3434 4.45824 15.5888 4.70981 15.7565 5.01168C15.9242 5.31355 16.0082 5.65476 15.9998 6H11.9998C11.2042 6 10.4411 6.31607 9.87853 6.87868C9.31592 7.44128 8.99985 8.20435 8.99985 9V12C8.99985 12.2652 8.89449 12.5196 8.70695 12.7071C8.51942 12.8946 8.26506 13 7.99985 13C7.73463 13 7.48028 12.8946 7.29274 12.7071C7.1052 12.5196 6.99985 12.2652 6.99985 12V9C6.99985 8.20435 6.68378 7.44128 6.12117 6.87868C5.55856 6.31607 4.7955 6 3.99985 6C3.99985 5.46956 4.21056 4.96085 4.58563 4.58578C4.96071 4.21071 5.46941 4 5.99985 4V4ZM16.9998 19C16.9998 19.7956 16.6838 20.5587 16.1212 21.1213C15.5586 21.6839 14.7955 22 13.9998 22H5.99985C5.2042 22 4.44114 21.6839 3.87853 21.1213C3.31592 20.5587 2.99985 19.7956 2.99985 19V8H3.99985C4.26506 8 4.51942 8.10535 4.70695 8.29289C4.89449 8.48043 4.99985 8.73478 4.99985 9V12C4.99985 12.7956 5.31592 13.5587 5.87853 14.1213C6.44114 14.6839 7.2042 15 7.99985 15C8.7955 15 9.55856 14.6839 10.1212 14.1213C10.6838 13.5587 10.9998 12.7956 10.9998 12V9C10.9998 8.73478 11.1052 8.48043 11.2927 8.29289C11.4803 8.10535 11.7346 8 11.9998 8H16.9998V19ZM20.9998 15.5C20.9998 15.8978 20.8418 16.2794 20.5605 16.5607C20.2792 16.842 19.8977 17 19.4998 17H18.9998V11H19.4998C19.8977 11 20.2792 11.158 20.5605 11.4393C20.8418 11.7206 20.9998 12.1022 20.9998 12.5V15.5Z" fill="#374957"/>
</g>
<defs>
<clipPath id="clip0_51_71132">
<rect width="24" height="24" fill="white"/>
</clipPath>
</defs>
</svg>
