<svg width="24" height="24" viewBox="0 0 24 24" fill="none" xmlns="http://www.w3.org/2000/svg">
<g clip-path="url(#clip0_51_71773)">
<path d="M22.1389 17.7784L13.5919 5.53437C14.9963 4.65513 15.4219 2.80394 14.5427 1.39962C13.6635 -0.00471237 11.8123 -0.430384 10.408 0.448897C9.00363 1.32818 8.57796 3.17932 9.45724 4.58365C9.69813 4.9684 10.0232 5.29348 10.408 5.53437L1.86091 17.7784C0.930772 18.9964 0.753209 20.6299 1.3999 22.0194C2.16255 23.3367 3.60837 24.1052 5.12693 24.0003H18.8729C20.3915 24.1052 21.8373 23.3367 22.5999 22.0194C23.2466 20.6299 23.069 18.9964 22.1389 17.7784ZM11.7309 22.0003L17.1889 14.1814L18.5999 16.2084L14.5609 22.0004H11.7309V22.0003ZM6.53894 22.0003L14.593 10.4623L15.969 12.4343L9.29191 22.0003H6.53894ZM3.16994 21.0943C2.87337 20.3646 3.00002 19.5311 3.49994 18.9223L11.9999 6.74735L13.3809 8.72533C13.3669 8.74333 13.3469 8.75233 13.3339 8.77033L4.19993 21.8593C3.76685 21.755 3.39494 21.4788 3.16994 21.0943ZM20.8299 21.0943C20.4013 21.7421 19.6441 22.0926 18.8729 22.0003H16.9999L19.822 17.9563L20.497 18.9223C20.9979 19.5305 21.1257 20.3641 20.8299 21.0943Z" fill="#374957"/>
</g>
<defs>
<clipPath id="clip0_51_71773">
<rect width="24" height="24" fill="white"/>
</clipPath>
</defs>
</svg>
