<svg width="24" height="24" viewBox="0 0 24 24" fill="none" xmlns="http://www.w3.org/2000/svg">
<g clip-path="url(#clip0_51_69734)">
<path d="M13 14.0003H16V16.0003H13V19.0003H11V16.0003H8V14.0003H11V11.0003H13V14.0003ZM24 6.00031V23.0003H0V4.00031C0 3.20466 0.31607 2.44159 0.87868 1.87898C1.44129 1.31638 2.20435 1.00031 3 1.00031H8.236L12.236 3.00031H21C21.7956 3.00031 22.5587 3.31638 23.1213 3.87898C23.6839 4.44159 24 5.20466 24 6.00031ZM2 4.00031V7.00031H22V6.00031C22 5.73509 21.8946 5.48073 21.7071 5.2932C21.5196 5.10566 21.2652 5.00031 21 5.00031H11.764L7.764 3.00031H3C2.73478 3.00031 2.48043 3.10566 2.29289 3.2932C2.10536 3.48073 2 3.73509 2 4.00031V4.00031ZM22 21.0003V9.00031H2V21.0003H22Z" fill="#374957"/>
</g>
<defs>
<clipPath id="clip0_51_69734">
<rect width="24" height="24" fill="white"/>
</clipPath>
</defs>
</svg>
