<svg width="24" height="24" viewBox="0 0 24 24" fill="none" xmlns="http://www.w3.org/2000/svg">
<g clip-path="url(#clip0_51_81435)">
<path d="M22.9069 22.0007L18.2399 15.0007H20.9069L16.9069 9.00067H19.0999L13.7159 0.700671C13.2658 0.265708 12.6644 0.022583 12.0384 0.022583C11.4125 0.022583 10.811 0.265708 10.3609 0.700671L4.94592 9.00067H7.16992L3.16992 15.0007H5.83592L1.16992 22.0007H11.0389V24.0007H13.0389V22.0007H22.9069ZM12.9999 18.0007C12.8021 18.0007 12.6088 17.942 12.4444 17.8321C12.2799 17.7223 12.1517 17.5661 12.076 17.3834C12.0004 17.2006 11.9806 16.9996 12.0191 16.8056C12.0577 16.6116 12.153 16.4334 12.2928 16.2936C12.4327 16.1537 12.6109 16.0585 12.8048 16.0199C12.9988 15.9813 13.1999 16.0011 13.3826 16.0768C13.5653 16.1525 13.7215 16.2807 13.8314 16.4451C13.9413 16.6095 13.9999 16.8029 13.9999 17.0007C13.9999 17.2659 13.8946 17.5202 13.707 17.7078C13.5195 17.8953 13.2651 18.0007 12.9999 18.0007ZM15.9999 18.0007C16.1977 18.0007 16.391 18.0593 16.5555 18.1692C16.7199 18.2791 16.8481 18.4353 16.9238 18.618C16.9995 18.8007 17.0193 19.0018 16.9807 19.1958C16.9421 19.3897 16.8469 19.5679 16.707 19.7078C16.5672 19.8476 16.389 19.9429 16.195 19.9815C16.001 20.02 15.8 20.0002 15.6172 19.9246C15.4345 19.8489 15.2783 19.7207 15.1685 19.5562C15.0586 19.3918 14.9999 19.1985 14.9999 19.0007C14.9999 18.7355 15.1053 18.4811 15.2928 18.2936C15.4804 18.106 15.7347 18.0007 15.9999 18.0007V18.0007ZM14.9999 11.0007C15.1977 11.0007 15.391 11.0593 15.5555 11.1692C15.7199 11.2791 15.8481 11.4353 15.9238 11.618C15.9995 11.8007 16.0193 12.0018 15.9807 12.1958C15.9421 12.3897 15.8469 12.5679 15.707 12.7078C15.5672 12.8476 15.389 12.9429 15.195 12.9815C15.001 13.02 14.8 13.0002 14.6172 12.9246C14.4345 12.8489 14.2783 12.7207 14.1685 12.5562C14.0586 12.3918 13.9999 12.1985 13.9999 12.0007C13.9999 11.7355 14.1053 11.4811 14.2928 11.2936C14.4804 11.106 14.7347 11.0007 14.9999 11.0007V11.0007ZM12.9999 5.00067C13.1977 5.00067 13.391 5.05932 13.5555 5.1692C13.7199 5.27908 13.8481 5.43526 13.9238 5.61799C13.9995 5.80071 14.0193 6.00178 13.9807 6.19576C13.9421 6.38974 13.8469 6.56793 13.707 6.70778C13.5672 6.84763 13.389 6.94287 13.195 6.98146C13.001 7.02004 12.8 7.00024 12.6172 6.92455C12.4345 6.84886 12.2783 6.72069 12.1685 6.55624C12.0586 6.39179 11.9999 6.19845 11.9999 6.00067C11.9999 5.73545 12.1053 5.4811 12.2928 5.29356C12.4804 5.10603 12.7347 5.00067 12.9999 5.00067V5.00067ZM7.99992 20.0007C7.80214 20.0007 7.6088 19.942 7.44435 19.8321C7.2799 19.7223 7.15173 19.5661 7.07604 19.3834C7.00035 19.2006 6.98055 18.9996 7.01914 18.8056C7.05772 18.6116 7.15296 18.4334 7.29282 18.2936C7.43267 18.1537 7.61085 18.0585 7.80483 18.0199C7.99881 17.9813 8.19988 18.0011 8.38261 18.0768C8.56533 18.1525 8.72151 18.2807 8.83139 18.4451C8.94127 18.6095 8.99992 18.8029 8.99992 19.0007C8.99992 19.2659 8.89456 19.5202 8.70703 19.7078C8.51949 19.8953 8.26514 20.0007 7.99992 20.0007V20.0007ZM8.99992 15.0007C8.80214 15.0007 8.6088 14.942 8.44435 14.8321C8.2799 14.7223 8.15173 14.5661 8.07604 14.3834C8.00035 14.2006 7.98055 13.9996 8.01914 13.8056C8.05772 13.6116 8.15296 13.4334 8.29282 13.2936C8.43267 13.1537 8.61085 13.0585 8.80483 13.0199C8.99881 12.9813 9.19988 13.0011 9.38261 13.0768C9.56533 13.1525 9.72151 13.2807 9.83139 13.4451C9.94127 13.6095 9.99992 13.8029 9.99992 14.0007C9.99992 14.2659 9.89456 14.5202 9.70703 14.7078C9.51949 14.8953 9.26514 15.0007 8.99992 15.0007ZM9.99992 10.0007C9.99992 9.80289 10.0586 9.60955 10.1685 9.4451C10.2783 9.28065 10.4345 9.15248 10.6172 9.07679C10.8 9.0011 11.001 8.9813 11.195 9.01989C11.389 9.05847 11.5672 9.15371 11.707 9.29356C11.8469 9.43342 11.9421 9.6116 11.9807 9.80558C12.0193 9.99956 11.9995 10.2006 11.9238 10.3834C11.8481 10.5661 11.7199 10.7223 11.5555 10.8321C11.391 10.942 11.1977 11.0007 10.9999 11.0007C10.7347 11.0007 10.4804 10.8953 10.2928 10.7078C10.1053 10.5202 9.99992 10.2659 9.99992 10.0007Z" fill="#374957"/>
</g>
<defs>
<clipPath id="clip0_51_81435">
<rect width="24" height="24" fill="white"/>
</clipPath>
</defs>
</svg>
