<svg width="24" height="24" viewBox="0 0 24 24" fill="none" xmlns="http://www.w3.org/2000/svg">
<g clip-path="url(#clip0_51_80065)">
<path d="M17.6132 12.848L23.8782 19.113L20.7072 22.284C20.1544 22.8342 19.4979 23.2692 18.7757 23.5637C18.0536 23.8583 17.2801 24.0066 16.5002 24C9.25221 24 0.000210882 14.748 0.000210882 7.5C-0.00638695 6.7201 0.141895 5.94664 0.436461 5.22447C0.731027 4.5023 1.16602 3.84579 1.71621 3.293L4.88721 0.122L11.1522 6.387L7.02721 10.512C8.25412 13.4261 10.5691 15.7469 13.4802 16.981L17.6132 12.848ZM21.5292 0H17.0002V2H20.6152L15.0002 7.62L16.4142 9.034L22.0002 3.443V7H24.0002V2.5C24.0034 1.841 23.745 1.20765 23.2818 0.738954C22.8185 0.270254 22.1882 0.00449512 21.5292 0Z" fill="#374957"/>
</g>
<defs>
<clipPath id="clip0_51_80065">
<rect width="24" height="24" fill="white"/>
</clipPath>
</defs>
</svg>
