<svg width="24" height="24" viewBox="0 0 24 24" fill="none" xmlns="http://www.w3.org/2000/svg">
<g clip-path="url(#clip0_51_80890)">
<path d="M21 1.00024H11C10.2044 1.00024 9.44129 1.31631 8.87868 1.87892C8.31608 2.44153 8.00001 3.20459 8.00001 4.00024V14.0002C7.09893 13.3244 5.99606 12.9727 4.87009 13.0019C3.74413 13.0312 2.66102 13.4398 1.79627 14.1615C0.931513 14.8832 0.335769 15.8757 0.105556 16.9783C-0.124656 18.0809 0.024152 19.2289 0.52787 20.2363C1.03159 21.2437 1.86071 22.0516 2.88089 22.529C3.90107 23.0063 5.05255 23.1253 6.14877 22.8665C7.24499 22.6077 8.22172 21.9864 8.92071 21.1032C9.6197 20.2199 10 19.1266 10 18.0002V4.00024C10 3.73503 10.1054 3.48067 10.2929 3.29314C10.4804 3.1056 10.7348 3.00024 11 3.00024H21C21.2652 3.00024 21.5196 3.1056 21.7071 3.29314C21.8946 3.48067 22 3.73503 22 4.00024V14.0002C21.0989 13.3244 19.9961 12.9727 18.8701 13.0019C17.7441 13.0312 16.661 13.4398 15.7963 14.1615C14.9315 14.8832 14.3358 15.8757 14.1056 16.9783C13.8753 18.0809 14.0242 19.2289 14.5279 20.2363C15.0316 21.2437 15.8607 22.0516 16.8809 22.529C17.9011 23.0063 19.0526 23.1253 20.1488 22.8665C21.245 22.6077 22.2217 21.9864 22.9207 21.1032C23.6197 20.2199 24 19.1266 24 18.0002V4.00024C24 3.20459 23.6839 2.44153 23.1213 1.87892C22.5587 1.31631 21.7957 1.00024 21 1.00024V1.00024Z" fill="#374957"/>
</g>
<defs>
<clipPath id="clip0_51_80890">
<rect width="24" height="24" fill="white"/>
</clipPath>
</defs>
</svg>
