<svg width="24" height="24" viewBox="0 0 24 24" fill="none" xmlns="http://www.w3.org/2000/svg">
<g clip-path="url(#clip0_51_82060)">
<path d="M19 24.0002H5C3.6744 23.9987 2.40356 23.4714 1.46622 22.534C0.528882 21.5967 0.00158786 20.3258 0 19.0002L0 17.0002C0 16.2046 0.31607 15.4415 0.87868 14.8789C1.44129 14.3163 2.20435 14.0002 3 14.0002H21C21.7956 14.0002 22.5587 14.3163 23.1213 14.8789C23.6839 15.4415 24 16.2046 24 17.0002V19.0002C23.9984 20.3258 23.4711 21.5967 22.5338 22.534C21.5964 23.4714 20.3256 23.9987 19 24.0002V24.0002ZM22 12.0002V10.0002C22 9.46981 21.7893 8.9611 21.4142 8.58603C21.0391 8.21095 20.5304 8.00024 20 8.00024H4C3.46957 8.00024 2.96086 8.21095 2.58579 8.58603C2.21071 8.9611 2 9.46981 2 10.0002V12.0002H22ZM18.961 6.00024C18.8623 4.03488 18.3069 2.11956 17.339 0.40624C17.2378 0.268823 17.1029 0.159774 16.9474 0.0895924C16.7918 0.0194109 16.6208 -0.00953856 16.4508 0.00553143C16.2808 0.0206014 16.1176 0.0791833 15.9768 0.175636C15.836 0.272089 15.7224 0.403164 15.647 0.55624C15.35 1.28809 14.8398 1.91373 14.1826 2.35188C13.5255 2.79004 12.7518 3.02047 11.962 3.01324H10C9.01339 2.93833 8.02956 3.19024 7.20036 3.73009C6.37117 4.26993 5.74271 5.0677 5.412 6.00024H18.961Z" fill="#374957"/>
</g>
<defs>
<clipPath id="clip0_51_82060">
<rect width="24" height="24" fill="white"/>
</clipPath>
</defs>
</svg>
