<svg width="24" height="24" viewBox="0 0 24 24" fill="none" xmlns="http://www.w3.org/2000/svg">
<g clip-path="url(#clip0_51_80934)">
<path d="M17.5002 23.9999C16.6831 23.9611 15.8753 23.8086 15.1002 23.5469C13.0884 22.8609 10.906 22.8609 8.89422 23.5469C5.59422 24.7269 2.87022 23.5679 2.99422 20.3689C3.00022 15.6409 7.45822 10.9999 12.0002 10.9999C16.5422 10.9999 21.0002 15.6409 21.0002 20.3689C21.0002 22.0249 20.3932 23.9999 17.5002 23.9999ZM21.8442 5.0139C20.4802 4.8509 19.2442 6.1419 19.0302 8.4739C18.5972 13.9819 23.3372 14.6989 23.9712 9.0629C24.1842 6.7319 23.2082 5.1769 21.8442 5.0139ZM0.0292213 9.0629C0.664221 14.6999 5.40022 13.9779 4.97022 8.4739C4.75622 6.1419 3.52022 4.8509 2.15622 5.0139C0.792221 5.1769 -0.183779 6.7319 0.0292213 9.0629ZM5.97722 4.0629C6.61222 9.7019 11.3512 8.9779 10.9172 3.4739C10.7002 1.1419 9.46822 -0.1491 8.10022 0.0139005C6.73222 0.1769 5.76322 1.7319 5.97722 4.0629V4.0629ZM15.8442 0.0139005C14.4802 -0.1491 13.2442 1.1419 13.0302 3.4739C12.5972 8.9819 17.3372 9.6989 17.9712 4.0629C18.1842 1.7319 17.2082 0.1769 15.8442 0.0139005Z" fill="#374957"/>
</g>
<defs>
<clipPath id="clip0_51_80934">
<rect width="24" height="24" fill="white"/>
</clipPath>
</defs>
</svg>
