<svg width="24" height="24" viewBox="0 0 24 24" fill="none" xmlns="http://www.w3.org/2000/svg">
<g clip-path="url(#clip0_51_81775)">
<path d="M22 17C21.9983 15.6683 21.6167 14.3647 20.9 13.2422C20.1833 12.1198 19.1613 11.225 17.954 10.663C18.6096 9.60389 18.9702 8.38868 18.9982 7.14333C19.0263 5.89798 18.7208 4.66778 18.1135 3.58017C17.5062 2.49257 16.6192 1.58713 15.5443 0.957649C14.4693 0.32817 13.2457 -0.00244934 12 4.45222e-05H5C4.46957 4.45222e-05 3.96086 0.210758 3.58579 0.585831C3.21071 0.960904 3 1.46961 3 2.00004V22C3 22.5305 3.21071 23.0392 3.58579 23.4143C3.96086 23.7893 4.46957 24 5 24H15C16.8559 23.9979 18.6351 23.2597 19.9474 21.9475C21.2597 20.6352 21.9979 18.8559 22 17V17ZM7 4.00004H12C12.7956 4.00004 13.5587 4.31611 14.1213 4.87872C14.6839 5.44133 15 6.20439 15 7.00004C15 7.79569 14.6839 8.55876 14.1213 9.12137C13.5587 9.68397 12.7956 10 12 10H7V4.00004ZM15 20H7V14H15C15.7956 14 16.5587 14.3161 17.1213 14.8787C17.6839 15.4413 18 16.2044 18 17C18 17.7957 17.6839 18.5588 17.1213 19.1214C16.5587 19.684 15.7956 20 15 20V20Z" fill="#374957"/>
</g>
<defs>
<clipPath id="clip0_51_81775">
<rect width="24" height="24" fill="white"/>
</clipPath>
</defs>
</svg>
