<svg width="24" height="24" viewBox="0 0 24 24" fill="none" xmlns="http://www.w3.org/2000/svg">
<g clip-path="url(#clip0_51_80968)">
<path d="M16.9 20.9579L15.676 23.9999H15C11.0231 23.9954 7.21044 22.4136 4.39837 19.6015C1.5863 16.7894 0.00449947 12.9768 0 8.99989L0 8.32389L3.042 7.09989C3.454 15.4589 8.541 20.5459 16.9 20.9579ZM23.832 3.67289L17.687 18.9889C9.613 18.8739 5.126 14.3889 5.011 6.31389L20.3 0.180886C20.7895 -0.00413126 21.3217 -0.0448055 21.8336 0.0636925C22.3455 0.172191 22.8155 0.425303 23.1878 0.792978C23.5601 1.16065 23.8191 1.62744 23.934 2.13793C24.0489 2.64842 24.0149 3.18115 23.836 3.67289H23.832ZM13 10.9999C13 10.4695 12.7893 9.96075 12.4142 9.58567C12.0391 9.2106 11.5304 8.99989 11 8.99989C10.4696 8.99989 9.96086 9.2106 9.58579 9.58567C9.21071 9.96075 9 10.4695 9 10.9999C9 11.5303 9.21071 12.039 9.58579 12.4141C9.96086 12.7892 10.4696 12.9999 11 12.9999C11.5304 12.9999 12.0391 12.7892 12.4142 12.4141C12.7893 12.039 13 11.5303 13 10.9999ZM18.784 10.8829L20.63 6.28289C20.3225 6.12847 19.9862 6.03955 19.6426 6.02177C19.2989 6.00398 18.9553 6.0577 18.6335 6.17955C18.3116 6.30139 18.0186 6.48869 17.7729 6.72962C17.5271 6.97054 17.3341 7.25983 17.2059 7.5792C17.0778 7.89856 17.0173 8.24105 17.0283 8.585C17.0393 8.92895 17.1216 9.26687 17.2699 9.57739C17.4182 9.8879 17.6294 10.1643 17.89 10.389C18.1506 10.6137 18.455 10.7819 18.784 10.8829V10.8829Z" fill="#374957"/>
</g>
<defs>
<clipPath id="clip0_51_80968">
<rect width="24" height="24" fill="white"/>
</clipPath>
</defs>
</svg>
