<svg width="24" height="24" viewBox="0 0 24 24" fill="none" xmlns="http://www.w3.org/2000/svg">
<g clip-path="url(#clip0_51_80956)">
<path d="M22.5626 1.43729C20.1886 -0.93671 16.6436 -0.35771 11.9996 3.13729C7.35662 -0.35771 3.81262 -0.93771 1.43662 1.43729C-0.939379 3.81228 -0.358379 7.35628 3.13662 12.0003C-0.358379 16.6433 -0.938379 20.1883 1.43662 22.5633C1.88192 23.025 2.41701 23.3907 3.00897 23.6378C3.60092 23.885 4.2372 24.0083 4.87862 24.0003C6.84962 24.0003 9.22962 22.9483 11.9996 20.8643C14.7686 22.9483 17.1486 24.0003 19.1206 24.0003C19.762 24.0083 20.3983 23.885 20.9903 23.6378C21.5822 23.3907 22.1173 23.025 22.5626 22.5633C24.9376 20.1883 24.3626 16.6443 20.8626 12.0003C24.3576 7.35628 24.9376 3.81228 22.5626 1.43729V1.43729ZM19.0846 2.02829C19.4668 2.01678 19.8473 2.08349 20.2027 2.22433C20.5581 2.36517 20.8811 2.57715 21.1516 2.84729C22.8976 4.59428 21.6076 7.56028 19.5636 10.3863C18.7256 9.39828 17.7816 8.37128 16.7056 7.29428C15.6296 6.21728 14.5996 5.27328 13.6116 4.43428C15.5096 3.06129 17.4716 2.02829 19.0846 2.02829V2.02829ZM18.3106 12.0003C17.2996 13.2203 16.2286 14.3613 15.2946 15.3003C14.3606 16.2393 13.2196 17.3003 11.9996 18.3113C10.7796 17.3003 9.63862 16.2293 8.70462 15.3003C7.77062 14.3713 6.69962 13.2203 5.68862 12.0003C6.69962 10.7803 7.77062 9.63828 8.70462 8.70528C9.63862 7.77228 10.7796 6.70028 11.9996 5.68828C13.2196 6.69828 14.3606 7.77128 15.2996 8.70528C16.2386 9.63928 17.2996 10.7803 18.3106 12.0003ZM2.84762 2.84829C3.11789 2.57769 3.44073 2.36532 3.79623 2.22429C4.15173 2.08326 4.53235 2.01656 4.91462 2.02829C6.52762 2.02829 8.48962 3.06129 10.3876 4.43428C9.39962 5.27328 8.37162 6.21728 7.29362 7.29428C6.21562 8.37128 5.27362 9.39428 4.43462 10.3863C2.39162 7.56028 1.09962 4.59428 2.84762 2.84829V2.84829ZM2.84762 21.1483C1.10162 19.4023 2.39162 16.4353 4.43462 13.6103C5.27362 14.5983 6.21762 15.6253 7.29362 16.7023C8.36962 17.7793 9.39362 18.7253 10.3826 19.5633C7.55762 21.6093 4.59162 22.9003 2.84762 21.1523V21.1483ZM21.1476 21.1483C19.4026 22.8923 16.4376 21.6053 13.6126 19.5633C14.5986 18.7253 15.6266 17.7763 16.7016 16.7023C17.7766 15.6283 18.7216 14.6023 19.5596 13.6103C21.6076 16.4403 22.8996 19.4063 21.1516 21.1523L21.1476 21.1483Z" fill="#374957"/>
<path d="M12 13.9994C13.1046 13.9994 14 13.104 14 11.9994C14 10.8948 13.1046 9.99939 12 9.99939C10.8954 9.99939 10 10.8948 10 11.9994C10 13.104 10.8954 13.9994 12 13.9994Z" fill="#374957"/>
</g>
<defs>
<clipPath id="clip0_51_80956">
<rect width="24" height="24" fill="white"/>
</clipPath>
</defs>
</svg>
