<svg width="24" height="24" viewBox="0 0 24 24" fill="none" xmlns="http://www.w3.org/2000/svg">
<g clip-path="url(#clip0_51_82315)">
<path d="M23.863 6.88031L0 6.99131V6.00031C0.00158786 4.67471 0.528882 3.40386 1.46622 2.46653C2.40356 1.52919 3.6744 1.00189 5 1.00031H7.528C7.9934 1.00069 8.45239 1.10885 8.869 1.31631L12.025 2.90031C12.1645 2.96713 12.3173 3.00133 12.472 3.00031H19C20.1297 3.00255 21.2254 3.38731 22.1084 4.09188C22.9915 4.79645 23.6099 5.7793 23.863 6.88031V6.88031ZM24 8.88031V18.0003C23.9984 19.3259 23.4711 20.5967 22.5338 21.5341C21.5964 22.4714 20.3256 22.9987 19 23.0003H5C3.6744 22.9987 2.40356 22.4714 1.46622 21.5341C0.528882 20.5967 0.00158786 19.3259 0 18.0003L0 8.99131L24 8.88031ZM16 16.0003C16 15.7351 15.8946 15.4807 15.7071 15.2932C15.5196 15.1057 15.2652 15.0003 15 15.0003H13V13.0003C13 12.7351 12.8946 12.4807 12.7071 12.2932C12.5196 12.1057 12.2652 12.0003 12 12.0003C11.7348 12.0003 11.4804 12.1057 11.2929 12.2932C11.1054 12.4807 11 12.7351 11 13.0003V15.0003H9C8.73478 15.0003 8.48043 15.1057 8.29289 15.2932C8.10536 15.4807 8 15.7351 8 16.0003C8 16.2655 8.10536 16.5199 8.29289 16.7074C8.48043 16.8949 8.73478 17.0003 9 17.0003H11V19.0003C11 19.2655 11.1054 19.5199 11.2929 19.7074C11.4804 19.8949 11.7348 20.0003 12 20.0003C12.2652 20.0003 12.5196 19.8949 12.7071 19.7074C12.8946 19.5199 13 19.2655 13 19.0003V17.0003H15C15.2652 17.0003 15.5196 16.8949 15.7071 16.7074C15.8946 16.5199 16 16.2655 16 16.0003Z" fill="#374957"/>
</g>
<defs>
<clipPath id="clip0_51_82315">
<rect width="24" height="24" fill="white"/>
</clipPath>
</defs>
</svg>
