<svg width="24" height="24" viewBox="0 0 24 24" fill="none" xmlns="http://www.w3.org/2000/svg">
<g clip-path="url(#clip0_51_80041)">
<path d="M9.99991 2C9.99991 1.46957 10.2106 0.960859 10.5857 0.585786C10.9608 0.210714 11.4695 0 11.9999 0C12.5303 0 13.039 0.210714 13.4141 0.585786C13.7892 0.960859 13.9999 1.46957 13.9999 2C13.9999 2.53043 13.7892 3.03914 13.4141 3.41421C13.039 3.78929 12.5303 4 11.9999 4C11.4695 4 10.9608 3.78929 10.5857 3.41421C10.2106 3.03914 9.99991 2.53043 9.99991 2V2ZM22.6129 2.506C22.2444 1.87369 21.6574 1.39792 20.9625 1.16825C20.2676 0.938576 19.5127 0.970852 18.8399 1.259C16.6446 2.3019 14.6638 3.74643 12.9999 5.518V14.293C14.2774 14.7762 15.6341 15.016 16.9999 15C18.8028 15.007 20.5383 14.3154 21.8422 13.0703C23.1461 11.8251 23.9169 10.1233 23.9929 8.322C24.0195 6.2992 23.5454 4.30122 22.6129 2.506V2.506ZM22.2709 15.261C20.7442 16.3877 18.8974 16.997 16.9999 17C15.2857 17.0184 13.5854 16.692 11.9999 16.04C10.4145 16.692 8.71408 17.0184 6.99991 17C5.10245 16.997 3.25561 16.3877 1.72891 15.261C-0.186094 18.348 2.24891 22.761 3.06591 23.496L3.46591 23.955L4.05791 23.807C6.70296 23.0677 9.10062 21.6308 10.9999 19.647V22H12.9999V19.647C14.8984 21.6304 17.2949 23.0672 19.9389 23.807L20.5309 23.955L20.9309 23.496C21.7629 22.751 24.1799 18.323 22.2709 15.261V15.261ZM7.20591 15C8.50491 15.0178 9.79452 14.7775 10.9999 14.293V5.518C9.33599 3.74643 7.35523 2.3019 5.15991 1.259C4.48702 0.970571 3.7319 0.938145 3.03677 1.16783C2.34163 1.39751 1.75448 1.87345 1.38591 2.506C0.454195 4.30148 -0.0195055 6.29934 0.00690629 8.322C0.108349 10.1507 0.915425 11.8688 2.25821 13.1144C3.60099 14.36 5.37471 15.036 7.20591 15V15Z" fill="#374957"/>
</g>
<defs>
<clipPath id="clip0_51_80041">
<rect width="24" height="24" fill="white"/>
</clipPath>
</defs>
</svg>
