<svg width="24" height="24" viewBox="0 0 24 24" fill="none" xmlns="http://www.w3.org/2000/svg">
<path d="M22.5004 18C22.3033 17.9999 22.1082 17.9611 21.9261 17.8856C21.7441 17.8101 21.5787 17.6994 21.4394 17.56L13.7684 9.88899C13.5362 9.65678 13.2606 9.47257 12.9572 9.34689C12.6539 9.22122 12.3287 9.15653 12.0004 9.15653C11.672 9.15653 11.3469 9.22122 11.0435 9.34689C10.7402 9.47257 10.4645 9.65678 10.2324 9.88899L2.57039 17.551C2.28748 17.8242 1.90858 17.9754 1.51529 17.972C1.12199 17.9686 0.745772 17.8108 0.46766 17.5327C0.189548 17.2546 0.0317946 16.8784 0.028377 16.4851C0.0249594 16.0918 0.176151 15.7129 0.449388 15.43L8.11139 7.768C9.14348 6.73782 10.5421 6.15924 12.0004 6.15924C13.4586 6.15924 14.8573 6.73782 15.8894 7.768L23.5614 15.44C23.771 15.6498 23.9136 15.9171 23.9714 16.208C24.0291 16.4988 23.9993 16.8003 23.8858 17.0743C23.7722 17.3483 23.58 17.5824 23.3334 17.7472C23.0868 17.9119 22.797 17.9999 22.5004 18Z" fill="#374957"/>
</svg>
