<svg width="24" height="24" viewBox="0 0 24 24" fill="none" xmlns="http://www.w3.org/2000/svg">
<g clip-path="url(#clip0_51_81226)">
<path d="M21.835 2.16561C21.1488 1.47927 20.3342 0.934826 19.4376 0.563373C18.541 0.191919 17.58 0.000732422 16.6095 0.000732422C15.639 0.000732422 14.678 0.191919 13.7814 0.563373C12.8848 0.934826 12.0701 1.47927 11.384 2.16561L2.16496 11.3846C1.47569 12.0702 0.928456 12.885 0.554609 13.7824C0.180762 14.6798 -0.0123504 15.6421 -0.0136651 16.6142C-0.0149798 17.5864 0.175529 18.5493 0.546948 19.4477C0.918366 20.3461 1.46339 21.1623 2.15081 21.8498C2.83822 22.5372 3.65451 23.0822 4.55291 23.4536C5.45132 23.825 6.41417 24.0155 7.38632 24.0142C8.35847 24.0129 9.32081 23.8198 10.2182 23.446C11.1156 23.0721 11.9304 22.5249 12.616 21.8356L21.835 12.6166C22.5213 11.9305 23.0657 11.1158 23.4372 10.2192C23.8087 9.3226 23.9998 8.36161 23.9998 7.39111C23.9998 6.42061 23.8087 5.45961 23.4372 4.56301C23.0657 3.66641 22.5213 2.85177 21.835 2.16561V2.16561ZM9.70696 19.7076L8.29296 18.2936L9.08596 17.5006L6.49996 14.9146L5.70696 15.7076L4.29296 14.2936L7.29296 11.2936L8.70696 12.7076L7.91396 13.5006L10.5 16.0866L11.293 15.2936L12.707 16.7076L9.70696 19.7076ZM16.707 12.7076L15.293 11.2936L16.086 10.5006L13.5 7.91461L12.707 8.70761L11.293 7.29361L14.293 4.29361L15.707 5.70761L14.914 6.50061L17.5 9.08661L18.293 8.29361L19.707 9.70761L16.707 12.7076Z" fill="#374957"/>
</g>
<defs>
<clipPath id="clip0_51_81226">
<rect width="24" height="24" fill="white"/>
</clipPath>
</defs>
</svg>
