<svg width="24" height="24" viewBox="0 0 24 24" fill="none" xmlns="http://www.w3.org/2000/svg">
<g clip-path="url(#clip0_51_81753)">
<path d="M9 9.49997C9 9.99442 8.85338 10.4778 8.57867 10.8889C8.30397 11.3 7.91352 11.6204 7.45671 11.8097C6.99989 11.9989 6.49723 12.0484 6.01227 11.9519C5.52732 11.8555 5.08186 11.6174 4.73223 11.2677C4.3826 10.9181 4.1445 10.4726 4.04804 9.9877C3.95157 9.50274 4.00108 9.00008 4.1903 8.54326C4.37952 8.08645 4.69995 7.696 5.11107 7.4213C5.5222 7.14659 6.00555 6.99997 6.5 6.99997C7.16304 6.99997 7.79893 7.26336 8.26777 7.7322C8.73661 8.20104 9 8.83693 9 9.49997ZM24 12V9.99997C24 8.9391 23.5786 7.92169 22.8284 7.17154C22.0783 6.4214 21.0609 5.99997 20 5.99997H15C13.9391 5.99997 12.9217 6.4214 12.1716 7.17154C11.4214 7.92169 11 8.9391 11 9.99997V12H24ZM2 14V2.99997C2 2.73475 1.89464 2.4804 1.70711 2.29286C1.51957 2.10533 1.26522 1.99997 1 1.99997C0.734784 1.99997 0.48043 2.10533 0.292893 2.29286C0.105357 2.4804 0 2.73475 0 2.99997L0 21C0 21.2652 0.105357 21.5195 0.292893 21.7071C0.48043 21.8946 0.734784 22 1 22C1.26522 22 1.51957 21.8946 1.70711 21.7071C1.89464 21.5195 2 21.2652 2 21V19H22V21C22 21.2652 22.1054 21.5195 22.2929 21.7071C22.4804 21.8946 22.7348 22 23 22C23.2652 22 23.5196 21.8946 23.7071 21.7071C23.8946 21.5195 24 21.2652 24 21V14H2Z" fill="#374957"/>
</g>
<defs>
<clipPath id="clip0_51_81753">
<rect width="24" height="24" fill="white"/>
</clipPath>
</defs>
</svg>
