<svg width="24" height="24" viewBox="0 0 24 24" fill="none" xmlns="http://www.w3.org/2000/svg">
<g clip-path="url(#clip0_51_80266)">
<path d="M13.2455 15.04L2.51346 10.153C2.16814 9.97647 1.86364 9.72951 1.6196 9.42808C1.37557 9.12664 1.1974 8.77741 1.09659 8.40291C0.995777 8.0284 0.97456 7.63692 1.0343 7.25371C1.09405 6.87051 1.23343 6.50407 1.44346 6.17802C2.68831 4.29815 4.29858 2.68788 6.17846 1.44302V1.44302C6.50603 1.23195 6.87436 1.09222 7.2595 1.0329C7.64463 0.973582 8.03795 0.996015 8.41384 1.09874C8.78974 1.20146 9.13979 1.38217 9.44124 1.62911C9.74268 1.87606 9.98876 2.1837 10.1635 2.53202L15.0005 13.284L13.2455 15.04ZM16.9665 0.738022C16.6344 0.45216 16.2447 0.241002 15.8239 0.11885C15.4031 -0.00330214 14.961 -0.0335955 14.5275 0.0300215C13.6115 0.164022 12.4275 0.377022 11.2805 0.660022C11.5446 0.956157 11.7704 1.28441 11.9525 1.63702L16.9005 12.393C17.0395 12.339 18.0005 12 18.0005 12V3.00002C18.0005 2.57086 17.9082 2.14672 17.7298 1.75641C17.5514 1.3661 17.291 1.01877 16.9665 0.738022V0.738022ZM22.3755 3.78502C21.6204 3.35699 20.8248 3.00461 20.0005 2.73302V9.99502C20.3065 9.93202 21.0565 9.82602 21.0565 9.82602C21.7524 9.75716 22.4078 9.46623 22.9257 8.99622C23.4436 8.52622 23.7966 7.90207 23.9325 7.21602C24.0755 6.55276 24.0014 5.86106 23.721 5.24319C23.4406 4.62532 22.9689 4.11407 22.3755 3.78502V3.78502ZM3.00046 18H12.0005C12.0005 18 12.3395 17.039 12.3935 16.9L1.63946 11.951C1.28709 11.769 0.958872 11.5436 0.662458 11.28C0.379458 12.426 0.162458 13.61 0.0324576 14.526C-0.0312257 14.9596 -0.000964381 15.4017 0.121191 15.8225C0.243346 16.2433 0.454539 16.633 0.740458 16.965C1.02089 17.2895 1.36786 17.5499 1.75781 17.7285C2.14776 17.9071 2.57156 17.9997 3.00046 18V18ZM7.21646 23.932C7.90251 23.7961 8.52665 23.4432 8.99666 22.9253C9.46666 22.4074 9.75759 21.752 9.82646 21.056C9.82646 21.056 9.93446 20.305 10.0005 20H2.73546C3.00705 20.8244 3.35943 21.6199 3.78746 22.375C4.11665 22.9682 4.62797 23.4398 5.24583 23.72C5.86369 24.0002 6.55531 24.0742 7.21846 23.931L7.21646 23.932Z" fill="#374957"/>
</g>
<defs>
<clipPath id="clip0_51_80266">
<rect width="24" height="24" fill="white"/>
</clipPath>
</defs>
</svg>
