<svg width="24" height="24" viewBox="0 0 24 24" fill="none" xmlns="http://www.w3.org/2000/svg">
<g clip-path="url(#clip0_51_81262)">
<path d="M0.415039 12.0003C0.419993 9.20676 1.39946 6.50243 3.18457 4.35359C4.96969 2.20475 7.44859 0.746048 10.1939 0.228975C12.9392 -0.288099 15.7789 0.168855 18.2235 1.52106C20.668 2.87326 22.5641 5.03597 23.585 7.63635L21.722 8.36435C21.0603 6.66894 19.9484 5.18627 18.5062 4.07613C17.064 2.966 15.3462 2.27049 13.5379 2.06457C11.7297 1.85865 9.89945 2.15012 8.24459 2.90758C6.58972 3.66503 5.17295 4.85975 4.14696 6.36296C3.12097 7.86618 2.52466 9.62089 2.42231 11.438C2.31996 13.2551 2.71545 15.0657 3.56615 16.6746C4.41685 18.2835 5.6905 19.6298 7.24983 20.5683C8.80917 21.5067 10.5951 22.0019 12.415 22.0003C14.4284 22.0071 16.3963 21.4022 18.0583 20.2658C19.7202 19.1293 20.9979 17.515 21.722 15.6363L23.585 16.3643C22.5641 18.9647 20.668 21.1274 18.2235 22.4796C15.7789 23.8318 12.9392 24.2888 10.1939 23.7717C7.44859 23.2546 4.96969 21.7959 3.18457 19.6471C1.39946 17.4983 0.419993 14.7939 0.415039 12.0003V12.0003Z" fill="#374957"/>
</g>
<defs>
<clipPath id="clip0_51_81262">
<rect width="24" height="24" fill="white"/>
</clipPath>
</defs>
</svg>
