<svg width="24" height="24" viewBox="0 0 24 24" fill="none" xmlns="http://www.w3.org/2000/svg">
<g clip-path="url(#clip0_51_81347)">
<path d="M6 3H3C2.20435 3 1.44129 3.31607 0.87868 3.87868C0.31607 4.44129 0 5.20435 0 6L0 14C0 14.7956 0.31607 15.5587 0.87868 16.1213C1.44129 16.6839 2.20435 17 3 17H6V3Z" fill="#374957"/>
<path d="M24 14L22 3H8V17L10.341 21.681C10.4813 21.9841 10.6859 22.253 10.9406 22.4691C11.1953 22.6851 11.494 22.8431 11.816 22.932C12.172 23.0266 12.5461 23.031 12.9043 22.9447C13.2624 22.8585 13.5934 22.6842 13.8673 22.4378C14.1412 22.1914 14.3494 21.8806 14.4729 21.5336C14.5965 21.1865 14.6316 20.8141 14.575 20.45L14 17H24V14Z" fill="#374957"/>
</g>
<defs>
<clipPath id="clip0_51_81347">
<rect width="24" height="24" fill="white"/>
</clipPath>
</defs>
</svg>
