<svg width="24" height="24" viewBox="0 0 24 24" fill="none" xmlns="http://www.w3.org/2000/svg">
<g clip-path="url(#clip0_51_79984)">
<path d="M19.7898 12.08C19.0198 9.21195 17.8668 6.06695 17.2898 4.54595C17.7801 4.34727 18.2808 4.17535 18.7898 4.03095C18.9288 3.99491 19.0742 3.9915 19.2147 4.02099C19.3552 4.05049 19.487 4.11208 19.5998 4.20095C19.7244 4.29576 19.8254 4.41814 19.8948 4.5585C19.9642 4.69886 20.0001 4.85338 19.9998 5.00995H21.9998C22.0012 4.54666 21.8954 4.08933 21.6905 3.67381C21.4856 3.25828 21.1872 2.89586 20.8188 2.61495C20.4635 2.33852 20.049 2.14816 19.6078 2.0588C19.1666 1.96945 18.7106 1.98353 18.2758 2.09995C17.3589 2.36869 16.4611 2.69911 15.5888 3.08895L14.7158 3.48195L15.0708 4.37295C15.0808 4.39695 15.5768 5.63995 16.1918 7.36295L12.0198 10.606L8.41379 6.99995H9.99979V4.99995H3.99979V6.99995H5.58579L10.4288 11.844L8.44079 13.39C7.5474 12.5493 6.37387 12.0699 5.14738 12.0448C3.92089 12.0196 2.72869 12.4504 1.80159 13.2538C0.874485 14.0572 0.278422 15.1759 0.128797 16.3935C-0.0208282 17.6111 0.286627 18.8409 0.991639 19.8448C1.69665 20.8487 2.74907 21.5554 3.94516 21.8279C5.14125 22.1005 6.39592 21.9196 7.46627 21.3202C8.53662 20.7208 9.34653 19.7456 9.73918 18.5834C10.1318 17.4212 10.0793 16.1547 9.59179 15.029L16.8798 9.36095C17.1798 10.279 17.4798 11.242 17.7458 12.179C16.5488 12.491 15.5099 13.2357 14.83 14.2691C14.15 15.3025 13.8773 16.5513 14.0645 17.774C14.2518 18.9968 14.8856 20.1068 15.8436 20.8894C16.8016 21.672 18.0157 22.0718 19.2513 22.0113C20.4868 21.9509 21.6561 21.4345 22.5331 20.5621C23.4102 19.6897 23.9326 18.5232 23.9996 17.288C24.0666 16.0528 23.6733 14.8366 22.8957 13.8745C22.1182 12.9123 21.0116 12.2726 19.7898 12.079V12.08Z" fill="#374957"/>
</g>
<defs>
<clipPath id="clip0_51_79984">
<rect width="24" height="24" fill="white"/>
</clipPath>
</defs>
</svg>
