<svg width="24" height="24" viewBox="0 0 24 24" fill="none" xmlns="http://www.w3.org/2000/svg">
<g clip-path="url(#clip0_51_82328)">
<path d="M0.0239258 11.5234C0.122193 8.90017 1.082 6.38237 2.75493 4.35941L3.86093 7.95941C3.92332 8.16163 3.91995 8.37842 3.85131 8.57861C3.78266 8.77879 3.65228 8.95203 3.47893 9.07341L0.0239258 11.5234ZM11.4139 2.81141C11.5846 2.93518 11.7901 3.00182 12.0009 3.00182C12.2118 3.00182 12.4172 2.93518 12.5879 2.81141L15.6269 0.563408C13.2583 -0.190633 10.7135 -0.187137 8.34693 0.573408L11.4139 2.81141ZM20.5139 9.06741L23.9709 11.5234C23.8727 8.90017 22.9128 6.38237 21.2399 4.35941L20.1399 7.95341C20.0772 8.15532 20.0801 8.3719 20.1482 8.57205C20.2163 8.77221 20.3461 8.94563 20.5189 9.06741H20.5139ZM6.69993 18.6834C6.63461 18.4831 6.50768 18.3085 6.33726 18.1846C6.16684 18.0607 5.96163 17.9938 5.75093 17.9934L1.61193 17.9864C3.07578 20.5172 5.4097 22.4297 8.17893 23.3674L6.69993 18.6834ZM18.2409 17.9934C18.0299 17.9943 17.8245 18.0619 17.6543 18.1865C17.484 18.3112 17.3575 18.4865 17.2929 18.6874L15.7679 23.3874C18.5579 22.4547 20.9106 20.5342 22.3829 17.9874L18.2409 17.9934ZM13.6579 13.6544L14.3889 11.4014C14.4216 11.3011 14.4217 11.1929 14.3892 11.0925C14.3567 10.9921 14.2932 10.9046 14.2079 10.8424L12.2939 9.45041C12.2085 9.38829 12.1056 9.35484 11.9999 9.35484C11.8943 9.35484 11.7914 9.38829 11.7059 9.45041L9.78993 10.8424C9.70424 10.9045 9.64045 10.9921 9.60775 11.0928C9.57504 11.1934 9.57511 11.3018 9.60793 11.4024L10.3399 13.6544C10.3724 13.7548 10.4359 13.8424 10.5212 13.9046C10.6066 13.9667 10.7094 14.0003 10.8149 14.0004H13.1849C13.2907 14.0005 13.3937 13.967 13.4792 13.9049C13.5647 13.8427 13.6284 13.755 13.6609 13.6544H13.6579ZM13.4999 23.9004C13.0025 23.9655 12.5015 23.9989 11.9999 24.0004C11.4793 23.9967 10.9596 23.959 10.4439 23.8874L8.60793 18.0764C8.4152 17.472 8.03535 16.9445 7.52325 16.5701C7.01115 16.1957 6.3933 15.9937 5.75893 15.9934L0.693926 15.9844C0.452861 15.3001 0.274789 14.5951 0.161926 13.8784L4.63393 10.7004C5.15223 10.3366 5.54169 9.81762 5.74619 9.21829C5.9507 8.61896 5.95971 7.97018 5.77193 7.36541L4.35593 2.75841C4.93466 2.27952 5.55705 1.856 6.21493 1.49341L10.2359 4.42741C10.7492 4.80147 11.3678 5.00301 12.0029 5.00301C12.638 5.00301 13.2567 4.80147 13.7699 4.42741L17.7569 1.48141C18.4251 1.848 19.057 2.27726 19.6439 2.76341L18.2279 7.36441C18.0396 7.96901 18.048 8.61779 18.252 9.2173C18.456 9.81681 18.845 10.3361 19.3629 10.7004L23.8379 13.8784C23.7252 14.5948 23.5471 15.2994 23.3059 15.9834L18.2389 15.9934C17.6054 15.994 16.9884 16.1958 16.4769 16.5696C15.9655 16.9434 15.5859 17.47 15.3929 18.0734L13.4999 23.9004ZM13.1849 16.0004C13.713 16.0004 14.2275 15.8333 14.6547 15.5228C15.0819 15.2124 15.3999 14.7747 15.5629 14.2724L16.2939 12.0194C16.4583 11.5174 16.459 10.9762 16.2958 10.4738C16.1326 9.97144 15.814 9.53392 15.3859 9.22441L13.4689 7.83241C13.0424 7.52098 12.528 7.35315 11.9999 7.35315C11.4718 7.35315 10.9574 7.52098 10.5309 7.83241L8.61393 9.22441C8.18499 9.53434 7.86581 9.97271 7.70257 10.4761C7.53933 10.9795 7.54051 11.5217 7.70593 12.0244L8.43793 14.2774C8.601 14.7791 8.91894 15.2161 9.34604 15.5257C9.77315 15.8353 10.2874 16.0015 10.8149 16.0004H13.1849Z" fill="#374957"/>
</g>
<defs>
<clipPath id="clip0_51_82328">
<rect width="24" height="24" fill="white"/>
</clipPath>
</defs>
</svg>
