<svg width="24" height="24" viewBox="0 0 24 24" fill="none" xmlns="http://www.w3.org/2000/svg">
<g clip-path="url(#clip0_51_80229)">
<path d="M6 5C6 5.26522 5.89464 5.51957 5.70711 5.70711C5.51957 5.89464 5.26522 6 5 6H0V8H5C5.79565 8 6.55871 7.68393 7.12132 7.12132C7.68393 6.55871 8 5.79565 8 5V0H6V5Z" fill="#374957"/>
<path d="M16 18.9999V23.9999H18V18.9999C18 18.7347 18.1054 18.4803 18.2929 18.2928C18.4804 18.1052 18.7348 17.9999 19 17.9999H24V15.9999H19C18.2043 15.9999 17.4413 16.3159 16.8787 16.8786C16.3161 17.4412 16 18.2042 16 18.9999V18.9999Z" fill="#374957"/>
<path d="M19 6C18.7348 6 18.4804 5.89464 18.2929 5.70711C18.1054 5.51957 18 5.26522 18 5V0H16V5C16 5.79565 16.3161 6.55871 16.8787 7.12132C17.4413 7.68393 18.2043 8 19 8H24V6H19Z" fill="#374957"/>
<path d="M5 15.9999H0V17.9999H5C5.26522 17.9999 5.51957 18.1052 5.70711 18.2928C5.89464 18.4803 6 18.7347 6 18.9999V23.9999H8V18.9999C8 18.2042 7.68393 17.4412 7.12132 16.8786C6.55871 16.3159 5.79565 15.9999 5 15.9999V15.9999Z" fill="#374957"/>
</g>
<defs>
<clipPath id="clip0_51_80229">
<rect width="24" height="24" fill="white"/>
</clipPath>
</defs>
</svg>
