<svg width="24" height="24" viewBox="0 0 24 24" fill="none" xmlns="http://www.w3.org/2000/svg">
<g clip-path="url(#clip0_51_80616)">
<path d="M17.5 0.917175C16.3739 0.93469 15.2724 1.24903 14.3067 1.82845C13.341 2.40786 12.5453 3.23184 12 4.21718C11.4546 3.23184 10.6589 2.40786 9.6932 1.82845C8.7275 1.24903 7.62601 0.93469 6.49996 0.917175C4.7049 0.995166 3.01366 1.78043 1.79574 3.10141C0.577818 4.42239 -0.0677922 6.1717 -4.17093e-05 7.96718C-4.17093e-05 14.7422 10.956 22.5672 11.422 22.8992L12 23.3082L12.578 22.8992C13.044 22.5692 24 14.7422 24 7.96718C24.0677 6.1717 23.4221 4.42239 22.2042 3.10141C20.9863 1.78043 19.295 0.995166 17.5 0.917175V0.917175Z" fill="#374957"/>
</g>
<defs>
<clipPath id="clip0_51_80616">
<rect width="24" height="24" fill="white"/>
</clipPath>
</defs>
</svg>
