<svg width="24" height="24" viewBox="0 0 24 24" fill="none" xmlns="http://www.w3.org/2000/svg">
<g clip-path="url(#clip0_51_81806)">
<path d="M6.22376 8.68492L4.14976 9.29292C3.4758 9.49076 2.85069 9.82739 2.31457 10.2812C1.77846 10.735 1.3432 11.2959 1.03676 11.9279C0.735362 12.5514 0.567494 13.2309 0.543903 13.923C0.520311 14.615 0.641516 15.3044 0.899756 15.9469C0.906756 15.9649 0.915756 15.9819 0.922756 15.9999L2.64276 15.7189C4.26391 15.2967 5.74635 14.4575 6.94276 13.2849C7.03665 13.193 7.14773 13.1205 7.26966 13.0715C7.39159 13.0225 7.52197 12.998 7.65336 12.9994C7.78476 13.0008 7.91459 13.028 8.03545 13.0796C8.15631 13.1312 8.26583 13.206 8.35776 13.2999C8.44968 13.3938 8.52221 13.5049 8.57121 13.6268C8.6202 13.7487 8.6447 13.8791 8.64331 14.0105C8.64192 14.1419 8.61466 14.2718 8.56309 14.3926C8.51152 14.5135 8.43665 14.623 8.34276 14.7149C6.87026 16.1523 5.0433 17.1739 3.04776 17.6759L1.87576 17.8699C2.55013 18.9659 3.38623 19.9537 4.35576 20.7999L6.40876 20.0379L7.80876 19.3379C9.25201 18.6126 10.4876 17.5329 11.3998 16.1999L11.9188 15.4389C11.991 15.3265 12.085 15.2296 12.1952 15.1541C12.3055 15.0786 12.4298 15.026 12.5607 14.9993C12.6917 14.9727 12.8266 14.9725 12.9576 14.9989C13.0886 15.0253 13.213 15.0776 13.3234 15.1529C13.4339 15.2282 13.5281 15.3248 13.6005 15.4371C13.673 15.5494 13.7222 15.6751 13.7452 15.8067C13.7683 15.9383 13.7647 16.0732 13.7348 16.2035C13.7048 16.3337 13.649 16.4566 13.5708 16.5649L13.0528 17.3259C11.9493 18.9406 10.4535 20.2482 8.70576 21.1259L7.15576 21.8989L6.31276 22.2109C8.34438 23.3954 10.6551 24.0167 13.0068 24.0109H13.9308C14.1375 24.0108 14.3392 23.9473 14.5088 23.8289C16.6266 22.3895 18.3805 20.4771 19.6318 18.2429L8.73976 7.54892C7.945 8.01815 7.10132 8.39908 6.22376 8.68492Z" fill="#374957"/>
<path d="M23.7151 2.285C23.5253 2.09582 23.2681 1.98959 23.0001 1.98959C22.7321 1.98959 22.475 2.09582 22.2851 2.285L17.5211 7.049L17.2011 6.736C16.3574 5.91195 15.25 5.41209 14.0739 5.32446C12.8978 5.23684 11.7286 5.56707 10.7721 6.257C10.6801 6.323 10.5891 6.378 10.4961 6.442L20.5231 16.286C20.8422 15.4221 21.0766 14.5292 21.2231 13.62C21.3471 12.8279 21.28 12.0176 21.0272 11.2567C20.7744 10.4959 20.3434 9.80646 19.7701 9.246L18.9701 8.462L23.7171 3.715C23.906 3.52487 24.0119 3.26761 24.0115 2.99958C24.0112 2.73156 23.9046 2.4746 23.7151 2.285Z" fill="#374957"/>
</g>
<defs>
<clipPath id="clip0_51_81806">
<rect width="24" height="24" fill="white"/>
</clipPath>
</defs>
</svg>
