<svg width="24" height="24" viewBox="0 0 24 24" fill="none" xmlns="http://www.w3.org/2000/svg">
<g clip-path="url(#clip0_51_80807)">
<path d="M18.002 2.03752V6.02195H16.0098V3.44602L12.623 6.83279C14.9421 9.92645 14.3141 14.3143 11.2205 16.6333C8.12687 18.9523 3.739 18.3243 1.42 15.2307C-0.899005 12.137 -0.271114 7.74924 2.82254 5.4302C5.30814 3.56696 8.72434 3.56452 11.2126 5.42424L14.5993 2.03748H12.0254V0.0452881H16.0098C17.11 0.045335 18.002 0.937273 18.002 2.03752ZM21.9864 6.02195H18.002V8.01413H20.5779L17.1782 11.4138C16.809 11.1304 16.4122 10.8848 15.9939 10.6807C15.9939 10.7883 16.0098 10.8939 16.0098 11.0025C16.0043 15.9514 11.9938 19.9619 7.04485 19.9674C6.93629 19.9674 6.83068 19.9545 6.7231 19.9515C8.36059 23.4332 12.5106 24.9284 15.9924 23.2909C18.4374 22.141 19.997 19.681 19.9942 16.9791C19.9912 15.4768 19.4977 14.0165 18.5887 12.8204L21.9864 9.42268V11.9986H23.9785V8.01418C23.9786 6.91388 23.0867 6.02195 21.9864 6.02195Z" fill="#374957"/>
</g>
<defs>
<clipPath id="clip0_51_80807">
<rect width="24" height="24" fill="white"/>
</clipPath>
</defs>
</svg>
