<svg width="24" height="24" viewBox="0 0 24 24" fill="none" xmlns="http://www.w3.org/2000/svg">
<g clip-path="url(#clip0_51_80198)">
<path d="M23 6H1V5C1 4.20435 1.31607 3.44129 1.87868 2.87868C2.44129 2.31607 3.20435 2 4 2H4.171C4.37858 1.41549 4.7619 0.909511 5.26839 0.551443C5.77487 0.193376 6.37973 0.000756748 7 0L17 0C17.6203 0.000756748 18.2251 0.193376 18.7316 0.551443C19.2381 0.909511 19.6214 1.41549 19.829 2H20C20.7956 2 21.5587 2.31607 22.1213 2.87868C22.6839 3.44129 23 4.20435 23 5V6ZM10 16C10.105 19.954 13.895 19.953 14 16C13.9 12.046 10.105 12.047 10 16ZM8.081 15C8.973 9.713 15.029 9.716 15.919 15H21.008L21.883 8H2.117L2.992 15H8.081ZM15.919 17C15.027 22.287 8.972 22.284 8.081 17H3.242L4.117 24H19.883L20.758 17H15.919Z" fill="#374957"/>
</g>
<defs>
<clipPath id="clip0_51_80198">
<rect width="24" height="24" fill="white"/>
</clipPath>
</defs>
</svg>
