<svg width="24" height="24" viewBox="0 0 24 24" fill="none" xmlns="http://www.w3.org/2000/svg">
<g clip-path="url(#clip0_51_80800)">
<path d="M12.0005 4.99994C11.0116 4.99994 10.0449 5.29319 9.22262 5.84259C8.40037 6.392 7.75951 7.1729 7.38107 8.08653C7.00264 9.00016 6.90362 10.0055 7.09654 10.9754C7.28947 11.9453 7.76567 12.8362 8.46494 13.5355C9.1642 14.2347 10.0551 14.7109 11.025 14.9039C11.9949 15.0968 13.0003 14.9978 13.9139 14.6193C14.8275 14.2409 15.6084 13.6 16.1578 12.7778C16.7072 11.9555 17.0005 10.9888 17.0005 9.99994C16.9989 8.67435 16.4716 7.4035 15.5343 6.46616C14.5969 5.52882 13.3261 5.00153 12.0005 4.99994V4.99994ZM12.7935 12.2069L11.0005 10.4139V6.99994H13.0005V9.58594L14.2075 10.7929L12.7935 12.2069ZM19.0715 2.93594C18.1456 1.99341 17.0422 1.24369 15.8249 0.730086C14.6077 0.216483 13.3007 -0.0508166 11.9795 -0.0563692C10.6584 -0.0619218 9.34918 0.194383 8.12764 0.697736C6.9061 1.20109 5.79641 1.94151 4.86268 2.87623C3.92896 3.81094 3.18971 4.92141 2.68766 6.14349C2.1856 7.36556 1.93068 8.67501 1.93764 9.99618C1.94459 11.3173 2.21328 12.624 2.72817 13.8408C3.24307 15.0575 3.99396 16.1601 4.93747 17.0849L12.0005 23.9939L19.0715 17.0779C20.9441 15.2012 21.9958 12.6582 21.9958 10.0069C21.9958 7.3557 20.9441 4.81273 19.0715 2.93594V2.93594ZM12.0005 16.9999C10.616 16.9999 9.26262 16.5894 8.11148 15.8202C6.96034 15.0511 6.06313 13.9578 5.53331 12.6787C5.0035 11.3996 4.86488 9.99218 5.13497 8.63431C5.40507 7.27644 6.07176 6.02916 7.05072 5.0502C8.02969 4.07123 9.27697 3.40454 10.6348 3.13445C11.9927 2.86435 13.4002 3.00297 14.6793 3.53279C15.9583 4.0626 17.0516 4.95981 17.8208 6.11095C18.5899 7.26209 19.0005 8.61547 19.0005 9.99994C18.9984 11.8558 18.2602 13.6351 16.9479 14.9474C15.6356 16.2596 13.8563 16.9978 12.0005 16.9999V16.9999Z" fill="#374957"/>
</g>
<defs>
<clipPath id="clip0_51_80800">
<rect width="24" height="24" fill="white"/>
</clipPath>
</defs>
</svg>
