<svg width="24" height="24" viewBox="0 0 24 24" fill="none" xmlns="http://www.w3.org/2000/svg">
<g clip-path="url(#clip0_51_81414)">
<path d="M18.0002 -0.00073C16.6712 -0.000349061 15.3504 0.20714 14.0852 0.61427C13.4137 0.84717 12.7107 0.976976 12.0002 0.99927C11.2898 0.976976 10.5868 0.84717 9.91525 0.61427C8.65009 0.207267 7.32926 -0.000218826 6.00025 -0.00073C5.20422 -0.0309076 4.41053 0.103644 3.66892 0.394493C2.92731 0.685342 2.25376 1.12622 1.69048 1.6895C1.1272 2.25279 0.686319 2.92634 0.39547 3.66794C0.10462 4.40955 -0.0299311 5.20324 0.000246562 5.99927C0.000246562 13.0603 4.02925 19.9993 6.43325 23.9993H10.0002V15.1063C9.98945 14.6194 10.1502 14.1443 10.4544 13.764C10.7586 13.3838 11.1869 13.1226 11.6642 13.0263C11.9513 12.9774 12.2456 12.9917 12.5265 13.0683C12.8075 13.145 13.0683 13.282 13.2908 13.4699C13.5132 13.6578 13.692 13.892 13.8145 14.1562C13.9371 14.4203 14.0005 14.7081 14.0002 14.9993V23.9993H17.5672C19.9722 19.9993 24.0002 13.0593 24.0002 5.99927C24.0304 5.20324 23.8959 4.40955 23.605 3.66794C23.3142 2.92634 22.8733 2.25279 22.31 1.6895C21.7467 1.12622 21.0732 0.685342 20.3316 0.394493C19.59 0.103644 18.7963 -0.0309076 18.0002 -0.00073V-0.00073Z" fill="#374957"/>
</g>
<defs>
<clipPath id="clip0_51_81414">
<rect width="24" height="24" fill="white"/>
</clipPath>
</defs>
</svg>
