<svg width="24" height="24" viewBox="0 0 24 24" fill="none" xmlns="http://www.w3.org/2000/svg">
<g clip-path="url(#clip0_51_79835)">
<path d="M22.761 11H16V4.00001H17.05C17.8236 4.0007 18.5805 4.22533 19.2293 4.64678C19.878 5.06822 20.3909 5.66846 20.706 6.37501L22.761 11ZM24 15.062V19H0V7.00001C0 6.20436 0.31607 5.4413 0.87868 4.87869C1.44129 4.31608 2.20435 4.00001 3 4.00001H10L10.757 0.970007C10.8261 0.692629 10.986 0.446337 11.2113 0.270327C11.4365 0.0943164 11.7141 -0.001297 12 -0.001297C12.2859 -0.001297 12.5635 0.0943164 12.7887 0.270327C13.014 0.446337 13.1739 0.692629 13.243 0.970007L14 4.00001V13H23.627C23.8723 13.6599 23.9986 14.358 24 15.062V15.062ZM10 11H8V9.00001H6V11H4V13H6V15H8V13H10V11ZM3.058 21C3.02137 21.1642 3.00193 21.3318 3 21.5C3 22.1631 3.26339 22.799 3.73223 23.2678C4.20107 23.7366 4.83696 24 5.5 24C6.16304 24 6.79893 23.7366 7.26777 23.2678C7.73661 22.799 8 22.1631 8 21.5C7.99807 21.3318 7.97863 21.1642 7.942 21H3.058ZM17.058 21C17.0214 21.1642 17.0019 21.3318 17 21.5C17 22.1631 17.2634 22.799 17.7322 23.2678C18.2011 23.7366 18.837 24 19.5 24C20.163 24 20.7989 23.7366 21.2678 23.2678C21.7366 22.799 22 22.1631 22 21.5C21.9981 21.3318 21.9786 21.1642 21.942 21H17.058Z" fill="#374957"/>
</g>
<defs>
<clipPath id="clip0_51_79835">
<rect width="24" height="24" fill="white"/>
</clipPath>
</defs>
</svg>
