<svg width="24" height="24" viewBox="0 0 24 24" fill="none" xmlns="http://www.w3.org/2000/svg">
<g clip-path="url(#clip0_51_80022)">
<path d="M20.5258 16.3001C21.0551 14.8356 21.3461 13.2957 21.3878 11.7391C21.3959 11.4606 21.3461 11.1834 21.2414 10.9252C21.1368 10.667 20.9795 10.4333 20.7798 10.2391L18.9608 8.46908L24.0058 3.42408L22.5758 1.99408L17.5138 7.05608L15.3068 4.90008C14.947 4.55055 14.4691 4.34894 13.9677 4.33524C13.4663 4.32153 12.9781 4.49672 12.5998 4.82608C11.9339 5.40836 11.2361 5.9532 10.5098 6.45808L20.5258 16.3001Z" fill="#374957"/>
<path d="M8.77101 7.55695C7.96868 8.03083 7.11523 8.41226 6.22701 8.69395L6.06413e-06 10.5209V11.2699C-0.00159623 12.8922 0.314343 14.4991 0.930006 15.9999L2.63801 15.7209C4.25916 15.2987 5.7416 14.4596 6.93801 13.2869L8.33801 14.7169C6.86551 16.1543 5.03855 17.1759 3.04301 17.6779L1.88701 17.8689C2.56956 18.9633 3.41225 19.9493 4.38701 20.7939L6.41301 20.0419L7.81301 19.3419C9.25527 18.615 10.4895 17.5339 11.4 16.1999L11.919 15.4389L13.571 16.5649L13.053 17.3259C11.9496 18.9406 10.4537 20.2483 8.70601 21.1259L7.15601 21.8989L6.34101 22.1989C8.36275 23.3827 10.6642 24.0045 13.007 23.9999H14.245L14.503 23.8199C16.6276 22.3858 18.3888 20.4763 19.647 18.2429L8.77101 7.55695Z" fill="#374957"/>
</g>
<defs>
<clipPath id="clip0_51_80022">
<rect width="24" height="24" fill="white"/>
</clipPath>
</defs>
</svg>
