<svg width="24" height="24" viewBox="0 0 24 24" fill="none" xmlns="http://www.w3.org/2000/svg">
<g clip-path="url(#clip0_51_80668)">
<path d="M9.99964 5.99967C10.852 6.00331 11.6809 6.27985 12.3647 6.78876C13.0485 7.29767 13.5514 8.0122 13.7996 8.82767L15.9766 9.61867C15.9047 8.46604 15.5017 7.35867 14.8159 6.42946C14.1302 5.50025 13.1908 4.78869 12.1106 4.3802C11.0304 3.9717 9.85524 3.88363 8.72621 4.12655C7.59719 4.36947 6.56225 4.93306 5.74564 5.74967C4.92903 6.56628 4.36544 7.60121 4.12252 8.73024C3.8796 9.85927 3.96767 11.0344 4.37617 12.1146C4.78466 13.1948 5.49622 14.1342 6.42543 14.8199C7.35464 15.5057 8.46202 15.9087 9.61464 15.9807L8.82764 13.7997C7.91473 13.5191 7.13283 12.9202 6.62412 12.1119C6.1154 11.3036 5.91366 10.3396 6.05557 9.3951C6.19748 8.45064 6.67362 7.58847 7.39741 6.96536C8.1212 6.34225 9.04458 5.99959 9.99964 5.99967V5.99967Z" fill="#374957"/>
<path d="M9.99981 18.0001C8.41756 18.0001 6.87085 17.5309 5.55525 16.6518C4.23966 15.7728 3.21428 14.5233 2.60878 13.0615C2.00328 11.5997 1.84485 9.99118 2.15353 8.43934C2.46221 6.88749 3.22414 5.46202 4.34296 4.3432C5.46178 3.22438 6.88724 2.46246 8.43909 2.15378C9.99094 1.84509 11.5995 2.00352 13.0613 2.60902C14.5231 3.21452 15.7725 4.2399 16.6516 5.5555C17.5306 6.87109 17.9998 8.41781 17.9998 10.0001C17.9998 10.1171 17.9868 10.2311 17.9818 10.3471L19.9418 11.0601C20.1645 8.99917 19.7423 6.91994 18.7334 5.10914C17.7245 3.29834 16.1786 1.84517 14.309 0.950036C12.4393 0.0549033 10.338 -0.23809 8.29478 0.111461C6.25158 0.461013 4.36716 1.43589 2.9014 2.90164C1.43565 4.3674 0.460769 6.25182 0.111217 8.29503C-0.238335 10.3382 0.0546592 12.4396 0.949792 14.3092C1.84492 16.1789 3.2981 17.7247 5.1089 18.7336C6.9197 19.7425 8.99892 20.1648 11.0598 19.9421L10.3468 17.9821C10.2308 17.9871 10.1168 18.0001 9.99981 18.0001Z" fill="#374957"/>
<path d="M24.0004 14.7787L13.5384 10.9787C13.1808 10.8488 12.7936 10.8236 12.4222 10.906C12.0508 10.9884 11.7106 11.1751 11.4415 11.444C11.1725 11.713 10.9857 12.0531 10.9031 12.4245C10.8206 12.7959 10.8456 13.1831 10.9754 13.5407L14.7794 23.9997L18.6794 20.0997L21.4724 22.8927L22.8864 21.4787L20.1004 18.6827L24.0004 14.7787Z" fill="#374957"/>
</g>
<defs>
<clipPath id="clip0_51_80668">
<rect width="24" height="24" fill="white"/>
</clipPath>
</defs>
</svg>
