<svg width="24" height="24" viewBox="0 0 24 24" fill="none" xmlns="http://www.w3.org/2000/svg">
<g clip-path="url(#clip0_51_80134)">
<path d="M22 18.1838V15.9998C22 15.2042 21.6839 14.4411 21.1213 13.8785C20.5587 13.3159 19.7957 12.9998 19 12.9998H13V9.8998C14.214 9.65199 15.2928 8.96222 16.0272 7.96421C16.7616 6.96621 17.0992 5.73108 16.9747 4.49828C16.8501 3.26548 16.2723 2.12283 15.3532 1.29187C14.434 0.460904 13.2391 0.000823975 12 0.000823975C10.7609 0.000823975 9.56599 0.460904 8.64685 1.29187C7.72772 2.12283 7.14986 3.26548 7.02533 4.49828C6.90079 5.73108 7.23844 6.96621 7.97281 7.96421C8.70718 8.96222 9.78596 9.65199 11 9.8998V12.9998H5.00001C4.20436 12.9998 3.4413 13.3159 2.87869 13.8785C2.31608 14.4411 2.00001 15.2042 2.00001 15.9998V18.1838C1.33279 18.4197 0.770452 18.8839 0.412375 19.4943C0.0542975 20.1047 -0.0764608 20.822 0.0432105 21.5195C0.162882 22.217 0.525277 22.8498 1.06635 23.3059C1.60741 23.7621 2.29232 24.0122 3.00001 24.0122C3.70769 24.0122 4.3926 23.7621 4.93367 23.3059C5.47474 22.8498 5.83713 22.217 5.9568 21.5195C6.07647 20.822 5.94572 20.1047 5.58764 19.4943C5.22956 18.8839 4.66722 18.4197 4.00001 18.1838V15.9998C4.00001 15.7346 4.10536 15.4802 4.2929 15.2927C4.48044 15.1052 4.73479 14.9998 5.00001 14.9998H11V18.1838C10.3328 18.4197 9.77045 18.8839 9.41238 19.4943C9.0543 20.1047 8.92354 20.822 9.04321 21.5195C9.16288 22.217 9.52528 22.8498 10.0663 23.3059C10.6074 23.7621 11.2923 24.0122 12 24.0122C12.7077 24.0122 13.3926 23.7621 13.9337 23.3059C14.4747 22.8498 14.8371 22.217 14.9568 21.5195C15.0765 20.822 14.9457 20.1047 14.5876 19.4943C14.2296 18.8839 13.6672 18.4197 13 18.1838V14.9998H19C19.2652 14.9998 19.5196 15.1052 19.7071 15.2927C19.8946 15.4802 20 15.7346 20 15.9998V18.1838C19.3328 18.4197 18.7705 18.8839 18.4124 19.4943C18.0543 20.1047 17.9235 20.822 18.0432 21.5195C18.1629 22.217 18.5253 22.8498 19.0663 23.3059C19.6074 23.7621 20.2923 24.0122 21 24.0122C21.7077 24.0122 22.3926 23.7621 22.9337 23.3059C23.4747 22.8498 23.8371 22.217 23.9568 21.5195C24.0765 20.822 23.9457 20.1047 23.5876 19.4943C23.2296 18.8839 22.6672 18.4197 22 18.1838Z" fill="#374957"/>
</g>
<defs>
<clipPath id="clip0_51_80134">
<rect width="24" height="24" fill="white"/>
</clipPath>
</defs>
</svg>
