<svg width="24" height="24" viewBox="0 0 24 24" fill="none" xmlns="http://www.w3.org/2000/svg">
<g clip-path="url(#clip0_51_80183)">
<path d="M12.9998 22.0002H5.49984C4.27582 22.0018 3.0864 21.5942 2.12054 20.8423C1.15469 20.0904 0.467797 19.0373 0.16901 17.8503C-0.129776 16.6634 -0.0233229 15.4106 0.471458 14.291C0.966239 13.1715 1.82097 12.2494 2.89984 11.6712C2.30767 10.5382 1.99886 9.27862 1.99984 8.00021C2.00609 6.039 2.73255 4.1484 4.0412 2.68763C5.34985 1.22687 7.1495 0.297702 9.09823 0.076679C11.047 -0.144344 13.009 0.358173 14.6115 1.48876C16.2141 2.61934 17.3455 4.29921 17.7908 6.20921C19.0984 6.51105 20.3087 7.1377 21.3098 8.03121C21.2048 8.02521 21.1058 8.00021 20.9998 8.00021C19.8293 8.00179 18.6964 8.41323 17.7976 9.16311C16.8988 9.91298 16.2911 10.9539 16.0798 12.1052L15.2328 12.5292C14.5402 12.1805 13.7753 11.9993 12.9998 12.0002C11.6738 12.0002 10.402 12.527 9.46431 13.4647C8.52662 14.4024 7.99984 15.6741 7.99984 17.0002C7.99984 18.3263 8.52662 19.5981 9.46431 20.5357C10.402 21.4734 11.6738 22.0002 12.9998 22.0002V22.0002ZM20.9998 16.0002C21.5932 16.0002 22.1732 15.8243 22.6666 15.4946C23.1599 15.165 23.5444 14.6964 23.7715 14.1483C23.9985 13.6001 24.058 12.9969 23.9422 12.4149C23.8264 11.833 23.5407 11.2984 23.1212 10.8789C22.7016 10.4593 22.1671 10.1736 21.5851 10.0579C21.0032 9.9421 20.4 10.0015 19.8518 10.2286C19.3036 10.4556 18.8351 10.8402 18.5054 11.3335C18.1758 11.8268 17.9998 12.4069 17.9998 13.0002C18.0045 13.1219 18.0169 13.2431 18.0368 13.3632L15.0768 14.8442C14.6535 14.4346 14.1188 14.1586 13.5396 14.0508C12.9604 13.9431 12.3623 14.0082 11.8199 14.2381C11.2775 14.4681 10.8148 14.8526 10.4895 15.3438C10.1642 15.835 9.99078 16.4111 9.99078 17.0002C9.99078 17.5893 10.1642 18.1654 10.4895 18.6566C10.8148 19.1478 11.2775 19.5324 11.8199 19.7623C12.3623 19.9922 12.9604 20.0574 13.5396 19.9496C14.1188 19.8418 14.6535 19.5659 15.0768 19.1562L18.0368 20.6372C18.0169 20.7573 18.0045 20.8786 17.9998 21.0002C17.9963 21.696 18.2336 22.3716 18.6714 22.9124C19.1092 23.4532 19.7205 23.8259 20.4017 23.9674C21.083 24.1089 21.7922 24.0104 22.4091 23.6886C23.026 23.3668 23.5127 22.8416 23.7865 22.2019C24.0603 21.5623 24.1045 20.8477 23.9115 20.1792C23.7186 19.5107 23.3003 18.9295 22.7277 18.5342C22.1551 18.1389 21.4635 17.9538 20.77 18.0103C20.0765 18.0668 19.4239 18.3614 18.9228 18.8442L15.9628 17.3632C15.9828 17.2431 15.9951 17.1219 15.9998 17.0002C15.9951 16.8786 15.9828 16.7573 15.9628 16.6372L18.9228 15.1562C19.4793 15.6966 20.2242 15.9993 20.9998 16.0002Z" fill="#374957"/>
</g>
<defs>
<clipPath id="clip0_51_80183">
<rect width="24" height="24" fill="white"/>
</clipPath>
</defs>
</svg>
