<svg width="24" height="24" viewBox="0 0 24 24" fill="none" xmlns="http://www.w3.org/2000/svg">
<g clip-path="url(#clip0_51_81083)">
<path d="M16.0003 8C14.87 8.00096 13.7529 8.24218 12.723 8.70767C11.693 9.17316 10.7738 9.85228 10.0263 10.7C9.54978 10.4684 9.04812 10.2925 8.53128 10.176L10.2173 6.8L8.41428 5H5.58628L3.78628 6.8L5.47228 10.171C4.44325 10.3976 3.47865 10.8535 2.6504 11.5049C1.82215 12.1562 1.15164 12.9862 0.68885 13.9328C0.226062 14.8794 -0.0170547 15.9183 -0.0223718 16.9719C-0.0276889 18.0256 0.204931 19.0669 0.658142 20.0181C1.11135 20.9693 1.77346 21.806 2.59509 22.4656C3.41672 23.1253 4.37667 23.591 5.40336 23.8279C6.43006 24.0649 7.49699 24.067 8.52462 23.8341C9.55224 23.6013 10.514 23.1394 11.3383 22.483C12.3616 23.2229 13.5455 23.71 14.7932 23.9045C16.0409 24.099 17.3169 23.9954 18.5169 23.6021C19.7169 23.2089 20.8067 22.5372 21.6973 21.6419C22.5878 20.7466 23.2538 19.6533 23.6407 18.4513C24.0276 17.2492 24.1245 15.9727 23.9234 14.726C23.7224 13.4794 23.229 12.298 22.4838 11.2786C21.7385 10.2592 20.7626 9.43071 19.6357 8.86086C18.5088 8.29101 17.263 7.99602 16.0003 8V8ZM11.2343 19.63C10.5702 18.7672 10.1558 17.7386 10.0363 16.6564C9.91671 15.5742 10.0966 14.48 10.5563 13.493C11.3486 14.2874 11.8473 15.3275 11.9705 16.4427C12.0937 17.5579 11.8341 18.6818 11.2343 19.63V19.63ZM2.00028 17C1.99817 16.1803 2.19814 15.3727 2.58251 14.6487C2.96687 13.9247 3.52377 13.3066 4.20392 12.8491C4.88408 12.3917 5.66652 12.1089 6.482 12.0258C7.29748 11.9428 8.12086 12.062 8.87928 12.373C8.16572 13.7623 7.87683 15.331 8.04861 16.8834C8.22038 18.4358 8.84524 19.9033 9.84528 21.103C9.09647 21.6254 8.21868 21.9323 7.30751 21.9904C6.39634 22.0484 5.4867 21.8553 4.67766 21.4322C3.86861 21.0091 3.19116 20.3721 2.71908 19.5906C2.24699 18.8091 1.99837 17.913 2.00028 17V17ZM16.0003 22C14.8352 22.0004 13.6956 21.6593 12.7223 21.019C13.7069 19.6273 14.1467 17.9227 13.9583 16.2283C13.7699 14.5339 12.9665 12.9675 11.7003 11.826C12.3898 11.114 13.2451 10.5838 14.1895 10.283C15.134 9.98218 16.1382 9.92003 17.1126 10.1021C18.0869 10.2842 19.001 10.7048 19.7731 11.3264C20.5452 11.948 21.1512 12.7512 21.5371 13.6642C21.923 14.5772 22.0767 15.5716 21.9844 16.5585C21.8921 17.5454 21.5568 18.4941 21.0084 19.3198C20.46 20.1454 19.7155 20.8224 18.8416 21.2901C17.9677 21.7578 16.9915 22.0017 16.0003 22V22ZM10.4183 4L9.00028 2.581L11.2933 0.293L12.7073 1.707L10.4183 4ZM3.54328 3.957L1.29328 1.707L2.70728 0.293L4.95728 2.543L3.54328 3.957ZM8.00028 3H6.00028V0H8.00028V3Z" fill="#374957"/>
</g>
<defs>
<clipPath id="clip0_51_81083">
<rect width="24" height="24" fill="white"/>
</clipPath>
</defs>
</svg>
