<svg width="24" height="24" viewBox="0 0 24 24" fill="none" xmlns="http://www.w3.org/2000/svg">
<g clip-path="url(#clip0_51_82298)">
<path d="M15.7461 18.2542C15.7461 16.7542 14.7151 14.7042 12.8461 12.4812C12.7427 12.3578 12.6131 12.2589 12.4668 12.1917C12.3205 12.1244 12.1611 12.0904 12.0001 12.0922V12.0922C11.8379 12.0915 11.6775 12.1261 11.53 12.1936C11.3825 12.2611 11.2515 12.36 11.1461 12.4832C9.10009 14.8802 8.10009 17.0002 8.27309 18.6252C8.34117 19.139 8.51736 19.6325 8.79004 20.0733C9.06273 20.514 9.42572 20.892 9.85509 21.1822C10.4625 21.6803 11.2153 21.9674 12.0001 22.0002C12.9933 21.9992 13.9455 21.6042 14.6477 20.9019C15.35 20.1996 15.745 19.2474 15.7461 18.2542Z" fill="#374957"/>
<path d="M16.629 2.90045C15.843 2.23245 15.018 1.53245 14.178 0.76845C13.8595 0.479282 13.4817 0.263223 13.0709 0.135398C12.6601 0.00757344 12.2264 -0.0289276 11.8 0.02845C11.3868 0.0831765 10.9907 0.22797 10.6396 0.452601C10.2884 0.677233 9.99093 0.976222 9.76804 1.32845C8.57643 3.32028 7.73366 5.50095 7.27604 7.77645C7.09701 7.5172 6.93788 7.24476 6.80004 6.96145C6.6585 6.66323 6.44535 6.40469 6.17959 6.20888C5.91384 6.01307 5.60375 5.88608 5.27699 5.83925C4.95023 5.79241 4.61696 5.82718 4.3069 5.94046C3.99685 6.05374 3.71965 6.242 3.50004 6.48845C1.82335 8.20285 0.893906 10.5115 0.915043 12.9095C0.891855 15.3589 1.68847 17.7457 3.17816 19.6902C4.66784 21.6347 6.76502 23.0252 9.13604 23.6404C10.0439 23.8689 10.9759 23.9871 11.912 23.9925C10.7158 23.9479 9.56596 23.5178 8.63404 22.7665C7.98845 22.3121 7.44562 21.727 7.04077 21.0493C6.63592 20.3716 6.3781 19.6163 6.28404 18.8325C6.05404 16.6225 7.17704 14.0495 9.62204 11.1855C9.91536 10.8416 10.28 10.5657 10.6906 10.377C11.1013 10.1883 11.5481 10.0912 12 10.0925H12.01C12.4607 10.0928 12.9058 10.1914 13.3144 10.3814C13.723 10.5714 14.0853 10.8482 14.376 11.1925C15.914 13.0195 17.749 15.7275 17.749 18.2535C17.7468 19.7092 17.1925 21.1098 16.1978 22.1727C15.2032 23.2357 13.8424 23.8817 12.39 23.9804C15.2617 23.8879 17.9845 22.6812 19.9818 20.6158C21.9791 18.5504 23.0939 15.7886 23.09 12.9155C23.085 8.38545 20.093 5.84545 16.629 2.90045Z" fill="#374957"/>
</g>
<defs>
<clipPath id="clip0_51_82298">
<rect width="24" height="24" fill="white"/>
</clipPath>
</defs>
</svg>
