<svg width="24" height="24" viewBox="0 0 24 24" fill="none" xmlns="http://www.w3.org/2000/svg">
<g clip-path="url(#clip0_51_80476)">
<path d="M6.486 22.1429L5.457 20.4279C9 18.2999 9 13.7299 9 10.9999C9 10.2042 9.31607 9.44116 9.87868 8.87855C10.4413 8.31594 11.2044 7.99987 12 7.99987C12.7956 7.99987 13.5587 8.31594 14.1213 8.87855C14.6839 9.44116 15 10.2042 15 10.9999H13C13 10.7347 12.8946 10.4803 12.7071 10.2928C12.5196 10.1052 12.2652 9.99987 12 9.99987C11.7348 9.99987 11.4804 10.1052 11.2929 10.2928C11.1054 10.4803 11 10.7347 11 10.9999C11 13.9469 11 19.4339 6.486 22.1429ZM14.896 14.0839L12.9 13.9159C12.584 17.6449 11.375 20.5309 9.308 22.4959L10.685 23.9449C13.123 21.6339 14.538 18.3149 14.9 14.0839H14.896ZM17.642 20.3389L15.761 19.6609C15.3549 20.7976 14.8179 21.8832 14.161 22.8959L15.835 23.9899C16.5771 22.8472 17.1835 21.6219 17.642 20.3389V20.3389ZM19 10.9999C18.9991 9.58317 18.5683 8.20009 17.7646 7.03343C16.9609 5.86676 15.8221 4.97141 14.4987 4.46571C13.1753 3.96 11.7297 3.86775 10.3528 4.20113C8.97584 4.5345 7.73248 5.27783 6.787 6.33287L8.276 7.66687C8.95128 6.91315 9.83937 6.38207 10.8229 6.14384C11.8064 5.9056 12.8391 5.97141 13.7845 6.33257C14.7298 6.69374 15.5433 7.33325 16.1174 8.1666C16.6916 8.99995 16.9993 9.98789 17 10.9999C17.0369 12.9467 16.8821 14.8924 16.538 16.8089L18.501 17.1909C18.8711 15.1487 19.0383 13.0749 19 10.9999V10.9999ZM7 10.9999C6.99971 10.7208 7.02279 10.4421 7.069 10.1669L5.1 9.83287C5.03399 10.2184 5.00054 10.6088 5 10.9999C5 15.6449 3.654 17.9999 1 17.9999V19.9999C4.869 19.9999 7 16.7999 7 10.9999ZM23 10.9999C23.0046 9.33879 22.6283 7.69877 21.9 6.20587L20.1 7.08087C20.695 8.30144 21.0029 9.64198 21 10.9999C21.1369 15.0931 20.3601 19.1654 18.726 22.9209L20.526 23.7819C22.2951 19.7595 23.1405 15.3918 23 10.9999V10.9999ZM3 10.9999C3.00265 8.61373 3.95171 6.32608 5.63896 4.63883C7.32622 2.95158 9.61386 2.00251 12 1.99987C13.9484 1.99338 15.8452 2.62565 17.4 3.79987L18.6 2.19987C16.6994 0.76529 14.3812 -0.00741791 12 -0.000132051C9.08367 0.00330842 6.28778 1.16334 4.22563 3.22549C2.16347 5.28765 1.00344 8.08354 1 10.9999V13.9999H3V10.9999Z" fill="#374957"/>
</g>
<defs>
<clipPath id="clip0_51_80476">
<rect width="24" height="24" fill="white"/>
</clipPath>
</defs>
</svg>
