<svg width="24" height="24" viewBox="0 0 24 24" fill="none" xmlns="http://www.w3.org/2000/svg">
<g clip-path="url(#clip0_51_81521)">
<path d="M2 5.99936C1.46957 5.99936 0.960859 6.21007 0.585786 6.58514C0.210714 6.96022 0 7.46892 0 7.99936L0 15.9994C0 16.5298 0.210714 17.0385 0.585786 17.4136C0.960859 17.7886 1.46957 17.9994 2 17.9994H4.8L12 23.9764V0.0163574L4.8 5.99936H2Z" fill="#374957"/>
<path d="M20 11.9994C19.9984 10.6738 19.4711 9.40295 18.5338 8.46561C17.5964 7.52827 16.3256 7.00098 15 6.99939H14V8.99939H15C15.7956 8.99939 16.5587 9.31546 17.1213 9.87807C17.6839 10.4407 18 11.2037 18 11.9994C18 12.795 17.6839 13.5581 17.1213 14.1207C16.5587 14.6833 15.7956 14.9994 15 14.9994H14V16.9994H15C16.3256 16.9978 17.5964 16.4705 18.5338 15.5332C19.4711 14.5958 19.9984 13.325 20 11.9994V11.9994Z" fill="#374957"/>
<path d="M15 3H14V5H15C16.8565 5 18.637 5.7375 19.9497 7.05025C21.2625 8.36301 22 10.1435 22 12C22 13.8565 21.2625 15.637 19.9497 16.9497C18.637 18.2625 16.8565 19 15 19H14V21H15C17.3869 21 19.6761 20.0518 21.3639 18.364C23.0518 16.6761 24 14.3869 24 12C24 9.61305 23.0518 7.32387 21.3639 5.63604C19.6761 3.94821 17.3869 3 15 3V3Z" fill="#374957"/>
</g>
<defs>
<clipPath id="clip0_51_81521">
<rect width="24" height="24" fill="white"/>
</clipPath>
</defs>
</svg>
