<svg width="24" height="24" viewBox="0 0 24 24" fill="none" xmlns="http://www.w3.org/2000/svg">
<g clip-path="url(#clip0_51_79802)">
<path d="M5.5226 1.745L4.4556 0.0559998C2.72955 1.06864 1.22092 2.41278 0.0166016 4.011L1.6796 5.12C2.72725 3.75422 4.03297 2.60751 5.5226 1.745V1.745Z" fill="#374957"/>
<path d="M22.3205 5.12L23.9835 4.011C22.7792 2.41278 21.2706 1.06864 19.5445 0.0559998L18.4775 1.745C19.9672 2.60751 21.2729 3.75422 22.3205 5.12V5.12Z" fill="#374957"/>
<path d="M13 2.051V0H11V2.051C8.9543 2.2338 7.00091 2.98687 5.36189 4.2246C3.72287 5.46232 2.46397 7.13506 1.72831 9.05265C0.992654 10.9702 0.809739 13.0558 1.20036 15.0721C1.59098 17.0885 2.53947 18.9548 3.93801 20.459L2.01001 22.577L3.49001 23.923L5.42401 21.8C7.31825 23.2297 9.62681 24.0031 12 24.0031C14.3732 24.0031 16.6818 23.2297 18.576 21.8L20.51 23.926L21.99 22.58L20.062 20.462C21.4614 18.9579 22.4107 17.0913 22.8018 15.0745C23.1929 13.0577 23.0102 10.9716 22.2745 9.05344C21.5387 7.1353 20.2795 5.46213 18.6399 4.22423C17.0004 2.98632 15.0463 2.23337 13 2.051V2.051ZM14.293 15.707L11 12.414V7H13V11.586L15.707 14.293L14.293 15.707Z" fill="#374957"/>
</g>
<defs>
<clipPath id="clip0_51_79802">
<rect width="24" height="24" fill="white"/>
</clipPath>
</defs>
</svg>
