<svg width="24" height="24" viewBox="0 0 24 24" fill="none" xmlns="http://www.w3.org/2000/svg">
<g clip-path="url(#clip0_51_81122)">
<path d="M11 17.5C11.0013 16.2264 11.3766 14.9813 12.0795 13.9192C12.7823 12.8572 13.7817 12.025 14.9534 11.526C16.1252 11.0271 17.4177 10.8833 18.6705 11.1127C19.9232 11.342 21.081 11.9343 22 12.816V0H5C4.20435 0 3.44129 0.31607 2.87868 0.87868C2.31607 1.44129 2 2.20435 2 3V21C2 21.7956 2.31607 22.5587 2.87868 23.1213C3.44129 23.6839 4.20435 24 5 24H17.5C15.7761 24 14.1228 23.3152 12.9038 22.0962C11.6848 20.8772 11 19.2239 11 17.5V17.5ZM7 5H17V7H7V5ZM22.543 23.957L19.886 21.3C19.1732 21.755 18.3456 21.9977 17.5 22C16.61 22 15.74 21.7361 14.9999 21.2416C14.2599 20.7471 13.6831 20.0443 13.3425 19.2221C13.0019 18.3998 12.9128 17.495 13.0865 16.6221C13.2601 15.7492 13.6887 14.9474 14.318 14.318C14.9474 13.6887 15.7492 13.2601 16.6221 13.0865C17.495 12.9128 18.3998 13.0019 19.2221 13.3425C20.0443 13.6831 20.7471 14.2599 21.2416 14.9999C21.7361 15.74 22 16.61 22 17.5C21.9977 18.3456 21.755 19.1732 21.3 19.886L23.957 22.543L22.543 23.957Z" fill="#374957"/>
</g>
<defs>
<clipPath id="clip0_51_81122">
<rect width="24" height="24" fill="white"/>
</clipPath>
</defs>
</svg>
