<svg width="24" height="24" viewBox="0 0 24 24" fill="none" xmlns="http://www.w3.org/2000/svg">
<g clip-path="url(#clip0_51_81458)">
<path d="M20.9 7.0057H2.79297L7.09997 2.7007L5.68197 1.2887L0.731966 6.2377C0.263288 6.70652 0 7.34229 0 8.0052C0 8.66811 0.263288 9.30388 0.731966 9.7727L5.68197 14.7237L7.09997 13.3097L2.79997 9.0097H20.9C21.1714 8.99148 21.4391 9.08099 21.645 9.25882C21.851 9.43665 21.9785 9.68847 22 9.9597V21.0597C21.9782 21.3307 21.8506 21.5823 21.6447 21.7599C21.4388 21.9376 21.1713 22.0269 20.9 22.0087H1.99997V24.0087H20.9C21.7022 24.0272 22.4791 23.7269 23.0602 23.1735C23.6413 22.6201 23.9793 21.8589 24 21.0567V9.9557C23.9787 9.15386 23.6406 8.39313 23.0595 7.84018C22.4784 7.28723 21.7019 6.98716 20.9 7.0057V7.0057Z" fill="#374957"/>
</g>
<defs>
<clipPath id="clip0_51_81458">
<rect width="24" height="24" fill="white"/>
</clipPath>
</defs>
</svg>
