<svg width="24" height="24" viewBox="0 0 24 24" fill="none" xmlns="http://www.w3.org/2000/svg">
<g clip-path="url(#clip0_51_80026)">
<path d="M0 9.00006V23.0001H24V9.00006H0ZM15 19.0001H5V17.0001H15V19.0001ZM19 15.0001H5V13.0001H19V15.0001ZM21 1.00006H3C2.20435 1.00006 1.44129 1.31613 0.87868 1.87874C0.31607 2.44135 0 3.20441 0 4.00006L0 7.00006H24V4.00006C24 3.20441 23.6839 2.44135 23.1213 1.87874C22.5587 1.31613 21.7956 1.00006 21 1.00006V1.00006ZM4 5.00006C3.80222 5.00006 3.60888 4.94141 3.44443 4.83153C3.27998 4.72165 3.15181 4.56547 3.07612 4.38274C3.00043 4.20002 2.98063 3.99895 3.01921 3.80497C3.0578 3.61099 3.15304 3.43281 3.29289 3.29295C3.43275 3.1531 3.61093 3.05786 3.80491 3.01928C3.99889 2.98069 4.19996 3.00049 4.38268 3.07618C4.56541 3.15187 4.72159 3.28004 4.83147 3.44449C4.94135 3.60894 5 3.80228 5 4.00006C5 4.26528 4.89464 4.51963 4.70711 4.70717C4.51957 4.8947 4.26522 5.00006 4 5.00006ZM7 5.00006C6.80222 5.00006 6.60888 4.94141 6.44443 4.83153C6.27998 4.72165 6.15181 4.56547 6.07612 4.38274C6.00043 4.20002 5.98063 3.99895 6.01921 3.80497C6.0578 3.61099 6.15304 3.43281 6.29289 3.29295C6.43275 3.1531 6.61093 3.05786 6.80491 3.01928C6.99889 2.98069 7.19996 3.00049 7.38268 3.07618C7.56541 3.15187 7.72159 3.28004 7.83147 3.44449C7.94135 3.60894 8 3.80228 8 4.00006C8 4.26528 7.89464 4.51963 7.70711 4.70717C7.51957 4.8947 7.26522 5.00006 7 5.00006ZM10 5.00006C9.80222 5.00006 9.60888 4.94141 9.44443 4.83153C9.27998 4.72165 9.15181 4.56547 9.07612 4.38274C9.00043 4.20002 8.98063 3.99895 9.01921 3.80497C9.0578 3.61099 9.15304 3.43281 9.29289 3.29295C9.43275 3.1531 9.61093 3.05786 9.80491 3.01928C9.99889 2.98069 10.2 3.00049 10.3827 3.07618C10.5654 3.15187 10.7216 3.28004 10.8315 3.44449C10.9414 3.60894 11 3.80228 11 4.00006C11 4.26528 10.8946 4.51963 10.7071 4.70717C10.5196 4.8947 10.2652 5.00006 10 5.00006Z" fill="#374957"/>
</g>
<defs>
<clipPath id="clip0_51_80026">
<rect width="24" height="24" fill="white"/>
</clipPath>
</defs>
</svg>
