<svg width="24" height="24" viewBox="0 0 24 24" fill="none" xmlns="http://www.w3.org/2000/svg">
<g clip-path="url(#clip0_51_81781)">
<path d="M17 0H8V16H22V5C22 3.67392 21.4732 2.40215 20.5355 1.46447C19.5979 0.526784 18.3261 0 17 0V0Z" fill="#374957"/>
<path d="M4.395 16.061C4.59409 16.0204 4.79679 15.9999 5 16H6V0.100037C4.87064 0.330567 3.8556 0.944218 3.12669 1.83713C2.39778 2.73005 1.99976 3.84738 2 5.00004V17.025C2.69905 16.4976 3.52547 16.165 4.395 16.061V16.061Z" fill="#374957"/>
<path d="M22 18H5C4.20435 18 3.44129 18.3161 2.87868 18.8787C2.31607 19.4413 2 20.2044 2 21C2 21.7956 2.31607 22.5587 2.87868 23.1213C3.44129 23.6839 4.20435 24 5 24H17C17.6566 24 18.3068 23.8707 18.9134 23.6194C19.52 23.3681 20.0712 22.9998 20.5355 22.5355C20.9998 22.0712 21.3681 21.52 21.6194 20.9134C21.8707 20.3068 22 19.6566 22 19V18Z" fill="#374957"/>
</g>
<defs>
<clipPath id="clip0_51_81781">
<rect width="24" height="24" fill="white"/>
</clipPath>
</defs>
</svg>
