<svg width="24" height="24" viewBox="0 0 24 24" fill="none" xmlns="http://www.w3.org/2000/svg">
<g clip-path="url(#clip0_51_80544)">
<path d="M13.5693 6L15.5333 11H8.47727L10.4773 6H13.5693ZM17.6813 11H23.9293C23.8314 10.6475 23.6701 10.3157 23.4533 10.021L21.4063 7.228C21.1273 6.84807 20.7629 6.53899 20.3426 6.32569C19.9222 6.11239 19.4576 6.00083 18.9863 6H15.7173L17.6813 11ZM15.6143 13H8.38627L12.0003 23.879L15.6143 13ZM17.7223 13L14.9793 21.255L23.1463 13.923C23.4128 13.6572 23.6278 13.3442 23.7803 13H17.7223ZM6.27827 13H0.230266C0.389163 13.3573 0.613331 13.6819 0.891266 13.957L9.02127 21.257L6.27827 13ZM6.32327 11L8.32327 6H5.01427C4.5429 6.00083 4.07832 6.11239 3.65797 6.32569C3.23762 6.53899 2.87326 6.84807 2.59427 7.228L0.547266 10.021C0.330771 10.3158 0.169808 10.6475 0.0722656 11H6.32327ZM13.0003 0H11.0003V4H13.0003V0ZM19.8443 1.652L18.1563 0.578L16.1563 3.72L17.8443 4.794L19.8443 1.652ZM7.84427 3.72L5.84427 0.578L4.15627 1.652L6.15627 4.794L7.84427 3.72Z" fill="#374957"/>
</g>
<defs>
<clipPath id="clip0_51_80544">
<rect width="24" height="24" fill="white"/>
</clipPath>
</defs>
</svg>
