<svg width="24" height="24" viewBox="0 0 24 24" fill="none" xmlns="http://www.w3.org/2000/svg">
<path d="M22.0003 10.0068C22.0003 8.02896 21.4138 6.09559 20.315 4.45113C19.2162 2.80666 17.6544 1.52496 15.8272 0.768098C13.9999 0.0112334 11.9893 -0.1868 10.0495 0.199041C8.10969 0.584882 6.32787 1.53727 4.92934 2.93576C4.00026 3.865 3.26342 4.96824 2.76095 6.18241C2.25848 7.39658 2.00024 8.69788 2.00098 10.0119C2.00172 11.3259 2.26144 12.627 2.76528 13.8406C3.26912 15.0542 4.0072 16.1566 4.93734 17.0847L9.96234 21.9997H5.00034V23.9997H19.0003V21.9997H14.0383L19.0713 17.0767C20.0028 16.1505 20.7414 15.0488 21.2441 13.8352C21.7469 12.6216 22.0039 11.3203 22.0003 10.0068V10.0068ZM17.0003 12.6178L12.0003 15.1177L7.00034 12.6178V6.38176L12.0003 3.88176L17.0003 6.38176V12.6178ZM12.0003 8.99975L15.0003 7.49976V11.3818L12.0003 12.8818L9.00034 11.3818V7.49976L12.0003 8.99975Z" fill="#374957"/>
</svg>
