<svg width="24" height="24" viewBox="0 0 24 24" fill="none" xmlns="http://www.w3.org/2000/svg">
<g clip-path="url(#clip0_51_80467)">
<path d="M21.4503 13.8642L12.1923 23.1212C11.9138 23.3999 11.583 23.6209 11.219 23.7717C10.855 23.9225 10.4648 24.0001 10.0708 24.0001C9.67683 24.0001 9.28668 23.9225 8.92267 23.7717C8.55866 23.6209 8.22792 23.3999 7.94934 23.1212L0.879336 16.0502C0.316923 15.4876 0.000976562 14.7247 0.000976562 13.9292C0.000976562 13.1337 0.316923 12.3708 0.879336 11.8082L7.17934 5.50823L4.31834 2.62223L5.74034 1.21623L14.7093 10.2962L16.2463 8.77023L10.1213 2.57023L10.1363 2.55423L9.03634 1.45423L10.4513 0.0372314L24.0283 13.6132L22.6133 15.0282L21.4503 13.8642ZM19.0003 21.5002C19.0003 22.1633 19.2637 22.7992 19.7326 23.268C20.2014 23.7368 20.8373 24.0002 21.5003 24.0002C22.1634 24.0002 22.7993 23.7368 23.2681 23.268C23.7369 22.7992 24.0003 22.1633 24.0003 21.5002C24.0003 20.1192 21.5003 17.0002 21.5003 17.0002C21.5003 17.0002 19.0003 20.2502 19.0003 21.5002Z" fill="#374957"/>
</g>
<defs>
<clipPath id="clip0_51_80467">
<rect width="24" height="24" fill="white"/>
</clipPath>
</defs>
</svg>
