<svg width="24" height="24" viewBox="0 0 24 24" fill="none" xmlns="http://www.w3.org/2000/svg">
<g clip-path="url(#clip0_51_81953)">
<path d="M22.9498 9.60003C22.7623 9.41256 22.5079 9.30725 22.2428 9.30725C21.9776 9.30725 21.7233 9.41256 21.5358 9.60003L10.6438 20.539C10.1795 21.0034 9.62829 21.3717 9.02164 21.6231C8.41499 21.8744 7.76478 22.0038 7.10813 22.0038C5.78197 22.0039 4.51008 21.4772 3.57228 20.5395C2.63447 19.6019 2.10757 18.33 2.10747 17.0039C2.10738 15.6777 2.63411 14.4058 3.57178 13.468L14.1208 2.87603C14.6849 2.32092 15.4455 2.0112 16.2369 2.01433C17.0283 2.01746 17.7864 2.33319 18.3461 2.89274C18.9058 3.45229 19.2217 4.21033 19.225 5.00174C19.2283 5.79315 18.9188 6.55381 18.3638 7.11803L7.81478 17.71C7.62453 17.8923 7.37124 17.994 7.10778 17.994C6.84431 17.994 6.59103 17.8923 6.40078 17.71C6.21331 17.5225 6.10799 17.2682 6.10799 17.003C6.10799 16.7379 6.21331 16.4836 6.40078 16.296L15.7928 6.86103C15.9749 6.67243 16.0757 6.41983 16.0735 6.15763C16.0712 5.89544 15.966 5.64462 15.7806 5.45921C15.5952 5.27381 15.3444 5.16864 15.0822 5.16636C14.82 5.16408 14.5674 5.26487 14.3788 5.44703L4.98678 14.882C4.70815 15.1606 4.48713 15.4914 4.33633 15.8554C4.18553 16.2194 4.10792 16.6095 4.10792 17.0035C4.10792 17.3975 4.18553 17.7877 4.33633 18.1517C4.48713 18.5157 4.70815 18.8465 4.98678 19.125C5.5584 19.6705 6.31816 19.9748 7.10828 19.9748C7.8984 19.9748 8.65816 19.6705 9.22978 19.125L19.7778 8.53203C20.6958 7.59034 21.2058 6.32489 21.1974 5.0098C21.189 3.69472 20.6627 2.43591 19.7328 1.50606C18.8028 0.5762 17.5439 0.0501778 16.2288 0.0419379C14.9137 0.0336979 13.6483 0.543904 12.7068 1.46203L2.15778 12.054C0.844957 13.3669 0.107422 15.1474 0.107422 17.004C0.107422 18.8606 0.844957 20.6412 2.15778 21.954C3.4706 23.2669 5.25117 24.0044 7.10778 24.0044C8.96439 24.0044 10.745 23.2669 12.0578 21.954L22.9498 11.018C23.0432 10.9251 23.1173 10.8146 23.1679 10.693C23.2185 10.5713 23.2446 10.4408 23.2446 10.309C23.2446 10.1773 23.2185 10.0468 23.1679 9.92511C23.1173 9.80344 23.0432 9.69296 22.9498 9.60003V9.60003Z" fill="#374957"/>
</g>
<defs>
<clipPath id="clip0_51_81953">
<rect width="24" height="24" fill="white"/>
</clipPath>
</defs>
</svg>
