<svg width="24" height="24" viewBox="0 0 24 24" fill="none" xmlns="http://www.w3.org/2000/svg">
<g clip-path="url(#clip0_51_79974)">
<path d="M23.9761 17.268L19.8511 23.952L18.1511 22.901L22.2761 16.217L23.9761 17.268ZM7.77614 1.76801L6.72914 0.0620117L-0.00585938 4.18401L1.03714 5.88901L7.77614 1.76801ZM20.1801 5.23401L22.0801 3.33401L20.6681 1.91801L18.7771 3.80901C17.4118 2.72626 15.7422 2.09717 14.0018 2.00968C12.2615 1.92218 10.5372 2.38065 9.07014 3.32101L2.30814 7.07001C1.94829 7.30804 1.64587 7.62312 1.42278 7.99242C1.19968 8.36172 1.0615 8.77601 1.01824 9.20529C0.974978 9.63457 1.02771 10.0681 1.17263 10.4745C1.31755 10.8809 1.55102 11.25 1.85614 11.555L12.4401 22.143C12.7086 22.4143 13.0282 22.6298 13.3804 22.7769C13.7326 22.924 14.1105 22.9998 14.4921 23C14.6175 22.9998 14.7427 22.9921 14.8671 22.977C15.3062 22.9235 15.727 22.7695 16.0969 22.5271C16.4668 22.2846 16.7759 21.9602 17.0001 21.579L20.9281 14.593C21.7437 13.1341 22.108 11.466 21.9748 9.79997C21.8417 8.13391 21.2171 6.54484 20.1801 5.23401V5.23401ZM3.00014 18.283C2.99427 19.1023 3.20155 19.9091 3.60164 20.6241C4.00173 21.3391 4.58088 21.9378 5.28223 22.3614C5.98359 22.785 6.78304 23.019 7.6021 23.0403C8.42117 23.0616 9.23171 22.8696 9.95414 22.483L3.56014 16.083C3.19697 16.7597 3.00473 17.515 3.00014 18.283V18.283Z" fill="#374957"/>
</g>
<defs>
<clipPath id="clip0_51_79974">
<rect width="24" height="24" fill="white"/>
</clipPath>
</defs>
</svg>
