<svg width="24" height="24" viewBox="0 0 24 24" fill="none" xmlns="http://www.w3.org/2000/svg">
<g clip-path="url(#clip0_51_82539)">
<path d="M23.1191 0.871608C22.8065 0.559797 22.4287 0.321198 22.0128 0.173004C21.5969 0.0248107 21.1534 -0.0292875 20.7141 0.0146079C17.9211 0.284608 8.52809 1.44761 4.90009 5.07161C3.16586 6.81056 2.13749 9.13044 2.01356 11.5832C1.88964 14.036 2.67896 16.4477 4.22909 18.3526L15.2891 7.29261C15.4777 7.11045 15.7303 7.00966 15.9925 7.01193C16.2547 7.01421 16.5055 7.11938 16.6909 7.30479C16.8763 7.4902 16.9815 7.74101 16.9837 8.00321C16.986 8.2654 16.8852 8.51801 16.7031 8.70661L5.64709 19.7666C7.55131 21.3177 9.96283 22.108 12.4157 21.9848C14.8686 21.8616 17.1888 20.8337 18.9281 19.0996C22.6041 15.4226 23.7281 6.05861 23.9871 3.27661C24.0294 2.83648 23.9735 2.39244 23.8234 1.97654C23.6733 1.56064 23.4327 1.18325 23.1191 0.871608V0.871608ZM4.90009 19.0996C5.13876 19.3376 5.38642 19.5613 5.64309 19.7706L1.70309 23.7106C1.51399 23.8923 1.26108 23.9924 0.99885 23.9895C0.736621 23.9865 0.48606 23.8806 0.301149 23.6946C0.116238 23.5087 0.011777 23.2575 0.0102704 22.9953C0.00876389 22.733 0.110333 22.4807 0.293095 22.2926L4.23309 18.3526C4.44242 18.6086 4.66476 18.8576 4.90009 19.0996Z" fill="#374957"/>
</g>
<defs>
<clipPath id="clip0_51_82539">
<rect width="24" height="24" fill="white"/>
</clipPath>
</defs>
</svg>
