<svg width="24" height="24" viewBox="0 0 24 24" fill="none" xmlns="http://www.w3.org/2000/svg">
<path d="M21 9.99994H18C16.8954 9.99994 16 10.8954 16 12C16 13.1045 15.1045 14 14 14H9.99998C8.89542 14 7.99997 13.1045 7.99997 12C7.99997 10.8954 7.10456 9.99994 6 9.99994H3C1.34316 9.99994 0 11.3431 0 12.9999V16.9999C0.00332813 19.76 2.23997 21.9966 5.00002 21.9999H19C21.76 21.9967 23.9967 19.76 24 17V13C24 11.3431 22.6568 9.99994 21 9.99994Z" fill="#374957"/>
<path d="M2.99998 8.00003H21C21.5523 8.00003 22 7.55233 22 7.00004C22 6.44776 21.5523 6.00006 21 6.00006H2.99998C2.4477 6.00006 2 6.44776 2 7.00004C2 7.55228 2.4477 8.00003 2.99998 8.00003Z" fill="#374957"/>
<path d="M2.99998 3.99997H21C21.5523 3.99997 22 3.55227 22 2.99998C22 2.4477 21.5523 2 21 2H2.99998C2.4477 2 2 2.4477 2 2.99998C2 3.55227 2.4477 3.99997 2.99998 3.99997Z" fill="#374957"/>
</svg>
