<svg width="24" height="24" viewBox="0 0 24 24" fill="none" xmlns="http://www.w3.org/2000/svg">
<g clip-path="url(#clip0_51_80355)">
<path d="M14.8829 2L14.6319 4H12.6159L13.1159 0H19.9999V2H14.8829ZM2.66094 5.122C2.38679 5.45788 2.19074 5.85051 2.08697 6.27146C1.9832 6.69242 1.97431 7.13118 2.06094 7.556L2.36194 10H11.8619L12.6139 4H4.99994C4.55078 3.99906 4.1072 4.09946 3.70223 4.29372C3.29725 4.48798 2.94132 4.77111 2.66094 5.122V5.122ZM21.3409 5.122C21.0604 4.77079 20.7042 4.48747 20.2988 4.29319C19.8934 4.09891 19.4494 3.99869 18.9999 4H14.6319L13.8799 10H21.6329L21.9269 7.653C22.026 7.2147 22.0248 6.75967 21.9233 6.32191C21.8219 5.88416 21.6228 5.47499 21.3409 5.125V5.122ZM12.6259 20H10.6099L11.6099 12H2.60994L4.10994 24H19.8829L21.3829 12H13.6289L12.6259 20Z" fill="#374957"/>
</g>
<defs>
<clipPath id="clip0_51_80355">
<rect width="24" height="24" fill="white"/>
</clipPath>
</defs>
</svg>
