<svg width="24" height="24" viewBox="0 0 24 24" fill="none" xmlns="http://www.w3.org/2000/svg">
<g clip-path="url(#clip0_51_80168)">
<path d="M6.98333 24.0071C5.59706 24.0104 4.24104 23.6019 3.08716 22.8336C1.93328 22.0653 1.03351 20.9717 0.501922 19.6914C-0.0296689 18.4111 -0.169146 17.0018 0.101174 15.6421C0.371494 14.2825 1.03944 13.0337 2.02033 12.0541L12.6203 1.46908C13.5585 0.528754 14.8319 -0.000358082 16.1602 -0.00185837C17.4885 -0.00335866 18.763 0.522876 19.7033 1.46108C20.6437 2.39928 21.1728 3.6726 21.1743 5.00092C21.1758 6.32924 20.6495 7.60375 19.7113 8.54408L9.11033 19.1281C8.53699 19.6745 7.77535 19.9793 6.98333 19.9793C6.19131 19.9793 5.42967 19.6745 4.85633 19.1281C4.5774 18.8495 4.35612 18.5186 4.20515 18.1544C4.05417 17.7902 3.97647 17.3998 3.97647 17.0056C3.97647 16.6113 4.05417 16.221 4.20515 15.8568C4.35612 15.4926 4.5774 15.1617 4.85633 14.8831L14.7503 5.00708L16.1683 6.42208L6.27433 16.3001C6.08686 16.4876 5.98154 16.7419 5.98154 17.0071C5.98154 17.2722 6.08686 17.5266 6.27433 17.7141C6.46536 17.8964 6.71927 17.9981 6.98333 17.9981C7.24738 17.9981 7.50129 17.8964 7.69233 17.7141L18.3003 7.12908C18.8632 6.56483 19.179 5.80007 19.178 5.00304C19.1771 4.20601 18.8596 3.442 18.2953 2.87908C17.7311 2.31616 16.9663 2.00044 16.1693 2.00138C15.3723 2.00231 14.6083 2.31983 14.0453 2.88408L3.43833 13.4681C2.49999 14.4083 1.97358 15.6827 1.97489 17.011C1.9762 18.3393 2.50513 19.6127 3.44533 20.5511C4.38552 21.4894 5.65996 22.0158 6.98828 22.0145C8.3166 22.0132 9.58999 21.4843 10.5283 20.5441L22.5493 8.54408L23.9673 9.95908L11.9463 21.9591C11.2946 22.6103 10.5206 23.1264 9.66898 23.4778C8.81732 23.8293 7.90465 24.0091 6.98333 24.0071V24.0071Z" fill="#374957"/>
</g>
<defs>
<clipPath id="clip0_51_80168">
<rect width="24" height="24" fill="white"/>
</clipPath>
</defs>
</svg>
