<svg width="24" height="24" viewBox="0 0 24 24" fill="none" xmlns="http://www.w3.org/2000/svg">
<g clip-path="url(#clip0_51_80920)">
<path d="M23.305 16.2499C23.1926 16.5457 23.0075 16.8086 22.7669 17.0143C22.5263 17.22 22.2378 17.3618 21.928 17.4269C21.6131 17.4962 21.2858 17.4848 20.9766 17.3937C20.6673 17.3026 20.386 17.1348 20.159 16.9059L20.059 16.8059C19.5583 16.3052 18.9199 15.9649 18.2251 15.8283C17.5304 15.6916 16.8106 15.7649 16.1576 16.0387C15.5046 16.3125 14.9479 16.7744 14.5583 17.3657C14.1687 17.957 13.9639 18.6508 13.97 19.3589L14.01 23.8749L13.086 23.9519C12.755 23.9799 12.423 24.0019 12.086 24.0019C9.6946 24.0026 7.35748 23.2889 5.37452 21.9522C3.39156 20.6155 1.85322 18.7168 0.956867 16.4997C0.0605123 14.2826 -0.152968 11.8483 0.343816 9.50903C0.8406 7.16977 2.02499 5.0323 3.74502 3.37085C4.89983 2.24557 6.27153 1.36703 7.77665 0.788709C9.28177 0.210386 10.8888 -0.0556299 12.5 0.0068521C15.5448 0.148965 18.425 1.42984 20.5698 3.59558C22.7146 5.76133 23.9675 8.65387 24.08 11.6999C24.1205 13.2525 23.8572 14.7981 23.305 16.2499V16.2499ZM17.115 8.04985C16.8283 8.12603 16.5706 8.2855 16.3746 8.50812C16.1785 8.73073 16.0528 9.00648 16.0135 9.30051C15.9741 9.59454 16.0228 9.89364 16.1534 10.16C16.284 10.4263 16.4907 10.648 16.7472 10.7969C17.0038 10.9458 17.2988 11.0153 17.5948 10.9966C17.8909 10.9779 18.1748 10.8718 18.4105 10.6917C18.6463 10.5117 18.8234 10.2658 18.9194 9.98511C19.0155 9.70443 19.0261 9.40158 18.95 9.11485C18.8995 8.92442 18.8119 8.74581 18.6924 8.58922C18.5728 8.43262 18.4235 8.30112 18.2531 8.20223C18.0827 8.10333 17.8945 8.03897 17.6992 8.01282C17.504 7.98668 17.3054 7.99926 17.115 8.04985ZM12.115 5.04985C11.8283 5.12603 11.5706 5.2855 11.3746 5.50812C11.1785 5.73073 11.0528 6.00648 11.0135 6.30051C10.9741 6.59454 11.0228 6.89364 11.1534 7.15999C11.284 7.42634 11.4907 7.64798 11.7472 7.79689C12.0038 7.9458 12.2988 8.01529 12.5948 7.99657C12.8909 7.97785 13.1748 7.87177 13.4105 7.69173C13.6463 7.51169 13.8234 7.26579 13.9194 6.98511C14.0155 6.70443 14.0261 6.40158 13.95 6.11485C13.8995 5.92442 13.8119 5.74581 13.6924 5.58922C13.5728 5.43262 13.4235 5.30112 13.2531 5.20223C13.0827 5.10333 12.8945 5.03897 12.6992 5.01282C12.504 4.98668 12.3054 4.99926 12.115 5.04985V5.04985ZM7.11502 8.04985C6.82832 8.12603 6.57064 8.2855 6.37456 8.50812C6.17849 8.73073 6.05282 9.00648 6.01346 9.30051C5.97409 9.59454 6.02279 9.89364 6.15341 10.16C6.28402 10.4263 6.49067 10.648 6.74724 10.7969C7.00382 10.9458 7.29878 11.0153 7.59484 10.9966C7.8909 10.9779 8.17476 10.8718 8.41053 10.6917C8.64631 10.5117 8.8234 10.2658 8.91943 9.98511C9.01546 9.70443 9.0261 9.40158 8.95002 9.11485C8.89949 8.92442 8.81194 8.74581 8.69236 8.58922C8.57279 8.43262 8.42354 8.30112 8.25314 8.20223C8.08274 8.10333 7.89452 8.03897 7.69924 8.01282C7.50396 7.98668 7.30544 7.99926 7.11502 8.04985V8.04985ZM7.11502 14.0499C6.82832 14.126 6.57064 14.2855 6.37456 14.5081C6.17849 14.7307 6.05282 15.0065 6.01346 15.3005C5.97409 15.5945 6.02279 15.8936 6.15341 16.16C6.28402 16.4263 6.49067 16.648 6.74724 16.7969C7.00382 16.9458 7.29878 17.0153 7.59484 16.9966C7.8909 16.9779 8.17476 16.8718 8.41053 16.6917C8.64631 16.5117 8.8234 16.2658 8.91943 15.9851C9.01546 15.7044 9.0261 15.4016 8.95002 15.1149C8.89949 14.9244 8.81194 14.7458 8.69236 14.5892C8.57279 14.4326 8.42354 14.3011 8.25314 14.2022C8.08274 14.1033 7.89452 14.039 7.69924 14.0128C7.50396 13.9867 7.30544 13.9993 7.11502 14.0499V14.0499Z" fill="#374957"/>
</g>
<defs>
<clipPath id="clip0_51_80920">
<rect width="24" height="24" fill="white"/>
</clipPath>
</defs>
</svg>
