<svg width="24" height="24" viewBox="0 0 24 24" fill="none" xmlns="http://www.w3.org/2000/svg">
<g clip-path="url(#clip0_51_81365)">
<path d="M18.5001 23.0001H18.4671C17.9561 22.9921 17.4701 22.7751 17.1221 22.4001L14.9541 20.1381L16.4001 18.7561L18.5061 20.9561L22.5871 16.8741L24.0001 18.2851L19.8391 22.4471C19.4851 22.8031 19.0021 23.0031 18.5001 23.0001V23.0001Z" fill="#374957"/>
<path d="M12.0171 0.000666182C5.40006 -0.0193338 0.0200559 5.33667 5.59237e-05 11.9637C-0.0199441 18.5907 5.32706 23.9807 11.9431 24.0007C13.0401 24.0037 14.1331 23.8567 15.1901 23.5617C13.2221 20.9037 13.7791 17.1507 16.4331 15.1797C18.5491 13.6087 21.4421 13.6087 23.5581 15.1797C25.3291 8.81267 21.6121 2.21367 15.2561 0.439666C14.2021 0.145666 13.1121 -0.00233382 12.0171 0.000666182V0.000666182ZM13.0171 11.4147L9.72406 14.7077L8.31006 13.2937L11.0171 10.5867V6.00067H13.0171V11.4147Z" fill="#374957"/>
</g>
<defs>
<clipPath id="clip0_51_81365">
<rect width="24" height="24" fill="white"/>
</clipPath>
</defs>
</svg>
