<svg width="24" height="24" viewBox="0 0 24 24" fill="none" xmlns="http://www.w3.org/2000/svg">
<path d="M17.061 9.525L13.475 5.939C13.1936 5.65774 12.812 5.49978 12.4141 5.49988C12.0163 5.49997 11.6348 5.65811 11.3535 5.9395C11.0722 6.2209 10.9143 6.6025 10.9144 7.00036C10.9145 7.39822 11.0726 7.77974 11.354 8.061L13.793 10.5H5C4.60218 10.5 4.22064 10.658 3.93934 10.9393C3.65804 11.2206 3.5 11.6022 3.5 12C3.5 12.3978 3.65804 12.7794 3.93934 13.0607C4.22064 13.342 4.60218 13.5 5 13.5H13.793L11.354 15.939C11.0726 16.2203 10.9145 16.6018 10.9144 16.9997C10.9143 17.3975 11.0722 17.7791 11.3535 18.0605C11.6348 18.3419 12.0163 18.5 12.4141 18.5001C12.812 18.5002 13.1936 18.3423 13.475 18.061L17.061 14.475C17.7162 13.818 18.0842 12.9279 18.0842 12C18.0842 11.0721 17.7162 10.182 17.061 9.525V9.525Z" fill="#374957"/>
</svg>
