<svg width="24" height="24" viewBox="0 0 24 24" fill="none" xmlns="http://www.w3.org/2000/svg">
<g clip-path="url(#clip0_51_80947)">
<path d="M22.5787 8.96075L19.5167 5.90875L16.4667 8.96675L15.0447 7.56175L18.0997 4.49975L15.0387 1.44175L16.4527 0.027752C16.6797 0.254752 17.9837 1.55575 19.5127 3.07975L22.5637 0.020752L23.9777 1.43575L20.9287 4.49175L23.9847 7.53875L22.5787 8.96075ZM13.5007 16.9608C10.5899 15.7277 8.27502 13.4075 7.04872 10.4938L11.1737 6.36775L4.90772 0.099752L1.73772 3.26975C1.18724 3.82275 0.752079 4.47958 0.457502 5.20212C0.162925 5.92465 0.0147974 6.6985 0.021716 7.47875C0.021716 14.7268 9.27372 23.9788 16.5217 23.9788C17.3016 23.985 18.0749 23.8365 18.797 23.542C19.5191 23.2474 20.1757 22.8126 20.7287 22.2628L23.8997 19.0918L17.6357 12.8258L13.5007 16.9608Z" fill="#374957"/>
</g>
<defs>
<clipPath id="clip0_51_80947">
<rect width="24" height="24" fill="white"/>
</clipPath>
</defs>
</svg>
