<svg width="24" height="24" viewBox="0 0 24 24" fill="none" xmlns="http://www.w3.org/2000/svg">
<g clip-path="url(#clip0_51_81879)">
<path d="M24.0001 11.983C23.9979 11.169 23.7471 10.375 23.2812 9.70748C22.8152 9.03995 22.1565 8.53073 21.3931 8.24803L21.3551 8.15703C20.363 5.73047 18.4638 3.78641 16.0611 2.73803L15.7321 2.59403C15.4488 1.83295 14.9396 1.17669 14.2727 0.7133C13.6058 0.249911 12.8131 0.0015564 12.0011 0.0015564C11.189 0.0015564 10.3963 0.249911 9.72942 0.7133C9.06253 1.17669 8.5533 1.83295 8.27005 2.59403L7.85205 2.78203C5.4706 3.86368 3.59626 5.81966 2.61705 8.24503C1.8524 8.52363 1.19153 9.02993 0.723506 9.69572C0.255485 10.3615 0.00281307 11.1548 -0.000456152 11.9686C-0.00372538 12.7824 0.242565 13.5777 0.705222 14.2472C1.16788 14.9167 1.82466 15.4283 2.58705 15.713L2.71505 16.013C3.7184 18.3419 5.5611 20.2082 7.87705 21.241L8.27005 21.417C8.5541 22.177 9.06352 22.8321 9.73013 23.2946C10.3967 23.7571 11.1887 24.005 12.0001 24.005C12.8114 24.005 13.6034 23.7571 14.27 23.2946C14.9366 22.8321 15.446 22.177 15.7301 21.417L16.0971 21.254C18.5196 20.1708 20.4242 18.1855 21.4061 15.72C22.1669 15.4344 22.8226 14.9238 23.286 14.2562C23.7494 13.5886 23.9985 12.7957 24.0001 11.983ZM15.8931 19.114C15.694 18.2301 15.2 17.4401 14.4924 16.8741C13.7848 16.3082 12.9057 15.9998 11.9996 15.9998C11.0934 15.9998 10.2143 16.3082 9.50668 16.8741C8.79907 17.4401 8.30512 18.2301 8.10605 19.114C6.74065 18.3689 5.61889 17.2461 4.87505 15.88C5.75627 15.6809 6.54385 15.1887 7.10903 14.4839C7.67421 13.7791 7.98355 12.9034 7.98645 12C7.98935 11.0966 7.68565 10.2189 7.12501 9.51047C6.56438 8.80205 5.77997 8.3048 4.90005 8.10003C5.64663 6.75317 6.7578 5.64408 8.10605 4.90003C8.30595 5.78303 8.80013 6.57182 9.50745 7.13692C10.2148 7.70201 11.0932 8.00983 11.9986 8.00983C12.9039 8.00983 13.7823 7.70201 14.4897 7.13692C15.197 6.57182 15.6912 5.78303 15.8911 4.90003C17.2383 5.64326 18.3501 6.74949 19.1001 8.09303C18.2174 8.29463 17.4296 8.79032 16.8659 9.49873C16.3021 10.2071 15.996 11.0862 15.9977 11.9915C15.9995 12.8969 16.309 13.7747 16.8755 14.481C17.4419 15.1872 18.2317 15.6798 19.1151 15.878C18.3688 17.2398 17.2516 18.3619 15.8931 19.114Z" fill="#374957"/>
</g>
<defs>
<clipPath id="clip0_51_81879">
<rect width="24" height="24" fill="white"/>
</clipPath>
</defs>
</svg>
