<svg width="24" height="24" viewBox="0 0 24 24" fill="none" xmlns="http://www.w3.org/2000/svg">
<g clip-path="url(#clip0_51_80923)">
<path d="M5.52148 19.8995H10.8435L14.3625 23.4145C14.5516 23.6047 14.7765 23.7556 15.0241 23.8586C15.2717 23.9615 15.5373 24.0145 15.8055 24.0145C15.9819 24.0143 16.1577 23.9918 16.3285 23.9475C16.6737 23.8604 16.9899 23.6838 17.2452 23.4356C17.5004 23.1873 17.6858 22.8762 17.7825 22.5335L23.9895 1.42456L5.52148 19.8995Z" fill="#374957"/>
<path d="M4.08703 18.5001L22.572 0.012085L1.47803 6.23309C1.13457 6.33076 0.822612 6.51654 0.573111 6.77199C0.323609 7.02745 0.145234 7.3437 0.0556829 7.68937C-0.0338682 8.03504 -0.0314835 8.39812 0.0626007 8.74259C0.156685 9.08705 0.339198 9.40093 0.592034 9.65309L4.08703 13.1451V18.5001Z" fill="#374957"/>
</g>
<defs>
<clipPath id="clip0_51_80923">
<rect width="24" height="24" fill="white"/>
</clipPath>
</defs>
</svg>
