<svg width="24" height="24" viewBox="0 0 24 24" fill="none" xmlns="http://www.w3.org/2000/svg">
<g clip-path="url(#clip0_51_80426)">
<path d="M23.974 2.93991C23.5317 5.73124 22.6936 8.44523 21.485 10.9999H14.414L17.957 7.45691L16.543 6.04291L9.99997 12.5859V4.16791C13.3709 2.07377 17.1224 0.666476 21.039 0.0269121C21.4361 -0.0318614 21.8414 0.00275432 22.2227 0.128011C22.6041 0.253267 22.951 0.465713 23.2359 0.74848C23.5208 1.03125 23.7358 1.37654 23.864 1.75695C23.9921 2.13736 24.0298 2.5424 23.974 2.93991V2.93991ZM7.99997 5.53291C7.02968 6.24377 6.11257 7.02451 5.25597 7.86891C4.49678 8.63237 3.9049 9.54557 3.51804 10.5503C3.13118 11.5551 2.95781 12.6294 3.00897 13.7049C3.07996 15.265 3.62757 16.7657 4.57797 18.0049L7.99997 14.5859V5.53291ZM10.586 20.9939C11.693 20.9896 12.7878 20.7612 13.8042 20.3224C14.8206 19.8837 15.7376 19.2436 16.5 18.4409C18.0455 16.8022 19.3768 14.9739 20.462 12.9999H12.414L5.99097 19.4229C7.30367 20.446 8.92165 20.9992 10.586 20.9939V20.9939ZM4.57797 18.0079L0.0429688 22.5429L1.45697 23.9569L5.99097 19.4229C5.93697 19.3809 5.87597 19.3519 5.82197 19.3079C5.35943 18.9231 4.94208 18.4869 4.57797 18.0079V18.0079Z" fill="#374957"/>
</g>
<defs>
<clipPath id="clip0_51_80426">
<rect width="24" height="24" fill="white"/>
</clipPath>
</defs>
</svg>
