<svg width="24" height="24" viewBox="0 0 24 24" fill="none" xmlns="http://www.w3.org/2000/svg">
<g clip-path="url(#clip0_51_80944)">
<path d="M17.6132 12.848L23.8782 19.113L20.7072 22.284C20.1545 22.8344 19.498 23.2695 18.7758 23.5641C18.0537 23.8586 17.2801 24.0068 16.5002 24C9.25219 24 0.000195101 14.748 0.000195101 7.5C-0.00614821 6.71998 0.142247 5.94645 0.436795 5.22415C0.731342 4.50186 1.1662 3.84514 1.7162 3.292L4.8872 0.122L11.1522 6.387L7.02719 10.512C8.25352 13.4263 10.5688 15.7469 13.4802 16.98L17.6132 12.848ZM22.0002 10H24.0002C23.9973 7.34873 22.9428 4.80688 21.068 2.93215C19.1933 1.05742 16.6515 0.0029116 14.0002 0V2C16.1212 2.00238 18.1546 2.846 19.6544 4.34578C21.1542 5.84555 21.9978 7.879 22.0002 10ZM18.0002 10H20.0002C19.9986 8.40919 19.366 6.88399 18.2411 5.75911C17.1162 4.63424 15.591 4.00159 14.0002 4V6C15.0611 6 16.0785 6.42143 16.8286 7.17157C17.5788 7.92172 18.0002 8.93913 18.0002 10Z" fill="#374957"/>
</g>
<defs>
<clipPath id="clip0_51_80944">
<rect width="24" height="24" fill="white"/>
</clipPath>
</defs>
</svg>
