<svg width="24" height="24" viewBox="0 0 24 24" fill="none" xmlns="http://www.w3.org/2000/svg">
<g clip-path="url(#clip0_51_81741)">
<path d="M0.291147 8.55196C0.075669 8.15229 -0.0241587 7.70047 0.00286712 7.24721C0.0298929 6.79396 0.182703 6.3572 0.444147 5.98596C0.871405 5.35908 1.44359 4.84453 2.11215 4.48596L9.61315 0.581964C10.3504 0.198595 11.1692 -0.0015564 12.0001 -0.0015564C12.8311 -0.0015564 13.6499 0.198595 14.3871 0.581964L21.8871 4.48896C22.5557 4.84752 23.1279 5.36208 23.5551 5.98896C23.8166 6.3602 23.9694 6.79696 23.9964 7.25021C24.0235 7.70347 23.9236 8.15529 23.7081 8.55497C23.4762 8.99379 23.1282 9.36057 22.7022 9.61535C22.2762 9.87014 21.7885 10.0032 21.2921 9.99996H2.70815C2.21131 10.0031 1.72315 9.86967 1.29694 9.61433C0.870718 9.35899 0.522805 8.9915 0.291147 8.55196V8.55196ZM23.0001 22C23.0001 21.4695 22.7894 20.9608 22.4144 20.5858C22.0393 20.2107 21.5306 20 21.0001 20V12H19.0001V20H16.0001V12H14.0001V20H10.0001V12H8.00015V20H5.00015V12H3.00015V20C2.46971 20 1.96101 20.2107 1.58593 20.5858C1.21086 20.9608 1.00015 21.4695 1.00015 22C0.73493 22 0.480576 22.1053 0.29304 22.2929C0.105504 22.4804 0.000146694 22.7347 0.000146694 23C0.000146694 23.2652 0.105504 23.5195 0.29304 23.7071C0.480576 23.8946 0.73493 24 1.00015 24H23.0001C23.2654 24 23.5197 23.8946 23.7073 23.7071C23.8948 23.5195 24.0001 23.2652 24.0001 23C24.0001 22.7347 23.8948 22.4804 23.7073 22.2929C23.5197 22.1053 23.2654 22 23.0001 22Z" fill="#374957"/>
</g>
<defs>
<clipPath id="clip0_51_81741">
<rect width="24" height="24" fill="white"/>
</clipPath>
</defs>
</svg>
