<svg width="24" height="24" viewBox="0 0 24 24" fill="none" xmlns="http://www.w3.org/2000/svg">
<g clip-path="url(#clip0_51_82369)">
<path d="M5.00007 7.99968C5.00007 6.41743 5.46926 4.87071 6.34831 3.55512C7.22736 2.23953 8.47679 1.21415 9.9386 0.608644C11.4004 0.00314337 13.0089 -0.155283 14.5608 0.153398C16.1126 0.46208 17.5381 1.22401 18.6569 2.34283C19.7757 3.46165 20.5377 4.88711 20.8464 6.43896C21.155 7.99081 20.9966 9.59934 20.3911 11.0611C19.7856 12.523 18.7602 13.7724 17.4446 14.6514C16.129 15.5305 14.5823 15.9997 13.0001 15.9997C10.8791 15.9973 8.84562 15.1537 7.34585 13.6539C5.84607 12.1541 5.00245 10.1207 5.00007 7.99968V7.99968ZM22.6461 13.3827C22.4273 13.2329 22.1579 13.1761 21.8972 13.2248C21.6366 13.2736 21.4059 13.4239 21.2561 13.6427C20.4931 14.757 19.5124 15.7053 18.373 16.4302C17.2337 17.1552 15.9593 17.6419 14.6267 17.8609C13.2941 18.08 11.9309 18.0268 10.6194 17.7047C9.30794 17.3826 8.07528 16.7982 6.99581 15.9867C5.91633 15.1752 5.01241 14.1535 4.33855 12.9831C3.66469 11.8128 3.23487 10.5181 3.07501 9.17713C2.91514 7.83616 3.02855 6.47669 3.40838 5.18074C3.78822 3.88478 4.42662 2.67919 5.28507 1.63668C5.45401 1.4322 5.53481 1.16898 5.50968 0.904928C5.48455 0.640877 5.35555 0.397624 5.15107 0.228681C4.94659 0.0597378 4.68337 -0.0210555 4.41932 0.00407435C4.15527 0.0292042 3.91201 0.158199 3.74307 0.362681C2.34923 2.05199 1.44455 4.09069 1.12713 6.25766C0.809715 8.42463 1.09169 10.6372 1.94247 12.6552C2.79325 14.6733 4.18036 16.42 5.95335 17.7057C7.72633 18.9914 9.81751 19.7671 12.0001 19.9487V21.9997H8.00007C7.73485 21.9997 7.4805 22.105 7.29296 22.2926C7.10543 22.4801 7.00007 22.7345 7.00007 22.9997C7.00007 23.2649 7.10543 23.5193 7.29296 23.7068C7.4805 23.8943 7.73485 23.9997 8.00007 23.9997H18.0001C18.2653 23.9997 18.5196 23.8943 18.7072 23.7068C18.8947 23.5193 19.0001 23.2649 19.0001 22.9997C19.0001 22.7345 18.8947 22.4801 18.7072 22.2926C18.5196 22.105 18.2653 21.9997 18.0001 21.9997H14.0001V19.9387C15.7752 19.7931 17.4956 19.2539 19.0362 18.3603C20.5769 17.4667 21.8992 16.2412 22.9071 14.7727C22.9812 14.6643 23.0333 14.5423 23.0603 14.4138C23.0873 14.2853 23.0887 14.1527 23.0645 14.0236C23.0402 13.8945 22.9908 13.7715 22.919 13.6615C22.8472 13.5516 22.7545 13.4568 22.6461 13.3827V13.3827Z" fill="#374957"/>
</g>
<defs>
<clipPath id="clip0_51_82369">
<rect width="24" height="24" fill="white"/>
</clipPath>
</defs>
</svg>
