<svg width="24" height="24" viewBox="0 0 24 24" fill="none" xmlns="http://www.w3.org/2000/svg">
<g clip-path="url(#clip0_51_80604)">
<path d="M12.9996 11.0002C12.9996 11.3958 12.8823 11.7825 12.6626 12.1114C12.4428 12.4403 12.1304 12.6966 11.765 12.848C11.3995 12.9994 10.9974 13.039 10.6094 12.9618C10.2215 12.8846 9.86511 12.6941 9.5854 12.4144C9.3057 12.1347 9.11522 11.7784 9.03805 11.3904C8.96088 11.0024 9.00048 10.6003 9.15186 10.2349C9.30323 9.8694 9.55958 9.55704 9.88848 9.33728C10.2174 9.11752 10.6041 9.00022 10.9996 9.00022C11.53 9.00022 12.0388 9.21093 12.4138 9.586C12.7889 9.96108 12.9996 10.4698 12.9996 11.0002ZM23.9996 12.7882V15.0002H21.6696L21.2206 18.3942C21.1235 19.1146 20.7687 19.7755 20.222 20.2546C19.6753 20.7336 18.9735 20.9985 18.2466 21.0002H15.9996V24.0002H2.99963V19.2912C2.99937 18.8301 2.83769 18.3836 2.54263 18.0292C1.291 16.5238 0.463812 14.7117 0.146461 12.7798C-0.17089 10.8479 0.0330935 8.86638 0.737354 7.03968C1.44161 5.21298 2.62063 3.60734 4.1527 2.3885C5.68476 1.16966 7.51436 0.381789 9.45262 0.106217C11.4062 -0.179372 13.4007 0.0710174 15.223 0.830647C17.0454 1.59028 18.6272 2.83062 19.7996 4.41922C21.211 6.51608 22.376 8.76861 23.2716 11.1322C23.4856 11.6222 23.9996 12.7882 23.9996 12.7882ZM14.8386 9.93922L16.6996 8.86622L15.6996 7.13422L13.8496 8.20022C13.34 7.68674 12.7006 7.32109 11.9996 7.14222V5.00022H9.99962V7.14222C9.29862 7.32109 8.65926 7.68674 8.14962 8.20022L6.29962 7.13422L5.29962 8.86622L7.16062 9.93922C7.05903 10.2839 7.00487 10.6409 6.99962 11.0002C7.00487 11.3596 7.05903 11.7165 7.16062 12.0612L5.29962 13.1342L6.29962 14.8662L8.14962 13.8002C8.65926 14.3137 9.29862 14.6793 9.99962 14.8582V17.0002H11.9996V14.8582C12.7006 14.6793 13.34 14.3137 13.8496 13.8002L15.6996 14.8662L16.6996 13.1342L14.8426 12.0612C14.9428 11.7163 14.9957 11.3594 14.9996 11.0002C14.9944 10.6409 14.9402 10.2839 14.8386 9.93922V9.93922Z" fill="#374957"/>
</g>
<defs>
<clipPath id="clip0_51_80604">
<rect width="24" height="24" fill="white"/>
</clipPath>
</defs>
</svg>
