<svg width="24" height="24" viewBox="0 0 24 24" fill="none" xmlns="http://www.w3.org/2000/svg">
<g clip-path="url(#clip0_51_82228)">
<path d="M20.6783 7.39283C19.7623 8.30883 19.9713 10.2308 20.7033 11.5598C20.9827 12.0867 21.0636 12.6964 20.9313 13.2779C20.7991 13.8595 20.4624 14.3742 19.9826 14.7284C19.5027 15.0826 18.9117 15.2527 18.317 15.2078C17.7223 15.163 17.1635 14.906 16.7423 14.4838L9.51628 7.25783C9.09658 6.83607 8.84184 6.27793 8.79824 5.68453C8.75464 5.09113 8.92505 4.50175 9.2786 4.02318C9.63214 3.54461 10.1454 3.20852 10.7254 3.07582C11.3055 2.94312 11.9138 3.02259 12.4403 3.29983C13.7693 4.03083 15.6913 4.24083 16.6073 3.32483L19.0863 0.842826C19.6346 0.319139 20.3636 0.0269165 21.1218 0.0269165C21.88 0.0269165 22.609 0.319139 23.1573 0.842826C23.425 1.1103 23.6374 1.42791 23.7823 1.77752C23.9273 2.12713 24.0018 2.50187 24.0018 2.88033C24.0018 3.25878 23.9273 3.63352 23.7823 3.98313C23.6374 4.33274 23.425 4.65036 23.1573 4.91783L20.6783 7.39283ZM1.96927 17.3468C1.47632 17.8444 1.15405 18.4856 1.04892 19.178C0.943781 19.8705 1.06121 20.5784 1.38427 21.1998L0.293275 22.2928C0.105804 22.4804 0.000488281 22.7347 0.000488281 22.9998C0.000488281 23.265 0.105804 23.5193 0.293275 23.7068C0.480803 23.8943 0.735111 23.9996 1.00027 23.9996C1.26544 23.9996 1.51975 23.8943 1.70727 23.7068L2.80027 22.6158C3.42034 22.946 4.13038 23.0673 4.8249 22.9617C5.51941 22.8562 6.16133 22.5293 6.65528 22.0298L14.0553 14.6298L9.37328 9.94383L1.96927 17.3468Z" fill="#374957"/>
</g>
<defs>
<clipPath id="clip0_51_82228">
<rect width="24" height="24" fill="white"/>
</clipPath>
</defs>
</svg>
