<svg width="24" height="24" viewBox="0 0 24 24" fill="none" xmlns="http://www.w3.org/2000/svg">
<g clip-path="url(#clip0_51_81151)">
<path d="M19.944 2.64252L12 0.00952148L4.056 2.64252C3.45747 2.84094 2.93668 3.2229 2.5676 3.73416C2.19852 4.24541 1.99992 4.85996 2 5.49052V12.0005C2 19.5245 11.2 23.6795 11.594 23.8525L11.948 24.0095L12.316 23.8875C12.712 23.7555 22 20.5775 22 12.0005V5.49052C22.0001 4.85996 21.8015 4.24541 21.4324 3.73416C21.0633 3.2229 20.5425 2.84094 19.944 2.64252V2.64252ZM16 13.0005H13V16.0005H11V13.0005H8V11.0005H11V8.00052H13V11.0005H16V13.0005Z" fill="#374957"/>
</g>
<defs>
<clipPath id="clip0_51_81151">
<rect width="24" height="24" fill="white"/>
</clipPath>
</defs>
</svg>
