<svg width="24" height="24" viewBox="0 0 24 24" fill="none" xmlns="http://www.w3.org/2000/svg">
<g clip-path="url(#clip0_51_82514)">
<path d="M2 7.1771V19.0001C2.00159 20.3257 2.52888 21.5965 3.46622 22.5339C4.40356 23.4712 5.6744 23.9985 7 24.0001H17C18.3256 23.9985 19.5964 23.4712 20.5338 22.5339C21.4711 21.5965 21.9984 20.3257 22 19.0001V7.1771C21.9999 6.64218 21.8568 6.11701 21.5855 5.656C21.3142 5.19499 20.9246 4.81489 20.457 4.5551L12.486 0.126102C12.3374 0.0434421 12.1701 6.10352e-05 12 6.10352e-05C11.8299 6.10352e-05 11.6626 0.0434421 11.514 0.126102L3.543 4.5551C3.0754 4.81489 2.68578 5.19499 2.41448 5.656C2.14318 6.11701 2.00008 6.64218 2 7.1771V7.1771ZM12 5.5001C12.2967 5.5001 12.5867 5.58808 12.8334 5.7529C13.08 5.91772 13.2723 6.15199 13.3858 6.42608C13.4994 6.70017 13.5291 7.00177 13.4712 7.29274C13.4133 7.58371 13.2704 7.85098 13.0607 8.06076C12.8509 8.27054 12.5836 8.4134 12.2926 8.47128C12.0017 8.52916 11.7001 8.49945 11.426 8.38592C11.1519 8.27239 10.9176 8.08013 10.7528 7.83346C10.588 7.58678 10.5 7.29677 10.5 7.0001C10.5 6.60228 10.658 6.22075 10.9393 5.93944C11.2206 5.65814 11.6022 5.5001 12 5.5001V5.5001Z" fill="#374957"/>
</g>
<defs>
<clipPath id="clip0_51_82514">
<rect width="24" height="24" fill="white"/>
</clipPath>
</defs>
</svg>
