<svg width="24" height="24" viewBox="0 0 24 24" fill="none" xmlns="http://www.w3.org/2000/svg">
<g clip-path="url(#clip0_51_81858)">
<path d="M12.8868 16.573L16.4508 24H7.18784L11.1208 16.562C11.1993 16.3933 11.3245 16.2507 11.4817 16.1511C11.6389 16.0516 11.8213 15.9992 12.0074 16.0004C12.1934 16.0016 12.3752 16.0562 12.5311 16.1577C12.687 16.2592 12.8105 16.4033 12.8868 16.573V16.573ZM23.5218 16.868L16.5348 2.90001C16.1344 2.03793 15.4964 1.30787 14.6958 0.795409C13.8952 0.282944 12.9652 0.00931066 12.0146 0.00658189C11.064 0.00385312 10.1324 0.272142 9.32889 0.780002C8.52536 1.28786 7.88326 2.01425 7.47784 2.87401L0.469837 16.9C0.118544 17.6557 -0.038074 18.4874 0.0142502 19.3191C0.0665744 20.1509 0.326178 20.9563 0.769411 21.6621C1.21264 22.3678 1.82542 22.9515 2.55191 23.3598C3.27841 23.7682 4.09553 23.9882 4.92884 24L9.32884 15.678C9.57422 15.1725 9.95796 14.747 10.4355 14.4509C10.9131 14.1548 11.4648 14.0002 12.0267 14.0051C12.5886 14.01 13.1375 14.1742 13.6098 14.4787C14.0821 14.7831 14.4583 15.2153 14.6948 15.725L18.6688 24H18.9998C19.8423 23.9999 20.671 23.7869 21.4091 23.3809C22.1472 22.9748 22.7708 22.3889 23.2219 21.6774C23.673 20.9659 23.937 20.152 23.9895 19.3112C24.0419 18.4704 23.881 17.63 23.5218 16.868Z" fill="#374957"/>
</g>
<defs>
<clipPath id="clip0_51_81858">
<rect width="24" height="24" fill="white"/>
</clipPath>
</defs>
</svg>
