<svg width="24" height="24" viewBox="0 0 24 24" fill="none" xmlns="http://www.w3.org/2000/svg">
<g clip-path="url(#clip0_51_80706)">
<path d="M12.9997 0C6.93471 0 1.99971 4.037 1.99971 9C2.00907 10.0706 2.2449 11.1271 2.69171 12.1C2.33706 12.5203 2.1076 13.0318 2.02945 13.5762C1.95131 14.1205 2.02762 14.6759 2.24971 15.179C0.893296 16.4264 0.0846035 18.1592 -0.000291264 20C-0.015777 20.5295 0.0770988 21.0566 0.272637 21.5489C0.468175 22.0412 0.76225 22.4883 1.13682 22.8629C1.51138 23.2375 1.95854 23.5315 2.45084 23.7271C2.94315 23.9226 3.47022 24.0155 3.99971 24L4.00771 22C3.74004 22.018 3.4716 21.9787 3.22034 21.8847C2.96908 21.7907 2.74078 21.6441 2.5507 21.4548C2.36062 21.2655 2.21314 21.0378 2.11812 20.7869C2.02311 20.536 1.98273 20.2677 1.99971 20C2.09209 18.6819 2.69651 17.4523 3.68371 16.574C4.79602 16.9018 5.95378 17.0487 7.11271 17.009C7.41271 17.009 7.68971 17.002 7.95571 16.993C9.55357 17.66 11.2682 18.0023 12.9997 18C19.0647 18 23.9997 13.963 23.9997 9C23.9997 4.037 19.0647 0 12.9997 0ZM12.9997 16C11.6652 15.9991 10.3418 15.7579 9.09271 15.288C8.5877 14.0648 7.91711 12.9167 7.09971 11.876C6.74987 11.5382 6.32408 11.2892 5.8581 11.15C5.39211 11.0108 4.89953 10.9854 4.42171 11.076C4.14979 10.4173 4.00655 9.7126 3.99971 9C3.99971 5.141 8.03671 2 12.9997 2C17.9627 2 21.9997 5.141 21.9997 9C21.9997 12.859 17.9627 16 12.9997 16Z" fill="#374957"/>
</g>
<defs>
<clipPath id="clip0_51_80706">
<rect width="24" height="24" fill="white"/>
</clipPath>
</defs>
</svg>
