<svg width="24" height="24" viewBox="0 0 24 24" fill="none" xmlns="http://www.w3.org/2000/svg">
<g clip-path="url(#clip0_51_80693)">
<path d="M21 5.99969H13V1.99969H11V5.99969H3C2.20435 5.99969 1.44129 6.31577 0.87868 6.87837C0.31607 7.44098 0 8.20405 0 8.99969L0 19.9997H24V8.99969C24 8.20405 23.6839 7.44098 23.1213 6.87837C22.5587 6.31577 21.7956 5.99969 21 5.99969ZM9 9.99969H12V11.9997H9V9.99969ZM6 15.9997H4V13.9997H6V15.9997ZM7 11.9997H4V9.99969H7V11.9997ZM16 15.9997H8V13.9997H16V15.9997ZM20 15.9997H18V13.9997H20V15.9997ZM20 11.9997H14V9.99969H20V11.9997Z" fill="#374957"/>
</g>
<defs>
<clipPath id="clip0_51_80693">
<rect width="24" height="24" fill="white"/>
</clipPath>
</defs>
</svg>
