<svg width="24" height="24" viewBox="0 0 24 24" fill="none" xmlns="http://www.w3.org/2000/svg">
<g clip-path="url(#clip0_51_81089)">
<path d="M23.352 0.648933C23.0567 0.350894 22.682 0.143995 22.2724 0.052868C21.8629 -0.0382586 21.4358 -0.00977305 21.042 0.134933L20.826 0.211933C16.0016 1.77221 11.6092 4.43964 8 8.00093C6.18789 10.0317 4.61121 12.2609 3.3 14.6459L5.586 17.0009L3 19.5869L4.414 21.0009L7 18.4149L9.32 20.7349C11.7045 19.4234 13.9333 17.8467 15.964 16.0349C19.5372 12.413 22.2171 8.00818 23.791 3.16993L23.866 2.95893C24.0107 2.56512 24.0392 2.13803 23.9481 1.72849C23.8569 1.31895 23.65 0.944227 23.352 0.648933V0.648933ZM11 14.0009C10.8022 14.0009 10.6089 13.9423 10.4444 13.8324C10.28 13.7225 10.1518 13.5663 10.0761 13.3836C10.0004 13.2009 9.98063 12.9998 10.0192 12.8058C10.0578 12.6119 10.153 12.4337 10.2929 12.2938C10.4327 12.154 10.6109 12.0587 10.8049 12.0201C10.9989 11.9816 11.2 12.0014 11.3827 12.0771C11.5654 12.1527 11.7216 12.2809 11.8315 12.4454C11.9414 12.6098 12 12.8032 12 13.0009C12 13.2662 11.8946 13.5205 11.7071 13.708C11.5196 13.8956 11.2652 14.0009 11 14.0009ZM14 11.0009C13.8022 11.0009 13.6089 10.9423 13.4444 10.8324C13.28 10.7225 13.1518 10.5663 13.0761 10.3836C13.0004 10.2009 12.9806 9.99983 13.0192 9.80584C13.0578 9.61186 13.153 9.43368 13.2929 9.29383C13.4327 9.15398 13.6109 9.05873 13.8049 9.02015C13.9989 8.98156 14.2 9.00137 14.3827 9.07706C14.5654 9.15274 14.7216 9.28091 14.8315 9.44536C14.9414 9.60981 15 9.80315 15 10.0009C15 10.2662 14.8946 10.5205 14.7071 10.708C14.5196 10.8956 14.2652 11.0009 14 11.0009ZM17 8.00093C16.8022 8.00093 16.6089 7.94229 16.4444 7.8324C16.28 7.72252 16.1518 7.56634 16.0761 7.38362C16.0004 7.20089 15.9806 6.99982 16.0192 6.80584C16.0578 6.61186 16.153 6.43368 16.2929 6.29383C16.4327 6.15397 16.6109 6.05873 16.8049 6.02015C16.9989 5.98156 17.2 6.00137 17.3827 6.07705C17.5654 6.15274 17.7216 6.28091 17.8315 6.44536C17.9414 6.60981 18 6.80315 18 7.00093C18 7.26615 17.8946 7.5205 17.7071 7.70804C17.5196 7.89558 17.2652 8.00093 17 8.00093ZM18.947 15.7629C18.8215 17.378 18.3538 18.9479 17.5748 20.3683C16.7958 21.7886 15.7235 23.027 14.429 24.0009H11V22.0789C13.2942 20.7816 15.4341 19.2287 17.379 17.4499C17.93 16.9009 18.447 16.3349 18.947 15.7629ZM6.551 6.56893C4.77225 8.51379 3.21936 10.6537 1.922 12.9479H0V9.51893C0.973974 8.22448 2.21229 7.15213 3.63266 6.37315C5.05302 5.59417 6.62291 5.1264 8.238 5.00093C7.666 5.50093 7.1 6.01793 6.551 6.56893Z" fill="#374957"/>
</g>
<defs>
<clipPath id="clip0_51_81089">
<rect width="24" height="24" fill="white"/>
</clipPath>
</defs>
</svg>
