<svg width="24" height="24" viewBox="0 0 24 24" fill="none" xmlns="http://www.w3.org/2000/svg">
<g clip-path="url(#clip0_51_72611)">
<path d="M15 5C15 5.26522 14.8947 5.51957 14.7071 5.70711C14.5196 5.89464 14.2652 6 14 6H10C9.73481 6 9.48046 5.89464 9.29292 5.70711C9.10539 5.51957 9.00003 5.26522 9.00003 5C9.00003 4.73478 9.10539 4.48043 9.29292 4.29289C9.48046 4.10536 9.73481 4 10 4H14C14.2652 4 14.5196 4.10536 14.7071 4.29289C14.8947 4.48043 15 4.73478 15 5ZM21 5.72V16.177C20.9997 17.4335 20.5263 18.6437 19.674 19.567L20.924 22.621C20.9737 22.7426 20.999 22.8728 20.9984 23.0042C20.9978 23.1355 20.9713 23.2655 20.9205 23.3866C20.8696 23.5078 20.7954 23.6177 20.7021 23.7102C20.6088 23.8026 20.4981 23.8758 20.3765 23.9255C20.2549 23.9752 20.1247 24.0005 19.9934 23.9999C19.862 23.9992 19.732 23.9728 19.6109 23.9219C19.4898 23.8711 19.3798 23.7969 19.2874 23.7036C19.1949 23.6102 19.1217 23.4996 19.072 23.378L18 20.745C16.1219 21.6154 14.0696 22.0447 12 22C9.93053 22.0443 7.87827 21.6151 6.00003 20.745L4.92703 23.378C4.87857 23.5013 4.80609 23.6137 4.71381 23.7088C4.62153 23.8038 4.51128 23.8796 4.38947 23.9317C4.26767 23.9837 4.13672 24.0111 4.00425 24.0121C3.87178 24.0132 3.74043 23.9879 3.61781 23.9378C3.49519 23.8876 3.38376 23.8136 3.28999 23.72C3.19622 23.6265 3.12197 23.5152 3.07156 23.3927C3.02116 23.2702 2.9956 23.1389 2.99636 23.0064C2.99713 22.8739 3.02421 22.7429 3.07603 22.621L4.32503 19.567C3.47315 18.6436 3.00011 17.4333 3.00003 16.177V5.72C2.99675 4.65944 3.33201 3.62551 3.95701 2.76867C4.58202 1.91183 5.46415 1.2768 6.47503 0.956C8.25691 0.356442 10.1203 0.0340187 12 0C13.8799 0.0337401 15.7433 0.356516 17.525 0.957C18.536 1.27734 19.4183 1.91211 20.0433 2.76884C20.6684 3.62557 21.0036 4.6595 21 5.72V5.72ZM19 11.737C17.447 14.065 15.05 16 12 16C8.95003 16 6.55303 14.065 5.00003 11.737V16.177C4.99529 16.7072 5.13313 17.2289 5.39912 17.6875C5.66512 18.1461 6.0495 18.5248 6.51203 18.784C8.21019 19.6439 10.0976 20.0621 12 20C13.9022 20.0623 15.7893 19.6441 17.487 18.784C17.9498 18.5251 18.3345 18.1464 18.6006 17.6878C18.8668 17.2291 19.0048 16.7073 19 16.177V11.737ZM19 6V5.72C19.0022 5.08394 18.8014 4.46377 18.4268 3.94974C18.0521 3.43571 17.5232 3.05465 16.917 2.862C15.3318 2.32489 13.6735 2.03418 12 2C10.3267 2.03442 8.66849 2.32478 7.08303 2.861C6.47684 3.05397 5.948 3.43526 5.57339 3.94943C5.19878 4.46359 4.99793 5.08384 5.00003 5.72V6C5.00003 8.443 7.64503 14 12 14C16.355 14 19 8.443 19 6ZM12 17C11.8022 17 11.6089 17.0586 11.4445 17.1685C11.28 17.2784 11.1518 17.4346 11.0761 17.6173C11.0005 17.8 10.9807 18.0011 11.0192 18.1951C11.0578 18.3891 11.1531 18.5673 11.2929 18.7071C11.4328 18.847 11.611 18.9422 11.8049 18.9808C11.9989 19.0194 12.2 18.9996 12.3827 18.9239C12.5654 18.8482 12.7216 18.72 12.8315 18.5556C12.9414 18.3911 13 18.1978 13 18C13 17.7348 12.8947 17.4804 12.7071 17.2929C12.5196 17.1054 12.2652 17 12 17Z" fill="#374957"/>
</g>
<defs>
<clipPath id="clip0_51_72611">
<rect width="24" height="24" fill="white"/>
</clipPath>
</defs>
</svg>
