<svg width="24" height="24" viewBox="0 0 24 24" fill="none" xmlns="http://www.w3.org/2000/svg">
<g clip-path="url(#clip0_51_79878)">
<path d="M19.4093 7.02601C16.2893 8.38001 15.8933 7.89301 13.0003 8.00001V6.00001C13.0372 4.04296 12.4914 2.11912 11.4323 0.473006C11.3443 0.324006 11.2623 0.185006 11.1903 0.0520063L9.43532 1.01001C9.51632 1.16001 9.60932 1.31801 9.70832 1.48701C10.5871 2.82533 11.0377 4.39941 11.0003 6.00001V6.40901C5.55032 4.56301 -0.0666776 9.10001 0.000322383 15C-0.106678 21.331 6.41732 25.953 12.0003 23.2C22.4593 27.619 28.7933 12.444 19.4093 7.02601ZM19.5333 4.48601C18.2619 5.53444 16.6466 6.07391 15.0003 6.00001C14.8763 2.22701 17.1653 -0.186994 20.9923 0.00800632C21.0936 1.63195 20.5718 3.23339 19.5333 4.48601V4.48601Z" fill="#374957"/>
</g>
<defs>
<clipPath id="clip0_51_79878">
<rect width="24" height="24" fill="white"/>
</clipPath>
</defs>
</svg>
