<svg width="24" height="24" viewBox="0 0 24 24" fill="none" xmlns="http://www.w3.org/2000/svg">
<g clip-path="url(#clip0_51_69239)">
<path d="M16.5 23.9999C9.25199 23.9999 -1.17624e-05 14.7479 -1.17624e-05 7.49993C-0.00694379 6.71974 0.141279 5.94595 0.436041 5.22356C0.730803 4.50116 1.16622 3.84456 1.71699 3.29193L4.88699 0.121934L11.151 6.38693L7.74499 9.79292C8.97237 12.7074 11.2882 15.0282 14.2 16.2619L17.614 12.8479L23.88 19.1129L20.708 22.2849C20.1552 22.8353 19.4985 23.2703 18.7761 23.5647C18.0537 23.8591 17.28 24.007 16.5 23.9999V23.9999ZM4.88699 2.95093L3.12999 4.70793C2.76595 5.07516 2.47857 5.51112 2.28458 5.99044C2.09058 6.46976 1.99384 6.98287 1.99999 7.49993C1.99999 13.7339 10.266 21.9999 16.5 21.9999C17.0168 22.0059 17.5297 21.9092 18.009 21.7156C18.4882 21.522 18.9243 21.2352 19.292 20.8719L21.051 19.1129L17.613 15.6759L14.686 18.5999L14.08 18.3679C12.1502 17.6497 10.3973 16.5251 8.94009 15.0703C7.48288 13.6155 6.35538 11.8645 5.63399 9.93592L5.38799 9.32292L8.32299 6.38693L4.88699 2.95093ZM17.187 10.6889L18.56 9.31792L17 7.75793V4.99993H15V8.49992L17.187 10.6889ZM11.565 3.97293C12.1097 3.37082 12.7711 2.88571 13.509 2.54706C14.2469 2.2084 15.046 2.02327 15.8576 2.00292C16.6693 1.98256 17.4766 2.12739 18.2306 2.42863C18.9846 2.72986 19.6694 3.18121 20.2436 3.75525C20.8178 4.3293 21.2693 5.01406 21.5707 5.76796C21.8721 6.52186 22.0172 7.32916 21.997 8.14083C21.9768 8.9525 21.7919 9.7516 21.4534 10.4896C21.1149 11.2276 20.63 11.8891 20.028 12.4339L21.441 13.8479C22.2279 13.1172 22.8594 12.2353 23.2978 11.2549C23.7361 10.2746 23.9723 9.21593 23.9921 8.14223C24.012 7.06853 23.8152 6.00185 23.4134 5.00595C23.0117 4.01005 22.4132 3.10539 21.6539 2.34604C20.8945 1.58669 19.9899 0.988246 18.994 0.586487C17.9981 0.184729 16.9314 -0.0120969 15.8577 0.0077768C14.784 0.0276504 13.7253 0.263815 12.745 0.702153C11.7646 1.14049 10.8827 1.772 10.152 2.55893L11.565 3.97293Z" fill="#374957"/>
</g>
<defs>
<clipPath id="clip0_51_69239">
<rect width="24" height="24" fill="white"/>
</clipPath>
</defs>
</svg>
