<svg width="24" height="24" viewBox="0 0 24 24" fill="none" xmlns="http://www.w3.org/2000/svg">
<g clip-path="url(#clip0_51_72331)">
<path d="M18.5811 2.14073L12.3161 0.0517291C12.111 -0.016592 11.8892 -0.016592 11.6841 0.0517291L5.41809 2.14073C4.42219 2.47178 3.55591 3.10823 2.94233 3.95967C2.32875 4.81111 1.99906 5.83424 2.00009 6.88373V12.0007C2.00009 19.5637 11.2001 23.7407 11.5941 23.9147C11.7219 23.9715 11.8602 24.0009 12.0001 24.0009C12.14 24.0009 12.2783 23.9715 12.4061 23.9147C12.8001 23.7407 22.0001 19.5637 22.0001 12.0007V6.88373C22.0011 5.83412 21.6712 4.81089 21.0574 3.95944C20.4437 3.10799 19.5772 2.47161 18.5811 2.14073V2.14073ZM20.0001 12.0007C20.0001 17.4557 13.6811 21.0337 12.0001 21.8897C10.3171 21.0367 4.00009 17.4697 4.00009 12.0007V6.88373C4.00008 6.25413 4.19815 5.64048 4.56625 5.1297C4.93435 4.61892 5.45383 4.23689 6.05109 4.03773L12.0001 2.05473L17.9481 4.03773C18.5455 4.23672 19.0652 4.61868 19.4335 5.12947C19.8018 5.64027 20 6.25401 20.0001 6.88373V12.0007Z" fill="#374957"/>
</g>
<defs>
<clipPath id="clip0_51_72331">
<rect width="24" height="24" fill="white"/>
</clipPath>
</defs>
</svg>
