<svg width="24" height="24" viewBox="0 0 24 24" fill="none" xmlns="http://www.w3.org/2000/svg">
<g clip-path="url(#clip0_51_70058)">
<path d="M12 12C12.7911 12 13.5645 11.7654 14.2223 11.3259C14.8801 10.8864 15.3928 10.2617 15.6955 9.53078C15.9983 8.79987 16.0775 7.99561 15.9231 7.21968C15.7688 6.44376 15.3878 5.73103 14.8284 5.17162C14.269 4.61221 13.5563 4.23124 12.7804 4.0769C12.0044 3.92256 11.2002 4.00177 10.4693 4.30452C9.73836 4.60728 9.11365 5.11997 8.67412 5.77776C8.2346 6.43556 8 7.20892 8 8.00004C8 9.06091 8.42143 10.0783 9.17157 10.8285C9.92172 11.5786 10.9391 12 12 12ZM12 6.00004C12.3956 6.00004 12.7822 6.11734 13.1111 6.3371C13.44 6.55687 13.6964 6.86922 13.8478 7.23468C13.9991 7.60013 14.0387 8.00226 13.9616 8.39022C13.8844 8.77819 13.6939 9.13455 13.4142 9.41426C13.1345 9.69396 12.7781 9.88444 12.3902 9.96161C12.0022 10.0388 11.6001 9.99918 11.2346 9.8478C10.8692 9.69643 10.5568 9.44008 10.3371 9.11118C10.1173 8.78229 10 8.39561 10 8.00004C10 7.46961 10.2107 6.9609 10.5858 6.58583C10.9609 6.21076 11.4696 6.00004 12 6.00004ZM16 22.03L24 23.978V13.483C23.9998 12.8389 23.7923 12.212 23.4081 11.6949C23.024 11.1779 22.4836 10.7982 21.867 10.612L19.767 9.91204C19.9206 9.2883 19.9988 8.6484 20 8.00604C20 5.88431 19.1571 3.84948 17.6569 2.34919C16.1566 0.848897 14.1217 0.00604248 12 0.00604248C9.87827 0.00604248 7.84344 0.848897 6.34315 2.34919C4.84286 3.84948 4 5.88431 4 8.00604C4.00296 8.41198 4.03639 8.81712 4.1 9.21804C3.64587 9.037 3.15429 8.96999 2.66827 9.02289C2.18225 9.07579 1.7166 9.24697 1.31205 9.52148C0.907496 9.79598 0.576373 10.1654 0.347646 10.5975C0.118919 11.0296 -0.000443211 11.5112 1.23664e-06 12V21.752L7.983 24.033L16 22.03ZM7.757 3.76404C8.88425 2.6528 10.4049 2.03201 11.9878 2.03692C13.5707 2.04183 15.0875 2.67204 16.2079 3.79025C17.3282 4.90847 17.9612 6.4241 17.9691 8.00697C17.977 9.58984 17.3591 11.1117 16.25 12.241L12 16.4L7.757 12.249C6.63187 11.1238 5.99978 9.59777 5.99978 8.00654C5.99978 6.41531 6.63187 4.88925 7.757 3.76404V3.76404ZM2 12C1.99874 11.8351 2.03891 11.6725 2.11684 11.5271C2.19476 11.3818 2.30795 11.2583 2.446 11.168C2.59041 11.0733 2.75678 11.0172 2.92911 11.0053C3.10143 10.9934 3.27392 11.026 3.43 11.1L4.864 11.618C5.24766 12.3778 5.74958 13.0718 6.351 13.674L12 19.2L17.657 13.667C18.2133 13.1116 18.6849 12.4775 19.057 11.785L21.274 12.526C21.4828 12.5858 21.6665 12.7119 21.7973 12.8852C21.9281 13.0586 21.9989 13.2699 21.999 13.487V21.436L16 19.97L8.02 21.97L2 20.246V12Z" fill="#374957"/>
</g>
<defs>
<clipPath id="clip0_51_70058">
<rect width="24" height="24" fill="white"/>
</clipPath>
</defs>
</svg>
