<svg width="24" height="24" viewBox="0 0 24 24" fill="none" xmlns="http://www.w3.org/2000/svg">
<g clip-path="url(#clip0_51_80097)">
<path d="M3 21.976C2.73478 21.976 2.48043 21.8706 2.29289 21.6831C2.10536 21.4956 2 21.2412 2 20.976V0H0V20.976C0 21.7716 0.31607 22.5347 0.87868 23.0973C1.44129 23.6599 2.20435 23.976 3 23.976H24V21.976H3Z" fill="#374957"/>
<path d="M7 12H5V19H7V12Z" fill="#374957"/>
<path d="M12 9.99985H10V18.9998H12V9.99985Z" fill="#374957"/>
<path d="M17 12.9998H15V18.9998H17V12.9998Z" fill="#374957"/>
<path d="M22 9H20V19H22V9Z" fill="#374957"/>
<path d="M11 4.41394L16 9.41394L23.707 1.70694L22.293 0.292938L16 6.58594L11 1.58594L5.29297 7.29294L6.70697 8.70694L11 4.41394Z" fill="#374957"/>
</g>
<defs>
<clipPath id="clip0_51_80097">
<rect width="24" height="24" fill="white"/>
</clipPath>
</defs>
</svg>
