<svg width="24" height="24" viewBox="0 0 24 24" fill="none" xmlns="http://www.w3.org/2000/svg">
<g clip-path="url(#clip0_51_81518)">
<path d="M15.7611 0.611882C17.8111 1.29414 19.6396 2.51606 21.0542 4.14922C22.4688 5.78237 23.4173 7.76644 23.8001 9.89288C22.6322 10.6903 21.338 11.2846 19.9721 11.6509C19.6738 7.63955 18.2102 3.80272 15.7611 0.611882V0.611882ZM12.9771 11.2999C14.5706 11.9237 16.2886 12.1635 17.9921 11.9999C17.6919 7.50882 15.8102 3.26935 12.6811 0.0338823C12.4541 0.0218823 12.2301 -0.000117729 12.0001 -0.000117729C10.389 -0.0014919 8.79426 0.323368 7.31208 0.954882C8.97041 2.14528 10.3404 3.69279 11.3208 5.48326C12.3013 7.27373 12.8673 9.26148 12.9771 11.2999V11.2999ZM16.9341 14.0649C15.2935 14.0631 13.6687 13.7457 12.1481 13.1299C10.9999 14.0082 10.0077 15.0734 9.21308 16.2809C13.5109 18.3072 18.4355 18.552 22.9131 16.9619C23.6077 15.4467 23.9764 13.8026 23.9951 12.1359C21.8513 13.3873 19.4163 14.0535 16.9341 14.0679V14.0649ZM16.6551 19.9999C13.729 20.0257 10.8391 19.352 8.22608 18.0349C7.48734 19.5519 7.0651 21.2034 6.98508 22.8889C9.42249 24.0227 12.1714 24.3001 14.7862 23.6761C17.401 23.052 19.7284 21.5632 21.3911 19.4509C19.8373 19.8069 18.2491 19.991 16.6551 19.9999V19.9999ZM8.64008 5.00588C7.73504 3.81098 6.60646 2.80331 5.31708 2.03888C3.17233 3.47586 1.54858 5.56659 0.687203 8.00028C-0.174173 10.434 -0.227175 13.0807 0.536075 15.5469C2.04419 11.2589 4.88376 7.56543 8.64008 5.00588V5.00588ZM10.9681 11.5199C10.8959 9.84639 10.4609 8.20858 9.69308 6.71988C5.73105 9.42822 2.92996 13.5251 1.84408 18.1999L1.72608 18.1729C2.5812 19.5944 3.72025 20.8243 5.07208 21.7859C5.62321 17.7259 7.73899 14.0419 10.9681 11.5199V11.5199Z" fill="#374957"/>
</g>
<defs>
<clipPath id="clip0_51_81518">
<rect width="24" height="24" fill="white"/>
</clipPath>
</defs>
</svg>
