<svg width="24" height="24" viewBox="0 0 24 24" fill="none" xmlns="http://www.w3.org/2000/svg">
<g clip-path="url(#clip0_51_69128)">
<path d="M5.14037e-08 22H24V24H5.14037e-08V22ZM24 7.90901V10H21V18H23V20H1V18H3V10H5.14037e-08V7.90901C-9.97046e-05 7.37005 0.144995 6.84101 0.420033 6.37751C0.695071 5.91402 1.08989 5.53317 1.563 5.27501L10.563 0.366007C11.0036 0.124866 11.4977 -0.00152588 12 -0.00152588C12.5023 -0.00152588 12.9964 0.124866 13.437 0.366007L22.437 5.27501C22.9101 5.53317 23.3049 5.91402 23.58 6.37751C23.855 6.84101 24.0001 7.37005 24 7.90901ZM5 18H8V10H5V18ZM10 10V18H14V10H10ZM19 10H16V18H19V10ZM22 7.90901C22 7.72935 21.9517 7.55301 21.86 7.39851C21.7683 7.24401 21.6367 7.11706 21.479 7.03101L12.479 2.12201C12.3321 2.04183 12.1674 1.99982 12 1.99982C11.8326 1.99982 11.6679 2.04183 11.521 2.12201L2.521 7.03101C2.3633 7.11706 2.23169 7.24401 2.14001 7.39851C2.04833 7.55301 1.99997 7.72935 2 7.90901V8.00001H22V7.90901Z" fill="#374957"/>
</g>
<defs>
<clipPath id="clip0_51_69128">
<rect width="24" height="24" fill="white"/>
</clipPath>
</defs>
</svg>
