<svg width="24" height="24" viewBox="0 0 24 24" fill="none" xmlns="http://www.w3.org/2000/svg">
<g clip-path="url(#clip0_51_80840)">
<path d="M24.0002 21.2419V23.9999H22.0002V21.2419C22 20.6007 21.8096 19.9739 21.4532 19.4408C21.0968 18.9077 20.5903 18.4922 19.9978 18.2469C19.4053 18.0016 18.7533 17.9374 18.1244 18.0626C17.4955 18.1877 16.9177 18.4965 16.4642 18.9499L13.4642 21.9499C12.8159 22.602 12.0447 23.1189 11.1952 23.4708C10.3456 23.8227 9.43475 24.0026 8.51524 23.9999H3.12224C2.50485 24.0002 1.90125 23.8173 1.3878 23.4745C0.874362 23.1316 0.474143 22.6441 0.237778 22.0738C0.00141336 21.5034 -0.0604775 20.8758 0.0599349 20.2702C0.180347 19.6647 0.477653 19.1085 0.914241 18.6719L1.22024 18.3659C1.00951 17.8729 0.950994 17.3281 1.05221 16.8016C1.15342 16.275 1.40974 15.7907 1.78824 15.4109L7.78824 9.41094C8.06961 10.0309 8.43321 10.6101 8.86924 11.1329C9.60996 12.018 10.5334 12.7324 11.5762 13.2269L5.58924 19.2119C5.21018 19.5922 4.72562 19.8499 4.19837 19.9515C3.67113 20.0532 3.12551 19.9941 2.63224 19.7819L2.33224 20.0819C2.17413 20.2383 2.06611 20.4382 2.02191 20.6561C1.97771 20.8741 1.99934 21.1003 2.08403 21.3059C2.16872 21.5115 2.31266 21.6873 2.49753 21.8109C2.68241 21.9345 2.89986 22.0003 3.12224 21.9999H8.51524C9.17207 22.0016 9.8227 21.873 10.4295 21.6215C11.0363 21.3701 11.5871 21.0007 12.0502 20.5349L15.0502 17.5349C15.7835 16.8018 16.7176 16.3026 17.7346 16.1004C18.7515 15.8981 19.8056 16.002 20.7636 16.3987C21.7215 16.7955 22.5403 17.4674 23.1164 18.3295C23.6925 19.1915 24.0001 20.2051 24.0002 21.2419V21.2419ZM15.0002 11.9999C16.1869 11.9999 17.347 11.648 18.3337 10.9888C19.3204 10.3295 20.0894 9.3924 20.5435 8.29604C20.9976 7.19969 21.1165 5.99329 20.885 4.8294C20.6534 3.66551 20.082 2.59642 19.2429 1.7573C18.4038 0.918186 17.3347 0.346741 16.1708 0.11523C15.0069 -0.116281 13.8005 0.00253868 12.7041 0.456664C11.6078 0.91079 10.6707 1.67983 10.0114 2.66652C9.35214 3.65322 9.00024 4.81325 9.00024 5.99994C9.00024 7.59124 9.63238 9.11736 10.7576 10.2426C11.8828 11.3678 13.4089 11.9999 15.0002 11.9999Z" fill="#374957"/>
</g>
<defs>
<clipPath id="clip0_51_80840">
<rect width="24" height="24" fill="white"/>
</clipPath>
</defs>
</svg>
