<svg width="24" height="24" viewBox="0 0 24 24" fill="none" xmlns="http://www.w3.org/2000/svg">
<g clip-path="url(#clip0_51_69659)">
<path d="M14.4138 0H4.99976C4.20411 0 3.44104 0.31607 2.87844 0.87868C2.31583 1.44129 1.99976 2.20435 1.99976 3V24H21.9998V7.586L14.4138 0ZM14.9998 3.414L18.5858 7H14.9998V3.414ZM3.99976 22V3C3.99976 2.73478 4.10511 2.48043 4.29265 2.29289C4.48019 2.10536 4.73454 2 4.99976 2H12.9998V9H19.9998V22H3.99976ZM12.9998 14H15.9998V16H12.9998V19H10.9998V16H7.99976V14H10.9998V11H12.9998V14Z" fill="#374957"/>
</g>
<defs>
<clipPath id="clip0_51_69659">
<rect width="24" height="24" fill="white"/>
</clipPath>
</defs>
</svg>
