<svg width="24" height="24" viewBox="0 0 24 24" fill="none" xmlns="http://www.w3.org/2000/svg">
<g clip-path="url(#clip0_51_80727)">
<path d="M22 7.99969V9.02569C21.1396 8.36389 20.0855 8.00337 19 7.99969C17.6739 7.99969 16.4021 8.52648 15.4645 9.46416C14.5268 10.4018 14 11.6736 14 12.9997C14 14.3258 14.5268 15.5975 15.4645 16.5352C16.4021 17.4729 17.6739 17.9997 19 17.9997C20.0855 17.996 21.1396 17.6355 22 16.9737V17.9997H24V7.99969H22ZM19 15.9997C18.4067 15.9997 17.8266 15.8237 17.3333 15.4941C16.8399 15.1645 16.4554 14.6959 16.2284 14.1477C16.0013 13.5996 15.9419 12.9964 16.0576 12.4144C16.1734 11.8325 16.4591 11.2979 16.8787 10.8784C17.2982 10.4588 17.8328 10.1731 18.4147 10.0573C18.9967 9.94158 19.5999 10.001 20.1481 10.2281C20.6962 10.4551 21.1648 10.8396 21.4944 11.333C21.8241 11.8263 22 12.4064 22 12.9997C22 13.7953 21.6839 14.5584 21.1213 15.121C20.5587 15.6836 19.7956 15.9997 19 15.9997Z" fill="#374957"/>
<path d="M12 17.9999H14.236L7.118 3.76385L0 17.9999H2.236L4.236 13.9999H10L12 17.9999ZM5.236 11.9999L7.118 8.23586L9 11.9999H5.236Z" fill="#374957"/>
</g>
<defs>
<clipPath id="clip0_51_80727">
<rect width="24" height="24" fill="white"/>
</clipPath>
</defs>
</svg>
