<svg width="24" height="24" viewBox="0 0 24 24" fill="none" xmlns="http://www.w3.org/2000/svg">
<g clip-path="url(#clip0_51_81324)">
<path d="M13.1449 0.0607295C15.9206 0.32279 18.5179 1.54483 20.4893 3.51626C22.4608 5.4877 23.6828 8.08504 23.9449 10.8607C22.4694 11.1178 20.9538 11.0162 19.5259 10.5644C18.098 10.1126 16.7998 9.32386 15.7408 8.26485C14.6817 7.20584 13.893 5.90759 13.4412 4.4797C12.9894 3.0518 12.8878 1.53617 13.1449 0.0607295V0.0607295ZM8.27588 15.7237C7.21595 14.6637 5.91498 13.8764 4.48431 13.429C3.05363 12.9816 1.53586 12.8875 0.060875 13.1547C0.325488 15.9255 1.54677 18.5176 3.5149 20.4857C5.48303 22.4538 8.07513 23.6751 10.8459 23.9397C11.1128 22.4645 11.0184 20.9466 10.5708 19.5158C10.1233 18.085 9.33584 16.7839 8.27588 15.7237V15.7237ZM22.3569 13.0007C20.7312 13.0015 19.1244 12.6525 17.6454 11.9775C16.1665 11.3025 14.85 10.3172 13.7854 9.08864C12.7208 7.86003 11.9329 6.41679 11.4753 4.85685C11.0176 3.29691 10.9008 1.65678 11.1329 0.0477295C8.25666 0.246352 5.54954 1.47931 3.51173 3.51877C1.47392 5.55823 0.243163 8.26635 0.046875 11.1427C1.79002 10.8781 3.57096 11.0269 5.24602 11.5771C6.92109 12.1273 8.44336 13.0636 9.69002 14.3103C10.9367 15.5571 11.8728 17.0794 12.4229 18.7545C12.973 20.4297 13.1217 22.2106 12.8569 23.9537C15.7328 23.7586 18.441 22.5294 20.4812 20.4932C22.5215 18.457 23.7561 15.7512 23.9569 12.8757C23.4271 12.9547 22.8925 12.9965 22.3569 13.0007V13.0007Z" fill="#374957"/>
</g>
<defs>
<clipPath id="clip0_51_81324">
<rect width="24" height="24" fill="white"/>
</clipPath>
</defs>
</svg>
