<svg width="24" height="24" viewBox="0 0 24 24" fill="none" xmlns="http://www.w3.org/2000/svg">
<g clip-path="url(#clip0_51_81027)">
<path d="M24 20.9996H22V14.9996C21.449 1.72965 2.546 1.74065 2 14.9996V20.9996H0V14.9996C0.661 -0.924351 23.345 -0.911351 24 14.9996V20.9996ZM20 20.9996H18V14.9996C17.747 7.06765 6.25 7.07365 6 14.9996V20.9996H4V14.9996C4.4 4.39965 19.6 4.40665 20 14.9996V20.9996ZM16 20.9996H14V14.9996C14 14.4692 13.7893 13.9605 13.4142 13.5854C13.0391 13.2104 12.5304 12.9996 12 12.9996C11.4696 12.9996 10.9609 13.2104 10.5858 13.5854C10.2107 13.9605 10 14.4692 10 14.9996V20.9996H8V14.9996C8 13.9388 8.42143 12.9214 9.17157 12.1712C9.92172 11.4211 10.9391 10.9996 12 10.9996C13.0609 10.9996 14.0783 11.4211 14.8284 12.1712C15.5786 12.9214 16 13.9388 16 14.9996V20.9996Z" fill="#374957"/>
</g>
<defs>
<clipPath id="clip0_51_81027">
<rect width="24" height="24" fill="white"/>
</clipPath>
</defs>
</svg>
