<svg width="24" height="24" viewBox="0 0 24 24" fill="none" xmlns="http://www.w3.org/2000/svg">
<g clip-path="url(#clip0_51_70920)">
<path d="M23.9949 22.583L17.7465 16.3345C21.2404 12.0614 20.6086 5.76493 16.3355 2.27105C12.0624 -1.22282 5.7659 -0.591135 2.27203 3.68199C-1.22185 7.95512 -0.590159 14.2516 3.68297 17.7455C7.36364 20.7549 12.6549 20.7549 16.3355 17.7455L22.584 23.9939L23.9949 22.583ZM10.0252 18.0069C5.61647 18.0069 2.04253 14.4329 2.04253 10.0242C2.04253 5.61554 5.61647 2.04155 10.0252 2.04155C14.4339 2.04155 18.0079 5.61554 18.0079 10.0242C18.003 14.4309 14.4319 18.002 10.0252 18.0069Z" fill="#374957"/>
<path d="M14.0169 9.02637H6.03418V11.022H14.0169V9.02637Z" fill="#374957"/>
</g>
<defs>
<clipPath id="clip0_51_70920">
<rect width="24" height="24" fill="white"/>
</clipPath>
</defs>
</svg>
