<svg width="24" height="24" viewBox="0 0 24 24" fill="none" xmlns="http://www.w3.org/2000/svg">
<g clip-path="url(#clip0_51_81861)">
<path d="M0.327 12.0001C0.356 11.9071 0.369 11.8101 0.402 11.7181L3.1 4.29106C3.45233 3.32736 4.09196 2.49502 4.93248 1.90648C5.773 1.31793 6.77391 1.00155 7.8 1.00006H16.2C17.2262 1.00148 18.2273 1.31795 19.0679 1.90671C19.9084 2.49546 20.548 3.32809 20.9 4.29206L23.6 11.7181C23.633 11.8101 23.646 11.9071 23.675 12.0001H0.327ZM20 14.0001V16.0001C20 16.2653 19.8946 16.5196 19.7071 16.7072C19.5196 16.8947 19.2652 17.0001 19 17.0001C18.7348 17.0001 18.4804 16.8947 18.2929 16.7072C18.1054 16.5196 18 16.2653 18 16.0001V14.0001H6V16.0001C6 16.2653 5.89464 16.5196 5.70711 16.7072C5.51957 16.8947 5.26522 17.0001 5 17.0001C4.73478 17.0001 4.48043 16.8947 4.29289 16.7072C4.10536 16.5196 4 16.2653 4 16.0001V14.0001H0V16.0001C0.00127838 16.9718 0.285705 17.9222 0.818499 18.7348C1.35129 19.5475 2.10936 20.1874 3 20.5761V22.0001C3 22.5305 3.21071 23.0392 3.58579 23.4143C3.96086 23.7893 4.46957 24.0001 5 24.0001C5.53043 24.0001 6.03914 23.7893 6.41421 23.4143C6.78929 23.0392 7 22.5305 7 22.0001V21.0001H17V22.0001C17 22.5305 17.2107 23.0392 17.5858 23.4143C17.9609 23.7893 18.4696 24.0001 19 24.0001C19.5304 24.0001 20.0391 23.7893 20.4142 23.4143C20.7893 23.0392 21 22.5305 21 22.0001V20.5761C21.8906 20.1874 22.6487 19.5475 23.1815 18.7348C23.7143 17.9222 23.9987 16.9718 24 16.0001V14.0001H20Z" fill="#374957"/>
</g>
<defs>
<clipPath id="clip0_51_81861">
<rect width="24" height="24" fill="white"/>
</clipPath>
</defs>
</svg>
