<svg width="24" height="24" viewBox="0 0 24 24" fill="none" xmlns="http://www.w3.org/2000/svg">
<g clip-path="url(#clip0_51_80565)">
<path d="M24 7.99959V19.9996H22V9.28959L14.12 14.3716C13.4889 14.7815 12.7525 14.9997 12 14.9997C11.2475 14.9997 10.5111 14.7815 9.88 14.3716L0 7.99959L9.88 1.62659C10.5114 1.21765 11.2477 1.00006 12 1.00006C12.7523 1.00006 13.4886 1.21765 14.12 1.62659L24 7.99959ZM12 16.9996C10.8644 16.9988 9.75316 16.6699 8.8 16.0526L4 12.9596V20.4136L4.293 20.7066C4.387 20.7996 6.647 22.9996 12 22.9996C17.353 22.9996 19.613 20.7996 19.707 20.7066L20 20.4136V12.9596L15.2 16.0526C14.2468 16.6699 13.1356 16.9988 12 16.9996Z" fill="#374957"/>
</g>
<defs>
<clipPath id="clip0_51_80565">
<rect width="24" height="24" fill="white"/>
</clipPath>
</defs>
</svg>
