<svg width="24" height="24" viewBox="0 0 24 24" fill="none" xmlns="http://www.w3.org/2000/svg">
<g clip-path="url(#clip0_51_79962)">
<path d="M24.0001 12C23.9997 14.9669 22.8946 17.8274 20.9001 20.024C19.4209 18.8571 18.2928 17.3043 17.6401 15.537L19.5811 14.958L19.0091 13.042L17.1401 13.6C17.0515 13.0712 17.0047 12.5362 17.0001 12C17.0047 11.4638 17.0515 10.9288 17.1401 10.4L19.0061 10.956L19.5781 9.03999L17.6371 8.46099C18.291 6.69401 19.4201 5.14195 20.9001 3.97599C22.8946 6.17255 23.9997 9.03304 24.0001 12V12ZM6.3631 15.537L4.42209 14.958L4.99409 13.042L6.8601 13.6C6.94867 13.0712 6.99549 12.5362 7.0001 12C6.99549 11.4638 6.94867 10.9288 6.8601 10.4L4.99409 10.956L4.42209 9.04199L6.3631 8.46299C5.70955 6.69528 4.58035 5.1425 3.10009 3.97599C1.10346 6.17143 -0.00292969 9.03241 -0.00292969 12C-0.00292969 14.9676 1.10346 17.8285 3.10009 20.024C4.58035 18.8575 5.70955 17.3047 6.3631 15.537V15.537ZM15.7241 16.108L13.8241 16.673L13.2521 14.756L15.2121 14.171C15.0769 13.4551 15.0059 12.7285 15.0001 12C15.0072 11.2713 15.0795 10.5448 15.2161 9.82899L13.2561 9.24399L13.8281 7.32699L15.7281 7.89199C16.4639 5.82552 17.7419 3.99494 19.4281 2.59199C17.3175 0.915524 14.7015 0.00299072 12.0061 0.00299072C9.3107 0.00299072 6.6947 0.915524 4.5841 2.59199C6.27034 3.99494 7.5483 5.82552 8.2841 7.89199L10.1841 7.32699L10.7561 9.24399L8.79609 9.82899C8.92863 10.5451 8.9969 11.2717 9.0001 12C8.99294 12.7286 8.92066 13.4552 8.7841 14.171L10.7441 14.756L10.1721 16.673L8.2721 16.108C7.5363 18.1745 6.25834 20.005 4.57209 21.408C6.6827 23.0845 9.2987 23.997 11.9941 23.997C14.6895 23.997 17.3055 23.0845 19.4161 21.408C17.7328 20.004 16.4577 18.1735 15.7241 16.108V16.108Z" fill="#374957"/>
</g>
<defs>
<clipPath id="clip0_51_79962">
<rect width="24" height="24" fill="white"/>
</clipPath>
</defs>
</svg>
