<svg width="24" height="24" viewBox="0 0 24 24" fill="none" xmlns="http://www.w3.org/2000/svg">
<g clip-path="url(#clip0_51_69284)">
<path d="M3 21.976C2.73478 21.976 2.48043 21.8706 2.29289 21.6831C2.10536 21.4956 2 21.2412 2 20.976V0H0V20.976C0 21.7716 0.31607 22.5347 0.87868 23.0973C1.44129 23.6599 2.20435 23.976 3 23.976H24V21.976H3Z" fill="#374957"/>
<path d="M7.00012 12H5.00012V19H7.00012V12Z" fill="#374957"/>
<path d="M11.9999 9.99985H9.99988V18.9998H11.9999V9.99985Z" fill="#374957"/>
<path d="M17 12.9998H15V18.9998H17V12.9998Z" fill="#374957"/>
<path d="M22.0001 9H20.0001V19H22.0001V9Z" fill="#374957"/>
<path d="M10.9998 4.41415L15.9998 9.41415L23.7068 1.70715L22.2928 0.293152L15.9998 6.58615L10.9998 1.58615L5.29285 7.29315L6.70685 8.70715L10.9998 4.41415Z" fill="#374957"/>
</g>
<defs>
<clipPath id="clip0_51_69284">
<rect width="24" height="24" fill="white"/>
</clipPath>
</defs>
</svg>
