<svg width="24" height="24" viewBox="0 0 24 24" fill="none" xmlns="http://www.w3.org/2000/svg">
<g clip-path="url(#clip0_51_80625)">
<path d="M12 13.9997C11.2044 13.9997 10.4413 14.3158 9.87868 14.8784C9.31607 15.441 9 16.204 9 16.9997V24.0257H15V16.9997C15 16.204 14.6839 15.441 14.1213 14.8784C13.5587 14.3158 12.7956 13.9997 12 13.9997Z" fill="#374957"/>
<path d="M13.338 0.833116C12.9707 0.502553 12.4941 0.319641 12 0.319641C11.5059 0.319641 11.0293 0.502553 10.662 0.833116L0 10.4291V20.8291C0 21.6778 0.337142 22.4917 0.937258 23.0919C1.53737 23.692 2.35131 24.0291 3.2 24.0291H7V17.0001C7 15.674 7.52678 14.4023 8.46447 13.4646C9.40215 12.5269 10.6739 12.0001 12 12.0001C13.3261 12.0001 14.5979 12.5269 15.5355 13.4646C16.4732 14.4023 17 15.674 17 17.0001V24.0261H20.8C21.6487 24.0261 22.4626 23.689 23.0627 23.0889C23.6629 22.4887 24 21.6748 24 20.8261V10.4261L13.338 0.833116Z" fill="#374957"/>
</g>
<defs>
<clipPath id="clip0_51_80625">
<rect width="24" height="24" fill="white"/>
</clipPath>
</defs>
</svg>
