<svg width="24" height="24" viewBox="0 0 24 24" fill="none" xmlns="http://www.w3.org/2000/svg">
<g clip-path="url(#clip0_51_70817)">
<path d="M20.9002 7.0057H2.79321L7.10021 2.7007L5.68221 1.2887L0.73221 6.2377C0.263533 6.70652 0.000244141 7.34229 0.000244141 8.0052C0.000244141 8.66811 0.263533 9.30388 0.73221 9.7727L5.68221 14.7237L7.10021 13.3097L2.80021 9.0097H20.9002C21.1717 8.99148 21.4394 9.08099 21.6453 9.25882C21.8512 9.43665 21.9787 9.68847 22.0002 9.9597V21.0597C21.9785 21.3307 21.8508 21.5823 21.645 21.7599C21.4391 21.9376 21.1715 22.0269 20.9002 22.0087H2.00021V24.0087H20.9002C21.7024 24.0272 22.4793 23.7269 23.0604 23.1735C23.6415 22.6201 23.9795 21.8589 24.0002 21.0567V9.9557C23.979 9.15386 23.6408 8.39313 23.0597 7.84018C22.4787 7.28723 21.7021 6.98716 20.9002 7.0057V7.0057Z" fill="#374957"/>
</g>
<defs>
<clipPath id="clip0_51_70817">
<rect width="24" height="24" fill="white"/>
</clipPath>
</defs>
</svg>
