<svg width="24" height="24" viewBox="0 0 24 24" fill="none" xmlns="http://www.w3.org/2000/svg">
<g clip-path="url(#clip0_51_80157)">
<path d="M23.9994 11.4999C23.9995 10.8103 23.7954 10.1361 23.413 9.56219C23.0306 8.9883 22.4869 8.54041 21.8504 8.27494C21.4494 5.95476 20.2404 3.8513 18.4375 2.33683C16.6346 0.822363 14.354 -0.00543981 11.9994 -6.51483e-05V-6.51483e-05C9.645 -0.00548028 7.36456 0.822182 5.56168 2.33645C3.75879 3.85071 2.54972 5.95395 2.14843 8.27394C1.42349 8.58 0.822847 9.12144 0.443448 9.81083C0.0640494 10.5002 -0.0719636 11.2974 0.0573645 12.0736C0.186693 12.8498 0.573815 13.5597 1.15624 14.0889C1.73867 14.618 2.48242 14.9355 3.26743 14.9899C3.65353 15.8185 4.14821 16.5919 4.73843 17.2899C4.22096 17.5296 3.78254 17.9119 3.47454 18.3919C3.16654 18.8718 3.00174 19.4296 2.99943 19.9999V23.9999H20.9994V19.9999C20.9974 19.4296 20.8328 18.8716 20.525 18.3915C20.2172 17.9113 19.7789 17.5289 19.2614 17.2889C19.851 16.5907 20.3454 15.8173 20.7314 14.9889C21.6166 14.929 22.4461 14.5355 23.0525 13.888C23.659 13.2405 23.9974 12.3871 23.9994 11.4999ZM20.2474 12.9729L19.4124 12.8249L19.1304 13.6249C18.2144 16.2209 15.1294 18.9999 11.9994 18.9999C8.86943 18.9999 5.78543 16.2199 4.86843 13.6239L4.58843 12.8309L3.75843 12.9709C3.67305 12.9878 3.58642 12.9975 3.49943 12.9999C3.12988 12.9932 2.77582 12.8503 2.50517 12.5986C2.23452 12.3469 2.06633 12.0041 2.03286 11.636C1.9994 11.2679 2.10302 10.9004 2.32384 10.604C2.54467 10.3076 2.86715 10.1032 3.22943 10.0299L3.96743 9.89594L4.04543 9.15194C4.1877 7.78663 4.68022 6.48122 5.47528 5.36222C6.27034 4.24321 7.34098 3.34855 8.58343 2.76494C8.46962 3.2766 8.47218 3.8073 8.59094 4.31785C8.7097 4.82839 8.94161 5.30574 9.26956 5.71466C9.59751 6.12357 10.0131 6.4536 10.4857 6.68037C10.9583 6.90715 11.4758 7.02489 11.9999 7.02489C12.5241 7.02489 13.0416 6.90715 13.5142 6.68037C13.9867 6.4536 14.4024 6.12357 14.7303 5.71466C15.0582 5.30574 15.2902 4.82839 15.4089 4.31785C15.5277 3.8073 15.5302 3.2766 15.4164 2.76494C16.6585 3.34818 17.7288 4.24237 18.5237 5.36085C19.3186 6.47933 19.8111 7.78418 19.9534 9.14894L20.0314 9.89294L20.7694 10.0259C21.1359 10.0951 21.4636 10.2982 21.6884 10.5958C21.9132 10.8934 22.0191 11.2641 21.9853 11.6356C21.9516 12.007 21.7807 12.3526 21.506 12.6048C21.2313 12.8571 20.8724 12.998 20.4994 12.9999C20.4149 12.9976 20.3306 12.9886 20.2474 12.9729V12.9729Z" fill="#374957"/>
<path d="M9.5 12.9998C10.3284 12.9998 11 12.3283 11 11.4998C11 10.6714 10.3284 9.99985 9.5 9.99985C8.67157 9.99985 8 10.6714 8 11.4998C8 12.3283 8.67157 12.9998 9.5 12.9998Z" fill="#374957"/>
<path d="M14.5 12.9998C15.3284 12.9998 16 12.3283 16 11.4998C16 10.6714 15.3284 9.99985 14.5 9.99985C13.6716 9.99985 13 10.6714 13 11.4998C13 12.3283 13.6716 12.9998 14.5 12.9998Z" fill="#374957"/>
</g>
<defs>
<clipPath id="clip0_51_80157">
<rect width="24" height="24" fill="white"/>
</clipPath>
</defs>
</svg>
