<svg width="24" height="24" viewBox="0 0 24 24" fill="none" xmlns="http://www.w3.org/2000/svg">
<g clip-path="url(#clip0_51_71984)">
<path d="M22.5139 10.972C22.106 10.6072 21.6247 10.3342 21.1023 10.1714C20.58 10.0085 20.0287 9.95962 19.4859 10.028C17.2987 10.2924 15.1406 10.7577 13.0389 11.418C13.3589 8.913 15.7499 8 17.9999 8C18.7955 8 19.5586 7.68393 20.1212 7.12132C20.6838 6.55871 20.9999 5.79565 20.9999 5C20.9999 4.20435 20.6838 3.44129 20.1212 2.87868C19.5586 2.31607 18.7955 2 17.9999 2C17.0677 1.99978 16.1449 2.18649 15.286 2.54908C14.4272 2.91166 13.6499 3.44277 12.9999 4.111V1C12.9999 0.734784 12.8945 0.48043 12.707 0.292893C12.5194 0.105357 12.2651 0 11.9999 0C11.7346 0 11.4803 0.105357 11.2928 0.292893C11.1052 0.48043 10.9999 0.734784 10.9999 1V4.11C10.3496 3.44214 9.5722 2.91133 8.71342 2.54893C7.85465 2.18653 6.93197 1.99988 5.99986 2C5.20421 2 4.44115 2.31607 3.87854 2.87868C3.31593 3.44129 2.99986 4.20435 2.99986 5C2.99986 5.79565 3.31593 6.55871 3.87854 7.12132C4.44115 7.68393 5.20421 8 5.99986 8C8.24986 8 10.6409 8.913 10.9609 11.418C8.85908 10.7578 6.70097 10.2925 4.51386 10.028C3.97101 9.96001 3.41988 10.0091 2.89758 10.1719C2.37528 10.3348 1.89391 10.6076 1.48586 10.972C1.01519 11.4032 0.640994 11.929 0.387827 12.5149C0.134659 13.1009 0.00823997 13.7337 0.0168621 14.372C0.0168621 23.062 4.85186 24 6.93086 24C8.05979 23.9395 9.14095 23.5249 10.0209 22.815C10.5808 22.3407 11.2702 22.0453 11.9999 21.967C12.7295 22.0453 13.4189 22.3407 13.9789 22.815C14.8589 23.5247 15.94 23.9393 17.0689 24C19.1479 24 23.9829 23.062 23.9829 14.375C23.9917 13.7363 23.8653 13.1029 23.6122 12.5165C23.359 11.93 22.9847 11.4037 22.5139 10.972ZM17.9999 4C18.2651 4 18.5194 4.10536 18.707 4.29289C18.8945 4.48043 18.9999 4.73478 18.9999 5C18.9999 5.26522 18.8945 5.51957 18.707 5.70711C18.5194 5.89464 18.2651 6 17.9999 6C16.3151 5.94531 14.6569 6.43098 13.2679 7.386C13.6055 6.39892 14.243 5.54196 15.0914 4.93489C15.9398 4.32782 16.9566 4.00096 17.9999 4V4ZM5.99986 6C5.73465 6 5.48029 5.89464 5.29276 5.70711C5.10522 5.51957 4.99986 5.26522 4.99986 5C4.99986 4.73478 5.10522 4.48043 5.29276 4.29289C5.48029 4.10536 5.73465 4 5.99986 4C7.04315 4.0012 8.06002 4.32814 8.90852 4.93516C9.75703 5.54218 10.3948 6.399 10.7329 7.386C9.34352 6.43077 7.68501 5.9451 5.99986 6V6ZM17.0689 22C16.3392 21.9217 15.6498 21.6263 15.0899 21.152C14.2097 20.4426 13.1287 20.028 11.9999 19.967C10.871 20.028 9.79001 20.4426 8.90986 21.152C8.34991 21.6263 7.66052 21.9217 6.93086 22C3.76186 22 2.01686 19.292 2.01686 14.375C2.01056 14.019 2.07843 13.6656 2.21616 13.3373C2.35389 13.009 2.55847 12.7129 2.81686 12.468C3.01229 12.2897 3.24462 12.1567 3.49731 12.0784C3.75001 12.0001 4.01686 11.9784 4.27886 12.015C6.78925 12.3104 9.25661 12.8977 11.6309 13.765C11.8696 13.8607 12.1361 13.8607 12.3749 13.765C14.7486 12.8961 17.2162 12.3087 19.7269 12.015C19.9889 11.9789 20.2556 12.0008 20.5082 12.0791C20.7608 12.1573 20.9932 12.2901 21.1889 12.468C21.4475 12.7128 21.6522 13.0088 21.7899 13.3372C21.9277 13.6655 21.9954 14.019 21.9889 14.375C21.9829 19.292 20.2379 22 17.0689 22Z" fill="#374957"/>
<path d="M17.83 15.023C15.309 15.6 12 16.648 12 16.648C14.009 16.861 16.056 18.699 17.114 18.993C18.223 19.301 18.641 18.149 18.981 16.268C19.02 16.1049 19.0183 15.9348 18.9759 15.7726C18.9335 15.6104 18.8518 15.4612 18.738 15.3381C18.6242 15.215 18.4818 15.1218 18.3234 15.0669C18.1651 15.0119 17.9956 14.9968 17.83 15.023Z" fill="#374957"/>
<path d="M5.01893 16.268C5.35894 18.149 5.77694 19.301 6.88594 18.993C7.94394 18.699 9.98595 16.861 11.9999 16.648C11.9999 16.648 8.69094 15.596 6.16994 15.023C6.00435 14.9968 5.83487 15.0119 5.6765 15.0669C5.51812 15.1218 5.37574 15.215 5.26194 15.3381C5.14814 15.4612 5.06643 15.6104 5.02405 15.7726C4.98166 15.9348 4.97991 16.1049 5.01893 16.268Z" fill="#374957"/>
</g>
<defs>
<clipPath id="clip0_51_71984">
<rect width="24" height="24" fill="white"/>
</clipPath>
</defs>
</svg>
