<svg width="24" height="24" viewBox="0 0 24 24" fill="none" xmlns="http://www.w3.org/2000/svg">
<g clip-path="url(#clip0_51_81831)">
<path d="M23.9998 23.01C23.9997 23.1408 23.9736 23.2703 23.9232 23.391C23.8728 23.5117 23.799 23.6212 23.706 23.7133C23.613 23.8053 23.5028 23.878 23.3816 23.9272C23.2603 23.9764 23.1306 24.0012 22.9998 24H0.999777C0.860731 24.0139 0.720303 23.9986 0.587551 23.9549C0.454798 23.9113 0.332667 23.8403 0.229035 23.7465C0.125404 23.6528 0.0425719 23.5384 -0.0141182 23.4106C-0.0708082 23.2829 -0.100098 23.1447 -0.100098 23.005C-0.100098 22.8652 -0.0708082 22.727 -0.0141182 22.5993C0.0425719 22.4716 0.125404 22.3571 0.229035 22.2634C0.332667 22.1696 0.454798 22.0987 0.587551 22.055C0.720303 22.0114 0.860731 21.996 0.999777 22.01H1.99978V22V19.625C2.55089 19.8697 3.14679 19.9974 3.74978 20C4.75677 20.0076 5.73289 19.6526 6.49978 19C7.27114 19.643 8.24286 19.9964 9.24707 19.9991C10.2513 20.0018 11.2249 19.6537 11.9998 19.015C12.7746 19.6537 13.7483 20.0018 14.7525 19.9991C15.7567 19.9964 16.7284 19.643 17.4998 19C18.2667 19.6526 19.2428 20.0076 20.2498 20C20.8528 19.9974 21.4487 19.8697 21.9998 19.625V22V22.01H22.9998C23.265 22.01 23.5194 22.1153 23.7069 22.3029C23.8944 22.4904 23.9998 22.7448 23.9998 23.01ZM8.99978 1.99997C9.19756 1.99997 9.3909 1.94132 9.55535 1.83144C9.7198 1.72156 9.84797 1.56538 9.92366 1.38265C9.99935 1.19993 10.0191 0.998861 9.98056 0.80488C9.94198 0.610899 9.84674 0.432716 9.70688 0.292863C9.56703 0.153011 9.38885 0.0577699 9.19487 0.0191847C9.00089 -0.0194006 8.79982 0.000402763 8.61709 0.0760904C8.43437 0.151778 8.27819 0.279951 8.16831 0.4444C8.05843 0.608849 7.99978 0.802189 7.99978 0.99997C7.99978 1.26519 8.10513 1.51954 8.29267 1.70708C8.48021 1.89461 8.73456 1.99997 8.99978 1.99997ZM14.9998 1.99997C15.1976 1.99997 15.3909 1.94132 15.5553 1.83144C15.7198 1.72156 15.848 1.56538 15.9237 1.38265C15.9993 1.19993 16.0191 0.998861 15.9806 0.80488C15.942 0.610899 15.8467 0.432716 15.7069 0.292863C15.567 0.153011 15.3888 0.0577699 15.1949 0.0191847C15.0009 -0.0194006 14.7998 0.000402763 14.6171 0.0760904C14.4344 0.151778 14.2782 0.279951 14.1683 0.4444C14.0584 0.608849 13.9998 0.802189 13.9998 0.99997C13.9998 1.26519 14.1051 1.51954 14.2927 1.70708C14.4802 1.89461 14.7346 1.99997 14.9998 1.99997ZM3.74978 18C4.81778 18 5.49978 17.343 5.49978 17C5.49978 16.7348 5.60514 16.4804 5.79267 16.2929C5.98021 16.1053 6.23456 16 6.49978 16C6.76499 16 7.01935 16.1053 7.20688 16.2929C7.39442 16.4804 7.49978 16.7348 7.49978 17C7.49978 17.306 8.16078 18 9.24978 18C10.3178 18 10.9998 17.343 10.9998 17C10.9998 16.7348 11.1051 16.4804 11.2927 16.2929C11.4802 16.1053 11.7346 16 11.9998 16C12.265 16 12.5193 16.1053 12.7069 16.2929C12.8944 16.4804 12.9998 16.7348 12.9998 17C12.9998 17.306 13.6608 18 14.7498 18C15.8178 18 16.4998 17.343 16.4998 17C16.4998 16.7348 16.6051 16.4804 16.7927 16.2929C16.9802 16.1053 17.2346 16 17.4998 16C17.765 16 18.0194 16.1053 18.2069 16.2929C18.3944 16.4804 18.4998 16.7348 18.4998 17C18.4998 17.306 19.1608 18 20.2498 18C21.3388 18 21.9998 17.306 21.9998 17C21.9982 15.6744 21.4709 14.4035 20.5336 13.4662C19.5962 12.5289 18.3254 12.0016 16.9998 12H6.99978C5.67418 12.0016 4.40334 12.5289 3.466 13.4662C2.52866 14.4035 2.00137 15.6744 1.99978 17C1.99978 17.306 2.66078 18 3.74978 18ZM16.9998 9.99997C17.6773 10.0004 18.351 10.0998 18.9998 10.295V9.99997C18.9983 9.34941 18.7848 8.71707 18.3916 8.19879C17.9984 7.68052 17.4469 7.30458 16.8208 7.12797L16.1608 3.79997C16.1146 3.57393 15.9918 3.37079 15.813 3.22499C15.6342 3.07919 15.4105 2.99969 15.1798 2.99997H14.8198C14.5891 2.99969 14.3654 3.07919 14.1866 3.22499C14.0078 3.37079 13.8849 3.57393 13.8388 3.79997L13.1998 6.99997H10.2498L10.9998 3.99997C10.9998 3.73475 10.8944 3.4804 10.7069 3.29286C10.5193 3.10533 10.265 2.99997 9.99978 2.99997H7.99978C7.73456 2.99997 7.48021 3.10533 7.29267 3.29286C7.10514 3.4804 6.99978 3.73475 6.99978 3.99997L7.75578 7.02497C7.0066 7.08378 6.30703 7.42254 5.79633 7.97383C5.28563 8.52511 5.00124 9.24849 4.99978 9.99997V10.3C5.64827 10.1031 6.32206 10.002 6.99978 9.99997H16.9998Z" fill="#374957"/>
</g>
<defs>
<clipPath id="clip0_51_81831">
<rect width="24" height="24" fill="white"/>
</clipPath>
</defs>
</svg>
