<svg width="24" height="24" viewBox="0 0 24 24" fill="none" xmlns="http://www.w3.org/2000/svg">
<g clip-path="url(#clip0_51_81098)">
<path d="M10.3221 23.7362C9.4454 23.8907 8.55736 23.9723 7.66714 23.9802C5.57395 24.1235 3.50673 23.4496 1.90014 22.1002C0.154144 20.3492 -0.317856 17.0802 0.256144 13.6712L10.3221 23.7362ZM23.2071 12.6212C22.4802 15.1411 21.1565 17.4487 19.3481 19.3482C17.4458 21.1549 15.1359 22.4763 12.6141 23.2002L0.793144 11.3792C1.52005 8.85928 2.84379 6.55175 4.65214 4.6522C6.55169 2.84385 8.85922 1.52011 11.3791 0.793204L23.2071 12.6212ZM17.7071 10.2932L13.7071 6.2932L12.2931 7.7072L13.5861 9.0002L12.0001 10.5862L10.7071 9.2932L9.29314 10.7072L10.5861 12.0002L9.00014 13.5862L7.70714 12.2932L6.29314 13.7072L10.2931 17.7072L11.7071 16.2932L10.4141 15.0002L12.0001 13.4142L13.2931 14.7072L14.7071 13.2932L13.4141 12.0002L15.0001 10.4142L16.2931 11.7072L17.7071 10.2932ZM23.7441 10.3292C24.3181 6.9202 23.8441 3.6512 22.0981 1.9022C20.3521 0.153204 17.0801 -0.318796 13.6701 0.256204L23.7441 10.3292Z" fill="#374957"/>
</g>
<defs>
<clipPath id="clip0_51_81098">
<rect width="24" height="24" fill="white"/>
</clipPath>
</defs>
</svg>
