<svg width="24" height="24" viewBox="0 0 24 24" fill="none" xmlns="http://www.w3.org/2000/svg">
<g clip-path="url(#clip0_51_80592)">
<path d="M2.09408 12.006H22.0001C22.5305 12.006 23.0392 12.2167 23.4143 12.5918C23.7894 12.9669 24.0001 13.4756 24.0001 14.006C24.0001 14.5364 23.7894 15.0451 23.4143 15.4202C23.0392 15.7953 22.5305 16.006 22.0001 16.006H16.0001C13.591 16.0063 11.263 16.8763 9.44408 18.456C9.04471 18.8065 8.53146 18.9998 8.00008 18.9998C7.46869 18.9998 6.95545 18.8065 6.55608 18.456C5.17543 17.2569 3.49241 16.4593 1.69008 16.15C1.21237 16.0614 0.781144 15.8074 0.472094 15.4325C0.163044 15.0576 -0.00407487 14.5858 7.54837e-05 14.1C7.54837e-05 13.5446 0.220693 13.012 0.613394 12.6193C1.0061 12.2266 1.53871 12.006 2.09408 12.006V12.006ZM1.00008 10.174V9C1.00272 6.61386 1.95178 4.32622 3.63904 2.63896C5.32629 0.951708 7.61394 0.00264685 10.0001 0L14.0001 0C16.3862 0.00264685 18.6739 0.951708 20.3611 2.63896C22.0484 4.32622 22.9974 6.61386 23.0001 9V10.148C22.6741 10.0584 22.3381 10.0107 22.0001 10.006H2.09408C1.72342 10.0115 1.35529 10.068 1.00008 10.174V10.174ZM7.00008 4C7.00008 4.26522 7.10543 4.51957 7.29297 4.70711C7.48051 4.89464 7.73486 5 8.00008 5C8.26529 5 8.51965 4.89464 8.70718 4.70711C8.89472 4.51957 9.00008 4.26522 9.00008 4C9.00008 3.73478 8.89472 3.48043 8.70718 3.29289C8.51965 3.10536 8.26529 3 8.00008 3C7.73486 3 7.48051 3.10536 7.29297 3.29289C7.10543 3.48043 7.00008 3.73478 7.00008 4V4ZM4.00008 7C4.00008 7.26522 4.10543 7.51957 4.29297 7.70711C4.48051 7.89464 4.73486 8 5.00008 8C5.26529 8 5.51965 7.89464 5.70718 7.70711C5.89472 7.51957 6.00008 7.26522 6.00008 7C6.00008 6.73478 5.89472 6.48043 5.70718 6.29289C5.51965 6.10536 5.26529 6 5.00008 6C4.73486 6 4.48051 6.10536 4.29297 6.29289C4.10543 6.48043 4.00008 6.73478 4.00008 7V7ZM22.0001 18.006H16.0001C14.0724 18.006 12.2095 18.702 10.7541 19.966C9.99286 20.6355 9.01383 21.0048 8.00008 21.0048C6.98632 21.0048 6.00729 20.6355 5.24608 19.966C4.14113 19.0068 2.79429 18.369 1.35208 18.122C1.23008 18.101 1.11708 18.059 1.00008 18.028V20C1.00008 21.0609 1.4215 22.0783 2.17165 22.8284C2.92179 23.5786 3.93921 24 5.00008 24H19.0001C20.0609 24 21.0784 23.5786 21.8285 22.8284C22.5786 22.0783 23.0001 21.0609 23.0001 20V17.864C22.6742 17.9541 22.3381 18.0018 22.0001 18.006V18.006Z" fill="#374957"/>
</g>
<defs>
<clipPath id="clip0_51_80592">
<rect width="24" height="24" fill="white"/>
</clipPath>
</defs>
</svg>
