<svg width="24" height="24" viewBox="0 0 24 24" fill="none" xmlns="http://www.w3.org/2000/svg">
<g clip-path="url(#clip0_51_81535)">
<path d="M23.9123 20.0271L22.8553 14.0671C23.2908 13.6738 23.6197 13.1767 23.8113 12.622C24.003 12.0674 24.0511 11.4733 23.9513 10.895C23.8515 10.3168 23.607 9.77321 23.2405 9.31493C22.874 8.85664 22.3975 8.49857 21.8553 8.27406C21.4559 5.98762 20.2736 3.91132 18.5111 2.4011C16.7486 0.89087 14.5156 0.040783 12.195 -0.00343302C9.87432 -0.047649 7.61058 0.716759 5.7918 2.15875C3.97302 3.60074 2.71249 5.6305 2.2263 7.90006L1.5003 12.0001C1.5003 12.0001 3.1073 12.0001 3.2783 11.9871C4.97675 11.9356 6.64573 11.53 8.1783 10.7961C8.06158 11.0124 8.00042 11.2543 8.0003 11.5001C7.99841 11.7913 8.08135 12.0768 8.23899 12.3217C8.39663 12.5666 8.62215 12.7603 8.88803 12.8792C9.15391 12.998 9.44865 13.0369 9.73627 12.9911C10.0239 12.9453 10.2919 12.8167 10.5077 12.6211C10.7235 12.4255 10.8777 12.1713 10.9514 11.8895C11.0251 11.6078 11.0152 11.3107 10.923 11.0344C10.8307 10.7582 10.6599 10.5148 10.4316 10.334C10.2033 10.1531 9.92733 10.0427 9.6373 10.0161C12.4217 8.40389 14.6752 6.01422 16.1213 3.14006C17.1829 3.77524 18.082 4.64895 18.7473 5.69196C19.4126 6.73497 19.8259 7.9186 19.9543 9.14906L20.0323 9.89506L20.7703 10.0281C21.1346 10.0993 21.4596 10.3032 21.6824 10.6001C21.9051 10.8971 22.0098 11.2662 21.9762 11.6359C21.9426 12.0056 21.7731 12.3497 21.5005 12.6017C21.2279 12.8537 20.8715 12.9956 20.5003 13.0001H19.3513L19.1313 13.6241C18.2143 16.2221 15.1303 19.0001 12.0003 19.0001C10.4899 18.8794 9.04065 18.3505 7.80765 17.4698C6.57465 16.5891 5.60427 15.3897 5.0003 14.0001H1.1473L0.0652985 20.1151C-0.0306207 20.5854 -0.0207576 21.0712 0.0941736 21.5373C0.209105 22.0034 0.426229 22.4381 0.729828 22.8099C1.03343 23.1818 1.41591 23.4814 1.84958 23.6873C2.28325 23.8931 2.75726 24 3.2373 24.0001H9.0003V20.4081C9.95433 20.7917 10.972 20.9926 12.0003 21.0001C13.0285 20.9925 14.0461 20.792 15.0003 20.4091V24.0001H20.7623C21.2568 24.0016 21.7451 23.889 22.1891 23.6712C22.6331 23.4534 23.0208 23.1361 23.3223 22.7441C23.6205 22.3657 23.8286 21.9244 23.9308 21.4536C24.0331 20.9829 24.0267 20.495 23.9123 20.0271V20.0271Z" fill="#374957"/>
<path d="M14.5 12.9994C15.3284 12.9994 16 12.3278 16 11.4994C16 10.671 15.3284 9.99939 14.5 9.99939C13.6716 9.99939 13 10.671 13 11.4994C13 12.3278 13.6716 12.9994 14.5 12.9994Z" fill="#374957"/>
</g>
<defs>
<clipPath id="clip0_51_81535">
<rect width="24" height="24" fill="white"/>
</clipPath>
</defs>
</svg>
