<svg width="24" height="24" viewBox="0 0 24 24" fill="none" xmlns="http://www.w3.org/2000/svg">
<g clip-path="url(#clip0_51_70806)">
<path d="M19 4.99939H17V3.99939C17 3.20374 16.6839 2.44068 16.1213 1.87807C15.5587 1.31546 14.7956 0.99939 14 0.99939H3C2.20435 0.99939 1.44129 1.31546 0.87868 1.87807C0.31607 2.44068 0 3.20374 0 3.99939L0 18.9994H2.041C2.01527 19.1648 2.00157 19.332 2 19.4994C2 20.4276 2.36875 21.3179 3.02513 21.9743C3.6815 22.6306 4.57174 22.9994 5.5 22.9994C6.42826 22.9994 7.3185 22.6306 7.97487 21.9743C8.63125 21.3179 9 20.4276 9 19.4994C8.99843 19.332 8.98473 19.1648 8.959 18.9994H15.041C15.0153 19.1648 15.0016 19.332 15 19.4994C15 20.4276 15.3687 21.3179 16.0251 21.9743C16.6815 22.6306 17.5717 22.9994 18.5 22.9994C19.4283 22.9994 20.3185 22.6306 20.9749 21.9743C21.6313 21.3179 22 20.4276 22 19.4994C21.9984 19.332 21.9847 19.1648 21.959 18.9994H24V9.99939C23.9984 8.67379 23.4711 7.40295 22.5338 6.46561C21.5964 5.52827 20.3256 5.00098 19 4.99939V4.99939ZM19 6.99939C19.7956 6.99939 20.5587 7.31546 21.1213 7.87807C21.6839 8.44068 22 9.20374 22 9.99939V10.9994H17V6.99939H19ZM7 19.4994C7 19.8972 6.84196 20.2787 6.56066 20.56C6.27936 20.8414 5.89782 20.9994 5.5 20.9994C5.10218 20.9994 4.72064 20.8414 4.43934 20.56C4.15804 20.2787 4 19.8972 4 19.4994C4.00061 19.3285 4.03212 19.1591 4.093 18.9994H6.907C6.96788 19.1591 6.99939 19.3285 7 19.4994V19.4994ZM15 16.9994H2V3.99939C2 3.73417 2.10536 3.47982 2.29289 3.29228C2.48043 3.10475 2.73478 2.99939 3 2.99939H14C14.2652 2.99939 14.5196 3.10475 14.7071 3.29228C14.8946 3.47982 15 3.73417 15 3.99939V16.9994ZM20 19.4994C20 19.8972 19.842 20.2787 19.5607 20.56C19.2794 20.8414 18.8978 20.9994 18.5 20.9994C18.1022 20.9994 17.7206 20.8414 17.4393 20.56C17.158 20.2787 17 19.8972 17 19.4994C17.0004 19.3285 17.032 19.159 17.093 18.9994H19.907C19.968 19.159 19.9996 19.3285 20 19.4994V19.4994ZM17 16.9994V12.9994H22V16.9994H17Z" fill="#374957"/>
</g>
<defs>
<clipPath id="clip0_51_70806">
<rect width="24" height="24" fill="white"/>
</clipPath>
</defs>
</svg>
