<svg width="24" height="24" viewBox="0 0 24 24" fill="none" xmlns="http://www.w3.org/2000/svg">
<g clip-path="url(#clip0_51_80038)">
<path d="M5.86842 15.5829C4.81376 14.6087 4.0093 13.3948 3.52314 12.0439C3.03697 10.6929 2.8834 9.24478 3.07542 7.82193C3.26528 6.37919 3.80215 5.00401 4.64001 3.81424C5.47786 2.62448 6.59171 1.65562 7.8861 0.990699C9.18048 0.325783 10.6168 -0.015358 12.0719 -0.00348452C13.527 0.00838899 14.9576 0.372923 16.241 1.05887C17.5243 1.74482 18.6222 2.73173 19.4405 3.93501C20.2589 5.13829 20.7732 6.52205 20.9395 7.9677C21.1058 9.41334 20.9191 10.8777 20.3954 12.2354C19.8716 13.5931 19.0265 14.8035 17.9324 15.7629C16.9902 16.6132 16.3559 17.7514 16.1284 18.9999H13.0004V10.8159C13.5833 10.6098 14.0883 10.2287 14.4463 9.72463C14.8043 9.22056 14.9979 8.61819 15.0004 7.99993H13.0004C13.0004 8.26515 12.8951 8.5195 12.7075 8.70704C12.52 8.89457 12.2656 8.99993 12.0004 8.99993C11.7352 8.99993 11.4808 8.89457 11.2933 8.70704C11.1058 8.5195 11.0004 8.26515 11.0004 7.99993H9.00042C9.00298 8.61819 9.1965 9.22056 9.5545 9.72463C9.91251 10.2287 10.4175 10.6098 11.0004 10.8159V18.9999H7.87542C7.57602 17.6807 6.87481 16.4869 5.86842 15.5829V15.5829ZM8.00042 20.9999V23.9999H16.0004V20.9999H8.00042Z" fill="#374957"/>
</g>
<defs>
<clipPath id="clip0_51_80038">
<rect width="24" height="24" fill="white"/>
</clipPath>
</defs>
</svg>
