<svg width="24" height="24" viewBox="0 0 24 24" fill="none" xmlns="http://www.w3.org/2000/svg">
<g clip-path="url(#clip0_51_69251)">
<path d="M21 4H18.492L15.406 0H8.593L5.508 4H3C2.20435 4 1.44129 4.31607 0.87868 4.87868C0.31607 5.44129 0 6.20435 0 7L0 24H24V7C24 6.20435 23.6839 5.44129 23.1213 4.87868C22.5587 4.31607 21.7956 4 21 4V4ZM9.577 2H14.424L15.966 4H8.034L9.577 2ZM22 22H2V7C2 6.73478 2.10536 6.48043 2.29289 6.29289C2.48043 6.10536 2.73478 6 3 6H21C21.2652 6 21.5196 6.10536 21.7071 6.29289C21.8946 6.48043 22 6.73478 22 7V22Z" fill="#374957"/>
<path d="M12 7.99991C10.8133 7.99991 9.65328 8.3518 8.66658 9.01109C7.67989 9.67038 6.91085 10.6075 6.45673 11.7038C6.0026 12.8002 5.88378 14.0066 6.11529 15.1705C6.3468 16.3343 6.91825 17.4034 7.75736 18.2426C8.59648 19.0817 9.66558 19.6531 10.8295 19.8846C11.9933 20.1161 13.1997 19.9973 14.2961 19.5432C15.3925 19.0891 16.3295 18.32 16.9888 17.3333C17.6481 16.3466 18 15.1866 18 13.9999C17.9984 12.4091 17.3658 10.8839 16.2409 9.75902C15.116 8.63415 13.5908 8.0015 12 7.99991V7.99991ZM12 17.9999C11.2089 17.9999 10.4355 17.7653 9.77772 17.3258C9.11993 16.8863 8.60724 16.2615 8.30448 15.5306C8.00173 14.7997 7.92252 13.9955 8.07686 13.2195C8.2312 12.4436 8.61217 11.7309 9.17158 11.1715C9.73099 10.6121 10.4437 10.2311 11.2196 10.0768C11.9956 9.92243 12.7998 10.0016 13.5307 10.3044C14.2616 10.6071 14.8864 11.1198 15.3259 11.7776C15.7654 12.4354 16 13.2088 16 13.9999C16 15.0608 15.5786 16.0782 14.8284 16.8283C14.0783 17.5785 13.0609 17.9999 12 17.9999Z" fill="#374957"/>
</g>
<defs>
<clipPath id="clip0_51_69251">
<rect width="24" height="24" fill="white"/>
</clipPath>
</defs>
</svg>
