<svg width="24" height="24" viewBox="0 0 24 24" fill="none" xmlns="http://www.w3.org/2000/svg">
<g clip-path="url(#clip0_51_71529)">
<path d="M21.1549 3.272L18.8709 0.913C18.5904 0.624966 18.2552 0.39584 17.885 0.239061C17.5148 0.0822824 17.117 0.00100643 16.7149 0L11.9999 0C10.8477 0.00145452 9.73124 0.40009 8.83867 1.12872C7.9461 1.85735 7.33201 2.87141 7.09992 4H6.99992C5.67432 4.00159 4.40347 4.52888 3.46614 5.46622C2.5288 6.40356 2.0015 7.6744 1.99992 9V19C2.0015 20.3256 2.5288 21.5964 3.46614 22.5338C4.40347 23.4711 5.67432 23.9984 6.99992 24H12.9999C14.3255 23.9984 15.5964 23.4711 16.5337 22.5338C17.471 21.5964 17.9983 20.3256 17.9999 19V18.9C19.1285 18.6679 20.1426 18.0538 20.8712 17.1613C21.5998 16.2687 21.9985 15.1522 21.9999 14V5.36C22.0014 4.58042 21.6982 3.83112 21.1549 3.272V3.272ZM12.9999 22H6.99992C6.20427 22 5.44121 21.6839 4.8786 21.1213C4.31599 20.5587 3.99992 19.7956 3.99992 19V9C3.99992 8.20435 4.31599 7.44129 4.8786 6.87868C5.44121 6.31607 6.20427 6 6.99992 6V14C7.0015 15.3256 7.5288 16.5964 8.46614 17.5338C9.40347 18.4711 10.6743 18.9984 11.9999 19H15.9999C15.9999 19.7956 15.6838 20.5587 15.1212 21.1213C14.5586 21.6839 13.7956 22 12.9999 22ZM16.9999 17H11.9999C11.2043 17 10.4412 16.6839 9.8786 16.1213C9.31599 15.5587 8.99992 14.7956 8.99992 14V5C8.99992 4.20435 9.31599 3.44129 9.8786 2.87868C10.4412 2.31607 11.2043 2 11.9999 2H15.9999V4C15.9999 4.53043 16.2106 5.03914 16.5857 5.41421C16.9608 5.78929 17.4695 6 17.9999 6H19.9999V14C19.9999 14.7956 19.6838 15.5587 19.1212 16.1213C18.5586 16.6839 17.7956 17 16.9999 17V17Z" fill="#374957"/>
</g>
<defs>
<clipPath id="clip0_51_71529">
<rect width="24" height="24" fill="white"/>
</clipPath>
</defs>
</svg>
