<svg width="24" height="24" viewBox="0 0 24 24" fill="none" xmlns="http://www.w3.org/2000/svg">
<g clip-path="url(#clip0_51_71138)">
<path d="M10.0001 8.00004C10.3957 8.00004 10.7824 8.11734 11.1113 8.3371C11.4402 8.55686 11.6965 8.86922 11.8479 9.23467C11.9993 9.60013 12.0389 10.0023 11.9617 10.3902C11.8845 10.7782 11.6941 11.1345 11.4144 11.4143C11.1346 11.694 10.7783 11.8844 10.3903 11.9616C10.0024 12.0388 9.60022 11.9992 9.23477 11.8478C8.86932 11.6964 8.55696 11.4401 8.3372 11.1112C8.11744 10.7823 8.00014 10.3956 8.00014 10C8.00014 9.46961 8.21085 8.9609 8.58593 8.58583C8.961 8.21076 9.46971 8.00004 10.0001 8.00004V8.00004ZM24.0001 10C23.9901 13.2937 22.8411 16.4824 20.7479 19.0254C18.6548 21.5684 15.7464 23.309 12.5161 23.952C12.0884 24.0302 11.6486 24.0128 11.2283 23.9011C10.8081 23.7894 10.4177 23.5862 10.0851 23.306C9.74548 23.0232 9.47222 22.6691 9.28471 22.2689C9.0972 21.8686 9.00005 21.432 9.00014 20.99V19.949C7.31732 19.781 5.7046 19.189 4.3128 18.2283C2.92099 17.2676 1.79557 15.9696 1.04179 14.4557C0.288001 12.9418 -0.0695267 11.2614 0.00264053 9.57178C0.0748077 7.88214 0.574312 6.2384 1.45444 4.79428C2.33457 3.35017 3.56657 2.15286 5.03522 1.31432C6.50387 0.475776 8.1612 0.023403 9.85221 -0.000496551C11.5432 -0.0243961 13.2127 0.380958 14.7044 1.17766C16.1962 1.97436 17.4616 3.13638 18.3821 4.55504C18.4538 4.66548 18.503 4.78895 18.5269 4.9184C18.5508 5.04785 18.549 5.18074 18.5215 5.30949C18.4941 5.43824 18.4416 5.56032 18.367 5.66877C18.2923 5.77722 18.1971 5.86991 18.0866 5.94154C17.9762 6.01318 17.8527 6.06236 17.7233 6.08628C17.5938 6.1102 17.4609 6.10838 17.3322 6.08094C17.2034 6.0535 17.0814 6.00097 16.9729 5.92635C16.8645 5.85173 16.7718 5.75648 16.7001 5.64604C15.761 4.19844 14.379 3.09328 12.7603 2.49547C11.1416 1.89767 9.37302 1.83926 7.71841 2.32896C6.0638 2.81866 4.61188 3.83022 3.57928 5.2127C2.54668 6.59519 1.98875 8.27449 1.98875 10C1.98875 11.7256 2.54668 13.4049 3.57928 14.7874C4.61188 16.1699 6.0638 17.1814 7.71841 17.6711C9.37302 18.1608 11.1416 18.1024 12.7603 17.5046C14.379 16.9068 15.761 15.8016 16.7001 14.354C16.7718 14.2439 16.8644 14.149 16.9727 14.0747C17.081 14.0004 17.2029 13.9481 17.3315 13.9209C17.46 13.8937 17.5926 13.8921 17.7217 13.9161C17.8509 13.9402 17.974 13.9894 18.0841 14.061C18.1943 14.1327 18.2892 14.2253 18.3635 14.3336C18.4378 14.4419 18.4901 14.5638 18.5173 14.6924C18.5445 14.8209 18.5461 14.9535 18.5221 15.0826C18.498 15.2118 18.4488 15.3349 18.3771 15.445C17.5636 16.6995 16.478 17.7547 15.2009 18.5324C13.9239 19.31 12.4881 19.7901 11.0001 19.937V20.99C11.0002 21.1392 11.0332 21.2865 11.0966 21.4214C11.16 21.5564 11.2524 21.6758 11.3671 21.771C11.4747 21.8634 11.6016 21.9305 11.7384 21.9674C11.8753 22.0043 12.0188 22.0099 12.1581 21.984C14.4346 21.5328 16.5349 20.4413 18.2124 18.8376C19.89 17.234 21.0749 15.1849 21.6281 12.931C21.4219 12.9764 21.2113 12.9995 21.0001 13C20.4068 13 19.8268 12.8241 19.3334 12.4944C18.8401 12.1648 18.4556 11.6963 18.2285 11.1481C18.0014 10.5999 17.942 9.99671 18.0578 9.41477C18.1735 8.83283 18.4593 8.29828 18.8788 7.87872C19.2984 7.45916 19.8329 7.17344 20.4149 7.05769C20.9968 6.94193 21.6 7.00134 22.1482 7.2284C22.6964 7.45547 23.1649 7.83998 23.4945 8.33333C23.8242 8.82668 24.0001 9.4067 24.0001 10V10ZM22.0001 10C22.0001 9.80226 21.9415 9.60892 21.8316 9.44447C21.7217 9.28002 21.5655 9.15185 21.3828 9.07616C21.2001 9.00047 20.999 8.98067 20.805 9.01926C20.6111 9.05784 20.4329 9.15308 20.293 9.29293C20.1532 9.43279 20.0579 9.61097 20.0194 9.80495C19.9808 9.99893 20.0006 10.2 20.0763 10.3827C20.1519 10.5655 20.2801 10.7216 20.4446 10.8315C20.609 10.9414 20.8024 11 21.0001 11C21.2654 11 21.5197 10.8947 21.7072 10.7071C21.8948 10.5196 22.0001 10.2653 22.0001 10Z" fill="#374957"/>
</g>
<defs>
<clipPath id="clip0_51_71138">
<rect width="24" height="24" fill="white"/>
</clipPath>
</defs>
</svg>
