<svg width="24" height="24" viewBox="0 0 24 24" fill="none" xmlns="http://www.w3.org/2000/svg">
<g clip-path="url(#clip0_51_70239)">
<path d="M17.6129 12.848L14.1999 16.262C11.288 15.0287 8.97239 12.7077 7.74587 9.793L11.1459 6.387L4.88687 0.122L1.71687 3.292C1.1661 3.84463 0.730681 4.50123 0.435919 5.22363C0.141157 5.94603 -0.00706586 6.71981 -0.000133833 7.5C-0.000133833 14.748 9.25187 24 16.4999 24C17.2797 24.0067 18.0531 23.8586 18.7753 23.5642C19.4974 23.2698 20.154 22.835 20.7069 22.285L23.8779 19.113L17.6129 12.848ZM19.2919 20.871C18.9244 21.2346 18.4883 21.5216 18.0091 21.7154C17.5298 21.9092 17.0168 22.0059 16.4999 22C10.2669 22 1.99987 13.734 1.99987 7.5C1.99372 6.98295 2.09046 6.46983 2.28446 5.99051C2.47845 5.51119 2.76583 5.07523 3.12987 4.708L4.88687 2.951L8.32287 6.387L5.38887 9.323L5.63487 9.936C6.35543 11.8655 7.48259 13.6175 8.93987 15.0731C10.3972 16.5286 12.1505 17.6537 14.0809 18.372L14.6869 18.604L17.6129 15.676L21.0499 19.113L19.2919 20.871ZM21.9999 8H19.9999V0H21.9999V8ZM17.9999 8H15.9999V0H17.9999V8Z" fill="#374957"/>
</g>
<defs>
<clipPath id="clip0_51_70239">
<rect width="24" height="24" fill="white"/>
</clipPath>
</defs>
</svg>
