<svg width="24" height="24" viewBox="0 0 24 24" fill="none" xmlns="http://www.w3.org/2000/svg">
<g clip-path="url(#clip0_51_81013)">
<path d="M21.977 11.27C21.7487 8.50094 20.4985 5.91583 18.4695 4.01759C16.4406 2.11935 13.7781 1.04373 11 1V0H6C5.20435 0 4.44129 0.31607 3.87868 0.87868C3.31607 1.44129 3 2.20435 3 3V5H6V7H3V9H6V11H3V13H6V15H3V17H6V19H3V21C3 21.7956 3.31607 22.5587 3.87868 23.1213C4.44129 23.6839 5.20435 24 6 24H11V23C12.5044 22.9976 13.9924 22.6877 15.3728 22.0895C16.7531 21.4912 17.9966 20.6172 19.027 19.521C20.0621 18.4241 20.8586 17.1246 21.3663 15.7045C21.8741 14.2844 22.082 12.7745 21.977 11.27V11.27ZM11 16H10V8H11C12.0609 8 13.0783 8.42143 13.8284 9.17157C14.5786 9.92172 15 10.9391 15 12C15 13.0609 14.5786 14.0783 13.8284 14.8284C13.0783 15.5786 12.0609 16 11 16Z" fill="#374957"/>
</g>
<defs>
<clipPath id="clip0_51_81013">
<rect width="24" height="24" fill="white"/>
</clipPath>
</defs>
</svg>
