<svg width="24" height="24" viewBox="0 0 24 24" fill="none" xmlns="http://www.w3.org/2000/svg">
<g clip-path="url(#clip0_51_81293)">
<path d="M21.038 4.452L21.918 5.332L23.332 3.918L20.145 0.73L18.73 2.145L19.622 3.036L18.574 4.2C16.9518 2.97963 15.0216 2.23546 13 2.051V0H11V2.051C8.97837 2.23546 7.04818 2.97963 5.42597 4.2L4.37797 3.036L5.33197 2.082L3.91797 0.668L0.667969 3.918L2.08197 5.332L2.96197 4.452L3.93997 5.539C2.48296 7.10778 1.51544 9.06766 1.15605 11.1783C0.796659 13.2889 1.06103 15.4586 1.91673 17.4212C2.77244 19.3837 4.18229 21.0539 5.97338 22.2269C7.76447 23.3999 9.85895 24.0247 12 24.0247C14.141 24.0247 16.2355 23.3999 18.0266 22.2269C19.8177 21.0539 21.2275 19.3837 22.0832 17.4212C22.9389 15.4586 23.2033 13.2889 22.8439 11.1783C22.4845 9.06766 21.517 7.10778 20.06 5.539L21.038 4.452ZM12 15C11.5601 15.0015 11.132 14.8575 10.7825 14.5904C10.433 14.3233 10.1816 13.9481 10.0675 13.5233C9.95337 13.0984 9.98295 12.6478 10.1516 12.2415C10.3203 11.8352 10.6185 11.4961 11 11.277V6H13V11.277C13.3814 11.4961 13.6797 11.8352 13.8483 12.2415C14.017 12.6478 14.0466 13.0984 13.9325 13.5233C13.8183 13.9481 13.567 14.3233 13.2174 14.5904C12.8679 14.8575 12.4399 15.0015 12 15V15Z" fill="#374957"/>
</g>
<defs>
<clipPath id="clip0_51_81293">
<rect width="24" height="24" fill="white"/>
</clipPath>
</defs>
</svg>
