<svg width="24" height="24" viewBox="0 0 24 24" fill="none" xmlns="http://www.w3.org/2000/svg">
<g clip-path="url(#clip0_51_69684)">
<path d="M14.4141 0H5.00012C4.20447 0 3.44141 0.31607 2.8788 0.87868C2.31619 1.44129 2.00012 2.20435 2.00012 3V24H22.0001V7.586L14.4141 0ZM15.0001 3.414L18.5861 7H15.0001V3.414ZM4.00012 22V3C4.00012 2.73478 4.10548 2.48043 4.29302 2.29289C4.48055 2.10536 4.73491 2 5.00012 2H13.0001V9H20.0001V22H4.00012ZM13.0001 11H15.0001V13H13.0001V17.5C13.0001 17.9945 12.8535 18.4778 12.5788 18.8889C12.3041 19.3 11.9136 19.6205 11.4568 19.8097C11 19.9989 10.4973 20.0484 10.0124 19.952C9.52744 19.8555 9.08199 19.6174 8.73236 19.2678C8.38272 18.9181 8.14462 18.4727 8.04816 17.9877C7.9517 17.5028 8.0012 17.0001 8.19042 16.5433C8.37964 16.0865 8.70007 15.696 9.1112 15.4213C9.52232 15.1466 10.0057 15 10.5001 15C10.668 15.0003 10.8355 15.0171 11.0001 15.05V13C11.0001 12.4696 11.2108 11.9609 11.5859 11.5858C11.961 11.2107 12.4697 11 13.0001 11V11Z" fill="#374957"/>
</g>
<defs>
<clipPath id="clip0_51_69684">
<rect width="24" height="24" fill="white"/>
</clipPath>
</defs>
</svg>
