<svg width="24" height="24" viewBox="0 0 24 24" fill="none" xmlns="http://www.w3.org/2000/svg">
<path d="M12.0002 0.999818C9.44923 0.998955 6.96446 1.81135 4.90675 3.31901C2.84904 4.82667 1.32556 6.95107 0.55759 9.38365C-0.210381 11.8162 -0.182844 14.4303 0.6362 16.8461C1.45525 19.262 3.02314 21.3538 5.11216 22.8178L5.37116 22.9998H18.6292L18.8882 22.8178C20.9772 21.3538 22.5451 19.262 23.3641 16.8461C24.1832 14.4303 24.2107 11.8162 23.4427 9.38365C22.6748 6.95107 21.1513 4.82667 19.0936 3.31901C17.0358 1.81135 14.5511 0.998955 12.0002 0.999818V0.999818ZM17.9882 20.9998H6.01216C4.33018 19.7423 3.08682 17.9871 2.45838 15.9832C1.82994 13.9794 1.84834 11.8285 2.51095 9.83567C3.17357 7.84283 4.44678 6.10919 6.15001 4.8806C7.85325 3.65201 9.90005 2.99083 12.0002 2.99083C14.1003 2.99083 16.1471 3.65201 17.8503 4.8806C19.5535 6.10919 20.8267 7.84283 21.4894 9.83567C22.152 11.8285 22.1704 13.9794 21.5419 15.9832C20.9135 17.9871 19.6701 19.7423 17.9882 20.9998V20.9998ZM20.0002 12.9998C20.0031 14.0651 19.7915 15.1201 19.3782 16.1019C18.9648 17.0838 18.3581 17.9724 17.5942 18.7148L16.1942 17.2848C16.9575 16.5441 17.5082 15.6122 17.7887 14.5863C18.0692 13.5603 18.0694 12.4779 17.7892 11.4518L19.3642 9.87682C19.7843 10.8644 20.0006 11.9266 20.0002 12.9998ZM6.00016 12.9998C5.99737 13.7983 6.1553 14.5891 6.46454 15.3253C6.77378 16.0615 7.228 16.7279 7.80016 17.2848L6.40016 18.7148C5.07043 17.4107 4.23742 15.6834 4.04475 13.8309C3.85208 11.9783 4.31182 10.1166 5.34472 8.56677C6.37762 7.01689 7.91892 5.87598 9.70288 5.34075C11.4868 4.80552 13.4017 4.90952 15.1172 5.63482L13.5482 7.20982C12.6597 6.96777 11.7273 6.93429 10.8237 7.11199C9.92018 7.28969 9.0699 7.67376 8.33925 8.23423C7.6086 8.79471 7.01733 9.51643 6.61158 10.3431C6.20584 11.1697 5.99659 12.079 6.00016 12.9998V12.9998ZM13.9262 12.4878C14.0465 12.9206 14.0201 13.381 13.8512 13.7972C13.6822 14.2134 13.3802 14.5619 12.9923 14.7883C12.6043 15.0147 12.1523 15.1063 11.7069 15.0487C11.2614 14.9911 10.8475 14.7877 10.5299 14.47C10.2123 14.1524 10.0088 13.7386 9.95125 13.2931C9.89367 12.8476 9.98524 12.3956 10.2117 12.0077C10.4381 11.6198 10.7866 11.3177 11.2028 11.1488C11.619 10.9798 12.0794 10.9535 12.5122 11.0738L16.7932 6.79282L18.2072 8.20682L13.9262 12.4878Z" fill="#374957"/>
</svg>
