<svg width="24" height="24" viewBox="0 0 24 24" fill="none" xmlns="http://www.w3.org/2000/svg">
<g clip-path="url(#clip0_51_69845)">
<path d="M23.6996 24.0002L13.4746 5.60021C14.0518 5.2743 14.5048 4.76639 14.7629 4.15582C15.0209 3.54525 15.0695 2.86641 14.901 2.22531C14.7325 1.58421 14.3565 1.01697 13.8315 0.612182C13.3066 0.207394 12.6624 -0.012146 11.9996 -0.012146C11.3367 -0.012146 10.6925 0.207394 10.1676 0.612182C9.64265 1.01697 9.26658 1.58421 9.09809 2.22531C8.9296 2.86641 8.97819 3.54525 9.23626 4.15582C9.49432 4.76639 9.94735 5.2743 10.5246 5.60021L0.299561 24.0002H23.6996ZM10.3996 22.0002H8.23456L14.2706 11.1472L15.4086 13.1942L10.3996 22.0002ZM16.5426 15.2402L17.6776 17.2842L14.9856 22.0002H12.6996L16.5426 15.2402ZM5.94556 22.0002H3.69956L11.9996 7.05921L13.1266 9.08821L5.94556 22.0002ZM17.2886 22.0002L18.8156 19.3272L20.2996 22.0002H17.2886Z" fill="#374957"/>
</g>
<defs>
<clipPath id="clip0_51_69845">
<rect width="24" height="24" fill="white"/>
</clipPath>
</defs>
</svg>
