<svg width="24" height="24" viewBox="0 0 24 24" fill="none" xmlns="http://www.w3.org/2000/svg">
<g clip-path="url(#clip0_51_70890)">
<path d="M2 5.99C1.46957 5.99 0.960859 6.20071 0.585786 6.57579C0.210714 6.95086 0 7.45957 0 7.99L0 16.004C0 16.5344 0.210714 17.0431 0.585786 17.4182C0.960859 17.7933 1.46957 18.004 2 18.004H4.8L12 24V0L4.8 5.99H2ZM10 4.268V19.729L5.525 16.007H2V7.993H5.525L10 4.268Z" fill="#374957"/>
<path d="M19.9996 12.0005C19.9994 10.6738 19.4728 9.40137 18.5354 8.46248C17.598 7.52358 16.3264 6.99494 14.9996 6.99255H13.9996V8.99255H14.9996C15.7966 8.99255 16.5609 9.30915 17.1245 9.87269C17.688 10.4362 18.0046 11.2006 18.0046 11.9975C18.0046 12.7945 17.688 13.5589 17.1245 14.1224C16.5609 14.6859 15.7966 15.0025 14.9996 15.0025H13.9996V17.0025H14.9996C16.3253 16.9999 17.5958 16.472 18.533 15.5344C19.4701 14.5969 19.9975 13.3262 19.9996 12.0005V12.0005Z" fill="#374957"/>
<path d="M14.9996 2.98427H13.9996V4.98427H14.9996C16.8593 4.98427 18.6429 5.72303 19.9579 7.03804C21.2729 8.35304 22.0116 10.1366 22.0116 11.9963C22.0116 13.856 21.2729 15.6395 19.9579 16.9545C18.6429 18.2695 16.8593 19.0083 14.9996 19.0083H13.9996V21.0083H14.9996C17.3906 21.0083 19.6836 20.0585 21.3742 18.3678C23.0648 16.6772 24.0146 14.3842 24.0146 11.9933C24.0146 9.60235 23.0648 7.30934 21.3742 5.6187C19.6836 3.92806 17.3906 2.97827 14.9996 2.97827V2.98427Z" fill="#374957"/>
</g>
<defs>
<clipPath id="clip0_51_70890">
<rect width="24" height="24" fill="white"/>
</clipPath>
</defs>
</svg>
