<svg width="24" height="24" viewBox="0 0 24 24" fill="none" xmlns="http://www.w3.org/2000/svg">
<g clip-path="url(#clip0_51_71455)">
<path d="M20.527 4.21693L14.5 0.736928C13.7394 0.299549 12.8774 0.0693665 12 0.0693665C11.1226 0.0693665 10.2606 0.299549 9.50002 0.736928L3.47302 4.21693C2.7139 4.65684 2.0835 5.28825 1.6448 6.04808C1.2061 6.80791 0.974458 7.66955 0.973022 8.54693V15.5069C0.974485 16.3844 1.20613 17.2462 1.64481 18.0062C2.0835 18.7662 2.71389 19.3978 3.47302 19.8379L9.50002 23.3169C10.2605 23.7546 11.1226 23.9849 12 23.9849C12.8775 23.9849 13.7395 23.7546 14.5 23.3169L20.527 19.8379C21.2862 19.3978 21.9165 18.7662 22.3552 18.0062C22.7939 17.2462 23.0256 16.3844 23.027 15.5069V8.54693C23.0256 7.66955 22.7939 6.80791 22.3552 6.04808C21.9165 5.28825 21.2861 4.65684 20.527 4.21693V4.21693ZM10.5 2.46993C10.9561 2.20662 11.4734 2.068 12 2.068C12.5266 2.068 13.044 2.20662 13.5 2.46993L19.527 5.94893C19.6798 6.04553 19.8235 6.15599 19.956 6.27893L13.763 9.85393C13.2269 10.163 12.6189 10.3257 12 10.3257C11.3812 10.3257 10.7732 10.163 10.237 9.85393L4.04402 6.27893C4.17659 6.15599 4.3202 6.04553 4.47302 5.94893L10.5 2.46993ZM4.47302 18.1049C4.01723 17.8408 3.63878 17.4617 3.37554 17.0054C3.11229 16.5491 2.97349 16.0317 2.97302 15.5049V8.54693C2.97997 8.36677 3.00374 8.18766 3.04402 8.01193L9.23702 11.5869C9.78397 11.898 10.3803 12.1128 11 12.2219V21.7909C10.8273 21.738 10.6599 21.6691 10.5 21.5849L4.47302 18.1049ZM21.027 15.5049C21.0266 16.0317 20.8878 16.5491 20.6245 17.0054C20.3613 17.4617 19.9828 17.8408 19.527 18.1049L13.5 21.5849C13.3402 21.6691 13.1728 21.738 13 21.7909V12.2219C13.6197 12.1128 14.2161 11.898 14.763 11.5869L20.956 8.01193C20.9963 8.18766 21.0201 8.36677 21.027 8.54693V15.5049Z" fill="#374957"/>
</g>
<defs>
<clipPath id="clip0_51_71455">
<rect width="24" height="24" fill="white"/>
</clipPath>
</defs>
</svg>
