<svg width="24" height="24" viewBox="0 0 24 24" fill="none" xmlns="http://www.w3.org/2000/svg">
<g clip-path="url(#clip0_51_82400)">
<path d="M14 11.0004C13.8022 11.0004 13.6089 10.9417 13.4445 10.8318C13.2801 10.7219 13.152 10.5657 13.0763 10.383C13.0006 10.2003 12.9808 9.99931 13.0194 9.80536C13.058 9.61141 13.1532 9.43324 13.293 9.29339L16.259 6.32739C15.1612 5.43585 13.7794 4.96876 12.3658 5.01135C10.9523 5.05394 9.60113 5.60338 8.559 6.55939C8.39923 6.71836 8.25055 6.88809 8.114 7.06739C7.93491 7.32558 7.70445 7.54402 7.43706 7.70903C7.16966 7.87405 6.87107 7.98209 6.56 8.02639C4.8634 8.14121 3.26537 8.86494 2.06 10.0644C-0.896004 13.0214 -0.640004 18.0894 2.635 21.3644C4.26505 23.0256 6.48679 23.9734 8.814 24.0004C9.7615 24.013 10.7021 23.8375 11.5813 23.4841C12.4605 23.1306 13.2608 22.6063 13.936 21.9414C15.1354 20.736 15.8592 19.138 15.974 17.4414C16.0183 17.1303 16.1263 16.8317 16.2914 16.5643C16.4564 16.2969 16.6748 16.0665 16.933 15.8874C17.1123 15.7508 17.282 15.6022 17.441 15.4424C18.3959 14.3997 18.9445 13.0487 18.9871 11.6355C19.0297 10.2222 18.5634 8.84071 17.673 7.74239L14.707 10.7084C14.5193 10.8956 14.265 11.0006 14 11.0004ZM7.707 19.7074C7.51947 19.8949 7.26516 20.0002 7 20.0002C6.73483 20.0002 6.48052 19.8949 6.293 19.7074L4.293 17.7074C4.11084 17.5188 4.01004 17.2662 4.01232 17.004C4.0146 16.7418 4.11977 16.491 4.30518 16.3056C4.49059 16.1202 4.7414 16.015 5.00359 16.0127C5.26579 16.0104 5.51839 16.1112 5.707 16.2934L7.707 18.2934C7.89447 18.4809 7.99978 18.7352 7.99978 19.0004C7.99978 19.2656 7.89447 19.5199 7.707 19.7074ZM10 17.0004C9.40665 17.0004 8.82663 16.8244 8.33329 16.4948C7.83994 16.1652 7.45542 15.6966 7.22836 15.1484C7.00129 14.6003 6.94188 13.9971 7.05764 13.4151C7.1734 12.8332 7.45912 12.2986 7.87868 11.8791C8.29823 11.4595 8.83278 11.1738 9.41473 11.058C9.99667 10.9423 10.5999 11.0017 11.148 11.2288C11.6962 11.4558 12.1648 11.8403 12.4944 12.3337C12.824 12.827 13 13.407 13 14.0004C13 14.796 12.6839 15.5591 12.1213 16.1217C11.5587 16.6843 10.7956 17.0004 10 17.0004V17.0004ZM11 14.0004C11 14.1982 10.9413 14.3915 10.8315 14.556C10.7216 14.7204 10.5654 14.8486 10.3827 14.9243C10.2 15 9.99889 15.0198 9.80491 14.9812C9.61092 14.9426 9.43274 14.8474 9.29289 14.7075C9.15304 14.5676 9.0578 14.3895 9.01921 14.1955C8.98063 14.0015 9.00043 13.8004 9.07612 13.6177C9.1518 13.435 9.27998 13.2788 9.44443 13.1689C9.60887 13.059 9.80221 13.0004 10 13.0004C10.2652 13.0004 10.5196 13.1057 10.7071 13.2933C10.8946 13.4808 11 13.7352 11 14.0004ZM23.482 3.01839L23.268 3.23239C22.5397 3.95864 21.6378 4.48668 20.648 4.76639L17.673 7.74139C17.4785 7.46845 17.2639 7.2104 17.031 6.96939C16.79 6.73649 16.5319 6.52189 16.259 6.32739L19.234 3.35239C19.5137 2.36261 20.0418 1.46074 20.768 0.732393L20.982 0.518393C21.3153 0.195714 21.7621 0.0169829 22.2261 0.0207493C22.69 0.0245156 23.1338 0.210477 23.4619 0.538526C23.7899 0.866575 23.9759 1.31042 23.9796 1.77434C23.9834 2.23825 23.8047 2.68506 23.482 3.01839Z" fill="#374957"/>
</g>
<defs>
<clipPath id="clip0_51_82400">
<rect width="24" height="24" fill="white"/>
</clipPath>
</defs>
</svg>
