<svg width="24" height="24" viewBox="0 0 24 24" fill="none" xmlns="http://www.w3.org/2000/svg">
<path d="M13.1001 19C12.9023 18.9992 12.7092 18.9397 12.5452 18.8292C12.3812 18.7186 12.2537 18.5619 12.1788 18.3789C12.1039 18.1958 12.0849 17.9947 12.1243 17.8009C12.1637 17.6071 12.2596 17.4293 12.4001 17.29L17.0001 12.71C17.0938 12.6171 17.1682 12.5065 17.219 12.3846C17.2697 12.2627 17.2959 12.132 17.2959 12C17.2959 11.868 17.2697 11.7373 17.219 11.6154C17.1682 11.4936 17.0938 11.383 17.0001 11.29L12.4001 6.71001C12.3063 6.61705 12.2319 6.50645 12.1812 6.38459C12.1304 6.26273 12.1043 6.13203 12.1043 6.00001C12.1043 5.868 12.1304 5.7373 12.1812 5.61544C12.2319 5.49358 12.3063 5.38298 12.4001 5.29001C12.5874 5.10376 12.8409 4.99922 13.1051 4.99922C13.3692 4.99922 13.6227 5.10376 13.8101 5.29001L18.4001 9.88002C18.9619 10.4425 19.2774 11.205 19.2774 12C19.2774 12.795 18.9619 13.5575 18.4001 14.12L13.8101 18.71C13.7166 18.8027 13.6058 18.876 13.484 18.9258C13.3621 18.9756 13.2317 19.0008 13.1001 19Z" fill="#374957"/>
<path d="M6.09999 19C5.90222 18.9992 5.70914 18.9397 5.54515 18.8292C5.38117 18.7186 5.25365 18.5619 5.17873 18.3789C5.1038 18.1958 5.08483 17.9947 5.12422 17.8009C5.1636 17.6071 5.25957 17.4293 5.39999 17.29L10.69 12L5.39999 6.71001C5.30627 6.61705 5.23187 6.50645 5.1811 6.38459C5.13033 6.26273 5.1042 6.13203 5.1042 6.00001C5.1042 5.868 5.13033 5.7373 5.1811 5.61544C5.23187 5.49358 5.30627 5.38298 5.39999 5.29001C5.58736 5.10376 5.84081 4.99922 6.10499 4.99922C6.36918 4.99922 6.62263 5.10376 6.80999 5.29001L12.81 11.29C12.9037 11.383 12.9781 11.4936 13.0289 11.6154C13.0797 11.7373 13.1058 11.868 13.1058 12C13.1058 12.132 13.0797 12.2627 13.0289 12.3846C12.9781 12.5065 12.9037 12.6171 12.81 12.71L6.80999 18.71C6.71655 18.8027 6.60574 18.876 6.4839 18.9258C6.36206 18.9756 6.2316 19.0008 6.09999 19Z" fill="#374957"/>
</svg>
