<svg width="24" height="24" viewBox="0 0 24 24" fill="none" xmlns="http://www.w3.org/2000/svg">
<g clip-path="url(#clip0_51_81493)">
<path d="M18.609 0.811973C18.3589 0.473229 18.0083 0.222058 17.6071 0.0942455C17.2059 -0.0335665 16.7746 -0.0314981 16.3747 0.100156C15.9747 0.23181 15.6265 0.486333 15.3797 0.82746C15.1329 1.16859 15 1.57891 15 1.99997V24H17V19.666C21.8 14.414 24.4 8.15597 18.609 0.811973ZM12 -2.7368e-05V8.99997C12 9.79562 11.6839 10.5587 11.1213 11.1213C10.5587 11.6839 9.79565 12 9 12H8V24H6V12H5C4.20435 12 3.44129 11.6839 2.87868 11.1213C2.31607 10.5587 2 9.79562 2 8.99997V-2.7368e-05H4V8.99997C4 9.26519 4.10536 9.51954 4.29289 9.70708C4.48043 9.89462 4.73478 9.99997 5 9.99997H6V-2.7368e-05H8V9.99997H9C9.26522 9.99997 9.51957 9.89462 9.70711 9.70708C9.89464 9.51954 10 9.26519 10 8.99997V-2.7368e-05H12Z" fill="#374957"/>
</g>
<defs>
<clipPath id="clip0_51_81493">
<rect width="24" height="24" fill="white"/>
</clipPath>
</defs>
</svg>
