<svg width="24" height="24" viewBox="0 0 24 24" fill="none" xmlns="http://www.w3.org/2000/svg">
<g clip-path="url(#clip0_51_70415)">
<path d="M21 1.9991H16.46C15.8997 1.37008 15.2126 0.866701 14.4439 0.522019C13.6753 0.177337 12.8424 -0.000854492 12 -0.000854492C11.1576 -0.000854492 10.3247 0.177337 9.55606 0.522019C8.7874 0.866701 8.10034 1.37008 7.54 1.9991H3C2.20435 1.9991 1.44129 2.31517 0.87868 2.87777C0.31607 3.44038 0 4.20345 0 4.99909L0 23.9991H24V4.99909C24 4.20345 23.6839 3.44038 23.1213 2.87777C22.5587 2.31517 21.7956 1.9991 21 1.9991ZM12 1.9991C13.0609 1.9991 14.0783 2.42052 14.8284 3.17067C15.5786 3.92081 16 4.93823 16 5.99909V6.99909H12.618L13.9 4.44609L12.11 3.5521L10.382 6.99909H8V5.99909C8 4.93823 8.42143 3.92081 9.17157 3.17067C9.92172 2.42052 10.9391 1.9991 12 1.9991V1.9991ZM22 21.9991H2V4.99909C2 4.73388 2.10536 4.47952 2.29289 4.29199C2.48043 4.10445 2.73478 3.9991 3 3.9991H6.35C6.12011 4.64092 6.00173 5.31734 6 5.99909V8.99909H18V5.99909C17.9983 5.31734 17.8799 4.64092 17.65 3.9991H21C21.2652 3.9991 21.5196 4.10445 21.7071 4.29199C21.8946 4.47952 22 4.73388 22 4.99909V21.9991Z" fill="#374957"/>
</g>
<defs>
<clipPath id="clip0_51_70415">
<rect width="24" height="24" fill="white"/>
</clipPath>
</defs>
</svg>
