<svg width="24" height="24" viewBox="0 0 24 24" fill="none" xmlns="http://www.w3.org/2000/svg">
<g clip-path="url(#clip0_51_69226)">
<path d="M0.999878 24H22.9999V3C22.9999 2.20435 22.6838 1.44129 22.1212 0.87868C21.5586 0.31607 20.7955 0 19.9999 0L3.99988 0C3.20423 0 2.44117 0.31607 1.87856 0.87868C1.31595 1.44129 0.999878 2.20435 0.999878 3V24ZM2.99988 3C2.99988 2.73478 3.10523 2.48043 3.29277 2.29289C3.48031 2.10536 3.73466 2 3.99988 2H19.9999C20.2651 2 20.5194 2.10536 20.707 2.29289C20.8945 2.48043 20.9999 2.73478 20.9999 3V22H2.99988V3ZM4.99988 10H18.9999V4H4.99988V10ZM6.99988 6H16.9999V8H6.99988V6ZM4.99988 13H6.99988V15H4.99988V13ZM8.99988 13H10.9999V15H8.99988V13ZM14.9999 13V15H12.9999V13H14.9999ZM4.99988 17H6.99988V19H4.99988V17ZM8.99988 17H10.9999V19H8.99988V17ZM16.9999 13H18.9999V15H16.9999V13ZM12.9999 17H18.9999V19H12.9999V17Z" fill="#374957"/>
</g>
<defs>
<clipPath id="clip0_51_69226">
<rect width="24" height="24" fill="white"/>
</clipPath>
</defs>
</svg>
