<svg width="24" height="24" viewBox="0 0 24 24" fill="none" xmlns="http://www.w3.org/2000/svg">
<g clip-path="url(#clip0_51_81893)">
<path d="M18.7133 12H14.0003C12.8957 12 12.0003 11.1045 12.0003 9.99998V5.274C12.003 4.34166 11.5721 3.46097 10.8343 2.89102C10.1351 2.33733 9.21829 2.13999 8.35326 2.35702C2.47373 3.81652 -1.10944 9.76603 0.350107 15.6456C1.3784 19.788 4.71628 22.9579 8.90629 23.771C14.6302 24.8666 20.2152 21.3079 21.6403 15.657C21.8581 14.7908 21.6612 13.8727 21.1073 13.172C20.5308 12.4355 19.6486 12.0036 18.7133 12Z" fill="#374957"/>
<path d="M23.6509 7.44608C23.4227 6.59755 23.0827 5.78309 22.6399 5.02409C21.3082 2.7395 19.1328 1.06902 16.5819 0.372079C16.4139 0.326751 16.0379 0.300079 16.0379 0.300079C15.9036 0.300126 15.3249 0.300079 14.8669 0.671095C14.1938 1.20083 14.0879 1.80308 14.0779 1.85009C14.043 1.99756 14.0249 2.14855 14.0239 2.30009V7.00011C14.0239 8.65695 15.3671 10.0001 17.0239 10.0001H21.7429C22.369 10.0019 22.9583 9.70466 23.329 9.20009C23.6031 8.83049 23.7441 8.37899 23.7289 7.91909C23.721 7.75897 23.6948 7.60025 23.6509 7.44608Z" fill="#374957"/>
</g>
<defs>
<clipPath id="clip0_51_81893">
<rect width="24" height="24" fill="white"/>
</clipPath>
</defs>
</svg>
