<svg width="24" height="24" viewBox="0 0 24 24" fill="none" xmlns="http://www.w3.org/2000/svg">
<g clip-path="url(#clip0_51_82120)">
<path d="M18.9997 2.00015H9.95572C9.19394 1.99779 8.44182 2.17073 7.75758 2.50557C7.07333 2.84041 6.47528 3.32818 6.00972 3.93115L0.209717 11.3861C0.0731628 11.5617 -0.000976562 11.7777 -0.000976562 12.0001C-0.000976563 12.2225 0.0731628 12.4386 0.209717 12.6141L6.00972 20.0691C6.47528 20.6721 7.07333 21.1599 7.75758 21.4947C8.44182 21.8296 9.19394 22.0025 9.95572 22.0001H18.9997C20.3253 21.9986 21.5962 21.4713 22.5335 20.5339C23.4708 19.5966 23.9981 18.3257 23.9997 17.0001V7.00015C23.9981 5.67455 23.4708 4.4037 22.5335 3.46637C21.5962 2.52903 20.3253 2.00173 18.9997 2.00015V2.00015ZM17.7067 14.2931C17.8022 14.3854 17.8784 14.4957 17.9308 14.6177C17.9832 14.7397 18.0108 14.871 18.012 15.0037C18.0131 15.1365 17.9878 15.2682 17.9375 15.3911C17.8873 15.514 17.813 15.6256 17.7191 15.7195C17.6252 15.8134 17.5136 15.8877 17.3907 15.938C17.2678 15.9882 17.1361 16.0136 17.0033 16.0124C16.8705 16.0112 16.7393 15.9837 16.6173 15.9312C16.4953 15.8788 16.385 15.8027 16.2927 15.7071L13.9997 13.4141L11.7067 15.7071C11.5181 15.8893 11.2655 15.9901 11.0033 15.9878C10.7411 15.9855 10.4903 15.8804 10.3049 15.695C10.1195 15.5096 10.0143 15.2587 10.012 14.9965C10.0098 14.7343 10.1106 14.4817 10.2927 14.2931L12.5857 12.0001L10.2927 9.70715C10.1106 9.51854 10.0098 9.26594 10.012 9.00375C10.0143 8.74155 10.1195 8.49074 10.3049 8.30533C10.4903 8.11992 10.7411 8.01475 11.0033 8.01247C11.2655 8.01019 11.5181 8.11099 11.7067 8.29315L13.9997 10.5861L16.2927 8.29315C16.4813 8.11099 16.7339 8.01019 16.9961 8.01247C17.2583 8.01475 17.5091 8.11992 17.6945 8.30533C17.8799 8.49074 17.9851 8.74155 17.9874 9.00375C17.9897 9.26594 17.8889 9.51854 17.7067 9.70715L15.4137 12.0001L17.7067 14.2931Z" fill="#374957"/>
</g>
<defs>
<clipPath id="clip0_51_82120">
<rect width="24" height="24" fill="white"/>
</clipPath>
</defs>
</svg>
