<svg width="24" height="24" viewBox="0 0 24 24" fill="none" xmlns="http://www.w3.org/2000/svg">
<g clip-path="url(#clip0_51_82302)">
<path d="M10.2067 0.0684078H10.1997C9.97566 0.0177972 9.74105 0.0458376 9.53527 0.147817C9.32949 0.249796 9.16508 0.419499 9.06967 0.628408L0.374673 19.7594C0.167051 20.2164 0.0773928 20.7181 0.113908 21.2187C0.150423 21.7192 0.311944 22.2027 0.583679 22.6246C0.855415 23.0466 1.22868 23.3937 1.66929 23.634C2.1099 23.8744 2.60377 24.0004 3.10567 24.0004H9.99967C10.2649 24.0004 10.5192 23.8951 10.7068 23.7075C10.8943 23.52 10.9997 23.2656 10.9997 23.0004V1.04641C10.9978 0.817685 10.9183 0.596382 10.7742 0.418716C10.6302 0.24105 10.4301 0.117543 10.2067 0.0684078V0.0684078ZM8.99967 22.0004H3.10567C2.93827 22.0005 2.77352 21.9586 2.62652 21.8785C2.47952 21.7984 2.35498 21.6827 2.26431 21.542C2.17365 21.4013 2.11976 21.2401 2.10759 21.0731C2.09543 20.9061 2.12537 20.7388 2.19467 20.5864L8.99967 5.61641V22.0004Z" fill="#374957"/>
<path d="M23.625 19.7589L14.93 0.627868C14.8301 0.417762 14.6614 0.248045 14.452 0.146768C14.2425 0.0454904 14.0047 0.0187155 13.778 0.0708683C13.557 0.121179 13.3597 0.245056 13.2183 0.422198C13.077 0.59934 13 0.819242 13 1.04587V22.9999C13 23.2651 13.1054 23.5194 13.2929 23.707C13.4804 23.8945 13.7348 23.9999 14 23.9999H20.894C21.3959 23.9998 21.8898 23.8739 22.3304 23.6335C22.771 23.3931 23.1442 23.0461 23.416 22.6241C23.6877 22.2021 23.8492 21.7187 23.8858 21.2181C23.9223 20.7176 23.8326 20.2158 23.625 19.7589Z" fill="#374957"/>
</g>
<defs>
<clipPath id="clip0_51_82302">
<rect width="24" height="24" fill="white"/>
</clipPath>
</defs>
</svg>
