<svg width="24" height="24" viewBox="0 0 24 24" fill="none" xmlns="http://www.w3.org/2000/svg">
<g clip-path="url(#clip0_51_80586)">
<path d="M10 15.0001C10 15.1979 9.94138 15.3913 9.8315 15.5557C9.72162 15.7202 9.56544 15.8483 9.38271 15.924C9.19999 15.9997 8.99892 16.0195 8.80494 15.9809C8.61096 15.9423 8.43278 15.8471 8.29293 15.7073C8.15307 15.5674 8.05783 15.3892 8.01925 15.1952C7.98066 15.0013 8.00047 14.8002 8.07615 14.6175C8.15184 14.4347 8.28001 14.2786 8.44446 14.1687C8.60891 14.0588 8.80225 14.0001 9.00003 14.0001C9.26525 14.0001 9.5196 14.1055 9.70714 14.293C9.89467 14.4806 10 14.7349 10 15.0001ZM13.453 11.9611L17.693 7.76115C18.5759 8.85953 19.0359 10.2379 18.9896 11.6463C18.9434 13.0548 18.394 14.4 17.441 15.4381C17.0487 15.8302 16.5943 16.1546 16.096 16.3981C16.0692 16.4097 16.0459 16.4281 16.0284 16.4514C16.0109 16.4747 15.9997 16.5022 15.996 16.5311C16.0544 17.5029 15.9108 18.4762 15.5743 19.3897C15.2379 20.3032 14.7158 21.1371 14.041 21.8388C13.3663 22.5405 12.5535 23.0948 11.6539 23.4668C10.7542 23.8388 9.78732 24.0204 8.81403 24.0001C6.48851 23.9726 4.26844 23.0256 2.63904 21.3661C-0.634957 18.0941 -0.891957 13.0261 2.06404 10.0661C2.7723 9.36765 3.61814 8.82414 4.54779 8.47019C5.47744 8.11623 6.47057 7.95956 7.46403 8.01015C7.52088 7.99059 7.56902 7.95164 7.60003 7.90015C7.84368 7.40224 8.16807 6.94811 8.56003 6.55615C9.60661 5.59828 10.9633 5.04961 12.3815 5.01067C13.7997 4.97174 15.1845 5.44514 16.282 6.34415L12.047 10.5371L13.453 11.9611ZM6.95303 19.5431L4.45304 17.0431L3.04304 18.4571L5.54304 20.9571L6.95303 19.5431ZM12 15.0001C12 14.4068 11.8241 13.8268 11.4944 13.3334C11.1648 12.8401 10.6963 12.4556 10.1481 12.2285C9.5999 12.0014 8.9967 11.942 8.41476 12.0578C7.83282 12.1735 7.29827 12.4593 6.87871 12.8788C6.45916 13.2984 6.17344 13.8329 6.05768 14.4149C5.94192 14.9968 6.00133 15.6 6.2284 16.1482C6.45546 16.6964 6.83998 17.1649 7.33332 17.4946C7.82667 17.8242 8.40669 18.0001 9.00003 18.0001C9.79568 18.0001 10.5587 17.6841 11.1213 17.1215C11.684 16.5589 12 15.7958 12 15.0001V15.0001ZM23.482 0.518146C23.3179 0.353902 23.1231 0.223609 22.9086 0.134713C22.6941 0.0458167 22.4642 6.10352e-05 22.232 6.10352e-05C21.9998 6.10352e-05 21.7699 0.0458167 21.5555 0.134713C21.341 0.223609 21.1461 0.353902 20.982 0.518146L19 2.50015V3.65615L16.282 6.34615C16.5464 6.53547 16.7967 6.74368 17.031 6.96915C17.2716 7.21869 17.4929 7.48613 17.693 7.76915L20.485 5.00015H21.5L23.482 3.01815C23.6463 2.85405 23.7766 2.65918 23.8654 2.4447C23.9543 2.23022 24.0001 2.00032 24.0001 1.76815C24.0001 1.53597 23.9543 1.30607 23.8654 1.09159C23.7766 0.877108 23.6463 0.682247 23.482 0.518146V0.518146Z" fill="#374957"/>
</g>
<defs>
<clipPath id="clip0_51_80586">
<rect width="24" height="24" fill="white"/>
</clipPath>
</defs>
</svg>
