<svg width="24" height="24" viewBox="0 0 24 24" fill="none" xmlns="http://www.w3.org/2000/svg">
<g clip-path="url(#clip0_51_82002)">
<path d="M19.6751 2.75817C18.4081 1.70383 16.9364 0.923335 15.3529 0.465873C13.7693 0.00841028 12.1081 -0.116105 10.4741 0.100174C7.45114 0.492892 4.69096 2.02135 2.754 4.37518C0.817033 6.72902 -0.151521 9.73179 0.0450001 12.7738C0.241521 15.8158 1.58838 18.669 3.81211 20.754C6.03584 22.8391 8.96974 23.9997 12.0181 24.0002H19.0001C20.3257 23.9986 21.5965 23.4713 22.5339 22.534C23.4712 21.5966 23.9985 20.3258 24.0001 19.0002V11.3092V11.2462C23.8942 9.61162 23.4561 8.01583 22.7125 6.55639C21.9688 5.09695 20.9353 3.80453 19.6751 2.75817V2.75817ZM8.00008 7.00017H12.0001C12.2653 7.00017 12.5196 7.10553 12.7072 7.29307C12.8947 7.4806 13.0001 7.73496 13.0001 8.00017C13.0001 8.26539 12.8947 8.51974 12.7072 8.70728C12.5196 8.89482 12.2653 9.00017 12.0001 9.00017H8.00008C7.73486 9.00017 7.48051 8.89482 7.29297 8.70728C7.10543 8.51974 7.00008 8.26539 7.00008 8.00017C7.00008 7.73496 7.10543 7.4806 7.29297 7.29307C7.48051 7.10553 7.73486 7.00017 8.00008 7.00017V7.00017ZM16.0001 17.0002H8.00008C7.73486 17.0002 7.48051 16.8948 7.29297 16.7073C7.10543 16.5197 7.00008 16.2654 7.00008 16.0002C7.00008 15.735 7.10543 15.4806 7.29297 15.2931C7.48051 15.1055 7.73486 15.0002 8.00008 15.0002H16.0001C16.2653 15.0002 16.5196 15.1055 16.7072 15.2931C16.8947 15.4806 17.0001 15.735 17.0001 16.0002C17.0001 16.2654 16.8947 16.5197 16.7072 16.7073C16.5196 16.8948 16.2653 17.0002 16.0001 17.0002ZM16.0001 13.0002H8.00008C7.73486 13.0002 7.48051 12.8948 7.29297 12.7073C7.10543 12.5197 7.00008 12.2654 7.00008 12.0002C7.00008 11.735 7.10543 11.4806 7.29297 11.2931C7.48051 11.1055 7.73486 11.0002 8.00008 11.0002H16.0001C16.2653 11.0002 16.5196 11.1055 16.7072 11.2931C16.8947 11.4806 17.0001 11.735 17.0001 12.0002C17.0001 12.2654 16.8947 12.5197 16.7072 12.7073C16.5196 12.8948 16.2653 13.0002 16.0001 13.0002Z" fill="#374957"/>
</g>
<defs>
<clipPath id="clip0_51_82002">
<rect width="24" height="24" fill="white"/>
</clipPath>
</defs>
</svg>
