<svg width="24" height="24" viewBox="0 0 24 24" fill="none" xmlns="http://www.w3.org/2000/svg">
<g clip-path="url(#clip0_51_69333)">
<path d="M19.0251 22.026V18.545L18.6501 18.245C16.1001 16.2 15.1001 13.937 15.0381 10.026H17.0251V8.02598H15.4691C15.8295 7.42082 16.0215 6.7303 16.0251 6.02598C16.0251 4.75098 14.9341 2.90298 13.7181 0.960978C13.538 0.674864 13.2883 0.439085 12.9923 0.275673C12.6963 0.112261 12.3637 0.0265503 12.0256 0.0265503C11.6875 0.0265503 11.355 0.112261 11.059 0.275673C10.763 0.439085 10.5133 0.674864 10.3331 0.960978C9.11715 2.89998 8.02615 4.75098 8.02615 6.02598C8.03029 6.73023 8.22222 7.42063 8.58215 8.02598H7.02615V10.026H9.01315C8.94815 13.937 7.95415 16.2 5.40015 18.245L5.02515 18.545V22.026H3.02515V24.026H21.0251V22.026H19.0251ZM10.0251 6.02598C10.0251 5.21998 11.4251 2.97898 12.0251 2.02598C12.6251 2.98198 14.0251 5.22598 14.0251 6.02598C14.0251 6.55641 13.8144 7.06512 13.4394 7.44019C13.0643 7.81526 12.5556 8.02598 12.0251 8.02598C11.4947 8.02598 10.986 7.81526 10.6109 7.44019C10.2359 7.06512 10.0251 6.55641 10.0251 6.02598ZM13.0251 10.026C13.0661 13.065 13.5901 15.675 15.5601 18.026H8.48615C10.4561 15.675 10.9801 13.065 11.0211 10.026H13.0251ZM7.02515 20.026H17.0251V22.026H7.02515V20.026Z" fill="#374957"/>
</g>
<defs>
<clipPath id="clip0_51_69333">
<rect width="24" height="24" fill="white"/>
</clipPath>
</defs>
</svg>
