<svg width="24" height="24" viewBox="0 0 24 24" fill="none" xmlns="http://www.w3.org/2000/svg">
<g clip-path="url(#clip0_51_81379)">
<path d="M21.9998 2V5.362C20.8522 3.6338 19.2763 2.23261 17.4257 1.29516C15.5751 0.357701 13.5131 -0.0839939 11.4409 0.0131724C9.36865 0.110339 7.35702 0.743048 5.60227 1.84956C3.84752 2.95607 2.40959 4.49858 1.4288 6.32658C0.44801 8.15457 -0.0421374 10.2056 0.00618658 12.2795C0.0545106 14.3535 0.639656 16.3794 1.70452 18.1598C2.76939 19.9401 4.2776 21.414 6.08198 22.4376C7.88637 23.4611 9.92529 23.9995 11.9998 24V22C10.2446 21.9992 8.52058 21.5364 7.00093 20.6582C5.48127 19.78 4.21953 18.5173 3.34249 16.9969C2.46545 15.4766 2.004 13.7522 2.00452 11.997C2.00505 10.2419 2.46751 8.51776 3.34546 6.99795C4.2234 5.47814 5.48589 4.21617 7.00606 3.33886C8.52624 2.46155 10.2505 1.99979 12.0057 2C13.7609 2.00021 15.4851 2.46237 17.005 3.34005C18.525 4.21772 19.7872 5.47998 20.6648 7H16.9998V9H21.9998C22.5302 9 23.0389 8.78929 23.414 8.41422C23.7891 8.03914 23.9998 7.53044 23.9998 7V2H21.9998Z" fill="#374957"/>
<path d="M13 13H7V11H11V6H13V13Z" fill="#374957"/>
<path d="M21 24C20.2044 24 19.4413 23.6839 18.8787 23.1213C18.3161 22.5587 18 21.7956 18 21V18C18 17.2044 18.3161 16.4413 18.8787 15.8787C19.4413 15.3161 20.2044 15 21 15C21.7956 15 22.5587 15.3161 23.1213 15.8787C23.6839 16.4413 24 17.2044 24 18V21C24 21.7956 23.6839 22.5587 23.1213 23.1213C22.5587 23.6839 21.7956 24 21 24ZM21 17C20.7348 17 20.4804 17.1054 20.2929 17.2929C20.1054 17.4804 20 17.7348 20 18V21C20 21.2652 20.1054 21.5196 20.2929 21.7071C20.4804 21.8946 20.7348 22 21 22C21.2652 22 21.5196 21.8946 21.7071 21.7071C21.8946 21.5196 22 21.2652 22 21V18C22 17.7348 21.8946 17.4804 21.7071 17.2929C21.5196 17.1054 21.2652 17 21 17Z" fill="#374957"/>
<path d="M17 24.0006H15V18.4146L13.707 19.7076L12.293 18.2936L15.293 15.2936C15.4328 15.1538 15.611 15.0586 15.8049 15.0201C15.9989 14.9815 16.1999 15.0013 16.3826 15.077C16.5653 15.1526 16.7215 15.2808 16.8314 15.4452C16.9412 15.6096 16.9999 15.8029 17 16.0006V24.0006Z" fill="#374957"/>
</g>
<defs>
<clipPath id="clip0_51_81379">
<rect width="24" height="24" fill="white"/>
</clipPath>
</defs>
</svg>
