<svg width="24" height="24" viewBox="0 0 24 24" fill="none" xmlns="http://www.w3.org/2000/svg">
<g clip-path="url(#clip0_51_72183)">
<path d="M21.977 11.264C21.613 5.724 16.474 1.041 10.731 1C10.5555 0.696116 10.3032 0.443739 9.9994 0.268212C9.69556 0.0926844 9.35089 0.00018439 8.99999 0L6.99999 0C5.93913 0 4.92171 0.421427 4.17157 1.17157C3.42142 1.92172 2.99999 2.93913 2.99999 4V20C2.99999 21.0609 3.42142 22.0783 4.17157 22.8284C4.92171 23.5786 5.93913 24 6.99999 24H8.99999C9.35089 23.9998 9.69556 23.9073 9.9994 23.7318C10.3032 23.5563 10.5555 23.3039 10.731 23H11C12.5047 22.9974 13.993 22.6873 15.3736 22.0887C16.7541 21.4901 17.9977 20.6157 19.028 19.519C20.0634 18.4216 20.86 17.1214 21.3676 15.7006C21.8752 14.2797 22.0827 12.7691 21.977 11.264ZM17.568 18.151C16.7297 19.0542 15.7132 19.7737 14.5827 20.2641C13.4522 20.7545 12.2323 21.0051 11 21H9.99999C9.73478 21 9.48042 21.1054 9.29289 21.2929C9.10535 21.4804 8.99999 21.7348 8.99999 22H6.99999C6.46956 22 5.96085 21.7893 5.58578 21.4142C5.21071 21.0391 4.99999 20.5304 4.99999 20V19H5.99999C6.26521 19 6.51956 18.8946 6.7071 18.7071C6.89464 18.5196 6.99999 18.2652 6.99999 18C6.99999 17.7348 6.89464 17.4804 6.7071 17.2929C6.51956 17.1054 6.26521 17 5.99999 17H4.99999V15H5.99999C6.26521 15 6.51956 14.8946 6.7071 14.7071C6.89464 14.5196 6.99999 14.2652 6.99999 14C6.99999 13.7348 6.89464 13.4804 6.7071 13.2929C6.51956 13.1054 6.26521 13 5.99999 13H4.99999V11H5.99999C6.26521 11 6.51956 10.8946 6.7071 10.7071C6.89464 10.5196 6.99999 10.2652 6.99999 10C6.99999 9.73478 6.89464 9.48043 6.7071 9.29289C6.51956 9.10536 6.26521 9 5.99999 9H4.99999V7H5.99999C6.26521 7 6.51956 6.89464 6.7071 6.70711C6.89464 6.51957 6.99999 6.26522 6.99999 6C6.99999 5.73478 6.89464 5.48043 6.7071 5.29289C6.51956 5.10536 6.26521 5 5.99999 5H4.99999V4C4.99999 3.46957 5.21071 2.96086 5.58578 2.58579C5.96085 2.21071 6.46956 2 6.99999 2H8.99999C8.99999 2.26522 9.10535 2.51957 9.29289 2.70711C9.48042 2.89464 9.73478 3 9.99999 3H10.656C15.413 3 19.683 6.844 19.98 11.394C20.0673 12.6259 19.898 13.8625 19.4829 15.0255C19.0677 16.1886 18.4156 17.2529 17.568 18.151ZM11 7C10.4696 7 9.96085 7.21071 9.58578 7.58579C9.21071 7.96086 8.99999 8.46957 8.99999 9V15C9.00614 15.5234 9.2159 16.0238 9.58479 16.3951C9.95367 16.7664 10.4527 16.9794 10.976 16.989C12.2142 16.9754 13.4049 16.511 14.3253 15.6827C15.2457 14.8543 15.8325 13.7189 15.976 12.489C16.0442 11.7945 15.9664 11.0934 15.7473 10.4308C15.5283 9.76823 15.1731 9.15883 14.7044 8.64181C14.2357 8.12479 13.6639 7.71161 13.0259 7.42885C12.388 7.14609 11.6978 7 11 7V7ZM11 15V9C11.4193 8.99985 11.8341 9.08763 12.2174 9.25766C12.6007 9.42769 12.9442 9.6762 13.2255 9.98715C13.5069 10.2981 13.72 10.6646 13.8509 11.063C13.9819 11.4613 14.0279 11.8827 13.986 12.3C13.8932 13.0327 13.541 13.7079 12.9932 14.2032C12.4454 14.6986 11.7383 14.9812 11 15V15Z" fill="#374957"/>
</g>
<defs>
<clipPath id="clip0_51_72183">
<rect width="24" height="24" fill="white"/>
</clipPath>
</defs>
</svg>
