<svg width="24" height="24" viewBox="0 0 24 24" fill="none" xmlns="http://www.w3.org/2000/svg">
<g clip-path="url(#clip0_51_71036)">
<path d="M17.2459 6.19301C18.2399 5.10476 18.85 3.72086 18.9829 2.25301C19.0215 1.95033 18.9903 1.64284 18.8917 1.35408C18.7931 1.06532 18.6297 0.80295 18.4141 0.587049C18.1985 0.371148 17.9364 0.207442 17.6478 0.108464C17.3591 0.0094849 17.0517 -0.0221426 16.7489 0.0160022C15.8385 0.087504 14.9544 0.355535 14.1575 0.801628C13.3606 1.24772 12.6699 1.86127 12.1329 2.60001C11.793 1.74937 11.3123 0.962039 10.7109 0.271003C10.5243 0.0860312 10.2724 -0.0180701 10.0097 -0.018795C9.74696 -0.0195199 9.49449 0.0831899 9.30688 0.267129C9.11926 0.451068 9.01157 0.701456 9.00709 0.964161C9.00261 1.22687 9.10171 1.48078 9.28295 1.671C10.2743 2.90543 10.8544 4.4192 10.9419 6.00001H8.49995C6.18085 6.07088 3.98431 7.05774 2.39122 8.74455C0.798128 10.4314 -0.0617109 12.6807 -5.12644e-05 15C-0.161051 20.6 5.64395 25.773 10.7499 23.385C11.1399 23.1371 11.5932 23.007 12.0553 23.0103C12.5174 23.0137 12.9687 23.1504 13.3549 23.404C14.0078 23.7815 14.746 23.9866 15.4999 24C25.7639 23.716 27.0659 8.58201 17.2459 6.19301ZM14.2229 3.16801C14.9986 2.4897 15.9726 2.08004 16.9999 2V2C16.918 3.02517 16.5089 3.99689 15.8329 4.77201C15.0566 5.44989 14.0824 5.85948 13.0549 5.94001C13.1362 4.91448 13.5458 3.94243 14.2229 3.16801V3.16801ZM15.4999 22C15.0593 21.9831 14.6305 21.8518 14.2559 21.619C13.5695 21.2226 12.7926 21.0094 11.9999 21C11.2495 21.0175 10.5151 21.2212 9.86295 21.593C6.00495 23.261 1.89995 19.141 1.99995 15C1.93828 13.211 2.58742 11.4704 3.80545 10.1587C5.02348 8.84697 6.71132 8.07085 8.49995 8.00001H15.4999C24.0999 8.32101 24.0999 21.682 15.4999 22Z" fill="#374957"/>
</g>
<defs>
<clipPath id="clip0_51_71036">
<rect width="24" height="24" fill="white"/>
</clipPath>
</defs>
</svg>
