<svg width="24" height="24" viewBox="0 0 24 24" fill="none" xmlns="http://www.w3.org/2000/svg">
<g clip-path="url(#clip0_51_69323)">
<path d="M24 24H0V3C0 2.20435 0.31607 1.44129 0.87868 0.87868C1.44129 0.31607 2.20435 0 3 0L21 0C21.7956 0 22.5587 0.31607 23.1213 0.87868C23.6839 1.44129 24 2.20435 24 3V24ZM2 22H22V3C22 2.73478 21.8946 2.48043 21.7071 2.29289C21.5196 2.10536 21.2652 2 21 2H3C2.73478 2 2.48043 2.10536 2.29289 2.29289C2.10536 2.48043 2 2.73478 2 3V22Z" fill="#374957"/>
<path d="M9.33321 17.9192C9.07047 17.9199 8.81019 17.8685 8.56746 17.7679C8.32473 17.6673 8.10439 17.5196 7.91921 17.3332L3.29321 12.7072L4.70721 11.2932L9.33321 15.9192L19.2932 5.96017L20.7072 7.37417L10.7482 17.3332C10.5628 17.5196 10.3423 17.6674 10.0994 17.768C9.85655 17.8686 9.59611 17.92 9.33321 17.9192V17.9192Z" fill="#374957"/>
</g>
<defs>
<clipPath id="clip0_51_69323">
<rect width="24" height="24" fill="white"/>
</clipPath>
</defs>
</svg>
