<svg width="24" height="24" viewBox="0 0 24 24" fill="none" xmlns="http://www.w3.org/2000/svg">
<g clip-path="url(#clip0_51_69436)">
<path d="M4 23.9998L5.333 21.3328L8 19.9998L5.333 18.6668L4 15.9998L2.667 18.6668L0 19.9998L2.667 21.3328L4 23.9998Z" fill="#374957"/>
<path d="M21.3329 21.3328L23.9999 19.9998L21.3329 18.6668L19.9999 15.9998L18.6669 18.6668L15.9999 19.9998L18.6669 21.3328L19.9999 23.9998L21.3329 21.3328Z" fill="#374957"/>
<path d="M13.3331 2.667L12.0001 0L10.6671 2.667L8.00012 4L10.6671 5.333L12.0001 8L13.3331 5.333L16.0001 4L13.3331 2.667Z" fill="#374957"/>
<path d="M4.99988 14C5.55216 14 5.99987 13.5523 5.99987 13C5.99987 12.4477 5.55216 12 4.99988 12C4.44759 12 3.99988 12.4477 3.99988 13C3.99988 13.5523 4.44759 14 4.99988 14Z" fill="#374957"/>
<path d="M1 10.0001C1.55228 10.0001 2 9.55243 2 9.00015C2 8.44787 1.55228 8.00015 1 8.00015C0.447715 8.00015 0 8.44787 0 9.00015C0 9.55243 0.447715 10.0001 1 10.0001Z" fill="#374957"/>
<path d="M4.99988 5.99984C5.55216 5.99984 5.99987 5.55213 5.99987 4.99985C5.99987 4.44756 5.55216 3.99985 4.99988 3.99985C4.44759 3.99985 3.99988 4.44756 3.99988 4.99985C3.99988 5.55213 4.44759 5.99984 4.99988 5.99984Z" fill="#374957"/>
<path d="M1 2C1.55228 2 2 1.55228 2 1C2 0.447715 1.55228 0 1 0C0.447715 0 0 0.447715 0 1C0 1.55228 0.447715 2 1 2Z" fill="#374957"/>
<path d="M22.9999 14C23.5521 14 23.9999 13.5523 23.9999 13C23.9999 12.4477 23.5521 12 22.9999 12C22.4476 12 21.9999 12.4477 21.9999 13C21.9999 13.5523 22.4476 14 22.9999 14Z" fill="#374957"/>
<path d="M19 10.0001C19.5523 10.0001 20 9.55243 20 9.00015C20 8.44787 19.5523 8.00015 19 8.00015C18.4477 8.00015 18 8.44787 18 9.00015C18 9.55243 18.4477 10.0001 19 10.0001Z" fill="#374957"/>
<path d="M22.9999 5.99984C23.5521 5.99984 23.9999 5.55213 23.9999 4.99985C23.9999 4.44756 23.5521 3.99985 22.9999 3.99985C22.4476 3.99985 21.9999 4.44756 21.9999 4.99985C21.9999 5.55213 22.4476 5.99984 22.9999 5.99984Z" fill="#374957"/>
<path d="M19 2C19.5523 2 20 1.55228 20 1C20 0.447715 19.5523 0 19 0C18.4477 0 18 0.447715 18 1C18 1.55228 18.4477 2 19 2Z" fill="#374957"/>
<path d="M13.9999 23.9999C14.5522 23.9999 14.9999 23.5521 14.9999 22.9999C14.9999 22.4476 14.5522 21.9999 13.9999 21.9999C13.4476 21.9999 12.9999 22.4476 12.9999 22.9999C12.9999 23.5521 13.4476 23.9999 13.9999 23.9999Z" fill="#374957"/>
<path d="M10 20C10.5523 20 11 19.5523 11 19C11 18.4477 10.5523 18 10 18C9.44771 18 9 18.4477 9 19C9 19.5523 9.44771 20 10 20Z" fill="#374957"/>
<path d="M13.9999 16.0002C14.5522 16.0002 14.9999 15.5524 14.9999 15.0002C14.9999 14.4479 14.5522 14.0002 13.9999 14.0002C13.4476 14.0002 12.9999 14.4479 12.9999 15.0002C12.9999 15.5524 13.4476 16.0002 13.9999 16.0002Z" fill="#374957"/>
<path d="M10 11.9999C10.5523 11.9999 11 11.5521 11 10.9999C11 10.4476 10.5523 9.99985 10 9.99985C9.44771 9.99985 9 10.4476 9 10.9999C9 11.5521 9.44771 11.9999 10 11.9999Z" fill="#374957"/>
</g>
<defs>
<clipPath id="clip0_51_69436">
<rect width="24" height="24" fill="white"/>
</clipPath>
</defs>
</svg>
