<svg width="24" height="24" viewBox="0 0 24 24" fill="none" xmlns="http://www.w3.org/2000/svg">
<g clip-path="url(#clip0_51_81971)">
<path d="M18.3851 7.37301C18.2082 7.3194 18.0472 7.22315 17.9162 7.09272C17.7853 6.96229 17.6884 6.80167 17.6341 6.62501C17.3278 5.58706 16.8142 4.62202 16.1242 3.78831C15.4343 2.95459 14.5823 2.26953 13.62 1.77457C12.6576 1.27961 11.6048 0.985056 10.5253 0.908721C9.44586 0.832387 8.3621 0.975863 7.33966 1.33047C6.31722 1.68507 5.37736 2.24343 4.57694 2.97176C3.77652 3.70008 3.1322 4.58323 2.68295 5.56777C2.2337 6.5523 1.98888 7.61774 1.96329 8.69963C1.9377 9.78151 2.13188 10.8573 2.53407 11.862C2.62614 12.0738 2.64556 12.31 2.58931 12.5339C2.53305 12.7579 2.40428 12.9569 2.22307 13.1C1.4268 13.691 0.805119 14.4863 0.423825 15.4017C0.0425303 16.3171 -0.0841907 17.3185 0.0570735 18.3C0.277527 19.6269 0.966398 20.8308 1.99866 21.6931C3.03091 22.5555 4.33814 23.0192 5.68307 23H14.0001V15.414L12.7071 16.707C12.5185 16.8892 12.2659 16.99 12.0037 16.9877C11.7415 16.9854 11.4907 16.8802 11.3053 16.6948C11.1198 16.5094 11.0147 16.2586 11.0124 15.9964C11.0101 15.7342 11.1109 15.4816 11.2931 15.293L12.8791 13.707C13.4417 13.1446 14.2046 12.8287 15.0001 12.8287C15.7956 12.8287 16.5585 13.1446 17.1211 13.707L18.7071 15.293C18.8026 15.3853 18.8788 15.4956 18.9312 15.6176C18.9836 15.7396 19.0112 15.8708 19.0123 16.0036C19.0135 16.1364 18.9882 16.2681 18.9379 16.391C18.8876 16.5139 18.8134 16.6255 18.7195 16.7194C18.6256 16.8133 18.5139 16.8876 18.391 16.9378C18.2681 16.9881 18.1365 17.0134 18.0037 17.0123C17.8709 17.0111 17.7397 16.9835 17.6177 16.9311C17.4957 16.8787 17.3853 16.8025 17.2931 16.707L16.0001 15.414V22.987C17.9905 22.9472 19.8982 22.183 21.3655 20.8375C22.8329 19.492 23.7593 17.6576 23.9711 15.678C24.13 13.8636 23.6622 12.0496 22.6457 10.5384C21.6292 9.02709 20.1255 7.9099 18.3851 7.37301V7.37301Z" fill="#374957"/>
</g>
<defs>
<clipPath id="clip0_51_81971">
<rect width="24" height="24" fill="white"/>
</clipPath>
</defs>
</svg>
