<svg width="24" height="24" viewBox="0 0 24 24" fill="none" xmlns="http://www.w3.org/2000/svg">
<g clip-path="url(#clip0_51_71727)">
<path d="M12.9999 15.9997C14.5822 15.9997 16.1289 15.5305 17.4445 14.6514C18.7601 13.7724 19.7855 12.523 20.391 11.0611C20.9965 9.59934 21.1549 7.99081 20.8462 6.43896C20.5376 4.88711 19.7756 3.46165 18.6568 2.34283C17.538 1.22401 16.1125 0.46208 14.5607 0.153398C13.0088 -0.155283 11.4003 0.00314337 9.93848 0.608644C8.47667 1.21415 7.22724 2.23953 6.34819 3.55512C5.46914 4.87071 4.99995 6.41743 4.99995 7.99968C5.00233 10.1207 5.84595 12.1541 7.34572 13.6539C8.8455 15.1537 10.8789 15.9973 12.9999 15.9997ZM12.9999 1.99968C14.1866 1.99968 15.3467 2.35157 16.3334 3.01086C17.3201 3.67015 18.0891 4.60722 18.5432 5.70358C18.9974 6.79994 19.1162 8.00634 18.8847 9.17022C18.6531 10.3341 18.0817 11.4032 17.2426 12.2423C16.4035 13.0814 15.3344 13.6529 14.1705 13.8844C13.0066 14.1159 11.8002 13.9971 10.7038 13.543C9.60749 13.0888 8.67042 12.3198 8.01113 11.3331C7.35184 10.3464 6.99995 9.18637 6.99995 7.99968C7.00154 6.40887 7.63419 4.88367 8.75906 3.75879C9.88394 2.63392 11.4091 2.00127 12.9999 1.99968V1.99968ZM22.9069 14.7727C21.8991 16.2412 20.5768 17.4667 19.0361 18.3603C17.4954 19.2539 15.7751 19.7931 13.9999 19.9387V21.9997H17.9999C18.2652 21.9997 18.5195 22.105 18.7071 22.2926C18.8946 22.4801 18.9999 22.7345 18.9999 22.9997C18.9999 23.2649 18.8946 23.5193 18.7071 23.7068C18.5195 23.8943 18.2652 23.9997 17.9999 23.9997H7.99995C7.73473 23.9997 7.48038 23.8943 7.29284 23.7068C7.10531 23.5193 6.99995 23.2649 6.99995 22.9997C6.99995 22.7345 7.10531 22.4801 7.29284 22.2926C7.48038 22.105 7.73473 21.9997 7.99995 21.9997H11.9999V19.9487C9.81739 19.7671 7.72621 18.9914 5.95323 17.7057C4.18024 16.42 2.79313 14.6733 1.94235 12.6552C1.09157 10.6372 0.809593 8.42463 1.12701 6.25766C1.44442 4.09069 2.34911 2.05199 3.74295 0.362681C3.91189 0.158199 4.15514 0.0292042 4.4192 0.00407435C4.68325 -0.0210555 4.94647 0.0597378 5.15095 0.228681C5.35543 0.397624 5.48442 0.640877 5.50955 0.904928C5.53468 1.16898 5.45389 1.4322 5.28495 1.63668C4.4265 2.67919 3.7881 3.88478 3.40826 5.18074C3.02843 6.47669 2.91502 7.83616 3.07488 9.17713C3.23475 10.5181 3.66457 11.8128 4.33843 12.9831C5.01228 14.1535 5.91621 15.1752 6.99569 15.9867C8.07516 16.7982 9.30782 17.3826 10.6193 17.7047C11.9308 18.0268 13.294 18.08 14.6265 17.8609C15.9591 17.6419 17.2335 17.1552 18.3729 16.4302C19.5123 15.7053 20.493 14.757 21.2559 13.6427C21.4058 13.4237 21.6365 13.2733 21.8972 13.2244C22.158 13.1756 22.4275 13.2323 22.6464 13.3822C22.8654 13.532 23.0158 13.7627 23.0647 14.0235C23.1135 14.2842 23.0568 14.5537 22.9069 14.7727Z" fill="#374957"/>
</g>
<defs>
<clipPath id="clip0_51_71727">
<rect width="24" height="24" fill="white"/>
</clipPath>
</defs>
</svg>
