<svg width="24" height="24" viewBox="0 0 24 24" fill="none" xmlns="http://www.w3.org/2000/svg">
<g clip-path="url(#clip0_51_80222)">
<path d="M1.414 0L0 1.414L4.293 5.707L2 8H7C7.26522 8 7.51957 7.89464 7.70711 7.70711C7.89464 7.51957 8 7.26522 8 7V2L5.707 4.293L1.414 0Z" fill="#374957"/>
<path d="M22 15.9999H17C16.7348 15.9999 16.4804 16.1052 16.2929 16.2928C16.1054 16.4803 16 16.7347 16 16.9999V21.9999L18.293 19.7069L22.586 23.9999L24 22.5859L19.707 18.2929L22 15.9999Z" fill="#374957"/>
<path d="M17 8H22L19.707 5.707L24 1.414L22.586 0L18.293 4.293L16 2V7C16 7.26522 16.1054 7.51957 16.2929 7.70711C16.4804 7.89464 16.7348 8 17 8Z" fill="#374957"/>
<path d="M7 15.9999H2L4.293 18.2929L0 22.5859L1.414 23.9999L5.707 19.7069L8 21.9999V16.9999C8 16.7347 7.89464 16.4803 7.70711 16.2928C7.51957 16.1052 7.26522 15.9999 7 15.9999Z" fill="#374957"/>
</g>
<defs>
<clipPath id="clip0_51_80222">
<rect width="24" height="24" fill="white"/>
</clipPath>
</defs>
</svg>
