<svg width="24" height="24" viewBox="0 0 24 24" fill="none" xmlns="http://www.w3.org/2000/svg">
<g clip-path="url(#clip0_51_71267)">
<path d="M18.7128 11.9999H13.9998C13.4694 11.9999 12.9607 11.7892 12.5856 11.4141C12.2106 11.039 11.9998 10.5303 11.9998 9.99989V5.27389C12.0012 4.81387 11.8968 4.35971 11.6946 3.9465C11.4924 3.53329 11.1979 3.17211 10.8338 2.89089C10.4889 2.6177 10.0857 2.42747 9.65555 2.33488C9.22537 2.24228 8.77966 2.24982 8.35285 2.35689C5.9285 2.9587 3.78218 4.36995 2.26882 6.35725C0.755461 8.34456 -0.0342771 10.7889 0.0302084 13.286C0.0946938 15.783 1.00954 18.1833 2.62345 20.0899C4.23737 21.9964 6.45367 23.295 8.90585 23.7709C11.663 24.2986 14.5175 23.7523 16.8849 22.2438C19.2523 20.7353 20.9534 18.3788 21.6398 15.6569C21.7473 15.2295 21.7552 14.7832 21.6627 14.3523C21.5703 13.9215 21.3801 13.5176 21.1068 13.1719C20.8223 12.8083 20.4591 12.514 20.0444 12.311C19.6298 12.108 19.1745 12.0017 18.7128 11.9999ZM19.7008 15.1679C19.318 16.7098 18.5324 18.1223 17.4245 19.2609C16.3166 20.3996 14.9262 21.2235 13.3954 21.6485C11.8646 22.0734 10.2484 22.0842 8.71205 21.6796C7.17574 21.275 5.77447 20.4696 4.65156 19.3457C3.52864 18.2219 2.7244 16.8199 2.32107 15.2833C1.91774 13.7466 1.92981 12.1304 2.35605 10.6C2.78228 9.06955 3.60738 7.67978 4.74695 6.57283C5.88652 5.46589 7.29967 4.6815 8.84185 4.29989C8.97378 4.26693 9.1116 4.26532 9.24427 4.29518C9.37694 4.32505 9.50077 4.38557 9.60585 4.47189C9.72994 4.5665 9.83057 4.68842 9.89994 4.8282C9.96931 4.96797 10.0055 5.12185 10.0058 5.27789V9.99989C10.0058 11.0608 10.4273 12.0782 11.1774 12.8283C11.9276 13.5785 12.945 13.9999 14.0058 13.9999H18.7178C18.8753 14.0005 19.0305 14.0369 19.1718 14.1061C19.3131 14.1754 19.4369 14.2759 19.5338 14.3999C19.6189 14.5064 19.6781 14.6312 19.7069 14.7644C19.7357 14.8977 19.7333 15.0357 19.6998 15.1679H19.7008Z" fill="#374957"/>
<path d="M23.6512 7.44611C23.1908 5.75358 22.2965 4.21061 21.0566 2.96989C19.8168 1.72916 18.2744 0.8337 16.5822 0.372109C16.4048 0.324418 16.2219 0.300211 16.0382 0.300109C15.774 0.297598 15.5119 0.347476 15.267 0.446861C15.0222 0.546246 14.7994 0.693167 14.6117 0.879135C14.424 1.0651 14.275 1.28643 14.1733 1.53033C14.0716 1.77423 14.0192 2.03586 14.0192 2.30011V7.00011C14.0192 7.79576 14.3353 8.55882 14.8979 9.12143C15.4605 9.68404 16.2236 10.0001 17.0192 10.0001H21.7382C22.0469 9.99714 22.3507 9.92305 22.6261 9.78359C22.9015 9.64413 23.141 9.44306 23.3261 9.19599C23.5111 8.94893 23.6367 8.66253 23.6931 8.35905C23.7495 8.05556 23.7352 7.74316 23.6512 7.44611V7.44611ZM21.1532 8.00011H17.0152C16.75 8.00011 16.4957 7.89475 16.3081 7.70722C16.1206 7.51968 16.0152 7.26533 16.0152 7.00011L16.0072 2.30711C16.0145 2.30182 16.0232 2.2987 16.0322 2.29811H16.0582C17.4203 2.66919 18.6613 3.39102 19.6573 4.39155C20.6532 5.39208 21.3694 6.63633 21.7342 8.00011H21.1532Z" fill="#374957"/>
</g>
<defs>
<clipPath id="clip0_51_71267">
<rect width="24" height="24" fill="white"/>
</clipPath>
</defs>
</svg>
