<svg width="24" height="24" viewBox="0 0 24 24" fill="none" xmlns="http://www.w3.org/2000/svg">
<g clip-path="url(#clip0_51_70555)">
<path d="M21.8352 2.16561C21.149 1.47927 20.3344 0.934826 19.4378 0.563373C18.5412 0.191919 17.5802 0.000732422 16.6097 0.000732422C15.6392 0.000732422 14.6782 0.191919 13.7816 0.563373C12.885 0.934826 12.0704 1.47927 11.3842 2.16561L2.16521 11.3846C1.47593 12.0702 0.9287 12.885 0.554853 13.7824C0.181006 14.6798 -0.0121063 15.6421 -0.013421 16.6142C-0.0147356 17.5864 0.175773 18.5493 0.547192 19.4477C0.91861 20.3461 1.46364 21.1623 2.15105 21.8498C2.83847 22.5372 3.65476 23.0822 4.55316 23.4536C5.45156 23.825 6.41442 24.0155 7.38657 24.0142C8.35872 24.0129 9.32105 23.8198 10.2184 23.446C11.1158 23.0721 11.9307 22.5249 12.6162 21.8356L21.8352 12.6166C22.5215 11.9305 23.066 11.1158 23.4374 10.2192C23.8089 9.3226 24.0001 8.36161 24.0001 7.39111C24.0001 6.42061 23.8089 5.45961 23.4374 4.56301C23.066 3.66641 22.5215 2.85177 21.8352 2.16561V2.16561ZM20.4212 11.2006L11.2002 20.4216C10.7036 20.939 10.1088 21.3522 9.45055 21.6368C8.7923 21.9214 8.08387 22.0718 7.36676 22.0792C6.64965 22.0866 5.93827 21.9507 5.27431 21.6797C4.61035 21.4087 4.00715 21.0079 3.50004 20.5008C2.99294 19.9937 2.59213 19.3905 2.3211 18.7265C2.05007 18.0625 1.91426 17.3512 1.92163 16.6341C1.92901 15.9169 2.07941 15.2085 2.36404 14.5503C2.64866 13.892 3.06179 13.2972 3.57921 12.8006L12.8002 3.57961C13.2968 3.06219 13.8916 2.64906 14.5499 2.36444C15.2081 2.07981 15.9165 1.92941 16.6337 1.92204C17.3508 1.91466 18.0621 2.05047 18.7261 2.3215C19.3901 2.59254 19.9933 2.99334 20.5004 3.50045C21.0075 4.00755 21.4083 4.61075 21.6793 5.27471C21.9503 5.93867 22.0861 6.65005 22.0788 7.36716C22.0714 8.08427 21.921 8.79271 21.6364 9.45096C21.3517 10.1092 20.9386 10.704 20.4212 11.2006ZM18.2932 8.29361L19.7072 9.70761L16.7072 12.7076L15.2932 11.2936L16.0862 10.5006L13.5002 7.91461L12.7072 8.70761L11.2932 7.29361L14.2932 4.29361L15.7072 5.70761L14.9142 6.50061L17.5002 9.08661L18.2932 8.29361ZM11.2932 15.2936L12.7072 16.7076L9.70721 19.7076L8.29321 18.2936L9.08621 17.5006L6.50021 14.9146L5.70721 15.7076L4.29321 14.2936L7.29321 11.2936L8.70721 12.7076L7.91421 13.5006L10.5002 16.0866L11.2932 15.2936Z" fill="#374957"/>
</g>
<defs>
<clipPath id="clip0_51_70555">
<rect width="24" height="24" fill="white"/>
</clipPath>
</defs>
</svg>
