<svg width="24" height="24" viewBox="0 0 24 24" fill="none" xmlns="http://www.w3.org/2000/svg">
<g clip-path="url(#clip0_51_81376)">
<path d="M23.9999 3.00023V6.00023C23.9999 6.79588 23.6838 7.55894 23.1212 8.12155C22.5586 8.68416 21.7956 9.00023 20.9999 9.00023H17.9999V7.00023H20.6369C19.8228 5.59422 18.6782 4.40794 17.3021 3.54421C15.926 2.68048 14.3601 2.16536 12.74 2.04349C11.1199 1.92163 9.4945 2.19669 8.00471 2.84485C6.51492 3.49301 5.20567 4.4947 4.19043 5.76312C3.17519 7.03154 2.4846 8.5284 2.1785 10.124C1.8724 11.7196 1.96003 13.3657 2.4338 14.9198C2.90757 16.4739 3.75319 17.889 4.89735 19.0424C6.04152 20.1959 7.44971 21.0529 8.9999 21.5392V23.6052C7.11583 23.1186 5.37845 22.1809 3.9377 20.873C2.49694 19.565 1.39608 17.9262 0.730109 16.0978C0.0641385 14.2694 -0.146938 12.3064 0.115095 10.3783C0.377128 8.45011 1.1044 6.61466 2.23415 5.03031C3.3639 3.44597 4.8622 2.16031 6.59975 1.28429C8.3373 0.408276 10.2619 -0.0317937 12.2075 0.00205952C14.1531 0.0359127 16.0612 0.542672 17.7673 1.47861C19.4733 2.41454 20.926 3.75154 21.9999 5.37423V3.00023H23.9999ZM16.9999 21.0002C16.9999 21.7959 16.6838 22.5589 16.1212 23.1216C15.5586 23.6842 14.7955 24.0002 13.9999 24.0002C13.2043 24.0002 12.4412 23.6842 11.8786 23.1216C11.316 22.5589 10.9999 21.7959 10.9999 21.0002V18.0002C10.9999 17.2046 11.316 16.4415 11.8786 15.8789C12.4412 15.3163 13.2043 15.0002 13.9999 15.0002H15.9999V17.0002H13.9999C13.7347 17.0002 13.4803 17.1056 13.2928 17.2931C13.1053 17.4807 12.9999 17.735 12.9999 18.0002V18.1712C13.4524 18.0112 13.9368 17.9622 14.4122 18.0281C14.8876 18.0941 15.3403 18.2732 15.7322 18.5503C16.1241 18.8275 16.4437 19.1946 16.6643 19.6209C16.8849 20.0472 17 20.5202 16.9999 21.0002ZM14.9999 21.0002C14.9999 20.8025 14.9413 20.6091 14.8314 20.4447C14.7215 20.2802 14.5653 20.152 14.3826 20.0764C14.1999 20.0007 13.9988 19.9809 13.8048 20.0194C13.6108 20.058 13.4326 20.1533 13.2928 20.2931C13.1529 20.433 13.0577 20.6112 13.0191 20.8051C12.9805 20.9991 13.0003 21.2002 13.076 21.3829C13.1517 21.5656 13.2799 21.7218 13.4443 21.8317C13.6088 21.9416 13.8021 22.0002 13.9999 22.0002C14.2651 22.0002 14.5195 21.8949 14.707 21.7073C14.8945 21.5198 14.9999 21.2654 14.9999 21.0002ZM23.9999 18.0002V21.0002C23.9999 21.7959 23.6838 22.5589 23.1212 23.1216C22.5586 23.6842 21.7956 24.0002 20.9999 24.0002C20.2043 24.0002 19.4412 23.6842 18.8786 23.1216C18.316 22.5589 17.9999 21.7959 17.9999 21.0002V18.0002C17.9999 17.2046 18.316 16.4415 18.8786 15.8789C19.4412 15.3163 20.2043 15.0002 20.9999 15.0002C21.7956 15.0002 22.5586 15.3163 23.1212 15.8789C23.6838 16.4415 23.9999 17.2046 23.9999 18.0002ZM21.9999 18.0002C21.9999 17.735 21.8945 17.4807 21.707 17.2931C21.5195 17.1056 21.2651 17.0002 20.9999 17.0002C20.7347 17.0002 20.4803 17.1056 20.2928 17.2931C20.1053 17.4807 19.9999 17.735 19.9999 18.0002V21.0002C19.9999 21.2654 20.1053 21.5198 20.2928 21.7073C20.4803 21.8949 20.7347 22.0002 20.9999 22.0002C21.2651 22.0002 21.5195 21.8949 21.707 21.7073C21.8945 21.5198 21.9999 21.2654 21.9999 21.0002V18.0002ZM12.9999 6.00023H10.9999V11.0002H6.9999V13.0002H12.9999V6.00023Z" fill="#374957"/>
</g>
<defs>
<clipPath id="clip0_51_81376">
<rect width="24" height="24" fill="white"/>
</clipPath>
</defs>
</svg>
