<svg width="24" height="24" viewBox="0 0 24 24" fill="none" xmlns="http://www.w3.org/2000/svg">
<g clip-path="url(#clip0_51_80151)">
<path d="M2.14306 8.03893C3.53836 5.25641 5.5575 2.83378 8.04306 0.959934C8.86728 0.355959 9.85787 0.0211716 10.8795 0.00130459C11.9011 -0.0185624 12.904 0.27746 13.7511 0.848934L23.3321 7.99993H2.67306C2.49573 8.00126 2.31868 8.01429 2.14306 8.03893V8.03893ZM24.0001 9.99993V23.9999H15.0001C15.0001 23.2043 14.684 22.4412 14.1214 21.8786C13.5588 21.316 12.7957 20.9999 12.0001 20.9999C11.2044 20.9999 10.4413 21.316 9.87874 21.8786C9.31613 22.4412 9.00006 23.2043 9.00006 23.9999H4.83306C-0.528941 23.9219 -0.647941 14.8419 0.884059 11.1309C1.04441 10.7922 1.29772 10.5061 1.61446 10.3059C1.9312 10.1056 2.29833 9.99953 2.67306 9.99993H24.0001ZM9.00006 14.9999C9.00006 14.4695 8.78935 13.9608 8.41427 13.5857C8.0392 13.2106 7.53049 12.9999 7.00006 12.9999C6.46963 12.9999 5.96092 13.2106 5.58585 13.5857C5.21077 13.9608 5.00006 14.4695 5.00006 14.9999C5.00006 15.5304 5.21077 16.0391 5.58585 16.4141C5.96092 16.7892 6.46963 16.9999 7.00006 16.9999C7.53049 16.9999 8.0392 16.7892 8.41427 16.4141C8.78935 16.0391 9.00006 15.5304 9.00006 14.9999ZM20.0001 17.9999C20.0001 17.4695 19.7893 16.9608 19.4143 16.5857C19.0392 16.2106 18.5305 15.9999 18.0001 15.9999C17.4696 15.9999 16.9609 16.2106 16.5858 16.5857C16.2108 16.9608 16.0001 17.4695 16.0001 17.9999C16.0001 18.5304 16.2108 19.0391 16.5858 19.4141C16.9609 19.7892 17.4696 19.9999 18.0001 19.9999C18.5305 19.9999 19.0392 19.7892 19.4143 19.4141C19.7893 19.0391 20.0001 18.5304 20.0001 17.9999Z" fill="#374957"/>
</g>
<defs>
<clipPath id="clip0_51_80151">
<rect width="24" height="24" fill="white"/>
</clipPath>
</defs>
</svg>
