<svg width="24" height="24" viewBox="0 0 24 24" fill="none" xmlns="http://www.w3.org/2000/svg">
<g clip-path="url(#clip0_51_80673)">
<path d="M24 4.00031H10V6.0003H24V4.00031Z" fill="#374957"/>
<path d="M24 11.0006H10V13.0006H24V11.0006Z" fill="#374957"/>
<path d="M24 18H10V20H24V18Z" fill="#374957"/>
<path d="M8 6.00028L4.707 2.70728C4.51947 2.51981 4.26516 2.41449 4 2.41449C3.73484 2.41449 3.48053 2.51981 3.293 2.70728L0 6.00028H3V18.0003H0L3.293 21.2933C3.48053 21.4807 3.73484 21.5861 4 21.5861C4.26516 21.5861 4.51947 21.4807 4.707 21.2933L8 18.0003H5V6.00028H8Z" fill="#374957"/>
</g>
<defs>
<clipPath id="clip0_51_80673">
<rect width="24" height="24" fill="white"/>
</clipPath>
</defs>
</svg>
