<svg width="24" height="24" viewBox="0 0 24 24" fill="none" xmlns="http://www.w3.org/2000/svg">
<g clip-path="url(#clip0_51_70043)">
<path d="M14.5 13.0001C14.2033 13.0001 13.9133 12.9121 13.6666 12.7473C13.42 12.5825 13.2277 12.3482 13.1142 12.0741C13.0006 11.8001 12.9709 11.4985 13.0288 11.2075C13.0867 10.9165 13.2296 10.6492 13.4393 10.4395C13.6491 10.2297 13.9164 10.0868 14.2074 10.0289C14.4983 9.97106 14.7999 10.0008 15.074 10.1143C15.3481 10.2278 15.5824 10.4201 15.7472 10.6668C15.912 10.9134 16 11.2034 16 11.5001C16 11.8979 15.842 12.2795 15.5607 12.5608C15.2794 12.8421 14.8978 13.0001 14.5 13.0001ZM21.851 8.27412C21.4495 5.98987 20.2666 3.91618 18.5047 2.40804C16.7427 0.899892 14.5113 0.0510735 12.1925 0.00688266C9.87365 -0.0373082 7.61155 0.725877 5.79342 2.16579C3.97529 3.60571 2.71419 5.63282 2.226 7.90012L1.5 12.0001H3C4.79556 11.9891 6.56622 11.5792 8.184 10.8001C8.06556 11.0146 8.00233 11.2551 8 11.5001C7.99864 11.7914 8.0821 12.0767 8.2402 12.3213C8.3983 12.5659 8.62419 12.7592 8.89031 12.8776C9.15642 12.996 9.45125 13.0344 9.73879 12.988C10.0263 12.9416 10.2942 12.8125 10.5096 12.6165C10.725 12.4205 10.8787 12.166 10.9519 11.8841C11.025 11.6021 11.0146 11.305 10.9217 11.029C10.8289 10.7529 10.6577 10.5098 10.429 10.3294C10.2003 10.1491 9.92409 10.0391 9.634 10.0131C11.7676 8.68194 13.5745 6.88802 14.921 4.76412C14.3321 4.43722 13.692 4.2127 13.028 4.10012C11.49 6.37912 8.217 9.56312 3.893 9.95912L4.188 8.29012C4.59636 6.43709 5.65007 4.78954 7.16098 3.64167C8.67188 2.49379 10.5416 1.92032 12.4363 2.02367C14.3309 2.12702 16.1272 2.90046 17.5043 4.20587C18.8814 5.51128 19.7496 7.26367 19.954 9.15012L20.032 9.89512L20.77 10.0281C21.1343 10.0994 21.4593 10.3032 21.6821 10.6002C21.9048 10.8972 22.0095 11.2662 21.9759 11.6359C21.9423 12.0057 21.7728 12.3498 21.5002 12.6018C21.2276 12.8537 20.8712 12.9957 20.5 13.0001C20.414 13.0001 19.413 12.8251 19.413 12.8251L19.131 13.6251C18.215 16.2211 15.13 19.0001 12 19.0001C8.974 19.0001 5.977 16.3811 4.959 13.8471C4.31057 13.9455 3.65584 13.9966 3 14.0001H2.88C2.942 14.1811 2.986 14.3001 3 14.3391C3.95053 16.7392 5.72248 18.7238 8 19.9391V24.0001H10V20.7321C10.6525 20.9063 11.3246 20.9963 12 21.0001V21.0001C12.6752 20.9973 13.3472 20.9086 14 20.7361V24.0001H16V19.9541C18.0641 18.8444 19.7215 17.1065 20.732 14.9921C21.5178 14.9385 22.2626 14.6214 22.8458 14.0921C23.4291 13.5628 23.8168 12.8522 23.9462 12.0753C24.0756 11.2984 23.9392 10.5005 23.559 9.81072C23.1788 9.12093 22.577 8.57955 21.851 8.27412V8.27412Z" fill="#374957"/>
</g>
<defs>
<clipPath id="clip0_51_70043">
<rect width="24" height="24" fill="white"/>
</clipPath>
</defs>
</svg>
