<svg width="24" height="24" viewBox="0 0 24 24" fill="none" xmlns="http://www.w3.org/2000/svg">
<g clip-path="url(#clip0_51_82456)">
<path d="M23 18.9996C22.7348 18.9996 22.4804 19.1049 22.2929 19.2925C22.1054 19.48 22 19.7344 22 19.9996C22 20.53 21.7893 21.0387 21.4142 21.4138C21.0391 21.7889 20.5304 21.9996 20 21.9996H16V17.9996H18.1C19.1339 17.9983 20.1251 17.5869 20.8563 16.8558C21.5874 16.1247 21.9987 15.1335 22 14.0996C21.9973 12.7134 21.5157 11.3706 20.6369 10.2986C19.758 9.22659 18.5358 8.4911 17.177 8.21658L15.436 7.86758L13.369 11.4996C13.2377 11.73 13.0203 11.8989 12.7645 11.9691C12.5087 12.0392 12.2355 12.0049 12.005 11.8736C11.7745 11.7423 11.6056 11.5248 11.5355 11.269C11.4654 11.0132 11.4997 10.74 11.631 10.5096L13.369 7.45858L13.3 7.43958C13.087 7.39653 12.8825 7.31847 12.695 7.20858L9.674 9.04658C9.44737 9.18436 9.17529 9.22647 8.91762 9.16364C8.65994 9.10082 8.43778 8.9382 8.3 8.71158C8.16222 8.48495 8.12011 8.21287 8.18294 7.9552C8.24576 7.69752 8.40837 7.47536 8.635 7.33758L11.678 5.48858L11.614 4.99958H8C7.73478 4.99958 7.48043 4.89422 7.29289 4.70668C7.10536 4.51915 7 4.26479 7 3.99958C7 3.73436 7.10536 3.48001 7.29289 3.29247C7.48043 3.10493 7.73478 2.99958 8 2.99958H11.352L11.3 2.57558C11.2408 2.16123 11.0955 1.76386 10.8735 1.40901C10.6515 1.05417 10.3578 0.7497 10.0111 0.515183C9.66438 0.280666 9.27245 0.121291 8.86049 0.0473034C8.44852 -0.0266844 8.02563 -0.0136472 7.619 0.0855768L2.91 1.41958C2.07333 1.65909 1.33714 2.16396 0.812295 2.85817C0.28745 3.55237 0.00237401 4.39831 0 5.26858L0 13.9996C0 15.0604 0.421427 16.0779 1.17157 16.828C1.92172 17.5781 2.93913 17.9996 4 17.9996H5V21.9996H1C0.734784 21.9996 0.48043 22.1049 0.292893 22.2925C0.105357 22.48 0 22.7344 0 22.9996C0 23.2648 0.105357 23.5191 0.292893 23.7067C0.48043 23.8942 0.734784 23.9996 1 23.9996H20C21.0609 23.9996 22.0783 23.5781 22.8284 22.828C23.5786 22.0779 24 21.0604 24 19.9996C24 19.7344 23.8946 19.48 23.7071 19.2925C23.5196 19.1049 23.2652 18.9996 23 18.9996V18.9996ZM7 17.9996H14V21.9996H7V17.9996Z" fill="#374957"/>
</g>
<defs>
<clipPath id="clip0_51_82456">
<rect width="24" height="24" fill="white"/>
</clipPath>
</defs>
</svg>
