<svg width="24" height="24" viewBox="0 0 24 24" fill="none" xmlns="http://www.w3.org/2000/svg">
<g clip-path="url(#clip0_51_71062)">
<path d="M17.0002 0H7.00015C5.67456 0.00158786 4.40371 0.528882 3.46637 1.46622C2.52903 2.40356 2.00174 3.6744 2.00015 5V19C2.00174 20.3256 2.52903 21.5964 3.46637 22.5338C4.40371 23.4711 5.67456 23.9984 7.00015 24H17.0002C18.3257 23.9984 19.5966 23.4711 20.5339 22.5338C21.4713 21.5964 21.9986 20.3256 22.0002 19V5C21.9986 3.6744 21.4713 2.40356 20.5339 1.46622C19.5966 0.528882 18.3257 0.00158786 17.0002 0V0ZM7.00015 2H17.0002C17.7958 2 18.5589 2.31607 19.1215 2.87868C19.6841 3.44129 20.0002 4.20435 20.0002 5V11H4.00015V5C4.00015 4.20435 4.31622 3.44129 4.87883 2.87868C5.44144 2.31607 6.2045 2 7.00015 2V2ZM17.0002 22H7.00015C6.2045 22 5.44144 21.6839 4.87883 21.1213C4.31622 20.5587 4.00015 19.7956 4.00015 19V13H20.0002V19C20.0002 19.7956 19.6841 20.5587 19.1215 21.1213C18.5589 21.6839 17.7958 22 17.0002 22Z" fill="#374957"/>
<path d="M10.9998 7H12.9998C13.2651 7 13.5194 6.89464 13.7069 6.7071C13.8945 6.51957 13.9998 6.26521 13.9998 6C13.9998 5.73478 13.8945 5.48043 13.7069 5.29289C13.5194 5.10536 13.2651 5 12.9998 5H10.9998C10.7346 5 10.4803 5.10536 10.2927 5.29289C10.1052 5.48043 9.99985 5.73478 9.99985 6C9.99985 6.26521 10.1052 6.51957 10.2927 6.7071C10.4803 6.89464 10.7346 7 10.9998 7V7Z" fill="#374957"/>
<path d="M12.9998 17H10.9998C10.7346 17 10.4803 17.1054 10.2927 17.2929C10.1052 17.4804 9.99985 17.7348 9.99985 18C9.99985 18.2652 10.1052 18.5196 10.2927 18.7071C10.4803 18.8947 10.7346 19 10.9998 19H12.9998C13.2651 19 13.5194 18.8947 13.7069 18.7071C13.8945 18.5196 13.9998 18.2652 13.9998 18C13.9998 17.7348 13.8945 17.4804 13.7069 17.2929C13.5194 17.1054 13.2651 17 12.9998 17Z" fill="#374957"/>
</g>
<defs>
<clipPath id="clip0_51_71062">
<rect width="24" height="24" fill="white"/>
</clipPath>
</defs>
</svg>
