<svg width="24" height="24" viewBox="0 0 24 24" fill="none" xmlns="http://www.w3.org/2000/svg">
<g clip-path="url(#clip0_51_79959)">
<path d="M17.9994 3V4H23.9994V6H17.9994V8H23.9994V10H17.9994V12H23.9994V14H17.9994V16H23.9994V18H17.9994V24H15.9994V3C15.9994 2.20435 16.3155 1.44129 16.8781 0.87868C17.4407 0.316071 18.2038 0 18.9994 0L23.9994 0V2H18.9994C18.7342 2 18.4799 2.10536 18.2923 2.29289C18.1048 2.48043 17.9994 2.73478 17.9994 3V3ZM13.9994 20C14.003 20.8144 13.7569 21.6103 13.2942 22.2805C12.8315 22.9507 12.1745 23.463 11.4117 23.7483C10.6489 24.0336 9.817 24.0782 9.02807 23.8761C8.23914 23.674 7.53112 23.2349 6.99943 22.618C6.58024 23.1002 6.05135 23.4746 5.45727 23.7098C4.8632 23.945 4.22132 24.034 3.58567 23.9694C2.95001 23.9048 2.33917 23.6885 1.80456 23.3386C1.26995 22.9887 0.827205 22.5155 0.51359 21.9588C0.199976 21.4022 0.0246678 20.7783 0.00241942 20.1398C-0.019829 19.5012 0.111633 18.8667 0.385743 18.2895C0.659852 17.7124 1.06859 17.2095 1.57755 16.8233C2.08652 16.437 2.68081 16.1787 3.31043 16.07L5.91143 10L4.26243 6.151C3.42694 4.20807 2.99715 2.11495 2.99943 0L4.99943 0C4.99688 1.84426 5.3712 3.6696 6.09943 5.364L6.99943 7.464L7.89943 5.364C8.62766 3.6696 9.00199 1.84426 8.99943 0H10.9994C11.0017 2.11495 10.5719 4.20807 9.73643 6.151L8.08743 10L10.6874 16.07C11.6132 16.2316 12.4525 16.7141 13.0581 17.4327C13.6637 18.1513 13.997 19.0602 13.9994 20ZM5.99943 20C5.99943 19.6044 5.88213 19.2178 5.66237 18.8889C5.44261 18.56 5.13025 18.3036 4.7648 18.1522C4.39935 18.0009 3.99721 17.9613 3.60925 18.0384C3.22129 18.1156 2.86492 18.3061 2.58522 18.5858C2.30551 18.8655 2.11503 19.2219 2.03786 19.6098C1.96069 19.9978 2.0003 20.3999 2.15167 20.7654C2.30305 21.1308 2.55939 21.4432 2.88829 21.6629C3.21719 21.8827 3.60387 22 3.99943 22C4.52987 22 5.03857 21.7893 5.41365 21.4142C5.78872 21.0391 5.99943 20.5304 5.99943 20ZM6.99943 17.382C7.43207 16.8834 7.98191 16.5003 8.59943 16.267L6.99943 12.538L5.39943 16.267C6.01696 16.5003 6.56679 16.8834 6.99943 17.382V17.382ZM11.9994 20C11.9994 19.6044 11.8821 19.2178 11.6624 18.8889C11.4426 18.56 11.1303 18.3036 10.7648 18.1522C10.3993 18.0009 9.99721 17.9613 9.60925 18.0384C9.22129 18.1156 8.86492 18.3061 8.58522 18.5858C8.30551 18.8655 8.11503 19.2219 8.03786 19.6098C7.96069 19.9978 8.0003 20.3999 8.15167 20.7654C8.30305 21.1308 8.55939 21.4432 8.88829 21.6629C9.21719 21.8827 9.60387 22 9.99943 22C10.5299 22 11.0386 21.7893 11.4136 21.4142C11.7887 21.0391 11.9994 20.5304 11.9994 20Z" fill="#374957"/>
</g>
<defs>
<clipPath id="clip0_51_79959">
<rect width="24" height="24" fill="white"/>
</clipPath>
</defs>
</svg>
