<svg width="24" height="24" viewBox="0 0 24 24" fill="none" xmlns="http://www.w3.org/2000/svg">
<g clip-path="url(#clip0_51_82433)">
<path d="M16.2432 10.7636C15.118 9.63832 13.5918 9.00608 12.0005 9.00598C10.4092 9.00589 8.88297 9.63796 7.75765 10.7631C6.63234 11.8883 6.00009 13.4144 6 15.0058C5.99991 16.5971 6.63197 18.1233 7.75715 19.2486L11.2642 22.6786C11.4609 22.8709 11.7251 22.9786 12.0002 22.9786C12.2752 22.9786 12.5394 22.8709 12.7362 22.6786L16.2432 19.2486C17.3683 18.1234 18.0004 16.5974 18.0004 15.0061C18.0004 13.4149 17.3683 11.8888 16.2432 10.7636ZM12.0002 16.9936C11.6046 16.9936 11.2179 16.8763 10.889 16.6566C10.5601 16.4368 10.3038 16.1245 10.1524 15.759C10.001 15.3936 9.96141 14.9914 10.0386 14.6035C10.1158 14.2155 10.3062 13.8591 10.5859 13.5794C10.8656 13.2997 11.222 13.1092 11.61 13.0321C11.9979 12.9549 12.4001 12.9945 12.7655 13.1459C13.131 13.2973 13.4433 13.5536 13.6631 13.8825C13.8829 14.2114 14.0002 14.5981 14.0002 14.9936C14.0002 15.5241 13.7894 16.0328 13.4144 16.4078C13.0393 16.7829 12.5306 16.9936 12.0002 16.9936Z" fill="#374957"/>
<path d="M21.8 5.5792L14.8 0.855204C13.9741 0.293861 12.9986 -0.00628662 12 -0.00628662C11.0014 -0.00628662 10.0259 0.293861 9.2 0.855204L2.2 5.5792C1.52172 6.03694 0.966334 6.65436 0.582708 7.37714C0.199083 8.09993 -0.00102096 8.90592 3.91707e-06 9.7242V19.0002C0.00159177 20.3258 0.528886 21.5966 1.46622 22.534C2.40356 23.4713 3.67441 23.9986 5 24.0002H9.754L6.359 20.6792C5.60791 19.939 5.01058 19.0575 4.60136 18.0856C4.19215 17.1137 3.97914 16.0705 3.97458 15.0159C3.97001 13.9614 4.17399 12.9163 4.57477 11.9409C4.97556 10.9655 5.56524 10.0789 6.3099 9.33219C7.05456 8.58549 7.93951 7.99338 8.91384 7.58992C9.88816 7.18647 10.9326 6.97963 11.9872 6.9813C13.0418 6.98298 14.0856 7.19313 15.0586 7.59968C16.0317 8.00622 16.9147 8.60114 17.657 9.3502V9.3502C19.1571 10.8505 19.9998 12.8851 19.9998 15.0067C19.9998 17.1283 19.1571 19.1629 17.657 20.6632L14.245 24.0002H19C20.3256 23.9986 21.5964 23.4713 22.5338 22.534C23.4711 21.5966 23.9984 20.3258 24 19.0002V9.7242C24.0004 8.90604 23.8001 8.10026 23.4165 7.37758C23.0329 6.6549 22.4779 6.03738 21.8 5.5792V5.5792Z" fill="#374957"/>
</g>
<defs>
<clipPath id="clip0_51_82433">
<rect width="24" height="24" fill="white"/>
</clipPath>
</defs>
</svg>
