<svg width="24" height="24" viewBox="0 0 24 24" fill="none" xmlns="http://www.w3.org/2000/svg">
<g clip-path="url(#clip0_51_81897)">
<path d="M12.3003 10.1779C12.404 10.4105 12.5254 10.6349 12.6633 10.8489L23.5253 8.68793C23.0826 7.13215 22.3289 5.68233 21.3099 4.42613C20.2908 3.16993 19.0276 2.13346 17.5966 1.37938C16.1655 0.625312 14.5965 0.169307 12.9842 0.0389431C11.3719 -0.0914207 9.7499 0.106566 8.21631 0.62093L12.3003 10.1779Z" fill="#374957"/>
<path d="M12.631 13.742C11.6838 13.0173 10.9372 12.0629 10.462 10.969L6.37698 1.40604C4.82754 2.22453 3.47632 3.37268 2.41843 4.76967C1.36055 6.16666 0.621706 7.77854 0.25391 9.49185C-0.113885 11.2052 -0.101694 12.9783 0.289626 14.6864C0.680945 16.3944 1.44188 17.996 2.51888 19.3783C3.59587 20.7606 4.96275 21.8901 6.5233 22.6872C8.08385 23.4843 9.80014 23.9297 11.5514 23.992C13.3026 24.0544 15.0462 23.7321 16.6595 23.0479C18.2727 22.3637 19.7165 21.3343 20.889 20.032L12.631 13.742Z" fill="#374957"/>
<path d="M14.3652 12.549L22.1062 18.449C23.3433 16.5256 24.0008 14.2868 24.0002 12C23.9985 11.5485 23.9715 11.0974 23.9192 10.649L14.3652 12.549Z" fill="#374957"/>
</g>
<defs>
<clipPath id="clip0_51_81897">
<rect width="24" height="24" fill="white"/>
</clipPath>
</defs>
</svg>
