<svg width="24" height="24" viewBox="0 0 24 24" fill="none" xmlns="http://www.w3.org/2000/svg">
<g clip-path="url(#clip0_51_80553)">
<path d="M20 0.0580444C18.9391 0.0580444 17.9217 0.479472 17.1716 1.22962C16.4214 1.97976 16 2.99718 16 4.05804H18C18 3.52761 18.2107 3.0189 18.5858 2.64383C18.9609 2.26876 19.4696 2.05804 20 2.05804H22V15.083C21.1393 14.422 20.0853 14.0619 19 14.058C17.8477 14.0593 16.7312 14.4579 15.8386 15.1865C14.946 15.9152 14.3319 16.9294 14.1 18.058H9.9C9.66808 16.9294 9.05404 15.9152 8.16144 15.1865C7.26883 14.4579 6.15226 14.0593 5 14.058C3.91472 14.0619 2.86073 14.422 2 15.083V2.05804H4C4.53044 2.05804 5.03914 2.26876 5.41422 2.64383C5.78929 3.0189 6 3.52761 6 4.05804H8C8 2.99718 7.57858 1.97976 6.82843 1.22962C6.07828 0.479472 5.06087 0.0580444 4 0.0580444H2.52786e-06V19.058C-0.00124362 20.298 0.458283 21.4942 1.28938 22.4144C2.12047 23.3346 3.26383 23.9131 4.49751 24.0378C5.73118 24.1624 6.96715 23.8241 7.96548 23.0887C8.9638 22.3533 9.65326 21.2732 9.9 20.058H14.1C14.3467 21.2732 15.0362 22.3533 16.0345 23.0887C17.0329 23.8241 18.2688 24.1624 19.5025 24.0378C20.7362 23.9131 21.8795 23.3346 22.7106 22.4144C23.5417 21.4942 24.0012 20.298 24 19.058V0.0580444H20Z" fill="#374957"/>
</g>
<defs>
<clipPath id="clip0_51_80553">
<rect width="24" height="24" fill="white"/>
</clipPath>
</defs>
</svg>
