<svg width="24" height="24" viewBox="0 0 24 24" fill="none" xmlns="http://www.w3.org/2000/svg">
<g clip-path="url(#clip0_51_70899)">
<path d="M11 23.0002C11 22.8024 11.0586 22.6091 11.1685 22.4446C11.2784 22.2802 11.4346 22.152 11.6173 22.0763C11.8 22.0006 12.0011 21.9808 12.1951 22.0194C12.389 22.058 12.5672 22.1532 12.7071 22.2931C12.8469 22.4329 12.9422 22.6111 12.9807 22.8051C13.0193 22.9991 12.9995 23.2002 12.9238 23.3829C12.8482 23.5656 12.72 23.7218 12.5555 23.8317C12.3911 23.9416 12.1977 24.0002 12 24.0002C11.7347 24.0002 11.4804 23.8948 11.2929 23.7073C11.1053 23.5198 11 23.2654 11 23.0002ZM15.535 19.4642C14.5973 18.5268 13.3258 18.0003 12 18.0003C10.6741 18.0003 9.4026 18.5268 8.46496 19.4642L9.87896 20.8782C10.4506 20.3332 11.2102 20.0292 12 20.0292C12.7898 20.0292 13.5493 20.3332 14.121 20.8782L15.535 19.4642ZM18.364 16.6362C16.6748 14.9508 14.3861 14.0043 12 14.0043C9.6138 14.0043 7.32509 14.9508 5.63596 16.6362L7.04996 18.0502C8.36416 16.74 10.1442 16.0042 12 16.0042C13.8557 16.0042 15.6358 16.74 16.95 18.0502L18.364 16.6362ZM17.79 7.2092C17.3438 5.30016 16.2121 3.62142 14.6099 2.4917C13.0076 1.36198 11.0463 0.859943 9.09828 1.0809C7.15028 1.30185 5.35123 2.23042 4.0427 3.6903C2.73416 5.15018 2.00725 7.03973 1.99996 9.0002C1.99898 10.2786 2.30779 11.5382 2.89996 12.6712C1.82109 13.2493 0.96636 14.1714 0.47158 15.291C-0.0232008 16.4106 -0.129654 17.6633 0.169132 18.8503C0.467919 20.0373 1.15481 21.0904 2.12067 21.8423C3.08652 22.5942 4.27595 23.0017 5.49996 23.0002H8.99996C8.99996 22.9472 9.01296 22.9002 9.01596 22.8442L7.17196 21.0002H5.49996C4.64838 21.0027 3.82524 20.6939 3.18548 20.1319C2.54571 19.5699 2.13344 18.7934 2.02628 17.9485C1.91911 17.1037 2.12443 16.2489 2.6036 15.5449C3.08276 14.8409 3.80272 14.3364 4.62796 14.1262L6.02796 13.7642L6.05596 13.7482L5.17796 12.5632C4.41053 11.5341 3.99722 10.284 3.99996 9.0002C4.01303 7.48735 4.59714 6.03528 5.63531 4.93478C6.67348 3.83429 8.08907 3.16661 9.59859 3.06546C11.1081 2.96431 12.6001 3.43716 13.7758 4.38931C14.9516 5.34146 15.7242 6.70262 15.939 8.2002L16.039 8.9582L16.798 9.0582C18.2281 9.24948 19.5412 9.9504 20.496 11.0322C21.4509 12.114 21.9833 13.504 21.9954 14.9468C22.0076 16.3897 21.4987 17.7884 20.5622 18.8862C19.6258 19.9839 18.3247 20.7068 16.898 20.9222L14.979 22.8422C14.979 22.8952 14.995 22.9422 14.995 22.9982H15.995C17.955 22.9909 19.8442 22.2642 21.3039 20.9561C22.7637 19.648 23.6924 17.8495 23.9138 15.9019C24.1352 13.9544 23.6339 11.9933 22.505 10.3909C21.3762 8.78855 19.6984 7.65634 17.79 7.2092V7.2092Z" fill="#374957"/>
</g>
<defs>
<clipPath id="clip0_51_70899">
<rect width="24" height="24" fill="white"/>
</clipPath>
</defs>
</svg>
