<svg width="24" height="24" viewBox="0 0 24 24" fill="none" xmlns="http://www.w3.org/2000/svg">
<g clip-path="url(#clip0_51_81678)">
<path d="M7 0H4C1.79086 0 0 1.79086 0 4V7C0 9.20914 1.79086 11 4 11H7C9.20914 11 11 9.20914 11 7V4C11 1.79086 9.20914 0 7 0Z" fill="#374957"/>
<path d="M7 13H4C1.79086 13 0 14.7909 0 17V20C0 22.2092 1.79086 24 4 24H7C9.20914 24 11 22.2092 11 20V17C11 14.7909 9.20914 13 7 13Z" fill="#374957"/>
<path d="M22.2931 19.126L20.0001 21.416V2.58399L22.2931 4.87399C22.386 4.96683 22.4963 5.04047 22.6176 5.09069C22.739 5.14091 22.8691 5.16674 23.0004 5.16669C23.1318 5.16664 23.2618 5.14073 23.3831 5.09042C23.5045 5.04011 23.6147 4.9664 23.7076 4.87349C23.8004 4.78058 23.874 4.67029 23.9243 4.54892C23.9745 4.42755 24.0003 4.29748 24.0003 4.16613C24.0002 4.03478 23.9743 3.90473 23.924 3.7834C23.8737 3.66207 23.8 3.55183 23.7071 3.45899L21.1201 0.875987C20.5576 0.314185 19.7951 -0.00137329 19.0001 -0.00137329C18.2051 -0.00137329 17.4426 0.314185 16.8801 0.875987L14.2931 3.45899C14.2002 3.55183 14.1264 3.66207 14.0761 3.7834C14.0258 3.90473 13.9999 4.03478 13.9999 4.16613C13.9998 4.29748 14.0256 4.42755 14.0759 4.54892C14.1261 4.67029 14.1997 4.78058 14.2926 4.87349C14.3854 4.9664 14.4956 5.04011 14.617 5.09042C14.7383 5.14073 14.8684 5.16664 14.9997 5.16669C15.1311 5.16674 15.2611 5.14091 15.3825 5.09069C15.5039 5.04047 15.6142 4.96683 15.7071 4.87399L18.0001 2.58399V21.416L15.7071 19.126C15.6141 19.0331 15.5037 18.9595 15.3823 18.9093C15.2609 18.8591 15.1308 18.8333 14.9994 18.8334C14.868 18.8335 14.7379 18.8595 14.6165 18.9099C14.4952 18.9602 14.3849 19.034 14.2921 19.127C14.1992 19.22 14.1256 19.3303 14.0754 19.4517C14.0252 19.5732 13.9994 19.7033 13.9995 19.8347C13.9996 19.9661 14.0256 20.0962 14.0759 20.2175C14.1263 20.3389 14.2001 20.4491 14.2931 20.542L16.8801 23.125C17.4433 23.6853 18.2055 23.9999 19.0001 23.9999C19.7946 23.9999 20.5568 23.6853 21.1201 23.125L23.7071 20.542C23.8948 20.3545 24.0004 20.1001 24.0006 19.8347C24.0008 19.5693 23.8956 19.3148 23.7081 19.127C23.5205 18.9392 23.2661 18.8336 23.0008 18.8334C22.7354 18.8332 22.4808 18.9385 22.2931 19.126V19.126Z" fill="#374957"/>
</g>
<defs>
<clipPath id="clip0_51_81678">
<rect width="24" height="24" fill="white"/>
</clipPath>
</defs>
</svg>
