<svg width="24" height="24" viewBox="0 0 24 24" fill="none" xmlns="http://www.w3.org/2000/svg">
<g clip-path="url(#clip0_51_82658)">
<path d="M9.34024 10.7927C8.38875 9.59138 7.91762 8.07936 8.01834 6.55019C8.11905 5.02103 8.78441 3.58385 9.88524 2.51771L10.5182 1.88371C11.5845 0.783304 13.0215 0.1183 14.5504 0.0177762C16.0794 -0.0827479 17.5911 0.388379 18.7922 1.33971C19.4347 1.87246 19.9578 2.53449 20.3276 3.28275C20.6973 4.03101 20.9054 4.84873 20.9382 5.6827C20.9734 6.51308 20.8359 7.34173 20.5345 8.11629C20.2332 8.89084 19.7744 9.59446 19.1872 10.1827L18.1872 11.1827C17.0602 12.3073 15.5334 12.9394 13.9412 12.9407C13.8552 12.9407 13.7692 12.9387 13.6832 12.9347C12.8496 12.9021 12.0322 12.6945 11.284 12.3255C10.5358 11.9565 9.87353 11.4342 9.34024 10.7927V10.7927ZM18.7572 15.9997C18.0686 15.9981 17.3864 16.1329 16.7502 16.3963C16.1139 16.6598 15.5361 17.0467 15.0502 17.5347C13.6383 18.9547 11.9586 20.0806 10.1086 20.847C8.25851 21.6134 6.27477 22.0052 4.27224 21.9997H3.12224C2.90034 22 2.68334 21.9345 2.49872 21.8114C2.3141 21.6883 2.17016 21.5132 2.08513 21.3082C2.00011 21.1033 1.97782 20.8777 2.0211 20.6601C2.06438 20.4424 2.17127 20.2425 2.32824 20.0857L3.02824 19.3857C4.76451 19.2692 6.39928 18.5257 7.62824 17.2937L10.6822 14.2397C9.57313 13.7469 8.59067 13.0083 7.80924 12.0797C7.37251 11.5561 7.00855 10.9758 6.72724 10.3547L3.70024 13.3787C2.46784 14.6074 1.72431 16.2423 1.60824 17.9787L0.908239 18.6787C0.473688 19.116 0.178364 19.6721 0.0595214 20.277C-0.0593214 20.8819 0.00363955 21.5085 0.240462 22.0776C0.477285 22.6468 0.877362 23.1331 1.39023 23.4752C1.90309 23.8172 2.50577 23.9997 3.12224 23.9997H4.27224C6.5374 24.0058 8.7813 23.5627 10.8741 22.6958C12.9668 21.829 14.8669 20.5557 16.4642 18.9497C16.9177 18.4963 17.4954 18.1875 18.1244 18.0623C18.7533 17.9372 19.4053 18.0013 19.9978 18.2466C20.5903 18.4919 21.0968 18.9074 21.4532 19.4405C21.8096 19.9736 22 20.6004 22.0002 21.2417V22.9997C22.0002 23.2649 22.1056 23.5193 22.2931 23.7068C22.4807 23.8943 22.735 23.9997 23.0002 23.9997C23.2655 23.9997 23.5198 23.8943 23.7073 23.7068C23.8949 23.5193 24.0002 23.2649 24.0002 22.9997V21.2417C23.9984 19.8518 23.4454 18.5194 22.4625 17.5367C21.4796 16.554 20.1471 16.0013 18.7572 15.9997Z" fill="#374957"/>
</g>
<defs>
<clipPath id="clip0_51_82658">
<rect width="24" height="24" fill="white"/>
</clipPath>
</defs>
</svg>
