<svg width="24" height="24" viewBox="0 0 24 24" fill="none" xmlns="http://www.w3.org/2000/svg">
<g clip-path="url(#clip0_51_82612)">
<path d="M6.99991 23.8938C6.82198 23.8636 6.64601 23.8228 6.47291 23.7718L3.60391 22.8718C2.56642 22.567 1.6553 21.9349 1.0065 21.0699C0.357698 20.2048 0.00600785 19.1531 0.00390625 18.0718V5.9998C0.00494608 5.17784 0.208608 4.36882 0.596865 3.64434C0.985122 2.91986 1.546 2.30227 2.22985 1.84624C2.91369 1.39021 3.69942 1.1098 4.51748 1.02984C5.33554 0.949874 6.16069 1.07282 6.91991 1.3878L6.99991 1.4248V23.8938ZM20.6799 1.1668L20.6589 1.1598L17.9439 0.259795C17.6367 0.160176 17.3206 0.0908456 16.9999 0.0527954V22.3148L19.0539 22.9068C19.6425 23.05 20.2558 23.0578 20.8478 22.9294C21.4398 22.801 21.9948 22.5398 22.4711 22.1656C22.9474 21.7914 23.3325 21.3139 23.5974 20.7691C23.8622 20.2243 23.9998 19.6265 23.9999 19.0208V5.8758C23.9984 4.84463 23.6787 3.83906 23.0846 2.99629C22.4904 2.15353 21.6506 1.51463 20.6799 1.1668V1.1668ZM14.9999 0.189795C14.9999 0.189795 9.15691 1.8628 8.99991 1.8798V23.8798C9.09991 23.8588 14.9999 22.2438 14.9999 22.2438V0.189795Z" fill="#374957"/>
</g>
<defs>
<clipPath id="clip0_51_82612">
<rect width="24" height="24" fill="white"/>
</clipPath>
</defs>
</svg>
