<svg width="24" height="24" viewBox="0 0 24 24" fill="none" xmlns="http://www.w3.org/2000/svg">
<path d="M18 22H13V2.823L17.3 7.123C17.4886 7.30515 17.7412 7.40595 18.0034 7.40367C18.2655 7.40139 18.5164 7.29622 18.7018 7.11081C18.8872 6.92541 18.9923 6.67459 18.9946 6.4124C18.9969 6.1502 18.8961 5.8976 18.714 5.709L13.768 0.762999C13.5358 0.530782 13.2602 0.346575 12.9568 0.220897C12.6535 0.0952191 12.3283 0.0305328 11.9999 0.0305328C11.6716 0.0305328 11.3464 0.0952191 11.0431 0.220897C10.7397 0.346575 10.4641 0.530782 10.2319 0.762999L5.28195 5.713C5.09444 5.90103 4.98931 6.15586 4.98969 6.42141C4.99006 6.68696 5.09591 6.94149 5.28395 7.129C5.47199 7.3165 5.72681 7.42163 5.99236 7.42126C6.25791 7.42088 6.51244 7.31503 6.69995 7.127L10.9999 2.827V22H5.99995C5.73473 22 5.48038 22.1053 5.29284 22.2929C5.10531 22.4804 4.99995 22.7348 4.99995 23C4.99995 23.2652 5.10531 23.5196 5.29284 23.7071C5.48038 23.8946 5.73473 24 5.99995 24H18C18.2652 24 18.5195 23.8946 18.7071 23.7071C18.8946 23.5196 19 23.2652 19 23C19 22.7348 18.8946 22.4804 18.7071 22.2929C18.5195 22.1053 18.2652 22 18 22Z" fill="#374957"/>
</svg>
