<svg width="24" height="24" viewBox="0 0 24 24" fill="none" xmlns="http://www.w3.org/2000/svg">
<g clip-path="url(#clip0_51_81959)">
<path d="M18.3559 7.36C18.1846 7.30706 18.0291 7.21249 17.9032 7.08475C17.7774 6.95701 17.6852 6.80008 17.6349 6.628C17.1058 4.92761 16.0245 3.45235 14.5623 2.43591C13.1001 1.41947 11.3405 0.919958 9.56237 1.0165C7.7842 1.11304 6.08907 1.80012 4.74549 2.9689C3.40192 4.13767 2.48672 5.72132 2.14487 7.469C1.79342 9.236 2.07672 11.0703 2.94487 12.649C1.9333 13.171 1.1107 13.9968 0.592692 15.0104C0.0746812 16.024 -0.112705 17.1744 0.0568679 18.3C0.31769 19.6077 1.0179 20.7869 2.04127 21.6418C3.06463 22.4968 4.3496 22.976 5.68287 23H14.7829C19.8559 23 23.6349 19.972 23.9729 15.638C24.1239 13.824 23.6489 12.013 22.6268 10.5067C21.6047 9.00041 20.0974 7.88984 18.3559 7.36V7.36ZM19.2279 14.707L13.8129 20.121C13.2503 20.6834 12.4874 20.9994 11.6919 20.9994C10.8964 20.9994 10.1335 20.6834 9.57087 20.121L6.18387 16.7C6.07717 16.6106 5.99032 16.4999 5.92887 16.375C5.86742 16.2501 5.83272 16.1137 5.827 15.9746C5.82128 15.8356 5.84466 15.6968 5.89564 15.5673C5.94662 15.4377 6.02409 15.3203 6.12308 15.2224C6.22207 15.1245 6.3404 15.0484 6.4705 14.9989C6.6006 14.9494 6.7396 14.9276 6.87861 14.9349C7.01762 14.9422 7.15358 14.9785 7.27778 15.0413C7.40197 15.1042 7.51168 15.1923 7.59987 15.3L10.9839 18.714C11.1743 18.8947 11.4268 18.9954 11.6894 18.9954C11.9519 18.9954 12.2044 18.8947 12.3949 18.714L17.8089 13.3C17.9964 13.1124 18.2507 13.0069 18.516 13.0068C18.7813 13.0067 19.0357 13.112 19.2234 13.2995C19.411 13.487 19.5165 13.7414 19.5166 14.0066C19.5167 14.2719 19.4114 14.5264 19.2239 14.714L19.2279 14.707Z" fill="#374957"/>
</g>
<defs>
<clipPath id="clip0_51_81959">
<rect width="24" height="24" fill="white"/>
</clipPath>
</defs>
</svg>
