<svg width="24" height="24" viewBox="0 0 24 24" fill="none" xmlns="http://www.w3.org/2000/svg">
<g clip-path="url(#clip0_51_82588)">
<path d="M12.8832 15.2158L4.94824 23.1508C4.68149 23.4309 4.36141 23.6547 4.00684 23.8093C3.65226 23.9638 3.27036 24.0458 2.8836 24.0506C2.49684 24.0553 2.11305 23.9826 1.75481 23.8367C1.39658 23.6909 1.07113 23.4749 0.797633 23.2014C0.524135 22.9279 0.308111 22.6024 0.162276 22.2442C0.0164409 21.886 -0.0562581 21.5022 -0.0515422 21.1154C-0.0468264 20.7287 0.035209 20.3467 0.189735 19.9922C0.344262 19.6376 0.568157 19.3175 0.848242 19.0508L8.78324 11.1158L12.8832 15.2158ZM17.1002 6.89977C16.5482 6.37212 15.8139 6.07767 15.0502 6.07767C14.2866 6.07767 13.5523 6.37212 13.0002 6.89977L10.2002 9.69977L14.3002 13.7998L17.1002 10.9998C17.6437 10.456 17.949 9.7186 17.949 8.94977C17.949 8.18094 17.6437 7.44357 17.1002 6.89977V6.89977ZM4.86324 5.14477L6.41324 5.58677L6.85524 7.13677C6.92645 7.38548 7.0767 7.60425 7.28328 7.75999C7.48986 7.91573 7.74154 7.99996 8.00024 7.99996C8.25895 7.99996 8.51062 7.91573 8.7172 7.75999C8.92378 7.60425 9.07404 7.38548 9.14524 7.13677L9.58724 5.58677L11.1372 5.14477C11.386 5.07356 11.6047 4.92331 11.7605 4.71673C11.9162 4.51015 12.0004 4.25848 12.0004 3.99977C12.0004 3.74106 11.9162 3.48939 11.7605 3.28281C11.6047 3.07623 11.386 2.92597 11.1372 2.85477L9.58724 2.41277L9.14524 0.862768C9.07404 0.614052 8.92378 0.395285 8.7172 0.239548C8.51062 0.0838106 8.25895 -0.000427246 8.00024 -0.000427246C7.74154 -0.000427246 7.48986 0.0838106 7.28328 0.239548C7.0767 0.395285 6.92645 0.614052 6.85524 0.862768L6.41324 2.41277L4.86324 2.85477C4.61453 2.92597 4.39576 3.07623 4.24002 3.28281C4.08429 3.48939 4.00005 3.74106 4.00005 3.99977C4.00005 4.25848 4.08429 4.51015 4.24002 4.71673C4.39576 4.92331 4.61453 5.07356 4.86324 5.14477V5.14477ZM16.8632 17.1448L18.4132 17.5868L18.8552 19.1368C18.9264 19.3855 19.0767 19.6042 19.2833 19.76C19.4899 19.9157 19.7415 20 20.0002 20C20.259 20 20.5106 19.9157 20.7172 19.76C20.9238 19.6042 21.074 19.3855 21.1452 19.1368L21.5872 17.5868L23.1372 17.1448C23.386 17.0736 23.6047 16.9233 23.7605 16.7167C23.9162 16.5101 24.0004 16.2585 24.0004 15.9998C24.0004 15.7411 23.9162 15.4894 23.7605 15.2828C23.6047 15.0762 23.386 14.926 23.1372 14.8548L21.5872 14.4128L21.1452 12.8628C21.074 12.6141 20.9238 12.3953 20.7172 12.2395C20.5106 12.0838 20.259 11.9996 20.0002 11.9996C19.7415 11.9996 19.4899 12.0838 19.2833 12.2395C19.0767 12.3953 18.9264 12.6141 18.8552 12.8628L18.4132 14.4128L16.8632 14.8548C16.6145 14.926 16.3958 15.0762 16.24 15.2828C16.0843 15.4894 16 15.7411 16 15.9998C16 16.2585 16.0843 16.5101 16.24 16.7167C16.3958 16.9233 16.6145 17.0736 16.8632 17.1448V17.1448ZM17.7562 4.49977L19.1112 4.88677L19.5002 6.24377C19.5636 6.45995 19.6952 6.6498 19.8755 6.78485C20.0558 6.91991 20.275 6.99291 20.5002 6.99291C20.7255 6.99291 20.9447 6.91991 21.125 6.78485C21.3053 6.6498 21.4369 6.45995 21.5002 6.24377L21.8872 4.88877L23.2442 4.49977C23.4604 4.43646 23.6503 4.3048 23.7853 4.12451C23.9204 3.94423 23.9934 3.72503 23.9934 3.49977C23.9934 3.27451 23.9204 3.05531 23.7853 2.87502C23.6503 2.69474 23.4604 2.56308 23.2442 2.49977L21.8892 2.11277L21.5002 0.755768C21.4369 0.539585 21.3053 0.34974 21.125 0.214681C20.9447 0.0796218 20.7255 0.00662285 20.5002 0.00662285C20.275 0.00662285 20.0558 0.0796218 19.8755 0.214681C19.6952 0.34974 19.5636 0.539585 19.5002 0.755768L19.1132 2.11077L17.7562 2.49977C17.5401 2.56308 17.3502 2.69474 17.2152 2.87502C17.0801 3.05531 17.0071 3.27451 17.0071 3.49977C17.0071 3.72503 17.0801 3.94423 17.2152 4.12451C17.3502 4.3048 17.5401 4.43646 17.7562 4.49977Z" fill="#374957"/>
</g>
<defs>
<clipPath id="clip0_51_82588">
<rect width="24" height="24" fill="white"/>
</clipPath>
</defs>
</svg>
