<svg width="24" height="24" viewBox="0 0 24 24" fill="none" xmlns="http://www.w3.org/2000/svg">
<g clip-path="url(#clip0_51_70267)">
<path d="M19.7647 9.45707L4.97974 0.0180664V24.0181L19.7587 14.5451C20.1889 14.2747 20.5436 13.8997 20.7896 13.4551C21.0356 13.0105 21.165 12.5108 21.1656 12.0027C21.1662 11.4946 21.038 10.9946 20.793 10.5495C20.5481 10.1043 20.1943 9.72847 19.7647 9.45707V9.45707ZM18.6847 12.8521L6.98474 20.3521V3.67607L18.6917 11.1501C18.8361 11.2403 18.955 11.366 19.0372 11.5151C19.1194 11.6642 19.1622 11.8318 19.1615 12.002C19.1608 12.1723 19.1166 12.3395 19.0332 12.4879C18.9498 12.6363 18.8298 12.761 18.6847 12.8501V12.8521Z" fill="#374957"/>
</g>
<defs>
<clipPath id="clip0_51_70267">
<rect width="24" height="24" fill="white"/>
</clipPath>
</defs>
</svg>
