<svg width="24" height="24" viewBox="0 0 24 24" fill="none" xmlns="http://www.w3.org/2000/svg">
<g clip-path="url(#clip0_51_81841)">
<path d="M20.6571 14.8581C20.0794 14.3083 19.3121 14.0022 18.5147 14.0035C17.7172 14.0048 16.9509 14.3134 16.3751 14.8651L14.4691 16.4711C12.9132 15.827 11.4999 14.8819 10.3103 13.6901C9.12074 12.4982 8.17829 11.0832 7.53709 9.52611L9.13709 7.62611C9.68837 7.0502 9.99659 6.28404 9.99771 5.48681C9.99883 4.68958 9.69276 3.92256 9.14309 3.34511C9.14309 3.34511 7.29209 0.942108 7.26109 0.911108C6.69063 0.336317 5.9168 0.00923481 5.10703 0.000626145C4.29725 -0.00798252 3.51665 0.302575 2.9341 0.865108L1.7841 1.86511C-5.93589 10.0731 13.9841 30.0031 22.1841 22.1651L23.0961 21.1151C23.675 20.5341 24 19.7473 24 18.9271C24 18.1069 23.675 17.3201 23.0961 16.7391C23.0641 16.7101 20.6571 14.8581 20.6571 14.8581ZM22.5651 12.5751C27.5561 5.22911 18.7651 -3.54789 11.4271 1.43911C11.2096 1.59094 11.0614 1.82296 11.0149 2.0841C10.9685 2.34524 11.0277 2.61413 11.1796 2.83161C11.3314 3.04909 11.5634 3.19734 11.8246 3.24375C12.0857 3.29017 12.3546 3.23094 12.5721 3.07911C18.0441 -0.678891 24.6821 5.96211 20.9251 11.4311C20.8468 11.5386 20.7907 11.6607 20.7601 11.7902C20.7296 11.9197 20.7252 12.054 20.7472 12.1852C20.7692 12.3164 20.8171 12.4419 20.8882 12.5543C20.9593 12.6668 21.0522 12.7639 21.1613 12.84C21.2704 12.9161 21.3936 12.9697 21.5237 12.9976C21.6538 13.0255 21.7881 13.0272 21.9188 13.0025C22.0496 12.9778 22.1741 12.9273 22.285 12.8539C22.396 12.7805 22.4912 12.6858 22.5651 12.5751V12.5751ZM18.7071 10.7101C18.8945 10.5226 18.9999 10.2683 18.9999 10.0031C18.9999 9.73794 18.8945 9.48364 18.7071 9.29611L17.0001 7.58911V5.00011C17.0001 4.73489 16.8947 4.48054 16.7072 4.293C16.5197 4.10547 16.2653 4.00011 16.0001 4.00011C15.7349 4.00011 15.4805 4.10547 15.293 4.293C15.1054 4.48054 15.0001 4.73489 15.0001 5.00011V8.00011C15.0001 8.2653 15.1055 8.51962 15.2931 8.70711L17.2931 10.7071C17.4806 10.8946 17.7349 10.9999 18.0001 10.9999C18.2652 10.9999 18.5196 10.8946 18.7071 10.7071V10.7101Z" fill="#374957"/>
</g>
<defs>
<clipPath id="clip0_51_81841">
<rect width="24" height="24" fill="white"/>
</clipPath>
</defs>
</svg>
