<svg width="24" height="24" viewBox="0 0 24 24" fill="none" xmlns="http://www.w3.org/2000/svg">
<g clip-path="url(#clip0_51_81199)">
<path d="M2 21V3C2 2.73478 2.10536 2.48043 2.29289 2.29289C2.48043 2.10536 2.73478 2 3 2H8V0H3C2.20435 0 1.44129 0.31607 0.87868 0.87868C0.31607 1.44129 0 2.20435 0 3L0 21C0 21.7956 0.31607 22.5587 0.87868 23.1213C1.44129 23.6839 2.20435 24 3 24H8V22H3C2.73478 22 2.48043 21.8946 2.29289 21.7071C2.10536 21.5196 2 21.2652 2 21V21Z" fill="#374957"/>
<path d="M24.0004 12.9994V10.9994L7.55638 11.0304L11.8794 6.70636L10.4634 5.29236L5.87738 9.87836C5.31497 10.4409 4.99902 11.2039 4.99902 11.9994C4.99902 12.7949 5.31497 13.5578 5.87738 14.1204L10.4634 18.7064L11.8774 17.2924L7.61438 13.0294L24.0004 12.9994Z" fill="#374957"/>
</g>
<defs>
<clipPath id="clip0_51_81199">
<rect width="24" height="24" fill="white"/>
</clipPath>
</defs>
</svg>
