<svg width="24" height="24" viewBox="0 0 24 24" fill="none" xmlns="http://www.w3.org/2000/svg">
<g clip-path="url(#clip0_51_81936)">
<path d="M24.0001 11.507C23.9981 10.9982 23.9309 10.4917 23.8001 9.99998H2.67307C2.29845 9.99948 1.9314 10.1054 1.61467 10.3055C1.29794 10.5055 1.04457 10.7915 0.88407 11.13C-0.64693 14.839 -0.53093 23.92 4.83307 24H7.76307C8.0741 23.9988 8.37706 23.901 8.63003 23.72C8.883 23.5391 9.07347 23.2839 9.17507 22.99C9.38941 22.4136 9.77494 21.9165 10.2799 21.5656C10.7849 21.2146 11.3851 21.0265 12.0001 21.0265C12.615 21.0265 13.2153 21.2146 13.7202 21.5656C14.2252 21.9165 14.6107 22.4136 14.8251 22.99C14.9267 23.2839 15.1171 23.5391 15.3701 23.72C15.6231 23.901 15.926 23.9988 16.2371 24H18.8001C19.4716 24.0202 20.1405 23.9062 20.7674 23.6646C21.3944 23.423 21.9668 23.0587 22.4511 22.593C22.9354 22.1274 23.3219 21.5697 23.5879 20.9527C23.8538 20.3357 23.994 19.6718 24.0001 19V11.507ZM7.00007 17C6.46964 17 5.96093 16.7893 5.58586 16.4142C5.21078 16.0391 5.00007 15.5304 5.00007 15C5.00007 14.4695 5.21078 13.9608 5.58586 13.5858C5.96093 13.2107 6.46964 13 7.00007 13C7.5305 13 8.03921 13.2107 8.41428 13.5858C8.78936 13.9608 9.00007 14.4695 9.00007 15C9.00007 15.5304 8.78936 16.0391 8.41428 16.4142C8.03921 16.7893 7.5305 17 7.00007 17ZM18.0001 19C17.4696 19 16.9609 18.7893 16.5859 18.4142C16.2108 18.0391 16.0001 17.5304 16.0001 17C16.0001 16.4695 16.2108 15.9608 16.5859 15.5858C16.9609 15.2107 17.4696 15 18.0001 15C18.5305 15 19.0392 15.2107 19.4143 15.5858C19.7894 15.9608 20.0001 16.4695 20.0001 17C20.0001 17.5304 19.7894 18.0391 19.4143 18.4142C19.0392 18.7893 18.5305 19 18.0001 19ZM22.8531 7.99998H2.67307C2.49574 8.0013 2.31869 8.01433 2.14307 8.03897C3.53831 5.25641 5.55746 2.83377 8.04307 0.959975C8.86713 0.355715 9.85768 0.0206662 10.8793 0.000619467C11.901 -0.0194272 12.9039 0.276506 13.7511 0.847975L17.9511 3.97997L21.5891 6.69997C22.0742 7.0664 22.5004 7.50479 22.8531 7.99998V7.99998Z" fill="#374957"/>
</g>
<defs>
<clipPath id="clip0_51_81936">
<rect width="24" height="24" fill="white"/>
</clipPath>
</defs>
</svg>
