<svg width="24" height="24" viewBox="0 0 24 24" fill="none" xmlns="http://www.w3.org/2000/svg">
<g clip-path="url(#clip0_51_82309)">
<path d="M23.5349 14.7248C23.3278 14.4732 23.0621 14.2764 22.7612 14.1516C22.4602 14.0267 22.1333 13.9777 21.8089 14.0088C19.9426 14.1181 18.1401 14.7274 16.5903 15.7728C15.0404 16.8182 13.8003 18.2613 12.9999 19.9508V13.9158C14.3972 13.6777 15.6654 12.9535 16.5804 11.8709C17.4953 10.7883 17.9981 9.41717 17.9999 7.99975C17.9999 5.20675 16.0569 2.84775 14.1559 0.908752C14.0459 0.796148 13.9269 0.692799 13.7999 0.599752C12.6515 2.88771 12.0361 5.40602 11.9999 7.96575C12.0044 8.09707 11.9829 8.22799 11.9368 8.35102C11.8907 8.47406 11.8208 8.5868 11.7311 8.68282C11.6414 8.77883 11.5336 8.85624 11.414 8.91062C11.2944 8.965 11.1652 8.99529 11.0339 8.99975C10.9026 9.00422 10.7717 8.98277 10.6487 8.93664C10.5256 8.89051 10.4129 8.8206 10.3169 8.7309C10.2208 8.6412 10.1434 8.53346 10.0891 8.41385C10.0347 8.29423 10.0044 8.16507 9.99992 8.03375C10.0105 5.26274 10.6413 2.52924 11.8459 0.0337524C11.0932 0.0636351 10.3792 0.375636 9.84592 0.907752C7.94292 2.84775 5.99992 5.20675 5.99992 7.99975C6.00174 9.41717 6.50455 10.7883 7.4195 11.8709C8.33445 12.9535 9.60263 13.6777 10.9999 13.9158V19.9518C10.1997 18.262 8.95971 16.8187 7.40983 15.7731C5.85996 14.7275 4.05733 14.1181 2.19092 14.0088C1.86661 13.9779 1.53967 14.027 1.23876 14.1518C0.937845 14.2766 0.672138 14.4734 0.464924 14.7248C0.259038 14.9692 0.115684 15.2601 0.0472195 15.5722C-0.0212449 15.8844 -0.0127663 16.2086 0.0719245 16.5168C2.11092 23.8548 11.5909 23.9998 11.9939 23.9998H12.0059C12.4059 23.9998 21.8899 23.8548 23.9289 16.5168C24.0131 16.2085 24.0213 15.8843 23.9527 15.5722C23.884 15.2601 23.7407 14.9693 23.5349 14.7248V14.7248Z" fill="#374957"/>
</g>
<defs>
<clipPath id="clip0_51_82309">
<rect width="24" height="24" fill="white"/>
</clipPath>
</defs>
</svg>
