<svg width="24" height="24" viewBox="0 0 24 24" fill="none" xmlns="http://www.w3.org/2000/svg">
<g clip-path="url(#clip0_51_81072)">
<path d="M12 23.0006C15.3137 23.0006 18 20.3143 18 17.0006C18 13.6869 15.3137 11.0006 12 11.0006C8.68629 11.0006 6 13.6869 6 17.0006C6 20.3143 8.68629 23.0006 12 23.0006Z" fill="#374957"/>
<path d="M11.383 9.02391L7.706 2.65291C7.61823 2.5009 7.49199 2.37468 7.33998 2.28692C7.18796 2.19916 7.01553 2.15295 6.84 2.15295C6.66447 2.15295 6.49204 2.19916 6.34002 2.28692C6.18801 2.37468 6.06177 2.5009 5.974 2.65291L0 12.9999H5.074C5.72419 11.8751 6.63829 10.9254 7.73744 10.2327C8.83658 9.54001 10.0877 9.12515 11.383 9.02391V9.02391Z" fill="#374957"/>
<path d="M13 3.99939V9.06138C14.5889 9.2644 16.0807 9.93846 17.2832 10.9968C18.4857 12.055 19.3438 13.4491 19.747 14.9994H24V3.99939H13Z" fill="#374957"/>
</g>
<defs>
<clipPath id="clip0_51_81072">
<rect width="24" height="24" fill="white"/>
</clipPath>
</defs>
</svg>
