<svg width="24" height="24" viewBox="0 0 24 24" fill="none" xmlns="http://www.w3.org/2000/svg">
<g clip-path="url(#clip0_51_81062)">
<path d="M24 13.0008H0V11.0008H24V13.0008ZM8.886 0.427787L8.786 0.359787C8.40684 0.13235 7.97415 0.00953562 7.53205 0.0038676C7.08994 -0.00180042 6.65424 0.109881 6.26938 0.327523C5.88452 0.545165 5.56426 0.860981 5.34126 1.24277C5.11827 1.62455 5.00051 2.05865 5 2.50079V9.00079H19.916L8.886 0.427787ZM8.786 23.6418L19.916 15.0008H5V21.5008C4.99816 21.944 5.11445 22.3797 5.33691 22.763C5.55938 23.1463 5.87997 23.4634 6.26569 23.6817C6.65142 23.9 7.08834 24.0115 7.53149 24.0049C7.97464 23.9982 8.40802 23.8736 8.787 23.6438L8.786 23.6418Z" fill="#374957"/>
</g>
<defs>
<clipPath id="clip0_51_81062">
<rect width="24" height="24" fill="white"/>
</clipPath>
</defs>
</svg>
