<svg width="24" height="24" viewBox="0 0 24 24" fill="none" xmlns="http://www.w3.org/2000/svg">
<g clip-path="url(#clip0_51_69336)">
<path d="M23.9997 11.4999C23.9997 10.8103 23.7957 10.1361 23.4133 9.56219C23.0309 8.9883 22.4872 8.54041 21.8507 8.27493C21.4496 5.95476 20.2406 3.8513 18.4377 2.33683C16.6348 0.822363 14.3543 -0.00544021 11.9997 -6.55447e-05V-6.55447e-05C9.6451 -0.00544021 7.36454 0.822363 5.56164 2.33683C3.75874 3.8513 2.54976 5.95476 2.14868 8.27493C1.42374 8.581 0.823092 9.12244 0.443693 9.81183C0.0642936 10.5012 -0.0717195 11.2984 0.0576086 12.0746C0.186937 12.8508 0.57406 13.5607 1.15649 14.0899C1.73892 14.619 2.48266 14.9365 3.26768 14.9909C3.65378 15.8195 4.14846 16.5929 4.73868 17.2909C4.22136 17.5306 3.78304 17.9127 3.47505 18.3924C3.16707 18.8722 3.00217 19.4298 2.99968 19.9999V23.9999H4.99968V19.9999C4.99968 19.7347 5.10503 19.4804 5.29257 19.2928C5.48011 19.1053 5.73446 18.9999 5.99968 18.9999H6.52768C8.08225 20.25 10.0054 20.9529 11.9997 20.9999V20.9999C13.9949 20.9532 15.9191 20.2502 17.4747 18.9999H17.9997C18.2649 18.9999 18.5192 19.1053 18.7068 19.2928C18.8943 19.4804 18.9997 19.7347 18.9997 19.9999V23.9999H20.9997V19.9999C20.9977 19.4296 20.8331 18.8716 20.5253 18.3915C20.2174 17.9113 19.7791 17.5289 19.2617 17.2889C19.8513 16.5907 20.3456 15.8173 20.7317 14.9889C21.6168 14.9289 22.4463 14.5355 23.0528 13.888C23.6593 13.2405 23.9977 12.3871 23.9997 11.4999ZM20.2477 12.9729L19.4127 12.8249L19.1307 13.6249C18.2147 16.2219 15.1297 18.9999 11.9997 18.9999C8.86968 18.9999 5.78568 16.2199 4.86868 13.6239L4.58868 12.8309L3.75868 12.9709C3.6733 12.9878 3.58666 12.9975 3.49968 12.9999C3.1293 12.9943 2.7741 12.8519 2.50248 12.6001C2.23086 12.3482 2.06202 12.0048 2.0285 11.6359C1.99498 11.267 2.09913 10.8987 2.3209 10.602C2.54267 10.3053 2.86638 10.1012 3.22968 10.0289L3.96768 9.89993L4.04568 9.15594C4.17968 7.87418 4.62278 6.64411 5.33692 5.57133C6.05105 4.49856 7.01489 3.61514 8.14568 2.99693C8.05432 3.32365 8.00526 3.66073 7.99968 3.99994C7.99968 5.0608 8.4211 6.07822 9.17125 6.82836C9.92139 7.57851 10.9388 7.99994 11.9997 7.99994C13.0605 7.99994 14.078 7.57851 14.8281 6.82836C15.5782 6.07822 15.9997 5.0608 15.9997 3.99994H13.9997C13.9997 4.3955 13.8824 4.78218 13.6626 5.11108C13.4429 5.43997 13.1305 5.69632 12.765 5.84769C12.3996 5.99907 11.9975 6.03868 11.6095 5.96151C11.2215 5.88434 10.8652 5.69385 10.5855 5.41415C10.3058 5.13444 10.1153 4.77808 10.0381 4.39012C9.96093 4.00215 10.0005 3.60002 10.1519 3.23457C10.3033 2.86912 10.5596 2.55676 10.8885 2.337C11.2174 2.11723 11.6041 1.99993 11.9997 1.99993C13.9755 1.99521 15.8828 2.72384 17.3522 4.04472C18.8216 5.36561 19.7486 7.18477 19.9537 9.14993L20.0317 9.89394L20.7697 10.0269C21.1351 10.0971 21.4614 10.3007 21.6851 10.598C21.9089 10.8952 22.0142 11.2651 21.9805 11.6357C21.9468 12.0062 21.7767 12.3511 21.503 12.6032C21.2293 12.8553 20.8718 12.9967 20.4997 12.9999C20.4151 12.9979 20.3309 12.9892 20.2477 12.9739V12.9729Z" fill="#374957"/>
<path d="M9.49976 13.0012C10.3282 13.0012 10.9998 12.3296 10.9998 11.5012C10.9998 10.6727 10.3282 10.0012 9.49976 10.0012C8.67133 10.0012 7.99976 10.6727 7.99976 11.5012C7.99976 12.3296 8.67133 13.0012 9.49976 13.0012Z" fill="#374957"/>
<path d="M14.5002 13.0012C15.3287 13.0012 16.0002 12.3296 16.0002 11.5012C16.0002 10.6727 15.3287 10.0012 14.5002 10.0012C13.6718 10.0012 13.0002 10.6727 13.0002 11.5012C13.0002 12.3296 13.6718 13.0012 14.5002 13.0012Z" fill="#374957"/>
</g>
<defs>
<clipPath id="clip0_51_69336">
<rect width="24" height="24" fill="white"/>
</clipPath>
</defs>
</svg>
