<svg width="24" height="24" viewBox="0 0 24 24" fill="none" xmlns="http://www.w3.org/2000/svg">
<g clip-path="url(#clip0_51_80589)">
<path d="M23.1213 7.12204L20.7073 4.70704L22.7073 2.70704L21.2933 1.29304L19.2933 3.29304L16.8793 0.879042C16.6008 0.600413 16.27 0.379389 15.906 0.228593C15.542 0.0777972 15.1518 0.000183105 14.7578 0.000183105C14.3638 0.000183105 13.9737 0.0777972 13.6097 0.228593C13.2457 0.379389 12.9149 0.600413 12.6363 0.879042L9.80834 3.70704L14.3433 8.24304L8.24334 14.343L3.70734 9.80804L0.879336 12.636C0.316923 13.1986 0.000976562 13.9615 0.000976562 14.757C0.000976562 15.5525 0.316923 16.3155 0.879336 16.878L3.29334 19.293L1.29334 21.293L2.70734 22.707L4.70734 20.707L7.12134 23.121C7.39992 23.3997 7.73066 23.6207 8.09467 23.7715C8.45868 23.9223 8.84883 23.9999 9.24284 23.9999C9.63684 23.9999 10.027 23.9223 10.391 23.7715C10.755 23.6207 11.0858 23.3997 11.3643 23.121L14.1923 20.293L9.65734 15.757L15.7573 9.65704L20.2923 14.192L23.1203 11.364C23.6827 10.8015 23.9987 10.0385 23.9987 9.24304C23.9987 8.44755 23.6827 7.68463 23.1203 7.12204H23.1213Z" fill="#374957"/>
</g>
<defs>
<clipPath id="clip0_51_80589">
<rect width="24" height="24" fill="white"/>
</clipPath>
</defs>
</svg>
