<svg width="24" height="24" viewBox="0 0 24 24" fill="none" xmlns="http://www.w3.org/2000/svg">
<g clip-path="url(#clip0_51_71629)">
<path d="M19.9492 5.53645L16.4652 2.05045C15.8165 1.39859 15.045 0.881781 14.1954 0.529909C13.3457 0.178038 12.4348 -0.00191663 11.5152 0.000450295H7.00015C5.67456 0.00203815 4.40371 0.529332 3.46637 1.46667C2.52903 2.40401 2.00174 3.67486 2.00015 5.00045V19.0005C2.00174 20.326 2.52903 21.5969 3.46637 22.5342C4.40371 23.4716 5.67456 23.9989 7.00015 24.0005H17.0002C18.3257 23.9989 19.5966 23.4716 20.5339 22.5342C21.4713 21.5969 21.9986 20.326 22.0002 19.0005V10.4854C22.0026 9.56587 21.8226 8.65494 21.4706 7.80542C21.1185 6.95591 20.6014 6.18469 19.9492 5.53645V5.53645ZM18.5352 6.95045C18.8405 7.2646 19.1031 7.61764 19.3162 8.00045H15.0002C14.7349 8.00045 14.4806 7.89509 14.293 7.70756C14.1055 7.52002 14.0002 7.26567 14.0002 7.00045V2.68445C14.3831 2.89737 14.7364 3.15961 15.0512 3.46445L18.5352 6.95045ZM20.0002 19.0005C20.0002 19.7961 19.6841 20.5592 19.1215 21.1218C18.5589 21.6844 17.7958 22.0005 17.0002 22.0005H7.00015C6.2045 22.0005 5.44144 21.6844 4.87883 21.1218C4.31622 20.5592 4.00015 19.7961 4.00015 19.0005V5.00045C4.00015 4.2048 4.31622 3.44174 4.87883 2.87913C5.44144 2.31652 6.2045 2.00045 7.00015 2.00045H11.5152C11.6792 2.00045 11.8382 2.03245 12.0002 2.04745V7.00045C12.0002 7.7961 12.3162 8.55916 12.8788 9.12177C13.4414 9.68438 14.2045 10.0005 15.0002 10.0005H19.9532C19.9682 10.1625 20.0002 10.3204 20.0002 10.4854V19.0005Z" fill="#374957"/>
</g>
<defs>
<clipPath id="clip0_51_71629">
<rect width="24" height="24" fill="white"/>
</clipPath>
</defs>
</svg>
