<svg width="24" height="24" viewBox="0 0 24 24" fill="none" xmlns="http://www.w3.org/2000/svg">
<g clip-path="url(#clip0_51_69579)">
<path d="M21.5109 2.49016C19.9158 0.898002 17.7541 0.00378418 15.5004 0.00378418C13.2466 0.00378418 11.085 0.898002 9.48988 2.49016C6.31788 5.66116 6.01188 13.6282 5.99988 13.9662L5.98588 14.4002L7.08588 15.5002L2.80688 19.7792C2.66578 19.5211 2.4519 19.3101 2.19185 19.1726C1.93181 19.0351 1.63707 18.9771 1.34432 19.0059C1.05157 19.0346 0.773719 19.1487 0.54534 19.3341C0.31696 19.5195 0.148131 19.768 0.0598569 20.0486C-0.028417 20.3292 -0.0322394 20.6295 0.0488653 20.9123C0.12997 21.195 0.292422 21.4477 0.51601 21.6388C0.739598 21.83 1.01445 21.9512 1.30638 21.9873C1.59831 22.0235 1.89442 21.973 2.15788 21.8422C2.02705 22.1056 1.97657 22.4017 2.01272 22.6937C2.04887 22.9856 2.17005 23.2604 2.3612 23.484C2.55235 23.7076 2.80501 23.8701 3.08777 23.9512C3.37052 24.0323 3.67088 24.0285 3.95148 23.9402C4.23208 23.8519 4.48053 23.6831 4.66593 23.4547C4.85132 23.2263 4.96548 22.9485 4.99419 22.6557C5.0229 22.363 4.9649 22.0682 4.8274 21.8082C4.68991 21.5481 4.47899 21.3343 4.22088 21.1932L8.49988 16.9142L9.59988 18.0142L10.0339 18.0002C10.3719 17.9882 18.3339 17.6822 21.5109 14.5102C23.1025 12.915 23.9963 10.7536 23.9963 8.50016C23.9963 6.24675 23.1025 4.08535 21.5109 2.49016V2.49016ZM20.0999 13.1002C18.0639 15.1352 12.7649 15.8442 10.3999 15.9842L8.01988 13.6052C8.15988 11.2382 8.86888 5.93916 10.9039 3.90516C12.1232 2.68569 13.777 2.00055 15.5015 2.00046C17.226 2.00037 18.8799 2.68533 20.0994 3.90466C21.3188 5.12399 22.004 6.77782 22.0041 8.50231C22.0042 10.2268 21.3192 11.8807 20.0999 13.1002V13.1002Z" fill="#374957"/>
</g>
<defs>
<clipPath id="clip0_51_69579">
<rect width="24" height="24" fill="white"/>
</clipPath>
</defs>
</svg>
