<svg width="24" height="24" viewBox="0 0 24 24" fill="none" xmlns="http://www.w3.org/2000/svg">
<g clip-path="url(#clip0_51_72492)">
<path d="M23.7071 5.29341L18.7071 0.293407C18.5185 0.111249 18.2658 0.0104547 18.0037 0.0127331C17.7415 0.0150115 17.4906 0.12018 17.3052 0.305589C17.1198 0.490997 17.0147 0.741809 17.0124 1.00401C17.0101 1.2662 17.1109 1.5188 17.2931 1.70741L19.0861 3.50041L17.6001 4.98341C16.6396 4.27822 15.459 3.93919 14.2707 4.02737C13.0825 4.11556 11.9648 4.62517 11.1191 5.46441L5.05005 11.5364C4.39813 12.1848 3.88127 12.9561 3.52939 13.8056C3.17751 14.6551 2.9976 15.5659 3.00005 16.4854V19.5854L0.293051 22.2934C0.19754 22.3857 0.121358 22.496 0.0689493 22.618C0.0165403 22.74 -0.011046 22.8712 -0.0121998 23.004C-0.0133536 23.1368 0.0119481 23.2685 0.062229 23.3914C0.11251 23.5143 0.186763 23.6259 0.280656 23.7198C0.374548 23.8137 0.4862 23.8879 0.609097 23.9382C0.731993 23.9885 0.863673 24.0138 0.996452 24.0127C1.12923 24.0115 1.26045 23.9839 1.38246 23.9315C1.50446 23.8791 1.6148 23.8029 1.70705 23.7074L4.41405 21.0004H7.51405C8.43353 21.0029 9.34437 20.8229 10.1939 20.4711C11.0434 20.1192 11.8146 19.6023 12.4631 18.9504L18.5351 12.8784C19.3749 12.0337 19.8851 10.9165 19.9735 9.72851C20.0619 8.54056 19.7227 7.36016 19.0171 6.40041L20.5001 4.91441L22.2931 6.70741C22.4817 6.88957 22.7343 6.99036 22.9965 6.98808C23.2586 6.9858 23.5095 6.88063 23.6949 6.69523C23.8803 6.50982 23.9854 6.25901 23.9877 5.99681C23.99 5.73461 23.8892 5.48201 23.7071 5.29341V5.29341ZM17.1221 11.4644L11.0501 17.5364C10.5869 18.002 10.036 18.3712 9.42917 18.6224C8.8224 18.8737 8.1718 19.0022 7.51505 19.0004H5.00005V16.4854C5.00036 16.1578 5.03217 15.8309 5.09505 15.5094L6.29505 16.7094C6.3873 16.8049 6.49764 16.8811 6.61965 16.9335C6.74165 16.9859 6.87287 17.0135 7.00565 17.0147C7.13843 17.0158 7.27011 16.9905 7.393 16.9402C7.5159 16.8899 7.62755 16.8157 7.72145 16.7218C7.81534 16.6279 7.88959 16.5163 7.93987 16.3934C7.99015 16.2705 8.01546 16.1388 8.0143 16.006C8.01315 15.8732 7.98556 15.742 7.93315 15.62C7.88074 15.498 7.80456 15.3877 7.70905 15.2954L5.96805 13.5544C6.11878 13.3416 6.28596 13.141 6.46805 12.9544L7.50005 11.9144L9.29305 13.7074C9.48165 13.8896 9.73425 13.9904 9.99645 13.9881C10.2586 13.9858 10.5095 13.8806 10.6949 13.6952C10.8803 13.5098 10.9854 13.259 10.9877 12.9968C10.99 12.7346 10.8892 12.482 10.7071 12.2934L8.91405 10.5004L10.5001 8.91441L12.2931 10.7074C12.4817 10.8896 12.7343 10.9904 12.9965 10.9881C13.2586 10.9858 13.5095 10.8806 13.6949 10.6952C13.8803 10.5098 13.9854 10.259 13.9877 9.99681C13.99 9.73461 13.8892 9.48201 13.7071 9.29341L11.9141 7.50041L12.5361 6.87841C13.1076 6.33323 13.8672 6.02907 14.6571 6.02907C15.4469 6.02907 16.2065 6.33323 16.7781 6.87841L17.1221 7.22241C17.6845 7.78499 18.0004 8.54792 18.0004 9.34341C18.0004 10.1389 17.6845 10.9018 17.1221 11.4644Z" fill="#374957"/>
</g>
<defs>
<clipPath id="clip0_51_72492">
<rect width="24" height="24" fill="white"/>
</clipPath>
</defs>
</svg>
