<svg width="24" height="24" viewBox="0 0 24 24" fill="none" xmlns="http://www.w3.org/2000/svg">
<g clip-path="url(#clip0_51_68977)">
<path d="M3.12097 11.293L13.013 1.4L11.6 -0.0130005L1.70697 9.879C1.14456 10.4416 0.828613 11.2045 0.828613 12C0.828613 12.7955 1.14456 13.5584 1.70697 14.121L11.592 24.006L13.006 22.592L3.12197 12.707C2.93437 12.5196 2.82887 12.2654 2.82869 12.0002C2.8285 11.735 2.93363 11.4807 3.12097 11.293V11.293Z" fill="#374957"/>
<path d="M23 1.417L21.583 0L10.293 11.29C10.1056 11.4775 10.0002 11.7318 10.0002 11.997C10.0002 12.2622 10.1056 12.5165 10.293 12.704L21.584 24L23 22.584L12.414 12L23 1.417Z" fill="#374957"/>
</g>
<defs>
<clipPath id="clip0_51_68977">
<rect width="24" height="24" fill="white"/>
</clipPath>
</defs>
</svg>
