<svg width="24" height="24" viewBox="0 0 24 24" fill="none" xmlns="http://www.w3.org/2000/svg">
<g clip-path="url(#clip0_51_70883)">
<path d="M24 8.00639L20 10.9884V8.99939C20 8.20374 19.6839 7.44068 19.1213 6.87807C18.5587 6.31546 17.7956 5.99939 17 5.99939H14.915L9.915 0.99939H0V2.99939H9.086L12.086 5.99939H3C2.20435 5.99939 1.44129 6.31546 0.87868 6.87807C0.31607 7.44068 0 8.20374 0 8.99939L0 23.9994H20V19.0104L24 21.9924V8.00639ZM18 21.9994H2V8.99939C2 8.73417 2.10536 8.47982 2.29289 8.29228C2.48043 8.10475 2.73478 7.99939 3 7.99939H17C17.2652 7.99939 17.5196 8.10475 17.7071 8.29228C17.8946 8.47982 18 8.73417 18 8.99939V21.9994ZM22 18.0064L20 16.5154V13.4834L22 11.9924V18.0064Z" fill="#374957"/>
</g>
<defs>
<clipPath id="clip0_51_70883">
<rect width="24" height="24" fill="white"/>
</clipPath>
</defs>
</svg>
