<svg width="24" height="24" viewBox="0 0 24 24" fill="none" xmlns="http://www.w3.org/2000/svg">
<g clip-path="url(#clip0_51_80965)">
<path d="M3.99988 8.00032C3.20875 8.00032 2.43539 7.76572 1.7776 7.3262C1.1198 6.88667 0.607109 6.26196 0.304358 5.53105C0.00160793 4.80015 -0.0776054 3.99588 0.0767355 3.21996C0.231076 2.44404 0.61204 1.7313 1.17145 1.17189C1.73086 0.612483 2.44359 0.23152 3.21952 0.0771792C3.99544 -0.0771617 4.79971 0.00205165 5.53061 0.304802C6.26152 0.607553 6.88623 1.12024 7.32576 1.77804C7.76528 2.43584 7.99988 3.2092 7.99988 4.00032C7.99988 5.06119 7.57845 6.0786 6.8283 6.82875C6.07816 7.57889 5.06074 8.00032 3.99988 8.00032V8.00032ZM7.93388 8.52032L18.2339 18.8203C19.2082 18.3103 20.0991 17.6548 20.8759 16.8763C22.7895 14.9907 23.9075 12.4433 23.9999 9.75832C24.0519 8.4631 23.8359 7.17108 23.3652 5.96326C22.8946 4.75545 22.1795 3.65787 21.2649 2.73932C19.7168 1.23043 17.711 0.279113 15.563 0.0350817C13.4151 -0.20895 11.247 0.268157 9.39988 1.39132C9.97715 2.57468 10.1464 3.91586 9.88118 5.20553C9.61597 6.49519 8.93125 7.66077 7.93388 8.52032ZM6.17088 9.58632C5.48763 9.85458 4.76088 9.99492 4.02688 10.0003C3.96591 11.7279 4.32772 13.4443 5.08088 15.0003C5.13227 15.0923 5.15218 15.1986 5.13755 15.3029C5.12293 15.4073 5.07458 15.504 4.99988 15.5783L1.28188 18.1533C0.911227 18.4434 0.6056 18.8081 0.384765 19.2238C0.163931 19.6394 0.0328073 20.0968 -0.000123421 20.5663C-0.0178989 20.9648 0.0489254 21.3624 0.19595 21.7332C0.342974 22.1039 0.566863 22.4393 0.852877 22.7173L1.29788 23.1393C1.85075 23.6909 2.59991 24.0006 3.38088 24.0003C3.81341 23.9835 4.23805 23.8792 4.62908 23.6935C5.02012 23.5079 5.36943 23.2448 5.65588 22.9203L8.39988 19.0003C8.47261 18.9169 8.57097 18.8599 8.67956 18.8384C8.78814 18.8168 8.9008 18.8319 8.99988 18.8813C11.2351 19.9779 13.7887 20.2396 16.1999 19.6193L6.17088 9.58632Z" fill="#374957"/>
</g>
<defs>
<clipPath id="clip0_51_80965">
<rect width="24" height="24" fill="white"/>
</clipPath>
</defs>
</svg>
