<svg width="24" height="24" viewBox="0 0 24 24" fill="none" xmlns="http://www.w3.org/2000/svg">
<g clip-path="url(#clip0_51_80791)">
<path d="M19.0704 2.9289C18.1427 1.99422 17.0396 1.25196 15.8243 0.744743C14.6091 0.237525 13.3056 -0.024667 11.9887 -0.0267815C10.6718 -0.0288961 9.36752 0.229109 8.15063 0.732422C6.93373 1.23573 5.82823 1.97444 4.89759 2.90614C3.96695 3.83784 3.22949 4.94417 2.72755 6.16163C2.22562 7.3791 1.96909 8.68371 1.97269 10.0006C1.9763 11.3174 2.23997 12.6206 2.74856 13.8353C3.25715 15.05 4.00065 16.1523 4.93638 17.0789L11.9994 23.9869L19.0704 17.0709C20.9457 15.1955 21.9992 12.652 21.9992 9.9999C21.9992 7.34777 20.9457 4.80426 19.0704 2.9289V2.9289ZM15.9994 10.9999H12.9994V13.9999H10.9994V10.9999H7.99938V8.9999H10.9994V5.9999H12.9994V8.9999H15.9994V10.9999Z" fill="#374957"/>
</g>
<defs>
<clipPath id="clip0_51_80791">
<rect width="24" height="24" fill="white"/>
</clipPath>
</defs>
</svg>
