<svg width="24" height="24" viewBox="0 0 24 24" fill="none" xmlns="http://www.w3.org/2000/svg">
<g clip-path="url(#clip0_51_69668)">
<path d="M14.4141 0H5.00012C4.20447 0 3.44141 0.31607 2.8788 0.87868C2.31619 1.44129 2.00012 2.20435 2.00012 3V24H22.0001V7.586L14.4141 0ZM15.0001 3.414L18.5861 7H15.0001V3.414ZM4.00012 22V3C4.00012 2.73478 4.10548 2.48043 4.29302 2.29289C4.48055 2.10536 4.73491 2 5.00012 2H13.0001V9H20.0001V22H4.00012ZM15.2931 13.122L16.7071 14.536L13.1211 18.121C12.8425 18.3996 12.5118 18.6207 12.1478 18.7715C11.7838 18.9222 11.3936 18.9999 10.9996 18.9999C10.6056 18.9999 10.2155 18.9222 9.85145 18.7715C9.48744 18.6207 9.1567 18.3996 8.87812 18.121L7.29312 16.536L8.70712 15.122L10.2931 16.707C10.4835 16.889 10.7367 16.9906 11.0001 16.9906C11.2635 16.9906 11.5168 16.889 11.7071 16.707L15.2931 13.122Z" fill="#374957"/>
</g>
<defs>
<clipPath id="clip0_51_69668">
<rect width="24" height="24" fill="white"/>
</clipPath>
</defs>
</svg>
