<svg width="24" height="24" viewBox="0 0 24 24" fill="none" xmlns="http://www.w3.org/2000/svg">
<g clip-path="url(#clip0_51_81965)">
<path d="M18.3572 7.36095C18.1856 7.30789 18.0299 7.21318 17.9039 7.08528C17.778 6.95737 17.6856 6.80025 17.6352 6.62794C17.106 4.92757 16.0246 3.45235 14.5624 2.43598C13.1001 1.41962 11.3405 0.920206 9.56227 1.01686C7.78409 1.11352 6.08899 1.80072 4.74548 2.96961C3.40198 4.13849 2.48689 5.72223 2.14516 7.46994C1.79361 9.23662 2.07692 11.0707 2.94516 12.6489C1.93379 13.1711 1.11138 13.997 0.593399 15.0105C0.0754212 16.0241 -0.112101 17.1744 0.0571651 18.2999C0.317816 19.6078 1.01798 20.7871 2.04138 21.642C3.06478 22.497 4.34985 22.9761 5.68317 22.9999H14.7832C19.8562 22.9999 23.6342 19.9729 23.9722 15.6379C24.1235 13.8243 23.6487 12.0135 22.627 10.5074C21.6053 9.00131 20.0983 7.8908 18.3572 7.36095V7.36095ZM18.6652 18.7469L17.0792 20.1609C16.8074 20.43 16.4852 20.6426 16.131 20.7866C15.7767 20.9306 15.3975 21.0031 15.0152 20.9999C14.6186 21.0007 14.2258 20.9232 13.8592 20.7719C13.4927 20.6205 13.1596 20.3983 12.8792 20.1179L11.3352 18.7439C11.2371 18.6566 11.1571 18.5508 11.0999 18.4326C11.0427 18.3144 11.0093 18.186 11.0017 18.0549C10.9864 17.7901 11.0768 17.5301 11.2532 17.3319C11.4295 17.1338 11.6774 17.0139 11.9422 16.9985C12.0733 16.9909 12.2046 17.0092 12.3287 17.0523C12.4527 17.0955 12.5671 17.1626 12.6652 17.2499L14.0002 18.4439V10.9999C14.0002 10.7347 14.1055 10.4804 14.2931 10.2928C14.4806 10.1053 14.7349 9.99995 15.0002 9.99995C15.2654 9.99995 15.5197 10.1053 15.7073 10.2928C15.8948 10.4804 16.0002 10.7347 16.0002 10.9999V18.4449L17.3352 17.2529C17.5333 17.0766 17.7933 16.9861 18.0581 17.0015C18.323 17.0169 18.5708 17.1368 18.7472 17.3349C18.9235 17.5331 19.014 17.7931 18.9986 18.0579C18.9832 18.3227 18.8633 18.5706 18.6652 18.7469Z" fill="#374957"/>
</g>
<defs>
<clipPath id="clip0_51_81965">
<rect width="24" height="24" fill="white"/>
</clipPath>
</defs>
</svg>
