<svg width="24" height="24" viewBox="0 0 24 24" fill="none" xmlns="http://www.w3.org/2000/svg">
<g clip-path="url(#clip0_51_70896)">
<path d="M21.7208 21.0006L19.7208 15.0006H12.9998C12.7346 15.0006 12.4802 14.8952 12.2927 14.7077C12.1051 14.5202 11.9998 14.2658 11.9998 14.0006V13.0006H18.9998V11.0006H11.9998V7.85858C12.9424 7.61519 13.764 7.03635 14.3104 6.23057C14.8568 5.42479 15.0906 4.44739 14.9679 3.48158C14.8452 2.51576 14.3745 1.62785 13.644 0.984257C12.9135 0.340668 11.9734 -0.0144043 10.9998 -0.0144043C10.0262 -0.0144043 9.08606 0.340668 8.35556 0.984257C7.62505 1.62785 7.15435 2.51576 7.03167 3.48158C6.909 4.44739 7.14278 5.42479 7.68919 6.23057C8.2356 7.03635 9.05713 7.61519 9.99979 7.85858V14.0006C9.99979 14.7962 10.3159 15.5593 10.8785 16.1219C11.4411 16.6845 12.2041 17.0006 12.9998 17.0006H13.9098C13.7191 18.1288 13.2098 19.1789 12.4419 20.0272C11.674 20.8755 10.6796 21.4865 9.57593 21.7882C8.47223 22.0899 7.30528 22.0698 6.21265 21.7301C5.12003 21.3905 4.1473 20.7455 3.40917 19.8712C2.67104 18.997 2.19828 17.9299 2.04664 16.7958C1.89499 15.6617 2.07079 14.5079 2.5533 13.4704C3.03581 12.4329 3.80491 11.555 4.76992 10.9402C5.73492 10.3254 6.85559 9.99942 7.99979 10.0006V8.00058C6.45994 7.99938 4.95247 8.4426 3.65832 9.27704C2.36417 10.1115 1.33834 11.3017 0.703964 12.7048C0.06959 14.1079 -0.146368 15.6643 0.0820122 17.1871C0.310392 18.7099 0.973406 20.1345 1.99147 21.2897C3.00953 22.445 4.33937 23.2819 5.82137 23.7C7.30337 24.1181 8.87454 24.0997 10.3463 23.6468C11.818 23.1939 13.1278 22.3259 14.1184 21.147C15.109 19.9681 15.7383 18.5284 15.9308 17.0006H18.2788L20.2788 23.0006H23.9998V21.0006H21.7208ZM8.99979 4.00058C8.99979 3.60502 9.11709 3.21834 9.33685 2.88944C9.55661 2.56054 9.86897 2.3042 10.2344 2.15282C10.5999 2.00145 11.002 1.96184 11.39 2.03901C11.7779 2.11618 12.1343 2.30666 12.414 2.58637C12.6937 2.86607 12.8842 3.22244 12.9614 3.6104C13.0385 3.99836 12.9989 4.40049 12.8475 4.76595C12.6962 5.1314 12.4398 5.44376 12.1109 5.66352C11.782 5.88328 11.3954 6.00058 10.9998 6.00058C10.4694 6.00058 9.96065 5.78987 9.58558 5.41479C9.2105 5.03972 8.99979 4.53101 8.99979 4.00058Z" fill="#374957"/>
</g>
<defs>
<clipPath id="clip0_51_70896">
<rect width="24" height="24" fill="white"/>
</clipPath>
</defs>
</svg>
