<svg width="24" height="24" viewBox="0 0 24 24" fill="none" xmlns="http://www.w3.org/2000/svg">
<g clip-path="url(#clip0_51_70195)">
<path d="M23.0997 0.899665C22.516 0.343687 21.7408 0.0335693 20.9347 0.0335693C20.1286 0.0335693 19.3534 0.343687 18.7697 0.899665L7.56268 12.0997C7.21403 12.0326 6.85974 11.9991 6.50468 11.9997C5.78288 11.9976 5.06785 12.1387 4.40098 12.4149C3.73411 12.6911 3.12866 13.0969 2.61968 13.6087C0.699682 15.5327 0.185682 21.6277 0.0996817 22.8297L0.0236816 23.9757L1.16868 23.8957C2.36868 23.8137 8.46868 23.3027 10.3907 21.3797C11.0265 20.7421 11.4958 19.958 11.7573 19.0964C12.0189 18.2348 12.0647 17.3221 11.8907 16.4387L23.0997 5.22967C23.6724 4.65467 23.9939 3.87619 23.9939 3.06466C23.9939 2.25314 23.6724 1.47466 23.0997 0.899665V0.899665ZM8.97668 19.9657C8.04668 20.8947 4.70968 21.5257 2.20268 21.7957C2.48568 19.1957 3.14568 15.9117 4.03368 15.0227C4.69993 14.4226 5.57105 14.1011 6.46738 14.1245C7.3637 14.1479 8.21686 14.5145 8.85087 15.1485C9.48489 15.7825 9.8514 16.6356 9.87481 17.532C9.89822 18.4283 9.57674 19.2994 8.97668 19.9657V19.9657ZM21.6877 3.81566L11.0667 14.4377C10.6721 13.8402 10.1621 13.3275 9.56668 12.9297L20.1837 2.31166C20.3857 2.11874 20.6543 2.01109 20.9337 2.01109C21.213 2.01109 21.4816 2.11874 21.6837 2.31166C21.7829 2.41006 21.8617 2.52705 21.9156 2.65595C21.9695 2.78485 21.9974 2.92312 21.9978 3.06283C21.9982 3.20255 21.971 3.34096 21.9178 3.47015C21.8645 3.59933 21.7864 3.71675 21.6877 3.81566V3.81566Z" fill="#374957"/>
</g>
<defs>
<clipPath id="clip0_51_70195">
<rect width="24" height="24" fill="white"/>
</clipPath>
</defs>
</svg>
