<svg width="24" height="24" viewBox="0 0 24 24" fill="none" xmlns="http://www.w3.org/2000/svg">
<g clip-path="url(#clip0_51_79971)">
<path d="M23 13.0001C23 12.2044 22.6839 11.4414 22.1213 10.8787C21.5587 10.3161 20.7956 10.0001 20 10.0001H19V8.00006H11V13.0001C11 13.7957 10.6839 14.5588 10.1213 15.1214C9.55871 15.684 8.79565 16.0001 8 16.0001C7.20435 16.0001 6.44129 15.684 5.87868 15.1214C5.31607 14.5588 5 13.7957 5 13.0001V8.00006H1V21.0001C1 21.7957 1.31607 22.5588 1.87868 23.1214C2.44129 23.684 3.20435 24.0001 4 24.0001H16C16.7956 24.0001 17.5587 23.684 18.1213 23.1214C18.6839 22.5588 19 21.7957 19 21.0001V20.0001H23V13.0001ZM21 18.0001H19V12.0001H20C20.2652 12.0001 20.5196 12.1054 20.7071 12.293C20.8946 12.4805 21 12.7348 21 13.0001V18.0001ZM7 6.00006H2C2.00002 4.97989 2.38984 3.99829 3.0897 3.25604C3.78957 2.51379 4.74659 2.067 5.765 2.00706C6.18251 1.39306 6.745 0.891493 7.40265 0.546804C8.06031 0.202115 8.79282 0.0249394 9.5353 0.0309718C10.2778 0.0370042 11.0073 0.226059 11.6593 0.581388C12.3113 0.936717 12.8655 1.44735 13.273 2.06806C13.8497 1.96361 14.4423 1.98678 15.0091 2.13594C15.5759 2.2851 16.1031 2.55663 16.5537 2.93143C17.0043 3.30623 17.3673 3.7752 17.6171 4.30536C17.867 4.83551 17.9977 5.41398 18 6.00006H9V13.0001C9 13.2653 8.89464 13.5196 8.70711 13.7072C8.51957 13.8947 8.26522 14.0001 8 14.0001C7.73478 14.0001 7.48043 13.8947 7.29289 13.7072C7.10536 13.5196 7 13.2653 7 13.0001V6.00006Z" fill="#374957"/>
</g>
<defs>
<clipPath id="clip0_51_79971">
<rect width="24" height="24" fill="white"/>
</clipPath>
</defs>
</svg>
