<svg width="24" height="24" viewBox="0 0 24 24" fill="none" xmlns="http://www.w3.org/2000/svg">
<g clip-path="url(#clip0_51_81311)">
<path d="M22.535 7.32415L23.965 5.92415L18.215 0.0511475L16.785 1.45115L19.041 3.75115L16.862 5.79215L15.95 4.87915C15.3888 4.31842 14.6284 4.00277 13.8351 4.00128C13.0418 3.99978 12.2802 4.31254 11.717 4.87115L14.923 8.07715L13.509 9.49115L10.3 6.28415L8.71597 7.87015L11.923 11.0771L10.509 12.4911L7.29997 9.28415L5.71597 10.8701L8.92297 14.0771L7.50897 15.4911L4.29997 12.2841L2.99997 13.5861V19.5861L0.0429688 22.5431L1.45697 23.9572L4.41397 21.0001H10.414L19.121 12.2931C19.3996 12.0146 19.6206 11.6838 19.7714 11.3198C19.9222 10.9558 19.9998 10.5657 19.9998 10.1716C19.9998 9.77764 19.9222 9.38749 19.7714 9.02348C19.6206 8.65947 19.3996 8.32873 19.121 8.05015L18.277 7.20715L20.44 5.18415L22.535 7.32415Z" fill="#374957"/>
</g>
<defs>
<clipPath id="clip0_51_81311">
<rect width="24" height="24" fill="white"/>
</clipPath>
</defs>
</svg>
