<svg width="24" height="24" viewBox="0 0 24 24" fill="none" xmlns="http://www.w3.org/2000/svg">
<g clip-path="url(#clip0_51_70431)">
<path d="M8.00024 8V6H16.0002V8H8.00024ZM5.00024 22C4.73503 22 4.48067 21.8946 4.29314 21.7071C4.1056 21.5196 4.00024 21.2652 4.00024 21V3C4.00024 2.73478 4.1056 2.48043 4.29314 2.29289C4.48067 2.10536 4.73503 2 5.00024 2H20.0002V11.5C20.7428 11.8125 21.421 12.2601 22.0002 12.82V0H5.00024C4.20459 0 3.44153 0.31607 2.87892 0.87868C2.31631 1.44129 2.00024 2.20435 2.00024 3V21C2.00024 21.7956 2.31631 22.5587 2.87892 23.1213C3.44153 23.6839 4.20459 24 5.00024 24H17.5002C16.6257 23.9999 15.7602 23.8226 14.956 23.4789C14.1519 23.1352 13.4257 22.6321 12.8212 22H5.00024ZM22.5432 23.957L19.8862 21.3C19.1734 21.755 18.3459 21.9977 17.5002 22C16.6102 22 15.7402 21.7361 15.0002 21.2416C14.2602 20.7471 13.6834 20.0443 13.3428 19.2221C13.0022 18.3998 12.9131 17.495 13.0867 16.6221C13.2603 15.7492 13.6889 14.9474 14.3183 14.318C14.9476 13.6887 15.7494 13.2601 16.6223 13.0865C17.4953 12.9128 18.4001 13.0019 19.2223 13.3425C20.0446 13.6831 20.7474 14.2599 21.2419 14.9999C21.7363 15.74 22.0002 16.61 22.0002 17.5C21.998 18.3456 21.7552 19.1732 21.3002 19.886L23.9572 22.543L22.5432 23.957ZM17.5002 20C17.9947 20 18.478 19.8534 18.8892 19.5787C19.3003 19.304 19.6207 18.9135 19.8099 18.4567C19.9992 17.9999 20.0487 17.4972 19.9522 17.0123C19.8557 16.5273 19.6176 16.0819 19.268 15.7322C18.9184 15.3826 18.4729 15.1445 17.988 15.048C17.503 14.9516 17.0004 15.0011 16.5435 15.1903C16.0867 15.3795 15.6963 15.7 15.4216 16.1111C15.1469 16.5222 15.0002 17.0055 15.0002 17.5C15.0002 18.163 15.2636 18.7989 15.7325 19.2678C16.2013 19.7366 16.8372 20 17.5002 20Z" fill="#374957"/>
</g>
<defs>
<clipPath id="clip0_51_70431">
<rect width="24" height="24" fill="white"/>
</clipPath>
</defs>
</svg>
