<svg width="24" height="24" viewBox="0 0 24 24" fill="none" xmlns="http://www.w3.org/2000/svg">
<g clip-path="url(#clip0_51_82508)">
<path d="M19 5.99969H13V2.99969C13 2.73448 12.8946 2.48012 12.7071 2.29259C12.5196 2.10505 12.2652 1.99969 12 1.99969C11.7348 1.99969 11.4804 2.10505 11.2929 2.29259C11.1054 2.48012 11 2.73448 11 2.99969V5.99969H5C3.6744 6.00128 2.40356 6.52858 1.46622 7.46591C0.528882 8.40325 0.00158786 9.6741 0 10.9997L0 14.9997C0.00158786 16.3253 0.528882 17.5961 1.46622 18.5335C2.40356 19.4708 3.6744 19.9981 5 19.9997H19C20.3256 19.9981 21.5964 19.4708 22.5338 18.5335C23.4711 17.5961 23.9984 16.3253 24 14.9997V10.9997C23.9984 9.6741 23.4711 8.40325 22.5338 7.46591C21.5964 6.52858 20.3256 6.00128 19 5.99969V5.99969ZM10 9.99969H11C11.2652 9.99969 11.5196 10.1051 11.7071 10.2926C11.8946 10.4801 12 10.7345 12 10.9997C12 11.2649 11.8946 11.5193 11.7071 11.7068C11.5196 11.8943 11.2652 11.9997 11 11.9997H10C9.73478 11.9997 9.48043 11.8943 9.29289 11.7068C9.10536 11.5193 9 11.2649 9 10.9997C9 10.7345 9.10536 10.4801 9.29289 10.2926C9.48043 10.1051 9.73478 9.99969 10 9.99969V9.99969ZM5 15.9997C4.80222 15.9997 4.60888 15.941 4.44443 15.8312C4.27998 15.7213 4.15181 15.5651 4.07612 15.3824C4.00043 15.1997 3.98063 14.9986 4.01921 14.8046C4.0578 14.6106 4.15304 14.4324 4.29289 14.2926C4.43275 14.1527 4.61093 14.0575 4.80491 14.0189C4.99889 13.9803 5.19996 14.0001 5.38268 14.0758C5.56541 14.1515 5.72159 14.2797 5.83147 14.4441C5.94135 14.6086 6 14.8019 6 14.9997C6 15.2649 5.89464 15.5193 5.70711 15.7068C5.51957 15.8943 5.26522 15.9997 5 15.9997ZM6 11.9997H5C4.73478 11.9997 4.48043 11.8943 4.29289 11.7068C4.10536 11.5193 4 11.2649 4 10.9997C4 10.7345 4.10536 10.4801 4.29289 10.2926C4.48043 10.1051 4.73478 9.99969 5 9.99969H6C6.26522 9.99969 6.51957 10.1051 6.70711 10.2926C6.89464 10.4801 7 10.7345 7 10.9997C7 11.2649 6.89464 11.5193 6.70711 11.7068C6.51957 11.8943 6.26522 11.9997 6 11.9997ZM15 15.9997H9C8.73478 15.9997 8.48043 15.8943 8.29289 15.7068C8.10536 15.5193 8 15.2649 8 14.9997C8 14.7345 8.10536 14.4801 8.29289 14.2926C8.48043 14.1051 8.73478 13.9997 9 13.9997H15C15.2652 13.9997 15.5196 14.1051 15.7071 14.2926C15.8946 14.4801 16 14.7345 16 14.9997C16 15.2649 15.8946 15.5193 15.7071 15.7068C15.5196 15.8943 15.2652 15.9997 15 15.9997ZM19 15.9997C18.8022 15.9997 18.6089 15.941 18.4444 15.8312C18.28 15.7213 18.1518 15.5651 18.0761 15.3824C18.0004 15.1997 17.9806 14.9986 18.0192 14.8046C18.0578 14.6106 18.153 14.4324 18.2929 14.2926C18.4327 14.1527 18.6109 14.0575 18.8049 14.0189C18.9989 13.9803 19.2 14.0001 19.3827 14.0758C19.5654 14.1515 19.7216 14.2797 19.8315 14.4441C19.9414 14.6086 20 14.8019 20 14.9997C20 15.2649 19.8946 15.5193 19.7071 15.7068C19.5196 15.8943 19.2652 15.9997 19 15.9997ZM19 11.9997H15C14.7348 11.9997 14.4804 11.8943 14.2929 11.7068C14.1054 11.5193 14 11.2649 14 10.9997C14 10.7345 14.1054 10.4801 14.2929 10.2926C14.4804 10.1051 14.7348 9.99969 15 9.99969H19C19.2652 9.99969 19.5196 10.1051 19.7071 10.2926C19.8946 10.4801 20 10.7345 20 10.9997C20 11.2649 19.8946 11.5193 19.7071 11.7068C19.5196 11.8943 19.2652 11.9997 19 11.9997Z" fill="#374957"/>
</g>
<defs>
<clipPath id="clip0_51_82508">
<rect width="24" height="24" fill="white"/>
</clipPath>
</defs>
</svg>
