<svg width="24" height="24" viewBox="0 0 24 24" fill="none" xmlns="http://www.w3.org/2000/svg">
<g clip-path="url(#clip0_51_79953)">
<path d="M5 4.99991V18.9999H0V4.99991H5ZM24 18.9999V4.99991H19V18.9999H24ZM17 4.99991V18.9999H7V4.99991H17ZM13 9.99991C13 10.1977 13.0586 10.391 13.1685 10.5555C13.2784 10.7199 13.4346 10.8481 13.6173 10.9238C13.8 10.9995 14.0011 11.0193 14.1951 10.9807C14.3891 10.9421 14.5673 10.8469 14.7071 10.707C14.847 10.5672 14.9422 10.389 14.9808 10.195C15.0194 10.001 14.9996 9.79995 14.9239 9.61722C14.8482 9.4345 14.72 9.27832 14.5556 9.16844C14.3911 9.05856 14.1978 8.99991 14 8.99991C13.7348 8.99991 13.4804 9.10527 13.2929 9.2928C13.1054 9.48034 13 9.73469 13 9.99991ZM11 13.9999C11 13.8021 10.9414 13.6088 10.8315 13.4443C10.7216 13.2799 10.5654 13.1517 10.3827 13.076C10.2 13.0003 9.99889 12.9805 9.80491 13.0191C9.61093 13.0577 9.43275 13.1529 9.29289 13.2928C9.15304 13.4327 9.0578 13.6108 9.01921 13.8048C8.98063 13.9988 9.00043 14.1999 9.07612 14.3826C9.15181 14.5653 9.27998 14.7215 9.44443 14.8314C9.60888 14.9413 9.80222 14.9999 10 14.9999C10.2652 14.9999 10.5196 14.8946 10.7071 14.707C10.8946 14.5195 11 14.2651 11 13.9999ZM11 9.99991C11 9.80213 10.9414 9.60879 10.8315 9.44434C10.7216 9.27989 10.5654 9.15172 10.3827 9.07603C10.2 9.00034 9.99889 8.98054 9.80491 9.01912C9.61093 9.05771 9.43275 9.15295 9.29289 9.2928C9.15304 9.43265 9.0578 9.61084 9.01921 9.80482C8.98063 9.9988 9.00043 10.1999 9.07612 10.3826C9.15181 10.5653 9.27998 10.7215 9.44443 10.8314C9.60888 10.9413 9.80222 10.9999 10 10.9999C10.2652 10.9999 10.5196 10.8946 10.7071 10.707C10.8946 10.5195 11 10.2651 11 9.99991ZM15 13.9999C15 13.8021 14.9414 13.6088 14.8315 13.4443C14.7216 13.2799 14.5654 13.1517 14.3827 13.076C14.2 13.0003 13.9989 12.9805 13.8049 13.0191C13.6109 13.0577 13.4327 13.1529 13.2929 13.2928C13.153 13.4327 13.0578 13.6108 13.0192 13.8048C12.9806 13.9988 13.0004 14.1999 13.0761 14.3826C13.1518 14.5653 13.28 14.7215 13.4444 14.8314C13.6089 14.9413 13.8022 14.9999 14 14.9999C14.2652 14.9999 14.5196 14.8946 14.7071 14.707C14.8946 14.5195 15 14.2651 15 13.9999Z" fill="#374957"/>
</g>
<defs>
<clipPath id="clip0_51_79953">
<rect width="24" height="24" fill="white"/>
</clipPath>
</defs>
</svg>
