<svg width="24" height="24" viewBox="0 0 24 24" fill="none" xmlns="http://www.w3.org/2000/svg">
<g clip-path="url(#clip0_51_80724)">
<path d="M24.042 -0.0476074L24 1.04039C23.979 1.59139 23.417 14.6084 18.929 19.0964C17.1902 20.831 14.8703 21.8597 12.4174 21.9836C9.96448 22.1075 7.55268 21.318 5.64797 19.7674L16.708 8.70739L15.293 7.29339L4.23297 18.3534C2.68232 16.449 1.89231 14.0376 2.01549 11.5848C2.13868 9.132 3.16632 6.81186 4.89997 5.07239C9.29997 0.672392 22.4 0.0263926 22.955 0.000392579L24.042 -0.0476074ZM4.23297 18.3534L0.0429688 22.5434L1.45697 23.9574L5.64697 19.7674C5.12933 19.3448 4.6556 18.871 4.23297 18.3534V18.3534Z" fill="#374957"/>
</g>
<defs>
<clipPath id="clip0_51_80724">
<rect width="24" height="24" fill="white"/>
</clipPath>
</defs>
</svg>
