<svg width="24" height="24" viewBox="0 0 24 24" fill="none" xmlns="http://www.w3.org/2000/svg">
<g clip-path="url(#clip0_51_72636)">
<path d="M19.9479 24.0002H4.05192C3.36087 24.0042 2.68041 23.8304 2.07588 23.4956C1.47136 23.1608 0.963099 22.6761 0.59992 22.0882C0.24123 21.5143 0.0360998 20.8579 0.00422813 20.182C-0.0276436 19.506 0.114814 18.8332 0.41792 18.2282L8.37992 4.21217C8.72255 3.54395 9.24345 2.9836 9.88494 2.5932C10.5264 2.2028 11.2635 1.99758 12.0144 2.00027C12.7653 2.00296 13.5009 2.21346 14.1395 2.60845C14.7782 3.00344 15.2951 3.56751 15.6329 4.23817L23.5549 18.1792C23.8689 18.7887 24.0196 19.4692 23.9923 20.1542C23.9649 20.8393 23.7605 21.5056 23.3989 22.0882C23.0358 22.676 22.5277 23.1605 21.9234 23.4954C21.3191 23.8302 20.6388 24.004 19.9479 24.0002V24.0002ZM11.9999 4.00017C11.6173 3.99383 11.2409 4.09667 10.9146 4.29662C10.5884 4.49658 10.3259 4.78538 10.1579 5.12917L10.1319 5.17817L2.18392 19.1672C2.04237 19.4624 1.97873 19.789 1.99903 20.1158C2.01933 20.4426 2.12292 20.7587 2.29992 21.0342C2.48468 21.3318 2.74285 21.577 3.04965 21.7462C3.35645 21.9153 3.70158 22.0028 4.05192 22.0002H19.9519C20.3023 22.0028 20.6474 21.9153 20.9542 21.7462C21.261 21.577 21.5192 21.3318 21.7039 21.0342C21.884 20.7501 21.987 20.4241 22.0027 20.0881C22.0185 19.7521 21.9465 19.4179 21.7939 19.1182L13.8679 5.17817C13.7026 4.82316 13.4385 4.52328 13.1072 4.31438C12.7759 4.10548 12.3915 3.9964 11.9999 4.00017V4.00017Z" fill="#374957"/>
</g>
<defs>
<clipPath id="clip0_51_72636">
<rect width="24" height="24" fill="white"/>
</clipPath>
</defs>
</svg>
