<svg width="24" height="24" viewBox="0 0 24 24" fill="none" xmlns="http://www.w3.org/2000/svg">
<g clip-path="url(#clip0_51_71764)">
<path d="M24.0001 14.006C23.9989 13.5866 23.9092 13.1722 23.7369 12.7898C23.5646 12.4074 23.3135 12.0657 23.0001 11.787V10C22.9972 7.34873 21.9427 4.80688 20.068 2.93215C18.1932 1.05742 15.6514 0.0029116 13.0001 0L11.0001 0C8.34885 0.0029116 5.807 1.05742 3.93226 2.93215C2.05753 4.80688 1.00303 7.34873 1.00012 10V11.837C0.689382 12.1302 0.441823 12.4839 0.272622 12.8762C0.103421 13.2685 0.0161438 13.6912 0.0161438 14.1185C0.0161438 14.5458 0.103421 14.9685 0.272622 15.3608C0.441823 15.7531 0.689382 16.1068 1.00012 16.4V17C1.00223 18.8559 1.74041 20.6351 3.05271 21.9474C4.365 23.2597 6.14425 23.9979 8.00012 24H16.0001C17.856 23.9979 19.6352 23.2597 20.9475 21.9474C22.2598 20.6351 22.998 18.8559 23.0001 17V16.226C23.3136 15.9472 23.5648 15.6053 23.7371 15.2228C23.9094 14.8402 23.9991 14.4256 24.0001 14.006V14.006ZM2.81212 15.158C2.56278 15.0824 2.34838 14.9207 2.20712 14.7017C2.06586 14.4828 2.0069 14.2208 2.04076 13.9624C2.07461 13.7041 2.19908 13.4661 2.39198 13.291C2.58489 13.1158 2.83371 13.0148 3.09412 13.006H21.0001C21.2653 13.006 21.5197 13.1114 21.7072 13.2989C21.8948 13.4864 22.0001 13.7408 22.0001 14.006C22.0001 14.2712 21.8948 14.5256 21.7072 14.7131C21.5197 14.9006 21.2653 15.006 21.0001 15.006H17.0001C15.0441 15.006 13.0211 15.794 10.6361 17.487C10.1559 17.8205 9.58526 17.9993 9.00062 17.9993C8.41597 17.9993 7.8453 17.8205 7.36512 17.487C7.13712 17.325 6.91812 17.156 6.69812 16.987C5.60878 16.0115 4.25805 15.3758 2.81212 15.158V15.158ZM3.00012 10C3.0025 7.879 3.84612 5.84555 5.34589 4.34578C6.84567 2.846 8.87912 2.00238 11.0001 2H13.0001C15.1211 2.00238 17.1546 2.846 18.6543 4.34578C20.1541 5.84555 20.9977 7.879 21.0001 10V11.006L3.00012 11.016V10ZM16.0001 22H8.00012C6.7193 21.9966 5.48875 21.5012 4.56283 20.6162C3.63691 19.7313 3.08641 18.5244 3.02512 17.245C3.93278 17.4965 4.77175 17.9501 5.47912 18.572C5.71812 18.757 5.95812 18.941 6.20812 19.118C7.02778 19.6875 8.00201 19.9928 9.00012 19.9928C9.99822 19.9928 10.9725 19.6875 11.7921 19.118C13.2716 17.8985 15.0891 17.1615 17.0001 17.006H21.0001C20.9985 18.331 20.471 19.6013 19.5335 20.5377C18.596 21.474 17.3252 22 16.0001 22V22ZM9.00012 5C9.00012 4.73478 9.10547 4.48043 9.29301 4.29289C9.48055 4.10536 9.7349 4 10.0001 4C10.2653 4 10.5197 4.10536 10.7072 4.29289C10.8948 4.48043 11.0001 4.73478 11.0001 5C11.0001 5.26522 10.8948 5.51957 10.7072 5.70711C10.5197 5.89464 10.2653 6 10.0001 6C9.7349 6 9.48055 5.89464 9.29301 5.70711C9.10547 5.51957 9.00012 5.26522 9.00012 5ZM6.00012 8C6.00012 7.73478 6.10547 7.48043 6.29301 7.29289C6.48055 7.10536 6.7349 7 7.00012 7C7.26533 7 7.51969 7.10536 7.70722 7.29289C7.89476 7.48043 8.00012 7.73478 8.00012 8C8.00012 8.26522 7.89476 8.51957 7.70722 8.70711C7.51969 8.89464 7.26533 9 7.00012 9C6.7349 9 6.48055 8.89464 6.29301 8.70711C6.10547 8.51957 6.00012 8.26522 6.00012 8V8Z" fill="#374957"/>
</g>
<defs>
<clipPath id="clip0_51_71764">
<rect width="24" height="24" fill="white"/>
</clipPath>
</defs>
</svg>
