<svg width="24" height="24" viewBox="0 0 24 24" fill="none" xmlns="http://www.w3.org/2000/svg">
<g clip-path="url(#clip0_51_69259)">
<path d="M20.4178 2.97506C20.2064 2.39715 19.823 1.89795 19.3191 1.54479C18.8152 1.19163 18.2151 1.00151 17.5998 1.00006H6.39976C5.78443 1.00151 5.18434 1.19163 4.68045 1.54479C4.17655 1.89795 3.79308 2.39715 3.58176 2.97506L1.43776 8.86906C0.484472 11.4846 -0.00224872 14.2472 -0.000237936 17.0311V19.0001H1.99976V23.0001H7.99976V19.0001H15.9998V23.0001H21.9998V19.0001H23.9998V17.0311C24.0018 14.2472 23.5151 11.4846 22.5618 8.86906L20.4178 2.97506ZM5.46076 3.65806C5.53091 3.46532 5.65862 3.29882 5.82659 3.18112C5.99456 3.06341 6.19466 3.0002 6.39976 3.00006H17.5998C17.8049 3.0002 18.005 3.06341 18.1729 3.18112C18.3409 3.29882 18.4686 3.46532 18.5388 3.65806L20.6828 9.55806C20.8558 10.0351 20.9998 10.5201 21.1388 11.0051H2.86076C2.99976 10.5201 3.14376 10.0351 3.31676 9.55806L5.46076 3.65806ZM5.99976 21.0001H3.99976V19.0001H5.99976V21.0001ZM19.9998 21.0001H17.9998V19.0001H19.9998V21.0001ZM1.99976 17.0001C2.00425 15.6578 2.13212 14.3189 2.38176 13.0001H3.99976V14.0001C3.99976 14.2653 4.10512 14.5196 4.29266 14.7072C4.48019 14.8947 4.73455 15.0001 4.99976 15.0001C5.26498 15.0001 5.51933 14.8947 5.70687 14.7072C5.89441 14.5196 5.99976 14.2653 5.99976 14.0001V13.0001H17.9998V14.0001C17.9998 14.2653 18.1051 14.5196 18.2927 14.7072C18.4802 14.8947 18.7345 15.0001 18.9998 15.0001C19.265 15.0001 19.5193 14.8947 19.7069 14.7072C19.8944 14.5196 19.9998 14.2653 19.9998 14.0001V13.0001H21.6178C21.8674 14.3189 21.9953 15.6578 21.9998 17.0001H1.99976Z" fill="#374957"/>
</g>
<defs>
<clipPath id="clip0_51_69259">
<rect width="24" height="24" fill="white"/>
</clipPath>
</defs>
</svg>
