<svg width="24" height="24" viewBox="0 0 24 24" fill="none" xmlns="http://www.w3.org/2000/svg">
<g clip-path="url(#clip0_51_70380)">
<path d="M14.9997 6.48427V0.136274L1.28473 9.22927L1.25573 9.24927C0.867034 9.52681 0.55022 9.89314 0.331638 10.3178C0.113056 10.7425 -0.000976563 11.2132 -0.000976562 11.6908C-0.000976563 12.1684 0.113056 12.6391 0.331638 13.0637C0.55022 13.4884 0.867034 13.8547 1.25573 14.1323L14.9997 23.9423V17.5143L23.9997 23.9423V0.0562744L14.9997 6.48427ZM21.9997 20.0563L12.9997 13.6273V20.0563L2.41873 12.5043C2.29018 12.4125 2.18519 12.2916 2.11238 12.1514C2.03957 12.0112 2.001 11.8558 1.99983 11.6978C1.99866 11.5399 2.03492 11.3839 2.10565 11.2427C2.17637 11.1014 2.27955 10.979 2.40673 10.8853L12.9997 3.86227V10.3713L21.9997 3.94227V20.0563Z" fill="#374957"/>
</g>
<defs>
<clipPath id="clip0_51_70380">
<rect width="24" height="24" fill="white"/>
</clipPath>
</defs>
</svg>
