<svg width="24" height="24" viewBox="0 0 24 24" fill="none" xmlns="http://www.w3.org/2000/svg">
<path d="M17.7918 7.21215C17.3475 5.30143 16.2165 3.62059 14.614 2.48913C13.0114 1.35767 11.049 0.854462 9.09978 1.07516C7.15052 1.29586 5.3503 2.22508 4.0413 3.68619C2.7323 5.1473 2.00578 7.03844 1.99984 9.00015C1.99838 10.2786 2.30722 11.5383 2.89984 12.6711C1.82097 13.2493 0.966239 14.1714 0.471458 15.2909C-0.0233229 16.4105 -0.129776 17.6633 0.16901 18.8503C0.467797 20.0373 1.15469 21.0904 2.12054 21.8422C3.0864 22.5941 4.27582 23.0017 5.49984 23.0001H13.9998V15.4141L11.7068 17.7071L10.2928 16.2931L13.5858 13.0001C13.9609 12.6252 14.4695 12.4146 14.9998 12.4146C15.5302 12.4146 16.0388 12.6252 16.4138 13.0001L19.7068 16.2931L18.2928 17.7071L15.9998 15.4141V23.0001C17.9589 22.9911 19.8466 22.2634 21.3049 20.9552C22.7632 19.6469 23.6907 17.8491 23.9117 15.9025C24.1326 13.9559 23.6316 11.9958 22.5036 10.3941C21.3756 8.79227 19.6991 7.66008 17.7918 7.21215V7.21215Z" fill="#374957"/>
</svg>
