<svg width="24" height="24" viewBox="0 0 24 24" fill="none" xmlns="http://www.w3.org/2000/svg">
<g clip-path="url(#clip0_51_81747)">
<path d="M24 12C24.0012 14.8654 22.9719 17.6356 21.1 19.805C19.5887 18.7574 18.4135 17.294 17.717 15.592L19.375 14.929C19.497 14.8803 19.6082 14.808 19.7023 14.7163C19.7964 14.6246 19.8714 14.5153 19.9233 14.3946C19.9751 14.2739 20.0026 14.1441 20.0043 14.0128C20.006 13.8814 19.9817 13.751 19.933 13.629C19.8843 13.507 19.812 13.3958 19.7203 13.3017C19.6286 13.2077 19.5193 13.1326 19.3986 13.0808C19.2779 13.029 19.1481 13.0014 19.0168 12.9998C18.8854 12.9981 18.755 13.0223 18.633 13.071L17.167 13.658C17.0625 13.1114 17.0066 12.5565 17 12C17.0053 11.4436 17.0598 10.8888 17.163 10.342L18.629 10.929C18.8754 11.0274 19.1508 11.0239 19.3946 10.9193C19.6384 10.8146 19.8306 10.6174 19.929 10.371C20.0274 10.1246 20.0239 9.84925 19.9193 9.60546C19.8146 9.36166 19.6174 9.16942 19.371 9.07102L17.713 8.40802C18.4115 6.7074 19.5879 5.24574 21.1 4.20002C22.9708 6.36813 24 9.13638 24 12V12ZM15.857 16.334L14.371 16.929C14.249 16.9777 14.1186 17.002 13.9873 17.0003C13.8559 16.9986 13.7262 16.9711 13.6055 16.9193C13.4847 16.8674 13.3754 16.7924 13.2837 16.6983C13.192 16.6042 13.1197 16.493 13.071 16.371C13.0223 16.249 12.9981 16.1186 12.9998 15.9873C13.0014 15.8559 13.029 15.7262 13.0808 15.6055C13.1326 15.4847 13.2077 15.3754 13.3017 15.2837C13.3958 15.192 13.507 15.1197 13.629 15.071L15.273 14.414C15.0974 13.6212 15.0059 12.8121 15 12C15.0059 11.188 15.0974 10.3788 15.273 9.58602L13.629 8.92902C13.507 8.8803 13.3958 8.80803 13.3017 8.71633C13.2077 8.62463 13.1326 8.5153 13.0808 8.39459C13.029 8.27387 13.0014 8.14413 12.9998 8.01277C12.9981 7.88142 13.0223 7.75102 13.071 7.62902C13.1197 7.50702 13.192 7.39582 13.2837 7.30175C13.3754 7.20768 13.4847 7.1326 13.6055 7.08078C13.7262 7.02897 13.8559 7.00144 13.9873 6.99976C14.1186 6.99809 14.249 7.0223 14.371 7.07102L15.857 7.67102C16.6536 5.72272 17.971 4.03128 19.665 2.78202C17.5173 0.989796 14.8096 0.00638041 12.0123 0.00254422C9.21501 -0.00129196 6.50469 0.974693 4.35202 2.76102C6.04186 4.01723 7.35594 5.7117 8.15202 7.66102L9.63302 7.06802C9.75502 7.0193 9.88542 6.99509 10.0168 6.99676C10.1481 6.99844 10.2779 7.02597 10.3986 7.07778C10.5193 7.1296 10.6286 7.20468 10.7203 7.29875C10.812 7.39282 10.8843 7.50402 10.933 7.62602C10.9817 7.74802 11.006 7.87842 11.0043 8.00977C11.0026 8.14113 10.9751 8.27087 10.9233 8.39159C10.8714 8.5123 10.7964 8.62163 10.7023 8.71333C10.6082 8.80503 10.497 8.8773 10.375 8.92602L8.73202 9.58302C8.90579 10.3771 8.99562 11.1872 9.00002 12C8.99409 12.812 8.90293 13.6211 8.72802 14.414L10.371 15.071C10.6174 15.1694 10.8146 15.3617 10.9193 15.6055C11.0239 15.8493 11.0274 16.1246 10.929 16.371C10.8306 16.6174 10.6384 16.8146 10.3946 16.9193C10.1508 17.0239 9.87541 17.0274 9.62902 16.929L8.14802 16.336C7.35194 18.2853 6.03786 19.9798 4.34802 21.236C6.50011 23.0231 9.2101 23.9999 12.0074 23.997C14.8047 23.9941 17.5127 23.0115 19.661 21.22C17.9689 19.971 16.6529 18.2807 15.857 16.334V16.334ZM6.29102 15.594L4.62902 14.929C4.50702 14.8803 4.39582 14.808 4.30175 14.7163C4.20768 14.6246 4.1326 14.5153 4.08078 14.3946C4.02897 14.2739 4.00144 14.1441 3.99976 14.0128C3.99809 13.8814 4.0223 13.751 4.07102 13.629C4.11974 13.507 4.19201 13.3958 4.28371 13.3017C4.37541 13.2077 4.48474 13.1326 4.60546 13.0808C4.72617 13.029 4.85591 13.0014 4.98727 12.9998C5.11862 12.9981 5.24902 13.0223 5.37102 13.071L6.83802 13.658C6.94039 13.1112 6.99459 12.5564 7.00002 12C6.99459 11.4437 6.94039 10.8889 6.83802 10.342L5.37102 10.929C5.24902 10.9777 5.11862 11.002 4.98727 11.0003C4.85591 10.9986 4.72617 10.9711 4.60546 10.9193C4.48474 10.8674 4.37541 10.7924 4.28371 10.6983C4.19201 10.6042 4.11974 10.493 4.07102 10.371C4.0223 10.249 3.99809 10.1186 3.99976 9.98727C4.00144 9.85591 4.02897 9.72617 4.08078 9.60546C4.1326 9.48474 4.20768 9.37541 4.30175 9.28371C4.39582 9.19201 4.50702 9.11974 4.62902 9.07102L6.29102 8.40602C5.59786 6.70151 4.42689 5.23362 2.91902 4.17902C1.03643 6.34974 0 9.12667 0 12C0 14.8734 1.03643 17.6503 2.91902 19.821C4.42689 18.7664 5.59786 17.2985 6.29102 15.594V15.594Z" fill="#374957"/>
</g>
<defs>
<clipPath id="clip0_51_81747">
<rect width="24" height="24" fill="white"/>
</clipPath>
</defs>
</svg>
