<svg width="24" height="24" viewBox="0 0 24 24" fill="none" xmlns="http://www.w3.org/2000/svg">
<g clip-path="url(#clip0_51_69634)">
<path d="M20.9997 24.0003H15.9998V22.0003H20.9997C21.265 22.0003 21.5193 21.8949 21.7069 21.7074C21.8944 21.5199 21.9997 21.2655 21.9997 21.0003V16.0003H23.9997V21.0003C23.9997 21.7959 23.6837 22.559 23.1211 23.1216C22.5585 23.6842 21.7954 24.0003 20.9997 24.0003Z" fill="#374957"/>
<path d="M2 8H0V3C0 2.20435 0.31607 1.44129 0.87868 0.87868C1.44129 0.31607 2.20435 0 3 0L8 0V2H3C2.73478 2 2.48043 2.10536 2.29289 2.29289C2.10536 2.48043 2 2.73478 2 3V8Z" fill="#374957"/>
<path d="M8 24.0003H3C2.20435 24.0003 1.44129 23.6842 0.87868 23.1216C0.31607 22.559 0 21.7959 0 21.0003L0 16.0003H2V21.0003C2 21.2655 2.10536 21.5199 2.29289 21.7074C2.48043 21.8949 2.73478 22.0003 3 22.0003H8V24.0003Z" fill="#374957"/>
<path d="M23.9997 8H21.9997V3C21.9997 2.73478 21.8944 2.48043 21.7069 2.29289C21.5193 2.10536 21.265 2 20.9997 2H15.9998V0H20.9997C21.7954 0 22.5585 0.31607 23.1211 0.87868C23.6837 1.44129 23.9997 2.20435 23.9997 3V8Z" fill="#374957"/>
</g>
<defs>
<clipPath id="clip0_51_69634">
<rect width="24" height="24" fill="white"/>
</clipPath>
</defs>
</svg>
