<svg width="24" height="24" viewBox="0 0 24 24" fill="none" xmlns="http://www.w3.org/2000/svg">
<g clip-path="url(#clip0_51_80416)">
<path d="M23.8209 11.181C22.8547 9.08574 21.4397 7.22855 19.6759 5.74103L22.7079 2.70903L21.2929 1.29303L17.9999 4.58303C16.1772 3.52875 14.1054 2.98213 11.9999 3.00003C4.49987 3.00003 1.05687 9.26103 0.178871 11.181C0.0610095 11.4383 0 11.718 0 12.001C0 12.284 0.0610095 12.5637 0.178871 12.821C1.14501 14.9163 2.56009 16.7735 4.32387 18.261L1.29287 21.293L2.70687 22.707L5.99987 19.417C7.82251 20.4713 9.89436 21.0179 11.9999 21C19.4999 21 22.9429 14.739 23.8209 12.819C23.9385 12.562 23.9994 12.2827 23.9994 12C23.9994 11.7174 23.9385 11.438 23.8209 11.181V11.181ZM5.99987 12C5.99798 10.8986 6.29979 9.81804 6.87213 8.87703C7.44447 7.93602 8.26518 7.17103 9.24404 6.66614C10.2229 6.16126 11.322 5.93604 12.4206 6.01523C13.5191 6.09442 14.5745 6.47497 15.4709 7.11503L14.0189 8.56703C13.4093 8.19943 12.7117 8.00351 11.9999 8.00003C10.939 8.00003 9.92159 8.42146 9.17145 9.1716C8.4213 9.92175 7.99987 10.9392 7.99987 12C8.00336 12.7118 8.19927 13.4095 8.56687 14.019L7.11487 15.471C6.38984 14.4589 5.99993 13.2451 5.99987 12V12ZM11.9999 18C10.7548 18 9.54104 17.6101 8.52887 16.885L9.98087 15.433C10.5904 15.8006 11.2881 15.9965 11.9999 16C13.0607 16 14.0782 15.5786 14.8283 14.8285C15.5784 14.0783 15.9999 13.0609 15.9999 12C15.9964 11.2882 15.8005 10.5906 15.4329 9.98103L16.8849 8.52903C17.5249 9.42535 17.9055 10.4808 17.9847 11.5793C18.0639 12.6779 17.8386 13.777 17.3338 14.7559C16.8289 15.7347 16.0639 16.5554 15.1229 17.1278C14.1819 17.7001 13.1013 18.0019 11.9999 18V18Z" fill="#374957"/>
</g>
<defs>
<clipPath id="clip0_51_80416">
<rect width="24" height="24" fill="white"/>
</clipPath>
</defs>
</svg>
