<svg width="24" height="24" viewBox="0 0 24 24" fill="none" xmlns="http://www.w3.org/2000/svg">
<g clip-path="url(#clip0_51_70658)">
<path d="M1.99963 0V21C1.99963 21.7956 2.3157 22.5587 2.87831 23.1213C3.44092 23.6839 4.20398 24 4.99963 24H18.9996C19.7953 24 20.5583 23.6839 21.121 23.1213C21.6836 22.5587 21.9996 21.7956 21.9996 21V0H1.99963ZM19.9996 2V17H3.99963V2H19.9996ZM18.9996 22H4.99963C4.73442 22 4.48006 21.8946 4.29253 21.7071C4.10499 21.5196 3.99963 21.2652 3.99963 21V19H10.9996V21H12.9996V19H19.9996V21C19.9996 21.2652 19.8943 21.5196 19.7067 21.7071C19.5192 21.8946 19.2649 22 18.9996 22Z" fill="#374957"/>
</g>
<defs>
<clipPath id="clip0_51_70658">
<rect width="24" height="24" fill="white"/>
</clipPath>
</defs>
</svg>
