<svg width="24" height="24" viewBox="0 0 24 24" fill="none" xmlns="http://www.w3.org/2000/svg">
<g clip-path="url(#clip0_51_70320)">
<path d="M24 20.9996H22V14.9996C21.449 1.72965 2.546 1.74065 2 14.9996V20.9996H0V14.9996C0.661 -0.924351 23.345 -0.911351 24 14.9996V20.9996ZM20 14.9996C19.6 4.39965 4.4 4.40665 4 14.9996V20.9996H6V14.9996C6.253 7.06765 17.75 7.07365 18 14.9996V20.9996H20V14.9996ZM16 14.9996C16 13.9388 15.5786 12.9214 14.8284 12.1712C14.0783 11.4211 13.0609 10.9996 12 10.9996C10.9391 10.9996 9.92172 11.4211 9.17157 12.1712C8.42143 12.9214 8 13.9388 8 14.9996V20.9996H10V14.9996C10 14.4692 10.2107 13.9605 10.5858 13.5854C10.9609 13.2104 11.4696 12.9996 12 12.9996C12.5304 12.9996 13.0391 13.2104 13.4142 13.5854C13.7893 13.9605 14 14.4692 14 14.9996V20.9996H16V14.9996Z" fill="#374957"/>
</g>
<defs>
<clipPath id="clip0_51_70320">
<rect width="24" height="24" fill="white"/>
</clipPath>
</defs>
</svg>
