<svg width="24" height="24" viewBox="0 0 24 24" fill="none" xmlns="http://www.w3.org/2000/svg">
<g clip-path="url(#clip0_51_69737)">
<path d="M21 3.00031H12.236L8.236 1.00031H3C2.20435 1.00031 1.44129 1.31638 0.87868 1.87898C0.31607 2.44159 0 3.20466 0 4.00031L0 23.0003H24V6.00031C24 5.20466 23.6839 4.44159 23.1213 3.87898C22.5587 3.31638 21.7956 3.00031 21 3.00031ZM3 3.00031H7.764L11.764 5.00031H21C21.2652 5.00031 21.5196 5.10566 21.7071 5.2932C21.8946 5.48073 22 5.73509 22 6.00031V6.88131L2 6.99431V4.00031C2 3.73509 2.10536 3.48073 2.29289 3.2932C2.48043 3.10566 2.73478 3.00031 3 3.00031V3.00031ZM2 21.0003V8.99431L22 8.8813V21.0003H2Z" fill="#374957"/>
</g>
<defs>
<clipPath id="clip0_51_69737">
<rect width="24" height="24" fill="white"/>
</clipPath>
</defs>
</svg>
