<svg width="24" height="24" viewBox="0 0 24 24" fill="none" xmlns="http://www.w3.org/2000/svg">
<g clip-path="url(#clip0_51_71611)">
<path d="M6.96218 5.81784C7.30736 5.81784 7.58716 5.538 7.58716 5.19286C7.58716 4.84771 7.30732 4.56787 6.96218 4.56787H4.76219C4.417 4.56787 4.13721 4.84771 4.13721 5.19286V10.4069C4.13721 10.752 4.41705 11.0318 4.76219 11.0318H6.96218C7.30736 11.0318 7.58716 10.752 7.58716 10.4069C7.58716 10.0617 7.30732 9.78187 6.96218 9.78187H5.39116V8.42489H6.80018C7.14536 8.42489 7.42516 8.14504 7.42516 7.7999C7.42516 7.45472 7.14532 7.17492 6.80018 7.17492H5.39116V5.81793H6.96218V5.81784Z" fill="#374957"/>
<path d="M8.85099 5.16904V10.431C8.85099 10.7762 9.13084 11.056 9.47598 11.056C9.82116 11.056 10.101 10.7762 10.101 10.431V8.76806H10.94C12.1053 8.76806 13.05 7.82339 13.05 6.65807C13.05 5.49276 12.1053 4.54809 10.94 4.54809L10.939 4.54411H9.47499C9.43866 4.54312 9.18446 4.54054 9.00179 4.74661C8.84799 4.92004 8.84954 5.12339 8.85099 5.16904ZM10.939 7.51406H10.107V5.79004H10.944C11.419 5.79004 11.804 6.17507 11.804 6.65006C11.804 7.12504 11.419 7.51007 10.944 7.51007L10.939 7.51406Z" fill="#374957"/>
<path d="M19 0H5.00002C2.23997 0.00332813 0.00332813 2.23997 0 5.00002V19C0.00332813 21.76 2.23997 23.9967 5.00002 24H16.343C17.6699 24.0038 18.9432 23.4766 19.879 22.536L22.535 19.878C23.4758 18.9426 24.0033 17.6697 24 16.343V5.00002C23.9967 2.23997 21.76 0.00332813 19 0ZM2.00002 19V5.00002C2.00002 3.34317 3.34317 2.00002 5.00002 2.00002H19C20.6569 2.00002 22 3.34317 22 5.00002V15H18C16.3432 15 15 16.3432 15 18V22H5.00002C3.34312 22 2.00002 20.6569 2.00002 19ZM18.465 21.122C18.063 21.523 17.5547 21.8006 17 21.922V18C17 17.4477 17.4477 17 18 17H21.925C21.8013 17.5535 21.524 18.0609 21.125 18.464L18.465 21.122Z" fill="#374957"/>
<path d="M16.8568 7.25544C16.5838 7.16244 16.3008 7.11144 16.0218 7.03845C15.8004 6.99378 15.5952 6.89014 15.4278 6.73845C15.2606 6.57992 15.2012 6.33847 15.2758 6.12045C15.3706 5.93258 15.5569 5.80812 15.7668 5.79247C15.9731 5.77962 16.1798 5.80995 16.3738 5.88148C16.6526 5.96839 16.926 6.07156 17.1928 6.19048C17.4878 6.31948 17.8338 6.3965 18.0718 6.11647C18.2466 5.90581 18.2597 5.6045 18.1038 5.37945C18.0001 5.22884 17.8601 5.10673 17.6968 5.02447C16.9647 4.59467 16.0912 4.47547 15.2708 4.69348C14.8374 4.83064 14.4713 5.12539 14.2448 5.51947C14.1385 5.7064 14.0683 5.91162 14.0378 6.12448C13.982 6.50731 14.065 6.8975 14.2718 7.2245C14.5051 7.56612 14.8419 7.82375 15.2327 7.9595C15.6417 8.1275 16.0497 8.29048 16.4648 8.4425C16.6434 8.4987 16.8078 8.59283 16.9468 8.7185C17.1034 8.8669 17.1616 9.09172 17.0968 9.2975C17.0124 9.49451 16.845 9.64395 16.6398 9.7055C16.3276 9.82287 15.9856 9.83515 15.6658 9.74051C15.3545 9.62787 15.067 9.45833 14.8178 9.2405C14.7917 9.2195 14.7068 9.15551 14.6908 9.14051C14.4578 8.97392 14.1394 8.99525 13.9308 9.19151C13.6751 9.4234 13.6558 9.81865 13.8876 10.0744C13.8877 10.0744 13.8877 10.0745 13.8878 10.0745C14.4844 10.7081 15.3176 11.0649 16.1878 11.0595C17.2191 11.1049 18.1355 10.4068 18.3658 9.40053C18.4628 8.79158 18.2354 8.17611 17.7658 7.77654C17.5002 7.54433 17.1913 7.36723 16.8568 7.25544Z" fill="#374957"/>
</g>
<defs>
<clipPath id="clip0_51_71611">
<rect width="24" height="24" fill="white"/>
</clipPath>
</defs>
</svg>
