<svg width="24" height="24" viewBox="0 0 24 24" fill="none" xmlns="http://www.w3.org/2000/svg">
<g clip-path="url(#clip0_51_81998)">
<path d="M12.0001 7.94582C12.8412 7.94582 13.5231 7.26393 13.5231 6.4228C13.5231 5.58167 12.8412 4.89978 12.0001 4.89978C11.1589 4.89978 10.4771 5.58167 10.4771 6.4228C10.4771 7.26393 11.1589 7.94582 12.0001 7.94582Z" fill="#374957"/>
<path d="M20.0001 0.000640869H4.00006C1.77635 0.018219 -0.0132387 1.83289 7.37985e-05 4.05664V16.2266C-0.0132387 18.4505 1.77621 20.2655 4.00006 20.2836H6.92304L10.671 23.4836C11.4134 24.1621 12.5479 24.172 13.302 23.5066L17.147 20.2826H20C22.2239 20.2645 24.0133 18.4495 24 16.2256V4.05664C24.0134 1.83289 22.2238 0.018219 20.0001 0.000640869ZM12.0001 3.04264C16.6151 3.16466 16.6141 10.0197 12.0001 10.1427C7.38509 10.0196 7.38607 3.16761 12.0001 3.04264ZM16.2491 17.2086C15.7139 17.3452 15.1694 17.022 15.0329 16.4869C15.0323 16.4845 15.0317 16.4821 15.0311 16.4796C14.5192 14.8054 12.747 13.8631 11.0728 14.3749C10.065 14.683 9.27617 15.4718 8.96806 16.4796C8.82832 17.0143 8.28167 17.3344 7.74706 17.1946C7.21245 17.0549 6.89234 16.5082 7.03207 15.9736C7.80532 13.2296 10.6566 11.632 13.4007 12.4052C15.1301 12.8926 16.4817 14.2442 16.9691 15.9736C17.1083 16.5131 16.7871 17.064 16.2491 17.2086Z" fill="#374957"/>
</g>
<defs>
<clipPath id="clip0_51_81998">
<rect width="24" height="24" fill="white"/>
</clipPath>
</defs>
</svg>
