<svg width="24" height="24" viewBox="0 0 24 24" fill="none" xmlns="http://www.w3.org/2000/svg">
<g clip-path="url(#clip0_51_69295)">
<path d="M11.0003 23.97C8.09085 23.97 5.30059 22.8143 3.24331 20.757C1.18604 18.6997 0.0302734 15.9095 0.0302734 13C0.0302734 10.0906 1.18604 7.30034 3.24331 5.24307C5.30059 3.18579 8.09085 2.03003 11.0003 2.03003H12.0003L12.0133 3.03003L12.0003 12H21.9703V13C21.9671 15.9085 20.8103 18.6969 18.7537 20.7535C16.6971 22.8101 13.9087 23.9669 11.0003 23.97V23.97ZM10.0123 4.08503C8.33324 4.27127 6.74093 4.92786 5.41863 5.97922C4.09633 7.03058 3.0978 8.43398 2.53799 10.0279C1.97817 11.6217 1.87983 13.3413 2.25428 14.9886C2.62873 16.6359 3.46075 18.144 4.65457 19.3393C5.84838 20.5345 7.35545 21.3684 9.00231 21.7448C10.6492 22.1213 12.3688 22.025 13.9634 21.4671C15.558 20.9092 16.9626 19.9124 18.0155 18.5914C19.0685 17.2704 19.727 15.6788 19.9153 14H10.0003L10.0123 4.08503Z" fill="#374957"/>
<path d="M16.0188 2.28821C17.3924 2.64758 18.6457 3.36606 19.6499 4.36988C20.654 5.37371 21.3729 6.6267 21.7328 8.00021H16.0188V2.28821ZM14.0188 0.0342102V10.0002H23.9868C23.9739 7.36069 22.9195 4.83297 21.0529 2.96672C19.1862 1.10046 16.6583 0.0465661 14.0188 0.0342102V0.0342102Z" fill="#374957"/>
</g>
<defs>
<clipPath id="clip0_51_69295">
<rect width="24" height="24" fill="white"/>
</clipPath>
</defs>
</svg>
