<svg width="24" height="24" viewBox="0 0 24 24" fill="none" xmlns="http://www.w3.org/2000/svg">
<g clip-path="url(#clip0_51_70393)">
<path d="M17.3211 -0.000118009H6.68106C5.97476 -0.00128077 5.29079 0.247292 4.75005 0.701663C4.20931 1.15603 3.84661 1.78695 3.72606 2.48288L-0.0389404 23.9999H24.0611L20.2761 2.47988C20.1538 1.78502 19.7905 1.15549 19.25 0.701925C18.7096 0.248361 18.0266 -0.000214515 17.3211 -0.000118009V-0.000118009ZM2.34106 21.9999L5.70006 2.82788C5.74042 2.59669 5.86082 2.38706 6.04016 2.23569C6.2195 2.08432 6.44638 2.00084 6.68106 1.99988H17.3211C17.5563 1.99986 17.784 2.08277 17.9641 2.23402C18.1443 2.38528 18.2654 2.5952 18.3061 2.82688L21.6791 21.9999H2.34106ZM11.0001 3.99988H13.0001V7.99988H11.0001V3.99988ZM11.0001 9.99988H13.0001V13.9999H11.0001V9.99988ZM11.0001 15.9999H13.0001V19.9999H11.0001V15.9999Z" fill="#374957"/>
</g>
<defs>
<clipPath id="clip0_51_70393">
<rect width="24" height="24" fill="white"/>
</clipPath>
</defs>
</svg>
