<svg width="24" height="24" viewBox="0 0 24 24" fill="none" xmlns="http://www.w3.org/2000/svg">
<g clip-path="url(#clip0_51_81308)">
<path d="M23.4135 0.587262C23.1628 0.339975 22.8517 0.162538 22.5112 0.0725511C22.1708 -0.017436 21.8127 -0.0168461 21.4725 0.0742624L17.7575 1.29226L5.51752 13.5323C4.1493 12.7949 2.67199 12.2811 1.14152 12.0103L0.855523 13.9893C2.8026 14.3543 4.6366 15.172 6.20952 16.3763L2.49952 20.0863L1.47552 19.0623L0.0615234 20.4763L3.56152 23.9763L4.97552 22.5623L3.91352 21.5003L7.62351 17.7903C8.82819 19.3628 9.64559 21.197 10.0095 23.1443L11.9895 22.8583C11.7197 21.3275 11.2059 19.85 10.4675 18.4823L22.7075 6.24226L23.9525 2.43226C24.0254 2.10423 24.0142 1.76309 23.92 1.44053C23.8257 1.11797 23.6515 0.824464 23.4135 0.587262V0.587262Z" fill="#374957"/>
</g>
<defs>
<clipPath id="clip0_51_81308">
<rect width="24" height="24" fill="white"/>
</clipPath>
</defs>
</svg>
