<svg width="24" height="24" viewBox="0 0 24 24" fill="none" xmlns="http://www.w3.org/2000/svg">
<g clip-path="url(#clip0_51_81526)">
<path d="M8.00032 3C8.00032 2.40666 8.17626 1.82664 8.50591 1.33329C8.83555 0.839943 9.30409 0.455426 9.85227 0.228363C10.4004 0.00129986 11.0036 -0.0581102 11.5856 0.0576455C12.1675 0.173401 12.7021 0.459124 13.1216 0.878681C13.5412 1.29824 13.8269 1.83279 13.9427 2.41473C14.0584 2.99667 13.999 3.59987 13.772 4.14805C13.5449 4.69623 13.1604 5.16477 12.667 5.49441C12.1737 5.82405 11.5937 6 11.0003 6C10.2047 6 9.44161 5.68393 8.879 5.12132C8.31639 4.55871 8.00032 3.79565 8.00032 3V3ZM21.7213 21L19.7213 15H13.0003C12.7351 15 12.4807 14.8946 12.2932 14.7071C12.1057 14.5196 12.0003 14.2652 12.0003 14V13H19.0003V11H12.0003V8H10.0003V14C10.0003 14.7957 10.3164 15.5587 10.879 16.1213C11.4416 16.6839 12.2047 17 13.0003 17H18.2803L20.2803 23H24.0003V21H21.7213ZM8.00032 14V8C6.54857 7.99906 5.12393 8.39317 3.87908 9.1401C2.63422 9.88703 1.61608 10.9586 0.933769 12.24C0.251454 13.5214 -0.0693116 14.9644 0.00584741 16.4142C0.0810064 17.864 0.549257 19.266 1.36042 20.47C2.17158 21.674 3.29507 22.6345 4.61048 23.2487C5.9259 23.8629 7.38366 24.1076 8.82752 23.9566C10.2714 23.8055 11.6469 23.2644 12.8067 22.3913C13.9666 21.5181 14.8669 20.3458 15.4113 19H13.0003C11.6747 18.9984 10.4039 18.4711 9.46654 17.5338C8.5292 16.5964 8.00191 15.3256 8.00032 14V14Z" fill="#374957"/>
</g>
<defs>
<clipPath id="clip0_51_81526">
<rect width="24" height="24" fill="white"/>
</clipPath>
</defs>
</svg>
