<svg width="24" height="24" viewBox="0 0 24 24" fill="none" xmlns="http://www.w3.org/2000/svg">
<g clip-path="url(#clip0_51_71358)">
<path d="M10.4999 16.9999C10.2369 17.0001 9.97649 16.9484 9.73352 16.8479C9.49054 16.7473 9.26978 16.5999 9.08387 16.4139L5.29987 12.7149C5.11024 12.5292 5.00213 12.2759 4.99931 12.0105C4.9965 11.7451 5.09922 11.4895 5.28487 11.2999C5.47052 11.1103 5.7239 11.0021 5.98926 10.9993C6.25463 10.9965 6.51024 11.0992 6.69987 11.2849L10.4929 14.9919L17.2989 8.29189C17.4908 8.12302 17.7401 8.03406 17.9956 8.0433C18.2511 8.05254 18.4933 8.15928 18.6725 8.34158C18.8518 8.52387 18.9544 8.76789 18.9593 9.02349C18.9642 9.27909 18.871 9.52686 18.6989 9.71589L11.9059 16.4229C11.721 16.6068 11.5016 16.7524 11.2603 16.8514C11.0191 16.9504 10.7607 17.0009 10.4999 16.9999ZM23.9999 18.9999V12.3399C24.0372 9.25734 22.907 6.27478 20.8362 3.99106C18.7654 1.70734 15.9074 0.291527 12.8359 0.02789C11.1215 -0.0920523 9.4014 0.15763 7.79191 0.760043C6.18241 1.36246 4.72108 2.30355 3.50679 3.51964C2.29249 4.73573 1.35357 6.19846 0.753545 7.80885C0.153518 9.41924 -0.0936135 11.1397 0.0288701 12.8539C0.47087 19.2079 6.08187 23.9999 13.0829 23.9999H18.9999C20.3255 23.9983 21.5963 23.471 22.5337 22.5337C23.471 21.5963 23.9983 20.3255 23.9999 18.9999V18.9999ZM12.6999 2.02389C15.2663 2.25093 17.6518 3.4408 19.377 5.35444C21.1021 7.26809 22.0392 9.76371 21.9999 12.3399V18.9999C21.9999 19.7955 21.6838 20.5586 21.1212 21.1212C20.5586 21.6838 19.7955 21.9999 18.9999 21.9999H13.0829C7.04887 21.9999 2.39987 18.0999 2.02487 12.7159C1.92642 11.3445 2.11184 9.96749 2.56955 8.67096C3.02726 7.37443 3.74742 6.18622 4.68504 5.18056C5.62266 4.1749 6.7576 3.3734 8.01894 2.82614C9.28028 2.27887 10.6409 1.9976 12.0159 1.99989C12.2429 1.99989 12.4719 2.00889 12.6999 2.02389Z" fill="#374957"/>
</g>
<defs>
<clipPath id="clip0_51_71358">
<rect width="24" height="24" fill="white"/>
</clipPath>
</defs>
</svg>
