<svg width="24" height="24" viewBox="0 0 24 24" fill="none" xmlns="http://www.w3.org/2000/svg">
<g clip-path="url(#clip0_51_80094)">
<path d="M23.9999 11.9841C24 10.9306 23.5844 9.91967 22.8436 9.17075C22.1027 8.42183 21.0963 7.9954 20.0429 7.98408C19.1662 6.2379 17.7478 4.82236 15.9999 3.94908C15.9486 2.92411 15.5053 1.95807 14.7617 1.25076C14.0182 0.543462 13.0312 0.149017 12.0049 0.149017C10.9787 0.149017 9.99166 0.543462 9.24807 1.25076C8.50449 1.95807 8.0612 2.92411 8.00991 3.94908C6.25765 4.82165 4.83554 6.23885 3.95691 7.98808C2.90832 8.00244 1.90743 8.42852 1.17025 9.17437C0.433066 9.92022 0.0187098 10.926 0.0166096 11.9747C0.0145093 13.0234 0.424833 14.0308 1.15902 14.7796C1.89321 15.5284 2.89239 15.9585 3.94091 15.9771C4.81589 17.7413 6.24282 19.1718 8.00491 20.0511C8.0562 21.0761 8.49949 22.0421 9.24307 22.7494C9.98666 23.4567 10.9737 23.8511 11.9999 23.8511C13.0262 23.8511 14.0132 23.4567 14.7567 22.7494C15.5003 22.0421 15.9436 21.0761 15.9949 20.0511C17.757 19.1718 19.1839 17.7413 20.0589 15.9771C21.1083 15.9616 22.1096 15.5343 22.8468 14.7873C23.5841 14.0404 23.9982 13.0336 23.9999 11.9841ZM15.4779 18.0611C15.1364 17.4371 14.6333 16.9166 14.0213 16.5539C13.4094 16.1913 12.7112 16 11.9999 16C11.2886 16 10.5904 16.1913 9.97848 16.5539C9.36656 16.9166 8.86345 17.4371 8.52191 18.0611C7.44453 17.4378 6.55103 16.5408 5.93191 15.4611C6.55656 15.1207 7.07817 14.6186 7.44209 14.0074C7.80601 13.3962 7.99884 12.6984 8.00037 11.987C8.00191 11.2757 7.81209 10.577 7.45081 9.96422C7.08953 9.35145 6.57008 8.84712 5.94691 8.50408C6.56569 7.43694 7.45357 6.55079 8.52191 5.93408C8.86345 6.55802 9.36656 7.07859 9.97848 7.44122C10.5904 7.80386 11.2886 7.9952 11.9999 7.9952C12.7112 7.9952 13.4094 7.80386 14.0213 7.44122C14.6333 7.07859 15.1364 6.55802 15.4779 5.93408C16.5462 6.55079 17.4341 7.43694 18.0529 8.50408C17.4297 8.84712 16.9103 9.35145 16.549 9.96422C16.1877 10.577 15.9979 11.2757 15.9994 11.987C16.001 12.6984 16.1938 13.3962 16.5577 14.0074C16.9216 14.6186 17.4433 15.1207 18.0679 15.4611C17.4488 16.5408 16.5553 17.4378 15.4779 18.0611Z" fill="#374957"/>
</g>
<defs>
<clipPath id="clip0_51_80094">
<rect width="24" height="24" fill="white"/>
</clipPath>
</defs>
</svg>
