<svg width="24" height="24" viewBox="0 0 24 24" fill="none" xmlns="http://www.w3.org/2000/svg">
<g clip-path="url(#clip0_51_69553)">
<path d="M19 0H3C2.20435 0 1.44129 0.31607 0.87868 0.87868C0.31607 1.44129 0 2.20435 0 3L0 24H24V5L19 0ZM7 2H17V6H7V2ZM22 22H2V3C2 2.73478 2.10536 2.48043 2.29289 2.29289C2.48043 2.10536 2.73478 2 3 2H5V8H19V2.828L22 5.828V22Z" fill="#374957"/>
<path d="M12 9.99982C11.2089 9.99982 10.4355 10.2344 9.77772 10.6739C9.11993 11.1135 8.60723 11.7382 8.30448 12.4691C8.00173 13.2 7.92252 14.0043 8.07686 14.7802C8.2312 15.5561 8.61216 16.2688 9.17157 16.8282C9.73098 17.3877 10.4437 17.7686 11.2196 17.923C11.9956 18.0773 12.7998 17.9981 13.5307 17.6953C14.2616 17.3926 14.8864 16.8799 15.3259 16.2221C15.7654 15.5643 16 14.7909 16 13.9998C16 12.939 15.5786 11.9215 14.8284 11.1714C14.0783 10.4212 13.0609 9.99982 12 9.99982V9.99982ZM12 15.9998C11.6044 15.9998 11.2178 15.8825 10.8889 15.6628C10.56 15.443 10.3036 15.1306 10.1522 14.7652C10.0009 14.3997 9.96126 13.9976 10.0384 13.6096C10.1156 13.2217 10.3061 12.8653 10.5858 12.5856C10.8655 12.3059 11.2219 12.1154 11.6098 12.0382C11.9978 11.9611 12.3999 12.0007 12.7654 12.1521C13.1308 12.3034 13.4432 12.5598 13.6629 12.8887C13.8827 13.2176 14 13.6043 14 13.9998C14 14.5302 13.7893 15.039 13.4142 15.414C13.0391 15.7891 12.5304 15.9998 12 15.9998Z" fill="#374957"/>
</g>
<defs>
<clipPath id="clip0_51_69553">
<rect width="24" height="24" fill="white"/>
</clipPath>
</defs>
</svg>
