<svg width="24" height="24" viewBox="0 0 24 24" fill="none" xmlns="http://www.w3.org/2000/svg">
<g clip-path="url(#clip0_51_70249)">
<path d="M21 0H3C2.20435 0 1.44129 0.31607 0.87868 0.87868C0.31607 1.44129 0 2.20435 0 3L0 24H24V3C24 2.20435 23.6839 1.44129 23.1213 0.87868C22.5587 0.31607 21.7956 0 21 0V0ZM3 2H21C21.2652 2 21.5196 2.10536 21.7071 2.29289C21.8946 2.48043 22 2.73478 22 3V20.586L11.121 9.707C10.5584 9.14459 9.79549 8.82864 9 8.82864C8.20451 8.82864 7.44158 9.14459 6.879 9.707L2 14.586V3C2 2.73478 2.10536 2.48043 2.29289 2.29289C2.48043 2.10536 2.73478 2 3 2V2ZM2 17.414L8.293 11.121C8.48053 10.9335 8.73484 10.8282 9 10.8282C9.26516 10.8282 9.51947 10.9335 9.707 11.121L20.586 22H2V17.414Z" fill="#374957"/>
<path d="M15.9999 9.99939C16.5932 9.99939 17.1732 9.82344 17.6666 9.4938C18.1599 9.16416 18.5445 8.69562 18.7715 8.14744C18.9986 7.59926 19.058 6.99606 18.9422 6.41412C18.8265 5.83218 18.5408 5.29763 18.1212 4.87807C17.7016 4.45851 17.1671 4.17279 16.5852 4.05704C16.0032 3.94128 15.4 4.00069 14.8518 4.22775C14.3036 4.45482 13.8351 4.83933 13.5055 5.33268C13.1758 5.82603 12.9999 6.40605 12.9999 6.99939C12.9999 7.79504 13.3159 8.5581 13.8786 9.12071C14.4412 9.68332 15.2042 9.99939 15.9999 9.99939V9.99939ZM15.9999 5.99939C16.1977 5.99939 16.391 6.05804 16.5554 6.16792C16.7199 6.2778 16.8481 6.43398 16.9238 6.61671C16.9994 6.79943 17.0192 7.0005 16.9807 7.19448C16.9421 7.38846 16.8468 7.56665 16.707 7.7065C16.5671 7.84635 16.389 7.94159 16.195 7.98018C16.001 8.01876 15.7999 7.99896 15.6172 7.92327C15.4345 7.84758 15.2783 7.71941 15.1684 7.55496C15.0585 7.39051 14.9999 7.19717 14.9999 6.99939C14.9999 6.73417 15.1052 6.47982 15.2928 6.29228C15.4803 6.10475 15.7347 5.99939 15.9999 5.99939V5.99939Z" fill="#374957"/>
</g>
<defs>
<clipPath id="clip0_51_70249">
<rect width="24" height="24" fill="white"/>
</clipPath>
</defs>
</svg>
