<svg width="24" height="24" viewBox="0 0 24 24" fill="none" xmlns="http://www.w3.org/2000/svg">
<g clip-path="url(#clip0_51_68974)">
<path d="M24 15.062C24.0011 14.222 23.8249 13.3913 23.483 12.624L20.706 6.37501C20.3909 5.66846 19.878 5.06822 19.2293 4.64678C18.5805 4.22533 17.8236 4.0007 17.05 4.00001H14L13.243 0.970007C13.1739 0.692629 13.014 0.446337 12.7887 0.270327C12.5635 0.0943164 12.2859 -0.001297 12 -0.001297C11.7141 -0.001297 11.4365 0.0943164 11.2113 0.270327C10.986 0.446337 10.8261 0.692629 10.757 0.970007L10 4.00001H3C2.20435 4.00001 1.44129 4.31608 0.87868 4.87869C0.31607 5.4413 0 6.20436 0 7.00001L0 20H2.041C2.01527 20.1655 2.00157 20.3326 2 20.5C2 21.4283 2.36875 22.3185 3.02513 22.9749C3.6815 23.6313 4.57174 24 5.5 24C6.42826 24 7.3185 23.6313 7.97487 22.9749C8.63125 22.3185 9 21.4283 9 20.5C8.99843 20.3326 8.98473 20.1655 8.959 20H15.041C15.0153 20.1655 15.0016 20.3326 15 20.5C15 21.4283 15.3687 22.3185 16.0251 22.9749C16.6815 23.6313 17.5717 24 18.5 24C19.4283 24 20.3185 23.6313 20.9749 22.9749C21.6313 22.3185 22 21.4283 22 20.5C21.9984 20.3326 21.9847 20.1655 21.959 20H24V15.062ZM18.878 7.18801L20.572 11H16V6.00001H17.05C17.437 5.99996 17.8156 6.11217 18.1401 6.32304C18.4646 6.53391 18.7209 6.83437 18.878 7.18801V7.18801ZM7 20.5C7 20.8978 6.84196 21.2794 6.56066 21.5607C6.27936 21.842 5.89782 22 5.5 22C5.10218 22 4.72064 21.842 4.43934 21.5607C4.15804 21.2794 4 20.8978 4 20.5C4.00061 20.3291 4.03212 20.1597 4.093 20H6.907C6.96788 20.1597 6.99939 20.3291 7 20.5ZM20 20.5C20 20.8978 19.842 21.2794 19.5607 21.5607C19.2794 21.842 18.8978 22 18.5 22C18.1022 22 17.7206 21.842 17.4393 21.5607C17.158 21.2794 17 20.8978 17 20.5C17.0006 20.3291 17.0321 20.1597 17.093 20H19.907C19.9679 20.1597 19.9994 20.3291 20 20.5V20.5ZM22 18H2V7.00001C2 6.73479 2.10536 6.48044 2.29289 6.2929C2.48043 6.10537 2.73478 6.00001 3 6.00001H14V13H21.461L21.655 13.437C21.8833 13.9483 22.0009 14.5021 22 15.062V18ZM9 11H11V13H9V15H7V13H5V11H7V9.00001H9V11Z" fill="#374957"/>
</g>
<defs>
<clipPath id="clip0_51_68974">
<rect width="24" height="24" fill="white"/>
</clipPath>
</defs>
</svg>
