<svg width="24" height="24" viewBox="0 0 24 24" fill="none" xmlns="http://www.w3.org/2000/svg">
<g clip-path="url(#clip0_51_81850)">
<path d="M23.9996 1.99991V5.99991C23.9996 6.26513 23.8943 6.51948 23.7067 6.70702C23.5192 6.89455 23.2648 6.99991 22.9996 6.99991C22.7344 6.99991 22.48 6.89455 22.2925 6.70702C22.105 6.51948 21.9996 6.26513 21.9996 5.99991V3.43891L16.6996 8.70991C16.6097 8.81532 16.4989 8.9009 16.3742 8.96122C16.2495 9.02155 16.1136 9.0553 15.9752 9.06035C15.8367 9.0654 15.6987 9.04163 15.57 8.99054C15.4412 8.93946 15.3245 8.86217 15.2271 8.76359C15.1298 8.66501 15.054 8.54728 15.0046 8.41787C14.9551 8.28846 14.9331 8.15019 14.9399 8.01182C14.9468 7.87345 14.9822 7.73802 15.0442 7.61409C15.1061 7.49016 15.1931 7.38045 15.2996 7.29191L20.6096 1.99991H17.9996C17.7344 1.99991 17.48 1.89455 17.2925 1.70702C17.105 1.51948 16.9996 1.26513 16.9996 0.999909C16.9996 0.734693 17.105 0.480339 17.2925 0.292803C17.48 0.105266 17.7344 -9.05748e-05 17.9996 -9.05748e-05H21.9996C22.53 -9.05748e-05 23.0388 0.210623 23.4138 0.585696C23.7889 0.960769 23.9996 1.46948 23.9996 1.99991ZM20.6546 14.8559C20.0772 14.3065 19.3104 14.0006 18.5134 14.0018C17.7164 14.0029 16.9505 14.3109 16.3746 14.8619L14.4686 16.4679C12.9127 15.8241 11.4993 14.8793 10.3097 13.6876C9.1201 12.4959 8.17768 11.0809 7.53661 9.52391L9.13661 7.62391C9.6876 7.04805 9.99564 6.28211 9.99676 5.48511C9.99787 4.68812 9.69199 3.92131 9.14261 3.34391C9.14261 3.34391 7.29061 0.938909 7.26061 0.906909C6.68959 0.33277 5.91574 0.00615586 5.10603 -0.00245006C4.29633 -0.011056 3.5157 0.299036 2.93261 0.860909L1.78361 1.86091C-5.93639 10.0699 13.9836 29.9989 22.1836 22.1609L23.0956 21.1119C23.6751 20.5308 24.0006 19.7436 24.0006 18.9229C24.0006 18.1022 23.6751 17.315 23.0956 16.7339C23.0626 16.7079 20.6546 14.8559 20.6546 14.8559Z" fill="#374957"/>
</g>
<defs>
<clipPath id="clip0_51_81850">
<rect width="24" height="24" fill="white"/>
</clipPath>
</defs>
</svg>
