<svg width="24" height="24" viewBox="0 0 24 24" fill="none" xmlns="http://www.w3.org/2000/svg">
<g clip-path="url(#clip0_51_80419)">
<path d="M24 3.02291C24.0012 3.42019 23.9236 3.81376 23.7715 4.18078C23.6194 4.5478 23.3959 4.88095 23.114 5.16091L19.707 8.5679C19.0644 9.2044 18.697 10.0675 18.6837 10.9719C18.6704 11.8763 19.0123 12.7498 19.636 13.4049L18.2 14.7999L9.2 5.79991L10.6 4.36391C11.2552 4.98733 12.1287 5.32907 13.033 5.31579C13.9373 5.30252 14.8004 4.93529 15.437 4.29291L18.839 0.885912C19.4147 0.335535 20.1805 0.0283813 20.977 0.0283813C21.7735 0.0283813 22.5393 0.335535 23.115 0.885912C23.3966 1.16583 23.6198 1.49886 23.7717 1.86569C23.9237 2.23252 24.0012 2.62586 24 3.02291V3.02291ZM1.913 17.6809C1.45019 18.1383 1.14449 18.7308 1.0399 19.3731C0.935315 20.0154 1.03724 20.6742 1.331 21.2549L0 22.5859L1.414 23.9999L2.745 22.6689C3.32564 22.9626 3.98453 23.0646 4.62679 22.96C5.26905 22.8554 5.86156 22.5497 6.319 22.0869L14.368 14.0379L9.962 9.6319L1.913 17.6809Z" fill="#374957"/>
</g>
<defs>
<clipPath id="clip0_51_80419">
<rect width="24" height="24" fill="white"/>
</clipPath>
</defs>
</svg>
