<svg width="24" height="24" viewBox="0 0 24 24" fill="none" xmlns="http://www.w3.org/2000/svg">
<g clip-path="url(#clip0_51_69418)">
<path d="M1.414 0L0 1.414L4.293 5.707L2 8H7C7.26522 8 7.51957 7.89464 7.70711 7.70711C7.89464 7.51957 8 7.26522 8 7V2L5.707 4.293L1.414 0Z" fill="#374957"/>
<path d="M21.9999 15.9998H16.9999C16.7347 15.9998 16.4803 16.1052 16.2928 16.2927C16.1052 16.4803 15.9999 16.7346 15.9999 16.9998V21.9998L18.2929 19.7068L22.5859 23.9998L23.9999 22.5858L19.7069 18.2928L21.9999 15.9998Z" fill="#374957"/>
<path d="M16.9999 8H21.9999L19.7069 5.707L23.9999 1.414L22.5859 0L18.2929 4.293L15.9999 2V7C15.9999 7.26522 16.1052 7.51957 16.2928 7.70711C16.4803 7.89464 16.7347 8 16.9999 8Z" fill="#374957"/>
<path d="M7 15.9998H2L4.293 18.2928L0 22.5858L1.414 23.9998L5.707 19.7068L8 21.9998V16.9998C8 16.7346 7.89464 16.4803 7.70711 16.2927C7.51957 16.1052 7.26522 15.9998 7 15.9998Z" fill="#374957"/>
</g>
<defs>
<clipPath id="clip0_51_69418">
<rect width="24" height="24" fill="white"/>
</clipPath>
</defs>
</svg>
