<svg width="24" height="24" viewBox="0 0 24 24" fill="none" xmlns="http://www.w3.org/2000/svg">
<g clip-path="url(#clip0_51_70242)">
<path d="M22.5432 0.0423584L9.6772 12.9083C8.8956 11.9616 8.24632 10.913 7.7472 9.79135L11.1472 6.39135L4.8872 0.121358L1.7162 3.29135C1.1662 3.8445 0.731342 4.50121 0.436795 5.22351C0.142247 5.9458 -0.00614821 6.71933 0.000195101 7.49935C0.000195101 10.7403 1.79119 14.4993 4.82519 17.7603L0.0431951 22.5423L1.4572 23.9563L23.9572 1.45636L22.5432 0.0423584ZM2.0002 7.49935C1.99431 6.98218 2.09116 6.46899 2.28514 5.98954C2.47911 5.5101 2.76635 5.07393 3.1302 4.70635L4.8872 2.94935L8.3242 6.38635L5.38919 9.32135L5.63419 9.93535C6.26484 11.5314 7.15221 13.0136 8.2612 14.3233L6.2362 16.3493C3.5692 13.4653 2.0002 10.2313 2.0002 7.49935ZM17.6132 12.8473L23.8782 19.1123L20.7072 22.2833C20.1545 22.8337 19.498 23.2688 18.7758 23.5634C18.0537 23.858 17.2801 24.0062 16.5002 23.9993C13.8352 23.9993 10.7002 22.6933 7.7832 20.4553L9.2092 19.0293C11.7002 20.8893 14.3562 21.9993 16.5002 21.9993C17.0172 22.0055 17.5304 21.9087 18.0097 21.7147C18.489 21.5207 18.925 21.2334 19.2922 20.8693L21.0502 19.1123L17.6132 15.6753L14.6872 18.5993L14.0812 18.3683C13.1016 17.9945 12.1632 17.5203 11.2812 16.9533L12.7382 15.4993C13.209 15.7833 13.6973 16.0371 14.2002 16.2593L17.6132 12.8473Z" fill="#374957"/>
</g>
<defs>
<clipPath id="clip0_51_70242">
<rect width="24" height="24" fill="white"/>
</clipPath>
</defs>
</svg>
