<svg width="24" height="24" viewBox="0 0 24 24" fill="none" xmlns="http://www.w3.org/2000/svg">
<g clip-path="url(#clip0_51_70824)">
<path d="M7.00024 8.00087V7.00087C6.99994 5.89228 7.36807 4.81501 8.04676 3.93845C8.72545 3.06188 9.67622 2.43573 10.7496 2.15843C11.8229 1.88113 12.958 1.96842 13.9763 2.40656C14.9947 2.8447 15.8385 3.60885 16.3752 4.57887L18.1242 3.60787C17.3725 2.25019 16.191 1.18079 14.7653 0.567786C13.3396 -0.04522 11.7506 -0.167078 10.2481 0.221368C8.74562 0.609813 7.41481 1.48654 6.46487 2.71372C5.51493 3.94091 4.99973 5.44898 5.00024 7.00087V8.00087H2.00024V21.0009C2.00024 21.7965 2.31631 22.5596 2.87892 23.1222C3.44153 23.6848 4.20459 24.0009 5.00024 24.0009H19.0002C19.7959 24.0009 20.559 23.6848 21.1216 23.1222C21.6842 22.5596 22.0002 21.7965 22.0002 21.0009V8.00087H7.00024ZM20.0002 21.0009C20.0002 21.2661 19.8949 21.5204 19.7074 21.708C19.5198 21.8955 19.2655 22.0009 19.0002 22.0009H5.00024C4.73503 22.0009 4.48067 21.8955 4.29314 21.708C4.1056 21.5204 4.00024 21.2661 4.00024 21.0009V10.0009H20.0002V21.0009Z" fill="#374957"/>
<path d="M13.0003 14.0006H11.0002V18.0006H13.0003V14.0006Z" fill="#374957"/>
</g>
<defs>
<clipPath id="clip0_51_70824">
<rect width="24" height="24" fill="white"/>
</clipPath>
</defs>
</svg>
