<svg width="24" height="24" viewBox="0 0 24 24" fill="none" xmlns="http://www.w3.org/2000/svg">
<g clip-path="url(#clip0_51_81505)">
<path d="M7.99959 19.0003H10.9996V21.0003H7.99959V24.0003H5.99959V21.0003H2.99959V19.0003H5.99959V14.8493C4.98401 14.6449 4.02179 14.2323 3.17358 13.6375C2.32538 13.0427 1.60958 12.2787 1.07132 11.3936C0.533065 10.5084 0.184015 9.52137 0.0461773 8.49463C-0.0916608 7.46789 -0.0152976 6.42373 0.270453 5.42796C0.556204 4.4322 1.04514 3.50644 1.70645 2.70902C2.36776 1.91161 3.1871 1.25985 4.11281 0.794819C5.03852 0.32979 6.05054 0.0615803 7.08505 0.00709754C8.11957 -0.0473852 9.15416 0.113041 10.1236 0.478262C9.14023 1.36473 8.35402 2.44785 7.81587 3.65749C7.27773 4.86713 6.99965 6.17632 6.99965 7.50026C6.99965 8.82421 7.27773 10.1334 7.81587 11.343C8.35402 12.5527 9.14023 13.6358 10.1236 14.5223C9.44134 14.7759 8.72588 14.9292 7.99959 14.9773V19.0003ZM23.9996 7.50026C24.0012 6.03785 23.5753 4.60687 22.7741 3.38341C21.973 2.15994 20.8317 1.19738 19.4906 0.614169C18.1495 0.0309559 16.6672 -0.147461 15.226 0.100873C13.7848 0.349206 12.4477 1.01346 11.3792 2.01188C10.3106 3.01031 9.55727 4.29935 9.21183 5.72038C8.8664 7.14141 8.94394 8.63242 9.43492 10.01C9.9259 11.3875 10.8089 12.5914 11.9753 13.4736C13.1416 14.3558 14.5404 14.8778 15.9996 14.9753V19.0003H12.9996V21.0003H15.9996V24.0003H17.9996V21.0003H20.9996V19.0003H17.9996V14.8493C19.6924 14.5012 21.2134 13.5803 22.3063 12.2416C23.3993 10.903 23.9973 9.22842 23.9996 7.50026V7.50026Z" fill="#374957"/>
</g>
<defs>
<clipPath id="clip0_51_81505">
<rect width="24" height="24" fill="white"/>
</clipPath>
</defs>
</svg>
