<svg width="24" height="24" viewBox="0 0 24 24" fill="none" xmlns="http://www.w3.org/2000/svg">
<g clip-path="url(#clip0_51_70412)">
<path d="M23.293 11.0703C23.0185 10.7455 22.6781 10.4827 22.2943 10.2994C21.9106 10.1162 21.4922 10.0166 21.067 10.0073C21.5888 8.05672 21.9016 6.05612 22 4.03933L22.043 2.95033L20.954 2.99933C19.7262 3.06525 18.5034 3.20416 17.292 3.41533C17.7792 2.34351 18.0211 1.17649 18 -0.00067218H16C16.0111 0.770553 15.8754 1.53685 15.6 2.25733C15.4099 1.85214 15.1519 1.48247 14.837 1.16433C14.138 0.467029 13.2048 0.054307 12.2186 0.00626304C11.2324 -0.041781 10.2635 0.27828 9.50003 0.904328C8.75899 0.291486 7.82066 -0.0314782 6.85942 -0.00454523C5.89817 0.0223877 4.9794 0.397386 4.27384 1.05076C3.56828 1.70413 3.12392 2.59144 3.02335 3.54779C2.92277 4.50413 3.17282 5.46447 3.72703 6.25033C3.16187 6.73405 2.7138 7.33967 2.41657 8.02162C2.11933 8.70356 1.98067 9.44404 2.01103 10.1873C1.34322 10.4123 0.777735 10.8684 0.416528 11.4735C0.0553206 12.0785 -0.0778482 12.7927 0.0410284 13.4873C0.382587 15.695 1.2434 17.7901 2.55266 19.6003C3.86192 21.4104 5.58221 22.8838 7.57203 23.8993L7.77203 23.9993H16.223L16.423 23.8993C18.4136 22.8833 20.1342 21.4089 21.4434 19.5977C22.7525 17.7864 23.6127 15.6901 23.953 13.4813C24.0252 13.0556 24.0035 12.6193 23.8895 12.2029C23.7755 11.7864 23.5719 11.3999 23.293 11.0703V11.0703ZM18.973 9.99933H16.414L17.707 8.70633L16.292 7.29233L13.585 9.99933H12.036C11.9631 9.47338 12.0133 8.93767 12.1826 8.43443C12.352 7.93118 12.6359 7.47414 13.012 7.09933C14.144 5.96733 17.476 5.31533 19.919 5.08333C19.7851 6.75175 19.4679 8.40035 18.973 9.99933V9.99933ZM4.00003 9.99933C4.00003 9.20368 4.3161 8.44062 4.87871 7.87801C5.44132 7.3154 6.20438 6.99933 7.00003 6.99933C7.79568 6.99933 8.55874 7.3154 9.12135 7.87801C9.68396 8.44062 10 9.20368 10 9.99933H4.00003ZM5.57803 2.57833C5.9488 2.2087 6.45099 2.00114 6.97453 2.00114C7.49807 2.00114 8.00026 2.2087 8.37103 2.57833C8.46603 2.67833 9.49903 3.80833 9.49903 3.80833C9.49903 3.80833 10.533 2.67433 10.627 2.57933C10.92 2.28164 11.3005 2.08534 11.7129 2.01907C12.1253 1.9528 12.5481 2.02001 12.9196 2.21091C13.2912 2.40181 13.592 2.70641 13.7783 3.08029C13.9645 3.45417 14.0264 3.87777 13.955 4.28933C12.6283 4.69415 11.4959 5.5711 10.772 6.75433C10.1397 6.00709 9.29879 5.46562 8.35688 5.19928C7.41497 4.93294 6.41499 4.95385 5.48503 5.25933C5.15971 4.88302 4.98854 4.39772 5.00578 3.90059C5.02303 3.40346 5.22742 2.93119 5.57803 2.57833V2.57833ZM21.985 13.1513C21.691 15.0019 20.9782 16.761 19.9012 18.2944C18.8241 19.8277 17.4112 21.0949 15.77 21.9993H8.22903C6.58773 21.0949 5.17466 19.8275 4.09759 18.294C3.02051 16.7604 2.30787 15.0012 2.01403 13.1503C1.99016 13.0106 1.99741 12.8674 2.03527 12.7309C2.07312 12.5943 2.14065 12.4678 2.23303 12.3603C2.32828 12.2473 2.44708 12.1564 2.58112 12.094C2.71516 12.0317 2.8612 11.9994 3.00903 11.9993H20.99C21.1379 11.9994 21.2839 12.0317 21.4179 12.094C21.552 12.1564 21.6708 12.2473 21.766 12.3603C21.8583 12.4681 21.9257 12.5948 21.9635 12.7315C22.0014 12.8682 22.0087 13.0115 21.985 13.1513Z" fill="#374957"/>
</g>
<defs>
<clipPath id="clip0_51_70412">
<rect width="24" height="24" fill="white"/>
</clipPath>
</defs>
</svg>
