<svg width="24" height="24" viewBox="0 0 24 24" fill="none" xmlns="http://www.w3.org/2000/svg">
<path d="M17.7898 7.20877C17.3437 5.29974 16.212 3.62099 14.6097 2.49128C13.0075 1.36156 11.0462 0.859516 9.09816 1.08047C7.15016 1.30142 5.35111 2.22999 4.04257 3.68987C2.73404 5.14975 2.00712 7.0393 1.99984 8.99977C1.99886 10.2782 2.30767 11.5378 2.89984 12.6708C1.82097 13.2489 0.966238 14.171 0.471458 15.2906C-0.0233229 16.4101 -0.129776 17.6629 0.16901 18.8499C0.467797 20.0369 1.15469 21.09 2.12054 21.8419C3.0864 22.5938 4.27582 23.0013 5.49984 22.9998H15.9998C17.961 22.9933 19.8514 22.2666 21.312 20.9579C22.7726 19.6492 23.7015 17.8496 23.9224 15.9009C24.1433 13.9522 23.6407 11.9903 22.5102 10.3879C21.3796 8.78541 19.6998 7.65407 17.7898 7.20877ZM16.7468 20.2758C16.2833 20.7388 15.655 20.9988 14.9998 20.9988C14.3447 20.9988 13.7164 20.7388 13.2528 20.2758L10.0528 17.0758L11.4668 15.6618L13.9998 18.1998V9.99977H15.9998V18.1998L18.5348 15.6648L19.9488 17.0788L16.7468 20.2758Z" fill="#374957"/>
</svg>
