<svg width="24" height="24" viewBox="0 0 24 24" fill="none" xmlns="http://www.w3.org/2000/svg">
<g clip-path="url(#clip0_51_80950)">
<path d="M23.8782 19.113L20.7072 22.285C20.1544 22.835 19.4978 23.2698 18.7756 23.5642C18.0535 23.8586 17.2801 24.0067 16.5002 24C9.25223 24 0.000232378 14.748 0.000232378 7.5C-0.00669965 6.71981 0.141524 5.94603 0.436285 5.22363C0.731047 4.50123 1.16647 3.84463 1.71723 3.292L4.88723 0.122L11.1512 6.387L7.02723 10.512C8.25325 13.4267 10.5686 15.7478 13.4802 16.981L17.6132 12.848L23.8782 19.113ZM22.0002 0H20.0002V8H22.0002V0ZM18.0002 0H16.0002V8H18.0002V0Z" fill="#374957"/>
</g>
<defs>
<clipPath id="clip0_51_80950">
<rect width="24" height="24" fill="white"/>
</clipPath>
</defs>
</svg>
