<svg width="24" height="24" viewBox="0 0 24 24" fill="none" xmlns="http://www.w3.org/2000/svg">
<g clip-path="url(#clip0_51_70011)">
<path d="M1.87821 5.12113L0.293213 3.53613L1.70721 2.12213L3.29321 3.70713C3.48358 3.88916 3.73682 3.99075 4.00021 3.99075C4.2636 3.99075 4.51685 3.88916 4.70721 3.70713L8.29321 0.122131L9.70721 1.53613L6.12121 5.12113C5.84263 5.39976 5.51189 5.62078 5.14788 5.77158C4.78387 5.92238 4.39372 5.99999 3.99971 5.99999C3.6057 5.99999 3.21556 5.92238 2.85155 5.77158C2.48754 5.62078 2.1568 5.39976 1.87821 5.12113V5.12113ZM12.0002 5.00013H24.0002V3.00013H12.0002V5.00013ZM4.00021 14.0001C4.39433 14.0013 4.78474 13.9241 5.14883 13.7732C5.51291 13.6224 5.84343 13.4007 6.12121 13.1211L9.70721 9.53613L8.29321 8.12213L4.70721 11.7071C4.51685 11.8892 4.2636 11.9908 4.00021 11.9908C3.73682 11.9908 3.48358 11.8892 3.29321 11.7071L1.70721 10.1221L0.293213 11.5361L1.87821 13.1211C2.15625 13.4006 2.48695 13.6223 2.85119 13.7731C3.21542 13.924 3.60596 14.0012 4.00021 14.0001V14.0001ZM12.0002 13.0001H24.0002V11.0001H12.0002V13.0001ZM4.00021 22.0001C4.39433 22.0013 4.78474 21.9241 5.14883 21.7732C5.51291 21.6224 5.84343 21.4007 6.12121 21.1211L9.70721 17.5361L8.29321 16.1221L4.70721 19.7071C4.51685 19.8892 4.2636 19.9908 4.00021 19.9908C3.73682 19.9908 3.48358 19.8892 3.29321 19.7071L1.70721 18.1221L0.293213 19.5361L1.87821 21.1211C2.15625 21.4006 2.48695 21.6223 2.85119 21.7731C3.21542 21.924 3.60596 22.0012 4.00021 22.0001V22.0001ZM12.0002 21.0001H24.0002V19.0001H12.0002V21.0001Z" fill="#374957"/>
</g>
<defs>
<clipPath id="clip0_51_70011">
<rect width="24" height="24" fill="white"/>
</clipPath>
</defs>
</svg>
