<svg width="24" height="24" viewBox="0 0 24 24" fill="none" xmlns="http://www.w3.org/2000/svg">
<g clip-path="url(#clip0_51_82615)">
<path d="M11.9998 6.00009C11.0109 6.00009 10.0442 6.29333 9.22193 6.84274C8.39968 7.39215 7.75882 8.17304 7.38038 9.08667C7.00195 10.0003 6.90293 11.0056 7.09586 11.9755C7.28878 12.9454 7.76499 13.8364 8.46425 14.5356C9.16351 15.2349 10.0544 15.7111 11.0243 15.904C11.9942 16.0969 12.9996 15.9979 13.9132 15.6195C14.8268 15.241 15.6077 14.6002 16.1571 13.7779C16.7065 12.9557 16.9998 11.989 16.9998 11.0001C16.9982 9.67449 16.4709 8.40365 15.5336 7.46631C14.5962 6.52897 13.3254 6.00168 11.9998 6.00009V6.00009ZM13.7068 12.7071C13.5193 12.8946 13.2649 12.9999 12.9998 12.9999C12.7346 12.9999 12.4803 12.8946 12.2928 12.7071L11.2928 11.7071C11.1052 11.5196 10.9998 11.2653 10.9998 11.0001V9.00009C10.9998 8.73487 11.1051 8.48052 11.2927 8.29298C11.4802 8.10545 11.7346 8.00009 11.9998 8.00009C12.265 8.00009 12.5194 8.10545 12.7069 8.29298C12.8944 8.48052 12.9998 8.73487 12.9998 9.00009V10.5861L13.7068 11.2931C13.8943 11.4806 13.9996 11.7349 13.9996 12.0001C13.9996 12.2653 13.8943 12.5196 13.7068 12.7071ZM19.7768 3.22209C18.7584 2.18059 17.5434 1.35171 16.2022 0.783555C14.8609 0.215403 13.4202 -0.0807047 11.9636 -0.0875848C10.507 -0.0944649 9.06351 0.18802 7.71696 0.743476C6.37041 1.29893 5.14759 2.1163 4.11946 3.14813C3.09133 4.17997 2.27837 5.40573 1.72777 6.75427C1.17716 8.10281 0.899878 9.54728 0.912002 11.0039C0.924126 12.4604 1.22542 13.9001 1.7984 15.2393C2.37137 16.5785 3.20462 17.7905 4.24978 18.8051L8.19178 22.4481C9.20581 23.4396 10.5667 23.9964 11.9849 23.9999C13.4032 24.0035 14.7668 23.4535 15.7858 22.4671L19.7768 18.7781C21.8396 16.7152 22.9984 13.9174 22.9984 11.0001C22.9984 8.08279 21.8396 5.28497 19.7768 3.22209V3.22209ZM11.9998 18.0001C10.6153 18.0001 9.26193 17.5895 8.11079 16.8204C6.95965 16.0512 6.06244 14.958 5.53262 13.6789C5.00281 12.3998 4.86419 10.9923 5.13428 9.63446C5.40438 8.27659 6.07107 7.02931 7.05003 6.05034C8.029 5.07137 9.27628 4.40469 10.6341 4.13459C11.992 3.86449 13.3995 4.00312 14.6786 4.53293C15.9576 5.06274 17.0509 5.95995 17.8201 7.1111C18.5892 8.26224 18.9998 9.61562 18.9998 11.0001C18.9977 12.856 18.2595 14.6352 16.9472 15.9475C15.6349 17.2598 13.8556 17.998 11.9998 18.0001V18.0001Z" fill="#374957"/>
</g>
<defs>
<clipPath id="clip0_51_82615">
<rect width="24" height="24" fill="white"/>
</clipPath>
</defs>
</svg>
