<svg width="24" height="24" viewBox="0 0 24 24" fill="none" xmlns="http://www.w3.org/2000/svg">
<g clip-path="url(#clip0_51_71669)">
<path d="M19 3.00031H12.472C12.3173 3.00133 12.1645 2.96713 12.025 2.90031L8.86899 1.31631C8.45239 1.10885 7.99339 1.00069 7.52799 1.00031H4.99999C3.6744 1.00189 2.40355 1.52919 1.46621 2.46653C0.528874 3.40386 0.00158023 4.67471 -7.62939e-06 6.00031L-7.62939e-06 18.0003C0.00158023 19.3259 0.528874 20.5967 1.46621 21.5341C2.40355 22.4714 3.6744 22.9987 4.99999 23.0003H19C20.3256 22.9987 21.5964 22.4714 22.5338 21.5341C23.4711 20.5967 23.9984 19.3259 24 18.0003V8.00031C23.9984 6.67471 23.4711 5.40386 22.5338 4.46653C21.5964 3.52919 20.3256 3.00189 19 3.00031V3.00031ZM4.99999 3.00031H7.52799C7.68265 2.99928 7.83551 3.03348 7.97499 3.10031L11.131 4.67931C11.5472 4.88849 12.0062 4.99837 12.472 5.00031H19C19.598 5.00128 20.1821 5.18098 20.6773 5.51632C21.1725 5.85166 21.5561 6.32735 21.779 6.88231L1.99999 6.99431V6.00031C1.99999 5.20466 2.31606 4.44159 2.87867 3.87898C3.44128 3.31638 4.20434 3.00031 4.99999 3.00031V3.00031ZM19 21.0003H4.99999C4.20434 21.0003 3.44128 20.6842 2.87867 20.1216C2.31606 19.559 1.99999 18.796 1.99999 18.0003V8.99431L22 8.8813V18.0003C22 18.796 21.6839 19.559 21.1213 20.1216C20.5587 20.6842 19.7956 21.0003 19 21.0003Z" fill="#374957"/>
</g>
<defs>
<clipPath id="clip0_51_71669">
<rect width="24" height="24" fill="white"/>
</clipPath>
</defs>
</svg>
