<svg width="24" height="24" viewBox="0 0 24 24" fill="none" xmlns="http://www.w3.org/2000/svg">
<g clip-path="url(#clip0_51_81464)">
<path d="M7 8.00087V7.00087C6.99969 5.89228 7.36782 4.81501 8.04652 3.93845C8.72521 3.06188 9.67597 2.43573 10.7493 2.15843C11.8227 1.88113 12.9578 1.96842 13.9761 2.40656C14.9944 2.8447 15.8383 3.60885 16.375 4.57887L18.124 3.60787C17.3723 2.25019 16.1907 1.18079 14.765 0.567786C13.3393 -0.04522 11.7504 -0.167078 10.2479 0.221368C8.74538 0.609813 7.41457 1.48654 6.46463 2.71372C5.51469 3.94091 4.99948 5.44898 5 7.00087V8.00087H2V21.0009C2 21.7965 2.31607 22.5596 2.87868 23.1222C3.44129 23.6848 4.20435 24.0009 5 24.0009H19C19.7956 24.0009 20.5587 23.6848 21.1213 23.1222C21.6839 22.5596 22 21.7965 22 21.0009V8.00087H7ZM13 18.0009H11V14.0009H13V18.0009Z" fill="#374957"/>
</g>
<defs>
<clipPath id="clip0_51_81464">
<rect width="24" height="24" fill="white"/>
</clipPath>
</defs>
</svg>
