<svg width="24" height="24" viewBox="0 0 24 24" fill="none" xmlns="http://www.w3.org/2000/svg">
<path d="M22.4 21.9996L18.266 15.9996H21.085L16.8 9.99961H19.955L14.055 1.07062C13.8212 0.741413 13.5117 0.473296 13.1525 0.288914C12.7933 0.104531 12.395 0.00929881 11.9913 0.0112602C11.5875 0.0132215 11.1902 0.112319 10.8328 0.300183C10.4754 0.488046 10.1685 0.759158 9.93797 1.09062L4.04398 9.99961H7.19998L2.91198 15.9996H5.73098L1.59998 21.9996H11V23.9996H13V21.9996H22.4ZM8.15998 15.9996H13.411L12.033 13.9996H6.79998L9.65798 9.99961H11.886L10.456 7.99961H7.76498L11.589 2.21462C11.6322 2.14768 11.6911 2.09232 11.7606 2.05335C11.8301 2.01438 11.908 1.99298 11.9877 1.99101C12.0673 1.98904 12.1463 2.00656 12.2176 2.04204C12.2889 2.07753 12.3505 2.1299 12.397 2.19462L16.235 7.99961H12.914L17.2 13.9996H14.462L18.6 19.9996H5.39998L8.15998 15.9996Z" fill="#374957"/>
</svg>
