<svg width="24" height="24" viewBox="0 0 24 24" fill="none" xmlns="http://www.w3.org/2000/svg">
<g clip-path="url(#clip0_51_80056)">
<path d="M13.4802 16.9809C10.5686 15.7477 8.25325 13.4267 7.02723 10.5119L11.1512 6.38693L4.88723 0.121935L1.71723 3.29193C1.16647 3.84457 0.731047 4.50116 0.436285 5.22356C0.141524 5.94596 -0.00669965 6.71975 0.000232378 7.49993C0.000232378 14.7479 9.25223 23.9999 16.5002 23.9999C17.2801 24.0067 18.0535 23.8585 18.7756 23.5641C19.4978 23.2698 20.1544 22.8349 20.7072 22.2849L23.8782 19.1129L17.6132 12.8479L13.4802 16.9809ZM10.1522 2.55893C10.883 1.772 11.7649 1.14049 12.7452 0.702154C13.7256 0.263816 14.7842 0.0276505 15.8579 0.0077768C16.9316 -0.0120969 17.9983 0.184729 18.9942 0.586488C19.9901 0.988247 20.8948 1.58669 21.6541 2.34604C22.4135 3.10539 23.0119 4.01006 23.4137 5.00596C23.8154 6.00185 24.0123 7.06854 23.9924 8.14224C23.9725 9.21594 23.7364 10.2746 23.298 11.255C22.8597 12.2353 22.2282 13.1172 21.4412 13.8479L20.0282 12.4339C20.6302 11.8891 21.1152 11.2276 21.4536 10.4896C21.7921 9.75161 21.9771 8.95251 21.9972 8.14084C22.0174 7.32917 21.8724 6.52187 21.571 5.76797C21.2695 5.01407 20.818 4.3293 20.2439 3.75526C19.6697 3.18121 18.9848 2.72987 18.2308 2.42863C17.4769 2.1274 16.6695 1.98256 15.8579 2.00292C15.0462 2.02328 14.2471 2.2084 13.5092 2.54706C12.7713 2.88571 12.1099 3.37082 11.5652 3.97293L10.1522 2.55893ZM15.0002 8.49993V4.99993H17.0002V7.75793L18.5612 9.31793L17.1892 10.6889L15.0002 8.49993Z" fill="#374957"/>
</g>
<defs>
<clipPath id="clip0_51_80056">
<rect width="24" height="24" fill="white"/>
</clipPath>
</defs>
</svg>
