<svg width="24" height="24" viewBox="0 0 24 24" fill="none" xmlns="http://www.w3.org/2000/svg">
<g clip-path="url(#clip0_51_70649)">
<path d="M23.124 0.875386C22.8135 0.561976 22.4368 0.321993 22.0215 0.173016C21.6063 0.0240377 21.1629 -0.030162 20.724 0.0143863C18.452 0.235386 12.71 1.21439 8.461 5.46039C4.78207 9.14391 1.97381 13.6038 0.242 18.5134L0 19.1214L4.855 23.9764L5.464 23.7384C10.377 22.012 14.8427 19.2106 18.535 15.5384C22.783 11.2904 23.76 5.54739 23.981 3.27539C24.0251 2.83682 23.9711 2.39394 23.8229 1.97883C23.6747 1.56373 23.4359 1.1868 23.124 0.875386V0.875386ZM17.124 14.1244C13.7968 17.4618 9.77611 20.0265 5.347 21.6364L4.562 20.8514L16.707 8.70639L15.293 7.29239L3.148 19.4374L2.348 18.6374C3.97602 14.2178 6.54417 10.2044 9.875 6.87439C13.667 3.08339 18.861 2.20539 20.919 2.00439C21.0637 1.99107 21.2095 2.00969 21.3462 2.05894C21.4829 2.10819 21.6071 2.18686 21.71 2.28939C21.814 2.39146 21.894 2.51539 21.9441 2.65221C21.9943 2.78902 22.0134 2.93528 22 3.08039C21.794 5.13839 20.916 10.3334 17.125 14.1244H17.124Z" fill="#374957"/>
</g>
<defs>
<clipPath id="clip0_51_70649">
<rect width="24" height="24" fill="white"/>
</clipPath>
</defs>
</svg>
