<svg width="24" height="24" viewBox="0 0 24 24" fill="none" xmlns="http://www.w3.org/2000/svg">
<g clip-path="url(#clip0_51_72260)">
<path d="M21.46 4.13388C21.2578 2.97513 20.653 1.92498 19.7521 1.16866C18.8513 0.412327 17.7123 -0.00159756 16.536 -0.000116295H7.45103C6.27385 -0.0019061 5.13391 0.41237 4.23256 1.16954C3.3312 1.92671 2.72642 2.97806 2.52504 4.13788L0.0760399 18.1379C-0.0497238 18.8565 -0.0167308 19.5938 0.172704 20.2983C0.362139 21.0028 0.703427 21.6572 1.17262 22.2158C1.64182 22.7744 2.22756 23.2235 2.88874 23.5317C3.54993 23.8399 4.27055 23.9997 5.00003 23.9999H19C19.73 24 20.4511 23.8402 21.1128 23.5318C21.7744 23.2235 22.3605 22.774 22.8299 22.2149C23.2993 21.6559 23.6405 21.0008 23.8297 20.2958C24.0189 19.5907 24.0514 18.8528 23.925 18.1339L21.46 4.13388ZM21.3 20.9289C21.0182 21.2646 20.6662 21.5345 20.2688 21.7195C19.8714 21.9045 19.4384 22.0002 19 21.9999H5.00003C4.56221 21.9999 4.12969 21.9041 3.73284 21.7191C3.33599 21.5342 2.98442 21.2647 2.70282 20.9294C2.42123 20.5942 2.21642 20.2013 2.10279 19.7785C1.98915 19.3557 1.96944 18.9131 2.04504 18.4819L4.49403 4.48188C4.61597 3.78631 4.97936 3.15605 5.52026 2.70205C6.06115 2.24804 6.74486 1.9994 7.45103 1.99988H16.536C17.2414 2.00002 17.9242 2.2487 18.4644 2.70225C19.0046 3.15579 19.3678 3.78519 19.49 4.47988L21.953 18.4799C22.0295 18.911 22.0107 19.3537 21.8978 19.7767C21.785 20.1998 21.581 20.5931 21.3 20.9289V20.9289ZM13 4.99988V6.99988C13 7.2651 12.8947 7.51945 12.7071 7.70699C12.5196 7.89453 12.2652 7.99988 12 7.99988C11.7348 7.99988 11.4805 7.89453 11.2929 7.70699C11.1054 7.51945 11 7.2651 11 6.99988V4.99988C11 4.73467 11.1054 4.48031 11.2929 4.29278C11.4805 4.10524 11.7348 3.99988 12 3.99988C12.2652 3.99988 12.5196 4.10524 12.7071 4.29278C12.8947 4.48031 13 4.73467 13 4.99988ZM13 10.9999V12.9999C13 13.2651 12.8947 13.5195 12.7071 13.707C12.5196 13.8945 12.2652 13.9999 12 13.9999C11.7348 13.9999 11.4805 13.8945 11.2929 13.707C11.1054 13.5195 11 13.2651 11 12.9999V10.9999C11 10.7347 11.1054 10.4803 11.2929 10.2928C11.4805 10.1052 11.7348 9.99988 12 9.99988C12.2652 9.99988 12.5196 10.1052 12.7071 10.2928C12.8947 10.4803 13 10.7347 13 10.9999V10.9999ZM13 16.9999V18.9999C13 19.2651 12.8947 19.5195 12.7071 19.707C12.5196 19.8945 12.2652 19.9999 12 19.9999C11.7348 19.9999 11.4805 19.8945 11.2929 19.707C11.1054 19.5195 11 19.2651 11 18.9999V16.9999C11 16.7347 11.1054 16.4803 11.2929 16.2928C11.4805 16.1052 11.7348 15.9999 12 15.9999C12.2652 15.9999 12.5196 16.1052 12.7071 16.2928C12.8947 16.4803 13 16.7347 13 16.9999Z" fill="#374957"/>
</g>
<defs>
<clipPath id="clip0_51_72260">
<rect width="24" height="24" fill="white"/>
</clipPath>
</defs>
</svg>
