<svg width="24" height="24" viewBox="0 0 24 24" fill="none" xmlns="http://www.w3.org/2000/svg">
<g clip-path="url(#clip0_51_69364)">
<path d="M18.535 18.6658L19.949 20.0798L16.749 23.2798C16.2851 23.742 15.6569 24.0016 15.002 24.0016C14.3471 24.0016 13.7189 23.742 13.255 23.2798L10.055 20.0798L11.469 18.6658L14 21.1998V12.9998H16V21.1998L18.535 18.6658ZM17.79 7.20877C17.3438 5.29974 16.2121 3.62099 14.6099 2.49128C13.0076 1.36156 11.0463 0.859516 9.09828 1.08047C7.15028 1.30142 5.35123 2.22999 4.0427 3.68987C2.73416 5.14975 2.00725 7.0393 1.99996 8.99977C1.99898 10.2782 2.30779 11.5378 2.89996 12.6708C1.82109 13.2489 0.96636 14.171 0.47158 15.2906C-0.0232008 16.4101 -0.129654 17.6629 0.169132 18.8499C0.467919 20.0369 1.15481 21.09 2.12067 21.8419C3.08652 22.5938 4.27595 23.0013 5.49996 22.9998H10.142L8.14196 20.9998H5.49996C4.64838 21.0023 3.82524 20.6935 3.18548 20.1315C2.54571 19.5694 2.13344 18.7929 2.02628 17.9481C1.91911 17.1033 2.12443 16.2485 2.6036 15.5445C3.08276 14.8405 3.80272 14.3359 4.62796 14.1258L6.06496 13.7548L5.18196 12.5628C4.4131 11.5341 3.99837 10.284 3.99996 8.99977C4.01303 7.48692 4.59714 6.03485 5.63531 4.93436C6.67348 3.83386 8.08907 3.16618 9.59859 3.06503C11.1081 2.96388 12.6001 3.43673 13.7758 4.38888C14.9516 5.34103 15.7242 6.70219 15.939 8.19977L16.039 8.95777L16.798 9.05777C17.805 9.19134 18.7614 9.57888 19.5774 10.1839C20.3933 10.789 21.0419 11.5917 21.4622 12.5165C21.8824 13.4413 22.0605 14.4578 21.9796 15.4704C21.8988 16.483 21.5616 17.4584 21 18.3048L22.43 19.7348C23.2195 18.6693 23.7309 17.4237 23.9178 16.1109C24.1048 14.798 23.9615 13.4592 23.5009 12.2157C23.0402 10.9721 22.2768 9.86308 21.2796 8.98884C20.2825 8.11461 19.0831 7.5028 17.79 7.20877Z" fill="#374957"/>
</g>
<defs>
<clipPath id="clip0_51_69364">
<rect width="24" height="24" fill="white"/>
</clipPath>
</defs>
</svg>
