<svg width="24" height="24" viewBox="0 0 24 24" fill="none" xmlns="http://www.w3.org/2000/svg">
<g clip-path="url(#clip0_51_81030)">
<path d="M13.9997 24.0008C13.2114 24.0033 12.4305 23.8491 11.7023 23.5474C10.9741 23.2456 10.3131 22.8021 9.75766 22.2428C8.63892 21.1144 8.01122 19.5898 8.01122 18.0008C8.01122 16.4118 8.63892 14.8872 9.75766 13.7588L13.9997 9.26181L18.2627 13.7788C19.3716 14.9096 19.991 16.4313 19.9871 18.0151C19.9832 19.5989 19.3562 21.1175 18.2417 22.2428V22.2428C17.6862 22.8021 17.0252 23.2456 16.297 23.5474C15.5688 23.8491 14.7879 24.0033 13.9997 24.0008V24.0008ZM4.99966 12.0008C4.34284 12.0024 3.69222 11.8738 3.08545 11.6223C2.47867 11.3709 1.92779 11.0016 1.46466 10.5358C0.532654 9.59534 0.00976562 8.32486 0.00976562 7.00081C0.00976563 5.67676 0.532654 4.40628 1.46466 3.46581L4.99966 0.0078125L8.52666 3.45781C9.46264 4.39731 9.98884 5.669 9.99034 6.99516C9.99184 8.32133 9.46851 9.5942 8.53466 10.5358C8.07163 11.0017 7.52076 11.3711 6.91396 11.6225C6.30716 11.874 5.6565 12.0026 4.99966 12.0008V12.0008ZM19.9997 10.0008C19.4742 10.0022 18.9537 9.8993 18.4682 9.69812C17.9828 9.49695 17.5421 9.20147 17.1717 8.82881C16.4259 8.07651 16.0075 7.0601 16.0075 6.00081C16.0075 4.94152 16.4259 3.92511 17.1717 3.17281L19.9817 0.0498125L22.8597 3.20581C23.5905 3.96122 23.9964 4.9728 23.9904 6.02384C23.9844 7.07488 23.567 8.08177 22.8277 8.82881V8.82881C22.4572 9.20147 22.0165 9.49695 21.5311 9.69812C21.0456 9.8993 20.5251 10.0022 19.9997 10.0008Z" fill="#374957"/>
</g>
<defs>
<clipPath id="clip0_51_81030">
<rect width="24" height="24" fill="white"/>
</clipPath>
</defs>
</svg>
