<svg width="24" height="24" viewBox="0 0 24 24" fill="none" xmlns="http://www.w3.org/2000/svg">
<g clip-path="url(#clip0_51_82694)">
<path d="M15.0002 23.9997C13.3197 23.9985 11.6581 23.6448 10.1227 22.9617C8.58732 22.2786 7.21222 21.2811 6.08615 20.0337C4.95159 18.7849 4.09557 17.309 3.5749 15.704C3.05423 14.0991 2.88081 12.4018 3.06615 10.7247C3.36496 8.11473 4.50355 5.67245 6.31051 3.76557C8.11748 1.85869 10.495 0.590426 13.0852 0.151721C14.7596 -0.106905 16.4683 -0.0372776 18.1162 0.356721C18.5476 0.46758 18.9417 0.691725 19.2575 1.00596C19.5732 1.3202 19.7993 1.71311 19.9123 2.14404C20.0253 2.57498 20.0211 3.02827 19.9001 3.45703C19.7791 3.88578 19.5457 4.27442 19.2242 4.58272C14.6642 8.74872 15.0602 15.2267 20.0312 18.9927C20.3826 19.2686 20.6538 19.6336 20.8163 20.0498C20.9789 20.466 21.0269 20.9181 20.9554 21.3592C20.884 21.8003 20.6956 22.2141 20.4099 22.5577C20.1243 22.9012 19.7518 23.162 19.3312 23.3127C17.933 23.7695 16.4711 24.0014 15.0002 23.9997V23.9997Z" fill="#374957"/>
</g>
<defs>
<clipPath id="clip0_51_82694">
<rect width="24" height="24" fill="white"/>
</clipPath>
</defs>
</svg>
