<svg width="24" height="24" viewBox="0 0 24 24" fill="none" xmlns="http://www.w3.org/2000/svg">
<g clip-path="url(#clip0_51_69589)">
<path d="M22 0H13V2H20.586L0 22.586L1.414 24L22 3.414V11H24V2C24 1.46957 23.7893 0.960859 23.4142 0.585786C23.0391 0.210714 22.5304 0 22 0V0Z" fill="#374957"/>
<path d="M6.00012 9.99964C6.79125 9.99964 7.56461 9.76504 8.2224 9.32551C8.8802 8.88599 9.39289 8.26127 9.69564 7.53037C9.99839 6.79946 10.0776 5.9952 9.92326 5.21927C9.76892 4.44335 9.38796 3.73062 8.82855 3.17121C8.26914 2.6118 7.55641 2.23084 6.78048 2.07649C6.00456 1.92215 5.20029 2.00137 4.46939 2.30412C3.73848 2.60687 3.11377 3.11956 2.67424 3.77735C2.23472 4.43515 2.00012 5.20851 2.00012 5.99964C2.00012 7.0605 2.42155 8.07792 3.17169 8.82806C3.92184 9.57821 4.93926 9.99964 6.00012 9.99964ZM6.00012 3.99964C6.39568 3.99964 6.78236 4.11693 7.11126 4.3367C7.44016 4.55646 7.69651 4.86882 7.84788 5.23427C7.99926 5.59972 8.03886 6.00185 7.96169 6.38982C7.88452 6.77778 7.69404 7.13414 7.41434 7.41385C7.13463 7.69355 6.77826 7.88404 6.3903 7.96121C6.00234 8.03838 5.60021 7.99877 5.23476 7.84739C4.8693 7.69602 4.55695 7.43967 4.33718 7.11078C4.11742 6.78188 4.00012 6.3952 4.00012 5.99964C4.00012 5.4692 4.21084 4.96049 4.58591 4.58542C4.96098 4.21035 5.46969 3.99964 6.00012 3.99964V3.99964Z" fill="#374957"/>
<path d="M18.0001 13.9997C17.209 13.9997 16.4356 14.2343 15.7778 14.6738C15.12 15.1133 14.6074 15.7381 14.3046 16.469C14.0019 17.1999 13.9226 18.0041 14.077 18.7801C14.2313 19.556 14.6123 20.2687 15.1717 20.8281C15.7311 21.3875 16.4438 21.7685 17.2198 21.9228C17.9957 22.0772 18.8 21.998 19.5309 21.6952C20.2618 21.3925 20.8865 20.8798 21.326 20.222C21.7655 19.5642 22.0001 18.7908 22.0001 17.9997C22.0001 16.9388 21.5787 15.9214 20.8286 15.1713C20.0784 14.4211 19.061 13.9997 18.0001 13.9997V13.9997ZM18.0001 19.9997C17.6046 19.9997 17.2179 19.8824 16.889 19.6626C16.5601 19.4429 16.3037 19.1305 16.1524 18.7651C16.001 18.3996 15.9614 17.9975 16.0386 17.6095C16.1157 17.2216 16.3062 16.8652 16.5859 16.5855C16.8656 16.3058 17.222 16.1153 17.6099 16.0381C17.9979 15.961 18.4 16.0006 18.7655 16.1519C19.1309 16.3033 19.4433 16.5597 19.6631 16.8886C19.8828 17.2175 20.0001 17.6041 20.0001 17.9997C20.0001 18.5301 19.7894 19.0388 19.4143 19.4139C19.0393 19.789 18.5306 19.9997 18.0001 19.9997Z" fill="#374957"/>
</g>
<defs>
<clipPath id="clip0_51_69589">
<rect width="24" height="24" fill="white"/>
</clipPath>
</defs>
</svg>
