<svg width="24" height="24" viewBox="0 0 24 24" fill="none" xmlns="http://www.w3.org/2000/svg">
<g clip-path="url(#clip0_51_69199)">
<path d="M21 1.00006H3C2.20435 1.00006 1.44129 1.31613 0.87868 1.87874C0.31607 2.44135 0 3.20441 0 4.00006L0 23.0001H24V4.00006C24 3.20441 23.6839 2.44135 23.1213 1.87874C22.5587 1.31613 21.7956 1.00006 21 1.00006V1.00006ZM3 3.00006H21C21.2652 3.00006 21.5196 3.10542 21.7071 3.29295C21.8946 3.48049 22 3.73484 22 4.00006V7.00006H2V4.00006C2 3.73484 2.10536 3.48049 2.29289 3.29295C2.48043 3.10542 2.73478 3.00006 3 3.00006V3.00006ZM2 21.0001V9.00006H22V21.0001H2ZM5 12.0001H19V14.0001H5V12.0001ZM5 16.0001H15V18.0001H5V16.0001ZM3 5.00006C3 4.80228 3.05865 4.60894 3.16853 4.44449C3.27841 4.28004 3.43459 4.15187 3.61732 4.07618C3.80004 4.00049 4.00111 3.98069 4.19509 4.01928C4.38907 4.05786 4.56725 4.1531 4.70711 4.29295C4.84696 4.43281 4.9422 4.61099 4.98079 4.80497C5.01937 4.99895 4.99957 5.20002 4.92388 5.38274C4.84819 5.56547 4.72002 5.72165 4.55557 5.83153C4.39112 5.94141 4.19778 6.00006 4 6.00006C3.73478 6.00006 3.48043 5.8947 3.29289 5.70717C3.10536 5.51963 3 5.26528 3 5.00006ZM6 5.00006C6 4.80228 6.05865 4.60894 6.16853 4.44449C6.27841 4.28004 6.43459 4.15187 6.61732 4.07618C6.80004 4.00049 7.00111 3.98069 7.19509 4.01928C7.38907 4.05786 7.56725 4.1531 7.70711 4.29295C7.84696 4.43281 7.9422 4.61099 7.98079 4.80497C8.01937 4.99895 7.99957 5.20002 7.92388 5.38274C7.84819 5.56547 7.72002 5.72165 7.55557 5.83153C7.39112 5.94141 7.19778 6.00006 7 6.00006C6.73478 6.00006 6.48043 5.8947 6.29289 5.70717C6.10536 5.51963 6 5.26528 6 5.00006ZM9 5.00006C9 4.80228 9.05865 4.60894 9.16853 4.44449C9.27841 4.28004 9.43459 4.15187 9.61732 4.07618C9.80004 4.00049 10.0011 3.98069 10.1951 4.01928C10.3891 4.05786 10.5673 4.1531 10.7071 4.29295C10.847 4.43281 10.9422 4.61099 10.9808 4.80497C11.0194 4.99895 10.9996 5.20002 10.9239 5.38274C10.8482 5.56547 10.72 5.72165 10.5556 5.83153C10.3911 5.94141 10.1978 6.00006 10 6.00006C9.73478 6.00006 9.48043 5.8947 9.29289 5.70717C9.10536 5.51963 9 5.26528 9 5.00006Z" fill="#374957"/>
</g>
<defs>
<clipPath id="clip0_51_69199">
<rect width="24" height="24" fill="white"/>
</clipPath>
</defs>
</svg>
