<svg width="24" height="24" viewBox="0 0 24 24" fill="none" xmlns="http://www.w3.org/2000/svg">
<g clip-path="url(#clip0_51_81051)">
<path d="M23.4722 16.1939L21.8312 13.7079L20.1632 14.8079L21.8002 17.2999C21.9157 17.4681 21.982 17.6651 21.9919 17.8689C22.0018 18.0727 21.9548 18.2753 21.8562 18.4539C21.7566 18.6402 21.6076 18.7955 21.4255 18.9027C21.2435 19.0099 21.0355 19.065 20.8242 19.0619H12.8792L14.3572 17.5869L12.9452 16.1709L10.4223 18.6879C10.2361 18.8751 10.0886 19.0972 9.98837 19.3415C9.88811 19.5858 9.83697 19.8474 9.8379 20.1114C9.83883 20.3755 9.8918 20.6368 9.99379 20.8803C10.0958 21.1239 10.2448 21.3449 10.4323 21.5309L12.9512 23.9999L14.3512 22.5729L12.8092 21.0579H20.8282C21.4002 21.0598 21.9619 20.9066 22.4537 20.6146C22.9455 20.3227 23.349 19.9029 23.6212 19.3999C23.8938 18.9035 24.0241 18.3416 23.9978 17.7759C23.9715 17.2103 23.7897 16.6628 23.4722 16.1939V16.1939Z" fill="#374957"/>
<path d="M11.7605 3.01288C11.9562 3.01225 12.1491 3.05948 12.3224 3.15047C12.4956 3.24145 12.644 3.37342 12.7545 3.53488L17.0275 9.99988L14.8125 9.56288L14.4265 11.5249L18.0465 12.2389C18.3058 12.2902 18.5727 12.2896 18.8317 12.2372C19.0908 12.1847 19.3369 12.0814 19.5558 11.9333C19.7747 11.7852 19.962 11.5951 20.107 11.3742C20.252 11.1532 20.3518 10.9057 20.4005 10.6459L21.0845 6.98188L19.1175 6.61488L18.6925 8.89388L14.4235 2.43288C14.1302 1.99041 13.7307 1.62854 13.2614 1.38037C12.7921 1.13221 12.2681 1.00567 11.7373 1.01234C11.2065 1.019 10.6858 1.15866 10.2229 1.41852C9.75999 1.67839 9.36964 2.05018 9.08754 2.49988L7.85254 4.46788L9.54554 5.53188L10.7835 3.56088C10.8859 3.39357 11.0295 3.25532 11.2005 3.15938C11.3716 3.06343 11.5644 3.01299 11.7605 3.01288V3.01288Z" fill="#374957"/>
<path d="M6.45744 10.4526L6.88744 12.7626L8.85444 12.3996L8.17044 8.73162C8.12179 8.47197 8.02217 8.22452 7.87735 8.00358C7.73254 7.78264 7.54538 7.59258 7.3267 7.44437C7.10801 7.29616 6.86213 7.19275 6.60326 7.1401C6.34438 7.08745 6.07764 7.08661 5.81844 7.13762L2.20044 7.85062L2.58744 9.81262L4.77144 9.38162L0.478441 16.2096C0.180329 16.6813 0.0156467 17.225 0.00191204 17.7828C-0.0118227 18.3407 0.125904 18.8918 0.400441 19.3776C0.672704 19.8731 1.07412 20.2855 1.56203 20.5711C2.04994 20.8567 2.60611 21.0048 3.17144 20.9996H7.00044V18.9996H3.17144C2.96302 19.0023 2.75777 18.9485 2.57747 18.8439C2.39718 18.7393 2.24857 18.5879 2.14744 18.4056C2.04812 18.2317 1.99814 18.0341 2.0029 17.8339C2.00765 17.6337 2.06697 17.4386 2.17444 17.2696L6.45744 10.4526Z" fill="#374957"/>
</g>
<defs>
<clipPath id="clip0_51_81051">
<rect width="24" height="24" fill="white"/>
</clipPath>
</defs>
</svg>
