<svg width="24" height="24" viewBox="0 0 24 24" fill="none" xmlns="http://www.w3.org/2000/svg">
<g clip-path="url(#clip0_51_69367)">
<path d="M21.0003 17C20.2246 17.0009 19.4797 17.3036 18.9233 17.844L15.9633 16.363C15.9832 16.2429 15.9956 16.1217 16.0003 16C15.9956 15.8783 15.9832 15.7571 15.9633 15.637L18.9233 14.156C19.4217 14.6334 20.0698 14.924 20.7578 14.9785C21.4458 15.033 22.1315 14.8481 22.6989 14.4552C23.2663 14.0622 23.6805 13.4853 23.8714 12.8221C24.0624 12.1588 24.0183 11.45 23.7467 10.8155C23.475 10.181 22.9925 9.65988 22.3808 9.34025C21.7691 9.02061 21.0658 8.92213 20.3898 9.06147C19.7139 9.20081 19.1068 9.5694 18.6714 10.1049C18.2359 10.6404 17.9989 11.3098 18.0003 12C18.005 12.1217 18.0173 12.2429 18.0373 12.363L15.0773 13.844C14.6539 13.4343 14.1193 13.1584 13.5401 13.0506C12.9609 12.9429 12.3628 13.008 11.8204 13.2379C11.2779 13.4678 10.8152 13.8524 10.49 14.3436C10.1647 14.8348 9.99121 15.4109 9.99121 16C9.99121 16.5891 10.1647 17.1652 10.49 17.6564C10.8152 18.1476 11.2779 18.5322 11.8204 18.7621C12.3628 18.992 12.9609 19.0572 13.5401 18.9494C14.1193 18.8416 14.6539 18.5657 15.0773 18.156L18.0373 19.637C18.0173 19.7571 18.005 19.8783 18.0003 20C18.0003 20.5933 18.1762 21.1734 18.5059 21.6667C18.8355 22.1601 19.304 22.5446 19.8522 22.7716C20.4004 22.9987 21.0036 23.0581 21.5855 22.9424C22.1675 22.8266 22.702 22.5409 23.1216 22.1213C23.5412 21.7018 23.8269 21.1672 23.9426 20.5853C24.0584 20.0033 23.999 19.4001 23.7719 18.852C23.5449 18.3038 23.1603 17.8352 22.667 17.5056C22.1736 17.1759 21.5936 17 21.0003 17ZM21.0003 11C21.1981 11 21.3914 11.0587 21.5558 11.1685C21.7203 11.2784 21.8485 11.4346 21.9242 11.6173C21.9998 11.8 22.0196 12.0011 21.9811 12.1951C21.9425 12.3891 21.8472 12.5673 21.7074 12.7071C21.5675 12.847 21.3893 12.9422 21.1954 12.9808C21.0014 13.0194 20.8003 12.9996 20.6176 12.9239C20.4349 12.8482 20.2787 12.72 20.1688 12.5556C20.0589 12.3911 20.0003 12.1978 20.0003 12C20.0003 11.7348 20.1056 11.4804 20.2932 11.2929C20.4807 11.1054 20.7351 11 21.0003 11ZM13.0003 17C12.8025 17 12.6092 16.9414 12.4447 16.8315C12.2803 16.7216 12.1521 16.5654 12.0764 16.3827C12.0007 16.2 11.9809 15.9989 12.0195 15.8049C12.0581 15.6109 12.1533 15.4327 12.2932 15.2929C12.433 15.153 12.6112 15.0578 12.8052 15.0192C12.9992 14.9806 13.2002 15.0004 13.383 15.0761C13.5657 15.1518 13.7219 15.28 13.8317 15.4444C13.9416 15.6089 14.0003 15.8022 14.0003 16C14.0003 16.2652 13.8949 16.5196 13.7074 16.7071C13.5198 16.8946 13.2655 17 13.0003 17ZM21.0003 21C20.8025 21 20.6092 20.9414 20.4447 20.8315C20.2803 20.7216 20.1521 20.5654 20.0764 20.3827C20.0007 20.2 19.9809 19.9989 20.0195 19.8049C20.0581 19.6109 20.1533 19.4327 20.2932 19.2929C20.433 19.153 20.6112 19.0578 20.8052 19.0192C20.9992 18.9806 21.2002 19.0004 21.383 19.0761C21.5657 19.1518 21.7219 19.28 21.8317 19.4444C21.9416 19.6089 22.0003 19.8022 22.0003 20C22.0003 20.2652 21.8949 20.5196 21.7074 20.7071C21.5198 20.8946 21.2655 21 21.0003 21Z" fill="#374957"/>
<path d="M15.9996 20.9999H5.4996C4.64802 21.0024 3.82488 20.6936 3.18511 20.1316C2.54535 19.5695 2.13308 18.793 2.02591 17.9482C1.91874 17.1034 2.12406 16.2486 2.60323 15.5446C3.0824 14.8406 3.80236 14.336 4.6276 14.1259L6.0656 13.7549L5.1816 12.5629C4.41312 11.534 3.99844 10.284 3.9996 8.99988C4.011 7.48586 4.59438 6.03213 5.63274 4.93023C6.67109 3.82833 8.08764 3.15972 9.59831 3.05851C11.109 2.95729 12.6021 3.43094 13.7781 4.38447C14.9542 5.33801 15.7263 6.70092 15.9396 8.19988L16.0396 8.93588L17.7876 7.18788C17.3392 5.27905 16.2054 3.60137 14.6015 2.47344C12.9977 1.34551 11.0354 0.845894 9.0874 1.06947C7.13941 1.29304 5.34136 2.22423 4.03472 3.6862C2.72808 5.14817 2.00386 7.0391 1.99959 8.99988C1.99861 10.2783 2.30742 11.5379 2.8996 12.6709C1.82072 13.249 0.965994 14.1711 0.471214 15.2907C-0.023567 16.4102 -0.130021 17.663 0.168766 18.85C0.467553 20.037 1.15444 21.0901 2.1203 21.842C3.08616 22.5939 4.27558 23.0014 5.4996 22.9999H15.9996C16.3246 22.998 16.6492 22.9763 16.9716 22.9349C16.5443 22.3606 16.2468 21.7004 16.0996 20.9999C16.0666 20.9999 16.0336 20.9999 15.9996 20.9999Z" fill="#374957"/>
</g>
<defs>
<clipPath id="clip0_51_69367">
<rect width="24" height="24" fill="white"/>
</clipPath>
</defs>
</svg>
