<svg width="24" height="24" viewBox="0 0 24 24" fill="none" xmlns="http://www.w3.org/2000/svg">
<g clip-path="url(#clip0_51_72254)">
<path d="M15.9999 7.99957C14.8697 8.00053 13.7525 8.24175 12.7226 8.70724C11.6927 9.17272 10.7735 9.85184 10.0259 10.6996C9.54941 10.4679 9.04775 10.2921 8.53091 10.1756L9.89991 7.44657C9.9759 7.29442 10.0118 7.1254 10.0043 6.95549C9.99679 6.78558 9.94606 6.6204 9.85691 6.47557C9.53946 6.0129 9.11244 5.63599 8.61394 5.37845C8.11543 5.12091 7.56094 4.99074 6.99991 4.99957C6.43972 4.99157 5.88623 5.12213 5.38867 5.37964C4.89111 5.63714 4.46489 6.01361 4.14791 6.47557C4.05876 6.6204 4.00803 6.78558 4.0005 6.95549C3.99298 7.1254 4.02891 7.29442 4.10491 7.44657L5.46891 10.1736C4.43988 10.4001 3.47527 10.8561 2.64703 11.5075C1.81878 12.1588 1.14827 12.9887 0.685478 13.9353C0.22269 14.8819 -0.0204269 15.9208 -0.025744 16.9745C-0.0310611 18.0282 0.201559 19.0694 0.65477 20.0207C1.10798 20.9719 1.77009 21.8085 2.59172 22.4682C3.41335 23.1279 4.3733 23.5936 5.39999 23.8305C6.42668 24.0675 7.49362 24.0696 8.52125 23.8367C9.54887 23.6038 10.5107 23.142 11.3349 22.4856C12.3583 23.2245 13.542 23.7107 14.7892 23.9046C16.0365 24.0985 17.312 23.9945 18.5113 23.6011C19.7107 23.2077 20.8 22.5361 21.6901 21.6411C22.5802 20.7462 23.246 19.6533 23.6329 18.4518C24.0198 17.2503 24.1169 15.9743 23.9163 14.7281C23.7157 13.4819 23.2231 12.3009 22.4787 11.2815C21.7343 10.2621 20.7592 9.43338 19.6332 8.86297C18.5072 8.29257 17.2622 7.99671 15.9999 7.99957V7.99957ZM11.2339 19.6296C10.5699 18.7667 10.1555 17.7382 10.0359 16.656C9.91634 15.5738 10.0962 14.4795 10.5559 13.4926C11.3482 14.2869 11.8469 15.3271 11.9701 16.4423C12.0933 17.5575 11.8337 18.6814 11.2339 19.6296V19.6296ZM1.99991 16.9996C1.9978 16.1799 2.19777 15.3723 2.58213 14.6483C2.9665 13.9243 3.5234 13.3062 4.20355 12.8487C4.88371 12.3912 5.66614 12.1084 6.48163 12.0254C7.29711 11.9423 8.12049 12.0616 8.87891 12.3726C8.16535 13.7619 7.87646 15.3305 8.04824 16.8829C8.22001 18.4353 8.84486 19.9028 9.84491 21.1026C9.09609 21.6249 8.21831 21.9319 7.30714 21.9899C6.39597 22.048 5.48633 21.8549 4.67728 21.4318C3.86824 21.0086 3.19079 20.3716 2.7187 19.5901C2.24662 18.8086 1.998 17.9126 1.99991 16.9996V16.9996ZM15.9999 21.9996C14.8349 21.9999 13.6952 21.6589 12.7219 21.0186C13.7065 19.6268 14.1463 17.9222 13.9579 16.2278C13.7695 14.5335 12.9661 12.9671 11.6999 11.8256C12.3895 11.1135 13.2447 10.5834 14.1891 10.2826C15.1336 9.98175 16.1379 9.91959 17.1122 10.1017C18.0866 10.2837 19.0006 10.7044 19.7727 11.326C20.5448 11.9476 21.1509 12.7507 21.5367 13.6638C21.9226 14.5768 22.0763 15.5712 21.984 16.5581C21.8918 17.545 21.5564 18.4936 21.008 19.3193C20.4596 20.145 19.7152 20.8219 18.8412 21.2896C17.9673 21.7573 16.9911 22.0012 15.9999 21.9996V21.9996Z" fill="#374957"/>
<path d="M10.5529 4.89517C10.6707 4.95471 10.799 4.99035 10.9306 5.00004C11.0622 5.00973 11.1945 4.99328 11.3197 4.95164C11.4449 4.90999 11.5606 4.84398 11.6602 4.7574C11.7598 4.67082 11.8412 4.56538 11.8999 4.44717L12.8999 2.44717C13.0185 2.2098 13.0379 1.93506 12.9538 1.68339C12.8698 1.43172 12.6893 1.22372 12.4519 1.10517C12.3344 1.04647 12.2064 1.0115 12.0754 1.00224C11.9443 0.992987 11.8127 1.00963 11.6881 1.05124C11.4364 1.13525 11.2284 1.3158 11.1099 1.55317L10.1099 3.55317C9.99087 3.78991 9.97067 4.06421 10.0537 4.31583C10.1368 4.56745 10.3163 4.77582 10.5529 4.89517V4.89517Z" fill="#374957"/>
<path d="M2.10493 4.44717C2.22349 4.68521 2.43174 4.86639 2.68388 4.95088C2.80873 4.99271 2.9406 5.00954 3.07195 5.00041C3.2033 4.99129 3.33157 4.95637 3.44943 4.89767C3.5673 4.83897 3.67244 4.75763 3.75887 4.6583C3.84529 4.55896 3.91131 4.44357 3.95314 4.31873C3.99497 4.19388 4.01181 4.06201 4.00268 3.93066C3.99355 3.7993 3.95864 3.67103 3.89993 3.55317L2.89993 1.55317C2.78138 1.3158 2.57339 1.13525 2.32172 1.05124C2.07004 0.96722 1.7953 0.986622 1.55793 1.10517C1.32057 1.22373 1.14001 1.43172 1.056 1.68339C0.971981 1.93506 0.991383 2.2098 1.10993 2.44717L2.10493 4.44717Z" fill="#374957"/>
<path d="M7 4C7.26521 4 7.51957 3.89464 7.7071 3.70711C7.89464 3.51957 8 3.26522 8 3V1C8 0.734784 7.89464 0.48043 7.7071 0.292893C7.51957 0.105357 7.26521 0 7 0C6.73478 0 6.48043 0.105357 6.29289 0.292893C6.10536 0.48043 6 0.734784 6 1V3C6 3.26522 6.10536 3.51957 6.29289 3.70711C6.48043 3.89464 6.73478 4 7 4Z" fill="#374957"/>
</g>
<defs>
<clipPath id="clip0_51_72254">
<rect width="24" height="24" fill="white"/>
</clipPath>
</defs>
</svg>
