<svg width="24" height="24" viewBox="0 0 24 24" fill="none" xmlns="http://www.w3.org/2000/svg">
<g clip-path="url(#clip0_51_71620)">
<path d="M15.0002 12.0005C15.0002 12.2657 14.8948 12.52 14.7073 12.7076C14.5197 12.8951 14.2654 13.0005 14.0002 13.0005H13.0002V17.5005C13.0002 17.9949 12.8535 18.4783 12.5788 18.8894C12.3041 19.3005 11.9137 19.6209 11.4569 19.8101C11 19.9994 10.4974 20.0489 10.0124 19.9524C9.52747 19.856 9.08202 19.6178 8.73239 19.2682C8.38275 18.9186 8.14465 18.4731 8.04819 17.9882C7.95173 17.5032 8.00123 17.0006 8.19045 16.5437C8.37967 16.0869 8.7001 15.6965 9.11123 15.4218C9.52235 15.1471 10.0057 15.0005 10.5002 15.0005C10.6681 15.0008 10.8355 15.0175 11.0002 15.0505V13.0005C11.0002 12.47 11.2109 11.9613 11.5859 11.5862C11.961 11.2112 12.4697 11.0005 13.0002 11.0005H14.0002C14.2654 11.0005 14.5197 11.1058 14.7073 11.2933C14.8948 11.4809 15.0002 11.7352 15.0002 12.0005ZM22.0002 10.4855V19.0005C21.9986 20.326 21.4713 21.5969 20.5339 22.5342C19.5966 23.4716 18.3257 23.9989 17.0002 24.0005H7.00015C5.67456 23.9989 4.40371 23.4716 3.46637 22.5342C2.52903 21.5969 2.00174 20.326 2.00015 19.0005V5.00045C2.00174 3.67486 2.52903 2.40401 3.46637 1.46667C4.40371 0.529333 5.67456 0.00203882 7.00015 0.000450958H11.5152C12.4349 -0.00195054 13.3459 0.178086 14.1956 0.53014C15.0453 0.882194 15.8167 1.39927 16.4652 2.05145L19.9492 5.53545C20.6013 6.18394 21.1184 6.95535 21.4705 7.80502C21.8225 8.65468 22.0026 9.56574 22.0002 10.4855V10.4855ZM15.0512 3.46545C14.7367 3.16007 14.3833 2.89748 14.0002 2.68445V7.00045C14.0002 7.26567 14.1055 7.52002 14.293 7.70756C14.4806 7.89509 14.7349 8.00045 15.0002 8.00045H19.3162C19.1031 7.61733 18.8405 7.26395 18.5352 6.94945L15.0512 3.46545ZM20.0002 10.4855C20.0002 10.3205 19.9682 10.1625 19.9532 10.0005H15.0002C14.2045 10.0005 13.4414 9.68438 12.8788 9.12177C12.3162 8.55916 12.0002 7.7961 12.0002 7.00045V2.04745C11.8382 2.03245 11.6802 2.00045 11.5152 2.00045H7.00015C6.2045 2.00045 5.44144 2.31652 4.87883 2.87913C4.31622 3.44174 4.00015 4.2048 4.00015 5.00045V19.0005C4.00015 19.7961 4.31622 20.5592 4.87883 21.1218C5.44144 21.6844 6.2045 22.0005 7.00015 22.0005H17.0002C17.7958 22.0005 18.5589 21.6844 19.1215 21.1218C19.6841 20.5592 20.0002 19.7961 20.0002 19.0005V10.4855Z" fill="#374957"/>
</g>
<defs>
<clipPath id="clip0_51_71620">
<rect width="24" height="24" fill="white"/>
</clipPath>
</defs>
</svg>
