<svg width="24" height="24" viewBox="0 0 24 24" fill="none" xmlns="http://www.w3.org/2000/svg">
<g clip-path="url(#clip0_51_82172)">
<path d="M4 7.93804V3.17304C4 1.97304 4.634 0.00604248 7.673 0.00604248C8.06903 0.0101399 8.4643 0.0415478 8.856 0.100042C9.47301 0.279533 10.0153 0.653979 10.4018 1.16736C10.7883 1.68074 10.9981 2.30545 11 2.94804V10.873C11.6559 11.0424 12.3441 11.0424 13 10.873V2.94804C13.0019 2.30545 13.2117 1.68074 13.5982 1.16736C13.9847 0.653979 14.527 0.279533 15.144 0.100042C15.5358 0.0428867 15.9311 0.0128153 16.327 0.0100425C19.366 0.00604248 20 1.97304 20 3.17304V7.93804C19.9976 8.80638 19.7136 9.65051 19.1907 10.3438C18.6678 11.037 17.9342 11.5421 17.1 11.783L13.649 12.77C12.5705 13.0775 11.4275 13.0775 10.349 12.77L6.9 11.783C6.06577 11.5421 5.33218 11.037 4.8093 10.3438C4.28642 9.65051 4.00245 8.80638 4 7.93804V7.93804ZM22 4.02604V7.93804C21.9961 9.24098 21.5697 10.5075 20.7848 11.5475C19.9999 12.5875 18.8989 13.3449 17.647 13.706L14.198 14.692C12.762 15.1022 11.24 15.1022 9.804 14.692L6.352 13.705C5.10053 13.3437 3.99994 12.5863 3.21529 11.5465C2.43065 10.5068 2.00423 9.24064 2 7.93804V4.02604C1.38121 4.4879 0.878367 5.0874 0.531247 5.77713C0.184127 6.46686 0.00224946 7.22789 0 8.00004L0 15C0.00158786 16.3256 0.528882 17.5965 1.46622 18.5338C2.40356 19.4712 3.6744 19.9985 5 20H11V22H8C7.73478 22 7.48043 22.1054 7.29289 22.2929C7.10536 22.4805 7 22.7348 7 23C7 23.2653 7.10536 23.5196 7.29289 23.7071C7.48043 23.8947 7.73478 24 8 24H16C16.2652 24 16.5196 23.8947 16.7071 23.7071C16.8946 23.5196 17 23.2653 17 23C17 22.7348 16.8946 22.4805 16.7071 22.2929C16.5196 22.1054 16.2652 22 16 22H13V20H19C20.3256 19.9985 21.5964 19.4712 22.5338 18.5338C23.4711 17.5965 23.9984 16.3256 24 15V8.00004C23.9978 7.22789 23.8159 6.46686 23.4688 5.77713C23.1216 5.0874 22.6188 4.4879 22 4.02604V4.02604Z" fill="#374957"/>
</g>
<defs>
<clipPath id="clip0_51_82172">
<rect width="24" height="24" fill="white"/>
</clipPath>
</defs>
</svg>
