<svg width="24" height="24" viewBox="0 0 24 24" fill="none" xmlns="http://www.w3.org/2000/svg">
<g clip-path="url(#clip0_51_80454)">
<path d="M21.414 5H17V0.586L21.414 5ZM22 7V24H2V3C2 2.20435 2.31607 1.44129 2.87868 0.87868C3.44129 0.31607 4.20435 0 5 0L15 0V7H22ZM15 10H13C12.4696 10 11.9609 10.2107 11.5858 10.5858C11.2107 10.9609 11 11.4696 11 12V15.05C10.8354 15.0171 10.6679 15.0003 10.5 15C10.0055 15 9.5222 15.1466 9.11107 15.4213C8.69995 15.696 8.37952 16.0865 8.1903 16.5433C8.00108 17.0001 7.95157 17.5028 8.04804 17.9877C8.1445 18.4727 8.3826 18.9181 8.73223 19.2678C9.08186 19.6174 9.52732 19.8555 10.0123 19.952C10.4972 20.0484 10.9999 19.9989 11.4567 19.8097C11.9135 19.6205 12.304 19.3 12.5787 18.8889C12.8534 18.4778 13 17.9945 13 17.5V12H15V10Z" fill="#374957"/>
</g>
<defs>
<clipPath id="clip0_51_80454">
<rect width="24" height="24" fill="white"/>
</clipPath>
</defs>
</svg>
