<svg width="24" height="24" viewBox="0 0 24 24" fill="none" xmlns="http://www.w3.org/2000/svg">
<g clip-path="url(#clip0_51_82904)">
<path d="M23.9238 18.1339L21.4598 4.13388C21.2576 2.97513 20.6528 1.92498 19.7519 1.16866C18.8511 0.412327 17.7121 -0.00159756 16.5358 -0.000116295H7.45083C6.27366 -0.0019061 5.13372 0.41237 4.23236 1.16954C3.331 1.92671 2.72622 2.97806 2.52484 4.13788L0.0758415 18.1379C-0.0499222 18.8565 -0.0169291 19.5938 0.172506 20.2983C0.361941 21.0028 0.703229 21.6572 1.17243 22.2158C1.64162 22.7744 2.22736 23.2235 2.88855 23.5317C3.54973 23.8399 4.27035 23.9997 4.99984 23.9999H18.9998C19.7298 24 20.4509 23.8402 21.1126 23.5318C21.7742 23.2235 22.3603 22.774 22.8297 22.2149C23.2991 21.6559 23.6403 21.0008 23.8295 20.2958C24.0187 19.5907 24.0512 18.8528 23.9248 18.1339H23.9238ZM12.9998 19.9999C12.9998 20.2651 12.8945 20.5195 12.7069 20.707C12.5194 20.8945 12.265 20.9999 11.9998 20.9999C11.7346 20.9999 11.4803 20.8945 11.2927 20.707C11.1052 20.5195 10.9998 20.2651 10.9998 19.9999V17.9999C10.9998 17.7347 11.1052 17.4803 11.2927 17.2928C11.4803 17.1052 11.7346 16.9999 11.9998 16.9999C12.265 16.9999 12.5194 17.1052 12.7069 17.2928C12.8945 17.4803 12.9998 17.7347 12.9998 17.9999V19.9999ZM12.9998 12.9999C12.9998 13.2651 12.8945 13.5195 12.7069 13.707C12.5194 13.8945 12.265 13.9999 11.9998 13.9999C11.7346 13.9999 11.4803 13.8945 11.2927 13.707C11.1052 13.5195 10.9998 13.2651 10.9998 12.9999V10.9999C10.9998 10.7347 11.1052 10.4803 11.2927 10.2928C11.4803 10.1052 11.7346 9.99988 11.9998 9.99988C12.265 9.99988 12.5194 10.1052 12.7069 10.2928C12.8945 10.4803 12.9998 10.7347 12.9998 10.9999V12.9999ZM12.9998 5.99988C12.9998 6.2651 12.8945 6.51945 12.7069 6.70699C12.5194 6.89453 12.265 6.99988 11.9998 6.99988C11.7346 6.99988 11.4803 6.89453 11.2927 6.70699C11.1052 6.51945 10.9998 6.2651 10.9998 5.99988V3.99988C10.9998 3.73467 11.1052 3.48031 11.2927 3.29278C11.4803 3.10524 11.7346 2.99988 11.9998 2.99988C12.265 2.99988 12.5194 3.10524 12.7069 3.29278C12.8945 3.48031 12.9998 3.73467 12.9998 3.99988V5.99988Z" fill="#374957"/>
</g>
<defs>
<clipPath id="clip0_51_82904">
<rect width="24" height="24" fill="white"/>
</clipPath>
</defs>
</svg>
