<svg width="24" height="24" viewBox="0 0 24 24" fill="none" xmlns="http://www.w3.org/2000/svg">
<g clip-path="url(#clip0_51_70455)">
<path d="M11.9481 24.0095L11.5941 23.8525C11.2001 23.6795 2.00012 19.5245 2.00012 12.0005V5.47652C2.00047 4.84869 2.19891 4.23698 2.56716 3.72849C2.93542 3.22001 3.45472 2.84068 4.05112 2.64452L12.0001 0.00952148L19.9491 2.64452C20.5455 2.84068 21.0648 3.22001 21.4331 3.72849C21.8013 4.23698 21.9998 4.84869 22.0001 5.47652V12.0005C22.0001 20.5775 12.7121 23.7555 12.3161 23.8875L11.9481 24.0095ZM12.0001 2.10652L4.68412 4.53252C4.48507 4.59754 4.31169 4.72388 4.18883 4.89345C4.06596 5.06302 3.99991 5.26712 4.00012 5.47652V12.0005C4.00012 17.4945 10.4401 21.0585 12.0471 21.8615C13.6511 21.2165 20.0001 18.2635 20.0001 12.0005V5.47652C20.0003 5.26712 19.9343 5.06302 19.8114 4.89345C19.6886 4.72388 19.5152 4.59754 19.3161 4.53252L12.0001 2.10652Z" fill="#374957"/>
<path d="M11.1112 14.542H11.0782C10.8251 14.5381 10.5754 14.4829 10.3443 14.3798C10.1131 14.2767 9.90522 14.1277 9.73324 13.942L7.42725 11.542L8.86824 10.16L11.1122 12.5L16.2932 7.31897L17.7072 8.73297L12.4462 13.994C12.271 14.1691 12.0628 14.3077 11.8336 14.4017C11.6045 14.4958 11.3589 14.5435 11.1112 14.542Z" fill="#374957"/>
</g>
<defs>
<clipPath id="clip0_51_70455">
<rect width="24" height="24" fill="white"/>
</clipPath>
</defs>
</svg>
