<svg width="24" height="24" viewBox="0 0 24 24" fill="none" xmlns="http://www.w3.org/2000/svg">
<g clip-path="url(#clip0_51_72448)">
<path d="M21.77 8.94838C21.6068 8.89004 21.4577 8.79809 21.3323 8.67848C21.2069 8.55887 21.108 8.41426 21.042 8.25401C20.9761 8.09377 20.9445 7.92146 20.9493 7.74823C20.9541 7.575 20.9952 7.40471 21.07 7.24838C21.357 6.64444 21.45 5.96647 21.3364 5.30754C21.2227 4.64861 20.9079 4.04101 20.4351 3.56814C19.9623 3.09527 19.3548 2.7803 18.6959 2.66647C18.037 2.55264 17.359 2.64553 16.755 2.93238C16.5987 3.00701 16.4284 3.04801 16.2552 3.05275C16.082 3.05749 15.9098 3.02586 15.7496 2.95989C15.5894 2.89393 15.4448 2.7951 15.3251 2.66979C15.2055 2.54447 15.1135 2.39546 15.055 2.23238C14.8302 1.60346 14.4165 1.05941 13.8705 0.674751C13.3245 0.290088 12.6729 0.0836182 12.005 0.0836182C11.3371 0.0836182 10.6856 0.290088 10.1396 0.674751C9.59356 1.05941 9.17982 1.60346 8.95501 2.23238C8.89667 2.39556 8.80472 2.54468 8.68511 2.67008C8.5655 2.79547 8.42089 2.89437 8.26065 2.96035C8.1004 3.02633 7.92809 3.05794 7.75486 3.05312C7.58163 3.0483 7.41134 3.00717 7.25501 2.93238C6.65069 2.64325 5.97158 2.54862 5.31123 2.66153C4.65089 2.77444 4.0418 3.08933 3.56787 3.56282C3.09394 4.03631 2.77849 4.64511 2.66497 5.30535C2.55145 5.96559 2.64545 6.64479 2.93401 7.24938C3.00896 7.40568 3.05022 7.576 3.05512 7.74927C3.06001 7.92255 3.02844 8.09491 2.96244 8.2552C2.89644 8.41549 2.79749 8.56012 2.672 8.6797C2.54651 8.79929 2.39729 8.89117 2.23401 8.94938C1.60554 9.17464 1.062 9.58855 0.67773 10.1345C0.293458 10.6804 0.0872192 11.3318 0.0872192 11.9994C0.0872192 12.667 0.293458 13.3183 0.67773 13.8643C1.062 14.4102 1.60554 14.8241 2.23401 15.0494C2.39763 15.1072 2.54727 15.1988 2.67321 15.3182C2.79916 15.4376 2.89859 15.5821 2.96507 15.7424C3.03155 15.9027 3.06358 16.0752 3.05909 16.2487C3.0546 16.4221 3.01369 16.5927 2.93901 16.7494C2.65185 17.3529 2.55851 18.0306 2.67179 18.6893C2.78508 19.348 3.09944 19.9556 3.57174 20.4285C4.04404 20.9015 4.65113 21.2167 5.3097 21.3309C5.96827 21.4451 6.64605 21.3527 7.25001 21.0664C7.40634 20.9916 7.57663 20.9505 7.74986 20.9456C7.92309 20.9408 8.0954 20.9724 8.25565 21.0384C8.41589 21.1044 8.5605 21.2033 8.68011 21.3287C8.79972 21.4541 8.89167 21.6032 8.95001 21.7664C9.17482 22.3953 9.58856 22.9393 10.1346 23.324C10.6806 23.7087 11.3321 23.9151 12 23.9151C12.6679 23.9151 13.3195 23.7087 13.8655 23.324C14.4115 22.9393 14.8252 22.3953 15.05 21.7664C15.1084 21.6032 15.2003 21.4541 15.3199 21.3287C15.4395 21.2033 15.5841 21.1044 15.7444 21.0384C15.9046 20.9724 16.0769 20.9408 16.2502 20.9456C16.4234 20.9505 16.5937 20.9916 16.75 21.0664C17.354 21.3534 18.0319 21.4464 18.6909 21.3327C19.3498 21.2191 19.9574 20.9042 20.4303 20.4315C20.9031 19.9587 21.2181 19.3512 21.3319 18.6923C21.4458 18.0334 21.3529 17.3554 21.066 16.7514C20.9914 16.595 20.9504 16.4248 20.9456 16.2516C20.9409 16.0784 20.9725 15.9061 21.0385 15.7459C21.1045 15.5857 21.2033 15.4411 21.3286 15.3215C21.4539 15.2019 21.6029 15.1099 21.766 15.0514C22.3949 14.8266 22.939 14.4128 23.3236 13.8668C23.7083 13.3208 23.9148 12.6693 23.9148 12.0014C23.9148 11.3335 23.7083 10.6819 23.3236 10.1359C22.939 9.58993 22.3949 9.17619 21.766 8.95138L21.77 8.94838ZM21.1 13.1674C20.6731 13.3192 20.2827 13.559 19.9543 13.8711C19.6258 14.1833 19.3664 14.5609 19.193 14.9795C19.0196 15.3982 18.936 15.8486 18.9475 16.3016C18.959 16.7546 19.0655 17.2001 19.26 17.6094C19.3701 17.8405 19.4058 18.1001 19.3624 18.3525C19.3189 18.6048 19.1983 18.8374 19.0172 19.0184C18.8361 19.1994 18.6034 19.3199 18.351 19.3632C18.0987 19.4065 17.8391 19.3706 17.608 19.2604C17.1988 19.0659 16.7533 18.9594 16.3004 18.9479C15.8475 18.9364 15.3972 19.02 14.9786 19.1934C14.56 19.3669 14.1825 19.6262 13.8705 19.9547C13.5584 20.2832 13.3188 20.6735 13.167 21.1004C13.0816 21.3416 12.9235 21.5505 12.7145 21.6982C12.5055 21.8459 12.2559 21.9252 12 21.9252C11.7441 21.9252 11.4945 21.8459 11.2855 21.6982C11.0765 21.5505 10.9184 21.3416 10.833 21.1004C10.681 20.6735 10.4412 20.2833 10.129 19.9549C9.81685 19.6265 9.43927 19.3672 9.02066 19.1938C8.60206 19.0204 8.15174 18.9368 7.69878 18.9482C7.24583 18.9597 6.80031 19.066 6.39101 19.2604C6.15988 19.3701 5.90045 19.4056 5.64834 19.362C5.39623 19.3183 5.16381 19.1977 4.983 19.0167C4.80219 18.8357 4.68186 18.6031 4.63853 18.3509C4.5952 18.0988 4.631 17.8394 4.74101 17.6084C4.93549 17.1991 5.0419 16.7536 5.05336 16.3006C5.06483 15.8476 4.98109 15.3973 4.80757 14.9787C4.63405 14.5601 4.3746 14.1826 4.04601 13.8706C3.71743 13.5586 3.32701 13.319 2.90001 13.1674C2.65923 13.0815 2.45091 12.9233 2.3036 12.7143C2.1563 12.5054 2.07722 12.256 2.07722 12.0004C2.07722 11.7447 2.1563 11.4954 2.3036 11.2864C2.45091 11.0775 2.65923 10.9193 2.90001 10.8334C3.32715 10.6818 3.71769 10.4422 4.04635 10.1301C4.37501 9.81797 4.63446 9.44033 4.80791 9.0216C4.98136 8.60286 5.06495 8.15237 5.05325 7.69928C5.04155 7.24619 4.93484 6.80061 4.74001 6.39138C4.63014 6.16031 4.5945 5.9009 4.63798 5.64877C4.68146 5.39663 4.80193 5.16414 4.98285 4.98322C5.16377 4.8023 5.39626 4.68183 5.6484 4.63835C5.90053 4.59487 6.15995 4.63051 6.39101 4.74038C6.80029 4.93488 7.24583 5.04135 7.69882 5.05289C8.15182 5.06443 8.6022 4.98078 9.02085 4.80737C9.4395 4.63395 9.8171 4.37462 10.1293 4.04613C10.4414 3.71765 10.6812 3.32732 10.833 2.90038C10.9184 2.65915 11.0765 2.45031 11.2855 2.30261C11.4945 2.15491 11.7441 2.0756 12 2.0756C12.2559 2.0756 12.5055 2.15491 12.7145 2.30261C12.9235 2.45031 13.0816 2.65915 13.167 2.90038C13.3189 3.32732 13.5586 3.71765 13.8708 4.04613C14.1829 4.37462 14.5605 4.63395 14.9792 4.80737C15.3978 4.98078 15.8482 5.06443 16.3012 5.05289C16.7542 5.04135 17.1997 4.93488 17.609 4.74038C17.8402 4.6303 18.0998 4.59455 18.3521 4.63803C18.6044 4.68151 18.8371 4.80209 19.0181 4.98319C19.199 5.16429 19.3195 5.39702 19.3628 5.64936C19.4061 5.90171 19.3702 6.16128 19.26 6.39238C19.0655 6.80159 18.9591 7.24705 18.9475 7.69998C18.936 8.15291 19.0197 8.60322 19.1931 9.02179C19.3665 9.44036 19.6258 9.81788 19.9543 10.1299C20.2828 10.442 20.6731 10.6816 21.1 10.8334C21.3412 10.9188 21.5501 11.0769 21.6978 11.2859C21.8455 11.4948 21.9248 11.7445 21.9248 12.0004C21.9248 12.2563 21.8455 12.5059 21.6978 12.7149C21.5501 12.9239 21.3412 13.082 21.1 13.1674V13.1674Z" fill="#374957"/>
</g>
<defs>
<clipPath id="clip0_51_72448">
<rect width="24" height="24" fill="white"/>
</clipPath>
</defs>
</svg>
