<svg width="24" height="24" viewBox="0 0 24 24" fill="none" xmlns="http://www.w3.org/2000/svg">
<g clip-path="url(#clip0_51_69731)">
<path d="M11.9999 16.0001C10.939 16.0001 9.92158 15.5786 9.17144 14.8285C8.42129 14.0784 7.99986 13.0609 7.99986 12.0001C7.99986 10.9392 8.42129 9.92179 9.17144 9.17165C9.92158 8.4215 10.939 8.00007 11.9999 8.00007C13.0607 8.00007 14.0781 8.4215 14.8283 9.17165C15.5784 9.92179 15.9999 10.9392 15.9999 12.0001C15.9999 13.0609 15.5784 14.0784 14.8283 14.8285C14.0781 15.5786 13.0607 16.0001 11.9999 16.0001ZM11.9999 10.0001C11.4694 10.0001 10.9607 10.2108 10.5857 10.5859C10.2106 10.9609 9.99986 11.4696 9.99986 12.0001C9.99986 12.5305 10.2106 13.0392 10.5857 13.4143C10.9607 13.7894 11.4694 14.0001 11.9999 14.0001C12.5303 14.0001 13.039 13.7894 13.4141 13.4143C13.7891 13.0392 13.9999 12.5305 13.9999 12.0001C13.9999 11.4696 13.7891 10.9609 13.4141 10.5859C13.039 10.2108 12.5303 10.0001 11.9999 10.0001ZM11.9999 24.0001C10.9006 23.9986 9.83242 23.6355 8.95993 22.9668C8.08744 22.2982 7.45913 21.3611 7.17186 20.3001C6.11974 20.5451 5.01657 20.4427 4.02747 20.0084C3.03837 19.574 2.21654 18.831 1.68501 17.8905C1.15348 16.9501 0.940823 15.8628 1.07888 14.7914C1.21694 13.72 1.69828 12.7221 2.45086 11.9471C1.69629 11.1704 1.21426 10.1697 1.07728 9.09548C0.940298 8.02129 1.15576 6.93166 1.69126 5.99044C2.22677 5.04922 3.05337 4.30729 4.04676 3.87622C5.04016 3.44515 6.14666 3.34825 7.19986 3.60007C7.51109 2.56923 8.14592 1.66597 9.01039 1.02395C9.87487 0.381936 10.9231 0.0352783 11.9999 0.0352783C13.0767 0.0352783 14.1249 0.381936 14.9893 1.02395C15.8538 1.66597 16.4886 2.56923 16.7999 3.60007C17.8535 3.34757 18.9606 3.44413 19.9545 3.8752C20.9485 4.30627 21.7756 5.04854 22.3113 5.99028C22.8469 6.93202 23.0622 8.02227 22.9247 9.09694C22.7872 10.1716 22.3044 11.1725 21.5489 11.9491C22.3005 12.7242 22.781 13.7219 22.9186 14.7928C23.0562 15.8638 22.8433 16.9505 22.312 17.8904C21.7806 18.8304 20.9592 19.573 19.9707 20.0074C18.9822 20.4417 17.8796 20.5444 16.8279 20.3001C16.5406 21.3611 15.9123 22.2982 15.0398 22.9668C14.1673 23.6355 13.0991 23.9986 11.9999 24.0001V24.0001ZM9.05686 17.1151L8.99486 19.0851C9.00614 19.8814 9.33328 20.6406 9.90433 21.1957C10.4754 21.7508 11.2436 22.0563 12.0399 22.0451C12.8362 22.0338 13.5954 21.7067 14.1505 21.1356C14.7056 20.5646 15.0111 19.7964 14.9999 19.0001C14.9999 19.0431 14.9429 17.1151 14.9429 17.1151L16.4949 18.0251C17.1844 18.4131 17.9999 18.5113 18.7618 18.298C19.5238 18.0848 20.1699 17.5776 20.5579 16.8881C20.9459 16.1985 21.0441 15.3831 20.8308 14.6211C20.6176 13.8591 20.1104 13.2131 19.4209 12.8251L17.8069 11.9471L19.4209 11.0681C19.7707 10.881 20.0796 10.626 20.3296 10.318C20.5796 10.0101 20.7657 9.6553 20.8769 9.27452C20.9881 8.89375 21.0222 8.49461 20.9773 8.10049C20.9323 7.70637 20.8092 7.32517 20.615 6.97924C20.4209 6.6333 20.1597 6.32957 19.8467 6.08584C19.5338 5.8421 19.1753 5.66326 18.7924 5.55978C18.4094 5.4563 18.0097 5.43027 17.6166 5.48321C17.2234 5.53615 16.8448 5.66699 16.5029 5.86807L14.9999 6.74307V5.00007C14.9999 4.20442 14.6838 3.44136 14.1212 2.87875C13.5586 2.31614 12.7955 2.00007 11.9999 2.00007C11.2042 2.00007 10.4412 2.31614 9.87854 2.87875C9.31593 3.44136 8.99986 4.20442 8.99986 5.00007V6.73907L7.49986 5.86807C7.15793 5.66699 6.77931 5.53615 6.38617 5.48321C5.99304 5.43027 5.5933 5.4563 5.21035 5.55978C4.8274 5.66326 4.46895 5.8421 4.15598 6.08584C3.84301 6.32957 3.58182 6.6333 3.38769 6.97924C3.19357 7.32517 3.07042 7.70637 3.02545 8.10049C2.98048 8.49461 3.0146 8.89375 3.12581 9.27452C3.23701 9.6553 3.42308 10.0101 3.6731 10.318C3.92312 10.626 4.23207 10.881 4.58186 11.0681L6.19586 11.9471L4.58186 12.8251C3.8923 13.2131 3.38512 13.8591 3.17189 14.6211C3.06631 14.9984 3.03607 15.3928 3.08291 15.7817C3.12975 16.1707 3.25274 16.5466 3.44486 16.8881C3.63699 17.2295 3.89448 17.5298 4.20264 17.7717C4.5108 18.0136 4.8636 18.1925 5.24088 18.298C6.00284 18.5113 6.8183 18.4131 7.50786 18.0251L9.05686 17.1151Z" fill="#374957"/>
</g>
<defs>
<clipPath id="clip0_51_69731">
<rect width="24" height="24" fill="white"/>
</clipPath>
</defs>
</svg>
