<svg width="24" height="24" viewBox="0 0 24 24" fill="none" xmlns="http://www.w3.org/2000/svg">
<g clip-path="url(#clip0_51_69671)">
<path d="M14.4141 0H5.00012C4.20447 0 3.44141 0.31607 2.8788 0.87868C2.31619 1.44129 2.00012 2.20435 2.00012 3V24H22.0001V7.586L14.4141 0ZM15.0001 3.414L18.5861 7H15.0001V3.414ZM4.00012 22V3C4.00012 2.73478 4.10548 2.48043 4.29302 2.29289C4.48055 2.10536 4.73491 2 5.00012 2H13.0001V9H20.0001V22H4.00012ZM15.9571 12.457L13.4141 15L15.9571 17.543L14.5431 18.957L12.0001 16.414L9.45712 18.957L8.04312 17.543L10.5861 15L8.04312 12.457L9.45712 11.043L12.0001 13.586L14.5431 11.043L15.9571 12.457Z" fill="#374957"/>
</g>
<defs>
<clipPath id="clip0_51_69671">
<rect width="24" height="24" fill="white"/>
</clipPath>
</defs>
</svg>
