<svg width="24" height="24" viewBox="0 0 24 24" fill="none" xmlns="http://www.w3.org/2000/svg">
<g clip-path="url(#clip0_51_71330)">
<path d="M18.7462 20.3341C18.8337 20.4321 18.9011 20.5465 18.9444 20.6706C18.9877 20.7947 19.0061 20.9261 18.9986 21.0574C18.9911 21.1886 18.9578 21.3171 18.9006 21.4354C18.8433 21.5538 18.7633 21.6597 18.6652 21.7471L17.0792 23.1611C16.8074 23.4301 16.4852 23.6427 16.1309 23.7867C15.7767 23.9307 15.3975 24.0032 15.0152 24.0001C14.6186 24.0009 14.2258 23.9233 13.8592 23.772C13.4927 23.6206 13.1596 23.3984 12.8792 23.1181L11.3352 21.7441C11.2371 21.6567 11.1571 21.5509 11.0999 21.4327C11.0427 21.3145 11.0093 21.1862 11.0017 21.0551C10.9863 20.7902 11.0768 20.5302 11.2532 20.3321C11.4295 20.134 11.6774 20.014 11.9422 19.9986C12.0733 19.991 12.2046 20.0093 12.3287 20.0524C12.4527 20.0956 12.5671 20.1627 12.6652 20.2501L14.0002 21.4441V14.0001C14.0002 13.7348 14.1055 13.4805 14.293 13.293C14.4806 13.1054 14.7349 13.0001 15.0002 13.0001C15.2654 13.0001 15.5197 13.1054 15.7073 13.293C15.8948 13.4805 16.0002 13.7348 16.0002 14.0001V21.4451L17.3352 20.2531C17.5331 20.0769 17.7929 19.9864 18.0574 20.0016C18.322 20.0168 18.5697 20.1364 18.7462 20.3341V20.3341ZM18.3562 7.36107C18.1844 7.30775 18.0286 7.21271 17.9026 7.08444C17.7766 6.95618 17.6844 6.79869 17.6342 6.62606C17.1047 4.92615 16.0232 3.45145 14.5611 2.43548C13.099 1.4195 11.3397 0.920312 9.56185 1.01696C7.78401 1.1136 6.08922 1.80056 4.74583 2.96905C3.40244 4.13754 2.48725 5.72077 2.14515 7.46807C1.79414 9.23508 2.07741 11.0693 2.94515 12.6481C1.9336 13.1703 1.11106 13.9963 0.593069 15.0101C0.0750784 16.0238 -0.112336 17.1743 0.0571521 18.3001C0.317803 19.6079 1.01797 20.7872 2.04137 21.6421C3.06477 22.4971 4.34983 22.9763 5.68315 23.0001H8.00015C8.26537 23.0001 8.51972 22.8947 8.70726 22.7072C8.89479 22.5196 9.00015 22.2653 9.00015 22.0001C9.00015 21.7349 8.89479 21.4805 8.70726 21.293C8.51972 21.1054 8.26537 21.0001 8.00015 21.0001H5.68315C4.82911 20.9837 4.00535 20.6808 3.34414 20.14C2.68293 19.5992 2.22263 18.8519 2.03715 18.0181C1.92856 17.3016 2.04705 16.5692 2.37598 15.9235C2.7049 15.2779 3.22776 14.7514 3.87115 14.4181C4.32974 14.1646 4.67008 13.7408 4.81849 13.2383C4.96691 12.7357 4.91146 12.195 4.66415 11.7331C4.27586 10.9925 4.04665 10.179 3.99121 9.34465C3.93577 8.51032 4.05534 7.67361 4.34224 6.8882C4.62913 6.10279 5.07703 5.38601 5.6572 4.78386C6.23736 4.1817 6.93698 3.70746 7.71118 3.39155C8.48538 3.07564 9.31706 2.92504 10.1529 2.94941C10.9887 2.97378 11.8102 3.17258 12.5647 3.53306C13.3191 3.89354 13.9899 4.40774 14.534 5.04268C15.0781 5.67762 15.4835 6.41927 15.7242 7.22006C15.8721 7.70277 16.1358 8.14203 16.4922 8.49965C16.8486 8.85726 17.287 9.12242 17.7692 9.27207C19.0754 9.66956 20.206 10.5028 20.9725 11.6328C21.7389 12.7628 22.0949 14.1214 21.9812 15.4821C21.9058 16.5401 21.5193 17.5522 20.8702 18.3911C20.7085 18.6014 20.637 18.8673 20.6714 19.1303C20.7058 19.3933 20.8433 19.6319 21.0537 19.7936C21.264 19.9552 21.5299 20.0267 21.7929 19.9923C22.0559 19.9579 22.2945 19.8204 22.4562 19.6101C23.3372 18.4614 23.8653 17.0814 23.9762 15.6381C24.1272 13.8238 23.6517 12.0125 22.629 10.5063C21.6063 9.0001 20.0982 7.88999 18.3562 7.36107V7.36107Z" fill="#374957"/>
</g>
<defs>
<clipPath id="clip0_51_71330">
<rect width="24" height="24" fill="white"/>
</clipPath>
</defs>
</svg>
