<svg width="24" height="24" viewBox="0 0 24 24" fill="none" xmlns="http://www.w3.org/2000/svg">
<g clip-path="url(#clip0_51_70424)">
<path d="M19 14.0004C18.177 14.0058 17.3684 14.2172 16.648 14.6154L13.3 10.6004L20.767 1.64035L19.231 0.360352L12 9.03835L4.768 0.360352L3.232 1.64035L10.7 10.6004L7.352 14.6154C6.63146 14.2177 5.82299 14.0063 5 14.0004C4.0111 14.0004 3.0444 14.2936 2.22215 14.843C1.39991 15.3924 0.759043 16.1733 0.380605 17.0869C0.00216642 18.0006 -0.0968503 19.0059 0.0960759 19.9758C0.289002 20.9457 0.765206 21.8366 1.46447 22.5359C2.16373 23.2351 3.05465 23.7114 4.02455 23.9043C4.99446 24.0972 5.99979 23.9982 6.91342 23.6197C7.82705 23.2413 8.60794 22.6004 9.15735 21.7782C9.70676 20.956 10 19.9893 10 19.0004C9.99427 17.8703 9.60185 16.7764 8.888 15.9004L12 12.1624L15.111 15.9004C14.3981 16.7768 14.0061 17.8706 14 19.0004C14 19.9893 14.2932 20.956 14.8427 21.7782C15.3921 22.6004 16.173 23.2413 17.0866 23.6197C18.0002 23.9982 19.0055 24.0972 19.9755 23.9043C20.9454 23.7114 21.8363 23.2351 22.5355 22.5359C23.2348 21.8366 23.711 20.9457 23.9039 19.9758C24.0969 19.0059 23.9978 18.0006 23.6194 17.0869C23.241 16.1733 22.6001 15.3924 21.7779 14.843C20.9556 14.2936 19.9889 14.0004 19 14.0004V14.0004ZM5 22.0004C4.40666 22.0004 3.82664 21.8244 3.33329 21.4948C2.83994 21.1651 2.45543 20.6966 2.22836 20.1484C2.0013 19.6002 1.94189 18.997 2.05765 18.4151C2.1734 17.8331 2.45912 17.2986 2.87868 16.879C3.29824 16.4595 3.83279 16.1738 4.41473 16.058C4.99667 15.9422 5.59987 16.0017 6.14805 16.2287C6.69623 16.4558 7.16477 16.8403 7.49441 17.3336C7.82406 17.827 8 18.407 8 19.0004C8 19.796 7.68393 20.5591 7.12132 21.1217C6.55871 21.6843 5.79565 22.0004 5 22.0004ZM19 22.0004C18.4067 22.0004 17.8266 21.8244 17.3333 21.4948C16.8399 21.1651 16.4554 20.6966 16.2284 20.1484C16.0013 19.6002 15.9419 18.997 16.0576 18.4151C16.1734 17.8331 16.4591 17.2986 16.8787 16.879C17.2982 16.4595 17.8328 16.1738 18.4147 16.058C18.9967 15.9422 19.5999 16.0017 20.1481 16.2287C20.6962 16.4558 21.1648 16.8403 21.4944 17.3336C21.8241 17.827 22 18.407 22 19.0004C22 19.796 21.6839 20.5591 21.1213 21.1217C20.5587 21.6843 19.7957 22.0004 19 22.0004Z" fill="#374957"/>
</g>
<defs>
<clipPath id="clip0_51_70424">
<rect width="24" height="24" fill="white"/>
</clipPath>
</defs>
</svg>
