<svg width="24" height="24" viewBox="0 0 24 24" fill="none" xmlns="http://www.w3.org/2000/svg">
<g clip-path="url(#clip0_51_70880)">
<path d="M19.9999 7.9993C20.0011 6.45946 19.5579 4.95198 18.7234 3.65783C17.889 2.36368 16.6988 1.33785 15.2957 0.703475C13.8926 0.0691017 12.3362 -0.146856 10.8134 0.0815239C9.29055 0.309904 7.866 0.972918 6.71072 1.99098C5.55544 3.00904 4.71852 4.33888 4.30042 5.82088C3.88232 7.30288 3.90081 8.87405 4.35367 10.3458C4.80653 11.8175 5.67451 13.1273 6.85343 14.1179C8.03235 15.1085 9.47211 15.7378 10.9999 15.9303V18.9993H7.99988V20.9993H10.9999V23.9993H12.9999V20.9993H15.9999V18.9993H12.9999V15.9303C14.9314 15.6852 16.7074 14.7449 17.9958 13.2851C19.2842 11.8254 19.9966 9.94628 19.9999 7.9993ZM5.99988 7.9993C5.99988 6.81261 6.35177 5.65257 7.01106 4.66588C7.67035 3.67918 8.60742 2.91015 9.70377 2.45602C10.8001 2.0019 12.0065 1.88308 13.1704 2.11459C14.3343 2.3461 15.4034 2.91755 16.2425 3.75666C17.0816 4.59578 17.6531 5.66487 17.8846 6.82876C18.1161 7.99265 17.9973 9.19905 17.5432 10.2954C17.089 11.3918 16.32 12.3288 15.3333 12.9881C14.3466 13.6474 13.1866 13.9993 11.9999 13.9993C10.4091 13.9977 8.88386 13.3651 7.75899 12.2402C6.63411 11.1153 6.00146 9.59011 5.99988 7.9993Z" fill="#374957"/>
</g>
<defs>
<clipPath id="clip0_51_70880">
<rect width="24" height="24" fill="white"/>
</clipPath>
</defs>
</svg>
