<svg width="24" height="24" viewBox="0 0 24 24" fill="none" xmlns="http://www.w3.org/2000/svg">
<g clip-path="url(#clip0_51_70113)">
<path d="M11.9998 20C14.1208 19.9976 16.1542 19.154 17.654 17.6542C19.1538 16.1544 19.9974 14.121 19.9998 12V8C19.9998 5.87827 19.1569 3.84344 17.6566 2.34315C16.1563 0.842855 14.1215 0 11.9998 0C9.87802 0 7.84319 0.842855 6.3429 2.34315C4.84261 3.84344 3.99976 5.87827 3.99976 8V12C4.00214 14.121 4.84576 16.1544 6.34553 17.6542C7.84531 19.154 9.87876 19.9976 11.9998 20V20ZM5.99976 9H9.99976V7H6.08976C6.32479 5.60251 7.04744 4.33352 8.1294 3.41832C9.21137 2.50313 10.5826 2.00096 11.9998 2.00096C13.4169 2.00096 14.7881 2.50313 15.8701 3.41832C16.9521 4.33352 17.6747 5.60251 17.9098 7H13.9998V9H17.9998V11H13.9998V13H17.9098C17.6747 14.3975 16.9521 15.6665 15.8701 16.5817C14.7881 17.4969 13.4169 17.999 11.9998 17.999C10.5826 17.999 9.21137 17.4969 8.1294 16.5817C7.04744 15.6665 6.32479 14.3975 6.08976 13H9.99976V11H5.99976V9Z" fill="#374957"/>
<path d="M22 13.0003C21.9974 15.3864 21.0483 17.6741 19.361 19.3613C17.6738 21.0486 15.3861 21.9976 13 22.0003H11C8.61395 21.9974 6.32645 21.0482 4.63925 19.361C2.95206 17.6738 2.00291 15.3864 2 13.0003H0C0.00344047 15.9166 1.16347 18.7125 3.22563 20.7747C5.28778 22.8368 8.08367 23.9968 11 24.0003H13C15.9163 23.9968 18.7122 22.8368 20.7744 20.7747C22.8365 18.7125 23.9966 15.9166 24 13.0003H22Z" fill="#374957"/>
</g>
<defs>
<clipPath id="clip0_51_70113">
<rect width="24" height="24" fill="white"/>
</clipPath>
</defs>
</svg>
