<svg width="24" height="24" viewBox="0 0 24 24" fill="none" xmlns="http://www.w3.org/2000/svg">
<g clip-path="url(#clip0_51_80322)">
<path d="M15.7262 9L12.0002 24L8.27418 9H15.7262ZM10.9732 0L8.42818 7H15.5722L13.0272 0H10.9732ZM17.7002 7H23.8412C23.7489 6.71469 23.6141 6.44498 23.4412 6.2L19.9102 1.257C19.6327 0.868319 19.2665 0.551492 18.8419 0.332861C18.4174 0.11423 17.9467 0.000113137 17.4692 0L15.1552 0L17.7002 7ZM17.7852 9L15.0202 20.3L23.3592 9.8C23.5467 9.55774 23.6954 9.28787 23.8002 9H17.7852ZM6.21518 9H0.20018C0.306627 9.2879 0.456715 9.55772 0.64518 9.8L8.98018 20.3L6.21518 9ZM6.30018 7L8.84518 0H6.53118C6.05363 0.000113137 5.583 0.11423 5.15844 0.332861C4.73387 0.551492 4.36764 0.868319 4.09018 1.257L0.55918 6.2C0.385907 6.44475 0.251019 6.71453 0.15918 7H6.30018Z" fill="#374957"/>
</g>
<defs>
<clipPath id="clip0_51_80322">
<rect width="24" height="24" fill="white"/>
</clipPath>
</defs>
</svg>
