<svg width="24" height="24" viewBox="0 0 24 24" fill="none" xmlns="http://www.w3.org/2000/svg">
<path d="M8.99997 16.0003H15V18.0003H8.99997V16.0003ZM13.793 6.79333L12 8.58634L10.207 6.79333L8.79297 8.20733L10.586 10.0003L8.79297 11.7933L10.207 13.2073L12 11.4143L13.793 13.2073L15.207 11.7933L13.414 10.0003L15.207 8.20733L13.793 6.79333ZM17 18.0003H23V16.0003H17V18.0003ZM23.207 8.20733L21.793 6.79333L20 8.58634L18.207 6.79333L16.793 8.20733L18.586 10.0003L16.793 11.7933L18.207 13.2073L20 11.4143L21.793 13.2073L23.207 11.7933L21.414 10.0003L23.207 8.20733ZM0.999969 18.0003H6.99997V16.0003H0.999969V18.0003ZM5.79297 6.79333L3.99997 8.58634L2.20697 6.79333L0.792969 8.20733L2.58597 10.0003L0.792969 11.7933L2.20697 13.2073L3.99997 11.4143L5.79297 13.2073L7.20697 11.7933L5.41397 10.0003L7.20697 8.20733L5.79297 6.79333Z" fill="#374957"/>
</svg>
