<svg width="24" height="24" viewBox="0 0 24 24" fill="none" xmlns="http://www.w3.org/2000/svg">
<g clip-path="url(#clip0_51_80917)">
<path d="M0.0234375 23.9757L0.0994375 22.9257C0.175438 21.8257 0.644438 16.2377 2.40644 14.4747C3.35498 13.5488 4.63031 13.0342 5.9558 13.0425C7.28129 13.0509 8.55005 13.5815 9.48687 14.5192C10.4237 15.4569 10.953 16.7262 10.9601 18.0517C10.9671 19.3772 10.4513 20.6521 9.52444 21.5997C7.76244 23.3617 2.17544 23.8297 1.07244 23.9057L0.0234375 23.9757ZM23.0994 0.867679C22.5158 0.310366 21.7399 -0.000610352 20.9329 -0.000610352C20.126 -0.000610352 19.35 0.310366 18.7664 0.867679L8.25144 11.3867C9.25688 11.7288 10.1708 12.2963 10.9234 13.0457C11.6759 13.7951 12.2471 14.7067 12.5934 15.7107L23.0994 5.19968C23.673 4.62473 23.995 3.84578 23.995 3.03368C23.995 2.22158 23.673 1.44263 23.0994 0.867679V0.867679Z" fill="#374957"/>
</g>
<defs>
<clipPath id="clip0_51_80917">
<rect width="24" height="24" fill="white"/>
</clipPath>
</defs>
</svg>
