<svg width="24" height="24" viewBox="0 0 24 24" fill="none" xmlns="http://www.w3.org/2000/svg">
<g clip-path="url(#clip0_51_69917)">
<path d="M10.0002 5.99967C10.8527 6.00331 11.6815 6.27985 12.3653 6.78876C13.0491 7.29767 13.552 8.0122 13.8002 8.82767L15.9772 9.61867C15.9053 8.46604 15.5023 7.35867 14.8165 6.42946C14.1308 5.50025 13.1914 4.78869 12.1112 4.3802C11.031 3.9717 9.85585 3.88363 8.72682 4.12655C7.5978 4.36947 6.56286 4.93306 5.74625 5.74967C4.92964 6.56628 4.36605 7.60121 4.12313 8.73024C3.88021 9.85927 3.96828 11.0344 4.37678 12.1146C4.78527 13.1948 5.49683 14.1342 6.42604 14.8199C7.35525 15.5057 8.46263 15.9087 9.61525 15.9807L8.82825 13.7997C7.91534 13.5191 7.13344 12.9202 6.62473 12.1119C6.11601 11.3036 5.91427 10.3396 6.05618 9.3951C6.19809 8.45064 6.67423 7.58847 7.39802 6.96536C8.12181 6.34225 9.04519 5.99959 10.0002 5.99967V5.99967Z" fill="#374957"/>
<path d="M10.0001 18.0001C8.41781 18.0001 6.87109 17.5309 5.5555 16.6518C4.2399 15.7728 3.21452 14.5233 2.60902 13.0615C2.00352 11.5997 1.84509 9.99118 2.15378 8.43934C2.46246 6.88749 3.22438 5.46202 4.3432 4.3432C5.46202 3.22438 6.88749 2.46246 8.43934 2.15378C9.99118 1.84509 11.5997 2.00352 13.0615 2.60902C14.5233 3.21452 15.7728 4.2399 16.6518 5.5555C17.5309 6.87109 18.0001 8.41781 18.0001 10.0001C18.0001 10.1171 17.9871 10.2311 17.9821 10.3471L19.9421 11.0601C20.1648 8.99917 19.7425 6.91994 18.7336 5.10914C17.7247 3.29834 16.1789 1.84517 14.3092 0.950036C12.4396 0.0549033 10.3382 -0.23809 8.29503 0.111461C6.25182 0.461013 4.3674 1.43589 2.90164 2.90164C1.43589 4.3674 0.461013 6.25182 0.111461 8.29503C-0.23809 10.3382 0.0549033 12.4396 0.950036 14.3092C1.84517 16.1789 3.29834 17.7247 5.10914 18.7336C6.91994 19.7425 8.99917 20.1648 11.0601 19.9421L10.3471 17.9821C10.2311 17.9871 10.1171 18.0001 10.0001 18.0001Z" fill="#374957"/>
<path d="M24.0002 14.7787L13.5382 10.9787C13.1806 10.8488 12.7934 10.8236 12.422 10.906C12.0506 10.9884 11.7104 11.1751 11.4413 11.444C11.1722 11.713 10.9854 12.0531 10.9029 12.4245C10.8203 12.7959 10.8454 13.1831 10.9752 13.5407L14.7792 23.9997L18.6792 20.0997L21.4722 22.8927L22.8862 21.4787L20.1002 18.6827L24.0002 14.7787ZM15.5862 20.3647L12.8552 12.8547L20.3652 15.5857L15.5862 20.3647Z" fill="#374957"/>
</g>
<defs>
<clipPath id="clip0_51_69917">
<rect width="24" height="24" fill="white"/>
</clipPath>
</defs>
</svg>
