<svg width="24" height="24" viewBox="0 0 24 24" fill="none" xmlns="http://www.w3.org/2000/svg">
<g clip-path="url(#clip0_51_80068)">
<path d="M12 18.9999C14.2091 18.9999 16 17.2091 16 14.9999C16 12.7908 14.2091 10.9999 12 10.9999C9.79086 10.9999 8 12.7908 8 14.9999C8 17.2091 9.79086 18.9999 12 18.9999Z" fill="#374957"/>
<path d="M21 4.99991H3C2.20435 4.99991 1.44129 5.31598 0.87868 5.87859C0.31607 6.4412 0 7.20426 0 7.9999L0 23.9999H24V7.9999C24 7.20426 23.6839 6.4412 23.1213 5.87859C22.5587 5.31598 21.7956 4.99991 21 4.99991ZM12 20.9999C10.8133 20.9999 9.65327 20.648 8.66658 19.9887C7.67988 19.3294 6.91085 18.3923 6.45672 17.296C6.0026 16.1996 5.88378 14.9932 6.11529 13.8294C6.3468 12.6655 6.91824 11.5964 7.75736 10.7573C8.59647 9.91815 9.66557 9.3467 10.8295 9.11519C11.9933 8.88368 13.1997 9.0025 14.2961 9.45663C15.3925 9.91075 16.3295 10.6798 16.9888 11.6665C17.6481 12.6532 18 13.8132 18 14.9999C17.9984 16.5907 17.3658 18.1159 16.2409 19.2408C15.116 20.3656 13.5908 20.9983 12 20.9999V20.9999Z" fill="#374957"/>
<path d="M17.7203 3L15.4063 0H8.59327L6.28027 3H17.7203Z" fill="#374957"/>
</g>
<defs>
<clipPath id="clip0_51_80068">
<rect width="24" height="24" fill="white"/>
</clipPath>
</defs>
</svg>
