<svg width="24" height="24" viewBox="0 0 24 24" fill="none" xmlns="http://www.w3.org/2000/svg">
<g clip-path="url(#clip0_51_80887)">
<path d="M22.916 0.690852C22.5769 0.409183 22.1797 0.205934 21.7529 0.0956408C21.3261 -0.0146522 20.8801 -0.0292635 20.447 0.0528519L8.448 2.29985C7.75969 2.4287 7.13814 2.79428 6.69105 3.33324C6.24395 3.8722 5.99948 4.55059 6 5.25085V16.5559C5.39466 16.1959 4.70426 16.004 4 15.9999C3.20888 15.9999 2.43552 16.2344 1.77772 16.674C1.11992 17.1135 0.607234 17.7382 0.304484 18.4691C0.00173312 19.2 -0.0774802 20.0043 0.0768607 20.7802C0.231202 21.5561 0.612165 22.2689 1.17157 22.8283C1.73098 23.3877 2.44372 23.7687 3.21964 23.923C3.99557 24.0773 4.79983 23.9981 5.53074 23.6954C6.26164 23.3926 6.88636 22.8799 7.32588 22.2221C7.76541 21.5643 8 20.791 8 19.9999V9.41985L22 6.79985V13.5609C21.3952 13.1992 20.7047 13.0055 20 12.9999C19.2089 12.9999 18.4355 13.2344 17.7777 13.674C17.1199 14.1135 16.6072 14.7382 16.3045 15.4691C16.0017 16.2 15.9225 17.0043 16.0769 17.7802C16.2312 18.5561 16.6122 19.2689 17.1716 19.8283C17.731 20.3877 18.4437 20.7687 19.2196 20.923C19.9956 21.0773 20.7998 20.9981 21.5307 20.6954C22.2616 20.3926 22.8864 19.8799 23.3259 19.2221C23.7654 18.5643 24 17.791 24 16.9999V2.99985C24.0001 2.55897 23.903 2.12349 23.7156 1.7244C23.5283 1.32532 23.2553 0.972427 22.916 0.690852V0.690852Z" fill="#374957"/>
</g>
<defs>
<clipPath id="clip0_51_80887">
<rect width="24" height="24" fill="white"/>
</clipPath>
</defs>
</svg>
