<svg width="24" height="24" viewBox="0 0 24 24" fill="none" xmlns="http://www.w3.org/2000/svg">
<g clip-path="url(#clip0_51_80192)">
<path d="M18.9572 23.9926H9.98237C7.77676 23.9717 6.00568 22.1668 6.02654 19.9612C6.04365 18.1537 7.27267 16.583 9.02307 16.1317C8.40981 9.41858 17.8682 7.63157 19.7419 14.0825C22.4615 14.5147 24.3156 17.0698 23.8833 19.7893C23.4984 22.2112 21.4094 23.9936 18.9572 23.9926ZM3.9992 20.0038C3.99582 17.8507 5.15185 15.8626 7.0247 14.8004C7.74067 7.2696 18.1215 5.50855 21.2537 12.4072C22.2694 12.7572 23.1901 13.3382 23.9432 14.1044C23.975 10.3588 21.4004 7.09386 17.7505 6.25152C16.7921 1.95106 12.529 -0.758123 8.22864 0.20033C3.92828 1.15878 1.21904 5.42188 2.17749 9.72224C2.33078 10.41 2.57448 11.0744 2.90228 11.6981C0.243385 13.1606 -0.726553 16.5016 0.735854 19.1605C1.4866 20.5255 2.78148 21.5076 4.29835 21.8626C4.10092 21.2627 3.99995 20.6353 3.9992 20.0038Z" fill="#374957"/>
</g>
<defs>
<clipPath id="clip0_51_80192">
<rect width="24" height="24" fill="white"/>
</clipPath>
</defs>
</svg>
