<svg width="24" height="24" viewBox="0 0 24 24" fill="none" xmlns="http://www.w3.org/2000/svg">
<g clip-path="url(#clip0_51_80638)">
<path d="M22 19.9996C22 20.53 21.7893 21.0387 21.4142 21.4138C21.0391 21.7889 20.5304 21.9996 20 21.9996H16V17.9996H22V15.0996C21.9973 13.7134 21.5157 12.3706 20.6369 11.2986C19.758 10.2266 18.5358 9.4911 17.177 9.21658L15.441 8.86858L13.362 12.4066L11.638 11.3936L13.365 8.45358C13.1318 8.40577 12.907 8.32354 12.698 8.20958L9.674 10.0466L8.635 8.33758L11.685 6.48358L11.637 5.99958H8V3.99958H11.438L11.3 2.57558C11.2408 2.16123 11.0955 1.76386 10.8735 1.40901C10.6515 1.05417 10.3578 0.7497 10.0111 0.515183C9.66438 0.280666 9.27245 0.121291 8.86049 0.0473034C8.44852 -0.0266844 8.02563 -0.0136472 7.619 0.0855768L0 2.24358V17.9996H5V21.9996H0V23.9996H20C21.0609 23.9996 22.0783 23.5781 22.8284 22.828C23.5786 22.0779 24 21.0604 24 19.9996H22ZM14 21.9996H7V17.9996H14V21.9996Z" fill="#374957"/>
</g>
<defs>
<clipPath id="clip0_51_80638">
<rect width="24" height="24" fill="white"/>
</clipPath>
</defs>
</svg>
