<svg width="24" height="24" viewBox="0 0 24 24" fill="none" xmlns="http://www.w3.org/2000/svg">
<g clip-path="url(#clip0_51_69281)">
<path d="M24.0002 11.9841C24.0002 10.9306 23.5847 9.91967 22.8438 9.17075C22.103 8.42183 21.0965 7.9954 20.0432 7.98408C19.1664 6.2379 17.7481 4.82236 16.0002 3.94908C15.9489 2.92411 15.5056 1.95807 14.762 1.25076C14.0184 0.543462 13.0314 0.149017 12.0052 0.149017C10.9789 0.149017 9.9919 0.543462 9.24832 1.25076C8.50473 1.95807 8.06145 2.92411 8.01015 3.94908C6.25789 4.82165 4.83578 6.23885 3.95715 7.98808C2.90857 8.00244 1.90768 8.42852 1.17049 9.17437C0.43331 9.92022 0.018954 10.926 0.0168537 11.9747C0.0147535 13.0234 0.425077 14.0308 1.15927 14.7796C1.89346 15.5284 2.89263 15.9585 3.94115 15.9771C4.81614 17.7413 6.24306 19.1718 8.00515 20.0511C8.05645 21.0761 8.49973 22.0421 9.24332 22.7494C9.9869 23.4567 10.9739 23.8511 12.0002 23.8511C13.0264 23.8511 14.0134 23.4567 14.757 22.7494C15.5006 22.0421 15.9439 21.0761 15.9952 20.0511C17.7572 19.1718 19.1842 17.7413 20.0592 15.9771C21.1086 15.9616 22.1098 15.5343 22.8471 14.7873C23.5843 14.0404 23.9984 13.0336 24.0002 11.9841ZM12.0002 2.00008C12.3957 2.00008 12.7824 2.11738 13.1113 2.33714C13.4402 2.5569 13.6965 2.86926 13.8479 3.23471C13.9993 3.60017 14.0389 4.0023 13.9617 4.39026C13.8846 4.77822 13.6941 5.13459 13.4144 5.41429C13.1347 5.694 12.7783 5.88448 12.3903 5.96165C12.0024 6.03882 11.6002 5.99921 11.2348 5.84784C10.8693 5.69646 10.557 5.44012 10.3372 5.11122C10.1174 4.78232 10.0002 4.39564 10.0002 4.00008C10.0002 3.46965 10.2109 2.96094 10.5859 2.58587C10.961 2.21079 11.4697 2.00008 12.0002 2.00008ZM2.00015 11.9841C2.00015 11.5885 2.11745 11.2018 2.33721 10.8729C2.55697 10.544 2.86933 10.2877 3.23478 10.1363C3.60024 9.98495 4.00237 9.94534 4.39033 10.0225C4.77829 10.0997 5.13466 10.2902 5.41436 10.5699C5.69407 10.8496 5.88455 11.2059 5.96172 11.5939C6.03889 11.9819 5.99929 12.384 5.84791 12.7494C5.69653 13.1149 5.44019 13.4273 5.11129 13.647C4.78239 13.8668 4.39571 13.9841 4.00015 13.9841C3.46972 13.9841 2.96101 13.7734 2.58594 13.3983C2.21086 13.0232 2.00015 12.5145 2.00015 11.9841ZM12.0002 22.0001C11.6046 22.0001 11.2179 21.8828 10.889 21.663C10.5601 21.4433 10.3038 21.1309 10.1524 20.7654C10.001 20.4 9.96141 19.9979 10.0386 19.6099C10.1158 19.2219 10.3062 18.8656 10.5859 18.5859C10.8656 18.3062 11.222 18.1157 11.61 18.0385C11.9979 17.9613 12.4001 18.0009 12.7655 18.1523C13.131 18.3037 13.4433 18.56 13.6631 18.8889C13.8829 19.2178 14.0002 19.6045 14.0002 20.0001C14.0002 20.5305 13.7894 21.0392 13.4144 21.4143C13.0393 21.7894 12.5306 22.0001 12.0002 22.0001ZM15.4782 18.0611C15.1366 17.4371 14.6335 16.9166 14.0216 16.5539C13.4097 16.1913 12.7115 16 12.0002 16C11.2888 16 10.5906 16.1913 9.97872 16.5539C9.3668 16.9166 8.8637 17.4371 8.52215 18.0611C7.44478 17.4378 6.55128 16.5408 5.93215 15.4611C6.5568 15.1207 7.07841 14.6186 7.44233 14.0074C7.80625 13.3962 7.99908 12.6984 8.00062 11.987C8.00215 11.2757 7.81233 10.577 7.45105 9.96422C7.08977 9.35145 6.57033 8.84712 5.94715 8.50408C6.56593 7.43694 7.45381 6.55079 8.52215 5.93408C8.8637 6.55802 9.3668 7.07859 9.97872 7.44122C10.5906 7.80386 11.2888 7.9952 12.0002 7.9952C12.7115 7.9952 13.4097 7.80386 14.0216 7.44122C14.6335 7.07859 15.1366 6.55802 15.4782 5.93408C16.5465 6.55079 17.4344 7.43694 18.0532 8.50408C17.43 8.84712 16.9105 9.35145 16.5493 9.96422C16.188 10.577 15.9982 11.2757 15.9997 11.987C16.0012 12.6984 16.1941 13.3962 16.558 14.0074C16.9219 14.6186 17.4435 15.1207 18.0682 15.4611C17.449 16.5408 16.5555 17.4378 15.4782 18.0611ZM20.0002 13.9831C19.6046 13.9831 19.2179 13.8658 18.889 13.646C18.5601 13.4263 18.3038 13.1139 18.1524 12.7484C18.001 12.383 17.9614 11.9809 18.0386 11.5929C18.1158 11.2049 18.3062 10.8486 18.5859 10.5689C18.8656 10.2892 19.222 10.0987 19.61 10.0215C19.9979 9.94434 20.4001 9.98395 20.7655 10.1353C21.131 10.2867 21.4433 10.543 21.6631 10.8719C21.8829 11.2008 22.0002 11.5875 22.0002 11.9831C22.0002 12.5135 21.7894 13.0222 21.4144 13.3973C21.0393 13.7724 20.5306 13.9831 20.0002 13.9831Z" fill="#374957"/>
</g>
<defs>
<clipPath id="clip0_51_69281">
<rect width="24" height="24" fill="white"/>
</clipPath>
</defs>
</svg>
