<svg width="24" height="24" viewBox="0 0 24 24" fill="none" xmlns="http://www.w3.org/2000/svg">
<g clip-path="url(#clip0_51_69432)">
<path d="M24 18.9998V3.99985C24 3.2042 23.6839 2.44114 23.1213 1.87853C22.5587 1.31592 21.7956 0.999847 21 0.999847H3C2.20435 0.999847 1.44129 1.31592 0.87868 1.87853C0.31607 2.44114 0 3.2042 0 3.99985L0 18.9998H11V20.9998H6V22.9998H18V20.9998H13V18.9998H24ZM3 2.99985H21C21.2652 2.99985 21.5196 3.1052 21.7071 3.29274C21.8946 3.48028 22 3.73463 22 3.99985V12.9998H2V3.99985C2 3.73463 2.10536 3.48028 2.29289 3.29274C2.48043 3.1052 2.73478 2.99985 3 2.99985V2.99985ZM2 14.9998H22V16.9998H2V14.9998Z" fill="#374957"/>
</g>
<defs>
<clipPath id="clip0_51_69432">
<rect width="24" height="24" fill="white"/>
</clipPath>
</defs>
</svg>
