<svg width="24" height="24" viewBox="0 0 24 24" fill="none" xmlns="http://www.w3.org/2000/svg">
<g clip-path="url(#clip0_51_70064)">
<path d="M12 23.9939L4.93698 17.0849C3.99347 16.1601 3.24258 15.0575 2.72768 13.8408C2.21279 12.624 1.9441 11.3173 1.93715 9.99618C1.9302 8.67501 2.18511 7.36556 2.68717 6.14349C3.18923 4.92141 3.92847 3.81094 4.86219 2.87623C5.79592 1.94151 6.90561 1.20109 8.12715 0.697736C9.34869 0.194383 10.6579 -0.0619218 11.979 -0.0563692C13.3002 -0.0508166 14.6072 0.216483 15.8245 0.730086C17.0417 1.24369 18.1451 1.99341 19.071 2.93594C20.9436 4.81273 21.9953 7.3557 21.9953 10.0069C21.9953 12.6582 20.9436 15.2012 19.071 17.0779L12 23.9939ZM12 2.00594C10.4175 2.00569 8.87046 2.47478 7.5546 3.35387C6.23874 4.23297 5.21316 5.48258 4.60759 6.94463C4.00203 8.40668 3.84368 10.0155 4.15258 11.5675C4.46149 13.1196 5.22376 14.5452 6.34298 15.6639L12 21.1999L17.665 15.6599C18.7833 14.5405 19.5445 13.1145 19.8524 11.5624C20.1603 10.0103 20.0009 8.40172 19.3945 6.94017C18.7881 5.47861 17.7619 4.22971 16.4457 3.35142C15.1295 2.47313 13.5823 2.0049 12 2.00594V2.00594ZM12 15.9999C10.8133 15.9999 9.65326 15.648 8.66656 14.9888C7.67987 14.3295 6.91083 13.3924 6.45671 12.296C6.00258 11.1997 5.88376 9.99329 6.11527 8.8294C6.34678 7.66551 6.91823 6.59642 7.75734 5.7573C8.59646 4.91819 9.66556 4.34674 10.8294 4.11523C11.9933 3.88372 13.1997 4.00254 14.2961 4.45667C15.3924 4.91079 16.3295 5.67983 16.9888 6.66652C17.6481 7.65322 18 8.81325 18 9.99994C17.9984 11.5908 17.3657 13.116 16.2409 14.2408C15.116 15.3657 13.5908 15.9984 12 15.9999V15.9999ZM12 5.99994C11.2089 5.99994 10.4355 6.23454 9.7777 6.67406C9.11991 7.11359 8.60721 7.7383 8.30446 8.46921C8.00171 9.20011 7.9225 10.0044 8.07684 10.7803C8.23118 11.5562 8.61215 12.269 9.17156 12.8284C9.73097 13.3878 10.4437 13.7687 11.2196 13.9231C11.9955 14.0774 12.7998 13.9982 13.5307 13.6955C14.2616 13.3927 14.8863 12.88 15.3259 12.2222C15.7654 11.5644 16 10.7911 16 9.99994C16 8.93908 15.5786 7.92166 14.8284 7.17152C14.0783 6.42137 13.0608 5.99994 12 5.99994ZM14.207 10.7929L13 9.58594V6.99994H11V10.4139L12.793 12.2069L14.207 10.7929Z" fill="#374957"/>
</g>
<defs>
<clipPath id="clip0_51_70064">
<rect width="24" height="24" fill="white"/>
</clipPath>
</defs>
</svg>
