<svg width="24" height="24" viewBox="0 0 24 24" fill="none" xmlns="http://www.w3.org/2000/svg">
<g clip-path="url(#clip0_51_71324)">
<path d="M11.692 22.9998C11.2979 23.0008 10.9075 22.9237 10.5434 22.7728C10.1794 22.6219 9.84883 22.4003 9.57098 22.1208L6.18398 18.6998C6.07728 18.6104 5.99043 18.4997 5.92898 18.3748C5.86753 18.2499 5.83283 18.1136 5.82711 17.9745C5.82139 17.8354 5.84477 17.6966 5.89575 17.5671C5.94673 17.4376 6.0242 17.3201 6.12319 17.2222C6.22218 17.1244 6.34051 17.0483 6.47061 16.9987C6.60071 16.9492 6.73971 16.9274 6.87872 16.9347C7.01773 16.942 7.15369 16.9783 7.27789 17.0412C7.40208 17.104 7.51179 17.1921 7.59998 17.2998L10.984 20.7138C11.1744 20.8945 11.4269 20.9953 11.6895 20.9953C11.952 20.9953 12.2045 20.8945 12.395 20.7138L17.809 15.2998C17.9965 15.1122 18.2509 15.0067 18.5161 15.0066C18.7814 15.0065 19.0358 15.1118 19.2235 15.2993C19.4111 15.4868 19.5166 15.7412 19.5167 16.0065C19.5168 16.2717 19.4115 16.5262 19.224 16.7138L13.809 22.1278C13.5312 22.4057 13.201 22.6259 12.8377 22.7756C12.4743 22.9252 12.0849 23.0014 11.692 22.9998V22.9998ZM6.99998 21.9998C6.99998 21.7346 6.89462 21.4803 6.70708 21.2927C6.51955 21.1052 6.26519 20.9998 5.99998 20.9998H5.68298C4.82894 20.9834 4.00518 20.6805 3.34397 20.1397C2.68276 19.5989 2.22246 18.8516 2.03698 18.0178C1.92832 17.3013 2.04689 16.5687 2.37602 15.923C2.70515 15.2773 3.2283 14.7509 3.87198 14.4178C4.33047 14.164 4.67061 13.7399 4.81882 13.2372C4.96704 12.7346 4.91141 12.1938 4.66398 11.7318C4.27569 10.9913 4.04647 10.1777 3.99103 9.34341C3.9356 8.50908 4.05516 7.67237 4.34206 6.88696C4.62896 6.10155 5.07686 5.38477 5.65702 4.78262C6.23719 4.18046 6.93681 3.70622 7.71101 3.39031C8.4852 3.0744 9.31689 2.9238 10.1527 2.94817C10.9885 2.97254 11.81 3.17134 12.5645 3.53182C13.319 3.8923 13.9898 4.4065 14.5339 5.04144C15.078 5.67638 15.4833 6.41803 15.724 7.21883C15.8717 7.70161 16.1352 8.14099 16.4914 8.49878C16.8476 8.85657 17.2859 9.12194 17.768 9.27183C19.0746 9.66917 20.2056 10.5024 20.9723 11.6327C21.7389 12.7629 22.095 14.1219 21.981 15.4828C21.8658 16.6649 21.3933 17.7838 20.6264 18.6906C19.8595 19.5974 18.8345 20.2491 17.688 20.5588C17.4391 20.644 17.2338 20.8238 17.1166 21.0593C16.9994 21.2948 16.9797 21.567 17.0618 21.817C17.1439 22.0669 17.3211 22.2744 17.5551 22.3945C17.7891 22.5147 18.0611 22.5378 18.312 22.4588C19.9507 21.9912 21.393 21.0035 22.4214 19.6447C23.4498 18.2858 24.0086 16.6295 24.0136 14.9254C24.0186 13.2212 23.4694 11.5617 22.4489 10.1969C21.4285 8.83208 19.9919 7.836 18.356 7.35883C18.1844 7.30535 18.0286 7.21025 17.9027 7.08202C17.7767 6.95378 17.6844 6.79637 17.634 6.62383C17.1048 4.92345 16.0235 3.44823 14.5612 2.43186C13.0989 1.4155 11.3393 0.916086 9.56109 1.01274C7.7829 1.1094 6.0878 1.7966 4.74429 2.96549C3.40079 4.13437 2.4857 5.71811 2.14398 7.46583C1.79253 9.23283 2.07583 11.0672 2.94398 12.6458C1.93174 13.1678 1.10872 13.994 0.590812 15.0083C0.0729007 16.0226 -0.113808 17.1738 0.0569775 18.2998C0.317629 19.6076 1.01779 20.7869 2.04119 21.6419C3.0646 22.4969 4.34966 22.976 5.68298 22.9998H5.99998C6.26519 22.9998 6.51955 22.8945 6.70708 22.7069C6.89462 22.5194 6.99998 22.265 6.99998 21.9998V21.9998Z" fill="#374957"/>
</g>
<defs>
<clipPath id="clip0_51_71324">
<rect width="24" height="24" fill="white"/>
</clipPath>
</defs>
</svg>
