<svg width="24" height="24" viewBox="0 0 24 24" fill="none" xmlns="http://www.w3.org/2000/svg">
<g clip-path="url(#clip0_51_69582)">
<path d="M22.0001 4.145L17.9861 0H10.0001C9.20447 0 8.44141 0.31607 7.8788 0.87868C7.31619 1.44129 7.00012 2.20435 7.00012 3V4H5.00012C4.20447 4 3.44141 4.31607 2.8788 4.87868C2.31619 5.44129 2.00012 6.20435 2.00012 7V24H18.0001V19H22.0001V4.145ZM16.0001 22H4.00012V7C4.00012 6.73478 4.10548 6.48043 4.29302 6.29289C4.48055 6.10536 4.73491 6 5.00012 6H7.00012V19H16.0001V22ZM9.00012 17V3C9.00012 2.73478 9.10548 2.48043 9.29302 2.29289C9.48055 2.10536 9.73491 2 10.0001 2H16.0001V6H20.0001V17H9.00012Z" fill="#374957"/>
</g>
<defs>
<clipPath id="clip0_51_69582">
<rect width="24" height="24" fill="white"/>
</clipPath>
</defs>
</svg>
