<svg width="24" height="24" viewBox="0 0 24 24" fill="none" xmlns="http://www.w3.org/2000/svg">
<path d="M5.0002 21.9997C5.53063 21.9997 6.03934 21.789 6.41441 21.4139C6.78948 21.0388 7.0002 20.5301 7.0002 19.9997V13.9997C7.0002 13.4693 6.78948 12.9606 6.41441 12.5855C6.03934 12.2104 5.53063 11.9997 5.0002 11.9997V10.9997C5.0002 9.14318 5.73769 7.3627 7.05045 6.04995C8.3632 4.73719 10.1437 3.99969 12.0002 3.99969C13.8567 3.99969 15.6372 4.73719 16.9499 6.04995C18.2627 7.3627 19.0002 9.14318 19.0002 10.9997V11.9997C18.4698 11.9997 17.9611 12.2104 17.586 12.5855C17.2109 12.9606 17.0002 13.4693 17.0002 13.9997V19.9997H14.0002C13.735 19.9997 13.4806 20.1051 13.2931 20.2926C13.1056 20.4801 13.0002 20.7345 13.0002 20.9997C13.0002 21.2649 13.1056 21.5193 13.2931 21.7068C13.4806 21.8943 13.735 21.9997 14.0002 21.9997H19.0002C20.1462 21.9963 21.2563 21.5993 22.1445 20.8751C23.0328 20.151 23.6453 19.1438 23.8796 18.0219C24.1139 16.9001 23.9558 15.7319 23.4316 14.7128C22.9074 13.6936 22.049 12.8855 21.0002 12.4237V10.9997C21.0002 8.61275 20.052 6.32356 18.3642 4.63573C16.6763 2.94791 14.3871 1.99969 12.0002 1.99969C9.61325 1.99969 7.32406 2.94791 5.63623 4.63573C3.94841 6.32356 3.00019 8.61275 3.00019 10.9997V12.4237C1.95135 12.8855 1.093 13.6936 0.568816 14.7128C0.0446374 15.7319 -0.113544 16.9001 0.120752 18.0219C0.355049 19.1438 0.967602 20.151 1.85586 20.8751C2.74413 21.5993 3.85418 21.9963 5.0002 21.9997V21.9997Z" fill="#374957"/>
</svg>
