<svg width="24" height="24" viewBox="0 0 24 24" fill="none" xmlns="http://www.w3.org/2000/svg">
<g clip-path="url(#clip0_51_81508)">
<path d="M23.9998 2V6H21.9998V3.414L19.5998 5.814C20.6657 7.23596 21.1534 9.00894 20.9646 10.776C20.7758 12.5431 19.9246 14.173 18.5823 15.3377C17.2401 16.5024 15.5064 17.1153 13.7304 17.0531C11.9543 16.9909 10.2678 16.2582 9.01032 15.0025C7.75282 13.7467 7.01772 12.0612 6.95302 10.2853C6.88831 8.50936 7.49879 6.77485 8.66157 5.43094C9.82435 4.08703 11.4531 3.23352 13.2199 3.04223C14.9867 2.85095 16.7603 3.33609 18.1838 4.4L20.5838 2H17.9998V0H21.9998C22.5302 0 23.0389 0.210714 23.414 0.585786C23.7891 0.960859 23.9998 1.46957 23.9998 2ZM7.9998 16.683C7.03848 15.8265 6.27302 14.7729 5.75554 13.594C5.23806 12.415 4.98071 11.1384 5.00102 9.85101C5.02133 8.56364 5.31881 7.29577 5.87322 6.13372C6.42763 4.97168 7.22595 3.94275 8.2138 3.117C7.8133 3.04282 7.4071 3.00368 6.9998 3C5.23948 3.01356 3.54888 3.68987 2.26491 4.89418C0.980934 6.09849 0.197855 7.74235 0.0717158 9.49821C-0.0544233 11.2541 0.485639 12.993 1.58428 14.3685C2.68293 15.7439 4.25949 16.655 5.99981 16.92V19H2.99981V21H5.99981V24H7.9998V21H10.9998V19H7.9998V16.683Z" fill="#374957"/>
</g>
<defs>
<clipPath id="clip0_51_81508">
<rect width="24" height="24" fill="white"/>
</clipPath>
</defs>
</svg>
