<svg width="24" height="24" viewBox="0 0 24 24" fill="none" xmlns="http://www.w3.org/2000/svg">
<g clip-path="url(#clip0_51_70396)">
<path d="M18 7.00093C18 7.19872 17.9414 7.39206 17.8315 7.5565C17.7216 7.72095 17.5654 7.84913 17.3827 7.92481C17.2 8.0005 16.9989 8.0203 16.8049 7.98172C16.6109 7.94313 16.4327 7.84789 16.2929 7.70804C16.153 7.56819 16.0578 7.39001 16.0192 7.19602C15.9806 7.00204 16.0004 6.80098 16.0761 6.61825C16.1518 6.43552 16.28 6.27935 16.4444 6.16946C16.6089 6.05958 16.8022 6.00093 17 6.00093C17.2652 6.00093 17.5196 6.10629 17.7071 6.29383C17.8946 6.48136 18 6.73572 18 7.00093ZM14 9.00093C13.8022 9.00093 13.6089 9.05958 13.4444 9.16947C13.28 9.27935 13.1518 9.43552 13.0761 9.61825C13.0004 9.80098 12.9806 10.002 13.0192 10.196C13.0578 10.39 13.153 10.5682 13.2929 10.708C13.4327 10.8479 13.6109 10.9431 13.8049 10.9817C13.9989 11.0203 14.2 11.0005 14.3827 10.9248C14.5654 10.8491 14.7216 10.721 14.8315 10.5565C14.9414 10.3921 15 10.1987 15 10.0009C15 9.73572 14.8946 9.48136 14.7071 9.29383C14.5196 9.10629 14.2652 9.00093 14 9.00093ZM11 12.0009C10.8022 12.0009 10.6089 12.0596 10.4444 12.1695C10.28 12.2793 10.1518 12.4355 10.0761 12.6183C10.0004 12.801 9.98063 13.002 10.0192 13.196C10.0578 13.39 10.153 13.5682 10.2929 13.708C10.4327 13.8479 10.6109 13.9431 10.8049 13.9817C10.9989 14.0203 11.2 14.0005 11.3827 13.9248C11.5654 13.8491 11.7216 13.721 11.8315 13.5565C11.9414 13.3921 12 13.1987 12 13.0009C12 12.7357 11.8946 12.4814 11.7071 12.2938C11.5196 12.1063 11.2652 12.0009 11 12.0009ZM23.352 0.648933C23.65 0.944227 23.8569 1.31895 23.9481 1.72849C24.0392 2.13803 24.0107 2.56512 23.866 2.95893L23.791 3.16993C22.289 7.33793 20.848 11.3009 18 14.8209V15.0009C17.9956 16.7079 17.5961 18.3906 16.8327 19.9173C16.0694 21.444 14.9629 22.7733 13.6 23.8009L13.332 24.0009H9V20.4149L7 18.4149L4.707 20.7079L3.293 19.2939L5.586 17.0009L3.586 15.0009H0V10.4409L0.2 10.1749C1.23794 8.83918 2.57487 7.76565 4.10328 7.0407C5.63168 6.31575 7.30889 5.95961 9 6.00093H9.18C12.7 3.15393 16.66 1.71293 20.826 0.211933L21.042 0.134933C21.4358 -0.00977305 21.8629 -0.0382586 22.2724 0.052868C22.682 0.143995 23.0567 0.350894 23.352 0.648933V0.648933ZM2 13.0009H3.419C4.39674 11.3143 5.52857 9.72183 6.8 8.24393C4.9212 8.63259 3.22934 9.64595 2 11.1189V13.0009ZM15.7 17.2549C14.2375 18.5041 12.6643 19.6177 11 20.5819V22.0009H12.657C14.1507 20.7832 15.2167 19.1205 15.7 17.2549V17.2549ZM21.937 2.06393C21.9104 2.03429 21.8751 2.01373 21.8362 2.00512C21.7973 1.99651 21.7567 2.0003 21.72 2.01593L21.505 2.09393C16.661 3.83893 12.478 5.34693 8.876 8.94793C7.48687 10.4353 6.27047 12.0751 5.25 13.8359L10.165 18.7519C11.9255 17.7306 13.5652 16.5139 15.053 15.1249C18.653 11.5249 20.163 7.33793 21.909 2.49193L21.985 2.28093C22.0005 2.24425 22.0042 2.20366 21.9956 2.16478C21.987 2.1259 21.9665 2.09066 21.937 2.06393V2.06393Z" fill="#374957"/>
</g>
<defs>
<clipPath id="clip0_51_70396">
<rect width="24" height="24" fill="white"/>
</clipPath>
</defs>
</svg>
