<svg width="24" height="24" viewBox="0 0 24 24" fill="none" xmlns="http://www.w3.org/2000/svg">
<g clip-path="url(#clip0_51_81245)">
<path d="M23.9576 13.485C23.5817 15.7188 22.6877 17.8335 21.3472 19.6595C20.0068 21.4855 18.2571 22.9721 16.2386 24H7.77259C5.75228 22.9729 4.00067 21.4868 2.65814 19.6608C1.31561 17.8348 0.419485 15.7197 0.0415872 13.485C-0.0305766 13.0585 -0.00862735 12.6213 0.105898 12.2041C0.220423 11.787 0.424756 11.3999 0.704587 11.07C0.987504 10.7346 1.34029 10.465 1.73826 10.2802C2.13624 10.0954 2.56979 9.99976 3.00859 10H20.9896C21.4277 10.0001 21.8606 10.096 22.2579 10.2808C22.6551 10.4656 23.0072 10.7349 23.2896 11.07C23.5703 11.3995 23.7755 11.7864 23.8909 12.2036C24.0063 12.6207 24.0291 13.0581 23.9576 13.485V13.485ZM13.9996 5.414V7H15.9996V5.414C16.0014 4.83409 15.888 4.25961 15.666 3.72386C15.4441 3.18811 15.1179 2.70175 14.7066 2.293C14.2555 1.83916 14.0015 1.22585 13.9996 0.586V0H11.9996V0.586C12.0032 1.75603 12.4673 2.8776 13.2916 3.708C13.5167 3.93131 13.6952 4.19711 13.8167 4.48997C13.9383 4.78283 14.0004 5.09692 13.9996 5.414V5.414ZM9.99959 6.414V8H11.9996V6.414C12.0012 5.83397 11.8878 5.25937 11.6658 4.72348C11.4439 4.18759 11.1178 3.70104 10.7066 3.292C10.4815 3.06874 10.303 2.80293 10.1817 2.51004C10.0603 2.21715 9.99839 1.90304 9.99959 1.586V0H7.99959V1.586C7.99786 2.16581 8.11116 2.74021 8.33293 3.27593C8.5547 3.81165 8.88054 4.29806 9.29159 4.707C9.74327 5.16049 9.99771 5.77394 9.99959 6.414V6.414Z" fill="#374957"/>
</g>
<defs>
<clipPath id="clip0_51_81245">
<rect width="24" height="24" fill="white"/>
</clipPath>
</defs>
</svg>
