<svg width="24" height="24" viewBox="0 0 24 24" fill="none" xmlns="http://www.w3.org/2000/svg">
<g clip-path="url(#clip0_51_83031)">
<path d="M22.8307 9.17105L18.9517 5.29205C18.5544 4.90838 17.9214 4.9194 17.5377 5.31666C17.1634 5.70418 17.1634 6.31857 17.5377 6.70608L21.4167 10.5851C21.532 10.7026 21.6327 10.8336 21.7167 10.9751C21.7017 10.9751 21.6897 10.9671 21.6747 10.9671L5.99071 10.9991C5.43843 10.9991 4.99072 11.4468 4.99072 11.9991C4.99072 12.5513 5.43843 12.9991 5.99071 12.9991L21.6687 12.967C21.6967 12.967 21.7197 12.953 21.7467 12.9511C21.658 13.1202 21.5455 13.2758 21.4127 13.4131L17.5337 17.2921C17.1365 17.6757 17.1254 18.3088 17.5091 18.706C17.8928 19.1033 18.5258 19.1143 18.9231 18.7306C18.9314 18.7226 18.9396 18.7144 18.9477 18.706L22.8267 14.827C24.3883 13.265 24.3883 10.733 22.8267 9.17105H22.8307Z" fill="#374957"/>
<path d="M7.00194 22H5.00192C3.34508 22 2.00192 20.6568 2.00192 19V5.00002C2.00192 3.34317 3.34508 2.00002 5.00192 2.00002H7.00194C7.55422 2.00002 8.00192 1.55231 8.00192 1.00003C8.00192 0.44775 7.55427 0 7.00194 0H5.00192C2.24192 0.00332813 0.00528125 2.23997 0.00195312 5.00002V19C0.00528125 21.76 2.24192 23.9967 5.00197 24H7.00198C7.55427 24 8.00197 23.5523 8.00197 23C8.00197 22.4477 7.55427 22 7.00194 22Z" fill="#374957"/>
</g>
<defs>
<clipPath id="clip0_51_83031">
<rect width="24" height="24" fill="white"/>
</clipPath>
</defs>
</svg>
