<svg width="24" height="24" viewBox="0 0 24 24" fill="none" xmlns="http://www.w3.org/2000/svg">
<g clip-path="url(#clip0_51_82337)">
<path d="M5.25169e-06 8.00823V2.00823C-0.000687977 1.70571 0.0672576 1.40697 0.198727 1.1345C0.330196 0.862037 0.521763 0.622947 0.759005 0.435231C0.994459 0.246088 1.27002 0.113255 1.56466 0.0468764C1.85929 -0.0195022 2.16519 -0.0176707 2.45901 0.0522312C3.39477 0.302741 4.25789 0.771354 4.97766 1.41969C5.69744 2.06803 6.2534 2.87764 6.60001 3.78223C8.36032 3.29723 10.1744 3.03452 12 3.00023C13.8256 3.03452 15.6397 3.29723 17.4 3.78223C17.7468 2.87726 18.3032 2.06738 19.0236 1.41901C19.7439 0.770645 20.6077 0.302248 21.544 0.0522312C21.8379 -0.0156245 22.1434 -0.0162799 22.4376 0.0503136C22.7318 0.116907 23.0072 0.249033 23.2433 0.436847C23.4794 0.624662 23.67 0.863323 23.801 1.13505C23.932 1.40678 24.0001 1.70457 24 2.00623V8.00623C22.3507 8.04677 20.7267 8.42096 19.226 9.10623C17.3041 9.92503 15.678 11.3112 14.5654 13.0794C13.4527 14.8475 12.9066 16.9132 13 19.0002C13 19.2654 12.8946 19.5198 12.7071 19.7073C12.5196 19.8949 12.2652 20.0002 12 20.0002C11.7348 20.0002 11.4804 19.8949 11.2929 19.7073C11.1054 19.5198 11 19.2654 11 19.0002C11.0942 16.9123 10.5485 14.8454 9.43584 13.0762C8.32318 11.3069 6.69668 9.91974 4.77401 9.10023C3.27255 8.41816 1.64868 8.04672 5.25169e-06 8.00823V8.00823ZM20 11.0002C19.8213 11.8373 19.3637 12.589 18.702 13.132C18.0403 13.675 17.2139 13.9773 16.358 13.9892C15.4195 15.4884 14.9469 17.2323 15 19.0002C15 19.7959 14.6839 20.5589 14.1213 21.1216C13.5587 21.6842 12.7957 22.0002 12 22.0002C11.2044 22.0002 10.4413 21.6842 9.87868 21.1216C9.31608 20.5589 9.00001 19.7959 9.00001 19.0002C9.05311 17.2323 8.5805 15.4884 7.64201 13.9892C6.78612 13.9773 5.95966 13.675 5.298 13.132C4.63633 12.589 4.17868 11.8373 4.00001 11.0002C2.74834 10.4003 1.38698 10.0634 5.25169e-06 10.0102C0.0314567 12.8762 1.1879 15.615 3.22001 17.6362L7.87701 22.2932C8.97433 23.3779 10.4551 23.9863 11.998 23.9863C13.541 23.9863 15.0217 23.3779 16.119 22.2932L20.776 17.6362C22.8096 15.6157 23.9675 12.8768 24 10.0102C22.613 10.0634 21.2517 10.4003 20 11.0002V11.0002Z" fill="#374957"/>
</g>
<defs>
<clipPath id="clip0_51_82337">
<rect width="24" height="24" fill="white"/>
</clipPath>
</defs>
</svg>
