<svg width="24" height="24" viewBox="0 0 24 24" fill="none" xmlns="http://www.w3.org/2000/svg">
<g clip-path="url(#clip0_51_70652)">
<path d="M23.4139 0.587262C23.1631 0.339975 22.8521 0.162538 22.5116 0.0725511C22.1711 -0.017436 21.813 -0.0168461 21.4729 0.0742624L17.7579 1.29226L5.51788 13.5323C4.14967 12.7949 2.67235 12.2811 1.14189 12.0103L0.855889 13.9893C2.80297 14.3543 4.63696 15.172 6.20988 16.3763L2.49989 20.0863L1.47589 19.0623L0.0618896 20.4763L3.56189 23.9763L4.97588 22.5623L3.91389 21.5003L7.62388 17.7903C8.82856 19.3628 9.64595 21.197 10.0099 23.1443L11.9899 22.8583C11.7201 21.3275 11.2062 19.85 10.4679 18.4823L22.7079 6.24226L23.9529 2.43226C24.0258 2.10423 24.0146 1.76309 23.9203 1.44053C23.8261 1.11797 23.6519 0.824464 23.4139 0.587262V0.587262ZM20.9559 5.16626L9.36288 16.7603C9.0588 16.3607 8.7284 15.9818 8.37388 15.6263C8.01844 15.2723 7.63995 14.9422 7.24088 14.6383L18.8349 3.04426L21.9919 2.00726L20.9559 5.16626Z" fill="#374957"/>
</g>
<defs>
<clipPath id="clip0_51_70652">
<rect width="24" height="24" fill="white"/>
</clipPath>
</defs>
</svg>
