<svg width="24" height="24" viewBox="0 0 24 24" fill="none" xmlns="http://www.w3.org/2000/svg">
<g clip-path="url(#clip0_51_71843)">
<path d="M10 6.0003H23C23.2652 6.0003 23.5196 5.89494 23.7071 5.70741C23.8946 5.51987 24 5.26552 24 5.0003C24 4.73509 23.8946 4.48073 23.7071 4.2932C23.5196 4.10566 23.2652 4.00031 23 4.00031H10C9.73478 4.00031 9.48043 4.10566 9.29289 4.2932C9.10536 4.48073 9 4.73509 9 5.0003C9 5.26552 9.10536 5.51987 9.29289 5.70741C9.48043 5.89494 9.73478 6.0003 10 6.0003V6.0003Z" fill="#374957"/>
<path d="M23 10.9997H10C9.73478 10.9997 9.48043 11.1051 9.29289 11.2926C9.10536 11.4801 9 11.7345 9 11.9997C9 12.2649 9.10536 12.5193 9.29289 12.7068C9.48043 12.8943 9.73478 12.9997 10 12.9997H23C23.2652 12.9997 23.5196 12.8943 23.7071 12.7068C23.8946 12.5193 24 12.2649 24 11.9997C24 11.7345 23.8946 11.4801 23.7071 11.2926C23.5196 11.1051 23.2652 10.9997 23 10.9997Z" fill="#374957"/>
<path d="M23 18H10C9.73478 18 9.48043 18.1054 9.29289 18.2929C9.10536 18.4804 9 18.7348 9 19C9 19.2652 9.10536 19.5196 9.29289 19.7071C9.48043 19.8947 9.73478 20 10 20H23C23.2652 20 23.5196 19.8947 23.7071 19.7071C23.8946 19.5196 24 19.2652 24 19C24 18.7348 23.8946 18.4804 23.7071 18.2929C23.5196 18.1054 23.2652 18 23 18Z" fill="#374957"/>
<path d="M6.08695 6.00028C6.18588 6.00026 6.28259 5.97088 6.36483 5.91588C6.44706 5.86087 6.51113 5.78271 6.54892 5.69128C6.58672 5.59984 6.59654 5.49926 6.57714 5.40224C6.55774 5.30523 6.51 5.21615 6.43995 5.14628L3.99995 2.70728C3.81242 2.51981 3.55811 2.41449 3.29295 2.41449C3.02778 2.41449 2.77348 2.51981 2.58595 2.70728L0.146949 5.14628C0.0769025 5.21615 0.0291587 5.30523 0.00976023 5.40224C-0.00963825 5.49926 0.00018061 5.59984 0.0379741 5.69128C0.0757675 5.78271 0.139837 5.86087 0.222072 5.91588C0.304308 5.97088 0.401013 6.00026 0.499949 6.00028H2.29395V18.0003H0.499949C0.400928 18.0001 0.304085 18.0293 0.221695 18.0843C0.139306 18.1392 0.075082 18.2173 0.0371645 18.3088C-0.000753071 18.4003 -0.0106562 18.501 0.00871061 18.5981C0.0280774 18.6952 0.0758419 18.7843 0.145949 18.8543L2.58595 21.2933C2.77348 21.4807 3.02778 21.5861 3.29295 21.5861C3.55811 21.5861 3.81242 21.4807 3.99995 21.2933L6.43995 18.8543C6.51 18.7844 6.55774 18.6953 6.57714 18.5983C6.59654 18.5013 6.58672 18.4007 6.54892 18.3093C6.51113 18.2178 6.44706 18.1397 6.36483 18.0847C6.28259 18.0297 6.18588 18.0003 6.08695 18.0003H4.29395V6.00028H6.08695Z" fill="#374957"/>
</g>
<defs>
<clipPath id="clip0_51_71843">
<rect width="24" height="24" fill="white"/>
</clipPath>
</defs>
</svg>
