<svg width="24" height="24" viewBox="0 0 24 24" fill="none" xmlns="http://www.w3.org/2000/svg">
<g clip-path="url(#clip0_51_81148)">
<path d="M19.944 2.634L12 0L4.056 2.634C3.45747 2.83242 2.93668 3.21438 2.5676 3.72563C2.19852 4.23689 1.99992 4.85144 2 5.482V11.991C2 19.515 11.2 23.67 11.594 23.843L11.948 24L12.316 23.878C12.711 23.747 22 20.568 22 11.991V5.482C22.0001 4.85144 21.8015 4.23689 21.4324 3.72563C21.0633 3.21438 20.5425 2.83242 19.944 2.634V2.634ZM13 19.052H11V17.052H13V19.052ZM13.928 12.557C13.6547 12.7634 13.4299 13.0273 13.2696 13.33C13.1092 13.6327 13.0172 13.9669 13 14.309V15.052H11V14.309C11.0186 13.6102 11.2069 12.9265 11.5488 12.3167C11.8906 11.7069 12.3756 11.1895 12.962 10.809C13.3324 10.6062 13.6291 10.2915 13.8096 9.90973C13.9902 9.52801 14.0453 9.09894 13.967 8.684C13.8902 8.28818 13.6969 7.92434 13.4118 7.63924C13.1267 7.35413 12.7628 7.16077 12.367 7.084C12.0781 7.03007 11.7808 7.04048 11.4964 7.11448C11.212 7.18848 10.9473 7.32426 10.7214 7.51216C10.4954 7.70006 10.3136 7.93545 10.1889 8.2016C10.0642 8.46774 9.99971 8.7581 10 9.052H8C7.9999 8.46775 8.12778 7.89058 8.37466 7.36106C8.62154 6.83154 8.98142 6.36252 9.429 5.987C9.85675 5.6294 10.3545 5.36518 10.8904 5.21128C11.4263 5.05738 11.9884 5.01721 12.5407 5.09334C13.093 5.16947 13.6233 5.36023 14.0976 5.65336C14.5719 5.94649 14.9796 6.33554 15.2947 6.79552C15.6097 7.2555 15.8251 7.77627 15.9271 8.32441C16.029 8.87254 16.0153 9.43594 15.8867 9.97845C15.7581 10.5209 15.5175 11.0306 15.1804 11.4746C14.8432 11.9187 14.417 12.2874 13.929 12.557H13.928Z" fill="#374957"/>
</g>
<defs>
<clipPath id="clip0_51_81148">
<rect width="24" height="24" fill="white"/>
</clipPath>
</defs>
</svg>
