<svg width="24" height="24" viewBox="0 0 24 24" fill="none" xmlns="http://www.w3.org/2000/svg">
<g clip-path="url(#clip0_51_70387)">
<path d="M16.0002 8.00061C14.8699 8.00157 13.7528 8.24279 12.7229 8.70828C11.6929 9.17377 10.7737 9.85289 10.0262 10.7006C9.54966 10.469 9.048 10.2931 8.53116 10.1766L10.2172 6.80061L8.41416 5.00061H5.58616L3.78616 6.80061L5.47216 10.1716C4.44313 10.3982 3.47852 10.8542 2.65028 11.5055C1.82203 12.1568 1.15152 12.9868 0.688728 13.9334C0.22594 14.88 -0.0171768 15.9189 -0.0224939 16.9725C-0.027811 18.0262 0.204809 19.0675 0.65802 20.0187C1.11123 20.9699 1.77334 21.8066 2.59497 22.4663C3.4166 23.1259 4.37655 23.5916 5.40324 23.8286C6.42993 24.0655 7.49687 24.0676 8.5245 23.8348C9.55212 23.6019 10.5139 23.14 11.3382 22.4836C12.3615 23.2235 13.5454 23.7106 14.7931 23.9051C16.0408 24.0996 17.3168 23.996 18.5168 23.6027C19.7167 23.2095 20.8066 22.5378 21.6971 21.6425C22.5877 20.7472 23.2537 19.6539 23.6406 18.4519C24.0275 17.2498 24.1244 15.9733 23.9233 14.7266C23.7222 13.48 23.2289 12.2986 22.4836 11.2792C21.7384 10.2598 20.7624 9.43132 19.6356 8.86147C18.5087 8.29162 17.2629 7.99663 16.0002 8.00061V8.00061ZM11.2342 19.6306C10.5701 18.7678 10.1557 17.7392 10.0361 16.657C9.91659 15.5748 10.0965 14.4806 10.5562 13.4936C11.3485 14.288 11.8472 15.3281 11.9704 16.4433C12.0936 17.5585 11.834 18.6824 11.2342 19.6306V19.6306ZM2.00016 17.0006C1.99805 16.1809 2.19802 15.3733 2.58238 14.6493C2.96675 13.9253 3.52365 13.3072 4.2038 12.8498C4.88396 12.3923 5.6664 12.1095 6.48188 12.0264C7.29736 11.9434 8.12074 12.0626 8.87916 12.3736C8.1656 13.763 7.87671 15.3316 8.04849 16.884C8.22026 18.4364 8.84511 19.9039 9.84516 21.1036C9.09634 21.626 8.21856 21.9329 7.30739 21.991C6.39622 22.049 5.48658 21.856 4.67753 21.4328C3.86849 21.0097 3.19104 20.3727 2.71895 19.5912C2.24687 18.8097 1.99825 17.9136 2.00016 17.0006V17.0006ZM16.0002 22.0006C14.8351 22.001 13.6955 21.6599 12.7222 21.0196C13.7067 19.6279 14.1465 17.9233 13.9582 16.2289C13.7698 14.5345 12.9664 12.9681 11.7002 11.8266C12.3897 11.1146 13.2449 10.5844 14.1894 10.2836C15.1338 9.98279 16.1381 9.92064 17.1125 10.1027C18.0868 10.2848 19.0009 10.7054 19.773 11.327C20.545 11.9486 21.1511 12.7518 21.537 13.6648C21.9229 14.5778 22.0766 15.5722 21.9843 16.5591C21.892 17.546 21.5567 18.4947 21.0083 19.3204C20.4598 20.146 19.7154 20.823 18.8415 21.2907C17.9676 21.7584 16.9914 22.0023 16.0002 22.0006V22.0006Z" fill="#374957"/>
<path d="M11.2922 0.292248L9.00403 2.58044L10.4182 3.99466L12.7064 1.70646L11.2922 0.292248Z" fill="#374957"/>
<path d="M2.70718 0.292573L1.29297 1.70679L3.54298 3.9568L4.9572 2.54259L2.70718 0.292573Z" fill="#374957"/>
<path d="M8 0H6V3H8V0Z" fill="#374957"/>
</g>
<defs>
<clipPath id="clip0_51_70387">
<rect width="24" height="24" fill="white"/>
</clipPath>
</defs>
</svg>
