<svg width="24" height="24" viewBox="0 0 24 24" fill="none" xmlns="http://www.w3.org/2000/svg">
<g clip-path="url(#clip0_51_70285)">
<path d="M21 0H3C2.20435 0 1.44129 0.31607 0.87868 0.87868C0.31607 1.44129 0 2.20435 0 3L0 24H24V3C24 2.20435 23.6839 1.44129 23.1213 0.87868C22.5587 0.31607 21.7956 0 21 0V0ZM7 22V17C7 16.7348 7.10536 16.4804 7.29289 16.2929C7.48043 16.1054 7.73478 16 8 16H16C16.2652 16 16.5196 16.1054 16.7071 16.2929C16.8946 16.4804 17 16.7348 17 17V22H7ZM22 22H19V17C19 16.2044 18.6839 15.4413 18.1213 14.8787C17.5587 14.3161 16.7956 14 16 14H8C7.20435 14 6.44129 14.3161 5.87868 14.8787C5.31607 15.4413 5 16.2044 5 17V22H2V3C2 2.73478 2.10536 2.48043 2.29289 2.29289C2.48043 2.10536 2.73478 2 3 2H21C21.2652 2 21.5196 2.10536 21.7071 2.29289C21.8946 2.48043 22 2.73478 22 3V22Z" fill="#374957"/>
<path d="M12 3.99939C11.2089 3.99939 10.4355 4.23399 9.77772 4.67351C9.11993 5.11304 8.60723 5.73775 8.30448 6.46866C8.00173 7.19956 7.92252 8.00383 8.07686 8.77975C8.2312 9.55567 8.61216 10.2684 9.17157 10.8278C9.73098 11.3872 10.4437 11.7682 11.2196 11.9225C11.9956 12.0769 12.7998 11.9977 13.5307 11.6949C14.2616 11.3922 14.8864 10.8795 15.3259 10.2217C15.7654 9.56387 16 8.79051 16 7.99939C16 6.93852 15.5786 5.92111 14.8284 5.17096C14.0783 4.42082 13.0609 3.99939 12 3.99939ZM12 9.99939C11.6044 9.99939 11.2178 9.88209 10.8889 9.66233C10.56 9.44257 10.3036 9.13021 10.1522 8.76476C10.0009 8.3993 9.96126 7.99717 10.0384 7.60921C10.1156 7.22125 10.3061 6.86488 10.5858 6.58518C10.8655 6.30547 11.2219 6.11499 11.6098 6.03782C11.9978 5.96065 12.3999 6.00026 12.7654 6.15163C13.1308 6.30301 13.4432 6.55935 13.6629 6.88825C13.8827 7.21715 14 7.60383 14 7.99939C14 8.52982 13.7893 9.03853 13.4142 9.4136C13.0391 9.78868 12.5304 9.99939 12 9.99939Z" fill="#374957"/>
</g>
<defs>
<clipPath id="clip0_51_70285">
<rect width="24" height="24" fill="white"/>
</clipPath>
</defs>
</svg>
