<svg width="24" height="24" viewBox="0 0 24 24" fill="none" xmlns="http://www.w3.org/2000/svg">
<g clip-path="url(#clip0_51_70164)">
<path d="M22.916 0.690913C22.5769 0.409244 22.1797 0.205995 21.7529 0.0957019C21.3261 -0.0145911 20.8801 -0.0292025 20.447 0.0529129L8.448 2.29991C7.75969 2.42876 7.13814 2.79434 6.69105 3.3333C6.24395 3.87226 5.99948 4.55065 6 5.25091V16.5559C5.39466 16.196 4.70426 16.0041 4 15.9999C3.20888 15.9999 2.43552 16.2345 1.77772 16.674C1.11992 17.1136 0.607234 17.7383 0.304484 18.4692C0.00173312 19.2001 -0.0774802 20.0043 0.0768607 20.7803C0.231202 21.5562 0.612165 22.2689 1.17157 22.8283C1.73098 23.3877 2.44372 23.7687 3.21964 23.9231C3.99557 24.0774 4.79983 23.9982 5.53074 23.6954C6.26164 23.3927 6.88636 22.88 7.32588 22.2222C7.76541 21.5644 8 20.791 8 19.9999V9.41991L22 6.79991V13.5609C21.3952 13.1992 20.7047 13.0056 20 12.9999C19.2089 12.9999 18.4355 13.2345 17.7777 13.674C17.1199 14.1136 16.6072 14.7383 16.3045 15.4692C16.0017 16.2001 15.9225 17.0043 16.0769 17.7803C16.2312 18.5562 16.6122 19.2689 17.1716 19.8283C17.731 20.3877 18.4437 20.7687 19.2196 20.9231C19.9956 21.0774 20.7998 20.9982 21.5307 20.6954C22.2616 20.3927 22.8864 19.88 23.3259 19.2222C23.7654 18.5644 24 17.791 24 16.9999V2.99991C24.0001 2.55903 23.903 2.12355 23.7156 1.72447C23.5283 1.32538 23.2553 0.972488 22.916 0.690913V0.690913ZM4 21.9999C3.60444 21.9999 3.21776 21.8826 2.88886 21.6629C2.55996 21.4431 2.30362 21.1307 2.15224 20.7653C2.00087 20.3998 1.96126 19.9977 2.03843 19.6097C2.1156 19.2218 2.30608 18.8654 2.58579 18.5857C2.86549 18.306 3.22186 18.1155 3.60982 18.0383C3.99778 17.9612 4.39992 18.0008 4.76537 18.1522C5.13082 18.3035 5.44318 18.5599 5.66294 18.8888C5.8827 19.2177 6 19.6043 6 19.9999C6 20.5303 5.78929 21.0391 5.41422 21.4141C5.03914 21.7892 4.53044 21.9999 4 21.9999ZM8 7.38591V5.25091C7.99994 5.01775 8.08136 4.79189 8.23018 4.61239C8.379 4.4329 8.58586 4.31105 8.815 4.26791L20.815 2.01791C20.9594 1.99073 21.108 1.9957 21.2503 2.03248C21.3925 2.06925 21.5249 2.13692 21.6381 2.23068C21.7512 2.32443 21.8423 2.44197 21.9049 2.57492C21.9674 2.70787 21.9999 2.85298 22 2.99991V4.75991L8 7.38591ZM20 18.9999C19.6044 18.9999 19.2178 18.8826 18.8889 18.6629C18.56 18.4431 18.3036 18.1307 18.1522 17.7653C18.0009 17.3998 17.9613 16.9977 18.0384 16.6097C18.1156 16.2218 18.3061 15.8654 18.5858 15.5857C18.8655 15.306 19.2219 15.1155 19.6098 15.0383C19.9978 14.9612 20.3999 15.0008 20.7654 15.1522C21.1308 15.3035 21.4432 15.5599 21.6629 15.8888C21.8827 16.2177 22 16.6043 22 16.9999C22 17.5303 21.7893 18.0391 21.4142 18.4141C21.0391 18.7892 20.5304 18.9999 20 18.9999Z" fill="#374957"/>
</g>
<defs>
<clipPath id="clip0_51_70164">
<rect width="24" height="24" fill="white"/>
</clipPath>
</defs>
</svg>
