<svg width="24" height="24" viewBox="0 0 24 24" fill="none" xmlns="http://www.w3.org/2000/svg">
<g clip-path="url(#clip0_51_82312)">
<path d="M20.8001 11.9998C25.7391 9.01077 21.5731 1.54677 16.4001 4.36777C16.2271 -1.40623 7.77108 -1.40323 7.60008 4.36777C2.46708 1.55077 -1.76192 8.98577 3.20008 11.9438C-1.74892 14.9788 2.40008 22.1548 7.60008 19.6358C7.78008 25.4058 16.2221 25.4008 16.4001 19.6358C21.5621 22.1528 25.7721 14.9998 20.8001 11.9998ZM12.0001 15.9998C10.9392 15.9998 9.9218 15.5783 9.17166 14.8282C8.42151 14.078 8.00008 13.0606 8.00008 11.9998C8.00008 10.9389 8.42151 9.92148 9.17166 9.17134C9.9218 8.42119 10.9392 7.99977 12.0001 7.99977C13.061 7.99977 14.0784 8.42119 14.8285 9.17134C15.5787 9.92148 16.0001 10.9389 16.0001 11.9998C16.0001 13.0606 15.5787 14.078 14.8285 14.8282C14.0784 15.5783 13.061 15.9998 12.0001 15.9998ZM14.0001 11.9998C14.0001 12.5302 13.7894 13.0389 13.4143 13.414C13.0392 13.7891 12.5305 13.9998 12.0001 13.9998C11.4697 13.9998 10.9609 13.7891 10.5859 13.414C10.2108 13.0389 10.0001 12.5302 10.0001 11.9998C10.0001 11.4693 10.2108 10.9606 10.5859 10.5856C10.9609 10.2105 11.4697 9.99977 12.0001 9.99977C12.5305 9.99977 13.0392 10.2105 13.4143 10.5856C13.7894 10.9606 14.0001 11.4693 14.0001 11.9998V11.9998Z" fill="#374957"/>
</g>
<defs>
<clipPath id="clip0_51_82312">
<rect width="24" height="24" fill="white"/>
</clipPath>
</defs>
</svg>
