<svg width="24" height="24" viewBox="0 0 24 24" fill="none" xmlns="http://www.w3.org/2000/svg">
<g clip-path="url(#clip0_51_80485)">
<path d="M15.4765 18.6102C15.4765 17.3272 14.6685 16.5812 13.1195 15.2662C12.7695 14.9662 12.3915 14.6482 12.0015 14.2942C11.5565 14.7032 11.1335 15.0632 10.7455 15.3942C9.19946 16.7002 8.52246 17.3392 8.52246 18.6102C8.52246 19.5323 8.88879 20.4167 9.54085 21.0688C10.1929 21.7209 11.0773 22.0872 11.9995 22.0872C12.9216 22.0872 13.806 21.7209 14.4581 21.0688C15.1101 20.4167 15.4765 19.5323 15.4765 18.6102V18.6102Z" fill="#374957"/>
<path d="M16.4079 4.035C15.2079 3.016 13.9679 1.963 12.7139 0.71L11.9999 0L11.2999 0.711C9.04593 2.973 7.97993 6.447 7.51793 8.531C7.16342 7.98206 6.90033 7.37922 6.73893 6.746L6.31193 5.109L5.07893 6.266C2.91993 8.294 1.47893 10.305 1.47893 13.525C1.45817 15.8485 2.21449 18.1123 3.62772 19.9568C5.04095 21.8012 7.03003 23.1205 9.27893 23.705C9.84401 23.8482 10.4194 23.9468 10.9999 24C9.74121 23.7654 8.60403 23.0983 7.78506 22.1141C6.96608 21.1299 6.51681 19.8904 6.51493 18.61C6.51493 16.36 7.87193 15.21 9.44293 13.868C10.0039 13.391 10.6429 12.85 11.2879 12.201L11.9999 11.493L12.7079 12.201C13.2839 12.777 13.8599 13.265 14.4169 13.739C15.9929 15.076 17.4809 16.339 17.4809 18.61C17.4793 19.8853 17.0337 21.1203 16.2205 22.1028C15.4074 23.0853 14.2775 23.754 13.0249 23.994C15.6255 23.7417 18.0388 22.5298 19.7943 20.5946C21.5497 18.6594 22.5215 16.1398 22.5199 13.527C22.5199 9.225 19.6869 6.82 16.4079 4.035Z" fill="#374957"/>
</g>
<defs>
<clipPath id="clip0_51_80485">
<rect width="24" height="24" fill="white"/>
</clipPath>
</defs>
</svg>
