<svg width="24" height="24" viewBox="0 0 24 24" fill="none" xmlns="http://www.w3.org/2000/svg">
<g clip-path="url(#clip0_51_80348)">
<path d="M19 8V7.068C18.9987 5.72429 18.4643 4.43599 17.5142 3.48584C16.564 2.5357 15.2757 2.00132 13.932 2H13V0H11V2H10.068C8.86532 2.00128 7.70229 2.43023 6.78679 3.21018C5.8713 3.99012 5.26301 5.07022 5.07065 6.25742C4.8783 7.44462 5.11441 8.66154 5.73679 9.69066C6.35917 10.7198 7.32726 11.494 8.468 11.875L11 12.72V20H10.068C9.25456 19.9992 8.47466 19.6757 7.89947 19.1005C7.32428 18.5253 7.00079 17.7454 7 16.932V16H5V16.932C5.00132 18.2757 5.5357 19.564 6.48584 20.5142C7.43599 21.4643 8.72429 21.9987 10.068 22H11V24H13V22H13.932C15.1347 21.9987 16.2977 21.5698 17.2132 20.7898C18.1287 20.0099 18.737 18.9298 18.9293 17.7426C19.1217 16.5554 18.8856 15.3385 18.2632 14.3093C17.6408 13.2802 16.6727 12.506 15.532 12.125L13 11.28V4H13.932C14.7454 4.00079 15.5253 4.32428 16.1005 4.89947C16.6757 5.47466 16.9992 6.25456 17 7.068V8H19ZM14.9 14.021C15.5913 14.2511 16.1781 14.7196 16.5555 15.3428C16.9328 15.966 17.0761 16.7031 16.9597 17.4223C16.8433 18.1415 16.4747 18.7958 15.92 19.2681C15.3652 19.7403 14.6605 19.9998 13.932 20H13V13.387L14.9 14.021ZM11 10.613L9.1 9.979C8.40874 9.74893 7.82191 9.28037 7.44453 8.65718C7.06716 8.034 6.92387 7.29685 7.0403 6.57768C7.15674 5.8585 7.5253 5.20422 8.08003 4.73194C8.63476 4.25966 9.33946 4.00021 10.068 4H11V10.613Z" fill="#374957"/>
</g>
<defs>
<clipPath id="clip0_51_80348">
<rect width="24" height="24" fill="white"/>
</clipPath>
</defs>
</svg>
