<svg width="24" height="24" viewBox="0 0 24 24" fill="none" xmlns="http://www.w3.org/2000/svg">
<path d="M13.9999 12.0002C13.9999 12.5306 13.7892 13.0393 13.4141 13.4144C13.039 13.7895 12.5303 14.0002 11.9999 14.0002C11.4694 14.0002 10.9607 13.7895 10.5857 13.4144C10.2106 13.0393 9.99988 12.5306 9.99988 12.0002C9.99988 11.4698 10.2106 10.961 10.5857 10.586C10.9607 10.2109 11.4694 10.0002 11.9999 10.0002C12.5303 10.0002 13.039 10.2109 13.4141 10.586C13.7892 10.961 13.9999 11.4698 13.9999 12.0002V12.0002ZM22.9089 15.7622C22.9032 16.5268 22.697 17.2766 22.3109 17.9367C21.9248 18.5967 21.3723 19.1439 20.7086 19.5237C20.0449 19.9034 19.2932 20.1024 18.5285 20.1007C17.7638 20.0991 17.0129 19.8968 16.3509 19.5142C16.3439 25.4472 7.65088 25.4442 7.65088 19.5142C2.49588 22.3412 -1.67412 14.8622 3.38488 11.9442C-1.66912 9.02819 2.48488 1.56019 7.63888 4.36819C7.63888 3.21105 8.09855 2.1013 8.91677 1.28308C9.73499 0.46486 10.8447 0.00518799 12.0019 0.00518799C13.159 0.00518799 14.2688 0.46486 15.087 1.28308C15.9052 2.1013 16.3649 3.21105 16.3649 4.36819C21.5199 1.55919 25.6709 9.03219 20.6189 11.9442C21.3095 12.3148 21.887 12.8654 22.2902 13.5375C22.6933 14.2097 22.9071 14.9784 22.9089 15.7622V15.7622ZM15.9999 12.0002C15.9999 10.9393 15.5784 9.92191 14.8283 9.17176C14.0782 8.42162 13.0607 8.00019 11.9999 8.00019C10.939 8.00019 9.92159 8.42162 9.17145 9.17176C8.4213 9.92191 7.99988 10.9393 7.99988 12.0002C7.99988 13.0611 8.4213 14.0785 9.17145 14.8286C9.92159 15.5788 10.939 16.0002 11.9999 16.0002C13.0607 16.0002 14.0782 15.5788 14.8283 14.8286C15.5784 14.0785 15.9999 13.0611 15.9999 12.0002Z" fill="#374957"/>
</svg>
