<svg width="24" height="24" viewBox="0 0 24 24" fill="none" xmlns="http://www.w3.org/2000/svg">
<g clip-path="url(#clip0_51_69380)">
<path d="M4.29441 21.8685C1.33782 21.1766 -0.498138 18.219 0.193691 15.2624C0.548862 13.7446 1.5316 12.4489 2.89744 11.6976C0.846472 7.79514 2.34746 2.96885 6.24999 0.91788C10.1525 -1.13309 14.9788 0.367896 17.0298 4.27043C17.3578 4.89457 17.6017 5.5594 17.755 6.24757C21.407 7.09075 23.983 10.3576 23.9515 14.1054C23.3266 13.4802 22.588 12.9803 21.7753 12.6326C21.2009 10.2323 19.2124 8.43035 16.7672 8.09454L16.0098 7.99474L15.91 7.23841C15.4718 3.96438 12.4625 1.66554 9.18853 2.10372C5.91455 2.54191 3.61566 5.55129 4.05385 8.82527C4.18786 9.82666 4.57341 10.7778 5.17444 11.5899L6.19922 13.0238C5.67005 12.9869 5.1383 13.0293 4.62164 13.1495C2.75916 13.6508 1.65567 15.567 2.15696 17.4296C2.42133 18.4119 3.10088 19.2301 4.01794 19.6703C3.96085 20.4141 4.05488 21.1619 4.29441 21.8685ZM23.9515 19.0107C23.9488 16.5594 22.168 14.4722 19.7477 14.0834C17.8698 7.62452 8.40741 9.42058 9.02208 16.134C6.88486 16.685 5.59903 18.8642 6.15005 21.0014C6.60164 22.7529 8.17332 23.9827 9.98199 23.9998H18.9624C21.7164 23.9965 23.9482 21.7647 23.9515 19.0107ZM11.6783 18.0129L11.2023 16.6798C9.66868 11.7705 17.1404 10.0393 17.9257 15.1342L18.0255 16.0223H19.0233C20.6745 16.1044 21.9465 17.5096 21.8643 19.1608C21.7868 20.7204 20.5233 21.9584 18.9624 22.0042H9.98199C8.87982 22.0042 7.98633 21.1107 7.98633 20.0086C7.98633 18.9064 8.87982 18.0129 9.98199 18.0129H11.6783V18.0129Z" fill="#374957"/>
</g>
<defs>
<clipPath id="clip0_51_69380">
<rect width="24" height="24" fill="white"/>
</clipPath>
</defs>
</svg>
