<svg width="24" height="24" viewBox="0 0 24 24" fill="none" xmlns="http://www.w3.org/2000/svg">
<g clip-path="url(#clip0_51_70690)">
<path d="M12.9995 14.1725V8.00049H10.9995V14.1725C10.3323 14.4084 9.76996 14.8725 9.41188 15.483C9.05381 16.0934 8.92305 16.8107 9.04272 17.5082C9.16239 18.2057 9.52479 18.8384 10.0659 19.2946C10.6069 19.7507 11.2918 20.0009 11.9995 20.0009C12.7072 20.0009 13.3921 19.7507 13.9332 19.2946C14.4742 18.8384 14.8366 18.2057 14.9563 17.5082C15.076 16.8107 14.9452 16.0934 14.5871 15.483C14.2291 14.8725 13.6667 14.4084 12.9995 14.1725V14.1725ZM16.9995 12.1115V5.00049C16.7885 -1.6085 7.20852 -1.5995 6.99952 5.00049V12.1115C6.03485 13.096 5.38232 14.3435 5.12377 15.6974C4.86521 17.0513 5.01213 18.4514 5.54611 19.7222C6.08009 20.993 6.97735 22.0778 8.12539 22.8406C9.27342 23.6035 10.6211 24.0104 11.9995 24.0104C13.3779 24.0104 14.7256 23.6035 15.8736 22.8406C17.0217 22.0778 17.9189 20.993 18.4529 19.7222C18.9869 18.4514 19.1338 17.0513 18.8753 15.6974C18.6167 14.3435 17.9642 13.096 16.9995 12.1115V12.1115ZM11.9995 22.0005C10.993 21.9892 10.0132 21.6755 9.18736 21.1001C8.36149 20.5247 7.72774 19.7143 7.36843 18.7741C7.00913 17.8339 6.94087 16.8073 7.17254 15.8278C7.40421 14.8483 7.92509 13.9611 8.66752 13.2815L8.99952 12.9815V5.00049C8.99952 4.20484 9.31559 3.44178 9.87819 2.87917C10.4408 2.31656 11.2039 2.00049 11.9995 2.00049C12.7952 2.00049 13.5582 2.31656 14.1208 2.87917C14.6834 3.44178 14.9995 4.20484 14.9995 5.00049V12.9835L15.3315 13.2835C16.0732 13.9633 16.5935 14.8503 16.8247 15.8295C17.056 16.8086 16.9875 17.8347 16.6283 18.7745C16.2691 19.7143 15.6357 20.5244 14.8102 21.0996C13.9848 21.6749 13.0055 21.9887 11.9995 22.0005V22.0005Z" fill="#374957"/>
</g>
<defs>
<clipPath id="clip0_51_70690">
<rect width="24" height="24" fill="white"/>
</clipPath>
</defs>
</svg>
