<svg width="24" height="24" viewBox="0 0 24 24" fill="none" xmlns="http://www.w3.org/2000/svg">
<path d="M23.0002 11.9999C23.0002 11.2043 22.6842 10.4412 22.1216 9.87863C21.559 9.31602 20.7959 8.99995 20.0002 8.99995H19.0002V5.99995H18.0002C17.9979 5.41386 17.8673 4.8354 17.6174 4.30524C17.3675 3.77509 17.0045 3.30612 16.5539 2.93131C16.1034 2.55651 15.5761 2.28498 15.0093 2.13582C14.4425 1.98666 13.85 1.96349 13.2732 2.06795C12.865 1.44573 12.3092 0.934135 11.6554 0.578709C11.0015 0.223283 10.27 0.0350615 9.52577 0.030805C8.78159 0.0265486 8.04791 0.20639 7.39005 0.554313C6.7322 0.902237 6.17059 1.40745 5.75524 2.02495C4.74112 2.0855 3.78821 2.53032 3.09057 3.26884C2.39293 4.00736 2.00302 4.98402 2.00024 5.99995H1.00024V21C1.00024 21.7956 1.31631 22.5587 1.87892 23.1213C2.44153 23.6839 3.20459 24 4.00024 24H16.0002C16.7959 24 17.559 23.6839 18.1216 23.1213C18.6842 22.5587 19.0002 21.7956 19.0002 21V19H23.0002V11.9999ZM6.00024 3.99995C6.05924 3.99995 6.91924 4.14195 6.91924 4.14195L7.23924 3.45395C7.44856 3.01186 7.78296 2.64088 8.20103 2.38697C8.6191 2.13306 9.10247 2.00736 9.59128 2.02546C10.0801 2.04356 10.5528 2.20464 10.951 2.48877C11.3491 2.7729 11.6552 3.16759 11.8312 3.62395L12.2082 4.62395L13.1802 4.18395C13.4842 4.04731 13.8175 3.9888 14.1498 4.01371C14.4821 4.03862 14.8029 4.14618 15.0831 4.32661C15.3633 4.50704 15.5939 4.75461 15.7541 5.04685C15.9143 5.33908 15.9989 5.6667 16.0002 5.99995H9.00024V13C9.00024 13.2652 8.89489 13.5195 8.70735 13.7071C8.51981 13.8946 8.26546 14 8.00024 14C7.73503 14 7.48067 13.8946 7.29314 13.7071C7.1056 13.5195 7.00024 13.2652 7.00024 13V5.99995H4.00024C4.00024 5.46952 4.21096 4.96081 4.58603 4.58574C4.9611 4.21066 5.46981 3.99995 6.00024 3.99995V3.99995ZM17.0002 21C17.0002 21.2652 16.8949 21.5195 16.7074 21.7071C16.5198 21.8946 16.2655 22 16.0002 22H4.00024C3.73503 22 3.48067 21.8946 3.29314 21.7071C3.1056 21.5195 3.00024 21.2652 3.00024 21V7.99995H5.00024V13C5.00024 13.7956 5.31631 14.5587 5.87892 15.1213C6.44153 15.6839 7.20459 16 8.00024 16C8.79589 16 9.55896 15.6839 10.1216 15.1213C10.6842 14.5587 11.0002 13.7956 11.0002 13V7.99995H17.0002V21ZM21.0002 17H19.0002V10.9999H20.0002C20.2655 10.9999 20.5198 11.1053 20.7074 11.2928C20.8949 11.4804 21.0002 11.7347 21.0002 11.9999V17Z" fill="#374957"/>
</svg>
