<svg width="24" height="24" viewBox="0 0 24 24" fill="none" xmlns="http://www.w3.org/2000/svg">
<g clip-path="url(#clip0_51_70697)">
<path d="M15.021 6.99977L15.357 4.95877C15.4451 4.41995 15.3867 3.86736 15.1878 3.35889C14.9889 2.85042 14.657 2.40479 14.2267 2.0687C13.7965 1.73261 13.2837 1.51842 12.7422 1.44859C12.2008 1.37875 11.6505 1.45584 11.149 1.67177C10.456 1.98278 9.89922 2.53455 9.582 3.22477L7.717 6.99977H3C2.20435 6.99977 1.44129 7.31584 0.87868 7.87845C0.316071 8.44106 0 9.20412 0 9.99977L0 18.9998C0 19.7954 0.316071 20.5585 0.87868 21.1211C1.44129 21.6837 2.20435 21.9998 3 21.9998H22.018L24 10.9628L24.016 6.99977H15.021ZM2 18.9998V9.99977C2 9.73455 2.10536 9.4802 2.29289 9.29266C2.48043 9.10513 2.73478 8.99977 3 8.99977H7V19.9998H3C2.73478 19.9998 2.48043 19.8944 2.29289 19.7069C2.10536 19.5193 2 19.265 2 18.9998V18.9998ZM22 10.6998L20.33 19.9998H9V8.90877L11.419 4.00877C11.5009 3.86056 11.6168 3.73391 11.7572 3.63922C11.8976 3.54454 12.0585 3.48453 12.2266 3.46412C12.3947 3.44372 12.5652 3.46351 12.7242 3.52186C12.8832 3.58021 13.026 3.67546 13.141 3.79977C13.2392 3.91402 13.3111 4.04854 13.3513 4.19374C13.3916 4.33894 13.3994 4.49124 13.374 4.63977L12.655 8.99977H22V10.6998Z" fill="#374957"/>
</g>
<defs>
<clipPath id="clip0_51_70697">
<rect width="24" height="24" fill="white"/>
</clipPath>
</defs>
</svg>
