<svg width="24" height="24" viewBox="0 0 24 24" fill="none" xmlns="http://www.w3.org/2000/svg">
<g clip-path="url(#clip0_51_82109)">
<path d="M23.9001 11.4372C23.5072 8.4126 21.9773 5.65112 19.6214 3.71402C17.2655 1.77693 14.2605 0.809592 11.217 1.00863C8.17347 1.20767 5.31996 2.55814 3.23644 4.78556C1.15291 7.01298 -0.00428024 9.95019 7.4054e-05 13.0002C-0.00569035 14.6327 0.325132 16.2489 0.971889 17.7478C1.61865 19.2468 2.56745 20.5963 3.75907 21.7122C4.67041 22.5559 5.87123 23.0171 7.11307 23.0002H16.8801C18.192 23.0033 19.4525 22.4899 20.3891 21.5712C21.7238 20.2726 22.7364 18.68 23.346 16.9204C23.9556 15.1609 24.1453 13.2831 23.9001 11.4372V11.4372ZM7.47207 19.6612C7.3853 19.7599 7.27994 19.8405 7.162 19.8984C7.04406 19.9563 6.91586 19.9904 6.78473 19.9988C6.65359 20.0072 6.5221 19.9896 6.39776 19.9471C6.27342 19.9046 6.15867 19.838 6.06007 19.7512C4.68566 18.5445 3.71184 16.9474 3.26851 15.173C2.82519 13.3986 2.93342 11.5312 3.57879 9.8199C4.22416 8.10859 5.37597 6.63474 6.8806 5.59493C8.38522 4.55513 10.1711 3.99881 12.0001 4.00018C12.7586 4.00041 13.5141 4.09548 14.2491 4.28318C14.3763 4.31601 14.4959 4.37359 14.6009 4.45261C14.7059 4.53164 14.7943 4.63058 14.861 4.74377C14.9278 4.85697 14.9716 4.9822 14.99 5.11233C15.0083 5.24246 15.0009 5.37493 14.9681 5.50218C14.9352 5.62943 14.8777 5.74897 14.7986 5.85397C14.7196 5.95897 14.6207 6.04738 14.5075 6.11415C14.3943 6.18091 14.2691 6.22473 14.1389 6.24309C14.0088 6.26146 13.8763 6.25401 13.7491 6.22118C12.2256 5.82631 10.6134 5.95682 9.17329 6.59162C7.73315 7.22642 6.54922 8.32839 5.81291 9.71937C5.0766 11.1103 4.83096 12.709 5.11571 14.2569C5.40045 15.8047 6.19895 17.2113 7.38207 18.2492C7.48075 18.336 7.56136 18.4413 7.61929 18.5593C7.67722 18.6772 7.71134 18.8054 7.7197 18.9365C7.72806 19.0677 7.71049 19.1992 7.668 19.3235C7.62551 19.4478 7.55893 19.5626 7.47207 19.6612V19.6612ZM12.0001 15.0002C11.7134 15.004 11.4292 14.9461 11.1669 14.8304C10.9046 14.7147 10.6701 14.544 10.4796 14.3298C10.289 14.1157 10.1467 13.863 10.0623 13.589C9.97789 13.315 9.95341 13.026 9.99049 12.7417C10.0276 12.4574 10.1253 12.1844 10.2772 11.9412C10.429 11.698 10.6313 11.4903 10.8705 11.3321C11.1096 11.174 11.38 11.0691 11.6632 11.0246C11.9465 10.9801 12.2359 10.997 12.5121 11.0742L16.2931 7.29318C16.3853 7.19767 16.4957 7.12149 16.6177 7.06908C16.7397 7.01667 16.8709 6.98909 17.0037 6.98793C17.1365 6.98678 17.2681 7.01208 17.391 7.06236C17.5139 7.11264 17.6256 7.18689 17.7195 7.28079C17.8134 7.37468 17.8876 7.48633 17.9379 7.60923C17.9882 7.73212 18.0135 7.8638 18.0123 7.99658C18.0112 8.12936 17.9836 8.26058 17.9312 8.38259C17.8788 8.50459 17.8026 8.61494 17.7071 8.70718L13.9261 12.4882C14.0095 12.784 14.0227 13.0951 13.9648 13.3969C13.9068 13.6987 13.7793 13.9828 13.5923 14.2266C13.4053 14.4705 13.1641 14.6674 12.8877 14.8017C12.6113 14.936 12.3073 15.0039 12.0001 15.0002V15.0002ZM17.9401 19.7512C17.7401 19.919 17.4825 20.002 17.2222 19.9825C16.9619 19.9629 16.7195 19.8423 16.5469 19.6465C16.3743 19.4506 16.2851 19.195 16.2984 18.9343C16.3117 18.6736 16.4264 18.4284 16.6181 18.2512C17.5904 17.3984 18.3072 16.2927 18.6887 15.0569C19.0703 13.8211 19.1015 12.5037 18.7791 11.2512C18.7128 10.9942 18.7513 10.7214 18.8861 10.4928C19.0209 10.2642 19.2411 10.0985 19.4981 10.0322C19.7551 9.96588 20.0279 10.0044 20.2565 10.1392C20.4851 10.2741 20.6508 10.4942 20.7171 10.7512C20.9048 11.4861 20.9999 12.2416 21.0001 13.0002C20.9986 14.2782 20.7249 15.5413 20.1973 16.7053C19.6697 17.8694 18.9002 18.9077 17.9401 19.7512V19.7512Z" fill="#374957"/>
</g>
<defs>
<clipPath id="clip0_51_82109">
<rect width="24" height="24" fill="white"/>
</clipPath>
</defs>
</svg>
