<svg width="24" height="24" viewBox="0 0 24 24" fill="none" xmlns="http://www.w3.org/2000/svg">
<g clip-path="url(#clip0_51_70167)">
<path d="M21 1.00031H11C10.2044 1.00031 9.44129 1.31638 8.87868 1.87898C8.31607 2.44159 8 3.20466 8 4.00031V14.0263C7.13961 13.3645 6.08547 13.004 5 13.0003C4.0111 13.0003 3.0444 13.2936 2.22215 13.843C1.39991 14.3924 0.759043 15.1733 0.380605 16.0869C0.00216642 17.0005 -0.0968503 18.0059 0.0960759 18.9758C0.289002 19.9457 0.765206 20.8366 1.46447 21.5358C2.16373 22.2351 3.05465 22.7113 4.02455 22.9042C4.99446 23.0972 5.99979 22.9981 6.91342 22.6197C7.82705 22.2413 8.60794 21.6004 9.15735 20.7782C9.70676 19.9559 10 18.9892 10 18.0003V4.00031C10 3.73509 10.1054 3.48073 10.2929 3.2932C10.4804 3.10566 10.7348 3.00031 11 3.00031H21C21.2652 3.00031 21.5196 3.10566 21.7071 3.2932C21.8946 3.48073 22 3.73509 22 4.00031V14.0263C21.1396 13.3645 20.0855 13.004 19 13.0003C18.0111 13.0003 17.0444 13.2936 16.2222 13.843C15.3999 14.3924 14.759 15.1733 14.3806 16.0869C14.0022 17.0005 13.9032 18.0059 14.0961 18.9758C14.289 19.9457 14.7652 20.8366 15.4645 21.5358C16.1637 22.2351 17.0546 22.7113 18.0246 22.9042C18.9945 23.0972 19.9998 22.9981 20.9134 22.6197C21.8271 22.2413 22.6079 21.6004 23.1574 20.7782C23.7068 19.9559 24 18.9892 24 18.0003V4.00031C24 3.20466 23.6839 2.44159 23.1213 1.87898C22.5587 1.31638 21.7957 1.00031 21 1.00031V1.00031ZM5 21.0003C4.40666 21.0003 3.82664 20.8244 3.33329 20.4947C2.83994 20.1651 2.45543 19.6965 2.22836 19.1484C2.0013 18.6002 1.94189 17.997 2.05765 17.415C2.1734 16.8331 2.45912 16.2985 2.87868 15.879C3.29824 15.4594 3.83279 15.1737 4.41473 15.0579C4.99668 14.9422 5.59988 15.0016 6.14805 15.2287C6.69623 15.4557 7.16477 15.8402 7.49441 16.3336C7.82406 16.8269 8 17.407 8 18.0003C8 18.796 7.68393 19.559 7.12132 20.1216C6.55871 20.6842 5.79565 21.0003 5 21.0003ZM19 21.0003C18.4067 21.0003 17.8266 20.8244 17.3333 20.4947C16.8399 20.1651 16.4554 19.6965 16.2284 19.1484C16.0013 18.6002 15.9419 17.997 16.0576 17.415C16.1734 16.8331 16.4591 16.2985 16.8787 15.879C17.2982 15.4594 17.8328 15.1737 18.4147 15.0579C18.9967 14.9422 19.5999 15.0016 20.1481 15.2287C20.6962 15.4557 21.1648 15.8402 21.4944 16.3336C21.8241 16.8269 22 17.407 22 18.0003C22 18.796 21.6839 19.559 21.1213 20.1216C20.5587 20.6842 19.7957 21.0003 19 21.0003Z" fill="#374957"/>
</g>
<defs>
<clipPath id="clip0_51_70167">
<rect width="24" height="24" fill="white"/>
</clipPath>
</defs>
</svg>
