<svg width="24" height="24" viewBox="0 0 24 24" fill="none" xmlns="http://www.w3.org/2000/svg">
<g clip-path="url(#clip0_51_81004)">
<path d="M22 12V3C22 2.20435 21.6839 1.44129 21.1213 0.87868C20.5587 0.31607 19.7956 0 19 0L5 0C4.20435 0 3.44129 0.31607 2.87868 0.87868C2.31607 1.44129 2 2.20435 2 3V12H22Z" fill="#374957"/>
<path d="M0 14.0006V16.0006H11V20.0006H9C8.20435 20.0006 7.44129 20.3167 6.87868 20.8793C6.31607 21.4419 6 22.205 6 23.0006V24.0006H8V23.0006C8 22.7354 8.10536 22.481 8.29289 22.2935C8.48043 22.106 8.73478 22.0006 9 22.0006H15C15.2652 22.0006 15.5196 22.106 15.7071 22.2935C15.8946 22.481 16 22.7354 16 23.0006V24.0006H18V23.0006C18 22.205 17.6839 21.4419 17.1213 20.8793C16.5587 20.3167 15.7956 20.0006 15 20.0006H13V16.0006H24V14.0006H0Z" fill="#374957"/>
</g>
<defs>
<clipPath id="clip0_51_81004">
<rect width="24" height="24" fill="white"/>
</clipPath>
</defs>
</svg>
