<svg width="24" height="24" viewBox="0 0 24 24" fill="none" xmlns="http://www.w3.org/2000/svg">
<g clip-path="url(#clip0_51_70514)">
<path d="M20.1222 13.293L18.7082 14.707L21.0002 17H20.6182C17.2342 17 15.0822 15.468 13.1722 13.492L12.8722 13.84C12.5442 14.22 12.2062 14.611 11.8542 15.004C14.0543 17.5514 17.2563 19.0122 20.6223 19.004H21.0002L18.7072 21.297L20.1212 22.711L23.4142 19.4179C24.195 18.637 24.195 17.371 23.4142 16.5899L20.1222 13.293Z" fill="#374957"/>
<path d="M20.6189 6.99992H20.9999L18.7079 9.29291L20.1219 10.7069L23.4149 7.41388C24.1957 6.63289 24.1957 5.36689 23.4149 4.58586L20.1219 1.29285L18.7079 2.70683L20.9999 4.99996H20.618C15.661 4.99996 12.9509 7.66996 10.492 10.478C8.06296 7.73493 5.14293 4.99996 -0.0400391 4.99996V6.99997C4.42396 6.99997 6.83296 9.33599 9.16898 12C6.83296 14.6639 4.42396 17 -0.0400391 17V19C5.76796 19 8.73595 15.564 11.36 12.534C13.814 9.68793 16.1369 6.99992 20.6189 6.99992Z" fill="#374957"/>
</g>
<defs>
<clipPath id="clip0_51_70514">
<rect width="24" height="24" fill="white"/>
</clipPath>
</defs>
</svg>
