<svg width="24" height="24" viewBox="0 0 24 24" fill="none" xmlns="http://www.w3.org/2000/svg">
<g clip-path="url(#clip0_51_80489)">
<path d="M9.35616 0L0.375161 19.759C0.16754 20.2159 0.0778811 20.7177 0.114396 21.2183C0.150911 21.7188 0.312432 22.2022 0.584167 22.6242C0.855903 23.0462 1.22917 23.3933 1.66978 23.6336C2.11039 23.874 2.60426 24 3.10616 24H11.0002V1.046L10.9932 0H9.35616ZM9.00016 22H3.10616C2.93876 22.0001 2.77401 21.9582 2.62701 21.8781C2.48001 21.798 2.35547 21.6823 2.2648 21.5416C2.17414 21.4009 2.12025 21.2396 2.10808 21.0727C2.09592 20.9057 2.12586 20.7384 2.19516 20.586L9.00016 5.616V22Z" fill="#374957"/>
<path d="M23.625 19.759L14.93 0.628L14.626 0H13V24H20.894C21.3959 24 21.8898 23.874 22.3304 23.6336C22.771 23.3933 23.1442 23.0462 23.416 22.6242C23.6877 22.2022 23.8492 21.7188 23.8858 21.2183C23.9223 20.7177 23.8326 20.2159 23.625 19.759Z" fill="#374957"/>
</g>
<defs>
<clipPath id="clip0_51_80489">
<rect width="24" height="24" fill="white"/>
</clipPath>
</defs>
</svg>
