<svg width="24" height="24" viewBox="0 0 24 24" fill="none" xmlns="http://www.w3.org/2000/svg">
<g clip-path="url(#clip0_51_79968)">
<path d="M2 14H24V22H22V19H2V22H0V2.00003H2V14ZM5.5 12C5.99445 12 6.4778 11.8534 6.88893 11.5787C7.30005 11.304 7.62048 10.9136 7.8097 10.4567C7.99892 9.99993 8.04843 9.49726 7.95196 9.01231C7.8555 8.52735 7.6174 8.0819 7.26777 7.73226C6.91814 7.38263 6.47268 7.14453 5.98773 7.04807C5.50277 6.9516 5.00011 7.00111 4.54329 7.19033C4.08648 7.37955 3.69603 7.69998 3.42133 8.11111C3.14662 8.52223 3 9.00558 3 9.50003C3 9.82834 3.06466 10.1534 3.1903 10.4567C3.31594 10.7601 3.50009 11.0357 3.73223 11.2678C4.20107 11.7366 4.83696 12 5.5 12V12ZM21 6.00003H12C11.2044 6.00003 10.4413 6.3161 9.87868 6.87871C9.31607 7.44132 9 8.20438 9 9.00003V12H24V9.00003C24 8.20438 23.6839 7.44132 23.1213 6.87871C22.5587 6.3161 21.7956 6.00003 21 6.00003Z" fill="#374957"/>
</g>
<defs>
<clipPath id="clip0_51_79968">
<rect width="24" height="24" fill="white"/>
</clipPath>
</defs>
</svg>
