<svg width="24" height="24" viewBox="0 0 24 24" fill="none" xmlns="http://www.w3.org/2000/svg">
<g clip-path="url(#clip0_51_82306)">
<path d="M16.3392 2.97485C16.9752 2.11585 18.9622 1.43885 20.3832 1.04685C20.5708 0.993976 20.768 0.984902 20.9596 1.02033C21.1513 1.05576 21.3322 1.13475 21.4884 1.25119C21.6447 1.36764 21.7721 1.51843 21.8609 1.69193C21.9496 1.86543 21.9973 2.057 22.0002 2.25185C22.0282 3.74485 21.9442 5.88085 21.3002 6.74385C21.0586 7.07292 20.7539 7.35058 20.4038 7.56067C20.0537 7.77076 19.6654 7.90906 19.2613 7.96751C18.8573 8.02596 18.4456 8.0034 18.0504 7.90113C17.6551 7.79887 17.2842 7.61894 16.9592 7.37185C16.3004 6.86634 15.8663 6.12241 15.7503 5.3001C15.6344 4.4778 15.8458 3.64284 16.3392 2.97485V2.97485ZM16.5202 19.0529C17.4802 19.177 18.3624 19.6457 19.0026 20.3718C19.6428 21.0979 19.9973 22.0319 20.0002 22.9999C20.0002 23.2651 19.8949 23.5194 19.7073 23.707C19.5198 23.8945 19.2654 23.9999 19.0002 23.9999C18.735 23.9999 18.4807 23.8945 18.2931 23.707C18.1056 23.5194 18.0002 23.2651 18.0002 22.9999C18.0002 22.4694 17.7895 21.9607 17.4144 21.5856C17.0394 21.2106 16.5307 20.9999 16.0002 20.9999H14.3002C14.4829 21.2001 14.646 21.4175 14.7872 21.6489C14.9267 21.8819 15.001 22.1482 15.0024 22.4198C15.0038 22.6914 14.9322 22.9583 14.7952 23.1929C14.6563 23.4376 14.4551 23.6411 14.212 23.7829C13.9689 23.9246 13.6926 23.9995 13.4112 23.9999H10.5892C10.3082 23.9991 10.0323 23.9241 9.78961 23.7824C9.54691 23.6406 9.34599 23.4373 9.20723 23.1929C9.07022 22.9583 8.99869 22.6914 9.0001 22.4198C9.00151 22.1482 9.0758 21.8819 9.21523 21.6489C9.48197 21.2121 9.81648 20.8205 10.2062 20.4889C6.63523 19.2779 0.000228776 16.1199 0.000228776 12.0769C-0.00475075 11.671 0.0716039 11.2682 0.224789 10.8923C0.377973 10.5164 0.604886 10.175 0.892141 9.88821C1.1794 9.60142 1.52118 9.37506 1.89732 9.22249C2.27347 9.06992 2.67636 8.99422 3.08223 8.99985H20.9182C21.3241 8.99422 21.727 9.06992 22.1031 9.22249C22.4793 9.37506 22.8211 9.60142 23.1083 9.88821C23.3956 10.175 23.6225 10.5164 23.7757 10.8923C23.9289 11.2682 24.0052 11.671 24.0002 12.0769C24.0002 15.3359 19.9212 17.6999 16.5202 19.0529ZM16.2322 13.0289C15.9752 12.9687 15.7047 13.0126 15.4799 13.151C15.2551 13.2895 15.0942 13.5112 15.0322 13.7679C14.4379 15.6114 13.3963 17.2791 12.0002 18.6219C10.606 17.2785 9.56607 15.6109 8.97323 13.7679C8.9121 13.5097 8.7509 13.2863 8.52511 13.147C8.29932 13.0077 8.02742 12.9637 7.76923 13.0249C7.51104 13.086 7.28771 13.2472 7.14837 13.473C7.00903 13.6988 6.9651 13.9707 7.02623 14.2289C7.05523 14.3519 7.52623 17.1209 11.1942 20.6139C11.4092 20.8332 11.6946 20.9699 12.0002 20.9999C12.4102 20.9999 13.3252 20.1289 13.3252 20.1289C14.9538 18.4492 16.1988 16.4362 16.9742 14.2289C17.0343 13.9714 16.99 13.7006 16.8509 13.4757C16.7119 13.2508 16.4894 13.0902 16.2322 13.0289V13.0289ZM12.0002 7.99985C12.8709 7.99985 13.706 7.65397 14.3217 7.03829C14.9373 6.4226 15.2832 5.58756 15.2832 4.71685C15.2832 3.58785 14.0112 1.74485 13.0512 0.516854C12.9265 0.357435 12.7672 0.228499 12.5853 0.139825C12.4033 0.0511504 12.2036 0.00506592 12.0012 0.00506592C11.7988 0.00506592 11.5991 0.0511504 11.4172 0.139825C11.2353 0.228499 11.0759 0.357435 10.9512 0.516854C9.99123 1.74885 8.71923 3.59185 8.71923 4.71685C8.71923 5.58721 9.06484 6.42195 9.68009 7.03758C10.2953 7.6532 11.1299 7.99932 12.0002 7.99985V7.99985ZM7.04123 7.37185C7.70094 6.86628 8.13561 6.12175 8.25159 5.29872C8.36756 4.47569 8.15554 3.64005 7.66123 2.97185C7.02523 2.11285 5.03823 1.43585 3.61723 1.04385C3.43039 0.991983 3.23416 0.983517 3.04354 1.0191C2.85292 1.05469 2.67296 1.13338 2.51742 1.24917C2.36188 1.36496 2.23487 1.51478 2.14609 1.68718C2.05732 1.85957 2.00914 2.04998 2.00523 2.24385C1.97723 3.73685 2.06123 5.87285 2.70523 6.73585C2.94624 7.06481 3.25026 7.34256 3.59961 7.55295C3.94895 7.76334 4.33664 7.90216 4.74012 7.96134C5.1436 8.02052 5.55483 7.99889 5.94987 7.89769C6.34492 7.79648 6.7159 7.61774 7.04123 7.37185V7.37185Z" fill="#374957"/>
</g>
<defs>
<clipPath id="clip0_51_82306">
<rect width="24" height="24" fill="white"/>
</clipPath>
</defs>
</svg>
