<svg width="24" height="24" viewBox="0 0 24 24" fill="none" xmlns="http://www.w3.org/2000/svg">
<g clip-path="url(#clip0_51_71597)">
<path d="M16.0001 16C16.0001 16.2652 15.8948 16.5195 15.7072 16.7071C15.5197 16.8946 15.2653 17 15.0001 17H13.0001V19C13.0001 19.2652 12.8948 19.5195 12.7072 19.7071C12.5197 19.8946 12.2653 20 12.0001 20C11.7349 20 11.4806 19.8946 11.293 19.7071C11.1055 19.5195 11.0001 19.2652 11.0001 19V17H9.00012C8.73491 17 8.48055 16.8946 8.29302 16.7071C8.10548 16.5195 8.00012 16.2652 8.00012 16C8.00012 15.7347 8.10548 15.4804 8.29302 15.2929C8.48055 15.1053 8.73491 15 9.00012 15H11.0001V13C11.0001 12.7347 11.1055 12.4804 11.293 12.2929C11.4806 12.1053 11.7349 12 12.0001 12C12.2653 12 12.5197 12.1053 12.7072 12.2929C12.8948 12.4804 13.0001 12.7347 13.0001 13V15H15.0001C15.2653 15 15.5197 15.1053 15.7072 15.2929C15.8948 15.4804 16.0001 15.7347 16.0001 16ZM22.0001 10.485V19C21.9985 20.3256 21.4712 21.5964 20.5339 22.5337C19.5966 23.4711 18.3257 23.9984 17.0001 24H7.00012C5.67453 23.9984 4.40368 23.4711 3.46634 22.5337C2.529 21.5964 2.00171 20.3256 2.00012 19V4.99996C2.00171 3.67437 2.529 2.40352 3.46634 1.46618C4.40368 0.528844 5.67453 0.00154987 7.00012 -3.79865e-05H11.5151C12.4347 -0.00240491 13.3457 0.17755 14.1953 0.529421C15.045 0.881293 15.8164 1.3981 16.4651 2.04996L19.9491 5.53596C20.6014 6.1842 21.1185 6.95542 21.4705 7.80494C21.8226 8.65445 22.0026 9.56538 22.0001 10.485V10.485ZM15.0511 3.46396C14.7364 3.15912 14.3831 2.89689 14.0001 2.68396V6.99996C14.0001 7.26518 14.1055 7.51953 14.293 7.70707C14.4806 7.8946 14.7349 7.99996 15.0001 7.99996H19.3161C19.1031 7.61715 18.8405 7.26411 18.5351 6.94996L15.0511 3.46396ZM20.0001 10.485C20.0001 10.32 19.9681 10.162 19.9531 9.99996H15.0001C14.2045 9.99996 13.4414 9.68389 12.8788 9.12128C12.3162 8.55867 12.0001 7.79561 12.0001 6.99996V2.04696C11.8381 2.03196 11.6791 1.99996 11.5151 1.99996H7.00012C6.20447 1.99996 5.44141 2.31603 4.8788 2.87864C4.31619 3.44125 4.00012 4.20431 4.00012 4.99996V19C4.00012 19.7956 4.31619 20.5587 4.8788 21.1213C5.44141 21.6839 6.20447 22 7.00012 22H17.0001C17.7958 22 18.5588 21.6839 19.1214 21.1213C19.6841 20.5587 20.0001 19.7956 20.0001 19V10.485Z" fill="#374957"/>
</g>
<defs>
<clipPath id="clip0_51_71597">
<rect width="24" height="24" fill="white"/>
</clipPath>
</defs>
</svg>
