<svg width="24" height="24" viewBox="0 0 24 24" fill="none" xmlns="http://www.w3.org/2000/svg">
<g clip-path="url(#clip0_51_82363)">
<path d="M23.3 22.5709L18.842 23.9549C18.5888 24.0336 18.3146 24.0086 18.0798 23.8852C17.845 23.7618 17.6688 23.5502 17.59 23.2969C17.5113 23.0436 17.5363 22.7694 17.6597 22.5346C17.7831 22.2998 17.9948 22.1236 18.248 22.0449L19.492 21.6589L18.574 18.9589C18.3813 18.9837 18.1873 18.997 17.993 18.9989C16.9021 18.9966 15.8419 18.6376 14.974 17.9766C14.1061 17.3156 13.4782 16.389 13.186 15.3379L13.059 14.9629L14.059 11.9979H22.6L22.8 12.6049C23.117 13.6817 23.0588 14.8343 22.6349 15.8737C22.211 16.9131 21.4467 17.7778 20.467 18.3259L21.398 21.0629L22.698 20.6629C22.9513 20.5841 23.2255 20.6092 23.4603 20.7326C23.6951 20.856 23.8713 21.0676 23.95 21.3209C24.0288 21.5742 24.0037 21.8484 23.8803 22.0831C23.7569 22.3179 23.5453 22.4941 23.292 22.5729L23.3 22.5709ZM14.656 9.99987H21.923L20.957 7.13187C20.7251 6.38442 20.2123 5.75606 19.5265 5.37896C18.8408 5.00185 18.0355 4.90539 17.28 5.10987L13.756 6.09187C13.8991 6.2732 14.0297 6.46397 14.147 6.66287C14.7036 7.68082 14.8838 8.86228 14.656 9.99987V9.99987ZM10.572 6.18387L6.71904 5.10987C5.9691 4.90301 5.1682 4.99473 4.48445 5.36578C3.80071 5.73684 3.28731 6.35836 3.05204 7.09987L2.07804 9.99987H12.619L12.639 9.94087C12.7545 9.55851 12.7924 9.15695 12.7506 8.75975C12.7087 8.36254 12.588 7.97768 12.3955 7.62775C12.203 7.27781 11.9425 6.96984 11.6294 6.7219C11.3163 6.47396 10.9568 6.29104 10.572 6.18387V6.18387ZM1.18504 12.6569C0.881054 13.7318 0.949137 14.8779 1.37824 15.9093C1.80734 16.9406 2.5723 17.7968 3.54904 18.3389L2.60504 21.0669L1.30004 20.6609C1.17462 20.6215 1.04268 20.6072 0.911737 20.6188C0.780794 20.6304 0.653418 20.6676 0.536881 20.7285C0.420343 20.7893 0.316926 20.8725 0.232536 20.9732C0.148145 21.074 0.0844321 21.1905 0.0450355 21.3159C0.00563893 21.4413 -0.00867006 21.5732 0.00292551 21.7042C0.0145211 21.8351 0.0517941 21.9625 0.112616 22.079C0.173439 22.1956 0.256619 22.299 0.357409 22.3834C0.458199 22.4678 0.574623 22.5315 0.700036 22.5709L5.15804 23.9549C5.41132 24.0336 5.68552 24.0086 5.92031 23.8852C6.15511 23.7618 6.33127 23.5502 6.41004 23.2969C6.4888 23.0436 6.46373 22.7694 6.34033 22.5346C6.21693 22.2998 6.00532 22.1236 5.75204 22.0449L4.51604 21.6599L5.45104 18.9599C5.63647 18.9837 5.8231 18.997 6.01004 18.9999C7.0912 18.9972 8.14238 18.6442 9.00597 17.9937C9.86956 17.3432 10.499 16.4303 10.8 15.3919L11.945 11.9999H1.40604L1.18504 12.6569ZM15.553 3.89987C15.6711 3.95923 15.7998 3.9946 15.9316 4.00394C16.0634 4.01328 16.1958 3.9964 16.321 3.95428C16.4463 3.91216 16.5619 3.84562 16.6613 3.75853C16.7607 3.67144 16.8418 3.56551 16.9 3.44687L17.9 1.44687C18.0186 1.2095 18.038 0.934759 17.954 0.683085C17.87 0.431411 17.6894 0.22342 17.452 0.104868C17.2147 -0.0136833 16.9399 -0.0330851 16.6883 0.0509312C16.4366 0.134947 16.2286 0.3155 16.11 0.552868L15.11 2.55287C15.0503 2.67033 15.0144 2.79844 15.0044 2.92982C14.9943 3.06121 15.0103 3.19329 15.0515 3.31846C15.0927 3.44364 15.1582 3.55944 15.2442 3.65922C15.3303 3.759 15.4353 3.84078 15.553 3.89987V3.89987ZM7.10504 3.44687C7.22359 3.6849 7.43184 3.86609 7.68398 3.95057C7.80883 3.99241 7.9407 4.00924 8.07205 4.00011C8.2034 3.99098 8.33167 3.95607 8.44954 3.89737C8.5674 3.83867 8.67254 3.75733 8.75897 3.65799C8.84539 3.55865 8.91141 3.44327 8.95324 3.31842C8.99507 3.19357 9.01191 3.06171 9.00278 2.93035C8.99365 2.799 8.95874 2.67073 8.90003 2.55287L7.90004 0.552868C7.84133 0.435335 7.76006 0.330515 7.66085 0.244393C7.56164 0.15827 7.44644 0.0925318 7.32182 0.0509312C7.07015 -0.0330851 6.7954 -0.0136833 6.55804 0.104868C6.32067 0.22342 6.14011 0.431411 6.0561 0.683085C5.97208 0.934759 5.99148 1.2095 6.11004 1.44687L7.10504 3.44687ZM12 -0.000131526C11.7348 -0.000131526 11.4805 0.105225 11.2929 0.292762C11.1054 0.480298 11 0.734652 11 0.999869V2.99987C11 3.26509 11.1054 3.51944 11.2929 3.70698C11.4805 3.89451 11.7348 3.99987 12 3.99987C12.2653 3.99987 12.5196 3.89451 12.7071 3.70698C12.8947 3.51944 13 3.26509 13 2.99987V0.999869C13 0.734652 12.8947 0.480298 12.7071 0.292762C12.5196 0.105225 12.2653 -0.000131526 12 -0.000131526V-0.000131526Z" fill="#374957"/>
</g>
<defs>
<clipPath id="clip0_51_82363">
<rect width="24" height="24" fill="white"/>
</clipPath>
</defs>
</svg>
