<svg width="24" height="24" viewBox="0 0 24 24" fill="none" xmlns="http://www.w3.org/2000/svg">
<g clip-path="url(#clip0_51_69212)">
<path d="M8 20.1489V23.9999H16V20.3149C15.9804 19.4625 16.1426 18.6157 16.4757 17.8308C16.8088 17.046 17.3053 16.341 17.932 15.7629C19.2999 14.564 20.2724 12.9786 20.7213 11.2159C21.1702 9.45319 21.0744 7.59582 20.4466 5.88861C19.8188 4.1814 18.6884 2.70449 17.2045 1.65254C15.7206 0.60059 13.9527 0.0229815 12.1339 -0.00415542C10.3151 -0.0312924 8.53081 0.493316 7.01614 1.50053C5.50148 2.50773 4.32755 3.95026 3.6491 5.63798C2.97065 7.3257 2.81952 9.17939 3.21562 10.9547C3.61173 12.73 4.53648 14.3437 5.868 15.5829C6.5202 16.1549 7.04648 16.8561 7.41348 17.6421C7.78048 18.428 7.98021 19.2817 8 20.1489V20.1489ZM14 21.9999H10V20.1489C10 20.0989 9.993 20.0489 9.992 19.9999H14.016C14.016 20.1049 14 20.2089 14 20.3149V21.9999ZM5.06 8.07494C5.20866 6.95312 5.62708 5.88406 6.27941 4.95937C6.93173 4.03468 7.79852 3.28192 8.80549 2.7656C9.81247 2.24928 10.9296 1.98479 12.0612 1.99479C13.1928 2.00479 14.3051 2.28899 15.3028 2.82303C16.3005 3.35706 17.1538 4.12502 17.7897 5.06109C18.4256 5.99717 18.825 7.07346 18.9538 8.19773C19.0826 9.322 18.937 10.4607 18.5293 11.5164C18.1216 12.572 17.4641 13.5131 16.613 14.2589C15.5 15.2555 14.7029 16.5559 14.32 17.9999H13V10.8159C13.5829 10.6099 14.0879 10.2287 14.4459 9.72464C14.8039 9.22057 14.9974 8.6182 15 7.99994H13C13 8.26516 12.8946 8.51951 12.7071 8.70705C12.5196 8.89458 12.2652 8.99994 12 8.99994C11.7348 8.99994 11.4804 8.89458 11.2929 8.70705C11.1054 8.51951 11 8.26516 11 7.99994H9C9.00256 8.6182 9.19608 9.22057 9.55408 9.72464C9.91209 10.2287 10.4171 10.6099 11 10.8159V17.9999H9.678C9.22699 16.5092 8.38111 15.1681 7.23 14.1189C6.40954 13.3598 5.78399 12.4142 5.40627 11.3622C5.02855 10.3101 4.90978 9.18259 5.06 8.07494V8.07494Z" fill="#374957"/>
</g>
<defs>
<clipPath id="clip0_51_69212">
<rect width="24" height="24" fill="white"/>
</clipPath>
</defs>
</svg>
