<svg width="24" height="24" viewBox="0 0 24 24" fill="none" xmlns="http://www.w3.org/2000/svg">
<g clip-path="url(#clip0_51_70150)">
<path d="M14 24.0003C10.8185 23.9969 7.76821 22.7315 5.51851 20.4818C3.26882 18.2321 2.00344 15.1819 1.99999 12.0003C1.84699 3.04432 12.031 -2.98468 19.791 1.50932L21.344 2.37132L19.801 3.25132C13.101 6.93932 13.591 17.1213 20.601 20.1573L22.222 20.8883L20.755 21.8943C18.7684 23.2638 16.4129 23.9981 14 24.0003V24.0003ZM14 2.00032C11.3487 2.00323 8.80688 3.05774 6.93214 4.93247C5.05741 6.8072 4.00291 9.34905 3.99999 12.0003C3.84499 19.1173 11.763 24.2003 18.155 21.0823C16.6585 20.078 15.418 18.7373 14.5327 17.1675C13.6474 15.5977 13.142 13.8424 13.0568 12.0422C12.9717 10.242 13.3092 8.44689 14.0424 6.80054C14.7755 5.15419 15.884 3.70237 17.279 2.56132C16.2262 2.18777 15.1171 1.998 14 2.00032V2.00032Z" fill="#374957"/>
</g>
<defs>
<clipPath id="clip0_51_70150">
<rect width="24" height="24" fill="white"/>
</clipPath>
</defs>
</svg>
