<svg width="24" height="24" viewBox="0 0 24 24" fill="none" xmlns="http://www.w3.org/2000/svg">
<g clip-path="url(#clip0_51_81623)">
<path d="M12.0001 24C11.8032 24.0003 11.6082 23.9617 11.4263 23.8864C11.2444 23.811 11.0791 23.7004 10.9401 23.561L3.26414 15.889C2.23275 14.8575 1.65332 13.4586 1.65332 12C1.65332 10.5413 2.23275 9.14242 3.26414 8.11098L10.9361 0.438975C11.2175 0.157712 11.5991 -0.000246314 11.997 -0.000152546C12.3948 -5.8778e-05 12.7764 0.15808 13.0576 0.439475C13.3389 0.720869 13.4969 1.10247 13.4968 1.50033C13.4967 1.89819 13.3385 2.27971 13.0571 2.56097L5.38514 10.232C5.15293 10.4641 4.96872 10.7398 4.84304 11.0431C4.71736 11.3465 4.65268 11.6716 4.65268 12C4.65268 12.3283 4.71736 12.6535 4.84304 12.9568C4.96872 13.2602 5.15293 13.5358 5.38514 13.768L13.0571 21.439C13.2668 21.6485 13.4097 21.9155 13.4678 22.2062C13.5258 22.4969 13.4965 22.7982 13.3834 23.0722C13.2703 23.3463 13.0785 23.5806 12.8323 23.7457C12.5862 23.9109 12.2966 23.9993 12.0001 24V24Z" fill="#374957"/>
<path d="M21.5421 24C21.3451 24.0001 21.15 23.9614 20.968 23.8861C20.7859 23.8107 20.6205 23.7003 20.4811 23.561L11.4001 14.475C10.7449 13.818 10.377 12.9279 10.377 12C10.377 11.0721 10.7449 10.1821 11.4001 9.52502L20.4811 0.439016C20.7651 0.170803 21.1425 0.0239342 21.533 0.0296402C21.9236 0.0353462 22.2965 0.193176 22.5725 0.469571C22.8485 0.745965 23.0059 1.11912 23.011 1.50969C23.0162 1.90026 22.8688 2.27744 22.6001 2.56102L13.5141 11.646C13.4676 11.6925 13.4306 11.7476 13.4054 11.8084C13.3802 11.8691 13.3672 11.9342 13.3672 12C13.3672 12.0658 13.3802 12.1309 13.4054 12.1916C13.4306 12.2524 13.4676 12.3076 13.5141 12.354L22.6001 21.439C22.8099 21.6486 22.9528 21.9157 23.0108 22.2065C23.0688 22.4972 23.0394 22.7987 22.9262 23.0727C22.813 23.3468 22.6211 23.5811 22.3747 23.7462C22.1284 23.9112 21.8387 23.9996 21.5421 24V24Z" fill="#374957"/>
</g>
<defs>
<clipPath id="clip0_51_81623">
<rect width="24" height="24" fill="white"/>
</clipPath>
</defs>
</svg>
