<svg width="24" height="24" viewBox="0 0 24 24" fill="none" xmlns="http://www.w3.org/2000/svg">
<g clip-path="url(#clip0_51_69169)">
<path d="M20.0002 0H5.00024C4.20459 0 3.44153 0.31607 2.87892 0.87868C2.31631 1.44129 2.00024 2.20435 2.00024 3V21C2.00024 21.7956 2.31631 22.5587 2.87892 23.1213C3.44153 23.6839 4.20459 24 5.00024 24H22.0002V2C22.0002 1.46957 21.7895 0.960859 21.4145 0.585786C21.0394 0.210714 20.5307 0 20.0002 0V0ZM20.0002 18H8.00024V2H20.0002V18ZM5.00024 2H6.00024V18H5.01724C4.66998 18.003 4.32587 18.0663 4.00024 18.187V3C4.00024 2.73478 4.1056 2.48043 4.29314 2.29289C4.48067 2.10536 4.73503 2 5.00024 2ZM5.00024 22C4.73641 22 4.48326 21.8957 4.29595 21.7099C4.10864 21.5241 4.00235 21.2718 4.00024 21.008H4.01524C4.01419 20.876 4.03927 20.7451 4.08906 20.6229C4.13884 20.5006 4.21233 20.3894 4.30529 20.2957C4.39826 20.202 4.50885 20.1276 4.6307 20.0769C4.75255 20.0261 4.88325 20 5.01524 20H20.0002V22H5.00024Z" fill="#374957"/>
</g>
<defs>
<clipPath id="clip0_51_69169">
<rect width="24" height="24" fill="white"/>
</clipPath>
</defs>
</svg>
