<svg width="24" height="24" viewBox="0 0 24 24" fill="none" xmlns="http://www.w3.org/2000/svg">
<g clip-path="url(#clip0_51_70254)">
<path d="M21.2611 2.73885C19.5446 1.07938 17.2831 0.100908 14.8983 -0.0140889C12.5135 -0.129086 10.1684 0.627245 8.30012 2.11385C7.89476 1.4634 7.32961 0.927573 6.65852 0.557402C5.98742 0.18723 5.23272 -0.00495454 4.46631 -0.000844492C3.6999 0.00326556 2.94731 0.203533 2.28022 0.580881C1.61313 0.958229 1.05376 1.50009 0.655398 2.15485C0.257037 2.80961 0.0329487 3.55545 0.00447985 4.32135C-0.023989 5.08724 0.14411 5.84766 0.492763 6.53019C0.841417 7.21271 1.35901 7.79461 1.99625 8.22044C2.63348 8.64627 3.36913 8.90186 4.13312 8.96285C3.81005 10.9421 4.1044 12.9728 4.97612 14.7789C5.02703 14.871 5.04665 14.9771 5.03205 15.0814C5.01744 15.1856 4.96939 15.2823 4.89512 15.3569L1.28212 18.1569C0.911951 18.4465 0.60661 18.8105 0.385796 19.2255C0.164981 19.6404 0.0335978 20.097 0.00012072 20.5659C-0.0176548 20.9643 0.0491695 21.362 0.196194 21.7327C0.343218 22.1035 0.567108 22.4389 0.853121 22.7169L1.29812 23.1389C1.57299 23.4225 1.90409 23.6456 2.27019 23.7939C2.63629 23.9421 3.02933 24.0123 3.42412 23.9999C3.85214 23.992 4.27336 23.8914 4.6587 23.7049C5.04405 23.5185 5.38435 23.2506 5.65612 22.9199L8.61412 19.1409C8.68685 19.0574 8.78522 19.0004 8.8938 18.9789C9.00239 18.9574 9.11505 18.9725 9.21412 19.0219C11.1387 19.9242 13.2973 20.2024 15.3878 19.8174C17.4783 19.4325 19.3962 18.4036 20.8731 16.8749C22.7876 14.9899 23.9067 12.4429 24.0001 9.75785C24.0516 8.46234 23.8349 7.17015 23.3636 5.96232C22.8923 4.75449 22.1765 3.65706 21.2611 2.73885V2.73885ZM2.00012 4.49985C2.00012 4.0054 2.14674 3.52205 2.42145 3.11093C2.69615 2.6998 3.0866 2.37937 3.54341 2.19015C4.00023 2.00093 4.50289 1.95143 4.98785 2.04789C5.4728 2.14435 5.91826 2.38245 6.26789 2.73208C6.61752 3.08172 6.85562 3.52717 6.95208 4.01213C7.04855 4.49708 6.99904 4.99974 6.80982 5.45656C6.6206 5.91338 6.30017 6.30382 5.88905 6.57853C5.47792 6.85323 4.99457 6.99985 4.50012 6.99985C3.83708 6.99985 3.2012 6.73646 2.73235 6.26762C2.26351 5.79878 2.00012 5.16289 2.00012 4.49985V4.49985ZM10.1001 17.2259C9.59403 16.9767 9.01852 16.9059 8.46716 17.0252C7.91579 17.1445 7.42097 17.4468 7.06312 17.8829L4.10012 21.6629C4.01462 21.7645 3.90866 21.847 3.78913 21.9049C3.66961 21.9629 3.53921 21.995 3.40645 21.9991C3.27369 22.0033 3.14154 21.9794 3.01863 21.929C2.89572 21.8787 2.7848 21.803 2.69312 21.7069L2.24912 21.2849C2.16513 21.2036 2.09947 21.1054 2.05652 20.9968C2.01358 20.8881 1.99435 20.7715 2.00012 20.6549C2.02043 20.4694 2.07835 20.29 2.17033 20.1277C2.26232 19.9654 2.38645 19.8236 2.53512 19.7109L6.14712 16.9109C6.57321 16.5513 6.8663 16.0591 6.97944 15.5132C7.09258 14.9672 7.01922 14.3991 6.77112 13.8999C6.11443 12.5326 5.87413 11.0025 6.08012 9.49985L14.5001 17.9129C12.9978 18.1228 11.4669 17.8838 10.1001 17.2259V17.2259ZM19.4641 15.4609C18.6666 16.2516 17.7241 16.8811 16.6881 17.3149L16.7101 17.2929L7.36012 7.94485C7.87059 7.52708 8.28233 7.00157 8.56586 6.40599C8.84939 5.8104 8.99769 5.15948 9.00012 4.49985C9.00012 4.38085 8.97412 4.26885 8.96512 4.15285C10.4456 2.78249 12.3887 2.02125 14.4061 2.02125C16.4235 2.02125 18.3666 2.78249 19.8471 4.15285C20.5692 4.87894 21.1332 5.74657 21.5037 6.70119C21.8743 7.6558 22.0433 8.67676 22.0001 9.69985C21.9224 11.8744 21.0136 13.9363 19.4611 15.4609H19.4641Z" fill="#374957"/>
</g>
<defs>
<clipPath id="clip0_51_70254">
<rect width="24" height="24" fill="white"/>
</clipPath>
</defs>
</svg>
