<svg width="24" height="24" viewBox="0 0 24 24" fill="none" xmlns="http://www.w3.org/2000/svg">
<g clip-path="url(#clip0_51_79838)">
<path d="M3.12048 11.293L13.0125 1.4L11.5995 -0.0130005L1.70648 9.879C1.14407 10.4416 0.828125 11.2045 0.828125 12C0.828125 12.7955 1.14407 13.5584 1.70648 14.121L11.5915 24.006L13.0055 22.592L3.12148 12.707C2.93388 12.5196 2.82839 12.2654 2.8282 12.0002C2.82801 11.735 2.93315 11.4807 3.12048 11.293V11.293Z" fill="#374957"/>
<path d="M22.9998 1.417L21.5828 0L10.2928 11.29C10.1053 11.4775 10 11.7318 10 11.997C10 12.2622 10.1053 12.5165 10.2928 12.704L21.5838 24L22.9998 22.584L12.4138 12L22.9998 1.417Z" fill="#374957"/>
</g>
<defs>
<clipPath id="clip0_51_79838">
<rect width="24" height="24" fill="white"/>
</clipPath>
</defs>
</svg>
