<svg width="24" height="24" viewBox="0 0 24 24" fill="none" xmlns="http://www.w3.org/2000/svg">
<g clip-path="url(#clip0_51_71526)">
<path d="M21.5 2.50001C19.8937 0.908417 17.7239 0.0155029 15.4625 0.0155029C13.2012 0.0155029 11.0314 0.908417 9.42505 2.50001C7.04804 4.877 6.26804 10.409 6.01504 13.5C5.94547 14.3685 6.15008 15.2369 6.60005 15.983L2.80004 19.783C2.65894 19.5249 2.44506 19.314 2.18502 19.1765C1.92497 19.039 1.63024 18.981 1.33749 19.0097C1.04473 19.0384 0.766883 19.1525 0.538504 19.3379C0.310124 19.5233 0.141295 19.7718 0.0530209 20.0524C-0.035253 20.333 -0.0390753 20.6333 0.0420294 20.9161C0.123134 21.1989 0.285586 21.4515 0.509174 21.6427C0.732762 21.8338 1.00762 21.955 1.29954 21.9911C1.59147 22.0273 1.88758 21.9768 2.15104 21.846C2.02021 22.1094 1.96973 22.4056 2.00588 22.6975C2.04203 22.9894 2.16322 23.2643 2.35436 23.4879C2.54551 23.7114 2.79818 23.8739 3.08093 23.955C3.36369 24.0361 3.66405 24.0323 3.94465 23.944C4.22525 23.8557 4.4737 23.6869 4.65909 23.4585C4.84449 23.2301 4.95864 22.9523 4.98735 22.6595C5.01606 22.3668 4.95806 22.0721 4.82056 21.812C4.68307 21.552 4.47215 21.3381 4.21405 21.197L8.01404 17.397C8.75888 17.8514 9.62833 18.0586 10.498 17.989C13.584 17.736 19.115 16.957 21.498 14.579C23.0914 12.9729 23.9856 10.8023 23.9859 8.53991C23.9863 6.27755 23.0928 4.10666 21.5 2.50001V2.50001ZM20.085 13.162C18.698 14.547 15.056 15.606 10.341 15.993C10.0277 16.0201 9.71223 15.9784 9.41673 15.8707C9.12123 15.763 8.85287 15.5919 8.63048 15.3696C8.40809 15.1472 8.23704 14.8788 8.12935 14.5833C8.02165 14.2878 7.97991 13.9723 8.00704 13.659C8.39404 8.944 9.45305 5.3 10.838 3.915C11.4428 3.297 12.1641 2.80508 12.9603 2.4677C13.7564 2.13033 14.6116 1.9542 15.4762 1.94952C16.3409 1.94484 17.1979 2.11169 17.9976 2.44042C18.7974 2.76915 19.524 3.25323 20.1354 3.86465C20.7468 4.47607 21.2309 5.20267 21.5596 6.00242C21.8884 6.80217 22.0552 7.65917 22.0505 8.52383C22.0458 9.38849 21.8697 10.2436 21.5323 11.0398C21.195 11.8359 20.703 12.5572 20.085 13.162V13.162Z" fill="#374957"/>
</g>
<defs>
<clipPath id="clip0_51_71526">
<rect width="24" height="24" fill="white"/>
</clipPath>
</defs>
</svg>
