<svg width="24" height="24" viewBox="0 0 24 24" fill="none" xmlns="http://www.w3.org/2000/svg">
<path d="M16 12.9994C15.5343 13.6204 14.9303 14.1244 14.2361 14.4715C13.5418 14.8187 12.7762 14.9994 12 14.9994C11.2238 14.9994 10.4582 14.8187 9.76393 14.4715C9.06966 14.1244 8.46574 13.6204 8 12.9994C7.60803 13.5278 7.11479 13.9728 6.54903 14.3085C5.98328 14.6443 5.35634 14.8641 4.70477 14.955C4.0532 15.0459 3.39005 15.0062 2.75398 14.8382C2.11791 14.6702 1.52166 14.3772 1 13.9764V18.9994C1.00159 20.325 1.52888 21.5958 2.46622 22.5332C3.40356 23.4705 4.6744 23.9978 6 23.9994H18C19.3256 23.9978 20.5964 23.4705 21.5338 22.5332C22.4711 21.5958 22.9984 20.325 23 18.9994V13.9734C22.4785 14.3744 21.8824 14.6676 21.2465 14.8358C20.6105 15.0041 19.9474 15.044 19.2959 14.9534C18.6443 14.8627 18.0173 14.6433 17.4515 14.3078C16.8856 13.9723 16.3922 13.5275 16 12.9994V12.9994Z" fill="#374957"/>
<path d="M21.7 3.13144C21.5064 2.24053 21.0125 1.44323 20.301 0.873195C19.5895 0.303155 18.7037 -0.00498097 17.792 0.000436444H17V3.00044C17 3.26565 16.8946 3.52001 16.7071 3.70754C16.5196 3.89508 16.2652 4.00044 16 4.00044C15.7348 4.00044 15.4804 3.89508 15.2929 3.70754C15.1054 3.52001 15 3.26565 15 3.00044V0.000436444H9V3.00044C9 3.26565 8.89464 3.52001 8.70711 3.70754C8.51957 3.89508 8.26522 4.00044 8 4.00044C7.73478 4.00044 7.48043 3.89508 7.29289 3.70754C7.10536 3.52001 7 3.26565 7 3.00044V0.000436444H6.208C5.29619 -0.00493205 4.41025 0.303346 3.69872 0.873583C2.9872 1.44382 2.49336 2.24134 2.3 3.13244L1.022 8.90044L1 10.0204C1.00131 10.4144 1.08021 10.8043 1.23219 11.1677C1.38417 11.5312 1.60625 11.8612 1.88575 12.1388C2.45024 12.6996 3.21435 13.0131 4.01 13.0104C4.40397 13.0091 4.79381 12.9302 5.15729 12.7782C5.52076 12.6263 5.85074 12.4042 6.12839 12.1247C6.40604 11.8452 6.62591 11.5137 6.77547 11.1492C6.92502 10.7848 7.00131 10.3944 7 10.0004C7 9.73522 7.10536 9.48087 7.29289 9.29333C7.48043 9.10579 7.73478 9.00044 8 9.00044C8.26522 9.00044 8.51957 9.10579 8.70711 9.29333C8.89464 9.48087 9 9.73522 9 10.0004C9 10.7961 9.31607 11.5591 9.87868 12.1218C10.4413 12.6844 11.2044 13.0004 12 13.0004C12.7956 13.0004 13.5587 12.6844 14.1213 12.1218C14.6839 11.5591 15 10.7961 15 10.0004C15 9.73522 15.1054 9.48087 15.2929 9.29333C15.4804 9.10579 15.7348 9.00044 16 9.00044C16.2652 9.00044 16.5196 9.10579 16.7071 9.29333C16.8946 9.48087 17 9.73522 17 10.0004C17 10.7961 17.3161 11.5591 17.8787 12.1218C18.4413 12.6844 19.2044 13.0004 20 13.0004C20.7956 13.0004 21.5587 12.6844 22.1213 12.1218C22.6839 11.5591 23 10.7961 23 10.0004V9.10744L21.7 3.13144Z" fill="#374957"/>
</svg>
