<svg width="24" height="24" viewBox="0 0 24 24" fill="none" xmlns="http://www.w3.org/2000/svg">
<g clip-path="url(#clip0_51_81529)">
<path d="M16.6358 23.0002C16.6358 22.8024 16.6945 22.6091 16.8044 22.4446C16.9143 22.2802 17.0704 22.152 17.2532 22.0763C17.4359 22.0006 17.6369 21.9808 17.8309 22.0194C18.0249 22.058 18.2031 22.1532 18.3429 22.2931C18.4828 22.4329 18.578 22.6111 18.6166 22.8051C18.6552 22.9991 18.6354 23.2002 18.5597 23.3829C18.484 23.5656 18.3559 23.7218 18.1914 23.8317C18.027 23.9416 17.8336 24.0002 17.6358 24.0002C17.3706 24.0002 17.1163 23.8948 16.9287 23.7073C16.7412 23.5198 16.6358 23.2654 16.6358 23.0002ZM21.1708 19.4642C20.2332 18.5268 18.9617 18.0003 17.6358 18.0003C16.31 18.0003 15.0385 18.5268 14.1008 19.4642L15.5148 20.8782C16.0865 20.3332 16.846 20.0292 17.6358 20.0292C18.4256 20.0292 19.1852 20.3332 19.7568 20.8782L21.1708 19.4642ZM23.9998 16.6362C22.3104 14.951 20.0216 14.0046 17.6353 14.0046C15.2491 14.0046 12.9603 14.951 11.2708 16.6362L12.6858 18.0502C14 16.74 15.7801 16.0042 17.6358 16.0042C19.4916 16.0042 21.2716 16.74 22.5858 18.0502L23.9998 16.6362ZM8.44184 16.6362L9.85684 15.2222C11.6969 13.3898 14.1252 12.2665 16.7129 12.0506C19.3007 11.8347 21.8816 12.5401 23.9998 14.0422V14.0002C23.9998 10.2592 21.3778 8.0322 17.7898 7.2092C17.3437 5.30016 16.212 3.62142 14.6097 2.4917C13.0075 1.36198 11.0462 0.859943 9.09816 1.0809C7.15016 1.30185 5.35111 2.23042 4.04257 3.6903C2.73404 5.15018 2.00712 7.03973 1.99984 9.0002C1.99886 10.2786 2.30767 11.5382 2.89984 12.6712C1.82097 13.2493 0.966238 14.1714 0.471458 15.291C-0.0233229 16.4106 -0.129776 17.6633 0.16901 18.8503C0.467797 20.0373 1.15469 21.0904 2.12054 21.8423C3.0864 22.5942 4.27582 23.0017 5.49984 23.0002H14.6768L8.44184 16.6362Z" fill="#374957"/>
</g>
<defs>
<clipPath id="clip0_51_81529">
<rect width="24" height="24" fill="white"/>
</clipPath>
</defs>
</svg>
