<svg width="24" height="24" viewBox="0 0 24 24" fill="none" xmlns="http://www.w3.org/2000/svg">
<g clip-path="url(#clip0_51_70406)">
<path d="M22.0999 1.90046C18.6639 -1.53054 9.37187 -0.0665374 4.65187 4.65246C-0.0681291 9.37146 -1.53113 18.6645 1.89987 22.1005C3.50646 23.4499 5.57368 24.1238 7.66687 23.9805C12.0009 23.9421 16.1653 22.2908 19.3479 19.3485C24.0659 14.6295 25.5309 5.33646 22.0999 1.90046V1.90046ZM16.3329 2.00046C17.8969 1.87511 19.4507 2.34435 20.6839 3.31446C21.6999 4.33146 22.1109 6.30046 21.9589 8.54546L15.4589 2.04546C15.7539 2.02646 16.0499 2.00046 16.3329 2.00046V2.00046ZM3.31587 20.6845C2.29987 19.6695 1.88887 17.7005 2.04087 15.4555L8.54087 21.9555C6.29987 22.1105 4.33087 21.7005 3.31587 20.6845ZM17.9339 17.9345C15.998 19.7585 13.6031 21.0225 11.0049 21.5915L2.40487 12.9915C2.97517 10.394 4.24059 8.00042 6.06587 6.06646C8.00489 4.24305 10.4042 2.98255 13.0059 2.42046L21.5919 11.0065C21.0229 13.6046 19.7585 15.9993 17.9339 17.9345V17.9345ZM13.7069 6.29346L17.7069 10.2935L16.2929 11.7075L14.9999 10.4145L13.4139 12.0005L14.7069 13.2935L13.2929 14.7075L11.9999 13.4145L10.4139 15.0005L11.7069 16.2935L10.2929 17.7075L6.29287 13.7075L7.70687 12.2935L8.99987 13.5865L10.5859 12.0005L9.29287 10.7075L10.7069 9.29346L11.9999 10.5865L13.5859 9.00046L12.2929 7.70746L13.7069 6.29346Z" fill="#374957"/>
</g>
<defs>
<clipPath id="clip0_51_70406">
<rect width="24" height="24" fill="white"/>
</clipPath>
</defs>
</svg>
