<svg width="24" height="24" viewBox="0 0 24 24" fill="none" xmlns="http://www.w3.org/2000/svg">
<g clip-path="url(#clip0_51_80177)">
<path d="M21.8548 20.4408L23.9548 22.5408L22.5408 23.9548L0.0428389 1.45685L1.45684 0.0428467L4.55684 3.14285C5.58383 2.18635 6.84466 1.51728 8.21243 1.20296C9.5802 0.888638 11.0066 0.940171 12.3481 1.35237C13.6897 1.76457 14.8989 2.52288 15.8542 3.55099C16.8095 4.5791 17.4771 5.84071 17.7898 7.20885C19.1583 7.52099 20.4202 8.18826 21.4486 9.14344C22.477 10.0986 23.2355 11.308 23.6477 12.6497C24.0599 13.9913 24.1112 15.4179 23.7964 16.7858C23.4817 18.1536 22.812 19.4143 21.8548 20.4408ZM1.99984 8.99985C1.99886 10.2783 2.30767 11.5379 2.89984 12.6708C1.82097 13.249 0.966238 14.1711 0.471458 15.2906C-0.0233229 16.4102 -0.129776 17.663 0.16901 18.85C0.467797 20.037 1.15469 21.0901 2.12054 21.842C3.0864 22.5938 4.27582 23.0014 5.49984 22.9998H15.9998C16.8091 22.9972 17.6132 22.8718 18.3848 22.6278L2.37184 6.61385C2.12782 7.38578 2.0024 8.19027 1.99984 8.99985V8.99985Z" fill="#374957"/>
</g>
<defs>
<clipPath id="clip0_51_80177">
<rect width="24" height="24" fill="white"/>
</clipPath>
</defs>
</svg>
