<svg width="24" height="24" viewBox="0 0 24 24" fill="none" xmlns="http://www.w3.org/2000/svg">
<g clip-path="url(#clip0_51_69828)">
<path d="M10.0001 12C9.60456 12 9.21788 12.1173 8.88898 12.3371C8.56008 12.5568 8.30374 12.8692 8.15236 13.2346C8.00099 13.6001 7.96138 14.0022 8.03855 14.3902C8.11572 14.7781 8.3062 15.1345 8.58591 15.4142C8.86561 15.6939 9.22198 15.8844 9.60994 15.9616C9.9979 16.0387 10.4 15.9991 10.7655 15.8477C11.1309 15.6964 11.4433 15.44 11.6631 15.1111C11.8828 14.7822 12.0001 14.3956 12.0001 14C12.0001 13.4696 11.7894 12.9609 11.4143 12.5858C11.0393 12.2107 10.5306 12 10.0001 12Z" fill="#374957"/>
<path d="M5.4567 16.0429L4.04248 17.4571L6.54281 19.9574L7.95703 18.5432L5.4567 16.0429Z" fill="#374957"/>
<path d="M21.5002 5.00039L23.4822 3.01839C23.8049 2.68506 23.9836 2.23825 23.9798 1.77434C23.9761 1.31042 23.7901 0.866575 23.4621 0.538526C23.134 0.210477 22.6902 0.0245156 22.2263 0.0207493C21.7623 0.0169829 21.3155 0.195714 20.9822 0.518393L19.0002 2.50039V3.65239L16.2792 6.34339C15.1815 5.44561 13.7972 4.97321 12.3796 5.0127C10.9621 5.05218 9.60622 5.6009 8.5602 6.55839C8.16841 6.94975 7.84404 7.4032 7.6002 7.90039C7.56924 7.94985 7.52232 7.98725 7.4672 8.00639C6.47373 7.95581 5.4806 8.11248 4.55095 8.46643C3.6213 8.82039 2.77546 9.36389 2.0672 10.0624C-0.888802 13.0194 -0.632802 18.0874 2.6422 21.3624C4.27021 23.0226 6.48914 23.971 8.8142 24.0004C9.78644 24.02 10.7522 23.8382 11.6508 23.4665C12.5494 23.0947 13.3613 22.541 14.0355 21.8403C14.7097 21.1395 15.2316 20.3068 15.5683 19.3945C15.9051 18.4822 16.0494 17.5101 15.9922 16.5394C15.9959 16.5104 16.007 16.483 16.0246 16.4596C16.0421 16.4363 16.0654 16.418 16.0922 16.4064C16.5904 16.1628 17.0449 15.8384 17.4372 15.4464C18.3925 14.4077 18.9434 13.0608 18.9899 11.6503C19.0363 10.2399 18.5751 8.85964 17.6902 7.76039L20.4812 5.00039H21.5002ZM16.0262 14.0284C15.7886 14.2653 15.5131 14.461 15.2112 14.6074C14.8377 14.7886 14.5242 15.0736 14.3084 15.4283C14.0926 15.783 13.9835 16.1923 13.9942 16.6074C14.0338 17.3268 13.9233 18.0465 13.6697 18.7208C13.4161 19.3952 13.025 20.0094 12.5212 20.5244C10.3462 22.6994 6.5462 22.4444 4.0532 19.9504C1.5602 17.4564 1.3002 13.6554 3.4792 11.4794C3.96761 10.9995 4.54664 10.6216 5.18256 10.3676C5.81847 10.1137 6.49856 9.98888 7.1832 10.0004C7.2542 10.0004 7.3252 10.0004 7.3972 10.0004C7.81302 10.0138 8.22372 9.90566 8.57898 9.68913C8.93423 9.47261 9.21859 9.15714 9.3972 8.78139C9.54368 8.4798 9.73935 8.20471 9.9762 7.96739C10.6402 7.37811 11.4869 7.03553 12.3739 6.99728C13.2609 6.95904 14.1339 7.22746 14.8462 7.75739L13.0462 9.53339L14.4522 10.9554L16.2522 9.17639C16.7768 9.88837 17.0406 10.7591 16.9995 11.6425C16.9583 12.5259 16.6147 13.3683 16.0262 14.0284V14.0284Z" fill="#374957"/>
</g>
<defs>
<clipPath id="clip0_51_69828">
<rect width="24" height="24" fill="white"/>
</clipPath>
</defs>
</svg>
