<svg width="24" height="24" viewBox="0 0 24 24" fill="none" xmlns="http://www.w3.org/2000/svg">
<g clip-path="url(#clip0_51_80091)">
<path d="M23.9997 5H20.4137L23.7067 1.707L22.2927 0.293L18.9997 3.586V0H16.9997V5.456C16.1811 4.58461 15.2149 3.86486 14.1457 3.33C13.403 3.00206 12.574 2.92372 11.7831 3.10672C10.9921 3.28972 10.2818 3.7242 9.75867 4.345L13.3987 7.985L11.9847 9.4L8.54967 5.964C7.79067 7.172 6.91467 8.827 6.03167 10.618L9.28367 13.87L7.86967 15.284L5.11167 12.526C3.17667 16.616 1.41167 20.806 1.07667 21.615L0.138672 23.861L2.38567 22.923C3.46867 22.47 10.6337 19.456 15.4857 16.899L12.6997 14.111L14.1107 12.7L17.3107 15.9C18.1412 15.4508 18.9181 14.909 19.6267 14.285C20.2593 13.7628 20.704 13.0482 20.8934 12.2501C21.0827 11.4519 21.0063 10.6137 20.6757 9.863C20.1394 8.7904 19.4176 7.82113 18.5437 7H23.9997V5Z" fill="#374957"/>
</g>
<defs>
<clipPath id="clip0_51_80091">
<rect width="24" height="24" fill="white"/>
</clipPath>
</defs>
</svg>
