<svg width="24" height="24" viewBox="0 0 24 24" fill="none" xmlns="http://www.w3.org/2000/svg">
<g clip-path="url(#clip0_51_80881)">
<path d="M15.5 3H13V0H11V3H8.5C7.30693 3.00132 6.16311 3.47585 5.31948 4.31948C4.47585 5.16311 4.00132 6.30693 4 7.5V16C4 18.1217 4.84285 20.1566 6.34315 21.6569C7.84344 23.1571 9.87827 24 12 24C14.1217 24 16.1566 23.1571 17.6569 21.6569C19.1571 20.1566 20 18.1217 20 16V7.5C19.9987 6.30693 19.5241 5.16311 18.6805 4.31948C17.8369 3.47585 16.6931 3.00132 15.5 3V3ZM13 11H11V7H13V11Z" fill="#374957"/>
</g>
<defs>
<clipPath id="clip0_51_80881">
<rect width="24" height="24" fill="white"/>
</clipPath>
</defs>
</svg>
