<svg width="24" height="24" viewBox="0 0 24 24" fill="none" xmlns="http://www.w3.org/2000/svg">
<g clip-path="url(#clip0_51_82236)">
<path d="M5.81992 19.3062C5.87392 19.3502 5.93592 19.3802 5.99092 19.4232L1.70692 23.7072C1.51832 23.8894 1.26571 23.9902 1.00352 23.9879C0.741321 23.9856 0.490508 23.8804 0.3051 23.695C0.119692 23.5096 0.0145233 23.2588 0.0122448 22.9966C0.00996641 22.7344 0.110761 22.4818 0.292919 22.2932L4.57792 18.0082C4.94082 18.487 5.35756 18.9226 5.81992 19.3062V19.3062ZM9.99992 12.5862L16.2929 6.29322C16.3852 6.19771 16.4955 6.12153 16.6175 6.06912C16.7395 6.01671 16.8707 5.98912 17.0035 5.98797C17.1363 5.98681 17.268 6.01211 17.3909 6.0624C17.5138 6.11268 17.6254 6.18693 17.7193 6.28082C17.8132 6.37471 17.8875 6.48637 17.9377 6.60926C17.988 6.73216 18.0133 6.86384 18.0122 6.99662C18.011 7.1294 17.9834 7.26062 17.931 7.38262C17.8786 7.50463 17.8024 7.61497 17.7069 7.70722L14.4139 11.0002H21.5999C22.5722 9.06137 23.3365 7.02502 23.8799 4.92522C24.0397 4.2589 24.0252 3.56269 23.8379 2.90358C23.6507 2.24447 23.2969 1.64466 22.8107 1.16186C22.3245 0.679067 21.7222 0.329547 21.0618 0.146939C20.4014 -0.0356678 19.7051 -0.0452147 19.0399 0.119218C15.8374 0.970025 12.7874 2.31556 9.99992 4.10722V12.5862ZM12.4999 13.0002C12.4749 13.0002 12.4529 12.9872 12.4279 12.9862L5.99092 19.4232C7.30402 20.4484 8.92299 21.0037 10.5889 21.0002C11.6932 20.996 12.7852 20.7683 13.7991 20.331C14.8131 19.8936 15.7281 19.2555 16.4889 18.4552C18.0479 16.8032 19.4054 14.9721 20.5329 13.0002H12.4999ZM7.99992 14.5002V5.50722C7.03238 6.23096 6.11557 7.02014 5.25592 7.86922C4.49752 8.6322 3.90611 9.5446 3.51927 10.5484C3.13244 11.5523 2.95864 12.6256 3.00892 13.7002C3.08055 15.2601 3.62809 16.7607 4.57792 18.0002L8.01392 14.5632C8.01292 14.5472 7.99992 14.5252 7.99992 14.5002V14.5002Z" fill="#374957"/>
</g>
<defs>
<clipPath id="clip0_51_82236">
<rect width="24" height="24" fill="white"/>
</clipPath>
</defs>
</svg>
