<svg width="24" height="24" viewBox="0 0 24 24" fill="none" xmlns="http://www.w3.org/2000/svg">
<g clip-path="url(#clip0_51_70008)">
<path d="M17.0001 13.0003V9.00035H16.0001V2.00035C16 1.65943 15.9128 1.32419 15.7467 1.02647C15.5806 0.728757 15.3411 0.478441 15.0511 0.299297C14.761 0.120152 14.43 0.018127 14.0894 0.00290931C13.7488 -0.0123084 13.41 0.0597865 13.1051 0.212348L9.65812 1.93635C9.15867 2.18396 8.73859 2.56658 8.44553 3.0408C8.15248 3.51503 7.99818 4.06188 8.00012 4.61935V9.00035H7.00012V13.0003H5.00012V24.0003H19.0001V13.0003H17.0001ZM10.0001 4.61935C10.0002 4.43369 10.052 4.25172 10.1497 4.09382C10.2473 3.93593 10.387 3.80834 10.5531 3.72535L14.0001 2.00035V9.00035H10.0001V4.61935ZM9.00012 11.0003H15.0001V13.0003H9.00012V11.0003ZM17.0001 22.0003H7.00012V15.0003H17.0001V22.0003Z" fill="#374957"/>
</g>
<defs>
<clipPath id="clip0_51_70008">
<rect width="24" height="24" fill="white"/>
</clipPath>
</defs>
</svg>
