<svg width="24" height="24" viewBox="0 0 24 24" fill="none" xmlns="http://www.w3.org/2000/svg">
<g clip-path="url(#clip0_51_69558)">
<path d="M21 4.99982H16V0.999817H8V4.99982H3C2.20435 4.99982 1.44129 5.31589 0.87868 5.8785C0.31607 6.44111 0 7.20417 0 7.99982L0 22.9998H24V7.99982C24 7.20417 23.6839 6.44111 23.1213 5.8785C22.5587 5.31589 21.7956 4.99982 21 4.99982ZM10 2.99982H14V4.99982H10V2.99982ZM22 20.9998H2V7.99982C2 7.7346 2.10536 7.48025 2.29289 7.29271C2.48043 7.10517 2.73478 6.99982 3 6.99982H21C21.2652 6.99982 21.5196 7.10517 21.7071 7.29271C21.8946 7.48025 22 7.7346 22 7.99982V20.9998ZM13 12.9998H16V14.9998H13V17.9998H11V14.9998H8V12.9998H11V9.99982H13V12.9998Z" fill="#374957"/>
</g>
<defs>
<clipPath id="clip0_51_69558">
<rect width="24" height="24" fill="white"/>
</clipPath>
</defs>
</svg>
