<svg width="24" height="24" viewBox="0 0 24 24" fill="none" xmlns="http://www.w3.org/2000/svg">
<g clip-path="url(#clip0_51_69833)">
<path d="M23.121 7.12204L20.707 4.70704L22.707 2.70704L21.293 1.29304L19.293 3.29304L16.879 0.879042C16.6004 0.600413 16.2696 0.379389 15.9056 0.228593C15.5416 0.0777972 15.1515 0.000183105 14.7575 0.000183105C14.3635 0.000183105 13.9733 0.0777972 13.6093 0.228593C13.2453 0.379389 12.9146 0.600413 12.636 0.879042L9.80797 3.70704L14.343 8.24304L8.24297 14.343L3.70697 9.80804L0.87897 12.636C0.316557 13.1986 0.000610352 13.9615 0.000610352 14.757C0.000610352 15.5525 0.316557 16.3155 0.87897 16.878L3.29297 19.293L1.29297 21.293L2.70697 22.707L4.70697 20.707L7.12097 23.121C7.39955 23.3997 7.73029 23.6207 8.0943 23.7715C8.45831 23.9223 8.84846 23.9999 9.24247 23.9999C9.63648 23.9999 10.0266 23.9223 10.3906 23.7715C10.7546 23.6207 11.0854 23.3997 11.364 23.121L14.192 20.293L9.65697 15.757L15.757 9.65704L20.292 14.192L23.12 11.364C23.6824 10.8015 23.9983 10.0385 23.9983 9.24304C23.9983 8.44755 23.6824 7.68463 23.12 7.12204H23.121ZM9.94997 21.707C9.8571 21.8 9.74681 21.8738 9.62541 21.9241C9.50401 21.9744 9.37389 22.0003 9.24247 22.0003C9.11105 22.0003 8.98093 21.9744 8.85953 21.9241C8.73813 21.8738 8.62784 21.8 8.53497 21.707L2.29297 15.464C2.1055 15.2765 2.00018 15.0222 2.00018 14.757C2.00018 14.4919 2.1055 14.2376 2.29297 14.05L3.70697 12.636L11.364 20.293L9.94997 21.707ZM21.707 9.94904L20.293 11.364L12.636 3.70704L14.05 2.29304C14.1428 2.20007 14.2531 2.12631 14.3745 2.07598C14.4959 2.02566 14.6261 1.99976 14.7575 1.99976C14.8889 1.99976 15.019 2.02566 15.1404 2.07598C15.2618 2.12631 15.3721 2.20007 15.465 2.29304L21.707 8.53604C21.8941 8.72353 21.9993 8.97762 21.9993 9.24254C21.9993 9.50746 21.8941 9.76156 21.707 9.94904V9.94904Z" fill="#374957"/>
</g>
<defs>
<clipPath id="clip0_51_69833">
<rect width="24" height="24" fill="white"/>
</clipPath>
</defs>
</svg>
