<svg width="24" height="24" viewBox="0 0 24 24" fill="none" xmlns="http://www.w3.org/2000/svg">
<g clip-path="url(#clip0_51_70471)">
<path d="M19.9491 2.64452L12.0001 0.00952148L4.05112 2.64452C3.45464 2.84055 2.93525 3.21984 2.56697 3.72836C2.19869 4.23687 2.00032 4.84866 2.00012 5.47652V12.0005C2.00012 19.5245 11.2001 23.6795 11.5941 23.8525L11.9481 24.0095L12.3161 23.8875C12.7111 23.7555 22.0001 20.5775 22.0001 12.0005V5.47652C21.9998 4.84869 21.8013 4.23698 21.4331 3.72849C21.0648 3.22001 20.5455 2.84068 19.9491 2.64452V2.64452ZM20.0001 12.0005C20.0001 18.2635 13.6511 21.2165 12.0471 21.8615C10.4401 21.0585 4.00012 17.4945 4.00012 12.0005V5.47652C4.00021 5.26719 4.06638 5.06323 4.18921 4.89372C4.31203 4.72421 4.48523 4.59781 4.68412 4.53252L12.0001 2.10652L19.3161 4.53252C19.5152 4.59754 19.6886 4.72388 19.8114 4.89345C19.9343 5.06302 20.0003 5.26712 20.0001 5.47652V12.0005Z" fill="#374957"/>
</g>
<defs>
<clipPath id="clip0_51_70471">
<rect width="24" height="24" fill="white"/>
</clipPath>
</defs>
</svg>
