<svg width="24" height="24" viewBox="0 0 24 24" fill="none" xmlns="http://www.w3.org/2000/svg">
<g clip-path="url(#clip0_51_69710)">
<path d="M6 18.9997C6 19.2649 5.89464 19.5193 5.70711 19.7068C5.51957 19.8943 5.26522 19.9997 5 19.9997C4.73478 19.9997 4.48043 19.8943 4.29289 19.7068C4.10536 19.5193 4 19.2649 4 18.9997C4 18.7345 4.10536 18.4801 4.29289 18.2926C4.48043 18.105 4.73478 17.9997 5 17.9997C5.26522 17.9997 5.51957 18.105 5.70711 18.2926C5.89464 18.4801 6 18.7345 6 18.9997V18.9997ZM24 6.99968C24.0187 7.25865 23.9832 7.51867 23.8956 7.76311C23.8081 8.00756 23.6705 8.23105 23.4917 8.41929C23.3129 8.60753 23.0967 8.75638 22.8571 8.85632C22.6174 8.95626 22.3596 9.00508 22.1 8.99968H16.981C16.962 10.0627 16.92 11.0707 16.838 11.9997H20.038V12.9997C20.0387 14.0067 19.9416 15.0114 19.748 15.9997C19.6326 16.5652 19.325 17.0734 18.8775 17.4379C18.43 17.8025 17.8702 18.001 17.293 17.9997H15.439C13.388 22.4647 9.064 23.9997 1 23.9997H0V22.9997C0 18.1157 0.57 14.6147 2 12.1437V8.43968C1.99996 7.88944 2.15126 7.34978 2.43733 6.87975C2.7234 6.40972 3.13324 6.02742 3.622 5.77468C5.90034 4.58737 8.43086 3.96555 11 3.96168H12V7.16168C12.929 7.07968 13.937 7.03768 15 7.01868V1.89968C15.3 -1.49232 20.372 0.0816786 20.905 3.09968C21.7791 3.31685 22.5567 3.81721 23.1166 4.52269C23.6764 5.22818 23.9871 6.09913 24 6.99968ZM4 8.43968V9.78768C5.75356 8.47497 7.82398 7.65094 10 7.39968V5.99968C8.09762 6.14625 6.24385 6.67225 4.548 7.54668C4.38365 7.63109 4.24564 7.75901 4.14901 7.91648C4.05237 8.07395 4.00083 8.25492 4 8.43968V8.43968ZM2.008 21.9917C4.2894 22.0232 6.56433 21.7412 8.769 21.1537C8.42127 19.7178 7.68432 18.4055 6.63919 17.3613C5.59406 16.317 4.28121 15.5812 2.845 15.2347C2.25845 17.4382 1.97682 19.7117 2.008 21.9917V21.9917ZM14.992 9.00768C8.776 9.10768 5.357 10.1957 3.606 13.3737C5.28393 13.8354 6.81316 14.7251 8.04391 15.9555C9.27467 17.1859 10.1648 18.7149 10.627 20.3927C13.8 18.6427 14.892 15.2237 14.992 9.00768ZM16.6 13.9997C16.4915 14.6737 16.3467 15.3413 16.166 15.9997H17.294C17.4082 16.0019 17.5197 15.9644 17.6094 15.8937C17.6991 15.8229 17.7615 15.7233 17.786 15.6117C17.8894 15.0791 17.9608 14.5408 18 13.9997H16.6ZM22 6.99968C21.9863 6.47355 21.7712 5.97274 21.3991 5.60059C21.0269 5.22844 20.5261 5.01334 20 4.99968H19V3.99968C18.9873 3.47324 18.7725 2.97187 18.4002 2.59951C18.0278 2.22716 17.5264 2.01237 17 1.99968V6.99968H22Z" fill="#374957"/>
</g>
<defs>
<clipPath id="clip0_51_69710">
<rect width="24" height="24" fill="white"/>
</clipPath>
</defs>
</svg>
