<svg width="24" height="24" viewBox="0 0 24 24" fill="none" xmlns="http://www.w3.org/2000/svg">
<path d="M22 23.0001H2.00001V9.97906C1.16912 9.34683 0.55698 8.47035 0.249479 7.47257C-0.0580214 6.4748 -0.0454591 5.40579 0.285404 4.41552C0.616267 3.42525 1.24883 2.56339 2.09436 1.95086C2.93988 1.33832 3.95595 1.00584 5.00001 1.00006H19C20.0441 1.00584 21.0601 1.33832 21.9057 1.95086C22.7512 2.56339 23.3838 3.42525 23.7146 4.41552C24.0455 5.40579 24.058 6.4748 23.7505 7.47257C23.443 8.47035 22.8309 9.34683 22 9.97906V23.0001ZM4.00001 21.0001H20V8.87006L20.5 8.58106C21.0636 8.24721 21.5024 7.73807 21.7495 7.13139C21.9966 6.52472 22.0383 5.85385 21.8682 5.22125C21.6982 4.58865 21.3258 4.02908 20.8079 3.628C20.29 3.22692 19.655 3.00638 19 3.00006H5.00001C4.34499 3.00638 3.71004 3.22692 3.19213 3.628C2.67422 4.02908 2.30181 4.58865 2.13179 5.22125C1.96177 5.85385 2.00347 6.52472 2.25053 7.13139C2.49758 7.73807 2.93642 8.24721 3.50001 8.58106L4.00001 8.87006V21.0001ZM8.00001 12.0001C7.7348 12.0001 7.48044 12.1054 7.29291 12.293C7.10537 12.4805 7.00001 12.7348 7.00001 13.0001C7.00001 13.2653 7.10537 13.5196 7.29291 13.7072C7.48044 13.8947 7.7348 14.0001 8.00001 14.0001C8.26523 14.0001 8.51958 13.8947 8.70712 13.7072C8.89466 13.5196 9.00001 13.2653 9.00001 13.0001C9.00001 12.7348 8.89466 12.4805 8.70712 12.293C8.51958 12.1054 8.26523 12.0001 8.00001 12.0001V12.0001ZM12 16.0001C11.7348 16.0001 11.4804 16.1054 11.2929 16.293C11.1054 16.4805 11 16.7348 11 17.0001C11 17.2653 11.1054 17.5196 11.2929 17.7072C11.4804 17.8947 11.7348 18.0001 12 18.0001C12.2652 18.0001 12.5196 17.8947 12.7071 17.7072C12.8947 17.5196 13 17.2653 13 17.0001C13 16.7348 12.8947 16.4805 12.7071 16.293C12.5196 16.1054 12.2652 16.0001 12 16.0001ZM8.00001 16.0001C7.7348 16.0001 7.48044 16.1054 7.29291 16.293C7.10537 16.4805 7.00001 16.7348 7.00001 17.0001C7.00001 17.2653 7.10537 17.5196 7.29291 17.7072C7.48044 17.8947 7.7348 18.0001 8.00001 18.0001C8.26523 18.0001 8.51958 17.8947 8.70712 17.7072C8.89466 17.5196 9.00001 17.2653 9.00001 17.0001C9.00001 16.7348 8.89466 16.4805 8.70712 16.293C8.51958 16.1054 8.26523 16.0001 8.00001 16.0001V16.0001Z" fill="#374957"/>
</svg>
