<svg width="24" height="24" viewBox="0 0 24 24" fill="none" xmlns="http://www.w3.org/2000/svg">
<path d="M12 19.0001C10.6155 19.0001 9.26216 18.5895 8.11101 17.8204C6.95987 17.0512 6.06266 15.9579 5.53285 14.6788C5.00303 13.3998 4.86441 11.9923 5.13451 10.6344C5.4046 9.27657 6.07129 8.02928 7.05026 7.05032C8.02922 6.07135 9.2765 5.40466 10.6344 5.13457C11.9922 4.86447 13.3997 5.00309 14.6788 5.53291C15.9579 6.06272 17.0511 6.95993 17.8203 8.11107C18.5895 9.26222 19 10.6156 19 12.0001C18.9979 13.8559 18.2597 15.6352 16.9474 16.9475C15.6351 18.2598 13.8559 18.9979 12 19.0001V19.0001Z" fill="#374957"/>
</svg>
