<svg width="24" height="24" viewBox="0 0 24 24" fill="none" xmlns="http://www.w3.org/2000/svg">
<g clip-path="url(#clip0_51_80137)">
<path d="M21.2073 13.781L15.5002 8.07396L13.5002 10.074L7.70025 4.27396L6.28125 5.68296L13.5002 12.9L15.5002 10.9L19.7932 15.2L17.0002 17.988H22.5002C22.8981 17.988 23.2796 17.8299 23.5609 17.5486C23.8422 17.2673 24.0002 16.8858 24.0002 16.488V10.988L21.2073 13.781Z" fill="#374957"/>
<path d="M2 20.976V0H0V20.976C0 21.7716 0.31607 22.5347 0.87868 23.0973C1.44129 23.6599 2.20435 23.976 3 23.976H24V21.976H3C2.73478 21.976 2.48043 21.8706 2.29289 21.6831C2.10536 21.4956 2 21.2412 2 20.976V20.976Z" fill="#374957"/>
</g>
<defs>
<clipPath id="clip0_51_80137">
<rect width="24" height="24" fill="white"/>
</clipPath>
</defs>
</svg>
