<svg width="24" height="24" viewBox="0 0 24 24" fill="none" xmlns="http://www.w3.org/2000/svg">
<path d="M7.38991 3.06807C7.77909 2.16859 8.42291 1.4026 9.24204 0.864494C10.0612 0.326389 11.0198 0.0396729 11.9999 0.0396729C12.98 0.0396729 13.9386 0.326389 14.7578 0.864494C15.5769 1.4026 16.2207 2.16859 16.6099 3.06807C15.6704 3.19879 14.7709 3.53356 13.9745 4.04888C13.1781 4.56421 12.5041 5.24759 11.9999 6.05107C11.4949 5.24828 10.8208 4.56541 10.0245 4.05018C9.22827 3.53495 8.32913 3.19978 7.38991 3.06807V3.06807ZM10.9999 9.50007C10.7539 3.21107 1.53291 3.75707 2.03491 10.0241C4.90675 10.5716 7.81833 10.885 10.7409 10.9611C10.9088 10.4921 10.9964 9.99818 10.9999 9.50007V9.50007ZM17.4999 5.00007C16.7845 5.00249 16.08 5.17544 15.4448 5.50457C14.8096 5.83371 14.262 6.30955 13.8475 6.89263C13.433 7.4757 13.1634 8.14921 13.0612 8.85728C12.9591 9.56535 13.0272 10.2876 13.2599 10.9641C16.1825 10.8954 19.0943 10.5829 21.9649 10.0301C22.0388 9.3993 21.9784 8.76004 21.7879 8.15421C21.5974 7.54839 21.2809 6.98968 20.8593 6.51473C20.4377 6.03977 19.9205 5.65931 19.3415 5.39827C18.7626 5.13724 18.135 5.00154 17.4999 5.00007V5.00007ZM2.73591 12.1901C2.74991 12.2191 9.01891 22.3331 9.01891 22.3331C9.336 22.8369 9.77567 23.2522 10.2968 23.54C10.818 23.8277 11.4036 23.9787 11.9989 23.9787C12.5942 23.9787 13.1799 23.8277 13.701 23.54C14.2222 23.2522 14.6618 22.8369 14.9789 22.3331C14.9789 22.3331 21.2479 12.2241 21.2609 12.2001C18.202 12.7276 15.104 12.9953 11.9999 13.0001C8.89468 12.9898 5.7958 12.7189 2.73591 12.1901V12.1901Z" fill="#374957"/>
</svg>
