<svg width="24" height="24" viewBox="0 0 24 24" fill="none" xmlns="http://www.w3.org/2000/svg">
<g clip-path="url(#clip0_51_69707)">
<path d="M6.48588 22.1429L5.45688 20.4279C8.99988 18.2999 8.99988 13.7299 8.99988 10.9999C8.99988 10.2042 9.31595 9.44116 9.87856 8.87855C10.4412 8.31594 11.2042 7.99987 11.9999 7.99987C12.7955 7.99987 13.5586 8.31594 14.1212 8.87855C14.6838 9.44116 14.9999 10.2042 14.9999 10.9999H12.9999C12.9999 10.7347 12.8945 10.4803 12.707 10.2928C12.5194 10.1052 12.2651 9.99987 11.9999 9.99987C11.7347 9.99987 11.4803 10.1052 11.2928 10.2928C11.1052 10.4803 10.9999 10.7347 10.9999 10.9999C10.9999 13.9469 10.9999 19.4339 6.48588 22.1429ZM14.8959 14.0839L12.8999 13.9159C12.5839 17.6449 11.3749 20.5309 9.30788 22.4959L10.6849 23.9449C13.1229 21.6339 14.5379 18.3149 14.8999 14.0839H14.8959ZM17.6419 20.3389L15.7609 19.6609C15.3547 20.7976 14.8178 21.8832 14.1609 22.8959L15.8349 23.9899C16.577 22.8472 17.1834 21.6219 17.6419 20.3389V20.3389ZM18.9999 10.9999C18.9989 9.58317 18.5681 8.20009 17.7644 7.03343C16.9607 5.86676 15.822 4.97141 14.4986 4.46571C13.1752 3.96 11.7296 3.86775 10.3526 4.20113C8.97572 4.5345 7.73236 5.27783 6.78688 6.33287L8.27588 7.66687C8.95116 6.91315 9.83925 6.38207 10.8228 6.14384C11.8063 5.9056 12.839 5.97141 13.7843 6.33257C14.7297 6.69374 15.5432 7.33325 16.1173 8.1666C16.6914 8.99995 16.9992 9.98789 16.9999 10.9999C17.0368 12.9467 16.882 14.8924 16.5379 16.8089L18.5009 17.1909C18.871 15.1487 19.0382 13.0749 18.9999 10.9999V10.9999ZM6.99988 10.9999C6.99959 10.7208 7.02267 10.4421 7.06888 10.1669L5.09988 9.83287C5.03387 10.2184 5.00041 10.6088 4.99988 10.9999C4.99988 15.6449 3.65388 17.9999 0.999878 17.9999V19.9999C4.86888 19.9999 6.99988 16.7999 6.99988 10.9999ZM22.9999 10.9999C23.0045 9.33879 22.6282 7.69877 21.8999 6.20587L20.0999 7.08087C20.6949 8.30144 21.0028 9.64198 20.9999 10.9999C21.1368 15.0931 20.3599 19.1654 18.7259 22.9209L20.5259 23.7819C22.295 19.7595 23.1403 15.3918 22.9999 10.9999V10.9999ZM2.99988 10.9999C3.00252 8.61373 3.95159 6.32608 5.63884 4.63883C7.32609 2.95158 9.61374 2.00251 11.9999 1.99987C13.9483 1.99338 15.8451 2.62565 17.3999 3.79987L18.5999 2.19987C16.6993 0.76529 14.3811 -0.00741791 11.9999 -0.000132051C9.08355 0.00330842 6.28766 1.16334 4.2255 3.22549C2.16335 5.28765 1.00332 8.08354 0.999878 10.9999V13.9999H2.99988V10.9999Z" fill="#374957"/>
</g>
<defs>
<clipPath id="clip0_51_69707">
<rect width="24" height="24" fill="white"/>
</clipPath>
</defs>
</svg>
