<svg width="24" height="24" viewBox="0 0 24 24" fill="none" xmlns="http://www.w3.org/2000/svg">
<g clip-path="url(#clip0_51_71364)">
<path d="M13.4999 6.49989C13.4999 6.89772 13.3418 7.27925 13.0605 7.56055C12.7792 7.84186 12.3977 7.99989 11.9999 7.99989C11.602 7.99989 11.2205 7.84186 10.9392 7.56055C10.6579 7.27925 10.4999 6.89772 10.4999 6.49989C10.4999 6.10207 10.6579 5.72053 10.9392 5.43923C11.2205 5.15793 11.602 4.99989 11.9999 4.99989C12.3977 4.99989 12.7792 5.15793 13.0605 5.43923C13.3418 5.72053 13.4999 6.10207 13.4999 6.49989V6.49989ZM23.9999 18.9999V12.3399C24.0372 9.25734 22.907 6.27478 20.8362 3.99106C18.7654 1.70734 15.9074 0.291527 12.8359 0.02789C11.1215 -0.0920523 9.4014 0.15763 7.79191 0.760043C6.18241 1.36246 4.72108 2.30355 3.50679 3.51964C2.29249 4.73573 1.35357 6.19846 0.753545 7.80885C0.153518 9.41924 -0.0936135 11.1397 0.0288701 12.8539C0.47087 19.2079 6.08187 23.9999 13.0829 23.9999H18.9999C20.3255 23.9983 21.5963 23.471 22.5337 22.5337C23.471 21.5963 23.9983 20.3255 23.9999 18.9999V18.9999ZM12.6999 2.02389C15.2663 2.25093 17.6518 3.4408 19.377 5.35444C21.1021 7.26809 22.0392 9.76371 21.9999 12.3399V18.9999C21.9999 19.7955 21.6838 20.5586 21.1212 21.1212C20.5586 21.6838 19.7955 21.9999 18.9999 21.9999H13.0829C7.04887 21.9999 2.39987 18.0999 2.02487 12.7159C1.92642 11.3445 2.11184 9.96749 2.56955 8.67096C3.02726 7.37443 3.74742 6.18622 4.68504 5.18056C5.62266 4.1749 6.7576 3.3734 8.01894 2.82614C9.28028 2.27887 10.6409 1.9976 12.0159 1.99989C12.2429 1.99989 12.4719 2.00889 12.6999 2.02389ZM13.9999 17.9999V11.9999C13.9999 11.4695 13.7892 10.9608 13.4141 10.5857C13.039 10.2106 12.5303 9.99989 11.9999 9.99989H10.9999C10.7347 9.99989 10.4803 10.1052 10.2928 10.2928C10.1052 10.4803 9.99987 10.7347 9.99987 10.9999C9.99987 11.2651 10.1052 11.5195 10.2928 11.707C10.4803 11.8945 10.7347 11.9999 10.9999 11.9999H11.9999V17.9999C11.9999 18.2651 12.1052 18.5195 12.2928 18.707C12.4803 18.8945 12.7347 18.9999 12.9999 18.9999C13.2651 18.9999 13.5194 18.8945 13.707 18.707C13.8945 18.5195 13.9999 18.2651 13.9999 17.9999Z" fill="#374957"/>
</g>
<defs>
<clipPath id="clip0_51_71364">
<rect width="24" height="24" fill="white"/>
</clipPath>
</defs>
</svg>
