<svg width="24" height="24" viewBox="0 0 24 24" fill="none" xmlns="http://www.w3.org/2000/svg">
<g clip-path="url(#clip0_51_80896)">
<path d="M24 20.0003H14.816C14.6666 19.582 14.4262 19.2022 14.1122 18.8881C13.7981 18.5741 13.4182 18.3337 13 18.1843V14.0003H16C17.2581 14.0008 18.4702 13.527 19.3944 12.6734C20.3186 11.8198 20.8871 10.6492 20.9864 9.395C21.0858 8.14082 20.7086 6.89529 19.9303 5.90687C19.1519 4.91845 18.0295 4.25979 16.787 4.06228C16.4405 2.77649 15.6384 1.66052 14.5301 0.922376C13.4217 0.184226 12.0828 -0.125752 10.7628 0.0502123C9.44283 0.226176 8.23187 0.876076 7.3556 1.87879C6.47932 2.88151 5.99753 4.16863 6 5.50028C6.00029 5.70652 6.01298 5.91256 6.038 6.11728C5.08935 6.3519 4.25941 6.92569 3.70484 7.73033C3.15027 8.53497 2.90945 9.51479 3.02783 10.4848C3.1462 11.4549 3.61559 12.348 4.34739 12.9957C5.07919 13.6433 6.02277 14.0007 7 14.0003H11V18.1843C10.5818 18.3337 10.2019 18.5741 9.88785 18.8881C9.5738 19.2022 9.3334 19.582 9.184 20.0003H0V22.0003H9.184C9.38765 22.5848 9.76815 23.0915 10.2727 23.4501C10.7773 23.8086 11.381 24.0012 12 24.0012C12.619 24.0012 13.2227 23.8086 13.7273 23.4501C14.2318 23.0915 14.6124 22.5848 14.816 22.0003H24V20.0003Z" fill="#374957"/>
</g>
<defs>
<clipPath id="clip0_51_80896">
<rect width="24" height="24" fill="white"/>
</clipPath>
</defs>
</svg>
