<svg width="24" height="24" viewBox="0 0 24 24" fill="none" xmlns="http://www.w3.org/2000/svg">
<g clip-path="url(#clip0_51_70098)">
<path d="M11.9999 4C13.1044 4 13.9999 3.10457 13.9999 2C13.9999 0.89543 13.1044 0 11.9999 0C10.8953 0 9.99988 0.89543 9.99988 2C9.99988 3.10457 10.8953 4 11.9999 4Z" fill="#374957"/>
<path d="M11.9999 14.0003C13.1044 14.0003 13.9999 13.1049 13.9999 12.0003C13.9999 10.8957 13.1044 10.0003 11.9999 10.0003C10.8953 10.0003 9.99988 10.8957 9.99988 12.0003C9.99988 13.1049 10.8953 14.0003 11.9999 14.0003Z" fill="#374957"/>
<path d="M11.9999 23.9997C13.1044 23.9997 13.9999 23.1043 13.9999 21.9997C13.9999 20.8951 13.1044 19.9997 11.9999 19.9997C10.8953 19.9997 9.99988 20.8951 9.99988 21.9997C9.99988 23.1043 10.8953 23.9997 11.9999 23.9997Z" fill="#374957"/>
</g>
<defs>
<clipPath id="clip0_51_70098">
<rect width="24" height="24" fill="white"/>
</clipPath>
</defs>
</svg>
