<svg width="24" height="24" viewBox="0 0 24 24" fill="none" xmlns="http://www.w3.org/2000/svg">
<path d="M21.0004 12.4237V10.9997C21.0004 8.61275 20.0522 6.32356 18.3644 4.63573C16.6766 2.94791 14.3874 1.99969 12.0004 1.99969C9.61349 1.99969 7.3243 2.94791 5.63648 4.63573C3.94865 6.32356 3.00044 8.61275 3.00044 10.9997V12.4237C1.9516 12.8855 1.09324 13.6936 0.56906 14.7128C0.0448815 15.7319 -0.1133 16.9001 0.120996 18.0219C0.355293 19.1438 0.967846 20.151 1.85611 20.8751C2.74437 21.5993 3.85443 21.9963 5.00044 21.9997H7.00044V11.9997H5.00044V10.9997C5.00044 9.14318 5.73794 7.3627 7.05069 6.04995C8.36345 4.73719 10.1439 3.99969 12.0004 3.99969C13.857 3.99969 15.6374 4.73719 16.9502 6.04995C18.2629 7.3627 19.0004 9.14318 19.0004 10.9997V11.9997H17.0004V21.9997H19.0004C20.1465 21.9963 21.2565 21.5993 22.1448 20.8751C23.033 20.151 23.6456 19.1438 23.8799 18.0219C24.1142 16.9001 23.956 15.7319 23.4318 14.7128C22.9076 13.6936 22.0493 12.8855 21.0004 12.4237V12.4237ZM5.00044 19.9997C4.20479 19.9997 3.44173 19.6836 2.87912 19.121C2.31651 18.5584 2.00044 17.7953 2.00044 16.9997C2.00044 16.204 2.31651 15.441 2.87912 14.8784C3.44173 14.3158 4.20479 13.9997 5.00044 13.9997V19.9997ZM19.0004 19.9997V13.9997C19.7961 13.9997 20.5592 14.3158 21.1218 14.8784C21.6844 15.441 22.0004 16.204 22.0004 16.9997C22.0004 17.7953 21.6844 18.5584 21.1218 19.121C20.5592 19.6836 19.7961 19.9997 19.0004 19.9997Z" fill="#374957"/>
</svg>
