<svg width="24" height="24" viewBox="0 0 24 24" fill="none" xmlns="http://www.w3.org/2000/svg">
<g clip-path="url(#clip0_51_81902)">
<path d="M0.587209 18.2399C0.288405 18.8497 0.149781 19.5256 0.184401 20.2038C0.21902 20.882 0.425743 21.5403 0.78509 22.1165C1.14444 22.6927 1.64458 23.168 2.23838 23.4975C2.83219 23.827 3.50011 23.9999 4.17921 23.9999H19.8202C20.4994 24.0001 21.1674 23.8273 21.7614 23.4978C22.3553 23.1684 22.8556 22.6932 23.2151 22.1169C23.5745 21.5407 23.7813 20.8824 23.816 20.2041C23.8507 19.5258 23.712 18.8498 23.4132 18.2399L22.8062 16.9999H1.19421L0.587209 18.2399Z" fill="#374957"/>
<path d="M19.3768 10.0001H4.62283L2.17383 15H21.8258L19.3768 10.0001Z" fill="#374957"/>
<path d="M15.5931 2.27488C15.2639 1.60262 14.7528 1.03621 14.1177 0.640038C13.4826 0.243869 12.7491 0.033844 12.0006 0.033844C11.2521 0.033844 10.5186 0.243869 9.88351 0.640038C9.24843 1.03621 8.73725 1.60262 8.4081 2.27488L5.6001 7.99988H18.4001L15.5931 2.27488Z" fill="#374957"/>
</g>
<defs>
<clipPath id="clip0_51_81902">
<rect width="24" height="24" fill="white"/>
</clipPath>
</defs>
</svg>
