<svg width="24" height="24" viewBox="0 0 24 24" fill="none" xmlns="http://www.w3.org/2000/svg">
<g clip-path="url(#clip0_51_79893)">
<path d="M0 3V11H11V0H3C2.20435 0 1.44129 0.31607 0.87868 0.87868C0.31607 1.44129 0 2.20435 0 3H0Z" fill="#374957"/>
<path d="M0 21C0 21.7956 0.31607 22.5587 0.87868 23.1213C1.44129 23.6839 2.20435 24 3 24H11V13H0V21Z" fill="#374957"/>
<path d="M20 21.417V2.58601L22.584 5.16601L24 3.75101L21.121 0.876006C20.5585 0.31451 19.7962 -0.000854492 19.0015 -0.000854492C18.2067 -0.000854492 17.4444 0.31451 16.882 0.876006L14.007 3.74601L15.42 5.16101L18 2.58201V21.416L15.415 18.834L14.002 20.249L16.881 23.124C17.4434 23.6855 18.2057 24.0009 19.0005 24.0009C19.7952 24.0009 20.5575 23.6855 21.12 23.124L24 20.254L22.587 18.839L20 21.417Z" fill="#374957"/>
</g>
<defs>
<clipPath id="clip0_51_79893">
<rect width="24" height="24" fill="white"/>
</clipPath>
</defs>
</svg>
