<svg width="24" height="24" viewBox="0 0 24 24" fill="none" xmlns="http://www.w3.org/2000/svg">
<g clip-path="url(#clip0_51_81828)">
<path d="M24 23C24 23.2652 23.8946 23.5196 23.7071 23.7071C23.5196 23.8947 23.2652 24 23 24H1C0.734784 24 0.48043 23.8947 0.292893 23.7071C0.105357 23.5196 0 23.2652 0 23C0 22.7348 0.105357 22.4804 0.292893 22.2929C0.48043 22.1054 0.734784 22 1 22H23C23.2652 22 23.5196 22.1054 23.7071 22.2929C23.8946 22.4804 24 22.7348 24 23ZM3.75 15C4.818 15 5.5 14.343 5.5 14C5.5 13.7348 5.60536 13.4804 5.79289 13.2929C5.98043 13.1054 6.23478 13 6.5 13C6.76522 13 7.01957 13.1054 7.20711 13.2929C7.39464 13.4804 7.5 13.7348 7.5 14C7.5 14.306 8.161 15 9.25 15C10.318 15 11 14.343 11 14C11 13.7348 11.1054 13.4804 11.2929 13.2929C11.4804 13.1054 11.7348 13 12 13C12.2652 13 12.5196 13.1054 12.7071 13.2929C12.8946 13.4804 13 13.7348 13 14C13 14.306 13.661 15 14.75 15C15.818 15 16.5 14.343 16.5 14C16.5 13.7348 16.6054 13.4804 16.7929 13.2929C16.9804 13.1054 17.2348 13 17.5 13C17.7652 13 18.0196 13.1054 18.2071 13.2929C18.3946 13.4804 18.5 13.7348 18.5 14C18.5 14.306 19.161 15 20.25 15C21.339 15 22 14.306 22 14C21.9984 12.6744 21.4711 11.4036 20.5338 10.4662C19.5964 9.52889 18.3256 9.0016 17 9.00001H13V6.81601C13.5829 6.60993 14.0879 6.22878 14.4459 5.72471C14.8039 5.22064 14.9974 4.61827 15 4.00001C14.7853 2.72601 14.2059 1.54155 13.332 0.59001C13.159 0.411867 12.952 0.27025 12.7233 0.173543C12.4946 0.0768367 12.2488 0.0270081 12.0005 0.0270081C11.7522 0.0270081 11.5064 0.0768367 11.2777 0.173543C11.049 0.27025 10.842 0.411867 10.669 0.59001C9.79438 1.5412 9.2146 2.72577 9 4.00001C9.00256 4.61827 9.19608 5.22064 9.55409 5.72471C9.91209 6.22878 10.4171 6.60993 11 6.81601V9.00001H7C5.6744 9.0016 4.40356 9.52889 3.46622 10.4662C2.52888 11.4036 2.00159 12.6744 2 14C2 14.306 2.661 15 3.75 15ZM3 20H21C21.2652 20 21.5196 19.8947 21.7071 19.7071C21.8946 19.5196 22 19.2652 22 19V16.625C21.4489 16.8697 20.853 16.9974 20.25 17C19.243 17.0076 18.2669 16.6527 17.5 16C16.7286 16.643 15.7569 16.9964 14.7527 16.9991C13.7485 17.0019 12.7749 16.6538 12 16.015C11.2251 16.6538 10.2515 17.0019 9.2473 16.9991C8.24308 16.9964 7.27136 16.643 6.5 16C5.73312 16.6527 4.75699 17.0076 3.75 17C3.14701 16.9974 2.55112 16.8697 2 16.625V19C2 19.2652 2.10536 19.5196 2.29289 19.7071C2.48043 19.8947 2.73478 20 3 20Z" fill="#374957"/>
</g>
<defs>
<clipPath id="clip0_51_81828">
<rect width="24" height="24" fill="white"/>
</clipPath>
</defs>
</svg>
