<svg width="24" height="24" viewBox="0 0 24 24" fill="none" xmlns="http://www.w3.org/2000/svg">
<g clip-path="url(#clip0_51_70915)">
<path d="M23.9998 22.5888L17.75 16.339C21.2447 12.0649 20.6129 5.76709 16.3388 2.27242C12.0648 -1.22225 5.76697 -0.590421 2.2723 3.68369C-1.22237 7.9578 -0.590539 14.2555 3.68352 17.7502C7.36498 20.7603 12.6574 20.7603 16.3388 17.7502L22.5886 24L23.9998 22.5888ZM10.0272 18.0117C5.61749 18.0117 2.04276 14.437 2.04276 10.0273C2.04276 5.61761 5.61749 2.04288 10.0272 2.04288C14.4368 2.04288 18.0115 5.61761 18.0115 10.0273C18.0066 14.4349 14.4348 18.0067 10.0272 18.0117Z" fill="#374957"/>
<path d="M11.0252 6.03601H9.02905V9.03015H6.03491V11.0263H9.02905V14.0204H11.0252V11.0263H14.0193V9.03015H11.0252V6.03601Z" fill="#374957"/>
</g>
<defs>
<clipPath id="clip0_51_70915">
<rect width="24" height="24" fill="white"/>
</clipPath>
</defs>
</svg>
