<svg width="24" height="24" viewBox="0 0 24 24" fill="none" xmlns="http://www.w3.org/2000/svg">
<g clip-path="url(#clip0_51_70575)">
<path d="M16.225 24H7.77395L7.57395 23.9C5.58338 22.8846 3.86249 21.4108 2.55299 19.6001C1.2435 17.7893 0.382861 15.6935 0.0419535 13.485C-0.0302104 13.0585 -0.00826114 12.6213 0.106264 12.2041C0.220789 11.787 0.425122 11.3999 0.704953 11.07C0.98787 10.7346 1.34066 10.465 1.73863 10.2802C2.1366 10.0954 2.57016 9.99976 3.00895 10H20.99C21.4281 10.0001 21.861 10.096 22.2582 10.2808C22.6555 10.4656 23.0076 10.7349 23.29 11.07C23.5701 11.3997 23.7748 11.7867 23.8897 12.2039C24.0046 12.6211 24.0268 13.0583 23.955 13.485C23.6142 15.693 22.754 17.7885 21.4453 19.5991C20.1365 21.4098 18.4166 22.8838 16.427 23.9L16.225 24ZM8.22495 22H15.77C17.4112 21.0954 18.8241 19.8281 19.9012 18.2945C20.9783 16.761 21.691 15.0018 21.985 13.151C22.009 13.0113 22.0019 12.868 21.964 12.7314C21.9262 12.5949 21.8585 12.4683 21.766 12.361C21.6708 12.2478 21.552 12.1569 21.418 12.0945C21.2839 12.0322 21.1378 11.9999 20.99 12H3.00895C2.86109 11.9998 2.71498 12.0321 2.58091 12.0944C2.44684 12.1568 2.32807 12.2478 2.23295 12.361C2.1404 12.4684 2.07269 12.5949 2.03466 12.7314C1.99663 12.868 1.98922 13.0112 2.01295 13.151C2.30734 15.0018 3.0203 16.7609 4.09751 18.2944C5.17472 19.8279 6.58776 21.0953 8.22895 22H8.22495ZM12 6.414C12.0016 5.83397 11.8881 5.25937 11.6662 4.72348C11.4442 4.18759 11.1182 3.70104 10.707 3.292C10.4818 3.06874 10.3034 2.80293 10.182 2.51004C10.0606 2.21715 9.99875 1.90304 9.99995 1.586V0H7.99995V1.586C7.99822 2.16581 8.11152 2.74021 8.3333 3.27593C8.55507 3.81165 8.88091 4.29806 9.29195 4.707C9.74364 5.16049 9.99807 5.77394 9.99995 6.414V8H12V6.414ZM16 5.414C16.0017 4.83409 15.8883 4.25961 15.6664 3.72386C15.4444 3.18811 15.1183 2.70175 14.707 2.293C14.2559 1.83916 14.0019 1.22585 14 0.586V0H12V0.586C12.0035 1.75603 12.4677 2.8776 13.292 3.708C13.5171 3.93131 13.6956 4.19711 13.8171 4.48997C13.9386 4.78283 14.0008 5.09692 14 5.414V7H16V5.414Z" fill="#374957"/>
</g>
<defs>
<clipPath id="clip0_51_70575">
<rect width="24" height="24" fill="white"/>
</clipPath>
</defs>
</svg>
