<svg width="24" height="24" viewBox="0 0 24 24" fill="none" xmlns="http://www.w3.org/2000/svg">
<g clip-path="url(#clip0_51_70581)">
<path d="M21 24H3V3C3 2.20435 3.31607 1.44129 3.87868 0.87868C4.44129 0.31607 5.20435 0 6 0L18 0C18.7956 0 19.5587 0.31607 20.1213 0.87868C20.6839 1.44129 21 2.20435 21 3V24ZM5 22H19V3C19 2.73478 18.8946 2.48043 18.7071 2.29289C18.5196 2.10536 18.2652 2 18 2H6C5.73478 2 5.48043 2.10536 5.29289 2.29289C5.10536 2.48043 5 2.73478 5 3V22Z" fill="#374957"/>
<path d="M12 9C11.4067 9 10.8266 8.82405 10.3333 8.49441C9.83994 8.16477 9.45543 7.69623 9.22836 7.14805C9.0013 6.59987 8.94189 5.99667 9.05765 5.41473C9.1734 4.83279 9.45912 4.29824 9.87868 3.87868C10.2982 3.45912 10.8328 3.1734 11.4147 3.05765C11.9967 2.94189 12.5999 3.0013 13.1481 3.22836C13.6962 3.45543 14.1648 3.83994 14.4944 4.33329C14.8241 4.82664 15 5.40666 15 6C15 6.79565 14.6839 7.55871 14.1213 8.12132C13.5587 8.68393 12.7957 9 12 9ZM12 5C11.8022 5 11.6089 5.05865 11.4444 5.16853C11.28 5.27841 11.1518 5.43459 11.0761 5.61732C11.0004 5.80004 10.9806 6.00111 11.0192 6.19509C11.0578 6.38907 11.153 6.56726 11.2929 6.70711C11.4327 6.84696 11.6109 6.9422 11.8049 6.98079C11.9989 7.01937 12.2 6.99957 12.3827 6.92388C12.5654 6.84819 12.7216 6.72002 12.8315 6.55557C12.9414 6.39112 13 6.19778 13 6C13 5.73479 12.8946 5.48043 12.7071 5.2929C12.5196 5.10536 12.2652 5 12 5Z" fill="#374957"/>
<path d="M12.0002 19.9993C11.0113 19.9993 10.0446 19.706 9.2224 19.1566C8.40015 18.6072 7.75929 17.8263 7.38085 16.9127C7.00241 15.9991 6.90339 14.9937 7.09632 14.0238C7.28925 13.0539 7.76545 12.163 8.46471 11.4637C9.16398 10.7645 10.0549 10.2883 11.0248 10.0953C11.9947 9.90242 13 10.0014 13.9137 10.3799C14.8273 10.7583 15.6082 11.3992 16.1576 12.2214C16.707 13.0437 17.0002 14.0104 17.0002 14.9993C16.9987 16.3249 16.4714 17.5957 15.534 18.5331C14.5967 19.4704 13.3258 19.9977 12.0002 19.9993V19.9993ZM12.0002 11.9993C11.4069 11.9993 10.8269 12.1752 10.3335 12.5049C9.84019 12.8345 9.45567 13.303 9.22861 13.8512C9.00154 14.3994 8.94213 15.0026 9.05789 15.5845C9.17365 16.1665 9.45937 16.701 9.87893 17.1206C10.2985 17.5401 10.833 17.8259 11.415 17.9416C11.9969 18.0574 12.6001 17.998 13.1483 17.7709C13.6965 17.5438 14.165 17.1593 14.4947 16.666C14.8243 16.1726 15.0002 15.5926 15.0002 14.9993C15.0002 14.2036 14.6842 13.4406 14.1216 12.8779C13.559 12.3153 12.7959 11.9993 12.0002 11.9993Z" fill="#374957"/>
<path d="M12.9998 14.0006H10.9998V16.0006H12.9998V14.0006Z" fill="#374957"/>
</g>
<defs>
<clipPath id="clip0_51_70581">
<rect width="24" height="24" fill="white"/>
</clipPath>
</defs>
</svg>
