<svg width="24" height="24" viewBox="0 0 24 24" fill="none" xmlns="http://www.w3.org/2000/svg">
<g clip-path="url(#clip0_51_80515)">
<path d="M2.36284 4.88047L3.71484 9.25547L0.00683594 11.8685C0.0334318 9.3486 0.858286 6.90204 2.36284 4.88047V4.88047ZM6.87284 19.0005L2.26184 18.9895C3.75028 21.0635 5.86006 22.6101 8.28584 23.4055L6.87284 19.0005ZM11.9998 3.25247L15.6758 0.581466C13.2864 -0.193171 10.7133 -0.193171 8.32384 0.581466L11.9998 3.25247ZM21.6278 4.86847L20.2718 9.25547L23.9938 11.8775C23.9682 9.34937 23.1397 6.89486 21.6278 4.86847V4.86847ZM17.1148 19.0005L15.6998 23.4105C18.1321 22.6151 20.2475 21.065 21.7388 18.9855L17.1148 19.0005ZM13.4408 23.9095C12.9628 23.9686 12.4816 23.999 11.9998 24.0005C11.5136 23.9965 11.028 23.9631 10.5458 23.9005L8.33284 17.0005L1.09984 16.9825C0.687827 16.087 0.388863 15.1438 0.209836 14.1745L6.05784 10.0535L3.92484 3.15347C4.61436 2.51787 5.37587 1.96511 6.19384 1.50647L11.9998 5.72447L17.8058 1.50647C18.6208 1.9625 19.3799 2.51186 20.0678 3.14347L17.9328 10.0535L23.7918 14.1825C23.6121 15.1489 23.3135 16.0893 22.9028 16.9825L15.6548 17.0005L13.4408 23.9095ZM8.34884 17.0005H15.6488L17.9048 10.0565L11.9998 5.76447L6.09284 10.0565L8.34884 17.0005ZM8.44884 10.8195L9.79984 15.0005H14.1998L15.5578 10.8195L11.9998 8.23647L8.44884 10.8195Z" fill="#374957"/>
</g>
<defs>
<clipPath id="clip0_51_80515">
<rect width="24" height="24" fill="white"/>
</clipPath>
</defs>
</svg>
