<svg width="24" height="24" viewBox="0 0 24 24" fill="none" xmlns="http://www.w3.org/2000/svg">
<g clip-path="url(#clip0_51_70463)">
<path d="M15.9371 8.28262C16.0842 9.10797 15.9696 9.95863 15.6094 10.7156C15.2491 11.4726 14.6613 12.0981 13.9281 12.5046C13.6549 12.7112 13.4302 12.975 13.2699 13.2777C13.1095 13.5804 13.0175 13.9145 13.0001 14.2566V14.9996H11.0001V14.2566C11.0189 13.5579 11.2073 12.8742 11.5491 12.2645C11.8909 11.6547 12.3758 11.1372 12.9621 10.7566C13.3325 10.5539 13.6292 10.2391 13.8098 9.85736C13.9903 9.47563 14.0454 9.04657 13.9671 8.63162C13.8901 8.23591 13.6967 7.87222 13.4116 7.58715C13.1265 7.30209 12.7628 7.10865 12.3671 7.03162C12.0782 6.97769 11.781 6.9881 11.4965 7.0621C11.2121 7.13611 10.9475 7.27189 10.7215 7.45978C10.4955 7.64768 10.3137 7.88308 10.189 8.14922C10.0643 8.41537 9.99983 8.70572 10.0001 8.99962H8.00012C7.99955 8.41545 8.12723 7.83826 8.37415 7.30883C8.62107 6.7794 8.9812 6.31063 9.42912 5.93562C9.9655 5.48512 10.6108 5.18337 11.3004 5.06055C11.99 4.93774 12.6998 4.99817 13.3587 5.2358C14.0176 5.47343 14.6026 5.87993 15.0551 6.41462C15.5076 6.94932 15.8117 7.59347 15.9371 8.28262ZM22.0001 5.46662V11.9906C22.0001 19.4276 14.9531 22.8396 12.7931 23.7076L11.9581 24.0436L11.1581 23.6436C9.00512 22.5666 2.00012 18.5536 2.00012 11.9906V5.46662C1.99995 4.83705 2.19837 4.22345 2.56716 3.71319C2.93594 3.20293 3.45628 2.822 4.05412 2.62462L12.0001 -0.010376L19.9461 2.62462C20.544 2.822 21.0643 3.20293 21.4331 3.71319C21.8019 4.22345 22.0003 4.83705 22.0001 5.46662V5.46662ZM20.0001 5.46662C19.9991 5.25751 19.9326 5.05398 19.8099 4.88464C19.6872 4.71531 19.5145 4.5887 19.3161 4.52262L12.0001 2.09962L4.68412 4.52262C4.48572 4.5887 4.31303 4.71531 4.19034 4.88464C4.06764 5.05398 4.00112 5.25751 4.00012 5.46662V11.9906C4.00012 17.4066 10.1591 20.9076 12.0471 21.8526C13.9131 21.0996 20.0001 18.1736 20.0001 11.9906V5.46662ZM11.0001 18.9996H13.0001V16.9996H11.0001V18.9996Z" fill="#374957"/>
</g>
<defs>
<clipPath id="clip0_51_70463">
<rect width="24" height="24" fill="white"/>
</clipPath>
</defs>
</svg>
