<svg width="24" height="24" viewBox="0 0 24 24" fill="none" xmlns="http://www.w3.org/2000/svg">
<g clip-path="url(#clip0_51_80113)">
<path d="M14.4141 12.9998L21.1591 19.7448C22.7704 17.8428 23.7463 15.4843 23.9501 12.9998H14.4141Z" fill="#374957"/>
<path d="M11.2924 12.707L10.9994 12.414V0.0500183C9.11523 0.204421 7.29417 0.801817 5.68465 1.79352C4.07513 2.78523 2.72269 4.14318 1.73755 5.75673C0.752401 7.37027 0.162424 9.19375 0.0156929 11.0786C-0.131038 12.9634 0.16963 14.8562 0.893194 16.6027C1.61676 18.3493 2.74274 19.9002 4.1794 21.1291C5.61605 22.3579 7.32271 23.2299 9.16031 23.6741C10.9979 24.1182 12.9145 24.1219 14.7537 23.6848C16.593 23.2478 18.3031 22.3823 19.7444 21.159L11.2924 12.707Z" fill="#374957"/>
<path d="M13 11H23.95C23.7139 8.17489 22.4845 5.5248 20.4798 3.52017C18.4752 1.51554 15.8251 0.286076 13 0.0500183V11Z" fill="#374957"/>
</g>
<defs>
<clipPath id="clip0_51_80113">
<rect width="24" height="24" fill="white"/>
</clipPath>
</defs>
</svg>
