<svg width="24" height="24" viewBox="0 0 24 24" fill="none" xmlns="http://www.w3.org/2000/svg">
<g clip-path="url(#clip0_51_69308)">
<path d="M20.9998 16.1268V14.9998C20.9998 14.2042 20.6837 13.4411 20.1211 12.8785C19.5585 12.3159 18.7954 11.9998 17.9998 11.9998H12.9998V9.8998C14.2138 9.65199 15.2926 8.96222 16.027 7.96421C16.7613 6.96621 17.099 5.73108 16.9744 4.49828C16.8499 3.26548 16.2721 2.12283 15.3529 1.29187C14.4338 0.460904 13.2388 0.000823975 11.9998 0.000823975C10.7607 0.000823975 9.56575 0.460904 8.64661 1.29187C7.72748 2.12283 7.14962 3.26548 7.02508 4.49828C6.90055 5.73108 7.23819 6.96621 7.97257 7.96421C8.70694 8.96222 9.78572 9.65199 10.9998 9.8998V11.9998H5.99977C5.20412 11.9998 4.44105 12.3159 3.87845 12.8785C3.31584 13.4411 2.99977 14.2042 2.99977 14.9998V16.1268C2.05711 16.3702 1.23558 16.949 0.689164 17.7548C0.142751 18.5606 -0.0910276 19.538 0.0316468 20.5038C0.154321 21.4696 0.625027 22.3575 1.35553 23.0011C2.08604 23.6447 3.02619 23.9998 3.99977 23.9998C4.97334 23.9998 5.91349 23.6447 6.644 23.0011C7.3745 22.3575 7.84521 21.4696 7.96788 20.5038C8.09056 19.538 7.85678 18.5606 7.31037 17.7548C6.76395 16.949 5.94242 16.3702 4.99977 16.1268V14.9998C4.99977 14.7346 5.10512 14.4802 5.29266 14.2927C5.4802 14.1052 5.73455 13.9998 5.99977 13.9998H10.9998V16.1268C10.0571 16.3702 9.23558 16.949 8.68916 17.7548C8.14275 18.5606 7.90897 19.538 8.03165 20.5038C8.15432 21.4696 8.62503 22.3575 9.35553 23.0011C10.086 23.6447 11.0262 23.9998 11.9998 23.9998C12.9733 23.9998 13.9135 23.6447 14.644 23.0011C15.3745 22.3575 15.8452 21.4696 15.9679 20.5038C16.0906 19.538 15.8568 18.5606 15.3104 17.7548C14.764 16.949 13.9424 16.3702 12.9998 16.1268V13.9998H17.9998C18.265 13.9998 18.5193 14.1052 18.7069 14.2927C18.8944 14.4802 18.9998 14.7346 18.9998 14.9998V16.1268C18.0571 16.3702 17.2356 16.949 16.6892 17.7548C16.1428 18.5606 15.909 19.538 16.0316 20.5038C16.1543 21.4696 16.625 22.3575 17.3555 23.0011C18.086 23.6447 19.0262 23.9998 19.9998 23.9998C20.9733 23.9998 21.9135 23.6447 22.644 23.0011C23.3745 22.3575 23.8452 21.4696 23.9679 20.5038C24.0906 19.538 23.8568 18.5606 23.3104 17.7548C22.764 16.949 21.9424 16.3702 20.9998 16.1268V16.1268ZM8.99977 4.9998C8.99977 4.40646 9.17571 3.82644 9.50536 3.33309C9.835 2.83975 10.3035 2.45523 10.8517 2.22816C11.3999 2.0011 12.0031 1.94169 12.585 2.05745C13.167 2.1732 13.7015 2.45893 14.1211 2.87848C14.5406 3.29804 14.8264 3.83259 14.9421 4.41453C15.0579 4.99648 14.9985 5.59968 14.7714 6.14785C14.5443 6.69603 14.1598 7.16457 13.6665 7.49421C13.1731 7.82386 12.5931 7.9998 11.9998 7.9998C11.2041 7.9998 10.4411 7.68373 9.87844 7.12112C9.31584 6.55851 8.99977 5.79545 8.99977 4.9998V4.9998ZM5.99977 19.9998C5.99977 20.3954 5.88247 20.782 5.6627 21.1109C5.44294 21.4398 5.13058 21.6962 4.76513 21.8476C4.39968 21.9989 3.99755 22.0385 3.60959 21.9614C3.22162 21.8842 2.86526 21.6937 2.58555 21.414C2.30585 21.1343 2.11537 20.7779 2.0382 20.39C1.96102 20.002 2.00063 19.5999 2.15201 19.2344C2.30338 18.869 2.55973 18.5566 2.88863 18.3369C3.21752 18.1171 3.6042 17.9998 3.99977 17.9998C4.5302 17.9998 5.03891 18.2105 5.41398 18.5856C5.78905 18.9607 5.99977 19.4694 5.99977 19.9998ZM13.9998 19.9998C13.9998 20.3954 13.8825 20.782 13.6627 21.1109C13.4429 21.4398 13.1306 21.6962 12.7651 21.8476C12.3997 21.9989 11.9975 22.0385 11.6096 21.9614C11.2216 21.8842 10.8653 21.6937 10.5856 21.414C10.3058 21.1343 10.1154 20.7779 10.0382 20.39C9.96102 20.002 10.0006 19.5999 10.152 19.2344C10.3034 18.869 10.5597 18.5566 10.8886 18.3369C11.2175 18.1171 11.6042 17.9998 11.9998 17.9998C12.5302 17.9998 13.0389 18.2105 13.414 18.5856C13.7891 18.9607 13.9998 19.4694 13.9998 19.9998ZM19.9998 21.9998C19.6042 21.9998 19.2175 21.8825 18.8886 21.6627C18.5597 21.443 18.3034 21.1306 18.152 20.7652C18.0006 20.3997 17.961 19.9976 18.0382 19.6096C18.1154 19.2217 18.3058 18.8653 18.5856 18.5856C18.8653 18.3059 19.2216 18.1154 19.6096 18.0382C19.9975 17.9611 20.3997 18.0007 20.7651 18.152C21.1306 18.3034 21.4429 18.5598 21.6627 18.8887C21.8825 19.2176 21.9998 19.6042 21.9998 19.9998C21.9998 20.5302 21.7891 21.0389 21.414 21.414C21.0389 21.7891 20.5302 21.9998 19.9998 21.9998Z" fill="#374957"/>
</g>
<defs>
<clipPath id="clip0_51_69308">
<rect width="24" height="24" fill="white"/>
</clipPath>
</defs>
</svg>
