<svg width="24" height="24" viewBox="0 0 24 24" fill="none" xmlns="http://www.w3.org/2000/svg">
<g clip-path="url(#clip0_51_70156)">
<path d="M15.4999 3H12.9999V0H10.9999V3H8.49988C7.30681 3.00132 6.16299 3.47585 5.31936 4.31948C4.47573 5.16311 4.0012 6.30693 3.99988 7.5V16C3.99988 18.1217 4.84273 20.1566 6.34302 21.6569C7.84331 23.1571 9.87815 24 11.9999 24C14.1216 24 16.1564 23.1571 17.6567 21.6569C19.157 20.1566 19.9999 18.1217 19.9999 16V7.5C19.9986 6.30693 19.524 5.16311 18.6804 4.31948C17.8368 3.47585 16.6929 3.00132 15.4999 3V3ZM17.9999 16C17.9999 17.5913 17.3677 19.1174 16.2425 20.2426C15.1173 21.3679 13.5912 22 11.9999 22C10.4086 22 8.88246 21.3679 7.75724 20.2426C6.63202 19.1174 5.99988 17.5913 5.99988 16V7.5C5.99988 6.83696 6.26327 6.20107 6.73211 5.73223C7.20095 5.26339 7.83684 5 8.49988 5H15.4999C16.1629 5 16.7988 5.26339 17.2676 5.73223C17.7365 6.20107 17.9999 6.83696 17.9999 7.5V16Z" fill="#374957"/>
<path d="M12.9998 7.00031H10.9998V11.0003H12.9998V7.00031Z" fill="#374957"/>
</g>
<defs>
<clipPath id="clip0_51_70156">
<rect width="24" height="24" fill="white"/>
</clipPath>
</defs>
</svg>
