<svg width="24" height="24" viewBox="0 0 24 24" fill="none" xmlns="http://www.w3.org/2000/svg">
<path d="M12.0001 0.00689697C10.0215 0.0071203 8.08752 0.594267 6.44278 1.69403C4.79804 2.7938 3.5165 4.35676 2.76034 6.18512C2.00418 8.01347 1.80739 10.0251 2.19487 11.9653C2.58234 13.9055 3.53668 15.6872 4.9371 17.0849L12.0001 23.9929L19.0711 17.0769C20.4693 15.6783 21.4213 13.8966 21.807 11.957C22.1926 10.0173 21.9945 8.00693 21.2377 6.17989C20.4809 4.35285 19.1993 2.79123 17.5551 1.69246C15.9108 0.593697 13.9777 0.00712151 12.0001 0.00689697V0.00689697ZM17.6651 15.6549L12.0001 21.1999L6.3431 15.6629C5.22466 14.5444 4.46289 13.1195 4.15406 11.5681C3.84524 10.0168 4.00321 8.40879 4.60803 6.94724C5.21284 5.48569 6.23734 4.23623 7.55206 3.35676C8.86678 2.4773 10.4127 2.00731 11.9944 2.0062C13.5762 2.00508 15.1228 2.47288 16.4387 3.35048C17.7547 4.22809 18.781 5.4761 19.3878 6.9368C19.9947 8.39749 20.155 10.0053 19.8483 11.5571C19.5417 13.1088 18.782 14.5348 17.6651 15.6549V15.6549ZM16.0181 7.4229L13.5181 5.5129C13.0818 5.1811 12.5487 5.00145 12.0006 5.00145C11.4525 5.00145 10.9194 5.1811 10.4831 5.5129L7.9831 7.4229C7.67835 7.65678 7.43128 7.95741 7.26087 8.3017C7.09046 8.64598 7.00125 9.02475 7.0001 9.4089V13.9999H17.0001V9.4089C16.9989 9.02486 16.9098 8.64619 16.7396 8.30194C16.5693 7.95768 16.3225 7.65698 16.0181 7.4229V7.4229ZM15.0001 11.9999H13.0001V9.9999H11.0001V11.9999H9.0001V9.4089C9.0001 9.33127 9.01817 9.25472 9.05288 9.18529C9.0876 9.11586 9.138 9.05547 9.2001 9.0089L11.7001 7.0999C11.7874 7.03308 11.8942 6.99687 12.0041 6.99687C12.114 6.99687 12.2208 7.03308 12.3081 7.0999L14.8081 9.0099C14.8702 9.05647 14.9206 9.11686 14.9553 9.18629C14.99 9.25572 15.0081 9.33227 15.0081 9.4099L15.0001 11.9999Z" fill="#374957"/>
</svg>
