<svg width="24" height="24" viewBox="0 0 24 24" fill="none" xmlns="http://www.w3.org/2000/svg">
<g clip-path="url(#clip0_51_80394)">
<path d="M1.2 8.43703L8.48 1.44903C9.419 0.51824 10.6884 -0.00273874 12.0106 7.23524e-05C13.3327 0.00288345 14.6 0.529255 15.535 1.46403L22.805 8.43703L14.121 17.122C13.5493 17.667 12.7898 17.971 12 17.971C11.2102 17.971 10.4507 17.667 9.879 17.122L1.2 8.43703ZM15.54 18.537C14.6024 19.4744 13.3308 20.001 12.005 20.001C10.6792 20.001 9.40764 19.4744 8.47 18.537L0.16 10.23C0.0597823 10.5713 0.00596553 10.9244 0 11.28L0 24H24V11.28C23.994 10.9244 23.9402 10.5713 23.84 10.23L15.54 18.537Z" fill="#374957"/>
</g>
<defs>
<clipPath id="clip0_51_80394">
<rect width="24" height="24" fill="white"/>
</clipPath>
</defs>
</svg>
