<svg width="24" height="24" viewBox="0 0 24 24" fill="none" xmlns="http://www.w3.org/2000/svg">
<g clip-path="url(#clip0_51_79956)">
<path d="M24 10V7.90901C24.0001 7.37005 23.855 6.84101 23.58 6.37751C23.3049 5.91402 22.9101 5.53317 22.437 5.27501L13.437 0.366007C12.9964 0.124866 12.5023 -0.00152588 12 -0.00152588C11.4977 -0.00152588 11.0036 0.124866 10.563 0.366007L1.563 5.27501C1.08989 5.53317 0.695071 5.91402 0.420033 6.37751C0.144995 6.84101 -9.97046e-05 7.37005 5.14037e-08 7.90901V10H3V19H1V22H5.14037e-08V24H24V22H23V19H21V10H24ZM14 10V19H10V10H14ZM5 10H8V19H5V10ZM19 19H16V10H19V19Z" fill="#374957"/>
</g>
<defs>
<clipPath id="clip0_51_79956">
<rect width="24" height="24" fill="white"/>
</clipPath>
</defs>
</svg>
