<svg width="24" height="24" viewBox="0 0 24 24" fill="none" xmlns="http://www.w3.org/2000/svg">
<g clip-path="url(#clip0_51_69662)">
<path d="M21 0H3C2.20435 0 1.44129 0.31607 0.87868 0.87868C0.31607 1.44129 0 2.20435 0 3L0 24H18.35C20.556 21.793 21.793 20.556 24 18.35V3C24 2.20435 23.6839 1.44129 23.1213 0.87868C22.5587 0.31607 21.7956 0 21 0V0ZM2 3C2 2.73478 2.10536 2.48043 2.29289 2.29289C2.48043 2.10536 2.73478 2 3 2H21C21.2652 2 21.5196 2.10536 21.7071 2.29289C21.8946 2.48043 22 2.73478 22 3V16H16V22H2V3ZM18 21.521V18H21.521L18 21.521Z" fill="#374957"/>
<path d="M6.50024 5.00669L4.14624 11.1877H5.48424L6.00024 9.8237H8.04924L8.56324 11.1867H9.90024L7.56624 4.99969L6.50024 5.00669ZM6.48024 8.5737L7.03124 7.12669L7.57724 8.5737H6.48024Z" fill="#374957"/>
<path d="M12.406 5.06207H11.156V11.1311H12.406V5.06207Z" fill="#374957"/>
</g>
<defs>
<clipPath id="clip0_51_69662">
<rect width="24" height="24" fill="white"/>
</clipPath>
</defs>
</svg>
