<svg width="24" height="24" viewBox="0 0 24 24" fill="none" xmlns="http://www.w3.org/2000/svg">
<g clip-path="url(#clip0_51_72299)">
<path d="M23.7197 22.3002L17.7593 16.3398C21.2558 12.0636 20.6236 5.76253 16.3473 2.26613C12.0711 -1.23028 5.77009 -0.598218 2.27363 3.67805C-1.22282 7.95431 -0.590663 14.2553 3.6856 17.7518C7.36895 20.7635 12.664 20.7635 16.3474 17.7518L22.3078 23.7122C22.7045 24.0953 23.3366 24.0843 23.7197 23.6876C24.0934 23.3007 24.0934 22.6872 23.7197 22.3002ZM2.04395 10.0249C2.04395 5.613 5.62051 2.03644 10.0324 2.03644C14.4444 2.03644 18.0209 5.613 18.0209 10.0249C18.0209 14.4368 14.4444 18.0134 10.0324 18.0134C5.62257 18.0084 2.04891 14.4348 2.04395 10.0249ZM12.0296 6.03066C11.2836 6.03403 10.5679 6.32602 10.0325 6.84548C9.49707 6.32606 8.78134 6.03403 8.03537 6.03066C6.32757 6.08981 4.98863 7.518 5.03968 9.22603C5.03968 11.2231 7.07776 13.2832 8.78827 14.6582C9.51638 15.2381 10.5486 15.2381 11.2767 14.6582C12.9872 13.2832 15.0253 11.2231 15.0253 9.22603C15.0763 7.518 13.7374 6.08981 12.0296 6.03066ZM10.0384 13.1005C8.1871 11.6126 7.03674 10.1248 7.03674 9.22608C6.98691 8.62111 7.43124 8.08786 8.03532 8.02781C8.63935 8.08786 9.08373 8.62111 9.0339 9.22608C9.0339 9.77756 9.48095 10.2247 10.0325 10.2247C10.584 10.2247 11.0311 9.77761 11.0311 9.22608C10.9812 8.62111 11.4256 8.08786 12.0296 8.02781C12.6337 8.08786 13.078 8.62111 13.0282 9.22608C13.0281 10.1248 11.8778 11.6126 10.0384 13.1005Z" fill="#374957"/>
</g>
<defs>
<clipPath id="clip0_51_72299">
<rect width="24" height="24" fill="white"/>
</clipPath>
</defs>
</svg>
