<svg width="24" height="24" viewBox="0 0 24 24" fill="none" xmlns="http://www.w3.org/2000/svg">
<path d="M20.9997 12.4177V10.9997C20.9997 8.61275 20.0515 6.32356 18.3636 4.63573C16.6758 2.94791 14.3866 1.99969 11.9997 1.99969C9.61272 1.99969 7.32353 2.94791 5.6357 4.63573C3.94788 6.32356 2.99967 8.61275 2.99967 10.9997V12.4177C1.94721 12.8774 1.08509 13.6854 0.558209 14.7058C0.0313274 15.7263 -0.128192 16.8971 0.106464 18.0213C0.34112 19.1455 0.955645 20.1547 1.84675 20.8792C2.73785 21.6037 3.8512 21.9994 4.99967 21.9997H6.99967V11.9997H4.99967V10.9997C4.99967 9.14318 5.73716 7.3627 7.04992 6.04995C8.36267 4.73719 10.1431 3.99969 11.9997 3.99969C13.8562 3.99969 15.6367 4.73719 16.9494 6.04995C18.2622 7.3627 18.9997 9.14318 18.9997 10.9997V11.9997H16.9997V21.9997H18.9997C20.1481 21.9994 21.2615 21.6037 22.1526 20.8792C23.0437 20.1547 23.6582 19.1455 23.8929 18.0213C24.1275 16.8971 23.968 15.7263 23.4411 14.7058C22.9142 13.6854 22.0521 12.8774 20.9997 12.4177Z" fill="#374957"/>
</svg>
