<svg width="24" height="24" viewBox="0 0 24 24" fill="none" xmlns="http://www.w3.org/2000/svg">
<path d="M12 0.999818C9.44911 0.998955 6.96434 1.81135 4.90663 3.31901C2.84892 4.82667 1.32544 6.95107 0.557467 9.38365C-0.210503 11.8162 -0.182966 14.4303 0.636078 16.8461C1.45512 19.262 3.02302 21.3538 5.11203 22.8178L5.37103 22.9998H18.629L18.888 22.8178C20.977 21.3538 22.5449 19.262 23.364 16.8461C24.183 14.4303 24.2106 11.8162 23.4426 9.38365C22.6746 6.95107 21.1511 4.82667 19.0934 3.31901C17.0357 1.81135 14.551 0.998955 12 0.999818V0.999818ZM6.06003 19.7508C4.4239 18.3198 3.36185 16.3443 3.07062 14.1902C2.7794 12.0362 3.27874 9.84959 4.47614 8.03549C5.67354 6.22138 7.48785 4.90273 9.58299 4.32379C11.6781 3.74486 13.9121 3.94489 15.871 4.88682L14.345 6.41282C13.593 6.14101 12.7997 6.00128 12 5.99982C10.5774 5.99819 9.18821 6.43053 8.01777 7.23913C6.84733 8.04772 5.95139 9.1941 5.44954 10.5252C4.94769 11.8564 4.86382 13.3089 5.20911 14.6889C5.55441 16.069 6.31245 17.3109 7.38203 18.2488L6.06003 19.7508ZM12 14.9998C11.7134 15.0036 11.4292 14.9457 11.1669 14.83C10.9045 14.7144 10.6701 14.5437 10.4795 14.3295C10.2889 14.1153 10.1466 13.8626 10.0622 13.5886C9.97785 13.3146 9.95337 13.0257 9.99045 12.7414C10.0275 12.4571 10.1253 12.184 10.2771 11.9408C10.429 11.6976 10.6313 11.4899 10.8705 11.3318C11.1096 11.1736 11.38 11.0687 11.6632 11.0242C11.9464 10.9797 12.2359 10.9966 12.512 11.0738L17.293 6.29282L18.707 7.70682L13.926 12.4878C14.0094 12.7836 14.0227 13.0947 13.9647 13.3965C13.9068 13.6983 13.7793 13.9824 13.5923 14.2263C13.4053 14.4701 13.164 14.667 12.8876 14.8013C12.6112 14.9356 12.3073 15.0036 12 14.9998V14.9998ZM17.94 19.7508L16.618 18.2508C17.6735 17.331 18.4263 16.1137 18.7777 14.7585C19.1291 13.4033 19.0626 11.9736 18.587 10.6568L20.113 9.13082C20.9627 10.8949 21.2102 12.889 20.8177 14.8073C20.4252 16.7256 19.4143 18.4622 17.94 19.7508V19.7508Z" fill="#374957"/>
</svg>
