<svg width="24" height="24" viewBox="0 0 24 24" fill="none" xmlns="http://www.w3.org/2000/svg">
<g clip-path="url(#clip0_51_69648)">
<path d="M23.8209 11.181C22.9429 9.261 19.4999 3 11.9999 3C4.49987 3 1.05687 9.261 0.178871 11.181C0.0610095 11.4383 0 11.718 0 12.001C0 12.284 0.0610095 12.5637 0.178871 12.821C1.05687 14.739 4.49987 21 11.9999 21C19.4999 21 22.9429 14.739 23.8209 12.819C23.9385 12.562 23.9994 12.2827 23.9994 12C23.9994 11.7173 23.9385 11.438 23.8209 11.181V11.181ZM11.9999 19C5.69287 19 2.74987 13.634 1.99987 12.011C2.74987 10.366 5.69287 5 11.9999 5C18.2919 5 21.2359 10.343 21.9999 12C21.2359 13.657 18.2919 19 11.9999 19Z" fill="#374957"/>
<path d="M11.9998 7.00031C11.0109 7.00031 10.0442 7.29355 9.22191 7.84296C8.39966 8.39236 7.7588 9.17326 7.38036 10.0869C7.00192 11.0005 6.90291 12.0059 7.09583 12.9758C7.28876 13.9457 7.76496 14.8366 8.46422 15.5358C9.16349 16.2351 10.0544 16.7113 11.0243 16.9042C11.9942 17.0972 12.9995 16.9981 13.9132 16.6197C14.8268 16.2413 15.6077 15.6004 16.1571 14.7782C16.7065 13.9559 16.9998 12.9892 16.9998 12.0003C16.9982 10.6747 16.4709 9.40386 15.5335 8.46653C14.5962 7.52919 13.3254 7.00189 11.9998 7.00031V7.00031ZM11.9998 15.0003C11.4064 15.0003 10.8264 14.8244 10.333 14.4947C9.8397 14.1651 9.45518 13.6965 9.22812 13.1484C9.00106 12.6002 8.94165 11.997 9.0574 11.415C9.17316 10.8331 9.45888 10.2985 9.87844 9.87898C10.298 9.45943 10.8325 9.1737 11.4145 9.05795C11.9964 8.94219 12.5996 9.0016 13.1478 9.22867C13.696 9.45573 14.1645 9.84025 14.4942 10.3336C14.8238 10.8269 14.9998 11.407 14.9998 12.0003C14.9998 12.796 14.6837 13.559 14.1211 14.1216C13.5585 14.6842 12.7954 15.0003 11.9998 15.0003Z" fill="#374957"/>
</g>
<defs>
<clipPath id="clip0_51_69648">
<rect width="24" height="24" fill="white"/>
</clipPath>
</defs>
</svg>
