<svg width="24" height="24" viewBox="0 0 24 24" fill="none" xmlns="http://www.w3.org/2000/svg">
<g clip-path="url(#clip0_51_80479)">
<path d="M23.9999 6.857C23.9999 7.542 23.6589 8 22.9739 8H16.9839C16.8179 15.694 14.7159 20.2 9.83589 22.369C9.24096 20.4361 8.18188 18.6782 6.75111 17.2488C5.32034 15.8194 3.56141 14.762 1.62789 14.169C3.79989 9.286 8.29989 7.182 15.9999 7.016V1.026C15.9999 0.341 16.4579 0 17.1429 0C18.0508 0.00473132 18.9201 0.367551 19.562 1.00962C20.2039 1.65169 20.5664 2.52112 20.5709 3.429C21.4788 3.43347 22.3482 3.79603 22.9903 4.43791C23.6323 5.07979 23.9952 5.94912 23.9999 6.857V6.857ZM7.96089 23.066C5.36388 23.7477 2.68415 24.0621 -0.000113791 24C-0.0622024 21.3185 0.25151 18.6415 0.931886 16.047C2.59747 16.5349 4.11388 17.4333 5.34199 18.6596C6.5701 19.886 7.4706 21.4011 7.96089 23.066V23.066ZM3.99989 21C3.99989 20.7348 3.89453 20.4804 3.70699 20.2929C3.51946 20.1054 3.2651 20 2.99989 20C2.73467 20 2.48032 20.1054 2.29278 20.2929C2.10524 20.4804 1.99989 20.7348 1.99989 21C1.99989 21.2652 2.10524 21.5196 2.29278 21.7071C2.48032 21.8946 2.73467 22 2.99989 22C3.2651 22 3.51946 21.8946 3.70699 21.7071C3.89453 21.5196 3.99989 21.2652 3.99989 21ZM11.9999 5.3V3C9.12245 3.07671 6.28321 3.67825 3.62189 4.775C3.13313 5.02774 2.72329 5.41004 2.43722 5.88007C2.15114 6.3501 1.99985 6.88976 1.99989 7.44V9.914C4.24089 7.4 7.48989 5.9 11.9999 5.3ZM18.6999 12C18.4645 14.0736 17.9075 16.0979 17.0489 18H18.2939C21.3819 17.881 20.8509 14.414 21.0019 12H18.6999Z" fill="#374957"/>
</g>
<defs>
<clipPath id="clip0_51_80479">
<rect width="24" height="24" fill="white"/>
</clipPath>
</defs>
</svg>
