<svg width="24" height="24" viewBox="0 0 24 24" fill="none" xmlns="http://www.w3.org/2000/svg">
<g clip-path="url(#clip0_51_80076)">
<path d="M7 21.0001V24.0001H3V21.0001H7ZM17 21.0001V24.0001H21V21.0001H17ZM23.221 11.0001C23.033 10.2821 22.821 9.57106 22.562 8.86906L20.418 2.97506C20.2068 2.39707 19.8234 1.89779 19.3194 1.54461C18.8155 1.19143 18.2154 1.00136 17.6 1.00006H6.4C5.78463 1.00136 5.18448 1.19143 4.68056 1.54461C4.17663 1.89779 3.79319 2.39707 3.582 2.97506L1.438 8.86906C1.183 9.57106 0.967 10.2821 0.779 11.0001H23.221ZM24 17.0321V19.0001H0V17.0321C0.00113628 15.6807 0.116884 14.3319 0.346 13.0001H23.654C23.8831 14.3319 23.9989 15.6807 24 17.0321V17.0321ZM5 15.0001C4.73478 15.0001 4.48043 15.1054 4.29289 15.293C4.10536 15.4805 4 15.7348 4 16.0001V16.0001C4 16.2653 4.10536 16.5196 4.29289 16.7072C4.48043 16.8947 4.73478 17.0001 5 17.0001C5.26522 17.0001 5.51957 16.8947 5.70711 16.7072C5.89464 16.5196 6 16.2653 6 16.0001C6 15.7348 5.89464 15.4805 5.70711 15.293C5.51957 15.1054 5.26522 15.0001 5 15.0001ZM19 15.0001C18.7348 15.0001 18.4804 15.1054 18.2929 15.293C18.1054 15.4805 18 15.7348 18 16.0001C18 16.2653 18.1054 16.5196 18.2929 16.7072C18.4804 16.8947 18.7348 17.0001 19 17.0001C19.2652 17.0001 19.5196 16.8947 19.7071 16.7072C19.8946 16.5196 20 16.2653 20 16.0001C20 15.7348 19.8946 15.4805 19.7071 15.293C19.5196 15.1054 19.2652 15.0001 19 15.0001Z" fill="#374957"/>
</g>
<defs>
<clipPath id="clip0_51_80076">
<rect width="24" height="24" fill="white"/>
</clipPath>
</defs>
</svg>
