<svg width="24" height="24" viewBox="0 0 24 24" fill="none" xmlns="http://www.w3.org/2000/svg">
<g clip-path="url(#clip0_51_80005)">
<path d="M16.0003 8C14.3742 8.00272 12.7878 8.50314 11.4543 9.434C11.6323 9.82 11.8303 10.212 12.0393 10.615C13.2144 12.5469 13.8884 14.7416 14.0003 17C14.0299 19.1608 13.5115 21.2939 12.4933 23.2C13.5749 23.7238 14.7606 23.9972 15.9624 24C17.1641 24.0027 18.351 23.7346 19.435 23.2157C20.5189 22.6967 21.472 21.9402 22.2235 21.0024C22.9749 20.0646 23.5054 18.9695 23.7756 17.7985C24.0458 16.6275 24.0487 15.4107 23.7841 14.2385C23.5195 13.0662 22.9941 11.9686 22.2471 11.0272C21.5001 10.0858 20.5506 9.32486 19.4692 8.80078C18.3877 8.2767 17.2021 8.00299 16.0003 8V8ZM17.0003 16C16.8026 16 16.6092 15.9414 16.4448 15.8315C16.2803 15.7216 16.1522 15.5654 16.0765 15.3827C16.0008 15.2 15.981 14.9989 16.0196 14.8049C16.0581 14.6109 16.1534 14.4327 16.2932 14.2929C16.4331 14.153 16.6113 14.0578 16.8053 14.0192C16.9992 13.9806 17.2003 14.0004 17.383 14.0761C17.5658 14.1518 17.7219 14.28 17.8318 14.4444C17.9417 14.6089 18.0003 14.8022 18.0003 15C18.0003 15.2652 17.895 15.5196 17.7075 15.7071C17.5199 15.8946 17.2656 16 17.0003 16ZM19.0003 13C18.8026 13 18.6092 12.9414 18.4448 12.8315C18.2803 12.7216 18.1522 12.5654 18.0765 12.3827C18.0008 12.2 17.981 11.9989 18.0196 11.8049C18.0581 11.6109 18.1534 11.4327 18.2932 11.2929C18.4331 11.153 18.6113 11.0578 18.8053 11.0192C18.9992 10.9806 19.2003 11.0004 19.383 11.0761C19.5658 11.1518 19.7219 11.28 19.8318 11.4444C19.9417 11.6089 20.0003 11.8022 20.0003 12C20.0003 12.2652 19.895 12.5196 19.7075 12.7071C19.5199 12.8946 19.2656 13 19.0003 13ZM21.0003 16C20.8026 16 20.6092 15.9414 20.4448 15.8315C20.2803 15.7216 20.1522 15.5654 20.0765 15.3827C20.0008 15.2 19.981 14.9989 20.0196 14.8049C20.0581 14.6109 20.1534 14.4327 20.2932 14.2929C20.4331 14.153 20.6113 14.0578 20.8053 14.0192C20.9992 13.9806 21.2003 14.0004 21.383 14.0761C21.5658 14.1518 21.7219 14.28 21.8318 14.4444C21.9417 14.6089 22.0003 14.8022 22.0003 15C22.0003 15.2652 21.895 15.5196 21.7075 15.7071C21.5199 15.8946 21.2656 16 21.0003 16ZM10.2643 11.537C11.284 13.1873 11.8803 15.0638 12.0003 17C12.1063 19.4444 11.2876 21.8391 9.70735 23.707L9.41435 24H2.58635L2.29335 23.707C0.713086 21.8391 -0.105597 19.4444 0.000345965 17C0.120415 15.0638 0.716733 13.1873 1.73635 11.537C2.00935 11.012 2.27235 10.5 2.48935 10H9.51135C9.72835 10.5 9.99135 11.012 10.2643 11.537V11.537ZM2.44635 5.825C2.21826 5.23887 2.0683 4.62527 2.00035 4C2.00035 2.93913 2.42177 1.92172 3.17192 1.17157C3.92206 0.421427 4.93948 0 6.00035 0C7.06121 0 8.07863 0.421427 8.82877 1.17157C9.57892 1.92172 10.0003 2.93913 10.0003 4C9.93239 4.62527 9.78244 5.23887 9.55435 5.825C9.29992 6.53042 9.11439 7.25882 9.00035 8H3.00035C2.88631 7.25882 2.70077 6.53042 2.44635 5.825V5.825Z" fill="#374957"/>
</g>
<defs>
<clipPath id="clip0_51_80005">
<rect width="24" height="24" fill="white"/>
</clipPath>
</defs>
</svg>
