<svg width="24" height="24" viewBox="0 0 24 24" fill="none" xmlns="http://www.w3.org/2000/svg">
<g clip-path="url(#clip0_51_81139)">
<path d="M19.3323 14.6671C18.5756 14.6673 17.8304 14.8516 17.1609 15.204C16.4914 15.5564 15.9177 16.0665 15.4893 16.6901L8.98925 13.7551C9.44509 12.6357 9.44867 11.3831 8.99925 10.2611L15.4933 7.31209C16.1265 8.23083 17.0681 8.89216 18.1472 9.17609C19.2263 9.46003 20.3715 9.34776 21.3749 8.85965C22.3783 8.37155 23.1735 7.53995 23.6163 6.51571C24.059 5.49148 24.12 4.34246 23.7881 3.27712C23.4562 2.21178 22.7535 1.3007 21.8074 0.709144C20.8612 0.117593 19.7344 -0.11523 18.6313 0.0529115C17.5282 0.221053 16.5219 0.779022 15.795 1.62559C15.0681 2.47216 14.6687 3.55125 14.6693 4.66709C14.6692 4.9325 14.6917 5.19745 14.7363 5.45909L7.84525 8.58709C7.18094 7.96752 6.35026 7.55529 5.45507 7.40094C4.55989 7.2466 3.63912 7.35686 2.80569 7.7182C1.97226 8.07953 1.26239 8.67624 0.763149 9.43514C0.263905 10.194 -0.00301348 11.0821 -0.00487303 11.9905C-0.00673258 12.8989 0.256548 13.7881 0.752681 14.549C1.24881 15.31 1.95623 15.9096 2.78818 16.2743C3.62012 16.6391 4.54043 16.7531 5.43624 16.6024C6.33205 16.4518 7.16441 16.0429 7.83125 15.4261L14.7313 18.5431C14.5691 19.4861 14.7007 20.4563 15.1083 21.322C15.5159 22.1878 16.1797 22.9073 17.0099 23.3831C17.8401 23.859 18.7965 24.0681 19.7496 23.9823C20.7026 23.8964 21.6062 23.5196 22.338 22.903C23.0697 22.2865 23.5943 21.4598 23.8405 20.5352C24.0868 19.6105 24.0429 18.6325 23.7147 17.7336C23.3866 16.8347 22.79 16.0585 22.006 15.51C21.2219 14.9614 20.2882 14.6672 19.3313 14.6671H19.3323Z" fill="#374957"/>
</g>
<defs>
<clipPath id="clip0_51_81139">
<rect width="24" height="24" fill="white"/>
</clipPath>
</defs>
</svg>
