<svg width="24" height="24" viewBox="0 0 24 24" fill="none" xmlns="http://www.w3.org/2000/svg">
<g clip-path="url(#clip0_51_69371)">
<path d="M17.7916 7.21215C17.3472 5.30143 16.2163 3.62059 14.6137 2.48913C13.0112 1.35767 11.0488 0.854462 9.09953 1.07516C7.15027 1.29586 5.35005 2.22508 4.04105 3.68619C2.73205 5.1473 2.00554 7.03844 1.99959 9.00015C1.99813 10.2786 2.30697 11.5383 2.89959 12.6711C1.82072 13.2493 0.965994 14.1714 0.471214 15.2909C-0.023567 16.4105 -0.130021 17.6633 0.168766 18.8503C0.467553 20.0373 1.15444 21.0904 2.1203 21.8422C3.08616 22.5941 4.27558 23.0017 5.49959 23.0001H11.9996V21.0001H5.49959C4.64802 21.0027 3.82488 20.6939 3.18511 20.1318C2.54535 19.5698 2.13308 18.7933 2.02591 17.9485C1.91874 17.1037 2.12406 16.2488 2.60323 15.5449C3.08239 14.8409 3.80236 14.3363 4.62759 14.1261L6.06459 13.7551L5.18159 12.5621C4.41313 11.5337 3.99844 10.284 3.99959 9.00015C4.011 7.48613 4.59438 6.0324 5.63273 4.9305C6.67109 3.8286 8.08764 3.15999 9.59831 3.05878C11.109 2.95756 12.6021 3.43121 13.7781 4.38474C14.9542 5.33828 15.7263 6.70118 15.9396 8.20015L16.0396 8.95815L16.7966 9.05815C18.1326 9.23325 19.3705 9.85367 20.3104 10.8192C21.2502 11.7847 21.8371 13.0388 21.9762 14.379C22.1153 15.7192 21.7984 17.0672 21.0769 18.2051C20.3553 19.343 19.2712 20.2044 17.9996 20.6501V22.7371C19.7339 22.2911 21.2681 21.2753 22.3559 19.8528C23.4437 18.4303 24.0221 16.6835 23.9981 14.8929C23.9741 13.1023 23.3492 11.3716 22.2237 9.97875C21.0981 8.58588 19.5373 7.61155 17.7916 7.21215V7.21215Z" fill="#374957"/>
<path d="M18.2931 17.7073L19.7071 16.2933L16.4141 13.0003C16.039 12.6253 15.5304 12.4147 15.0001 12.4147C14.4698 12.4147 13.9611 12.6253 13.5861 13.0003L10.2931 16.2933L11.7071 17.7073L14.0001 15.4143V24.0003H16.0001V15.4143L18.2931 17.7073Z" fill="#374957"/>
</g>
<defs>
<clipPath id="clip0_51_69371">
<rect width="24" height="24" fill="white"/>
</clipPath>
</defs>
</svg>
