<svg width="24" height="24" viewBox="0 0 24 24" fill="none" xmlns="http://www.w3.org/2000/svg">
<g clip-path="url(#clip0_51_81402)">
<path d="M3.141 7.26415L1.359 6.36415C1.73383 5.65867 2.17767 4.99208 2.684 4.37415L4.2 5.68115C3.79793 6.17428 3.44335 6.7043 3.141 7.26415V7.26415ZM2.368 9.14615L0.458 8.55215C0.228756 9.31767 0.0769938 10.1043 0.005 10.9001L1.995 11.1001C2.05401 10.438 2.17897 9.78345 2.368 9.14615V9.14615ZM7.287 3.15715L6.344 1.39315C5.65576 1.75842 5.0047 2.18979 4.4 2.68115L5.641 4.24415C6.15257 3.82855 6.70391 3.46445 7.287 3.15715V3.15715ZM11.044 2.04615L10.863 0.0551475C10.0782 0.126428 9.30236 0.275493 8.547 0.500147L9.114 2.41715C9.74349 2.22998 10.39 2.10571 11.044 2.04615V2.04615ZM23.949 12.0001C23.9232 15.0786 22.7153 18.0293 20.575 20.2422C18.4347 22.455 15.5259 23.7607 12.4501 23.8891C9.3742 24.0175 6.36663 22.9589 4.04936 20.9322C1.73208 18.9055 0.282353 16.0657 0 13.0001H4.023C3.97703 12.6687 3.95231 12.3347 3.949 12.0001C3.94773 10.8648 4.1884 9.74223 4.65498 8.70719C5.12157 7.67215 5.80335 6.74842 6.65491 5.99752C7.50648 5.24663 8.50828 4.68582 9.59357 4.35245C10.6789 4.01907 11.8227 3.92079 12.949 4.06415V0.0511475C15.9457 0.303818 18.7385 1.67162 20.7753 3.88414C22.8121 6.09666 23.9446 8.99286 23.949 12.0001V12.0001ZM13.949 12.0001C13.9481 11.6505 13.8553 11.3072 13.6797 11.0047C13.5042 10.7023 13.2522 10.4514 12.949 10.2771V6.00015H10.949V10.2781C10.6497 10.452 10.4008 10.7008 10.227 11.0001H6.949V13.0001H10.227C10.4461 13.3816 10.7852 13.6799 11.1915 13.8485C11.5978 14.0172 12.0484 14.0467 12.4733 13.9326C12.8981 13.8185 13.2733 13.5671 13.5404 13.2176C13.8075 12.8681 13.9515 12.44 13.95 12.0001H13.949Z" fill="#374957"/>
</g>
<defs>
<clipPath id="clip0_51_81402">
<rect width="24" height="24" fill="white"/>
</clipPath>
</defs>
</svg>
