<svg width="24" height="24" viewBox="0 0 24 24" fill="none" xmlns="http://www.w3.org/2000/svg">
<path d="M18.9997 10.5H10.2067L12.6457 8.061C12.9271 7.77974 13.0852 7.39822 13.0853 7.00036C13.0854 6.6025 12.9275 6.2209 12.6462 5.9395C12.365 5.65811 11.9834 5.49997 11.5856 5.49988C11.1877 5.49978 10.8061 5.65774 10.5247 5.939L6.93871 9.525C6.28348 10.182 5.91553 11.0721 5.91553 12C5.91553 12.9279 6.28348 13.818 6.93871 14.475L10.5247 18.061C10.8061 18.3423 11.1877 18.5002 11.5856 18.5001C11.9834 18.5 12.365 18.3419 12.6462 18.0605C12.9275 17.7791 13.0854 17.3975 13.0853 16.9997C13.0852 16.6018 12.9271 16.2203 12.6457 15.939L10.2067 13.5H18.9997C19.3975 13.5 19.7791 13.342 20.0604 13.0607C20.3417 12.7794 20.4997 12.3978 20.4997 12C20.4997 11.6022 20.3417 11.2206 20.0604 10.9393C19.7791 10.658 19.3975 10.5 18.9997 10.5Z" fill="#374957"/>
</svg>
