<svg width="24" height="24" viewBox="0 0 24 24" fill="none" xmlns="http://www.w3.org/2000/svg">
<g clip-path="url(#clip0_51_82083)">
<path d="M14.762 11.5869C14.2154 11.8981 13.6194 12.1132 13 12.2229V23.8739C13.527 23.7713 14.0337 23.5832 14.5 23.3169L20.527 19.8379C21.2861 19.3978 21.9165 18.7662 22.3552 18.0062C22.7939 17.2462 23.0255 16.3844 23.027 15.5069V8.54693C23.0238 8.01274 22.9343 7.48257 22.762 6.97693L14.762 11.5869Z" fill="#374957"/>
<path d="M10.242 9.8569C10.7775 10.165 11.3846 10.3271 12.0025 10.3271C12.6203 10.3271 13.2274 10.165 13.763 9.8569L21.763 5.2469C21.4086 4.83978 20.9905 4.49293 20.525 4.2199L14.5 0.736897C13.7394 0.299519 12.8773 0.0693359 12 0.0693359C11.1226 0.0693359 10.2605 0.299519 9.49995 0.736897L3.47295 4.2169C3.024 4.47979 2.61908 4.81149 2.27295 5.1999L10.242 9.8569Z" fill="#374957"/>
<path d="M11.0001 12.2232C10.3804 12.1138 9.78404 11.8986 9.23715 11.5872L1.25714 6.92322C1.07247 7.4449 0.976477 7.99383 0.973145 8.54722V15.5072C0.974607 16.3847 1.20625 17.2465 1.64494 18.0065C2.08362 18.7665 2.71401 19.3981 3.47314 19.8382L9.50014 23.3172C9.96642 23.5835 10.4731 23.7716 11.0001 23.8742V12.2232Z" fill="#374957"/>
</g>
<defs>
<clipPath id="clip0_51_82083">
<rect width="24" height="24" fill="white"/>
</clipPath>
</defs>
</svg>
