<svg width="24" height="24" viewBox="0 0 24 24" fill="none" xmlns="http://www.w3.org/2000/svg">
<g clip-path="url(#clip0_51_81389)">
<path d="M12.9489 0.0514385V4.06444C11.8221 3.92105 10.6777 4.01925 9.59189 4.35249C8.50603 4.68573 7.50357 5.24638 6.65122 5.99714C5.79887 6.7479 5.11616 7.67156 4.6485 8.70666C4.18085 9.74177 3.93898 10.8646 3.93898 12.0004C3.93898 13.1363 4.18085 14.2591 4.6485 15.2942C5.11616 16.3293 5.79887 17.253 6.65122 18.0037C7.50357 18.7545 8.50603 19.3151 9.59189 19.6484C10.6777 19.9816 11.8221 20.0798 12.9489 19.9364V23.9494C15.9494 23.7037 18.7477 22.3383 20.7877 20.1243C22.8278 17.9104 23.9603 15.01 23.9603 11.9994C23.9603 8.98889 22.8278 6.08851 20.7877 3.87457C18.7477 1.66062 15.9494 0.295146 12.9489 0.0494385V0.0514385ZM12.9489 13.7234V17.0004H10.9489V13.7234C10.645 13.55 10.3924 13.2992 10.2167 12.9966C10.041 12.694 9.94851 12.3503 9.94851 12.0004C9.94851 11.6505 10.041 11.3069 10.2167 11.0043C10.3924 10.7017 10.645 10.4509 10.9489 10.2774V6.00044H12.9489V10.2774C13.2528 10.4509 13.5053 10.7017 13.681 11.0043C13.8567 11.3069 13.9493 11.6505 13.9493 12.0004C13.9493 12.3503 13.8567 12.694 13.681 12.9966C13.5053 13.2992 13.2528 13.55 12.9489 13.7234V13.7234ZM1.35888 6.36044C1.73394 5.65635 2.17777 4.9911 2.68388 4.37444L4.19988 5.68144C3.79746 6.17453 3.44255 6.70455 3.13988 7.26444L1.35888 6.36044ZM2.36788 9.14644C2.18119 9.78067 2.05792 10.4319 1.99988 11.0904L0.00988281 10.8904C0.0809066 10.0981 0.230987 9.31489 0.457883 8.55244L2.36788 9.14644ZM7.28688 3.15744C6.70379 3.46474 6.15245 3.82884 5.64088 4.24444L4.39988 2.68144C5.00458 2.19008 5.65565 1.75871 6.34388 1.39344L7.28688 3.15744ZM11.0439 2.04644C10.39 2.10502 9.74347 2.22829 9.11388 2.41444L8.54688 0.500438C9.30224 0.275784 10.0781 0.126719 10.8629 0.0554385L11.0439 2.04644ZM3.14388 16.7364C3.44528 17.2962 3.79885 17.8262 4.19988 18.3194L2.68388 19.6264C2.17777 19.0098 1.73394 18.3445 1.35888 17.6404L3.14388 16.7364ZM0.457883 15.4484C0.228966 14.6845 0.0772075 13.8996 0.00488281 13.1054L1.99988 12.9104C2.05955 13.5692 2.1845 14.2204 2.37288 14.8544L0.457883 15.4484ZM6.34388 22.6074C5.65565 22.2422 5.00458 21.8108 4.39988 21.3194L5.64488 19.7564C6.15646 20.172 6.70779 20.5361 7.29088 20.8434L6.34388 22.6074ZM10.8629 23.9454C10.0781 23.8742 9.30224 23.7251 8.54688 23.5004L9.11388 21.5834C9.74347 21.7696 10.39 21.8929 11.0439 21.9514L10.8629 23.9454Z" fill="#374957"/>
</g>
<defs>
<clipPath id="clip0_51_81389">
<rect width="24" height="24" fill="white"/>
</clipPath>
</defs>
</svg>
