<svg width="24" height="24" viewBox="0 0 24 24" fill="none" xmlns="http://www.w3.org/2000/svg">
<g clip-path="url(#clip0_51_80997)">
<path d="M8 18V14H16V12H8V8C8 6.4087 8.63214 4.88258 9.75736 3.75736C10.8826 2.63214 12.4087 2 14 2C15.5913 2 17.1174 2.63214 18.2426 3.75736C19.3679 4.88258 20 6.4087 20 8H22C22 5.87827 21.1571 3.84344 19.6569 2.34315C18.1566 0.842855 16.1217 0 14 0C11.8783 0 9.84344 0.842855 8.34315 2.34315C6.84285 3.84344 6 5.87827 6 8V12H3V14H6V18C6 19.0609 5.57857 20.0783 4.82843 20.8284C4.07828 21.5786 3.06087 22 2 22V24H22V22H6.46C7.45086 20.9033 7.9996 19.478 8 18V18Z" fill="#374957"/>
</g>
<defs>
<clipPath id="clip0_51_80997">
<rect width="24" height="24" fill="white"/>
</clipPath>
</defs>
</svg>
