<svg width="24" height="24" viewBox="0 0 24 24" fill="none" xmlns="http://www.w3.org/2000/svg">
<g clip-path="url(#clip0_51_82352)">
<path d="M6 9.0003H9.99999C9.99999 8.46987 9.78928 7.96116 9.41421 7.58609C9.03913 7.21102 8.53043 7.00031 8 7.00031C7.46956 7.00031 6.96086 7.21102 6.58579 7.58609C6.21071 7.96116 6 8.46987 6 9.0003V9.0003Z" fill="#374957"/>
<path d="M8 5C8.45723 5.00463 8.91022 5.08819 9.339 5.247L11.293 3.293C11.3852 3.19749 11.4956 3.12131 11.6176 3.0689C11.7396 3.01649 11.8708 2.9889 12.0036 2.98775C12.1364 2.9866 12.2681 3.0119 12.391 3.06218C12.5139 3.11246 12.6255 3.18671 12.7194 3.28061C12.8133 3.3745 12.8875 3.48615 12.9378 3.60905C12.9881 3.73194 13.0134 3.86362 13.0123 3.9964C13.0111 4.12918 12.9835 4.2604 12.9311 4.3824C12.8787 4.50441 12.8025 4.61475 12.707 4.707L11.014 6.4C11.6459 7.11913 11.9962 8.04269 12 9H16V5C15.9984 3.6744 15.4711 2.40356 14.5338 1.46622C13.5964 0.528882 12.3256 0.00158786 11 0L5 0C3.6744 0.00158786 2.40356 0.528882 1.46622 1.46622C0.528882 2.40356 0.00158786 3.6744 0 5L0 9H4C4 7.93913 4.42143 6.92172 5.17157 6.17157C5.92172 5.42143 6.93913 5 8 5V5Z" fill="#374957"/>
<path d="M23.681 3.26672C23.4935 3.07925 23.2392 2.97394 22.974 2.97394C22.7088 2.97394 22.4545 3.07925 22.267 3.26672L19.293 6.23972C19.1054 6.42721 19.0001 6.68152 19 6.94672V17.9997C19 18.2649 18.8946 18.5193 18.7071 18.7068C18.5196 18.8943 18.2652 18.9997 18 18.9997H16V10.9997H0V18.9997C0.00158786 20.3253 0.528882 21.5961 1.46622 22.5335C2.40356 23.4708 3.6744 23.9981 5 23.9997H11C11.9718 23.9984 12.9221 23.714 13.7348 23.1812C14.5475 22.6484 15.1873 21.8903 15.576 20.9997H18C18.7956 20.9997 19.5587 20.6836 20.1213 20.121C20.6839 19.5584 21 18.7954 21 17.9997V7.36072L23.681 4.68072C23.8685 4.49319 23.9738 4.23889 23.9738 3.97372C23.9738 3.70856 23.8685 3.45425 23.681 3.26672V3.26672Z" fill="#374957"/>
</g>
<defs>
<clipPath id="clip0_51_82352">
<rect width="24" height="24" fill="white"/>
</clipPath>
</defs>
</svg>
