<svg width="24" height="24" viewBox="0 0 24 24" fill="none" xmlns="http://www.w3.org/2000/svg">
<g clip-path="url(#clip0_51_70368)">
<path d="M12.0003 2.00009C13.3268 2.00444 14.6392 2.27183 15.8617 2.78677C17.0842 3.30172 18.1924 4.05401 19.1223 5.00009H15.0003V7.00009H20.1433C20.6356 6.99956 21.1076 6.80374 21.4558 6.4556C21.8039 6.10746 21.9997 5.63543 22.0003 5.14309V8.75784e-05H20.0003V3.07809C18.2777 1.52695 16.1423 0.508743 13.8527 0.146896C11.5631 -0.21495 9.21769 0.0950946 7.10077 1.03945C4.98385 1.98381 3.18631 3.52193 1.926 5.46738C0.665703 7.41283 -0.00324003 9.68209 0.000257788 12.0001H2.00026C2.00317 9.34882 3.05767 6.80697 4.93241 4.93224C6.80714 3.0575 9.34899 2.003 12.0003 2.00009V2.00009Z" fill="#374957"/>
<path d="M22.0002 12C22.0031 13.9853 21.4141 15.9265 20.3086 17.5755C19.203 19.2245 17.6309 20.5065 15.7932 21.2578C13.9555 22.0091 11.9356 22.1956 9.99141 21.7934C8.04723 21.3913 6.26705 20.4187 4.87824 19H9.00024V17H3.85724C3.3649 17.0005 2.89287 17.1963 2.54473 17.5445C2.19659 17.8926 2.00077 18.3647 2.00024 18.857V24H4.00024V20.922C5.72277 22.4731 7.85825 23.4913 10.1478 23.8532C12.4374 24.215 14.7828 23.905 16.8997 22.9606C19.0166 22.0163 20.8142 20.4782 22.0745 18.5327C23.3348 16.5873 24.0037 14.318 24.0002 12H22.0002Z" fill="#374957"/>
</g>
<defs>
<clipPath id="clip0_51_70368">
<rect width="24" height="24" fill="white"/>
</clipPath>
</defs>
</svg>
