<svg width="24" height="24" viewBox="0 0 24 24" fill="none" xmlns="http://www.w3.org/2000/svg">
<path d="M18.9996 1.00006H4.99965C3.95558 1.00584 2.93951 1.33832 2.09399 1.95086C1.24846 2.56339 0.615901 3.42525 0.285038 4.41552C-0.0458253 5.40579 -0.0583876 6.4748 0.249113 7.47257C0.556614 8.47035 1.16875 9.34683 1.99965 9.97906V23.0001H21.9996V9.97906C22.8305 9.34683 23.4427 8.47035 23.7502 7.47257C24.0577 6.4748 24.0451 5.40579 23.7143 4.41552C23.3834 3.42525 22.7508 2.56339 21.9053 1.95086C21.0598 1.33832 20.0437 1.00584 18.9996 1.00006V1.00006ZM7.99965 18.0001C7.73443 18.0001 7.48008 17.8947 7.29254 17.7072C7.105 17.5196 6.99965 17.2653 6.99965 17.0001C6.99965 16.7348 7.105 16.4805 7.29254 16.293C7.48008 16.1054 7.73443 16.0001 7.99965 16.0001C8.26486 16.0001 8.51922 16.1054 8.70675 16.293C8.89429 16.4805 8.99965 16.7348 8.99965 17.0001C8.99965 17.2653 8.89429 17.5196 8.70675 17.7072C8.51922 17.8947 8.26486 18.0001 7.99965 18.0001V18.0001ZM7.99965 14.0001C7.73443 14.0001 7.48008 13.8947 7.29254 13.7072C7.105 13.5196 6.99965 13.2653 6.99965 13.0001C6.99965 12.7348 7.105 12.4805 7.29254 12.293C7.48008 12.1054 7.73443 12.0001 7.99965 12.0001C8.26486 12.0001 8.51922 12.1054 8.70675 12.293C8.89429 12.4805 8.99965 12.7348 8.99965 13.0001C8.99965 13.2653 8.89429 13.5196 8.70675 13.7072C8.51922 13.8947 8.26486 14.0001 7.99965 14.0001V14.0001ZM11.9996 18.0001C11.7344 18.0001 11.4801 17.8947 11.2925 17.7072C11.105 17.5196 10.9996 17.2653 10.9996 17.0001C10.9996 16.7348 11.105 16.4805 11.2925 16.293C11.4801 16.1054 11.7344 16.0001 11.9996 16.0001C12.2649 16.0001 12.5192 16.1054 12.7068 16.293C12.8943 16.4805 12.9996 16.7348 12.9996 17.0001C12.9996 17.2653 12.8943 17.5196 12.7068 17.7072C12.5192 17.8947 12.2649 18.0001 11.9996 18.0001Z" fill="#374957"/>
</svg>
