<svg width="24" height="24" viewBox="0 0 24 24" fill="none" xmlns="http://www.w3.org/2000/svg">
<g clip-path="url(#clip0_51_70434)">
<path d="M23.9998 22.5888L17.75 16.339C21.2447 12.0649 20.6129 5.76709 16.3388 2.27242C12.0648 -1.22225 5.76697 -0.590421 2.2723 3.68369C-1.22237 7.9578 -0.590539 14.2555 3.68352 17.7502C7.36498 20.7603 12.6574 20.7603 16.3388 17.7502L22.5886 24L23.9998 22.5888ZM10.0272 18.0117C5.61749 18.0117 2.04276 14.437 2.04276 10.0273C2.04276 5.61761 5.61749 2.04288 10.0272 2.04288C14.4368 2.04288 18.0115 5.61761 18.0115 10.0273C18.0066 14.4349 14.4348 18.0067 10.0272 18.0117ZM11.9983 6.03508C11.2716 6.02622 10.5671 6.28441 10.0182 6.76066C9.45753 6.28295 8.74254 6.02514 8.00609 6.03508C6.29891 6.09367 4.96039 7.52144 5.01195 9.22886C5.01195 11.9655 8.97322 14.8469 9.42532 15.1662L10.0022 15.5744L10.5781 15.1662C11.0302 14.8469 14.9924 11.9655 14.9924 9.22886C15.0435 7.52163 13.7052 6.09419 11.9983 6.03508ZM10.0022 13.1023C8.60497 11.9925 7.00808 10.3008 7.00808 9.22886C6.95825 8.62422 7.40239 8.09125 8.00614 8.0312C8.53522 7.996 8.99267 8.39641 9.02787 8.92548C9.03017 8.96003 9.03059 8.99467 9.02914 9.02922H11.0252C10.9783 8.52592 11.3483 8.07995 11.8515 8.03303C11.9003 8.02848 11.9494 8.02788 11.9983 8.03116C12.6018 8.09172 13.0456 8.62431 12.9964 9.22881C12.9964 10.3008 11.3955 11.9924 10.0022 13.1023Z" fill="#374957"/>
</g>
<defs>
<clipPath id="clip0_51_70434">
<rect width="24" height="24" fill="white"/>
</clipPath>
</defs>
</svg>
