<svg width="24" height="24" viewBox="0 0 24 24" fill="none" xmlns="http://www.w3.org/2000/svg">
<path d="M19.7879 3.28071C15.5415 -1.03868 8.5976 -1.09793 4.27821 3.14843C-0.0411808 7.39479 -0.10043 14.3387 4.14593 18.6581C4.19871 18.7118 4.25205 18.7649 4.30591 18.8175L8.23723 22.4497C10.339 24.5058 13.6957 24.5141 15.8077 22.4687L19.7879 18.7906C24.0707 14.5076 24.0707 7.56373 19.7879 3.28071ZM16.0211 12.0327H8.0448C7.49416 12.0327 7.04777 11.5863 7.04777 11.0357C7.04777 10.485 7.49416 10.0386 8.0448 10.0386H16.0211C16.5717 10.0386 17.0181 10.485 17.0181 11.0357C17.0181 11.5863 16.5717 12.0327 16.0211 12.0327Z" fill="#374957"/>
</svg>
