<svg width="24" height="24" viewBox="0 0 24 24" fill="none" xmlns="http://www.w3.org/2000/svg">
<g clip-path="url(#clip0_51_80601)">
<path d="M17.0308 11.9999L10.2068 23.9999H6.1768L14.9428 8.23894L17.0308 11.9999ZM18.1678 14.0459L12.5078 23.9999H16.6998L20.2478 17.7909L18.1678 14.0459ZM21.3848 19.8369L19.0058 23.9999H23.6998L21.3848 19.8369ZM12.5418 3.91594C13.0068 3.78504 13.4086 3.49028 13.6732 3.08612C13.9377 2.68196 14.0471 2.19571 13.981 1.71721C13.9149 1.23871 13.6779 0.80029 13.3137 0.482947C12.9496 0.165604 12.4828 -0.00921631 11.9998 -0.00921631C11.5168 -0.00921631 11.05 0.165604 10.6859 0.482947C10.3217 0.80029 10.0847 1.23871 10.0186 1.71721C9.95253 2.19571 10.0619 2.68196 10.3264 3.08612C10.591 3.49028 10.9928 3.78504 11.4578 3.91594L0.299805 23.9999H3.8888L13.7998 6.17994L12.5418 3.91594Z" fill="#374957"/>
</g>
<defs>
<clipPath id="clip0_51_80601">
<rect width="24" height="24" fill="white"/>
</clipPath>
</defs>
</svg>
