<svg width="24" height="24" viewBox="0 0 24 24" fill="none" xmlns="http://www.w3.org/2000/svg">
<g clip-path="url(#clip0_51_79938)">
<path d="M11.9997 0C10.1041 0.000203007 8.23547 0.449489 6.54695 1.31105C4.85843 2.17262 3.39805 3.42195 2.28543 4.9567C1.17281 6.49145 0.439612 8.26795 0.145898 10.1407C-0.147816 12.0134 0.00631088 13.9291 0.595653 15.7308C1.18499 17.5324 2.19278 19.1689 3.53646 20.506C4.88014 21.8431 6.52148 22.8429 8.32602 23.4234C10.1306 24.004 12.047 24.1487 13.9182 23.8458C15.7895 23.543 17.5624 22.8011 19.0917 21.681L17.9077 20.069C16.0942 21.397 13.8861 22.0752 11.6398 21.9943C9.39353 21.9135 7.23999 21.0781 5.52668 19.6232C3.81336 18.1682 2.6402 16.1784 2.19648 13.9749C1.75275 11.7714 2.06435 9.48262 3.08099 7.47791C4.09763 5.47321 5.76001 3.86947 7.79993 2.92547C9.83984 1.98147 12.1383 1.75225 14.3245 2.2748C16.5106 2.79736 18.457 4.04121 19.8495 5.80566C21.2421 7.5701 21.9995 9.75225 21.9997 12V14C21.9997 14.5304 21.789 15.0391 21.4139 15.4142C21.0388 15.7893 20.5301 16 19.9997 16C19.4693 16 18.9606 15.7893 18.5855 15.4142C18.2104 15.0391 17.9997 14.5304 17.9997 14V12C18.0046 10.5883 17.5132 9.21975 16.6115 8.13351C15.7098 7.04728 14.4551 6.31242 13.0666 6.05735C11.6781 5.80228 10.2442 6.04321 9.01526 6.73805C7.78637 7.43288 6.84071 8.53743 6.34351 9.85871C5.84631 11.18 5.82919 12.6339 6.29515 13.9666C6.76111 15.2992 7.6805 16.4257 8.89269 17.1493C10.1049 17.8728 11.5328 18.1474 12.9269 17.9251C14.321 17.7028 15.5927 16.9977 16.5197 15.933C16.9461 16.7097 17.6192 17.3222 18.4325 17.6736C19.2459 18.0251 20.1532 18.0956 21.011 17.8739C21.8689 17.6522 22.6284 17.151 23.1697 16.4495C23.7109 15.7479 24.003 14.886 23.9997 14V12C23.9963 8.81846 22.7309 5.76821 20.4812 3.51852C18.2315 1.26883 15.1812 0.00344108 11.9997 0V0ZM11.9997 16C11.2086 16 10.4352 15.7654 9.77741 15.3259C9.11962 14.8864 8.60693 14.2616 8.30418 13.5307C8.00142 12.7998 7.92221 11.9956 8.07655 11.2196C8.23089 10.4437 8.61186 9.73098 9.17127 9.17157C9.73068 8.61216 10.4434 8.2312 11.2193 8.07686C11.9953 7.92252 12.7995 8.00173 13.5304 8.30448C14.2613 8.60723 14.886 9.11992 15.3256 9.77772C15.7651 10.4355 15.9997 11.2089 15.9997 12C15.9997 13.0609 15.5783 14.0783 14.8281 14.8284C14.078 15.5786 13.0606 16 11.9997 16Z" fill="#374957"/>
</g>
<defs>
<clipPath id="clip0_51_79938">
<rect width="24" height="24" fill="white"/>
</clipPath>
</defs>
</svg>
