<svg width="24" height="24" viewBox="0 0 24 24" fill="none" xmlns="http://www.w3.org/2000/svg">
<g clip-path="url(#clip0_51_81104)">
<path d="M14.4143 4.62185C15.1665 4.09687 15.79 3.40824 16.2379 2.60772C16.6858 1.80719 16.9464 0.915577 17.0003 -0.000146711H19.0003C18.9983 1.22398 18.673 2.42587 18.0573 3.48385C19.3602 3.24013 20.6771 3.07848 22.0003 2.99985C21.8987 5.38577 21.4489 7.74403 20.6653 9.99985H16.4143L18.7073 7.70685L17.2933 6.29285L13.5863 9.99985H12.2443C11.9708 9.20905 11.9254 8.35726 12.1132 7.54187C12.301 6.72647 12.7144 5.98037 13.3063 5.38885C13.6347 5.07864 14.0083 4.82003 14.4143 4.62185V4.62185ZM23.3803 13.1739C23.0986 12.8075 22.7362 12.511 22.3214 12.3074C21.9066 12.1038 21.4504 11.9986 20.9883 11.9999H3.00027C2.5382 11.9988 2.08209 12.1042 1.66729 12.3078C1.25248 12.5113 0.890116 12.8077 0.608269 13.1739C0.332637 13.5251 0.14163 13.9352 0.0500634 14.3722C-0.0415029 14.8092 -0.0311673 15.2615 0.0802687 15.6939C1.00027 18.6939 4.90827 22.3359 8.00027 23.9999H16.0003C19.0433 22.3249 26.0163 16.6419 23.3803 13.1739ZM2.02027 9.99985H10.3803C10.3229 8.92998 9.85753 7.92282 9.07992 7.18577C8.30231 6.44872 7.27168 6.0379 6.20027 6.0379C5.12886 6.0379 4.09823 6.44872 3.32062 7.18577C2.54301 7.92282 2.07761 8.92998 2.02027 9.99985V9.99985ZM6.20027 3.99985C7.01972 3.99921 7.83104 4.16226 8.58661 4.47943C9.34219 4.79661 10.0268 5.26151 10.6003 5.84685C11.1524 4.60205 12.1087 3.58017 13.3143 2.94685C13.9378 2.45573 14.4347 1.82239 14.7633 1.09985C14.0608 0.430953 13.138 0.0419245 12.1687 0.00600949C11.1993 -0.0299055 10.2503 0.289771 9.50027 0.904853C8.86199 0.377396 8.07473 0.0627679 7.24874 0.0050263C6.42274 -0.0527153 5.59936 0.149321 4.89391 0.582845C4.18846 1.01637 3.63625 1.65967 3.31462 2.42266C2.99299 3.18566 2.91804 4.03014 3.10027 4.83785C4.04111 4.28882 5.11094 3.99962 6.20027 3.99985V3.99985Z" fill="#374957"/>
</g>
<defs>
<clipPath id="clip0_51_81104">
<rect width="24" height="24" fill="white"/>
</clipPath>
</defs>
</svg>
