<svg width="24" height="24" viewBox="0 0 24 24" fill="none" xmlns="http://www.w3.org/2000/svg">
<path d="M22.101 5.03342C21.2053 3.44117 19.6131 2.54553 17.8217 2.54553H5.97929C4.188 2.54553 2.59571 3.44117 1.70007 5.03342C0.605395 7.02374 0.00830078 9.21313 0.00830078 11.502C0.00830078 16.9754 2.19764 21.4536 4.98413 21.4536C6.47686 21.4536 7.6711 20.0604 8.56674 17.1744C8.66625 16.7764 9.06432 16.4778 9.5619 16.4778H14.4382C14.8363 16.4778 15.2343 16.7764 15.4334 17.1744C16.329 20.0604 17.5232 21.4536 19.016 21.4536C21.8025 21.4536 23.9918 16.9754 23.9918 11.502C23.7928 9.21308 23.1957 7.02374 22.101 5.03342ZM8.9648 10.5068H7.96965V11.502C7.96965 12.0991 7.57158 12.4971 6.97449 12.4971C6.3774 12.4971 5.97933 12.0991 5.97933 11.502V10.5068H4.98418C4.38708 10.5068 3.98902 10.1088 3.98902 9.51167C3.98902 8.91458 4.38708 8.51652 4.98418 8.51652H5.97933V7.52136C5.97933 6.92427 6.3774 6.5262 6.97449 6.5262C7.57158 6.5262 7.96965 6.92427 7.96965 7.52136V8.51652H8.9648C9.5619 8.51652 9.95996 8.91458 9.95996 9.51167C9.95996 10.1088 9.5619 10.5068 8.9648 10.5068ZM15.5329 12.4971C14.7368 12.4971 14.0401 11.8005 14.0401 11.0044C14.0401 10.2083 14.7368 9.51167 15.5329 9.51167C16.329 9.51167 17.0256 10.2083 17.0256 11.0044C17.0256 11.8005 16.2295 12.4971 15.5329 12.4971ZM18.4189 9.51167C17.7223 9.51167 16.9261 8.81506 16.9261 8.01894C16.9261 7.22281 17.7223 6.5262 18.4189 6.5262C19.1155 6.5262 19.9116 7.22281 19.9116 8.01894C19.9116 8.81506 19.215 9.51167 18.4189 9.51167Z" fill="#374957"/>
</svg>
