<svg width="24" height="24" viewBox="0 0 24 24" fill="none" xmlns="http://www.w3.org/2000/svg">
<g clip-path="url(#clip0_51_81302)">
<path d="M24.0002 13H0.000210938V11H5.07121C5.15338 10.4418 5.30349 9.89575 5.51821 9.374L1.13421 6.822L2.14021 5.094L6.52521 7.646C6.86343 7.22427 7.24895 6.84277 7.67421 6.509L5.12621 2.127L6.85421 1.121L9.40021 5.5C9.91483 5.29632 10.452 5.15499 11.0002 5.079V0H13.0002V5.079C13.5522 5.15711 14.0928 5.30148 14.6102 5.509L17.1622 1.121L18.8912 2.127L16.3372 6.518C16.7605 6.85117 17.1441 7.23202 17.4802 7.653L21.8802 5.094L22.8862 6.822L18.4862 9.382C18.699 9.90135 18.8478 10.4447 18.9292 11H24.0002V13ZM21.0002 22C20.4698 22 19.9611 21.7893 19.586 21.4142C19.2109 21.0391 19.0002 20.5304 19.0002 20H17.0002C17.0002 20.5304 16.7895 21.0391 16.4144 21.4142C16.0394 21.7893 15.5306 22 15.0002 22C14.4698 22 13.9611 21.7893 13.586 21.4142C13.2109 21.0391 13.0002 20.5304 13.0002 20H11.0002C11.0002 20.5304 10.7895 21.0391 10.4144 21.4142C10.0394 21.7893 9.53064 22 9.00021 22C8.46978 22 7.96107 21.7893 7.586 21.4142C7.21093 21.0391 7.00021 20.5304 7.00021 20H5.00021C4.99344 20.4031 4.86558 20.7949 4.63325 21.1244C4.40093 21.454 4.07486 21.706 3.69743 21.8478C3.32 21.9896 2.90864 22.0146 2.5168 21.9196C2.12497 21.8246 1.77076 21.6139 1.50021 21.315L-0.00878906 22.632C0.368134 23.0574 0.83126 23.3977 1.34982 23.6303C1.86839 23.863 2.43052 23.9826 2.99887 23.9813C3.56723 23.98 4.12879 23.8577 4.64627 23.6227C5.16374 23.3876 5.62528 23.0451 6.00021 22.618C6.37505 23.0445 6.83651 23.3862 7.35383 23.6202C7.87114 23.8543 8.43241 23.9753 9.00021 23.9753C9.56801 23.9753 10.1293 23.8543 10.6466 23.6202C11.1639 23.3862 11.6254 23.0445 12.0002 22.618C12.375 23.0445 12.8365 23.3862 13.3538 23.6202C13.8711 23.8543 14.4324 23.9753 15.0002 23.9753C15.568 23.9753 16.1293 23.8543 16.6466 23.6202C17.1639 23.3862 17.6254 23.0445 18.0002 22.618C18.3751 23.0454 18.8368 23.3881 19.3544 23.6232C19.872 23.8584 20.4337 23.9806 21.0023 23.9819C21.5708 23.9831 22.1331 23.8633 22.6517 23.6304C23.1703 23.3974 23.6334 23.0568 24.0102 22.631L22.5002 21.316C22.3135 21.5305 22.083 21.7025 21.8243 21.8205C21.5656 21.9384 21.2846 21.9997 21.0002 22V22ZM6.00021 17.618C6.37505 18.0445 6.83651 18.3862 7.35383 18.6202C7.87114 18.8543 8.43241 18.9753 9.00021 18.9753C9.56801 18.9753 10.1293 18.8543 10.6466 18.6202C11.1639 18.3862 11.6254 18.0445 12.0002 17.618C12.375 18.0445 12.8365 18.3862 13.3538 18.6202C13.8711 18.8543 14.4324 18.9753 15.0002 18.9753C15.568 18.9753 16.1293 18.8543 16.6466 18.6202C17.1639 18.3862 17.6254 18.0445 18.0002 17.618C18.3751 18.0454 18.8368 18.3881 19.3544 18.6232C19.872 18.8584 20.4337 18.9806 21.0023 18.9819C21.5708 18.9831 22.1331 18.8633 22.6517 18.6304C23.1703 18.3974 23.6334 18.0568 24.0102 17.631L22.5002 16.316C22.2296 16.615 21.8753 16.8257 21.4834 16.9207C21.0915 17.0157 20.68 16.9906 20.3025 16.8486C19.9251 16.7067 19.599 16.4545 19.3668 16.1248C19.1345 15.7951 19.0068 15.4032 19.0002 15H17.0002C17.0002 15.5304 16.7895 16.0391 16.4144 16.4142C16.0394 16.7893 15.5306 17 15.0002 17C14.4698 17 13.9611 16.7893 13.586 16.4142C13.2109 16.0391 13.0002 15.5304 13.0002 15H11.0002C11.0002 15.5304 10.7895 16.0391 10.4144 16.4142C10.0394 16.7893 9.53064 17 9.00021 17C8.46978 17 7.96107 16.7893 7.586 16.4142C7.21093 16.0391 7.00021 15.5304 7.00021 15H5.00021C4.99344 15.4031 4.86558 15.7949 4.63325 16.1244C4.40093 16.454 4.07486 16.706 3.69743 16.8478C3.32 16.9896 2.90864 17.0146 2.5168 16.9196C2.12497 16.8246 1.77076 16.6139 1.50021 16.315L-0.00878906 17.632C0.368134 18.0574 0.83126 18.3977 1.34982 18.6303C1.86839 18.863 2.43052 18.9826 2.99887 18.9813C3.56723 18.98 4.12879 18.8577 4.64627 18.6227C5.16374 18.3876 5.62528 18.0451 6.00021 17.618V17.618Z" fill="#374957"/>
</g>
<defs>
<clipPath id="clip0_51_81302">
<rect width="24" height="24" fill="white"/>
</clipPath>
</defs>
</svg>
