<svg width="24" height="24" viewBox="0 0 24 24" fill="none" xmlns="http://www.w3.org/2000/svg">
<g clip-path="url(#clip0_51_69149)">
<path d="M9.9998 8.00004C10.3954 8.00004 10.782 8.11734 11.1109 8.3371C11.4398 8.55687 11.6962 8.86922 11.8476 9.23468C11.9989 9.60013 12.0385 10.0023 11.9614 10.3902C11.8842 10.7782 11.6937 11.1346 11.414 11.4143C11.1343 11.694 10.7779 11.8844 10.39 11.9616C10.002 12.0388 9.59988 11.9992 9.23443 11.8478C8.86898 11.6964 8.55662 11.4401 8.33686 11.1112C8.11709 10.7823 7.9998 10.3956 7.9998 10C7.9998 9.46961 8.21051 8.9609 8.58558 8.58583C8.96066 8.21076 9.46936 8.00004 9.9998 8.00004V8.00004ZM23.9998 10C23.9958 13.7119 22.5196 17.2705 19.8949 19.8952C17.2703 22.5198 13.7116 23.9961 9.9998 24H8.9998V19.949C7.27182 19.7776 5.61827 19.1592 4.20189 18.1546C2.78551 17.15 1.65513 15.794 0.922011 14.2198C0.188888 12.6457 -0.121708 10.9079 0.0207937 9.17725C0.163296 7.44665 0.753984 5.78298 1.73472 4.34999C2.71545 2.91701 4.05243 1.7641 5.61405 1.00475C7.17568 0.24539 8.90812 -0.0942369 10.6409 0.0192923C12.3736 0.132821 14.0469 0.695594 15.4961 1.65222C16.9453 2.60884 18.1204 3.92634 18.9058 5.47504C18.2844 5.7672 17.7299 6.18419 17.2768 6.70004C16.5216 5.03527 15.219 3.67937 13.5858 2.85801C11.9527 2.03666 10.0875 1.7994 8.30072 2.18573C6.51394 2.57207 4.91338 3.55869 3.76543 4.98137C2.61748 6.40406 1.9914 8.17698 1.9914 10.005C1.9914 11.8331 2.61748 13.606 3.76543 15.0287C4.91338 16.4514 6.51394 17.438 8.30072 17.8244C10.0875 18.2107 11.9527 17.9734 13.5858 17.1521C15.219 16.3307 16.5216 14.9748 17.2768 13.31C17.7304 13.8241 18.2849 14.2394 18.9058 14.53C18.1443 16.019 17.0216 17.2934 15.6405 18.2365C14.2594 19.1797 12.6638 19.7616 10.9998 19.929V21.958C13.489 21.7445 15.8498 20.7606 17.7538 19.1431C19.6579 17.5256 21.0106 15.355 21.6238 12.933C21.0172 13.062 20.3855 12.9999 19.8156 12.7551C19.2458 12.5102 18.7658 12.0948 18.4418 11.566C18.1178 11.0372 17.9656 10.421 18.0062 9.8021C18.0469 9.18323 18.2783 8.59217 18.6687 8.11026C19.0591 7.62835 19.5893 7.27928 20.1862 7.11108C20.7832 6.94289 21.4176 6.96384 22.0021 7.17106C22.5867 7.37827 23.0927 7.76156 23.4504 8.26818C23.8081 8.7748 24.0001 9.37985 23.9998 10V10ZM21.9998 10C21.9998 9.80226 21.9412 9.60892 21.8313 9.44447C21.7214 9.28002 21.5652 9.15185 21.3825 9.07616C21.1998 9.00048 20.9987 8.98067 20.8047 9.01926C20.6107 9.05784 20.4325 9.15308 20.2927 9.29294C20.1528 9.43279 20.0576 9.61097 20.019 9.80495C19.9804 9.99893 20.0002 10.2 20.0759 10.3827C20.1516 10.5655 20.2798 10.7216 20.4442 10.8315C20.6087 10.9414 20.802 11 20.9998 11C21.265 11 21.5194 10.8947 21.7069 10.7071C21.8944 10.5196 21.9998 10.2653 21.9998 10Z" fill="#374957"/>
</g>
<defs>
<clipPath id="clip0_51_69149">
<rect width="24" height="24" fill="white"/>
</clipPath>
</defs>
</svg>
