<svg width="24" height="24" viewBox="0 0 24 24" fill="none" xmlns="http://www.w3.org/2000/svg">
<g clip-path="url(#clip0_51_80856)">
<path d="M16 10.0003C17.6569 10.0003 19 8.65716 19 7.00031C19 5.34345 17.6569 4.00031 16 4.00031C14.3431 4.00031 13 5.34345 13 7.00031C13 8.65716 14.3431 10.0003 16 10.0003Z" fill="#374957"/>
<path d="M4 18.9996C4 19.2648 4.10536 19.5192 4.29289 19.7067C4.48043 19.8943 4.73478 19.9996 5 19.9996H20V18.5856L11.121 9.70661C10.5584 9.14419 9.79549 8.82825 9 8.82825C8.20451 8.82825 7.44158 9.14419 6.879 9.70661L4 12.5856V18.9996Z" fill="#374957"/>
<path d="M21 24.0003H16V22.0003H21C21.2652 22.0003 21.5196 21.8949 21.7071 21.7074C21.8946 21.5199 22 21.2655 22 21.0003V16.0003H24V21.0003C24 21.7959 23.6839 22.559 23.1213 23.1216C22.5587 23.6842 21.7956 24.0003 21 24.0003Z" fill="#374957"/>
<path d="M2 8H0V3C0 2.20435 0.31607 1.44129 0.87868 0.87868C1.44129 0.31607 2.20435 0 3 0L8 0V2H3C2.73478 2 2.48043 2.10536 2.29289 2.29289C2.10536 2.48043 2 2.73478 2 3V8Z" fill="#374957"/>
<path d="M8 24.0003H3C2.20435 24.0003 1.44129 23.6842 0.87868 23.1216C0.31607 22.559 0 21.7959 0 21.0003L0 16.0003H2V21.0003C2 21.2655 2.10536 21.5199 2.29289 21.7074C2.48043 21.8949 2.73478 22.0003 3 22.0003H8V24.0003Z" fill="#374957"/>
<path d="M24 8H22V3C22 2.73478 21.8946 2.48043 21.7071 2.29289C21.5196 2.10536 21.2652 2 21 2H16V0H21C21.7956 0 22.5587 0.31607 23.1213 0.87868C23.6839 1.44129 24 2.20435 24 3V8Z" fill="#374957"/>
</g>
<defs>
<clipPath id="clip0_51_80856">
<rect width="24" height="24" fill="white"/>
</clipPath>
</defs>
</svg>
