<svg width="24" height="24" viewBox="0 0 24 24" fill="none" xmlns="http://www.w3.org/2000/svg">
<g clip-path="url(#clip0_51_80073)">
<path d="M11.9994 16.919L16.1834 24H7.81537L11.9994 16.919ZM23.5914 19.6L11.9994 -0.0130005L0.407369 19.6C0.144967 20.0426 0.00444918 20.5468 0.000103929 21.0614C-0.00424132 21.5759 0.12774 22.0825 0.382631 22.5295C0.637521 22.9765 1.00623 23.348 1.45127 23.6063C1.89631 23.8646 2.40181 24.0004 2.91637 24H5.49137L11.9994 12.987L18.5074 24H21.0824C21.5969 24.0004 22.1024 23.8646 22.5475 23.6063C22.9925 23.348 23.3612 22.9765 23.6161 22.5295C23.871 22.0825 24.003 21.5759 23.9986 21.0614C23.9943 20.5468 23.8538 20.0426 23.5914 19.6V19.6Z" fill="#374957"/>
</g>
<defs>
<clipPath id="clip0_51_80073">
<rect width="24" height="24" fill="white"/>
</clipPath>
</defs>
</svg>
