<svg width="24" height="24" viewBox="0 0 24 24" fill="none" xmlns="http://www.w3.org/2000/svg">
<g clip-path="url(#clip0_51_80044)">
<path d="M2 12.9999V11.9999C2 11.2043 2.31607 10.4412 2.87868 9.87861C3.44129 9.316 4.20435 8.99993 5 8.99993H11V6.81593C10.4171 6.60984 9.91209 6.2287 9.55409 5.72463C9.19608 5.22056 9.00256 4.61819 9 3.99993C9 2.53393 10.813 0.945927 11.369 0.493927L12 -0.0190735L12.631 0.493927C13.187 0.945927 15 2.53393 15 3.99993C14.9974 4.61819 14.8039 5.22056 14.4459 5.72463C14.0879 6.2287 13.5829 6.60984 13 6.81593V8.99993H19C19.7956 8.99993 20.5587 9.316 21.1213 9.87861C21.6839 10.4412 22 11.2043 22 11.9999V12.9999C22 13.3429 21.318 13.9999 20.25 13.9999C19.161 13.9999 18.5 13.3059 18.5 12.9999H16.5C16.5 13.3429 15.818 13.9999 14.75 13.9999C13.661 13.9999 13 13.3059 13 12.9999H11C11 13.3429 10.318 13.9999 9.25 13.9999C8.161 13.9999 7.5 13.3059 7.5 12.9999H5.5C5.5 13.3429 4.818 13.9999 3.75 13.9999C2.661 13.9999 2 13.3059 2 12.9999ZM0 21.9999V23.9999H24V21.9999H0ZM22 15.6249C21.4489 15.8696 20.853 15.9973 20.25 15.9999C19.243 16.0076 18.2669 15.6526 17.5 14.9999C16.7286 15.6429 15.7569 15.9963 14.7527 15.9991C13.7485 16.0018 12.7749 15.6537 12 15.0149C11.2251 15.6537 10.2515 16.0018 9.2473 15.9991C8.24308 15.9963 7.27136 15.6429 6.5 14.9999C5.73312 15.6526 4.75699 16.0076 3.75 15.9999C3.14701 15.9973 2.55112 15.8696 2 15.6249V19.9999H22V15.6249Z" fill="#374957"/>
</g>
<defs>
<clipPath id="clip0_51_80044">
<rect width="24" height="24" fill="white"/>
</clipPath>
</defs>
</svg>
