<svg width="24" height="24" viewBox="0 0 24 24" fill="none" xmlns="http://www.w3.org/2000/svg">
<g clip-path="url(#clip0_51_81756)">
<path d="M4 6H2C2.00002 4.97984 2.38984 3.99823 3.0897 3.25598C3.78957 2.51373 4.74659 2.06694 5.765 2.007C6.16565 1.41419 6.70163 0.925226 7.32864 0.580535C7.95565 0.235843 8.65569 0.0453156 9.3709 0.0246995C10.0861 0.00408336 10.796 0.15397 11.4418 0.461972C12.0876 0.769975 12.6509 1.22725 13.085 1.796C13.1481 1.87663 13.231 1.93954 13.3256 1.97862C13.4203 2.0177 13.5234 2.03161 13.625 2.019C14.4437 1.945 15.2657 2.11923 15.984 2.519C16.6046 2.86128 17.1202 3.36621 17.4754 3.97953C17.8306 4.59284 18.012 5.29136 18 6H12C11.2044 6 10.4413 6.31608 9.87868 6.87868C9.31607 7.44129 9 8.20436 9 9V13C9 13.2652 8.89464 13.5196 8.70711 13.7071C8.51957 13.8946 8.26522 14 8 14C7.73478 14 7.48043 13.8946 7.29289 13.7071C7.10536 13.5196 7 13.2652 7 13V9C7 8.20436 6.68393 7.44129 6.12132 6.87868C5.55871 6.31608 4.79565 6 4 6ZM23 13.5V16.5C23 17.4283 22.6313 18.3185 21.9749 18.9749C21.3185 19.6313 20.4283 20 19.5 20H18.9C18.6679 21.1286 18.0538 22.1427 17.1613 22.8713C16.2687 23.5999 15.1522 23.9986 14 24H6C4.6744 23.9984 3.40356 23.4711 2.46622 22.5338C1.52888 21.5964 1.00159 20.3256 1 19V9C1 8.73479 1.10536 8.48043 1.29289 8.2929C1.48043 8.10536 1.73478 8 2 8H4C4.26522 8 4.51957 8.10536 4.70711 8.2929C4.89464 8.48043 5 8.73479 5 9V13C5 13.7957 5.31607 14.5587 5.87868 15.1213C6.44129 15.6839 7.20435 16 8 16C8.79565 16 9.55871 15.6839 10.1213 15.1213C10.6839 14.5587 11 13.7957 11 13V9C11 8.73479 11.1054 8.48043 11.2929 8.2929C11.4804 8.10536 11.7348 8 12 8H18C18.2652 8 18.5196 8.10536 18.7071 8.2929C18.8946 8.48043 19 8.73479 19 9V10H19.5C20.4283 10 21.3185 10.3688 21.9749 11.0251C22.6313 11.6815 23 12.5717 23 13.5ZM21 13.5C21 13.1022 20.842 12.7206 20.5607 12.4393C20.2794 12.158 19.8978 12 19.5 12H19V18H19.5C19.8978 18 20.2794 17.842 20.5607 17.5607C20.842 17.2794 21 16.8978 21 16.5V13.5Z" fill="#374957"/>
</g>
<defs>
<clipPath id="clip0_51_81756">
<rect width="24" height="24" fill="white"/>
</clipPath>
</defs>
</svg>
