<svg width="24" height="24" viewBox="0 0 24 24" fill="none" xmlns="http://www.w3.org/2000/svg">
<g clip-path="url(#clip0_51_80550)">
<path d="M23.7315 22.237L17.9525 24.037L17.3585 22.127L19.2885 21.527L18.4885 18.971C17.3178 19.0913 16.1423 18.793 15.1707 18.129C14.199 17.465 13.4939 16.4784 13.1805 15.344L13.0455 14.944L14.0055 12H22.5995L22.7995 12.607C23.1191 13.6974 23.0551 14.8643 22.6184 15.9132C22.1816 16.9622 21.3985 17.8297 20.3995 18.371L21.1995 20.929L23.1385 20.329L23.7315 22.237ZM10.5715 6.184L6.71849 5.11C5.96856 4.90314 5.16765 4.99486 4.48391 5.36592C3.80016 5.73697 3.28676 6.35849 3.05149 7.1L2.07749 10H12.6185L12.6385 9.941C12.7539 9.55864 12.7918 9.15709 12.75 8.75988C12.7082 8.36267 12.5875 7.97781 12.395 7.62788C12.2024 7.27794 11.942 6.96997 11.6289 6.72203C11.3157 6.47409 10.9562 6.29117 10.5715 6.184V6.184ZM1.18449 12.657C0.878778 13.7395 0.949751 14.8937 1.38578 15.9305C1.82181 16.9673 2.59705 17.8254 3.58449 18.364L2.76749 20.932L0.820492 20.332L0.229492 22.237L6.01049 24.037L6.60349 22.127L4.68049 21.527L5.49949 18.966C5.66879 18.9861 5.83902 18.9975 6.00949 19C7.09066 18.9973 8.14183 18.6443 9.00543 17.9938C9.86902 17.3433 10.4985 16.4304 10.7995 15.392L11.9445 12H1.40549L1.18449 12.657ZM17.7065 1.707L16.2925 0.293L14.0045 2.582L15.4185 4L17.7065 1.707ZM9.95649 2.543L7.70649 0.293L6.29249 1.707L8.54249 3.957L9.95649 2.543ZM10.9995 3H12.9995V0H10.9995V3ZM14.6555 10H21.9255L20.9595 7.132C20.7275 6.38455 20.2147 5.75619 19.529 5.37909C18.8432 5.00198 18.0379 4.90552 17.2825 5.11L13.7555 6.093C13.8991 6.27357 14.0297 6.46405 14.1465 6.663C14.7031 7.68095 14.8833 8.86242 14.6555 10V10Z" fill="#374957"/>
</g>
<defs>
<clipPath id="clip0_51_80550">
<rect width="24" height="24" fill="white"/>
</clipPath>
</defs>
</svg>
