<svg width="24" height="24" viewBox="0 0 24 24" fill="none" xmlns="http://www.w3.org/2000/svg">
<g clip-path="url(#clip0_51_81195)">
<path d="M20.9051 0H3.10007C2.27196 0.00660623 1.48033 0.341647 0.899078 0.931525C0.317824 1.5214 -0.00552011 2.31788 7.13285e-05 3.146V8H2.00007V3.146C1.99702 2.99852 2.02305 2.85188 2.07669 2.71446C2.13032 2.57704 2.21051 2.45154 2.31266 2.34511C2.41481 2.23869 2.53692 2.15344 2.67203 2.09422C2.80714 2.03501 2.95259 2.00299 3.10007 2H20.9101C21.2062 2.00864 21.4869 2.13393 21.691 2.34857C21.8952 2.56322 22.0063 2.84983 22.0001 3.146V20.854C22.0062 21.151 21.8945 21.4384 21.6893 21.6532C21.484 21.8679 21.2021 21.9927 20.9051 22H3.10007C2.95259 21.997 2.80714 21.965 2.67203 21.9058C2.53692 21.8466 2.41481 21.7613 2.31266 21.6549C2.21051 21.5485 2.13032 21.423 2.07669 21.2855C2.02305 21.1481 1.99702 21.0015 2.00007 20.854V16H7.13285e-05V20.854C-0.00552011 21.6821 0.317824 22.4786 0.899078 23.0685C1.48033 23.6584 2.27196 23.9934 3.10007 24H20.9101C21.7364 23.9908 22.5255 23.6546 23.1046 23.065C23.6837 22.4754 24.0057 21.6804 24.0001 20.854V3.146C24.0057 2.31874 23.683 1.52301 23.1028 0.933278C22.5227 0.343543 21.7323 0.00792295 20.9051 0V0Z" fill="#374957"/>
<path d="M3 12.9991H17.086L12.786 17.2991L14.2 18.7171L19.149 13.7671C19.3812 13.535 19.5654 13.2593 19.6911 12.956C19.8168 12.6526 19.8815 12.3275 19.8815 11.9991C19.8815 11.6708 19.8168 11.3456 19.6911 11.0423C19.5654 10.7389 19.3812 10.4633 19.149 10.2311L14.2 5.28113L12.783 6.69913L17.083 10.9991H3V12.9991Z" fill="#374957"/>
</g>
<defs>
<clipPath id="clip0_51_81195">
<rect width="24" height="24" fill="white"/>
</clipPath>
</defs>
</svg>
