<svg width="24" height="24" viewBox="0 0 24 24" fill="none" xmlns="http://www.w3.org/2000/svg">
<path d="M19.7835 3.2542C15.5148 -1.05446 8.56145 -1.08685 4.25279 3.18192C-0.0558627 7.45068 -0.0882534 14.404 4.18051 18.7126C4.21379 18.7462 4.24726 18.7796 4.28097 18.8127L8.21753 22.4478C10.3216 24.5074 13.6832 24.5162 15.7981 22.4677L19.7836 18.7848C24.0721 14.4961 24.0721 7.54293 19.7835 3.2542ZM18.0084 13.5154C18.0084 14.8939 16.891 16.0113 15.5125 16.0113H8.524C7.14554 16.0113 6.02809 14.8939 6.02809 13.5154V10.1489C6.02809 9.1671 6.50926 8.2476 7.31598 7.68796L10.3111 5.61037C11.3385 4.9004 12.698 4.9004 13.7255 5.61037L16.7206 7.68796C17.5273 8.2476 18.0084 9.1671 18.0084 10.1489V13.5154ZM16.0117 10.1489V13.5154C16.0117 13.791 15.7882 14.0145 15.5125 14.0145H14.015V12.0178C14.015 11.4664 13.568 11.0195 13.0166 11.0195H11.0199C10.4685 11.0195 10.0216 11.4665 10.0216 12.0178V14.0145H8.524C8.24832 14.0145 8.02483 13.791 8.02483 13.5154V10.1489C8.02473 9.82153 8.18514 9.51487 8.45411 9.32826L11.4492 7.25067C11.7919 7.01498 12.2446 7.01498 12.5873 7.25067L15.5824 9.32826C15.8514 9.51487 16.0118 9.82153 16.0117 10.1489Z" fill="#374957"/>
</svg>
