<svg width="24" height="24" viewBox="0 0 24 24" fill="none" xmlns="http://www.w3.org/2000/svg">
<g clip-path="url(#clip0_51_81305)">
<path d="M23.124 0.875386C22.8135 0.561976 22.4368 0.321994 22.0215 0.173016C21.6063 0.0240377 21.1629 -0.030162 20.724 0.0143863C18.452 0.235386 12.71 1.21439 8.461 5.46039C4.77341 9.14728 1.96266 13.6167 0.237 18.5374L0 19.1454L1.72 20.8654L15.586 6.99939L17 8.41339L3.134 22.2794L4.854 23.9994L5.463 23.7614C10.3834 22.0362 14.8525 19.2258 18.539 15.5384C22.787 11.2904 23.764 5.54739 23.985 3.27539C24.0286 2.83652 23.974 2.39345 23.8251 1.97833C23.6761 1.5632 23.4367 1.18644 23.124 0.875386V0.875386Z" fill="#374957"/>
</g>
<defs>
<clipPath id="clip0_51_81305">
<rect width="24" height="24" fill="white"/>
</clipPath>
</defs>
</svg>
