<svg width="24" height="24" viewBox="0 0 24 24" fill="none" xmlns="http://www.w3.org/2000/svg">
<g clip-path="url(#clip0_51_80369)">
<path d="M22 0H13V2H20.586L0 22.586L1.414 24L22 3.414V11H24V2C24 1.46957 23.7893 0.960859 23.4142 0.585786C23.0391 0.210714 22.5304 0 22 0V0Z" fill="#374957"/>
<path d="M6 10.0001C6.79113 10.0001 7.56448 9.76553 8.22228 9.326C8.88008 8.88648 9.39277 8.26176 9.69552 7.53086C9.99827 6.79995 10.0775 5.99569 9.92314 5.21976C9.7688 4.44384 9.38784 3.73111 8.82843 3.1717C8.26902 2.61229 7.55629 2.23132 6.78036 2.07698C6.00444 1.92264 5.20017 2.00186 4.46927 2.30461C3.73836 2.60736 3.11365 3.12005 2.67412 3.77784C2.2346 4.43564 2 5.209 2 6.00012C2 7.06099 2.42143 8.07841 3.17157 8.82855C3.92172 9.5787 4.93913 10.0001 6 10.0001ZM6 4.00012C6.39556 4.00012 6.78224 4.11742 7.11114 4.33718C7.44004 4.55695 7.69638 4.8693 7.84776 5.23476C7.99913 5.60021 8.03874 6.00234 7.96157 6.3903C7.8844 6.77827 7.69392 7.13463 7.41421 7.41434C7.13451 7.69404 6.77814 7.88452 6.39018 7.96169C6.00222 8.03887 5.60009 7.99926 5.23463 7.84788C4.86918 7.69651 4.55682 7.44016 4.33706 7.11126C4.1173 6.78237 4 6.39569 4 6.00012C4 5.46969 4.21071 4.96098 4.58579 4.58591C4.96086 4.21084 5.46957 4.00012 6 4.00012V4.00012Z" fill="#374957"/>
<path d="M18 13.9997C17.2089 13.9997 16.4355 14.2343 15.7777 14.6738C15.1199 15.1133 14.6072 15.7381 14.3045 16.469C14.0017 17.1999 13.9225 18.0041 14.0769 18.7801C14.2312 19.556 14.6122 20.2687 15.1716 20.8281C15.731 21.3875 16.4437 21.7685 17.2196 21.9228C17.9956 22.0772 18.7998 21.998 19.5307 21.6952C20.2616 21.3925 20.8864 20.8798 21.3259 20.222C21.7654 19.5642 22 18.7908 22 17.9997C22 16.9388 21.5786 15.9214 20.8284 15.1713C20.0783 14.4211 19.0609 13.9997 18 13.9997V13.9997ZM18 19.9997C17.6044 19.9997 17.2178 19.8824 16.8889 19.6626C16.56 19.4429 16.3036 19.1305 16.1522 18.7651C16.0009 18.3996 15.9613 17.9975 16.0384 17.6095C16.1156 17.2216 16.3061 16.8652 16.5858 16.5855C16.8655 16.3058 17.2219 16.1153 17.6098 16.0381C17.9978 15.961 18.3999 16.0006 18.7654 16.1519C19.1308 16.3033 19.4432 16.5597 19.6629 16.8886C19.8827 17.2175 20 17.6041 20 17.9997C20 18.5301 19.7893 19.0388 19.4142 19.4139C19.0391 19.789 18.5304 19.9997 18 19.9997Z" fill="#374957"/>
</g>
<defs>
<clipPath id="clip0_51_80369">
<rect width="24" height="24" fill="white"/>
</clipPath>
</defs>
</svg>
