<svg width="24" height="24" viewBox="0 0 24 24" fill="none" xmlns="http://www.w3.org/2000/svg">
<g clip-path="url(#clip0_51_70110)">
<path d="M18.7571 16.0004C18.0685 15.9988 17.3863 16.1336 16.7501 16.397C16.1138 16.6605 15.536 17.0474 15.0501 17.5354L12.0501 20.5354C11.587 21.0012 11.0362 21.3705 10.4294 21.622C9.82259 21.8734 9.17196 22.002 8.51513 22.0004H3.12213C2.90024 22.0007 2.68324 21.9352 2.49861 21.8121C2.31399 21.689 2.17005 21.5139 2.08502 21.3089C2 21.104 1.97771 20.8784 2.02099 20.6607C2.06427 20.4431 2.17116 20.2432 2.32813 20.0864L2.71413 19.7004C3.27128 19.9721 3.89958 20.0624 4.51071 19.9586C5.12183 19.8547 5.68504 19.5619 6.12113 19.1214L12.4471 12.8004C12.8692 12.9138 13.3025 12.9809 13.7391 13.0004C13.8251 13.0004 13.9121 13.0004 14.0001 13.0004C15.5923 12.9991 17.1191 12.367 18.2461 11.2424L19.2461 10.2424C19.8333 9.65414 20.292 8.95052 20.5934 8.17596C20.8948 7.40141 21.0323 6.57276 20.9971 5.74238C20.9638 4.90834 20.7552 4.09068 20.3849 3.34258C20.0147 2.59449 19.491 1.93274 18.8481 1.40038C17.647 0.449048 16.1353 -0.0220791 14.6063 0.0784451C13.0774 0.178969 11.6404 0.843974 10.5741 1.94438L9.94113 2.57838C9.1761 3.34067 8.61882 4.28602 8.32231 5.32451C8.0258 6.36299 7.99992 7.46007 8.24713 8.51138L1.87913 14.8794C1.44403 15.3174 1.15502 15.8792 1.05173 16.4879C0.948428 17.0966 1.03589 17.7223 1.30213 18.2794L0.914132 18.6674C0.475823 19.1037 0.177005 19.6603 0.0556027 20.2667C-0.0658001 20.8731 -0.00431496 21.5019 0.232255 22.0733C0.468825 22.6447 0.869814 23.1329 1.38433 23.476C1.89885 23.8191 2.50371 24.0016 3.12213 24.0004H8.51513C9.43471 24.0029 10.3456 23.8229 11.1952 23.4708C12.0447 23.1187 12.8159 22.6016 13.4641 21.9494L16.4641 18.9494C16.9177 18.4959 17.4955 18.1871 18.1245 18.062C18.7536 17.9369 19.4056 18.0011 19.9981 18.2465C20.5907 18.4919 21.0971 18.9076 21.4535 19.4408C21.8098 19.9741 22.0001 20.601 22.0001 21.2424V24.0004H24.0001V21.2424C23.9983 19.8525 23.4453 18.5201 22.4624 17.5374C21.4795 16.5547 20.147 16.002 18.7571 16.0004ZM11.3571 3.98838L11.9901 3.35438C12.8115 2.52904 13.9258 2.06177 15.0901 2.05438C15.9915 2.04559 16.8669 2.35629 17.5611 2.93138C17.9906 3.28603 18.3407 3.72705 18.5886 4.22581C18.8365 4.72457 18.9767 5.2699 19.0001 5.82638C19.0232 6.3799 18.9315 6.93221 18.7306 7.44852C18.5298 7.96483 18.2242 8.43397 17.8331 8.82638L16.8331 9.82638C16.4402 10.2193 15.9698 10.526 15.4518 10.7271C14.9338 10.9281 14.3796 11.019 13.8245 10.9939C13.2694 10.9689 12.7256 10.8285 12.2278 10.5817C11.73 10.3349 11.2891 9.98705 10.9331 9.56038C10.3012 8.74417 9.99447 7.72253 10.0724 6.69321C10.1504 5.66389 10.6074 4.70009 11.3551 3.98838H11.3571ZM3.29313 16.2934L9.12913 10.4564C9.22013 10.5864 9.29313 10.7264 9.39613 10.8494C9.72806 11.2415 10.1081 11.5902 10.5271 11.8874L4.70713 17.7074C4.517 17.8899 4.26367 17.9918 4.00013 17.9918C3.73659 17.9918 3.48326 17.8899 3.29313 17.7074C3.10566 17.5199 3.00035 17.2655 3.00035 17.0004C3.00035 16.7352 3.10566 16.4809 3.29313 16.2934Z" fill="#374957"/>
</g>
<defs>
<clipPath id="clip0_51_70110">
<rect width="24" height="24" fill="white"/>
</clipPath>
</defs>
</svg>
