<svg width="24" height="24" viewBox="0 0 24 24" fill="none" xmlns="http://www.w3.org/2000/svg">
<g clip-path="url(#clip0_51_81759)">
<path d="M2.30977 17.192L7.80977 22.692C7.04074 23.0052 6.1964 23.0845 5.38249 22.9201C4.56857 22.7557 3.82125 22.3548 3.23409 21.7677C2.64694 21.1805 2.24606 20.4332 2.08164 19.6193C1.91722 18.8054 1.99658 17.961 2.30977 17.192V17.192ZM7.32677 1.97999C7.58668 1.92695 7.81487 1.77283 7.96115 1.55153C8.10743 1.33024 8.15981 1.0599 8.10677 0.79999C8.05372 0.540078 7.8996 0.311883 7.67831 0.165604C7.45702 0.0193259 7.18668 -0.033053 6.92677 0.0199903C4.24511 0.489786 1.84378 1.96514 0.212767 4.14499C0.0647452 4.35857 0.00567532 4.62138 0.0480691 4.87776C0.0904629 5.13414 0.230991 5.36394 0.439887 5.5185C0.648783 5.67306 0.909641 5.74023 1.16721 5.70579C1.42477 5.67135 1.65882 5.538 1.81977 5.33399C3.15392 3.54732 5.12711 2.34557 7.32677 1.97999V1.97999ZM23.1998 16.023C22.9408 15.9662 22.6698 16.0145 22.4465 16.1574C22.2232 16.3003 22.0657 16.526 22.0088 16.785C21.6288 18.9428 20.4431 20.8755 18.6918 22.192C18.4775 22.3485 18.3341 22.5837 18.2932 22.8458C18.2523 23.108 18.3173 23.3757 18.4738 23.59C18.6302 23.8043 18.8654 23.9476 19.1276 23.9885C19.3898 24.0294 19.6575 23.9645 19.8718 23.808C22.0119 22.1994 23.4713 19.847 23.9618 17.215C23.9901 17.0867 23.9928 16.9541 23.9698 16.8247C23.9468 16.6954 23.8985 16.5718 23.8278 16.4611C23.757 16.3504 23.6651 16.2547 23.5574 16.1796C23.4496 16.1044 23.3281 16.0512 23.1998 16.023ZM20.1668 5.24699L21.7068 3.70699C21.8023 3.61474 21.8785 3.5044 21.9309 3.3824C21.9833 3.26039 22.0109 3.12917 22.012 2.99639C22.0132 2.86361 21.9879 2.73193 21.9376 2.60904C21.8873 2.48614 21.8131 2.37449 21.7192 2.2806C21.6253 2.1867 21.5136 2.11245 21.3907 2.06217C21.2678 2.01189 21.1361 1.98659 21.0034 1.98774C20.8706 1.98889 20.7394 2.01648 20.6174 2.06889C20.4954 2.1213 20.385 2.19748 20.2928 2.29299L18.7508 3.83499C17.3701 2.7379 15.6811 2.09989 13.9199 2.01024C12.1588 1.92058 10.4137 2.38377 8.92877 3.33499L3.42877 6.73499C2.78382 7.13358 2.2374 7.67291 1.83044 8.31261C1.42347 8.9523 1.1665 9.67578 1.07878 10.4289C0.991051 11.1819 1.07484 11.9451 1.32387 12.6612C1.57289 13.3773 1.98071 14.0278 2.51677 14.564L9.47577 21.523C10.0129 22.0603 10.6649 22.4688 11.3827 22.7179C12.1004 22.9669 12.8653 23.05 13.6198 22.9609C14.3743 22.8718 15.0988 22.6127 15.7388 22.2033C16.3788 21.7939 16.9176 21.2447 17.3148 20.597L20.9148 14.721C21.7422 13.2452 22.1129 11.557 21.9797 9.87038C21.8466 8.18373 21.2156 6.5746 20.1668 5.24699V5.24699Z" fill="#374957"/>
</g>
<defs>
<clipPath id="clip0_51_81759">
<rect width="24" height="24" fill="white"/>
</clipPath>
</defs>
</svg>
