<svg width="24" height="24" viewBox="0 0 24 24" fill="none" xmlns="http://www.w3.org/2000/svg">
<g clip-path="url(#clip0_51_69809)">
<path d="M21 4.00031H2V11.0003H0V13.0003H2V20.0003H21C21.7956 20.0003 22.5587 19.6842 23.1213 19.1216C23.6839 18.559 24 17.796 24 17.0003V7.00031C24 6.20466 23.6839 5.44159 23.1213 4.87898C22.5587 4.31638 21.7956 4.00031 21 4.00031V4.00031ZM4 13.0003H5V11.0003H4V6.00031H7V18.0003H4V13.0003ZM22 17.0003C22 17.2655 21.8946 17.5199 21.7071 17.7074C21.5196 17.8949 21.2652 18.0003 21 18.0003H9V6.00031H21C21.2652 6.00031 21.5196 6.10566 21.7071 6.2932C21.8946 6.48073 22 6.73509 22 7.00031V17.0003Z" fill="#374957"/>
</g>
<defs>
<clipPath id="clip0_51_69809">
<rect width="24" height="24" fill="white"/>
</clipPath>
</defs>
</svg>
