<svg width="24" height="24" viewBox="0 0 24 24" fill="none" xmlns="http://www.w3.org/2000/svg">
<g clip-path="url(#clip0_51_81539)">
<path d="M11 16.999H6.086L0.045 10.958C0.016 11.299 0 11.648 0 11.999C6.5391e-05 15.0085 1.1309 17.908 3.16833 20.1229C5.20575 22.3377 8.00102 23.7062 11 23.957V16.999Z" fill="#374957"/>
<path d="M19.126 19.1245C18.4508 18.4531 17.9153 17.6546 17.5504 16.7752C17.1855 15.8957 16.9984 14.9526 17 14.0005H13C12.2044 14.0005 11.4413 13.6844 10.8787 13.1218C10.3161 12.5592 10 11.7961 10 11.0005V8.00046H13V4.00046H17.086L18.9 2.18346C17.3428 1.08956 15.5479 0.381672 13.6632 0.118231C11.7785 -0.145211 9.85824 0.0433481 8.06082 0.668344C6.26339 1.29334 4.64038 2.33685 3.32574 3.71274C2.01111 5.08864 1.04254 6.75746 0.5 8.58146L6.914 15.0005H10C10.7956 15.0005 11.5587 15.3165 12.1213 15.8791C12.6839 16.4418 13 17.2048 13 18.0005V23.9585C15.928 23.7163 18.6647 22.4058 20.689 20.2765L19.126 19.1245Z" fill="#374957"/>
<path d="M20.489 17.6579L21.943 18.7199C23.5094 16.4021 24.2167 13.6099 23.9429 10.8259C23.669 8.04186 22.431 5.44102 20.443 3.4729L17.914 6.0009H15V10.0009H12V12.0009H19V13.9909C19.0042 15.3596 19.5378 16.6737 20.489 17.6579V17.6579Z" fill="#374957"/>
</g>
<defs>
<clipPath id="clip0_51_81539">
<rect width="24" height="24" fill="white"/>
</clipPath>
</defs>
</svg>
