<svg width="24" height="24" viewBox="0 0 24 24" fill="none" xmlns="http://www.w3.org/2000/svg">
<g clip-path="url(#clip0_51_71899)">
<path d="M23.119 0.871608C22.8065 0.559796 22.4286 0.321198 22.0128 0.173004C21.5969 0.0248107 21.1533 -0.0292875 20.714 0.0146079C17.921 0.284608 8.52803 1.44761 4.90004 5.07161C3.16581 6.81056 2.13743 9.13043 2.01351 11.5832C1.88959 14.036 2.67891 16.4477 4.22904 18.3526L0.289043 22.2926C0.106885 22.4812 0.00609068 22.7338 0.0083691 22.996C0.0106475 23.2582 0.115816 23.509 0.301224 23.6944C0.486632 23.8798 0.737444 23.985 0.999641 23.9873C1.26184 23.9896 1.51444 23.8888 1.70304 23.7066L5.64304 19.7666C7.54754 21.3188 9.9599 22.1098 12.4137 21.9866C14.8676 21.8634 17.1886 20.8348 18.928 19.0996C22.604 15.4226 23.728 6.05861 23.987 3.27661C24.0294 2.83648 23.9735 2.39244 23.8234 1.97654C23.6732 1.56064 23.4327 1.18325 23.119 0.871608V0.871608ZM17.519 17.6816C16.1555 19.0401 14.3442 19.8559 12.4233 19.9768C10.5024 20.0977 8.60309 19.5154 7.08003 18.3386L16.712 8.70661C16.8942 8.51801 16.995 8.2654 16.9927 8.00321C16.9904 7.74101 16.8852 7.4902 16.6998 7.30479C16.5144 7.11938 16.2636 7.01421 16.0014 7.01193C15.7392 7.00966 15.4866 7.11045 15.298 7.29261L5.66104 16.9246C4.48401 15.4016 3.90157 13.5023 4.02247 11.5813C4.14337 9.66031 4.95935 7.84899 6.31804 6.48561C8.82703 3.97761 15.745 2.49961 20.907 2.00461C21.0532 1.99038 21.2008 2.00854 21.3391 2.05779C21.4775 2.10704 21.6034 2.18617 21.7077 2.28956C21.8121 2.39295 21.8924 2.51805 21.9429 2.65599C21.9934 2.79392 22.0129 2.94128 22 3.08761C21.5 8.47461 20.059 15.1366 17.514 17.6816H17.519Z" fill="#374957"/>
</g>
<defs>
<clipPath id="clip0_51_71899">
<rect width="24" height="24" fill="white"/>
</clipPath>
</defs>
</svg>
