<svg width="24" height="24" viewBox="0 0 24 24" fill="none" xmlns="http://www.w3.org/2000/svg">
<g clip-path="url(#clip0_51_69059)">
<path d="M19.0001 0H5.00012C4.20447 0 3.44141 0.31607 2.8788 0.87868C2.31619 1.44129 2.00012 2.20435 2.00012 3V24H22.0001V3C22.0001 2.20435 21.6841 1.44129 21.1214 0.87868C20.5588 0.31607 19.7958 0 19.0001 0V0ZM5.00012 2H19.0001C19.2653 2 19.5197 2.10536 19.7072 2.29289C19.8948 2.48043 20.0001 2.73478 20.0001 3V11H4.00012V3C4.00012 2.73478 4.10548 2.48043 4.29302 2.29289C4.48055 2.10536 4.73491 2 5.00012 2ZM4.00012 22V13H20.0001V22H4.00012Z" fill="#374957"/>
<path d="M14.0002 6H10.0002V8H14.0002V6Z" fill="#374957"/>
<path d="M14.0002 17H10.0002V19H14.0002V17Z" fill="#374957"/>
</g>
<defs>
<clipPath id="clip0_51_69059">
<rect width="24" height="24" fill="white"/>
</clipPath>
</defs>
</svg>
