<svg width="24" height="24" viewBox="0 0 24 24" fill="none" xmlns="http://www.w3.org/2000/svg">
<g clip-path="url(#clip0_51_80785)">
<path d="M19.0715 2.93594C18.1456 1.99341 17.0422 1.24369 15.8249 0.730086C14.6077 0.216483 13.3007 -0.0508166 11.9795 -0.0563692C10.6584 -0.0619218 9.34918 0.194383 8.12764 0.697736C6.9061 1.20109 5.79641 1.94151 4.86268 2.87623C3.92896 3.81094 3.18971 4.92141 2.68766 6.14349C2.1856 7.36556 1.93068 8.67501 1.93764 9.99618C1.94459 11.3173 2.21328 12.624 2.72817 13.8408C3.24307 15.0575 3.99396 16.1601 4.93747 17.0849L12.0005 23.9939L19.0715 17.0769C20.9465 15.2016 21.9998 12.6583 21.9998 10.0064C21.9998 7.35456 20.9465 4.81126 19.0715 2.93594V2.93594ZM17.0005 13.9999H7.00047V9.40894C7.00163 9.0248 7.09084 8.64603 7.26125 8.30174C7.43165 7.95746 7.67872 7.65682 7.98347 7.42294L10.4835 5.51294C10.9198 5.18115 11.4528 5.0015 12.001 5.0015C12.5491 5.0015 13.0822 5.18115 13.5185 5.51294L16.0185 7.42294C16.3229 7.65703 16.5697 7.95773 16.7399 8.30198C16.9102 8.64624 16.9993 9.02491 17.0005 9.40894V13.9999ZM14.8005 9.01294C14.8626 9.05952 14.913 9.11991 14.9477 9.18934C14.9824 9.25876 15.0005 9.33532 15.0005 9.41294V11.9999H13.0005V9.99994H11.0005V11.9999H9.00047V9.40894C9.00047 9.33132 9.01854 9.25476 9.05326 9.18534C9.08797 9.11591 9.13837 9.05552 9.20047 9.00894L11.7005 7.09994C11.7877 7.03312 11.8946 6.99691 12.0045 6.99691C12.1144 6.99691 12.2212 7.03312 12.3085 7.09994L14.8005 9.01294Z" fill="#374957"/>
</g>
<defs>
<clipPath id="clip0_51_80785">
<rect width="24" height="24" fill="white"/>
</clipPath>
</defs>
</svg>
