<svg width="24" height="24" viewBox="0 0 24 24" fill="none" xmlns="http://www.w3.org/2000/svg">
<g clip-path="url(#clip0_51_69361)">
<path d="M23.9999 14.9998C23.9946 13.1913 23.3783 11.4377 22.251 10.0234C21.1238 8.60919 19.5517 7.61735 17.7899 7.20885C17.4772 5.84071 16.8096 4.5791 15.8543 3.55099C14.899 2.52288 13.6898 1.76457 12.3483 1.35237C11.0067 0.940171 9.58031 0.888638 8.21254 1.20296C6.84477 1.51728 5.58394 2.18635 4.55696 3.14285L1.45696 0.0428467L0.0429609 1.45685L22.5429 23.9568L23.9569 22.5428L21.8569 20.4428C23.2359 18.9661 24.002 17.0204 23.9999 14.9998V14.9998ZM9.99995 2.99985C11.4508 3.00375 12.8513 3.53236 13.9428 4.48811C15.0344 5.44386 15.7434 6.76222 15.9389 8.19985L16.0389 8.95785L16.7979 9.05785C17.8819 9.20097 18.9059 9.63828 19.7588 10.3223C20.6117 11.0063 21.261 11.9109 21.6361 12.9379C22.0113 13.9648 22.0979 15.0749 21.8867 16.1477C21.6755 17.2204 21.1744 18.2148 20.4379 19.0228L5.97295 4.55885C7.07461 3.55633 8.51042 3.00047 9.99995 2.99985ZM16.6999 20.9398L18.3869 22.6278C17.6147 22.872 16.8099 22.9974 15.9999 22.9998H5.49995C4.27594 23.0014 3.08652 22.5938 2.12066 21.842C1.15481 21.0901 0.467919 20.037 0.169132 18.85C-0.129654 17.663 -0.0232007 16.4102 0.471579 15.2906C0.966359 14.1711 1.82109 13.249 2.89996 12.6708C2.30779 11.5379 1.99898 10.2783 1.99996 8.99985C2.00252 8.19027 2.12794 7.38578 2.37196 6.61385L4.06196 8.29985C4.02708 8.5317 4.00638 8.76547 3.99996 8.99985C3.9988 10.284 4.41348 11.534 5.18195 12.5628L6.06595 13.7548L4.62796 14.1258C3.80272 14.336 3.08276 14.8406 2.60359 15.5446C2.12443 16.2485 1.91911 17.1034 2.02627 17.9482C2.13344 18.793 2.54571 19.5695 3.18547 20.1315C3.82524 20.6936 4.64838 21.0024 5.49995 20.9998H15.9999C16.2342 20.9935 16.468 20.9734 16.6999 20.9398V20.9398Z" fill="#374957"/>
</g>
<defs>
<clipPath id="clip0_51_69361">
<rect width="24" height="24" fill="white"/>
</clipPath>
</defs>
</svg>
