<svg width="24" height="24" viewBox="0 0 24 24" fill="none" xmlns="http://www.w3.org/2000/svg">
<g clip-path="url(#clip0_51_80380)">
<path d="M9.828 20H4V14.172L4.586 13.586L18.172 0H3C2.20435 0 1.44129 0.31607 0.87868 0.87868C0.31607 1.44129 0 2.20435 0 3L0 24H17V17H24V5.828L9.828 20Z" fill="#374957"/>
<path d="M19 23.4143L23.414 19.0003H19V23.4143Z" fill="#374957"/>
<path d="M6 18H9L23.379 3.62102C23.7768 3.22319 24.0003 2.68362 24.0003 2.12102C24.0003 1.55841 23.7768 1.01884 23.379 0.621015C22.9812 0.22319 22.4416 -0.000305169 21.879 -0.000305176C21.3164 -0.000305183 20.7768 0.22319 20.379 0.621015L6 15V18Z" fill="#374957"/>
</g>
<defs>
<clipPath id="clip0_51_80380">
<rect width="24" height="24" fill="white"/>
</clipPath>
</defs>
</svg>
