<svg width="24" height="24" viewBox="0 0 24 24" fill="none" xmlns="http://www.w3.org/2000/svg">
<g clip-path="url(#clip0_51_80699)">
<path d="M12 0L2 5.522V21C2 21.7956 2.31607 22.5587 2.87868 23.1213C3.44129 23.6839 4.20435 24 5 24H19C19.7949 23.9976 20.5566 23.6808 21.1187 23.1187C21.6808 22.5566 21.9976 21.7949 22 21V5.522L12 0ZM12 8.5C11.7033 8.5 11.4133 8.41203 11.1666 8.2472C10.92 8.08238 10.7277 7.84811 10.6142 7.57403C10.5006 7.29994 10.4709 6.99834 10.5288 6.70736C10.5867 6.41639 10.7296 6.14912 10.9393 5.93934C11.1491 5.72956 11.4164 5.5867 11.7074 5.52882C11.9983 5.47094 12.2999 5.50065 12.574 5.61418C12.8481 5.72771 13.0824 5.91997 13.2472 6.16664C13.412 6.41332 13.5 6.70333 13.5 7C13.5 7.39782 13.342 7.77936 13.0607 8.06066C12.7794 8.34196 12.3978 8.5 12 8.5V8.5Z" fill="#374957"/>
</g>
<defs>
<clipPath id="clip0_51_80699">
<rect width="24" height="24" fill="white"/>
</clipPath>
</defs>
</svg>
