<svg width="24" height="24" viewBox="0 0 24 24" fill="none" xmlns="http://www.w3.org/2000/svg">
<g clip-path="url(#clip0_51_80622)">
<path d="M12 7.99998C11.2087 7.99976 10.4351 8.23423 9.77714 8.67374C9.11913 9.11325 8.60626 9.73805 8.30342 10.4691C8.00057 11.2001 7.92136 12.0046 8.07579 12.7807C8.23023 13.5567 8.61138 14.2696 9.17102 14.829L12 17.6L14.836 14.826C15.3951 14.266 15.7754 13.5528 15.9291 12.7766C16.0827 12.0003 16.0026 11.196 15.699 10.4653C15.3955 9.73457 14.882 9.11031 14.2235 8.67148C13.5651 8.23265 12.7913 7.99896 12 7.99998V7.99998ZM12 12.992C11.8022 12.992 11.6089 12.9333 11.4444 12.8235C11.28 12.7136 11.1518 12.5574 11.0761 12.3747C11.0005 12.1919 10.9806 11.9909 11.0192 11.7969C11.0578 11.6029 11.1531 11.4247 11.2929 11.2849C11.4328 11.145 11.6109 11.0498 11.8049 11.0112C11.9989 10.9726 12.2 10.9924 12.3827 11.0681C12.5654 11.1438 12.7216 11.272 12.8315 11.4364C12.9414 11.6009 13 11.7942 13 11.992C13 12.2572 12.8947 12.5116 12.7071 12.6991C12.5196 12.8866 12.2652 12.992 12 12.992ZM22.849 7.67998L13.849 0.636984C13.321 0.223397 12.6697 -0.00134277 11.999 -0.00134277C11.3283 -0.00134277 10.677 0.223397 10.149 0.636984L1.14902 7.67998C0.789811 7.96 0.499495 8.31856 0.300328 8.72816C0.101161 9.13776 -0.00156748 9.58753 1.80786e-05 10.043V24H24V10.043C24.0014 9.58736 23.8983 9.13749 23.6988 8.72788C23.4993 8.31827 23.2086 7.9598 22.849 7.67998V7.67998ZM16.243 16.243L12 20.393L7.76502 16.25C7.20736 15.6933 6.76481 15.0322 6.46263 14.3045C6.16045 13.5768 6.00456 12.7967 6.00386 12.0088C6.00317 11.2208 6.15768 10.4405 6.45857 9.71222C6.75946 8.98399 7.20084 8.32214 7.75752 7.76448C8.31419 7.20683 8.97525 6.76427 9.70296 6.46209C10.4307 6.15991 11.2108 6.00403 11.9987 6.00333C12.7867 6.00263 13.567 6.15714 14.2953 6.45803C15.0235 6.75893 15.6854 7.20031 16.243 7.75698V7.75698C17.3665 8.88327 17.9974 10.4092 17.9974 12C17.9974 13.5908 17.3665 15.1167 16.243 16.243Z" fill="#374957"/>
</g>
<defs>
<clipPath id="clip0_51_80622">
<rect width="24" height="24" fill="white"/>
</clipPath>
</defs>
</svg>
