<svg width="24" height="24" viewBox="0 0 24 24" fill="none" xmlns="http://www.w3.org/2000/svg">
<g clip-path="url(#clip0_51_72486)">
<path d="M19.9998 0.0102925C16.1878 0.0102925 11.8748 2.04829 8.4608 5.46129C5.0275 8.86512 2.26663 12.8857 0.322796 17.3123C0.00495943 18.0476 -0.0838492 18.8616 0.0679601 19.6481C0.219769 20.4346 0.605146 21.1571 1.1738 21.7213L2.2798 22.8263C2.8429 23.3936 3.56375 23.7783 4.34851 23.9303C5.13328 24.0822 5.94562 23.9944 6.6798 23.6783C11.1092 21.7373 15.1312 18.9757 18.5338 15.5393C21.9518 12.1263 23.9898 7.81329 23.9898 4.00029C24.046 3.4625 23.9815 2.91894 23.8008 2.40929C23.6202 1.89963 23.328 1.43674 22.9457 1.05439C22.5634 0.672042 22.1005 0.37989 21.5908 0.199256C21.0811 0.0186213 20.5376 -0.045937 19.9998 0.0102925V0.0102925ZM17.1248 14.1253C13.9027 17.3813 10.0942 19.9989 5.8998 21.8403C5.56629 21.9769 5.20214 22.0211 4.84562 21.9683C4.48911 21.9155 4.15341 21.7677 3.8738 21.5403L16.7068 8.70729C16.8023 8.61505 16.8785 8.5047 16.9309 8.3827C16.9833 8.26069 17.0109 8.12947 17.012 7.99669C17.0132 7.86391 16.9879 7.73223 16.9376 7.60934C16.8873 7.48644 16.8131 7.37479 16.7192 7.2809C16.6253 7.187 16.5136 7.11275 16.3907 7.06247C16.2679 7.01219 16.1362 6.98689 16.0034 6.98804C15.8706 6.9892 15.7394 7.01678 15.6174 7.06919C15.4954 7.1216 15.385 7.19778 15.2928 7.29329L2.4568 20.1293C2.22914 19.8494 2.08112 19.5134 2.02833 19.1565C1.97553 18.7996 2.01991 18.4351 2.1568 18.1013C4.00089 13.9074 6.61931 10.0988 9.8748 6.87529C13.4628 3.28829 17.4578 2.01029 19.9998 2.01029C21.4508 2.01029 21.9898 2.54929 21.9898 4.00029C21.9898 6.54329 20.7118 10.5383 17.1248 14.1253V14.1253Z" fill="#374957"/>
</g>
<defs>
<clipPath id="clip0_51_72486">
<rect width="24" height="24" fill="white"/>
</clipPath>
</defs>
</svg>
