<svg width="24" height="24" viewBox="0 0 24 24" fill="none" xmlns="http://www.w3.org/2000/svg">
<g clip-path="url(#clip0_51_72251)">
<path d="M11.9999 23.927C11.3433 23.928 10.693 23.7993 10.0862 23.5484C9.47942 23.2975 8.92812 22.9294 8.4639 22.465L1.5339 15.534C0.596546 14.5964 0.0699692 13.3249 0.0699692 11.999C0.0699692 10.6732 0.596546 9.40168 1.5339 8.46404L8.4639 1.53304C9.40266 0.597026 10.6742 0.0714111 11.9999 0.0714111C13.3256 0.0714111 14.5971 0.597026 15.5359 1.53304L22.4659 8.46404C23.4033 9.40168 23.9298 10.6732 23.9298 11.999C23.9298 13.3249 23.4033 14.5964 22.4659 15.534L15.5359 22.465C15.0717 22.9294 14.5204 23.2975 13.9136 23.5484C13.3068 23.7993 12.6565 23.928 11.9999 23.927V23.927ZM11.9999 2.07004C11.6059 2.06929 11.2156 2.14638 10.8514 2.29688C10.4873 2.44738 10.1564 2.66833 9.8779 2.94704L2.9479 9.87804C2.38549 10.4406 2.06954 11.2035 2.06954 11.999C2.06954 12.7945 2.38549 13.5575 2.9479 14.12L9.8779 21.051C10.1565 21.3298 10.4873 21.551 10.8514 21.7019C11.2155 21.8527 11.6058 21.9304 11.9999 21.9304C12.394 21.9304 12.7843 21.8527 13.1484 21.7019C13.5125 21.551 13.8433 21.3298 14.1219 21.051L21.0519 14.12C21.6143 13.5575 21.9303 12.7945 21.9303 11.999C21.9303 11.2035 21.6143 10.4406 21.0519 9.87804L14.1219 2.94704C13.8434 2.66833 13.5125 2.44738 13.1484 2.29688C12.7842 2.14638 12.3939 2.06929 11.9999 2.07004V2.07004Z" fill="#374957"/>
</g>
<defs>
<clipPath id="clip0_51_72251">
<rect width="24" height="24" fill="white"/>
</clipPath>
</defs>
</svg>
