<svg width="24" height="24" viewBox="0 0 24 24" fill="none" xmlns="http://www.w3.org/2000/svg">
<g clip-path="url(#clip0_51_80374)">
<path d="M19 23.4143L23.414 19.0003H19V23.4143Z" fill="#374957"/>
<path d="M23.419 1.568C23.232 1.38094 23.0089 1.23398 22.7632 1.13612C22.5176 1.03826 22.2545 0.991548 21.9902 0.998849C21.7258 1.00615 21.4657 1.06731 21.2258 1.17858C20.9859 1.28986 20.7713 1.44891 20.595 1.646L11.835 11.346C12.8627 11.7543 13.7273 12.4899 14.295 13.439L23.419 4.315C23.7831 3.95065 23.9876 3.45662 23.9876 2.9415C23.9876 2.42639 23.7831 1.93235 23.419 1.568V1.568Z" fill="#374957"/>
<path d="M14.982 15.583C14.994 15.721 15 15.86 15 16C14.9984 17.3256 14.4711 18.5964 13.5338 19.5338C12.5964 20.4711 11.3256 20.9984 10 21H5C4.7095 21 4.42247 20.9368 4.15889 20.8146C3.89531 20.6925 3.6615 20.5144 3.47373 20.2928C3.28595 20.0711 3.14872 19.8112 3.07157 19.5311C2.99442 19.2511 2.97921 18.9575 3.027 18.671C3.481 15.945 5.335 11.414 9.427 11.027L19.105 0.313C19.2035 0.202996 19.308 0.0985042 19.418 0L3 0C2.20435 0 1.44129 0.31607 0.87868 0.87868C0.31607 1.44129 0 2.20435 0 3L0 24H17V17H24V6.565L14.982 15.583Z" fill="#374957"/>
<path d="M5 19.0003C5 19.0003 6 13.0003 9.99999 13.0003C10.7956 13.0003 11.5587 13.3164 12.1213 13.879C12.6839 14.4416 13 15.2047 13 16.0003C13 16.796 12.6839 17.559 12.1213 18.1216C11.5587 18.6842 10.7956 19.0003 9.99999 19.0003H5Z" fill="#374957"/>
</g>
<defs>
<clipPath id="clip0_51_80374">
<rect width="24" height="24" fill="white"/>
</clipPath>
</defs>
</svg>
