<svg width="24" height="24" viewBox="0 0 24 24" fill="none" xmlns="http://www.w3.org/2000/svg">
<g clip-path="url(#clip0_51_69720)">
<path d="M9.35592 0L0.374917 19.759C0.167296 20.2159 0.077637 20.7177 0.114152 21.2183C0.150667 21.7188 0.312188 22.2022 0.583923 22.6242C0.855659 23.0462 1.22892 23.3933 1.66953 23.6336C2.11014 23.874 2.60401 24 3.10592 24H10.9999V1.046L10.9929 0H9.35592ZM8.99992 22H3.10592C2.93852 22.0001 2.77376 21.9582 2.62676 21.8781C2.47976 21.798 2.35522 21.6823 2.26456 21.5416C2.17389 21.4009 2.12001 21.2396 2.10784 21.0727C2.09567 20.9057 2.12561 20.7384 2.19492 20.586L8.99992 5.616V22Z" fill="#374957"/>
<path d="M23.625 19.759L14.93 0.628L14.626 0H13V24H20.894C21.3959 24 21.8898 23.874 22.3304 23.6336C22.771 23.3933 23.1442 23.0462 23.416 22.6242C23.6877 22.2022 23.8492 21.7188 23.8858 21.2183C23.9223 20.7177 23.8326 20.2159 23.625 19.759Z" fill="#374957"/>
</g>
<defs>
<clipPath id="clip0_51_69720">
<rect width="24" height="24" fill="white"/>
</clipPath>
</defs>
</svg>
