<svg width="24" height="24" viewBox="0 0 24 24" fill="none" xmlns="http://www.w3.org/2000/svg">
<g clip-path="url(#clip0_51_70668)">
<path d="M20.4851 3.51584C18.8073 1.83957 16.6701 0.698366 14.3438 0.236484C12.0175 -0.225399 9.60651 0.012776 7.41554 0.920903C5.22458 1.82903 3.35204 3.36634 2.03461 5.3385C0.717191 7.31066 0.0140381 9.62913 0.0140381 12.0008C0.0140381 14.3726 0.717191 16.691 2.03461 18.6632C3.35204 20.6353 5.22458 22.1727 7.41554 23.0808C9.60651 23.9889 12.0175 24.2271 14.3438 23.7652C16.6701 23.3033 18.8073 22.1621 20.4851 20.4858C22.7322 18.2337 23.9942 15.1822 23.9942 12.0008C23.9942 8.81944 22.7322 5.76794 20.4851 3.51584V3.51584ZM21.9341 10.9328C20.7349 11.0783 19.5184 10.9491 18.3765 10.5549C17.2347 10.1608 16.1974 9.51209 15.3433 8.65788C14.4892 7.80367 13.8406 6.76636 13.4466 5.62446C13.0526 4.48257 12.9235 3.266 13.0691 2.06684C15.3388 2.30547 17.4578 3.31627 19.0715 4.93015C20.6852 6.54402 21.6957 8.66309 21.9341 10.9328V10.9328ZM2.06611 13.0688C3.26529 12.9234 4.48184 13.0526 5.62369 13.4467C6.76555 13.8409 7.80279 14.4896 8.6569 15.3438C9.51101 16.198 10.1596 17.2353 10.5536 18.3772C10.9476 19.5191 11.0767 20.7357 10.9311 21.9348C8.66139 21.6962 6.54244 20.6854 4.92874 19.0715C3.31505 17.4577 2.30449 15.3386 2.06611 13.0688V13.0688ZM19.0711 19.0688C17.4282 20.7153 15.2602 21.734 12.9441 21.9478C13.0876 20.4811 12.9042 19.0008 12.4071 17.6135C11.91 16.2261 11.1115 14.9662 10.0691 13.9244C9.02675 12.8826 7.7664 12.0848 6.37878 11.5885C4.99116 11.0921 3.51076 10.9095 2.04411 11.0538C2.26162 8.73813 3.28121 6.57114 4.92669 4.9273C6.57217 3.28345 8.74019 2.26604 11.0561 2.05084C10.9216 3.43739 11.0787 4.83675 11.5174 6.15896C11.956 7.48117 12.6664 8.69698 13.6029 9.72825C14.5394 10.7595 15.6814 11.5834 16.9553 12.1471C18.2293 12.7107 19.6071 13.0015 21.0001 13.0008C21.3171 13.0008 21.6351 12.9848 21.9531 12.9548C21.7359 15.2677 20.7163 17.4318 19.0711 19.0718V19.0688Z" fill="#374957"/>
</g>
<defs>
<clipPath id="clip0_51_70668">
<rect width="24" height="24" fill="white"/>
</clipPath>
</defs>
</svg>
