<svg width="24" height="24" viewBox="0 0 24 24" fill="none" xmlns="http://www.w3.org/2000/svg">
<g clip-path="url(#clip0_51_69645)">
<path d="M23.115 0.885912C22.5393 0.335535 21.7735 0.0283813 20.977 0.0283813C20.1805 0.0283813 19.4147 0.335535 18.839 0.885912L15.432 4.29291C14.7954 4.93529 13.9323 5.30252 13.028 5.31579C12.1237 5.32907 11.2502 4.98733 10.595 4.36391L9.2 5.79991L11.225 7.8249L2.025 17.0249C1.48972 17.5545 1.1421 18.2445 1.03506 18.9898C0.928012 19.7351 1.0674 20.4951 1.432 21.1539L0 22.5859L1.414 23.9999L2.846 22.5679C3.50483 22.9325 4.26475 23.0719 5.01009 22.9648C5.75544 22.8578 6.44541 22.5102 6.975 21.9749L16.175 12.7749L18.2 14.7999L19.634 13.4069C19.0103 12.7518 18.6684 11.8783 18.6817 10.9739C18.695 10.0695 19.0624 9.2064 19.705 8.5699L23.112 5.16291C23.6789 4.59599 23.9973 3.82712 23.9973 3.02541C23.9973 2.2237 23.6789 1.45483 23.112 0.887912L23.115 0.885912ZM5.56 20.5609C5.27427 20.8336 4.89448 20.9857 4.4995 20.9857C4.10452 20.9857 3.72473 20.8336 3.439 20.5609C3.15779 20.2796 2.99982 19.8981 2.99982 19.5004C2.99982 19.1026 3.15779 18.7212 3.439 18.4399L12.639 9.2399L14.76 11.3609L5.56 20.5609ZM21.7 3.74691L18.293 7.1539C17.3959 8.04436 16.8353 9.21841 16.707 10.4759L13.524 7.2929C14.7815 7.16456 15.9555 6.60404 16.846 5.70691L20.254 2.29991C20.4485 2.1135 20.7076 2.00943 20.977 2.00943C21.2464 2.00943 21.5055 2.1135 21.7 2.29991C21.7952 2.39484 21.8706 2.50761 21.9222 2.63176C21.9737 2.75591 22.0002 2.889 22.0002 3.02341C22.0002 3.15782 21.9737 3.29091 21.9222 3.41506C21.8706 3.53921 21.7952 3.65198 21.7 3.74691V3.74691Z" fill="#374957"/>
</g>
<defs>
<clipPath id="clip0_51_69645">
<rect width="24" height="24" fill="white"/>
</clipPath>
</defs>
</svg>
