<svg width="24" height="24" viewBox="0 0 24 24" fill="none" xmlns="http://www.w3.org/2000/svg">
<g clip-path="url(#clip0_51_81750)">
<path d="M4.25927 2.845C6.15976 1.23321 8.51681 0.25626 11.0003 0.0509949V1.35099C11.0678 3.75967 11.8626 6.09153 13.2803 8.03999C13.4265 8.25194 13.4929 8.5088 13.4678 8.76505C13.4428 9.02131 13.3278 9.26041 13.1433 9.43999L12.7763 9.807C12.5701 10.0122 12.2911 10.1274 12.0003 10.1274C11.7094 10.1274 11.4304 10.0122 11.2243 9.807L4.25927 2.845ZM17.5903 7.82399C17.4728 7.9404 17.383 8.0818 17.3277 8.23768C17.2724 8.39356 17.253 8.5599 17.2709 8.72433C17.2888 8.88875 17.3435 9.04703 17.431 9.18739C17.5185 9.32774 17.6365 9.44656 17.7763 9.535C19.2626 10.4474 20.9629 10.9527 22.7063 11H23.9493C23.744 8.51653 22.7671 6.15948 21.1553 4.25899L17.5903 7.82399ZM13.0003 0.0509949V1.32299C13.051 3.05645 13.5562 4.74617 14.4653 6.22299C14.5537 6.36259 14.6725 6.48046 14.8128 6.56785C14.953 6.65523 15.1112 6.70989 15.2755 6.72776C15.4398 6.74563 15.606 6.72626 15.7618 6.67107C15.9175 6.61588 16.0589 6.52631 16.1753 6.40899L19.7413 2.84299C17.8406 1.23181 15.4835 0.25556 13.0003 0.0509949V0.0509949ZM14.5573 10.857L14.1903 11.224C13.9851 11.4301 13.8699 11.7091 13.8699 12C13.8699 12.2908 13.9851 12.5699 14.1903 12.776L21.1553 19.741C22.7672 17.8406 23.7441 15.4835 23.9493 13H22.6773C20.2593 12.9364 17.9174 12.1414 15.9603 10.72C15.7479 10.5734 15.4905 10.5067 15.2337 10.5318C14.9769 10.5569 14.7372 10.6721 14.5573 10.857ZM9.44327 13.143L9.81027 12.776C10.0155 12.5699 10.1306 12.2908 10.1306 12C10.1306 11.7091 10.0155 11.4301 9.81027 11.224L2.84527 4.25899C1.23337 6.15941 0.256403 8.5165 0.0512695 11H1.32327C3.74127 11.0635 6.08323 11.8585 8.04027 13.28C8.25261 13.4266 8.51002 13.4933 8.76684 13.4682C9.02366 13.4431 9.2633 13.3279 9.44327 13.143V13.143ZM11.2243 14.19L10.8573 14.557C10.6731 14.7368 10.5584 14.9759 10.5333 15.232C10.5083 15.4881 10.5745 15.7449 10.7203 15.957C12.1388 17.9058 12.9337 20.2385 13.0003 22.648V23.948C15.4838 23.7429 17.8409 22.7659 19.7413 21.154L12.7763 14.19C12.5701 13.9848 12.2911 13.8696 12.0003 13.8696C11.7094 13.8696 11.4304 13.9848 11.2243 14.19V14.19ZM11.0003 22.677C10.9495 20.9435 10.4443 19.2538 9.53527 17.777C9.44673 17.6375 9.32789 17.5197 9.18758 17.4324C9.04727 17.3451 8.8891 17.2905 8.72481 17.2728C8.56053 17.255 8.39434 17.2745 8.23861 17.3297C8.08288 17.385 7.9416 17.4746 7.82527 17.592L4.25927 21.155C6.15969 22.7669 8.51678 23.7439 11.0003 23.949V22.677ZM1.29427 13H0.0512695C0.256535 15.4835 1.23348 17.8405 2.84527 19.741L6.41027 16.176C6.52777 16.0596 6.61751 15.9182 6.6728 15.7623C6.7281 15.6064 6.74754 15.4401 6.72966 15.2757C6.71179 15.1112 6.65706 14.953 6.56956 14.8126C6.48206 14.6722 6.36404 14.5534 6.22427 14.465C4.73793 13.5526 3.03768 13.0473 1.29427 13V13Z" fill="#374957"/>
</g>
<defs>
<clipPath id="clip0_51_81750">
<rect width="24" height="24" fill="white"/>
</clipPath>
</defs>
</svg>
