<svg width="24" height="24" viewBox="0 0 24 24" fill="none" xmlns="http://www.w3.org/2000/svg">
<g clip-path="url(#clip0_51_72054)">
<path d="M13.0001 3V1C13.0001 0.734784 12.8947 0.48043 12.7072 0.292893C12.5196 0.105357 12.2653 0 12.0001 0C11.7349 0 11.4805 0.105357 11.293 0.292893C11.1054 0.48043 11.0001 0.734784 11.0001 1V3C9.14421 3.00212 7.36496 3.7403 6.05267 5.05259C4.74037 6.36489 4.00219 8.14413 4.00008 10V16C4.00008 18.1217 4.84293 20.1566 6.34322 21.6569C7.84351 23.1571 9.87834 24 12.0001 24C14.1218 24 16.1566 23.1571 17.6569 21.6569C19.1572 20.1566 20.0001 18.1217 20.0001 16V10C19.998 8.14413 19.2598 6.36489 17.9475 5.05259C16.6352 3.7403 14.8559 3.00212 13.0001 3V3ZM18.0001 16C18.0001 17.5913 17.3679 19.1174 16.2427 20.2426C15.1175 21.3679 13.5914 22 12.0001 22C10.4088 22 8.88265 21.3679 7.75744 20.2426C6.63222 19.1174 6.00008 17.5913 6.00008 16V10C6.00166 8.6744 6.52896 7.40356 7.4663 6.46622C8.40363 5.52888 9.67448 5.00159 11.0001 5H13.0001C14.3257 5.00159 15.5965 5.52888 16.5339 6.46622C17.4712 7.40356 17.9985 8.6744 18.0001 10V16Z" fill="#374957"/>
<path d="M12.0002 7.00031C11.7349 7.00031 11.4806 7.10566 11.293 7.2932C11.1055 7.48073 11.0002 7.73509 11.0002 8.0003V10.0003C11.0002 10.2655 11.1055 10.5199 11.293 10.7074C11.4806 10.8949 11.7349 11.0003 12.0002 11.0003C12.2654 11.0003 12.5197 10.8949 12.7073 10.7074C12.8948 10.5199 13.0002 10.2655 13.0002 10.0003V8.0003C13.0002 7.73509 12.8948 7.48073 12.7073 7.2932C12.5197 7.10566 12.2654 7.00031 12.0002 7.00031Z" fill="#374957"/>
</g>
<defs>
<clipPath id="clip0_51_72054">
<rect width="24" height="24" fill="white"/>
</clipPath>
</defs>
</svg>
