<svg width="24" height="24" viewBox="0 0 24 24" fill="none" xmlns="http://www.w3.org/2000/svg">
<g clip-path="url(#clip0_51_80732)">
<path d="M9.24386 7.82981C10.0611 7.28853 11.0196 6.99989 11.9999 6.99989C12.9801 6.99989 13.9386 7.28853 14.7559 7.82981L19.7439 2.84181C17.5807 1.00705 14.8363 -6.10352e-05 11.9999 -6.10352e-05C9.16338 -6.10352e-05 6.41903 1.00705 4.25586 2.84181L9.24386 7.82981Z" fill="#374957"/>
<path d="M21.1579 4.25574L16.1699 9.24374C16.7112 10.061 16.9998 11.0195 16.9998 11.9997C16.9998 12.98 16.7112 13.9385 16.1699 14.7557L21.1579 19.7437C22.9927 17.5806 23.9998 14.8362 23.9998 11.9997C23.9998 9.16325 22.9927 6.41891 21.1579 4.25574V4.25574Z" fill="#374957"/>
<path d="M14.7559 16.17C13.9386 16.7113 12.9801 17 11.9999 17C11.0196 17 10.0611 16.7113 9.24386 16.17L4.25586 21.158C6.41903 22.9928 9.16338 23.9999 11.9999 23.9999C14.8363 23.9999 17.5807 22.9928 19.7439 21.158L14.7559 16.17Z" fill="#374957"/>
<path d="M7.82987 14.7557C7.28859 13.9385 6.99995 12.98 6.99995 11.9997C6.99995 11.0195 7.28859 10.061 7.82987 9.24374L2.84187 4.25574C1.00711 6.41891 0 9.16325 0 11.9997C0 14.8362 1.00711 17.5806 2.84187 19.7437L7.82987 14.7557Z" fill="#374957"/>
</g>
<defs>
<clipPath id="clip0_51_80732">
<rect width="24" height="24" fill="white"/>
</clipPath>
</defs>
</svg>
