<svg width="24" height="24" viewBox="0 0 24 24" fill="none" xmlns="http://www.w3.org/2000/svg">
<g clip-path="url(#clip0_51_81242)">
<path d="M15 2V4H17V7H7.00001V4H9.00001V3C9.00001 2.20435 9.31608 1.44129 9.87868 0.87868C10.4413 0.31607 11.2044 0 12 0L20 0V2H15ZM16 16H8.00001V18H16V16ZM22 17V24H2.00001V17C1.99823 15.3406 2.45824 13.7134 3.32856 12.3006C4.19888 10.8877 5.44518 9.74489 6.92801 9H17.072C18.5548 9.74489 19.8011 10.8877 20.6714 12.3006C21.5418 13.7134 22.0018 15.3406 22 17ZM18 14H6.00001V20H18V14Z" fill="#374957"/>
</g>
<defs>
<clipPath id="clip0_51_81242">
<rect width="24" height="24" fill="white"/>
</clipPath>
</defs>
</svg>
