<svg width="24" height="24" viewBox="0 0 24 24" fill="none" xmlns="http://www.w3.org/2000/svg">
<g clip-path="url(#clip0_51_70987)">
<path d="M1 6.00001H23C23.2652 6.00001 23.5196 5.89465 23.7071 5.70712C23.8946 5.51958 24 5.26523 24 5.00001C24 4.7348 23.8946 4.48044 23.7071 4.29291C23.5196 4.10537 23.2652 4.00002 23 4.00002H1C0.734784 4.00002 0.48043 4.10537 0.292893 4.29291C0.105357 4.48044 0 4.7348 0 5.00001C0 5.26523 0.105357 5.51958 0.292893 5.70712C0.48043 5.89465 0.734784 6.00001 1 6.00001V6.00001Z" fill="#374957"/>
<path d="M23.0002 9H9.00015C8.73494 9 8.48058 9.10536 8.29305 9.29289C8.10551 9.48043 8.00015 9.73478 8.00015 10C8.00015 10.2652 8.10551 10.5196 8.29305 10.7071C8.48058 10.8946 8.73494 11 9.00015 11H23.0002C23.2654 11 23.5197 10.8946 23.7073 10.7071C23.8948 10.5196 24.0002 10.2652 24.0002 10C24.0002 9.73478 23.8948 9.48043 23.7073 9.29289C23.5197 9.10536 23.2654 9 23.0002 9Z" fill="#374957"/>
<path d="M23.0002 19H9.00015C8.73494 19 8.48058 19.1053 8.29305 19.2929C8.10551 19.4804 8.00015 19.7348 8.00015 20C8.00015 20.2652 8.10551 20.5195 8.29305 20.7071C8.48058 20.8946 8.73494 21 9.00015 21H23.0002C23.2654 21 23.5197 20.8946 23.7073 20.7071C23.8948 20.5195 24.0002 20.2652 24.0002 20C24.0002 19.7348 23.8948 19.4804 23.7073 19.2929C23.5197 19.1053 23.2654 19 23.0002 19Z" fill="#374957"/>
<path d="M23 14H1C0.734784 14 0.48043 14.1054 0.292893 14.2929C0.105357 14.4805 0 14.7348 0 15C0 15.2653 0.105357 15.5196 0.292893 15.7071C0.48043 15.8947 0.734784 16 1 16H23C23.2652 16 23.5196 15.8947 23.7071 15.7071C23.8946 15.5196 24 15.2653 24 15C24 14.7348 23.8946 14.4805 23.7071 14.2929C23.5196 14.1054 23.2652 14 23 14Z" fill="#374957"/>
</g>
<defs>
<clipPath id="clip0_51_70987">
<rect width="24" height="24" fill="white"/>
</clipPath>
</defs>
</svg>
