<svg width="24" height="24" viewBox="0 0 24 24" fill="none" xmlns="http://www.w3.org/2000/svg">
<g clip-path="url(#clip0_51_69725)">
<path d="M21.4802 8.99968H21.3682C22.2382 7.23869 21.9852 3.66269 21.9202 2.91369L21.8202 1.79869L20.7202 2.01969C19.9752 2.16869 16.3782 2.95369 15.0062 4.34869C14.3373 3.28012 13.5782 2.27077 12.7372 1.33169L12.0002 0.499695L11.2562 1.32869C10.415 2.26872 9.65586 3.27908 8.98715 4.34869C7.61515 2.95369 4.01815 2.16869 3.27315 2.01969L2.17715 1.79969L2.07715 2.91469C2.01215 3.66369 1.75915 7.23969 2.62915 9.00068H2.52015C2.06863 9.00129 1.62553 9.12295 1.23701 9.353C0.848496 9.58305 0.528772 9.91307 0.311149 10.3087C0.0966438 10.6869 -0.0110794 11.1163 -0.0005116 11.551C0.0100562 11.9857 0.138518 12.4093 0.371149 12.7767C2.30015 15.8427 7.37915 18.2317 10.0262 19.3137C8.89462 20.23 8.16728 21.5533 8.00015 22.9997V23.9997H16.0002V22.9997C15.9144 21.8697 15.4308 20.8067 14.6352 19.9997H16.0002C16.5306 19.9997 17.0393 20.2104 17.4144 20.5855C17.7894 20.9605 18.0002 21.4692 18.0002 21.9997H20.0002C19.9986 21.0668 19.671 20.1637 19.0741 19.4468C18.4771 18.7299 17.6484 18.2442 16.7312 18.0737C19.2892 16.8047 22.2632 14.9667 23.6312 12.7737C23.8627 12.4059 23.99 11.9821 23.9995 11.5477C24.009 11.1132 23.9004 10.6842 23.6852 10.3067C23.4676 9.91199 23.1484 9.58267 22.7607 9.35286C22.373 9.12305 21.9308 9.00111 21.4802 8.99968V8.99968ZM16.4002 5.79969C16.7752 5.29369 18.3852 4.67069 20.0002 4.24769C20.0522 5.94769 19.9122 7.69869 19.5342 8.20968C19.3821 8.41766 19.1902 8.59325 18.9695 8.72621C18.7489 8.85917 18.504 8.94683 18.2491 8.98407C17.9942 9.02131 17.7344 9.00738 17.4849 8.9431C17.2355 8.87882 17.0013 8.76547 16.7962 8.60968C16.3753 8.28647 16.0981 7.81105 16.024 7.2856C15.95 6.76015 16.085 6.22662 16.4002 5.79969V5.79969ZM12.0002 3.54869C13.0622 4.88069 14.0002 6.37969 14.0002 6.99969C14.0002 7.53012 13.7894 8.03883 13.4144 8.4139C13.0393 8.78897 12.5306 8.99968 12.0002 8.99968C11.4697 8.99968 10.961 8.78897 10.5859 8.4139C10.2109 8.03883 10.0002 7.53012 10.0002 6.99969C10.0002 6.36269 10.9392 4.87469 12.0002 3.54869ZM4.00615 4.24269C5.61915 4.66569 7.22915 5.28869 7.60015 5.79969C7.91285 6.22519 8.04707 6.75596 7.97423 7.27895C7.90138 7.80194 7.62722 8.27583 7.21015 8.59968C7.00499 8.75548 6.77083 8.86882 6.52137 8.9331C6.27191 8.99738 6.01214 9.01131 5.75724 8.97407C5.50233 8.93683 5.2574 8.84917 5.03676 8.71621C4.81611 8.58325 4.62417 8.40766 4.47215 8.19968C4.09415 7.69369 3.95415 5.93969 4.00615 4.24269ZM10.3542 21.9997C10.8095 21.334 11.3647 20.7424 12.0002 20.2457C12.6356 20.7424 13.1908 21.334 13.6462 21.9997H10.3542ZM21.9372 11.7127C20.6432 13.7847 17.4012 15.5827 14.9032 16.7307C15.5727 15.5973 15.9497 14.3151 16.0002 12.9997H14.0002C13.8152 14.6645 13.1161 16.2304 12.0002 17.4797C10.8842 16.2304 10.1851 14.6645 10.0002 12.9997H8.00015C8.05064 14.3119 8.42584 15.5911 9.09215 16.7227C6.60015 15.5717 3.36115 13.7737 2.06415 11.7117C2.02303 11.6464 2.00121 11.5708 2.00121 11.4937C2.00121 11.4165 2.02303 11.341 2.06415 11.2757C2.10843 11.193 2.17413 11.1238 2.25435 11.0752C2.33457 11.0267 2.42638 11.0006 2.52015 10.9997H21.4802C21.5741 11.0003 21.6662 11.0262 21.7467 11.0746C21.8273 11.1229 21.8934 11.192 21.9382 11.2747C21.9788 11.3405 22.0003 11.4164 22.0001 11.4938C22 11.5712 21.9781 11.647 21.9372 11.7127Z" fill="#374957"/>
</g>
<defs>
<clipPath id="clip0_51_69725">
<rect width="24" height="24" fill="white"/>
</clipPath>
</defs>
</svg>
