<svg width="24" height="24" viewBox="0 0 24 24" fill="none" xmlns="http://www.w3.org/2000/svg">
<g clip-path="url(#clip0_51_80216)">
<path d="M23.9997 11.309V24H12.0177C9.67672 23.9989 7.38716 23.313 5.43105 22.027C3.47494 20.7409 1.93772 18.9107 1.00874 16.7619C0.0797547 14.6131 -0.200424 12.2395 0.202713 9.9335C0.60585 7.62746 1.6747 5.48969 3.2776 3.78351C4.8805 2.07733 6.94745 0.877261 9.22387 0.331108C11.5003 -0.215046 13.8867 -0.0834261 16.0893 0.709755C18.2918 1.50294 20.2143 2.92304 21.6198 4.79514C23.0254 6.66724 23.8526 8.90958 23.9997 11.246V11.309ZM12.9997 6.99997H6.99973V8.99997H12.9997V6.99997ZM16.9997 11H6.99973V13H16.9997V11ZM16.9997 15H6.99973V17H16.9997V15Z" fill="#374957"/>
</g>
<defs>
<clipPath id="clip0_51_80216">
<rect width="24" height="24" fill="white"/>
</clipPath>
</defs>
</svg>
