<svg width="24" height="24" viewBox="0 0 24 24" fill="none" xmlns="http://www.w3.org/2000/svg">
<g clip-path="url(#clip0_51_80905)">
<path d="M4.30896 5.60847L2.77196 4.32947C1.88041 5.3985 1.18257 6.61514 0.709961 7.92446L2.59096 8.60446C2.98451 7.51324 3.56594 6.49929 4.30896 5.60847V5.60847Z" fill="#374957"/>
<path d="M2.00002 12.0003C2.00006 11.4231 2.04958 10.847 2.14802 10.2783L0.177021 9.93628C-0.0603092 11.3067 -0.0603092 12.7078 0.177021 14.0783L2.14702 13.7343C2.0483 13.1616 1.99912 12.5814 2.00002 12.0003V12.0003Z" fill="#374957"/>
<path d="M8.50737 2.62656L7.80837 0.752563C6.5038 1.23901 5.29427 1.9497 4.23438 2.85256L5.53437 4.37656C6.41604 3.62474 7.42213 3.03252 8.50737 2.62656V2.62656Z" fill="#374957"/>
<path d="M4.24414 21.1567C5.3054 22.058 6.51592 22.767 7.82113 23.2517L8.52113 21.3767C7.43345 20.9733 6.42486 20.3823 5.54114 19.6307L4.24414 21.1567Z" fill="#374957"/>
<path d="M2.59973 15.408L0.719727 16.089C1.19442 17.3976 1.89354 18.6134 2.78573 19.682L4.31673 18.4C3.57489 17.51 2.99386 16.4975 2.59973 15.408V15.408Z" fill="#374957"/>
<path d="M12.0001 0C11.2719 0.00124052 10.5453 0.0681785 9.8291 0.2L10.1891 2.168C10.7864 2.05729 11.3926 2.00106 12.0001 2V22C11.3927 22.0003 10.7866 21.9454 10.1891 21.836L9.8291 23.8C11.5594 24.1165 13.3381 24.0491 15.0395 23.6024C16.7409 23.1558 18.3234 22.3409 19.6752 21.2153C21.0269 20.0897 22.1149 18.6809 22.8623 17.0885C23.6096 15.4961 23.998 13.759 24.0001 12C23.9966 8.81846 22.7312 5.76821 20.4816 3.51852C18.2319 1.26883 15.1816 0.00344108 12.0001 0V0Z" fill="#374957"/>
</g>
<defs>
<clipPath id="clip0_51_80905">
<rect width="24" height="24" fill="white"/>
</clipPath>
</defs>
</svg>
