<svg width="24" height="24" viewBox="0 0 24 24" fill="none" xmlns="http://www.w3.org/2000/svg">
<g clip-path="url(#clip0_51_80690)">
<path d="M22.0001 -0.000232061H20.5641C20.17 -0.00135454 19.7796 0.0757631 19.4155 0.22665C19.0514 0.377538 18.7209 0.599193 18.4431 0.878768L9.91612 9.39977C8.30895 8.85074 6.56322 8.86207 4.96331 9.43191C3.3634 10.0018 2.00357 11.0965 1.10532 12.5379C0.207077 13.9793 -0.176655 15.6824 0.0166304 17.3697C0.209916 19.057 0.968831 20.6292 2.16976 21.8301C3.37068 23.0311 4.94285 23.79 6.63018 23.9833C8.31752 24.1765 10.0206 23.7928 11.462 22.8946C12.9034 21.9963 13.9981 20.6365 14.568 19.0366C15.1378 17.4367 15.1492 15.6909 14.6001 14.0838L17.0001 11.6838V7.99977H20.0001V4.99977H23.5511C23.8431 4.53022 23.9985 3.98867 24.0001 3.43577V1.99977C24.0001 1.46934 23.7894 0.960627 23.4143 0.585554C23.0393 0.210482 22.5306 -0.000232061 22.0001 -0.000232061V-0.000232061ZM5.50012 19.9998C5.20345 19.9998 4.91344 19.9118 4.66677 19.747C4.42009 19.5821 4.22783 19.3479 4.1143 19.0738C4.00077 18.7997 3.97107 18.4981 4.02894 18.2071C4.08682 17.9162 4.22968 17.6489 4.43946 17.4391C4.64924 17.2293 4.91651 17.0865 5.20749 17.0286C5.49846 16.9707 5.80006 17.0004 6.07415 17.1139C6.34824 17.2275 6.5825 17.4197 6.74733 17.6664C6.91215 17.9131 7.00012 18.2031 7.00012 18.4998C7.00012 18.8976 6.84209 19.2791 6.56078 19.5604C6.27948 19.8417 5.89795 19.9998 5.50012 19.9998Z" fill="#374957"/>
</g>
<defs>
<clipPath id="clip0_51_80690">
<rect width="24" height="24" fill="white"/>
</clipPath>
</defs>
</svg>
