<svg width="24" height="24" viewBox="0 0 24 24" fill="none" xmlns="http://www.w3.org/2000/svg">
<g clip-path="url(#clip0_51_69121)">
<path d="M10 11C10.5523 11 11 10.5523 11 10C11 9.44771 10.5523 9 10 9C9.44771 9 9 9.44771 9 10C9 10.5523 9.44771 11 10 11Z" fill="#374957"/>
<path d="M13.9999 11C14.5522 11 14.9999 10.5523 14.9999 10C14.9999 9.44771 14.5522 9 13.9999 9C13.4476 9 12.9999 9.44771 12.9999 10C12.9999 10.5523 13.4476 11 13.9999 11Z" fill="#374957"/>
<path d="M10 15.0001C10.5523 15.0001 11 14.5524 11 14.0001C11 13.4478 10.5523 13.0001 10 13.0001C9.44771 13.0001 9 13.4478 9 14.0001C9 14.5524 9.44771 15.0001 10 15.0001Z" fill="#374957"/>
<path d="M13.9999 15.0001C14.5522 15.0001 14.9999 14.5524 14.9999 14.0001C14.9999 13.4478 14.5522 13.0001 13.9999 13.0001C13.4476 13.0001 12.9999 13.4478 12.9999 14.0001C12.9999 14.5524 13.4476 15.0001 13.9999 15.0001Z" fill="#374957"/>
<path d="M0 4.99991V18.9999H24V4.99991H0ZM17 6.99991V16.9999H7V6.99991H17ZM2 6.99991H5V16.9999H2V6.99991ZM22 16.9999H19V6.99991H22V16.9999Z" fill="#374957"/>
</g>
<defs>
<clipPath id="clip0_51_69121">
<rect width="24" height="24" fill="white"/>
</clipPath>
</defs>
</svg>
