<svg width="24" height="24" viewBox="0 0 24 24" fill="none" xmlns="http://www.w3.org/2000/svg">
<g clip-path="url(#clip0_51_79990)">
<path d="M17.954 10.663C18.6096 9.60379 18.9702 8.38859 18.9982 7.14324C19.0263 5.89789 18.7208 4.66769 18.1135 3.58008C17.5062 2.49248 16.6192 1.58704 15.5443 0.957558C14.4693 0.328078 13.2457 -0.0025409 12 -4.70305e-05H3V24H15C16.5934 24.0016 18.1397 23.4592 19.3828 22.4624C20.6259 21.4655 21.4914 20.0741 21.8359 18.5184C22.1805 16.9627 21.9835 15.3359 21.2776 13.9074C20.5717 12.4789 19.3991 11.3343 17.954 10.663V10.663ZM7 3.99995H12C12.7956 3.99995 13.5587 4.31602 14.1213 4.87863C14.6839 5.44124 15 6.2043 15 6.99995C15 7.7956 14.6839 8.55866 14.1213 9.12127C13.5587 9.68388 12.7956 9.99995 12 9.99995H7V3.99995ZM15 20H7V14H15C15.7956 14 16.5587 14.316 17.1213 14.8786C17.6839 15.4412 18 16.2043 18 17C18 17.7956 17.6839 18.5587 17.1213 19.1213C16.5587 19.6839 15.7956 20 15 20V20Z" fill="#374957"/>
</g>
<defs>
<clipPath id="clip0_51_79990">
<rect width="24" height="24" fill="white"/>
</clipPath>
</defs>
</svg>
