<svg width="24" height="24" viewBox="0 0 24 24" fill="none" xmlns="http://www.w3.org/2000/svg">
<g clip-path="url(#clip0_51_81511)">
<path d="M20 7.9993C20.0012 6.45946 19.558 4.95198 18.7235 3.65783C17.8891 2.36368 16.6989 1.33785 15.2958 0.703475C13.8927 0.0691017 12.3363 -0.146856 10.8135 0.0815239C9.29067 0.309904 7.86613 0.972918 6.71084 1.99098C5.55556 3.00904 4.71864 4.33888 4.30054 5.82088C3.88244 7.30288 3.90093 8.87405 4.35379 10.3458C4.80665 11.8175 5.67463 13.1273 6.85355 14.1179C8.03247 15.1085 9.47223 15.7378 11 15.9303V18.9993H8V20.9993H11V23.9993H13V20.9993H16V18.9993H13V15.9303C14.9315 15.6852 16.7076 14.7449 17.9959 13.2851C19.2843 11.8254 19.9968 9.94628 20 7.9993Z" fill="#374957"/>
</g>
<defs>
<clipPath id="clip0_51_81511">
<rect width="24" height="24" fill="white"/>
</clipPath>
</defs>
</svg>
