<svg width="24" height="24" viewBox="0 0 24 24" fill="none" xmlns="http://www.w3.org/2000/svg">
<path d="M13.0403 9.99969C12.5993 3.78869 21.6993 3.27169 21.9993 9.49969V9.52269V9.53769C21.9993 9.69269 21.9803 9.84569 21.9663 9.99969H13.0403ZM10.9653 9.99969C11.3783 3.38569 1.61932 3.38869 2.03332 9.99969H10.9653ZM2.63232 11.9997C2.67632 12.0837 11.9993 23.9897 11.9993 23.9897C11.9993 23.9897 21.3233 12.0837 21.3663 11.9997H2.63232ZM12.0233 6.09069C12.5251 5.28693 13.1971 4.60299 13.9919 4.08707C14.7866 3.57116 15.6849 3.23582 16.6233 3.10469C16.2408 2.19841 15.6004 1.42449 14.7818 0.879072C13.9631 0.333657 13.0022 0.0407861 12.0185 0.0368445C11.0348 0.0329029 10.0717 0.318064 9.24866 0.856902C8.42566 1.39574 7.7791 2.1645 7.38932 3.06769C8.33656 3.19963 9.24301 3.53898 10.044 4.06152C10.845 4.58406 11.5209 5.27693 12.0233 6.09069V6.09069Z" fill="#374957"/>
</svg>
