<svg width="24" height="24" viewBox="0 0 24 24" fill="none" xmlns="http://www.w3.org/2000/svg">
<g clip-path="url(#clip0_51_80864)">
<path d="M12 11C14.2091 11 16 9.20914 16 7C16 4.79086 14.2091 3 12 3C9.79086 3 8 4.79086 8 7C8 9.20914 9.79086 11 12 11Z" fill="#374957"/>
<path d="M5 16.0003V20.0003H19V16.0003C19 15.2047 18.6839 14.4416 18.1213 13.879C17.5587 13.3164 16.7956 13.0003 16 13.0003H8C7.20435 13.0003 6.44129 13.3164 5.87868 13.879C5.31607 14.4416 5 15.2047 5 16.0003Z" fill="#374957"/>
<path d="M21 24.0003H16V22.0003H21C21.2652 22.0003 21.5196 21.8949 21.7071 21.7074C21.8946 21.5199 22 21.2655 22 21.0003V16.0003H24V21.0003C24 21.7959 23.6839 22.559 23.1213 23.1216C22.5587 23.6842 21.7956 24.0003 21 24.0003Z" fill="#374957"/>
<path d="M2 8H0V3C0 2.20435 0.31607 1.44129 0.87868 0.87868C1.44129 0.31607 2.20435 0 3 0L8 0V2H3C2.73478 2 2.48043 2.10536 2.29289 2.29289C2.10536 2.48043 2 2.73478 2 3V8Z" fill="#374957"/>
<path d="M8 24.0003H3C2.20435 24.0003 1.44129 23.6842 0.87868 23.1216C0.31607 22.559 0 21.7959 0 21.0003L0 16.0003H2V21.0003C2 21.2655 2.10536 21.5199 2.29289 21.7074C2.48043 21.8949 2.73478 22.0003 3 22.0003H8V24.0003Z" fill="#374957"/>
<path d="M24 8H22V3C22 2.73478 21.8946 2.48043 21.7071 2.29289C21.5196 2.10536 21.2652 2 21 2H16V0H21C21.7956 0 22.5587 0.31607 23.1213 0.87868C23.6839 1.44129 24 2.20435 24 3V8Z" fill="#374957"/>
</g>
<defs>
<clipPath id="clip0_51_80864">
<rect width="24" height="24" fill="white"/>
</clipPath>
</defs>
</svg>
