<svg width="24" height="24" viewBox="0 0 24 24" fill="none" xmlns="http://www.w3.org/2000/svg">
<g clip-path="url(#clip0_51_81344)">
<path d="M17 12.1115V5.00049C16.789 -1.6085 7.209 -1.5995 7 5.00049V12.1115C6.03533 13.096 5.38281 14.3435 5.12426 15.6974C4.8657 17.0513 5.01262 18.4514 5.5466 19.7222C6.08058 20.993 6.97784 22.0778 8.12587 22.8406C9.27391 23.6035 10.6216 24.0104 12 24.0104C13.3784 24.0104 14.7261 23.6035 15.8741 22.8406C17.0222 22.0778 17.9194 20.993 18.4534 19.7222C18.9874 18.4514 19.1343 17.0513 18.8758 15.6974C18.6172 14.3435 17.9647 13.096 17 12.1115V12.1115ZM12 20.0005C11.2984 19.9925 10.6217 19.7389 10.0878 19.2837C9.55377 18.8285 9.19624 18.2005 9.07734 17.509C8.95844 16.8175 9.0857 16.1062 9.43698 15.4988C9.78825 14.8914 10.3413 14.4263 11 14.1845V8.00049H13V14.1845C13.6587 14.4263 14.2118 14.8914 14.563 15.4988C14.9143 16.1062 15.0416 16.8175 14.9227 17.509C14.8038 18.2005 14.4462 18.8285 13.9123 19.2837C13.3783 19.7389 12.7016 19.9925 12 20.0005Z" fill="#374957"/>
</g>
<defs>
<clipPath id="clip0_51_81344">
<rect width="24" height="24" fill="white"/>
</clipPath>
</defs>
</svg>
