<svg width="24" height="24" viewBox="0 0 24 24" fill="none" xmlns="http://www.w3.org/2000/svg">
<g clip-path="url(#clip0_51_80494)">
<path d="M9.00039 5C9.00039 3.343 12.0004 0 12.0004 0C12.0004 0 15.0004 3.343 15.0004 5C15.0004 5.79565 14.6843 6.55871 14.1217 7.12132C13.5591 7.68393 12.796 8 12.0004 8C11.2047 8 10.4417 7.68393 9.87907 7.12132C9.31646 6.55871 9.00039 5.79565 9.00039 5V5ZM16.1854 7.4C16.4958 7.63611 16.8502 7.80805 17.2278 7.90578C17.6054 8.00351 17.9986 8.02508 18.3847 7.96923C18.7707 7.91338 19.1417 7.78123 19.4761 7.58049C19.8105 7.37974 20.1016 7.11442 20.3324 6.8C21.3134 5.474 20.9244 1 20.9244 1C20.9244 1 16.5744 1.874 15.5934 3.2C15.1216 3.83785 14.9192 4.63552 15.03 5.42114C15.1407 6.20675 15.5557 6.91742 16.1854 7.4V7.4ZM7.81539 7.4C8.44513 6.91742 8.86008 6.20675 8.97081 5.42114C9.08155 4.63552 8.87921 3.83785 8.40739 3.2C7.42639 1.874 3.07639 1 3.07639 1C3.07639 1 2.68739 5.474 3.66839 6.8C3.89919 7.11442 4.19027 7.37974 4.52468 7.58049C4.85909 7.78123 5.23012 7.91338 5.61613 7.96923C6.00214 8.02508 6.39542 8.00351 6.77301 7.90578C7.1506 7.80805 7.50495 7.63611 7.81539 7.4ZM23.6874 10.3C23.4687 9.90631 23.1488 9.57821 22.7608 9.34965C22.3728 9.12109 21.9307 9.00038 21.4804 9H2.52039C2.06877 9.0007 1.62561 9.12251 1.23708 9.35275C0.848553 9.58298 0.528886 9.9132 0.311393 10.309C0.096888 10.6872 -0.0108353 11.1166 -0.00026746 11.5513C0.0103003 11.986 0.138762 12.4096 0.371394 12.777C2.97139 16.913 10.5654 20.051 11.2574 20C10.8074 19.663 7.00039 16.4 7.00039 13H9.00039C9.00039 14.708 10.8194 16.67 12.0004 17.708C13.1814 16.67 15.0004 14.708 15.0004 13H17.0004C17.0004 16.4 13.1934 19.663 12.7434 20H11.2574C10.3694 20.956 9.00039 22.648 9.00039 24H15.0004C14.845 22.8811 14.3549 21.8353 13.5944 21H16.0004C16.5308 21 17.0395 21.2107 17.4146 21.5858C17.7897 21.9609 18.0004 22.4696 18.0004 23H20.0004C20.0004 21.9391 19.579 20.9217 18.8288 20.1716C18.0787 19.4214 17.0613 19 16.0004 19H15.1334C17.7824 17.784 21.8994 15.55 23.6334 12.773C23.8651 12.4051 23.9925 11.9812 24.002 11.5465C24.0115 11.1118 23.9028 10.6827 23.6874 10.305V10.3Z" fill="#374957"/>
</g>
<defs>
<clipPath id="clip0_51_80494">
<rect width="24" height="24" fill="white"/>
</clipPath>
</defs>
</svg>
