<svg width="24" height="24" viewBox="0 0 24 24" fill="none" xmlns="http://www.w3.org/2000/svg">
<g clip-path="url(#clip0_51_70726)">
<path d="M21.9999 2V5.362C20.8524 3.6338 19.2764 2.23261 17.4258 1.29516C15.5752 0.357701 13.5132 -0.0839939 11.441 0.0131724C9.36877 0.110339 7.35714 0.743048 5.60239 1.84956C3.84764 2.95607 2.40971 4.49858 1.42892 6.32658C0.448132 8.15457 -0.0420154 10.2056 0.00630865 12.2795C0.0546327 14.3535 0.639778 16.3794 1.70464 18.1598C2.76951 19.9401 4.27772 21.414 6.08211 22.4376C7.88649 23.4611 9.92541 23.9995 11.9999 24V22C10.2447 21.9992 8.5207 21.5364 7.00105 20.6582C5.4814 19.78 4.21965 18.5173 3.34261 16.9969C2.46557 15.4766 2.00413 13.7522 2.00465 11.997C2.00517 10.2419 2.46764 8.51776 3.34558 6.99795C4.22352 5.47814 5.48601 4.21617 7.00619 3.33886C8.52636 2.46155 10.2507 1.99979 12.0058 2C13.761 2.00021 15.4852 2.46237 17.0052 3.34005C18.5251 4.21772 19.7873 5.47998 20.6649 7H16.9999V9H21.9999C22.5303 9 23.039 8.78929 23.4141 8.41422C23.7892 8.03914 23.9999 7.53044 23.9999 7V2H21.9999Z" fill="#374957"/>
<path d="M13.0002 13H7.00024V11H11.0002V6H13.0002V13Z" fill="#374957"/>
<path d="M21 24C20.2044 24 19.4413 23.6839 18.8787 23.1213C18.3161 22.5587 18 21.7956 18 21V18C18 17.2044 18.3161 16.4413 18.8787 15.8787C19.4413 15.3161 20.2044 15 21 15C21.7956 15 22.5587 15.3161 23.1213 15.8787C23.6839 16.4413 24 17.2044 24 18V21C24 21.7956 23.6839 22.5587 23.1213 23.1213C22.5587 23.6839 21.7956 24 21 24ZM21 17C20.7348 17 20.4804 17.1054 20.2929 17.2929C20.1054 17.4804 20 17.7348 20 18V21C20 21.2652 20.1054 21.5196 20.2929 21.7071C20.4804 21.8946 20.7348 22 21 22C21.2652 22 21.5196 21.8946 21.7071 21.7071C21.8946 21.5196 22 21.2652 22 21V18C22 17.7348 21.8946 17.4804 21.7071 17.2929C21.5196 17.1054 21.2652 17 21 17Z" fill="#374957"/>
<path d="M16.9997 24.0006H14.9997V18.4146L13.7067 19.7076L12.2927 18.2936L15.2927 15.2936C15.4326 15.1538 15.6107 15.0586 15.8047 15.0201C15.9986 14.9815 16.1997 15.0013 16.3824 15.077C16.5651 15.1526 16.7212 15.2808 16.8311 15.4452C16.941 15.6096 16.9997 15.8029 16.9997 16.0006V24.0006Z" fill="#374957"/>
</g>
<defs>
<clipPath id="clip0_51_70726">
<rect width="24" height="24" fill="white"/>
</clipPath>
</defs>
</svg>
