<svg width="24" height="24" viewBox="0 0 24 24" fill="none" xmlns="http://www.w3.org/2000/svg">
<g clip-path="url(#clip0_51_82898)">
<path d="M22.4662 8.46404L15.5362 1.53304C14.5975 0.597026 13.3259 0.0714111 12.0002 0.0714111C10.6746 0.0714111 9.403 0.597026 8.46425 1.53304L1.53424 8.46404C0.596889 9.40168 0.0703125 10.6732 0.0703125 11.999C0.0703125 13.3249 0.596889 14.5964 1.53424 15.534L8.46425 22.465C9.40287 23.4013 10.6745 23.9271 12.0002 23.9271C13.326 23.9271 14.5976 23.4013 15.5362 22.465L22.4662 15.534C23.4036 14.5964 23.9302 13.3249 23.9302 11.999C23.9302 10.6732 23.4036 9.40168 22.4662 8.46404V8.46404Z" fill="#374957"/>
</g>
<defs>
<clipPath id="clip0_51_82898">
<rect width="24" height="24" fill="white"/>
</clipPath>
</defs>
</svg>
