<svg width="24" height="24" viewBox="0 0 24 24" fill="none" xmlns="http://www.w3.org/2000/svg">
<g clip-path="url(#clip0_51_72340)">
<path d="M24 10.0002C24 9.92721 23.992 9.85443 23.976 9.78321L22.676 3.91521C22.4344 2.80144 21.8173 1.80459 20.9281 1.09179C20.0389 0.378987 18.9316 -0.00641431 17.792 0.000205959H6.20797C5.06902 -0.00549434 3.9627 0.380328 3.0743 1.09305C2.1859 1.80578 1.56937 2.80212 1.32797 3.91521L0.0239709 9.78321C0.00797895 9.85443 -7.01775e-05 9.92721 -2.91482e-05 10.0002V11.0002C-0.000835956 11.9738 0.354892 12.914 0.999971 13.6432V19.0002C1.00156 20.3258 1.52885 21.5967 2.46619 22.534C3.40353 23.4713 4.67438 23.9986 5.99997 24.0002H18C19.3256 23.9986 20.5964 23.4713 21.5338 22.534C22.4711 21.5967 22.9984 20.3258 23 19.0002V13.6432C23.6451 12.914 24.0008 11.9738 24 11.0002V10.0002ZM1.99997 10.1092L3.27997 4.34921C3.42501 3.68146 3.79499 3.08378 4.32798 2.65618C4.86098 2.22858 5.52466 1.99701 6.20797 2.00021H6.99997V5.00021C6.99997 5.26542 7.10533 5.51978 7.29287 5.70731C7.4804 5.89485 7.73475 6.00021 7.99997 6.00021C8.26519 6.00021 8.51954 5.89485 8.70708 5.70731C8.89461 5.51978 8.99997 5.26542 8.99997 5.00021V2.00021H15V5.00021C15 5.26542 15.1053 5.51978 15.2929 5.70731C15.4804 5.89485 15.7348 6.00021 16 6.00021C16.2652 6.00021 16.5195 5.89485 16.7071 5.70731C16.8946 5.51978 17 5.26542 17 5.00021V2.00021H17.792C18.4753 1.99701 19.139 2.22858 19.672 2.65618C20.205 3.08378 20.5749 3.68146 20.72 4.34921L22 10.1092V11.0002C22 11.5306 21.7893 12.0393 21.4142 12.4144C21.0391 12.7895 20.5304 13.0002 20 13.0002H19C18.4695 13.0002 17.9608 12.7895 17.5858 12.4144C17.2107 12.0393 17 11.5306 17 11.0002C17 10.735 16.8946 10.4806 16.7071 10.2931C16.5195 10.1056 16.2652 10.0002 16 10.0002C15.7348 10.0002 15.4804 10.1056 15.2929 10.2931C15.1053 10.4806 15 10.735 15 11.0002C15 11.5306 14.7893 12.0393 14.4142 12.4144C14.0391 12.7895 13.5304 13.0002 13 13.0002H11C10.4695 13.0002 9.96083 12.7895 9.58576 12.4144C9.21069 12.0393 8.99997 11.5306 8.99997 11.0002C8.99997 10.735 8.89461 10.4806 8.70708 10.2931C8.51954 10.1056 8.26519 10.0002 7.99997 10.0002C7.73475 10.0002 7.4804 10.1056 7.29287 10.2931C7.10533 10.4806 6.99997 10.735 6.99997 11.0002C6.99997 11.5306 6.78926 12.0393 6.41419 12.4144C6.03911 12.7895 5.5304 13.0002 4.99997 13.0002H3.99997C3.46954 13.0002 2.96083 12.7895 2.58576 12.4144C2.21068 12.0393 1.99997 11.5306 1.99997 11.0002V10.1092ZM18 22.0002H5.99997C5.20432 22.0002 4.44126 21.6841 3.87865 21.1215C3.31604 20.5589 2.99997 19.7959 2.99997 19.0002V14.8732C3.32657 14.9578 3.6626 15.0005 3.99997 15.0002H4.99997C5.56779 15.0005 6.12913 14.8796 6.64648 14.6456C7.16383 14.4116 7.62527 14.0698 7.99997 13.6432C8.37467 14.0698 8.83612 14.4116 9.35347 14.6456C9.87082 14.8796 10.4322 15.0005 11 15.0002H13C13.5678 15.0005 14.1291 14.8796 14.6465 14.6456C15.1638 14.4116 15.6253 14.0698 16 13.6432C16.3747 14.0698 16.8361 14.4116 17.3535 14.6456C17.8708 14.8796 18.4322 15.0005 19 15.0002H20C20.3373 15.0005 20.6734 14.9578 21 14.8732V19.0002C21 19.7959 20.6839 20.5589 20.1213 21.1215C19.5587 21.6841 18.7956 22.0002 18 22.0002Z" fill="#374957"/>
</g>
<defs>
<clipPath id="clip0_51_72340">
<rect width="24" height="24" fill="white"/>
</clipPath>
</defs>
</svg>
