<svg width="24" height="24" viewBox="0 0 24 24" fill="none" xmlns="http://www.w3.org/2000/svg">
<g clip-path="url(#clip0_51_69386)">
<path d="M22.9998 5C22.9998 4.20435 22.6837 3.44129 22.1211 2.87868C21.5585 2.31607 20.7954 2 19.9998 2H19.8288C19.6212 1.41549 19.2379 0.909511 18.7314 0.551443C18.2249 0.193376 17.62 0.000756748 16.9998 0L6.99976 0C6.37948 0.000756748 5.77463 0.193376 5.26814 0.551443C4.76166 0.909511 4.37834 1.41549 4.17076 2H3.99976C3.20411 2 2.44104 2.31607 1.87844 2.87868C1.31583 3.44129 0.999756 4.20435 0.999756 5V8H2.11676L4.11676 24H19.8828L21.8828 8H22.9998V5ZM2.99976 5C2.99976 4.73478 3.10511 4.48043 3.29265 4.29289C3.48019 4.10536 3.73454 4 3.99976 4H5.99976V3C5.99976 2.73478 6.10511 2.48043 6.29265 2.29289C6.48019 2.10536 6.73454 2 6.99976 2H16.9998C17.265 2 17.5193 2.10536 17.7069 2.29289C17.8944 2.48043 17.9998 2.73478 17.9998 3V4H19.9998C20.265 4 20.5193 4.10536 20.7069 4.29289C20.8944 4.48043 20.9998 4.73478 20.9998 5V6H2.99976V5ZM5.88276 22L5.13276 16H8.08076C8.97276 21.287 15.0288 21.284 15.9188 16H18.8668L18.1168 22H5.88276ZM9.99976 15C10.1048 11.046 13.8948 11.047 13.9998 15C13.8998 18.954 10.1048 18.953 9.99976 15ZM19.1168 14H15.9168C15.0248 8.713 8.96976 8.716 8.07876 14H4.87876L4.12876 8H19.8668L19.1168 14Z" fill="#374957"/>
</g>
<defs>
<clipPath id="clip0_51_69386">
<rect width="24" height="24" fill="white"/>
</clipPath>
</defs>
</svg>
