<svg width="24" height="24" viewBox="0 0 24 24" fill="none" xmlns="http://www.w3.org/2000/svg">
<g clip-path="url(#clip0_51_81355)">
<path d="M7.53497 17.9003L1.70697 23.7073L0.292969 22.2933L6.12097 16.4843L7.53497 17.9003ZM13.835 20.6653C14.7512 19.7453 15.4121 18.6026 15.7526 17.3496C16.0931 16.0966 16.1015 14.7765 15.777 13.5193L15.465 12.2433L19.085 8.60332L19.655 9.17432C20.0759 9.60946 20.6365 9.8826 21.2386 9.94587C21.8407 10.0091 22.4458 9.85848 22.948 9.52032C23.2441 9.30957 23.4908 9.03677 23.6707 8.72094C23.8507 8.40511 23.9596 8.05383 23.9898 7.6916C24.0201 7.32937 23.971 6.96489 23.846 6.62357C23.721 6.28225 23.523 5.9723 23.266 5.71532L18.344 0.788317C17.9228 0.353693 17.3622 0.0809205 16.7603 0.0176748C16.1583 -0.0455708 15.5533 0.104733 15.051 0.442317C14.7546 0.652977 14.5077 0.925761 14.3276 1.24164C14.1474 1.55753 14.0384 1.9089 14.008 2.27127C13.9776 2.63363 14.0267 2.99826 14.1517 3.33972C14.2767 3.68118 14.4748 3.99126 14.732 4.24832L15.379 4.89432L11.758 8.53432L10.49 8.22332C9.23166 7.89726 7.9101 7.90479 6.65558 8.24516C5.40107 8.58553 4.25693 9.24699 3.33597 10.1643L2.98297 10.5183L13.483 21.0183L13.835 20.6653Z" fill="#374957"/>
</g>
<defs>
<clipPath id="clip0_51_81355">
<rect width="24" height="24" fill="white"/>
</clipPath>
</defs>
</svg>
