<svg width="24" height="24" viewBox="0 0 24 24" fill="none" xmlns="http://www.w3.org/2000/svg">
<g clip-path="url(#clip0_51_70812)">
<path d="M11.9999 20C9.87888 19.9976 7.84543 19.154 6.34565 17.6542C4.84588 16.1544 4.00226 14.121 3.99988 12V0H5.99988V12C5.99988 13.5913 6.63202 15.1174 7.75724 16.2426C8.88246 17.3679 10.4086 18 11.9999 18C13.5912 18 15.1173 17.3679 16.2425 16.2426C17.3677 15.1174 17.9999 13.5913 17.9999 12V0H19.9999V12C19.9975 14.121 19.1539 16.1544 17.6541 17.6542C16.1543 19.154 14.1209 19.9976 11.9999 20V20Z" fill="#374957"/>
<path d="M24 21.9994H0V23.9994H24V21.9994Z" fill="#374957"/>
</g>
<defs>
<clipPath id="clip0_51_70812">
<rect width="24" height="24" fill="white"/>
</clipPath>
</defs>
</svg>
