<svg width="24" height="24" viewBox="0 0 24 24" fill="none" xmlns="http://www.w3.org/2000/svg">
<g clip-path="url(#clip0_51_82381)">
<path d="M19 4.00031H9V20.0003H19C20.3256 19.9987 21.5964 19.4714 22.5338 18.5341C23.4711 17.5967 23.9984 16.3259 24 15.0003V9.00031C23.9984 7.67471 23.4711 6.40386 22.5338 5.46653C21.5964 4.52919 20.3256 4.00189 19 4.00031V4.00031Z" fill="#374957"/>
<path d="M2 9.00031V11.0003H1C0.734784 11.0003 0.48043 11.1057 0.292893 11.2932C0.105357 11.4807 0 11.7351 0 12.0003C0 12.2655 0.105357 12.5199 0.292893 12.7074C0.48043 12.8949 0.734784 13.0003 1 13.0003H2V15.0003C2.00159 16.3259 2.52888 17.5967 3.46622 18.5341C4.40356 19.4714 5.67441 19.9987 7 20.0003V4.00031C5.67441 4.00189 4.40356 4.52919 3.46622 5.46653C2.52888 6.40386 2.00159 7.67471 2 9.00031V9.00031Z" fill="#374957"/>
</g>
<defs>
<clipPath id="clip0_51_82381">
<rect width="24" height="24" fill="white"/>
</clipPath>
</defs>
</svg>
