<svg width="24" height="24" viewBox="0 0 24 24" fill="none" xmlns="http://www.w3.org/2000/svg">
<g clip-path="url(#clip0_51_82067)">
<path d="M23.9399 6.57292C23.8215 7.17337 23.5129 7.71972 23.0597 8.13109C22.6066 8.54245 22.033 8.79696 21.4239 8.85692C21.4239 8.85692 20.3729 9.02192 19.9139 9.14092C19.9647 8.81153 19.9934 8.47913 19.9999 8.14592V4.01092C19.9974 3.47766 19.9245 2.94706 19.7829 2.43292C20.7594 2.69107 21.6988 3.07353 22.5779 3.57092C23.0971 3.85878 23.5099 4.30611 23.7552 4.84675C24.0005 5.38739 24.0653 5.99262 23.9399 6.57292V6.57292ZM14.1469 14.1289C14.5658 13.7005 14.8469 13.1565 14.9538 12.5669C15.0608 11.9773 14.9887 11.3692 14.7469 10.8209L10.9909 3.60692C10.7176 2.98265 10.3015 2.43129 9.77614 1.99728C9.25075 1.56327 8.63076 1.25873 7.96612 1.10821C7.30148 0.957693 6.61077 0.965397 5.94966 1.1307C5.28854 1.29601 4.67549 1.6143 4.15991 2.05992C3.81791 2.35192 3.47591 2.65992 3.14191 2.97192C2.78691 3.30592 2.42491 3.68392 2.06491 4.09592C1.61337 4.61204 1.29109 5.22817 1.12469 5.89343C0.958286 6.55869 0.952536 7.254 1.10791 7.92192C1.25947 8.60109 1.56809 9.23529 2.00902 9.77365C2.44995 10.312 3.01091 10.7395 3.64691 11.0219L10.8469 14.7389C11.2274 14.9123 11.6408 15.0013 12.0589 14.9999C12.4473 15 12.8318 14.9231 13.1902 14.7736C13.5486 14.6241 13.8738 14.405 14.1469 14.1289V14.1289ZM16.4729 0.861921C16.0019 0.48735 15.4517 0.224892 14.8642 0.0944299C14.2767 -0.036032 13.6672 -0.0310765 13.0819 0.108921C12.4675 0.25578 11.8619 0.437066 11.2679 0.651921C11.9121 1.23555 12.4306 1.9443 12.7919 2.73492L16.5719 10.0059C16.6385 10.1668 16.6966 10.331 16.7459 10.4979L16.7559 10.4879C17.5595 9.50298 17.9988 8.27108 17.9999 6.99992V4.01092C18.0012 3.40454 17.8644 2.80583 17.5998 2.26022C17.3352 1.7146 16.9498 1.23641 16.4729 0.861921V0.861921ZM6.57291 23.9389C7.17318 23.8203 7.71931 23.5116 8.13047 23.0585C8.54164 22.6053 8.796 22.0319 8.85591 21.4229C8.85591 21.4229 9.02091 20.3719 9.13991 19.9129C8.81088 19.964 8.47881 19.9931 8.14591 19.9999H4.00991C3.47666 19.9974 2.94607 19.9244 2.43191 19.7829C2.68943 20.7613 3.07191 21.7023 3.56991 22.5829C3.85884 23.1011 4.30673 23.5127 4.84747 23.7569C5.38821 24.001 5.99313 24.0649 6.57291 23.9389V23.9389ZM4.00991 17.9999H6.99991C8.27107 17.9989 9.50297 17.5595 10.4879 16.7559L10.4979 16.7469C10.3314 16.697 10.1675 16.6386 10.0069 16.5719L2.73591 12.7919C1.94448 12.4306 1.23504 11.9117 0.650913 11.2669C0.43593 11.8608 0.25497 12.4664 0.108913 13.0809C-0.0316092 13.6662 -0.0368282 14.2758 0.0936531 14.8634C0.224134 15.451 0.486881 16.0011 0.861913 16.4719C1.2361 16.949 1.71406 17.3346 2.25952 17.5993C2.80498 17.8641 3.40359 18.0011 4.00991 17.9999Z" fill="#374957"/>
</g>
<defs>
<clipPath id="clip0_51_82067">
<rect width="24" height="24" fill="white"/>
</clipPath>
</defs>
</svg>
