<svg width="24" height="24" viewBox="0 0 24 24" fill="none" xmlns="http://www.w3.org/2000/svg">
<g clip-path="url(#clip0_51_70747)">
<path d="M2.5421 15.255L0.650104 15.9C0.414854 15.2171 0.242144 14.5142 0.134104 13.8L2.1111 13.5C2.20159 14.0968 2.34585 14.6842 2.5421 15.255V15.255ZM3.2821 16.903L1.5401 17.886C1.89678 18.5165 2.30908 19.1139 2.7721 19.671L4.3101 18.393C3.92326 17.9272 3.5792 17.4276 3.2821 16.9V16.903ZM8.7731 0.439C8.07419 0.634065 7.3944 0.892122 6.7421 1.21L7.6191 3.01C8.16205 2.74444 8.72805 2.52888 9.3101 2.366L8.7731 0.439ZM4.3061 21.209C4.86168 21.6738 5.4581 22.0875 6.0881 22.445L7.0751 20.705C6.54958 20.4069 6.05191 20.0622 5.5881 19.675L4.3061 21.209ZM2.2221 9.9L0.266104 9.477C0.114966 10.1857 0.027948 10.9067 0.00610352 11.631L2.0061 11.691C2.02414 11.0887 2.09644 10.4893 2.2221 9.9V9.9ZM6.0721 3.95L4.8861 2.335C4.30284 2.76516 3.75933 3.24675 3.2621 3.774L4.7181 5.146C5.13228 4.70564 5.58546 4.30366 6.0721 3.945V3.95ZM3.6001 6.57L1.9221 5.482C1.52826 6.08955 1.19022 6.73151 0.912104 7.4L2.7591 8.167C2.99055 7.61032 3.27203 7.07579 3.6001 6.57V6.57ZM15.8071 21.25L16.5681 23.099C17.2388 22.8224 17.8831 22.4857 18.4931 22.093L17.4101 20.411C16.9019 20.738 16.3654 21.0188 15.8071 21.25V21.25ZM8.0661 23.34C8.75152 23.5772 9.45709 23.7516 10.1741 23.861L10.4741 21.884C9.87753 21.7926 9.29046 21.6473 8.7201 21.45L8.0661 23.34ZM20.9821 16.4L22.7821 17.283C23.1024 16.6316 23.3628 15.9525 23.5601 15.254L21.6341 14.712C21.469 15.2935 21.2507 15.8585 20.9821 16.4ZM18.8371 19.3L20.2001 20.757C20.7283 20.2617 21.2112 19.7202 21.6431 19.139L20.0431 17.946C19.6824 18.4325 19.2788 18.8857 18.8371 19.3V19.3ZM12.2841 22L12.3381 24C13.0629 23.9803 13.7845 23.8953 14.4941 23.746L14.0801 21.789C13.489 21.913 12.8879 21.9836 12.2841 22V22ZM12.0001 0C11.6331 0 11.2691 0.017 10.9101 0.049L11.0911 2.041C11.3904 2.01367 11.6934 2 12.0001 2C14.6514 2.00291 17.1932 3.05742 19.068 4.93215C20.9427 6.80688 21.9972 9.34873 22.0001 12C22.0001 12.307 21.9851 12.611 21.9591 12.911L23.9511 13.088C23.9831 12.73 24.0001 12.367 24.0001 12C23.9967 8.81846 22.7313 5.76821 20.4816 3.51852C18.2319 1.26883 15.1816 0.00344108 12.0001 0V0ZM13.7231 13H17.0001V11H13.7231C13.5488 10.7004 13.2997 10.4513 13.0001 10.277V6H11.0001V10.277C10.7349 10.4297 10.5084 10.6414 10.3381 10.8958C10.1679 11.1501 10.0584 11.4402 10.0183 11.7436C9.97817 12.047 10.0084 12.3556 10.1067 12.6454C10.205 12.9353 10.3687 13.1986 10.5851 13.415C10.8015 13.6314 11.0648 13.7951 11.3547 13.8934C11.6445 13.9917 11.9531 14.0219 12.2565 13.9818C12.5599 13.9417 12.85 13.8323 13.1043 13.662C13.3587 13.4917 13.5704 13.2652 13.7231 13Z" fill="#374957"/>
</g>
<defs>
<clipPath id="clip0_51_70747">
<rect width="24" height="24" fill="white"/>
</clipPath>
</defs>
</svg>
