<svg width="24" height="24" viewBox="0 0 24 24" fill="none" xmlns="http://www.w3.org/2000/svg">
<g clip-path="url(#clip0_51_69248)">
<path d="M14.2 16.262C11.2887 15.0278 8.97338 12.7071 7.74597 9.793L11.152 6.387L4.88697 0.122L1.71597 3.293C1.16577 3.84579 0.730783 4.5023 0.436217 5.22447C0.141651 5.94664 -0.00663109 6.7201 -3.32591e-05 7.5C-3.32591e-05 14.748 9.25197 24 16.5 24C17.2799 24.0066 18.0533 23.8583 18.7755 23.5637C19.4977 23.2692 20.1542 22.8342 20.707 22.284L23.878 19.113L17.613 12.848L14.2 16.262ZM19.294 20.87C18.9262 21.2338 18.4898 21.5211 18.0102 21.715C17.5306 21.909 17.0173 22.0059 16.5 22C10.267 22 1.99997 13.733 1.99997 7.5C1.99424 6.98285 2.09117 6.46971 2.28514 5.99029C2.47911 5.51086 2.76626 5.07468 3.12997 4.707L4.88697 2.95L8.32397 6.387L5.38897 9.322L5.63497 9.936C6.35599 11.8653 7.48331 13.617 8.94054 15.0725C10.3978 16.528 12.1508 17.6533 14.081 18.372L14.687 18.603L17.613 15.676L21.05 19.113L19.294 20.87ZM24 2.5V7H22V3.443L16.409 9.034L15 7.62L20.615 2H17V0H21.529C22.188 0.00449512 22.8182 0.270254 23.2815 0.738954C23.7448 1.20765 24.0032 1.841 24 2.5V2.5Z" fill="#374957"/>
</g>
<defs>
<clipPath id="clip0_51_69248">
<rect width="24" height="24" fill="white"/>
</clipPath>
</defs>
</svg>
