<svg width="24" height="24" viewBox="0 0 24 24" fill="none" xmlns="http://www.w3.org/2000/svg">
<g clip-path="url(#clip0_51_69704)">
<path d="M14.9999 24L8.99988 19.5V14.38L0.999878 5.38V3C0.999878 2.20435 1.31595 1.44129 1.87856 0.87868C2.44117 0.31607 3.20423 0 3.99988 0L19.9999 0C20.7955 0 21.5586 0.31607 22.1212 0.87868C22.6838 1.44129 22.9999 2.20435 22.9999 3V5.38L14.9999 14.38V24ZM10.9999 18.5L12.9999 20V13.62L20.9999 4.62V3C20.9999 2.73478 20.8945 2.48043 20.707 2.29289C20.5194 2.10536 20.2651 2 19.9999 2H3.99988C3.73466 2 3.48031 2.10536 3.29277 2.29289C3.10523 2.48043 2.99988 2.73478 2.99988 3V4.62L10.9999 13.62V18.5Z" fill="#374957"/>
</g>
<defs>
<clipPath id="clip0_51_69704">
<rect width="24" height="24" fill="white"/>
</clipPath>
</defs>
</svg>
