<svg width="24" height="24" viewBox="0 0 24 24" fill="none" xmlns="http://www.w3.org/2000/svg">
<g clip-path="url(#clip0_51_80556)">
<path d="M4.99944 8.00021C4.99944 6.41796 5.46863 4.87124 6.34769 3.55564C7.22674 2.24005 8.47617 1.21467 9.93797 0.609168C11.3998 0.00366724 13.0083 -0.154759 14.5602 0.153922C16.112 0.462604 17.5375 1.22453 18.6563 2.34335C19.7751 3.46217 20.537 4.88763 20.8457 6.43948C21.1544 7.99133 20.996 9.59986 20.3905 11.0617C19.785 12.5235 18.7596 13.7729 17.444 14.652C16.1284 15.531 14.5817 16.0002 12.9994 16.0002C10.8784 15.9978 8.84499 15.1542 7.34522 13.6544C5.84544 12.1547 5.00182 10.1212 4.99944 8.00021V8.00021ZM22.9064 14.7732L21.2554 13.6432C20.4815 14.7733 19.4837 15.7323 18.3238 16.4609C17.1639 17.1894 15.8667 17.6719 14.5127 17.8785C13.1586 18.085 11.7766 18.0111 10.4523 17.6615C9.12793 17.3119 7.88954 16.6939 6.81389 15.846C5.73824 14.998 4.84825 13.9381 4.19913 12.732C3.55 11.5258 3.15557 10.1992 3.0403 8.83438C2.92503 7.46953 3.09137 6.09556 3.529 4.79765C3.96664 3.49974 4.66625 2.30558 5.58444 1.2892L4.09944 -0.0527954C2.59842 1.60556 1.59108 3.65064 1.19123 5.85139C0.791378 8.05215 1.01496 10.3209 1.8367 12.4012C2.65845 14.4816 4.04561 16.2907 5.84147 17.6242C7.63733 18.9576 9.77032 19.7623 11.9994 19.9472V22.0002H7.99944V24.0002H17.9994V22.0002H13.9994V19.9392C15.7745 19.7936 17.4949 19.2544 19.0356 18.3608C20.5763 17.4672 21.8986 16.2417 22.9064 14.7732V14.7732Z" fill="#374957"/>
</g>
<defs>
<clipPath id="clip0_51_80556">
<rect width="24" height="24" fill="white"/>
</clipPath>
</defs>
</svg>
