<svg width="24" height="24" viewBox="0 0 24 24" fill="none" xmlns="http://www.w3.org/2000/svg">
<g clip-path="url(#clip0_51_70840)">
<path d="M9 11.9999C10.1867 11.9999 11.3467 11.648 12.3334 10.9887C13.3201 10.3294 14.0892 9.39234 14.5433 8.29598C14.9974 7.19962 15.1162 5.99323 14.8847 4.82934C14.6532 3.66545 14.0818 2.59636 13.2426 1.75724C12.4035 0.918125 11.3344 0.34668 10.1705 0.115169C9.00666 -0.116342 7.80026 0.00247765 6.7039 0.456603C5.60754 0.910729 4.67047 1.67976 4.01118 2.66646C3.35189 3.65315 3 4.81319 3 5.99988C3.00159 7.59069 3.63424 9.11589 4.75911 10.2408C5.88399 11.3656 7.40919 11.9983 9 11.9999ZM9 1.99988C9.79113 1.99988 10.5645 2.23448 11.2223 2.674C11.8801 3.11353 12.3928 3.73824 12.6955 4.46915C12.9983 5.20005 13.0775 6.00432 12.9231 6.78024C12.7688 7.55617 12.3878 8.2689 11.8284 8.82831C11.269 9.38772 10.5563 9.76868 9.78036 9.92302C9.00444 10.0774 8.20017 9.99815 7.46927 9.6954C6.73836 9.39265 6.11365 8.87996 5.67412 8.22216C5.2346 7.56436 5 6.79101 5 5.99988C5 4.93901 5.42143 3.9216 6.17157 3.17145C6.92172 2.42131 7.93913 1.99988 9 1.99988V1.99988Z" fill="#374957"/>
<path d="M20.9997 9.99938V6.99939H18.9998V9.99938H15.9998V11.9994H18.9998V14.9994H20.9997V11.9994H23.9997V9.99938H20.9997Z" fill="#374957"/>
<path d="M13.043 14.0006H4.957C3.64281 14.0022 2.3829 14.525 1.45363 15.4542C0.524352 16.3835 0.00158783 17.6434 0 18.9576L0 24.0006H2V18.9576C2.00079 18.1736 2.31259 17.4219 2.86696 16.8676C3.42134 16.3132 4.173 16.0014 4.957 16.0006H13.043C13.827 16.0014 14.5787 16.3132 15.133 16.8676C15.6874 17.4219 15.9992 18.1736 16 18.9576V24.0006H18V18.9576C17.9984 17.6434 17.4756 16.3835 16.5464 15.4542C15.6171 14.525 14.3572 14.0022 13.043 14.0006V14.0006Z" fill="#374957"/>
</g>
<defs>
<clipPath id="clip0_51_70840">
<rect width="24" height="24" fill="white"/>
</clipPath>
</defs>
</svg>
