<svg width="24" height="24" viewBox="0 0 24 24" fill="none" xmlns="http://www.w3.org/2000/svg">
<g clip-path="url(#clip0_51_80358)">
<path d="M21.5114 2.49016C19.9163 0.898002 17.7546 0.00378418 15.5009 0.00378418C13.2471 0.00378418 11.0855 0.898002 9.49037 2.49016C6.31837 5.66116 6.01237 13.6282 6.00037 13.9662L5.98637 14.4002L7.08637 15.5002L2.80737 19.7792C2.66626 19.5211 2.45239 19.3101 2.19234 19.1726C1.9323 19.0351 1.63756 18.9771 1.34481 19.0059C1.05206 19.0346 0.774208 19.1487 0.545828 19.3341C0.317448 19.5195 0.148619 19.768 0.0603451 20.0486C-0.0279287 20.3292 -0.0317511 20.6295 0.0493536 20.9123C0.130458 21.195 0.29291 21.4477 0.516498 21.6388C0.740086 21.83 1.01494 21.9512 1.30687 21.9873C1.5988 22.0235 1.89491 21.973 2.15837 21.8422C2.02754 22.1056 1.97705 22.4017 2.01321 22.6937C2.04936 22.9856 2.17054 23.2604 2.36169 23.484C2.55283 23.7076 2.8055 23.8701 3.08826 23.9512C3.37101 24.0323 3.67137 24.0285 3.95197 23.9402C4.23257 23.8519 4.48102 23.6831 4.66642 23.4547C4.85181 23.2263 4.96596 22.9485 4.99467 22.6557C5.02338 22.363 4.96538 22.0682 4.82789 21.8082C4.69039 21.5481 4.47947 21.3343 4.22137 21.1932L8.50037 16.9142L9.60037 18.0142L10.0344 18.0002C10.3724 17.9882 18.3344 17.6822 21.5114 14.5102C23.103 12.915 23.9968 10.7536 23.9968 8.50016C23.9968 6.24675 23.103 4.08535 21.5114 2.49016V2.49016Z" fill="#374957"/>
</g>
<defs>
<clipPath id="clip0_51_80358">
<rect width="24" height="24" fill="white"/>
</clipPath>
</defs>
</svg>
