<svg width="24" height="24" viewBox="0 0 24 24" fill="none" xmlns="http://www.w3.org/2000/svg">
<path d="M17.7908 7.20906C17.3455 5.29906 16.2141 3.61919 14.6115 2.4886C13.009 1.35802 11.047 0.855503 9.09823 1.07653C7.1495 1.29755 5.34985 2.22671 4.0412 3.68748C2.73255 5.14825 2.00609 7.03884 1.99984 9.00006C1.99886 10.2785 2.30767 11.5381 2.89984 12.6711C1.82097 13.2492 0.966238 14.1713 0.471458 15.2909C-0.0233229 16.4104 -0.129776 17.6632 0.16901 18.8502C0.467797 20.0372 1.15469 21.0903 2.12054 21.8422C3.0864 22.594 4.27582 23.0016 5.49984 23.0001H15.9998C17.9611 22.9938 19.8516 22.2673 21.3124 20.9587C22.7732 19.6501 23.7023 17.8504 23.9234 15.9017C24.1444 13.9529 23.6419 11.9909 22.5113 10.3884C21.3807 8.7858 19.7008 7.65438 17.7908 7.20906V7.20906ZM13.8128 19.1211C13.2503 19.6835 12.4873 19.9994 11.6918 19.9994C10.8963 19.9994 10.1334 19.6835 9.57084 19.1211L6.18684 15.7371L7.59984 14.3231L10.9838 17.7071C11.1742 17.8891 11.4274 17.9907 11.6908 17.9907C11.9542 17.9907 12.2075 17.8891 12.3978 17.7071L18.0518 12.0531L19.4658 13.4671L13.8128 19.1211Z" fill="#374957"/>
</svg>
