<svg width="24" height="24" viewBox="0 0 24 24" fill="none" xmlns="http://www.w3.org/2000/svg">
<g clip-path="url(#clip0_51_82951)">
<path d="M1.00135 4.75073H3.73708C4.27702 6.73737 6.32521 7.91016 8.31186 7.37022C9.58781 7.02342 10.5846 6.02668 10.9313 4.75073H22.9991C23.5514 4.75073 23.999 4.30307 23.999 3.75084C23.999 3.19862 23.5514 2.75096 22.9991 2.75096H10.9313C10.3914 0.764267 8.34321 -0.408523 6.35657 0.131424C5.08062 0.478217 4.08387 1.47496 3.73708 2.75091H1.00135C0.449123 2.75091 0.00146484 3.19857 0.00146484 3.7508C0.00146484 4.30302 0.449123 4.75073 1.00135 4.75073Z" fill="#374957"/>
<path d="M22.9991 11.0006H20.2634C19.7245 9.01419 17.6775 7.84074 15.6911 8.37957C14.4141 8.72598 13.4166 9.72353 13.0701 11.0006H1.00135C0.449123 11.0006 0.00146484 11.4482 0.00146484 12.0004C0.00146484 12.5527 0.449123 13.0003 1.00135 13.0003H13.0701C13.609 14.9867 15.6561 16.1601 17.6424 15.6213C18.9194 15.2749 19.917 14.2774 20.2634 13.0003H22.9991C23.5514 13.0003 23.999 12.5527 23.999 12.0004C23.999 11.4482 23.5514 11.0006 22.9991 11.0006Z" fill="#374957"/>
<path d="M22.9991 19.2493H10.9313C10.3914 17.2627 8.34321 16.0899 6.35657 16.6298C5.08062 16.9766 4.08387 17.9734 3.73708 19.2493H1.00135C0.449123 19.2493 0.00146484 19.697 0.00146484 20.2492C0.00146484 20.8014 0.449123 21.2491 1.00135 21.2491H3.73708C4.27702 23.2357 6.32521 24.4085 8.31186 23.8686C9.58781 23.5218 10.5846 22.525 10.9313 21.2491H22.9991C23.5514 21.2491 23.999 20.8014 23.999 20.2492C23.999 19.697 23.5514 19.2493 22.9991 19.2493Z" fill="#374957"/>
</g>
<defs>
<clipPath id="clip0_51_82951">
<rect width="24" height="24" fill="white"/>
</clipPath>
</defs>
</svg>
