<svg width="24" height="24" viewBox="0 0 24 24" fill="none" xmlns="http://www.w3.org/2000/svg">
<path d="M19.7832 12.079C19.6192 11.493 19.4342 10.873 19.2282 10.206C18.6182 8.52425 18.2061 6.77715 18.0002 5.00003C18.0002 4.73481 18.1056 4.48046 18.2931 4.29292C18.4807 4.10539 18.735 4.00003 19.0002 4.00003C19.2655 4.00003 19.5198 4.10539 19.7073 4.29292C19.8949 4.48046 20.0002 4.73481 20.0002 5.00003C20.0002 5.26525 20.1056 5.5196 20.2931 5.70714C20.4807 5.89467 20.735 6.00003 21.0002 6.00003C21.2655 6.00003 21.5198 5.89467 21.7073 5.70714C21.8949 5.5196 22.0002 5.26525 22.0002 5.00003C22.0002 4.20438 21.6842 3.44132 21.1216 2.87871C20.5589 2.3161 19.7959 2.00003 19.0002 2.00003C18.2046 2.00003 17.4415 2.3161 16.8789 2.87871C16.3163 3.44132 16.0002 4.20438 16.0002 5.00003C16.025 5.76363 16.132 6.52234 16.3192 7.26303L11.5192 11L5.97124 7.00003H9.00024C9.26545 7.00003 9.51981 6.89467 9.70734 6.70714C9.89488 6.5196 10.0002 6.26525 10.0002 6.00003C10.0002 5.73481 9.89488 5.48046 9.70734 5.29292C9.51981 5.10539 9.26545 5.00003 9.00024 5.00003H5.97124C5.5558 4.9999 5.15097 5.13118 4.81467 5.37508C4.47836 5.61897 4.22782 5.96299 4.09888 6.35791C3.96994 6.75283 3.96921 7.17841 4.09681 7.57376C4.2244 7.96912 4.47377 8.31399 4.80924 8.55903L9.88024 12.271L8.44224 13.39C7.54903 12.5491 6.37555 12.0694 5.149 12.044C3.92246 12.0186 2.73011 12.4491 1.8028 13.2524C0.875496 14.0556 0.279205 15.1743 0.129381 16.3919C-0.020444 17.6095 0.286855 18.8394 0.991781 19.8435C1.69671 20.8476 2.74911 21.5544 3.94523 21.827C5.14135 22.0997 6.3961 21.9188 7.46654 21.3195C8.53698 20.7201 9.34696 19.7449 9.73965 18.5827C10.1323 17.4204 10.0798 16.1538 9.59224 15.028L16.8812 9.35903C17.0222 9.83503 17.6082 11.743 17.7372 12.182C16.542 12.4941 15.5048 13.2381 14.8261 14.2703C14.1474 15.3026 13.8753 16.5497 14.0625 17.7708C14.2497 18.9919 14.8828 20.1002 15.8396 20.8817C16.7963 21.6632 18.0088 22.0624 19.2426 22.0021C20.4765 21.9418 21.6443 21.4263 22.5202 20.5552C23.3962 19.6841 23.9182 18.5193 23.9855 17.2858C24.0527 16.0523 23.6603 14.8376 22.8842 13.8765C22.1081 12.9154 21.0033 12.2761 19.7832 12.082V12.079Z" fill="#374957"/>
</svg>
