<svg width="24" height="24" viewBox="0 0 24 24" fill="none" xmlns="http://www.w3.org/2000/svg">
<g clip-path="url(#clip0_51_69103)">
<path d="M11.9999 0C10.1043 0.000203007 8.23571 0.449489 6.54719 1.31105C4.85868 2.17262 3.39829 3.42195 2.28567 4.9567C1.17305 6.49145 0.439856 8.26795 0.146142 10.1407C-0.147572 12.0134 0.00655502 13.9291 0.595897 15.7308C1.18524 17.5324 2.19303 19.1689 3.53671 20.506C4.88039 21.8431 6.52173 22.8429 8.32627 23.4234C10.1308 24.004 12.0472 24.1487 13.9185 23.8458C15.7897 23.543 17.5626 22.8011 19.0919 21.681L17.9079 20.069C16.0944 21.397 13.8864 22.0752 11.6401 21.9943C9.39377 21.9135 7.24023 21.0781 5.52692 19.6232C3.81361 18.1682 2.64044 16.1784 2.19672 13.9749C1.753 11.7714 2.06459 9.48262 3.08123 7.47791C4.09787 5.47321 5.76026 3.86947 7.80017 2.92547C9.84009 1.98147 12.1386 1.75225 14.3247 2.2748C16.5109 2.79736 18.4573 4.04121 19.8498 5.80566C21.2423 7.5701 21.9998 9.75225 21.9999 12V14C21.9999 14.5304 21.7892 15.0391 21.4142 15.4142C21.0391 15.7893 20.5304 16 19.9999 16C19.4695 16 18.9608 15.7893 18.5857 15.4142C18.2107 15.0391 17.9999 14.5304 17.9999 14V12C18.0048 10.5883 17.5135 9.21975 16.6118 8.13351C15.7101 7.04728 14.4553 6.31242 13.0669 6.05735C11.6784 5.80228 10.2444 6.04321 9.0155 6.73805C7.78662 7.43288 6.84095 8.53743 6.34375 9.85871C5.84656 11.18 5.82944 12.6339 6.29539 13.9666C6.76135 15.2992 7.68075 16.4257 8.89294 17.1493C10.1051 17.8728 11.533 18.1474 12.9271 17.9251C14.3213 17.7028 15.5929 16.9977 16.5199 15.933C16.9464 16.7097 17.6194 17.3222 18.4328 17.6736C19.2461 18.0251 20.1534 18.0956 21.0113 17.8739C21.8691 17.6522 22.6287 17.151 23.1699 16.4495C23.7111 15.7479 24.0032 14.886 23.9999 14V12C23.9965 8.81846 22.7311 5.76821 20.4814 3.51852C18.2317 1.26883 15.1815 0.00344108 11.9999 0V0ZM11.9999 16C11.2088 16 10.4355 15.7654 9.77766 15.3259C9.11986 14.8864 8.60717 14.2616 8.30442 13.5307C8.00167 12.7998 7.92246 11.9956 8.0768 11.2196C8.23114 10.4437 8.6121 9.73098 9.17151 9.17157C9.73092 8.61216 10.4437 8.2312 11.2196 8.07686C11.9955 7.92252 12.7998 8.00173 13.5307 8.30448C14.2616 8.60723 14.8863 9.11992 15.3258 9.77772C15.7653 10.4355 15.9999 11.2089 15.9999 12C15.9999 13.0609 15.5785 14.0783 14.8284 14.8284C14.0782 15.5786 13.0608 16 11.9999 16Z" fill="#374957"/>
</g>
<defs>
<clipPath id="clip0_51_69103">
<rect width="24" height="24" fill="white"/>
</clipPath>
</defs>
</svg>
