<svg width="24" height="24" viewBox="0 0 24 24" fill="none" xmlns="http://www.w3.org/2000/svg">
<g clip-path="url(#clip0_51_82773)">
<path d="M22.5631 1.43729C20.1891 -0.93671 16.6441 -0.35771 12.0001 3.13729C7.35711 -0.35771 3.81311 -0.93771 1.43711 1.43729C-0.93889 3.81228 -0.35789 7.35628 3.13711 12.0003C-0.35789 16.6433 -0.937891 20.1883 1.43711 22.5633C1.8824 23.025 2.4175 23.3907 3.00946 23.6378C3.60141 23.885 4.23769 24.0083 4.87911 24.0003C6.85011 24.0003 9.23011 22.9483 12.0001 20.8643C14.7691 22.9483 17.1491 24.0003 19.1211 24.0003C19.7625 24.0083 20.3988 23.885 20.9908 23.6378C21.5827 23.3907 22.1178 23.025 22.5631 22.5633C24.9381 20.1883 24.3631 16.6443 20.8631 12.0003C24.3581 7.35628 24.9381 3.81228 22.5631 1.43729V1.43729ZM19.0851 2.02829C19.4673 2.01678 19.8477 2.08349 20.2032 2.22433C20.5586 2.36517 20.8815 2.57715 21.1521 2.84729C22.8981 4.59428 21.6081 7.56028 19.5641 10.3863C18.7261 9.39828 17.7821 8.37128 16.7061 7.29428C15.6301 6.21728 14.6001 5.27328 13.6121 4.43428C15.5101 3.06129 17.4721 2.02829 19.0851 2.02829V2.02829ZM18.3111 12.0003C17.3001 13.2203 16.2291 14.3613 15.2951 15.3003C14.3611 16.2393 13.2201 17.3003 12.0001 18.3113C10.7801 17.3003 9.63911 16.2293 8.70511 15.3003C7.77111 14.3713 6.70011 13.2203 5.68911 12.0003C6.70011 10.7803 7.77111 9.63828 8.70511 8.70528C9.63911 7.77228 10.7801 6.70028 12.0001 5.68828C13.2201 6.69828 14.3611 7.77128 15.3001 8.70528C16.2391 9.63928 17.3001 10.7803 18.3111 12.0003ZM2.84811 2.84829C3.11838 2.57769 3.44122 2.36532 3.79672 2.22429C4.15222 2.08326 4.53284 2.01656 4.91511 2.02829C6.52811 2.02829 8.49011 3.06129 10.3881 4.43428C9.40011 5.27328 8.37211 6.21728 7.29411 7.29428C6.21611 8.37128 5.27411 9.39428 4.43511 10.3863C2.39211 7.56028 1.10011 4.59428 2.84811 2.84829V2.84829ZM2.84811 21.1483C1.10211 19.4023 2.39211 16.4353 4.43511 13.6103C5.27411 14.5983 6.21811 15.6253 7.29411 16.7023C8.37011 17.7793 9.39411 18.7253 10.3831 19.5633C7.55811 21.6093 4.59211 22.9003 2.84811 21.1523V21.1483ZM21.1481 21.1483C19.4031 22.8923 16.4381 21.6053 13.6131 19.5633C14.5991 18.7253 15.6271 17.7763 16.7021 16.7023C17.7771 15.6283 18.7221 14.6023 19.5601 13.6103C21.6081 16.4403 22.9001 19.4063 21.1521 21.1523L21.1481 21.1483Z" fill="#374957"/>
<path d="M12 14.0002C13.1046 14.0002 14 13.1048 14 12.0002C14 10.8957 13.1046 10.0002 12 10.0002C10.8954 10.0002 10 10.8957 10 12.0002C10 13.1048 10.8954 14.0002 12 14.0002Z" fill="#374957"/>
</g>
<defs>
<clipPath id="clip0_51_82773">
<rect width="24" height="24" fill="white"/>
</clipPath>
</defs>
</svg>
