<svg width="24" height="24" viewBox="0 0 24 24" fill="none" xmlns="http://www.w3.org/2000/svg">
<g clip-path="url(#clip0_51_69221)">
<path d="M22 15C22 14.2043 21.6839 13.4412 21.1213 12.8786C20.5587 12.316 19.7956 12 19 12V9.99996C18.997 9.35076 18.7834 8.72007 18.3914 8.20257C17.9994 7.68508 17.4501 7.30871 16.826 7.12996L16.161 3.79997C16.1149 3.57393 15.992 3.37079 15.8132 3.22499C15.6344 3.07919 15.4107 2.99969 15.18 2.99997H14.82C14.5893 2.99969 14.3656 3.07919 14.1868 3.22499C14.008 3.37079 13.8851 3.57393 13.839 3.79997L13.2 6.99996H10.25L11 3.99997C11 3.73475 10.8946 3.4804 10.7071 3.29286C10.5196 3.10533 10.2652 2.99997 10 2.99997H8C7.73478 2.99997 7.48043 3.10533 7.29289 3.29286C7.10536 3.4804 7 3.73475 7 3.99997L7.756 7.02497C7.00707 7.08445 6.30791 7.42342 5.79735 7.97455C5.28678 8.52569 5.00216 9.24868 5 9.99996V12C4.20435 12 3.44129 12.316 2.87868 12.8786C2.31607 13.4412 2 14.2043 2 15V22.0099H0V24.0099H24V22.0099H22V15ZM7 9.99996C7 9.73474 7.10536 9.48039 7.29289 9.29286C7.48043 9.10532 7.73478 8.99996 8 8.99996H16C16.2652 8.99996 16.5196 9.10532 16.7071 9.29286C16.8946 9.48039 17 9.73474 17 9.99996V12H7V9.99996ZM5 14H19C19.2652 14 19.5196 14.1053 19.7071 14.2928C19.8946 14.4804 20 14.7347 20 15V16.98C19.064 16.88 18.5 16.28 18.5 16H16.5C16.5 16.344 15.818 17 14.75 17C13.661 17 13 16.306 13 16H11C11 16.344 10.318 17 9.25 17C8.161 17 7.5 16.306 7.5 16H5.5C5.5 16.316 4.921 16.888 4 16.981V15C4 14.7347 4.10536 14.4804 4.29289 14.2928C4.48043 14.1053 4.73478 14 5 14ZM4 18.9789C4.91869 18.9382 5.79793 18.5939 6.5 17.9999C7.27136 18.6429 8.24308 18.9963 9.2473 18.9991C10.2515 19.0018 11.2251 18.6537 12 18.0149C12.7749 18.6537 13.7485 19.0018 14.7527 18.9991C15.7569 18.9963 16.7286 18.6429 17.5 17.9999C18.2022 18.5935 19.0814 18.9375 20 18.9779V22.0099H4V18.9789Z" fill="#374957"/>
<path d="M9.00012 2C9.5524 2 10.0001 1.55228 10.0001 1C10.0001 0.447715 9.5524 0 9.00012 0C8.44784 0 8.00012 0.447715 8.00012 1C8.00012 1.55228 8.44784 2 9.00012 2Z" fill="#374957"/>
<path d="M15.0001 2C15.5524 2 16.0001 1.55228 16.0001 1C16.0001 0.447715 15.5524 0 15.0001 0C14.4478 0 14.0001 0.447715 14.0001 1C14.0001 1.55228 14.4478 2 15.0001 2Z" fill="#374957"/>
</g>
<defs>
<clipPath id="clip0_51_69221">
<rect width="24" height="24" fill="white"/>
</clipPath>
</defs>
</svg>
