<svg width="24" height="24" viewBox="0 0 24 24" fill="none" xmlns="http://www.w3.org/2000/svg">
<g clip-path="url(#clip0_51_80123)">
<path d="M11.9773 9.73159C13.9876 8.21327 16.5875 7.71105 19.0187 8.37147C19.0356 8.17248 19.0545 7.98344 19.0545 7.78544C19.055 3.86584 15.8779 0.687999 11.9583 0.687531C8.03871 0.687062 4.86087 3.86416 4.86035 7.78375V7.78544C4.86035 7.98442 4.87924 8.18341 4.89715 8.38244C7.33877 7.71081 9.95379 8.20914 11.9773 9.73159Z" fill="#374957"/>
<path d="M11.2295 13.8348C11.7253 13.8942 12.2266 13.8922 12.722 13.8288C12.5272 13.3641 12.2763 12.9251 11.9747 12.5214C11.6737 12.9272 11.4235 13.3683 11.2295 13.8348Z" fill="#374957"/>
<path d="M21.0512 10.4729C20.6615 10.1921 20.2443 9.95167 19.806 9.75531C19.1822 12.2007 17.4581 14.2178 15.1396 15.2147C15.1816 15.5377 15.2035 15.863 15.2053 16.1888C15.2096 18.3672 14.3296 20.4541 12.7666 21.9715C15.9419 24.2592 20.3705 23.5398 22.6582 20.3645C24.9459 17.1892 24.2265 12.7606 21.0512 10.4729Z" fill="#374957"/>
<path d="M8.75127 16.189C8.75254 15.8697 8.77349 15.5507 8.81395 15.2338C6.48379 14.2525 4.7444 12.2408 4.10976 9.7934C0.558882 11.4414 -0.98368 15.6559 0.664304 19.2067C2.31229 22.7576 6.52682 24.3002 10.0777 22.6522C10.475 22.4678 10.8543 22.2471 11.2109 21.9926C9.63496 20.4737 8.74673 18.3778 8.75127 16.189Z" fill="#374957"/>
<path d="M13.1998 15.7808C12.3902 15.9065 11.5664 15.9088 10.7561 15.7878C10.7462 15.9221 10.7412 16.0564 10.7412 16.1857C10.738 17.5154 11.1726 18.8091 11.978 19.8671C12.7835 18.8092 13.2181 17.5154 13.2147 16.1857C13.2147 16.0544 13.2097 15.9171 13.1998 15.7808Z" fill="#374957"/>
<path d="M9.29667 13.2796C9.59508 12.5026 10.0116 11.7764 10.5314 11.1265C9.29269 10.2807 7.78641 9.91951 6.29883 10.1116C6.87666 11.499 7.9433 12.6261 9.29667 13.2796Z" fill="#374957"/>
<path d="M13.4258 11.1263C13.9422 11.7711 14.3563 12.4916 14.6536 13.2624C15.9877 12.6038 17.0379 11.484 17.6096 10.1104C16.1378 9.92809 14.6501 10.2893 13.4258 11.1263Z" fill="#374957"/>
</g>
<defs>
<clipPath id="clip0_51_80123">
<rect width="24" height="24" fill="white"/>
</clipPath>
</defs>
</svg>
