<svg width="24" height="24" viewBox="0 0 24 24" fill="none" xmlns="http://www.w3.org/2000/svg">
<g clip-path="url(#clip0_51_69383)">
<path d="M23.4868 1.31694C23.2115 0.910788 22.8409 0.57834 22.4073 0.348731C21.9737 0.119122 21.4904 -0.000639706 20.9998 -5.89329e-05H2.99976C2.50952 -0.00059885 2.0266 0.119015 1.59329 0.348317C1.15997 0.577619 0.789446 0.909621 0.514144 1.31527C0.238841 1.72092 0.0671473 2.18786 0.0140849 2.67523C-0.0389776 3.1626 0.0282086 3.65555 0.209765 4.11094C1.09357 6.29771 2.57342 8.19251 4.48094 9.57975C6.38846 10.967 8.64706 11.791 10.9998 11.9579V21.9999H5.99976V23.9999H17.9998V21.9999H12.9998V11.9579C15.3525 11.791 17.6111 10.967 19.5186 9.57975C21.4261 8.19251 22.906 6.29771 23.7898 4.11094C23.9712 3.65589 24.0385 3.16331 23.9857 2.67627C23.9329 2.18922 23.7616 1.72252 23.4868 1.31694V1.31694ZM2.16876 2.43994C2.25975 2.30327 2.3834 2.19145 2.5285 2.11462C2.6736 2.03779 2.83558 1.99838 2.99976 1.99994H20.9998C21.1634 1.99939 21.3247 2.03902 21.4695 2.11535C21.6143 2.19168 21.7381 2.30239 21.8301 2.43774C21.9222 2.5731 21.9795 2.72897 21.9973 2.89168C22.015 3.05438 21.9925 3.21895 21.9318 3.37094C21.8488 3.57894 21.7548 3.78894 21.6528 3.99994H2.34676C2.24676 3.78894 2.14676 3.57894 2.06776 3.37094C2.00602 3.21957 1.98292 3.0552 2.00055 2.89267C2.01818 2.73014 2.07599 2.57455 2.16876 2.43994V2.43994ZM11.9998 9.99994C10.3896 10.0205 8.79628 9.67046 7.34301 8.97686C5.88975 8.28326 4.61548 7.2647 3.61876 5.99994H20.3808C19.384 7.2647 18.1098 8.28326 16.6565 8.97686C15.2033 9.67046 13.6099 10.0205 11.9998 9.99994V9.99994Z" fill="#374957"/>
</g>
<defs>
<clipPath id="clip0_51_69383">
<rect width="24" height="24" fill="white"/>
</clipPath>
</defs>
</svg>
