<svg width="24" height="24" viewBox="0 0 24 24" fill="none" xmlns="http://www.w3.org/2000/svg">
<g clip-path="url(#clip0_51_72405)">
<path d="M15.0001 0H9.00008C7.67448 0.00158786 6.40363 0.528882 5.4663 1.46622C4.52896 2.40356 4.00166 3.6744 4.00008 5V19C4.00166 20.3256 4.52896 21.5964 5.4663 22.5338C6.40363 23.4711 7.67448 23.9984 9.00008 24H15.0001C16.3257 23.9984 17.5965 23.4711 18.5339 22.5338C19.4712 21.5964 19.9985 20.3256 20.0001 19V5C19.9985 3.6744 19.4712 2.40356 18.5339 1.46622C17.5965 0.528882 16.3257 0.00158786 15.0001 0V0ZM9.00008 2H15.0001C15.7957 2 16.5588 2.31607 17.1214 2.87868C17.684 3.44129 18.0001 4.20435 18.0001 5V16H6.00008V5C6.00008 4.20435 6.31615 3.44129 6.87876 2.87868C7.44137 2.31607 8.20443 2 9.00008 2V2ZM15.0001 22H9.00008C8.20443 22 7.44137 21.6839 6.87876 21.1213C6.31615 20.5587 6.00008 19.7956 6.00008 19V18H18.0001V19C18.0001 19.7956 17.684 20.5587 17.1214 21.1213C16.5588 21.6839 15.7957 22 15.0001 22V22Z" fill="#374957"/>
<path d="M12.0002 20.9994C12.5524 20.9994 13.0002 20.5517 13.0002 19.9994C13.0002 19.4471 12.5524 18.9994 12.0002 18.9994C11.4479 18.9994 11.0002 19.4471 11.0002 19.9994C11.0002 20.5517 11.4479 20.9994 12.0002 20.9994Z" fill="#374957"/>
</g>
<defs>
<clipPath id="clip0_51_72405">
<rect width="24" height="24" fill="white"/>
</clipPath>
</defs>
</svg>
