<svg width="24" height="24" viewBox="0 0 24 24" fill="none" xmlns="http://www.w3.org/2000/svg">
<g clip-path="url(#clip0_51_80154)">
<path d="M9.02637 4.99982C9.02637 3.92282 10.2934 1.88282 11.1804 0.466818C11.2705 0.324089 11.3953 0.206502 11.5432 0.125015C11.691 0.0435282 11.8571 0.000793457 12.0259 0.000793457C12.1947 0.000793457 12.3607 0.0435282 12.5086 0.125015C12.6564 0.206502 12.7812 0.324089 12.8714 0.466818C13.7584 1.88282 15.0264 3.92282 15.0264 4.99982C15.0264 5.79547 14.7103 6.55853 14.1477 7.12114C13.5851 7.68375 12.822 7.99982 12.0264 7.99982C11.2307 7.99982 10.4677 7.68375 9.90505 7.12114C9.34244 6.55853 9.02637 5.79547 9.02637 4.99982V4.99982ZM19.0264 22.0258V20.0258H5.02637V22.0258H3.02637V24.0258H21.0264V22.0258H19.0264ZM15.0394 10.0258H17.0264V8.02582H7.02637V10.0258H9.01337C8.94937 13.7988 8.00837 16.0388 5.65037 18.0258H18.4004C16.0434 16.0388 15.1004 13.7998 15.0384 10.0258H15.0394Z" fill="#374957"/>
</g>
<defs>
<clipPath id="clip0_51_80154">
<rect width="24" height="24" fill="white"/>
</clipPath>
</defs>
</svg>
