<svg width="24" height="24" viewBox="0 0 24 24" fill="none" xmlns="http://www.w3.org/2000/svg">
<g clip-path="url(#clip0_51_72272)">
<path d="M22.0998 1.90046C18.6638 -1.53054 9.37184 -0.0665374 4.65184 4.65246C-0.0681596 9.37146 -1.53116 18.6645 1.89984 22.1005C3.50643 23.4499 5.57365 24.1238 7.66684 23.9805C12.0009 23.9421 16.1653 22.2908 19.3478 19.3485C24.0658 14.6295 25.5308 5.33646 22.0998 1.90046V1.90046ZM16.3328 2.00046C17.8969 1.87511 19.4506 2.34435 20.6838 3.31446C21.6998 4.33146 22.1108 6.30046 21.9588 8.54546L15.4588 2.04546C15.7538 2.02646 16.0498 2.00046 16.3328 2.00046V2.00046ZM3.31584 20.6845C2.29984 19.6695 1.88884 17.7005 2.04084 15.4555L8.54084 21.9555C6.29984 22.1105 4.33084 21.7005 3.31584 20.6845ZM17.9338 17.9345C15.998 19.7585 13.6031 21.0225 11.0048 21.5915L2.40484 12.9915C2.97514 10.394 4.24056 8.00042 6.06584 6.06646C8.00486 4.24305 10.4042 2.98255 13.0058 2.42046L21.5918 11.0065C21.0229 13.6046 19.7585 15.9993 17.9338 17.9345V17.9345ZM17.7068 11.7075C17.5193 11.8949 17.265 12.0003 16.9998 12.0003C16.7347 12.0003 16.4804 11.8949 16.2928 11.7075L14.9998 10.4145L13.4138 12.0005L14.7068 13.2935C14.8023 13.3857 14.8785 13.4961 14.9309 13.6181C14.9834 13.7401 15.0109 13.8713 15.0121 14.0041C15.0132 14.1368 14.9879 14.2685 14.9377 14.3914C14.8874 14.5143 14.8131 14.626 14.7192 14.7199C14.6253 14.8138 14.5137 14.888 14.3908 14.9383C14.2679 14.9886 14.1362 15.0139 14.0034 15.0127C13.8707 15.0116 13.7394 14.984 13.6174 14.9316C13.4954 14.8792 13.3851 14.803 13.2928 14.7075L11.9998 13.4145L10.4138 15.0005L11.7068 16.2935C11.8023 16.3857 11.8785 16.4961 11.9309 16.6181C11.9834 16.7401 12.0109 16.8713 12.0121 17.0041C12.0132 17.1368 11.9879 17.2685 11.9377 17.3914C11.8874 17.5143 11.8131 17.626 11.7192 17.7199C11.6253 17.8138 11.5137 17.888 11.3908 17.9383C11.2679 17.9886 11.1362 18.0139 11.0034 18.0127C10.8707 18.0116 10.7394 17.984 10.6174 17.9316C10.4954 17.8792 10.3851 17.803 10.2928 17.7075L6.29284 13.7075C6.11068 13.5189 6.00989 13.2663 6.01217 13.0041C6.01444 12.7419 6.11961 12.4911 6.30502 12.3056C6.49043 12.1202 6.74124 12.0151 7.00344 12.0128C7.26564 12.0105 7.51824 12.1113 7.70684 12.2935L8.99984 13.5865L10.5858 12.0005L9.29284 10.7075C9.11068 10.5189 9.00989 10.2663 9.01217 10.0041C9.01444 9.74187 9.11961 9.49105 9.30502 9.30565C9.49043 9.12024 9.74124 9.01507 10.0034 9.01279C10.2656 9.01051 10.5182 9.11131 10.7068 9.29346L11.9998 10.5865L13.5858 9.00046L12.2928 7.70746C12.1107 7.51886 12.0099 7.26626 12.0122 7.00406C12.0144 6.74187 12.1196 6.49105 12.305 6.30564C12.4904 6.12024 12.7412 6.01507 13.0034 6.01279C13.2656 6.01051 13.5182 6.11131 13.7068 6.29346L17.7068 10.2935C17.8943 10.481 17.9996 10.7353 17.9996 11.0005C17.9996 11.2656 17.8943 11.5199 17.7068 11.7075V11.7075Z" fill="#374957"/>
</g>
<defs>
<clipPath id="clip0_51_72272">
<rect width="24" height="24" fill="white"/>
</clipPath>
</defs>
</svg>
