<svg width="24" height="24" viewBox="0 0 24 24" fill="none" xmlns="http://www.w3.org/2000/svg">
<g clip-path="url(#clip0_51_81405)">
<path d="M23.9999 3.00023V6.00023C23.9999 6.79588 23.6838 7.55894 23.1212 8.12155C22.5586 8.68416 21.7956 9.00023 20.9999 9.00023H17.9999V7.00023H20.6359C19.8219 5.59412 18.6772 4.40774 17.3011 3.54394C15.925 2.68014 14.359 2.16498 12.7388 2.04311C11.1186 1.92124 9.49315 2.19633 8.0033 2.84455C6.51346 3.49277 5.20418 4.49455 4.18895 5.76306C3.17372 7.03158 2.48317 8.52855 2.17716 10.1242C1.87115 11.7199 1.95891 13.3661 2.43283 14.9202C2.90675 16.4743 3.75254 17.8894 4.89688 19.0428C6.04122 20.1962 7.44958 21.0531 8.9999 21.5392V23.6052C7.11583 23.1186 5.37845 22.1809 3.9377 20.873C2.49694 19.565 1.39608 17.9262 0.730109 16.0978C0.0641385 14.2694 -0.146938 12.3064 0.115095 10.3783C0.377128 8.45011 1.1044 6.61466 2.23415 5.03031C3.3639 3.44597 4.8622 2.16031 6.59975 1.28429C8.3373 0.408276 10.2619 -0.0317937 12.2075 0.00205952C14.1531 0.0359127 16.0612 0.542672 17.7673 1.47861C19.4733 2.41454 20.926 3.75154 21.9999 5.37423V3.00023H23.9999ZM16.9999 18.0002C16.9999 17.2046 16.6838 16.4415 16.1212 15.8789C15.5586 15.3163 14.7955 15.0002 13.9999 15.0002C13.2043 15.0002 12.4412 15.3163 11.8786 15.8789C11.316 16.4415 10.9999 17.2046 10.9999 18.0002H12.9999C12.9999 17.735 13.1053 17.4807 13.2928 17.2931C13.4803 17.1056 13.7347 17.0002 13.9999 17.0002C14.2651 17.0002 14.5195 17.1056 14.707 17.2931C14.8945 17.4807 14.9999 17.735 14.9999 18.0002C14.9999 18.5002 14.1499 19.1382 13.3999 19.7002C12.2749 20.5442 10.9999 21.5002 10.9999 23.0002V24.0002H16.9999V22.0002H13.7099C13.9809 21.7642 14.2989 21.5262 14.5999 21.3002C15.7249 20.4562 16.9999 19.5002 16.9999 18.0002ZM21.9999 19.0002H19.9999V15.0002H17.9999V19.0002C17.9999 19.5307 18.2106 20.0394 18.5857 20.4144C18.9608 20.7895 19.4695 21.0002 19.9999 21.0002H21.9999V24.0002H23.9999V15.0002H21.9999V19.0002ZM12.9999 6.00023H10.9999V11.0002H6.9999V13.0002H12.9999V6.00023Z" fill="#374957"/>
</g>
<defs>
<clipPath id="clip0_51_81405">
<rect width="24" height="24" fill="white"/>
</clipPath>
</defs>
</svg>
