<svg width="24" height="24" viewBox="0 0 24 24" fill="none" xmlns="http://www.w3.org/2000/svg">
<g clip-path="url(#clip0_51_81822)">
<path d="M5.86842 15.583C4.81376 14.6088 4.0093 13.3949 3.52314 12.044C3.03697 10.693 2.8834 9.24487 3.07542 7.82202C3.26528 6.37928 3.80215 5.0041 4.64001 3.81433C5.47786 2.62457 6.59171 1.65571 7.8861 0.990791C9.18048 0.325875 10.6168 -0.0152665 12.0719 -0.00339297C13.527 0.00848055 14.9576 0.373015 16.241 1.05896C17.5243 1.74491 18.6222 2.73182 19.4405 3.9351C20.2589 5.13838 20.7732 6.52214 20.9395 7.96779C21.1058 9.41343 20.9191 10.8778 20.3954 12.2355C19.8716 13.5932 19.0265 14.8036 17.9324 15.763C17.2279 16.3687 16.6809 17.1364 16.3384 18H13.0004V10.816C13.5833 10.6099 14.0883 10.2288 14.4463 9.72472C14.8043 9.22065 14.9979 8.61828 15.0004 8.00002C15.0004 7.7348 14.8951 7.48045 14.7075 7.29291C14.52 7.10538 14.2656 7.00002 14.0004 7.00002C13.7352 7.00002 13.4808 7.10538 13.2933 7.29291C13.1058 7.48045 13.0004 7.7348 13.0004 8.00002C13.0004 8.26524 12.8951 8.51959 12.7075 8.70713C12.52 8.89466 12.2656 9.00002 12.0004 9.00002C11.7352 9.00002 11.4808 8.89466 11.2933 8.70713C11.1058 8.51959 11.0004 8.26524 11.0004 8.00002C11.0004 7.7348 10.8951 7.48045 10.7075 7.29291C10.52 7.10538 10.2656 7.00002 10.0004 7.00002C9.7352 7.00002 9.48085 7.10538 9.29331 7.29291C9.10577 7.48045 9.00042 7.7348 9.00042 8.00002C9.00298 8.61828 9.1965 9.22065 9.5545 9.72472C9.91251 10.2288 10.4175 10.6099 11.0004 10.816V18H7.56342C7.18111 17.0806 6.60264 16.2557 5.86842 15.583V15.583ZM8.00042 20V20.31C8.00148 21.2883 8.39058 22.2263 9.08236 22.9181C9.77414 23.6099 10.7121 23.999 11.6904 24H12.3104C13.2887 23.999 14.2267 23.6099 14.9185 22.9181C15.6103 22.2263 15.9994 21.2883 16.0004 20.31V20H8.00042Z" fill="#374957"/>
</g>
<defs>
<clipPath id="clip0_51_81822">
<rect width="24" height="24" fill="white"/>
</clipPath>
</defs>
</svg>
