<svg width="24" height="24" viewBox="0 0 24 24" fill="none" xmlns="http://www.w3.org/2000/svg">
<g clip-path="url(#clip0_51_81453)">
<path d="M12 20C9.879 19.9976 7.84555 19.154 6.34578 17.6542C4.846 16.1544 4.00238 14.121 4 12V0H6V12C6 13.5913 6.63214 15.1174 7.75736 16.2426C8.88258 17.3679 10.4087 18 12 18C13.5913 18 15.1174 17.3679 16.2426 16.2426C17.3679 15.1174 18 13.5913 18 12V0H20V12C19.9976 14.121 19.154 16.1544 17.6542 17.6542C16.1544 19.154 14.121 19.9976 12 20V20Z" fill="#374957"/>
<path d="M24 21.9994H0V23.9994H24V21.9994Z" fill="#374957"/>
</g>
<defs>
<clipPath id="clip0_51_81453">
<rect width="24" height="24" fill="white"/>
</clipPath>
</defs>
</svg>
