<svg width="24" height="24" viewBox="0 0 24 24" fill="none" xmlns="http://www.w3.org/2000/svg">
<g clip-path="url(#clip0_51_81471)">
<path d="M18 9H6C5.46957 9 4.96086 9.21071 4.58579 9.58579C4.21071 9.96086 4 10.4696 4 11V16C4 18.1217 4.84285 20.1566 6.34315 21.6569C7.84344 23.1571 9.87827 24 12 24C14.1217 24 16.1566 23.1571 17.6569 21.6569C19.1571 20.1566 20 18.1217 20 16V11C20 10.4696 19.7893 9.96086 19.4142 9.58579C19.0391 9.21071 18.5304 9 18 9Z" fill="#374957"/>
<path d="M18 0H6V7H18V0ZM11 5H9V3H11V5ZM15 5H13V3H15V5Z" fill="#374957"/>
</g>
<defs>
<clipPath id="clip0_51_81471">
<rect width="24" height="24" fill="white"/>
</clipPath>
</defs>
</svg>
