<svg width="24" height="24" viewBox="0 0 24 24" fill="none" xmlns="http://www.w3.org/2000/svg">
<g clip-path="url(#clip0_51_80562)">
<path d="M12 9.99956C11.315 9.99956 10.651 10.0396 10 10.0996V16.9996H8V8.05256L14.915 4.55856L8.9 0.211563C8.59494 0.0578404 8.25558 -0.0151821 7.91429 -0.000542741C7.573 0.0140966 7.24114 0.11591 6.95036 0.295191C6.65958 0.474472 6.41957 0.725244 6.2532 1.0236C6.08684 1.32196 5.99967 1.65796 6 1.99956V10.9216C2.392 12.1146 0 14.3606 0 16.9996C0 20.9246 5.271 23.9996 12 23.9996C18.729 23.9996 24 20.9246 24 16.9996C24 13.0746 18.729 9.99956 12 9.99956ZM15 18.9996C14.6044 18.9996 14.2178 18.8823 13.8889 18.6625C13.56 18.4427 13.3036 18.1304 13.1522 17.7649C13.0009 17.3995 12.9613 16.9973 13.0384 16.6094C13.1156 16.2214 13.3061 15.8651 13.5858 15.5854C13.8655 15.3056 14.2219 15.1152 14.6098 15.038C14.9978 14.9608 15.3999 15.0004 15.7654 15.1518C16.1308 15.3032 16.4432 15.5595 16.6629 15.8884C16.8827 16.2173 17 16.604 17 16.9996C17 17.53 16.7893 18.0387 16.4142 18.4138C16.0391 18.7889 15.5304 18.9996 15 18.9996Z" fill="#374957"/>
</g>
<defs>
<clipPath id="clip0_51_80562">
<rect width="24" height="24" fill="white"/>
</clipPath>
</defs>
</svg>
