<svg width="24" height="24" viewBox="0 0 24 24" fill="none" xmlns="http://www.w3.org/2000/svg">
<g clip-path="url(#clip0_51_79842)">
<path d="M22.1204 9.879L12.2454 0L10.8314 1.418L20.7064 11.293C20.8938 11.4805 20.9991 11.7348 20.9991 12C20.9991 12.2652 20.8938 12.5195 20.7064 12.707L10.8184 22.6L12.2324 24.014L22.1204 14.126C22.6828 13.5634 22.9987 12.8005 22.9987 12.005C22.9987 11.2095 22.6828 10.4466 22.1204 9.884V9.879Z" fill="#374957"/>
<path d="M13.5349 11.293L2.26194 0.0189972L0.846937 1.433L11.4139 12L0.835938 22.578L2.24994 23.993L13.5349 12.707C13.7224 12.5195 13.8277 12.2652 13.8277 12C13.8277 11.7348 13.7224 11.4805 13.5349 11.293V11.293Z" fill="#374957"/>
</g>
<defs>
<clipPath id="clip0_51_79842">
<rect width="24" height="24" fill="white"/>
</clipPath>
</defs>
</svg>
