<svg width="24" height="24" viewBox="0 0 24 24" fill="none" xmlns="http://www.w3.org/2000/svg">
<g clip-path="url(#clip0_51_71653)">
<path d="M10.2069 0.0684078H10.1999C9.97584 0.0177972 9.74123 0.0458376 9.53545 0.147817C9.32967 0.249796 9.16526 0.419499 9.06986 0.628408L0.374856 19.7594C0.167235 20.2164 0.0775759 20.7181 0.114091 21.2187C0.150606 21.7192 0.312127 22.2027 0.583862 22.6246C0.855598 23.0466 1.22886 23.3937 1.66947 23.634C2.11008 23.8744 2.60395 24.0004 3.10586 24.0004H9.99986C10.2651 24.0004 10.5194 23.8951 10.707 23.7075C10.8945 23.52 10.9999 23.2656 10.9999 23.0004V1.04641C10.998 0.817685 10.9185 0.596382 10.7744 0.418716C10.6303 0.24105 10.4302 0.117543 10.2069 0.0684078V0.0684078ZM8.99986 22.0004H3.10586C2.93845 22.0005 2.7737 21.9586 2.6267 21.8785C2.4797 21.7984 2.35516 21.6827 2.2645 21.542C2.17383 21.4013 2.11994 21.2401 2.10778 21.0731C2.09561 20.9061 2.12555 20.7388 2.19486 20.5864L8.99986 5.61641V22.0004Z" fill="#374957"/>
<path d="M23.6249 19.7589L14.9299 0.627868C14.8299 0.417762 14.6613 0.248045 14.4518 0.146768C14.2424 0.0454904 14.0046 0.0187155 13.7779 0.0708683C13.5569 0.121179 13.3596 0.245056 13.2182 0.422198C13.0769 0.59934 12.9999 0.819242 12.9999 1.04587V22.9999C12.9999 23.2651 13.1052 23.5194 13.2928 23.707C13.4803 23.8945 13.7347 23.9999 13.9999 23.9999H20.8939C21.3958 23.9998 21.8896 23.8739 22.3303 23.6335C22.7709 23.3931 23.1441 23.0461 23.4159 22.6241C23.6876 22.2021 23.8491 21.7187 23.8856 21.2181C23.9221 20.7176 23.8325 20.2158 23.6249 19.7589Z" fill="#374957"/>
</g>
<defs>
<clipPath id="clip0_51_71653">
<rect width="24" height="24" fill="white"/>
</clipPath>
</defs>
</svg>
