<svg width="24" height="24" viewBox="0 0 24 24" fill="none" xmlns="http://www.w3.org/2000/svg">
<g clip-path="url(#clip0_51_79799)">
<path d="M20 0H3V3H1V5H3V7H1V9H3V11H1V13H3V15H1V17H3V19H1V21H3V24H20C20.7956 24 21.5587 23.6839 22.1213 23.1213C22.6839 22.5587 23 21.7956 23 21V3C23 2.20435 22.6839 1.44129 22.1213 0.878679C21.5587 0.31607 20.7956 0 20 0V0ZM13 4C13.6922 4 14.3689 4.20527 14.9445 4.58985C15.5201 4.97444 15.9687 5.52106 16.2336 6.16061C16.4985 6.80015 16.5678 7.50388 16.4327 8.18281C16.2977 8.86175 15.9644 9.48539 15.4749 9.97487C14.9854 10.4644 14.3618 10.7977 13.6828 10.9327C13.0039 11.0678 12.3001 10.9985 11.6606 10.7336C11.0211 10.4687 10.4744 10.0201 10.0899 9.44449C9.70527 8.86892 9.5 8.19223 9.5 7.5C9.5 6.57174 9.86875 5.6815 10.5251 5.02512C11.1815 4.36875 12.0717 4 13 4V4ZM19 18H17V16C17 15.7348 16.8946 15.4804 16.7071 15.2929C16.5196 15.1054 16.2652 15 16 15H10C9.73478 15 9.48043 15.1054 9.29289 15.2929C9.10536 15.4804 9 15.7348 9 16V18H7V16C7 15.2043 7.31607 14.4413 7.87868 13.8787C8.44129 13.3161 9.20435 13 10 13H16C16.7956 13 17.5587 13.3161 18.1213 13.8787C18.6839 14.4413 19 15.2043 19 16V18ZM11.5 7.5C11.5 7.20333 11.588 6.91332 11.7528 6.66664C11.9176 6.41997 12.1519 6.22771 12.426 6.11418C12.7001 6.00065 13.0017 5.97094 13.2926 6.02882C13.5836 6.0867 13.8509 6.22956 14.0607 6.43934C14.2704 6.64912 14.4133 6.91639 14.4712 7.20736C14.5291 7.49833 14.4994 7.79993 14.3858 8.07402C14.2723 8.34811 14.08 8.58238 13.8334 8.7472C13.5867 8.91202 13.2967 9 13 9C12.6022 9 12.2206 8.84196 11.9393 8.56066C11.658 8.27935 11.5 7.89782 11.5 7.5V7.5Z" fill="#374957"/>
</g>
<defs>
<clipPath id="clip0_51_79799">
<rect width="24" height="24" fill="white"/>
</clipPath>
</defs>
</svg>
