<svg width="24" height="24" viewBox="0 0 24 24" fill="none" xmlns="http://www.w3.org/2000/svg">
<g clip-path="url(#clip0_51_81762)">
<path d="M20.9997 6.99998C20.2041 6.99998 19.441 7.31605 18.8784 7.87866C18.3158 8.44127 17.9997 9.20433 17.9997 9.99998C17.9997 10.7956 18.3158 11.5587 18.8784 12.1213C19.441 12.6839 20.2041 13 20.9997 13C21.2109 12.9995 21.4215 12.9764 21.6277 12.931C21.0745 15.1848 19.8895 17.2339 18.212 18.8375C16.5345 20.4412 14.4341 21.5328 12.1577 21.984C12.0183 22.0099 11.8749 22.0042 11.738 21.9673C11.6011 21.9305 11.4743 21.8634 11.3667 21.771C11.252 21.6757 11.1596 21.5564 11.0962 21.4214C11.0328 21.2864 10.9998 21.1391 10.9997 20.99V19.929C12.6638 19.7617 14.2594 19.1798 15.6404 18.2364C17.0214 17.293 18.1438 16.0183 18.9047 14.529C18.0379 14.132 17.3032 13.4945 16.7882 12.6921C16.2732 11.8898 15.9994 10.9564 15.9994 10.003C15.9994 9.04955 16.2732 8.11618 16.7882 7.31384C17.3032 6.5115 18.0379 5.87395 18.9047 5.47698C18.1196 3.92791 16.9447 2.61 15.4955 1.65299C14.0463 0.695984 12.3729 0.132876 10.64 0.0191044C8.90707 -0.0946673 7.17439 0.24482 5.61253 1.00414C4.05067 1.76347 2.71349 2.91645 1.73262 4.34958C0.751749 5.78271 0.161012 7.44657 0.0185634 9.17738C-0.123885 10.9082 0.186867 12.6462 0.920227 14.2205C1.65359 15.7947 2.78427 17.1508 4.20096 18.1552C5.61766 19.1597 7.27151 19.7779 8.99972 19.949V20.99C8.99963 21.432 9.09678 21.8686 9.28429 22.2688C9.4718 22.6691 9.74507 23.0232 10.0847 23.306C10.4173 23.5862 10.8076 23.7894 11.2279 23.9011C11.6482 24.0127 12.0879 24.0301 12.5157 23.952C15.746 23.309 18.6544 21.5683 20.7475 19.0253C22.8407 16.4824 23.9897 13.2936 23.9997 9.99998C23.9997 9.20433 23.6837 8.44127 23.121 7.87866C22.5584 7.31605 21.7954 6.99998 20.9997 6.99998V6.99998ZM9.99972 7.99998C10.3953 7.99998 10.782 8.11728 11.1109 8.33704C11.4398 8.5568 11.6961 8.86916 11.8475 9.23461C11.9989 9.60006 12.0385 10.0022 11.9613 10.3902C11.8841 10.7781 11.6936 11.1345 11.4139 11.4142C11.1342 11.6939 10.7779 11.8844 10.3899 11.9615C10.0019 12.0387 9.59981 11.9991 9.23435 11.8477C8.8689 11.6964 8.55654 11.44 8.33678 11.1111C8.11702 10.7822 7.99972 10.3955 7.99972 9.99998C7.99972 9.46955 8.21043 8.96084 8.58551 8.58576C8.96058 8.21069 9.46929 7.99998 9.99972 7.99998V7.99998Z" fill="#374957"/>
</g>
<defs>
<clipPath id="clip0_51_81762">
<rect width="24" height="24" fill="white"/>
</clipPath>
</defs>
</svg>
