<svg width="24" height="24" viewBox="0 0 24 24" fill="none" xmlns="http://www.w3.org/2000/svg">
<g clip-path="url(#clip0_51_71600)">
<path d="M7.51495 5.00819C7.45939 4.87142 7.3644 4.75426 7.24207 4.67164C7.11973 4.58901 6.97558 4.54465 6.82795 4.54419V4.54419C6.67758 4.54463 6.53084 4.59038 6.40686 4.67547C6.28288 4.76056 6.18743 4.88104 6.13295 5.02119L4.15595 10.2082C4.12668 10.2849 4.11282 10.3667 4.11517 10.4488C4.11752 10.5309 4.13604 10.6118 4.16966 10.6867C4.20328 10.7617 4.25135 10.8293 4.31111 10.8856C4.37087 10.942 4.44116 10.986 4.51795 11.0152C4.58894 11.0419 4.66411 11.0558 4.73995 11.0562C4.86629 11.0562 4.98969 11.0181 5.09392 10.9467C5.19815 10.8753 5.27834 10.774 5.32395 10.6562L5.66295 9.76719H7.97395L8.30895 10.6542C8.33791 10.731 8.38171 10.8014 8.43786 10.8613C8.49402 10.9212 8.56141 10.9694 8.63621 11.0033C8.71101 11.0371 8.79174 11.0559 8.8738 11.0585C8.95586 11.0612 9.03763 11.0476 9.11445 11.0187C9.19128 10.9897 9.26164 10.9459 9.32154 10.8898C9.38143 10.8336 9.42968 10.7662 9.46353 10.6914C9.49737 10.6166 9.51616 10.5359 9.5188 10.4538C9.52145 10.3718 9.50791 10.29 9.47895 10.2132L7.51495 5.00819ZM6.13895 8.51419L6.82295 6.71419L7.50195 8.51419H6.13895Z" fill="#374957"/>
<path d="M11.232 4.54419C11.0663 4.54445 10.9075 4.61039 10.7903 4.72754C10.6732 4.84469 10.6072 5.00351 10.607 5.16919V10.4312C10.607 10.597 10.6728 10.7559 10.79 10.8731C10.9072 10.9903 11.0662 11.0562 11.232 11.0562C11.3977 11.0562 11.5567 10.9903 11.6739 10.8731C11.7911 10.7559 11.857 10.597 11.857 10.4312V5.16919C11.857 5.00343 11.7911 4.84446 11.6739 4.72725C11.5567 4.61004 11.3977 4.54419 11.232 4.54419V4.54419Z" fill="#374957"/>
<path d="M19 0H5C3.67441 0.00158786 2.40356 0.528882 1.46622 1.46622C0.528882 2.40356 0.00158786 3.67441 0 5L0 19C0.00158786 20.3256 0.528882 21.5964 1.46622 22.5338C2.40356 23.4711 3.67441 23.9984 5 24H16.343C16.9999 24.0019 17.6507 23.8735 18.2576 23.6222C18.8646 23.3709 19.4157 23.0017 19.879 22.536L22.535 19.878C23.0008 19.4149 23.37 18.864 23.6215 18.2572C23.873 17.6504 24.0016 16.9998 24 16.343V5C23.9984 3.67441 23.4711 2.40356 22.5338 1.46622C21.5964 0.528882 20.3256 0.00158786 19 0V0ZM2 19V5C2 4.20435 2.31607 3.44129 2.87868 2.87868C3.44129 2.31607 4.20435 2 5 2H19C19.7957 2 20.5587 2.31607 21.1213 2.87868C21.6839 3.44129 22 4.20435 22 5V15H18C17.2044 15 16.4413 15.3161 15.8787 15.8787C15.3161 16.4413 15 17.2044 15 18V22H5C4.20435 22 3.44129 21.6839 2.87868 21.1213C2.31607 20.5587 2 19.7957 2 19ZM18.465 21.122C18.063 21.523 17.5547 21.8006 17 21.922V18C17 17.7348 17.1054 17.4804 17.2929 17.2929C17.4804 17.1054 17.7348 17 18 17H21.925C21.8013 17.5535 21.524 18.0609 21.125 18.464L18.465 21.122Z" fill="#374957"/>
</g>
<defs>
<clipPath id="clip0_51_71600">
<rect width="24" height="24" fill="white"/>
</clipPath>
</defs>
</svg>
