<svg width="24" height="24" viewBox="0 0 24 24" fill="none" xmlns="http://www.w3.org/2000/svg">
<path d="M17.7918 7.2119C17.3475 5.30118 16.2165 3.62035 14.614 2.48889C13.0114 1.35742 11.049 0.854218 9.09978 1.07492C7.15052 1.29562 5.3503 2.22483 4.0413 3.68594C2.7323 5.14705 2.00578 7.0382 1.99984 8.9999C1.99898 10.2783 2.30778 11.5379 2.89984 12.6709C1.82097 13.249 0.966239 14.1711 0.471458 15.2907C-0.0233229 16.4103 -0.129776 17.663 0.16901 18.85C0.467797 20.037 1.15469 21.0901 2.12054 21.842C3.0864 22.5939 4.27582 23.0014 5.49984 22.9999H15.9998C17.9589 22.9908 19.8466 22.2632 21.3049 20.9549C22.7632 19.6467 23.6907 17.8488 23.9117 15.9022C24.1326 13.9556 23.6316 11.9956 22.5036 10.3938C21.3756 8.79203 19.6991 7.65983 17.7918 7.2119V7.2119Z" fill="#374957"/>
</svg>
