<svg width="24" height="24" viewBox="0 0 24 24" fill="none" xmlns="http://www.w3.org/2000/svg">
<g clip-path="url(#clip0_51_81942)">
<path d="M24 11.5C23.9995 10.8104 23.7952 10.1363 23.4129 9.56237C23.0306 8.98843 22.4872 8.54023 21.851 8.27403C21.445 5.95639 20.2348 3.85614 18.4332 2.3427C16.6316 0.829261 14.354 -0.000427246 12.001 -0.000427246C9.64811 -0.000427246 7.37053 0.829261 5.56892 2.3427C3.7673 3.85614 2.55706 5.95639 2.15105 8.27403C1.42505 8.57946 0.823296 9.12085 0.443092 9.81063C0.0628883 10.5004 -0.0735387 11.2983 0.0558719 12.0752C0.185283 12.8521 0.572965 13.5627 1.15623 14.092C1.73949 14.6213 2.48424 14.9384 3.27005 14.992C3.78654 16.0881 4.487 17.0875 5.34105 17.947C4.08963 19.3134 3.29544 21.0361 3.06905 22.875C3.05132 23.0157 3.06372 23.1585 3.1054 23.294C3.14708 23.4295 3.2171 23.5546 3.31082 23.661C3.40454 23.7674 3.5198 23.8527 3.64897 23.9111C3.77815 23.9696 3.91827 23.9999 4.06005 24H19.919C20.0608 24 20.2009 23.9698 20.3302 23.9115C20.4594 23.8532 20.5747 23.768 20.6685 23.6617C20.7623 23.5555 20.8325 23.4304 20.8743 23.295C20.9161 23.1595 20.9286 23.0167 20.911 22.876C20.6863 21.0417 19.896 19.3229 18.65 17.958C19.5088 17.0959 20.2131 16.0927 20.732 14.992C21.6181 14.9332 22.4487 14.5397 23.0555 13.8913C23.6623 13.2429 24 12.3881 24 11.5ZM20.248 12.973C20.0148 12.9303 19.774 12.9724 19.5691 13.0918C19.3642 13.2112 19.2088 13.4 19.131 13.624C18.215 16.222 15.13 19 12 19C8.87005 19 5.78505 16.22 4.86905 13.622C4.79108 13.3981 4.63567 13.2095 4.43084 13.0901C4.22602 12.9707 3.98527 12.9285 3.75205 12.971C3.66894 12.9873 3.58468 12.997 3.50005 13C3.12883 12.9956 2.77245 12.8537 2.49983 12.6017C2.22721 12.3497 2.05771 12.0056 2.02412 11.6359C1.99053 11.2661 2.09524 10.8971 2.31799 10.6001C2.54074 10.3031 2.86571 10.0993 3.23005 10.028C3.44266 9.98949 3.63707 9.88312 3.78417 9.72484C3.93127 9.56656 4.02315 9.36489 4.04605 9.15003C4.19136 7.76201 4.69877 6.43653 5.51749 5.3063C6.3362 4.17607 7.43748 3.28076 8.71105 2.71003C8.50041 3.24586 8.42388 3.82504 8.4881 4.39719C8.55233 4.96934 8.75538 5.51713 9.07957 5.99292C9.40377 6.46871 9.8393 6.85809 10.3483 7.12719C10.8573 7.39628 11.4243 7.53695 12 7.53695C12.5758 7.53695 13.1428 7.39628 13.6518 7.12719C14.1608 6.85809 14.5963 6.46871 14.9205 5.99292C15.2447 5.51713 15.4478 4.96934 15.512 4.39719C15.5762 3.82504 15.4997 3.24586 15.289 2.71003C16.5626 3.28076 17.6639 4.17607 18.4826 5.3063C19.3013 6.43653 19.8087 7.76201 19.954 9.15003C19.9769 9.36489 20.0688 9.56656 20.2159 9.72484C20.363 9.88312 20.5574 9.98949 20.77 10.028C21.1344 10.0993 21.4593 10.3031 21.6821 10.6001C21.9049 10.8971 22.0096 11.2661 21.976 11.6359C21.9424 12.0056 21.7729 12.3497 21.5003 12.6017C21.2276 12.8537 20.8713 12.9956 20.5 13C20.4155 12.9977 20.3312 12.9887 20.248 12.973V12.973Z" fill="#374957"/>
<path d="M9.5 13.0001C10.3284 13.0001 11 12.3285 11 11.5001C11 10.6716 10.3284 10.0001 9.5 10.0001C8.67157 10.0001 8 10.6716 8 11.5001C8 12.3285 8.67157 13.0001 9.5 13.0001Z" fill="#374957"/>
<path d="M14.5 13.0001C15.3284 13.0001 16 12.3285 16 11.5001C16 10.6716 15.3284 10.0001 14.5 10.0001C13.6716 10.0001 13 10.6716 13 11.5001C13 12.3285 13.6716 13.0001 14.5 13.0001Z" fill="#374957"/>
</g>
<defs>
<clipPath id="clip0_51_81942">
<rect width="24" height="24" fill="white"/>
</clipPath>
</defs>
</svg>
