<svg width="24" height="24" viewBox="0 0 24 24" fill="none" xmlns="http://www.w3.org/2000/svg">
<g clip-path="url(#clip0_51_81318)">
<path d="M19.9998 13.0001V11.0001H23.9488C23.7094 8.17649 22.479 5.52851 20.4752 3.52472C18.4714 1.52093 15.8234 0.290505 12.9998 0.0511475V4.00015H10.9998V0.0511475C8.17612 0.290505 5.52814 1.52093 3.52435 3.52472C1.52056 5.52851 0.290139 8.17649 0.0507812 11.0001H3.99978V13.0001H0.0507812C0.290139 15.8238 1.52056 18.4718 3.52435 20.4756C5.52814 22.4794 8.17612 23.7098 10.9998 23.9491V20.0001H12.9998V23.9491C15.8234 23.7098 18.4714 22.4794 20.4752 20.4756C22.479 18.4718 23.7094 15.8238 23.9488 13.0001H19.9998ZM14.9998 13.0001H12.9998V15.0001H10.9998V13.0001H8.99978V11.0001H10.9998V9.00015H12.9998V11.0001H14.9998V13.0001Z" fill="#374957"/>
</g>
<defs>
<clipPath id="clip0_51_81318">
<rect width="24" height="24" fill="white"/>
</clipPath>
</defs>
</svg>
