<svg width="24" height="24" viewBox="0 0 24 24" fill="none" xmlns="http://www.w3.org/2000/svg">
<g clip-path="url(#clip0_51_80050)">
<path d="M20 0H4C3.20435 0 2.44129 0.31607 1.87868 0.87868C1.31607 1.44129 1 2.20435 1 3V24H23V3C23 2.20435 22.6839 1.44129 22.1213 0.87868C21.5587 0.31607 20.7956 0 20 0V0ZM7 19H5V17H7V19ZM7 15H5V13H7V15ZM11 19H9V17H11V19ZM11 15H9V13H11V15ZM19 19H13V17H19V19ZM13 15V13H15V15H13ZM19 15H17V13H19V15ZM19 10H5V4H19V10ZM17 8H7V6H17V8Z" fill="#374957"/>
</g>
<defs>
<clipPath id="clip0_51_80050">
<rect width="24" height="24" fill="white"/>
</clipPath>
</defs>
</svg>
