<svg width="24" height="24" viewBox="0 0 24 24" fill="none" xmlns="http://www.w3.org/2000/svg">
<g clip-path="url(#clip0_51_70376)">
<path d="M24 2.99994H13V7.73594L10.329 3.10794C10.1535 2.80393 9.90098 2.55148 9.59696 2.37596C9.29293 2.20044 8.94806 2.10803 8.597 2.10803C8.24594 2.10803 7.90107 2.20044 7.59704 2.37596C7.29302 2.55148 7.04054 2.80393 6.865 3.10794L0 14.9999H7.294C6.96719 16.0886 6.91041 17.2405 7.12858 18.3561C7.34676 19.4716 7.83331 20.5173 8.5462 21.4026C9.25909 22.288 10.1769 22.9864 11.2202 23.4376C12.2635 23.8887 13.401 24.079 14.5344 23.992C15.6677 23.9049 16.7628 23.5432 17.7251 22.9381C18.6873 22.3329 19.4877 21.5026 20.057 20.5188C20.6264 19.5349 20.9476 18.4273 20.9929 17.2915C21.0382 16.1557 20.8062 15.026 20.317 13.9999H24V2.99994ZM3.464 12.9999L8.6 4.10894L12.148 10.2559C10.5713 10.6885 9.19578 11.6593 8.26 12.9999H3.464ZM14 21.9999C13.0111 21.9999 12.0444 21.7067 11.2221 21.1573C10.3999 20.6079 9.75904 19.827 9.3806 18.9133C9.00216 17.9997 8.90315 16.9944 9.09607 16.0245C9.289 15.0546 9.7652 14.1637 10.4645 13.4644C11.1637 12.7651 12.0546 12.2889 13.0245 12.096C13.9945 11.9031 14.9998 12.0021 15.9134 12.3805C16.827 12.759 17.6079 13.3998 18.1573 14.2221C18.7068 15.0443 19 16.011 19 16.9999C18.9984 18.3255 18.4711 19.5964 17.5338 20.5337C16.5964 21.471 15.3256 21.9983 14 21.9999V21.9999ZM22 11.9999H18.894C17.8336 10.9616 16.4693 10.289 15 10.0799V4.99994H22V11.9999Z" fill="#374957"/>
</g>
<defs>
<clipPath id="clip0_51_70376">
<rect width="24" height="24" fill="white"/>
</clipPath>
</defs>
</svg>
