<svg width="24" height="24" viewBox="0 0 24 24" fill="none" xmlns="http://www.w3.org/2000/svg">
<path d="M20.0001 9.07985C20.0001 9.05285 20.0001 9.02685 20.0001 8.99985C20.0001 6.87812 19.1572 4.84328 17.6569 3.34299C16.1567 1.8427 14.1218 0.999847 12.0001 0.999847C9.87836 0.999847 7.84353 1.8427 6.34323 3.34299C4.84294 4.84328 4.00009 6.87812 4.00009 8.99985C4.00009 9.02685 4.00009 9.05285 4.00009 9.07985C3.09147 9.60513 2.29522 10.3042 1.65678 11.1373C1.01835 11.9703 0.550243 12.9209 0.279189 13.9348C0.0081349 14.9487 -0.0605582 16.0061 0.0770318 17.0466C0.214622 18.087 0.5558 19.0902 1.08109 19.9988C1.60638 20.9075 2.30548 21.7037 3.1385 22.3422C3.97151 22.9806 4.92212 23.4487 5.93604 23.7197C6.94997 23.9908 8.00735 24.0595 9.04782 23.9219C10.0883 23.7843 11.0915 23.4431 12.0001 22.9178C12.9087 23.4431 13.9119 23.7843 14.9524 23.9219C15.9928 24.0595 17.0502 23.9908 18.0641 23.7197C19.0781 23.4487 20.0287 22.9806 20.8617 22.3422C21.6947 21.7037 22.3938 20.9075 22.9191 19.9988C23.4444 19.0902 23.7856 18.087 23.9231 17.0466C24.0607 16.0061 23.992 14.9487 23.721 13.9348C23.4499 12.9209 22.9818 11.9703 22.3434 11.1373C21.705 10.3042 20.9087 9.60513 20.0001 9.07985V9.07985ZM12.0001 20.4598C10.9252 19.4981 10.2335 18.1807 10.0521 16.7498C11.3306 17.0839 12.6735 17.0839 13.9521 16.7498C13.7696 18.1813 13.0765 19.4987 12.0001 20.4598V20.4598ZM12.0001 14.9998C11.3698 14.9985 10.7437 14.8973 10.1451 14.6998C10.4188 13.4789 11.0674 12.374 12.0001 11.5398C12.9328 12.374 13.5814 13.4789 13.8551 14.6998C13.2565 14.8973 12.6304 14.9985 12.0001 14.9998V14.9998ZM8.33109 13.7368C7.22393 12.8811 6.45068 11.6654 6.14509 10.2998C7.48963 9.85836 8.9475 9.91048 10.2571 10.4468C9.35957 11.3725 8.69884 12.5011 8.33109 13.7368V13.7368ZM13.7431 10.4438C15.0527 9.90748 16.5105 9.85536 17.8551 10.2968C17.5501 11.6635 16.7768 12.8804 15.6691 13.7368C15.3018 12.5 14.641 11.3703 13.7431 10.4438V10.4438ZM12.0001 2.99985C13.4603 3.00212 14.8697 3.53641 15.9645 4.50273C17.0593 5.46905 17.7645 6.80118 17.9481 8.24985C15.9334 7.72934 13.7946 8.02852 12.0001 9.08185C10.2056 8.02852 8.06675 7.72934 6.05209 8.24985C6.23568 6.80118 6.94085 5.46905 8.03565 4.50273C9.13044 3.53641 10.5398 3.00212 12.0001 2.99985V2.99985ZM2.00009 15.9998C2.00071 15.0846 2.21116 14.1817 2.61525 13.3605C3.01934 12.5393 3.60632 11.8217 4.33109 11.2628C4.91519 13.2264 6.22776 14.8924 8.00009 15.9198C8.00009 15.9468 8.00009 15.9728 8.00009 15.9998C8.00019 18.0751 8.80994 20.0684 10.2571 21.5558C9.3465 21.9274 8.35847 22.0691 7.38017 21.9685C6.40186 21.8679 5.46334 21.5281 4.6474 20.9791C3.83145 20.4301 3.16317 19.6887 2.70149 18.8203C2.23981 17.9519 1.99892 16.9833 2.00009 15.9998V15.9998ZM16.0001 21.9998C15.2261 21.9995 14.4596 21.8487 13.7431 21.5558C15.1902 20.0684 16 18.0751 16.0001 15.9998C16.0001 15.9728 16.0001 15.9468 16.0001 15.9198C17.7739 14.8932 19.088 13.2271 19.6731 11.2628C20.6639 12.0277 21.3904 13.0835 21.7506 14.2822C22.1107 15.4809 22.0866 16.7624 21.6815 17.9466C21.2763 19.1309 20.5106 20.1586 19.4916 20.8856C18.4727 21.6125 17.2517 22.0021 16.0001 21.9998V21.9998Z" fill="#374957"/>
</svg>
