<svg width="24" height="24" viewBox="0 0 24 24" fill="none" xmlns="http://www.w3.org/2000/svg">
<g clip-path="url(#clip0_51_81399)">
<path d="M1.35888 6.36015C1.73394 5.65605 2.17777 4.99081 2.68388 4.37415L4.19988 5.68115C3.79746 6.17424 3.44255 6.70426 3.13988 7.26415L1.35888 6.36015ZM0.458883 8.55215C0.2293 9.31764 0.0772028 10.1043 0.00488281 10.9001L1.99488 11.1001C2.05455 10.4414 2.1795 9.7902 2.36788 9.15615L0.458883 8.55215ZM6.34388 1.39315C5.65565 1.75842 5.00458 2.18979 4.39988 2.68115L5.64088 4.24415C6.15245 3.82855 6.70379 3.46445 7.28688 3.15715L6.34388 1.39315ZM10.8629 0.0551475C10.0781 0.126428 9.30224 0.275493 8.54688 0.500147L9.11388 2.41715C9.74347 2.231 10.39 2.10773 11.0439 2.04915L10.8629 0.0551475ZM1.35888 17.6401C1.73394 18.3442 2.17777 19.0095 2.68388 19.6261L4.19988 18.3191C3.79746 17.8261 3.44255 17.296 3.13988 16.7361L1.35888 17.6401ZM2.36788 14.8541C2.18119 14.2199 2.05792 13.5687 1.99988 12.9101L0.00988281 13.1101C0.0822075 13.9043 0.233966 14.6892 0.462883 15.4531L2.36788 14.8541ZM7.28688 20.8431C6.70379 20.5358 6.15245 20.1717 5.64088 19.7561L4.39988 21.3191C5.00585 21.8107 5.65826 22.2421 6.34788 22.6071L7.28688 20.8431ZM11.0439 21.9541C10.39 21.8956 9.74347 21.7723 9.11388 21.5861L8.54688 23.5001C9.30235 23.7238 10.0782 23.8718 10.8629 23.9421L11.0439 21.9541ZM20.7589 16.7891C20.4572 17.3494 20.1026 17.8795 19.6999 18.3721L21.2169 19.6791C21.7234 19.0628 22.1673 18.3975 22.5419 17.6931L20.7589 16.7891ZM23.4429 15.5001C23.6718 14.7362 23.8236 13.9513 23.8959 13.1571L21.9059 12.9571C21.8463 13.6162 21.7214 14.2678 21.5329 14.9021L23.4429 15.5001ZM17.5569 22.6601C18.2465 22.2951 18.8989 21.8637 19.5049 21.3721L18.2599 19.8101C17.7482 20.2265 17.1969 20.5915 16.6139 20.9001L17.5569 22.6601ZM13.0379 24.0001C13.8225 23.9294 14.5983 23.7813 15.3539 23.5581L14.7869 21.6401C14.1573 21.8266 13.5108 21.9502 12.8569 22.0091L13.0379 24.0001ZM19.8799 11.0001C20.083 12.6126 19.7902 14.2488 19.0405 15.6907C18.2907 17.1327 17.1196 18.3121 15.6829 19.0719C14.2462 19.8318 12.6122 20.1361 10.9983 19.9442C9.38446 19.7524 7.86729 19.0735 6.64878 17.9981C5.43027 16.9226 4.56823 15.5015 4.17739 13.924C3.78656 12.3464 3.88547 10.6873 4.46097 9.16733C5.03647 7.6474 6.06126 6.3388 7.39891 5.41572C8.73657 4.49264 10.3236 3.99888 11.9489 4.00015C12.2803 4.00205 12.6113 4.02476 12.9399 4.06815H12.9489V0.0511475C15.7727 0.290638 18.4208 1.52105 20.4249 3.52477C22.429 5.52848 23.6599 8.17639 23.8999 11.0001H19.8799ZM16.9489 11.0001H13.6719C13.4976 10.7006 13.2485 10.4514 12.9489 10.2771V6.00015H10.9489V10.2771C10.6837 10.4299 10.4571 10.6416 10.2869 10.8959C10.1166 11.1502 10.0072 11.4403 9.96708 11.7437C9.92695 12.0472 9.95721 12.3557 10.0555 12.6456C10.1538 12.9354 10.3175 13.1987 10.5339 13.4151C10.7503 13.6315 11.0136 13.7952 11.3035 13.8935C11.5933 13.9918 11.9019 14.0221 12.2053 13.982C12.5087 13.9418 12.7988 13.8324 13.0531 13.6621C13.3074 13.4919 13.5192 13.2654 13.6719 13.0001H16.9489V11.0001Z" fill="#374957"/>
</g>
<defs>
<clipPath id="clip0_51_81399">
<rect width="24" height="24" fill="white"/>
</clipPath>
</defs>
</svg>
