<svg width="24" height="24" viewBox="0 0 24 24" fill="none" xmlns="http://www.w3.org/2000/svg">
<g clip-path="url(#clip0_51_80953)">
<path d="M23.9572 1.45733L1.4572 23.9573L0.0431951 22.5433L4.82519 17.7613C1.79119 14.5003 0.000195101 10.7413 0.000195101 7.50033C-0.00614821 6.72031 0.142247 5.94678 0.436795 5.22448C0.731342 4.50219 1.1662 3.84547 1.7162 3.29233L4.8872 0.122335L11.1522 6.38733L7.02819 10.5113C7.52647 11.6334 8.17582 12.6821 8.9582 13.6283L22.5432 0.043335L23.9572 1.45733ZM13.4802 16.9803C12.9776 16.7581 12.4896 16.5043 12.0192 16.2203L7.7832 20.4563C10.7002 22.6943 13.8352 24.0003 16.5002 24.0003C17.2801 24.0071 18.0537 23.8589 18.7758 23.5644C19.498 23.2698 20.1545 22.8347 20.7072 22.2843L23.8782 19.1133L17.6132 12.8483L13.4802 16.9803Z" fill="#374957"/>
</g>
<defs>
<clipPath id="clip0_51_80953">
<rect width="24" height="24" fill="white"/>
</clipPath>
</defs>
</svg>
