<svg width="24" height="24" viewBox="0 0 24 24" fill="none" xmlns="http://www.w3.org/2000/svg">
<g clip-path="url(#clip0_51_81180)">
<path d="M7 24.0006C8.10456 24.0006 8.99999 23.1052 8.99999 22.0006C8.99999 20.896 8.10456 20.0006 7 20.0006C5.89543 20.0006 5 20.896 5 22.0006C5 23.1052 5.89543 24.0006 7 24.0006Z" fill="#374957"/>
<path d="M17 24.0006C18.1046 24.0006 19 23.1052 19 22.0006C19 20.896 18.1046 20.0006 17 20.0006C15.8954 20.0006 15 20.896 15 22.0006C15 23.1052 15.8954 24.0006 17 24.0006Z" fill="#374957"/>
<path d="M22.813 9.583C21.9022 10.8202 20.5516 11.6609 19.0394 11.9319C17.5272 12.2029 15.9687 11.8835 14.6849 11.0395C13.4012 10.1955 12.4902 8.89131 12.1395 7.39559C11.7888 5.89986 12.0252 4.3266 12.8 3H4.242L4.2 2.648C4.11382 1.9186 3.76306 1.24615 3.21419 0.758104C2.66532 0.270054 1.95647 0.000312836 1.222 0L0 0V2H1.222C1.46693 2.00003 1.70334 2.08996 1.88637 2.25272C2.06941 2.41547 2.18634 2.63975 2.215 2.883L3.8 16.351C3.88595 17.0806 4.23662 17.7533 4.78551 18.2415C5.3344 18.7298 6.04337 18.9997 6.778 19H20V17H6.778C6.53291 16.9999 6.29638 16.9099 6.11333 16.7469C5.93027 16.5839 5.81343 16.3594 5.785 16.116L5.654 15H21.836L22.813 9.583Z" fill="#374957"/>
<path d="M17.1108 9.54156H17.0778C16.8246 9.53768 16.575 9.48251 16.3438 9.37938C16.1126 9.27626 15.9047 9.12731 15.7328 8.94156L13.4268 6.54156L14.8678 5.15956L17.1118 7.49956L21.2998 3.29956L22.7138 4.71356L18.4458 8.98856C18.2709 9.16455 18.0629 9.30405 17.8337 9.39899C17.6046 9.49392 17.3588 9.54238 17.1108 9.54156V9.54156Z" fill="#374957"/>
</g>
<defs>
<clipPath id="clip0_51_81180">
<rect width="24" height="24" fill="white"/>
</clipPath>
</defs>
</svg>
