<svg width="24" height="24" viewBox="0 0 24 24" fill="none" xmlns="http://www.w3.org/2000/svg">
<g clip-path="url(#clip0_51_70558)">
<path d="M3.99988 0V21C3.99988 21.7956 4.31595 22.5587 4.87856 23.1213C5.44117 23.6839 6.20423 24 6.99988 24H16.9999C17.7955 24 18.5586 23.6839 19.1212 23.1213C19.6838 22.5587 19.9999 21.7956 19.9999 21V0H3.99988ZM17.9999 2V16H5.99988V2H17.9999ZM16.9999 22H6.99988C6.73466 22 6.48031 21.8946 6.29277 21.7071C6.10523 21.5196 5.99988 21.2652 5.99988 21V18H17.9999V21C17.9999 21.2652 17.8945 21.5196 17.707 21.7071C17.5194 21.8946 17.2651 22 16.9999 22Z" fill="#374957"/>
<path d="M12.9998 18.9994H10.9998V20.9994H12.9998V18.9994Z" fill="#374957"/>
</g>
<defs>
<clipPath id="clip0_51_70558">
<rect width="24" height="24" fill="white"/>
</clipPath>
</defs>
</svg>
