<svg width="24" height="24" viewBox="0 0 24 24" fill="none" xmlns="http://www.w3.org/2000/svg">
<g clip-path="url(#clip0_51_69615)">
<path d="M22.767 8.39203L15.535 1.46403C14.6 0.529255 13.3327 0.00288345 12.0106 7.23524e-05C10.6884 -0.00273874 9.419 0.51824 8.48 1.44903L1.233 8.39203C0.844071 8.76594 0.534448 9.21437 0.322607 9.71055C0.110766 10.2067 0.00104801 10.7405 0 11.28L0 24H24V11.28C23.999 10.7405 23.8892 10.2067 23.6774 9.71055C23.4656 9.21437 23.1559 8.76594 22.767 8.39203V8.39203ZM9.879 2.87803C10.4522 2.32797 11.2168 2.02215 12.0112 2.02514C12.8057 2.02812 13.5679 2.33967 14.137 2.89403L20.885 9.35803L14.121 16.122C13.5493 16.667 12.7898 16.971 12 16.971C11.2102 16.971 10.4507 16.667 9.879 16.122L3.115 9.35803L9.879 2.87803ZM22 22H2V11.28C2 11.216 2.013 11.154 2.019 11.09L8.465 17.536C9.40264 18.4734 10.6742 19 12 19C13.3258 19 14.5974 18.4734 15.535 17.536L21.981 11.09C21.987 11.154 22 11.216 22 11.28V22Z" fill="#374957"/>
</g>
<defs>
<clipPath id="clip0_51_69615">
<rect width="24" height="24" fill="white"/>
</clipPath>
</defs>
</svg>
