<svg width="24" height="24" viewBox="0 0 24 24" fill="none" xmlns="http://www.w3.org/2000/svg">
<g clip-path="url(#clip0_51_72489)">
<path d="M23.4141 0.586302C23.1632 0.339185 22.8522 0.161862 22.5117 0.0718851C22.1713 -0.0180919 21.8132 -0.0176035 21.4731 0.0733021C19.0321 0.877018 16.8132 2.24109 14.9941 4.0563L5.51805 13.5313C4.14983 12.794 2.67252 12.2802 1.14205 12.0093C0.882431 11.9773 0.62062 12.0484 0.412756 12.2072C0.204892 12.366 0.067525 12.5999 0.0301107 12.8588C-0.00730357 13.1177 0.0582135 13.3809 0.212613 13.5921C0.367013 13.8032 0.598002 13.9455 0.856051 13.9883C2.80285 14.3533 4.63654 15.171 6.20905 16.3753L2.50005 20.0853L1.70705 19.2923C1.6148 19.1968 1.50446 19.1206 1.38246 19.0682C1.26045 19.0158 1.12923 18.9882 0.996452 18.9871C0.863673 18.9859 0.731993 19.0112 0.609097 19.0615C0.4862 19.1118 0.374548 19.186 0.280656 19.2799C0.186763 19.3738 0.11251 19.4855 0.062229 19.6084C0.0119481 19.7312 -0.0133536 19.8629 -0.0121998 19.9957C-0.011046 20.1285 0.0165403 20.2597 0.0689493 20.3817C0.121358 20.5037 0.197541 20.6141 0.293051 20.7063L3.29305 23.7063C3.3853 23.8018 3.49564 23.878 3.61765 23.9304C3.73965 23.9828 3.87087 24.0104 4.00365 24.0116C4.13643 24.0127 4.26811 23.9874 4.39101 23.9371C4.5139 23.8868 4.62555 23.8126 4.71945 23.7187C4.81334 23.6248 4.88759 23.5132 4.93787 23.3903C4.98815 23.2674 5.01346 23.1357 5.0123 23.0029C5.01115 22.8701 4.98356 22.7389 4.93115 22.6169C4.87874 22.4949 4.80256 22.3846 4.70705 22.2923L3.91405 21.4993L7.62305 17.7893C8.82828 19.3617 9.64605 21.1959 10.0101 23.1433C10.0447 23.3811 10.1638 23.5986 10.3456 23.7557C10.5274 23.9129 10.7597 23.9994 11.0001 23.9993C11.0483 23.9996 11.0964 23.9959 11.1441 23.9883C11.4061 23.9504 11.6423 23.8102 11.8011 23.5984C11.9599 23.3865 12.0282 23.1204 11.9911 22.8583C11.7213 21.3276 11.2074 19.8501 10.4691 18.4823L19.9441 9.0063C21.7799 7.16145 23.1539 4.90892 23.9541 2.4323C24.027 2.10403 24.0158 1.76264 23.9213 1.43989C23.8269 1.11714 23.6524 0.823504 23.4141 0.586302V0.586302ZM18.5291 7.5913L9.36205 16.7593C9.05862 16.3595 8.72853 15.9806 8.37405 15.6253C8.01861 15.2713 7.64012 14.9413 7.24105 14.6373L16.4081 5.4703C17.9772 3.90024 19.8884 2.71464 21.9921 2.0063C21.2819 4.10918 20.0969 6.02024 18.5291 7.5913V7.5913Z" fill="#374957"/>
</g>
<defs>
<clipPath id="clip0_51_72489">
<rect width="24" height="24" fill="white"/>
</clipPath>
</defs>
</svg>
