<svg width="24" height="24" viewBox="0 0 24 24" fill="none" xmlns="http://www.w3.org/2000/svg">
<g clip-path="url(#clip0_51_69425)">
<path d="M6 5C6 5.26522 5.89464 5.51957 5.70711 5.70711C5.51957 5.89464 5.26522 6 5 6H0V8H5C5.79565 8 6.55871 7.68393 7.12132 7.12132C7.68393 6.55871 8 5.79565 8 5V0H6V5Z" fill="#374957"/>
<path d="M15.9999 18.9998V23.9998H17.9999V18.9998C17.9999 18.7346 18.1052 18.4803 18.2928 18.2927C18.4803 18.1052 18.7347 17.9998 18.9999 17.9998H23.9999V15.9998H18.9999C18.2042 15.9998 17.4412 16.3159 16.8786 16.8785C16.3159 17.4411 15.9999 18.2042 15.9999 18.9998V18.9998Z" fill="#374957"/>
<path d="M18.9999 6C18.7347 6 18.4803 5.89464 18.2928 5.70711C18.1052 5.51957 17.9999 5.26522 17.9999 5V0H15.9999V5C15.9999 5.79565 16.3159 6.55871 16.8786 7.12132C17.4412 7.68393 18.2042 8 18.9999 8H23.9999V6H18.9999Z" fill="#374957"/>
<path d="M5 15.9998H0V17.9998H5C5.26522 17.9998 5.51957 18.1052 5.70711 18.2927C5.89464 18.4803 6 18.7346 6 18.9998V23.9998H8V18.9998C8 18.2042 7.68393 17.4411 7.12132 16.8785C6.55871 16.3159 5.79565 15.9998 5 15.9998V15.9998Z" fill="#374957"/>
</g>
<defs>
<clipPath id="clip0_51_69425">
<rect width="24" height="24" fill="white"/>
</clipPath>
</defs>
</svg>
