<svg width="24" height="24" viewBox="0 0 24 24" fill="none" xmlns="http://www.w3.org/2000/svg">
<g clip-path="url(#clip0_51_81287)">
<path d="M10.1567 23.8429C7.96774 23.5039 5.91541 22.5652 4.22734 21.1309C2.53927 19.6967 1.28143 17.8229 0.593312 15.7174C-0.0948056 13.6119 -0.186312 11.357 0.328941 9.20266C0.844194 7.04833 1.94607 5.0788 3.51238 3.5125C5.07868 1.94619 7.04821 0.844316 9.20254 0.329063C11.3569 -0.18619 13.6118 -0.0946835 15.7173 0.593434C17.8228 1.28155 19.6966 2.53939 21.1308 4.22746C22.5651 5.91553 23.5037 7.96786 23.8427 10.1569C21.9763 9.85059 20.0638 9.99307 18.2634 10.5725C16.463 11.152 14.8264 12.1518 13.489 13.4891C12.1516 14.8265 11.1519 16.4631 10.5724 18.2635C9.99295 20.064 9.85046 21.9765 10.1567 23.8429V23.8429ZM23.9997 12.1999C22.3798 11.8687 20.703 11.9445 19.1195 12.4203C17.5361 12.8961 16.0952 13.7571 14.9261 14.9262C13.7569 16.0954 12.8959 17.5362 12.4201 19.1197C11.9444 20.7032 11.8686 22.3799 12.1997 23.9999L23.9997 12.1999Z" fill="#374957"/>
</g>
<defs>
<clipPath id="clip0_51_81287">
<rect width="24" height="24" fill="white"/>
</clipPath>
</defs>
</svg>
