<svg width="24" height="24" viewBox="0 0 24 24" fill="none" xmlns="http://www.w3.org/2000/svg">
<g clip-path="url(#clip0_51_69046)">
<path d="M0 3V11H11V0H3C2.20435 0 1.44129 0.31607 0.87868 0.87868C0.31607 1.44129 0 2.20435 0 3H0ZM9 9H2V3C2 2.73478 2.10536 2.48043 2.29289 2.29289C2.48043 2.10536 2.73478 2 3 2H9V9Z" fill="#374957"/>
<path d="M0 21.0001C0 21.7957 0.31607 22.5588 0.87868 23.1214C1.44129 23.684 2.20435 24.0001 3 24.0001H11V13.0001H0V21.0001ZM2 15.0001H9V22.0001H3C2.73478 22.0001 2.48043 21.8947 2.29289 21.7072C2.10536 21.5196 2 21.2653 2 21.0001V15.0001Z" fill="#374957"/>
<path d="M19.9998 21.4171V2.58605L22.5839 5.16605L23.9999 3.75105L21.1209 0.876052C20.5584 0.314556 19.7961 -0.000808716 19.0013 -0.000808716C18.2066 -0.000808716 17.4443 0.314556 16.8818 0.876052L14.0068 3.74605L15.4198 5.16105L17.9998 2.58205V21.4161L15.4148 18.8341L14.0018 20.2491L16.8808 23.1241C17.4433 23.6856 18.2056 24.0009 19.0003 24.0009C19.7951 24.0009 20.5574 23.6856 21.1199 23.1241L23.9999 20.2541L22.5869 18.8391L19.9998 21.4171Z" fill="#374957"/>
</g>
<defs>
<clipPath id="clip0_51_69046">
<rect width="24" height="24" fill="white"/>
</clipPath>
</defs>
</svg>
