<svg width="24" height="24" viewBox="0 0 24 24" fill="none" xmlns="http://www.w3.org/2000/svg">
<g clip-path="url(#clip0_51_72518)">
<path d="M11.1072 14.4472C11.1652 14.5657 11.2462 14.6715 11.3454 14.7586C11.4445 14.8457 11.56 14.9123 11.685 14.9545C11.81 14.9968 11.9422 15.0139 12.0739 15.0048C12.2055 14.9957 12.3341 14.9607 12.4522 14.9017C12.5702 14.8427 12.6754 14.7609 12.7617 14.661C12.848 14.5612 12.9137 14.4452 12.955 14.3199C12.9963 14.1945 13.0123 14.0622 13.0022 13.9307C12.9921 13.7991 12.9561 13.6708 12.8962 13.5532L7.39615 2.55318C7.31311 2.38703 7.18545 2.2473 7.02745 2.14964C6.86946 2.05197 6.68739 2.00024 6.50165 2.00024C6.31591 2.00024 6.13384 2.05197 5.97585 2.14964C5.81786 2.2473 5.69019 2.38703 5.60715 2.55318L0.107153 13.5532C0.0472389 13.6708 0.0111949 13.7991 0.00109911 13.9307C-0.00899664 14.0622 0.00705565 14.1945 0.0483304 14.3199C0.0896052 14.4452 0.155286 14.5612 0.241586 14.661C0.327886 14.7609 0.433098 14.8427 0.551155 14.9017C0.669213 14.9607 0.797781 14.9957 0.929447 15.0048C1.06111 15.0139 1.19327 14.9968 1.3183 14.9545C1.44334 14.9123 1.55877 14.8457 1.65794 14.7586C1.75712 14.6715 1.83808 14.5657 1.89615 14.4472L3.61915 11.0002H9.38315L11.1072 14.4472ZM4.61915 9.00018L6.50015 5.23618L8.38315 9.00018H4.61915Z" fill="#374957"/>
<path d="M23.7069 11.2924C23.5194 11.1049 23.2651 10.9996 22.9999 10.9996C22.7347 10.9996 22.4804 11.1049 22.2929 11.2924L12.9999 20.5854L8.7069 16.2924C8.61465 16.1969 8.50431 16.1207 8.3823 16.0683C8.2603 16.0159 8.12908 15.9883 7.9963 15.9872C7.86352 15.986 7.73184 16.0113 7.60894 16.0616C7.48605 16.1119 7.3744 16.1861 7.2805 16.28C7.18661 16.3739 7.11236 16.4856 7.06208 16.6085C7.0118 16.7314 6.98649 16.863 6.98765 16.9958C6.9888 17.1286 7.01639 17.2598 7.0688 17.3818C7.12121 17.5038 7.19739 17.6142 7.2929 17.7064L12.2929 22.7064C12.4804 22.8939 12.7347 22.9992 12.9999 22.9992C13.2651 22.9992 13.5194 22.8939 13.7069 22.7064L23.7069 12.7064C23.8944 12.5189 23.9997 12.2646 23.9997 11.9994C23.9997 11.7343 23.8944 11.4799 23.7069 11.2924Z" fill="#374957"/>
</g>
<defs>
<clipPath id="clip0_51_72518">
<rect width="24" height="24" fill="white"/>
</clipPath>
</defs>
</svg>
