<svg width="24" height="24" viewBox="0 0 24 24" fill="none" xmlns="http://www.w3.org/2000/svg">
<g clip-path="url(#clip0_51_83098)">
<path d="M21.7702 8.94838C21.607 8.89004 21.4579 8.79809 21.3325 8.67848C21.2071 8.55887 21.1082 8.41426 21.0422 8.25401C20.9762 8.09377 20.9446 7.92146 20.9495 7.74823C20.9543 7.575 20.9954 7.40471 21.0702 7.24838C21.3572 6.64444 21.4502 5.96647 21.3366 5.30754C21.2229 4.64861 20.9081 4.04101 20.4353 3.56814C19.9625 3.09527 19.355 2.7803 18.6961 2.66647C18.0372 2.55264 17.3592 2.64553 16.7552 2.93238C16.5988 3.00701 16.4286 3.04801 16.2554 3.05275C16.0822 3.05749 15.91 3.02586 15.7498 2.95989C15.5895 2.89393 15.445 2.7951 15.3253 2.66979C15.2057 2.54447 15.1137 2.39546 15.0552 2.23238C14.8304 1.60346 14.4166 1.05941 13.8707 0.674751C13.3247 0.290088 12.6731 0.0836182 12.0052 0.0836182C11.3373 0.0836182 10.6857 0.290088 10.1397 0.674751C9.59374 1.05941 9.18001 1.60346 8.9552 2.23238C8.89685 2.39556 8.8049 2.54468 8.68529 2.67008C8.56568 2.79547 8.42107 2.89437 8.26083 2.96035C8.10059 3.02633 7.92827 3.05794 7.75504 3.05312C7.58181 3.0483 7.41153 3.00717 7.2552 2.93238C6.65087 2.64325 5.97176 2.54862 5.31142 2.66153C4.65107 2.77444 4.04198 3.08933 3.56805 3.56282C3.09412 4.03631 2.77867 4.64511 2.66515 5.30535C2.55163 5.96559 2.64563 6.64479 2.9342 7.24938C3.00914 7.40568 3.0504 7.576 3.0553 7.74927C3.0602 7.92255 3.02862 8.09491 2.96262 8.2552C2.89662 8.41549 2.79767 8.56012 2.67218 8.6797C2.54669 8.79929 2.39747 8.89117 2.2342 8.94938C1.60572 9.17464 1.06218 9.58855 0.677913 10.1345C0.293641 10.6804 0.0874023 11.3318 0.0874023 11.9994C0.0874023 12.667 0.293641 13.3183 0.677913 13.8643C1.06218 14.4102 1.60572 14.8241 2.2342 15.0494C2.39782 15.1072 2.54745 15.1988 2.6734 15.3182C2.79934 15.4376 2.89877 15.5821 2.96525 15.7424C3.03173 15.9027 3.06376 16.0752 3.05927 16.2487C3.05478 16.4221 3.01387 16.5927 2.9392 16.7494C2.65203 17.3529 2.55869 18.0306 2.67198 18.6893C2.78526 19.348 3.09963 19.9556 3.57193 20.4285C4.04423 20.9015 4.65132 21.2167 5.30989 21.3309C5.96846 21.4451 6.64623 21.3527 7.2502 21.0664C7.40652 20.9916 7.57681 20.9505 7.75004 20.9456C7.92327 20.9408 8.09559 20.9724 8.25583 21.0384C8.41607 21.1044 8.56068 21.2033 8.68029 21.3287C8.7999 21.4541 8.89185 21.6032 8.9502 21.7664C9.17501 22.3953 9.58874 22.9393 10.1347 23.324C10.6807 23.7087 11.3323 23.9151 12.0002 23.9151C12.6681 23.9151 13.3197 23.7087 13.8657 23.324C14.4116 22.9393 14.8254 22.3953 15.0502 21.7664C15.1085 21.6032 15.2005 21.4541 15.3201 21.3287C15.4397 21.2033 15.5843 21.1044 15.7446 21.0384C15.9048 20.9724 16.0771 20.9408 16.2503 20.9456C16.4236 20.9505 16.5939 20.9916 16.7502 21.0664C17.3541 21.3534 18.0321 21.4464 18.691 21.3327C19.35 21.2191 19.9576 20.9042 20.4304 20.4315C20.9033 19.9587 21.2183 19.3512 21.3321 18.6923C21.4459 18.0334 21.353 17.3554 21.0662 16.7514C20.9916 16.595 20.9506 16.4248 20.9458 16.2516C20.9411 16.0784 20.9727 15.9061 21.0387 15.7459C21.1046 15.5857 21.2035 15.4411 21.3288 15.3215C21.4541 15.2019 21.6031 15.1099 21.7662 15.0514C22.3951 14.8266 22.9392 14.4128 23.3238 13.8668C23.7085 13.3208 23.915 12.6693 23.915 12.0014C23.915 11.3335 23.7085 10.6819 23.3238 10.1359C22.9392 9.58993 22.3951 9.17619 21.7662 8.95138L21.7702 8.94838Z" fill="#374957"/>
</g>
<defs>
<clipPath id="clip0_51_83098">
<rect width="24" height="24" fill="white"/>
</clipPath>
</defs>
</svg>
