<svg width="24" height="24" viewBox="0 0 24 24" fill="none" xmlns="http://www.w3.org/2000/svg">
<g clip-path="url(#clip0_51_81254)">
<path d="M12.0004 17.9993C7.4394 17.9993 2.6364 16.9993 0.358398 14.8623C0.995786 17.4689 2.48951 19.7863 4.60034 21.4431C6.71117 23.1 9.31697 24.0005 12.0004 24.0005C14.6838 24.0005 17.2896 23.1 19.4005 21.4431C21.5113 19.7863 23.005 17.4689 23.6424 14.8623C21.3644 16.9993 16.5614 17.9993 12.0004 17.9993Z" fill="#374957"/>
<path d="M12.0004 6.00087C16.5614 6.00087 21.3644 7.00087 23.6424 9.13787C23.005 6.53124 21.5113 4.21392 19.4005 2.55705C17.2896 0.900183 14.6838 -0.000366211 12.0004 -0.000366211C9.31697 -0.000366211 6.71117 0.900183 4.60034 2.55705C2.48951 4.21392 0.995786 6.53124 0.358398 9.13787C2.6364 7.00087 7.4394 6.00087 12.0004 6.00087Z" fill="#374957"/>
<path d="M12 16.0006C18.0751 16.0006 23 14.2097 23 12.0006C23 9.79147 18.0751 8.00061 12 8.00061C5.92487 8.00061 1 9.79147 1 12.0006C1 14.2097 5.92487 16.0006 12 16.0006Z" fill="#374957"/>
</g>
<defs>
<clipPath id="clip0_51_81254">
<rect width="24" height="24" fill="white"/>
</clipPath>
</defs>
</svg>
