<svg width="24" height="24" viewBox="0 0 24 24" fill="none" xmlns="http://www.w3.org/2000/svg">
<g clip-path="url(#clip0_51_81351)">
<path d="M6 8.00061H3C2.20435 8.00061 1.44129 8.31668 0.87868 8.87929C0.31607 9.4419 0 10.205 0 11.0006L0 19.0006C0 19.7963 0.31607 20.5593 0.87868 21.1219C1.44129 21.6845 2.20435 22.0006 3 22.0006H6V8.00061Z" fill="#374957"/>
<path d="M14 7.99974L14.555 4.67174C14.6511 4.17578 14.579 3.66193 14.35 3.21161C14.1211 2.7613 13.7484 2.40027 13.291 2.18574C12.7665 1.95674 12.1743 1.93654 11.6354 2.12925C11.0965 2.32196 10.6514 2.71306 10.391 3.22274L8 7.99974V21.9997H22L24 10.9997V7.99974H14Z" fill="#374957"/>
</g>
<defs>
<clipPath id="clip0_51_81351">
<rect width="24" height="24" fill="white"/>
</clipPath>
</defs>
</svg>
