<svg width="24" height="24" viewBox="0 0 24 24" fill="none" xmlns="http://www.w3.org/2000/svg">
<g clip-path="url(#clip0_51_80195)">
<path d="M23.9817 2.99994H0.0177191C0.0119039 2.4015 0.186107 1.81513 0.517719 1.31694C0.792489 0.911488 1.16235 0.579476 1.595 0.349903C2.02765 0.120329 2.50993 0.000177412 2.99972 -5.89329e-05H20.9997C21.4904 -0.000639706 21.9736 0.119122 22.4072 0.348731C22.8408 0.57834 23.2115 0.910788 23.4867 1.31694C23.8166 1.8157 23.989 2.40202 23.9817 2.99994ZM10.9997 11.9619V21.9999H5.99972V23.9999H17.9997V21.9999H12.9997V11.9619C15.1878 11.8089 17.2977 11.0857 19.1196 9.86431C20.9415 8.64292 22.412 6.96588 23.3847 4.99994H0.614719C1.58747 6.96588 3.05791 8.64292 4.87982 9.86431C6.70173 11.0857 8.81163 11.8089 10.9997 11.9619V11.9619Z" fill="#374957"/>
</g>
<defs>
<clipPath id="clip0_51_80195">
<rect width="24" height="24" fill="white"/>
</clipPath>
</defs>
</svg>
