<svg width="24" height="24" viewBox="0 0 24 24" fill="none" xmlns="http://www.w3.org/2000/svg">
<g clip-path="url(#clip0_51_69653)">
<path d="M23.2452 0.757725C22.9609 0.470891 22.613 0.255193 22.2297 0.128172C21.8464 0.00115117 21.4385 -0.0336069 21.0392 0.0267246C15.0999 0.964771 9.5912 3.70185 5.25621 7.86872C4.49702 8.63218 3.90514 9.54538 3.51828 10.5502C3.13142 11.5549 2.95805 12.6293 3.00921 13.7047C3.0802 15.2648 3.62781 16.7656 4.57821 18.0047L0.0432129 22.5427L1.45721 23.9567L5.99121 19.4227C7.30525 20.4469 8.92517 21.0002 10.5912 20.9937C11.6974 20.9888 12.7912 20.76 13.8067 20.3213C14.8222 19.8825 15.7384 19.2428 16.5002 18.4407C20.4664 14.1246 23.0672 8.73168 23.9752 2.94072C24.0335 2.54509 23.9978 2.14128 23.871 1.76202C23.7441 1.38275 23.5298 1.0387 23.2452 0.757725V0.757725ZM5.00721 13.6077C4.96908 12.8104 5.09743 12.0139 5.38409 11.2689C5.67076 10.5239 6.10944 9.84682 6.6722 9.28072C7.1052 8.84672 7.5502 8.44572 8.0002 8.06072V14.5857L6.01021 16.5757C5.40381 15.7002 5.05621 14.6716 5.00721 13.6077V13.6077ZM15.0542 17.0587C14.1019 18.0967 12.8103 18.7605 11.412 18.9306C10.0137 19.1007 8.60061 18.766 7.4272 17.9867L12.4142 12.9997H18.1612C17.2723 14.459 16.2308 15.8197 15.0542 17.0587V17.0587ZM21.9932 2.65872C21.5197 5.56157 20.6037 8.37462 19.2772 10.9997H14.4142L17.9572 7.45672L16.5432 6.04272L10.0002 12.5857V6.51672C13.4052 4.2116 17.2697 2.67254 21.3272 2.00572C21.3564 2.00174 21.3858 1.99973 21.4152 1.99972C21.4927 1.99961 21.5694 2.01484 21.641 2.04453C21.7126 2.07422 21.7775 2.11779 21.8322 2.17272C21.8953 2.23474 21.9429 2.31086 21.9709 2.39483C21.9989 2.4788 22.0065 2.56822 21.9932 2.65572V2.65872Z" fill="#374957"/>
</g>
<defs>
<clipPath id="clip0_51_69653">
<rect width="24" height="24" fill="white"/>
</clipPath>
</defs>
</svg>
