<svg width="24" height="24" viewBox="0 0 24 24" fill="none" xmlns="http://www.w3.org/2000/svg">
<g clip-path="url(#clip0_51_79977)">
<path d="M21.0002 6.99998C20.5792 6.99907 20.1628 7.08678 19.7779 7.25739C19.3931 7.42801 19.0484 7.67771 18.7664 7.99026C18.4844 8.30282 18.2713 8.67123 18.141 9.07154C18.0108 9.47185 17.9662 9.8951 18.0102 10.3138C18.0542 10.7324 18.1859 11.1371 18.3966 11.5016C18.6073 11.866 18.8924 12.1821 19.2333 12.4291C19.5741 12.6761 19.9632 12.8487 20.3751 12.9355C20.787 13.0223 21.2126 13.0214 21.6242 12.933C21.011 15.3549 19.6583 17.5255 17.7542 19.143C15.8502 20.7605 13.4894 21.7444 11.0002 21.958V19.929C12.6643 19.7617 14.2599 19.1798 15.6409 18.2364C17.0219 17.293 18.1443 16.0183 18.9052 14.529C18.0384 14.132 17.3037 13.4945 16.7887 12.6921C16.2736 11.8898 15.9998 10.9564 15.9998 10.003C15.9998 9.04955 16.2736 8.11618 16.7887 7.31384C17.3037 6.5115 18.0384 5.87395 18.9052 5.47698C18.1201 3.92791 16.9452 2.61 15.496 1.65299C14.0468 0.695984 12.3734 0.132876 10.6405 0.0191044C8.90755 -0.0946673 7.17487 0.24482 5.61302 1.00414C4.05116 1.76347 2.71398 2.91645 1.73311 4.34958C0.752238 5.78271 0.1615 7.44658 0.0190517 9.17738C-0.123397 10.9082 0.187355 12.6462 0.920715 14.2205C1.65407 15.7947 2.78476 17.1508 4.20145 18.1552C5.61814 19.1597 7.272 19.7779 9.00021 19.949V24H10.0002C13.712 23.996 17.2707 22.5197 19.8953 19.8951C22.52 17.2704 23.9962 13.7118 24.0002 9.99998C24.0002 9.20433 23.6841 8.44127 23.1215 7.87866C22.5589 7.31605 21.7959 6.99998 21.0002 6.99998ZM10.0002 7.99998C10.3958 7.99998 10.7825 8.11728 11.1113 8.33704C11.4402 8.5568 11.6966 8.86916 11.848 9.23461C11.9993 9.60006 12.039 10.0022 11.9618 10.3902C11.8846 10.7781 11.6941 11.1345 11.4144 11.4142C11.1347 11.6939 10.7784 11.8844 10.3904 11.9616C10.0024 12.0387 9.60029 11.9991 9.23484 11.8477C8.86939 11.6964 8.55703 11.44 8.33727 11.1111C8.11751 10.7822 8.00021 10.3955 8.00021 9.99998C8.00021 9.46955 8.21092 8.96084 8.586 8.58577C8.96107 8.21069 9.46978 7.99998 10.0002 7.99998V7.99998Z" fill="#374957"/>
</g>
<defs>
<clipPath id="clip0_51_79977">
<rect width="24" height="24" fill="white"/>
</clipPath>
</defs>
</svg>
