<svg width="24" height="24" viewBox="0 0 24 24" fill="none" xmlns="http://www.w3.org/2000/svg">
<g clip-path="url(#clip0_51_72137)">
<path d="M21.2611 2.73885C19.5446 1.07938 17.2831 0.100908 14.8983 -0.0140889C12.5136 -0.129086 10.1684 0.627245 8.30015 2.11385C7.89477 1.46335 7.32959 0.927484 6.65845 0.557296C5.9873 0.187107 5.23255 -0.00507007 4.46609 -0.000927354C3.69963 0.00321536 2.947 0.20354 2.2799 0.580962C1.61279 0.958384 1.05344 1.50033 0.655122 2.15517C0.256805 2.81002 0.0327933 3.55594 0.00442894 4.32188C-0.0239355 5.08783 0.144292 5.84828 0.493084 6.53079C0.841877 7.2133 1.35962 7.79513 1.99698 8.22086C2.63434 8.64659 3.37009 8.90203 4.13415 8.96285C3.81908 10.8938 4.11338 12.8749 4.97615 14.6309C5.02311 14.7209 5.04157 14.823 5.02907 14.9238C5.01657 15.0245 4.97369 15.1191 4.90615 15.1949L2.00015 16.9449C1.26066 17.3342 0.672746 17.9598 0.330054 18.722C-0.0126379 19.4842 -0.0903896 20.3392 0.109186 21.1507C0.308761 21.9623 0.774182 22.6837 1.4313 23.2C2.08842 23.7163 2.89944 23.9979 3.73515 23.9999C3.88788 23.9998 4.04047 23.9908 4.19215 23.9729C4.74788 23.9082 5.28175 23.7185 5.7537 23.418C6.22565 23.1175 6.62341 22.714 6.91715 22.2379L8.98515 19.1109C9.05972 19.0379 9.15526 18.9901 9.25837 18.9741C9.36148 18.9581 9.467 18.9748 9.56015 19.0219C11.4269 19.9257 13.5348 20.2049 15.5725 19.8182C17.6101 19.4316 19.4693 18.3996 20.8751 16.8749C22.7889 14.9896 23.9073 12.4426 24.0001 9.75785C24.0518 8.46232 23.8352 7.17008 23.3639 5.96222C22.8926 4.75436 22.1767 3.65695 21.2611 2.73885V2.73885ZM2.00015 4.49985C2.00015 4.0054 2.14677 3.52205 2.42147 3.11093C2.69617 2.6998 3.08662 2.37937 3.54344 2.19015C4.00025 2.00093 4.50292 1.95143 4.98787 2.04789C5.47282 2.14435 5.91828 2.38245 6.26791 2.73209C6.61754 3.08172 6.85565 3.52717 6.95211 4.01213C7.04857 4.49708 6.99906 4.99975 6.80984 5.45656C6.62063 5.91338 6.30019 6.30382 5.88907 6.57853C5.47795 6.85323 4.9946 6.99985 4.50015 6.99985C3.8371 6.99985 3.20122 6.73646 2.73238 6.26762C2.26354 5.79878 2.00015 5.16289 2.00015 4.49985V4.49985ZM10.4401 17.2259C9.93918 16.9779 9.36943 16.9053 8.82232 17.0199C8.2752 17.1346 7.78246 17.4296 7.42315 17.8579C7.39915 17.8869 7.37715 17.9169 7.35615 17.9479L5.22915 21.1659C5.01949 21.5086 4.69779 21.7684 4.31854 21.9011C3.93929 22.0339 3.52582 22.0314 3.14817 21.8942C2.77052 21.757 2.45191 21.4934 2.24634 21.1482C2.04076 20.8029 1.96085 20.3973 2.02015 19.9999C2.06299 19.72 2.17272 19.4546 2.34002 19.2262C2.50732 18.9978 2.72725 18.8131 2.98115 18.6879L6.02215 16.8569C6.06651 16.8303 6.10865 16.8002 6.14815 16.7669C6.57522 16.4069 6.86884 15.9137 6.98184 15.3667C7.09483 14.8197 7.02062 14.2506 6.77115 13.7509C6.11811 12.4329 5.87665 10.9489 6.07815 9.49185L14.5111 17.9249C13.1152 18.0881 11.7017 17.8454 10.4401 17.2259V17.2259ZM19.4611 15.4609C18.6755 16.2483 17.7487 16.881 16.7291 17.3259C16.7201 17.3159 16.7171 17.3029 16.7071 17.2929L7.36015 7.94485C7.87061 7.52708 8.28236 7.00157 8.56589 6.40599C8.84942 5.8104 8.99771 5.15948 9.00015 4.49985C9.00015 4.38085 8.97415 4.26885 8.96515 4.15285C10.4457 2.78249 12.3888 2.02126 14.4061 2.02126C16.4235 2.02126 18.3666 2.78249 19.8471 4.15285C20.5692 4.87894 21.1332 5.74657 21.5038 6.70119C21.8743 7.6558 22.0433 8.67676 22.0001 9.69985C21.9218 11.8742 21.0132 13.9359 19.4611 15.4609Z" fill="#374957"/>
</g>
<defs>
<clipPath id="clip0_51_72137">
<rect width="24" height="24" fill="white"/>
</clipPath>
</defs>
</svg>
