<svg width="24" height="24" viewBox="0 0 24 24" fill="none" xmlns="http://www.w3.org/2000/svg">
<g clip-path="url(#clip0_51_70002)">
<path d="M10.583 20.5297C9.63594 21.4514 8.36403 21.9633 7.04247 21.9544C5.72091 21.9455 4.45597 21.4167 3.52133 20.4824C2.58669 19.548 2.05751 18.2832 2.04829 16.9616C2.03906 15.6401 2.55052 14.368 3.47202 13.4207L7.73402 9.1557L6.31902 7.7417L2.05802 12.0067C0.740293 13.3251 0.00026379 15.1129 0.000732645 16.9769C0.0012015 18.841 0.742129 20.6284 2.06052 21.9462C3.37891 23.2639 5.16677 24.0039 7.03079 24.0035C8.89481 24.003 10.6823 23.2621 12 21.9437L16.262 17.6817L14.848 16.2677L10.583 20.5297Z" fill="#374957"/>
<path d="M21.9439 2.06145C21.2932 1.40627 20.5189 0.88673 19.6659 0.532948C18.813 0.179165 17.8983 -0.00182921 16.9749 0.000451887V0.000451887C16.0519 -0.00199984 15.1377 0.17853 14.2849 0.531603C13.4322 0.884676 12.6579 1.40329 12.0069 2.05745L7.73987 6.32045L9.15387 7.73545L13.4189 3.47345C13.8844 3.0051 14.4383 2.63375 15.0483 2.38091C15.6584 2.12807 16.3125 1.99875 16.9729 2.00045V2.00045C17.9671 2.00078 18.939 2.29588 19.7656 2.84845C20.5921 3.40102 21.2363 4.18625 21.6167 5.10487C21.9971 6.0235 22.0966 7.03427 21.9026 8.00943C21.7086 8.98458 21.2299 9.88034 20.5269 10.5835L16.2649 14.8455L17.6799 16.2605L21.9419 12.0005C23.2579 10.6815 23.9972 8.89455 23.9976 7.03137C23.9979 5.16818 23.2594 3.38089 21.9439 2.06145V2.06145Z" fill="#374957"/>
<path d="M14.8452 7.74195L7.74084 14.8463L9.15506 16.2605L16.2594 9.15616L14.8452 7.74195Z" fill="#374957"/>
</g>
<defs>
<clipPath id="clip0_51_70002">
<rect width="24" height="24" fill="white"/>
</clipPath>
</defs>
</svg>
