<svg width="24" height="24" viewBox="0 0 24 24" fill="none" xmlns="http://www.w3.org/2000/svg">
<g clip-path="url(#clip0_51_69302)">
<path d="M13.905 1.24304C13.7402 0.875698 13.4726 0.563851 13.1347 0.345058C12.7967 0.126265 12.4026 0.00985718 12 0.00985718C11.5974 0.00985718 11.2033 0.126265 10.8653 0.345058C10.5274 0.563851 10.2598 0.875698 10.095 1.24304L0 24H24L13.905 1.24304ZM18.263 16H5.737L7.511 12H16.489L18.263 16ZM11.919 2.06204C11.935 2.02704 11.943 2.01004 12 2.01004C12.057 2.01004 12.065 2.02704 12.077 2.05404L15.6 10H8.4L11.919 2.06204ZM4.849 18H19.149L20.923 22H3.075L4.849 18Z" fill="#374957"/>
</g>
<defs>
<clipPath id="clip0_51_69302">
<rect width="24" height="24" fill="white"/>
</clipPath>
</defs>
</svg>
