<svg width="24" height="24" viewBox="0 0 24 24" fill="none" xmlns="http://www.w3.org/2000/svg">
<g clip-path="url(#clip0_51_80741)">
<path d="M7.02759 23.9997C5.63783 24.0006 4.27904 23.5892 3.12317 22.8176C1.9673 22.046 1.06631 20.9488 0.534223 19.6649C0.00213391 18.3811 -0.137138 16.9682 0.134034 15.6052C0.405205 14.2421 1.07463 12.9902 2.05759 12.0077L6.31859 7.74072L7.73359 9.15472L3.47159 13.4197C2.55009 14.367 2.03863 15.6391 2.04786 16.9607C2.05709 18.2822 2.58626 19.547 3.5209 20.4814C4.45554 21.4157 5.72048 21.9446 7.04204 21.9534C8.3636 21.9623 9.63552 21.4505 10.5826 20.5287L14.8446 16.2667L16.2586 17.6807L11.9996 21.9427C11.3472 22.5961 10.5721 23.1142 9.71881 23.4672C8.86556 23.8202 7.95098 24.0012 7.02759 23.9997V23.9997Z" fill="#374957"/>
<path d="M17.6802 16.2595L16.2662 14.8455L20.5282 10.5835C21.2316 9.88047 21.7106 8.98463 21.9048 8.00931C22.099 7.03398 21.9996 6.02297 21.6191 5.10414C21.2387 4.18531 20.5944 3.39993 19.7676 2.84731C18.9408 2.2947 17.9687 1.99967 16.9742 1.99953V1.99953C16.3139 1.9977 15.6598 2.12686 15.0498 2.37953C14.4397 2.6322 13.8859 3.00336 13.4202 3.47153L9.15423 7.73453L7.74023 6.31953L12.0052 2.05753C12.6562 1.40319 13.4305 0.884393 14.2832 0.531147C15.1359 0.1779 16.0502 -0.00278693 16.9732 -0.000466207V-0.000466207C18.3637 -0.000926313 19.7231 0.411165 20.8793 1.18365C22.0355 1.95613 22.9365 3.05426 23.4683 4.33906C24.0001 5.62386 24.1388 7.03755 23.8668 8.40119C23.5948 9.76484 22.9243 11.0171 21.9402 11.9995L17.6802 16.2595Z" fill="#374957"/>
<path d="M14.8445 7.74189L7.74023 14.8462L9.15445 16.2604L16.2588 9.1561L14.8445 7.74189Z" fill="#374957"/>
</g>
<defs>
<clipPath id="clip0_51_80741">
<rect width="24" height="24" fill="white"/>
</clipPath>
</defs>
</svg>
