<svg width="24" height="24" viewBox="0 0 24 24" fill="none" xmlns="http://www.w3.org/2000/svg">
<g clip-path="url(#clip0_51_69959)">
<path d="M19.0002 24H5.00024C4.2077 24 3.44736 23.6864 2.88526 23.1277C2.32317 22.569 2.005 21.8105 2.00024 21.018V5.522L12.0002 0L22.0002 5.522V21.022C21.9944 21.8138 21.6758 22.5713 21.1138 23.1291C20.5518 23.687 19.7921 24 19.0002 24V24ZM4.00024 6.692V21.018C4.00183 21.2822 4.10789 21.535 4.29525 21.7212C4.48262 21.9075 4.73606 22.012 5.00024 22.012H19.0002C19.2644 22.012 19.5179 21.9075 19.7052 21.7212C19.8926 21.535 19.9987 21.2822 20.0002 21.018V6.692L12.0002 2.274L4.00024 6.692Z" fill="#374957"/>
<path d="M12 8.5722C12.8284 8.5722 13.5 7.90063 13.5 7.0722C13.5 6.24378 12.8284 5.5722 12 5.5722C11.1716 5.5722 10.5 6.24378 10.5 7.0722C10.5 7.90063 11.1716 8.5722 12 8.5722Z" fill="#374957"/>
</g>
<defs>
<clipPath id="clip0_51_69959">
<rect width="24" height="24" fill="white"/>
</clipPath>
</defs>
</svg>
