<svg width="24" height="24" viewBox="0 0 24 24" fill="none" xmlns="http://www.w3.org/2000/svg">
<g clip-path="url(#clip0_51_69728)">
<path d="M22.867 13.9998C20.9557 13.9236 19.0552 14.3203 17.334 15.1546C15.6128 15.989 14.1241 17.2352 13 18.7828V13.9188C14.3973 13.6796 15.6652 12.9546 16.58 11.8716C17.4948 10.7887 17.9977 9.41742 18 7.99981C18 5.19981 16.056 2.84081 14.156 0.899811C13.5798 0.335883 12.8057 0.0200806 11.9995 0.0200806C11.1933 0.0200806 10.4192 0.335883 9.843 0.899811C7.943 2.83581 6 5.19981 6 7.99981C6.00112 9.41828 6.5035 10.7907 7.41841 11.8747C8.33331 12.9587 9.60187 13.6845 11 13.9238V18.7878C9.87643 17.2393 8.38798 15.9921 6.66674 15.1568C4.9455 14.3216 3.04469 13.9242 1.133 13.9998H0L0.141 15.1258C0.928 21.4338 6.859 23.5768 10.754 23.9508C11.5835 24.0138 12.4165 24.0138 13.246 23.9508C17.141 23.5778 23.071 21.4348 23.859 15.1258L24 13.9998H22.867ZM2.361 16.0608C4.1314 16.1848 5.83305 16.7959 7.27787 17.8265C8.72269 18.8572 9.85443 20.2672 10.548 21.9008C8.162 21.5938 3.585 20.4338 2.361 16.0608ZM8 7.99981C8 5.92381 9.81 3.82381 11.428 2.17081C10.5816 4.3537 10.0992 6.66069 10 8.99981H12C12.0997 6.90752 12.5363 4.84503 13.293 2.89181C14.71 4.41081 16 6.16181 16 7.99981C16 9.06068 15.5786 10.0781 14.8284 10.8282C14.0783 11.5784 13.0609 11.9998 12 11.9998C10.9391 11.9998 9.92172 11.5784 9.17157 10.8282C8.42143 10.0781 8 9.06068 8 7.99981V7.99981ZM13.452 21.8998C14.1458 20.2663 15.2775 18.8564 16.7223 17.8258C18.1671 16.7952 19.8687 16.184 21.639 16.0598C20.415 20.4338 15.838 21.5938 13.452 21.8998Z" fill="#374957"/>
</g>
<defs>
<clipPath id="clip0_51_69728">
<rect width="24" height="24" fill="white"/>
</clipPath>
</defs>
</svg>
