<svg width="24" height="24" viewBox="0 0 24 24" fill="none" xmlns="http://www.w3.org/2000/svg">
<g clip-path="url(#clip0_51_72126)">
<path d="M23.7 0.307347C23.5125 0.120181 23.2584 0.0150599 22.9935 0.0150599C22.7286 0.0150599 22.4745 0.120181 22.287 0.307347L10.093 12.4943C9.2312 11.4637 8.5201 10.3159 7.98101 9.08535L9.13901 7.63135C9.68926 7.05577 9.99692 6.29053 9.99822 5.49425C9.99953 4.69797 9.69437 3.93172 9.14601 3.35435C9.14601 3.35435 7.29401 0.950347 7.26401 0.920347C6.69393 0.346086 5.92077 0.0192309 5.11164 0.0104361C4.30252 0.00164123 3.52243 0.311613 2.94001 0.873347L1.79101 1.87335C-2.22499 6.32135 1.15301 12.5873 5.34001 17.2443L0.300007 22.2804C0.125255 22.4702 0.0306636 22.7203 0.0360087 22.9783C0.0413538 23.2363 0.146222 23.4822 0.328687 23.6647C0.511153 23.8471 0.75709 23.952 1.01508 23.9573C1.27307 23.9627 1.52314 23.8681 1.71301 23.6934L23.7 1.72035C23.8872 1.53286 23.9923 1.27877 23.9923 1.01385C23.9923 0.748928 23.8872 0.494834 23.7 0.307347V0.307347ZM2.00701 6.24535C1.99151 5.16269 2.40325 4.11753 3.15301 3.33635L4.30201 2.33635C4.5011 2.1386 4.76824 2.02442 5.04876 2.01717C5.32928 2.00992 5.60196 2.11015 5.81101 2.29735C5.81101 2.29735 7.65201 4.68635 7.68201 4.71635C7.88713 4.92151 8.00236 5.19974 8.00236 5.48985C8.00236 5.77996 7.88713 6.05819 7.68201 6.26335C7.65601 6.28935 6.04801 8.30035 6.04801 8.30035C5.93672 8.43886 5.86436 8.60451 5.83834 8.78027C5.81233 8.95603 5.83361 9.13555 5.90001 9.30035C6.56124 10.9816 7.49584 12.5419 8.66601 13.9183L6.75201 15.8333C3.80901 12.6743 2.00701 9.08735 2.00701 6.24535ZM23.085 16.7333C23.663 17.3143 23.9875 18.1004 23.9875 18.9198C23.9875 19.7393 23.663 20.5254 23.085 21.1064L22.175 22.1543C18.3 25.6813 13.6 23.6184 9.20001 20.6454C9.09495 20.5666 9.00644 20.4678 8.93953 20.3548C8.87262 20.2418 8.82863 20.1168 8.81006 19.9868C8.77255 19.7242 8.84088 19.4575 9.00001 19.2454C9.15914 19.0332 9.39603 18.8929 9.65859 18.8554C9.92114 18.8179 10.1878 18.8862 10.4 19.0453C13.909 21.3603 17.732 23.3874 20.72 20.7944L21.631 19.7454C21.8455 19.548 21.9744 19.2747 21.9902 18.9836C22.0061 18.6926 21.9077 18.4069 21.716 18.1873C21.716 18.1873 19.324 16.3473 19.294 16.3173C19.088 16.1134 18.8099 15.999 18.52 15.999C18.2301 15.999 17.952 16.1134 17.746 16.3173C17.719 16.3443 15.703 17.9504 15.703 17.9504C15.5694 18.0573 15.4105 18.1279 15.2416 18.1554C15.0727 18.1829 14.8996 18.1664 14.739 18.1073C14.0824 17.8576 13.4435 17.5632 12.827 17.2263C12.6138 17.0919 12.4592 16.882 12.3942 16.6385C12.3292 16.395 12.3585 16.1359 12.4763 15.9131C12.5941 15.6903 12.7916 15.5202 13.0295 15.4368C13.2673 15.3534 13.5279 15.3629 13.759 15.4633C14.13 15.6633 14.515 15.8543 14.915 16.0243L16.377 14.8613C16.9528 14.3109 17.7183 14.0033 18.5148 14.0022C19.3113 14.001 20.0777 14.3066 20.655 14.8553C20.655 14.8553 23.054 16.7003 23.085 16.7333Z" fill="#374957"/>
</g>
<defs>
<clipPath id="clip0_51_72126">
<rect width="24" height="24" fill="white"/>
</clipPath>
</defs>
</svg>
