<svg width="24" height="24" viewBox="0 0 24 24" fill="none" xmlns="http://www.w3.org/2000/svg">
<g clip-path="url(#clip0_51_70052)">
<path d="M16.0005 11.0001H8.0005V9.00013H16.0005V11.0001ZM4.9375 17.0791C3.53703 15.6819 2.58247 13.9006 2.19459 11.9607C1.80671 10.0208 2.00293 8.00941 2.75843 6.18105C3.51394 4.35269 4.79477 2.7895 6.43889 1.68925C8.08301 0.588996 10.0165 0.00112134 11.9948 1.60258e-06C13.9731 -0.00111814 15.9073 0.584567 17.5527 1.68296C19.198 2.78135 20.4806 4.34309 21.2382 6.17059C21.9958 7.9981 22.1943 10.0092 21.8086 11.9496C21.4229 13.8899 20.4704 15.6723 19.0715 17.0711L12.0005 23.9871L4.9375 17.0791ZM4.0005 10.0001C3.99761 11.0511 4.2032 12.0923 4.60538 13.0633C5.00755 14.0343 5.59832 14.9159 6.3435 15.6571L12.0005 21.1891L17.6655 15.6491C18.5941 14.7179 19.2788 13.5721 19.6589 12.3131C20.0391 11.0541 20.1031 9.72087 19.8451 8.43131C19.5872 7.14174 19.0153 5.93566 18.1801 4.91981C17.3449 3.90396 16.2721 3.10967 15.0568 2.60725C13.8414 2.10483 12.521 1.90978 11.2122 2.03936C9.90354 2.16894 8.64696 2.61916 7.55373 3.35015C6.4605 4.08115 5.56434 5.07039 4.94457 6.2303C4.32481 7.39021 4.00055 8.68502 4.0005 10.0001V10.0001Z" fill="#374957"/>
</g>
<defs>
<clipPath id="clip0_51_70052">
<rect width="24" height="24" fill="white"/>
</clipPath>
</defs>
</svg>
