<svg width="24" height="24" viewBox="0 0 24 24" fill="none" xmlns="http://www.w3.org/2000/svg">
<g clip-path="url(#clip0_51_69156)">
<path d="M19.79 12.0799C19.02 9.21194 17.867 6.06694 17.29 4.54594C17.78 4.3467 18.2808 4.17509 18.79 4.03194C18.9289 3.99577 19.0743 3.9922 19.2148 4.02151C19.3553 4.05083 19.4871 4.11224 19.6 4.20094C19.7247 4.29591 19.8257 4.41846 19.8951 4.55899C19.9645 4.69952 20.0004 4.85421 20 5.01094H22C22.0014 4.54765 21.8956 4.09032 21.6907 3.6748C21.4858 3.25927 21.1874 2.89685 20.819 2.61594C20.4638 2.33927 20.0493 2.14868 19.6081 2.05915C19.1669 1.96962 18.7109 1.98359 18.276 2.09994C17.3589 2.36818 16.4611 2.69862 15.589 3.08894L14.716 3.48194L15.071 4.37194C15.081 4.39694 15.577 5.64094 16.192 7.36294L12.02 10.6069L8.414 6.99994H10V4.99994H4V6.99994H5.586L10.429 11.8439L8.442 13.3899C7.54835 12.5479 6.37406 12.0675 5.14651 12.0416C3.91895 12.0157 2.72545 12.4463 1.79711 13.2498C0.868766 14.0534 0.271621 15.1729 0.121296 16.3915C-0.0290283 17.6101 0.278162 18.8411 0.983388 19.8462C1.68861 20.8513 2.7417 21.559 3.93875 21.8322C5.1358 22.1054 6.39164 21.9247 7.46312 21.3251C8.5346 20.7256 9.34549 19.7497 9.73877 18.5866C10.1321 17.4234 10.0798 16.1557 9.592 15.0289L16.88 9.35994C17.18 10.2789 17.48 11.2409 17.746 12.1789C16.549 12.491 15.5101 13.2356 14.8302 14.2691C14.1502 15.3025 13.8775 16.5513 14.0647 17.774C14.252 18.9968 14.8858 20.1068 15.8438 20.8894C16.8018 21.672 18.0159 22.0718 19.2515 22.0113C20.487 21.9509 21.6563 21.4345 22.5333 20.5621C23.4103 19.6897 23.9328 18.5232 23.9998 17.288C24.0668 16.0528 23.6735 14.8366 22.8959 13.8745C22.1184 12.9123 21.0118 12.2726 19.79 12.0789V12.0799ZM5 19.9999C4.40666 19.9999 3.82664 19.824 3.3333 19.4944C2.83995 19.1647 2.45543 18.6962 2.22837 18.148C2.00131 17.5998 1.9419 16.9966 2.05765 16.4147C2.17341 15.8327 2.45913 15.2982 2.87869 14.8786C3.29824 14.4591 3.83279 14.1733 4.41473 14.0576C4.99668 13.9418 5.59987 14.0012 6.14805 14.2283C6.69623 14.4554 7.16477 14.8399 7.49441 15.3332C7.82405 15.8266 8 16.4066 8 16.9999C8 17.7956 7.68393 18.5587 7.12132 19.1213C6.55871 19.6839 5.79565 19.9999 5 19.9999ZM19 19.9999C18.4066 19.9999 17.8266 19.824 17.3333 19.4944C16.8399 19.1647 16.4554 18.6962 16.2284 18.148C16.0013 17.5998 15.9419 16.9966 16.0576 16.4147C16.1734 15.8327 16.4591 15.2982 16.8787 14.8786C17.2982 14.4591 17.8328 14.1733 18.4147 14.0576C18.9967 13.9418 19.5999 14.0012 20.148 14.2283C20.6962 14.4554 21.1647 14.8399 21.4944 15.3332C21.824 15.8266 22 16.4066 22 16.9999C22 17.7956 21.6839 18.5587 21.1213 19.1213C20.5587 19.6839 19.7956 19.9999 19 19.9999Z" fill="#374957"/>
</g>
<defs>
<clipPath id="clip0_51_69156">
<rect width="24" height="24" fill="white"/>
</clipPath>
</defs>
</svg>
