<svg width="24" height="24" viewBox="0 0 24 24" fill="none" xmlns="http://www.w3.org/2000/svg">
<g clip-path="url(#clip0_51_81000)">
<path d="M15 2.41626V4.51626C17.0017 5.22395 18.6887 6.61647 19.7629 8.4477C20.8372 10.2789 21.2294 12.431 20.8704 14.5235C20.5114 16.6159 19.4242 18.5141 17.801 19.8826C16.1778 21.251 14.1231 22.0015 12 22.0015C9.87697 22.0015 7.82225 21.251 6.19905 19.8826C4.57584 18.5141 3.48865 16.6159 3.12964 14.5235C2.77063 12.431 3.1629 10.2789 4.23713 8.4477C5.31136 6.61647 6.99839 5.22395 9.00003 4.51626V2.41626C6.44565 3.14036 4.23935 4.76391 2.78827 6.98731C1.33719 9.21072 0.739244 11.8839 1.10477 14.5137C1.4703 17.1434 2.77464 19.5522 4.7771 21.2956C6.77956 23.039 9.345 23.9993 12 23.9993C14.6551 23.9993 17.2205 23.039 19.223 21.2956C21.2254 19.5522 22.5297 17.1434 22.8953 14.5137C23.2608 11.8839 22.6629 9.21072 21.2118 6.98731C19.7607 4.76391 17.5544 3.14036 15 2.41626V2.41626Z" fill="#374957"/>
<path d="M13 0H11V8H13V0Z" fill="#374957"/>
</g>
<defs>
<clipPath id="clip0_51_81000">
<rect width="24" height="24" fill="white"/>
</clipPath>
</defs>
</svg>
