<svg width="24" height="24" viewBox="0 0 24 24" fill="none" xmlns="http://www.w3.org/2000/svg">
<g clip-path="url(#clip0_51_70218)">
<path d="M5.45439 9.65381C5.23337 7.54083 4.01341 6.31781 2.61841 6.31781V6.31983C2.53422 6.31973 2.45012 6.32404 2.36641 6.33281C0.869406 6.48679 -0.199579 7.98079 0.0324057 10.2198C0.256421 12.3618 1.55139 13.9998 2.97442 13.9998C3.03887 14 3.10333 13.9966 3.16741 13.9898C4.66741 13.8338 5.68839 11.8898 5.45439 9.65381ZM2.95839 11.9878C2.37381 11.4966 2.09275 10.8078 2.02141 10.0118C2.02141 9.50822 2.01662 9.01134 2.24041 8.56378C2.36476 8.32987 2.51641 8.32579 2.57439 8.31979L2.61859 8.31904C2.95558 8.31904 3.36437 8.89476 3.46539 9.86076C3.53458 10.6132 3.42794 11.3859 2.95839 11.9878Z" fill="#374957"/>
<path d="M8.46702 8.45002C8.53804 8.45002 8.60802 8.45002 8.67904 8.439C10.326 8.26702 11.452 6.13102 11.1951 3.669C10.9521 1.34602 9.61002 0 8.07603 0C7.98383 9.375e-05 7.89172 0.0050625 7.80003 0.015C6.15205 0.186 4.97404 1.82902 5.23105 4.29202C5.47804 6.648 6.90004 8.45002 8.46702 8.45002ZM7.49104 2.36002C7.59177 2.1615 7.78499 2.02641 8.00605 2.00002C8.02935 1.99856 8.05274 1.99856 8.07603 2.00002C8.54005 2.00002 9.07602 2.64502 9.20605 3.87703C9.29947 4.59361 9.18711 5.32195 8.88205 5.97703C8.70004 6.32203 8.51704 6.44203 8.46707 6.44705C8.21005 6.44705 7.38308 5.63306 7.22005 4.08103C7.1158 3.49317 7.21119 2.88736 7.49104 2.36002Z" fill="#374957"/>
<path d="M15.3648 8.439C15.4358 8.44598 15.5068 8.45002 15.5768 8.45002C17.1418 8.45002 18.5668 6.65002 18.8128 4.29202C19.0698 1.82902 17.8918 0.186 16.2458 0.015C16.1538 0.0050625 16.0613 4.6875e-05 15.9688 0C14.4338 0 13.0918 1.34602 12.8488 3.669C12.5918 6.13102 13.7178 8.26898 15.3648 8.439ZM14.8388 3.876C14.9668 2.64502 15.5008 2.00002 15.9688 2.00002C15.9918 1.99852 16.0148 1.99852 16.0378 2.00002C16.2586 2.02617 16.4519 2.16089 16.5528 2.35903C16.8337 2.88605 16.9292 3.49219 16.8238 4.08005C16.6618 5.63203 15.8338 6.44606 15.5728 6.44606C15.5268 6.44606 15.3438 6.32105 15.1618 5.97605C14.8567 5.32097 14.7446 4.59248 14.8388 3.876Z" fill="#374957"/>
<path d="M12.0008 11C7.45879 11 3.00079 15.641 2.99479 20.369C2.87081 23.568 5.59481 24.727 8.89481 23.547C10.9066 22.861 13.089 22.861 15.1008 23.547C15.8759 23.8087 16.6837 23.9611 17.5008 24C20.3938 24 21.0008 22.025 21.0008 20.369C21.0008 15.641 16.5428 11 12.0008 11ZM12.0008 21C9.74681 20.643 4.77679 23.833 5.00081 20.369C5.00081 16.719 8.53383 13 12.0008 13C15.4678 13 19.0008 16.719 19.0008 20.369C19.2268 23.83 14.2658 20.647 12.0008 21Z" fill="#374957"/>
<path d="M21.9713 7.39073L21.9708 7.39269C21.8889 7.37315 21.8061 7.35801 21.7226 7.34718C20.2305 7.15162 18.8456 8.35869 18.5547 10.5908C18.2785 12.7267 19.1606 14.6193 20.5452 14.9476C20.608 14.9626 20.6714 14.9742 20.7354 14.9824C22.2309 15.1767 23.6729 13.5207 23.9611 11.291C24.2335 9.18407 23.3286 7.71257 21.9713 7.39073ZM21.978 11.0336C21.8717 11.7816 21.5897 12.5089 20.9939 12.9862C20.5384 12.3733 20.4239 11.6383 20.5381 10.8473C20.6543 10.3574 20.7643 9.87276 21.0852 9.48894C21.2602 9.29005 21.4087 9.32104 21.4665 9.32858L21.5097 9.3381C21.8376 9.41582 22.1026 10.0703 21.978 11.0336Z" fill="#374957"/>
</g>
<defs>
<clipPath id="clip0_51_70218">
<rect width="24" height="24" fill="white"/>
</clipPath>
</defs>
</svg>
