<svg width="24" height="24" viewBox="0 0 24 24" fill="none" xmlns="http://www.w3.org/2000/svg">
<g clip-path="url(#clip0_51_69131)">
<path d="M17.9999 3V4H23.9999V6H17.9999V8H23.9999V10H17.9999V12H23.9999V14H17.9999V16H23.9999V18H17.9999V24H15.9999V3C15.9999 2.20435 16.316 1.44129 16.8786 0.87868C17.4412 0.316071 18.2043 0 18.9999 0L23.9999 0V2H18.9999C18.7347 2 18.4804 2.10536 18.2928 2.29289C18.1053 2.48043 17.9999 2.73478 17.9999 3V3ZM13.9999 20C14.0035 20.8144 13.7574 21.6103 13.2947 22.2805C12.832 22.9507 12.175 23.463 11.4122 23.7483C10.6494 24.0336 9.81749 24.0782 9.02856 23.8761C8.23963 23.674 7.53161 23.2349 6.99992 22.618C6.58073 23.1002 6.05184 23.4746 5.45776 23.7098C4.86369 23.945 4.22181 24.034 3.58616 23.9694C2.9505 23.9048 2.33966 23.6885 1.80505 23.3386C1.27044 22.9887 0.827693 22.5155 0.514079 21.9588C0.200464 21.4022 0.0251561 20.7783 0.0029077 20.1398C-0.0193407 19.5012 0.112122 18.8667 0.386231 18.2895C0.660341 17.7124 1.06908 17.2095 1.57804 16.8233C2.087 16.437 2.6813 16.1787 3.31092 16.07L5.91192 10L4.26292 6.151C3.42742 4.20807 2.99764 2.11495 2.99992 0L4.99992 0C4.99737 1.84426 5.37169 3.6696 6.09992 5.364L6.99992 7.464L7.89992 5.364C8.62815 3.6696 9.00248 1.84426 8.99992 0H10.9999C11.0022 2.11495 10.5724 4.20807 9.73692 6.151L8.08792 10L10.6879 16.07C11.6137 16.2316 12.453 16.7141 13.0586 17.4327C13.6642 18.1513 13.9975 19.0602 13.9999 20ZM5.99992 20C5.99992 19.6044 5.88262 19.2178 5.66286 18.8889C5.4431 18.56 5.13074 18.3036 4.76529 18.1522C4.39984 18.0009 3.9977 17.9613 3.60974 18.0384C3.22178 18.1156 2.86541 18.3061 2.58571 18.5858C2.306 18.8655 2.11552 19.2219 2.03835 19.6098C1.96118 19.9978 2.00079 20.3999 2.15216 20.7654C2.30354 21.1308 2.55988 21.4432 2.88878 21.6629C3.21768 21.8827 3.60436 22 3.99992 22C4.53035 22 5.03906 21.7893 5.41413 21.4142C5.78921 21.0391 5.99992 20.5304 5.99992 20ZM6.99992 17.382C7.43256 16.8834 7.98239 16.5003 8.59992 16.267L6.99992 12.538L5.39992 16.267C6.01745 16.5003 6.56728 16.8834 6.99992 17.382V17.382ZM11.9999 20C11.9999 19.6044 11.8826 19.2178 11.6629 18.8889C11.4431 18.56 11.1307 18.3036 10.7653 18.1522C10.3998 18.0009 9.9977 17.9613 9.60974 18.0384C9.22178 18.1156 8.86541 18.3061 8.58571 18.5858C8.306 18.8655 8.11552 19.2219 8.03835 19.6098C7.96118 19.9978 8.00079 20.3999 8.15216 20.7654C8.30354 21.1308 8.55988 21.4432 8.88878 21.6629C9.21768 21.8827 9.60436 22 9.99992 22C10.5304 22 11.0391 21.7893 11.4141 21.4142C11.7892 21.0391 11.9999 20.5304 11.9999 20Z" fill="#374957"/>
</g>
<defs>
<clipPath id="clip0_51_69131">
<rect width="24" height="24" fill="white"/>
</clipPath>
</defs>
</svg>
