<svg width="24" height="24" viewBox="0 0 24 24" fill="none" xmlns="http://www.w3.org/2000/svg">
<g clip-path="url(#clip0_51_80440)">
<path d="M21.414 5H17V0.586L21.414 5ZM22 7V24H2V3C2 2.20435 2.31607 1.44129 2.87868 0.87868C3.44129 0.31607 4.20435 0 5 0L15 0V7H22ZM16.611 13.536L15.2 12.122L11.61 15.707C11.4198 15.889 11.1667 15.9905 10.9035 15.9905C10.6403 15.9905 10.3872 15.889 10.197 15.707L8.611 14.122L7.2 15.536L8.785 17.121C9.06358 17.3996 9.39432 17.6207 9.75833 17.7715C10.1223 17.9222 10.5125 17.9999 10.9065 17.9999C11.3005 17.9999 11.6907 17.9222 12.0547 17.7715C12.4187 17.6207 12.7494 17.3996 13.028 17.121L16.611 13.536Z" fill="#374957"/>
</g>
<defs>
<clipPath id="clip0_51_80440">
<rect width="24" height="24" fill="white"/>
</clipPath>
</defs>
</svg>
