<svg width="24" height="24" viewBox="0 0 24 24" fill="none" xmlns="http://www.w3.org/2000/svg">
<g clip-path="url(#clip0_51_70969)">
<path d="M1 6.00001H23C23.2652 6.00001 23.5196 5.89465 23.7071 5.70712C23.8946 5.51958 24 5.26523 24 5.00001C24 4.7348 23.8946 4.48044 23.7071 4.29291C23.5196 4.10537 23.2652 4.00002 23 4.00002H1C0.734784 4.00002 0.48043 4.10537 0.292893 4.29291C0.105357 4.48044 0 4.7348 0 5.00001C0 5.26523 0.105357 5.51958 0.292893 5.70712C0.48043 5.89465 0.734784 6.00001 1 6.00001V6.00001Z" fill="#374957"/>
<path d="M4.99985 9C4.73463 9 4.48028 9.10536 4.29274 9.29289C4.1052 9.48043 3.99985 9.73478 3.99985 10C3.99985 10.2652 4.1052 10.5196 4.29274 10.7071C4.48028 10.8946 4.73463 11 4.99985 11H18.9998C19.2651 11 19.5194 10.8946 19.707 10.7071C19.8945 10.5196 19.9998 10.2652 19.9998 10C19.9998 9.73478 19.8945 9.48043 19.707 9.29289C19.5194 9.10536 19.2651 9 18.9998 9H4.99985Z" fill="#374957"/>
<path d="M18.9998 19H4.99985C4.73463 19 4.48028 19.1053 4.29274 19.2929C4.1052 19.4804 3.99985 19.7348 3.99985 20C3.99985 20.2652 4.1052 20.5195 4.29274 20.7071C4.48028 20.8946 4.73463 21 4.99985 21H18.9998C19.2651 21 19.5194 20.8946 19.707 20.7071C19.8945 20.5195 19.9998 20.2652 19.9998 20C19.9998 19.7348 19.8945 19.4804 19.707 19.2929C19.5194 19.1053 19.2651 19 18.9998 19Z" fill="#374957"/>
<path d="M23 14H1C0.734784 14 0.48043 14.1054 0.292893 14.2929C0.105357 14.4805 0 14.7348 0 15C0 15.2653 0.105357 15.5196 0.292893 15.7071C0.48043 15.8947 0.734784 16 1 16H23C23.2652 16 23.5196 15.8947 23.7071 15.7071C23.8946 15.5196 24 15.2653 24 15C24 14.7348 23.8946 14.4805 23.7071 14.2929C23.5196 14.1054 23.2652 14 23 14Z" fill="#374957"/>
</g>
<defs>
<clipPath id="clip0_51_70969">
<rect width="24" height="24" fill="white"/>
</clipPath>
</defs>
</svg>
