<svg width="24" height="24" viewBox="0 0 24 24" fill="none" xmlns="http://www.w3.org/2000/svg">
<g clip-path="url(#clip0_51_80105)">
<path d="M21.0167 13.4249C20.2066 13.4252 19.4318 13.7564 18.8717 14.3418L16.5975 13.3752C16.7529 12.9101 16.8347 12.4236 16.8401 11.9333C16.8346 9.29937 14.7008 7.16548 12.0669 7.16004C11.6686 7.16501 11.2727 7.22046 10.8885 7.32513L9.58079 4.99718C10.688 3.78373 10.6018 1.90245 9.38837 0.79526C8.17491 -0.311928 6.29363 -0.225772 5.18644 0.987681C4.07926 2.20113 4.16541 4.08242 5.37887 5.1896C5.92923 5.69178 6.64801 5.96909 7.39309 5.96674C7.5361 5.96267 7.67869 5.94837 7.81969 5.92399L9.10548 8.21117C7.17423 9.71501 6.71579 12.4471 8.05037 14.4989L4.28748 18.1395C2.74777 17.4565 0.945851 18.1509 0.262788 19.6906C-0.420274 21.2303 0.274179 23.0322 1.81388 23.7153C3.35359 24.3984 5.15551 23.7039 5.83857 22.1642C6.21849 21.3079 6.18376 20.3244 5.7443 19.4969L9.44457 15.917C11.4105 17.2251 14.0401 16.8816 15.604 15.1125L18.0583 16.1546C18.0513 16.2392 18.0334 16.3207 18.0334 16.4062C18.0334 18.0538 19.3691 19.3895 21.0167 19.3895C22.6643 19.3895 24 18.0538 24 16.4062C24 14.7586 22.6643 13.4229 21.0167 13.4229V13.4249V13.4249Z" fill="#374957"/>
</g>
<defs>
<clipPath id="clip0_51_80105">
<rect width="24" height="24" fill="white"/>
</clipPath>
</defs>
</svg>
