<svg width="24" height="24" viewBox="0 0 24 24" fill="none" xmlns="http://www.w3.org/2000/svg">
<g clip-path="url(#clip0_11_53619)">
<path d="M9.68308 7.56208L12.0001 9.88008L18.3741 3.50508C18.5598 3.31928 18.7803 3.17189 19.023 3.07133C19.2657 2.97077 19.5259 2.91901 19.7886 2.91901C20.0513 2.91901 20.3114 2.97077 20.5541 3.07133C20.7968 3.17189 21.0174 3.31928 21.2031 3.50508L21.9101 4.21208L9.68308 16.4381C10.0455 17.2927 10.0994 18.2468 9.83546 19.1368C9.57157 20.0268 9.00635 20.7973 8.23666 21.3162C7.46698 21.8352 6.54076 22.0703 5.61675 21.9812C4.69274 21.8922 3.82847 21.4845 3.17207 20.8281C2.51566 20.1717 2.108 19.3074 2.01894 18.3834C1.92989 17.4594 2.16498 16.5332 2.68394 15.7635C3.20289 14.9938 3.97339 14.4286 4.86339 14.1647C5.75338 13.9008 6.70745 13.9547 7.56208 14.3171L9.88008 12.0001L7.56208 9.68308C6.70745 10.0455 5.75338 10.0994 4.86339 9.83546C3.97339 9.57157 3.20289 9.00635 2.68394 8.23666C2.16498 7.46698 1.92989 6.54076 2.01894 5.61675C2.108 4.69274 2.51566 3.82847 3.17207 3.17207C3.82847 2.51566 4.69274 2.108 5.61675 2.01894C6.54076 1.92989 7.46698 2.16498 8.23666 2.68394C9.00635 3.20289 9.57157 3.97339 9.83546 4.86339C10.0994 5.75338 10.0455 6.70745 9.68308 7.56208ZM6.00008 8.00008C6.53051 8.00008 7.03922 7.78937 7.4143 7.4143C7.78937 7.03922 8.00008 6.53051 8.00008 6.00008C8.00008 5.46965 7.78937 4.96094 7.4143 4.58587C7.03922 4.21079 6.53051 4.00008 6.00008 4.00008C5.46965 4.00008 4.96094 4.21079 4.58587 4.58587C4.21079 4.96094 4.00008 5.46965 4.00008 6.00008C4.00008 6.53051 4.21079 7.03922 4.58587 7.4143C4.96094 7.78937 5.46965 8.00008 6.00008 8.00008ZM6.00008 20.0001C6.53051 20.0001 7.03922 19.7894 7.4143 19.4143C7.78937 19.0392 8.00008 18.5305 8.00008 18.0001C8.00008 17.4696 7.78937 16.9609 7.4143 16.5859C7.03922 16.2108 6.53051 16.0001 6.00008 16.0001C5.46965 16.0001 4.96094 16.2108 4.58587 16.5859C4.21079 16.9609 4.00008 17.4696 4.00008 18.0001C4.00008 18.5305 4.21079 19.0392 4.58587 19.4143C4.96094 19.7894 5.46965 20.0001 6.00008 20.0001ZM15.5351 13.4131L21.9101 19.7891L21.2031 20.4961C21.0174 20.6819 20.7968 20.8293 20.5541 20.9298C20.3114 21.0304 20.0513 21.0822 19.7886 21.0822C19.5259 21.0822 19.2657 21.0304 19.023 20.9298C18.7803 20.8293 18.5598 20.6819 18.3741 20.4961L13.4141 15.5351L15.5341 13.4131H15.5351Z" fill="#09121F"/>
</g>
<defs>
<clipPath id="clip0_11_53619">
<rect width="24" height="24" fill="white"/>
</clipPath>
</defs>
</svg>
