<svg width="24" height="24" viewBox="0 0 24 24" fill="none" xmlns="http://www.w3.org/2000/svg">
<g clip-path="url(#clip0_11_47704)">
<path d="M5.67101 4.25694C9.59901 1.03794 15.404 1.26194 19.071 4.92894C22.976 8.83394 22.976 15.1659 19.071 19.0709C15.166 22.9759 8.83401 22.9759 4.92901 19.0709C3.73064 17.8742 2.85609 16.3925 2.38747 14.7651C1.91886 13.1376 1.87156 11.4177 2.25001 9.76694L2.32701 9.45394L4.26101 9.96394C3.78156 11.7862 3.96071 13.7192 4.76689 15.4223C5.57308 17.1254 6.95455 18.4893 8.66785 19.2736C10.3811 20.0579 12.3163 20.2123 14.1323 19.7095C15.9482 19.2067 17.5285 18.0791 18.5944 16.5254C19.6604 14.9716 20.1438 13.0914 19.9593 11.2162C19.7747 9.34097 18.9342 7.59105 17.5859 6.27484C16.2375 4.95863 14.4678 4.1606 12.5887 4.0214C10.7096 3.8822 8.8416 4.41076 7.31401 5.51394L7.09301 5.67994L8.11001 6.69694L3.51401 7.75694L4.57401 3.16094L5.67001 4.25694H5.67101ZM13 5.99994V7.99994H15.5V9.99994H10C9.87507 9.99971 9.75456 10.0463 9.66223 10.1304C9.5699 10.2146 9.51243 10.3303 9.50114 10.4548C9.48985 10.5792 9.52556 10.7033 9.60123 10.8028C9.67691 10.9022 9.78707 10.9697 9.91001 10.9919L10 10.9999H14C14.6631 10.9999 15.2989 11.2633 15.7678 11.7322C16.2366 12.201 16.5 12.8369 16.5 13.4999C16.5 14.163 16.2366 14.7989 15.7678 15.2677C15.2989 15.7365 14.6631 15.9999 14 15.9999H13V17.9999H11V15.9999H8.50001V13.9999H14C14.125 14.0002 14.2455 13.9536 14.3378 13.8694C14.4301 13.7852 14.4876 13.6695 14.4989 13.5451C14.5102 13.4207 14.4745 13.2965 14.3988 13.1971C14.3231 13.0977 14.213 13.0302 14.09 13.0079L14 12.9999H10C9.33697 12.9999 8.70109 12.7365 8.23225 12.2677C7.76341 11.7989 7.50001 11.163 7.50001 10.4999C7.50001 9.83689 7.76341 9.20101 8.23225 8.73217C8.70109 8.26333 9.33697 7.99994 10 7.99994H11V5.99994H13Z" fill="#09121F"/>
</g>
<defs>
<clipPath id="clip0_11_47704">
<rect width="24" height="24" fill="white"/>
</clipPath>
</defs>
</svg>
