<svg width="24" height="24" viewBox="0 0 24 24" fill="none" xmlns="http://www.w3.org/2000/svg">
<g clip-path="url(#clip0_11_49214)">
<path d="M12.9999 20.9999H17.9999V22.9999H5.99992V20.9999H10.9999V19.9499C9.4144 19.7907 7.88986 19.255 6.55328 18.3874C5.2167 17.5197 4.10676 16.3453 3.31592 14.9619L5.05292 13.9699C5.6637 15.0372 6.51229 15.9493 7.53277 16.6353C8.55325 17.3214 9.71815 17.763 10.937 17.9258C12.1558 18.0886 13.3958 17.9683 14.5606 17.5741C15.7254 17.18 16.7836 16.5226 17.6531 15.6531C18.5226 14.7836 19.18 13.7254 19.5741 12.5606C19.9683 11.3958 20.0886 10.1558 19.9258 8.93699C19.763 7.71815 19.3214 6.55325 18.6353 5.53277C17.9493 4.51229 17.0372 3.6637 15.9699 3.05292L16.9619 1.31592C18.493 2.19046 19.7654 3.45442 20.6502 4.97955C21.535 6.50468 22.0007 8.23671 21.9999 9.99992C21.9999 15.1849 18.0529 19.4489 12.9999 19.9499V20.9999ZM11.9999 16.9999C11.0807 16.9999 10.1704 16.8189 9.32113 16.4671C8.47185 16.1153 7.70018 15.5997 7.05017 14.9497C6.40016 14.2997 5.88454 13.528 5.53276 12.6787C5.18098 11.8294 4.99992 10.9192 4.99992 9.99992C4.99992 9.08066 5.18098 8.17041 5.53276 7.32113C5.88454 6.47186 6.40016 5.70018 7.05017 5.05017C7.70018 4.40016 8.47185 3.88454 9.32113 3.53276C10.1704 3.18098 11.0807 2.99992 11.9999 2.99992C13.8564 2.99992 15.6369 3.73742 16.9497 5.05017C18.2624 6.36293 18.9999 8.1434 18.9999 9.99992C18.9999 11.8564 18.2624 13.6369 16.9497 14.9497C15.6369 16.2624 13.8564 16.9999 11.9999 16.9999Z" fill="#09121F"/>
</g>
<defs>
<clipPath id="clip0_11_49214">
<rect width="24" height="24" fill="white"/>
</clipPath>
</defs>
</svg>
