<svg width="24" height="24" viewBox="0 0 24 24" fill="none" xmlns="http://www.w3.org/2000/svg">
<g clip-path="url(#clip0_11_46915)">
<path d="M17.6569 14.8279L16.2429 13.4139L17.6569 11.9999C18.0283 11.6285 18.323 11.1875 18.524 10.7022C18.725 10.2169 18.8285 9.6967 18.8285 9.1714C18.8285 8.6461 18.725 8.12594 18.524 7.64063C18.323 7.15531 18.0283 6.71435 17.6569 6.3429C17.2855 5.97146 16.8445 5.67681 16.3592 5.47579C15.8739 5.27477 15.3537 5.1713 14.8284 5.1713C14.3031 5.1713 13.7829 5.27477 13.2976 5.47579C12.8123 5.67681 12.3713 5.97146 11.9999 6.3429L10.5859 7.7569L9.1719 6.3429L10.5859 4.9289C11.7142 3.81882 13.2355 3.19956 14.8183 3.206C16.4011 3.21245 17.9173 3.84408 19.0365 4.96331C20.1557 6.08255 20.7874 7.5987 20.7938 9.18152C20.8002 10.7643 20.181 12.2856 19.0709 13.4139L17.6569 14.8279ZM14.8279 17.6569L13.4139 19.0709C12.8584 19.6355 12.1967 20.0845 11.4668 20.3921C10.7369 20.6997 9.95332 20.8597 9.16128 20.8629C8.36925 20.8661 7.58441 20.7125 6.85204 20.4109C6.11967 20.1093 5.45427 19.6657 4.89421 19.1056C4.33415 18.5455 3.89052 17.8801 3.58891 17.1478C3.2873 16.4154 3.13368 15.6306 3.1369 14.8385C3.14013 14.0465 3.30014 13.2629 3.6077 12.533C3.91527 11.8032 4.3643 11.1414 4.9289 10.5859L6.3429 9.1719L7.7569 10.5859L6.3429 11.9999C5.97146 12.3713 5.67681 12.8123 5.47579 13.2976C5.27477 13.7829 5.1713 14.3031 5.1713 14.8284C5.1713 15.3537 5.27477 15.8739 5.47579 16.3592C5.67681 16.8445 5.97146 17.2855 6.3429 17.6569C6.71435 18.0283 7.15531 18.323 7.64063 18.524C8.12594 18.725 8.6461 18.8285 9.1714 18.8285C9.6967 18.8285 10.2169 18.725 10.7022 18.524C11.1875 18.323 11.6285 18.0283 11.9999 17.6569L13.4139 16.2429L14.8279 17.6569ZM14.8279 7.7569L16.2429 9.1719L9.1719 16.2419L7.7569 14.8279L14.8279 7.7579V7.7569ZM5.7749 2.2929L7.7069 1.7749L8.7419 5.6399L6.8109 6.1579L5.7749 2.2939V2.2929ZM15.2579 18.3609L17.1889 17.8429L18.2249 21.7069L16.2929 22.2249L15.2579 18.3609ZM2.2929 5.7749L6.1569 6.8109L5.6389 8.7419L1.7749 7.7069L2.2929 5.7749ZM18.3609 15.2579L22.2249 16.2929L21.7069 18.2249L17.8429 17.1889L18.3609 15.2579Z" fill="#09121F"/>
</g>
<defs>
<clipPath id="clip0_11_46915">
<rect width="24" height="24" fill="white"/>
</clipPath>
</defs>
</svg>
