<svg width="24" height="24" viewBox="0 0 24 24" fill="none" xmlns="http://www.w3.org/2000/svg">
<g clip-path="url(#clip0_11_53199)">
<path d="M11.9999 13.4139L9.44589 15.9679C9.94038 16.8066 10.112 17.7968 9.92866 18.7529C9.74528 19.7091 9.21948 20.5656 8.4498 21.1618C7.68012 21.758 6.71942 22.053 5.74778 21.9916C4.77613 21.9301 3.86025 21.5164 3.17182 20.828C2.48339 20.1395 2.06968 19.2237 2.00822 18.252C1.94677 17.2804 2.24181 16.3197 2.83802 15.55C3.43423 14.7803 4.29069 14.2545 5.24685 14.0711C6.20301 13.8878 7.19323 14.0594 8.03189 14.5539L10.5859 11.9999L4.56489 5.9799C4.37894 5.79416 4.23142 5.57358 4.13077 5.33078C4.03012 5.08799 3.97832 4.82773 3.97832 4.5649C3.97832 4.30207 4.03012 4.04182 4.13077 3.79902C4.23142 3.55623 4.37894 3.33565 4.56489 3.1499L11.9999 10.5869L19.4349 3.1519C19.8098 3.52696 20.0205 4.03557 20.0205 4.5659C20.0205 5.09623 19.8098 5.60485 19.4349 5.9799L13.4149 11.9999L15.9679 14.5539C16.8065 14.0594 17.7968 13.8878 18.7529 14.0711C19.7091 14.2545 20.5655 14.7803 21.1618 15.55C21.758 16.3197 22.053 17.2804 21.9916 18.252C21.9301 19.2237 21.5164 20.1395 20.828 20.828C20.1395 21.5164 19.2236 21.9301 18.252 21.9916C17.2804 22.053 16.3197 21.758 15.55 21.1618C14.7803 20.5656 14.2545 19.7091 14.0711 18.7529C13.8877 17.7968 14.0594 16.8066 14.5539 15.9679L11.9999 13.4139ZM5.99989 19.9999C6.53032 19.9999 7.03903 19.7892 7.4141 19.4141C7.78918 19.039 7.99989 18.5303 7.99989 17.9999C7.99989 17.4695 7.78918 16.9608 7.4141 16.5857C7.03903 16.2106 6.53032 15.9999 5.99989 15.9999C5.46946 15.9999 4.96075 16.2106 4.58568 16.5857C4.2106 16.9608 3.99989 17.4695 3.99989 17.9999C3.99989 18.5303 4.2106 19.039 4.58568 19.4141C4.96075 19.7892 5.46946 19.9999 5.99989 19.9999ZM17.9999 19.9999C18.5303 19.9999 19.039 19.7892 19.4141 19.4141C19.7892 19.039 19.9999 18.5303 19.9999 17.9999C19.9999 17.4695 19.7892 16.9608 19.4141 16.5857C19.039 16.2106 18.5303 15.9999 17.9999 15.9999C17.4695 15.9999 16.9607 16.2106 16.5857 16.5857C16.2106 16.9608 15.9999 17.4695 15.9999 17.9999C15.9999 18.5303 16.2106 19.039 16.5857 19.4141C16.9607 19.7892 17.4695 19.9999 17.9999 19.9999Z" fill="#09121F"/>
</g>
<defs>
<clipPath id="clip0_11_53199">
<rect width="24" height="24" fill="white"/>
</clipPath>
</defs>
</svg>
