<svg width="24" height="24" viewBox="0 0 24 24" fill="none" xmlns="http://www.w3.org/2000/svg">
<g clip-path="url(#clip0_11_54114)">
<path d="M7.53697 9.94997L4.65997 7.07597L2.18597 9.54997L0.771973 8.13597L7.13597 1.77197L8.54997 3.18597L6.07497 5.66097L8.95097 8.53697C10.4639 7.38356 12.3585 6.84819 14.2513 7.03925C16.1442 7.23031 17.8936 8.13354 19.1455 9.56603C20.3974 10.9985 21.0581 12.8532 20.9938 14.7546C20.9296 16.6559 20.1452 18.4618 18.7995 19.8065C17.4538 21.1512 15.6474 21.9343 13.746 21.9972C11.8447 22.0601 9.99042 21.3981 8.55882 20.1452C7.12721 18.8923 6.22522 17.1422 6.0355 15.2493C5.84578 13.3564 6.38249 11.4621 7.53697 9.94997Z" fill="#09121F"/>
</g>
<defs>
<clipPath id="clip0_11_54114">
<rect width="24" height="24" fill="white"/>
</clipPath>
</defs>
</svg>
