<svg width="24" height="24" viewBox="0 0 24 24" fill="none" xmlns="http://www.w3.org/2000/svg">
<g clip-path="url(#clip0_11_47989)">
<path d="M2.80794 1.39307L21.1919 19.7781L19.7779 21.1921L16.0309 17.4451L11.9999 21.4851L3.51994 12.9931C1.47994 10.7091 1.49194 7.24007 3.55394 4.97007L1.39294 2.80807L2.80794 1.39307ZM4.97994 11.6231L11.9999 18.6541L14.6169 16.0311L4.97194 6.38607C3.67794 7.88307 3.67194 10.1211 4.97994 11.6231ZM20.2429 4.75707C22.5049 7.02507 22.5829 10.6371 20.4789 12.9931L18.8439 14.6291L17.4299 13.2151L19.0199 11.6231C20.3939 10.0471 20.3189 7.66507 18.8269 6.17007C17.3269 4.66807 14.9069 4.60707 13.3369 6.01707L12.0019 7.21507L10.6659 6.01807C10.3159 5.70407 9.92494 5.46307 9.51094 5.29507L7.26094 3.04507C8.92894 2.83907 10.6679 3.33407 12.0009 4.52907C14.3499 2.42007 17.9799 2.49007 20.2429 4.75707Z" fill="#09121F"/>
</g>
<defs>
<clipPath id="clip0_11_47989">
<rect width="24" height="24" fill="white"/>
</clipPath>
</defs>
</svg>
