<svg width="24" height="24" viewBox="0 0 24 24" fill="none" xmlns="http://www.w3.org/2000/svg">
<g clip-path="url(#clip0_11_49274)">
<path d="M17.657 15.6572L12 21.3142L6.343 15.6572C5.22422 14.5384 4.46234 13.1129 4.15369 11.5611C3.84504 10.0092 4.00349 8.40071 4.60901 6.93893C5.21452 5.47714 6.2399 4.22774 7.55548 3.3487C8.87107 2.46967 10.4178 2.00049 12 2.00049C13.5822 2.00049 15.1289 2.46967 16.4445 3.3487C17.7601 4.22774 18.7855 5.47714 19.391 6.93893C19.9965 8.40071 20.155 10.0092 19.8463 11.5611C19.5377 13.1129 18.7758 14.5384 17.657 15.6572ZM5 22.0002H19V24.0002H5V22.0002Z" fill="#09121F"/>
</g>
<defs>
<clipPath id="clip0_11_49274">
<rect width="24" height="24" fill="white"/>
</clipPath>
</defs>
</svg>
