<svg width="24" height="24" viewBox="0 0 24 24" fill="none" xmlns="http://www.w3.org/2000/svg">
<g clip-path="url(#clip0_11_45428)">
<path d="M2.04995 13H4.06195C4.30598 14.9331 5.24703 16.7107 6.70852 17.9993C8.17002 19.2879 10.0515 19.9989 12 19.9989C13.9484 19.9989 15.8299 19.2879 17.2914 17.9993C18.7529 16.7107 19.6939 14.9331 19.938 13H21.951C21.4489 18.053 17.1849 22 12 22C6.81495 22 2.55095 18.053 2.04995 13ZM2.04995 11C2.54995 5.947 6.81395 2 12 2C17.186 2 21.449 5.947 21.95 11H19.938C19.6939 9.0669 18.7529 7.28927 17.2914 6.00068C15.8299 4.71208 13.9484 4.00108 12 4.00108C10.0515 4.00108 8.17002 4.71208 6.70852 6.00068C5.24703 7.28927 4.30598 9.0669 4.06195 11H2.04895H2.04995ZM12 14C11.4695 14 10.9608 13.7893 10.5857 13.4142C10.2107 13.0391 9.99995 12.5304 9.99995 12C9.99995 11.4696 10.2107 10.9609 10.5857 10.5858C10.9608 10.2107 11.4695 10 12 10C12.5304 10 13.0391 10.2107 13.4142 10.5858C13.7892 10.9609 14 11.4696 14 12C14 12.5304 13.7892 13.0391 13.4142 13.4142C13.0391 13.7893 12.5304 14 12 14Z" fill="#09121F"/>
</g>
<defs>
<clipPath id="clip0_11_45428">
<rect width="24" height="24" fill="white"/>
</clipPath>
</defs>
</svg>
