<svg width="24" height="24" viewBox="0 0 24 24" fill="none" xmlns="http://www.w3.org/2000/svg">
<g clip-path="url(#clip0_11_54334)">
<path d="M15.8601 18.0002L12.7071 14.8472C12.5196 14.6597 12.2653 14.5544 12.0001 14.5544C11.7349 14.5544 11.4806 14.6597 11.2931 14.8472L8.18009 17.9602C6.81358 17.819 5.50642 17.3284 4.3845 16.5356C3.26258 15.7428 2.3637 14.6744 1.77442 13.4335C1.18515 12.1925 0.925332 10.8207 1.02 9.45016C1.11466 8.07964 1.56062 6.75658 2.31492 5.6084C3.06921 4.46023 4.10644 3.52561 5.32671 2.89456C6.54698 2.26351 7.90918 1.95729 9.28212 2.0054C10.6551 2.0535 11.9925 2.4543 13.1656 3.1692C14.3387 3.8841 15.308 4.88901 15.9801 6.08716C16.799 5.94618 17.6382 5.97681 18.4446 6.17712C19.251 6.37743 20.007 6.74305 20.6647 7.25082C21.3224 7.75858 21.8675 8.39742 22.2654 9.12686C22.6633 9.8563 22.9054 10.6604 22.9763 11.4883C23.0472 12.3162 22.9453 13.1498 22.6772 13.9362C22.4091 14.7227 21.9805 15.4449 21.4187 16.0571C20.8569 16.6693 20.174 17.1581 19.4134 17.4926C18.6528 17.827 17.831 17.9999 17.0001 18.0002H15.8611H15.8601ZM10.2321 18.7322L12.0001 16.9642L13.7681 18.7322C14.1177 19.0818 14.3557 19.5273 14.4521 20.0122C14.5485 20.4971 14.499 20.9998 14.3097 21.4566C14.1205 21.9133 13.8001 22.3037 13.3889 22.5784C12.9778 22.8531 12.4945 22.9997 12.0001 22.9997C11.5057 22.9997 11.0223 22.8531 10.6112 22.5784C10.2001 22.3037 9.87969 21.9133 9.69046 21.4566C9.50122 20.9998 9.45167 20.4971 9.54808 20.0122C9.64449 19.5273 9.88253 19.0818 10.2321 18.7322Z" fill="#09121F"/>
</g>
<defs>
<clipPath id="clip0_11_54334">
<rect width="24" height="24" fill="white"/>
</clipPath>
</defs>
</svg>
