<svg width="24" height="24" viewBox="0 0 24 24" fill="none" xmlns="http://www.w3.org/2000/svg">
<g clip-path="url(#clip0_11_53604)">
<path d="M4.92888 13.2069L7.04988 15.3279L8.46388 13.9139L6.34388 11.7929L8.46388 9.67188L11.2929 12.4999L12.7069 11.0859L9.87988 8.25688L11.9999 6.13588L14.1209 8.25688L15.5359 6.84288L13.4139 4.72188L16.2429 1.89288C16.4304 1.70541 16.6847 1.6001 16.9499 1.6001C17.215 1.6001 17.4694 1.70541 17.6569 1.89288L22.6069 6.84288C22.7944 7.03041 22.8997 7.28472 22.8997 7.54988C22.8997 7.81505 22.7944 8.06936 22.6069 8.25688L7.75688 23.1069C7.56936 23.2944 7.31505 23.3997 7.04988 23.3997C6.78472 23.3997 6.53041 23.2944 6.34288 23.1069L1.39288 18.1569C1.20541 17.9694 1.1001 17.715 1.1001 17.4499C1.1001 17.1847 1.20541 16.9304 1.39288 16.7429L4.92888 13.2069Z" fill="#09121F"/>
</g>
<defs>
<clipPath id="clip0_11_53604">
<rect width="24" height="24" fill="white"/>
</clipPath>
</defs>
</svg>
