<svg width="24" height="24" viewBox="0 0 24 24" fill="none" xmlns="http://www.w3.org/2000/svg">
<g clip-path="url(#clip0_11_49664)">
<path d="M5.5001 19.9998C6.3281 19.9998 7.0001 20.6718 7.0001 21.4998C7.0001 22.3278 6.3281 22.9998 5.5001 22.9998C4.6721 22.9998 4.0001 22.3278 4.0001 21.4998C4.0001 20.6718 4.6721 19.9998 5.5001 19.9998ZM18.5001 19.9998C19.3281 19.9998 20.0001 20.6718 20.0001 21.4998C20.0001 22.3278 19.3281 22.9998 18.5001 22.9998C17.6721 22.9998 17.0001 22.3278 17.0001 21.4998C17.0001 20.6718 17.6721 19.9998 18.5001 19.9998ZM2.1721 1.75684L5.9991 5.58484V16.9998H20.0001V18.9998H5.0001C4.4481 18.9998 4.0001 18.5518 4.0001 17.9998V6.41284L0.756104 3.17184L2.1711 1.75684H2.1721ZM16.0001 2.99984C16.5521 2.99984 17.0001 3.44784 17.0001 3.99984V5.99984H19.9931C20.5501 5.99984 21.0001 6.45584 21.0001 6.99484V15.0048C21.0001 15.5548 20.5501 15.9998 19.9931 15.9998H8.0071C7.4501 15.9998 7.0001 15.5438 7.0001 15.0048V6.99484C7.0001 6.44484 7.4501 5.99984 8.0071 5.99984H10.9991L11.0001 3.99984C11.0001 3.44784 11.4481 2.99984 12.0001 2.99984H16.0001ZM10.0001 7.99984H9.0001V13.9998H10.0001V7.99984ZM16.0001 7.99984H12.0001V13.9998H16.0001V7.99984ZM19.0001 7.99984H18.0001V13.9998H19.0001V7.99984ZM15.0001 4.99984H13.0001V5.99984H15.0001V4.99984Z" fill="#09121F"/>
</g>
<defs>
<clipPath id="clip0_11_49664">
<rect width="24" height="24" fill="white"/>
</clipPath>
</defs>
</svg>
