<svg width="24" height="24" viewBox="0 0 24 24" fill="none" xmlns="http://www.w3.org/2000/svg">
<g clip-path="url(#clip0_11_54344)">
<path d="M6.02693 17.43C4.3023 16.7377 2.87235 15.4669 1.98243 13.8354C1.0925 12.204 0.798082 10.3137 1.14968 8.48885C1.50128 6.66404 2.47698 5.01847 3.90937 3.83448C5.34177 2.65049 7.14155 2.00191 8.99993 2C10.612 1.99991 12.1865 2.48665 13.5172 3.39648C14.848 4.30631 15.873 5.59682 16.4579 7.099C17.8655 6.96689 19.2699 7.38187 20.3796 8.25779C21.4893 9.13372 22.2191 10.4033 22.4175 11.8031C22.6159 13.2028 22.2676 14.6252 21.4451 15.775C20.6225 16.9248 19.3888 17.7137 17.9999 17.978C17.995 16.4376 17.3978 14.9581 16.332 13.846C15.2663 12.7338 13.8136 12.0741 12.2748 12.0035C10.736 11.933 9.22905 12.457 8.06597 13.4669C6.9029 14.4769 6.17282 15.8955 6.02693 17.429V17.43ZM12.9999 16.267L14.9639 15.133L15.9639 16.865L13.9999 18L15.9639 19.134L14.9639 20.866L12.9999 19.732V22H10.9999V19.732L9.03593 20.866L8.03593 19.134L9.99993 18L8.03593 16.866L9.03593 15.134L10.9999 16.268V14H12.9999V16.268V16.267Z" fill="#09121F"/>
</g>
<defs>
<clipPath id="clip0_11_54344">
<rect width="24" height="24" fill="white"/>
</clipPath>
</defs>
</svg>
