<svg width="24" height="24" viewBox="0 0 24 24" fill="none" xmlns="http://www.w3.org/2000/svg">
<g clip-path="url(#clip0_11_47999)">
<path d="M18.364 10.98C19.926 12.541 19.926 15.074 18.364 16.636L12.707 22.293C12.317 22.683 11.683 22.683 11.293 22.293L5.63598 16.636C4.07398 15.074 4.07398 12.541 5.63598 10.979C7.19798 9.417 9.73098 9.417 11.293 10.979L11.999 11.686L12.707 10.979C14.269 9.417 16.802 9.417 18.364 10.979V10.98ZM7.04998 12.392C6.26998 13.173 6.26998 14.44 7.04998 15.221L12 20.171L16.95 15.221C17.73 14.44 17.73 13.173 16.95 12.392C16.169 11.612 14.902 11.612 14.12 12.394L11.998 14.512L9.87798 12.392C9.09798 11.612 7.83098 11.612 7.04998 12.392ZM12 1C14.21 1 16 2.79 16 5C16 7.21 14.21 9 12 9C9.78998 9 7.99998 7.21 7.99998 5C7.99998 2.79 9.78998 1 12 1ZM12 3C10.895 3 9.99998 3.895 9.99998 5C9.99998 6.105 10.895 7 12 7C13.105 7 14 6.105 14 5C14 3.895 13.105 3 12 3Z" fill="#09121F"/>
</g>
<defs>
<clipPath id="clip0_11_47999">
<rect width="24" height="24" fill="white"/>
</clipPath>
</defs>
</svg>
