<svg width="24" height="24" viewBox="0 0 24 24" fill="none" xmlns="http://www.w3.org/2000/svg">
<g clip-path="url(#clip0_11_54349)">
<path d="M9.98404 5.05977C10.3897 4.28719 10.9468 3.6042 11.622 3.05152C12.2973 2.49884 13.0769 2.08778 13.9145 1.84285C14.752 1.59792 15.6303 1.52413 16.4969 1.62589C17.3636 1.72765 18.2009 2.00286 18.9589 2.43513C19.7169 2.8674 20.3801 3.44787 20.909 4.14194C21.4379 4.836 21.8216 5.62946 22.0373 6.47499C22.253 7.32052 22.2962 8.20083 22.1644 9.06342C22.0325 9.92601 21.7284 10.7532 21.27 11.4958C22.0722 12.2511 22.6289 13.23 22.8681 14.3055C23.1074 15.381 23.0181 16.5036 22.6118 17.5278C22.2056 18.5519 21.5011 19.4305 20.5896 20.0495C19.6782 20.6686 18.6018 20.9996 17.5 20.9998L9.00004 20.9988C7.90846 20.9979 6.8286 20.7737 5.82691 20.3399C4.82523 19.9061 3.92291 19.2719 3.17551 18.4764C2.4281 17.6808 1.85142 16.7407 1.48094 15.7139C1.11047 14.6871 0.954047 13.5954 1.0213 12.5059C1.08856 11.4164 1.37807 10.3521 1.87202 9.37871C2.36597 8.40528 3.05391 7.54323 3.89349 6.84563C4.73307 6.14802 5.70654 5.62962 6.75397 5.32232C7.80141 5.01502 8.90065 4.92533 9.98404 5.05877V5.05977ZM12.055 5.60377C13.0539 6.0178 13.9588 6.62938 14.7154 7.40181C15.472 8.17423 16.0648 9.09158 16.458 10.0988C17.5059 9.89793 18.5894 10.0046 19.578 10.4058C20.0416 9.41653 20.1295 8.29244 19.8252 7.24318C19.521 6.19393 18.8455 5.29117 17.9247 4.70332C17.0038 4.11548 15.9006 3.88268 14.8208 4.04836C13.741 4.21404 12.7583 4.76689 12.056 5.60377H12.055Z" fill="#09121F"/>
</g>
<defs>
<clipPath id="clip0_11_54349">
<rect width="24" height="24" fill="white"/>
</clipPath>
</defs>
</svg>
