<svg width="24" height="24" viewBox="0 0 24 24" fill="none" xmlns="http://www.w3.org/2000/svg">
<g clip-path="url(#clip0_11_50869)">
<path d="M17 4.0002V2.0682C16.9998 1.9731 17.0268 1.87994 17.0777 1.79963C17.1287 1.71932 17.2014 1.6552 17.2875 1.61479C17.3736 1.57437 17.4694 1.55934 17.5637 1.57146C17.658 1.58358 17.7469 1.62234 17.82 1.6832L21.94 5.1162C22.019 5.18204 22.0757 5.27062 22.1025 5.36987C22.1293 5.46912 22.1248 5.57422 22.0898 5.67086C22.0547 5.76749 21.9906 5.85096 21.9064 5.90989C21.8222 5.96882 21.7218 6.00036 21.619 6.0002H2V4.0002H17ZM2 18.0002H22V20.0002H2V18.0002ZM2 11.0002H22V13.0002H2V11.0002Z" fill="#09121F"/>
</g>
<defs>
<clipPath id="clip0_11_50869">
<rect width="24" height="24" fill="white"/>
</clipPath>
</defs>
</svg>
