<svg width="24" height="24" viewBox="0 0 24 24" fill="none" xmlns="http://www.w3.org/2000/svg">
<g clip-path="url(#clip0_11_53209)">
<path d="M9.44589 8.03189L11.9999 10.5859L18.7279 3.85789C19.1029 3.48295 19.6116 3.27232 20.1419 3.27232C20.6722 3.27232 21.1808 3.48295 21.5559 3.85789L9.44589 15.9679C9.94038 16.8065 10.112 17.7968 9.92866 18.7529C9.74528 19.7091 9.21948 20.5655 8.4498 21.1618C7.68012 21.758 6.71942 22.053 5.74778 21.9916C4.77613 21.9301 3.86025 21.5164 3.17182 20.828C2.48339 20.1395 2.06968 19.2236 2.00822 18.252C1.94677 17.2804 2.24181 16.3197 2.83802 15.55C3.43423 14.7803 4.29069 14.2545 5.24685 14.0711C6.20301 13.8877 7.19323 14.0594 8.03189 14.5539L10.5859 11.9999L8.03189 9.44589C7.19323 9.94038 6.20301 10.112 5.24685 9.92866C4.29069 9.74528 3.43423 9.21948 2.83802 8.4498C2.24181 7.68012 1.94677 6.71942 2.00822 5.74778C2.06968 4.77613 2.48339 3.86025 3.17182 3.17182C3.86025 2.48339 4.77613 2.06968 5.74778 2.00822C6.71942 1.94677 7.68012 2.24181 8.4498 2.83802C9.21948 3.43423 9.74528 4.29069 9.92866 5.24685C10.112 6.20301 9.94038 7.19323 9.44589 8.03189ZM14.8259 13.4119L21.5559 20.1419C21.1808 20.5168 20.6722 20.7275 20.1419 20.7275C19.6116 20.7275 19.1029 20.5168 18.7279 20.1419L13.4109 14.8259L14.8259 13.4109V13.4119ZM7.41389 16.5859C7.2294 16.3949 7.00871 16.2425 6.7647 16.1377C6.52069 16.0329 6.25825 15.9777 5.99269 15.9754C5.72713 15.9731 5.46377 16.0237 5.21798 16.1242C4.97219 16.2248 4.74888 16.3733 4.5611 16.5611C4.37331 16.7489 4.22481 16.9722 4.12425 17.218C4.02368 17.4638 3.97308 17.7271 3.97539 17.9927C3.9777 18.2582 4.03287 18.5207 4.13769 18.7647C4.2425 19.0087 4.39487 19.2294 4.58589 19.4139C4.96309 19.7782 5.4683 19.9798 5.99269 19.9752C6.51709 19.9707 7.01871 19.7603 7.38953 19.3895C7.76034 19.0187 7.97068 18.5171 7.97524 17.9927C7.97979 17.4683 7.77821 16.9631 7.41389 16.5859ZM7.41389 7.41389C7.60491 7.2294 7.75727 7.00871 7.86209 6.7647C7.96691 6.52069 8.02208 6.25825 8.02439 5.99269C8.0267 5.72713 7.97609 5.46377 7.87553 5.21798C7.77497 4.97219 7.62646 4.74888 7.43868 4.5611C7.25089 4.37331 7.02759 4.22481 6.7818 4.12425C6.536 4.02368 6.27265 3.97308 6.00709 3.97539C5.74153 3.9777 5.47909 4.03287 5.23508 4.13769C4.99107 4.2425 4.77038 4.39487 4.58589 4.58589C4.22157 4.96309 4.01998 5.4683 4.02454 5.99269C4.0291 6.51709 4.23944 7.01871 4.61025 7.38953C4.98107 7.76034 5.48269 7.97068 6.00709 7.97524C6.53148 7.97979 7.03668 7.77821 7.41389 7.41389Z" fill="#09121F"/>
</g>
<defs>
<clipPath id="clip0_11_53209">
<rect width="24" height="24" fill="white"/>
</clipPath>
</defs>
</svg>
