<svg width="24" height="24" viewBox="0 0 24 24" fill="none" xmlns="http://www.w3.org/2000/svg">
<g clip-path="url(#clip0_11_48654)">
<path d="M5.67996 7.31379L3.85996 13.2278L12 19.4418L20.14 13.2278L18.32 7.31379L16.643 10.9998H7.35596L5.68096 7.31379H5.67996ZM15.357 8.99979L18.245 2.64579C18.2785 2.57172 18.3337 2.50961 18.4034 2.46775C18.4731 2.42589 18.5539 2.40625 18.6351 2.41147C18.7162 2.41668 18.7938 2.44649 18.8576 2.49693C18.9213 2.54737 18.9682 2.61604 18.992 2.69379L22.359 13.6388C22.389 13.7364 22.3884 13.8408 22.3573 13.9381C22.3262 14.0353 22.266 14.1207 22.185 14.1828L12 21.9578L1.81596 14.1828C1.73488 14.1207 1.67475 14.0353 1.64364 13.9381C1.61253 13.8408 1.61195 13.7364 1.64196 13.6388L5.00896 2.69379C5.03271 2.61604 5.07959 2.54737 5.14335 2.49693C5.20711 2.44649 5.28473 2.41668 5.36586 2.41147C5.44699 2.40625 5.52779 2.42589 5.59748 2.46775C5.66717 2.50961 5.72245 2.57172 5.75596 2.64579L8.64396 8.99979H15.356H15.357Z" fill="#09121F"/>
</g>
<defs>
<clipPath id="clip0_11_48654">
<rect width="24" height="24" fill="white"/>
</clipPath>
</defs>
</svg>
