<svg width="24" height="24" viewBox="0 0 24 24" fill="none" xmlns="http://www.w3.org/2000/svg">
<g clip-path="url(#clip0_11_47629)">
<path d="M5 9.0002C5.26522 9.0002 5.51957 9.10556 5.70711 9.29309C5.89464 9.48063 6 9.73498 6 10.0002C7.57114 9.99789 9.09698 10.5265 10.33 11.5002H12.5C13.832 11.5002 15.03 12.0792 15.853 12.9992L19 13.0002C19.9453 12.9999 20.8712 13.2676 21.6705 13.7722C22.4698 14.2769 23.1097 14.9977 23.516 15.8512C21.151 18.9722 17.322 21.0002 13 21.0002C10.21 21.0002 7.85 20.3972 5.94 19.3422C5.87004 19.5353 5.74224 19.702 5.57402 19.8198C5.40579 19.9376 5.20534 20.0005 5 20.0002H2C1.73478 20.0002 1.48043 19.8948 1.29289 19.7073C1.10536 19.5198 1 19.2654 1 19.0002V10.0002C1 9.73498 1.10536 9.48063 1.29289 9.29309C1.48043 9.10556 1.73478 9.0002 2 9.0002H5ZM6.001 12.0002L6 17.0212L6.045 17.0542C7.84 18.3142 10.178 19.0002 13 19.0002C16.004 19.0002 18.799 17.8442 20.835 15.8702L20.968 15.7372L20.848 15.6372C20.3758 15.2674 19.8034 15.0479 19.205 15.0072L19 15.0002L16.888 14.9992C16.961 15.3212 17 15.6562 17 16.0002V17.0002H8V15.0002L14.79 14.9992L14.756 14.9212C14.5644 14.5207 14.2696 14.1785 13.9019 13.9297C13.5343 13.6808 13.107 13.5343 12.664 13.5052L12.5 13.5002H9.57C9.10531 13.0249 8.55027 12.6474 7.93752 12.3898C7.32477 12.1322 6.66669 11.9997 6.002 12.0002H6.001ZM4 11.0002H3V18.0002H4V11.0002ZM13.646 3.5752L14 3.9302L14.354 3.5762C14.5858 3.34242 14.8615 3.15673 15.1653 3.02978C15.469 2.90284 15.7949 2.83714 16.1241 2.83647C16.4533 2.83579 16.7795 2.90015 17.0837 3.02585C17.388 3.15155 17.6645 3.33612 17.8973 3.56895C18.13 3.80178 18.3145 4.07829 18.4401 4.38261C18.5657 4.68693 18.63 5.01306 18.6292 5.34229C18.6285 5.67151 18.5627 5.99734 18.4356 6.30107C18.3086 6.60481 18.1228 6.88046 17.889 7.1122L14 11.0002L10.11 7.1102C9.87622 6.87839 9.69053 6.60269 9.56358 6.29892C9.43664 5.99515 9.37094 5.6693 9.37027 5.34008C9.36959 5.01085 9.43396 4.68474 9.55965 4.38045C9.68535 4.07617 9.86992 3.79971 10.1027 3.56694C10.3356 3.33418 10.6121 3.14969 10.9164 3.02408C11.2207 2.89847 11.5469 2.8342 11.8761 2.83497C12.2053 2.83573 12.5311 2.90152 12.8349 3.02855C13.1386 3.15558 13.4143 3.34135 13.646 3.5752ZM11.526 4.9902C11.4431 5.07262 11.3917 5.18147 11.3808 5.29785C11.3698 5.41422 11.4 5.53075 11.466 5.6272L11.524 5.6962L14 8.1702L16.476 5.6962C16.5588 5.61347 16.61 5.5043 16.6206 5.38771C16.6312 5.27112 16.6006 5.15451 16.534 5.0582L16.476 4.9882C16.3931 4.90552 16.2839 4.85454 16.1673 4.84412C16.0507 4.83371 15.9342 4.86452 15.838 4.9312L15.768 4.9892L13.999 6.7572L12.232 4.9872L12.164 4.9312C12.0677 4.86465 11.9511 4.834 11.8345 4.8446C11.7179 4.8552 11.6087 4.90637 11.526 4.9892V4.9902Z" fill="#09121F"/>
</g>
<defs>
<clipPath id="clip0_11_47629">
<rect width="24" height="24" fill="white"/>
</clipPath>
</defs>
</svg>
