<svg width="24" height="24" viewBox="0 0 24 24" fill="none" xmlns="http://www.w3.org/2000/svg">
<g clip-path="url(#clip0_11_48619)">
<path d="M11.7511 21.997C6.53005 21.869 2.30105 17.74 2.01505 12.559L2.00305 12.246L11.7511 21.997ZM12.0001 2C13.6082 1.99884 15.1928 2.38599 16.6192 3.12853C18.0456 3.87107 19.2716 4.94705 20.1931 6.265L18.5551 7.413C17.7229 6.22462 16.5833 5.28479 15.2583 4.69405C13.9332 4.10331 12.4725 3.88387 11.0323 4.0592C9.59218 4.23453 8.22678 4.79804 7.08217 5.68946C5.93755 6.58087 5.05678 7.76666 4.53405 9.12L14.8801 19.466C16.0671 19.0067 17.1277 18.2714 17.9742 17.3209C18.8207 16.3704 19.4287 15.2321 19.7481 14H15.5001V12H22.0001C22.0001 16.726 18.7211 20.686 14.3151 21.73L2.26905 9.686C3.31405 5.28 7.27405 2 12.0001 2Z" fill="#09121F"/>
</g>
<defs>
<clipPath id="clip0_11_48619">
<rect width="24" height="24" fill="white"/>
</clipPath>
</defs>
</svg>
