<svg width="24" height="24" viewBox="0 0 24 24" fill="none" xmlns="http://www.w3.org/2000/svg">
<g clip-path="url(#clip0_11_48744)">
<path d="M11.102 7.81522L11.853 4.27922C11.9077 4.02226 12.0124 3.7786 12.1613 3.56213C12.3101 3.34566 12.5002 3.16064 12.7205 3.01763C12.9409 2.87463 13.1873 2.77643 13.4456 2.72866C13.7039 2.68089 13.9691 2.68448 14.226 2.73922L17.422 3.41922C17.7167 3.09204 18.111 2.87122 18.5439 2.79101C18.9768 2.7108 19.4241 2.77569 19.8164 2.9756C20.2087 3.17552 20.524 3.49929 20.7135 3.8967C20.903 4.29411 20.9561 4.74295 20.8645 5.1736C20.7729 5.60425 20.5418 5.99264 20.207 6.27853C19.8721 6.56443 19.4523 6.73184 19.0126 6.75482C18.573 6.77779 18.138 6.65504 17.7752 6.4056C17.4124 6.15616 17.142 5.79398 17.006 5.37522L13.81 4.69522L13.144 7.83022C14.928 7.96722 16.701 8.56022 18.307 9.53022C18.7843 9.26487 19.3216 9.12638 19.8676 9.128C20.4137 9.12963 20.9502 9.2713 21.4258 9.53947C21.9015 9.80765 22.3004 10.1934 22.5844 10.6597C22.8684 11.1261 23.0281 11.6575 23.048 12.2032V12.2242C23.0557 12.7133 22.9508 13.1977 22.7416 13.6398C22.5323 14.0819 22.2242 14.4701 21.841 14.7742C21.8393 14.8153 21.8366 14.8563 21.833 14.8972C21.833 18.8952 17.383 21.9272 12.034 21.9272C6.70204 21.9272 2.32604 18.9032 2.32904 14.9742C2.32467 14.9139 2.32134 14.8536 2.31904 14.7932C1.67315 14.3084 1.23504 13.5968 1.09299 12.8018C0.950939 12.0068 1.11551 11.1875 1.55354 10.509C1.99157 9.83057 2.67049 9.34334 3.45349 9.14556C4.23649 8.94778 5.06535 9.05414 5.77304 9.44322C7.38814 8.46986 9.21872 7.91062 11.102 7.81522ZM20.388 13.3412C20.796 13.1382 21.052 12.7212 21.049 12.2662C21.0386 12.0374 20.9625 11.8164 20.8298 11.6298C20.6971 11.4431 20.5135 11.2986 20.3008 11.2135C20.0881 11.1285 19.8554 11.1066 19.6306 11.1503C19.4058 11.1941 19.1983 11.3016 19.033 11.4602L18.448 12.0202L17.778 11.5652C16.163 10.4672 14.326 9.84022 12.548 9.80122H11.542C9.66704 9.83022 7.89104 10.4012 6.30504 11.4762L5.64204 11.9262L5.05804 11.3762C4.9321 11.258 4.78197 11.1686 4.61805 11.1141C4.45413 11.0597 4.28034 11.0415 4.10869 11.0608C3.93705 11.0802 3.77167 11.1366 3.62399 11.2262C3.47631 11.3158 3.34987 11.4364 3.25342 11.5797C3.15696 11.723 3.0928 11.8855 3.06537 12.0561C3.03794 12.2266 3.04791 12.4011 3.09457 12.5674C3.14123 12.7337 3.22348 12.8878 3.33562 13.0192C3.44777 13.1506 3.58712 13.256 3.74404 13.3282L4.37704 13.6182L4.32304 14.3132C4.31004 14.4832 4.31004 14.6522 4.32604 14.8972C4.32604 17.6072 7.68204 19.9272 12.034 19.9272C16.405 19.9272 19.833 17.5912 19.836 14.8212C19.8491 14.6521 19.8491 14.4823 19.836 14.3132L19.784 13.6412L20.388 13.3412ZM7.00004 13.5002C7.00004 13.1024 7.15807 12.7209 7.43938 12.4396C7.72068 12.1583 8.10221 12.0002 8.50004 12.0002C8.89786 12.0002 9.27939 12.1583 9.5607 12.4396C9.842 12.7209 10 13.1024 10 13.5002C10 13.898 9.842 14.2796 9.5607 14.5609C9.27939 14.8422 8.89786 15.0002 8.50004 15.0002C8.10221 15.0002 7.72068 14.8422 7.43938 14.5609C7.15807 14.2796 7.00004 13.898 7.00004 13.5002ZM14 13.5002C14 13.1024 14.1581 12.7209 14.4394 12.4396C14.7207 12.1583 15.1022 12.0002 15.5 12.0002C15.8979 12.0002 16.2794 12.1583 16.5607 12.4396C16.842 12.7209 17 13.1024 17 13.5002C17 13.898 16.842 14.2796 16.5607 14.5609C16.2794 14.8422 15.8979 15.0002 15.5 15.0002C15.1022 15.0002 14.7207 14.8422 14.4394 14.5609C14.1581 14.2796 14 13.898 14 13.5002ZM12.016 18.6032C10.619 18.6032 9.24904 18.2332 8.13404 17.3932C8.06668 17.3119 8.03209 17.2084 8.03703 17.1029C8.04197 16.9974 8.08609 16.8976 8.16075 16.8229C8.23542 16.7483 8.33525 16.7042 8.44072 16.6992C8.5462 16.6943 8.64972 16.7289 8.73104 16.7962C9.67604 17.4892 10.854 17.7862 12 17.7862C13.146 17.7862 14.33 17.5112 15.284 16.8272C15.3392 16.7734 15.4076 16.7351 15.4823 16.716C15.5569 16.697 15.6353 16.698 15.7095 16.7189C15.7837 16.7398 15.8511 16.7798 15.9049 16.835C15.9587 16.8902 15.997 16.9585 16.016 17.0332C16.0323 17.1081 16.0299 17.1858 16.0091 17.2595C15.9884 17.3333 15.9499 17.4008 15.897 17.4562C15.213 18.2532 13.413 18.6032 12.016 18.6032Z" fill="#09121F"/>
</g>
<defs>
<clipPath id="clip0_11_48744">
<rect width="24" height="24" fill="white"/>
</clipPath>
</defs>
</svg>
