<svg width="25" height="25" viewBox="0 0 25 25" fill="none" xmlns="http://www.w3.org/2000/svg">
<path fill-rule="evenodd" clip-rule="evenodd" d="M10.7347 16.8481H4.26172C3.70972 16.8481 3.26172 17.2951 3.26172 17.8481C3.26172 18.4011 3.70972 18.8481 4.26172 18.8481H10.7347C11.2867 18.8481 11.7347 18.4011 11.7347 17.8481C11.7347 17.2951 11.2867 16.8481 10.7347 16.8481Z" fill="black"/>
<path fill-rule="evenodd" clip-rule="evenodd" d="M17.5175 14.6274C15.1995 14.6274 14.2955 15.5304 14.2955 17.8494C14.2955 20.1684 15.1995 21.0714 17.5175 21.0714C19.8365 21.0714 20.7395 20.1684 20.7395 17.8494C20.7395 15.5304 19.8365 14.6274 17.5175 14.6274Z" fill="black"/>
<path fill-rule="evenodd" clip-rule="evenodd" d="M20.2386 6.35889H13.7676C13.2156 6.35889 12.7676 6.80589 12.7676 7.35889C12.7676 7.91189 13.2156 8.35889 13.7676 8.35889H20.2386C20.7906 8.35889 21.2386 7.91189 21.2386 7.35889C21.2386 6.80589 20.7906 6.35889 20.2386 6.35889Z" fill="black"/>
<path fill-rule="evenodd" clip-rule="evenodd" d="M6.98378 10.5805C9.30278 10.5805 10.2058 9.67747 10.2058 7.35747C10.2058 5.03947 9.30278 4.13647 6.98378 4.13647C4.66478 4.13647 3.76178 5.03947 3.76178 7.35747C3.76178 9.67747 4.66478 10.5805 6.98378 10.5805Z" fill="black"/>
</svg>
