<svg width="25" height="24" viewBox="0 0 25 24" fill="none" xmlns="http://www.w3.org/2000/svg">
<path fill-rule="evenodd" clip-rule="evenodd" d="M19.9177 4.94736L19.4897 4.33136L18.2577 5.18736L18.6857 5.80236C21.3027 9.57136 21.3027 14.4364 18.6857 18.1974L18.2577 18.8124L19.4887 19.6694L19.9177 19.0534C22.8497 14.8394 22.8497 9.17036 19.9177 4.94736Z" fill="black"/>
<path fill-rule="evenodd" clip-rule="evenodd" d="M17.2312 7.62266L16.8582 6.97166L15.5572 7.71666L15.9292 8.36766C17.2142 10.6127 17.2142 13.3967 15.9302 15.6337L15.5562 16.2837L16.8572 17.0307L17.2312 16.3807C18.7792 13.6837 18.7792 10.3277 17.2312 7.62266Z" fill="black"/>
<path fill-rule="evenodd" clip-rule="evenodd" d="M7.0788 7.56406H2.3848V8.06406C2.3828 10.6881 2.3828 13.3121 2.3848 15.9371V16.4361H7.0788L11.2048 20.0131H12.6678V3.98706H11.2048L7.0788 7.56406Z" fill="black"/>
</svg>
