<svg width="25" height="25" viewBox="0 0 25 25" fill="none" xmlns="http://www.w3.org/2000/svg">
<path fill-rule="evenodd" clip-rule="evenodd" d="M15.8277 13.2846H12.9997V16.1086C12.9997 16.5226 12.6637 16.8586 12.2497 16.8586C11.8357 16.8586 11.4997 16.5226 11.4997 16.1086V13.2846H8.6717C8.2577 13.2846 7.9217 12.9486 7.9217 12.5346C7.9217 12.1206 8.2577 11.7846 8.6717 11.7846H11.4997V8.96061C11.4997 8.54661 11.8357 8.21061 12.2497 8.21061C12.6637 8.21061 12.9997 8.54661 12.9997 8.96061V11.7846H15.8277C16.2417 11.7846 16.5777 12.1206 16.5777 12.5346C16.5777 12.9486 16.2417 13.2846 15.8277 13.2846ZM12.2497 2.29761C4.6907 2.29761 2.0127 4.97561 2.0127 12.5346C2.0127 20.0936 4.6907 22.7716 12.2497 22.7716C19.8077 22.7716 22.4867 20.0936 22.4867 12.5346C22.4867 4.97561 19.8077 2.29761 12.2497 2.29761Z" fill="black"/>
</svg>
