<svg width="25" height="24" viewBox="0 0 25 24" fill="none" xmlns="http://www.w3.org/2000/svg">
<path d="M21.2448 6.64697C21.2448 8.65831 19.6143 10.2888 17.6029 10.2888C15.5916 10.2888 13.9611 8.65831 13.9611 6.64697C13.9611 4.63564 15.5916 3.00513 17.6029 3.00513C19.6143 3.00513 21.2448 4.63564 21.2448 6.64697Z" fill="black"/>
<path d="M10.5386 6.64697C10.5386 8.65831 8.90806 10.2888 6.89673 10.2888C4.88539 10.2888 3.25488 8.65831 3.25488 6.64697C3.25488 4.63564 4.88539 3.00513 6.89673 3.00513C8.90806 3.00513 10.5386 4.63564 10.5386 6.64697Z" fill="black"/>
<path d="M21.2448 17.3532C21.2448 19.3645 19.6143 20.9951 17.6029 20.9951C15.5916 20.9951 13.9611 19.3645 13.9611 17.3532C13.9611 15.3419 15.5916 13.7114 17.6029 13.7114C19.6143 13.7114 21.2448 15.3419 21.2448 17.3532Z" fill="black"/>
<path d="M10.5386 17.3532C10.5386 19.3645 8.90806 20.9951 6.89673 20.9951C4.88539 20.9951 3.25488 19.3645 3.25488 17.3532C3.25488 15.3419 4.88539 13.7114 6.89673 13.7114C8.90806 13.7114 10.5386 15.3419 10.5386 17.3532Z" fill="black"/>
</svg>
