<svg width="24" height="24" viewBox="0 0 24 24" fill="none" xmlns="http://www.w3.org/2000/svg">
<path d="M10.195 18.6843C10.307 18.7463 10.429 18.7743 10.549 18.7743C10.817 18.7743 11.074 18.6313 11.21 18.3803C11.406 18.0153 11.271 17.5603 10.906 17.3643C9.0248 16.3493 6.19506 14.3576 5.44049 12.75L19.5005 12.75C19.9145 12.75 20.2505 12.414 20.2505 12C20.2505 11.586 19.9145 11.25 19.5005 11.25L5.4421 11.25C6.19909 9.64085 9.02614 7.65043 10.906 6.63529C11.271 6.43829 11.406 5.98429 11.21 5.61929C11.013 5.25529 10.556 5.12029 10.195 5.31529C9.534 5.67029 3.75 8.87929 3.75 12.0023C3.75 15.1213 9.534 18.3293 10.195 18.6843Z" fill="black"/>
</svg>
