<svg width="24" height="24" viewBox="0 0 24 24" fill="none" xmlns="http://www.w3.org/2000/svg">
<path fill-rule="evenodd" clip-rule="evenodd" d="M11.75 22.4999C11.336 22.4999 11 22.1639 11 21.7499V18.5889C11 18.1749 11.336 17.8389 11.75 17.8389C12.164 17.8389 12.5 18.1749 12.5 18.5889V21.7499C12.5 22.1639 12.164 22.4999 11.75 22.4999" fill="black"/>
<path fill-rule="evenodd" clip-rule="evenodd" d="M11.75 2.5C9.924 2.5 8.438 3.994 8.438 5.831V10.519C8.438 12.354 9.924 13.849 11.75 13.849C13.576 13.849 15.061 12.354 15.061 10.519V5.831C15.061 3.994 13.576 2.5 11.75 2.5M11.75 15.349C9.097 15.349 6.938 13.182 6.938 10.519V5.831C6.938 3.167 9.097 1 11.75 1C14.403 1 16.561 3.167 16.561 5.831V10.519C16.561 13.182 14.403 15.349 11.75 15.349" fill="black"/>
<path fill-rule="evenodd" clip-rule="evenodd" d="M11.75 19.3388C6.925 19.3388 3 15.3968 3 10.5508C3 10.1368 3.336 9.80078 3.75 9.80078C4.164 9.80078 4.5 10.1368 4.5 10.5508C4.5 14.5688 7.752 17.8388 11.75 17.8388C15.748 17.8388 19 14.5688 19 10.5508C19 10.1368 19.336 9.80078 19.75 9.80078C20.164 9.80078 20.5 10.1368 20.5 10.5508C20.5 15.3968 16.575 19.3388 11.75 19.3388" fill="black"/>
<path fill-rule="evenodd" clip-rule="evenodd" d="M15.8086 7.25586H13.8186C13.4046 7.25586 13.0686 6.91986 13.0686 6.50586C13.0686 6.09186 13.4046 5.75586 13.8186 5.75586H15.8086C16.2226 5.75586 16.5586 6.09186 16.5586 6.50586C16.5586 6.91986 16.2226 7.25586 15.8086 7.25586" fill="black"/>
<path fill-rule="evenodd" clip-rule="evenodd" d="M15.8105 10.5938H12.8205C12.4065 10.5938 12.0705 10.2578 12.0705 9.84375C12.0705 9.42975 12.4065 9.09375 12.8205 9.09375H15.8105C16.2245 9.09375 16.5605 9.42975 16.5605 9.84375C16.5605 10.2578 16.2245 10.5938 15.8105 10.5938" fill="black"/>
</svg>
