<svg width="25" height="24" viewBox="0 0 25 24" fill="none" xmlns="http://www.w3.org/2000/svg">
<path fill-rule="evenodd" clip-rule="evenodd" d="M22.0103 9.94168H19.9653V7.93668H18.4653V9.94168H16.4203V11.4417H18.4653V13.4467H19.9653V11.4417H22.0103V9.94168Z" fill="black"/>
<path fill-rule="evenodd" clip-rule="evenodd" d="M10.1537 14.3367H10.1007C6.35375 14.3367 3.62375 16.1777 2.60775 19.3907L2.48975 19.7647L2.82375 19.9687C4.78175 21.1627 7.22275 21.7677 10.0807 21.7677C10.1117 21.7687 10.1427 21.7687 10.1747 21.7677C13.0717 21.7677 15.4457 21.1787 17.4307 19.9687L17.7647 19.7647L17.6467 19.3907C16.6317 16.1777 13.9007 14.3367 10.1537 14.3367Z" fill="black"/>
<path fill-rule="evenodd" clip-rule="evenodd" d="M10.1275 12.1087C12.8505 12.1087 15.0655 9.89369 15.0655 7.17069C15.0655 4.44669 12.8505 2.23169 10.1275 2.23169C7.40445 2.23169 5.18945 4.44669 5.18945 7.17069C5.18945 9.89369 7.40445 12.1087 10.1275 12.1087Z" fill="black"/>
</svg>
