<svg width="24" height="24" viewBox="0 0 24 24" fill="none" xmlns="http://www.w3.org/2000/svg">
<path fill-rule="evenodd" clip-rule="evenodd" d="M14.8627 6.96017C14.4097 6.77217 13.9267 6.60617 13.4967 6.60617C13.1877 6.60617 12.9067 6.69117 12.6837 6.91517C12.2201 7.38058 11.9629 9.23922 11.9123 11.25L3.69551 11.25C3.28151 11.25 2.94551 11.586 2.94551 12C2.94551 12.414 3.28151 12.75 3.69551 12.75L11.9127 12.75C11.9642 14.7565 12.2215 16.609 12.6847 17.0732C13.2487 17.6362 14.1817 17.3492 14.9347 17.0392C16.5077 16.3882 21.0547 13.6412 21.0547 11.9932C21.0547 10.2922 16.3047 7.55717 14.8627 6.96017ZM13.6847 8.12517C14.9807 8.36517 19.0477 11.0362 19.5337 11.9952C19.0497 12.9912 14.9817 15.6862 13.7087 15.8842C13.2957 14.6302 13.3027 9.32717 13.6847 8.12517Z" fill="black"/>
</svg>
