<svg width="24" height="24" viewBox="0 0 24 24" fill="none" xmlns="http://www.w3.org/2000/svg">
<path d="M11.331 3.4751C2.60498 3.5571 2.60498 5.2891 2.60498 9.9411C5.26598 9.9411 5.26598 14.0551 2.60498 14.0551C2.60498 18.8231 2.60498 20.5251 12 20.5251C21.395 20.5251 21.395 18.8231 21.395 14.0551C18.734 14.0551 18.734 9.9411 21.395 9.9411C21.395 5.6281 21.395 3.8241 14.439 3.5201" stroke="black" stroke-width="1.5" stroke-linecap="round" stroke-linejoin="round"/>
<path d="M13.8972 12.8379C14.0382 12.2519 15.1752 12.0189 15.0002 11.3349C14.8242 10.6519 13.5612 11.0919 13.1542 10.7069C12.7482 10.3219 12.6832 9.23193 12.0002 9.23193C11.3172 9.23193 11.2522 10.3219 10.8462 10.7069C10.4392 11.0919 9.17619 10.6519 9.00019 11.3349C8.82519 12.0189 9.96219 12.2519 10.1032 12.8379C10.2432 13.4239 9.54919 14.2489 10.1422 14.6599C10.7362 15.0689 11.3752 14.1419 12.0002 14.1419C12.6252 14.1419 13.2642 15.0689 13.8582 14.6599" stroke="black" stroke-width="1.5" stroke-linecap="round" stroke-linejoin="round"/>
</svg>
