<svg width="24" height="24" viewBox="0 0 24 24" fill="none" xmlns="http://www.w3.org/2000/svg">
<path fill-rule="evenodd" clip-rule="evenodd" d="M12 3.5C7.313 3.5 3.5 7.313 3.5 12C3.5 16.687 7.313 20.5 12 20.5C16.687 20.5 20.5 16.687 20.5 12C20.5 7.313 16.687 3.5 12 3.5M12 22C6.486 22 2 17.514 2 12C2 6.486 6.486 2 12 2C17.514 2 22 6.486 22 12C22 17.514 17.514 22 12 22" fill="black"/>
<path fill-rule="evenodd" clip-rule="evenodd" d="M13.4424 16.2206C13.2514 16.2206 13.0594 16.1476 12.9134 16.0016L9.42642 12.5316C9.28542 12.3906 9.20642 12.1996 9.20642 11.9996C9.20642 11.8006 9.28542 11.6096 9.42642 11.4686L12.9134 7.99756C13.2064 7.70556 13.6804 7.70556 13.9734 7.99956C14.2664 8.29356 14.2644 8.76856 13.9714 9.06056L11.0194 11.9996L13.9714 14.9396C14.2644 15.2316 14.2664 15.7056 13.9734 15.9996C13.8274 16.1476 13.6344 16.2206 13.4424 16.2206" fill="black"/>
</svg>
