<svg width="24" height="24" viewBox="0 0 24 24" fill="none" xmlns="http://www.w3.org/2000/svg">
<path fill-rule="evenodd" clip-rule="evenodd" d="M3.66751 4.58512C3.66308 4.59174 3.66138 4.59428 3.66246 4.59235C3.64982 4.61482 3.63604 4.63661 3.62117 4.65765C3.4191 4.94345 3.09435 5.60277 3.33545 6.82373C3.58257 8.07511 4.43091 9.94247 6.67848 12.57C6.94773 12.8848 6.91083 13.3582 6.59606 13.6275C6.2813 13.8967 5.80786 13.8598 5.53861 13.5451C3.20021 10.8113 2.17966 8.71345 1.86387 7.11432C1.54559 5.50256 1.95138 4.43187 2.38209 3.81207C2.5378 3.56347 3.18137 2.65443 4.12081 1.99459C4.6346 1.63372 5.28532 1.31299 6.03001 1.2582C6.79857 1.20165 7.59137 1.43455 8.34504 2.05209L8.34698 2.05368L8.34698 2.05368C9.58861 3.07803 10.3478 3.92869 10.7492 4.69883C11.1746 5.51524 11.185 6.21696 11.0018 6.85075C10.9174 7.14298 10.7958 7.40726 10.6891 7.62927C10.665 7.67934 10.6419 7.72683 10.6198 7.77243C10.5367 7.94324 10.4666 8.08757 10.4053 8.24193C10.2662 8.59189 10.206 8.91473 10.3315 9.34333C10.4479 9.74084 10.22 10.1575 9.82252 10.2739C9.42501 10.3903 9.00838 10.1624 8.89196 9.76492C8.64593 8.92485 8.7886 8.24843 9.01127 7.68803C9.09534 7.47646 9.19638 7.26896 9.28182 7.09351C9.30122 7.05367 9.31982 7.01548 9.33723 6.97927C9.43881 6.768 9.51332 6.59866 9.56079 6.43438C9.64146 6.15517 9.65882 5.8523 9.41897 5.39209C9.15508 4.88575 8.5768 4.188 7.39343 3.21159C6.91658 2.8212 6.49857 2.72778 6.14008 2.75416C5.75748 2.78231 5.36474 2.95391 4.98296 3.22207C4.604 3.48824 4.27632 3.82129 4.03364 4.10653C3.82 4.35763 3.69421 4.54529 3.66751 4.58512Z" fill="black"/>
<path fill-rule="evenodd" clip-rule="evenodd" d="M11.0454 11.7937C11.3328 11.4953 11.8076 11.4864 12.1059 11.7738C13.2884 12.9129 14.018 13.1974 14.4779 13.2368C14.9157 13.2744 15.2416 13.117 15.7735 12.8601C15.8082 12.8434 15.8438 12.8262 15.8804 12.8086C16.4497 12.5347 17.221 12.1984 18.2292 12.5114C19.1657 12.802 20.177 13.6135 21.4425 15.1493L21.4437 15.1508C22.0633 15.9067 22.2981 16.7006 22.2422 17.4705C22.188 18.2166 21.8666 18.8677 21.5046 19.3813C20.8457 20.3163 19.939 20.9555 19.687 21.1134C18.9865 21.61 17.7252 22.0461 15.7907 21.4894C13.872 20.9372 11.2973 19.4132 7.87389 16.0325C7.57916 15.7415 7.57618 15.2666 7.86723 14.9719C8.15827 14.6772 8.63314 14.6742 8.92787 14.9652C12.2667 18.2624 14.6288 19.5941 16.2055 20.0479C17.744 20.4906 18.5301 20.0994 18.8314 19.8812C18.8546 19.8644 18.8787 19.849 18.9036 19.8349C18.9021 19.8358 18.9043 19.8344 18.9099 19.8306C18.9474 19.8057 19.1379 19.6793 19.3925 19.4639C19.6784 19.222 20.0121 18.8953 20.2785 18.5172C20.5469 18.1364 20.7184 17.7444 20.7461 17.3618C20.7722 17.0032 20.678 16.5831 20.2842 16.1024C19.0613 14.6185 18.2845 14.0991 17.7845 13.9439C17.3562 13.811 17.0429 13.9139 16.5306 14.1603C16.4862 14.1817 16.4396 14.2046 16.3909 14.2286C15.9085 14.4663 15.2192 14.8059 14.3497 14.7313C13.3858 14.6487 12.3461 14.0878 11.0653 12.8541C10.767 12.5668 10.7581 12.092 11.0454 11.7937Z" fill="black"/>
<path fill-rule="evenodd" clip-rule="evenodd" d="M21.0303 2.46967C21.3232 2.76256 21.3232 3.23744 21.0303 3.53033L2.53033 22.0303C2.23744 22.3232 1.76256 22.3232 1.46967 22.0303C1.17678 21.7374 1.17678 21.2626 1.46967 20.9697L19.9697 2.46967C20.2626 2.17678 20.7374 2.17678 21.0303 2.46967Z" fill="black"/>
</svg>
