<svg width="24" height="24" viewBox="0 0 24 24" fill="none" xmlns="http://www.w3.org/2000/svg">
<path fill-rule="evenodd" clip-rule="evenodd" d="M3.26172 17.2446C3.26172 16.8304 3.59751 16.4946 4.01172 16.4946H10.4842C10.8985 16.4946 11.2342 16.8304 11.2342 17.2446C11.2342 17.6588 10.8985 17.9946 10.4842 17.9946H4.01172C3.59751 17.9946 3.26172 17.6588 3.26172 17.2446Z" fill="black"/>
<path fill-rule="evenodd" clip-rule="evenodd" d="M14.6107 14.5883C15.2585 13.9407 16.2053 13.7734 17.2672 13.7734C18.3291 13.7734 19.2759 13.9407 19.9237 14.5883C20.5715 15.2359 20.739 16.1827 20.739 17.2452C20.739 18.3077 20.5715 19.2546 19.9237 19.9022C19.2759 20.5498 18.3291 20.717 17.2672 20.717C16.2053 20.717 15.2585 20.5498 14.6107 19.9022C13.9629 19.2546 13.7954 18.3077 13.7954 17.2452C13.7954 16.1827 13.9629 15.2359 14.6107 14.5883ZM15.6712 15.6491C15.4684 15.8519 15.2954 16.2659 15.2954 17.2452C15.2954 18.2245 15.4684 18.6386 15.6712 18.8414C15.8741 19.0442 16.2883 19.217 17.2672 19.217C18.2461 19.217 18.6603 19.0442 18.8632 18.8414C19.066 18.6386 19.239 18.2245 19.239 17.2452C19.239 16.2659 19.066 15.8519 18.8632 15.6491C18.6603 15.4462 18.2461 15.2734 17.2672 15.2734C16.2883 15.2734 15.8741 15.4462 15.6712 15.6491Z" fill="black"/>
<path fill-rule="evenodd" clip-rule="evenodd" d="M12.7671 6.75586C12.7671 6.34165 13.1029 6.00586 13.5171 6.00586H19.9887C20.4029 6.00586 20.7387 6.34165 20.7387 6.75586C20.7387 7.17007 20.4029 7.50586 19.9887 7.50586H13.5171C13.1029 7.50586 12.7671 7.17007 12.7671 6.75586Z" fill="black"/>
<path fill-rule="evenodd" clip-rule="evenodd" d="M4.07664 4.09787C4.72447 3.45022 5.67139 3.28271 6.73391 3.28271C7.79606 3.28271 8.74278 3.45024 9.39047 4.09794C10.0382 4.74564 10.2057 5.69236 10.2057 6.7545C10.2057 7.817 10.0382 8.76383 9.39041 9.41147C8.74264 10.0591 7.79586 10.2263 6.73391 10.2263C5.67159 10.2263 4.7246 10.0591 4.07671 9.41154C3.42872 8.76389 3.26123 7.81699 3.26123 6.7545C3.26123 5.69236 3.42876 4.74559 4.07664 4.09787ZM5.13716 5.15867C4.93415 5.36163 4.76123 5.77575 4.76123 6.7545C4.76123 7.73381 4.93419 8.14781 5.13709 8.3506C5.3401 8.5535 5.75445 8.72629 6.73391 8.72629C7.71286 8.72629 8.12698 8.55352 8.32988 8.35067C8.53275 8.14786 8.7057 7.7338 8.7057 6.7545C8.7057 5.77576 8.53279 5.36158 8.32981 5.1586C8.12684 4.95563 7.71266 4.78271 6.73391 4.78271C5.75465 4.78271 5.34023 4.95566 5.13716 5.15867Z" fill="black"/>
</svg>
