<svg width="24" height="24" viewBox="0 0 24 24" fill="none" xmlns="http://www.w3.org/2000/svg">
<path d="M9.90794 21.8288C6.09394 21.8288 2.83594 21.2518 2.83594 18.9418C2.83594 16.6318 6.07294 14.5308 9.90794 14.5308C13.7219 14.5308 16.9799 16.6118 16.9799 18.9208C16.9799 20.5468 15.3739 21.3248 13.0849 21.6428" stroke="black" stroke-width="1.5" stroke-linecap="round" stroke-linejoin="round"/>
<path d="M9.90803 2.1709C7.40503 2.1709 5.37503 4.1999 5.37503 6.7039C5.36603 9.1979 7.38203 11.2279 9.87603 11.2369H9.90803C12.411 11.2369 14.441 9.2069 14.441 6.7039C14.441 5.2059 13.715 3.8779 12.595 3.0529" stroke="black" stroke-width="1.5" stroke-linecap="round" stroke-linejoin="round"/>
<path d="M19.1172 8.1499V12.1599" stroke="black" stroke-width="1.5" stroke-linecap="round" stroke-linejoin="round"/>
<path d="M21.1642 10.1548H17.0742" stroke="black" stroke-width="1.5" stroke-linecap="round" stroke-linejoin="round"/>
</svg>
