<svg width="24" height="24" viewBox="0 0 24 24" fill="none" xmlns="http://www.w3.org/2000/svg">
<mask id="mask0_11_73758" style="mask-type:luminance" maskUnits="userSpaceOnUse" x="7" y="2" width="10" height="9">
<path fill-rule="evenodd" clip-rule="evenodd" d="M7.21088 2H16.2729V10.3057H7.21088V2Z" fill="white"/>
</mask>
<g mask="url(#mask0_11_73758)">
<path fill-rule="evenodd" clip-rule="evenodd" d="M15.5229 10.3058C15.1089 10.3058 14.7729 9.96976 14.7729 9.55576V6.52376C14.7729 4.85676 13.4179 3.49976 11.7509 3.49976C10.9399 3.52776 10.1799 3.80776 9.60588 4.37576C9.03188 4.94476 8.71388 5.70176 8.71088 6.50876V9.55576C8.71088 9.96976 8.37488 10.3058 7.96088 10.3058C7.54688 10.3058 7.21088 9.96976 7.21088 9.55576V6.52376C7.21588 5.29476 7.69088 4.16076 8.54988 3.31076C9.40788 2.45976 10.5599 2.03476 11.7539 1.99976C14.2449 1.99976 16.2729 4.02976 16.2729 6.52376V9.55576C16.2729 9.96976 15.9369 10.3058 15.5229 10.3058" fill="black"/>
</g>
<mask id="mask1_11_73758" style="mask-type:luminance" maskUnits="userSpaceOnUse" x="2" y="6" width="20" height="16">
<path fill-rule="evenodd" clip-rule="evenodd" d="M2 6.47461H21.4998V21.9996H2V6.47461Z" fill="white"/>
</mask>
<g mask="url(#mask1_11_73758)">
<path fill-rule="evenodd" clip-rule="evenodd" d="M7.00782 7.97461C5.07382 7.97461 3.49982 9.54661 3.49982 11.4796V16.9956C3.49982 18.9276 5.07382 20.4996 7.00782 20.4996H16.4918C18.4258 20.4996 19.9998 18.9276 19.9998 16.9956V11.4796C19.9998 9.54661 18.4258 7.97461 16.4918 7.97461H7.00782ZM16.4918 21.9996H7.00782C4.24682 21.9996 1.99982 19.7546 1.99982 16.9956V11.4796C1.99982 8.71961 4.24682 6.47461 7.00782 6.47461H16.4918C19.2538 6.47461 21.4998 8.71961 21.4998 11.4796V16.9956C21.4998 19.7546 19.2538 21.9996 16.4918 21.9996V21.9996Z" fill="black"/>
</g>
</svg>
