<svg width="24" height="24" viewBox="0 0 24 24" fill="none" xmlns="http://www.w3.org/2000/svg">
<path fill-rule="evenodd" clip-rule="evenodd" d="M12 3.5C7.313 3.5 3.5 7.313 3.5 12C3.5 16.687 7.313 20.5 12 20.5C16.687 20.5 20.5 16.687 20.5 12C20.5 7.313 16.687 3.5 12 3.5M12 22C6.486 22 2 17.514 2 12C2 6.486 6.486 2 12 2C17.514 2 22 6.486 22 12C22 17.514 17.514 22 12 22" fill="black"/>
<path fill-rule="evenodd" clip-rule="evenodd" d="M15.4717 14.1926C15.2797 14.1926 15.0867 14.1196 14.9407 13.9716L11.9997 11.0186L9.06068 13.9716C8.76868 14.2656 8.29368 14.2656 7.99968 13.9736C7.70668 13.6816 7.70468 13.2076 7.99768 12.9136L11.4687 9.42661C11.7497 9.14361 12.2497 9.14361 12.5317 9.42661L16.0027 12.9136C16.2947 13.2076 16.2937 13.6816 16.0007 13.9736C15.8547 14.1196 15.6627 14.1926 15.4717 14.1926" fill="black"/>
</svg>
