<svg width="25" height="25" viewBox="0 0 25 25" fill="none" xmlns="http://www.w3.org/2000/svg">
<path fill-rule="evenodd" clip-rule="evenodd" d="M19.8588 19.3518H13.4818C13.0678 19.3518 12.7318 19.6878 12.7318 20.1018C12.7318 20.5158 13.0678 20.8518 13.4818 20.8518H19.8588C20.2728 20.8518 20.6088 20.5158 20.6088 20.1018C20.6088 19.6878 20.2728 19.3518 19.8588 19.3518Z" fill="black"/>
<path fill-rule="evenodd" clip-rule="evenodd" d="M9.61691 8.34336C9.71636 8.2111 9.90412 8.18434 10.0366 8.28355L15.2165 12.164C15.3492 12.2634 15.3761 12.4516 15.2766 12.5842L10.4569 19.004C9.29688 20.554 7.54688 20.864 6.33688 20.864C5.58688 20.864 5.04688 20.744 4.98688 20.734C4.85688 20.704 4.73688 20.614 4.66688 20.494C4.59688 20.364 2.87688 17.304 4.79688 14.754L9.61691 8.34336Z" fill="black"/>
<path fill-rule="evenodd" clip-rule="evenodd" d="M17.2069 10.014L16.5369 10.9047C16.4374 11.0369 16.2497 11.0637 16.1173 10.9645L10.9364 7.08345C10.8041 6.98428 10.7769 6.79665 10.8758 6.66403L11.5469 5.76399C12.2369 4.83399 13.3069 4.34399 14.3869 4.34399C15.1269 4.34399 15.8669 4.57399 16.5069 5.05399C17.2569 5.62399 17.7469 6.45399 17.8869 7.38399C18.0169 8.32399 17.7769 9.25399 17.2069 10.014Z" fill="black"/>
</svg>
