<svg width="24" height="24" viewBox="0 0 24 24" fill="none" xmlns="http://www.w3.org/2000/svg">
<path d="M8.24072 15.8748C8.24072 16.2888 8.57672 16.6248 8.99072 16.6248C9.40472 16.6248 9.74072 16.2888 9.74072 15.8748V14.8367H10.815C11.229 14.8367 11.565 14.5007 11.565 14.0867C11.565 13.6727 11.229 13.3367 10.815 13.3367H9.74072V12.2998C9.74072 11.8858 9.40472 11.5498 8.99072 11.5498C8.57672 11.5498 8.24072 11.8858 8.24072 12.2998V13.3367H7.16699C6.75299 13.3367 6.41699 13.6727 6.41699 14.0867C6.41699 14.5007 6.75299 14.8367 7.16699 14.8367H8.24072V15.8748Z" fill="black"/>
<path d="M15.2128 13.1584H15.1108C14.6968 13.1584 14.3608 12.8224 14.3608 12.4084C14.3608 11.9944 14.6968 11.6584 15.1108 11.6584H15.2128C15.6268 11.6584 15.9628 11.9944 15.9628 12.4084C15.9628 12.8224 15.6268 13.1584 15.2128 13.1584Z" fill="black"/>
<path d="M16.8408 16.5706H16.9438C17.3578 16.5706 17.6938 16.2346 17.6938 15.8206C17.6938 15.4066 17.3578 15.0706 16.9438 15.0706H16.8408C16.4268 15.0706 16.0908 15.4066 16.0908 15.8206C16.0908 16.2346 16.4268 16.5706 16.8408 16.5706Z" fill="black"/>
<path fill-rule="evenodd" clip-rule="evenodd" d="M11.834 5.96885C4.35687 5.99997 1.70215 8.14861 1.70215 14.1325C1.70215 20.1595 4.39615 22.2965 12.0001 22.2965C19.6031 22.2965 22.2981 20.1595 22.2981 14.1325C22.2981 8.4713 19.9211 6.24286 13.334 5.99263V5.70137C13.313 4.19037 12.05 2.99137 10.564 2.98337H9.54902C9.53087 2.97863 9.51112 2.97399 9.49032 2.96911C9.38388 2.94414 9.24985 2.91269 9.16202 2.82737C9.05902 2.72637 9.00102 2.59137 9.00002 2.44737C8.99702 2.03437 8.66202 1.70337 8.25002 1.70337H8.24402C7.83002 1.70637 7.49702 2.04537 7.50002 2.45937C7.50402 3.00537 7.72202 3.51637 8.11202 3.89937C8.50202 4.28037 8.99402 4.46737 9.55602 4.48337H10.57C11.264 4.46637 11.825 5.03337 11.834 5.71137V5.96885ZM3.20215 14.1325C3.20215 9.02551 5.25715 7.46851 12.0001 7.46851C18.7421 7.46851 20.7981 9.02551 20.7981 14.1325C20.7981 19.2395 18.7421 20.7965 12.0001 20.7965C5.25715 20.7965 3.20215 19.2395 3.20215 14.1325Z" fill="black"/>
</svg>
