<svg width="24" height="24" viewBox="0 0 24 24" fill="none" xmlns="http://www.w3.org/2000/svg">
<path fill-rule="evenodd" clip-rule="evenodd" d="M5.30918 6.06032C4.0825 7.2869 3.5 9.33903 3.5 12.7755C3.5 16.2119 4.0825 18.264 5.30918 19.4906C6.53588 20.7172 8.58803 21.2995 12.024 21.2995C15.4605 21.2995 17.5129 20.7172 18.7397 19.4906C19.9665 18.264 20.549 16.2119 20.549 12.7755C20.549 9.33903 19.9665 7.28692 18.7397 6.06034C17.5129 4.83373 15.4605 4.25146 12.024 4.25146C8.58803 4.25146 6.53588 4.83372 5.30918 6.06032ZM4.24857 4.99961C5.92012 3.32821 8.50497 2.75146 12.024 2.75146C15.5435 2.75146 18.1286 3.3282 19.8003 4.99959C21.472 6.67101 22.049 9.2559 22.049 12.7755C22.049 16.295 21.472 18.8799 19.8003 20.5513C18.1286 22.2227 15.5435 22.7995 12.024 22.7995C8.50497 22.7995 5.92012 22.2227 4.24857 20.5513C2.57701 18.8799 2 16.295 2 12.7755C2 9.2559 2.57701 6.67103 4.24857 4.99961Z" fill="black"/>
<path fill-rule="evenodd" clip-rule="evenodd" d="M2.27539 9.32373C2.27539 8.90952 2.61118 8.57373 3.02539 8.57373H21.0334C21.4476 8.57373 21.7834 8.90952 21.7834 9.32373C21.7834 9.73794 21.4476 10.0737 21.0334 10.0737H3.02539C2.61118 10.0737 2.27539 9.73794 2.27539 9.32373Z" fill="black"/>
<path fill-rule="evenodd" clip-rule="evenodd" d="M15.6787 13.2607C15.6787 12.8465 16.0145 12.5107 16.4287 12.5107H16.4377C16.8519 12.5107 17.1877 12.8465 17.1877 13.2607C17.1877 13.675 16.8519 14.0107 16.4377 14.0107H16.4287C16.0145 14.0107 15.6787 13.675 15.6787 13.2607Z" fill="black"/>
<path fill-rule="evenodd" clip-rule="evenodd" d="M11.2793 13.2607C11.2793 12.8465 11.6151 12.5107 12.0293 12.5107H12.0383C12.4525 12.5107 12.7883 12.8465 12.7883 13.2607C12.7883 13.675 12.4525 14.0107 12.0383 14.0107H12.0293C11.6151 14.0107 11.2793 13.675 11.2793 13.2607Z" fill="black"/>
<path fill-rule="evenodd" clip-rule="evenodd" d="M6.87158 13.2607C6.87158 12.8465 7.20737 12.5107 7.62158 12.5107H7.63058C8.0448 12.5107 8.38058 12.8465 8.38058 13.2607C8.38058 13.675 8.0448 14.0107 7.63058 14.0107H7.62158C7.20737 14.0107 6.87158 13.675 6.87158 13.2607Z" fill="black"/>
<path fill-rule="evenodd" clip-rule="evenodd" d="M15.6787 17.1128C15.6787 16.6986 16.0145 16.3628 16.4287 16.3628H16.4377C16.8519 16.3628 17.1877 16.6986 17.1877 17.1128C17.1877 17.527 16.8519 17.8628 16.4377 17.8628H16.4287C16.0145 17.8628 15.6787 17.527 15.6787 17.1128Z" fill="black"/>
<path fill-rule="evenodd" clip-rule="evenodd" d="M11.2793 17.1128C11.2793 16.6986 11.6151 16.3628 12.0293 16.3628H12.0383C12.4525 16.3628 12.7883 16.6986 12.7883 17.1128C12.7883 17.527 12.4525 17.8628 12.0383 17.8628H12.0293C11.6151 17.8628 11.2793 17.527 11.2793 17.1128Z" fill="black"/>
<path fill-rule="evenodd" clip-rule="evenodd" d="M6.87158 17.1128C6.87158 16.6986 7.20737 16.3628 7.62158 16.3628H7.63058C8.0448 16.3628 8.38058 16.6986 8.38058 17.1128C8.38058 17.527 8.0448 17.8628 7.63058 17.8628H7.62158C7.20737 17.8628 6.87158 17.527 6.87158 17.1128Z" fill="black"/>
<path fill-rule="evenodd" clip-rule="evenodd" d="M16.0332 1.30005C16.4474 1.30005 16.7832 1.63584 16.7832 2.05005V5.31205C16.7832 5.72626 16.4474 6.06205 16.0332 6.06205C15.619 6.06205 15.2832 5.72626 15.2832 5.31205V2.05005C15.2832 1.63584 15.619 1.30005 16.0332 1.30005Z" fill="black"/>
<path fill-rule="evenodd" clip-rule="evenodd" d="M8.0249 1.30005C8.43912 1.30005 8.7749 1.63584 8.7749 2.05005V5.31205C8.7749 5.72626 8.43912 6.06205 8.0249 6.06205C7.61069 6.06205 7.2749 5.72626 7.2749 5.31205V2.05005C7.2749 1.63584 7.61069 1.30005 8.0249 1.30005Z" fill="black"/>
</svg>
