<svg width="24" height="24" viewBox="0 0 24 24" fill="none" xmlns="http://www.w3.org/2000/svg">
<path fill-rule="evenodd" clip-rule="evenodd" d="M8.70714 13.2929C9.09766 13.6834 9.09766 14.3166 8.70714 14.7071L4.41424 19H10V17C10 16.4477 10.4477 16 11 16C11.5523 16 12 16.4477 12 17V20C12 20.5523 11.5523 21 11 21H2.00003C1.59557 21 1.23093 20.7564 1.07615 20.3827C0.921369 20.009 1.00692 19.5789 1.29292 19.2929L7.29292 13.2929C7.68345 12.9024 8.31661 12.9024 8.70714 13.2929Z" fill="black"/>
<path fill-rule="evenodd" clip-rule="evenodd" d="M17.6629 2.923C18.2483 2.33764 19.0422 2.00879 19.87 2.00879C20.6978 2.00879 21.4917 2.33764 22.0771 2.923C22.6625 3.50837 22.9913 4.30229 22.9913 5.13011C22.9913 5.95793 22.6625 6.75185 22.0771 7.33722L11.7071 17.7072C11.3166 18.0977 10.6834 18.0977 10.2929 17.7072L7.29289 14.7072C7.10536 14.5197 7 14.2653 7 14.0001C7 13.7349 7.10536 13.4805 7.29289 13.293L17.6629 2.923ZM19.87 4.00879C19.5726 4.00879 19.2874 4.12693 19.0771 4.33722L9.41421 14.0001L11 15.5859L20.6629 5.923C20.8732 5.71272 20.9913 5.4275 20.9913 5.13011C20.9913 4.83272 20.8732 4.5475 20.6629 4.33722C20.4526 4.12693 20.1674 4.00879 19.87 4.00879Z" fill="black"/>
</svg>
