<svg width="24" height="24" viewBox="0 0 24 24" fill="none" xmlns="http://www.w3.org/2000/svg">
<path fill-rule="evenodd" clip-rule="evenodd" d="M11.6884 1.01793C12.9498 0.96172 14.2028 1.2477 15.3148 1.84556C16.4269 2.44343 17.3565 3.33093 18.0052 4.41406C18.654 5.49719 18.9978 6.73562 19.0001 7.99818L19.0001 8.00001C19.0001 9.4347 18.5169 10.7738 17.5475 11.8644C17.1806 12.2772 16.5485 12.3143 16.1357 11.9474C15.7229 11.5805 15.6857 10.9484 16.0527 10.5356C16.6831 9.8264 16.9999 8.96582 17.0001 8.00085C16.9982 7.09936 16.7527 6.21513 16.2895 5.44175C15.8261 4.66809 15.1621 4.03416 14.3677 3.60711C13.5734 3.18006 12.6784 2.9758 11.7775 3.01594C10.8765 3.05609 10.0032 3.33916 9.25006 3.83517C8.78882 4.13893 8.16866 4.01126 7.8649 3.55001C7.56114 3.08876 7.68881 2.4686 8.15006 2.16484C9.20451 1.47043 10.4271 1.07413 11.6884 1.01793Z" fill="black"/>
<path fill-rule="evenodd" clip-rule="evenodd" d="M1.29289 1.29289C1.68342 0.902369 2.31658 0.902369 2.70711 1.29289L22.7071 21.2929C23.0976 21.6834 23.0976 22.3166 22.7071 22.7071C22.3166 23.0976 21.6834 23.0976 21.2929 22.7071L1.29289 2.70711C0.902369 2.31658 0.902369 1.68342 1.29289 1.29289Z" fill="black"/>
<path fill-rule="evenodd" clip-rule="evenodd" d="M6.6721 5.3718C7.18471 5.57736 7.43361 6.15955 7.22805 6.67215C6.94897 7.36808 6.88974 8.13279 7.05834 8.86338C7.22694 9.59398 7.61527 10.2554 8.17109 10.7587C8.18334 10.7698 8.19532 10.7812 8.207 10.7928C8.96324 11.5491 9.72376 12.5202 9.98048 13.8038C10.0888 14.3454 9.73757 14.8722 9.19601 14.9805C8.65445 15.0888 8.12763 14.7376 8.01932 14.1961C7.87724 13.4857 7.44393 12.8614 6.809 12.2233C5.96082 11.448 5.36804 10.4332 5.10956 9.3131C4.84908 8.18436 4.94058 7.00292 5.37175 5.92774C5.57731 5.41514 6.1595 5.16623 6.6721 5.3718Z" fill="black"/>
<path fill-rule="evenodd" clip-rule="evenodd" d="M8 18C8 17.4477 8.44772 17 9 17H15C15.5523 17 16 17.4477 16 18C16 18.5523 15.5523 19 15 19H9C8.44772 19 8 18.5523 8 18Z" fill="black"/>
<path fill-rule="evenodd" clip-rule="evenodd" d="M9 22C9 21.4477 9.44772 21 10 21H14C14.5523 21 15 21.4477 15 22C15 22.5523 14.5523 23 14 23H10C9.44772 23 9 22.5523 9 22Z" fill="black"/>
</svg>
