<svg width="24" height="24" viewBox="0 0 24 24" fill="none" xmlns="http://www.w3.org/2000/svg">
<path fill-rule="evenodd" clip-rule="evenodd" d="M11 12C11 11.4477 11.4477 11 12 11H12.01C12.5623 11 13.01 11.4477 13.01 12C13.01 12.5523 12.5623 13 12.01 13H12C11.4477 13 11 12.5523 11 12Z" fill="black"/>
<path fill-rule="evenodd" clip-rule="evenodd" d="M5.60314 2.99762C6.64647 2.21835 7.8736 2.87913 8.35744 3.68551C8.36315 3.69504 8.36871 3.70466 8.3741 3.71437C8.8715 4.60968 9.76858 6.20453 10.8654 8.09897C11.0036 8.33768 11.037 8.62287 10.9578 8.88709C10.8787 9.15131 10.6939 9.37108 10.4472 9.49444C9.60847 9.91378 8.99994 10.8529 8.99994 12C8.99994 12.5523 8.55223 13 7.99994 13H2.99994C2.42562 13 1.89883 12.7631 1.53034 12.3946C1.17457 12.0389 0.904935 11.4869 1.00925 10.8591C1.35033 7.67364 3.107 4.84358 5.60314 2.99762ZM6.64366 4.71782C4.66003 6.24398 3.29429 8.50549 3.0059 11H7.09821C7.3125 9.92601 7.86753 8.97089 8.6673 8.29132C7.78979 6.76544 7.07529 5.49436 6.64366 4.71782Z" fill="black"/>
<path fill-rule="evenodd" clip-rule="evenodd" d="M18.4831 3.08747C21.0265 4.86221 22.6667 7.72645 22.9947 10.8971C22.9982 10.9313 23 10.9656 23 11C23 11.5272 22.8199 12.0443 22.4321 12.4321C22.0443 12.8199 21.5273 13 21 13H16C15.4477 13 15 12.5523 15 12C15 10.8659 14.3979 9.88979 13.4961 9.36377C13.264 9.22835 13.0961 9.00518 13.0304 8.74457C12.9646 8.48397 13.0066 8.20788 13.1467 7.97854C13.5813 7.26747 13.9958 6.56791 14.3759 5.92657C14.904 5.03543 15.3654 4.25666 15.7214 3.71553C15.9918 3.15788 16.5068 2.86384 16.9789 2.76941C17.464 2.67239 18.0292 2.75536 18.4831 3.08747ZM17.4144 4.78119C17.0779 5.28866 16.6559 6.0017 16.1458 6.86344C15.8947 7.28757 15.6223 7.74772 15.3283 8.23711C16.1218 8.94919 16.6857 9.91033 16.9022 11H20.9941C20.7024 8.45421 19.3897 6.19301 17.4144 4.78119Z" fill="black"/>
<path fill-rule="evenodd" clip-rule="evenodd" d="M9.14677 14.9786C9.4306 14.5141 10.0338 14.362 10.5039 14.6362C11.3926 15.1546 12.6075 15.1546 13.4962 14.6362C13.9663 14.362 14.5695 14.5141 14.8533 14.9786C15.9587 16.7873 16.8631 18.3945 17.3675 19.3022C17.9449 20.286 17.5794 21.5661 16.4991 22.0172C13.6445 23.3276 10.3556 23.3276 7.50105 22.0172C6.42073 21.5661 6.05515 20.286 6.63264 19.3022C7.13703 18.3945 8.04143 16.7873 9.14677 14.9786ZM10.4002 16.7701C9.53804 18.2081 8.83402 19.4587 8.40461 20.231C10.6903 21.2564 13.3098 21.2564 15.5955 20.231C15.1661 19.4587 14.4621 18.2081 13.5999 16.7701C12.5711 17.11 11.429 17.11 10.4002 16.7701Z" fill="black"/>
</svg>
