<svg width="24" height="24" viewBox="0 0 24 24" fill="none" xmlns="http://www.w3.org/2000/svg">
<path fill-rule="evenodd" clip-rule="evenodd" d="M14.0026 5.41517C13.6248 5.57955 13.2664 5.79103 12.9364 6.04651C12.0597 6.72535 11.4334 7.67637 11.1562 8.75C11.0182 9.28475 10.4727 9.60632 9.93799 9.46825C9.40324 9.33018 9.08167 8.78475 9.21974 8.25C9.60783 6.74692 10.4846 5.41549 11.712 4.46511C12.9395 3.51474 14.448 2.99935 16.0004 3C16.4048 3.00017 16.7693 3.24388 16.9239 3.61751C17.0786 3.99115 16.993 4.42116 16.7071 4.70711C16.099 5.31522 15.7573 6.14 15.7573 7C15.7573 7.42583 15.8412 7.84749 16.0042 8.24091C16.1671 8.63432 16.406 8.99179 16.7071 9.29289C17.0082 9.594 17.3657 9.83285 17.7591 9.99581C18.1525 10.1588 18.5742 10.2426 19 10.2426C19.86 10.2426 20.6848 9.90101 21.2929 9.29289C21.5789 9.00691 22.0089 8.92135 22.3826 9.07609C22.7563 9.23084 22.9999 9.59542 23 9.99986C23.0002 11.2288 22.6768 12.4361 22.0624 13.5004C21.448 14.5647 20.5643 15.4486 19.5 16.063C19.0217 16.3392 18.4101 16.1753 18.134 15.697C17.8578 15.2187 18.0217 14.6071 18.5 14.331C19.2602 13.8921 19.8914 13.2608 20.3303 12.5005C20.4245 12.3373 20.5091 12.1694 20.584 11.9976C20.0763 12.1586 19.5425 12.2426 19 12.2426C18.3115 12.2426 17.6298 12.107 16.9937 11.8436C16.3576 11.5801 15.7797 11.1939 15.2929 10.7071C14.8061 10.2203 14.4199 9.64234 14.1564 9.00627C13.893 8.37021 13.7573 7.68847 13.7573 7C13.7573 6.45723 13.8415 5.92314 14.0026 5.41517Z" fill="black"/>
<path fill-rule="evenodd" clip-rule="evenodd" d="M7.95852 13.1163C7.2237 12.9351 6.45256 12.9661 5.73466 13.2057C5.01676 13.4453 4.38157 13.8837 3.90285 14.4699C3.42413 15.056 3.12154 15.766 3.03021 16.5173C2.93888 17.2686 3.06257 18.0304 3.3869 18.7142C3.71124 19.398 4.22292 19.9758 4.8625 20.3804C5.50203 20.7849 6.24321 20.9998 6.99996 21C7.00003 21 7.0001 21 7.00016 21H13C13.5304 21 14.0391 20.7893 14.4142 20.4142C14.7892 20.0391 15 19.5304 15 19C15 18.4696 14.7892 17.9609 14.4142 17.5858C14.0391 17.2107 13.5304 17 13 17H11.9C11.4248 17 11.0152 16.6656 10.9202 16.2C10.7688 15.4585 10.4102 14.7751 9.88592 14.2292C9.36168 13.6834 8.69334 13.2975 7.95852 13.1163ZM5.1015 11.3086C6.17835 10.9492 7.33506 10.9027 8.43729 11.1745C9.53951 11.4462 10.542 12.0251 11.3284 12.8439C11.9221 13.4621 12.3742 14.1979 12.6578 15H13C14.0608 15 15.0782 15.4214 15.8284 16.1716C16.5785 16.9217 17 17.9391 17 19C17 20.0609 16.5785 21.0783 15.8284 21.8284C15.0782 22.5786 14.0608 23 13 23H6.99975C5.86452 22.9998 4.75264 22.6775 3.79326 22.0706C2.83388 21.4636 2.06637 20.597 1.57987 19.5713C1.09336 18.5456 0.907834 17.4029 1.04483 16.276C1.18182 15.149 1.63571 14.0841 2.35379 13.2048C3.07186 12.3255 4.02466 11.668 5.1015 11.3086Z" fill="black"/>
</svg>
