<svg width="24" height="24" viewBox="0 0 24 24" fill="none" xmlns="http://www.w3.org/2000/svg">
<path fill-rule="evenodd" clip-rule="evenodd" d="M9.65598 8.3717C10.1742 8.56275 10.4394 9.13771 10.2483 9.65589L6.88831 18.7692L11.5039 16.1317C11.8113 15.956 12.1888 15.956 12.4962 16.1317L17.1105 18.7685L16.8919 18.1762C16.7007 17.6581 16.9657 17.0831 17.4838 16.8918C18.0019 16.7006 18.577 16.9656 18.7682 17.4837L19.9382 20.6537C20.0838 21.0481 19.9671 21.4914 19.6463 21.7631C19.3254 22.0348 18.8689 22.0768 18.5039 21.8682L12 18.1517L5.49619 21.8682C5.13123 22.0768 4.6748 22.0348 4.35397 21.7632C4.03313 21.4917 3.91638 21.0484 4.06179 20.654L8.37179 8.96404C8.56284 8.44585 9.13779 8.18065 9.65598 8.3717Z" fill="black"/>
<path fill-rule="evenodd" clip-rule="evenodd" d="M12.0007 1C12.4197 1.00025 12.7941 1.26164 12.9387 1.65486L15.4687 8.53486C15.6593 9.05321 15.3936 9.62794 14.8752 9.81855C14.3569 10.0092 13.7822 9.74348 13.5916 9.22514L11.9984 4.89272L11.7682 5.51625C11.577 6.03437 11.002 6.29937 10.4839 6.10814C9.96573 5.91691 9.70073 5.34187 9.89196 4.82375L11.062 1.65375C11.207 1.2607 11.5817 0.999751 12.0007 1Z" fill="black"/>
<path fill-rule="evenodd" clip-rule="evenodd" d="M1.29289 1.29289C1.68342 0.902369 2.31658 0.902369 2.70711 1.29289L22.7071 21.2929C23.0976 21.6834 23.0976 22.3166 22.7071 22.7071C22.3166 23.0976 21.6834 23.0976 21.2929 22.7071L1.29289 2.70711C0.902369 2.31658 0.902369 1.68342 1.29289 1.29289Z" fill="black"/>
</svg>
