<svg width="24" height="24" viewBox="0 0 24 24" fill="none" xmlns="http://www.w3.org/2000/svg">
<path fill-rule="evenodd" clip-rule="evenodd" d="M3.20128 5.39831C3.39022 5.1475 3.686 5 4.00001 5H20C20.314 5 20.6098 5.1475 20.7987 5.39831C20.9877 5.64912 21.0478 5.97411 20.9612 6.27594L19.2001 12.4103C19.194 12.4538 19.1849 12.4971 19.1729 12.54C19.0553 12.9591 18.8043 13.3285 18.4577 13.592C18.1112 13.8555 17.6882 13.9987 17.2529 14C17.2519 14 17.251 14 17.25 14H6.75001C6.74571 14 6.74142 14 6.73712 13.9999C6.30524 13.9944 5.88676 13.8491 5.54428 13.586C5.20276 13.3235 4.95511 12.9579 4.83812 12.5435L3.03883 6.27594C2.95219 5.97411 3.01234 5.64912 3.20128 5.39831ZM17.2371 12C17.2377 11.998 17.2383 11.996 17.2388 11.9941L18.6725 7H5.32748L6.76118 11.9941C6.76175 11.996 6.76231 11.998 6.76287 12H17.2371Z" fill="black"/>
<path fill-rule="evenodd" clip-rule="evenodd" d="M8 12C8.55228 12 9 12.4477 9 13V22C9 22.5523 8.55228 23 8 23C7.44772 23 7 22.5523 7 22V13C7 12.4477 7.44772 12 8 12Z" fill="black"/>
<path fill-rule="evenodd" clip-rule="evenodd" d="M16 12C16.5523 12 17 12.4477 17 13V22C17 22.5523 16.5523 23 16 23C15.4477 23 15 22.5523 15 22V13C15 12.4477 15.4477 12 16 12Z" fill="black"/>
<path fill-rule="evenodd" clip-rule="evenodd" d="M8.85871 5.00993C9.40544 4.93183 9.91197 5.31173 9.99008 5.85846L10.9901 12.8585C11.0682 13.4052 10.6883 13.9117 10.1415 13.9898C9.59481 14.0679 9.08828 13.688 9.01018 13.1413L8.01018 6.1413C7.93207 5.59457 8.31197 5.08804 8.85871 5.00993Z" fill="black"/>
<path fill-rule="evenodd" clip-rule="evenodd" d="M15.1415 5.00993C15.6883 5.08804 16.0682 5.59457 15.9901 6.1413L14.9901 13.1413C14.912 13.688 14.4054 14.0679 13.8587 13.9898C13.312 13.9117 12.9321 13.4052 13.0102 12.8585L14.0102 5.85846C14.0883 5.31173 14.5948 4.93183 15.1415 5.00993Z" fill="black"/>
<path fill-rule="evenodd" clip-rule="evenodd" d="M12 1C12.5523 1 13 1.44772 13 2V6C13 6.55228 12.5523 7 12 7C11.4477 7 11 6.55228 11 6V2C11 1.44772 11.4477 1 12 1Z" fill="black"/>
<path fill-rule="evenodd" clip-rule="evenodd" d="M10 2C10 1.44772 10.4477 1 11 1H13C13.5523 1 14 1.44772 14 2C14 2.55228 13.5523 3 13 3H11C10.4477 3 10 2.55228 10 2Z" fill="black"/>
</svg>
