<svg width="24" height="24" viewBox="0 0 24 24" fill="none" xmlns="http://www.w3.org/2000/svg">
<path fill-rule="evenodd" clip-rule="evenodd" d="M8.58579 11.5858C8.96086 11.2107 9.46957 11 10 11H14C14.5304 11 15.0391 11.2107 15.4142 11.5858C15.7893 11.9609 16 12.4696 16 13V21C16 21.5523 15.5523 22 15 22C14.4477 22 14 21.5523 14 21V13L10 13L10 21C10 21.5523 9.55228 22 9 22C8.44772 22 8 21.5523 8 21V13C8 12.4696 8.21071 11.9609 8.58579 11.5858Z" fill="black"/>
<path fill-rule="evenodd" clip-rule="evenodd" d="M11.3567 3.23489L4.35973 9.23128C4.35799 9.23277 4.35625 9.23425 4.3545 9.23573C4.2434 9.32963 4.15412 9.44663 4.09289 9.57859C4.03167 9.71054 3.99997 9.85426 4 9.99973V19C4 19.2652 4.10536 19.5195 4.29289 19.7071C4.48043 19.8946 4.73478 20 5 20H19C19.2652 20 19.5196 19.8946 19.7071 19.7071C19.8946 19.5195 20 19.2652 20 19V9.99973C20 9.85426 19.9683 9.71054 19.9071 9.57859C19.8459 9.44663 19.7566 9.32963 19.6455 9.23573C19.6438 9.23425 19.642 9.23277 19.6403 9.23128L12.6433 3.23489C12.4632 3.08351 12.2354 3.00049 12 3.00049C11.7646 3.00049 11.5368 3.08351 11.3567 3.23489ZM10.0635 1.70921C10.605 1.25157 11.291 1.00049 12 1.00049C12.709 1.00049 13.395 1.25157 13.9365 1.70921C13.9382 1.71068 13.94 1.71217 13.9417 1.71366L20.9394 7.7107C21.2714 7.99197 21.5382 8.34209 21.7213 8.73678C21.905 9.13257 22.0001 9.56365 22 9.99997C22 10 22 10.0001 22 10.0002V19C22 19.7956 21.6839 20.5587 21.1213 21.1213C20.5587 21.6839 19.7957 22 19 22H5C4.20435 22 3.44129 21.6839 2.87868 21.1213C2.31607 20.5587 2 19.7956 2 19V10.0002C2 10.0001 2 10 2 9.99997C1.99993 9.56365 2.09503 9.13257 2.27868 8.73678C2.46183 8.34207 2.72865 7.99193 3.06061 7.71065L10.0583 1.71366C10.06 1.71217 10.0618 1.71068 10.0635 1.70921Z" fill="black"/>
</svg>
