<svg width="24" height="24" viewBox="0 0 24 24" fill="none" xmlns="http://www.w3.org/2000/svg">
<path fill-rule="evenodd" clip-rule="evenodd" d="M11.2368 2.21579C11.4679 2.07919 11.7315 2.00714 11.9999 2.00714C12.2684 2.00714 12.532 2.07919 12.7631 2.21579C12.9942 2.35238 13.1845 2.5485 13.3139 2.78367C13.3169 2.78906 13.3198 2.79448 13.3227 2.79993L16.2689 8.39294L20.5323 4.74055C20.5388 4.73502 20.5453 4.72956 20.5519 4.72419C20.7983 4.52386 21.1018 4.40684 21.4188 4.39C21.7359 4.37315 22.0501 4.45733 22.3162 4.63043C22.5824 4.80353 22.7868 5.05662 22.8999 5.35327C23.0131 5.6499 23.0292 5.9748 22.9459 6.28119C22.9456 6.28265 22.9452 6.28411 22.9447 6.28557L20.1109 16.531C19.9952 16.9503 19.746 17.3205 19.4009 17.5854C19.0559 17.8503 18.6339 17.9955 18.1989 17.999C18.1963 17.999 18.1936 17.999 18.1909 17.999H5.80994C5.80761 17.999 5.80528 17.999 5.80296 17.999C5.36763 17.9959 4.94518 17.8509 4.59974 17.586C4.25445 17.3212 4.00496 16.9509 3.88911 16.5315C3.88909 16.5314 3.88906 16.5314 3.88904 16.5313C3.88901 16.5312 3.88899 16.5311 3.88896 16.531L1.05611 6.28651C1.05571 6.28507 1.05532 6.28363 1.05492 6.28219C0.971675 5.97581 0.987789 5.65091 1.10095 5.35426C1.21411 5.05762 1.41847 4.80453 1.68463 4.63143C1.95078 4.45833 2.265 4.37415 2.58204 4.391C2.89909 4.40784 3.20261 4.52486 3.44892 4.72519C3.45556 4.73059 3.46212 4.73607 3.46861 4.74163L7.73097 8.39394L10.6771 2.79999C10.68 2.79453 10.683 2.78909 10.6859 2.78367C10.8154 2.5485 11.0057 2.35238 11.2368 2.21579ZM12 4.58023L14.5052 9.33604C14.5071 9.33965 14.509 9.34325 14.511 9.34684C14.6517 9.60636 14.8483 9.83149 15.0864 10.0061C15.3245 10.1807 15.5983 10.3003 15.8882 10.3566C16.178 10.4128 16.4767 10.4041 16.7628 10.3312C17.0489 10.2583 17.3154 10.1229 17.543 9.93484C17.5475 9.93107 17.552 9.92726 17.5565 9.92342L20.5798 7.33344L18.183 15.999H5.81691L3.421 7.33464L6.44326 9.92434C6.44778 9.92821 6.45233 9.93205 6.45692 9.93584C6.68452 10.1239 6.95093 10.2593 7.23705 10.3322C7.52316 10.4051 7.82186 10.4138 8.11172 10.3576C8.40158 10.3013 8.67539 10.1816 8.9135 10.0071C9.15162 9.83249 9.34813 9.60736 9.48892 9.34784C9.49088 9.34423 9.49281 9.34061 9.49472 9.33698L12 4.58023Z" fill="black"/>
<path fill-rule="evenodd" clip-rule="evenodd" d="M4 21C4 20.4477 4.44772 20 5 20H19C19.5523 20 20 20.4477 20 21C20 21.5523 19.5523 22 19 22H5C4.44772 22 4 21.5523 4 21Z" fill="black"/>
</svg>
