<svg width="24" height="24" viewBox="0 0 24 24" fill="none" xmlns="http://www.w3.org/2000/svg">
<path fill-rule="evenodd" clip-rule="evenodd" d="M10.7555 1.26998C11.1462 1.09183 11.5707 0.999634 12.0001 0.999634C12.4294 0.999634 12.8537 1.09178 13.2444 1.26984C13.2444 1.26986 13.2444 1.26987 13.2445 1.26989C13.2447 1.26998 13.2449 1.27007 13.2451 1.27017L21.8299 5.1778C22.182 5.33453 22.4814 5.58972 22.692 5.9127C22.9039 6.23762 23.0166 6.61712 23.0166 7.00499C23.0166 7.39286 22.9039 7.77236 22.692 8.09728C22.4814 8.42033 22.1819 8.67556 21.8296 8.83228L13.2551 12.7298C13.2549 12.7299 13.2548 12.7299 13.2546 12.73C12.8639 12.9082 12.4395 13.0003 12.0101 13.0003C11.5806 13.0003 11.1562 12.9081 10.7654 12.73C10.7654 12.7299 10.7653 12.7299 10.7653 12.7299C10.7652 12.7299 10.7651 12.7298 10.7651 12.7298L2.19005 8.82208C1.838 8.66533 1.53868 8.41019 1.32816 8.08728C1.11632 7.76236 1.00354 7.38286 1.00354 6.99499C1.00354 6.60712 1.11632 6.22762 1.32816 5.9027C1.53873 5.57972 1.83815 5.32453 2.19031 5.16779L10.7551 1.27017C10.7552 1.2701 10.7554 1.27004 10.7555 1.26998ZM12.0001 2.99963C11.8569 2.99963 11.7154 3.03039 11.5851 3.08981L3.01429 6.99018C3.01072 6.9918 3.00713 6.99341 3.00354 6.99499C3.00729 6.99665 3.01104 6.99832 3.01477 7.00002L11.5951 10.9102C11.7254 10.9696 11.8669 11.0003 12.0101 11.0003C12.1533 11.0003 12.2948 10.9696 12.4251 10.9102L21.0063 7.00962C21.0097 7.00806 21.0132 7.00652 21.0166 7.00499C21.013 7.0034 21.0094 7.00178 21.0058 7.00014L12.4151 3.08981C12.2848 3.03039 12.1433 2.99963 12.0001 2.99963Z" fill="black"/>
<path fill-rule="evenodd" clip-rule="evenodd" d="M1.08933 17.2369C1.31749 16.7339 1.91018 16.5112 2.41313 16.7394L11.5831 20.8994L11.585 20.9002C11.7153 20.9596 11.8568 20.9904 12 20.9904C12.1432 20.9904 12.2847 20.9596 12.415 20.9002L12.4169 20.8994L21.5869 16.7394C22.0898 16.5112 22.6825 16.7339 22.9107 17.2369C23.1388 17.7398 22.9161 18.3325 22.4131 18.5607L13.245 22.7198C13.2446 22.72 13.2442 22.7202 13.2438 22.7204C12.8533 22.8983 12.4291 22.9904 12 22.9904C11.5708 22.9904 11.1466 22.8983 10.7561 22.7204C10.7557 22.7202 10.7554 22.72 10.755 22.7198L1.58687 18.5607C1.08392 18.3325 0.861164 17.7398 1.08933 17.2369Z" fill="black"/>
<path fill-rule="evenodd" clip-rule="evenodd" d="M1.08933 12.2369C1.31749 11.7339 1.91018 11.5112 2.41313 11.7394L11.5831 15.8994L11.585 15.9002C11.7153 15.9596 11.8568 15.9904 12 15.9904C12.1432 15.9904 12.2847 15.9596 12.415 15.9002L12.4169 15.8994L21.5869 11.7394C22.0898 11.5112 22.6825 11.7339 22.9107 12.2369C23.1388 12.7398 22.9161 13.3325 22.4131 13.5607L13.245 17.7198C13.2446 17.72 13.2442 17.7202 13.2438 17.7204C12.8533 17.8983 12.4291 17.9904 12 17.9904C11.5708 17.9904 11.1466 17.8983 10.7561 17.7204C10.7557 17.7202 10.7554 17.72 10.755 17.7198L1.58687 13.5607C1.08392 13.3325 0.861164 12.7398 1.08933 12.2369Z" fill="black"/>
</svg>
