<svg width="24" height="24" viewBox="0 0 24 24" fill="none" xmlns="http://www.w3.org/2000/svg">
<path fill-rule="evenodd" clip-rule="evenodd" d="M11.8918 3.03849C10.0424 4.65181 7.32107 6.00008 5 6.00008V13.0001C5 15.236 5.77079 16.8611 6.98675 18.1065C8.22994 19.3797 9.98374 20.2998 11.9964 20.9949C12.004 20.9975 12.0115 21.0002 12.019 21.003C14.0241 20.3032 15.773 19.3815 17.0139 18.1084C18.2292 16.8614 19 15.236 19 13.0001V6.00008C16.6797 6.00008 13.9684 4.66254 12.1081 3.03842C12.0777 3.01337 12.0395 2.99963 12 2.99963C11.9605 2.99963 11.9223 3.01339 11.8918 3.03849ZM10.5904 1.51978C10.9834 1.18408 11.4832 0.999634 12 0.999634C12.5168 0.999634 13.0166 1.18408 13.4096 1.51978C13.4125 1.52225 13.4153 1.52474 13.4182 1.52724C15.0577 2.96065 17.3229 4.00008 19 4.00008C19.5304 4.00008 20.0391 4.2108 20.4142 4.58587C20.7893 4.96094 21 5.46965 21 6.00008V13.0001C21 15.7642 20.0208 17.8887 18.4461 19.5043C16.8987 21.092 14.8206 22.1444 12.6691 22.8944C12.6664 22.8953 12.6637 22.8963 12.6609 22.8972C12.2297 23.0433 11.7616 23.0379 11.334 22.882C9.1801 22.1372 7.10277 21.0881 5.55575 19.5037C3.97921 17.889 3 15.7642 3 13.0001V6.00008C3 5.46965 3.21071 4.96094 3.58579 4.58587C3.96086 4.2108 4.46957 4.00008 5 4.00008C6.67639 4.00008 8.95161 2.95131 10.5821 1.52697C10.5849 1.52456 10.5876 1.52216 10.5904 1.51978Z" fill="black"/>
<path fill-rule="evenodd" clip-rule="evenodd" d="M3.48726 4.55503C3.84898 4.13768 4.48054 4.09259 4.89789 4.4543L19.2879 16.9263C19.7052 17.288 19.7503 17.9196 19.3886 18.3369C19.0269 18.7543 18.3953 18.7994 17.978 18.4376L3.58799 5.96565C3.17064 5.60393 3.12554 4.97237 3.48726 4.55503Z" fill="black"/>
</svg>
