<svg width="24" height="24" viewBox="0 0 24 24" fill="none" xmlns="http://www.w3.org/2000/svg">
<path fill-rule="evenodd" clip-rule="evenodd" d="M13.3725 3.01218C12.7362 2.97163 12.0948 3.05099 11.4826 3.2494C10.5493 3.55182 9.72359 4.11788 9.10498 4.87926C8.48637 5.64063 8.10135 6.56478 7.99639 7.54016C7.89143 8.51553 8.07102 9.50044 8.51348 10.376C8.69134 10.728 8.64575 11.1516 8.39707 11.4576C8.1484 11.7637 7.74308 11.895 7.36217 11.793L3.01212 10.6275C2.97156 11.2638 3.05093 11.9052 3.24934 12.5174C3.55175 13.4506 4.11782 14.2764 4.87919 14.895C5.64057 15.5136 6.56472 15.8986 7.5401 16.0036C8.51547 16.1086 9.50038 15.929 10.3759 15.4865C10.7279 15.3087 11.1515 15.3542 11.4576 15.6029C11.7636 15.8516 11.895 16.2569 11.7929 16.6378L10.6274 20.9879C11.2637 21.0284 11.9051 20.9491 12.5174 20.7507C13.4506 20.4482 14.2763 19.8822 14.895 19.1208C15.5136 18.3594 15.8986 17.4353 16.0035 16.4599C16.1085 15.4845 15.9289 14.4996 15.4865 13.6241C15.3086 13.2721 15.3542 12.8485 15.6029 12.5424C15.8515 12.2364 16.2569 12.105 16.6378 12.2071L20.9878 13.3726C21.0284 12.7362 20.949 12.0949 20.7506 11.4826C20.4482 10.5494 19.8821 9.72365 19.1207 9.10504C18.3594 8.48643 17.4352 8.10141 16.4598 7.99645C15.4845 7.89149 14.4996 8.07108 13.624 8.51354C13.272 8.6914 12.8484 8.64581 12.5424 8.39713C12.2363 8.14846 12.105 7.74314 12.207 7.36223L13.3725 3.01218ZM10.866 1.3468C12.1665 0.925368 13.5612 0.889346 14.8817 1.24308C15.1379 1.31171 15.3563 1.4793 15.489 1.70899C15.6216 1.93867 15.6575 2.21163 15.5889 2.46782L14.6192 6.08704C15.2931 5.96151 15.9852 5.93383 16.6738 6.00793C18.033 6.1542 19.3209 6.69074 20.3819 7.5528C21.4429 8.41486 22.2318 9.56559 22.6532 10.8661C23.0746 12.1666 23.1106 13.5613 22.7569 14.8818C22.6883 15.138 22.5207 15.3564 22.291 15.489C22.0613 15.6217 21.7884 15.6576 21.5322 15.589L17.913 14.6193C18.0385 15.2932 18.0662 15.9852 17.9921 16.6739C17.8458 18.0331 17.3092 19.321 16.4472 20.382C15.5851 21.443 14.4344 22.2318 13.1339 22.6533C11.8334 23.0747 10.4387 23.1107 9.11821 22.757C8.86202 22.6883 8.64359 22.5208 8.51096 22.2911C8.37834 22.0614 8.34239 21.7884 8.41103 21.5322L9.3807 17.913C8.70679 18.0385 8.01475 18.0662 7.32611 17.9921C5.96688 17.8459 4.67904 17.3093 3.61802 16.4473C2.55701 15.5852 1.76818 14.4345 1.34674 13.134C0.925307 11.8335 0.889285 10.4388 1.24302 9.11827C1.31165 8.86208 1.47924 8.64365 1.70893 8.51102C1.93861 8.3784 2.21157 8.34246 2.46776 8.41109L6.08698 9.38076C5.96144 8.70685 5.93377 8.01481 6.00787 7.32617C6.15414 5.96694 6.69068 4.6791 7.55274 3.61808C8.4148 2.55707 9.56553 1.76824 10.866 1.3468Z" fill="black"/>
<path fill-rule="evenodd" clip-rule="evenodd" d="M12 11C12.5523 11 13 11.4477 13 12V12.01C13 12.5623 12.5523 13.01 12 13.01C11.4477 13.01 11 12.5623 11 12.01V12C11 11.4477 11.4477 11 12 11Z" fill="black"/>
</svg>
