<svg width="24" height="24" viewBox="0 0 24 24" fill="none" xmlns="http://www.w3.org/2000/svg">
<g clip-path="url(#clip0_11_30278)">
<path fill-rule="evenodd" clip-rule="evenodd" d="M13.7087 3.16145C12.5802 2.94146 11.4199 2.94146 10.2914 3.16145C9.7493 3.26713 9.22419 2.91335 9.11852 2.37127C9.01284 1.82919 9.36662 1.30408 9.9087 1.1984C11.2899 0.929146 12.7102 0.929146 14.0914 1.1984C14.6335 1.30408 14.9872 1.82919 14.8816 2.37127C14.7759 2.91335 14.2508 3.26713 13.7087 3.16145Z" fill="black"/>
<path fill-rule="evenodd" clip-rule="evenodd" d="M16.7715 3.14987C17.0809 2.69236 17.7026 2.57224 18.1601 2.88159C19.3291 3.67203 20.3343 4.68099 21.1204 5.85295C21.4281 6.31161 21.3057 6.93283 20.847 7.24048C20.3883 7.54813 19.7671 7.42571 19.4595 6.96705C18.817 6.00915 17.9953 5.18448 17.0398 4.53841C16.5823 4.22906 16.4622 3.60739 16.7715 3.14987Z" fill="black"/>
<path fill-rule="evenodd" clip-rule="evenodd" d="M21.6287 9.11852C22.1708 9.01284 22.6959 9.36662 22.8015 9.9087C23.0708 11.2899 23.0708 12.7102 22.8015 14.0914C22.6959 14.6335 22.1708 14.9872 21.6287 14.8816C21.0866 14.7759 20.7328 14.2508 20.8385 13.7087C21.0585 12.5802 21.0585 11.4199 20.8385 10.2914C20.7328 9.7493 21.0866 9.22419 21.6287 9.11852Z" fill="black"/>
<path fill-rule="evenodd" clip-rule="evenodd" d="M20.8501 16.7716C21.3076 17.081 21.4277 17.7026 21.1184 18.1601C20.3279 19.3292 19.319 20.3344 18.147 21.1205C17.6883 21.4281 17.0671 21.3057 16.7595 20.8471C16.4518 20.3884 16.5742 19.7672 17.0329 19.4595C17.9908 18.817 18.8155 17.9954 19.4615 17.0399C19.7709 16.5824 20.3926 16.4623 20.8501 16.7716Z" fill="black"/>
<path fill-rule="evenodd" clip-rule="evenodd" d="M9.11848 21.6289C9.22405 21.0868 9.74909 20.7329 10.2912 20.8385C11.4198 21.0582 12.5803 21.0582 13.7089 20.8385C14.251 20.7329 14.776 21.0868 14.8816 21.6289C14.9872 22.171 14.6333 22.696 14.0912 22.8016C12.7101 23.0705 11.29 23.0705 9.90889 22.8016C9.36679 22.696 9.01291 22.171 9.11848 21.6289Z" fill="black"/>
<path fill-rule="evenodd" clip-rule="evenodd" d="M3.15301 16.7595C3.61168 16.4519 4.23289 16.5743 4.54054 17.033C5.18306 17.9909 6.00468 18.8155 6.96019 19.4616C7.41771 19.771 7.53782 20.3926 7.22847 20.8501C6.91912 21.3077 6.29745 21.4278 5.83994 21.1184C4.67091 20.328 3.66568 19.319 2.87959 18.1471C2.57194 17.6884 2.69435 17.0672 3.15301 16.7595Z" fill="black"/>
<path fill-rule="evenodd" clip-rule="evenodd" d="M2.37139 9.11852C2.91347 9.22419 3.26725 9.7493 3.16157 10.2914C2.94158 11.4199 2.94158 12.5802 3.16157 13.7087C3.26725 14.2508 2.91347 14.7759 2.37139 14.8816C1.82931 14.9872 1.3042 14.6335 1.19853 14.0914C0.929268 12.7102 0.929268 11.2899 1.19853 9.9087C1.3042 9.36662 1.82931 9.01284 2.37139 9.11852Z" fill="black"/>
<path fill-rule="evenodd" clip-rule="evenodd" d="M7.24054 3.15295C7.54819 3.61161 7.42577 4.23283 6.96711 4.54048C6.00921 5.183 5.18454 6.00462 4.53847 6.96013C4.22912 7.41765 3.60745 7.53776 3.14993 7.22841C2.69242 6.91906 2.5723 6.29739 2.88165 5.83988C3.6721 4.67084 4.68105 3.66562 5.85301 2.87952C6.31167 2.57187 6.93289 2.69429 7.24054 3.15295Z" fill="black"/>
<path fill-rule="evenodd" clip-rule="evenodd" d="M10 12C10 10.8954 10.8954 10 12 10C13.1046 10 14 10.8954 14 12C14 13.1046 13.1046 14 12 14C10.8954 14 10 13.1046 10 12Z" fill="black"/>
</g>
<defs>
<clipPath id="clip0_11_30278">
<rect width="24" height="24" fill="white"/>
</clipPath>
</defs>
</svg>
