<svg width="24" height="24" viewBox="0 0 24 24" fill="none" xmlns="http://www.w3.org/2000/svg">
<path fill-rule="evenodd" clip-rule="evenodd" d="M8.91673 0.992049C9.44991 0.980936 9.97993 1.07655 10.4756 1.27327C10.9713 1.47 11.4226 1.76385 11.8031 2.13756C12.1836 2.51127 12.4854 2.95728 12.691 3.44937C12.8963 3.9409 13.0014 4.46849 13.0001 5.00117V18L13.0001 18.0011C12.9993 18.6845 12.8585 19.3605 12.5863 19.9874C12.314 20.6143 11.9162 21.1787 11.4173 21.6458C10.9184 22.1129 10.329 22.4727 9.68556 22.7031C9.04212 22.9335 8.35829 23.0295 7.67629 22.9853C6.9943 22.941 6.32861 22.7574 5.72035 22.4458C5.11209 22.1342 4.57417 21.7012 4.1398 21.1735C3.70544 20.6459 3.38387 20.0348 3.19493 19.378C3.06579 18.929 3.0005 18.4653 3.00008 18.0002C2.52421 17.6435 2.11438 17.2036 1.79128 16.7001C1.3513 16.0146 1.08549 15.2318 1.01698 14.4201C0.948473 13.6084 1.07934 12.7922 1.3982 12.0425C1.61488 11.5331 1.91391 11.0649 2.28171 10.656C2.11774 10.1892 2.02348 9.69918 2.00329 9.20191C1.9725 8.44389 2.11461 7.6888 2.41886 6.99383C2.7231 6.29886 3.1815 5.68224 3.75934 5.19066C4.14615 4.86159 4.5797 4.59434 5.04448 4.39692C5.085 4.12718 5.15311 3.86163 5.24814 3.6045C5.43301 3.10428 5.71605 2.64607 6.08061 2.25684C6.44516 1.8676 6.88386 1.55519 7.37092 1.33799C7.85798 1.12078 8.38355 1.00316 8.91673 0.992049ZM9.73785 3.13223C9.49001 3.03387 9.225 2.98606 8.95841 2.99161C8.69182 2.99717 8.42903 3.05598 8.1855 3.16458C7.94198 3.27319 7.72262 3.42939 7.54035 3.62401C7.35807 3.81863 7.21655 4.04773 7.12411 4.29784C7.03167 4.54795 6.99018 4.81403 7.00208 5.08041C7.02318 5.55299 6.71025 5.97571 6.2521 6.09352C5.81125 6.20687 5.40197 6.41905 5.05527 6.714C4.70857 7.00895 4.43353 7.37892 4.25098 7.7959C4.06843 8.21288 3.98317 8.66594 4.00164 9.12075C4.02011 9.57557 4.14184 10.0202 4.3576 10.421C4.58515 10.8437 4.48022 11.3685 4.10762 11.6712C3.72826 11.9794 3.42994 12.3756 3.23863 12.8254C3.04731 13.2752 2.96879 13.7649 3.0099 14.2519C3.051 14.739 3.21049 15.2086 3.47448 15.6199C3.73847 16.0313 4.09897 16.3719 4.52462 16.6122C4.87919 16.8123 5.07701 17.2074 5.02483 17.6112C4.97226 18.0179 5.00363 18.431 5.11699 18.8251C5.23035 19.2192 5.4233 19.5858 5.68391 19.9024C5.94453 20.219 6.26728 20.4788 6.63224 20.6658C6.9972 20.8527 7.39661 20.9629 7.80581 20.9895C8.21501 21.016 8.62531 20.9584 9.01136 20.8202C9.39742 20.6819 9.75105 20.466 10.0504 20.1858C10.3497 19.9055 10.5885 19.5669 10.7518 19.1908C10.9151 18.8148 10.9996 18.4094 11.0001 17.9995C11.0001 17.9993 11.0001 17.9991 11.0001 17.999V5.00002C11.0001 4.99904 11.0001 4.99806 11.0001 4.99707C11.0009 4.73043 10.9483 4.46632 10.8455 4.22027C10.7428 3.97423 10.5918 3.75122 10.4016 3.56437C10.2114 3.37752 9.98569 3.23059 9.73785 3.13223Z" fill="black"/>
<path fill-rule="evenodd" clip-rule="evenodd" d="M12.0545 8.00151C12.6059 8.03158 13.0286 8.503 12.9985 9.05447C12.9393 10.1406 12.5594 11.1848 11.9067 12.055C11.254 12.9252 10.358 13.5824 9.33188 13.9434C8.81089 14.1266 8.23997 13.8529 8.0567 13.3319C7.87342 12.8109 8.14719 12.24 8.66818 12.0567C9.32117 11.827 9.89137 11.4088 10.3067 10.855C10.722 10.3013 10.9638 9.63677 11.0015 8.94558C11.0316 8.39412 11.503 7.97144 12.0545 8.00151Z" fill="black"/>
<path fill-rule="evenodd" clip-rule="evenodd" d="M5.9621 4.12585C6.51392 4.10329 6.97955 4.53235 7.00211 5.08417C7.01529 5.40666 7.10633 5.72117 7.26744 6.00084C7.54313 6.47939 7.37868 7.09083 6.90012 7.36651C6.42157 7.6422 5.81014 7.47775 5.53445 6.9992C5.21222 6.43986 5.03015 5.81084 5.00378 5.16586C4.98122 4.61404 5.41028 4.14841 5.9621 4.12585Z" fill="black"/>
<path fill-rule="evenodd" clip-rule="evenodd" d="M4.93646 10.0148C5.20445 10.4977 5.03024 11.1064 4.54733 11.3744C4.39261 11.4603 4.24579 11.5597 4.10858 11.6714C3.68036 12.0202 3.05048 11.9558 2.70171 11.5275C2.35294 11.0993 2.41735 10.4694 2.84558 10.1207C3.07425 9.93441 3.31896 9.76877 3.57683 9.62566C4.05973 9.35766 4.66846 9.53187 4.93646 10.0148Z" fill="black"/>
<path fill-rule="evenodd" clip-rule="evenodd" d="M3.16189 16.9927C3.43322 16.5117 4.04313 16.3417 4.52417 16.613C4.97438 16.8669 5.48255 17.0002 5.99942 17C6.55171 16.9997 6.99963 17.4473 6.99989 17.9995C7.00015 18.5518 6.55264 18.9997 6.00036 19C5.13889 19.0004 4.29194 18.7782 3.54161 18.355C3.06057 18.0837 2.89056 17.4738 3.16189 16.9927Z" fill="black"/>
<path fill-rule="evenodd" clip-rule="evenodd" d="M11 13C11 12.4477 11.4477 12 12 12H16C16.5523 12 17 12.4477 17 13C17 13.5523 16.5523 14 16 14H12C11.4477 14 11 13.5523 11 13Z" fill="black"/>
<path fill-rule="evenodd" clip-rule="evenodd" d="M11 18C11 17.4477 11.4477 17 12 17H18C18.7957 17 19.5587 17.3161 20.1213 17.8787C20.6839 18.4413 21 19.2043 21 20V21C21 21.5523 20.5523 22 20 22C19.4477 22 19 21.5523 19 21V20C19 19.7348 18.8946 19.4804 18.7071 19.2929C18.5196 19.1054 18.2652 19 18 19H12C11.4477 19 11 18.5523 11 18Z" fill="black"/>
<path fill-rule="evenodd" clip-rule="evenodd" d="M11 8C11 7.44772 11.4477 7 12 7H20C20.5523 7 21 7.44772 21 8C21 8.55228 20.5523 9 20 9H12C11.4477 9 11 8.55228 11 8Z" fill="black"/>
<path fill-rule="evenodd" clip-rule="evenodd" d="M18 4C17.7348 4 17.4804 4.10536 17.2929 4.29289C17.1054 4.48043 17 4.73478 17 5V8C17 8.55228 16.5523 9 16 9C15.4477 9 15 8.55228 15 8V5C15 4.20435 15.3161 3.44129 15.8787 2.87868C16.4413 2.31607 17.2044 2 18 2C18.5523 2 19 2.44772 19 3C19 3.55228 18.5523 4 18 4Z" fill="black"/>
<path fill-rule="evenodd" clip-rule="evenodd" d="M16 13.5C16.2761 13.5 16.5 13.2761 16.5 13C16.5 12.7239 16.2761 12.5 16 12.5C15.7239 12.5 15.5 12.7239 15.5 13C15.5 13.2761 15.7239 13.5 16 13.5ZM14.5 13C14.5 12.1716 15.1716 11.5 16 11.5C16.8284 11.5 17.5 12.1716 17.5 13C17.5 13.8284 16.8284 14.5 16 14.5C15.1716 14.5 14.5 13.8284 14.5 13Z" fill="black"/>
<path fill-rule="evenodd" clip-rule="evenodd" d="M18 3.5C18.2761 3.5 18.5 3.27614 18.5 3C18.5 2.72386 18.2761 2.5 18 2.5C17.7239 2.5 17.5 2.72386 17.5 3C17.5 3.27614 17.7239 3.5 18 3.5ZM16.5 3C16.5 2.17157 17.1716 1.5 18 1.5C18.8284 1.5 19.5 2.17157 19.5 3C19.5 3.82843 18.8284 4.5 18 4.5C17.1716 4.5 16.5 3.82843 16.5 3Z" fill="black"/>
<path fill-rule="evenodd" clip-rule="evenodd" d="M20 21.5C20.2761 21.5 20.5 21.2761 20.5 21C20.5 20.7239 20.2761 20.5 20 20.5C19.7239 20.5 19.5 20.7239 19.5 21C19.5 21.2761 19.7239 21.5 20 21.5ZM18.5 21C18.5 20.1716 19.1716 19.5 20 19.5C20.8284 19.5 21.5 20.1716 21.5 21C21.5 21.8284 20.8284 22.5 20 22.5C19.1716 22.5 18.5 21.8284 18.5 21Z" fill="black"/>
<path fill-rule="evenodd" clip-rule="evenodd" d="M20 8.5C20.2761 8.5 20.5 8.27614 20.5 8C20.5 7.72386 20.2761 7.5 20 7.5C19.7239 7.5 19.5 7.72386 19.5 8C19.5 8.27614 19.7239 8.5 20 8.5ZM18.5 8C18.5 7.17157 19.1716 6.5 20 6.5C20.8284 6.5 21.5 7.17157 21.5 8C21.5 8.82843 20.8284 9.5 20 9.5C19.1716 9.5 18.5 8.82843 18.5 8Z" fill="black"/>
</svg>
