<svg width="24" height="24" viewBox="0 0 24 24" fill="none" xmlns="http://www.w3.org/2000/svg">
<path fill-rule="evenodd" clip-rule="evenodd" d="M13 14C13 13.4477 13.4477 13 14 13C14.7957 13 15.5587 13.3161 16.1213 13.8787C16.6839 14.4413 17 15.2043 17 16V20C17 20.7957 16.6839 21.5587 16.1213 22.1213C15.5587 22.6839 14.7957 23 14 23C13.4477 23 13 22.5523 13 22C13 21.4477 13.4477 21 14 21C14.2652 21 14.5196 20.8946 14.7071 20.7071C14.8946 20.5196 15 20.2652 15 20V16C15 15.7348 14.8946 15.4804 14.7071 15.2929C14.5196 15.1054 14.2652 15 14 15C13.4477 15 13 14.5523 13 14Z" fill="black"/>
<path fill-rule="evenodd" clip-rule="evenodd" d="M16 3C15.7348 3 15.4804 3.10536 15.2929 3.29289C15.1054 3.48043 15 3.73478 15 4C15 4.55228 14.5523 5 14 5C13.4477 5 13 4.55228 13 4C13 3.20435 13.3161 2.44129 13.8787 1.87868C14.4413 1.31607 15.2044 1 16 1C16.5523 1 17 1.44772 17 2C17 2.55228 16.5523 3 16 3Z" fill="black"/>
<path fill-rule="evenodd" clip-rule="evenodd" d="M14 7C14.5523 7 15 7.44772 15 8C15 8.26522 15.1054 8.51957 15.2929 8.70711C15.4804 8.89464 15.7348 9 16 9C16.5523 9 17 9.44772 17 10C17 10.5523 16.5523 11 16 11C15.2043 11 14.4413 10.6839 13.8787 10.1213C13.3161 9.55871 13 8.79565 13 8C13 7.44772 13.4477 7 14 7Z" fill="black"/>
<path fill-rule="evenodd" clip-rule="evenodd" d="M19 14C19 13.4477 19.4477 13 20 13C20.7957 13 21.5587 13.3161 22.1213 13.8787C22.6839 14.4413 23 15.2043 23 16V20C23 20.7957 22.6839 21.5587 22.1213 22.1213C21.5587 22.6839 20.7957 23 20 23C19.4477 23 19 22.5523 19 22C19 21.4477 19.4477 21 20 21C20.2652 21 20.5196 20.8946 20.7071 20.7071C20.8946 20.5196 21 20.2652 21 20V16C21 15.7348 20.8946 15.4804 20.7071 15.2929C20.5196 15.1054 20.2652 15 20 15C19.4477 15 19 14.5523 19 14Z" fill="black"/>
<path fill-rule="evenodd" clip-rule="evenodd" d="M19 2C19 1.44772 19.4477 1 20 1C20.7956 1 21.5587 1.31607 22.1213 1.87868C22.6839 2.44129 23 3.20435 23 4C23 4.55228 22.5523 5 22 5C21.4477 5 21 4.55228 21 4C21 3.73478 20.8946 3.48043 20.7071 3.29289C20.5196 3.10536 20.2652 3 20 3C19.4477 3 19 2.55228 19 2Z" fill="black"/>
<path fill-rule="evenodd" clip-rule="evenodd" d="M22 7C22.5523 7 23 7.44772 23 8C23 8.79565 22.6839 9.55871 22.1213 10.1213C21.5587 10.6839 20.7957 11 20 11C19.4477 11 19 10.5523 19 10C19 9.44772 19.4477 9 20 9C20.2652 9 20.5196 8.89464 20.7071 8.70711C20.8946 8.51957 21 8.26522 21 8C21 7.44772 21.4477 7 22 7Z" fill="black"/>
<path fill-rule="evenodd" clip-rule="evenodd" d="M2.29289 6.29289C2.68342 5.90237 3.31658 5.90237 3.70711 6.29289L6 8.58579L8.29289 6.29289C8.68342 5.90237 9.31658 5.90237 9.70711 6.29289C10.0976 6.68342 10.0976 7.31658 9.70711 7.70711L6.70711 10.7071C6.31658 11.0976 5.68342 11.0976 5.29289 10.7071L2.29289 7.70711C1.90237 7.31658 1.90237 6.68342 2.29289 6.29289Z" fill="black"/>
<path fill-rule="evenodd" clip-rule="evenodd" d="M9 3C8.46957 3 7.96086 3.21071 7.58579 3.58579C7.21071 3.96086 7 4.46957 7 5V10C7 10.5523 6.55228 11 6 11C5.44772 11 5 10.5523 5 10V5C5 3.93913 5.42143 2.92172 6.17157 2.17157C6.92172 1.42143 7.93913 1 9 1H10C10.5523 1 11 1.44772 11 2C11 2.55228 10.5523 3 10 3H9Z" fill="black"/>
<path fill-rule="evenodd" clip-rule="evenodd" d="M4 15C3.44772 15 3 15.4477 3 16V20C3 20.5523 3.44772 21 4 21H8C8.55228 21 9 20.5523 9 20V16C9 15.4477 8.55228 15 8 15H4ZM1 16C1 14.3431 2.34315 13 4 13H8C9.65685 13 11 14.3431 11 16V20C11 21.6569 9.65685 23 8 23H4C2.34315 23 1 21.6569 1 20V16Z" fill="black"/>
</svg>
