<svg width="24" height="24" viewBox="0 0 24 24" fill="none" xmlns="http://www.w3.org/2000/svg">
<path fill-rule="evenodd" clip-rule="evenodd" d="M11 12C11 11.4477 11.4477 11 12 11H12.01C12.5623 11 13.01 11.4477 13.01 12C13.01 12.5523 12.5623 13 12.01 13H12C11.4477 13 11 12.5523 11 12Z" fill="black"/>
<path fill-rule="evenodd" clip-rule="evenodd" d="M7.87868 1.87868C8.44129 1.31607 9.20435 1 10 1H14C14.7956 1 15.5587 1.31607 16.1213 1.87868C16.6839 2.44129 17 3.20435 17 4V6C17 6.55228 16.5523 7 16 7C15.4477 7 15 6.55228 15 6V4C15 3.73478 14.8946 3.48043 14.7071 3.29289C14.5196 3.10536 14.2652 3 14 3H10C9.73478 3 9.48043 3.10536 9.29289 3.29289C9.10536 3.48043 9 3.73478 9 4V6C9 6.55228 8.55228 7 8 7C7.44772 7 7 6.55228 7 6V4C7 3.20435 7.31607 2.44129 7.87868 1.87868Z" fill="black"/>
<path fill-rule="evenodd" clip-rule="evenodd" d="M1.16558 12.4491C1.46987 11.9882 2.09018 11.8612 2.55107 12.1655C5.3548 14.0165 8.64046 15.0033 12.0001 15.0033C15.3598 15.0033 18.6454 14.0165 21.4491 12.1655C21.91 11.8612 22.5303 11.9882 22.8346 12.4491C23.1389 12.91 23.012 13.5303 22.5511 13.8345C19.4204 15.9015 15.7516 17.0033 12.0001 17.0033C8.24866 17.0033 4.57984 15.9015 1.44915 13.8345C0.988249 13.5303 0.861292 12.91 1.16558 12.4491Z" fill="black"/>
<path fill-rule="evenodd" clip-rule="evenodd" d="M4 7C3.44772 7 3 7.44772 3 8V18C3 18.5523 3.44772 19 4 19H20C20.5523 19 21 18.5523 21 18V8C21 7.44772 20.5523 7 20 7H4ZM1 8C1 6.34315 2.34315 5 4 5H20C21.6569 5 23 6.34315 23 8V18C23 19.6569 21.6569 21 20 21H4C2.34315 21 1 19.6569 1 18V8Z" fill="black"/>
</svg>
