<svg width="24" height="24" viewBox="0 0 24 24" fill="none" xmlns="http://www.w3.org/2000/svg">
<path d="M7.83 1L7.8296 2L7.82921 3H16.1708C16.4321 2.99979 16.6966 3.10968 16.8808 3.295L18.2982 1.88399C17.74 1.323 16.9608 1 16.1696 1C16.1696 1 11.0868 1 7.83 1Z" fill="black"/>
<path fill-rule="evenodd" clip-rule="evenodd" d="M7.11921 3.295C7.30342 3.10968 7.56791 2.99979 7.82921 3L7.8296 2L7.83 1C7.03644 0.999586 6.26163 1.32141 5.70188 1.88391L5.70079 1.885L1.29289 6.29289C0.902369 6.68342 0.902369 7.31658 1.29289 7.70711C1.68342 8.09763 2.31658 8.09763 2.70711 7.70711C3.19719 7.21703 3.6877 6.72738 4.17822 6.23772C5.15971 5.25796 6.1412 4.2782 7.11921 3.295ZM16.8808 3.295L21.2929 7.70711C21.6834 8.09763 22.3166 8.09763 22.7071 7.70711C23.0976 7.31658 23.0976 6.68342 22.7071 6.29289L18.2992 1.885L18.2982 1.88399L16.8808 3.295Z" fill="black"/>
<path fill-rule="evenodd" clip-rule="evenodd" d="M4 11C4.55228 11 5 11.4477 5 12V20C5 20.537 5.46295 21 6 21H18C18.537 21 19 20.537 19 20V12C19 11.4477 19.4477 11 20 11C20.5523 11 21 11.4477 21 12V20C21 21.6416 19.6416 23 18 23H6C4.35838 23 3 21.6416 3 20V12C3 11.4477 3.44772 11 4 11Z" fill="black"/>
<path fill-rule="evenodd" clip-rule="evenodd" d="M8 18C8 16.3584 9.35838 15 11 15H13C14.6416 15 16 16.3584 16 18V22C16 22.5523 15.5523 23 15 23C14.4477 23 14 22.5523 14 22V18C14 17.463 13.537 17 13 17H11C10.463 17 10 17.463 10 18V22C10 22.5523 9.55228 23 9 23C8.44772 23 8 22.5523 8 22V18Z" fill="black"/>
<path fill-rule="evenodd" clip-rule="evenodd" d="M1 7C1 6.44772 1.44772 6 2 6H22C22.5523 6 23 6.44772 23 7C23 7.55228 22.5523 8 22 8H2C1.44772 8 1 7.55228 1 7Z" fill="black"/>
<path fill-rule="evenodd" clip-rule="evenodd" d="M2 6C2.55228 6 3 6.44772 3 7V10C3 10.5079 3.25282 10.7644 3.61096 10.8781C4.02904 11.0107 4.56741 10.9235 4.94615 10.6048C4.96497 10.589 4.98436 10.5739 5.00429 10.5595C5.59254 10.1344 6.40746 10.1344 6.99571 10.5595C7.01564 10.5739 7.03503 10.589 7.05385 10.6048C7.62808 11.088 8.37192 11.088 8.94615 10.6048C8.96497 10.589 8.98436 10.5739 9.00429 10.5595C9.59254 10.1344 10.4075 10.1344 10.9957 10.5595C11.0156 10.5739 11.035 10.589 11.0538 10.6048C11.6281 11.088 12.3719 11.088 12.9462 10.6048C12.965 10.589 12.9844 10.5739 13.0043 10.5595C13.5925 10.1344 14.4075 10.1344 14.9957 10.5595C15.0156 10.5739 15.035 10.589 15.0538 10.6048C15.6281 11.088 16.3719 11.088 16.9462 10.6048C16.965 10.589 16.9844 10.5739 17.0043 10.5595C17.5925 10.1344 18.4075 10.1344 18.9957 10.5595C19.0156 10.5739 19.035 10.589 19.0538 10.6048C19.4426 10.9319 19.9786 11.0136 20.3907 10.88C20.7476 10.7643 21 10.5035 21 10V7C21 6.44772 21.4477 6 22 6C22.5523 6 23 6.44772 23 7V10C23 11.4446 22.1162 12.4231 21.0074 12.7825C20.0403 13.096 18.9 12.947 18.001 12.3159C16.7856 13.1841 15.2156 13.1844 14 12.3166C12.7847 13.1841 11.2153 13.1841 10 12.3166C8.78432 13.1844 7.21423 13.1841 5.99879 12.3158C5.10834 12.9392 3.97135 13.0907 3.00601 12.7844C1.89349 12.4313 1 11.457 1 10V7C1 6.44772 1.44772 6 2 6Z" fill="black"/>
</svg>
