<svg width="24" height="24" viewBox="0 0 24 24" fill="none" xmlns="http://www.w3.org/2000/svg">
<path fill-rule="evenodd" clip-rule="evenodd" d="M14.0026 5.41517C13.6248 5.57955 13.2664 5.79103 12.9364 6.04651C12.0597 6.72535 11.4334 7.67637 11.1562 8.75C11.0182 9.28475 10.4727 9.60632 9.93799 9.46825C9.40324 9.33018 9.08167 8.78475 9.21974 8.25C9.60783 6.74692 10.4846 5.41549 11.712 4.46511C12.9395 3.51474 14.448 2.99935 16.0004 3C16.4048 3.00017 16.7693 3.24388 16.9239 3.61751C17.0786 3.99115 16.993 4.42116 16.7071 4.70711C16.099 5.31522 15.7573 6.14 15.7573 7C15.7573 7.42583 15.8412 7.84749 16.0042 8.24091C16.1671 8.63432 16.406 8.99179 16.7071 9.29289C17.0082 9.594 17.3657 9.83285 17.7591 9.99581C18.1525 10.1588 18.5742 10.2426 19 10.2426C19.86 10.2426 20.6848 9.90101 21.2929 9.29289C21.5789 9.00691 22.0089 8.92135 22.3826 9.07609C22.7563 9.23084 22.9999 9.59542 23 9.99986C23.0002 11.2288 22.6768 12.4361 22.0624 13.5004C21.448 14.5647 20.5643 15.4486 19.5 16.063C19.0217 16.3392 18.4101 16.1753 18.134 15.697C17.8578 15.2187 18.0217 14.6071 18.5 14.331C19.2602 13.8921 19.8914 13.2608 20.3303 12.5005C20.4245 12.3373 20.5091 12.1694 20.584 11.9976C20.0763 12.1586 19.5425 12.2426 19 12.2426C18.3115 12.2426 17.6298 12.107 16.9937 11.8436C16.3576 11.5801 15.7797 11.1939 15.2929 10.7071C14.8061 10.2203 14.4199 9.64234 14.1564 9.00627C13.893 8.37021 13.7573 7.68847 13.7573 7C13.7573 6.45723 13.8415 5.92314 14.0026 5.41517Z" fill="black"/>
<path fill-rule="evenodd" clip-rule="evenodd" d="M11 19C11.5523 19 12 19.4477 12 20V22C12 22.5523 11.5523 23 11 23C10.4477 23 10 22.5523 10 22V20C10 19.4477 10.4477 19 11 19Z" fill="black"/>
<path fill-rule="evenodd" clip-rule="evenodd" d="M7.10323 13.0032C6.50377 12.9879 5.90854 13.1076 5.36159 13.3534C4.81464 13.5993 4.32995 13.9649 3.94339 14.4233C3.55683 14.8818 3.27829 15.4212 3.12837 16.0019C2.97845 16.5825 2.96099 17.1894 3.07729 17.7776C3.19358 18.3659 3.44065 18.9205 3.80022 19.4004C4.13138 19.8424 4.04155 20.4691 3.59957 20.8003C3.15758 21.1315 2.53082 21.0416 2.19966 20.5996C1.66031 19.8798 1.2897 19.0479 1.11526 18.1655C0.940815 17.2831 0.967002 16.3728 1.19188 15.5018C1.41676 14.6309 1.83457 13.8217 2.41441 13.1341C2.99425 12.4464 3.72128 11.8979 4.54171 11.5292C5.36214 11.1605 6.25498 10.9809 7.15417 11.0038C8.05336 11.0268 8.9359 11.2515 9.73649 11.6616C10.5371 12.0716 11.2352 12.6564 11.7793 13.3727C12.1554 13.8678 12.4512 14.417 12.6575 15H12.9991C13.8102 14.999 14.6024 15.2445 15.2707 15.704C15.9392 16.1637 16.4521 16.8157 16.7414 17.5737C17.0307 18.3316 17.0827 19.1596 16.8904 19.9478C16.6982 20.7359 16.2709 21.447 15.6651 21.9867C15.2528 22.3541 14.6207 22.3176 14.2533 21.9052C13.8859 21.4928 13.9224 20.8607 14.3347 20.4934C14.6376 20.2235 14.8513 19.868 14.9474 19.4739C15.0435 19.0798 15.0175 18.6658 14.8729 18.2868C14.7282 17.9079 14.4718 17.5818 14.1375 17.352C13.8033 17.1222 13.407 16.9994 13.0014 17L11.8999 17C11.4249 17 11.0154 16.6658 10.9202 16.2004C10.8001 15.6129 10.5494 15.0599 10.1866 14.5824C9.82393 14.1049 9.3585 13.715 8.82477 13.4417C8.29105 13.1683 7.70269 13.0185 7.10323 13.0032Z" fill="black"/>
<path fill-rule="evenodd" clip-rule="evenodd" d="M7 18C7.55228 18 8 18.4477 8 19V21C8 21.5523 7.55228 22 7 22C6.44772 22 6 21.5523 6 21V19C6 18.4477 6.44772 18 7 18Z" fill="black"/>
</svg>
