<svg width="24" height="24" viewBox="0 0 24 24" fill="none" xmlns="http://www.w3.org/2000/svg">
<path fill-rule="evenodd" clip-rule="evenodd" d="M12 3C7.02944 3 3 7.02944 3 12C3 16.9706 7.02944 21 12 21C16.9706 21 21 16.9706 21 12C21 7.02944 16.9706 3 12 3ZM1 12C1 5.92487 5.92487 1 12 1C18.0751 1 23 5.92487 23 12C23 18.0751 18.0751 23 12 23C5.92487 23 1 18.0751 1 12Z" fill="black"/>
<path fill-rule="evenodd" clip-rule="evenodd" d="M11.9999 5C12.5522 5 12.9999 5.44772 12.9999 6V12C12.9999 12.4461 12.7044 12.8383 12.2756 12.9612C11.8468 13.0842 11.3883 12.9083 11.1519 12.53L8.65189 8.53C8.35918 8.06166 8.50155 7.44471 8.96989 7.152C9.43823 6.85929 10.0552 7.00166 10.3479 7.47L10.9999 8.5132V6C10.9999 5.44772 11.4476 5 11.9999 5Z" fill="black"/>
</svg>
