<svg width="24" height="24" viewBox="0 0 24 24" fill="none" xmlns="http://www.w3.org/2000/svg">
<path fill-rule="evenodd" clip-rule="evenodd" d="M3 1C3.55228 1 4 1.44772 4 2V7H9C9.55228 7 10 7.44772 10 8C10 8.55228 9.55228 9 9 9H3C2.44772 9 2 8.55228 2 8V2C2 1.44772 2.44772 1 3 1Z" fill="black"/>
<path fill-rule="evenodd" clip-rule="evenodd" d="M10.4579 2.1278C12.3645 1.83023 14.3165 2.09064 16.0783 2.87762C17.8402 3.66459 19.3368 4.94451 20.3875 6.563C21.4382 8.1815 21.9982 10.0694 22 11.9991C22.0005 12.5514 21.5532 12.9995 21.0009 13C20.4486 13.0005 20.0005 12.5532 20 12.0009C19.9986 10.4572 19.5506 8.94683 18.71 7.65204C17.8694 6.35725 16.6722 5.33331 15.2627 4.70373C13.8532 4.07415 12.2916 3.86582 10.7664 4.10388C9.24158 4.34185 7.81818 5.01577 6.66775 6.04438C6.66739 6.0447 6.66703 6.04502 6.66668 6.04534L3.66897 8.74328C3.25846 9.11274 2.62617 9.07946 2.25671 8.66895C1.88726 8.25844 1.92053 7.62615 2.33104 7.25669L5.33104 4.55669C5.33181 4.556 5.33257 4.55531 5.33334 4.55463C6.77162 3.26819 8.55137 2.42536 10.4579 2.1278Z" fill="black"/>
<path fill-rule="evenodd" clip-rule="evenodd" d="M14 16C14 15.4477 14.4477 15 15 15H21C21.5523 15 22 15.4477 22 16V22C22 22.5523 21.5523 23 21 23C20.4477 23 20 22.5523 20 22V17H15C14.4477 17 14 16.5523 14 16Z" fill="black"/>
<path fill-rule="evenodd" clip-rule="evenodd" d="M2.99909 11C3.55137 10.9995 3.9995 11.4468 4 11.9991C4.00141 13.5428 4.44942 15.0532 5.29 16.3479C6.13059 17.6427 7.32784 18.6667 8.73734 19.2963C10.1468 19.9258 11.7084 20.1342 13.2337 19.8961C14.7584 19.6581 16.1818 18.9842 17.3322 17.9557C17.3326 17.9553 17.333 17.955 17.3333 17.9546L20.331 15.2567C20.7415 14.8872 21.3738 14.9205 21.7433 15.331C22.1128 15.7415 22.0795 16.3738 21.669 16.7433L18.669 19.4433L18.6667 19.4454C17.2284 20.7318 15.4486 21.5746 13.5421 21.8722C11.6355 22.1698 9.68356 21.9093 7.92168 21.1224C6.1598 20.3354 4.66324 19.0555 3.61251 17.437C2.56178 15.8185 2.00176 13.9306 2 12.0009C1.9995 11.4486 2.4468 11.0005 2.99909 11Z" fill="black"/>
<path fill-rule="evenodd" clip-rule="evenodd" d="M10 12C10 10.8954 10.8954 10 12 10C13.1046 10 14 10.8954 14 12C14 13.1046 13.1046 14 12 14C10.8954 14 10 13.1046 10 12Z" fill="black"/>
</svg>
