<svg width="24" height="24" viewBox="0 0 24 24" fill="none" xmlns="http://www.w3.org/2000/svg">
<path fill-rule="evenodd" clip-rule="evenodd" d="M8.38965 4.11724C8.24203 4.03862 8.07705 3.99829 7.9098 3.99993C7.90654 3.99996 7.90327 3.99997 7.9 3.99997H4C3.73478 3.99997 3.48043 4.10533 3.29289 4.29287C3.10536 4.4804 3 4.73476 3 4.99997V18C3 18.2652 3.10536 18.5195 3.29289 18.7071C3.48043 18.8946 3.73478 19 4 19H9C9.55228 19 10 19.4477 10 20C10 20.5523 9.55228 21 9 21H4C3.20435 21 2.44129 20.6839 1.87868 20.1213C1.31607 19.5587 1 18.7956 1 18V4.99997C1 4.20432 1.31607 3.44126 1.87868 2.87865C2.44129 2.31604 3.20435 1.99997 4 1.99997H7.89559C8.39548 1.99597 8.88846 2.11695 9.32975 2.35195C9.77076 2.58681 10.1461 2.92809 10.4217 3.34477L11.2288 4.5405C11.231 4.54365 11.2331 4.5468 11.2352 4.54997C11.3262 4.68824 11.4502 4.80173 11.5959 4.88028C11.7416 4.95879 11.9045 4.99992 12.07 4.99997C12.0701 4.99997 12.0701 4.99997 12.0702 4.99997H20C20.7956 4.99997 21.5587 5.31604 22.1213 5.87865C22.6839 6.44126 23 7.20432 23 7.99997V8.49997C23 9.05226 22.5523 9.49997 22 9.49997C21.4477 9.49997 21 9.05226 21 8.49997V7.99997C21 7.73476 20.8946 7.4804 20.7071 7.29287C20.5196 7.10533 20.2652 6.99997 20 6.99997H12.07V5.99812L12.0698 6.99997C11.5732 6.99989 11.0843 6.8765 10.6471 6.64088C10.2117 6.40625 9.84114 6.06764 9.56829 5.65521L8.76115 4.45945C8.75902 4.45629 8.7569 4.45311 8.7548 4.44993C8.66282 4.31024 8.53728 4.19585 8.38965 4.11724Z" fill="black"/>
<path fill-rule="evenodd" clip-rule="evenodd" d="M12 9C12.5523 9 13 9.44772 13 10V13H16C16.5523 13 17 13.4477 17 14C17 14.5523 16.5523 15 16 15H12C11.4477 15 11 14.5523 11 14V10C11 9.44772 11.4477 9 12 9Z" fill="black"/>
<path fill-rule="evenodd" clip-rule="evenodd" d="M17.7368 12.0685C17.1108 11.9511 16.4658 11.9849 15.8555 12.1671C15.2515 12.3474 14.6988 12.6679 14.2423 13.1023L12.7227 14.6912C12.341 15.0903 11.708 15.1044 11.3088 14.7227C10.9097 14.341 10.8956 13.708 11.2773 13.3088L12.8123 11.7038C12.822 11.6937 12.8319 11.6837 12.8421 11.674C13.5309 11.012 14.3679 10.524 15.2834 10.2507C16.1989 9.97742 17.1664 9.9267 18.1054 10.1028C19.0445 10.2788 19.9279 10.6766 20.6822 11.263C21.4365 11.8494 22.0398 12.6074 22.4421 13.474C22.6746 13.975 22.457 14.5696 21.956 14.8021C21.455 15.0346 20.8604 14.817 20.6279 14.316C20.3598 13.7383 19.9576 13.2329 19.4547 12.842C18.9518 12.4511 18.3629 12.1859 17.7368 12.0685Z" fill="black"/>
<path fill-rule="evenodd" clip-rule="evenodd" d="M17 18C17 17.4477 17.4477 17 18 17H22C22.5523 17 23 17.4477 23 18V22C23 22.5523 22.5523 23 22 23C21.4477 23 21 22.5523 21 22V19H18C17.4477 19 17 18.5523 17 18Z" fill="black"/>
<path fill-rule="evenodd" clip-rule="evenodd" d="M22.6913 17.2773C23.0904 17.659 23.1045 18.292 22.7228 18.6912L21.1878 20.2962C21.1781 20.3063 21.1681 20.3163 21.158 20.326C20.4692 20.988 19.6322 21.476 18.7167 21.7493C17.8012 22.0226 16.8337 22.0733 15.8947 21.8972C14.9556 21.7212 14.0722 21.3234 13.3179 20.737C12.5636 20.1506 11.9602 19.3926 11.558 18.526C11.3255 18.025 11.5431 17.4304 12.0441 17.1979C12.545 16.9654 13.1396 17.183 13.3721 17.684C13.6403 18.2617 14.0425 18.7671 14.5454 19.158C15.0483 19.5489 15.6372 19.8141 16.2632 19.9315C16.8893 20.0489 17.5343 20.0151 18.1446 19.8329C18.7486 19.6526 19.3013 19.3321 19.7578 18.8977L21.2774 17.3088C21.6591 16.9097 22.2921 16.8956 22.6913 17.2773Z" fill="black"/>
</svg>
