<svg width="24" height="24" viewBox="0 0 24 24" fill="none" xmlns="http://www.w3.org/2000/svg">
<path fill-rule="evenodd" clip-rule="evenodd" d="M1.21831 1.37642C1.56272 0.944685 2.19191 0.873893 2.62365 1.21831C5.75574 3.71688 8.30628 6.86741 10.0981 10.451C10.9097 12.0743 11.5569 13.7688 12.0331 15.5091C12.6634 12.6093 13.5127 10.4181 15.1259 7.51439C15.3941 7.03161 16.0029 6.85767 16.4857 7.12588C16.9685 7.39409 17.1424 8.0029 16.8742 8.48568C14.4639 12.8243 13.8851 15.3593 12.9914 22.1309C12.9233 22.6475 12.4698 23.0251 11.9494 22.9988C11.429 22.9724 11.016 22.5507 11.0005 22.0299C10.8895 18.3153 9.97119 14.6694 8.30923 11.3454C6.64727 8.02152 4.28154 5.09928 1.37642 2.78177C0.944685 2.43736 0.873893 1.80816 1.21831 1.37642Z" fill="black"/>
<path fill-rule="evenodd" clip-rule="evenodd" d="M16.7929 2.79289C18.0466 1.53921 19.8459 1 22 1C22.5523 1 23 1.44772 23 2C23 4.15414 22.4608 5.95343 21.2071 7.20711C19.9534 8.46079 18.1541 9 16 9C15.4477 9 15 8.55228 15 8C15 5.84585 15.5392 4.04657 16.7929 2.79289ZM17.0567 6.94328C18.3196 6.79881 19.1998 6.38603 19.7929 5.79289C20.386 5.19976 20.7988 4.31962 20.9433 3.05672C19.6804 3.20119 18.8002 3.61397 18.2071 4.20711C17.614 4.80024 17.2012 5.68038 17.0567 6.94328Z" fill="black"/>
<path fill-rule="evenodd" clip-rule="evenodd" d="M10.2438 1.15134C12.9232 0.718067 15.6682 1.29071 17.9509 2.75913C18.4154 3.05793 18.5497 3.67668 18.2509 4.14116C17.9521 4.60564 17.3334 4.73995 16.8689 4.44116C15.0012 3.23972 12.7553 2.7712 10.5631 3.12569C8.37084 3.48019 6.38706 4.63267 4.99324 6.36151C3.59943 8.09035 2.894 10.2735 3.01261 12.491C3.13123 14.7086 4.06552 16.804 5.63581 18.3742C7.20609 19.9445 9.3015 20.8788 11.519 20.9974C13.7366 21.1161 15.9197 20.4106 17.6485 19.0168C19.3774 17.623 20.5299 15.6392 20.8844 13.447C21.2389 11.2547 20.7703 9.00882 19.5689 7.14116C19.2701 6.67668 19.4044 6.05793 19.8689 5.75913C20.3334 5.46034 20.9521 5.59465 21.2509 6.05913C22.7193 8.34182 23.292 11.0868 22.8587 13.7662C22.4254 16.4456 21.0168 18.8703 18.9038 20.5738C16.7908 22.2774 14.1226 23.1396 11.4122 22.9946C8.70188 22.8496 6.14083 21.7077 4.22159 19.7885C2.30235 17.8692 1.16045 15.3082 1.01547 12.5978C0.870494 9.88749 1.73269 7.21925 3.43624 5.10623C5.13979 2.9932 7.56442 1.58461 10.2438 1.15134Z" fill="black"/>
</svg>
