<svg width="24" height="24" viewBox="0 0 24 24" fill="none" xmlns="http://www.w3.org/2000/svg">
<path fill-rule="evenodd" clip-rule="evenodd" d="M3.87868 1.87868C4.44129 1.31607 5.20435 1 6 1H15C15.2652 1 15.5196 1.10536 15.7071 1.29289L20.7071 6.29289C20.8946 6.48043 21 6.73478 21 7V20C21 20.7957 20.6839 21.5587 20.1213 22.1213C19.5587 22.6839 18.7957 23 18 23H12.5C11.9477 23 11.5 22.5523 11.5 22C11.5 21.4477 11.9477 21 12.5 21H18C18.2652 21 18.5196 20.8946 18.7071 20.7071C18.8946 20.5196 19 20.2652 19 20V7.41421L14.5858 3H6C5.73478 3 5.48043 3.10536 5.29289 3.29289C5.10536 3.48043 5 3.73478 5 4V13.5C5 14.0523 4.55228 14.5 4 14.5C3.44772 14.5 3 14.0523 3 13.5V4C3 3.20435 3.31607 2.44129 3.87868 1.87868Z" fill="black"/>
<path fill-rule="evenodd" clip-rule="evenodd" d="M14 1C14.5523 1 15 1.44772 15 2V6C15 6.26522 15.1054 6.51957 15.2929 6.70711C15.4804 6.89464 15.7348 7 16 7H20C20.5523 7 21 7.44772 21 8C21 8.55228 20.5523 9 20 9H16C15.2044 9 14.4413 8.68393 13.8787 8.12132C13.3161 7.55871 13 6.79565 13 6V2C13 1.44772 13.4477 1 14 1Z" fill="black"/>
<path fill-rule="evenodd" clip-rule="evenodd" d="M10.6804 11.2376C11.0595 11.0806 11.4657 10.9998 11.876 10.9998C12.2862 10.9998 12.6925 11.0806 13.0715 11.2376C13.4506 11.3946 13.795 11.6248 14.0851 11.9149C14.3752 12.205 14.6053 12.5494 14.7623 12.9284C14.9193 13.3074 15.0001 13.7137 15.0001 14.124C15.0001 14.5342 14.9193 14.9405 14.7623 15.3195C14.6053 15.6986 14.3752 16.043 14.0851 16.3331L9.07228 21.3419C9.07226 21.3419 9.07224 21.3419 9.07222 21.3419C8.7158 21.6985 8.27525 21.9596 7.79128 22.1009L4.92098 22.938C4.92097 22.938 4.92096 22.938 4.92095 22.938C4.66281 23.0133 4.38918 23.0178 4.12871 22.951C3.86821 22.8843 3.63046 22.7488 3.44032 22.5586C3.25018 22.3685 3.11464 22.1307 3.04791 21.8702C2.98117 21.6098 2.98568 21.3361 3.06097 21.078C3.06097 21.078 3.06097 21.078 3.06098 21.078L3.89806 18.2077C4.03935 17.7238 4.30027 17.2834 4.65673 16.927C4.65684 16.9269 4.65695 16.9268 4.65706 16.9267L9.66673 11.915L10.3731 12.6211L9.66687 11.9149C9.95697 11.6248 10.3014 11.3946 10.6804 11.2376ZM11.0812 13.3289C11.0812 13.329 11.0811 13.329 11.0811 13.3291L6.07089 18.3413C5.95209 18.46 5.86512 18.6067 5.81798 18.7679C5.81797 18.768 5.81796 18.768 5.81795 18.768C5.81793 18.7681 5.81791 18.7682 5.81789 18.7683L5.23623 20.7627L7.23068 20.1811C7.23078 20.181 7.23089 20.181 7.231 20.181C7.3922 20.1338 7.53894 20.0469 7.65767 19.9281L12.6709 14.9189C12.7753 14.8145 12.8581 14.6905 12.9146 14.5542C12.971 14.4178 13.0001 14.2716 13.0001 14.124C13.0001 13.9763 12.971 13.8302 12.9146 13.6938C12.8581 13.5574 12.7753 13.4335 12.6709 13.3291C12.5665 13.2247 12.4426 13.1419 12.3062 13.0854C12.1698 13.0289 12.0236 12.9998 11.876 12.9998C11.7283 12.9998 11.5822 13.0289 11.4458 13.0854C11.3095 13.1419 11.1856 13.2246 11.0812 13.3289ZM4.36139 21.0178C4.36126 21.0179 4.36113 21.0179 4.361 21.018C4.36099 21.018 4.36099 21.018 4.36098 21.018M4.36139 21.0178L4.361 21.018L4.36139 21.0178Z" fill="black"/>
</svg>
