<svg width="24" height="24" viewBox="0 0 24 24" fill="none" xmlns="http://www.w3.org/2000/svg">
<path fill-rule="evenodd" clip-rule="evenodd" d="M12 3C11.1716 3 10.5 3.67157 10.5 4.5C10.5 5.32843 11.1716 6 12 6C12.8284 6 13.5 5.32843 13.5 4.5C13.5 3.67157 12.8284 3 12 3ZM8.5 4.5C8.5 2.567 10.067 1 12 1C13.933 1 15.5 2.567 15.5 4.5C15.5 6.433 13.933 8 12 8C10.067 8 8.5 6.433 8.5 4.5Z" fill="black"/>
<path fill-rule="evenodd" clip-rule="evenodd" d="M10.9072 5.59294C11.2977 5.98347 11.2977 6.61663 10.9072 7.00716L7.00716 10.9072C6.61663 11.2977 5.98347 11.2977 5.59294 10.9072C5.20242 10.5166 5.20242 9.88347 5.59294 9.49294L9.49294 5.59294C9.88347 5.20242 10.5166 5.20242 10.9072 5.59294Z" fill="black"/>
<path fill-rule="evenodd" clip-rule="evenodd" d="M4.5 10.5C3.67157 10.5 3 11.1716 3 12C3 12.8284 3.67157 13.5 4.5 13.5C5.32843 13.5 6 12.8284 6 12C6 11.1716 5.32843 10.5 4.5 10.5ZM1 12C1 10.067 2.567 8.5 4.5 8.5C6.433 8.5 8 10.067 8 12C8 13.933 6.433 15.5 4.5 15.5C2.567 15.5 1 13.933 1 12Z" fill="black"/>
<path fill-rule="evenodd" clip-rule="evenodd" d="M6 12C6 11.4477 6.44772 11 7 11H17C17.5523 11 18 11.4477 18 12C18 12.5523 17.5523 13 17 13H7C6.44772 13 6 12.5523 6 12Z" fill="black"/>
<path fill-rule="evenodd" clip-rule="evenodd" d="M19.5 10.5C18.6716 10.5 18 11.1716 18 12C18 12.8284 18.6716 13.5 19.5 13.5C20.3284 13.5 21 12.8284 21 12C21 11.1716 20.3284 10.5 19.5 10.5ZM16 12C16 10.067 17.567 8.5 19.5 8.5C21.433 8.5 23 10.067 23 12C23 13.933 21.433 15.5 19.5 15.5C17.567 15.5 16 13.933 16 12Z" fill="black"/>
<path fill-rule="evenodd" clip-rule="evenodd" d="M18.4072 13.0929C18.7977 13.4835 18.7977 14.1166 18.4072 14.5072L14.5072 18.4072C14.1166 18.7977 13.4835 18.7977 13.0929 18.4072C12.7024 18.0166 12.7024 17.3835 13.0929 16.9929L16.9929 13.0929C17.3835 12.7024 18.0166 12.7024 18.4072 13.0929Z" fill="black"/>
<path fill-rule="evenodd" clip-rule="evenodd" d="M12 18C11.1716 18 10.5 18.6716 10.5 19.5C10.5 20.3284 11.1716 21 12 21C12.8284 21 13.5 20.3284 13.5 19.5C13.5 18.6716 12.8284 18 12 18ZM8.5 19.5C8.5 17.567 10.067 16 12 16C13.933 16 15.5 17.567 15.5 19.5C15.5 21.433 13.933 23 12 23C10.067 23 8.5 21.433 8.5 19.5Z" fill="black"/>
</svg>
