<svg width="24" height="24" viewBox="0 0 24 24" fill="none" xmlns="http://www.w3.org/2000/svg">
<path fill-rule="evenodd" clip-rule="evenodd" d="M7 12.7891C6.42144 12.4526 5.81858 12.2672 5.21201 12.2381C4.38336 12.1983 3.62125 12.4541 2.98977 12.8953C1.7474 13.7633 1 15.3415 1 17C1 18.5913 1.63214 20.1175 2.75736 21.2427C3.88258 22.3679 5.4087 23 7 23C8.5913 23 10.1174 22.3679 11.2426 21.2427C12.3679 20.1175 13 18.5913 13 17C13 15.3415 12.2526 13.7633 11.0102 12.8953C10.3788 12.4541 9.61664 12.1983 8.78799 12.2381C8.18142 12.2672 7.57856 12.4526 7 12.7891ZM4.13523 14.5348C3.5026 14.9768 3 15.8986 3 17C3 18.0609 3.42143 19.0783 4.17157 19.8285C4.92172 20.5786 5.93913 21 7 21C8.06087 21 9.07828 20.5786 9.82843 19.8285C10.5786 19.0783 11 18.0609 11 17C11 15.8986 10.4974 14.9768 9.86477 14.5348C9.55875 14.321 9.22711 14.2193 8.88388 14.2358C8.54066 14.2522 8.11239 14.3907 7.62469 14.7809C7.25948 15.0731 6.74052 15.0731 6.37531 14.7809C5.88761 14.3907 5.45934 14.2522 5.11612 14.2358C4.77289 14.2193 4.44125 14.321 4.13523 14.5348Z" fill="black"/>
<path fill-rule="evenodd" clip-rule="evenodd" d="M17 12.7891C16.4214 12.4526 15.8186 12.2672 15.212 12.2381C14.3834 12.1983 13.6212 12.4541 12.9898 12.8953C11.7474 13.7633 11 15.3415 11 17C11 18.5913 11.6321 20.1175 12.7574 21.2427C13.8826 22.3679 15.4087 23 17 23C18.5913 23 20.1174 22.3679 21.2426 21.2427C22.3679 20.1175 23 18.5913 23 17C23 15.3415 22.2526 13.7633 21.0102 12.8953C20.3788 12.4541 19.6166 12.1983 18.788 12.2381C18.1814 12.2672 17.5786 12.4526 17 12.7891ZM14.1352 14.5348C13.5026 14.9768 13 15.8986 13 17C13 18.0609 13.4214 19.0783 14.1716 19.8285C14.9217 20.5786 15.9391 21 17 21C18.0609 21 19.0783 20.5786 19.8284 19.8285C20.5786 19.0783 21 18.0609 21 17C21 15.8986 20.4974 14.9768 19.8648 14.5348C19.5587 14.321 19.2271 14.2193 18.8839 14.2358C18.5407 14.2522 18.1124 14.3907 17.6247 14.7809C17.2595 15.0731 16.7405 15.0731 16.3753 14.7809C15.8876 14.3907 15.4593 14.2522 15.1161 14.2358C14.7729 14.2193 14.4413 14.321 14.1352 14.5348Z" fill="black"/>
<path fill-rule="evenodd" clip-rule="evenodd" d="M11.8043 1.01932C12.194 0.941539 12.5929 1.10194 12.8202 1.42791C13.6991 2.68802 14.9637 4.99975 16.0137 7.36116C16.5413 8.54755 17.0239 9.76677 17.3802 10.8922C17.7312 12.0006 17.9819 13.0856 17.9998 13.98C18.0109 14.5322 17.5722 14.9887 17.02 14.9998C16.4678 15.0108 16.0113 14.5721 16.0002 14.02C15.9881 13.4144 15.8063 12.5468 15.4735 11.4959C15.1461 10.4619 14.6937 9.31491 14.1863 8.1738C13.6271 6.91633 13.0122 5.69051 12.4419 4.65506C12.1681 5.8392 11.8296 7.15155 11.388 8.44959C10.6104 10.7349 9.46971 13.1159 7.6705 14.7419C7.26075 15.1122 6.62839 15.0802 6.25809 14.6705C5.88779 14.2607 5.91977 13.6284 6.32952 13.2581C7.75031 11.9741 8.75461 9.9801 9.49456 7.80537C10.1332 5.92851 10.5425 4.02136 10.8756 2.4696C10.9263 2.23321 10.9753 2.00508 11.023 1.78655C11.1079 1.39828 11.4146 1.09709 11.8043 1.01932Z" fill="black"/>
<path fill-rule="evenodd" clip-rule="evenodd" d="M11.1276 1.51126C11.3044 1.19553 11.6381 1 12 1C15.1294 1 17.8462 2.27754 19.7738 3.85171C20.739 4.63994 21.5274 5.5192 22.082 6.38305C22.622 7.22423 23 8.14488 23 9C23 9.55228 22.5523 10 22 10C19.652 10 17.6597 9.35539 15.8762 8.06045C14.1183 6.78405 12.6089 4.90905 11.1472 2.52226C10.9582 2.21364 10.9507 1.82699 11.1276 1.51126ZM13.9959 3.21124C14.9981 4.61032 15.9961 5.67589 17.0513 6.44205C18.1365 7.22996 19.3074 7.71964 20.6585 7.90967C20.5857 7.76944 20.4997 7.62043 20.3989 7.46351C19.9707 6.79642 19.3298 6.07131 18.5087 5.40079C17.3027 4.41592 15.7537 3.58471 13.9959 3.21124Z" fill="black"/>
</svg>
