<svg width="24" height="24" viewBox="0 0 24 24" fill="none" xmlns="http://www.w3.org/2000/svg">
<path fill-rule="evenodd" clip-rule="evenodd" d="M12 11C11.4477 11 11 11.4477 11 12C11 12.5523 11.4477 13 12 13C12.5523 13 13 12.5523 13 12C13 11.4477 12.5523 11 12 11ZM9 12C9 10.3431 10.3431 9 12 9C13.6569 9 15 10.3431 15 12C15 13.6569 13.6569 15 12 15C10.3431 15 9 13.6569 9 12Z" fill="black"/>
<path fill-rule="evenodd" clip-rule="evenodd" d="M12 1C12.5523 1 13 1.44772 13 2V6C13 6.55228 12.5523 7 12 7C11.4477 7 11 6.55228 11 6V2C11 1.44772 11.4477 1 12 1Z" fill="black"/>
<path fill-rule="evenodd" clip-rule="evenodd" d="M7.66822 14.5038C7.94223 14.9834 7.77563 15.5942 7.29611 15.8682L3.79611 17.8682C3.3166 18.1422 2.70574 17.9756 2.43173 17.4961C2.15772 17.0166 2.32432 16.4058 2.80384 16.1317L6.30384 14.1317C6.78335 13.8577 7.39421 14.0243 7.66822 14.5038Z" fill="black"/>
<path fill-rule="evenodd" clip-rule="evenodd" d="M21.5682 6.50385C21.8423 6.98337 21.6757 7.59422 21.1961 7.86823L17.6961 9.86823C17.2166 10.1422 16.6058 9.97564 16.3318 9.49613C16.0577 9.01661 16.2243 8.40575 16.7039 8.13174L20.2039 6.13174C20.6834 5.85773 21.2942 6.02433 21.5682 6.50385Z" fill="black"/>
<path fill-rule="evenodd" clip-rule="evenodd" d="M2.43173 6.50385C2.70574 6.02433 3.3166 5.85773 3.79611 6.13174L7.29611 8.13174C7.77563 8.40575 7.94223 9.01661 7.66822 9.49613C7.39421 9.97564 6.78335 10.1422 6.30384 9.86823L2.80384 7.86823C2.32432 7.59422 2.15772 6.98337 2.43173 6.50385Z" fill="black"/>
<path fill-rule="evenodd" clip-rule="evenodd" d="M16.3318 14.5038C16.6058 14.0243 17.2166 13.8577 17.6961 14.1317L21.1961 16.1317C21.6757 16.4058 21.8423 17.0166 21.5682 17.4961C21.2942 17.9756 20.6834 18.1422 20.2039 17.8682L16.7039 15.8682C16.2243 15.5942 16.0577 14.9834 16.3318 14.5038Z" fill="black"/>
<path fill-rule="evenodd" clip-rule="evenodd" d="M12 13C12.4169 13 12.79 13.2586 12.9364 13.6489L15.9364 21.6489C16.1303 22.166 15.8683 22.7424 15.3512 22.9363C14.834 23.1302 14.2576 22.8682 14.0637 22.3511L12 16.848L9.93636 22.3511C9.74244 22.8682 9.16602 23.1302 8.6489 22.9363C8.13178 22.7424 7.86978 22.166 8.0637 21.6489L11.0637 13.6489C11.2101 13.2586 11.5832 13 12 13Z" fill="black"/>
<path fill-rule="evenodd" clip-rule="evenodd" d="M7 22C7 21.4477 7.44772 21 8 21H16C16.5523 21 17 21.4477 17 22C17 22.5523 16.5523 23 16 23H8C7.44772 23 7 22.5523 7 22Z" fill="black"/>
<path fill-rule="evenodd" clip-rule="evenodd" d="M6.32912 3.75525C7.99723 2.60675 9.97475 1.99182 12 1.99182C14.0253 1.99182 16.0028 2.60675 17.6709 3.75525C19.339 4.90375 20.6191 6.53167 21.3417 8.4236C22.0644 10.3155 22.1956 12.3823 21.7179 14.3504C21.2402 16.3185 20.1762 18.0952 18.6667 19.4454C18.255 19.8136 17.6228 19.7783 17.2546 19.3667C16.8865 18.955 16.9217 18.3229 17.3333 17.9547C18.541 16.8745 19.3922 15.4532 19.7743 13.8787C20.1564 12.3042 20.0515 10.6508 19.4734 9.13724C18.8953 7.6237 17.8712 6.32136 16.5367 5.40256C15.2022 4.48377 13.6202 3.99182 12 3.99182C10.3798 3.99182 8.79779 4.48377 7.4633 5.40256C6.12881 6.32136 5.10475 7.6237 4.52662 9.13724C3.9485 10.6508 3.84357 12.3042 4.2257 13.8787C4.60784 15.4532 5.45904 16.8745 6.66667 17.9547C7.07832 18.3229 7.11355 18.955 6.74536 19.3667C6.37717 19.7783 5.74498 19.8136 5.33334 19.4454C3.8238 18.0952 2.7598 16.3185 2.28213 14.3504C1.80446 12.3823 1.93562 10.3155 2.65828 8.4236C3.38093 6.53167 4.66101 4.90375 6.32912 3.75525Z" fill="black"/>
</svg>
