<svg width="24" height="24" viewBox="0 0 24 24" fill="none" xmlns="http://www.w3.org/2000/svg">
<path fill-rule="evenodd" clip-rule="evenodd" d="M11.1692 2.05309C11.4073 2.02926 11.6996 2 12 2C12.3004 2 12.5927 2.02926 12.8308 2.05309C12.8371 2.05372 12.8433 2.05434 12.8495 2.05496C13.108 2.08081 13.3083 2.1 13.5 2.1C14.0523 2.1 14.5 2.54772 14.5 3.1C14.5 3.65228 14.0523 4.1 13.5 4.1C13.1996 4.1 12.9073 4.07074 12.6692 4.04691C12.6629 4.04628 12.6567 4.04566 12.6505 4.04504C12.392 4.01919 12.1917 4 12 4C11.8083 4 11.608 4.01919 11.3495 4.04504C11.3433 4.04566 11.3371 4.04628 11.3308 4.04691C11.0927 4.07074 10.8004 4.1 10.5 4.1C9.94772 4.1 9.5 3.65228 9.5 3.1C9.5 2.54772 9.94772 2.1 10.5 2.1C10.6917 2.1 10.892 2.08081 11.1505 2.05496C11.1567 2.05434 11.1629 2.05372 11.1692 2.05309Z" fill="black"/>
<path fill-rule="evenodd" clip-rule="evenodd" d="M16.3996 4.10056C16.7307 3.6585 17.3574 3.56853 17.7995 3.8996C18.6721 4.55313 19.4469 5.32794 20.1004 6.20056C20.4315 6.64261 20.3415 7.26935 19.8995 7.60042C19.4574 7.93149 18.8307 7.84152 18.4996 7.39946C17.9602 6.67927 17.3208 6.0398 16.6006 5.50042C16.1585 5.16935 16.0685 4.54261 16.3996 4.10056Z" fill="black"/>
<path fill-rule="evenodd" clip-rule="evenodd" d="M20.9 9.5C21.4523 9.5 21.9 9.94772 21.9 10.5C21.9 10.6917 21.9192 10.892 21.945 11.1505C21.9456 11.1567 21.9463 11.1629 21.9469 11.1692C21.9707 11.4073 22 11.6996 22 12C22 12.0118 22 12.0236 22 12.0355C22.0001 12.5136 22.0001 13.0982 21.8806 13.6961C21.7722 14.2377 21.2454 14.5889 20.7039 14.4806C20.1623 14.3723 19.8111 13.8454 19.9194 13.3039C19.9968 12.9167 20 12.5155 20 12C20 11.8083 19.9808 11.608 19.9549 11.3495C19.9543 11.3433 19.9537 11.3371 19.9531 11.3308C19.9292 11.0927 19.9 10.8004 19.9 10.5C19.9 9.94772 20.3477 9.5 20.9 9.5Z" fill="black"/>
<path fill-rule="evenodd" clip-rule="evenodd" d="M19.8995 16.3996C20.3415 16.7307 20.4315 17.3574 20.1004 17.7995C19.4469 18.6721 18.6721 19.4469 17.7995 20.1004C17.3574 20.4315 16.7307 20.3415 16.3996 19.8995C16.0685 19.4574 16.1585 18.8307 16.6006 18.4996C17.3208 17.9602 17.9602 17.3208 18.4996 16.6006C18.8307 16.1585 19.4574 16.0685 19.8995 16.3996Z" fill="black"/>
<path fill-rule="evenodd" clip-rule="evenodd" d="M9.51937 20.7039C9.62768 20.1623 10.1545 19.8111 10.6961 19.9194C11.0832 19.9968 11.4845 20 11.9999 20C12.1917 20 12.3919 19.9808 12.6504 19.9549C12.6566 19.9543 12.6629 19.9537 12.6691 19.9531C12.9073 19.9292 13.1996 19.9 13.4999 19.9C14.0522 19.9 14.4999 20.3477 14.4999 20.9C14.4999 21.4523 14.0522 21.9 13.4999 21.9C13.3082 21.9 13.108 21.9192 12.8495 21.945C12.8433 21.9456 12.837 21.9463 12.8308 21.9469C12.5926 21.9707 12.3003 22 11.9999 22C11.9882 22 11.9764 22 11.9645 22C11.4864 22.0001 10.9018 22.0001 10.3038 21.8806C9.76227 21.7722 9.41106 21.2454 9.51937 20.7039Z" fill="black"/>
<path fill-rule="evenodd" clip-rule="evenodd" d="M3.81625 16.5513C4.3402 16.726 4.62336 17.2923 4.44871 17.8163L3.58117 20.4189L6.1838 19.5513C6.70774 19.3767 7.27406 19.6599 7.44871 20.1838C7.62336 20.7077 7.3402 21.2741 6.81625 21.4487L2.31625 22.9487C1.95692 23.0685 1.56075 22.975 1.29292 22.7071C1.02509 22.4393 0.931566 22.0431 1.05134 21.6838L2.55134 17.1838C2.72599 16.6599 3.29231 16.3767 3.81625 16.5513Z" fill="black"/>
<path fill-rule="evenodd" clip-rule="evenodd" d="M3.1 9.5C3.65228 9.5 4.1 9.94772 4.1 10.5C4.1 10.8004 4.07074 11.0927 4.04691 11.3308C4.04628 11.3371 4.04566 11.3433 4.04504 11.3495C4.01919 11.608 4 11.8083 4 12C4 12.1917 4.01919 12.392 4.04504 12.6505C4.04566 12.6567 4.04628 12.6629 4.04691 12.6692C4.07074 12.9073 4.1 13.1996 4.1 13.5C4.1 14.0523 3.65228 14.5 3.1 14.5C2.54772 14.5 2.1 14.0523 2.1 13.5C2.1 13.3083 2.08081 13.108 2.05496 12.8495C2.05434 12.8433 2.05372 12.8371 2.05309 12.8308C2.02926 12.5927 2 12.3004 2 12C2 11.6996 2.02926 11.4073 2.05309 11.1692C2.05372 11.1629 2.05434 11.1567 2.05496 11.1505C2.08081 10.892 2.1 10.6917 2.1 10.5C2.1 9.94772 2.54772 9.5 3.1 9.5Z" fill="black"/>
<path fill-rule="evenodd" clip-rule="evenodd" d="M7.60042 4.10056C7.93149 4.54261 7.84152 5.16935 7.39946 5.50042C6.67927 6.0398 6.0398 6.67927 5.50042 7.39946C5.16935 7.84152 4.54261 7.93149 4.10056 7.60042C3.6585 7.26935 3.56853 6.64261 3.8996 6.20056C4.55313 5.32794 5.32794 4.55313 6.20056 3.8996C6.64261 3.56853 7.26935 3.6585 7.60042 4.10056Z" fill="black"/>
</svg>
