<svg width="24" height="24" viewBox="0 0 24 24" fill="none" xmlns="http://www.w3.org/2000/svg">
<path fill-rule="evenodd" clip-rule="evenodd" d="M12.9001 2.99506C11.0927 2.81343 9.27267 3.18298 7.67921 4.05511C6.08576 4.92725 4.79351 6.26115 3.97234 7.88146C3.15118 9.50177 2.83954 11.3326 3.0784 13.1334C3.31725 14.9341 4.09542 16.6204 5.31061 17.9706C6.52579 19.3208 8.1211 20.2717 9.88682 20.6983C11.6525 21.1249 13.506 21.0071 15.2036 20.3606C16.9011 19.7141 18.3633 18.569 19.3979 17.0759C20.432 15.5834 20.9906 13.8131 21.0001 11.9974V11.0001C21.0001 10.4478 21.4478 10.0001 22.0001 10.0001C22.5524 10.0001 23.0001 10.4478 23.0001 11.0001V12.0001C23.0001 12.0017 23.0001 12.0034 23.0001 12.0051C22.989 14.2252 22.3063 16.3901 21.0418 18.215C19.7773 20.0399 17.9902 21.4394 15.9154 22.2296C13.8406 23.0198 11.5753 23.1637 9.41717 22.6424C7.25907 22.121 5.30924 20.9588 3.82402 19.3086C2.33879 17.6583 1.3877 15.5973 1.09576 13.3964C0.803828 11.1955 1.18472 8.95773 2.18836 6.97735C3.19201 4.99697 4.77143 3.36665 6.71898 2.3007C8.66653 1.23476 10.8911 0.783094 13.1001 1.00508C13.6496 1.06031 14.0503 1.55054 13.9951 2.10006C13.9399 2.64958 13.4497 3.05028 12.9001 2.99506Z" fill="black"/>
<path fill-rule="evenodd" clip-rule="evenodd" d="M8.79706 13.3961C8.46492 12.9577 7.84056 12.8697 7.40006 13.2001C6.95823 13.5314 6.86869 14.1582 7.20006 14.6001L8.00006 14.0001C7.20006 14.6001 7.2003 14.6004 7.20055 14.6007L7.20107 14.6014L7.20222 14.6029C7.20263 14.6035 7.20305 14.604 7.2035 14.6046C7.20397 14.6052 7.20445 14.6059 7.20496 14.6066C7.20698 14.6092 7.20938 14.6124 7.21217 14.616C7.21774 14.6232 7.22485 14.6323 7.23347 14.6432C7.25071 14.665 7.27407 14.6939 7.30342 14.7289C7.36207 14.7987 7.44506 14.8934 7.55151 15.0045C7.76358 15.2258 8.07349 15.5172 8.47439 15.8088C9.27233 16.3891 10.4745 17.0001 12.0001 17.0001C13.5256 17.0001 14.7278 16.3891 15.5257 15.8088C15.9266 15.5172 16.2365 15.2258 16.4486 15.0045C16.5551 14.8934 16.6381 14.7987 16.6967 14.7289C16.7261 14.6939 16.7494 14.665 16.7666 14.6432C16.7753 14.6323 16.7824 14.6232 16.7879 14.616C16.7907 14.6124 16.7931 14.6092 16.7952 14.6066L16.7961 14.6053C16.7968 14.6044 16.7973 14.6037 16.7979 14.6029L16.799 14.6014L16.7996 14.6007C16.7998 14.6004 16.8001 14.6001 16.0001 14.0001L16.8001 14.6001C17.1314 14.1582 17.0419 13.5314 16.6001 13.2001C16.1596 12.8697 15.5352 12.9577 15.2031 13.3961C15.2024 13.3969 15.2009 13.3989 15.1986 13.4018C15.1926 13.4093 15.1813 13.4234 15.1647 13.4431C15.1316 13.4826 15.0779 13.5442 15.0046 13.6207C14.8573 13.7744 14.636 13.9829 14.3494 14.1913C13.7723 14.611 12.9745 15.0001 12.0001 15.0001C11.0256 15.0001 10.2278 14.611 9.65073 14.1913C9.36413 13.9829 9.14278 13.7744 8.99548 13.6207C8.92225 13.5442 8.86852 13.4826 8.83537 13.4431C8.81883 13.4234 8.80751 13.4093 8.80156 13.4018C8.79923 13.3989 8.79773 13.3969 8.79706 13.3961ZM15.201 13.3988L15.2009 13.3989L15.2005 13.3995C15.2007 13.3992 15.2008 13.399 15.201 13.3988Z" fill="black"/>
<path fill-rule="evenodd" clip-rule="evenodd" d="M8 9C8 8.44772 8.44772 8 9 8H9.01C9.56228 8 10.01 8.44772 10.01 9C10.01 9.55228 9.56228 10 9.01 10H9C8.44772 10 8 9.55228 8 9Z" fill="black"/>
<path fill-rule="evenodd" clip-rule="evenodd" d="M14 9C14 8.44772 14.4477 8 15 8H15.01C15.5623 8 16.01 8.44772 16.01 9C16.01 9.55228 15.5623 10 15.01 10H15C14.4477 10 14 9.55228 14 9Z" fill="black"/>
<path fill-rule="evenodd" clip-rule="evenodd" d="M15 5C15 4.44772 15.4477 4 16 4H22C22.5523 4 23 4.44772 23 5C23 5.55228 22.5523 6 22 6H16C15.4477 6 15 5.55228 15 5Z" fill="black"/>
<path fill-rule="evenodd" clip-rule="evenodd" d="M19 1C19.5523 1 20 1.44772 20 2V8C20 8.55228 19.5523 9 19 9C18.4477 9 18 8.55228 18 8V2C18 1.44772 18.4477 1 19 1Z" fill="black"/>
</svg>
