<svg width="24" height="24" viewBox="0 0 24 24" fill="none" xmlns="http://www.w3.org/2000/svg">
<path fill-rule="evenodd" clip-rule="evenodd" d="M16.4812 2.11782C17.1974 1.40173 18.1688 0.999507 19.1817 0.999634C20.1945 0.999761 21.1658 1.40223 21.8819 2.1185C22.598 2.83477 23.0002 3.80616 23.0001 4.81899C22.9999 5.83176 22.5975 6.80299 21.8813 7.51907C21.8813 7.51912 21.8812 7.51916 21.8812 7.51921L8.53434 20.8681L8.53316 20.8692C8.18542 21.2159 7.75792 21.4719 7.28816 21.6147L7.28737 21.615L2.93437 22.935L2.93205 22.9357C2.67272 23.0136 2.39713 23.0199 2.13452 22.9539C1.87191 22.8879 1.63207 22.752 1.44044 22.5607C1.24881 22.3694 1.11254 22.1297 1.0461 21.8672C0.979658 21.6047 0.985513 21.3291 1.06305 21.0697C1.06346 21.0683 1.06387 21.0669 1.06429 21.0656L2.38529 16.7136L2.38611 16.7109C2.53016 16.2411 2.78741 15.8138 3.13524 15.4667C3.13553 15.4664 3.13582 15.4662 3.13611 15.4659L16.4812 2.11782ZM17.8952 3.53221L4.54936 16.881L4.54825 16.8822C4.43244 16.9976 4.34672 17.1397 4.2986 17.296C4.29848 17.2964 4.29836 17.2968 4.29825 17.2972L3.25042 20.7492L6.7062 19.7013C6.86258 19.6537 7.00492 19.5685 7.12076 19.4532C7.12091 19.4531 7.12105 19.4529 7.12119 19.4528L20.4672 6.10482C20.8083 5.76375 21 5.30114 21.0001 4.81874C21.0001 4.33635 20.8085 3.87368 20.4675 3.53253C20.1264 3.19138 19.6638 2.99969 19.1814 2.99963C18.699 2.99957 18.2363 3.19115 17.8952 3.53221Z" fill="black"/>
</svg>
