<svg width="24" height="24" viewBox="0 0 24 24" fill="none" xmlns="http://www.w3.org/2000/svg">
<path fill-rule="evenodd" clip-rule="evenodd" d="M12 1C12.5523 1 13 1.44772 13 2V12C13 12.5523 12.5523 13 12 13C11.4477 13 11 12.5523 11 12V2C11 1.44772 11.4477 1 12 1Z" fill="black"/>
<path fill-rule="evenodd" clip-rule="evenodd" d="M17.6931 5.89274C18.0837 5.50229 18.7168 5.5024 19.1073 5.893C20.5036 7.28978 21.455 9.06874 21.8415 11.0055C22.2281 12.9423 22.0324 14.9502 21.2793 16.776C20.5262 18.6017 19.2494 20.1636 17.6098 21.2646C15.9701 22.3657 14.0412 22.9565 12.0662 22.9627C10.0913 22.9689 8.15867 22.3901 6.5122 21.2994C4.86572 20.2087 3.57909 18.6548 2.81456 16.8338C2.05003 15.0128 1.84185 13.0062 2.21626 11.067C2.59067 9.12783 3.5309 7.34295 4.9184 5.93744C5.3064 5.54441 5.93955 5.54033 6.33258 5.92832C6.72562 6.31632 6.7297 6.94947 6.3417 7.34251C5.23171 8.46691 4.47952 9.89482 4.17999 11.4462C3.88046 12.9975 4.04701 14.6028 4.65863 16.0596C5.27025 17.5164 6.29956 18.7595 7.61674 19.6321C8.93392 20.5047 10.48 20.9677 12.06 20.9627C13.64 20.9578 15.1831 20.4851 16.4948 19.6043C17.8065 18.7234 18.828 17.4739 19.4305 16.0133C20.0329 14.5527 20.1894 12.9464 19.8802 11.397C19.571 9.84755 18.8098 8.42438 17.6928 7.30695C17.3024 6.91636 17.3025 6.28319 17.6931 5.89274Z" fill="black"/>
</svg>
