<svg width="24" height="24" viewBox="0 0 24 24" fill="none" xmlns="http://www.w3.org/2000/svg">
<path fill-rule="evenodd" clip-rule="evenodd" d="M21 5.10077L3.81915 18.9999H20C20.2652 18.9999 20.5196 18.8945 20.7071 18.707C20.8947 18.5195 21 18.2651 21 17.9999V5.10077ZM21.9363 3.05783C22.7781 3.42384 23 4.30998 23 4.9999V17.9999C23 18.7956 22.684 19.5586 22.1213 20.1212C21.5587 20.6838 20.7957 20.9999 20 20.9999H3.00003C2.64785 20.9999 2.28373 20.9538 1.95844 20.8167C1.62862 20.6776 1.25035 20.4009 1.09644 19.9135C0.944844 19.4335 1.08894 18.9939 1.26532 18.6928C1.44052 18.3938 1.69736 18.1362 1.97804 17.9168L19.7711 3.52246C19.776 3.51844 19.781 3.51447 19.7861 3.51055C20.3275 3.08941 21.1338 2.70892 21.9363 3.05783Z" fill="black"/>
</svg>
