<svg width="24" height="24" viewBox="0 0 24 24" fill="none" xmlns="http://www.w3.org/2000/svg">
<path fill-rule="evenodd" clip-rule="evenodd" d="M4 4.99994L4 5C4 5.00073 3.9999 5.00494 4.00305 5.01529C4.00645 5.02644 4.01483 5.04845 4.03507 5.08143C4.07752 5.15057 4.16408 5.25453 4.32624 5.38232C4.65642 5.64253 5.19616 5.9206 5.95227 6.17264C7.45402 6.67322 9.59229 7 12 7C14.4077 7 16.546 6.67322 18.0477 6.17264C18.8038 5.9206 19.3436 5.64253 19.6738 5.38232C19.8359 5.25453 19.9225 5.15057 19.9649 5.08143C19.9852 5.04845 19.9935 5.02644 19.9969 5.01529C20.0001 5.00494 20 5.00073 20 5V4.99994C20 4.99905 20 4.99479 19.9969 4.98471C19.9935 4.97356 19.9852 4.95155 19.9649 4.91857C19.9225 4.84943 19.8359 4.74547 19.6738 4.61768C19.3436 4.35747 18.8038 4.0794 18.0477 3.82736C16.546 3.32678 14.4077 3 12 3C9.59229 3 7.45402 3.32678 5.95227 3.82736C5.19616 4.0794 4.65642 4.35747 4.32624 4.61768C4.16408 4.74547 4.07752 4.84943 4.03507 4.91857C4.01483 4.95155 4.00645 4.97356 4.00305 4.98471C3.99998 4.99479 4 4.99905 4 4.99994ZM5.31981 1.93C7.07541 1.3448 9.43715 1 12 1C14.5629 1 16.9246 1.3448 18.6802 1.93C19.5528 2.22085 20.331 2.58923 20.9117 3.04685C21.4811 3.49559 22 4.14805 22 5C22 5.85195 21.4811 6.50441 20.9117 6.95315C20.331 7.41077 19.5528 7.77915 18.6802 8.07C16.9246 8.6552 14.5629 9 12 9C9.43715 9 7.07541 8.6552 5.31981 8.07C4.44724 7.77915 3.66896 7.41077 3.08829 6.95315C2.51889 6.50441 2 5.85195 2 5C2 4.14805 2.51889 3.49559 3.08829 3.04685C3.66896 2.58923 4.44724 2.22085 5.31981 1.93Z" fill="black"/>
<path fill-rule="evenodd" clip-rule="evenodd" d="M2.99995 4C3.55224 4 3.99995 4.44772 3.99995 5V19C3.99995 19.0028 3.99994 19.0056 3.99992 19.0083C3.99991 19.0094 3.9999 19.0105 3.99988 19.0116L3.99989 19.0116C3.99989 19.0116 3.99989 19.0117 3.9999 19.0118C3.99991 19.012 3.99997 19.0126 4.00015 19.0137C4.00048 19.0156 4.00147 19.0206 4.00435 19.0288C4.01013 19.0453 4.02471 19.0785 4.05985 19.1273C4.13341 19.2295 4.27881 19.375 4.53941 19.544C5.06556 19.8852 5.90159 20.2199 7.01989 20.4846C8.1262 20.7464 9.42351 20.9197 10.8014 20.9838C12.1781 21.0479 13.5793 21.0005 14.8829 20.8469C15.4314 20.7822 15.9284 21.1745 15.9931 21.723C16.0577 22.2714 15.6655 22.7685 15.117 22.8331C13.7001 23.0001 12.1894 23.0506 10.7084 22.9817C9.22843 22.9128 7.80579 22.7259 6.55928 22.4308C5.32477 22.1387 4.24407 21.7362 3.45116 21.222C2.69369 20.7307 1.99159 19.9918 1.99995 18.9951V5C1.99995 4.44772 2.44767 4 2.99995 4Z" fill="black"/>
<path fill-rule="evenodd" clip-rule="evenodd" d="M21 4C21.5523 4 22 4.44772 22 5V8C22 8.55228 21.5523 9 21 9C20.4477 9 20 8.55228 20 8V5C20 4.44772 20.4477 4 21 4Z" fill="black"/>
<path fill-rule="evenodd" clip-rule="evenodd" d="M21.5145 11.1425C21.9881 11.4266 22.1416 12.0409 21.8575 12.5145L19.7662 16H22C22.3603 16 22.6927 16.1938 22.8702 16.5073C23.0477 16.8208 23.0429 17.2055 22.8575 17.5145L19.8575 22.5145C19.5733 22.988 18.9591 23.1416 18.4855 22.8575C18.0119 22.5733 17.8584 21.9591 18.1425 21.4855L20.2338 18H18C17.6397 18 17.3073 17.8062 17.1298 17.4927C16.9523 17.1792 16.9571 16.7944 17.1425 16.4855L20.1425 11.4855C20.4267 11.0119 21.0409 10.8583 21.5145 11.1425Z" fill="black"/>
<path fill-rule="evenodd" clip-rule="evenodd" d="M2.99691 11C3.54919 10.9983 3.99829 11.4446 4 11.9969L4 11.9969L4 11.997C4 11.997 4 11.9971 4.00002 11.9972C4.00004 11.9975 4.00012 11.9982 4.00032 11.9994C4.00071 12.0015 4.00179 12.0066 4.0047 12.0148C4.01054 12.0313 4.02486 12.0635 4.05847 12.1105C4.12871 12.2089 4.26668 12.3488 4.51347 12.5122C5.01226 12.8424 5.80562 13.17 6.87333 13.4344C7.92942 13.6959 9.17305 13.8758 10.5045 13.9536C11.8347 14.0313 13.2009 14.0041 14.4903 13.875C15.0399 13.8199 15.53 14.2208 15.585 14.7703C15.6401 15.3199 15.2392 15.81 14.6897 15.865C13.2926 16.005 11.8208 16.0339 10.3879 15.9502C8.95632 15.8665 7.58832 15.6719 6.3926 15.3758C5.20849 15.0826 4.17219 14.6849 3.40944 14.1799C2.6765 13.6947 2.003 12.9723 2 12.0031C1.9983 11.4508 2.44463 11.0017 2.99691 11Z" fill="black"/>
</svg>
