<svg width="24" height="24" viewBox="0 0 24 24" fill="none" xmlns="http://www.w3.org/2000/svg">
<path fill-rule="evenodd" clip-rule="evenodd" d="M10 5C10 2.74772 11.7477 1 14 1C16.2523 1 18 2.74772 18 5C18 5.55228 17.5523 6 17 6C16.4477 6 16 5.55228 16 5C16 3.85228 15.1477 3 14 3C12.8523 3 12 3.85228 12 5C12 5.54325 12.2005 5.98633 12.5071 6.29289C12.7931 6.57889 12.8787 7.00901 12.7239 7.38268C12.5691 7.75636 12.2045 8 11.8 8H11C7.65228 8 5 10.6523 5 14C5 15.6477 6.35228 17 8 17C8.55228 17 9 17.4477 9 18C9 18.5523 8.55228 19 8 19C5.24771 19 3 16.7523 3 14C3 9.83966 6.09771 6.46915 10.1366 6.04502C10.0469 5.71281 10 5.36227 10 5Z" fill="black"/>
<path fill-rule="evenodd" clip-rule="evenodd" d="M18.2079 4.11428C17.9024 4.27008 17.7056 4.40855 17.5071 4.60708C17.1166 4.99761 16.4834 4.99761 16.0929 4.60708C15.7024 4.21656 15.7024 3.58339 16.0929 3.19287C16.486 2.7998 16.8809 2.54148 17.3528 2.30555C17.3776 2.29315 17.4029 2.28179 17.4286 2.2715C19.4036 1.48151 21.8086 2.3788 22.6285 4.42858C23.278 6.05227 22.787 7.96658 21.4528 9.05182L22.5546 10.9799C22.9061 11.5342 22.9019 12.1891 22.9002 12.4549C22.9001 12.4715 22.9 12.4865 22.9 12.5C22.9 12.5817 22.89 12.6632 22.8701 12.7425C22.5297 14.1042 21.3016 14.7455 20.076 14.5923C20.0558 14.5897 20.0357 14.5866 20.0157 14.5828L20.2 13.6C20.0157 14.5828 20.0157 14.5828 20.0156 14.5828L20.0155 14.5828L20.0152 14.5828L20.0102 14.5818C20.0068 14.5812 20.002 14.5803 19.9957 14.5791C19.983 14.5767 19.9647 14.5732 19.941 14.5687C19.8938 14.5596 19.8255 14.5464 19.7402 14.5297C19.5699 14.4963 19.3313 14.4485 19.0576 14.3913C18.5553 14.2861 17.9196 14.1456 17.3682 14H17C15.8523 14 15 14.8523 15 16C15 16.5523 14.5523 17 14 17C13.4477 17 13 16.5523 13 16C13 13.7477 14.7477 12 17 12H17.5C17.5889 12 17.6774 12.0118 17.7631 12.0352C18.2836 12.1772 18.9351 12.3223 19.4674 12.4337C19.7312 12.4889 19.9614 12.5349 20.1254 12.5671C20.2074 12.5832 20.2726 12.5958 20.3172 12.6043C20.3298 12.6068 20.3408 12.6089 20.35 12.6106C20.5387 12.6293 20.6683 12.5874 20.745 12.5395C20.8008 12.5046 20.8577 12.4494 20.899 12.3514C20.8975 12.2688 20.8938 12.2026 20.8851 12.1414C20.8764 12.081 20.8663 12.0544 20.864 12.0487C20.8527 12.0315 20.842 12.014 20.8318 11.9961L19.2318 9.19611C19.0882 8.94491 19.0605 8.64385 19.1558 8.37067C19.2511 8.09748 19.46 7.87895 19.7286 7.7715C20.6788 7.39141 21.1815 6.19638 20.7715 5.17137C20.3959 4.2324 19.2246 3.73041 18.2079 4.11428Z" fill="black"/>
<path fill-rule="evenodd" clip-rule="evenodd" d="M10.0001 12.988C10.0067 12.4358 10.4597 11.9935 11.012 12.0001C11.78 12.0093 12.5292 12.2394 13.17 12.663C13.8108 13.0866 14.316 13.6857 14.6254 14.3888C14.9347 15.0919 15.0351 15.8692 14.9145 16.6278C14.7939 17.3864 14.4574 18.0943 13.9453 18.6667C13.5771 19.0784 12.9449 19.1135 12.5333 18.7453C12.1216 18.3771 12.0865 17.7449 12.4547 17.3333C12.7108 17.047 12.879 16.6931 12.9393 16.3138C12.9996 15.9345 12.9494 15.5459 12.7948 15.1943C12.6401 14.8428 12.3874 14.5432 12.0671 14.3314C11.7467 14.1196 11.3721 14.0045 10.988 13.9999C10.4358 13.9933 9.99347 13.5403 10.0001 12.988Z" fill="black"/>
<path fill-rule="evenodd" clip-rule="evenodd" d="M4 19C3.73478 19 3.48043 19.1054 3.29289 19.2929C3.10536 19.4804 3 19.7348 3 20C3 20.2652 3.10536 20.5196 3.29289 20.7071C3.48043 20.8946 3.73478 21 4 21H13C13.5523 21 14 21.4477 14 22C14 22.5523 13.5523 23 13 23H4C3.20435 23 2.44129 22.6839 1.87868 22.1213C1.31607 21.5587 1 20.7956 1 20C1 19.2044 1.31607 18.4413 1.87868 17.8787C2.44129 17.3161 3.20435 17 4 17H16C16.5523 17 17 17.4477 17 18C17 18.5523 16.5523 19 16 19H4Z" fill="black"/>
<path fill-rule="evenodd" clip-rule="evenodd" d="M15 9C15 8.44772 15.4477 8 16 8H16.01C16.5623 8 17.01 8.44772 17.01 9C17.01 9.55228 16.5623 10 16.01 10H16C15.4477 10 15 9.55228 15 9Z" fill="black"/>
</svg>
