<svg width="24" height="24" viewBox="0 0 24 24" fill="none" xmlns="http://www.w3.org/2000/svg">
<path fill-rule="evenodd" clip-rule="evenodd" d="M11.4742 1.14935C11.7691 0.967144 12.1372 0.95058 12.4472 1.10557L20.4472 5.10557C20.786 5.27497 21 5.62123 21 6C21 6.37877 20.786 6.72504 20.4472 6.89443L13 10.618V13C13 13.5523 12.5523 14 12 14C11.4477 14 11 13.5523 11 13V10.0217C10.9997 10.0077 10.9997 9.99379 11 9.97988V2C11 1.65342 11.1794 1.33156 11.4742 1.14935ZM13 8.38197L17.7639 6L13 3.61803V8.38197Z" fill="black"/>
<path fill-rule="evenodd" clip-rule="evenodd" d="M8.90744 4.48873C9.15225 4.98379 8.94937 5.58357 8.4543 5.82838C7.08038 6.50777 5.93055 7.56754 5.1416 8.88161C4.35265 10.1957 3.95779 11.7087 4.00401 13.2408C4.05022 14.7728 4.53557 16.2593 5.40229 17.5234C6.26902 18.7875 7.48065 19.7761 8.89302 20.3714C10.3054 20.9667 11.8591 21.1438 13.3692 20.8816C14.8793 20.6193 16.2823 19.9288 17.4113 18.8921C18.5402 17.8554 19.3476 16.5163 19.7374 15.0339C20.1271 13.5516 20.0829 11.9885 19.6099 10.5306C19.4394 10.0053 19.7271 9.44124 20.2524 9.2708C20.7778 9.10035 21.3418 9.38804 21.5122 9.91337C22.1035 11.7357 22.1588 13.6896 21.6716 15.5425C21.1844 17.3954 20.1752 19.0694 18.764 20.3652C17.3528 21.6611 15.599 22.5243 13.7114 22.8521C11.8237 23.1799 9.88166 22.9585 8.11619 22.2144C6.35072 21.4702 4.83618 20.2345 3.75277 18.6544C2.66936 17.0742 2.06269 15.2161 2.00491 13.3011C1.94714 11.386 2.44071 9.49472 3.4269 7.85213C4.41309 6.20954 5.85039 4.88483 7.56779 4.03559C8.06285 3.79079 8.66264 3.99366 8.90744 4.48873Z" fill="black"/>
<path fill-rule="evenodd" clip-rule="evenodd" d="M8.60265 9.19748C9.04422 9.5292 9.13326 10.1561 8.80154 10.5976C8.40067 11.1313 8.13968 11.7567 8.04238 12.417C7.94507 13.0773 8.01453 13.7514 8.24442 14.378C8.47432 15.0046 8.85735 15.5637 9.3586 16.0043C9.85986 16.445 10.4634 16.7532 11.1143 16.901C11.7652 17.0487 12.4426 17.0312 13.085 16.8501C13.7274 16.669 14.3143 16.33 14.7921 15.8641C15.27 15.3982 15.6236 14.8201 15.8209 14.1825C16.0182 13.5449 16.0528 12.868 15.9215 12.2136C15.8129 11.6721 16.1639 11.1451 16.7054 11.0365C17.2469 10.9279 17.7739 11.2789 17.8825 11.8204C18.0794 12.802 18.0275 13.8172 17.7316 14.7736C17.4357 15.73 16.9051 16.5972 16.1884 17.2961C15.4716 17.995 14.5913 18.5034 13.6277 18.7751C12.6641 19.0467 11.6479 19.073 10.6716 18.8514C9.69531 18.6298 8.78998 18.1674 8.03809 17.5064C7.2862 16.8454 6.71166 16.0068 6.36682 15.0669C6.02197 14.127 5.91779 13.1158 6.06375 12.1254C6.20971 11.135 6.60118 10.1968 7.2025 9.39637C7.53422 8.95481 8.16109 8.86576 8.60265 9.19748Z" fill="black"/>
</svg>
