<svg width="24" height="24" viewBox="0 0 24 24" fill="none" xmlns="http://www.w3.org/2000/svg">
<path fill-rule="evenodd" clip-rule="evenodd" d="M9.87863 9.87868C10.4412 9.31607 11.2043 9 12 9C12.5522 9 13 9.44772 13 10C13 10.5523 12.5522 11 12 11C11.7347 11 11.4804 11.1054 11.2928 11.2929C11.1053 11.4804 11 11.7348 11 12C11 13.0699 10.8961 14.599 10.7342 16.1068C10.6753 16.6559 10.1823 17.0533 9.63318 16.9943C9.08406 16.9353 8.6867 16.4424 8.74567 15.8932C8.90376 14.421 8.99995 12.9701 8.99995 12C8.99995 11.2043 9.31602 10.4413 9.87863 9.87868Z" fill="black"/>
<path fill-rule="evenodd" clip-rule="evenodd" d="M14 12.12C14.5523 12.12 15 12.5677 15 13.12V13.1316C15 14.3171 15 15.9437 14.872 17.5924C14.7448 19.2306 14.486 20.9777 13.9285 22.3714C13.7234 22.8842 13.1414 23.1336 12.6286 22.9285C12.1158 22.7234 11.8664 22.1414 12.0715 21.6286C12.5141 20.5223 12.7552 19.0194 12.878 17.4376C12.9996 15.8716 13 14.3135 13 13.12C13 12.5677 13.4477 12.12 14 12.12Z" fill="black"/>
<path fill-rule="evenodd" clip-rule="evenodd" d="M17.8868 17.0046C18.4364 17.0581 18.8387 17.547 18.7853 18.0967C18.7098 18.8735 18.3898 20.6198 18.2706 21.2161C18.1623 21.7576 17.6354 22.1088 17.0939 22.0005C16.5523 21.8922 16.2011 21.3654 16.3094 20.8238C16.4302 20.2201 16.7302 18.5664 16.7947 17.9032C16.8481 17.3535 17.3371 16.9512 17.8868 17.0046Z" fill="black"/>
<path fill-rule="evenodd" clip-rule="evenodd" d="M14.6835 3.40938C12.8805 2.84616 10.946 2.86451 9.15395 3.46185C7.36194 4.05919 5.8033 5.20522 4.69882 6.73761C3.59434 8.27 3 10.1111 3 12C3 12.5523 2.55228 13 2 13C1.44772 13 1 12.5523 1 12C1 9.69129 1.72641 7.44111 3.07634 5.56819C4.42626 3.69527 6.33126 2.29456 8.5215 1.56448C10.7117 0.834406 13.0762 0.811969 15.2798 1.50035C17.4835 2.18873 19.4148 3.55303 20.8 5.4C21.1314 5.84183 21.0418 6.46863 20.6 6.8C20.1582 7.13137 19.5314 7.04183 19.2 6.6C18.0666 5.08885 16.4865 3.9726 14.6835 3.40938Z" fill="black"/>
<path fill-rule="evenodd" clip-rule="evenodd" d="M1 16C1 15.4477 1.44772 15 2 15H2.01C2.56228 15 3.01 15.4477 3.01 16C3.01 16.5523 2.56228 17 2.01 17H2C1.44772 17 1 16.5523 1 16Z" fill="black"/>
<path fill-rule="evenodd" clip-rule="evenodd" d="M21.6013 9.0199C22.1425 8.91014 22.6703 9.25994 22.7801 9.80121C22.83 10.0477 22.8609 10.452 22.8822 10.8789C22.9048 11.3325 22.9197 11.8893 22.9241 12.4848C22.9328 13.669 22.9002 15.048 22.795 16.0995C22.7401 16.649 22.25 17.0499 21.7005 16.995C21.151 16.94 20.75 16.45 20.805 15.9004C20.8998 14.9519 20.9327 13.6539 20.9242 12.4996C20.9199 11.9259 20.9055 11.398 20.8846 10.9785C20.8624 10.5324 20.8355 10.2752 20.8199 10.1987C20.7102 9.65743 21.06 9.12966 21.6013 9.0199Z" fill="black"/>
<path fill-rule="evenodd" clip-rule="evenodd" d="M6.67188 9.0567C7.19287 9.23997 7.46664 9.81089 7.28336 10.3319C7.095 10.8673 6.99918 11.4309 7.00003 11.9985L7.00003 12C7.00003 15.0804 6.49033 18.1914 5.94871 19.8163C5.77406 20.3402 5.20774 20.6234 4.6838 20.4487C4.15986 20.2741 3.8767 19.7077 4.05134 19.1838C4.50969 17.8088 4.99995 14.9201 5.00003 12.0007C4.99894 11.2063 5.13308 10.4176 5.3967 9.66818C5.57997 9.14719 6.15089 8.87342 6.67188 9.0567Z" fill="black"/>
<path fill-rule="evenodd" clip-rule="evenodd" d="M9.39383 19.0153C9.93772 19.1112 10.3008 19.6299 10.2048 20.1738C10.0942 20.8007 9.89063 21.4221 9.71477 21.9588C9.6757 22.0781 9.63799 22.1932 9.60297 22.3032C9.43552 22.8295 8.87313 23.1204 8.34685 22.953C7.82056 22.7855 7.52967 22.2231 7.69712 21.6968C7.7432 21.552 7.78839 21.4135 7.83204 21.2797C8.00382 20.7531 8.1517 20.2998 8.23527 19.8263C8.33124 19.2824 8.84995 18.9193 9.39383 19.0153Z" fill="black"/>
<path fill-rule="evenodd" clip-rule="evenodd" d="M12.0008 6.99609C11.1229 6.99595 10.2604 7.22699 9.50005 7.66597C9.02175 7.94211 8.41016 7.77823 8.13402 7.29994C7.85788 6.82165 8.02175 6.21006 8.50004 5.93392C9.56451 5.31935 10.772 4.9959 12.0012 4.99609C13.2303 4.99629 14.4377 5.32013 15.502 5.93504C16.5663 6.54995 17.4499 7.43425 18.0639 8.49901C18.678 9.56377 19.0008 10.7714 19 12.0006V13.9999C19 14.5522 18.5523 14.9999 18 14.9999C17.4478 14.9999 17 14.5522 17 13.9999V11.9993C17.0006 11.1213 16.77 10.2587 16.3314 9.49818C15.8928 8.73763 15.2616 8.10599 14.5014 7.66677C13.7412 7.22755 12.8788 6.99623 12.0008 6.99609Z" fill="black"/>
</svg>
