<svg width="24" height="24" viewBox="0 0 24 24" fill="none" xmlns="http://www.w3.org/2000/svg">
<path fill-rule="evenodd" clip-rule="evenodd" d="M2 3C2 2.44772 2.44772 2 3 2H6C6.26522 2 6.51957 2.10536 6.70711 2.29289L18.2071 13.7929C18.5976 14.1834 18.5976 14.8166 18.2071 15.2071C17.8166 15.5976 17.1834 15.5976 16.7929 15.2071L5.58579 4H4V5.58579L15.2071 16.7929C15.5976 17.1834 15.5976 17.8166 15.2071 18.2071C14.8166 18.5976 14.1834 18.5976 13.7929 18.2071L2.29289 6.70711C2.10536 6.51957 2 6.26522 2 6V3Z" fill="black"/>
<path fill-rule="evenodd" clip-rule="evenodd" d="M19.7071 12.2929C20.0976 12.6834 20.0976 13.3166 19.7071 13.7071L13.7071 19.7071C13.3166 20.0976 12.6834 20.0976 12.2929 19.7071C11.9024 19.3166 11.9024 18.6834 12.2929 18.2929L18.2929 12.2929C18.6834 11.9024 19.3166 11.9024 19.7071 12.2929Z" fill="black"/>
<path fill-rule="evenodd" clip-rule="evenodd" d="M15.2929 15.2929C15.6834 14.9024 16.3166 14.9024 16.7071 15.2929L20.7071 19.2929C21.0976 19.6834 21.0976 20.3166 20.7071 20.7071C20.3166 21.0976 19.6834 21.0976 19.2929 20.7071L15.2929 16.7071C14.9024 16.3166 14.9024 15.6834 15.2929 15.2929Z" fill="black"/>
<path fill-rule="evenodd" clip-rule="evenodd" d="M21.7071 18.2929C22.0976 18.6834 22.0976 19.3166 21.7071 19.7071L19.7071 21.7071C19.3166 22.0976 18.6834 22.0976 18.2929 21.7071C17.9024 21.3166 17.9024 20.6834 18.2929 20.2929L20.2929 18.2929C20.6834 17.9024 21.3166 17.9024 21.7071 18.2929Z" fill="black"/>
</svg>
