<svg width="24" height="24" viewBox="0 0 24 24" fill="none" xmlns="http://www.w3.org/2000/svg">
<path fill-rule="evenodd" clip-rule="evenodd" d="M7.44719 1.10556C7.94117 1.35254 8.14139 1.95322 7.8944 2.4472L2.8944 12.4472C2.64741 12.9412 2.04674 13.1414 1.55276 12.8944C1.05878 12.6474 0.858558 12.0467 1.10555 11.5528L6.10555 1.55277C6.35254 1.05879 6.95321 0.858566 7.44719 1.10556Z" fill="black"/>
<path fill-rule="evenodd" clip-rule="evenodd" d="M12.4472 1.10556C12.9412 1.35254 13.1414 1.95322 12.8944 2.4472L7.8944 12.4472C7.64741 12.9412 7.04674 13.1414 6.55276 12.8944C6.05878 12.6474 5.85856 12.0467 6.10555 11.5528L11.1055 1.55277C11.3525 1.05879 11.9532 0.858566 12.4472 1.10556Z" fill="black"/>
<path fill-rule="evenodd" clip-rule="evenodd" d="M17.4472 1.10556C17.9412 1.35254 18.1414 1.95322 17.8944 2.4472L12.8944 12.4472C12.6474 12.9412 12.0467 13.1414 11.5528 12.8944C11.0588 12.6474 10.8586 12.0467 11.1055 11.5528L16.1055 1.55277C16.3525 1.05879 16.9532 0.858566 17.4472 1.10556Z" fill="black"/>
<path fill-rule="evenodd" clip-rule="evenodd" d="M22.4472 1.10556C22.9412 1.35254 23.1414 1.95322 22.8944 2.4472L17.8944 12.4472C17.6474 12.9412 17.0467 13.1414 16.5528 12.8944C16.0588 12.6474 15.8586 12.0467 16.1055 11.5528L21.1055 1.55277C21.3525 1.05879 21.9532 0.858566 22.4472 1.10556Z" fill="black"/>
<path fill-rule="evenodd" clip-rule="evenodd" d="M3.5 7C3.5 6.44772 3.94772 6 4.5 6H19.5C20.0523 6 20.5 6.44772 20.5 7C20.5 7.55228 20.0523 8 19.5 8H4.5C3.94772 8 3.5 7.55228 3.5 7Z" fill="black"/>
<path fill-rule="evenodd" clip-rule="evenodd" d="M12 15C12.5523 15 13 15.4477 13 16V22C13 22.5523 12.5523 23 12 23C11.4477 23 11 22.5523 11 22V16C11 15.4477 11.4477 15 12 15Z" fill="black"/>
</svg>
