<svg width="24" height="24" viewBox="0 0 24 24" fill="none" xmlns="http://www.w3.org/2000/svg">
<path fill-rule="evenodd" clip-rule="evenodd" d="M6.00306 2.99624C7.73347 1.69947 9.83761 0.998535 12 0.998535C14.1624 0.998535 16.2665 1.69947 17.9969 2.99624C19.7274 4.29302 20.9908 6.11576 21.5979 8.19119C22.2049 10.2666 22.1229 12.4829 21.364 14.5078C20.6052 16.5327 19.2104 18.257 17.3889 19.4223C16.9237 19.7199 16.3052 19.584 16.0076 19.1188C15.71 18.6536 15.8459 18.0352 16.3111 17.7375C17.7684 16.8053 18.8842 15.4258 19.4912 13.8059C20.0983 12.186 20.1639 10.413 19.6783 8.75266C19.1926 7.09231 18.1819 5.63412 16.7976 4.5967C15.4132 3.55928 13.7299 2.99854 12 2.99854C10.2701 2.99854 8.58678 3.55928 7.20245 4.5967C5.81812 5.63412 4.80736 7.09231 4.32172 8.75266C3.83607 10.413 3.9017 12.186 4.50878 13.8059C5.11585 15.4258 6.23165 16.8053 7.68889 17.7375C8.15412 18.0352 8.29 18.6536 7.99238 19.1188C7.69476 19.584 7.07634 19.7199 6.61111 19.4223C4.78956 18.257 3.39481 16.5327 2.63597 14.5078C1.87713 12.4829 1.79509 10.2666 2.40214 8.19119C3.0092 6.11576 4.27265 4.29302 6.00306 2.99624Z" fill="black"/>
<path fill-rule="evenodd" clip-rule="evenodd" d="M12 7C11.2572 7 10.529 7.20686 9.89708 7.5974C9.26517 7.98794 8.75451 8.54672 8.42229 9.21115C8.09008 9.87557 7.94945 10.6194 8.01617 11.3592C8.08288 12.0991 8.35429 12.8057 8.8 13.4C9.13137 13.8418 9.04183 14.4686 8.6 14.8C8.15817 15.1314 7.53137 15.0418 7.2 14.6C6.53144 13.7086 6.12431 12.6486 6.02425 11.5388C5.92418 10.4291 6.13512 9.31335 6.63344 8.31672C7.13176 7.32008 7.89776 6.4819 8.84562 5.8961C9.79347 5.31029 10.8857 5 12 5C13.1143 5 14.2065 5.31029 15.1544 5.8961C16.1022 6.4819 16.8682 7.32008 17.3666 8.31672C17.8649 9.31335 18.0758 10.4291 17.9758 11.5388C17.8757 12.6486 17.4686 13.7086 16.8 14.6C16.4686 15.0418 15.8418 15.1314 15.4 14.8C14.9582 14.4686 14.8686 13.8418 15.2 13.4C15.6457 12.8057 15.9171 12.0991 15.9838 11.3592C16.0506 10.6194 15.9099 9.87557 15.5777 9.21115C15.2455 8.54672 14.7348 7.98793 14.1029 7.5974C13.471 7.20686 12.7429 7 12 7Z" fill="black"/>
<path fill-rule="evenodd" clip-rule="evenodd" d="M10 11C10 9.89543 10.8954 9 12 9C13.1046 9 14 9.89543 14 11C14 12.1046 13.1046 13 12 13C10.8954 13 10 12.1046 10 11Z" fill="black"/>
<path fill-rule="evenodd" clip-rule="evenodd" d="M10.5858 15.5858C10.9609 15.2107 11.4696 15 12 15C12.5304 15 13.0391 15.2107 13.4142 15.5858C13.7893 15.9609 14 16.4696 14 17C14 17.0369 13.998 17.0738 13.9939 17.1104L13.4984 21.5701C13.4809 21.9424 13.3254 22.2959 13.0607 22.5607C12.7794 22.842 12.3978 23 12 23C11.6022 23 11.2206 22.842 10.9393 22.5607C10.6746 22.2959 10.5191 21.9424 10.5016 21.5701L10.0061 17.1104C10.002 17.0738 10 17.0369 10 17C10 16.4696 10.2107 15.9609 10.5858 15.5858Z" fill="black"/>
</svg>
