<svg width="24" height="24" viewBox="0 0 24 24" fill="none" xmlns="http://www.w3.org/2000/svg">
<path fill-rule="evenodd" clip-rule="evenodd" d="M5 4C4.44772 4 4 4.44772 4 5V19C4 19.5523 4.44772 20 5 20H19C19.5523 20 20 19.5523 20 19V5C20 4.44772 19.5523 4 19 4H5ZM2 5C2 3.34315 3.34315 2 5 2H19C20.6569 2 22 3.34315 22 5V19C22 20.6569 20.6569 22 19 22H5C3.34315 22 2 20.6569 2 19V5Z" fill="black"/>
<path fill-rule="evenodd" clip-rule="evenodd" d="M7 6C7.55228 6 8 6.44772 8 7V17C8 17.5523 7.55228 18 7 18C6.44772 18 6 17.5523 6 17V7C6 6.44772 6.44772 6 7 6Z" fill="black"/>
<path fill-rule="evenodd" clip-rule="evenodd" d="M11 6C11.5523 6 12 6.44772 12 7V17C12 17.5523 11.5523 18 11 18C10.4477 18 10 17.5523 10 17V7C10 6.44772 10.4477 6 11 6Z" fill="black"/>
<path fill-rule="evenodd" clip-rule="evenodd" d="M14.8038 6.01937C15.3454 5.91106 15.8722 6.26227 15.9805 6.80383L17.9805 16.8038C18.0888 17.3454 17.7376 17.8722 17.1961 17.9805C16.6545 18.0888 16.1277 17.7376 16.0194 17.1961L14.0194 7.19606C13.9111 6.65451 14.2623 6.12768 14.8038 6.01937Z" fill="black"/>
</svg>
