<svg width="24" height="24" viewBox="0 0 24 24" fill="none" xmlns="http://www.w3.org/2000/svg">
<path fill-rule="evenodd" clip-rule="evenodd" d="M6.46447 9.46447C7.40215 8.52678 8.67392 8 10 8C11.3261 8 12.5979 8.52678 13.5355 9.46447C14.4732 10.4021 15 11.6739 15 13C15 13.9193 14.8189 14.8295 14.4672 15.6788C14.1154 16.5281 13.5998 17.2997 12.9497 17.9497C12.2997 18.5998 11.5281 19.1154 10.6788 19.4672C9.8295 19.8189 8.91925 20 8 20C7.08075 20 6.1705 19.8189 5.32122 19.4672C4.47194 19.1154 3.70026 18.5998 3.05025 17.9497C2.40024 17.2997 1.88463 16.5281 1.53284 15.6788C1.18106 14.8295 1 13.9193 1 13C1 12.4477 1.44772 12 2 12C2.55228 12 3 12.4477 3 13C3 13.6566 3.12933 14.3068 3.3806 14.9134C3.63188 15.52 4.00017 16.0712 4.46447 16.5355C4.92876 16.9998 5.47995 17.3681 6.08658 17.6194C6.69321 17.8707 7.34339 18 8 18C8.65661 18 9.30679 17.8707 9.91342 17.6194C10.52 17.3681 11.0712 16.9998 11.5355 16.5355C11.9998 16.0712 12.3681 15.52 12.6194 14.9134C12.8707 14.3068 13 13.6566 13 13C13 12.2043 12.6839 11.4413 12.1213 10.8787C11.5587 10.3161 10.7956 10 10 10C9.20435 10 8.44129 10.3161 7.87868 10.8787C7.31607 11.4413 7 12.2043 7 13C7 13.2652 7.10536 13.5196 7.29289 13.7071C7.48043 13.8946 7.73478 14 8 14C8.26522 14 8.51957 13.8946 8.70711 13.7071C8.89464 13.5196 9 13.2652 9 13C9 12.4477 9.44771 12 10 12C10.5523 12 11 12.4477 11 13C11 13.7957 10.6839 14.5587 10.1213 15.1213C9.55871 15.6839 8.79565 16 8 16C7.20435 16 6.44129 15.6839 5.87868 15.1213C5.31607 14.5587 5 13.7956 5 13C5 11.6739 5.52678 10.4021 6.46447 9.46447Z" fill="black"/>
<path fill-rule="evenodd" clip-rule="evenodd" d="M10 6C6.13401 6 3 9.13401 3 13C3 16.866 6.13401 20 10 20C13.866 20 17 16.866 17 13C17 9.13401 13.866 6 10 6ZM1 13C1 8.02944 5.02944 4 10 4C14.9706 4 19 8.02944 19 13C19 17.9706 14.9706 22 10 22C5.02944 22 1 17.9706 1 13Z" fill="black"/>
<path fill-rule="evenodd" clip-rule="evenodd" d="M17.8787 4.87868C18.4413 4.31607 19.2043 4 20 4C20.7956 4 21.5587 4.31607 22.1213 4.87868C22.6839 5.44129 23 6.20435 23 7V13C23 17.9523 18.9523 22 14 22H2C1.44772 22 1 21.5523 1 21C1 20.4477 1.44772 20 2 20H14C17.8477 20 21 16.8477 21 13V7C21 6.73478 20.8946 6.48043 20.7071 6.29289C20.5196 6.10536 20.2652 6 20 6C19.7348 6 19.4804 6.10536 19.2929 6.29289C19.1054 6.48043 19 6.73478 19 7V13C19 13.5523 18.5523 14 18 14C17.4477 14 17 13.5523 17 13V7C17 6.20435 17.3161 5.44129 17.8787 4.87868Z" fill="black"/>
<path fill-rule="evenodd" clip-rule="evenodd" d="M17.5528 2.10555C18.0467 1.85856 18.6474 2.05878 18.8944 2.55276L19.9944 4.75276C20.2414 5.24674 20.0412 5.84741 19.5472 6.0944C19.0532 6.34139 18.4525 6.14117 18.2055 5.64719L17.1055 3.44719C16.8586 2.95321 17.0588 2.35254 17.5528 2.10555Z" fill="black"/>
<path fill-rule="evenodd" clip-rule="evenodd" d="M22.4473 2.10555C22.9413 2.35254 23.1415 2.95321 22.8945 3.44719L21.7945 5.64719C21.5476 6.14117 20.9469 6.34139 20.4529 6.0944C19.9589 5.84741 19.7587 5.24674 20.0057 4.75276L21.1057 2.55276C21.3527 2.05878 21.9534 1.85856 22.4473 2.10555Z" fill="black"/>
</svg>
