<svg width="24" height="24" viewBox="0 0 24 24" fill="none" xmlns="http://www.w3.org/2000/svg">
<path fill-rule="evenodd" clip-rule="evenodd" d="M2 5C2.55228 5 3 5.44772 3 6V20C3 20.2652 3.10536 20.5196 3.29289 20.7071C3.48043 20.8946 3.73478 21 4 21H18C18.5523 21 19 21.4477 19 22C19 22.5523 18.5523 23 18 23H4C3.20435 23 2.44129 22.6839 1.87868 22.1213C1.31607 21.5587 1 20.7956 1 20V6C1 5.44772 1.44772 5 2 5Z" fill="black"/>
<path fill-rule="evenodd" clip-rule="evenodd" d="M16.5889 10.9969C17.2284 10.3575 18.0957 9.99829 19 9.99829C19.9043 9.99829 20.7716 10.3575 21.4111 10.9969L21.4111 10.9969L22.7071 12.2929C23.0976 12.6835 23.0976 13.3166 22.7071 13.7071C22.3166 14.0977 21.6834 14.0977 21.2929 13.7071L19.9969 12.4112C19.9969 12.4112 19.9969 12.4112 19.9969 12.4111C19.7325 12.1468 19.3739 11.9983 19 11.9983C18.6261 11.9983 18.2675 12.1468 18.0031 12.4111C18.0031 12.4112 18.0031 12.4112 18.0031 12.4112L11.7071 18.7071C11.3166 19.0977 10.6834 19.0977 10.2929 18.7071C9.90237 18.3166 9.90237 17.6835 10.2929 17.2929L16.5889 10.9969L16.5889 10.9969Z" fill="black"/>
<path fill-rule="evenodd" clip-rule="evenodd" d="M12 7C11.4477 7 11 7.44772 11 8C11 8.55228 11.4477 9 12 9C12.5523 9 13 8.55228 13 8C13 7.44772 12.5523 7 12 7ZM9 8C9 6.34315 10.3431 5 12 5C13.6569 5 15 6.34315 15 8C15 9.65685 13.6569 11 12 11C10.3431 11 9 9.65685 9 8Z" fill="black"/>
<path fill-rule="evenodd" clip-rule="evenodd" d="M8 3C7.44772 3 7 3.44772 7 4V16C7 16.5523 7.44772 17 8 17H20C20.5523 17 21 16.5523 21 16V4C21 3.44772 20.5523 3 20 3H8ZM5 4C5 2.34315 6.34315 1 8 1H20C21.6569 1 23 2.34315 23 4V16C23 17.6569 21.6569 19 20 19H8C6.34315 19 5 17.6569 5 16V4Z" fill="black"/>
</svg>
