<svg width="24" height="24" viewBox="0 0 24 24" fill="none" xmlns="http://www.w3.org/2000/svg">
<path fill-rule="evenodd" clip-rule="evenodd" d="M7 10C5.89543 10 5 10.8954 5 12C5 13.1046 5.89543 14 7 14C8.10457 14 9 13.1046 9 12C9 10.8954 8.10457 10 7 10ZM3 12C3 9.79086 4.79086 8 7 8C9.20914 8 11 9.79086 11 12C11 14.2091 9.20914 16 7 16C4.79086 16 3 14.2091 3 12Z" fill="black"/>
<path fill-rule="evenodd" clip-rule="evenodd" d="M10 8C10.5523 8 11 8.44772 11 9V15C11 15.5523 10.5523 16 10 16C9.44772 16 9 15.5523 9 15V9C9 8.44772 9.44772 8 10 8Z" fill="black"/>
<path fill-rule="evenodd" clip-rule="evenodd" d="M17 10C15.8954 10 15 10.8954 15 12C15 13.1046 15.8954 14 17 14C18.1046 14 19 13.1046 19 12C19 10.8954 18.1046 10 17 10ZM13 12C13 9.79086 14.7909 8 17 8C19.2091 8 21 9.79086 21 12C21 14.2091 19.2091 16 17 16C14.7909 16 13 14.2091 13 12Z" fill="black"/>
<path fill-rule="evenodd" clip-rule="evenodd" d="M14 6C14.5523 6 15 6.44772 15 7V15C15 15.5523 14.5523 16 14 16C13.4477 16 13 15.5523 13 15V7C13 6.44772 13.4477 6 14 6Z" fill="black"/>
</svg>
