<svg width="24" height="24" viewBox="0 0 24 24" fill="none" xmlns="http://www.w3.org/2000/svg">
<path fill-rule="evenodd" clip-rule="evenodd" d="M11.9888 1.00006C11.9963 0.999979 12.0038 0.999979 12.0113 1.00006C14.2835 1.02567 16.3249 2.78482 17.7617 4.80858C19.2344 6.88276 20.2995 9.54092 20.4967 11.9173C20.6923 14.2603 20.3678 16.9746 19.0868 19.15C17.7676 21.3899 15.4777 22.9721 12.0081 23C12.0028 23 11.9974 23 11.9921 23C8.52247 22.9721 6.23252 21.3899 4.9134 19.15C3.63231 16.9746 3.3079 14.2603 3.5035 11.9173C3.50351 11.9172 3.50352 11.9171 3.50352 11.9171C3.50353 11.917 3.50354 11.9169 3.50355 11.9168C3.70079 9.54049 4.76592 6.88259 6.23844 4.80858C7.67529 2.78482 9.71663 1.02567 11.9888 1.00006ZM7.86922 5.96641C6.56935 7.79724 5.65953 10.1191 5.49666 12.0827L5.49661 12.0832C5.32231 14.1701 5.63295 16.4306 6.63676 18.135C7.60171 19.7736 9.24449 20.9755 12.0001 21C14.7557 20.9755 16.3985 19.7736 17.3634 18.135C18.3672 16.4306 18.6779 14.1701 18.5035 12.0832L18.5035 12.0827C18.3406 10.1191 17.4308 7.79724 16.1309 5.96641C14.7992 4.09071 13.2756 3.02063 12.0001 3.00009C10.7245 3.02063 9.20095 4.09071 7.86922 5.96641Z" fill="black"/>
</svg>
