<svg width="24" height="24" viewBox="0 0 24 24" fill="none" xmlns="http://www.w3.org/2000/svg">
<path fill-rule="evenodd" clip-rule="evenodd" d="M9.40945 6.1553C10.6922 5.92574 11.9491 5.9452 13.1019 6.23811C14.258 6.53188 15.2812 7.09418 16.0935 7.90647C16.9058 8.71876 17.4681 9.74195 17.7619 10.8981C18.0548 12.0509 18.0742 13.3078 17.8447 14.5905C17.6151 15.8735 17.1389 17.1698 16.4545 18.4092C15.7697 19.6492 14.8847 20.8175 13.8511 21.8511C13.4605 22.2417 12.8274 22.2417 12.4369 21.8511C12.0463 21.4606 12.0463 20.8274 12.4369 20.4369C13.3432 19.5306 14.1131 18.5117 14.7037 17.4424C15.2945 16.3725 15.6891 15.2824 15.876 14.2382C16.0629 13.1938 16.0364 12.2284 15.8235 11.3906C15.6114 10.5562 15.2181 9.85944 14.6793 9.32069C14.1406 8.78193 13.4438 8.38854 12.6094 8.17652C11.7716 7.96364 10.8062 7.93712 9.76178 8.12402C8.71762 8.31089 7.62752 8.70547 6.55762 9.29631C5.48826 9.88685 4.46943 10.6568 3.56306 11.5631C3.17254 11.9537 2.53937 11.9537 2.14885 11.5631C1.75833 11.1726 1.75833 10.5395 2.14885 10.1489C3.18249 9.11528 4.35078 8.23031 5.59077 7.54554C6.83022 6.86107 8.12649 6.3849 9.40945 6.1553Z" fill="black"/>
<path fill-rule="evenodd" clip-rule="evenodd" d="M2.14896 10.149C3.30473 8.99319 5.04608 8.77449 6.7879 9.20984C8.54134 9.64808 10.3288 10.741 11.794 12.2061C13.2592 13.6713 14.3521 15.4588 14.7903 17.2122C15.2256 18.9541 15.0069 20.6954 13.8512 21.8512C12.6954 23.0069 10.9541 23.2256 9.21223 22.7903C7.4588 22.3521 5.6713 21.2592 4.20614 19.794C2.74097 18.3288 1.64808 16.5413 1.20984 14.7879C0.774494 13.0461 0.993193 11.3047 2.14896 10.149L2.85607 10.8561L2.14896 10.149ZM6.30295 11.1502C4.95761 10.8139 4.04476 11.0816 3.56317 11.5632C3.08159 12.0448 2.81391 12.9576 3.15015 14.3029C3.4835 15.6367 4.35696 17.1164 5.62035 18.3798C6.88374 19.6432 8.36347 20.5166 9.69719 20.85C11.0425 21.1862 11.9554 20.9185 12.437 20.437C12.9185 19.9554 13.1862 19.0425 12.85 17.6972C12.5166 16.3635 11.6432 14.8837 10.3798 13.6203C9.1164 12.357 7.63667 11.4835 6.30295 11.1502Z" fill="black"/>
<path fill-rule="evenodd" clip-rule="evenodd" d="M16.6234 0.940493C17.0969 0.77182 17.6012 0.707115 18.102 0.75078C18.6027 0.794446 19.0882 0.945457 19.5253 1.19354C19.9625 1.44162 20.3411 1.78096 20.6354 2.18846C20.8031 2.42073 20.9412 2.67204 21.0471 2.93651C21.319 3.03902 21.5779 3.17529 21.8175 3.3427C22.2342 3.63393 22.5825 4.01242 22.8382 4.45188C23.0939 4.89133 23.2507 5.3812 23.2979 5.88741C23.3451 6.39363 23.2815 6.90406 23.1115 7.3832C22.9415 7.86235 22.6691 8.29871 22.3134 8.66196C21.9577 9.02521 21.5271 9.30662 21.0517 9.48663C20.5762 9.66665 20.0672 9.74094 19.5601 9.70436C19.3151 9.68668 19.0734 9.64332 18.8388 9.57542L17.272 11.1422C16.8815 11.5327 16.2483 11.5327 15.8578 11.1422C15.4673 10.7516 15.4673 10.1185 15.8578 9.72795L17.8928 7.69295C18.2082 7.37754 18.6944 7.30917 19.0846 7.52536C19.2752 7.631 19.4866 7.69385 19.704 7.70954C19.9214 7.72523 20.1397 7.69338 20.3435 7.6162C20.5474 7.53902 20.732 7.41837 20.8845 7.26263C21.037 7.10689 21.1538 6.91981 21.2266 6.71438C21.2995 6.50896 21.3268 6.29012 21.3066 6.07309C21.2863 5.85605 21.2191 5.64603 21.1095 5.45762C20.9999 5.26921 20.8505 5.10694 20.6718 4.98208C20.4932 4.85722 20.2895 4.77278 20.0748 4.73462C19.6693 4.6625 19.3494 4.34907 19.2691 3.94506C19.2271 3.73377 19.1401 3.53401 19.014 3.35937C18.8878 3.18472 18.7256 3.0393 18.5382 2.93297C18.3509 2.82665 18.1428 2.76193 17.9282 2.74322C17.7136 2.72451 17.4975 2.75224 17.2946 2.82453C17.0916 2.89681 16.9066 3.01196 16.7522 3.16214C16.5978 3.31232 16.4775 3.494 16.3995 3.69483C16.3216 3.89566 16.2878 4.11091 16.3005 4.32596C16.3132 4.54101 16.3721 4.7508 16.4731 4.94106C16.6792 5.32911 16.6078 5.80623 16.2972 6.11699L14.2732 8.14199C13.8828 8.53261 13.2496 8.53277 12.859 8.14234C12.4684 7.75191 12.4682 7.11875 12.8586 6.72813L14.4226 5.1634C14.3583 4.92901 14.3184 4.68788 14.304 4.44384C14.2744 3.94207 14.3532 3.4398 14.535 2.9712C14.7169 2.50261 14.9976 2.07868 15.3579 1.72827C15.7183 1.37785 16.1499 1.10917 16.6234 0.940493Z" fill="black"/>
<path fill-rule="evenodd" clip-rule="evenodd" d="M6.79289 14.7929C7.18342 14.4024 7.81658 14.4024 8.20711 14.7929L9.20711 15.7929C9.59763 16.1834 9.59763 16.8166 9.20711 17.2071C8.81658 17.5976 8.18342 17.5976 7.79289 17.2071L6.79289 16.2071C6.40237 15.8166 6.40237 15.1834 6.79289 14.7929Z" fill="black"/>
</svg>
