<svg width="24" height="24" viewBox="0 0 24 24" fill="none" xmlns="http://www.w3.org/2000/svg">
<path fill-rule="evenodd" clip-rule="evenodd" d="M10.5021 1.4028C10.9577 1.14029 11.4742 1.00211 12 1.00211C12.5258 1.00211 13.0423 1.14029 13.4979 1.4028C13.4986 1.40321 13.4993 1.40362 13.5 1.40403L20.4961 5.40181C20.4974 5.40255 20.4987 5.40329 20.5 5.40403C20.9556 5.66707 21.334 6.0453 21.5973 6.50077C21.8606 6.95624 21.9995 7.47294 22 7.99903V16.0011C21.9995 16.5272 21.8606 17.0439 21.5973 17.4993C21.334 17.9548 20.9556 18.333 20.5 18.5961C20.4987 18.5968 20.4974 18.5976 20.4961 18.5983L13.5 22.5961C13.4994 22.5965 13.4987 22.5968 13.4981 22.5972C13.0425 22.8598 12.5259 22.998 12 22.998C11.4741 22.998 10.9575 22.8598 10.5019 22.5972C10.5013 22.5968 10.5006 22.5965 10.5 22.5961L3.50386 18.5983C3.50257 18.5976 3.50129 18.5968 3.5 18.5961C3.04439 18.333 2.66597 17.9548 2.40269 17.4993C2.13941 17.0439 2.00054 16.5272 2 16.0011V7.99903C2.00054 7.47294 2.13941 6.95624 2.40269 6.50077C2.66597 6.0453 3.04439 5.66707 3.5 5.40403C3.50129 5.40329 3.50257 5.40255 3.50386 5.40181L10.5021 1.4028ZM12 3.00211C11.8245 3.00211 11.652 3.04831 11.5 3.13608C11.4987 3.13682 11.4974 3.13756 11.4961 3.1383L4.49841 7.137C4.34725 7.22464 4.22168 7.35037 4.13423 7.50166C4.04654 7.65336 4.00025 7.82544 4 8.00065V15.9995C4.00025 16.1747 4.04654 16.3467 4.13423 16.4984C4.22167 16.6497 4.34721 16.7754 4.49834 16.8631C4.49889 16.8634 4.49945 16.8637 4.5 16.864L11.4961 20.8618C11.4974 20.8625 11.4987 20.8633 11.5 20.864C11.652 20.9518 11.8245 20.998 12 20.998C12.1755 20.998 12.348 20.9518 12.5 20.864C12.5013 20.8633 12.5026 20.8625 12.5039 20.8618L19.5 16.864C19.5005 16.8637 19.5011 16.8634 19.5016 16.8631C19.6528 16.7754 19.7783 16.6497 19.8658 16.4984C19.9535 16.3466 19.9998 16.1744 20 15.999V8.00108C19.9998 7.82572 19.9535 7.65348 19.8658 7.50166C19.7783 7.35036 19.6527 7.22462 19.5016 7.13698C19.501 7.13668 19.5005 7.13638 19.5 7.13608L12.5039 3.1383C12.5026 3.13756 12.5013 3.13682 12.5 3.13608C12.348 3.04831 12.1755 3.00211 12 3.00211Z" fill="black"/>
<path fill-rule="evenodd" clip-rule="evenodd" d="M2.43296 6.50173C2.70815 6.02289 3.31942 5.85781 3.79826 6.133L12 10.8466L20.2017 6.133C20.6805 5.85781 21.2918 6.02289 21.567 6.50173C21.8422 6.98057 21.6771 7.59184 21.1983 7.86703L12.4983 12.867C12.1897 13.0443 11.8102 13.0443 11.5017 12.867L2.80169 7.86703C2.32285 7.59184 2.15776 6.98057 2.43296 6.50173Z" fill="black"/>
<path fill-rule="evenodd" clip-rule="evenodd" d="M12 11C12.5523 11 13 11.4477 13 12V22C13 22.5523 12.5523 23 12 23C11.4477 23 11 22.5523 11 22V12C11 11.4477 11.4477 11 12 11Z" fill="black"/>
</svg>
