<svg width="24" height="24" viewBox="0 0 24 24" fill="none" xmlns="http://www.w3.org/2000/svg">
<path fill-rule="evenodd" clip-rule="evenodd" d="M16.2097 6.40872C14.9959 5.49484 13.5177 5.00068 11.9984 5.00085C10.479 5.00103 9.00098 5.49554 7.78741 6.40971C6.57385 7.32389 5.69067 8.60808 5.27123 10.0684C4.85179 11.5287 4.91886 13.0858 5.46232 14.5047C6.00548 15.9227 6.99503 17.1257 8.28169 17.9321C8.49838 18.0667 8.67776 18.2535 8.80329 18.4756C8.92953 18.699 8.99718 18.9507 8.99994 19.2072C8.99996 19.2091 8.99998 19.211 8.99999 19.2129C9 19.2146 9 19.2163 9 19.218V19.5C9 19.8978 8.84196 20.2793 8.56066 20.5606C8.27935 20.8419 7.89782 21 7.5 21H3C2.44772 21 2 20.5522 2 20C2 19.4477 2.44772 19 3 19H6.34122C5.11384 18.0078 4.16369 16.7057 3.59463 15.22C2.8959 13.3958 2.80967 11.3938 3.34895 9.51626C3.88824 7.63872 5.02375 5.98761 6.58405 4.81225C8.14434 3.63688 10.0447 3.00108 11.9981 3.00085C13.9516 3.00062 15.8521 3.63598 17.4127 4.81097C18.9732 5.98597 20.1091 7.63681 20.6489 9.51422C21.1886 11.3916 21.1028 13.3937 20.4045 15.2181C19.8356 16.7045 18.8851 18.0073 17.6572 19H21C21.5523 19 22 19.4477 22 20C22 20.5522 21.5523 21 21 21H16.5C16.1022 21 15.7206 20.8419 15.4393 20.5606C15.158 20.2793 15 19.8978 15 19.5V19.218C15 19.215 15 19.2121 15 19.2091C15.0023 18.9521 15.0697 18.6998 15.196 18.4759C15.3215 18.2533 15.5012 18.0659 15.7183 17.9312C17.0047 17.1244 17.9939 15.9213 18.5367 14.5031C19.0798 13.0842 19.1465 11.527 18.7267 10.0668C18.3069 8.6066 17.4234 7.32261 16.2097 6.40872Z" fill="black"/>
</svg>
