<svg width="24" height="24" viewBox="0 0 24 24" fill="none" xmlns="http://www.w3.org/2000/svg">
<path fill-rule="evenodd" clip-rule="evenodd" d="M10.293 2.29289C10.6835 1.90237 11.3167 1.90237 11.7072 2.29289L19.7072 10.2929C20.0977 10.6834 20.0977 11.3166 19.7072 11.7071L11.1072 20.3071C9.91667 21.4976 8.0835 21.4976 6.89298 20.3071L1.69298 15.1071C1.69062 15.1048 1.68827 15.1024 1.68594 15.1C1.13626 14.5392 0.828369 13.7853 0.828369 13C0.828369 12.2147 1.13626 11.4608 1.68594 10.9C1.68827 10.8976 1.69062 10.8953 1.69298 10.8929L10.293 2.29289ZM3.11135 12.3029C2.92992 12.4896 2.82837 12.7396 2.82837 13C2.82837 13.2604 2.92992 13.5104 3.11132 13.697L8.30719 18.8929C8.71667 19.3024 9.2835 19.3024 9.69298 18.8929L17.5859 11L11.0001 4.41421L3.11135 12.3029Z" fill="black"/>
<path fill-rule="evenodd" clip-rule="evenodd" d="M4.29289 1.29289C4.68342 0.902369 5.31658 0.902369 5.70711 1.29289L10.7071 6.29289C11.0976 6.68342 11.0976 7.31658 10.7071 7.70711C10.3166 8.09763 9.68342 8.09763 9.29289 7.70711L4.29289 2.70711C3.90237 2.31658 3.90237 1.68342 4.29289 1.29289Z" fill="black"/>
<path fill-rule="evenodd" clip-rule="evenodd" d="M1 13C1 12.4477 1.44772 12 2 12H17C17.5523 12 18 12.4477 18 13C18 13.5523 17.5523 14 17 14H2C1.44772 14 1 13.5523 1 13Z" fill="black"/>
<path fill-rule="evenodd" clip-rule="evenodd" d="M20 15C20.4812 15 20.8942 15.3427 20.9829 15.8157C21.0767 16.3161 21.3774 16.706 21.8615 17.3337C21.8757 17.3521 21.89 17.3707 21.9045 17.3895C22.3582 17.9781 23 18.8237 23 20C23 20.7957 22.6839 21.5587 22.1213 22.1213C21.5587 22.6839 20.7957 23 20 23C19.2043 23 18.4413 22.6839 17.8787 22.1213C17.3161 21.5587 17 20.7957 17 20C17 18.8237 17.6418 17.9781 18.0955 17.3895C18.11 17.3707 18.1243 17.3521 18.1385 17.3337C18.6226 16.706 18.9233 16.3161 19.0171 15.8157C19.1058 15.3427 19.5188 15 20 15ZM19.6795 18.6105C19.2082 19.2219 19 19.5763 19 20C19 20.2652 19.1054 20.5196 19.2929 20.7071C19.4804 20.8946 19.7348 21 20 21C20.2652 21 20.5196 20.8946 20.7071 20.7071C20.8946 20.5196 21 20.2652 21 20C21 19.5763 20.7918 19.2219 20.3205 18.6105C20.286 18.5658 20.2497 18.5192 20.2119 18.4709C20.145 18.3851 20.0735 18.2936 20 18.1963C19.9265 18.2936 19.855 18.3851 19.7881 18.4709C19.7503 18.5192 19.714 18.5658 19.6795 18.6105Z" fill="black"/>
</svg>
