<svg width="24" height="24" viewBox="0 0 24 24" fill="none" xmlns="http://www.w3.org/2000/svg">
<path fill-rule="evenodd" clip-rule="evenodd" d="M4.14531 2.14581L22.1416 10.644C22.3984 10.7655 22.6155 10.9575 22.7675 11.1975C22.9195 11.4376 23.0003 11.7159 23.0003 12C23.0003 12.2842 22.9195 12.5625 22.7675 12.8025C22.6155 13.0426 22.3984 13.2346 22.1416 13.356L22.141 13.3563L4.14449 21.8547C3.87551 21.9836 3.57409 22.0294 3.27884 21.986C2.9815 21.9423 2.70418 21.8101 2.48294 21.6067C2.2617 21.4033 2.10675 21.138 2.03824 20.8454C1.97024 20.555 1.9905 20.2509 2.09634 19.9722L4.9369 12.349C4.93692 12.349 4.93694 12.3489 4.93697 12.3489C5.0207 12.1239 5.02072 11.8763 4.93701 11.6513C4.93697 11.6512 4.93694 11.6511 4.9369 11.651L2.09553 4.0284C1.98938 3.74949 1.96893 3.44516 2.03691 3.15447C2.10546 2.86132 2.26074 2.59563 2.48252 2.39204C2.70429 2.18845 2.98227 2.0564 3.28019 2.01312C3.57541 1.97023 3.87664 2.01647 4.14531 2.14581ZM5.87403 12.698L6.81108 13.0472L4.39799 19.5232L20.3293 12L4.39696 4.47642L6.81115 10.953C7.06266 11.6284 7.06266 12.3717 6.81115 13.047L5.87403 12.698Z" fill="black"/>
<path fill-rule="evenodd" clip-rule="evenodd" d="M5 12C5 11.4477 5.44772 11 6 11H22C22.5523 11 23 11.4477 23 12C23 12.5523 22.5523 13 22 13H6C5.44772 13 5 12.5523 5 12Z" fill="black"/>
</svg>
