<svg width="24" height="24" viewBox="0 0 24 24" fill="none" xmlns="http://www.w3.org/2000/svg">
<path fill-rule="evenodd" clip-rule="evenodd" d="M13.2929 4.29292C13.5497 4.03612 13.9256 3.93873 14.2747 4.0385L21.2747 6.0385C21.6154 6.13584 21.8792 6.40619 21.9681 6.74918C22.0569 7.09217 21.9577 7.45659 21.7071 7.70713L13.7071 15.7071C13.4566 15.9577 13.0922 16.0569 12.7492 15.9681C12.4062 15.8792 12.1358 15.6154 12.0385 15.2747L10.0385 8.27475C9.93873 7.92555 10.0361 7.54972 10.2929 7.29292L13.2929 4.29292ZM14.2911 6.1232L12.1232 8.29107L13.4947 13.0912L19.0912 7.49466L14.2911 6.1232Z" fill="black"/>
<path fill-rule="evenodd" clip-rule="evenodd" d="M10.2929 1.29289C10.6834 0.902369 11.3166 0.902369 11.7071 1.29289L14.7071 4.29289C15.0976 4.68342 15.0976 5.31658 14.7071 5.70711L11.7071 8.70711C11.3166 9.09763 10.6834 9.09763 10.2929 8.70711L7.29289 5.70711C6.90237 5.31658 6.90237 4.68342 7.29289 4.29289L10.2929 1.29289ZM9.41421 5L11 6.58579L12.5858 5L11 3.41421L9.41421 5Z" fill="black"/>
<path fill-rule="evenodd" clip-rule="evenodd" d="M10.2071 5.79289C10.5977 6.18342 10.5977 6.81658 10.2071 7.20711L5.21679 12.1975L7.89445 17.5528C8.14144 18.0468 7.94122 18.6474 7.44724 18.8944C6.95326 19.1414 6.35259 18.9412 6.1056 18.4472L3.1056 12.4472C2.91311 12.0622 2.98856 11.5973 3.29292 11.2929L8.79292 5.79289C9.18345 5.40237 9.81661 5.40237 10.2071 5.79289Z" fill="black"/>
<path fill-rule="evenodd" clip-rule="evenodd" d="M5 19C4.45228 19 4 19.4523 4 20V21H10V20C10 19.7348 9.89464 19.4804 9.70711 19.2929C9.51957 19.1054 9.26522 19 9 19H5ZM2 20C2 18.3477 3.34772 17 5 17H9C9.79565 17 10.5587 17.3161 11.1213 17.8787C11.6839 18.4413 12 19.2043 12 20V22C12 22.5523 11.5523 23 11 23H3C2.44772 23 2 22.5523 2 22V20Z" fill="black"/>
</svg>
