<svg width="24" height="24" viewBox="0 0 24 24" fill="none" xmlns="http://www.w3.org/2000/svg">
<g clip-path="url(#clip0_11_31230)">
<path fill-rule="evenodd" clip-rule="evenodd" d="M8.89299 8.89287C9.28352 8.50234 9.91668 8.50234 10.3072 8.89287L15.1072 13.6929C15.4977 14.0834 15.4977 14.7166 15.1072 15.1071C14.7167 15.4976 14.0835 15.4976 13.693 15.1071L8.89299 10.3071C8.50247 9.91656 8.50247 9.28339 8.89299 8.89287Z" fill="black"/>
<path fill-rule="evenodd" clip-rule="evenodd" d="M19.0104 11.6461C18.7451 11.6461 18.4906 11.7515 18.303 11.9391L11.939 18.3031C11.7514 18.4907 11.646 18.7452 11.646 19.0105C11.646 19.2758 11.7514 19.5303 11.939 19.7179C12.1266 19.9055 12.3811 20.0109 12.6464 20.0109C12.9117 20.0109 13.1662 19.9055 13.3538 19.7179L15.1206 17.9501C15.1206 17.9501 15.1206 17.9501 15.1207 17.95C15.5111 17.5595 16.1442 17.5593 16.5348 17.9498C16.9254 18.3402 16.9256 18.9733 16.5352 19.3639L16.5351 19.364C16.3476 19.5516 16.2423 19.806 16.2423 20.0712C16.2424 20.3364 16.3478 20.5908 16.5354 20.7783C16.723 20.9658 16.9773 21.0711 17.2426 21.0711C17.5078 21.071 17.7622 20.9656 17.9497 20.778L18.6578 21.4859L17.9498 20.7779L20.7778 17.9499L21.4858 18.6579L20.7779 17.9498C20.9655 17.7623 21.0709 17.5079 21.071 17.2427C21.071 16.9775 20.9657 16.7231 20.7782 16.5355C20.5907 16.3479 20.3363 16.2425 20.0711 16.2425C19.8058 16.2424 19.5515 16.3477 19.3639 16.5353L19.3638 16.5353C18.9732 16.9257 18.3401 16.9256 17.9496 16.535C17.5592 16.1444 17.5593 15.5112 17.9499 15.1208C17.9499 15.1208 17.95 15.1207 17.95 15.1207L19.7178 13.3539C19.9054 13.1663 20.0108 12.9118 20.0108 12.6465C20.0108 12.3812 19.9054 12.1267 19.7178 11.9391C19.5302 11.7515 19.2757 11.6461 19.0104 11.6461ZM21.3478 14.5278C21.7749 13.9972 22.0108 13.334 22.0108 12.6465C22.0108 11.8508 21.6947 11.0876 21.132 10.5249C20.5693 9.96223 19.8062 9.64612 19.0104 9.64612C18.2146 9.64612 17.4515 9.96223 16.8888 10.5249L10.5248 16.8889C9.96211 17.4516 9.646 18.2148 9.646 19.0105C9.646 19.8063 9.96211 20.5694 10.5248 21.1321C11.0875 21.6948 11.8506 22.0109 12.6464 22.0109C13.3339 22.0109 13.9971 21.775 14.5276 21.3479C14.6739 21.6588 14.8738 21.9452 15.1214 22.1928C15.6841 22.7553 16.4473 23.0712 17.2429 23.0711C18.0386 23.0709 18.8016 22.7547 19.3641 22.192L22.1919 19.3643C22.7546 18.8017 23.0708 18.0387 23.071 17.2431C23.0711 16.4474 22.7552 15.6843 22.1926 15.1215C21.9451 14.8739 21.6587 14.674 21.3478 14.5278Z" fill="black"/>
<path fill-rule="evenodd" clip-rule="evenodd" d="M19.393 19.3929C19.7835 19.0023 20.4167 19.0023 20.8072 19.3929L22.2072 20.7929C22.5977 21.1834 22.5977 21.8166 22.2072 22.2071C21.8167 22.5976 21.1835 22.5976 20.793 22.2071L19.393 20.8071C19.0025 20.4166 19.0025 19.7834 19.393 19.3929Z" fill="black"/>
<path fill-rule="evenodd" clip-rule="evenodd" d="M1.79289 1.79289C2.18342 1.40237 2.81658 1.40237 3.20711 1.79289L4.60711 3.19289C4.99763 3.58342 4.99763 4.21658 4.60711 4.60711C4.21658 4.99763 3.58342 4.99763 3.19289 4.60711L1.79289 3.20711C1.40237 2.81658 1.40237 2.18342 1.79289 1.79289Z" fill="black"/>
<path fill-rule="evenodd" clip-rule="evenodd" d="M7.14005 3.00501C7.01871 2.95478 6.88866 2.92893 6.75733 2.92896C6.4921 2.929 6.23775 3.03441 6.05024 3.22199L5.34347 2.51547L6.05011 3.22211L3.22211 6.05011L2.51547 5.34347L3.22199 6.05024C3.03441 6.23775 2.929 6.4921 2.92896 6.75733C2.92893 6.88866 2.95478 7.01871 3.00501 7.14005C3.05525 7.26139 3.12889 7.37165 3.22174 7.46453C3.40925 7.6521 3.6636 7.75751 3.92883 7.75756C4.06016 7.75758 4.19021 7.73174 4.31155 7.6815C4.43277 7.63131 4.54294 7.55776 4.63576 7.46504C4.63585 7.46495 4.63594 7.46486 4.63602 7.46477L4.6361 7.4647C5.02672 7.0743 5.65986 7.07446 6.05028 7.46506C6.4407 7.85566 6.44057 8.4888 6.04999 8.87924C6.04996 8.87926 6.04994 8.87929 6.04991 8.87931L4.28211 10.6461C4.0945 10.8337 3.9891 11.0882 3.9891 11.3535C3.9891 11.6188 4.0945 11.8733 4.28211 12.0609C4.46973 12.2485 4.72418 12.3539 4.98951 12.3539C5.25483 12.3539 5.50929 12.2485 5.6969 12.0609L12.0609 5.6969C12.2485 5.50929 12.3539 5.25483 12.3539 4.98951C12.3539 4.72418 12.2485 4.46973 12.0609 4.28211C11.8733 4.0945 11.6188 3.9891 11.3535 3.9891C11.0882 3.9891 10.8337 4.0945 10.6461 4.28211L8.87931 6.04991C8.87929 6.04994 8.87926 6.04996 8.87924 6.04999C8.4888 6.44057 7.85566 6.4407 7.46506 6.05028C7.07446 5.65986 7.0743 5.02672 7.4647 4.6361L7.46477 4.63602C7.46486 4.63594 7.46495 4.63585 7.46504 4.63576C7.55776 4.54294 7.63131 4.43277 7.6815 4.31155C7.73174 4.19021 7.75758 4.06016 7.75756 3.92883C7.75753 3.7975 7.73164 3.66746 7.68137 3.54614C7.63109 3.42482 7.5574 3.31458 7.46453 3.22174C7.37165 3.12889 7.26139 3.05525 7.14005 3.00501ZM9.47226 2.65212C9.3248 2.33862 9.124 2.0527 8.87849 1.80727C8.59986 1.52874 8.2691 1.30782 7.90509 1.15712C7.54108 1.00641 7.15095 0.928885 6.75698 0.928955C5.96137 0.929096 5.19841 1.24526 4.6359 1.8079C4.63586 1.80794 4.63582 1.80798 4.63577 1.80802L1.80802 4.63577M9.47226 2.65212C10.0028 2.22506 10.666 1.9891 11.3535 1.9891C12.1493 1.9891 12.9124 2.30521 13.4751 2.8679C14.0378 3.43058 14.3539 4.19375 14.3539 4.98951C14.3539 5.78526 14.0378 6.54843 13.4751 7.11111L7.11111 13.4751C6.54843 14.0378 5.78526 14.3539 4.98951 14.3539C4.19375 14.3539 3.43058 14.0378 2.8679 13.4751C2.30521 12.9124 1.9891 12.1493 1.9891 11.3535C1.9891 10.666 2.22506 10.0028 2.65212 9.47226C2.34121 9.32603 2.05483 9.12613 1.80727 8.87849C1.52874 8.59986 1.30782 8.2691 1.15712 7.90509C1.00641 7.54108 0.928885 7.15095 0.928955 6.75698C0.929096 5.96137 1.24526 5.19841 1.8079 4.6359" fill="black"/>
</g>
<defs>
<clipPath id="clip0_11_31230">
<rect width="24" height="24" fill="white"/>
</clipPath>
</defs>
</svg>
