<svg width="24" height="24" viewBox="0 0 24 24" fill="none" xmlns="http://www.w3.org/2000/svg">
<g clip-path="url(#clip0_11_35000)">
<path fill-rule="evenodd" clip-rule="evenodd" d="M6.00618 3.40812C6.00593 3.40837 6.00569 3.40862 6.00544 3.40886L3.40886 6.00544C3.40862 6.00569 3.40837 6.00593 3.40812 6.00618C3.14563 6.27034 2.99829 6.62762 2.99829 7.00005C2.99829 7.37247 3.14563 7.72976 3.40813 7.99391C3.40837 7.99416 3.40862 7.99441 3.40886 7.99465L16.0084 20.5942C16.1384 20.7247 16.293 20.8282 16.4632 20.8989C16.6333 20.9696 16.8158 21.0059 17 21.0059C17.1843 21.0059 17.3668 20.9696 17.5369 20.8989C17.7071 20.8282 17.8616 20.7247 17.9917 20.5942L20.5942 17.9917C20.7247 17.8616 20.8282 17.7071 20.8989 17.5369C20.9696 17.3668 21.0059 17.1843 21.0059 17C21.0059 16.8158 20.9696 16.6333 20.8989 16.4632C20.8282 16.293 20.7247 16.1384 20.5942 16.0084L7.99465 3.40886C7.99441 3.40862 7.99416 3.40837 7.99391 3.40813C7.72976 3.14563 7.37247 2.99829 7.00005 2.99829C6.62762 2.99829 6.27034 3.14563 6.00618 3.40812ZM4.59465 1.99123C5.23367 1.3553 6.09852 0.998291 7.00005 0.998291C7.90158 0.998291 8.76642 1.3553 9.40544 1.99123L9.40715 1.99294L22.0059 14.5917C22.0062 14.592 22.0064 14.5922 22.0067 14.5925C22.3233 14.9082 22.5745 15.2833 22.746 15.6962C22.9176 16.1095 23.0059 16.5526 23.0059 17C23.0059 17.4475 22.9176 17.8906 22.746 18.3039C22.5745 18.7168 22.3233 19.0919 22.0067 19.4076C22.0064 19.4079 22.0062 19.4081 22.0059 19.4084L19.4084 22.0059C19.4081 22.0062 19.4079 22.0064 19.4076 22.0067C19.0919 22.3233 18.7168 22.5745 18.3039 22.746C17.8906 22.9176 17.4475 23.0059 17 23.0059C16.5526 23.0059 16.1095 22.9176 15.6962 22.746C15.2833 22.5745 14.9082 22.3233 14.5925 22.0067C14.5922 22.0064 14.592 22.0062 14.5917 22.0059L1.99294 9.40715L1.99123 9.40544C1.3553 8.76642 0.998291 7.90158 0.998291 7.00005C0.998291 6.09852 1.3553 5.23367 1.99123 4.59465L1.99294 4.59294L4.59294 1.99294L4.59465 1.99123Z" fill="black"/>
<path fill-rule="evenodd" clip-rule="evenodd" d="M17.2071 9.79289C17.5976 10.1834 17.5976 10.8166 17.2071 11.2071L15.2071 13.2071C14.8166 13.5976 14.1834 13.5976 13.7929 13.2071C13.4024 12.8166 13.4024 12.1834 13.7929 11.7929L15.7929 9.79289C16.1834 9.40237 16.8166 9.40237 17.2071 9.79289Z" fill="black"/>
<path fill-rule="evenodd" clip-rule="evenodd" d="M14.2071 6.79289C14.5976 7.18342 14.5976 7.81658 14.2071 8.20711L12.2071 10.2071C11.8166 10.5976 11.1834 10.5976 10.7929 10.2071C10.4024 9.81658 10.4024 9.18342 10.7929 8.79289L12.7929 6.79289C13.1834 6.40237 13.8166 6.40237 14.2071 6.79289Z" fill="black"/>
<path fill-rule="evenodd" clip-rule="evenodd" d="M11.2071 3.79289C11.5976 4.18342 11.5976 4.81658 11.2071 5.20711L9.20711 7.20711C8.81658 7.59763 8.18342 7.59763 7.79289 7.20711C7.40237 6.81658 7.40237 6.18342 7.79289 5.79289L9.79289 3.79289C10.1834 3.40237 10.8166 3.40237 11.2071 3.79289Z" fill="black"/>
<path fill-rule="evenodd" clip-rule="evenodd" d="M20.2071 12.7929C20.5976 13.1834 20.5976 13.8166 20.2071 14.2071L18.2071 16.2071C17.8166 16.5976 17.1834 16.5976 16.7929 16.2071C16.4024 15.8166 16.4024 15.1834 16.7929 14.7929L18.7929 12.7929C19.1834 12.4024 19.8166 12.4024 20.2071 12.7929Z" fill="black"/>
</g>
<defs>
<clipPath id="clip0_11_35000">
<rect width="24" height="24" fill="white"/>
</clipPath>
</defs>
</svg>
