<svg width="24" height="24" viewBox="0 0 24 24" fill="none" xmlns="http://www.w3.org/2000/svg">
<path fill-rule="evenodd" clip-rule="evenodd" d="M7.54378 12.0004C7.98733 13.3478 8.9995 14.5665 10.3312 15.4752C11.7476 16.4418 13.4441 17 15 17C17.9005 17 20.054 15.0212 20.9601 12.0004C20.0536 8.98684 17.8992 7 15 7C13.4449 7 11.7486 7.56014 10.3316 8.5282C8.99951 9.43829 7.98732 10.6572 7.54378 12.0004ZM9.20338 6.8768C10.9114 5.70986 12.9951 5 15 5C19.1376 5 21.9434 7.97757 22.965 11.7378C23.0116 11.9093 23.0117 12.09 22.9652 12.2615C21.9433 16.0337 19.1365 19 15 19C12.9959 19 10.9124 18.2932 9.20384 17.1273C7.49627 15.962 6.08173 14.2805 5.53479 12.2615C5.48834 12.09 5.48841 11.9093 5.53498 11.7378C6.08208 9.72402 7.49652 8.04294 9.20338 6.8768Z" fill="black"/>
<path fill-rule="evenodd" clip-rule="evenodd" d="M18 11C18.5523 11 19 11.4477 19 12V12.5C19 13.0523 18.5523 13.5 18 13.5C17.4477 13.5 17 13.0523 17 12.5V12C17 11.4477 17.4477 11 18 11Z" fill="black"/>
<path fill-rule="evenodd" clip-rule="evenodd" d="M16.6069 5.27527C17.0459 5.61048 17.1299 6.23804 16.7947 6.67696C15.6271 8.20584 14.9945 10.0762 14.9945 12C14.9945 13.9238 15.6271 15.7942 16.7947 17.323C17.1299 17.762 17.0459 18.3895 16.6069 18.7247C16.168 19.0599 15.5405 18.9759 15.2052 18.537C13.7713 16.6594 12.9945 14.3625 12.9945 12C12.9945 9.63752 13.7713 7.34058 15.2052 5.46304C15.5405 5.02412 16.168 4.94005 16.6069 5.27527Z" fill="black"/>
<path fill-rule="evenodd" clip-rule="evenodd" d="M1.89791 4.94533C2.11585 4.61843 2.50502 4.44943 2.89268 4.51336C4.52928 4.78326 5.83246 5.5191 6.71829 6.64C7.59721 7.75216 7.99996 9.16004 7.99996 10.67C7.99996 11.2223 7.55225 11.67 6.99996 11.67C6.44768 11.67 5.99996 11.2223 5.99996 10.67C5.99996 9.51003 5.69272 8.5679 5.14914 7.88007C4.72534 7.34381 4.11751 6.9104 3.28307 6.65327C3.10079 7.19581 2.99006 7.92749 3.00845 8.72704C3.03504 9.88327 3.32447 10.8675 3.73323 11.366C4.03649 11.7358 4.03543 12.2686 3.7307 12.6372C3.31886 13.1354 3.02751 14.1183 3.00095 15.273C2.98253 16.0736 3.09487 16.8058 3.2795 17.3479C4.11578 17.0909 4.72474 16.657 5.14914 16.12C5.69272 15.4322 5.99996 14.49 5.99996 13.33C5.99996 12.7777 6.44768 12.33 6.99996 12.33C7.55225 12.33 7.99996 12.7777 7.99996 13.33C7.99996 14.84 7.59721 16.2479 6.71829 17.3601C5.83246 18.481 4.52928 19.2168 2.89268 19.4867C2.50667 19.5504 2.11898 19.3831 1.90047 19.0586C1.23125 18.0647 0.970473 16.575 1.00148 15.227C1.02643 14.1422 1.24497 12.9456 1.76295 11.9977C1.25014 11.0505 1.03388 9.8559 1.00898 8.77303C0.978002 7.42631 1.23587 5.93839 1.89791 4.94533Z" fill="black"/>
<path fill-rule="evenodd" clip-rule="evenodd" d="M14.4522 4.23559C14.2708 4.08263 14.041 3.99913 13.8037 4.00001C13.8025 4.00001 13.8013 4.00001 13.8 4.00001H10.0733C10.7327 4.9834 11.2516 6.06016 11.4427 7.07487C11.545 7.6176 11.1879 8.14047 10.6452 8.24272C10.1024 8.34498 9.57957 7.9879 9.47731 7.44516C9.26717 6.32978 8.37771 4.85743 7.27268 3.68629C6.99873 3.39595 6.9237 2.9705 7.0818 2.60396C7.2399 2.23742 7.60084 2.00001 8.00002 2.00001H13.7984C14.5094 1.99786 15.1981 2.24832 15.7416 2.70677C16.2857 3.16565 16.6489 3.80303 16.7663 4.50502L16.7666 4.50673L16.9968 5.9079C17.0863 6.45288 16.7171 6.96725 16.1721 7.05679C15.6272 7.14632 15.1128 6.77711 15.0233 6.23213L14.7937 4.83501C14.7937 4.83463 14.7936 4.83424 14.7935 4.83386C14.7542 4.60032 14.6332 4.3883 14.4522 4.23559Z" fill="black"/>
<path fill-rule="evenodd" clip-rule="evenodd" d="M10.9837 16.02C11.536 16.0165 11.9865 16.4614 11.99 17.0137C11.9966 18.0534 11.7703 19.0725 11.3376 20H13.8C13.8013 20 13.8025 20 13.8037 20C14.041 20.0009 14.2708 19.9174 14.4522 19.7644C14.6332 19.6117 14.7542 19.3997 14.7935 19.1662C14.7936 19.1658 14.7937 19.1654 14.7937 19.165L15.0232 17.7679C15.1128 17.2229 15.6272 16.8537 16.1721 16.9432C16.7171 17.0328 17.0863 17.5472 16.9968 18.0921L16.7665 19.4939L16.7663 19.495C16.6489 20.197 16.2857 20.8344 15.7416 21.2933C15.1981 21.7517 14.5093 22.0022 13.7983 22H9.50002C9.10693 22 8.7503 21.7697 8.58857 21.4114C8.42685 21.0532 8.49002 20.6334 8.75004 20.3386C9.55633 19.4244 9.99775 18.2453 9.99004 17.0263C9.98654 16.4741 10.4314 16.0235 10.9837 16.02Z" fill="black"/>
</svg>
