<svg width="24" height="24" viewBox="0 0 24 24" fill="none" xmlns="http://www.w3.org/2000/svg">
<path fill-rule="evenodd" clip-rule="evenodd" d="M17.121 6.87883C17.5115 7.26935 17.5115 7.90252 17.121 8.29304L12.607 12.807C12.2165 13.1976 11.5833 13.1976 11.1928 12.807C10.8023 12.4165 10.8023 11.7834 11.1928 11.3928L15.7068 6.87883C16.0973 6.48831 16.7305 6.48831 17.121 6.87883Z" fill="black"/>
<path fill-rule="evenodd" clip-rule="evenodd" d="M18.0001 1.58587C18.3739 1.21942 18.8766 1.01416 19.4001 1.01416C19.9236 1.01416 20.4262 1.21942 20.8001 1.58587C20.8024 1.58821 20.8048 1.59055 20.8072 1.59291L22.4072 3.19291C22.4095 3.19527 22.4119 3.19764 22.4142 3.20002C22.7807 3.57388 22.9859 4.07651 22.9859 4.60002C22.9859 5.12352 22.7807 5.62616 22.4142 6.00002C22.4119 6.0024 22.4095 6.00477 22.4072 6.00712L21.2933 7.12102C21.2932 7.12105 21.2932 7.12109 21.2932 7.12112C20.7307 7.68371 19.9678 7.99985 19.1723 8.00002H17.8283C17.8282 8.00002 17.8281 8.00002 17.8281 8.00002C17.5631 8.00013 17.309 8.10541 17.1216 8.29273C17.1215 8.29282 17.1214 8.29292 17.1213 8.29302C17.1212 8.29309 17.1211 8.29316 17.1211 8.29323C16.7305 8.68365 16.0974 8.68361 15.707 8.29312C15.3165 7.90264 15.3164 7.26956 15.7068 6.87902C15.7069 6.87895 15.707 6.87887 15.7071 6.8788C15.7072 6.87871 15.7073 6.87861 15.7074 6.87851C15.8947 6.6911 15.9999 6.437 16.0001 6.17202C16.0001 6.17199 16.0001 6.17197 16.0001 6.17194C16.0001 6.17189 16.0001 6.17185 16.0001 6.1718V4.8278C16.0002 4.03227 16.3164 3.26938 16.879 2.70691C16.879 2.70687 16.879 2.70684 16.8791 2.7068L17.993 1.59291C17.9953 1.59055 17.9977 1.58821 18.0001 1.58587ZM17.5859 3.41389L18.2931 4.12123C18.1056 4.30867 18.0002 4.5629 18.0001 4.82802C18.0001 4.82809 18.0001 4.82816 18.0001 4.82823V6.00002H19.1719C19.1719 6.00002 19.172 6.00002 19.1721 6.00002C19.4372 5.9999 19.6914 5.89452 19.8788 5.70702L20.5866 6.41452L19.879 5.70691L20.9858 4.60002L19.4001 3.01423L18.2932 4.12112L17.5859 3.41389Z" fill="black"/>
<path fill-rule="evenodd" clip-rule="evenodd" d="M5.29289 15.2929C5.68342 14.9024 6.31658 14.9024 6.70711 15.2929L8.70711 17.2929C9.09763 17.6834 9.09763 18.3166 8.70711 18.7071C8.31658 19.0976 7.68342 19.0976 7.29289 18.7071L5.29289 16.7071C4.90237 16.3166 4.90237 15.6834 5.29289 15.2929Z" fill="black"/>
<path fill-rule="evenodd" clip-rule="evenodd" d="M9.11196 10.3103L8.71505 11.2034C8.48485 11.7292 8.10861 12.178 7.63095 12.4964C7.15223 12.8156 6.59184 12.9903 6.01657 12.9999C6.01105 13 6.00553 13 6 13C5.20435 13 4.44129 13.3161 3.87868 13.8787C3.31607 14.4413 3 15.2044 3 16C3 18.7477 5.25228 21 8 21C8.79565 21 9.55871 20.6839 10.1213 20.1213C10.6839 19.5587 11 18.7956 11 18C11 17.9975 11 17.995 11 17.9925C11.0001 17.9895 11.0001 17.9865 11.0001 17.9834C11.0097 17.4082 11.1844 16.8478 11.5036 16.369C11.822 15.8914 12.2708 15.5151 12.7967 15.2849L13.6897 14.888C14.4803 14.5271 15 13.7551 15 13C15 10.7523 13.2477 9 11 9C10.2449 9 9.47289 9.51971 9.11196 10.3103ZM7.28963 9.4862C7.92938 8.07875 9.35618 7 11 7C14.3523 7 17 9.64772 17 13C17 14.6438 15.9212 16.0706 14.5138 16.7104C14.5113 16.7115 14.5087 16.7127 14.5061 16.7138L13.6061 17.1138C13.604 17.1147 13.602 17.1157 13.5999 17.1166C13.4241 17.1933 13.2741 17.3189 13.1677 17.4784C13.0625 17.6362 13.0044 17.8206 13 18.0101C12.9973 19.3326 12.4708 20.6002 11.5355 21.5355C10.5979 22.4732 9.32608 23 8 23C4.14772 23 1 19.8523 1 16C1 14.6739 1.52678 13.4021 2.46447 12.4645C3.39975 11.5292 4.66743 11.0027 5.98984 11C6.17935 10.9957 6.36376 10.9375 6.52155 10.8323C6.68112 10.7259 6.80674 10.5759 6.88343 10.4001C6.88384 10.3992 6.88425 10.3982 6.88467 10.3973C6.88517 10.3962 6.88568 10.395 6.88619 10.3939L7.28619 9.49386C7.28733 9.4913 7.28847 9.48875 7.28963 9.4862Z" fill="black"/>
<path d="M11.5 13C11.7761 13 12 12.7761 12 12.5C12 12.2239 11.7761 12 11.5 12C11.2239 12 11 12.2239 11 12.5C11 12.7761 11.2239 13 11.5 13Z" fill="black"/>
<path fill-rule="evenodd" clip-rule="evenodd" d="M11.5 13C11.7761 13 12 12.7761 12 12.5C12 12.2239 11.7761 12 11.5 12C11.2239 12 11 12.2239 11 12.5C11 12.7761 11.2239 13 11.5 13ZM10 12.5C10 11.6716 10.6716 11 11.5 11C12.3284 11 13 11.6716 13 12.5C13 13.3284 12.3284 14 11.5 14C10.6716 14 10 13.3284 10 12.5Z" fill="black"/>
</svg>
