<svg width="24" height="24" viewBox="0 0 24 24" fill="none" xmlns="http://www.w3.org/2000/svg">
<g clip-path="url(#clip0_11_31011)">
<path fill-rule="evenodd" clip-rule="evenodd" d="M19 18C18.4477 18 18 18.4477 18 19C18 19.5523 18.4477 20 19 20C19.5523 20 20 19.5523 20 19C20 18.4477 19.5523 18 19 18ZM16 19C16 17.3431 17.3431 16 19 16C20.6569 16 22 17.3431 22 19C22 20.6569 20.6569 22 19 22C17.3431 22 16 20.6569 16 19Z" fill="black"/>
<path fill-rule="evenodd" clip-rule="evenodd" d="M5 4C4.44772 4 4 4.44772 4 5C4 5.55228 4.44772 6 5 6C5.55228 6 6 5.55228 6 5C6 4.44772 5.55228 4 5 4ZM2 5C2 3.34315 3.34315 2 5 2C6.65685 2 8 3.34315 8 5C8 6.65685 6.65685 8 5 8C3.34315 8 2 6.65685 2 5Z" fill="black"/>
<path fill-rule="evenodd" clip-rule="evenodd" d="M12.9036 3.04038C10.8375 2.833 8.76333 3.34639 7.03255 4.49353C6.5722 4.79865 5.95167 4.67281 5.64655 4.21246C5.34143 3.75211 5.46728 3.13157 5.92763 2.82646C8.04303 1.42439 10.5782 0.79691 13.1033 1.05038C15.6285 1.30385 17.9883 2.42267 19.7829 4.2172C21.5774 6.01174 22.6962 8.37159 22.9497 10.8968C23.2032 13.4219 22.5757 15.9571 21.1736 18.0725C20.8685 18.5328 20.248 18.6586 19.7876 18.3535C19.3273 18.0484 19.2014 17.4279 19.5066 16.9675C20.6537 15.2368 21.1671 13.1626 20.9597 11.0965C20.7523 9.03046 19.8369 7.09967 18.3687 5.63142C16.9004 4.16316 14.9696 3.24776 12.9036 3.04038Z" fill="black"/>
<path fill-rule="evenodd" clip-rule="evenodd" d="M5.70293 5.70287C6.09345 5.31234 6.72662 5.31234 7.11714 5.70287L18.2971 16.8829C18.6877 17.2734 18.6877 17.9066 18.2971 18.2971C17.9066 18.6876 17.2735 18.6876 16.8829 18.2971L5.70293 7.11708C5.3124 6.72656 5.3124 6.09339 5.70293 5.70287Z" fill="black"/>
<path fill-rule="evenodd" clip-rule="evenodd" d="M4.21246 5.64643C4.67281 5.95155 4.79865 6.57208 4.49353 7.03243C3.34639 8.76321 2.833 10.8374 3.04038 12.9035C3.24776 14.9695 4.16316 16.9003 5.63142 18.3685C7.09967 19.8368 9.03046 20.7522 11.0965 20.9596C13.1626 21.167 15.2368 20.6536 16.9675 19.5064C17.4279 19.2013 18.0484 19.3272 18.3535 19.7875C18.6586 20.2479 18.5328 20.8684 18.0725 21.1735C15.9571 22.5756 13.4219 23.2031 10.8968 22.9496C8.37159 22.6961 6.01174 21.5773 4.2172 19.7828C2.42267 17.9882 1.30385 15.6284 1.05038 13.1032C0.79691 10.578 1.42439 8.04291 2.82646 5.92751C3.13157 5.46715 3.75211 5.34131 4.21246 5.64643Z" fill="black"/>
</g>
<defs>
<clipPath id="clip0_11_31011">
<rect width="24" height="24" fill="white"/>
</clipPath>
</defs>
</svg>
