<svg width="24" height="24" viewBox="0 0 24 24" fill="none" xmlns="http://www.w3.org/2000/svg">
<path fill-rule="evenodd" clip-rule="evenodd" d="M4.98586 2.0001C4.9906 2.00003 4.99535 2 5.0001 2H19.0001C19.7957 2 20.5588 2.31607 21.1214 2.87868C21.684 3.44129 22.0001 4.20435 22.0001 5V19C22.0001 19.0014 22.0001 19.0028 22.0001 19.0042C21.9967 19.7986 21.6785 20.5592 21.1151 21.1192C20.7234 21.5086 20.0902 21.5067 19.7009 21.115C19.3115 20.7233 19.3134 20.0901 19.7051 19.7008C19.8925 19.5145 19.9985 19.2617 20.0001 18.9975V5C20.0001 4.73478 19.8947 4.48043 19.7072 4.29289C19.5197 4.10536 19.2653 4 19.0001 4H5.00844C4.74682 4.00527 4.49759 4.11289 4.31434 4.2999C3.9278 4.69436 3.29466 4.70079 2.9002 4.31424C2.50573 3.9277 2.49931 3.29457 2.88586 2.9001C3.43975 2.33486 4.19455 2.01137 4.98586 2.0001Z" fill="black"/>
<path fill-rule="evenodd" clip-rule="evenodd" d="M3 7.69995C3.55228 7.69995 4 8.14767 4 8.69995V19C4 19.2652 4.10536 19.5195 4.29289 19.7071C4.48043 19.8946 4.73478 20 5 20H15.3C15.8523 20 16.3 20.4477 16.3 21C16.3 21.5522 15.8523 22 15.3 22H5C4.20435 22 3.44129 21.6839 2.87868 21.1213C2.31607 20.5587 2 19.7956 2 19V8.69995C2 8.14767 2.44772 7.69995 3 7.69995Z" fill="black"/>
<path fill-rule="evenodd" clip-rule="evenodd" d="M1.29289 1.29289C1.68342 0.902369 2.31658 0.902369 2.70711 1.29289L22.7071 21.2929C23.0976 21.6834 23.0976 22.3166 22.7071 22.7071C22.3166 23.0976 21.6834 23.0976 21.2929 22.7071L1.29289 2.70711C0.902369 2.31658 0.902369 1.68342 1.29289 1.29289Z" fill="black"/>
<path fill-rule="evenodd" clip-rule="evenodd" d="M8 7C8 6.44772 8.44772 6 9 6H13C14.0609 6 15.0783 6.42143 15.8284 7.17157C16.5786 7.92172 17 8.93913 17 10C17 11.0609 16.5786 12.0783 15.8284 12.8284C15.0783 13.5786 14.0609 14 13 14C12.4477 14 12 13.5523 12 13C12 12.4477 12.4477 12 13 12C13.5304 12 14.0391 11.7893 14.4142 11.4142C14.7893 11.0391 15 10.5304 15 10C15 9.46957 14.7893 8.96086 14.4142 8.58579C14.0391 8.21071 13.5304 8 13 8H10V9C10 9.55228 9.55228 10 9 10C8.44772 10 8 9.55228 8 9V7Z" fill="black"/>
<path fill-rule="evenodd" clip-rule="evenodd" d="M9 13.7C9.55228 13.7 10 14.1477 10 14.7V17C10 17.5522 9.55228 18 9 18C8.44772 18 8 17.5522 8 17V14.7C8 14.1477 8.44772 13.7 9 13.7Z" fill="black"/>
</svg>
