<svg width="24" height="24" viewBox="0 0 24 24" fill="none" xmlns="http://www.w3.org/2000/svg">
<path fill-rule="evenodd" clip-rule="evenodd" d="M3.85621 15.7348C4.45547 15.23 5.21999 14.9642 6.00315 14.9885C6.78658 15.0127 7.53346 15.3254 8.10045 15.8666C8.10453 15.8705 8.10858 15.8744 8.1126 15.8784C9.30101 17.0517 9.28577 18.9351 8.26474 20.1443C7.82206 20.6708 7.21239 21.0574 6.62609 21.3438C6.0279 21.636 5.38236 21.858 4.80252 22.0239C4.21949 22.1907 3.68175 22.3066 3.29061 22.3808C3.09435 22.4181 2.93327 22.4452 2.81974 22.4632C2.76294 22.4722 2.71792 22.479 2.68623 22.4836C2.67038 22.4859 2.65786 22.4876 2.64884 22.4889C2.64434 22.4895 2.64071 22.49 2.63798 22.4904L2.6329 22.4911C2.6327 22.4911 2.63252 22.4911 2.50001 21.5C1.50883 21.3674 1.50885 21.3673 1.50888 21.3671L1.5091 21.3654L1.50957 21.362C1.50994 21.3593 1.51044 21.3556 1.51107 21.3511C1.51232 21.3421 1.5141 21.3296 1.5164 21.3137C1.52101 21.282 1.52775 21.237 1.53676 21.1802C1.55475 21.0667 1.58186 20.9056 1.61912 20.7094C1.69339 20.3182 1.8093 19.7805 1.97607 19.1974C2.14193 18.6176 2.36397 17.9721 2.65616 17.3739C2.94264 16.7874 3.32943 16.1775 3.85621 15.7348ZM2.50001 21.5L1.50883 21.3674C1.46754 21.6763 1.57257 21.9867 1.7929 22.2071C2.01323 22.4274 2.32367 22.5324 2.63252 22.4911L2.50001 21.5ZM3.77046 20.2295C3.9255 20.191 4.08724 20.1483 4.2525 20.101C4.76515 19.9544 5.29087 19.7702 5.7483 19.5467C6.21719 19.3177 6.54706 19.0797 6.7343 18.8568C6.73496 18.856 6.73562 18.8552 6.73628 18.8544C7.13227 18.3859 7.09896 17.6948 6.71327 17.3074C6.50366 17.1102 6.22914 16.9964 5.94132 16.9875C5.65062 16.9785 5.36683 17.0772 5.14443 17.2646L5.1432 17.2657C4.92029 17.4529 4.68227 17.7828 4.45323 18.2517C4.2298 18.7091 4.04559 19.2348 3.89895 19.7475C3.85168 19.9127 3.80892 20.0745 3.77046 20.2295Z" fill="black"/>
<path fill-rule="evenodd" clip-rule="evenodd" d="M20.9592 3.03868C19.2918 3.174 17.6676 3.66036 16.1949 4.47031C14.4191 5.44705 12.9226 6.8619 11.8479 8.58027C11.846 8.58326 11.8441 8.58624 11.8422 8.58921C11.1968 9.5972 10.639 10.6582 10.1747 11.7605L12.242 13.8277C13.3576 13.3645 14.4322 12.8073 15.4542 12.162C19.6794 9.32381 20.7549 5.61275 20.9592 3.03868ZM15.2311 2.71788C17.306 1.5767 19.6383 0.985336 22.0062 1.00002C22.5561 1.00343 23 1.45014 23 2C23 4.91618 22.1511 10.0797 16.5569 13.8306C16.5495 13.8356 16.542 13.8404 16.5345 13.8452C15.2149 14.6797 13.8149 15.3797 12.3555 15.9347C11.9874 16.0747 11.5714 15.9856 11.2929 15.7071L8.29292 12.7071C8.01329 12.4275 7.92472 12.0093 8.06695 11.6403C8.62265 10.1987 9.32221 8.81664 10.155 7.51523C11.4105 5.50961 13.1578 3.8582 15.2311 2.71788Z" fill="black"/>
<path fill-rule="evenodd" clip-rule="evenodd" d="M6.55539 8.83161C6.12054 9.12295 5.70921 9.84216 5.39632 10.7048C5.35993 10.8051 5.32607 10.9039 5.29468 11H9.00001C9.55229 11 10 11.4477 10 12C10 12.5523 9.55229 13 9.00001 13H4.00001C3.70354 13 3.42235 12.8685 3.23235 12.6409C3.04235 12.4133 2.96314 12.1131 3.01609 11.8214L4.00001 12C3.01609 11.8214 3.01612 11.8212 3.01616 11.821L3.01647 11.8193L3.01707 11.816C3.01754 11.8135 3.01815 11.8103 3.01889 11.8063C3.02039 11.7983 3.02246 11.7875 3.0251 11.774C3.03038 11.747 3.03798 11.7091 3.04799 11.6616C3.068 11.5667 3.09775 11.433 3.13801 11.2707C3.21817 10.9475 3.34184 10.5034 3.51619 10.0228C3.84065 9.12829 4.42907 7.84779 5.44399 7.16884L5.44531 7.16796C6.0403 6.7713 6.73809 6.60761 7.37215 6.54868C8.01483 6.48895 8.66796 6.53009 9.23533 6.60321C9.80666 6.67685 10.3183 6.78657 10.686 6.87722C10.8707 6.92276 11.0212 6.96404 11.1274 6.99449C11.1805 7.00973 11.2226 7.0223 11.2525 7.03138C11.2675 7.03593 11.2794 7.03961 11.2881 7.04232C11.29 7.04291 11.2917 7.04345 11.2933 7.04395C11.2953 7.0446 11.2971 7.04516 11.2987 7.04565C11.3 7.04608 11.3012 7.04645 11.3022 7.04675L11.3039 7.04732C11.3042 7.04739 11.3044 7.04746 11 8.00001L11.3044 7.04746C11.8305 7.21555 12.1207 7.7783 11.9526 8.30438C11.7846 8.83014 11.2224 9.12031 10.6966 8.95287C10.6966 8.95287 10.6966 8.95286 10.6965 8.95285C10.6964 8.95279 10.6962 8.95274 10.696 8.95268L10.6956 8.95257M10.6956 8.95257L10.6947 8.95226L10.6925 8.95157C10.6883 8.95026 10.681 8.94801 10.6708 8.94491C10.6504 8.9387 10.6183 8.92912 10.5759 8.91694C10.4908 8.89255 10.3647 8.85789 10.2072 8.81906C9.89042 8.74095 9.45585 8.64818 8.97969 8.58681C8.49956 8.52493 8.00393 8.49858 7.55724 8.5401C7.1024 8.58237 6.77042 8.6885 6.55539 8.83161M4.98374 12.1796C4.98371 12.1798 4.98372 12.1798 4.98375 12.1796L4.98374 12.1796Z" fill="black"/>
<path fill-rule="evenodd" clip-rule="evenodd" d="M15.6956 12.0475C16.2217 11.8794 16.7845 12.1696 16.9526 12.6957L16 13C16.9526 12.6957 16.9526 12.6959 16.9527 12.6961L16.9533 12.6979C16.9536 12.6988 16.9539 12.7 16.9544 12.7013C16.9552 12.7041 16.9563 12.7076 16.9577 12.712C16.9604 12.7207 16.9641 12.7326 16.9686 12.7475C16.9777 12.7774 16.9903 12.8195 17.0055 12.8727C17.036 12.9788 17.0773 13.1294 17.1228 13.3141C17.2134 13.6817 17.3232 14.1934 17.3968 14.7647C17.4699 15.3321 17.5111 15.9852 17.4513 16.6279C17.3924 17.2619 17.2287 17.9597 16.832 18.5547L16.8312 18.556C16.1522 19.571 14.8717 20.1594 13.9772 20.4838C13.4966 20.6582 13.0525 20.7819 12.7293 20.862C12.567 20.9023 12.4333 20.932 12.3384 20.952C12.2909 20.9621 12.2531 20.9697 12.226 20.9749C12.2125 20.9776 12.2017 20.9796 12.1937 20.9811C12.1898 20.9819 12.1865 20.9825 12.184 20.983L12.1807 20.9836L12.179 20.9839C12.1788 20.9839 12.1786 20.9839 12 20L12.1786 20.9839C11.8869 21.0369 11.5867 20.9577 11.3591 20.7677C11.1316 20.5777 11 20.2965 11 20V15C11 14.4477 11.4477 14 12 14C12.5523 14 13 14.4477 13 15V18.7054C13.0961 18.674 13.1949 18.6401 13.2953 18.6037C14.1578 18.2908 14.877 17.8795 15.1684 17.4447C15.3115 17.2296 15.4176 16.8976 15.4599 16.4428C15.5014 15.9961 15.4751 15.5005 15.4132 15.0203C15.3518 14.5442 15.2591 14.1096 15.181 13.7929C15.1421 13.6354 15.1075 13.5092 15.0831 13.4242C15.0709 13.3817 15.0613 13.3497 15.0551 13.3293C15.052 13.3191 15.0497 13.3118 15.0484 13.3076C15.0478 13.3055 15.0474 13.3041 15.0472 13.3036L15.0472 13.3037L15.0472 13.3037L15.0473 13.304C15.0473 13.3039 15.0473 13.3038 15.0472 13.3037C15.0472 13.3036 15.0472 13.3035 15.0471 13.3034C14.8797 12.7776 15.1699 12.2155 15.6956 12.0475Z" fill="black"/>
</svg>
