<svg width="24" height="24" viewBox="0 0 24 24" fill="none" xmlns="http://www.w3.org/2000/svg">
<path fill-rule="evenodd" clip-rule="evenodd" d="M11.9999 3.00208C11.7899 3.00208 11.5853 3.06819 11.4149 3.19104C11.4143 3.19153 11.4136 3.19202 11.4129 3.19251L3.41448 8.93137C3.41428 8.93152 3.41407 8.93166 3.41387 8.93181C3.24161 9.05612 3.1134 9.23205 3.04783 9.43413C2.9822 9.63644 2.98277 9.85441 3.04948 10.0564L6.08903 19.315C6.08917 19.3154 6.08931 19.3158 6.08944 19.3162C6.15579 19.5153 6.28306 19.6884 6.45325 19.8111C6.6238 19.9341 6.82877 20.0002 7.03903 20H7.03994H16.9599H16.9608C17.1711 20.0002 17.3761 19.9341 17.5466 19.8111C17.7168 19.6884 17.8441 19.5153 17.9104 19.3162C17.9106 19.3158 17.9107 19.3154 17.9108 19.315L20.9498 10.0581L20.9504 10.0564C21.0171 9.85441 21.0177 9.63644 20.952 9.43413C20.8865 9.23202 20.7582 9.05606 20.5859 8.93175C20.5857 8.93163 20.5856 8.9315 20.5854 8.93137L12.587 3.19251L12.5849 3.19104C12.4146 3.06819 12.2099 3.00208 11.9999 3.00208ZM10.246 1.56824C10.7567 1.20015 11.3703 1.00208 11.9999 1.00208C12.6295 1.00208 13.2431 1.20012 13.7538 1.56815C13.7542 1.56842 13.7546 1.5687 13.7549 1.56898L21.7545 7.30865C22.2722 7.68163 22.6575 8.20997 22.8544 8.81691C23.0513 9.42368 23.0496 10.0774 22.8496 10.6831C22.8496 10.6833 22.8495 10.6835 22.8495 10.6836L19.81 19.9419L19.809 19.945C19.6103 20.5437 19.228 21.0645 18.7164 21.4334C18.2047 21.8023 17.5898 22.0006 16.959 22H7.04085C6.41007 22.0006 5.79516 21.8023 5.28352 21.4334C4.77188 21.0645 4.38954 20.5437 4.19085 19.945L4.18983 19.9419L1.15039 10.6836C1.15029 10.6833 1.15018 10.683 1.15008 10.6827C0.950267 10.0771 0.948643 9.42352 1.14546 8.81691C1.34237 8.20997 1.72768 7.68163 2.24539 7.30865L10.2449 1.56898C10.2453 1.56873 10.2456 1.56848 10.246 1.56824Z" fill="black"/>
</svg>
