<svg width="24" height="24" viewBox="0 0 24 24" fill="none" xmlns="http://www.w3.org/2000/svg">
<path fill-rule="evenodd" clip-rule="evenodd" d="M10 7.96399C10.5523 7.96399 11 8.4117 11 8.96399V12C11 12.5523 10.5523 13 10 13C9.44772 13 9 12.5523 9 12V8.96399C9 8.4117 9.44772 7.96399 10 7.96399Z" fill="black"/>
<path fill-rule="evenodd" clip-rule="evenodd" d="M14 7.96399C14.5523 7.96399 15 8.4117 15 8.96399V12C15 12.5523 14.5523 13 14 13C13.4477 13 13 12.5523 13 12V8.96399C13 8.4117 13.4477 7.96399 14 7.96399Z" fill="black"/>
<path fill-rule="evenodd" clip-rule="evenodd" d="M7.58579 11.5858C7.96086 11.2107 8.46957 11 9 11H15C15.5304 11 16.0391 11.2107 16.4142 11.5858C16.7893 11.9609 17 12.4696 17 13V15C17 15.7957 16.6839 16.5587 16.1213 17.1213C15.5587 17.6839 14.7957 18 14 18H10C9.20435 18 8.44129 17.6839 7.87868 17.1213C7.31607 16.5587 7 15.7957 7 15V13C7 12.4696 7.21071 11.9609 7.58579 11.5858ZM15 13L9 13L9 15C9 15.2652 9.10536 15.5196 9.29289 15.7071C9.48043 15.8946 9.73478 16 10 16H14C14.2652 16 14.5196 15.8946 14.7071 15.7071C14.8946 15.5196 15 15.2652 15 15V13Z" fill="black"/>
<path fill-rule="evenodd" clip-rule="evenodd" d="M11.3567 3.23489L4.35973 9.23128C4.35799 9.23277 4.35625 9.23425 4.3545 9.23573C4.2434 9.32963 4.15412 9.44663 4.09289 9.57859C4.03167 9.71054 3.99997 9.85426 4 9.99973V19C4 19.2652 4.10536 19.5195 4.29289 19.7071C4.48043 19.8946 4.73478 20 5 20H8.5C9.05228 20 9.5 20.4477 9.5 21C9.5 21.5523 9.05228 22 8.5 22H5C4.20435 22 3.44129 21.6839 2.87868 21.1213C2.31607 20.5587 2 19.7956 2 19V10.0002C2 10.0001 2 10 2 9.99997C1.99993 9.56365 2.09503 9.13257 2.27868 8.73678C2.46183 8.34207 2.72865 7.99193 3.06061 7.71065L10.0583 1.71366C10.06 1.71217 10.0618 1.71068 10.0635 1.70921C10.605 1.25157 11.291 1.00049 12 1.00049C12.709 1.00049 13.395 1.25157 13.9365 1.70921C13.9382 1.71068 13.94 1.71217 13.9417 1.71366L20.9394 7.7107C21.2714 7.99197 21.5382 8.34209 21.7213 8.73678C21.905 9.13257 22.0001 9.56365 22 9.99997C22 10 22 10.0001 22 10.0002V19C22 19.7956 21.6839 20.5587 21.1213 21.1213C20.5587 21.6839 19.7957 22 19 22H14C13.2043 22 12.4413 21.6839 11.8787 21.1213C11.3161 20.5587 11 19.7956 11 19V17C11 16.4477 11.4477 16 12 16C12.5523 16 13 16.4477 13 17V19C13 19.2652 13.1054 19.5195 13.2929 19.7071C13.4804 19.8946 13.7348 20 14 20H19C19.2652 20 19.5196 19.8946 19.7071 19.7071C19.8946 19.5195 20 19.2652 20 19V9.99973C20 9.85426 19.9683 9.71054 19.9071 9.57859C19.8459 9.44663 19.7566 9.32963 19.6455 9.23573C19.6438 9.23425 19.642 9.23277 19.6403 9.23128L12.6433 3.23489C12.4632 3.08351 12.2354 3.00049 12 3.00049C11.7646 3.00049 11.5368 3.08351 11.3567 3.23489Z" fill="black"/>
</svg>
