<svg width="24" height="24" viewBox="0 0 24 24" fill="none" xmlns="http://www.w3.org/2000/svg">
<path fill-rule="evenodd" clip-rule="evenodd" d="M5 12C4.44772 12 4 12.4477 4 13V20C4 20.5523 4.44772 21 5 21H19C19.5523 21 20 20.5523 20 20V13C20 12.4477 19.5523 12 19 12H5ZM2 13C2 11.3431 3.34315 10 5 10H19C20.6569 10 22 11.3431 22 13V20C22 21.6569 20.6569 23 19 23H5C3.34315 23 2 21.6569 2 20V13Z" fill="black"/>
<path fill-rule="evenodd" clip-rule="evenodd" d="M14.3724 3.77448C13.5737 3.18615 12.5849 2.91557 11.598 3.01526C10.6111 3.11495 9.69637 3.5778 9.0315 4.31396C8.36663 5.05012 7.999 6.00707 8 6.99903L8 11C8 11.5523 7.55229 12 7 12C6.44772 12 6 11.5523 6 11V7.00048C5.99865 5.51274 6.55006 4.07754 7.54725 2.97344C8.54456 1.8692 9.9166 1.17492 11.397 1.02539C12.8774 0.875849 14.3606 1.28172 15.5586 2.16421C16.7566 3.04671 17.5839 4.34285 17.88 5.80104C17.9899 6.34228 17.6402 6.87013 17.099 6.98003C16.5578 7.08994 16.0299 6.74027 15.92 6.19903C15.7226 5.22691 15.171 4.36281 14.3724 3.77448Z" fill="black"/>
</svg>
