<svg width="24" height="24" viewBox="0 0 24 24" fill="none" xmlns="http://www.w3.org/2000/svg">
<path fill-rule="evenodd" clip-rule="evenodd" d="M12 1C12.5523 1 13 1.44772 13 2V4C13 4.55228 12.5523 5 12 5C11.4477 5 11 4.55228 11 4V2C11 1.44772 11.4477 1 12 1Z" fill="black"/>
<path fill-rule="evenodd" clip-rule="evenodd" d="M4.22282 4.22289C4.61335 3.83236 5.24651 3.83236 5.63704 4.22289L7.04704 5.63289C7.43756 6.02341 7.43756 6.65658 7.04704 7.0471C6.65651 7.43762 6.02335 7.43762 5.63283 7.0471L4.22282 5.6371C3.8323 5.24658 3.8323 4.61341 4.22282 4.22289Z" fill="black"/>
<path fill-rule="evenodd" clip-rule="evenodd" d="M19 12C19 11.4477 19.4477 11 20 11H22C22.5523 11 23 11.4477 23 12C23 12.5523 22.5523 13 22 13H20C19.4477 13 19 12.5523 19 12Z" fill="black"/>
<path fill-rule="evenodd" clip-rule="evenodd" d="M19.777 4.22289C20.1675 4.61341 20.1675 5.24657 19.777 5.6371L18.367 7.0471C17.9765 7.43762 17.3433 7.43762 16.9528 7.0471C16.5623 6.65658 16.5623 6.02341 16.9528 5.63289L18.3628 4.22289C18.7533 3.83236 19.3865 3.83236 19.777 4.22289Z" fill="black"/>
<path fill-rule="evenodd" clip-rule="evenodd" d="M9.5273 7.65288C10.3482 7.18574 11.2846 6.96064 12.2281 7.00367C13.1716 7.04669 14.0836 7.35607 14.8586 7.89598C15.6335 8.4359 16.2397 9.18427 16.6069 10.0544C16.9741 10.9246 17.0874 11.881 16.9335 12.8129C16.8436 13.3578 16.3289 13.7266 15.784 13.6366C15.2391 13.5467 14.8703 13.032 14.9603 12.4871C15.0526 11.928 14.9846 11.3542 14.7643 10.8321C14.5439 10.31 14.1802 9.86093 13.7153 9.53698C13.2503 9.21303 12.7031 9.0274 12.137 9.00159C11.5709 8.97578 11.009 9.11083 10.5165 9.39112C10.0365 9.66428 9.42595 9.49661 9.15278 9.01661C8.87962 8.53661 9.0473 7.92605 9.5273 7.65288Z" fill="black"/>
<path fill-rule="evenodd" clip-rule="evenodd" d="M7.95852 13.1163C7.2237 12.9351 6.45256 12.9661 5.73466 13.2057C5.01676 13.4453 4.38157 13.8837 3.90285 14.4699C3.42413 15.056 3.12154 15.766 3.03021 16.5173C2.93888 17.2686 3.06257 18.0304 3.3869 18.7142C3.71124 19.398 4.22292 19.9758 4.8625 20.3804C5.50203 20.7849 6.24321 20.9998 6.99996 21C7.00003 21 7.0001 21 7.00016 21H13C13.5304 21 14.0391 20.7893 14.4142 20.4142C14.7892 20.0391 15 19.5304 15 19C15 18.4696 14.7892 17.9609 14.4142 17.5858C14.0391 17.2107 13.5304 17 13 17H11.9C11.4248 17 11.0152 16.6656 10.9202 16.2C10.7688 15.4585 10.4102 14.7751 9.88592 14.2292C9.36168 13.6834 8.69334 13.2975 7.95852 13.1163ZM5.1015 11.3086C6.17835 10.9492 7.33506 10.9027 8.43729 11.1745C9.53951 11.4462 10.542 12.0251 11.3284 12.8439C11.9221 13.4621 12.3742 14.1979 12.6578 15H13C14.0608 15 15.0782 15.4214 15.8284 16.1716C16.5785 16.9217 17 17.9391 17 19C17 20.0609 16.5785 21.0783 15.8284 21.8284C15.0782 22.5786 14.0608 23 13 23H6.99975C5.86452 22.9998 4.75264 22.6775 3.79326 22.0706C2.83388 21.4636 2.06637 20.597 1.57987 19.5713C1.09336 18.5456 0.907834 17.4029 1.04483 16.276C1.18182 15.149 1.63571 14.0841 2.35379 13.2048C3.07186 12.3255 4.02466 11.668 5.1015 11.3086Z" fill="black"/>
</svg>
