<svg width="24" height="24" viewBox="0 0 24 24" fill="none" xmlns="http://www.w3.org/2000/svg">
<path fill-rule="evenodd" clip-rule="evenodd" d="M4 5C3.44772 5 3 5.44772 3 6V18C3 18.5523 3.44772 19 4 19H20C20.5523 19 21 18.5523 21 18V6C21 5.44772 20.5523 5 20 5H4ZM1 6C1 4.34315 2.34315 3 4 3H20C21.6569 3 23 4.34315 23 6V18C23 19.6569 21.6569 21 20 21H4C2.34315 21 1 19.6569 1 18V6Z" fill="black"/>
<path fill-rule="evenodd" clip-rule="evenodd" d="M8 9C7.44772 9 7 9.44772 7 10C7 10.5523 7.44772 11 8 11C8.55228 11 9 10.5523 9 10C9 9.44772 8.55228 9 8 9ZM5 10C5 8.34315 6.34315 7 8 7C9.65685 7 11 8.34315 11 10C11 11.6569 9.65685 13 8 13C6.34315 13 5 11.6569 5 10Z" fill="black"/>
<path fill-rule="evenodd" clip-rule="evenodd" d="M7 12C7 11.4477 7.44772 11 8 11H16C16.5523 11 17 11.4477 17 12C17 12.5523 16.5523 13 16 13H8C7.44772 13 7 12.5523 7 12Z" fill="black"/>
<path fill-rule="evenodd" clip-rule="evenodd" d="M16 9C15.4477 9 15 9.44772 15 10C15 10.5523 15.4477 11 16 11C16.5523 11 17 10.5523 17 10C17 9.44772 16.5523 9 16 9ZM13 10C13 8.34315 14.3431 7 16 7C17.6569 7 19 8.34315 19 10C19 11.6569 17.6569 13 16 13C14.3431 13 13 11.6569 13 10Z" fill="black"/>
<path fill-rule="evenodd" clip-rule="evenodd" d="M16.1905 17.0733C16.118 17.0215 16.0304 16.9954 15.9414 16.9991C15.9276 16.9997 15.9138 17 15.9 17H8.09999C8.09226 17 8.08454 16.9999 8.07682 16.9997C7.98404 16.9975 7.89339 17.0277 7.82042 17.085C7.74744 17.1424 7.69668 17.2233 7.67682 17.314C7.67531 17.3209 7.67372 17.3277 7.67207 17.3346L6.97207 20.2346C6.84248 20.7715 6.30221 21.1016 5.76535 20.972C5.22848 20.8424 4.89832 20.3022 5.0279 19.7653L5.72575 16.8742C5.84671 16.335 6.15007 15.854 6.58478 15.5124C7.01918 15.1711 7.55792 14.9902 8.11002 15H15.882C16.4077 14.9833 16.9246 15.1398 17.353 15.4458C17.7877 15.7563 18.1064 16.203 18.2586 16.7151C18.2642 16.7341 18.2693 16.7534 18.2738 16.7727L18.9738 19.7727C19.0993 20.3106 18.7651 20.8483 18.2272 20.9738C17.6894 21.0993 17.1516 20.765 17.0261 20.2272L16.335 17.2651C16.3077 17.188 16.2573 17.121 16.1905 17.0733Z" fill="black"/>
</svg>
