<svg width="24" height="24" viewBox="0 0 24 24" fill="none" xmlns="http://www.w3.org/2000/svg">
<path fill-rule="evenodd" clip-rule="evenodd" d="M3.00007 5C2.68836 4.99999 2.38096 5.07284 2.1024 5.21273L3.00007 5ZM3.00014 5H21C21 5 21 5 21.0001 5C21.3118 4.99999 21.6192 5.07284 21.8977 5.21273C22.1763 5.35264 22.4183 5.55573 22.6045 5.80579C22.7906 6.05585 22.9157 6.34596 22.9698 6.65297C23.0239 6.95998 23.0055 7.27538 22.916 7.574C22.9145 7.57902 22.9129 7.58404 22.9114 7.58904L21.8554 10.922C21.8545 10.9247 21.8537 10.9273 21.8528 10.93C21.6565 11.532 21.2748 12.0564 20.7624 12.4282C20.25 12.8 19.6331 13.0001 19.0001 13C19 13 18.9999 13 18.9998 13H16.0001C15.4478 13 15.0001 12.5523 15.0001 12C15.0001 11.4477 15.4478 11 16.0001 11H19.0003C19.2114 11.0001 19.417 10.9333 19.5879 10.8094C19.7577 10.6861 19.8845 10.5126 19.9502 10.3133L21 7H3.00013L4.0498 10.314C4.11565 10.5131 4.24242 10.6865 4.41224 10.8096C4.58305 10.9334 4.78866 11.0001 4.99964 11H8.00007C8.55235 11 9.00007 11.4477 9.00007 12C9.00007 12.5523 8.55235 13 8.00007 13H5.0005C5.00035 13 5.00021 13 5.00007 13C4.36726 13.0002 3.7506 12.8003 3.23827 12.4288C2.72583 12.0573 2.34403 11.5332 2.1475 10.9315C2.14657 10.9287 2.14565 10.9258 2.14475 10.923L1.08875 7.58895C1.08717 7.58398 1.08564 7.579 1.08414 7.574C0.994671 7.27538 0.976247 6.95998 1.03034 6.65297C1.08443 6.34597 1.20953 6.05585 1.39567 5.80579C1.58181 5.55573 1.82383 5.35264 2.1024 5.21273" fill="black"/>
<path fill-rule="evenodd" clip-rule="evenodd" d="M13 2C13 1.44772 13.4477 1 14 1H17C17.5304 1 18.0391 1.21071 18.4142 1.58579C18.7893 1.96086 19 2.46957 19 3V6C19 6.55228 18.5523 7 18 7C17.4477 7 17 6.55228 17 6V3H14C13.4477 3 13 2.55228 13 2Z" fill="black"/>
<path fill-rule="evenodd" clip-rule="evenodd" d="M9 11V21H15V11H9ZM7 11C7 9.89543 7.89543 9 9 9H15C16.1046 9 17 9.89543 17 11V21C17 22.1046 16.1046 23 15 23H9C7.89543 23 7 22.1046 7 21V11Z" fill="black"/>
</svg>
