<svg width="24" height="24" viewBox="0 0 24 24" fill="none" xmlns="http://www.w3.org/2000/svg">
<path fill-rule="evenodd" clip-rule="evenodd" d="M19.8782 4.11099C19.6511 4.01797 19.4078 3.97107 19.1624 3.97302C18.917 3.97497 18.6744 4.02573 18.4488 4.12234C18.2232 4.21895 18.0191 4.35949 17.8483 4.53576C17.8445 4.53971 17.8406 4.54363 17.8367 4.54752L9.76673 12.6075C9.37596 12.9978 8.7428 12.9974 8.35251 12.6066C7.96223 12.2159 7.96262 11.5827 8.35339 11.1924L16.418 3.13784C16.7721 2.77398 17.1947 2.48373 17.6615 2.28383C18.131 2.08277 18.6358 1.97714 19.1465 1.97308C19.6572 1.96903 20.1636 2.06663 20.6363 2.2602C21.1089 2.45378 21.5383 2.73945 21.8994 3.1006C22.2606 3.46175 22.5463 3.89114 22.7398 4.36377C22.9334 4.8364 23.031 5.34282 23.027 5.85354C23.0229 6.36426 22.9173 6.86907 22.7162 7.33857C22.5164 7.80524 22.2262 8.22775 21.8625 8.58181L13.808 16.6562C13.418 17.0472 12.7848 17.048 12.3938 16.658C12.0028 16.2679 12.002 15.6348 12.3921 15.2437L20.4521 7.16375C20.4561 7.15971 20.4602 7.1557 20.4643 7.15173C20.6405 6.98097 20.7811 6.77684 20.8777 6.55124C20.9743 6.32564 21.0251 6.08307 21.027 5.83766C21.029 5.59225 20.9821 5.3489 20.889 5.12179C20.796 4.89468 20.6588 4.68835 20.4852 4.51481C20.3117 4.34128 20.1054 4.204 19.8782 4.11099Z" fill="black"/>
<path fill-rule="evenodd" clip-rule="evenodd" d="M3.07003 17.9591C3.07051 15.7437 4.85156 13.94 7.07003 13.94C7.07114 13.94 7.07224 13.94 7.07335 13.94C7.59995 13.9418 8.12105 14.0472 8.6069 14.2503C9.09275 14.4535 9.53382 14.7503 9.90495 15.1239C10.2761 15.4975 10.57 15.9406 10.7699 16.4278C10.9696 16.9144 11.0716 17.4356 11.07 17.9617C11.0691 20.7467 8.82824 23 6.07003 23C4.1652 23 2.51286 21.8577 1.35875 20.6829C1.25429 20.5776 1.12692 20.4151 1.05595 20.1889C0.977879 19.94 0.990661 19.6848 1.07411 19.4584C1.21324 19.0809 1.51404 18.8767 1.61854 18.8073C1.76256 18.7117 1.92433 18.6311 2.0484 18.5713C2.11935 18.537 2.17533 18.5107 2.22874 18.4856C2.29565 18.4541 2.35852 18.4245 2.44171 18.3837C2.709 18.2524 2.89138 18.1419 3.00284 18.0373C3.04861 17.9943 3.0654 17.9676 3.07003 17.9591ZM7.06837 15.94C5.96789 15.9409 5.07003 16.8363 5.07003 17.96C5.07003 18.6486 4.73277 19.1565 4.37159 19.4955C4.13451 19.7181 3.86386 19.891 3.62175 20.0244C4.4102 20.6266 5.25428 21 6.07003 21C7.71128 21 9.07003 19.6542 9.07003 17.96C9.07003 17.9589 9.07003 17.9578 9.07004 17.9567C9.07092 17.6927 9.01979 17.4312 8.91959 17.187C8.81939 16.9428 8.67207 16.7207 8.48605 16.5334C8.30002 16.3462 8.07893 16.1974 7.8354 16.0956C7.59238 15.9939 7.33176 15.9411 7.06837 15.94ZM2.72464 20.4736C2.72663 20.4723 2.72894 20.4708 2.73161 20.4692C2.71168 20.485 2.70581 20.4861 2.72464 20.4736Z" fill="black"/>
</svg>
