<svg width="24" height="24" viewBox="0 0 24 24" fill="none" xmlns="http://www.w3.org/2000/svg">
<path fill-rule="evenodd" clip-rule="evenodd" d="M1.29289 1.29289C1.68342 0.902369 2.31658 0.902369 2.70711 1.29289L22.7071 21.2929C23.0976 21.6834 23.0976 22.3166 22.7071 22.7071C22.3166 23.0976 21.6834 23.0976 21.2929 22.7071L1.29289 2.70711C0.902369 2.31658 0.902369 1.68342 1.29289 1.29289Z" fill="black"/>
<path fill-rule="evenodd" clip-rule="evenodd" d="M19.0001 9C19.5523 9 20.0001 9.44772 20.0001 10V12L20.0001 12.0024C19.9989 12.4727 19.957 12.942 19.8746 13.4051C19.7779 13.9489 19.2587 14.3113 18.7149 14.2145C18.1712 14.1178 17.8088 13.5986 17.9055 13.0549C17.9675 12.7062 17.9992 12.3529 18.0001 11.9988V10C18.0001 9.44772 18.4478 9 19.0001 9Z" fill="black"/>
<path fill-rule="evenodd" clip-rule="evenodd" d="M5.00001 9C5.55229 9 6.00001 9.44772 6.00001 10V12C6.00001 12.0048 5.99997 12.0097 5.9999 12.0145C5.98246 13.2138 6.32486 14.3908 6.9829 15.3936C7.64094 16.3964 8.58443 17.1789 9.69158 17.6402C10.7987 18.1016 12.0187 18.2205 13.1941 17.9816C14.3695 17.7427 15.4463 17.1571 16.2856 16.3003C16.6721 15.9057 17.3052 15.8991 17.6998 16.2856C18.0943 16.6721 18.1009 17.3052 17.7144 17.6997C16.5954 18.8422 15.1596 19.6231 13.5924 19.9415C12.0252 20.26 10.3985 20.1015 8.92234 19.4864C7.44614 18.8713 6.18817 17.8279 5.31078 16.4909C4.43477 15.1559 3.97829 13.5894 4.00001 11.993V10C4.00001 9.44772 4.44772 9 5.00001 9Z" fill="black"/>
<path fill-rule="evenodd" clip-rule="evenodd" d="M10.3056 1.39459C11.1193 1.01416 12.0373 0.918638 12.9118 1.12341C13.7863 1.32819 14.5665 1.82135 15.1267 2.52346C15.6868 3.22558 15.9944 4.09579 15.9998 4.99397C15.9998 4.99598 15.9998 4.99799 15.9998 4.99999V9.33999C15.9998 9.89228 15.5521 10.34 14.9998 10.34C14.4475 10.34 13.9998 9.89228 13.9998 9.33999V5.00333C13.9965 4.5552 13.8428 4.12113 13.5633 3.77077C13.2832 3.41971 12.8931 3.17313 12.4558 3.07074C12.0186 2.96835 11.5596 3.01611 11.1527 3.20633C10.7459 3.39655 10.415 3.71815 10.2131 4.11935C9.96497 4.61274 9.36382 4.81152 8.87044 4.56335C8.37705 4.31517 8.17827 3.71402 8.42645 3.22064C8.83006 2.41824 9.49198 1.77503 10.3056 1.39459Z" fill="black"/>
<path fill-rule="evenodd" clip-rule="evenodd" d="M9 8C9.55228 8 10 8.44772 10 9V11.9995C10.0004 12.3947 10.1179 12.7809 10.3376 13.1093C10.5574 13.4379 10.8696 13.694 11.2349 13.8452C11.6001 13.9964 12.002 14.0361 12.3897 13.959C12.7774 13.882 13.1336 13.6918 13.4133 13.4125C13.8041 13.0222 14.4373 13.0226 14.8275 13.4133C15.2178 13.8041 15.2174 14.4373 14.8267 14.8275C14.2673 15.3862 13.5549 15.7666 12.7794 15.9207C12.0039 16.0747 11.2002 15.9955 10.4697 15.6931C9.73927 15.3906 9.11481 14.8785 8.67524 14.2213C8.23567 13.5642 8.0007 12.7915 8 12.0009L8 9C8 8.44772 8.44772 8 9 8Z" fill="black"/>
<path fill-rule="evenodd" clip-rule="evenodd" d="M12 18C12.5523 18 13 18.4477 13 19V22C13 22.5523 12.5523 23 12 23C11.4477 23 11 22.5523 11 22V19C11 18.4477 11.4477 18 12 18Z" fill="black"/>
</svg>
