<svg width="24" height="24" viewBox="0 0 24 24" fill="none" xmlns="http://www.w3.org/2000/svg">
<path fill-rule="evenodd" clip-rule="evenodd" d="M6 5C5.44772 5 5 5.44772 5 6V18C5 18.5523 5.44772 19 6 19H18C18.5523 19 19 18.5523 19 18V6C19 5.44772 18.5523 5 18 5H6ZM3 6C3 4.34315 4.34315 3 6 3H18C19.6569 3 21 4.34315 21 6V18C21 19.6569 19.6569 21 18 21H6C4.34315 21 3 19.6569 3 18V6Z" fill="black"/>
<path fill-rule="evenodd" clip-rule="evenodd" d="M10 10V14H14V10H10ZM8 10C8 8.89543 8.89543 8 10 8H14C15.1046 8 16 8.89543 16 10V14C16 15.1046 15.1046 16 14 16H10C8.89543 16 8 15.1046 8 14V10Z" fill="black"/>
<path fill-rule="evenodd" clip-rule="evenodd" d="M15 1C15.5523 1 16 1.44772 16 2V4C16 4.55228 15.5523 5 15 5C14.4477 5 14 4.55228 14 4V2C14 1.44772 14.4477 1 15 1Z" fill="black"/>
<path fill-rule="evenodd" clip-rule="evenodd" d="M15 19C15.5523 19 16 19.4477 16 20V22C16 22.5523 15.5523 23 15 23C14.4477 23 14 22.5523 14 22V20C14 19.4477 14.4477 19 15 19Z" fill="black"/>
<path fill-rule="evenodd" clip-rule="evenodd" d="M1 15C1 14.4477 1.44772 14 2 14H4C4.55228 14 5 14.4477 5 15C5 15.5523 4.55228 16 4 16H2C1.44772 16 1 15.5523 1 15Z" fill="black"/>
<path fill-rule="evenodd" clip-rule="evenodd" d="M1 9C1 8.44772 1.44772 8 2 8H4C4.55228 8 5 8.44772 5 9C5 9.55228 4.55228 10 4 10H2C1.44772 10 1 9.55228 1 9Z" fill="black"/>
<path fill-rule="evenodd" clip-rule="evenodd" d="M19 15C19 14.4477 19.4477 14 20 14H22C22.5523 14 23 14.4477 23 15C23 15.5523 22.5523 16 22 16H20C19.4477 16 19 15.5523 19 15Z" fill="black"/>
<path fill-rule="evenodd" clip-rule="evenodd" d="M19 9C19 8.44772 19.4477 8 20 8H22C22.5523 8 23 8.44772 23 9C23 9.55228 22.5523 10 22 10H20C19.4477 10 19 9.55228 19 9Z" fill="black"/>
<path fill-rule="evenodd" clip-rule="evenodd" d="M9 1C9.55228 1 10 1.44772 10 2V4C10 4.55228 9.55228 5 9 5C8.44772 5 8 4.55228 8 4V2C8 1.44772 8.44772 1 9 1Z" fill="black"/>
<path fill-rule="evenodd" clip-rule="evenodd" d="M9 19C9.55228 19 10 19.4477 10 20V22C10 22.5523 9.55228 23 9 23C8.44772 23 8 22.5523 8 22V20C8 19.4477 8.44772 19 9 19Z" fill="black"/>
</svg>
