<svg width="24" height="24" viewBox="0 0 24 24" fill="none" xmlns="http://www.w3.org/2000/svg">
<path fill-rule="evenodd" clip-rule="evenodd" d="M8.8 2.39994C9.13067 2.84083 9.0422 3.46592 8.60279 3.79784C8.6024 3.79813 8.6017 3.79867 8.6007 3.79945C8.59724 3.80212 8.59019 3.80763 8.57977 3.81596C8.55893 3.83263 8.52468 3.86059 8.47892 3.89982C8.38733 3.97832 8.25004 4.10161 8.08211 4.26954C7.74575 4.6059 7.28979 5.11803 6.83205 5.80464C5.91914 7.174 5 9.23424 5 11.9999C5 14.7656 5.91914 16.8259 6.83205 18.1952C7.28979 18.8818 7.74575 19.394 8.08211 19.7303C8.25004 19.8983 8.38733 20.0215 8.47892 20.1001C8.52468 20.1393 8.55893 20.1672 8.57977 20.1839C8.59019 20.1922 8.59724 20.1978 8.6007 20.2004C8.60169 20.2012 8.60239 20.2017 8.60278 20.202C9.0422 20.5339 9.13067 21.159 8.8 21.5999C8.46863 22.0418 7.84183 22.1313 7.4 21.7999L8 20.9999C7.4 21.7999 7.39961 21.7996 7.3992 21.7993L7.39626 21.7971C7.39477 21.796 7.39303 21.7947 7.39106 21.7932C7.38711 21.7902 7.38219 21.7864 7.37635 21.7819C7.36467 21.7728 7.34926 21.7608 7.33038 21.7456C7.29263 21.7154 7.24094 21.6731 7.17733 21.6186C7.05017 21.5096 6.87496 21.3516 6.66789 21.1445C6.25425 20.7309 5.71021 20.118 5.16795 19.3046C4.08086 17.674 3 15.2342 3 11.9999C3 8.76563 4.08086 6.32587 5.16795 4.69524C5.71021 3.88185 6.25425 3.26897 6.66789 2.85533C6.87496 2.64826 7.05017 2.4903 7.17733 2.38131C7.24094 2.32678 7.29263 2.28443 7.33038 2.25422C7.34926 2.23912 7.36467 2.22705 7.37635 2.218C7.38219 2.21348 7.38711 2.20971 7.39106 2.2067C7.39211 2.2059 7.39309 2.20516 7.394 2.20446C7.39481 2.20385 7.39556 2.20328 7.39626 2.20275L7.39831 2.2012L7.3992 2.20053C7.39961 2.20023 7.4 2.19994 8 2.99994L7.4 2.19994C7.84183 1.86857 8.46863 1.95811 8.8 2.39994ZM8.60314 20.2023C8.60317 20.2023 8.60315 20.2023 8.60308 20.2023L8.60314 20.2023Z" fill="black"/>
<path fill-rule="evenodd" clip-rule="evenodd" d="M15.1999 2.39994C15.5313 1.95811 16.1581 1.86857 16.5999 2.19994L15.9999 2.99994C16.5999 2.19994 16.6003 2.20023 16.6007 2.20053L16.6016 2.2012L16.6037 2.20275C16.6052 2.20388 16.6069 2.2052 16.6089 2.2067C16.6128 2.20971 16.6177 2.21348 16.6236 2.218C16.6353 2.22705 16.6507 2.23912 16.6696 2.25422C16.7073 2.28443 16.759 2.32678 16.8226 2.38131C16.9498 2.4903 17.125 2.64826 17.332 2.85533C17.7457 3.26897 18.2897 3.88185 18.832 4.69524C19.9191 6.32587 20.9999 8.76563 20.9999 11.9999C20.9999 15.2342 19.9191 17.674 18.832 19.3046C18.2897 20.118 17.7457 20.7309 17.332 21.1445C17.125 21.3516 16.9498 21.5096 16.8226 21.6186C16.759 21.6731 16.7073 21.7154 16.6696 21.7456C16.6507 21.7608 16.6353 21.7728 16.6236 21.7819C16.6177 21.7864 16.6128 21.7902 16.6089 21.7932C16.6069 21.7947 16.6052 21.796 16.6037 21.7971L16.6016 21.7987L16.6007 21.7993C16.6003 21.7996 16.5999 21.7999 15.9999 20.9999L16.5999 21.7999C16.1581 22.1313 15.5313 22.0418 15.1999 21.5999C14.8693 21.159 14.9577 20.5339 15.3972 20.202C15.3975 20.2017 15.3982 20.2012 15.3992 20.2004C15.4027 20.1978 15.4097 20.1922 15.4202 20.1839C15.441 20.1672 15.4753 20.1393 15.521 20.1001C15.6126 20.0215 15.7499 19.8983 15.9178 19.7303C16.2542 19.394 16.7101 18.8818 17.1679 18.1952C18.0808 16.8259 18.9999 14.7656 18.9999 11.9999C18.9999 9.23424 18.0808 7.174 17.1679 5.80464C16.7101 5.11803 16.2542 4.6059 15.9178 4.26954C15.7499 4.10161 15.6126 3.97832 15.521 3.89982C15.4753 3.86059 15.441 3.83263 15.4202 3.81596C15.4097 3.80763 15.4027 3.80212 15.3992 3.79945C15.3984 3.79883 15.3978 3.79837 15.3974 3.79805C15.3973 3.79797 15.3972 3.7979 15.3971 3.79784C14.9577 3.46593 14.8693 2.84083 15.1999 2.39994ZM15.3968 20.2023L15.3969 20.2023C15.3968 20.2023 15.3968 20.2023 15.3968 20.2023Z" fill="black"/>
</svg>
