<svg width="24" height="24" viewBox="0 0 24 24" fill="none" xmlns="http://www.w3.org/2000/svg">
<path fill-rule="evenodd" clip-rule="evenodd" d="M7.17157 9.17157C7.92172 8.42143 8.93913 8 10 8C10.5523 8 11 8.44772 11 9C11 9.55228 10.5523 10 10 10C9.46957 10 8.96086 10.2107 8.58579 10.5858C8.21071 10.9609 8 11.4696 8 12C8 12.5304 8.21071 13.0391 8.58579 13.4142C8.96086 13.7893 9.46957 14 10 14C10.5523 14 11 14.4477 11 15C11 15.5523 10.5523 16 10 16C8.93913 16 7.92172 15.5786 7.17157 14.8284C6.42143 14.0783 6 13.0609 6 12C6 10.9391 6.42143 9.92172 7.17157 9.17157Z" fill="black"/>
<path fill-rule="evenodd" clip-rule="evenodd" d="M1 12C1 11.4477 1.44772 11 2 11H3C3.55228 11 4 11.4477 4 12C4 12.5523 3.55228 13 3 13H2C1.44772 13 1 12.5523 1 12Z" fill="black"/>
<path fill-rule="evenodd" clip-rule="evenodd" d="M14 2C14.5523 2 15 2.44772 15 3V21C15 21.5523 14.5523 22 14 22C13.4477 22 13 21.5523 13 21V3C13 2.44772 13.4477 2 14 2Z" fill="black"/>
<path fill-rule="evenodd" clip-rule="evenodd" d="M10 2C10.5523 2 11 2.44772 11 3V4C11 4.55228 10.5523 5 10 5C9.44772 5 9 4.55228 9 4V3C9 2.44772 9.44772 2 10 2Z" fill="black"/>
<path fill-rule="evenodd" clip-rule="evenodd" d="M10 19C10.5523 19 11 19.4477 11 20V21C11 21.5523 10.5523 22 10 22C9.44772 22 9 21.5523 9 21V20C9 19.4477 9.44772 19 10 19Z" fill="black"/>
<path fill-rule="evenodd" clip-rule="evenodd" d="M5.047 16.9528C5.43752 17.3433 5.43752 17.9765 5.047 18.367L4.347 19.067C3.95648 19.4575 3.32331 19.4575 2.93279 19.067C2.54226 18.6765 2.54226 18.0433 2.93279 17.6528L3.63279 16.9528C4.02331 16.5623 4.65647 16.5623 5.047 16.9528Z" fill="black"/>
<path fill-rule="evenodd" clip-rule="evenodd" d="M2.93279 4.93279C3.32331 4.54226 3.95648 4.54226 4.347 4.93279L5.047 5.63279C5.43752 6.02331 5.43752 6.65648 5.047 7.047C4.65647 7.43752 4.02331 7.43752 3.63279 7.047L2.93279 6.347C2.54226 5.95648 2.54226 5.32331 2.93279 4.93279Z" fill="black"/>
<path fill-rule="evenodd" clip-rule="evenodd" d="M13 12C13 11.4477 13.4477 11 14 11H22C22.5523 11 23 11.4477 23 12C23 12.5523 22.5523 13 22 13H14C13.4477 13 13 12.5523 13 12Z" fill="black"/>
<path fill-rule="evenodd" clip-rule="evenodd" d="M17.7071 3.29289C18.0976 3.68342 18.0976 4.31658 17.7071 4.70711L14.7071 7.70711C14.3166 8.09763 13.6834 8.09763 13.2929 7.70711C12.9024 7.31658 12.9024 6.68342 13.2929 6.29289L16.2929 3.29289C16.6834 2.90237 17.3166 2.90237 17.7071 3.29289Z" fill="black"/>
<path fill-rule="evenodd" clip-rule="evenodd" d="M13.2929 16.2929C13.6834 15.9024 14.3166 15.9024 14.7071 16.2929L17.7071 19.2929C18.0976 19.6834 18.0976 20.3166 17.7071 20.7071C17.3166 21.0976 16.6834 21.0976 16.2929 20.7071L13.2929 17.7071C12.9024 17.3166 12.9024 16.6834 13.2929 16.2929Z" fill="black"/>
<path fill-rule="evenodd" clip-rule="evenodd" d="M21.7071 8.29289C22.0976 8.68342 22.0976 9.31658 21.7071 9.70711L19.4142 12L21.7071 14.2929C22.0976 14.6834 22.0976 15.3166 21.7071 15.7071C21.3166 16.0976 20.6834 16.0976 20.2929 15.7071L17.2929 12.7071C16.9024 12.3166 16.9024 11.6834 17.2929 11.2929L20.2929 8.29289C20.6834 7.90237 21.3166 7.90237 21.7071 8.29289Z" fill="black"/>
</svg>
