<svg width="24" height="24" viewBox="0 0 24 24" fill="none" xmlns="http://www.w3.org/2000/svg">
<path fill-rule="evenodd" clip-rule="evenodd" d="M6.48952 2.47432C8.5877 1.26127 11.0278 0.775121 13.4306 1.09139C15.8335 1.40767 18.0647 2.50866 19.7775 4.22332C20.1678 4.61405 20.1675 5.24722 19.7768 5.63753C19.386 6.02785 18.7529 6.02751 18.3625 5.63678C16.9611 4.23387 15.1356 3.33306 13.1697 3.07429C11.2037 2.81552 9.20724 3.21328 7.49055 4.20578C7.01242 4.4822 6.40073 4.31869 6.12431 3.84056C5.84788 3.36244 6.01139 2.75075 6.48952 2.47432Z" fill="black"/>
<path fill-rule="evenodd" clip-rule="evenodd" d="M3 6C3 5.44772 3.44772 5 4 5H4.01C4.56228 5 5.01 5.44772 5.01 6C5.01 6.55228 4.56228 7 4.01 7H4C3.44772 7 3 6.55228 3 6Z" fill="black"/>
<path fill-rule="evenodd" clip-rule="evenodd" d="M20.9446 7.41916C21.4586 7.21734 22.039 7.47048 22.2408 7.98457C22.8729 9.5946 23.1164 11.331 22.9515 13.0528C22.7866 14.7745 22.2181 16.4332 21.292 17.894C20.3659 19.3548 19.1083 20.5767 17.6214 21.4603C16.1346 22.344 14.4603 22.8646 12.7344 22.9798C11.0086 23.0951 9.27998 22.8017 7.68881 22.1236C6.09765 21.4454 4.68882 20.4016 3.57672 19.0769C2.46462 17.7521 1.68059 16.1838 1.28827 14.4993C0.895961 12.8147 0.906428 11.0613 1.31882 9.38157C1.4505 8.84521 1.99205 8.51716 2.52841 8.64884C3.06477 8.78052 3.39282 9.32207 3.26114 9.85843C2.92373 11.2328 2.91517 12.6673 3.23615 14.0456C3.55713 15.4239 4.19861 16.7071 5.10852 17.7909C6.01842 18.8748 7.17109 19.7288 8.47295 20.2837C9.77482 20.8385 11.1892 21.0786 12.6012 20.9843C14.0132 20.89 15.3831 20.4641 16.5997 19.7411C17.8162 19.0181 18.8451 18.0184 19.6028 16.8231C20.3605 15.6279 20.8257 14.2709 20.9606 12.8621C21.0955 11.4534 20.8963 10.0327 20.3791 8.71543C20.1773 8.20134 20.4305 7.62098 20.9446 7.41916Z" fill="black"/>
<path fill-rule="evenodd" clip-rule="evenodd" d="M11.8093 4.99257C12.7613 4.96865 13.7081 5.13922 14.5919 5.49384C15.4757 5.84846 16.2778 6.37968 16.9492 7.05499C17.3386 7.44665 17.3367 8.07981 16.9451 8.4692C16.5534 8.85859 15.9203 8.85675 15.5309 8.4651C15.0513 7.98273 14.4784 7.60329 13.8471 7.34999C13.2158 7.09669 12.5395 6.97485 11.8595 6.99193C11.1795 7.00902 10.5102 7.16466 9.89244 7.44935C9.27469 7.73403 8.72151 8.14177 8.26677 8.64761C7.81203 9.15345 7.46527 9.74675 7.24773 10.3912C7.03018 11.0357 6.94642 11.7178 7.00157 12.3957C7.05671 13.0737 7.24961 13.7333 7.56845 14.3341C7.88729 14.9349 8.32537 15.4644 8.85588 15.8901C9.28664 16.2357 9.35563 16.8651 9.00999 17.2959C8.66434 17.7266 8.03495 17.7956 7.60419 17.45C6.86147 16.854 6.24816 16.1128 5.80178 15.2716C5.35541 14.4304 5.08536 13.507 5.00815 12.5579C4.93095 11.6087 5.04821 10.6538 5.35278 9.75157C5.65734 8.84931 6.14279 8.01868 6.77944 7.31051C7.41608 6.60233 8.19052 6.0315 9.05538 5.63295C9.92023 5.23439 10.8573 5.01648 11.8093 4.99257Z" fill="black"/>
<path fill-rule="evenodd" clip-rule="evenodd" d="M11 18C11 17.4477 11.4477 17 12 17H12.01C12.5623 17 13.01 17.4477 13.01 18C13.01 18.5523 12.5623 19 12.01 19H12C11.4477 19 11 18.5523 11 18Z" fill="black"/>
<path fill-rule="evenodd" clip-rule="evenodd" d="M17.933 10.6616C18.4844 10.63 18.9569 11.0515 18.9884 11.6029C19.0519 12.7128 18.8501 13.8219 18.3997 14.8383C17.9493 15.8547 17.2633 16.7493 16.3984 17.4479C15.9688 17.7949 15.3392 17.7279 14.9921 17.2983C14.6451 16.8687 14.7121 16.2391 15.1417 15.892C15.7594 15.393 16.2494 14.7541 16.5711 14.0281C16.8929 13.302 17.037 12.5098 16.9917 11.717C16.9602 11.1656 17.3816 10.6931 17.933 10.6616Z" fill="black"/>
<path fill-rule="evenodd" clip-rule="evenodd" d="M12 11C11.4477 11 11 11.4477 11 12C11 12.5523 11.4477 13 12 13C12.5523 13 13 12.5523 13 12C13 11.4477 12.5523 11 12 11ZM9 12C9 10.3431 10.3431 9 12 9C13.6569 9 15 10.3431 15 12C15 13.6569 13.6569 15 12 15C10.3431 15 9 13.6569 9 12Z" fill="black"/>
<path fill-rule="evenodd" clip-rule="evenodd" d="M19.7771 4.22295C20.1677 4.61347 20.1677 5.24664 19.7771 5.63716L14.1171 11.2972C13.7266 11.6877 13.0935 11.6877 12.7029 11.2972C12.3124 10.9066 12.3124 10.2735 12.7029 9.88295L18.3629 4.22295C18.7535 3.83242 19.3866 3.83242 19.7771 4.22295Z" fill="black"/>
</svg>
