<svg width="24" height="24" viewBox="0 0 24 24" fill="none" xmlns="http://www.w3.org/2000/svg">
<path fill-rule="evenodd" clip-rule="evenodd" d="M11 17C11 16.4477 11.4477 16 12 16H12.01C12.5623 16 13.01 16.4477 13.01 17C13.01 17.5523 12.5623 18 12.01 18H12C11.4477 18 11 17.5523 11 17Z" fill="black"/>
<path fill-rule="evenodd" clip-rule="evenodd" d="M3.87868 1.87868C4.44129 1.31607 5.20435 1 6 1H15C15.2652 1 15.5196 1.10536 15.7071 1.29289L20.7071 6.29289C20.8946 6.48043 21 6.73478 21 7V20C21 20.7957 20.6839 21.5587 20.1213 22.1213C19.5587 22.6839 18.7957 23 18 23H6C5.20435 23 4.44129 22.6839 3.87868 22.1213C3.31607 21.5587 3 20.7956 3 20V4C3 3.20435 3.31607 2.44129 3.87868 1.87868ZM6 3C5.73478 3 5.48043 3.10536 5.29289 3.29289C5.10536 3.48043 5 3.73478 5 4V20C5 20.2652 5.10536 20.5196 5.29289 20.7071C5.48043 20.8946 5.73478 21 6 21H18C18.2652 21 18.5196 20.8946 18.7071 20.7071C18.8946 20.5196 19 20.2652 19 20V7.41421L14.5858 3H6Z" fill="black"/>
<path fill-rule="evenodd" clip-rule="evenodd" d="M12.2587 8.05215C11.7964 7.97272 11.3209 8.05829 10.9153 8.2939C10.5098 8.52951 10.1999 8.90017 10.0399 9.34108C9.85153 9.86024 9.27795 10.1284 8.75879 9.94002C8.23963 9.75164 7.97147 9.17806 8.15985 8.6589C8.47982 7.77707 9.09955 7.03575 9.91069 6.56453C10.7218 6.09332 11.6728 5.92218 12.5973 6.08103C13.5219 6.23989 14.3612 6.71863 14.9685 7.43357C15.5758 8.14852 15.9126 9.05417 15.9199 9.99223C15.9199 9.99482 15.9199 9.9974 15.9199 9.99999C15.9199 11.5309 14.785 12.5418 13.9746 13.082C13.539 13.3725 13.1104 13.586 12.7948 13.7263C12.6355 13.7971 12.5014 13.8508 12.4048 13.8876C12.3564 13.906 12.3171 13.9203 12.2886 13.9305C12.2743 13.9356 12.2627 13.9396 12.2539 13.9426C12.2494 13.9442 12.2458 13.9454 12.2428 13.9464C12.2413 13.9469 12.24 13.9474 12.2389 13.9477L12.2374 13.9483L12.2367 13.9485C12.2364 13.9486 12.2361 13.9487 11.9199 13L12.2361 13.9487C11.7122 14.1233 11.1458 13.8402 10.9712 13.3162C10.7968 12.793 11.079 12.2274 11.6016 12.052C11.6019 12.0519 11.6024 12.0517 11.6031 12.0515C11.6057 12.0506 11.6109 12.0488 11.6186 12.0461C11.6339 12.0406 11.6592 12.0314 11.6928 12.0186C11.7602 11.9929 11.8605 11.9529 11.9825 11.8987C12.2293 11.789 12.5508 11.6275 12.8652 11.4179C13.553 10.9594 13.918 10.4716 13.9199 10.0035C13.9153 9.536 13.747 9.08482 13.4442 8.72842C13.1406 8.37095 12.7209 8.13157 12.2587 8.05215ZM11.603 12.0515C11.603 12.0515 11.6031 12.0515 11.6031 12.0515C11.6031 12.0515 11.6031 12.0515 11.6031 12.0515" fill="black"/>
</svg>
