<svg width="24" height="24" viewBox="0 0 24 24" fill="none" xmlns="http://www.w3.org/2000/svg">
<path fill-rule="evenodd" clip-rule="evenodd" d="M12.0002 3.59213L10.1126 7.41707C9.88858 7.87061 9.55766 8.26291 9.14836 8.56021C8.73907 8.85751 8.26366 9.05089 7.76306 9.12372L3.53835 9.74127L6.59364 12.7156L5.89787 13.4303L6.59376 12.7157C6.95658 13.069 7.228 13.5053 7.38461 13.9869C7.54121 14.4685 7.57831 14.981 7.49271 15.4801C7.49271 15.4801 7.4927 15.4802 7.4927 15.4802L6.77229 19.6825L10.5482 17.6968C10.9959 17.4617 11.494 17.3389 11.9996 17.3389C12.5052 17.3389 13.0033 17.4617 13.451 17.6968L17.2288 19.6831L16.5075 15.4793L16.5074 15.4786C16.4221 14.9797 16.4594 14.4676 16.616 13.9864C16.7726 13.5051 17.0437 13.0692 17.4062 12.716L20.4603 9.7419L16.2349 9.12354C15.7349 9.05015 15.2602 8.85654 14.8515 8.55933C14.4429 8.26211 14.1124 7.87017 13.8886 7.41714L12.0002 3.59213ZM5.19854 14.1487C5.1985 14.1486 5.19846 14.1486 5.19842 14.1486L1.46537 10.5144C1.46474 10.5138 1.46411 10.5132 1.46348 10.5126C1.25834 10.3138 1.11295 10.0615 1.04379 9.78428C0.974421 9.50622 0.98454 9.21426 1.073 8.94167C1.16145 8.66908 1.32469 8.42681 1.54412 8.24247C1.7628 8.05874 2.02854 7.93991 2.31123 7.89939L7.47513 7.14456C7.65504 7.11838 7.82589 7.04888 7.97299 6.94204C8.12008 6.8352 8.23901 6.69421 8.31953 6.53121L10.6289 1.85154C10.7554 1.59595 10.9508 1.3808 11.1931 1.23038C11.4354 1.07995 11.7149 1.00024 12.0001 1.00024C12.2853 1.00024 12.5648 1.07995 12.8071 1.23038C13.0494 1.3808 13.2448 1.59595 13.3713 1.85154L15.6816 6.53114C15.7621 6.69404 15.8809 6.83498 16.0279 6.94186C16.1748 7.04873 16.3455 7.11835 16.5253 7.14474L21.6895 7.90047C21.6899 7.90053 21.6903 7.90059 21.6907 7.90064C21.6907 7.90065 21.6908 7.90067 21.6909 7.90068C21.9729 7.94181 22.2379 8.06091 22.4559 8.24458C22.6743 8.42854 22.8368 8.66994 22.9251 8.94147C23.0134 9.21299 23.024 9.5038 22.9556 9.78103C22.8872 10.0583 22.7426 10.3108 22.5382 10.5101L18.802 14.1483C18.6717 14.2753 18.5742 14.4321 18.5179 14.6052C18.4616 14.7781 18.4482 14.9622 18.4788 15.1415C18.4788 15.1415 18.4788 15.1416 18.4788 15.1417L19.3599 20.2762C19.36 20.2772 19.3602 20.2782 19.3604 20.2792C19.4095 20.5607 19.3788 20.8504 19.2718 21.1154C19.1644 21.3813 18.9844 21.6117 18.7523 21.7802C18.5202 21.9488 18.2455 22.0487 17.9594 22.0686C17.6744 22.0885 17.3895 22.0281 17.1371 21.8944C17.1361 21.8939 17.1351 21.8933 17.1341 21.8928L12.5212 19.4675C12.3603 19.383 12.1813 19.3389 11.9996 19.3389C11.8179 19.3389 11.6389 19.383 11.478 19.4675C11.478 19.4675 11.478 19.4675 11.478 19.4675L6.86397 21.8939C6.86343 21.8942 6.86289 21.8945 6.86236 21.8948C6.60967 22.0282 6.32468 22.0881 6.03965 22.0679C5.75401 22.0476 5.4798 21.9475 5.24821 21.7791C5.01663 21.6107 4.83695 21.3806 4.72963 21.1151C4.62263 20.8504 4.59183 20.5611 4.6407 20.2798C4.64085 20.279 4.64099 20.2782 4.64114 20.2773L5.52149 15.1421C5.55226 14.9627 5.53893 14.7785 5.48264 14.6054C5.42638 14.4324 5.32888 14.2756 5.19854 14.1487Z" fill="black"/>
</svg>
