<svg width="24" height="24" viewBox="0 0 24 24" fill="none" xmlns="http://www.w3.org/2000/svg">
<path fill-rule="evenodd" clip-rule="evenodd" d="M7 2.34003C7.55228 2.34003 8 2.78774 8 3.34003V5.00003C8 5.53046 8.21071 6.03917 8.58579 6.41424C8.96086 6.78931 9.46957 7.00003 10 7.00003C10.5523 7.00003 11 7.44774 11 8.00003C11 8.55231 10.5523 9.00003 10 9.00003C8.93913 9.00003 7.92172 8.5786 7.17157 7.82845C6.42143 7.07831 6 6.06089 6 5.00003V3.34003C6 2.78774 6.44772 2.34003 7 2.34003Z" fill="black"/>
<path fill-rule="evenodd" clip-rule="evenodd" d="M1.05005 11C1.05005 10.4477 1.49776 10 2.05005 10H5.00005C5.7957 10 6.55876 10.3161 7.12137 10.8787C7.68398 11.4413 8.00005 12.2044 8.00005 13V14C8.00005 14.2652 8.10541 14.5196 8.29294 14.7071C8.48048 14.8946 8.73483 15 9.00005 15C9.7957 15 10.5588 15.3161 11.1214 15.8787C11.684 16.4413 12 17.2044 12 18V21.95C12 22.5023 11.5523 22.95 11 22.95C10.4478 22.95 10 22.5023 10 21.95V18C10 17.7348 9.89469 17.4804 9.70716 17.2929C9.51962 17.1054 9.26526 17 9.00005 17C8.2044 17 7.44134 16.6839 6.87873 16.1213C6.31612 15.5587 6.00005 14.7957 6.00005 14V13C6.00005 12.7348 5.89469 12.4804 5.70716 12.2929C5.51962 12.1054 5.26526 12 5.00005 12H2.05005C1.49776 12 1.05005 11.5523 1.05005 11Z" fill="black"/>
<path fill-rule="evenodd" clip-rule="evenodd" d="M14.8787 14.8787C15.4413 14.3161 16.2043 14 17 14H21.54C22.0923 14 22.54 14.4477 22.54 15C22.54 15.5523 22.0923 16 21.54 16H17C16.7348 16 16.4804 16.1054 16.2929 16.2929C16.1054 16.4804 16 16.7348 16 17V21.54C16 22.0923 15.5523 22.54 15 22.54C14.4477 22.54 14 22.0923 14 21.54V17C14 16.2043 14.3161 15.4413 14.8787 14.8787Z" fill="black"/>
<path fill-rule="evenodd" clip-rule="evenodd" d="M6.24166 2.62807C7.9738 1.56367 9.96703 1.00012 12.0001 1C12.5524 0.999966 13.0001 1.44765 13.0001 1.99994C13.0002 2.55222 12.5525 2.99997 12.0002 3C10.3368 3.0001 8.70597 3.46118 7.28876 4.33206C5.87156 5.20293 4.72343 6.44953 3.97185 7.93344C3.22026 9.41736 2.89461 11.0805 3.03107 12.7383C3.16753 14.3961 3.76075 15.9837 4.74487 17.3247C5.72899 18.6657 7.0655 19.7078 8.60603 20.3352C10.1466 20.9626 11.8308 21.1509 13.4719 20.879C15.1129 20.6071 16.6465 19.8857 17.9023 18.795C19.1582 17.7042 20.0872 16.2868 20.5862 14.7C20.7519 14.1732 21.3133 13.8804 21.8401 14.0461C22.367 14.2117 22.6598 14.7732 22.4941 15.3C21.8842 17.2394 20.7487 18.9718 19.2138 20.305C17.6788 21.6381 15.8045 22.5197 13.7988 22.8521C11.7931 23.1844 9.73452 22.9543 7.85165 22.1875C5.96878 21.4207 4.33526 20.147 3.13245 18.508C1.92964 16.8689 1.2046 14.9286 1.03781 12.9024C0.871032 10.8762 1.26904 8.84343 2.18765 7.02976C3.10626 5.21609 4.50952 3.69248 6.24166 2.62807Z" fill="black"/>
<path fill-rule="evenodd" clip-rule="evenodd" d="M15.8787 1.87868C16.4413 1.31607 17.2044 1 18 1C18.7956 1 19.5587 1.31607 20.1213 1.87868C20.6839 2.44129 21 3.20435 21 4V6C21 6.55228 20.5523 7 20 7C19.4477 7 19 6.55228 19 6V4C19 3.73478 18.8946 3.48043 18.7071 3.29289C18.5196 3.10536 18.2652 3 18 3C17.7348 3 17.4804 3.10536 17.2929 3.29289C17.1054 3.48043 17 3.73478 17 4V6C17 6.55228 16.5523 7 16 7C15.4477 7 15 6.55228 15 6V4C15 3.20435 15.3161 2.44129 15.8787 1.87868Z" fill="black"/>
<path fill-rule="evenodd" clip-rule="evenodd" d="M15 7V10H21V7H15ZM21.0012 9.99995C21.0013 9.99995 21.0013 9.99995 21.0012 9.99995L21.0012 9.99995ZM14.9988 9.99995C14.9987 9.99995 14.9987 9.99995 14.9988 9.99995L14.9988 9.99995ZM13 7C13 5.89543 13.8954 5 15 5H21C22.1046 5 23 5.89543 23 7V10C23 11.1046 22.1046 12 21 12H15C13.8954 12 13 11.1046 13 10V7Z" fill="black"/>
</svg>
