<svg width="24" height="24" viewBox="0 0 24 24" fill="none" xmlns="http://www.w3.org/2000/svg">
<path fill-rule="evenodd" clip-rule="evenodd" d="M9 6C8.44772 6 8 6.44772 8 7C8 7.55228 8.44772 8 9 8C9.55228 8 10 7.55228 10 7C10 6.44772 9.55228 6 9 6ZM6 7C6 5.34315 7.34315 4 9 4C10.6569 4 12 5.34315 12 7C12 8.65685 10.6569 10 9 10C7.34315 10 6 8.65685 6 7Z" fill="black"/>
<path fill-rule="evenodd" clip-rule="evenodd" d="M13.4145 2.18933C13.7163 1.97135 14.1142 1.93908 14.4472 2.10558C16.5869 3.17544 18.4424 4.76882 19.7682 6.35982C20.4324 7.15689 20.9785 7.97095 21.3632 8.74029C21.7388 9.49156 22 10.2783 22 11V20C22 20.5273 21.8199 21.0443 21.4321 21.4321C21.0443 21.8199 20.5272 22 20 22H4C3.47275 22 2.95567 21.8199 2.56789 21.4321C2.18011 21.0443 2 20.5273 2 20V11C2 10.6826 2.15073 10.384 2.40615 10.1954L6.60615 7.09543C7.0505 6.76746 7.6766 6.8618 8.00457 7.30615C8.33255 7.75051 8.23821 8.3766 7.79385 8.70458L4 11.5048V20H20V11C20 10.7217 19.8862 10.2585 19.5743 9.63472C19.2715 9.02906 18.8176 8.34312 18.2318 7.64019C17.1702 6.36625 15.724 5.09426 14.0816 4.17463L10.9855 6.41068C10.5378 6.73404 9.91268 6.63322 9.58932 6.18549C9.26596 5.73777 9.36678 5.11268 9.81451 4.78933L13.4145 2.18933Z" fill="black"/>
<path fill-rule="evenodd" clip-rule="evenodd" d="M2 13C2 12.4477 2.44772 12 3 12H16C16.5523 12 17 12.4477 17 13C17 13.5523 16.5523 14 16 14H3C2.44772 14 2 13.5523 2 13Z" fill="black"/>
<path fill-rule="evenodd" clip-rule="evenodd" d="M2 17C2 16.4477 2.44772 16 3 16H16C16.5523 16 17 16.4477 17 17C17 17.5523 16.5523 18 16 18H3C2.44772 18 2 17.5523 2 17Z" fill="black"/>
</svg>
