<svg width="24" height="24" viewBox="0 0 24 24" fill="none" xmlns="http://www.w3.org/2000/svg">
<path fill-rule="evenodd" clip-rule="evenodd" d="M3 12C3 11.4477 3.44772 11 4 11H12C12.5523 11 13 11.4477 13 12C13 12.5523 12.5523 13 12 13H4C3.44772 13 3 12.5523 3 12Z" fill="black"/>
<path fill-rule="evenodd" clip-rule="evenodd" d="M4 5C4.55228 5 5 5.44772 5 6V18C5 18.5523 4.55228 19 4 19C3.44772 19 3 18.5523 3 18V6C3 5.44772 3.44772 5 4 5Z" fill="black"/>
<path fill-rule="evenodd" clip-rule="evenodd" d="M12 5C12.5523 5 13 5.44772 13 6V18C13 18.5523 12.5523 19 12 19C11.4477 19 11 18.5523 11 18V6C11 5.44772 11.4477 5 12 5Z" fill="black"/>
<path fill-rule="evenodd" clip-rule="evenodd" d="M20.0662 9.42626C21.1661 9.79291 21.9999 10.761 21.9999 11.9999C21.9999 13.016 21.6446 13.762 21.0963 14.3331C20.6782 14.7687 20.139 15.099 19.7206 15.3554C19.6536 15.3964 19.5897 15.4356 19.5299 15.4729C19.0428 15.7774 18.6872 16.0364 18.4337 16.385C18.3175 16.5448 18.2099 16.742 18.1309 16.9999H20.9999C21.5522 16.9999 21.9999 17.4477 21.9999 17.9999C21.9999 18.5522 21.5522 18.9999 20.9999 18.9999H16.9999C16.4477 18.9999 15.9999 18.5522 15.9999 17.9999C15.9999 16.8182 16.3006 15.9177 16.8162 15.2086C17.3126 14.526 17.9571 14.0975 18.4699 13.7769C18.5529 13.7251 18.6312 13.6766 18.7054 13.6307C19.1377 13.363 19.4274 13.1836 19.6535 12.948C19.8553 12.7379 19.9999 12.4839 19.9999 11.9999C19.9999 11.7389 19.8337 11.457 19.4337 11.3236C19.0453 11.1942 18.3829 11.2127 17.5999 11.7999C17.1581 12.1313 16.5313 12.0418 16.1999 11.5999C15.8686 11.1581 15.9581 10.5313 16.3999 10.1999C17.617 9.28718 18.9545 9.05571 20.0662 9.42626Z" fill="black"/>
</svg>
