<svg width="24" height="24" viewBox="0 0 24 24" fill="none" xmlns="http://www.w3.org/2000/svg">
<path fill-rule="evenodd" clip-rule="evenodd" d="M2.75736 7.75736C3.88258 6.63214 5.4087 6 7 6C8.5913 6 10.1174 6.63214 11.2426 7.75736C12.3679 8.88258 13 10.4087 13 12C13 13.0609 13.4214 14.0783 14.1716 14.8284C14.9217 15.5786 15.9391 16 17 16C18.0609 16 19.0783 15.5786 19.8284 14.8284C20.5786 14.0783 21 13.0609 21 12C21 11.4477 21.4477 11 22 11C22.5523 11 23 11.4477 23 12C23 13.5913 22.3679 15.1174 21.2426 16.2426C20.1174 17.3679 18.5913 18 17 18C15.4087 18 13.8826 17.3679 12.7574 16.2426C11.6321 15.1174 11 13.5913 11 12C11 10.9391 10.5786 9.92172 9.82843 9.17157C9.07828 8.42143 8.06087 8 7 8C5.93913 8 4.92172 8.42143 4.17157 9.17157C3.42143 9.92172 3 10.9391 3 12C3 12.5523 2.55228 13 2 13C1.44772 13 1 12.5523 1 12C1 10.4087 1.63214 8.88258 2.75736 7.75736Z" fill="black"/>
<path fill-rule="evenodd" clip-rule="evenodd" d="M16.1356 2.89732C16.4132 2.41987 17.0253 2.25785 17.5028 2.53544C18.181 2.92975 18.7749 3.45378 19.2506 4.07762C19.7263 4.70145 20.0744 5.41287 20.2752 6.17126C20.4759 6.92965 20.5253 7.72015 20.4206 8.49763C20.3158 9.27512 20.059 10.0244 19.6647 10.7026C19.2703 11.3808 18.7463 11.9747 18.1225 12.4504C17.4986 12.9261 16.7872 13.2742 16.0288 13.475C15.2704 13.6757 14.4799 13.7251 13.7025 13.6204C12.9259 13.5157 12.1775 13.2594 11.4999 12.8658C10.5766 12.3359 9.48058 12.1941 8.45273 12.4717C7.42415 12.7495 6.54805 13.4245 6.01716 14.3482C5.48627 15.272 5.34408 16.3688 5.62188 17.3974C5.89967 18.4259 6.57468 19.302 7.49843 19.8329C7.97727 20.1081 8.14235 20.7194 7.86716 21.1982C7.59197 21.6771 6.9807 21.8422 6.50186 21.567C5.11822 20.7718 4.10715 19.4595 3.69105 17.9188C3.27496 16.3782 3.48794 14.7353 4.28313 13.3517C5.07833 11.968 6.3906 10.9569 7.93127 10.5409C9.47193 10.1248 11.1148 10.3377 12.4984 11.1329C12.4999 11.1338 12.5013 11.1346 12.5028 11.1354C12.9539 11.3977 13.4523 11.5686 13.9695 11.6383C14.4867 11.708 15.0126 11.6751 15.517 11.5416C16.0215 11.408 16.4948 11.1764 16.9098 10.86C17.3247 10.5436 17.6733 10.1485 17.9356 9.69732C18.1979 9.24617 18.3688 8.74777 18.4385 8.23058C18.5082 7.71338 18.4753 7.18753 18.3418 6.68304C18.2082 6.17856 17.9766 5.70531 17.6602 5.29033C17.3438 4.87534 16.9487 4.52675 16.4975 4.26445C16.0201 3.98686 15.858 3.37478 16.1356 2.89732Z" fill="black"/>
<path fill-rule="evenodd" clip-rule="evenodd" d="M10.5168 3.75843C9.49796 3.48873 8.41369 3.63482 7.50254 4.16455C7.02509 4.44214 6.413 4.28012 6.13541 3.80267C5.85782 3.32521 6.01985 2.71313 6.4973 2.43554C7.86701 1.63919 9.49697 1.41958 11.0286 1.82502C12.5602 2.23045 13.8681 3.22771 14.6644 4.59743C15.4608 5.96714 15.6804 7.5971 15.275 9.12873C14.8695 10.6604 13.8723 11.9682 12.5025 12.7646C11.5914 13.2943 10.928 14.1643 10.6583 15.1831C10.3886 16.202 10.5347 17.2863 11.0644 18.1974C11.5942 19.1086 12.4642 19.772 13.483 20.0417C14.5019 20.3114 15.5862 20.1653 16.4973 19.6355C16.9748 19.3579 17.5868 19.52 17.8644 19.9974C18.142 20.4749 17.98 21.087 17.5025 21.3646C16.1328 22.1609 14.5029 22.3805 12.9712 21.9751C11.4396 21.5696 10.1318 20.5724 9.33541 19.2027C8.53907 17.833 8.31946 16.203 8.72489 14.6714C9.13032 13.1397 10.1276 11.8319 11.4973 11.0355C12.4084 10.5058 13.0718 9.63581 13.3415 8.61695C13.6112 7.59808 13.4652 6.51382 12.9354 5.60267C12.4057 4.69152 11.5357 4.02812 10.5168 3.75843Z" fill="black"/>
<path fill-rule="evenodd" clip-rule="evenodd" d="M12 3C7.02944 3 3 7.02944 3 12C3 16.9706 7.02944 21 12 21C16.9706 21 21 16.9706 21 12C21 7.02944 16.9706 3 12 3ZM1 12C1 5.92487 5.92487 1 12 1C18.0751 1 23 5.92487 23 12C23 18.0751 18.0751 23 12 23C5.92487 23 1 18.0751 1 12Z" fill="black"/>
</svg>
