<svg width="24" height="24" viewBox="0 0 24 24" fill="none" xmlns="http://www.w3.org/2000/svg">
<path fill-rule="evenodd" clip-rule="evenodd" d="M10 1C10.5523 1 11 1.44772 11 2V9.52607C11.0005 9.99258 10.8921 10.4528 10.6835 10.8701L5.61425 20.9976L5.61304 21C5.61537 21 5.61769 21 5.62002 21H18.38C18.3823 21 18.3847 21 18.387 21L18.3858 20.9976L13.3165 10.8701C13.1081 10.4531 12.9997 9.9932 13 9.527C13 9.52694 13 9.52689 13 9.52683C13 9.52657 13 9.52632 13 9.52607V2C13 1.44772 13.4477 1 14 1C14.5523 1 15 1.44772 15 2V9.52793C14.9999 9.68344 15.036 9.83683 15.1055 9.97593L20.173 20.1C20.1732 20.1003 20.1734 20.1006 20.1735 20.1009C20.3274 20.4067 20.4002 20.7468 20.385 21.0887C20.3698 21.431 20.267 21.7636 20.0863 22.0548C19.9056 22.3459 19.6531 22.5857 19.3531 22.7512C19.0543 22.916 18.7183 23.0017 18.3771 23H5.62291C5.28169 23.0017 4.9457 22.916 4.64689 22.7512C4.3469 22.5857 4.09445 22.3459 3.91376 22.0548C3.73307 21.7636 3.63019 21.431 3.615 21.0887C3.59983 20.7469 3.67261 20.4069 3.82637 20.1012C3.82658 20.1008 3.82679 20.1004 3.827 20.1L8.89452 9.97593C8.89457 9.97583 8.89462 9.97573 8.89467 9.97563C8.9641 9.83661 9.00017 9.68332 9.00002 9.52793V2C9.00002 1.44772 9.44774 1 10 1Z" fill="black"/>
<path fill-rule="evenodd" clip-rule="evenodd" d="M7.5 2C7.5 1.44772 7.94772 1 8.5 1H15.5C16.0523 1 16.5 1.44772 16.5 2C16.5 2.55228 16.0523 3 15.5 3H8.5C7.94772 3 7.5 2.55228 7.5 2Z" fill="black"/>
<path fill-rule="evenodd" clip-rule="evenodd" d="M6 16C6 15.4477 6.44772 15 7 15H17C17.5523 15 18 15.4477 18 16C18 16.5523 17.5523 17 17 17H7C6.44772 17 6 16.5523 6 16Z" fill="black"/>
</svg>
