<svg width="24" height="24" viewBox="0 0 24 24" fill="none" xmlns="http://www.w3.org/2000/svg">
<path fill-rule="evenodd" clip-rule="evenodd" d="M18.7399 11.3273C19.1114 11.736 19.0813 12.3684 18.6727 12.7399L13.7446 17.22C13.1925 17.7218 12.4732 17.9999 11.7271 18H10.5C9.94772 18 9.5 17.5523 9.5 17C9.5 16.4477 9.94772 16 10.5 16H11.7269C11.7269 16 11.727 16 11.727 16C11.9756 16 12.2153 15.9073 12.3993 15.7401C12.3993 15.74 12.3994 15.74 12.3994 15.74L17.3273 11.2601C17.736 10.8886 18.3684 10.9187 18.7399 11.3273Z" fill="black"/>
<path fill-rule="evenodd" clip-rule="evenodd" d="M11.0089 13.368C11.0819 12.8205 11.5848 12.4359 12.1323 12.5089L15.8823 13.0089C16.4297 13.0819 16.8143 13.5848 16.7413 14.1323C16.6684 14.6797 16.1654 15.0643 15.618 14.9913L11.868 14.4913C11.3205 14.4184 10.9359 13.9154 11.0089 13.368Z" fill="black"/>
<path fill-rule="evenodd" clip-rule="evenodd" d="M15.4141 1.84442C15.6797 1.83145 15.9453 1.87157 16.1952 1.96245C16.4451 2.05334 16.6744 2.19315 16.8697 2.37371C17.0649 2.55427 17.2222 2.77195 17.3323 3.01403L17.3324 3.01426L19.4104 7.58626C19.6389 8.08905 19.4166 8.6819 18.9138 8.91042C18.411 9.13894 17.8181 8.9166 17.5896 8.41381L15.5117 3.84204L4.93144 8.90217C4.43321 9.14046 3.83614 8.92973 3.59785 8.43149C3.35957 7.93326 3.5703 7.33619 4.06853 7.0979L14.6483 2.03803C14.6484 2.03799 14.6484 2.03794 14.6485 2.0379C14.8883 1.92317 15.1486 1.8574 15.4141 1.84442Z" fill="black"/>
<path fill-rule="evenodd" clip-rule="evenodd" d="M6 7C6.55228 7 7 7.44772 7 8V10C7 10.5523 6.55228 11 6 11C5.44772 11 5 10.5523 5 10V8C5 7.44772 5.44772 7 6 7Z" fill="black"/>
<path fill-rule="evenodd" clip-rule="evenodd" d="M6 13C6.55228 13 7 13.4477 7 14V15C7 15.5523 6.55228 16 6 16C5.44772 16 5 15.5523 5 15V14C5 13.4477 5.44772 13 6 13Z" fill="black"/>
<path fill-rule="evenodd" clip-rule="evenodd" d="M6 18C6.55228 18 7 18.4477 7 19V21C7 21.5523 6.55228 22 6 22C5.44772 22 5 21.5523 5 21V19C5 18.4477 5.44772 18 6 18Z" fill="black"/>
<path fill-rule="evenodd" clip-rule="evenodd" d="M4 9C3.44772 9 3 9.44772 3 10V19C3 19.5523 3.44772 20 4 20H20C20.5523 20 21 19.5523 21 19V10C21 9.44772 20.5523 9 20 9H4ZM1 10C1 8.34315 2.34315 7 4 7H20C21.6569 7 23 8.34315 23 10V19C23 20.6569 21.6569 22 20 22H4C2.34315 22 1 20.6569 1 19V10Z" fill="black"/>
</svg>
