<svg width="24" height="24" viewBox="0 0 24 24" fill="none" xmlns="http://www.w3.org/2000/svg">
<path fill-rule="evenodd" clip-rule="evenodd" d="M11.1953 4.41771C10.3478 4.08499 9.43578 3.94949 8.5282 4.02147C7.62062 4.09345 6.74133 4.37102 5.95691 4.83316C5.1725 5.2953 4.50354 5.92989 4.00071 6.68886C3.49788 7.44783 3.17436 8.31128 3.05465 9.2138C2.93495 10.1163 3.0222 11.0343 3.3098 11.8981C3.5974 12.7619 4.07781 13.5489 4.71463 14.1995C5.10094 14.5942 5.09414 15.2274 4.69945 15.6137C4.30476 16 3.67163 15.9932 3.28532 15.5985C2.43622 14.731 1.79568 13.6816 1.41221 12.5299C1.02875 11.3781 0.91241 10.1542 1.07201 8.95084C1.23162 7.74747 1.66298 6.59621 2.33343 5.58425C3.00387 4.57229 3.89581 3.72617 4.9417 3.10998C5.98758 2.4938 7.15998 2.1237 8.37008 2.02773C9.58018 1.93176 10.7963 2.11243 11.9262 2.55605C13.0561 2.99968 14.0703 3.69462 14.8919 4.58825C15.5423 5.29573 16.0585 6.11304 16.4177 7.00002H17.4999C17.4999 7.00002 17.4999 7.00002 17.5 7.00002C18.68 6.99991 19.8288 7.37932 20.7766 8.08222C21.7245 8.78515 22.4212 9.7743 22.7637 10.9036C23.1062 12.0328 23.0765 13.2423 22.6788 14.3534C22.2812 15.4644 21.5367 16.4181 20.5554 17.0736C20.0962 17.3803 19.4752 17.2567 19.1684 16.7975C18.8617 16.3382 18.9853 15.7172 19.4445 15.4105C20.069 14.9934 20.5427 14.3865 20.7958 13.6794C21.0488 12.9724 21.0678 12.2027 20.8498 11.4841C20.6318 10.7655 20.1885 10.136 19.5853 9.6887C18.9821 9.24138 18.251 8.99993 17.5001 9.00002H15.71C15.2679 9.00002 14.8783 8.70973 14.7518 8.28611C14.4913 7.41374 14.0357 6.61208 13.4195 5.94186C12.8034 5.27164 12.0427 4.75043 11.1953 4.41771Z" fill="black"/>
<path fill-rule="evenodd" clip-rule="evenodd" d="M12.5939 14.0809C13.1015 14.2984 13.3367 14.8863 13.1191 15.3939L10.1191 22.3939C9.90155 22.9016 9.31367 23.1367 8.80604 22.9192C8.29841 22.7016 8.06326 22.1137 8.28082 21.6061L11.2808 14.6061C11.4984 14.0985 12.0863 13.8633 12.5939 14.0809Z" fill="black"/>
<path fill-rule="evenodd" clip-rule="evenodd" d="M9.39393 12.0809C9.90156 12.2984 10.1367 12.8863 9.91916 13.3939L6.91916 20.3939C6.7016 20.9016 6.11372 21.1367 5.60609 20.9192C5.09846 20.7016 4.86331 20.1137 5.08087 19.6061L8.08087 12.6061C8.29842 12.0985 8.8863 11.8633 9.39393 12.0809Z" fill="black"/>
<path fill-rule="evenodd" clip-rule="evenodd" d="M17.3939 12.0809C17.9016 12.2984 18.1367 12.8863 17.9192 13.3939L14.9192 20.3939C14.7016 20.9016 14.1137 21.1367 13.6061 20.9192C13.0985 20.7016 12.8633 20.1137 13.0809 19.6061L16.0809 12.6061C16.2984 12.0985 16.8863 11.8633 17.3939 12.0809Z" fill="black"/>
</svg>
