<svg width="24" height="24" viewBox="0 0 24 24" fill="none" xmlns="http://www.w3.org/2000/svg">
<path fill-rule="evenodd" clip-rule="evenodd" d="M12.1297 14.3326C11.0803 13.9974 9.9666 13.9147 8.87916 14.0911C7.79171 14.2674 6.76126 14.698 5.8716 15.3477C4.98193 15.9975 4.25818 16.848 3.7592 17.8302C3.26022 18.8124 3.0001 19.8984 3 21.0001C2.99995 21.5524 2.55219 22 1.99991 22C1.44762 21.9999 0.999949 21.5522 1 20.9999C1.00013 19.5835 1.33457 18.1871 1.97611 16.9243C2.61766 15.6615 3.5482 14.568 4.69205 13.7326C5.83591 12.8972 7.16078 12.3437 8.55891 12.1169C9.95705 11.8901 11.389 11.9965 12.7382 12.4274C13.2644 12.5954 13.5546 13.1581 13.3866 13.6842C13.2186 14.2103 12.6559 14.5006 12.1297 14.3326Z" fill="black"/>
<path fill-rule="evenodd" clip-rule="evenodd" d="M10 4C7.79086 4 6 5.79086 6 8C6 10.2091 7.79086 12 10 12C12.2091 12 14 10.2091 14 8C14 5.79086 12.2091 4 10 4ZM4 8C4 4.68629 6.68629 2 10 2C13.3137 2 16 4.68629 16 8C16 11.3137 13.3137 14 10 14C6.68629 14 4 11.3137 4 8Z" fill="black"/>
<path fill-rule="evenodd" clip-rule="evenodd" d="M18 16C16.8954 16 16 16.8954 16 18C16 19.1046 16.8954 20 18 20C19.1046 20 20 19.1046 20 18C20 16.8954 19.1046 16 18 16ZM14 18C14 15.7909 15.7909 14 18 14C20.2091 14 22 15.7909 22 18C22 20.2091 20.2091 22 18 22C15.7909 22 14 20.2091 14 18Z" fill="black"/>
<path fill-rule="evenodd" clip-rule="evenodd" d="M19.9062 13.3862C20.4109 13.6105 20.6382 14.2015 20.4139 14.7062L20.0139 15.6062C19.7896 16.1109 19.1986 16.3382 18.694 16.1139C18.1893 15.8896 17.962 15.2986 18.1863 14.7939L18.5863 13.8939C18.8106 13.3892 19.4016 13.1619 19.9062 13.3862Z" fill="black"/>
<path fill-rule="evenodd" clip-rule="evenodd" d="M17.3061 19.8862C17.8108 20.1105 18.0381 20.7015 17.8138 21.2062L17.4138 22.1062C17.1895 22.6109 16.5986 22.8382 16.0939 22.6139C15.5892 22.3896 15.3619 21.7986 15.5862 21.2939L15.9862 20.3939C16.2105 19.8892 16.8015 19.6619 17.3061 19.8862Z" fill="black"/>
<path fill-rule="evenodd" clip-rule="evenodd" d="M19.8862 18.694C20.1105 18.1893 20.7015 17.962 21.2062 18.1863L22.1062 18.5863C22.6109 18.8106 22.8382 19.4016 22.6139 19.9062C22.3896 20.4109 21.7986 20.6382 21.2939 20.4139L20.3939 20.0139C19.8892 19.7896 19.6619 19.1986 19.8862 18.694Z" fill="black"/>
<path fill-rule="evenodd" clip-rule="evenodd" d="M13.3862 16.0939C13.6105 15.5892 14.2015 15.3619 14.7062 15.5862L15.6062 15.9862C16.1109 16.2105 16.3382 16.8015 16.1139 17.3061C15.8896 17.8108 15.2986 18.0381 14.7939 17.8138L13.8939 17.4138C13.3892 17.1895 13.1619 16.5986 13.3862 16.0939Z" fill="black"/>
<path fill-rule="evenodd" clip-rule="evenodd" d="M22.6139 16.0939C22.8382 16.5986 22.6109 17.1895 22.1062 17.4138L21.2062 17.8138C20.7015 18.0381 20.1105 17.8108 19.8862 17.3061C19.6619 16.8015 19.8892 16.2105 20.3939 15.9862L21.2939 15.5862C21.7986 15.3619 22.3896 15.5892 22.6139 16.0939Z" fill="black"/>
<path fill-rule="evenodd" clip-rule="evenodd" d="M16.1139 18.694C16.3382 19.1986 16.1109 19.7896 15.6062 20.0139L14.7062 20.4139C14.2015 20.6382 13.6105 20.4109 13.3862 19.9062C13.1619 19.4016 13.3892 18.8106 13.8939 18.5863L14.7939 18.1863C15.2986 17.962 15.8896 18.1893 16.1139 18.694Z" fill="black"/>
<path fill-rule="evenodd" clip-rule="evenodd" d="M18.694 19.8862C19.1986 19.6619 19.7896 19.8892 20.0139 20.3939L20.4139 21.2939C20.6382 21.7986 20.4109 22.3896 19.9062 22.6139C19.4016 22.8382 18.8106 22.6109 18.5863 22.1062L18.1863 21.2062C17.962 20.7015 18.1893 20.1105 18.694 19.8862Z" fill="black"/>
<path fill-rule="evenodd" clip-rule="evenodd" d="M16.0939 13.3862C16.5986 13.1619 17.1895 13.3892 17.4138 13.8939L17.8138 14.7939C18.0381 15.2986 17.8108 15.8896 17.3061 16.1139C16.8015 16.3382 16.2105 16.1109 15.9862 15.6062L15.5862 14.7062C15.3619 14.2015 15.5892 13.6105 16.0939 13.3862Z" fill="black"/>
</svg>
