<svg width="24" height="24" viewBox="0 0 24 24" fill="none" xmlns="http://www.w3.org/2000/svg">
<path fill-rule="evenodd" clip-rule="evenodd" d="M11.0939 1.30469C11.3547 1.10685 11.6731 0.999756 12.0004 0.999756C12.3278 0.999756 12.6462 1.10685 12.907 1.30469C13.1678 1.50253 13.3567 1.78026 13.4449 2.0955C13.4468 2.10214 13.4486 2.10879 13.4503 2.11546L15.0312 8.25021C15.0313 8.25029 15.0313 8.25037 15.0313 8.25046C15.076 8.42339 15.1661 8.58121 15.2924 8.70752C15.4187 8.83382 15.5766 8.92398 15.7495 8.96864C15.7496 8.96866 15.7497 8.96869 15.7497 8.96871L21.8845 10.5496C21.89 10.551 21.8954 10.5525 21.9008 10.554C22.2173 10.6413 22.4965 10.83 22.6954 11.0912C22.8943 11.3524 23.002 11.6717 23.002 12C23.002 12.3283 22.8943 12.6476 22.6954 12.9088C22.4965 13.17 22.2173 13.3587 21.9008 13.446C21.8954 13.4475 21.89 13.449 21.8845 13.4504L15.7497 15.0313C15.7497 15.0313 15.7496 15.0313 15.7495 15.0314C15.5766 15.076 15.4187 15.1662 15.2924 15.2925C15.1661 15.4189 15.0759 15.5768 15.0312 15.7498L13.4493 21.8847C13.448 21.8894 13.4468 21.8941 13.4455 21.8988C13.445 21.9007 13.4445 21.9026 13.4439 21.9045C13.3557 22.2198 13.1668 22.4975 12.906 22.6953C12.6452 22.8932 12.3268 23.0003 11.9994 23.0003C11.6721 23.0003 11.3537 22.8932 11.0929 22.6953C10.8321 22.4975 10.6432 22.2198 10.5549 21.9045C10.5531 21.8979 10.5513 21.8912 10.5496 21.8846L8.96864 15.7498C8.96862 15.7497 8.9686 15.7496 8.96858 15.7496C8.92392 15.5766 8.83375 15.4188 8.70745 15.2925C8.58109 15.1661 8.42318 15.0759 8.25014 15.0313L2.11524 13.4493C2.10743 13.4473 2.09965 13.4452 2.09189 13.443C1.77789 13.3539 1.50152 13.1648 1.30473 12.9043C1.10794 12.6439 1.00146 12.3264 1.00146 12C1.00146 11.6736 1.10794 11.3561 1.30473 11.0957C1.50152 10.8352 1.77789 10.6461 2.09189 10.557C2.0996 10.5548 2.10734 10.5527 2.1151 10.5507L8.25009 8.96772L8.49984 9.93562L8.25028 8.96767C8.42326 8.92307 8.58113 8.83296 8.70748 8.70669C8.83384 8.58042 8.92406 8.42261 8.96878 8.24967L10.5506 2.11531C10.5523 2.10869 10.5541 2.10209 10.5559 2.0955C10.6442 1.78026 10.8331 1.50253 11.0939 1.30469ZM8.7496 10.9043L4.50388 11.9999L8.74964 13.0947L8.74974 13.0947C9.26884 13.2286 9.74258 13.4992 10.1217 13.8783C10.5007 14.2574 10.7713 14.7311 10.9052 15.2502L11.9996 19.4968L13.0946 15.2503L13.0946 15.2502C13.2286 14.7311 13.4991 14.2574 13.8782 13.8783C14.2573 13.4992 14.731 13.2286 15.2501 13.0947L19.4981 12L15.2501 10.9053C14.731 10.7714 14.2573 10.5008 13.8782 10.1217C13.4991 9.74265 13.2286 9.26891 13.0946 8.7498L13.0946 8.74955L12.0003 4.5032L10.9051 8.75034C10.7709 9.26917 10.5003 9.74259 10.1212 10.1214C9.74214 10.5002 9.26852 10.7705 8.7496 10.9043Z" fill="black"/>
<path fill-rule="evenodd" clip-rule="evenodd" d="M20 2C20.5523 2 21 2.44772 21 3V7C21 7.55228 20.5523 8 20 8C19.4477 8 19 7.55228 19 7V3C19 2.44772 19.4477 2 20 2Z" fill="black"/>
<path fill-rule="evenodd" clip-rule="evenodd" d="M17 5C17 4.44772 17.4477 4 18 4H22C22.5523 4 23 4.44772 23 5C23 5.55228 22.5523 6 22 6H18C17.4477 6 17 5.55228 17 5Z" fill="black"/>
<path fill-rule="evenodd" clip-rule="evenodd" d="M4 16C4.55228 16 5 16.4477 5 17V19C5 19.5523 4.55228 20 4 20C3.44772 20 3 19.5523 3 19V17C3 16.4477 3.44772 16 4 16Z" fill="black"/>
<path fill-rule="evenodd" clip-rule="evenodd" d="M2 18C2 17.4477 2.44772 17 3 17H5C5.55228 17 6 17.4477 6 18C6 18.5523 5.55228 19 5 19H3C2.44772 19 2 18.5523 2 18Z" fill="black"/>
</svg>
