<svg width="24" height="24" viewBox="0 0 24 24" fill="none" xmlns="http://www.w3.org/2000/svg">
<path fill-rule="evenodd" clip-rule="evenodd" d="M5.16795 2.4453C5.35342 2.1671 5.66565 2 6 2H18C18.3344 2 18.6466 2.1671 18.8321 2.4453L22.8321 8.4453C23.0697 8.8018 23.0539 9.2701 22.7926 9.60971L12.7926 22.6097C12.6033 22.8558 12.3105 23 12 23C11.6895 23 11.3967 22.8558 11.2074 22.6097L1.20738 9.60971C0.946139 9.2701 0.930283 8.8018 1.16795 8.4453L5.16795 2.4453ZM6.53518 4L3.22961 8.95837L12 20.3599L20.7704 8.95837L17.4648 4H6.53518Z" fill="black"/>
<path fill-rule="evenodd" clip-rule="evenodd" d="M12 3.02164C11.997 3.16515 11.9629 3.31027 11.8944 3.44719L9.07361 9.08883L12 18.5996L14.9264 9.08883L12.1056 3.44719C12.0371 3.31027 12.003 3.16515 12 3.02164ZM12 2.97986C11.9925 2.62058 11.791 2.27742 11.4472 2.10555C10.9532 1.85856 10.3526 2.05878 10.1056 2.55276L7.10557 8.55276C6.99056 8.78278 6.96859 9.04826 7.04422 9.29406L11.0442 22.2941C11.1733 22.7137 11.561 23 12 23C12.439 23 12.8267 22.7137 12.9558 22.2941L16.9558 9.29406C17.0314 9.04826 17.0094 8.78278 16.8944 8.55276L13.8944 2.55276C13.6474 2.05878 13.0468 1.85856 12.5528 2.10555C12.209 2.27742 12.0075 2.62058 12 2.97986Z" fill="black"/>
<path fill-rule="evenodd" clip-rule="evenodd" d="M1 9C1 8.44772 1.44772 8 2 8H22C22.5523 8 23 8.44772 23 9C23 9.55228 22.5523 10 22 10H2C1.44772 10 1 9.55228 1 9Z" fill="black"/>
</svg>
