<svg width="24" height="24" viewBox="0 0 24 24" fill="none" xmlns="http://www.w3.org/2000/svg">
<path fill-rule="evenodd" clip-rule="evenodd" d="M6.99998 6C7.37875 6 7.72501 6.214 7.8944 6.55279L11.8944 14.5528C12.1414 15.0468 11.9412 15.6474 11.4472 15.8944C10.9532 16.1414 10.3525 15.9412 10.1055 15.4472L6.99998 9.23607L3.8944 15.4472C3.64741 15.9412 3.04674 16.1414 2.55276 15.8944C2.05878 15.6474 1.85856 15.0468 2.10555 14.5528L6.10555 6.55279C6.27494 6.214 6.6212 6 6.99998 6Z" fill="black"/>
<path fill-rule="evenodd" clip-rule="evenodd" d="M3 13C3 12.4477 3.44772 12 4 12H10C10.5523 12 11 12.4477 11 13C11 13.5523 10.5523 14 10 14H4C3.44772 14 3 13.5523 3 13Z" fill="black"/>
<path fill-rule="evenodd" clip-rule="evenodd" d="M14 7C14 6.44772 14.4477 6 15 6H19C19.7956 6 20.5587 6.31607 21.1213 6.87868C21.6839 7.44129 22 8.20435 22 9C22 9.62131 21.8073 10.2228 21.4549 10.7244C21.5121 10.7735 21.5676 10.825 21.6213 10.8787C22.1839 11.4413 22.5 12.2043 22.5 13C22.5 13.7957 22.1839 14.5587 21.6213 15.1213C21.0587 15.6839 20.2957 16 19.5 16H15C14.4477 16 14 15.5523 14 15V7ZM16 12V14H19.5C19.7652 14 20.0196 13.8946 20.2071 13.7071C20.3946 13.5196 20.5 13.2652 20.5 13C20.5 12.7348 20.3946 12.4804 20.2071 12.2929C20.0196 12.1054 19.7652 12 19.5 12H16ZM19 10H16V8H19C19.2652 8 19.5196 8.10536 19.7071 8.29289C19.8946 8.48043 20 8.73478 20 9C20 9.26522 19.8946 9.51957 19.7071 9.70711C19.5196 9.89464 19.2652 10 19 10Z" fill="black"/>
</svg>
