<svg width="24" height="24" viewBox="0 0 24 24" fill="none" xmlns="http://www.w3.org/2000/svg">
<path fill-rule="evenodd" clip-rule="evenodd" d="M10 15C10 14.4477 10.4477 14 11 14H13C13.5523 14 14 14.4477 14 15C14 15.5523 13.5523 16 13 16H11C10.4477 16 10 15.5523 10 15Z" fill="black"/>
<path fill-rule="evenodd" clip-rule="evenodd" d="M12 11C12.5523 11 13 11.4477 13 12V15C13 15.5523 12.5523 16 12 16C11.4477 16 11 15.5523 11 15V12C11 11.4477 11.4477 11 12 11Z" fill="black"/>
<path fill-rule="evenodd" clip-rule="evenodd" d="M12 18C12.5523 18 13 18.4477 13 19V22C13 22.5523 12.5523 23 12 23C11.4477 23 11 22.5523 11 22V19C11 18.4477 11.4477 18 12 18Z" fill="black"/>
<path fill-rule="evenodd" clip-rule="evenodd" d="M8.32265 1.89491C9.45918 1.30665 10.7203 0.999634 12 0.999634C13.2797 0.999634 14.5408 1.30665 15.6774 1.89491C16.8139 2.48317 17.7927 3.3355 18.5316 4.38036C19.2706 5.42522 19.7481 6.6321 19.924 7.89969C20.0997 9.16514 19.9697 10.4542 19.545 11.6591L17.1774 18.64C17.1773 18.6404 17.1772 18.6408 17.177 18.6411C17.177 18.6412 17.177 18.6412 17.177 18.6412C17.043 19.0373 16.7881 19.3814 16.4483 19.6252C16.1082 19.8692 15.7 20.0003 15.2814 20H8.71858C8.29998 20.0003 7.89185 19.8692 7.5517 19.6252C7.21189 19.3814 6.95704 19.0373 6.82298 18.6412C6.82296 18.6411 6.82293 18.641 6.8229 18.6409C6.82279 18.6406 6.82269 18.6403 6.82258 18.64L4.45496 11.659C4.03029 10.4542 3.90032 9.16511 4.07598 7.89969C4.25194 6.6321 4.72942 5.42522 5.46836 4.38036C6.2073 3.33551 7.18612 2.48317 8.32265 1.89491ZM12 2.99963C11.0402 2.99963 10.0944 3.2299 9.24199 3.67109C8.38959 4.11229 7.65548 4.75154 7.10127 5.53518C6.54707 6.31882 6.18895 7.22398 6.05698 8.17468C5.92502 9.12537 6.02305 10.0939 6.34286 10.9988C6.34427 11.0028 6.34566 11.0068 6.34702 11.0108L8.71742 18H15.2826L17.653 11.0108C17.6543 11.0068 17.6557 11.0028 17.6571 10.9988C17.977 10.0939 18.075 9.12537 17.943 8.17468C17.8111 7.22398 17.4529 6.31882 16.8987 5.53518C16.3445 4.75154 15.6104 4.11229 14.758 3.67109C13.9056 3.2299 12.9598 2.99963 12 2.99963Z" fill="black"/>
<path fill-rule="evenodd" clip-rule="evenodd" d="M12 7C11.4696 7 10.9609 7.21071 10.5858 7.58579C10.2107 7.96086 10 8.46957 10 9C10 9.55228 9.55228 10 9 10C8.44772 10 8 9.55228 8 9C8 7.93913 8.42143 6.92172 9.17157 6.17157C9.92172 5.42143 10.9391 5 12 5C13.0609 5 14.0783 5.42143 14.8284 6.17157C15.5786 6.92172 16 7.93913 16 9C16 9.55228 15.5523 10 15 10C14.4477 10 14 9.55228 14 9C14 8.46957 13.7893 7.96086 13.4142 7.58579C13.0391 7.21071 12.5304 7 12 7Z" fill="black"/>
</svg>
