<svg width="24" height="24" viewBox="0 0 24 24" fill="none" xmlns="http://www.w3.org/2000/svg">
<path fill-rule="evenodd" clip-rule="evenodd" d="M11.8918 3.03849C10.0424 4.65181 7.32107 6.00008 5 6.00008V13.0001C5 15.236 5.77079 16.8611 6.98675 18.1065C8.22994 19.3797 9.98374 20.2998 11.9964 20.9949C12.004 20.9975 12.0115 21.0002 12.019 21.003C14.0241 20.3032 15.773 19.3815 17.0139 18.1084C18.2292 16.8614 19 15.236 19 13.0001V6.00008C16.6797 6.00008 13.9684 4.66254 12.1081 3.03842C12.0777 3.01337 12.0395 2.99963 12 2.99963C11.9605 2.99963 11.9223 3.01339 11.8918 3.03849ZM10.5904 1.51978C10.9834 1.18408 11.4832 0.999634 12 0.999634C12.5168 0.999634 13.0166 1.18408 13.4096 1.51978C13.4125 1.52225 13.4153 1.52474 13.4182 1.52724C15.0577 2.96065 17.3229 4.00008 19 4.00008C19.5304 4.00008 20.0391 4.2108 20.4142 4.58587C20.7893 4.96094 21 5.46965 21 6.00008V13.0001C21 15.7642 20.0208 17.8887 18.4461 19.5043C16.8987 21.092 14.8206 22.1444 12.6691 22.8944C12.6664 22.8953 12.6637 22.8963 12.6609 22.8972C12.2297 23.0433 11.7616 23.0379 11.334 22.882C9.1801 22.1372 7.10277 21.0881 5.55575 19.5037C3.97921 17.889 3 15.7642 3 13.0001V6.00008C3 5.46965 3.21071 4.96094 3.58579 4.58587C3.96086 4.2108 4.46957 4.00008 5 4.00008C6.67639 4.00008 8.95161 2.95131 10.5821 1.52697C10.5849 1.52456 10.5876 1.52216 10.5904 1.51978Z" fill="black"/>
<path fill-rule="evenodd" clip-rule="evenodd" d="M12.2587 8.05221C11.7964 7.97278 11.3209 8.05835 10.9153 8.29396C10.5098 8.52957 10.1999 8.90023 10.0399 9.34114C9.85153 9.8603 9.27795 10.1285 8.75879 9.94008C8.23963 9.7517 7.97147 9.17812 8.15985 8.65896C8.47982 7.77713 9.09955 7.03581 9.91069 6.5646C10.7218 6.09338 11.6728 5.92224 12.5973 6.08109C13.5219 6.23995 14.3612 6.71869 14.9685 7.43363C15.5758 8.14858 15.9126 9.05424 15.9199 9.99229C15.9199 9.99488 15.9199 9.99746 15.9199 10C15.9199 11.5309 14.785 12.5418 13.9746 13.0821C13.539 13.3725 13.1104 13.5861 12.7948 13.7264C12.6355 13.7971 12.5014 13.8508 12.4048 13.8877C12.3564 13.9061 12.3171 13.9204 12.2886 13.9305C12.2743 13.9356 12.2627 13.9397 12.2539 13.9427C12.2494 13.9442 12.2458 13.9455 12.2428 13.9465C12.2413 13.947 12.24 13.9474 12.2389 13.9478L12.2374 13.9483L12.2367 13.9485C12.2364 13.9486 12.2361 13.9487 11.9199 13L12.2361 13.9487C11.7122 14.1234 11.1458 13.8402 10.9712 13.3163C10.7968 12.793 11.079 12.2275 11.6016 12.0521C11.6019 12.052 11.6024 12.0518 11.6031 12.0515C11.6057 12.0507 11.6109 12.0488 11.6186 12.0461C11.6339 12.0406 11.6592 12.0315 11.6928 12.0187C11.7602 11.993 11.8605 11.953 11.9825 11.8987C12.2293 11.789 12.5508 11.6276 12.8652 11.418C13.553 10.9594 13.918 10.4716 13.9199 10.0036C13.9153 9.53607 13.747 9.08488 13.4442 8.72848C13.1406 8.37101 12.7209 8.13164 12.2587 8.05221ZM11.603 12.0516C11.603 12.0516 11.6031 12.0516 11.6031 12.0515C11.6031 12.0515 11.6031 12.0515 11.6031 12.0515" fill="black"/>
<path fill-rule="evenodd" clip-rule="evenodd" d="M11 17C11 16.4477 11.4477 16 12 16H12.01C12.5623 16 13.01 16.4477 13.01 17C13.01 17.5523 12.5623 18 12.01 18H12C11.4477 18 11 17.5523 11 17Z" fill="black"/>
</svg>
