<svg width="24" height="24" viewBox="0 0 24 24" fill="none" xmlns="http://www.w3.org/2000/svg">
<path fill-rule="evenodd" clip-rule="evenodd" d="M8.38965 4.11724C8.24203 4.03862 8.07704 3.99829 7.9098 3.99993C7.90653 3.99996 7.90327 3.99997 7.9 3.99997H4C3.73478 3.99997 3.48043 4.10533 3.29289 4.29287C3.10535 4.4804 3 4.73476 3 4.99997V7.49997C3 8.05226 2.55228 8.49997 2 8.49997C1.44771 8.49997 0.999998 8.05226 0.999998 7.49997V4.99997C0.999998 4.20432 1.31607 3.44126 1.87868 2.87865C2.44129 2.31604 3.20435 1.99997 4 1.99997H7.89559C8.39547 1.99597 8.88846 2.11695 9.32974 2.35195C9.77076 2.58681 10.1461 2.92809 10.4217 3.34477L11.2288 4.5405C11.231 4.54365 11.2331 4.5468 11.2352 4.54997C11.3262 4.68824 11.4502 4.80173 11.5959 4.88028C11.7416 4.95879 11.9045 4.99992 12.07 4.99997C12.0701 4.99997 12.0701 4.99997 12.0702 4.99997H20C20.7956 4.99997 21.5587 5.31604 22.1213 5.87865C22.6839 6.44126 23 7.20432 23 7.99997V18C23 18.7956 22.6839 19.5587 22.1213 20.1213C21.5587 20.6839 20.7957 21 20 21H4.01421C3.33896 21.0174 2.67739 20.8065 2.13675 20.401C1.59146 19.992 1.20169 19.4095 1.03162 18.7495C0.893828 18.2147 1.21568 17.6694 1.7505 17.5316C2.28532 17.3938 2.83058 17.7157 2.96837 18.2505C3.02506 18.4705 3.15498 18.6646 3.33675 18.801C3.51851 18.9373 3.74128 19.0077 3.96837 19.0005C3.97891 19.0001 3.98945 19 4 19H20C20.2652 19 20.5196 18.8946 20.7071 18.7071C20.8946 18.5195 21 18.2652 21 18V7.99997C21 7.73476 20.8946 7.4804 20.7071 7.29287C20.5196 7.10533 20.2652 6.99997 20 6.99997H12.07V5.99812L12.0698 6.99997C11.5732 6.99989 11.0843 6.8765 10.6471 6.64088C10.2117 6.40625 9.84113 6.06764 9.56829 5.65521L8.76115 4.45945C8.75902 4.45629 8.7569 4.45311 8.7548 4.44993C8.66282 4.31024 8.53727 4.19585 8.38965 4.11724Z" fill="black"/>
<path fill-rule="evenodd" clip-rule="evenodd" d="M1 13C1 12.4477 1.44772 12 2 12H12C12.5523 12 13 12.4477 13 13C13 13.5523 12.5523 14 12 14H2C1.44772 14 1 13.5523 1 13Z" fill="black"/>
<path fill-rule="evenodd" clip-rule="evenodd" d="M5.70711 9.29289C6.09763 9.68342 6.09763 10.3166 5.70711 10.7071L3.41421 13L5.70711 15.2929C6.09763 15.6834 6.09763 16.3166 5.70711 16.7071C5.31658 17.0976 4.68342 17.0976 4.29289 16.7071L1.29289 13.7071C0.902369 13.3166 0.902369 12.6834 1.29289 12.2929L4.29289 9.29289C4.68342 8.90237 5.31658 8.90237 5.70711 9.29289Z" fill="black"/>
</svg>
