<svg width="24" height="24" viewBox="0 0 24 24" fill="none" xmlns="http://www.w3.org/2000/svg">
<path fill-rule="evenodd" clip-rule="evenodd" d="M3 10C3 9.44772 3.44772 9 4 9H16C16.5523 9 17 9.44772 17 10C17 10.5523 16.5523 11 16 11H4C3.44772 11 3 10.5523 3 10Z" fill="black"/>
<path fill-rule="evenodd" clip-rule="evenodd" d="M3 14C3 13.4477 3.44772 13 4 13H13C13.5523 13 14 13.4477 14 14C14 14.5523 13.5523 15 13 15H4C3.44772 15 3 14.5523 3 14Z" fill="black"/>
<path fill-rule="evenodd" clip-rule="evenodd" d="M13.7969 2.99998C15.9688 2.99347 18.0645 3.79952 19.6722 5.25972C20.0811 5.63103 20.1115 6.26347 19.7402 6.6723C19.3688 7.08113 18.7364 7.11154 18.3276 6.74023C17.0906 5.61678 15.4786 4.99614 13.8077 4.99996C12.9032 5.01196 12.0099 5.2017 11.1785 5.5584C10.3457 5.91573 9.59149 6.43361 8.95887 7.08246C8.32624 7.73131 7.82762 8.49842 7.49149 9.33999C7.15535 10.1816 6.98828 11.0811 6.99983 11.9872C6.99988 11.9915 6.99991 11.9957 6.99991 12C6.99991 15.8726 10.0767 19 13.7999 19C15.5253 19 17.1011 18.3105 18.3491 17.2407C18.7684 16.8813 19.3997 16.9299 19.7592 17.3492C20.1186 17.7685 20.07 18.3998 19.6507 18.7592C18.0987 20.0895 16.0745 21 13.7999 21C8.92518 21 5.00329 16.9309 4.99991 12.0063C4.98589 10.8397 5.20138 9.68167 5.63416 8.59814C6.06772 7.51264 6.71087 6.52318 7.52687 5.68626C8.34286 4.84934 9.31573 4.18135 10.3899 3.72045C11.4641 3.25955 12.6185 3.01475 13.7873 3.00005C13.7905 3.00001 13.7937 2.99999 13.7969 2.99998Z" fill="black"/>
</svg>
