<svg width="24" height="24" viewBox="0 0 24 24" fill="none" xmlns="http://www.w3.org/2000/svg">
<path fill-rule="evenodd" clip-rule="evenodd" d="M14.9909 5.00004C14.994 5.00001 14.997 5 15 5C19.1376 5 21.9434 7.97757 22.965 11.7378C23.0116 11.9093 23.0117 12.0901 22.9652 12.2616C22.6286 13.5034 22.1043 14.6506 21.4017 15.6378C21.0815 16.0878 20.4571 16.193 20.0072 15.8727C19.5572 15.5525 19.452 14.9281 19.7723 14.4782C20.2769 13.7691 20.6796 12.9328 20.96 12.0002C20.054 8.98831 17.9014 7.00205 15.0045 7C14.1183 7.00854 13.2401 7.16799 12.4075 7.47152C11.8886 7.66068 11.3146 7.39338 11.1255 6.8745C10.9363 6.35562 11.2036 5.78164 11.7225 5.59248C12.7703 5.21049 13.8757 5.01014 14.9909 5.00004ZM9.34948 7.93493C9.72783 8.33725 9.7084 8.97012 9.30607 9.34848C8.4798 10.1255 7.86397 11.031 7.54379 12.0005C7.98736 13.3478 8.99952 14.5665 10.3312 15.4752C11.7476 16.4418 13.4441 17 15 17C15.002 17 15.0041 17 15.0061 17C15.7422 17.0045 16.4723 16.8674 17.1567 16.5963C17.6701 16.3929 18.2513 16.6442 18.4547 17.1577C18.6581 17.6711 18.4068 18.2523 17.8933 18.4557C16.9716 18.8209 15.9883 19.0056 14.9969 19C12.9938 18.9993 10.9116 18.2926 9.20384 17.1273C7.49627 15.962 6.08173 14.2805 5.53479 12.2615C5.48832 12.0899 5.48841 11.9091 5.53503 11.7376C5.94061 10.2459 6.82217 8.93892 7.93593 7.89152C8.33826 7.51317 8.97112 7.5326 9.34948 7.93493ZM18 11C18.5523 11 19 11.4477 19 12V12.5C19 13.0523 18.5523 13.5 18 13.5C17.4477 13.5 17 13.0523 17 12.5V12C17 11.4477 17.4477 11 18 11Z" fill="black"/>
<path fill-rule="evenodd" clip-rule="evenodd" d="M1.89791 4.94533C2.11585 4.61843 2.50502 4.44943 2.89268 4.51336C4.52928 4.78326 5.83246 5.5191 6.71829 6.64C7.59721 7.75216 7.99996 9.16004 7.99996 10.67C7.99996 11.2223 7.55225 11.67 6.99996 11.67C6.44768 11.67 5.99996 11.2223 5.99996 10.67C5.99996 9.51003 5.69272 8.5679 5.14914 7.88007C4.72534 7.34381 4.11751 6.9104 3.28307 6.65327C3.10079 7.19581 2.99006 7.92749 3.00845 8.72704C3.03504 9.88327 3.32447 10.8675 3.73323 11.366C4.03649 11.7358 4.03543 12.2686 3.7307 12.6372C3.31886 13.1354 3.02751 14.1183 3.00095 15.273C2.98253 16.0736 3.09487 16.8058 3.2795 17.3479C4.11578 17.0909 4.72474 16.657 5.14914 16.12C5.69272 15.4322 5.99996 14.49 5.99996 13.33C5.99996 12.7777 6.44768 12.33 6.99996 12.33C7.55225 12.33 7.99996 12.7777 7.99996 13.33C7.99996 14.84 7.59721 16.2479 6.71829 17.3601C5.83246 18.481 4.52928 19.2168 2.89268 19.4867C2.50667 19.5504 2.11898 19.3831 1.90047 19.0586C1.23125 18.0647 0.970473 16.575 1.00148 15.227C1.02643 14.1422 1.24497 12.9456 1.76295 11.9977C1.25014 11.0505 1.03388 9.8559 1.00898 8.77303C0.978002 7.42631 1.23587 5.93839 1.89791 4.94533ZM16.607 5.27533C17.0459 5.61057 17.1299 6.23814 16.7947 6.67704C16.1977 7.45856 15.7365 8.33492 15.4302 9.26944C15.2583 9.79426 14.6934 10.0803 14.1686 9.90831C13.6437 9.73633 13.3577 9.17145 13.5297 8.64663C13.9058 7.49899 14.4722 6.42278 15.2053 5.46303C15.5405 5.02413 16.1681 4.9401 16.607 5.27533ZM14.0353 13.3404C14.5719 13.2097 15.1129 13.5388 15.2436 14.0754C15.5305 15.2535 16.0587 16.3594 16.7947 17.3231C17.1299 17.762 17.0458 18.3895 16.6069 18.7248C16.168 19.06 15.5405 18.9759 15.2052 18.537C14.3014 17.3535 13.6528 15.9955 13.3004 14.5487C13.1697 14.0121 13.4987 13.4711 14.0353 13.3404Z" fill="black"/>
<path fill-rule="evenodd" clip-rule="evenodd" d="M1.29289 1.29289C1.68342 0.902369 2.31658 0.902369 2.70711 1.29289L22.7071 21.2929C23.0976 21.6834 23.0976 22.3166 22.7071 22.7071C22.3166 23.0976 21.6834 23.0976 21.2929 22.7071L16.9518 18.366L16.7668 19.4921L16.7663 19.495C16.6489 20.197 16.2857 20.8344 15.7416 21.2932C15.1981 21.7517 14.5095 22.0021 13.7985 22H9.5C9.10691 22 8.75028 21.7697 8.58856 21.4114C8.42683 21.0531 8.49001 20.6333 8.75002 20.3385C9.55631 19.4243 9.99773 18.2453 9.99002 17.0263C9.98653 16.4741 10.4314 16.0235 10.9837 16.02C11.5359 16.0165 11.9865 16.4614 11.99 17.0137C11.9966 18.0534 11.7702 19.0725 11.3376 20H13.8016L13.8037 20C14.041 20.0009 14.2708 19.9174 14.4521 19.7644C14.6332 19.6117 14.7542 19.3997 14.7935 19.1662C14.7936 19.1658 14.7936 19.1654 14.7937 19.165L15.0232 17.7679C15.0798 17.4235 15.3061 17.1493 15.6025 17.0167L1.29289 2.70711C0.902369 2.31658 0.902369 1.68342 1.29289 1.29289ZM14.4521 4.23558C14.2708 4.08261 14.041 3.99911 13.8037 3.99999C13.8025 4 13.8012 4 13.8 4H8.53C7.97771 4 7.53 3.55228 7.53 3C7.53 2.44772 7.97771 2 8.53 2H13.7983C14.5094 1.99785 15.1981 2.24831 15.7416 2.70676C16.2857 3.16564 16.6489 3.80301 16.7663 4.50501L16.7668 4.50789L16.9968 5.90789C17.0863 6.45287 16.7171 6.96724 16.1721 7.05677C15.6271 7.1463 15.1128 6.77709 15.0232 6.23211L14.7937 4.83499C14.7936 4.83461 14.7936 4.83423 14.7935 4.83385C14.7542 4.6003 14.6332 4.38829 14.4521 4.23558Z" fill="black"/>
</svg>
