<svg width="24" height="24" viewBox="0 0 24 24" fill="none" xmlns="http://www.w3.org/2000/svg">
<path fill-rule="evenodd" clip-rule="evenodd" d="M7 2C7 1.44772 7.44772 1 8 1H16C16.5523 1 17 1.44772 17 2C17 2.55228 16.5523 3 16 3H8C7.44772 3 7 2.55228 7 2Z" fill="black"/>
<path fill-rule="evenodd" clip-rule="evenodd" d="M9 1C9.55228 1 10 1.44772 10 2V4.78903C9.99997 5.77623 9.70771 6.74134 9.16005 7.5627C9.16003 7.56273 9.16002 7.56275 9.16 7.56278L8.50405 8.5467L8.504 8.54678C8.17524 9.03982 7.99987 9.61918 8 10.2118V20C8 20.2652 8.10536 20.5196 8.29289 20.7071C8.48043 20.8946 8.73478 21 9 21H15C15.2652 21 15.5196 20.8946 15.7071 20.7071C15.8946 20.5196 16 20.2652 16 20V10.211C16 10.211 16 10.211 16 10.211C16 9.61867 15.8246 9.0396 15.496 8.54678L15.4959 8.5467L14.84 7.56278C14.84 7.56275 14.84 7.56272 14.8399 7.5627C14.2921 6.74104 13.9998 5.77555 14 4.788C14 4.78793 14 4.78785 14 4.78778V2C14 1.44772 14.4477 1 15 1C15.5523 1 16 1.44772 16 2V4.78822C15.9999 5.38082 16.1752 5.96018 16.504 6.45322L16.5041 6.4533L17.16 7.43722C17.16 7.43725 17.16 7.43728 17.16 7.4373C17.7077 8.25866 18 9.22377 18 10.211V20C18 20.7957 17.6839 21.5587 17.1213 22.1213C16.5587 22.6839 15.7956 23 15 23H9C8.20435 23 7.44129 22.6839 6.87868 22.1213C6.31607 21.5587 6 20.7956 6 20L6 10.2122C6 10.2121 6 10.2121 6 10.212C5.99982 9.22445 6.29209 8.25896 6.83995 7.4373C6.83997 7.43727 6.83998 7.43725 6.84 7.43722L7.496 6.45322C7.82461 5.9604 7.99998 5.38133 8 4.789C8 4.78899 8 4.78898 8 4.78897V2C8 1.44772 8.44772 1 9 1Z" fill="black"/>
<path fill-rule="evenodd" clip-rule="evenodd" d="M9.50002 15.4977C8.77425 15.4977 8.05573 15.6421 7.3863 15.9224C6.87688 16.1357 6.29097 15.8957 6.07763 15.3863C5.8643 14.8769 6.10432 14.291 6.61374 14.0776C7.52785 13.6948 8.50898 13.4977 9.50002 13.4977C10.4911 13.4977 11.4722 13.6948 12.3863 14.0776L12.3864 14.0777C13.0558 14.3581 13.7743 14.5025 14.5 14.5025C15.2258 14.5025 15.9442 14.3581 16.6136 14.0777C17.123 13.8643 17.7089 14.1042 17.9223 14.6136C18.1357 15.123 17.8958 15.709 17.3864 15.9224C16.4723 16.3053 15.4911 16.5025 14.5 16.5025C13.509 16.5025 12.5278 16.3053 11.6137 15.9224C11.6137 15.9224 11.6137 15.9224 11.6136 15.9224C10.9442 15.642 10.2257 15.4977 9.50002 15.4977Z" fill="black"/>
</svg>
