<svg width="24" height="24" viewBox="0 0 24 24" fill="none" xmlns="http://www.w3.org/2000/svg">
<path fill-rule="evenodd" clip-rule="evenodd" d="M17 12C17 11.4477 17.4477 11 18 11H20C20.5523 11 21 11.4477 21 12C21 12.5523 20.5523 13 20 13H18C17.4477 13 17 12.5523 17 12Z" fill="black"/>
<path fill-rule="evenodd" clip-rule="evenodd" d="M17 16C17 15.4477 17.4477 15 18 15H20C20.5523 15 21 15.4477 21 16C21 16.5523 20.5523 17 20 17H18C17.4477 17 17 16.5523 17 16Z" fill="black"/>
<path fill-rule="evenodd" clip-rule="evenodd" d="M17 20C17 19.4477 17.4477 19 18 19H20C20.5523 19 21 19.4477 21 20C21 20.5523 20.5523 21 20 21H18C17.4477 21 17 20.5523 17 20Z" fill="black"/>
<path fill-rule="evenodd" clip-rule="evenodd" d="M17 4C17 3.44772 17.4477 3 18 3H20C20.5523 3 21 3.44772 21 4C21 4.55228 20.5523 5 20 5H18C17.4477 5 17 4.55228 17 4Z" fill="black"/>
<path fill-rule="evenodd" clip-rule="evenodd" d="M17 8C17 7.44772 17.4477 7 18 7H20C20.5523 7 21 7.44772 21 8C21 8.55228 20.5523 9 20 9H18C17.4477 9 17 8.55228 17 8Z" fill="black"/>
<path fill-rule="evenodd" clip-rule="evenodd" d="M3 12C3 11.4477 3.44772 11 4 11H6C6.55228 11 7 11.4477 7 12C7 12.5523 6.55228 13 6 13H4C3.44772 13 3 12.5523 3 12Z" fill="black"/>
<path fill-rule="evenodd" clip-rule="evenodd" d="M3 16C3 15.4477 3.44772 15 4 15H6C6.55228 15 7 15.4477 7 16C7 16.5523 6.55228 17 6 17H4C3.44772 17 3 16.5523 3 16Z" fill="black"/>
<path fill-rule="evenodd" clip-rule="evenodd" d="M3 20C3 19.4477 3.44772 19 4 19H6C6.55228 19 7 19.4477 7 20C7 20.5523 6.55228 21 6 21H4C3.44772 21 3 20.5523 3 20Z" fill="black"/>
<path fill-rule="evenodd" clip-rule="evenodd" d="M3 4C3 3.44772 3.44772 3 4 3H6C6.55228 3 7 3.44772 7 4C7 4.55228 6.55228 5 6 5H4C3.44772 5 3 4.55228 3 4Z" fill="black"/>
<path fill-rule="evenodd" clip-rule="evenodd" d="M3 8C3 7.44772 3.44772 7 4 7H6C6.55228 7 7 7.44772 7 8C7 8.55228 6.55228 9 6 9H4C3.44772 9 3 8.55228 3 8Z" fill="black"/>
<path fill-rule="evenodd" clip-rule="evenodd" d="M5.87868 1.87868C6.44129 1.31607 7.20435 1 8 1H9.5C10.3695 1 10.8876 1.68443 11.031 2.24794C11.031 2.24797 11.031 2.248 11.031 2.24804C11.0859 2.46332 11.211 2.65419 11.3864 2.79052C11.5619 2.92686 11.7778 3.00088 12 3.00088C12.2222 3.00088 12.4381 2.92686 12.6136 2.79052C12.7889 2.65426 12.9139 2.46352 12.9689 2.24836C13.1122 1.68477 13.6303 1 14.5 1H16C16.7956 1 17.5587 1.31607 18.1213 1.87868C18.6839 2.44129 19 3.20435 19 4V20C19 20.7957 18.6839 21.5587 18.1213 22.1213C17.5587 22.6839 16.7957 23 16 23H8C7.20435 23 6.44129 22.6839 5.87868 22.1213C5.31607 21.5587 5 20.7956 5 20V4C5 3.20435 5.31607 2.44129 5.87868 1.87868ZM8 3C7.73478 3 7.48043 3.10536 7.29289 3.29289C7.10536 3.48043 7 3.73478 7 4V20C7 20.2652 7.10536 20.5196 7.29289 20.7071C7.48043 20.8946 7.73478 21 8 21H16C16.2652 21 16.5196 20.8946 16.7071 20.7071C16.8946 20.5196 17 20.2652 17 20V4C17 3.73478 16.8946 3.48043 16.7071 3.29289C16.5196 3.10536 16.2652 3 16 3H14.8287C14.638 3.54001 14.2959 4.0161 13.8407 4.3698C13.3143 4.77883 12.6666 5.00088 12 5.00088C11.3334 5.00088 10.6857 4.77883 10.1593 4.3698C9.70409 4.0161 9.36199 3.54001 9.17126 3H8Z" fill="black"/>
</svg>
