<svg width="24" height="24" viewBox="0 0 24 24" fill="none" xmlns="http://www.w3.org/2000/svg">
<path fill-rule="evenodd" clip-rule="evenodd" d="M10.5021 1.40277C10.9577 1.14026 11.4742 1.00208 12 1.00208C12.5258 1.00208 13.0423 1.14026 13.4979 1.40277C13.4986 1.40318 13.4993 1.40359 13.5 1.404L20.4961 5.40178C20.4974 5.40252 20.4987 5.40326 20.5 5.404C20.9556 5.66704 21.334 6.04527 21.5973 6.50074C21.8606 6.95621 21.9995 7.47291 22 7.999V16.0011C21.9995 16.5271 21.8606 17.0438 21.5973 17.4993C21.334 17.9548 20.9556 18.333 20.5 18.5961C20.4987 18.5968 20.4974 18.5975 20.4961 18.5983L13.5 22.5961C13.4994 22.5964 13.4987 22.5968 13.4981 22.5972C13.0425 22.8597 12.5259 22.998 12 22.998C11.4741 22.998 10.9575 22.8597 10.5019 22.5972C10.5013 22.5968 10.5006 22.5964 10.5 22.5961L3.50386 18.5983C3.50257 18.5975 3.50129 18.5968 3.5 18.5961C3.04439 18.333 2.66597 17.9548 2.40269 17.4993C2.13941 17.0438 2.00054 16.5271 2 16.0011V7.999C2.00054 7.47291 2.13941 6.95621 2.40269 6.50074C2.66597 6.04527 3.04439 5.66704 3.5 5.404C3.50129 5.40326 3.50257 5.40252 3.50386 5.40178L10.5021 1.40277ZM12 3.00208C11.8245 3.00208 11.652 3.04828 11.5 3.13605C11.4987 3.13679 11.4974 3.13753 11.4961 3.13827L4.49841 7.13697C4.34725 7.22461 4.22168 7.35034 4.13423 7.50163C4.04654 7.65333 4.00025 7.82541 4 8.00062V15.9994C4.00025 16.1746 4.04654 16.3467 4.13423 16.4984C4.22167 16.6497 4.34721 16.7754 4.49834 16.863C4.49889 16.8634 4.49945 16.8637 4.5 16.864L11.4961 20.8618C11.4974 20.8625 11.4987 20.8633 11.5 20.864C11.652 20.9518 11.8245 20.998 12 20.998C12.1755 20.998 12.348 20.9518 12.5 20.864C12.5013 20.8633 12.5026 20.8625 12.5039 20.8618L19.5 16.864C19.5005 16.8637 19.5011 16.8634 19.5016 16.8631C19.6528 16.7754 19.7783 16.6497 19.8658 16.4984C19.9535 16.3466 19.9998 16.1744 20 15.999V8.00105C19.9998 7.82569 19.9535 7.65345 19.8658 7.50163C19.7783 7.35033 19.6527 7.22459 19.5016 7.13695C19.501 7.13665 19.5005 7.13635 19.5 7.13605L12.5039 3.13827C12.5026 3.13753 12.5013 3.13679 12.5 3.13605C12.348 3.04828 12.1755 3.00208 12 3.00208Z" fill="black"/>
<path fill-rule="evenodd" clip-rule="evenodd" d="M6.63406 3.70979C6.91035 3.23158 7.522 3.06791 8.0002 3.3442L11.9999 5.65515L15.9996 3.3442C16.4778 3.06791 17.0895 3.23158 17.3658 3.70979C17.6421 4.18799 17.4784 4.79964 17.0002 5.07593L12.5002 7.67593C12.1907 7.85478 11.8092 7.85478 11.4996 7.67593L6.99964 5.07593C6.52144 4.79964 6.35776 4.18799 6.63406 3.70979Z" fill="black"/>
<path fill-rule="evenodd" clip-rule="evenodd" d="M2.13406 11.4997C2.41035 11.0215 3.022 10.8578 3.5002 11.1341L8.0002 13.7341C8.30944 13.9128 8.49992 14.2428 8.49992 14.6V19.79C8.49992 20.3423 8.05221 20.79 7.49992 20.79C6.94764 20.79 6.49992 20.3423 6.49992 19.79V15.1771L2.49964 12.8658C2.02144 12.5896 1.85776 11.9779 2.13406 11.4997Z" fill="black"/>
<path fill-rule="evenodd" clip-rule="evenodd" d="M21.8659 11.4997C22.1422 11.9779 21.9785 12.5896 21.5003 12.8658L17.5 15.1771V19.79C17.5 20.3423 17.0523 20.79 16.5 20.79C15.9477 20.79 15.5 20.3423 15.5 19.79V14.6C15.5 14.2428 15.6905 13.9128 15.9997 13.7341L20.4997 11.1341C20.9779 10.8578 21.5896 11.0215 21.8659 11.4997Z" fill="black"/>
<path fill-rule="evenodd" clip-rule="evenodd" d="M2.40433 6.45934C2.68088 5.98128 3.2926 5.81792 3.77067 6.09446L11.9999 10.8548L20.2292 6.09446C20.7073 5.81792 21.319 5.98128 21.5955 6.45934C21.8721 6.9374 21.7087 7.54913 21.2307 7.82567L12.5007 12.8757C12.1909 13.0549 11.809 13.0549 11.4992 12.8757L2.76922 7.82567C2.29116 7.54913 2.12779 6.9374 2.40433 6.45934Z" fill="black"/>
<path fill-rule="evenodd" clip-rule="evenodd" d="M12 11C12.5523 11 13 11.4477 13 12V22.08C13 22.6323 12.5523 23.08 12 23.08C11.4477 23.08 11 22.6323 11 22.08V12C11 11.4477 11.4477 11 12 11Z" fill="black"/>
</svg>
