<svg width="24" height="24" viewBox="0 0 24 24" fill="none" xmlns="http://www.w3.org/2000/svg">
<path fill-rule="evenodd" clip-rule="evenodd" d="M10.049 6.09211C8.95341 5.89789 7.82538 6.01216 6.79097 6.42213C5.75657 6.83211 4.85654 7.52165 4.19147 8.4137C3.5264 9.30575 3.12248 10.3652 3.02485 11.4736C2.92722 12.582 3.13973 13.6957 3.63863 14.6902C4.13753 15.6848 4.90317 16.5211 5.84998 17.1055C6.79672 17.69 7.88732 17.9997 8.99992 18C9 18 9.00009 18 9.00017 18H17.4999C18.4282 18 19.3184 17.6313 19.9748 16.9749C20.6312 16.3185 20.9999 15.4283 20.9999 14.5C20.9999 13.5717 20.6312 12.6815 19.9748 12.0251C19.3184 11.3688 18.4282 11 17.4999 11H15.7099C15.2677 11 14.878 10.7095 14.7516 10.2857C14.4337 9.21941 13.8255 8.26251 12.9951 7.52195C12.1646 6.78139 11.1446 6.28633 10.049 6.09211ZM6.05406 4.56284C7.43327 4.01621 8.93731 3.86386 10.3981 4.12282C11.8589 4.38178 13.2189 5.04185 14.3262 6.02926C15.2446 6.84821 15.959 7.86557 16.4179 9H17.4999C18.9586 9 20.3576 9.57947 21.389 10.6109C22.4205 11.6424 22.9999 13.0413 22.9999 14.5C22.9999 15.9587 22.4205 17.3576 21.389 18.3891C20.3576 19.4205 18.9586 20 17.4999 20H8.99966C7.51608 19.9996 6.06182 19.5867 4.7994 18.8074C3.53699 18.0281 2.51614 16.9131 1.85094 15.587C1.18574 14.2609 0.902396 12.7759 1.03257 11.2981C1.16274 9.82022 1.70129 8.40767 2.58806 7.21827C3.47482 6.02887 4.67485 5.10948 6.05406 4.56284Z" fill="black"/>
</svg>
