<svg width="24" height="24" viewBox="0 0 24 24" fill="none" xmlns="http://www.w3.org/2000/svg">
<path fill-rule="evenodd" clip-rule="evenodd" d="M18.335 3.11469C18.8239 2.85785 19.4285 3.046 19.6853 3.53493C20.5305 5.14388 20.9824 7.04929 21 8.99094C21.005 9.5432 20.5613 9.99494 20.009 9.99993C19.4568 10.0049 19.005 9.56128 19 9.00901C18.9851 7.35493 18.5986 5.76684 17.9147 4.46502C17.6579 3.97609 17.846 3.37153 18.335 3.11469Z" fill="black"/>
<path fill-rule="evenodd" clip-rule="evenodd" d="M8 9C8 8.44772 8.44772 8 9 8H9.01C9.56228 8 10.01 8.44772 10.01 9C10.01 9.55228 9.56228 10 9.01 10H9C8.44772 10 8 9.55228 8 9Z" fill="black"/>
<path fill-rule="evenodd" clip-rule="evenodd" d="M9 3C5.68629 3 3 5.68629 3 9C3 12.3137 5.68629 15 9 15C12.3137 15 15 12.3137 15 9C15 5.68629 12.3137 3 9 3ZM1 9C1 4.58172 4.58172 1 9 1C13.4183 1 17 4.58172 17 9C17 13.4183 13.4183 17 9 17C4.58172 17 1 13.4183 1 9Z" fill="black"/>
<path fill-rule="evenodd" clip-rule="evenodd" d="M6 17C5.44772 17 5 17.4477 5 18V20C5 20.5523 5.44772 21 6 21H12C12.5523 21 13 20.5523 13 20V18C13 17.4477 12.5523 17 12 17H6ZM3 18C3 16.3431 4.34315 15 6 15H12C13.6569 15 15 16.3431 15 18V20C15 21.6569 13.6569 23 12 23H6C4.34315 23 3 21.6569 3 20V18Z" fill="black"/>
<path fill-rule="evenodd" clip-rule="evenodd" d="M17.8982 16.6876C18.2892 16.3024 18.9184 16.3041 19.3071 16.6929C19.6976 17.0834 19.6976 17.7166 19.3071 18.1071L18.6 17.4C19.3071 18.1071 19.3068 18.1074 19.3064 18.1078L19.3057 18.1085L19.3042 18.11C19.3031 18.111 19.302 18.1122 19.3007 18.1135C19.2981 18.116 19.2952 18.1189 19.2918 18.1221C19.2851 18.1287 19.2767 18.1367 19.2667 18.1462C19.2466 18.165 19.22 18.1895 19.1868 18.2188C19.1205 18.2772 19.0279 18.355 18.9092 18.4454C18.6721 18.6261 18.3293 18.8586 17.8836 19.0886C16.99 19.5499 15.6837 20 14 20C13.4477 20 13 19.5523 13 19C13 18.4477 13.4477 18 14 18C15.3163 18 16.31 17.6501 16.9664 17.3114C17.2957 17.1414 17.5404 16.9739 17.6971 16.8546C17.7753 16.795 17.8311 16.7478 17.864 16.7187C17.8804 16.7042 17.8911 16.6943 17.8959 16.6898C17.897 16.6888 17.8977 16.6881 17.8982 16.6876ZM17.8941 16.6917L17.8941 16.6917L17.8941 16.6917M17.8935 16.6923C17.8936 16.6922 17.8937 16.6921 17.8937 16.692L17.8935 16.6923C17.8935 16.6923 17.8935 16.6923 17.8935 16.6923Z" fill="black"/>
<path fill-rule="evenodd" clip-rule="evenodd" d="M20 15C19.4477 15 19 15.4477 19 16C19 16.5523 19.4477 17 20 17C20.5523 17 21 16.5523 21 16C21 15.4477 20.5523 15 20 15ZM17 16C17 14.3431 18.3431 13 20 13C21.6569 13 23 14.3431 23 16C23 17.6569 21.6569 19 20 19C18.3431 19 17 17.6569 17 16Z" fill="black"/>
</svg>
