<svg width="24" height="24" viewBox="0 0 24 24" fill="none" xmlns="http://www.w3.org/2000/svg">
<path fill-rule="evenodd" clip-rule="evenodd" d="M2.87868 3.87868C3.44129 3.31607 4.20435 3 5 3H19C19.7956 3 20.5587 3.31607 21.1213 3.87868C21.6839 4.44129 22 5.20435 22 6V10C22 10.5523 21.5523 11 21 11H4V20C4 20.2652 4.10536 20.5196 4.29289 20.7071C4.48043 20.8946 4.73478 21 5 21H12C12.5523 21 13 21.4477 13 22C13 22.5523 12.5523 23 12 23H5C4.20435 23 3.44129 22.6839 2.87868 22.1213C2.31607 21.5587 2 20.7956 2 20V6C2 5.20435 2.31607 4.44129 2.87868 3.87868ZM4 9H20V6C20 5.73478 19.8946 5.48043 19.7071 5.29289C19.5196 5.10536 19.2652 5 19 5H5C4.73478 5 4.48043 5.10536 4.29289 5.29289C4.10536 5.48043 4 5.73478 4 6V9Z" fill="black"/>
<path fill-rule="evenodd" clip-rule="evenodd" d="M8 1C8.55228 1 9 1.44772 9 2V6C9 6.55228 8.55228 7 8 7C7.44772 7 7 6.55228 7 6V2C7 1.44772 7.44772 1 8 1Z" fill="black"/>
<path fill-rule="evenodd" clip-rule="evenodd" d="M16 1C16.5523 1 17 1.44772 17 2V6C17 6.55228 16.5523 7 16 7C15.4477 7 15 6.55228 15 6V2C15 1.44772 15.4477 1 16 1Z" fill="black"/>
<path fill-rule="evenodd" clip-rule="evenodd" d="M18.2616 13.2543C18.886 12.9953 19.573 12.9265 20.2364 13.0567C20.9022 13.1873 21.5143 13.5125 21.9953 13.9911C22.0275 14.0231 22.0572 14.0571 22.0845 14.0927C23.3732 15.4658 23.3251 17.6264 21.81 19.1542C21.8091 19.1551 21.8081 19.156 21.8072 19.157C21.8055 19.1586 21.8038 19.1603 21.8021 19.162L18.2021 22.712C17.8124 23.0964 17.186 23.0959 16.7968 22.711L13.2068 19.161C13.2045 19.1588 13.2022 19.1565 13.1999 19.1542C11.6558 17.5971 11.6204 15.3728 13.0047 14.001C13.3173 13.6889 13.6863 13.4293 14.1231 13.2537C14.7492 12.996 15.4376 12.9292 16.1015 13.062C16.6092 13.1636 17.0852 13.3783 17.4952 13.6877C17.7291 13.5114 17.9858 13.3653 18.2616 13.2543ZM19.8513 15.0193C19.5737 14.9648 19.2862 14.9939 19.0251 15.1028C19.0206 15.1047 19.016 15.1066 19.0113 15.1085C18.8407 15.1767 18.6841 15.2801 18.5471 15.4171L18.2071 15.7571C17.8205 16.1436 17.1953 16.1482 16.8032 15.7673L16.4532 15.4273C16.4493 15.4235 16.4455 15.4197 16.4417 15.4159C16.2418 15.2154 15.9869 15.0787 15.7093 15.0232C15.4317 14.9677 15.1438 14.9958 14.8822 15.104C14.8786 15.1055 14.875 15.107 14.8714 15.1085C14.7114 15.1725 14.5628 15.2714 14.4171 15.4171C14.4158 15.4183 14.4146 15.4196 14.4133 15.4208C13.9002 15.9286 13.7652 16.8812 14.6168 17.7426L17.5009 20.5946L20.3935 17.7422C21.2396 16.886 21.1045 15.9333 20.5866 15.4208C20.5635 15.398 20.5416 15.3741 20.521 15.3493C20.3313 15.1823 20.1003 15.0681 19.8513 15.0193Z" fill="black"/>
</svg>
