<svg width="24" height="24" viewBox="0 0 24 24" fill="none" xmlns="http://www.w3.org/2000/svg">
<path fill-rule="evenodd" clip-rule="evenodd" d="M4.50361 1.57152C5.25949 1.26917 6.38728 1 8 1C9.69345 1 11.0967 1.56148 12.3157 2.04923C12.3343 2.05668 12.3529 2.06411 12.3714 2.07152C13.6395 2.57876 14.7193 3 16 3C17.3873 3 18.2595 2.76917 18.7536 2.57152C19.0016 2.47234 19.1589 2.37972 19.2422 2.3242C19.2836 2.29655 19.3074 2.27769 19.3153 2.2712C19.601 2.00265 20.0186 1.92533 20.3827 2.07612C20.7564 2.2309 21 2.59554 21 3V15C21 15.2652 20.8946 15.5196 20.7071 15.7071L20 15C20.7071 15.7071 20.7066 15.7076 20.7061 15.7082L20.7028 15.7114C20.7012 15.7129 20.6997 15.7145 20.698 15.7161C20.6947 15.7193 20.6911 15.7228 20.6873 15.7265C20.6795 15.7338 20.6707 15.7421 20.6607 15.7512C20.6407 15.7693 20.6162 15.7907 20.5869 15.8149C20.5282 15.8632 20.4504 15.9224 20.3516 15.9883C20.1536 16.1203 19.8734 16.2777 19.4964 16.4285C18.7405 16.7308 17.6127 17 16 17C14.3066 17 12.9033 16.4385 11.6843 15.9508L11.6286 15.9285C10.3605 15.4212 9.28069 15 8 15C6.61272 15 5.74051 15.2308 5.24639 15.4285C4.99844 15.5277 4.8411 15.6203 4.75783 15.6758C4.71635 15.7034 4.69263 15.7223 4.68473 15.7288C4.39899 15.9974 3.98137 16.0747 3.61732 15.9239C3.24364 15.7691 3 15.4045 3 15V3C3 2.73478 3.10536 2.48043 3.29289 2.29289L4 3C3.29289 2.29289 3.29342 2.29237 3.29394 2.29185L3.29502 2.29078C3.29574 2.29006 3.29648 2.28932 3.29724 2.28857C3.29876 2.28707 3.30034 2.28551 3.302 2.2839C3.3053 2.28067 3.30889 2.27721 3.31275 2.27352C3.32047 2.26616 3.32931 2.2579 3.33929 2.24883C3.35926 2.23068 3.38378 2.20926 3.41312 2.1851C3.47183 2.13675 3.54962 2.07757 3.64842 2.0117C3.8464 1.87972 4.12656 1.72234 4.50361 1.57152ZM5 3.53805V13.3968C5.7276 13.1727 6.70825 13 8 13C9.69345 13 11.0967 13.5615 12.3157 14.0492L12.3714 14.0715C13.6395 14.5788 14.7193 15 16 15C17.3873 15 18.2595 14.7692 18.7536 14.5715C18.8488 14.5335 18.9306 14.4964 19 14.4619V4.6032C18.2724 4.82731 17.2918 5 16 5C14.3066 5 12.9033 4.43852 11.6843 3.95077C11.6657 3.94332 11.6471 3.93589 11.6286 3.92848C10.3605 3.42124 9.28069 3 8 3C6.61272 3 5.74051 3.23083 5.24639 3.42848C5.15123 3.46654 5.06941 3.50364 5 3.53805ZM4.70504 15.7092L4.70508 15.7091L4.70517 15.709C4.70513 15.7091 4.70508 15.7091 4.70504 15.7092Z" fill="black"/>
<path fill-rule="evenodd" clip-rule="evenodd" d="M4 14C4.55228 14 5 14.4477 5 15V22C5 22.5523 4.55228 23 4 23C3.44772 23 3 22.5523 3 22V15C3 14.4477 3.44772 14 4 14Z" fill="black"/>
</svg>
