<svg width="24" height="24" viewBox="0 0 24 24" fill="none" xmlns="http://www.w3.org/2000/svg">
<path fill-rule="evenodd" clip-rule="evenodd" d="M12.0001 3C9.25236 3 7.00008 5.25228 7.00008 8C7.00008 11.6473 6.21715 14.0654 5.37797 15.6039C5.30188 15.7434 5.22549 15.8753 5.1494 16H18.8254C18.6847 15.7733 18.5435 15.5228 18.4057 15.2472C18.1587 14.7532 18.3589 14.1526 18.8529 13.9056C19.3468 13.6586 19.9475 13.8588 20.1945 14.3528C20.5492 15.0622 20.9182 15.5345 21.1829 15.8195C21.3155 15.9624 21.4226 16.0589 21.4896 16.1151C21.523 16.1431 21.5464 16.1611 21.5579 16.1697C21.5607 16.1717 21.5628 16.1733 21.5642 16.1743C21.5644 16.1744 21.5646 16.1746 21.5648 16.1747C21.9244 16.4207 22.0837 16.8719 21.9572 17.2898C21.8295 17.7115 21.4407 18 21.0001 18H3.00008C2.55941 18 2.17068 17.7115 2.04299 17.2898C1.91664 16.8725 2.07528 16.4221 2.43378 16.1758C2.43448 16.1753 2.43543 16.1746 2.43663 16.1737C2.44432 16.168 2.46218 16.1544 2.4888 16.1322C2.54202 16.0878 2.6304 16.0091 2.74288 15.8904C2.9673 15.6535 3.29039 15.2544 3.62218 14.6461C4.28301 13.4346 5.00008 11.3527 5.00008 8C5.00008 4.14772 8.14779 1 12.0001 1C13.1489 1 14.2197 1.23361 15.2857 1.82584C15.7685 2.09406 15.9424 2.70286 15.6742 3.18564C15.406 3.66843 14.7972 3.84237 14.3144 3.57416C13.5805 3.16639 12.8513 3 12.0001 3ZM21.5573 16.1696L21.5573 16.1697L21.5573 16.1696Z" fill="black"/>
<path fill-rule="evenodd" clip-rule="evenodd" d="M9.8182 20.1237C10.3022 19.8577 10.9102 20.0343 11.1763 20.5182C11.2574 20.6658 11.3766 20.7888 11.5215 20.8745C11.6664 20.9602 11.8317 21.0054 12 21.0054C12.1683 21.0054 12.3336 20.9602 12.4785 20.8745C12.6234 20.7888 12.7426 20.6658 12.8237 20.5182C13.0898 20.0343 13.6978 19.8577 14.1818 20.1237C14.6657 20.3898 14.8424 20.9979 14.5763 21.4818C14.3226 21.9432 13.9497 22.328 13.4965 22.596C13.0433 22.864 12.5265 23.0054 12 23.0054C11.4735 23.0054 10.9566 22.864 10.5035 22.596C10.0503 22.328 9.67736 21.9432 9.4237 21.4818C9.15762 20.9979 9.33424 20.3898 9.8182 20.1237Z" fill="black"/>
<path fill-rule="evenodd" clip-rule="evenodd" d="M14 8C14 7.44772 14.4477 7 15 7H21C21.5523 7 22 7.44772 22 8C22 8.55228 21.5523 9 21 9H15C14.4477 9 14 8.55228 14 8Z" fill="black"/>
<path fill-rule="evenodd" clip-rule="evenodd" d="M18 4C18.5523 4 19 4.44772 19 5V11C19 11.5523 18.5523 12 18 12C17.4477 12 17 11.5523 17 11V5C17 4.44772 17.4477 4 18 4Z" fill="black"/>
</svg>
