<svg width="24" height="24" viewBox="0 0 24 24" fill="none" xmlns="http://www.w3.org/2000/svg">
<path fill-rule="evenodd" clip-rule="evenodd" d="M9.32944 8.19484C9.4096 8.74128 9.0316 9.24923 8.48516 9.32939L4.14751 9.96567L7.69776 13.4236C7.93376 13.6535 8.0414 13.9848 7.98556 14.3095L7.14821 19.1775L11.5368 16.8837C11.827 16.7321 12.1731 16.7321 12.4632 16.8837L16.8518 19.1775L16.6045 17.7395C16.5109 17.1952 16.8762 16.6781 17.4205 16.5844C17.9648 16.4908 18.4819 16.8562 18.5756 17.4005L19.1656 20.8305C19.23 21.2052 19.0763 21.5842 18.769 21.8081C18.4616 22.0321 18.0539 22.0624 17.7168 21.8862L12 18.8983L6.28323 21.8862C5.9462 22.0624 5.53841 22.0321 5.23107 21.8081C4.92373 21.5842 4.77003 21.2052 4.8345 20.8305L5.92529 14.4891L1.3023 9.98633C1.02974 9.72087 0.931448 9.32374 1.0487 8.96179C1.16596 8.59984 1.47845 8.33578 1.85489 8.28056L8.1949 7.35056C8.74133 7.27041 9.24929 7.6484 9.32944 8.19484Z" fill="black"/>
<path fill-rule="evenodd" clip-rule="evenodd" d="M12.0008 1C12.3814 1.00031 12.7288 1.21659 12.897 1.55794L15.7543 7.35571L22.1433 8.28031C22.5201 8.33484 22.8332 8.59862 22.951 8.96068C23.0688 9.32275 22.9707 9.72028 22.6981 9.98605L19.1181 13.476C18.7226 13.8616 18.0895 13.8535 17.704 13.458C17.3185 13.0626 17.3265 12.4295 17.722 12.044L19.8501 9.96929L14.9468 9.25969C14.6207 9.21249 14.3387 9.00765 14.193 8.71206L11.9982 4.25843L11.4563 5.35351C11.2114 5.84851 10.6115 6.05121 10.1165 5.80627C9.62153 5.56132 9.41882 4.96148 9.66377 4.46649L11.1038 1.55649C11.2725 1.21541 11.6203 0.999691 12.0008 1Z" fill="black"/>
<path fill-rule="evenodd" clip-rule="evenodd" d="M1.29289 1.29289C1.68342 0.902369 2.31658 0.902369 2.70711 1.29289L22.7071 21.2929C23.0976 21.6834 23.0976 22.3166 22.7071 22.7071C22.3166 23.0976 21.6834 23.0976 21.2929 22.7071L1.29289 2.70711C0.902369 2.31658 0.902369 1.68342 1.29289 1.29289Z" fill="black"/>
</svg>
