<svg width="24" height="24" viewBox="0 0 24 24" fill="none" xmlns="http://www.w3.org/2000/svg">
<path fill-rule="evenodd" clip-rule="evenodd" d="M2.29289 11.2929C2.48043 11.1054 2.73478 11 3 11H21C21.2652 11 21.5196 11.1054 21.7071 11.2929C21.8946 11.4804 22 11.7348 22 12C22 14.6522 20.9464 17.1957 19.0711 19.0711C17.1957 20.9464 14.6522 22 12 22C9.34784 22 6.8043 20.9464 4.92893 19.0711C3.05357 17.1957 2 14.6522 2 12C2 11.7348 2.10536 11.4804 2.29289 11.2929ZM4.06272 13C4.28353 14.753 5.08052 16.3942 6.34315 17.6569C7.84344 19.1571 9.87827 20 12 20C14.1217 20 16.1566 19.1571 17.6569 17.6569C18.9195 16.3942 19.7165 14.753 19.9373 13H4.06272Z" fill="black"/>
<path fill-rule="evenodd" clip-rule="evenodd" d="M6 21C6 20.4477 6.44772 20 7 20H17C17.5523 20 18 20.4477 18 21C18 21.5523 17.5523 22 17 22H7C6.44772 22 6 21.5523 6 21Z" fill="black"/>
<path fill-rule="evenodd" clip-rule="evenodd" d="M22.3846 5.07694C22.8944 5.28936 23.1355 5.87483 22.9231 6.38463L20.4231 12.3846C20.2107 12.8944 19.6252 13.1355 19.1154 12.9231C18.6056 12.7107 18.3645 12.1252 18.5769 11.6154L21.0769 5.6154C21.2894 5.1056 21.8748 4.86452 22.3846 5.07694Z" fill="black"/>
<path fill-rule="evenodd" clip-rule="evenodd" d="M15.3123 2.65271C15.5041 2.13481 16.0794 1.87046 16.5973 2.06228C17.2118 2.28987 18.0788 3.08161 17.9982 4.42016C17.998 4.42415 17.9977 4.42814 17.9974 4.43213C17.9448 5.15942 17.5408 5.67297 17.321 5.95227C17.3107 5.96536 17.3008 5.97794 17.2913 5.99C17.0391 6.31242 17.0047 6.39098 16.9972 6.45671C16.9872 6.64468 17.0266 6.76585 17.0805 6.86593C17.1462 6.98787 17.2514 7.11181 17.4279 7.2838C17.8234 7.66922 17.8317 8.30233 17.4463 8.69789C17.0608 9.09345 16.4277 9.10168 16.0322 8.71626C15.5842 8.27982 14.9232 7.54708 15.0021 6.31606C15.0025 6.30902 15.003 6.30199 15.0036 6.29497C15.0644 5.5837 15.4646 5.0765 15.6808 4.8025C15.6933 4.78675 15.7051 4.77176 15.7162 4.75756C15.9666 4.4375 15.9963 4.36029 16.0022 4.29301C16.007 4.20227 15.9957 4.13831 15.9829 4.09488C15.9695 4.04954 15.9508 4.01484 15.9316 3.98795C15.9115 3.95981 15.8905 3.93997 15.8755 3.92834C15.8744 3.92748 15.8733 3.9267 15.8724 3.926C15.3746 3.72332 15.1242 3.16042 15.3123 2.65271ZM15.8648 3.9208C15.8648 3.92078 15.8654 3.92111 15.8665 3.92183C15.8653 3.92117 15.8648 3.92081 15.8648 3.9208Z" fill="black"/>
<path fill-rule="evenodd" clip-rule="evenodd" d="M10.3122 2.65271C10.504 2.13481 11.0793 1.87046 11.5972 2.06228C12.2109 2.28958 13.0822 3.0834 12.9877 4.42645C12.9417 5.15493 12.5374 5.67092 12.3204 5.94793C12.3094 5.96187 12.299 5.97521 12.2891 5.98795C12.0276 6.32393 12.0114 6.3862 12.0081 6.44089C12.0077 6.44617 12.0074 6.45145 12.007 6.45672C11.9921 6.64936 12.0305 6.77017 12.0834 6.86922C12.1472 6.98882 12.2509 7.11149 12.4278 7.2838C12.8233 7.66922 12.8316 8.30233 12.4461 8.69789C12.0607 9.09345 11.4276 9.10168 11.032 8.71626C10.5855 8.28115 9.92022 7.54502 10.0123 6.31073C10.0591 5.59006 10.462 5.07669 10.6767 4.80307C10.6887 4.78784 10.7 4.77335 10.7107 4.75961C10.9685 4.42844 10.988 4.36136 10.9917 4.2999C10.992 4.2959 10.9922 4.29191 10.9925 4.28793C10.9993 4.19435 10.9885 4.1297 10.9763 4.08703C10.9638 4.04355 10.9462 4.0105 10.9281 3.98493C10.909 3.95807 10.889 3.93901 10.8745 3.92781C10.8736 3.92711 10.8728 3.92647 10.872 3.92589C10.3744 3.72311 10.1242 3.16032 10.3122 2.65271ZM10.8643 3.92061C10.8643 3.9206 10.8649 3.92093 10.8661 3.92167C10.8649 3.921 10.8643 3.92063 10.8643 3.92061Z" fill="black"/>
<path fill-rule="evenodd" clip-rule="evenodd" d="M5.31228 2.65271C5.50409 2.13481 6.07944 1.87046 6.59734 2.06228C7.21184 2.28987 8.07885 3.08161 7.99822 4.42016C7.99798 4.42415 7.99771 4.42814 7.99742 4.43213C7.94485 5.15942 7.54076 5.67297 7.32099 5.95227C7.31068 5.96536 7.30079 5.97794 7.29135 5.99C7.03908 6.31242 7.00473 6.39098 6.99723 6.45671C6.98722 6.64461 7.02664 6.76447 7.07998 6.86266C7.14505 6.98244 7.2506 7.10576 7.42878 7.27503C7.82918 7.65541 7.84541 8.28837 7.46502 8.68878C7.08464 9.08918 6.45168 9.10541 6.05128 8.72503C5.58608 8.28309 4.923 7.54961 5.00207 6.31606C5.00253 6.30902 5.00305 6.30199 5.00365 6.29497C5.06437 5.5837 5.46461 5.0765 5.68083 4.8025C5.69326 4.78675 5.70509 4.77176 5.7162 4.75756C5.96662 4.4375 5.99631 4.36029 6.00222 4.29301C6.00696 4.20227 5.99575 4.13831 5.98291 4.09488C5.96951 4.04954 5.95083 4.01484 5.9316 3.98795C5.91148 3.95981 5.89049 3.93997 5.87549 3.92834C5.87438 3.92748 5.87335 3.9267 5.8724 3.926C5.37457 3.72332 5.12424 3.16042 5.31228 2.65271ZM5.86478 3.9208C5.86479 3.92078 5.86537 3.92111 5.86647 3.92183C5.86532 3.92117 5.86477 3.92081 5.86478 3.9208Z" fill="black"/>
</svg>
