<svg width="24" height="24" viewBox="0 0 24 24" fill="none" xmlns="http://www.w3.org/2000/svg">
<path fill-rule="evenodd" clip-rule="evenodd" d="M11.4742 1.14935C11.7691 0.967144 12.1372 0.95058 12.4472 1.10557L18.4472 4.10557C18.786 4.27497 19 4.62123 19 5C19 5.37877 18.786 5.72504 18.4472 5.89443L13 8.61804V12C13 12.5523 12.5523 13 12 13C11.4477 13 11 12.5523 11 12V8.02167C10.9997 8.00772 10.9997 7.99379 11 7.97988V2C11 1.65342 11.1794 1.33156 11.4742 1.14935ZM13 6.38197L15.7639 5L13 3.61803V6.38197Z" fill="black"/>
<path fill-rule="evenodd" clip-rule="evenodd" d="M8.86843 11.4942C9.14225 11.9739 8.97541 12.5847 8.49579 12.8585L2.99579 15.9985C2.99532 15.9987 2.99484 15.999 2.99437 15.9993L2.99304 16C2.99415 16.0007 2.99525 16.0013 2.99635 16.0019L11.4964 20.8619C11.4976 20.8626 11.4988 20.8633 11.5 20.864C11.652 20.9518 11.8245 20.998 12 20.998C12.1755 20.998 12.348 20.9518 12.5 20.864C12.5012 20.8633 12.5024 20.8626 12.5036 20.8619L21.0036 16.0019C21.0047 16.0013 21.0058 16.0007 21.0069 16L21.0054 15.9992L15.5054 12.8692C15.0254 12.596 14.8577 11.9854 15.1309 11.5054C15.404 11.0254 16.0146 10.8578 16.4946 11.1309L21.993 14.26C21.9934 14.2602 21.9937 14.2604 21.9941 14.2606C22.3014 14.435 22.5571 14.6878 22.735 14.9931C22.9131 15.2988 23.0069 15.6463 23.0069 16C23.0069 16.3538 22.9131 16.7013 22.735 17.007C22.5572 17.312 22.3018 17.5646 21.9948 17.739C21.9942 17.7394 21.9936 17.7397 21.993 17.74L13.5 22.5961C13.4993 22.5965 13.4986 22.5968 13.498 22.5972C13.0424 22.8598 12.5258 22.998 12 22.998C11.4742 22.998 10.9576 22.8598 10.502 22.5972C10.5013 22.5968 10.5007 22.5965 10.5 22.5961L2.00694 17.74C2.00633 17.7397 2.00572 17.7393 2.00511 17.739C1.69813 17.5646 1.44277 17.312 1.26501 17.007C1.08689 16.7013 0.993042 16.3538 0.993042 16C0.993042 15.6463 1.08689 15.2988 1.26501 14.9931C1.44282 14.688 1.69826 14.4354 2.00534 14.2609C2.00587 14.2606 2.00641 14.2603 2.00694 14.26L7.50419 11.1216C7.98382 10.8478 8.59461 11.0146 8.86843 11.4942Z" fill="black"/>
<path fill-rule="evenodd" clip-rule="evenodd" d="M5.62189 12.3537C5.896 11.8743 6.50688 11.7078 6.98635 11.9819L18.0063 18.2819C18.4858 18.556 18.6523 19.1669 18.3782 19.6463C18.1041 20.1258 17.4932 20.2923 17.0137 20.0182L5.99373 13.7182C5.51427 13.4441 5.34779 12.8332 5.62189 12.3537Z" fill="black"/>
<path fill-rule="evenodd" clip-rule="evenodd" d="M18.378 12.3534C18.6523 12.8327 18.4861 13.4437 18.0067 13.718L6.9967 20.018C6.51734 20.2923 5.90639 20.126 5.6321 19.6467C5.35781 19.1673 5.52404 18.5564 6.0034 18.2821L17.0134 11.9821C17.4928 11.7078 18.1037 11.874 18.378 12.3534Z" fill="black"/>
</svg>
