<svg width="24" height="24" viewBox="0 0 24 24" fill="none" xmlns="http://www.w3.org/2000/svg">
<path fill-rule="evenodd" clip-rule="evenodd" d="M6 20C6 19.4477 6.44772 19 7 19H17C17.5523 19 18 19.4477 18 20C18 20.5523 17.5523 21 17 21H7C6.44772 21 6 20.5523 6 20Z" fill="black"/>
<path fill-rule="evenodd" clip-rule="evenodd" d="M13.5215 9.14662C13.9927 9.43461 14.1413 10.0501 13.8533 10.5213C13.4407 11.1965 13.3364 11.8964 13.3753 12.6799C13.3952 13.0795 13.4518 13.4896 13.5218 13.9297C13.5385 14.0348 13.5563 14.1435 13.5745 14.2544C13.6295 14.5899 13.688 14.9466 13.7301 15.291C13.8432 16.2156 13.8743 17.2831 13.3831 18.3178C12.8828 19.3716 11.9247 20.2235 10.4138 20.9103C9.91102 21.1388 9.31817 20.9165 9.08963 20.4137C8.8611 19.9109 9.08342 19.3181 9.5862 19.0895C10.8253 18.5263 11.3422 17.9531 11.5763 17.4601C11.8195 16.9479 11.8443 16.3467 11.7449 15.5338C11.7082 15.2334 11.6593 14.9355 11.6063 14.6119C11.5868 14.4931 11.5668 14.3709 11.5466 14.2439C11.474 13.7876 11.4032 13.2906 11.3778 12.7793C11.3261 11.7409 11.4593 10.6033 12.1467 9.47845C12.4347 9.00719 13.0502 8.85863 13.5215 9.14662Z" fill="black"/>
<path fill-rule="evenodd" clip-rule="evenodd" d="M5.36665 9.42799C5.97474 10.8139 6.73699 11.5505 7.44722 11.9056C7.45625 11.9101 7.46521 11.9148 7.4741 11.9196C8.24391 12.3341 9.1502 12.4585 10.4277 12.3101C10.0164 11.3821 9.52215 10.6526 8.91183 10.2088C8.21956 9.70529 7.19576 9.28442 5.36665 9.42799ZM3.82421 7.6156C6.82467 7.07981 8.71815 7.59491 10.0882 8.59129C11.4522 9.58334 12.234 11.2396 12.7487 12.7838C12.8394 13.0559 12.8089 13.3539 12.6649 13.602C12.5209 13.85 12.2774 14.0244 11.9961 14.0806C9.93278 14.4933 8.14854 14.5486 6.53918 13.6876C5.02682 12.9258 3.79351 11.3561 3.04333 8.89119C2.9601 8.61773 2.99788 8.32171 3.14713 8.07792C3.29637 7.83412 3.54281 7.66585 3.82421 7.6156Z" fill="black"/>
<path fill-rule="evenodd" clip-rule="evenodd" d="M19.7094 3.29517C19.9062 3.49322 20.0112 3.76451 19.9991 4.04344C19.891 6.52901 19.2249 8.08937 18.0071 9.30711C17.981 9.3332 17.9535 9.35782 17.9247 9.38087C16.7186 10.3457 15.099 10.8909 13.0526 10.9986C12.7843 11.0127 12.5215 10.9183 12.3236 10.7365C12.1257 10.5548 12.0093 10.301 12.0006 10.0325C11.9481 8.41664 12.3864 6.82282 13.2577 5.46104C13.2871 5.41508 13.3202 5.3716 13.3567 5.33104C13.8728 4.75765 14.5267 4.18916 15.4513 3.75669C16.3706 3.32671 17.507 3.05461 18.963 3.00069C19.242 2.99035 19.5126 3.09712 19.7094 3.29517ZM14.8987 6.60823C14.4663 7.3048 14.1831 8.07947 14.0626 8.8834C15.1937 8.69614 16.0236 8.32672 16.6323 7.85311C17.238 7.23383 17.6895 6.44843 17.894 5.1049C17.2326 5.20817 16.7149 5.37362 16.2987 5.56831C15.7031 5.84689 15.2702 6.20616 14.8987 6.60823Z" fill="black"/>
</svg>
