<svg width="24" height="24" viewBox="0 0 24 24" fill="none" xmlns="http://www.w3.org/2000/svg">
<path fill-rule="evenodd" clip-rule="evenodd" d="M4 5C3.73478 5 3.48043 5.10536 3.29289 5.29289C3.10536 5.48043 3 5.73478 3 6V8C3 8.55228 2.55228 9 2 9C1.44772 9 1 8.55228 1 8V6C1 5.20435 1.31607 4.44129 1.87868 3.87868C2.44129 3.31607 3.20435 3 4 3H20C20.7956 3 21.5587 3.31607 22.1213 3.87868C22.6839 4.44129 23 5.20435 23 6V18C23 18.7957 22.6839 19.5587 22.1213 20.1213C21.5587 20.6839 20.7957 21 20 21H14C13.4477 21 13 20.5523 13 20C13 19.4477 13.4477 19 14 19H20C20.2652 19 20.5196 18.8946 20.7071 18.7071C20.8946 18.5196 21 18.2652 21 18V6C21 5.73478 20.8946 5.48043 20.7071 5.29289C20.5196 5.10536 20.2652 5 20 5H4Z" fill="black"/>
<path fill-rule="evenodd" clip-rule="evenodd" d="M1.00554 11.8945C1.06382 11.3453 1.55629 10.9473 2.10549 11.0056C4.38035 11.247 6.50368 12.2611 8.12128 13.8787C9.73888 15.4963 10.753 17.6196 10.9944 19.8945C11.0527 20.4437 10.6547 20.9361 10.1055 20.9944C9.55629 21.0527 9.06382 20.6547 9.00554 20.1055C8.81242 18.2856 8.00115 16.587 6.70707 15.2929C5.41298 13.9988 3.71432 13.1875 1.89443 12.9944C1.34523 12.9361 0.947262 12.4437 1.00554 11.8945Z" fill="black"/>
<path fill-rule="evenodd" clip-rule="evenodd" d="M1.01696 15.8169C1.11808 15.274 1.6402 14.9158 2.18315 15.0169C3.37434 15.2388 4.47044 15.8161 5.32722 16.6729C6.184 17.5296 6.7613 18.6257 6.98315 19.8169C7.08427 20.3599 6.7261 20.882 6.18315 20.9831C5.6402 21.0842 5.11808 20.7261 5.01696 20.1831C4.86906 19.389 4.48419 18.6583 3.91301 18.0871C3.34182 17.5159 2.61108 17.131 1.81696 16.9831C1.27401 16.882 0.91584 16.3599 1.01696 15.8169Z" fill="black"/>
<path fill-rule="evenodd" clip-rule="evenodd" d="M1 20C1 19.4477 1.44772 19 2 19H2.01C2.56228 19 3.01 19.4477 3.01 20C3.01 20.5523 2.56228 21 2.01 21H2C1.44772 21 1 20.5523 1 20Z" fill="black"/>
</svg>
