<svg width="24" height="24" viewBox="0 0 24 24" fill="none" xmlns="http://www.w3.org/2000/svg">
<g clip-path="url(#clip0_11_34087)">
<path fill-rule="evenodd" clip-rule="evenodd" d="M12 10C10.8954 10 10 10.8954 10 12C10 13.1046 10.8954 14 12 14C13.1046 14 14 13.1046 14 12C14 10.8954 13.1046 10 12 10ZM8 12C8 9.79086 9.79086 8 12 8C14.2091 8 16 9.79086 16 12C16 14.2091 14.2091 16 12 16C9.79086 16 8 14.2091 8 12Z" fill="black"/>
<path fill-rule="evenodd" clip-rule="evenodd" d="M19 4C18.4477 4 18 4.44772 18 5C18 5.55228 18.4477 6 19 6C19.5523 6 20 5.55228 20 5C20 4.44772 19.5523 4 19 4ZM16 5C16 3.34315 17.3431 2 19 2C20.6569 2 22 3.34315 22 5C22 6.65685 20.6569 8 19 8C17.3431 8 16 6.65685 16 5Z" fill="black"/>
<path fill-rule="evenodd" clip-rule="evenodd" d="M5 18C4.44772 18 4 18.4477 4 19C4 19.5523 4.44772 20 5 20C5.55228 20 6 19.5523 6 19C6 18.4477 5.55228 18 5 18ZM2 19C2 17.3431 3.34315 16 5 16C6.65685 16 8 17.3431 8 19C8 20.6569 6.65685 22 5 22C3.34315 22 2 20.6569 2 19Z" fill="black"/>
<path fill-rule="evenodd" clip-rule="evenodd" d="M19.7862 5.65203C20.2457 5.34561 20.8666 5.46968 21.173 5.92916C22.3622 7.71239 23.0046 9.8042 23.0211 11.9475C23.0376 14.0909 22.4276 16.1923 21.266 17.9937C20.1044 19.795 18.4419 21.2178 16.4826 22.087C14.5234 22.9563 12.353 23.2343 10.2379 22.8868C9.69294 22.7972 9.32374 22.2828 9.41329 21.7379C9.50283 21.1929 10.0172 20.8237 10.5622 20.9132C12.2927 21.1976 14.0685 20.9701 15.6715 20.2589C17.2745 19.5477 18.6348 18.3836 19.5852 16.9098C20.5356 15.436 21.0347 13.7166 21.0212 11.9629C21.0076 10.2093 20.4821 8.49783 19.5091 7.03882C19.2027 6.57934 19.3267 5.95846 19.7862 5.65203Z" fill="black"/>
<path fill-rule="evenodd" clip-rule="evenodd" d="M7.44928 1.96645C9.39004 1.08679 11.5445 0.789754 13.6509 1.11142C14.1969 1.19479 14.5719 1.70496 14.4885 2.25092C14.4051 2.79687 13.8949 3.17187 13.349 3.0885C11.6256 2.82532 9.86282 3.06835 8.27493 3.78807C6.68703 4.50778 5.34235 5.67319 4.40428 7.14269C3.46621 8.61219 2.97513 10.3225 2.99072 12.0658C3.0063 13.8091 3.52789 15.5104 4.49208 16.9629C4.79753 17.423 4.67213 18.0437 4.212 18.3491C3.75187 18.6545 3.13125 18.5292 2.8258 18.069C1.64734 16.2938 1.00985 14.2144 0.990796 12.0837C0.971745 9.95299 1.57195 7.86259 2.71848 6.06654C3.86502 4.27049 5.50852 2.8461 7.44928 1.96645Z" fill="black"/>
</g>
<defs>
<clipPath id="clip0_11_34087">
<rect width="24" height="24" fill="white"/>
</clipPath>
</defs>
</svg>
