<svg width="24" height="24" viewBox="0 0 24 24" fill="none" xmlns="http://www.w3.org/2000/svg">
<path fill-rule="evenodd" clip-rule="evenodd" d="M11.8788 11.8788C12.2694 11.4883 12.9025 11.4883 13.293 11.8788L19.707 18.2928C20.0976 18.6834 20.0976 19.3165 19.707 19.707C19.3165 20.0976 18.6834 20.0976 18.2928 19.707L11.8788 13.293C11.4883 12.9025 11.4883 12.2694 11.8788 11.8788Z" fill="black"/>
<path fill-rule="evenodd" clip-rule="evenodd" d="M4.06883 2.11237L20.0654 8.61096C20.3572 8.72987 20.6042 8.93769 20.7713 9.20492C20.9384 9.47215 21.017 9.78521 20.9961 10.0997C20.9752 10.4141 20.8557 10.714 20.6547 10.9568C20.4537 11.1995 20.1814 11.3728 19.8764 11.452L13.7505 13.0314C13.5739 13.0769 13.413 13.1699 13.2854 13.3003C13.1578 13.4306 13.0683 13.5934 13.0265 13.7709C13.0249 13.7779 13.0232 13.7849 13.0214 13.7918L11.4524 19.8748C11.4516 19.8777 11.4509 19.8805 11.4501 19.8833C11.3691 20.1865 11.1951 20.4566 10.9526 20.6557C10.71 20.8548 10.4112 20.973 10.0981 20.9935C9.78501 21.014 9.47334 20.9358 9.20693 20.77C8.94053 20.6042 8.73278 20.3591 8.61291 20.0691C8.61213 20.0672 8.61136 20.0653 8.6106 20.0635L2.11238 4.06883C1.99939 3.79656 1.96928 3.49692 2.02592 3.2075C2.08309 2.9154 2.22604 2.64697 2.43651 2.43651C2.64697 2.22604 2.9154 2.08309 3.2075 2.02592C3.49692 1.96928 3.79655 1.99939 4.06883 2.11237ZM4.40955 4.40953L9.89399 17.9088L11.0823 13.3016C11.2087 12.7734 11.4762 12.2893 11.8563 11.9011C12.2391 11.5101 12.7215 11.2313 13.2514 11.0947C13.2515 11.0947 13.2515 11.0947 13.2516 11.0947L17.9092 9.89376L4.40955 4.40953Z" fill="black"/>
</svg>
