<svg width="24" height="24" viewBox="0 0 24 24" fill="none" xmlns="http://www.w3.org/2000/svg">
<g clip-path="url(#clip0_11_51179)">
<path d="M4.34196 1.4082L22.373 19.4402C22.6544 19.7215 22.8125 20.103 22.8126 20.5009C22.8127 20.8987 22.6547 21.2803 22.3735 21.5617C22.0922 21.8431 21.7107 22.0012 21.3128 22.0013C20.915 22.0014 20.5334 21.8435 20.252 21.5622L15.656 16.9652L12.12 20.5002L4.34196 12.7222C2.87203 11.2525 2.03187 9.26834 1.99939 7.18995C1.96691 5.11156 2.74467 3.10213 4.16796 1.5872L4.34196 1.4082ZM4.58296 4.4782L4.53196 4.5882C4.04704 5.66026 3.88776 6.85115 4.0739 8.01296C4.26004 9.17477 4.78339 10.2563 5.57896 11.1232L5.75596 11.3082L12.119 17.6712L14.948 14.8432L4.58296 4.4782Z" fill="#09121F"/>
</g>
<defs>
<clipPath id="clip0_11_51179">
<rect width="24" height="24" fill="white"/>
</clipPath>
</defs>
</svg>
