<svg width="24" height="24" viewBox="0 0 24 24" fill="none" xmlns="http://www.w3.org/2000/svg">
<g clip-path="url(#clip0_11_48339)">
<path d="M12.0001 6.65404C12.8098 7.28958 13.4643 8.10099 13.914 9.02684C14.3638 9.95269 14.597 10.9687 14.5961 11.998C14.5967 13.027 14.3633 14.0427 13.9136 14.9681C13.4639 15.8936 12.8095 16.7047 12.0001 17.34C11.1906 16.7046 10.5362 15.8933 10.0864 14.9677C9.63668 14.042 9.40336 13.0262 9.40413 11.997C9.40336 10.9679 9.63668 9.95206 10.0864 9.02639C10.5362 8.10073 11.1906 7.28948 12.0001 6.65404ZM11.1301 6.07204C10.2731 6.80361 9.5851 7.71256 9.11375 8.73606C8.6424 9.75957 8.39892 10.8732 8.40013 12C8.39896 13.1264 8.64227 14.2395 9.11327 15.2627C9.58426 16.2858 10.2717 17.1945 11.1281 17.926C10.0935 18.5068 8.9249 18.8067 7.73846 18.7959C6.55203 18.7851 5.38908 18.4639 4.36523 17.8644C3.34137 17.2648 2.49227 16.4077 1.90233 15.3783C1.31238 14.3489 1.00214 13.183 1.00244 11.9965C1.00274 10.81 1.31357 9.64424 1.90404 8.61511C2.49451 7.58599 3.34404 6.72932 4.3682 6.13027C5.39235 5.53123 6.55546 5.21066 7.74191 5.20045C8.92835 5.19023 10.0968 5.49072 11.1311 6.07204H11.1301ZM12.8721 17.926C13.7286 17.1945 14.416 16.2858 14.887 15.2627C15.358 14.2395 15.6013 13.1264 15.6001 12C15.6013 10.8732 15.3578 9.75957 14.8865 8.73606C14.4151 7.71256 13.7272 6.80361 12.8701 6.07204C13.9044 5.49072 15.0729 5.19023 16.2593 5.20045C17.4458 5.21066 18.6089 5.53123 19.6331 6.13027C20.6572 6.72932 21.5067 7.58599 22.0972 8.61511C22.6877 9.64424 22.9985 10.81 22.9988 11.9965C22.9991 13.183 22.6889 14.3489 22.0989 15.3783C21.509 16.4077 20.6599 17.2648 19.636 17.8644C18.6122 18.4639 17.4492 18.7851 16.2628 18.7959C15.0763 18.8067 13.9077 18.5068 12.8731 17.926H12.8721Z" fill="#09121F"/>
</g>
<defs>
<clipPath id="clip0_11_48339">
<rect width="24" height="24" fill="white"/>
</clipPath>
</defs>
</svg>
