<svg width="24" height="24" viewBox="0 0 24 24" fill="none" xmlns="http://www.w3.org/2000/svg">
<g clip-path="url(#clip0_11_49059)">
<path d="M15.6251 14.6198C14.5181 16.2388 12.8971 17.0038 11.0001 17.0038C8.69605 17.0038 6.72405 15.2308 7.00705 12.8798C7.32205 10.2718 9.34705 9.14981 12.7151 8.7368C13.3161 8.66381 13.5651 8.6428 14.8621 8.5468L15.0001 8.5368V8.3218C15.0001 6.5258 13.9321 5.2998 12.5001 5.2998C11.0631 5.2998 10.0601 6.0468 9.44505 7.8258L7.55505 7.1738C8.44205 4.6038 10.1931 3.2998 12.5001 3.2998C15.1031 3.2998 17.0001 5.4778 17.0001 8.3218C17.0001 10.9708 17.1631 13.0778 17.4831 13.8788C17.8391 14.7708 17.9691 14.9958 18.3671 15.4918L16.8071 16.7428C16.2841 16.0908 16.0541 15.6938 15.6261 14.6208V14.6198H15.6251ZM21.2571 20.5448C20.9861 20.7448 20.5151 20.6258 20.7281 20.1048C20.9931 19.4568 21.2751 18.6968 20.9901 18.3528C20.7801 18.0978 20.5231 17.9708 19.9631 17.9708C19.5031 17.9708 19.2731 18.0308 18.9681 18.0508C18.7641 18.0638 18.6751 17.7538 18.8771 17.6108C19.1416 17.4213 19.4355 17.2767 19.7471 17.1828C20.8971 16.8388 22.2521 17.0278 22.4171 17.2658C22.7821 17.7958 22.2181 19.8348 21.2571 20.5458V20.5448ZM20.0751 19.4608C19.8154 19.712 19.538 19.9443 19.2451 20.1558C17.1231 21.7718 14.3751 22.6158 11.9871 22.6158C8.14405 22.6158 4.70705 20.8228 2.09905 17.8208C1.87605 17.5908 2.06105 17.2548 2.32205 17.4368C5.13205 19.5138 8.61005 20.7698 12.2111 20.7698C14.4761 20.7698 16.9191 20.2328 19.2461 19.0768C19.4081 19.0008 19.5901 18.8968 19.7491 18.8228C20.1161 18.6128 20.4391 19.1288 20.0751 19.4608ZM15.0101 10.5408C13.7521 10.6348 13.5141 10.6538 12.9581 10.7218C10.4061 11.0348 9.16105 11.7248 8.99305 13.1198C8.86705 14.1628 9.80305 15.0038 11.0001 15.0038C13.0391 15.0038 14.5171 13.7758 15.0221 10.5408H15.0101Z" fill="#09121F"/>
</g>
<defs>
<clipPath id="clip0_11_49059">
<rect width="24" height="24" fill="white"/>
</clipPath>
</defs>
</svg>
