<svg width="24" height="24" viewBox="0 0 24 24" fill="none" xmlns="http://www.w3.org/2000/svg">
<g clip-path="url(#clip0_11_47754)">
<path d="M4.00002 6.41408L0.757019 3.17208L2.17202 1.75708L5.41402 5.00008H20.656C20.8119 5.00007 20.9656 5.03649 21.1049 5.10645C21.2442 5.1764 21.3652 5.27794 21.4583 5.40298C21.5513 5.52801 21.6139 5.67306 21.6409 5.82657C21.668 5.98007 21.6588 6.13777 21.614 6.28708L19.214 14.2871C19.1523 14.4932 19.0257 14.6738 18.8531 14.8023C18.6806 14.9307 18.4712 15.0001 18.256 15.0001H6.00002V17.0001H17V19.0001H5.00002C4.7348 19.0001 4.48045 18.8947 4.29291 18.7072C4.10538 18.5197 4.00002 18.2653 4.00002 18.0001V6.41408ZM6.00002 7.00008V13.0001H17.512L19.312 7.00008H6.00002ZM5.50002 23.0001C5.10219 23.0001 4.72066 22.842 4.43936 22.5607C4.15805 22.2794 4.00002 21.8979 4.00002 21.5001C4.00002 21.1023 4.15805 20.7207 4.43936 20.4394C4.72066 20.1581 5.10219 20.0001 5.50002 20.0001C5.89784 20.0001 6.27938 20.1581 6.56068 20.4394C6.84198 20.7207 7.00002 21.1023 7.00002 21.5001C7.00002 21.8979 6.84198 22.2794 6.56068 22.5607C6.27938 22.842 5.89784 23.0001 5.50002 23.0001ZM17.5 23.0001C17.1022 23.0001 16.7207 22.842 16.4394 22.5607C16.1581 22.2794 16 21.8979 16 21.5001C16 21.1023 16.1581 20.7207 16.4394 20.4394C16.7207 20.1581 17.1022 20.0001 17.5 20.0001C17.8978 20.0001 18.2794 20.1581 18.5607 20.4394C18.842 20.7207 19 21.1023 19 21.5001C19 21.8979 18.842 22.2794 18.5607 22.5607C18.2794 22.842 17.8978 23.0001 17.5 23.0001Z" fill="#09121F"/>
</g>
<defs>
<clipPath id="clip0_11_47754">
<rect width="24" height="24" fill="white"/>
</clipPath>
</defs>
</svg>
