<svg width="24" height="24" viewBox="0 0 24 24" fill="none" xmlns="http://www.w3.org/2000/svg">
<g clip-path="url(#clip0_11_48589)">
<path d="M20.4618 3.22998C20.6148 3.22998 20.7688 3.30798 20.8458 3.38498C20.8836 3.45593 20.9034 3.53509 20.9034 3.61548C20.9034 3.69588 20.8836 3.77504 20.8458 3.84598L14.7688 14.616L18.6148 21.692C18.6528 21.7631 18.6727 21.8424 18.6727 21.923C18.6727 22.0036 18.6528 22.0829 18.6148 22.154C18.5097 22.2501 18.3732 22.3049 18.2308 22.308H15.4608C15.0768 22.308 14.8458 22 14.6918 21.769L10.7688 14.615C10.9998 14.308 16.9228 3.76998 16.9228 3.76998C17.0768 3.46298 17.3078 3.23198 17.6928 3.23198H20.4618V3.22998ZM8.9228 6.99998C9.30781 6.99998 9.5378 7.30798 9.6928 7.53798L11.6148 10.846C11.4618 11 8.6148 16.076 8.6148 16.076C8.4618 16.308 8.2308 16.616 7.8458 16.616H5.1538C5.01103 16.6131 4.87418 16.5584 4.7688 16.462C4.73081 16.3909 4.71094 16.3116 4.71094 16.231C4.71094 16.1504 4.73081 16.0711 4.7688 16L7.6148 10.846L5.7688 7.61598C5.73081 7.54491 5.71094 7.46557 5.71094 7.38498C5.71094 7.30439 5.73081 7.22505 5.7688 7.15398C5.87418 7.0576 6.01103 7.00286 6.1538 6.99998H8.9238H8.9228Z" fill="#09121F"/>
</g>
<defs>
<clipPath id="clip0_11_48589">
<rect width="24" height="24" fill="white"/>
</clipPath>
</defs>
</svg>
