<svg width="24" height="24" viewBox="0 0 24 24" fill="none" xmlns="http://www.w3.org/2000/svg">
<g clip-path="url(#clip0_11_48704)">
<path d="M8.66698 11.511C8.49789 11.5121 8.33026 11.4797 8.17382 11.4156C8.01737 11.3514 7.87524 11.2568 7.75568 11.1373C7.63611 11.0177 7.54151 10.8756 7.47735 10.7191C7.4132 10.5627 7.38078 10.395 7.38198 10.226C7.38198 9.50795 7.94898 8.93995 8.66698 8.93995C9.38398 8.93995 9.95198 9.50795 9.95198 10.226C9.95198 10.943 9.38398 11.511 8.66698 11.511ZM15.333 11.511C15.1639 11.5121 14.9963 11.4797 14.8398 11.4156C14.6834 11.3514 14.5412 11.2568 14.4217 11.1373C14.3021 11.0177 14.2075 10.8756 14.1434 10.7191C14.0792 10.5627 14.0468 10.395 14.048 10.226C14.048 9.50795 14.616 8.93995 15.333 8.93995C16.051 8.93995 16.618 9.50795 16.618 10.226C16.618 10.943 16.051 11.511 15.333 11.511ZM6.82298 19.215L7.53798 18.779C8.34761 18.2853 9.30628 18.0953 10.243 18.243C10.455 18.276 10.629 18.302 10.763 18.319C11.169 18.373 11.583 18.4 12 18.4C16.42 18.4 19.9 15.378 19.9 11.8C19.9 8.22195 16.42 5.19995 12 5.19995C7.57998 5.19995 4.09998 8.22195 4.09998 11.8C4.09998 13.166 4.59998 14.473 5.53198 15.581C5.57998 15.638 5.65198 15.718 5.74598 15.816C6.13905 16.2253 6.44051 16.7136 6.63034 17.2485C6.82017 17.7833 6.89402 18.3524 6.84698 18.918L6.82198 19.215H6.82298ZM6.19298 21.9419C6.03569 22.0404 5.85413 22.0931 5.6686 22.0942C5.48307 22.0953 5.30089 22.0448 5.14243 21.9483C4.98397 21.8518 4.85548 21.7131 4.77134 21.5477C4.6872 21.3824 4.65072 21.1969 4.66598 21.0119L4.85398 18.752C4.87756 18.4692 4.84072 18.1847 4.74589 17.9173C4.65106 17.6498 4.50042 17.4057 4.30398 17.201C4.19909 17.0932 4.0977 16.9822 3.99998 16.868C2.80598 15.447 2.09998 13.695 2.09998 11.8C2.09998 7.04995 6.53198 3.19995 12 3.19995C17.468 3.19995 21.9 7.04995 21.9 11.8C21.9 16.55 17.468 20.4 12 20.4C11.49 20.4 10.99 20.367 10.501 20.302C10.311 20.2763 10.1213 20.2483 9.93198 20.218C9.46347 20.144 8.98393 20.239 8.57898 20.486L6.19198 21.9419H6.19298Z" fill="#09121F"/>
</g>
<defs>
<clipPath id="clip0_11_48704">
<rect width="24" height="24" fill="white"/>
</clipPath>
</defs>
</svg>
