<svg width="24" height="24" viewBox="0 0 24 24" fill="none" xmlns="http://www.w3.org/2000/svg">
<g clip-path="url(#clip0_11_53194)">
<path d="M6.34288 14.6209L3.51488 17.4499L7.04988 20.9849L20.4849 7.54988L16.9499 4.01488L14.8279 6.13588L16.2429 7.54988L14.8279 8.96388L13.4139 7.54988L11.2929 9.67188L13.4139 11.7919L11.9999 13.2079L9.87888 11.0869L7.75688 13.2079L9.17188 14.6219L7.75688 16.0369L6.34288 14.6219V14.6209ZM17.6569 1.89288L22.6069 6.84288C22.7944 7.03041 22.8997 7.28472 22.8997 7.54988C22.8997 7.81505 22.7944 8.06936 22.6069 8.25688L7.75688 23.1069C7.56936 23.2944 7.31505 23.3997 7.04988 23.3997C6.78472 23.3997 6.53041 23.2944 6.34288 23.1069L1.39288 18.1569C1.20541 17.9694 1.1001 17.715 1.1001 17.4499C1.1001 17.1847 1.20541 16.9304 1.39288 16.7429L16.2429 1.89288C16.4304 1.70541 16.6847 1.6001 16.9499 1.6001C17.215 1.6001 17.4694 1.70541 17.6569 1.89288Z" fill="#09121F"/>
</g>
<defs>
<clipPath id="clip0_11_53194">
<rect width="24" height="24" fill="white"/>
</clipPath>
</defs>
</svg>
