<svg width="24" height="24" viewBox="0 0 24 24" fill="none" xmlns="http://www.w3.org/2000/svg">
<g clip-path="url(#clip0_11_53204)">
<path d="M10 5.99992C10 6.73192 9.80301 7.41892 9.46001 8.00992L12 10.5849L18.728 3.85692C19.1031 3.48198 19.6117 3.27135 20.142 3.27135C20.6723 3.27135 21.181 3.48198 21.556 3.85692L9.44601 15.9669C9.9405 16.8056 10.1121 17.7958 9.92877 18.752C9.7454 19.7081 9.21959 20.5646 8.44992 21.1608C7.68024 21.757 6.71954 22.052 5.74789 21.9906C4.77625 21.9291 3.86037 21.5154 3.17194 20.827C2.48351 20.1386 2.06979 19.2227 2.00834 18.251C1.94689 17.2794 2.24192 16.3187 2.83814 15.549C3.43435 14.7793 4.29081 14.2535 5.24697 14.0701C6.20313 13.8868 7.19335 14.0584 8.03201 14.5529L10.586 11.9999L8.03201 9.44592C7.2722 9.89402 6.38559 10.0784 5.51013 9.97038C4.63467 9.86235 3.81947 9.46796 3.1914 8.8486C2.56332 8.22923 2.15759 7.41962 2.03734 6.54576C1.9171 5.67189 2.08909 4.78279 2.52654 4.0168C2.96399 3.25082 3.64237 2.65091 4.45612 2.31045C5.26986 1.96998 6.17333 1.90805 7.02592 2.13429C7.87851 2.36053 8.63241 2.86225 9.17029 3.56138C9.70818 4.2605 9.99988 5.11782 10 5.99992ZM8.00001 5.99992C8.00001 5.46949 7.78929 4.96078 7.41422 4.5857C7.03915 4.21063 6.53044 3.99992 6.00001 3.99992C5.46957 3.99992 4.96086 4.21063 4.58579 4.5857C4.21072 4.96078 4.00001 5.46949 4.00001 5.99992C4.00001 6.53035 4.21072 7.03906 4.58579 7.41413C4.96086 7.7892 5.46957 7.99992 6.00001 7.99992C6.53044 7.99992 7.03915 7.7892 7.41422 7.41413C7.78929 7.03906 8.00001 6.53035 8.00001 5.99992ZM21.556 20.1419C21.181 20.5169 20.6723 20.7275 20.142 20.7275C19.6117 20.7275 19.1031 20.5169 18.728 20.1419L13.411 14.8259L14.826 13.4109L21.556 20.1419ZM16 10.9999H18V12.9999H16V10.9999ZM20 10.9999H22V12.9999H20V10.9999ZM6.00001 10.9999H8.00001V12.9999H6.00001V10.9999ZM2.00001 10.9999H4.00001V12.9999H2.00001V10.9999ZM6.00001 19.9999C6.53044 19.9999 7.03915 19.7892 7.41422 19.4141C7.78929 19.0391 8.00001 18.5304 8.00001 17.9999C8.00001 17.4695 7.78929 16.9608 7.41422 16.5857C7.03915 16.2106 6.53044 15.9999 6.00001 15.9999C5.46957 15.9999 4.96086 16.2106 4.58579 16.5857C4.21072 16.9608 4.00001 17.4695 4.00001 17.9999C4.00001 18.5304 4.21072 19.0391 4.58579 19.4141C4.96086 19.7892 5.46957 19.9999 6.00001 19.9999Z" fill="#09121F"/>
</g>
<defs>
<clipPath id="clip0_11_53204">
<rect width="24" height="24" fill="white"/>
</clipPath>
</defs>
</svg>
