<svg width="24" height="24" viewBox="0 0 24 24" fill="none" xmlns="http://www.w3.org/2000/svg">
<g clip-path="url(#clip0_11_44833)">
<path d="M7.10495 8.79007C7.27841 9.42491 7.65575 9.98513 8.17885 10.3845C8.70196 10.7838 9.34184 11.0001 9.99995 11.0001H13.9999C15.178 11.0002 16.3182 11.4161 17.2195 12.1746C18.1209 12.9331 18.7255 13.9854 18.9269 15.1461C19.6056 15.3675 20.1832 15.8236 20.5558 16.4326C20.9285 17.0415 21.0719 17.7633 20.9602 18.4684C20.8486 19.1736 20.4892 19.8158 19.9466 20.2798C19.4041 20.7438 18.7139 20.9992 17.9999 21.0001C17.3015 21.0006 16.6247 20.7574 16.0863 20.3124C15.548 19.8674 15.1817 19.2485 15.0508 18.5625C14.9199 17.8764 15.0324 17.1661 15.3691 16.5541C15.7057 15.9421 16.2454 15.4668 16.8949 15.2101C16.7215 14.5752 16.3441 14.015 15.821 13.6157C15.2979 13.2164 14.6581 13 13.9999 13.0001H9.99995C8.91784 13.0017 7.86468 12.6506 6.99995 12.0001V15.1701C7.66744 15.406 8.23004 15.8703 8.58831 16.4809C8.94657 17.0915 9.07743 17.8091 8.95776 18.5069C8.83808 19.2046 8.47558 19.8376 7.93432 20.2939C7.39306 20.7503 6.7079 21.0006 5.99995 21.0006C5.29199 21.0006 4.60683 20.7503 4.06557 20.2939C3.52431 19.8376 3.16181 19.2046 3.04213 18.5069C2.92246 17.8091 3.05332 17.0915 3.41159 16.4809C3.76985 15.8703 4.33245 15.406 4.99995 15.1701V8.83007C4.33692 8.59598 3.77715 8.13651 3.4183 7.53184C3.05945 6.92717 2.92432 6.21569 3.03648 5.52156C3.14864 4.82742 3.50098 4.19471 4.032 3.73383C4.56303 3.27295 5.23903 3.01317 5.94204 2.99981C6.64505 2.98645 7.33043 3.22037 7.87858 3.66074C8.42673 4.10111 8.80285 4.71998 8.9413 5.40935C9.07975 6.09872 8.97175 6.81482 8.63613 7.43269C8.30051 8.05056 7.7586 8.53096 7.10495 8.79007ZM5.99995 7.00007C6.26516 7.00007 6.51952 6.89471 6.70705 6.70718C6.89459 6.51964 6.99995 6.26529 6.99995 6.00007C6.99995 5.73485 6.89459 5.4805 6.70705 5.29296C6.51952 5.10543 6.26516 5.00007 5.99995 5.00007C5.73473 5.00007 5.48038 5.10543 5.29284 5.29296C5.1053 5.4805 4.99995 5.73485 4.99995 6.00007C4.99995 6.26529 5.1053 6.51964 5.29284 6.70718C5.48038 6.89471 5.73473 7.00007 5.99995 7.00007ZM5.99995 19.0001C6.26516 19.0001 6.51952 18.8947 6.70705 18.7072C6.89459 18.5196 6.99995 18.2653 6.99995 18.0001C6.99995 17.7349 6.89459 17.4805 6.70705 17.293C6.51952 17.1054 6.26516 17.0001 5.99995 17.0001C5.73473 17.0001 5.48038 17.1054 5.29284 17.293C5.1053 17.4805 4.99995 17.7349 4.99995 18.0001C4.99995 18.2653 5.1053 18.5196 5.29284 18.7072C5.48038 18.8947 5.73473 19.0001 5.99995 19.0001ZM17.9999 19.0001C18.2652 19.0001 18.5195 18.8947 18.7071 18.7072C18.8946 18.5196 18.9999 18.2653 18.9999 18.0001C18.9999 17.7349 18.8946 17.4805 18.7071 17.293C18.5195 17.1054 18.2652 17.0001 17.9999 17.0001C17.7347 17.0001 17.4804 17.1054 17.2928 17.293C17.1053 17.4805 16.9999 17.7349 16.9999 18.0001C16.9999 18.2653 17.1053 18.5196 17.2928 18.7072C17.4804 18.8947 17.7347 19.0001 17.9999 19.0001Z" fill="#09121F"/>
</g>
<defs>
<clipPath id="clip0_11_44833">
<rect width="24" height="24" fill="white"/>
</clipPath>
</defs>
</svg>
