<svg width="24" height="24" viewBox="0 0 24 24" fill="none" xmlns="http://www.w3.org/2000/svg">
<g clip-path="url(#clip0_11_54544)">
<path d="M17 17.9998V15.9998H17.5C18.077 15.9998 18.6451 15.857 19.1536 15.5843C19.6621 15.3116 20.0953 14.9174 20.4147 14.4367C20.734 13.9561 20.9296 13.404 20.9839 12.8295C21.0383 12.255 20.9497 11.676 20.7262 11.1441C20.5027 10.6121 20.1511 10.1436 19.7028 9.78035C19.2544 9.4171 18.7232 9.17034 18.1564 9.06204C17.5896 8.95373 17.0049 8.98724 16.4541 9.15958C15.9034 9.33192 15.4039 9.63775 15 10.0498V9.99983C14.9996 8.89993 14.6969 7.8213 14.1249 6.88182C13.5529 5.94234 12.7337 5.17816 11.7568 4.6728C10.7798 4.16743 9.68278 3.94033 8.5855 4.01631C7.48823 4.09229 6.43295 4.46843 5.535 5.10362C4.63705 5.73881 3.93097 6.60861 3.49394 7.61796C3.05691 8.62731 2.90574 9.73737 3.05694 10.8268C3.20815 11.9163 3.65592 12.9432 4.35132 13.7954C5.04671 14.6476 5.96298 15.2922 6.99998 15.6588V17.7478C5.67369 17.4046 4.45775 16.7266 3.46867 15.7787C2.4796 14.8307 1.75052 13.6447 1.3513 12.3342C0.952078 11.0237 0.896088 9.6326 1.1887 8.29424C1.4813 6.95588 2.1127 5.71509 3.0224 4.69074C3.93209 3.6664 5.0896 2.89282 6.38402 2.44415C7.67844 1.99547 9.06639 1.88672 10.4149 2.12831C11.7634 2.36991 13.0273 2.95375 14.0854 3.82391C15.1435 4.69407 15.9605 5.82138 16.458 7.09783C17.21 6.95394 17.9838 6.96866 18.7299 7.14105C19.4759 7.31344 20.1777 7.63969 20.7904 8.09894C21.403 8.55818 21.9131 9.1403 22.2878 9.80801C22.6626 10.4757 22.8938 11.2143 22.9666 11.9765C23.0395 12.7388 22.9524 13.5078 22.7109 14.2344C22.4694 14.961 22.0789 15.6292 21.5643 16.1962C21.0497 16.7632 20.4224 17.2165 19.7225 17.527C19.0227 17.8376 18.2657 17.9987 17.5 17.9998L17 18.0008V17.9998ZM13 16.0048H16L11 22.5048V18.0048H7.99998L13 11.4998V16.0048Z" fill="#09121F"/>
</g>
<defs>
<clipPath id="clip0_11_54544">
<rect width="24" height="24" fill="white"/>
</clipPath>
</defs>
</svg>
