<svg width="24" height="24" viewBox="0 0 24 24" fill="none" xmlns="http://www.w3.org/2000/svg">
<g clip-path="url(#clip0_11_48454)">
<path d="M6.52702 14.5138C6.52517 15.0348 6.31731 15.5339 5.9488 15.9023C5.58028 16.2706 5.08104 16.4782 4.56002 16.4798C4.03882 16.4782 3.53943 16.2704 3.17089 15.9019C2.80235 15.5334 2.5946 15.034 2.59302 14.5128C2.59302 13.4298 3.47702 12.5448 4.56002 12.5448H6.52802V14.5128L6.52702 14.5138ZM7.51902 14.5138C7.51902 13.4308 8.40302 12.5458 9.48602 12.5458C10.569 12.5458 11.454 13.4308 11.454 14.5138V19.4408C11.4524 19.9621 11.2446 20.4617 10.8758 20.8303C10.507 21.1988 10.0074 21.4065 9.48602 21.4078C8.96482 21.4062 8.46543 21.1984 8.09689 20.8299C7.72835 20.4614 7.5206 19.962 7.51902 19.4408V14.5138ZM9.48602 6.52677C8.965 6.52493 8.46586 6.31707 8.09753 5.94855C7.72921 5.58004 7.5216 5.08079 7.52002 4.55977C7.52002 3.47677 8.40402 2.59277 9.48702 2.59277C10.57 2.59277 11.455 3.47677 11.455 4.55977V6.52777H9.48602V6.52677ZM9.48602 7.51877C10.569 7.51877 11.454 8.40277 11.454 9.48577C11.4527 10.0073 11.2449 10.5071 10.8761 10.8759C10.5074 11.2447 10.0076 11.4525 9.48602 11.4538H4.56002C4.03865 11.4522 3.53911 11.2443 3.17054 10.8755C2.80197 10.5068 2.59434 10.0071 2.59302 9.48577C2.59302 8.40277 3.47702 7.51877 4.56002 7.51877H9.48702H9.48602ZM17.473 9.48577C17.473 8.40277 18.358 7.51877 19.441 7.51877C20.524 7.51877 21.408 8.40277 21.408 9.48577C21.4067 10.0071 21.1991 10.5068 20.8305 10.8755C20.4619 11.2443 19.9624 11.4522 19.441 11.4538H17.473V9.48577ZM16.481 9.48577C16.4797 10.0071 16.2721 10.5068 15.9035 10.8755C15.5349 11.2443 15.0354 11.4522 14.514 11.4538C13.9925 11.4525 13.4927 11.2447 13.1239 10.8759C12.7551 10.5071 12.5473 10.0073 12.546 9.48577V4.55977C12.546 3.47677 13.431 2.59277 14.514 2.59277C15.597 2.59277 16.481 3.47677 16.481 4.55977V9.48677V9.48577ZM14.514 17.4728C15.597 17.4728 16.481 18.3578 16.481 19.4408C16.4794 19.962 16.2717 20.4614 15.9031 20.8299C15.5346 21.1984 15.0352 21.4062 14.514 21.4078C13.9926 21.4065 13.493 21.1988 13.1242 20.8303C12.7555 20.4617 12.5476 19.9621 12.546 19.4408V17.4728H14.514ZM14.514 16.4808C13.9926 16.4795 13.493 16.2718 13.1242 15.9033C12.7555 15.5347 12.5476 15.0351 12.546 14.5138C12.546 13.4308 13.431 12.5458 14.514 12.5458H19.441C20.524 12.5458 21.408 13.4308 21.408 14.5138C21.4064 15.035 21.1987 15.5344 20.8301 15.9029C20.4616 16.2714 19.9622 16.4792 19.441 16.4808H14.514Z" fill="#09121F"/>
</g>
<defs>
<clipPath id="clip0_11_48454">
<rect width="24" height="24" fill="white"/>
</clipPath>
</defs>
</svg>
