<svg width="24" height="24" viewBox="0 0 24 24" fill="none" xmlns="http://www.w3.org/2000/svg">
<g clip-path="url(#clip0_11_54404)">
<path d="M14 18.0002V16.0002H17.5C18.077 16.0001 18.6451 15.8573 19.1536 15.5846C19.6622 15.3119 20.0954 14.9177 20.4147 14.4371C20.734 13.9564 20.9296 13.4043 20.9839 12.8298C21.0383 12.2554 20.9498 11.6764 20.7262 11.1444C20.5027 10.6124 20.1511 10.1439 19.7028 9.78068C19.2544 9.41743 18.7232 9.17067 18.1564 9.06236C17.5896 8.95405 17.0049 8.98756 16.4542 9.1599C15.9035 9.33224 15.4039 9.63807 15 10.0502V10.0002C15 8.40886 14.3679 6.88273 13.2426 5.75751C12.1174 4.6323 10.5913 4.00016 9 4.00016C7.4087 4.00016 5.88258 4.6323 4.75736 5.75751C3.63214 6.88273 3 8.40886 3 10.0002V10.0072H1V10.0002C0.998489 8.13331 1.6499 6.32472 2.84144 4.88758C4.03297 3.45045 5.68959 2.47527 7.5244 2.13093C9.35922 1.78659 11.2567 2.09477 12.8882 3.00211C14.5197 3.90944 15.7826 5.35879 16.458 7.09916C17.2103 6.95445 17.9846 6.96852 18.7312 7.14046C19.4778 7.3124 20.1802 7.63843 20.7935 8.09764C21.4067 8.55685 21.9173 9.13912 22.2924 9.80713C22.6676 10.4751 22.899 11.2142 22.9719 11.9768C23.0448 12.7395 22.9575 13.5089 22.7158 14.2359C22.474 14.9629 22.083 15.6313 21.5678 16.1984C21.0527 16.7655 20.4247 17.2187 19.7242 17.529C19.0237 17.8392 18.2661 17.9997 17.5 18.0002H14ZM6 20.0002H16V22.0002H6V20.0002ZM6 12.0002H14V14.0002H6V12.0002ZM2 16.0002H12V18.0002H2V16.0002Z" fill="#09121F"/>
</g>
<defs>
<clipPath id="clip0_11_54404">
<rect width="24" height="24" fill="white"/>
</clipPath>
</defs>
</svg>
