<svg width="24" height="24" viewBox="0 0 24 24" fill="none" xmlns="http://www.w3.org/2000/svg">
<g clip-path="url(#clip0_11_50689)">
<path d="M19.5861 21.0001H3.00007C2.73485 21.0001 2.4805 20.8947 2.29296 20.7072C2.10542 20.5196 2.00007 20.2653 2.00007 20.0001V6.00007C2.00007 5.73485 2.10542 5.4805 2.29296 5.29296C2.4805 5.10542 2.73485 5.00007 3.00007 5.00007H3.58607L1.39307 2.80807L2.80807 1.39307L22.6071 21.1931L21.1921 22.6071L19.5861 21.0001ZM7.55607 8.97007C6.52191 10.1114 5.96627 11.6067 6.00418 13.1465C6.04208 14.6862 6.67064 16.1523 7.75972 17.2414C8.84879 18.3305 10.315 18.959 11.8547 18.997C13.3944 19.0349 14.8897 18.4792 16.0311 17.4451L14.6141 16.0281C13.8495 16.6891 12.863 17.0362 11.853 16.9996C10.8429 16.963 9.88416 16.5453 9.16948 15.8307C8.45479 15.116 8.03715 14.1572 8.00053 13.1472C7.96391 12.1371 8.31102 11.1506 8.97207 10.3861L7.55507 8.97007H7.55607ZM22.0001 17.7851L17.9551 13.7401C18.0678 12.8339 17.9723 11.914 17.6757 11.0504C17.3791 10.1867 16.8893 9.40219 16.2436 8.7565C15.5979 8.11082 14.8134 7.62103 13.9498 7.32444C13.0861 7.02786 12.1662 6.93231 11.2601 7.04507L8.10607 3.89207L9.00007 3.00007H15.0001L17.0001 5.00007H21.0001C21.2653 5.00007 21.5196 5.10542 21.7072 5.29296C21.8947 5.4805 22.0001 5.73485 22.0001 6.00007V17.7861V17.7851ZM13.5081 9.29307C14.0022 9.49485 14.4511 9.79319 14.8285 10.1706C15.2059 10.548 15.5043 10.9969 15.7061 11.4911L13.5081 9.29307Z" fill="#09121F"/>
</g>
<defs>
<clipPath id="clip0_11_50689">
<rect width="24" height="24" fill="white"/>
</clipPath>
</defs>
</svg>
