<svg width="24" height="24" viewBox="0 0 24 24" fill="none" xmlns="http://www.w3.org/2000/svg">
<g clip-path="url(#clip0_11_52904)">
<path d="M10.586 4.00008L8.757 2.17208L10.172 0.75708L14.414 5.00008L10.172 9.24308L8.757 7.82808L10.586 6.00008H8C7.20435 6.00008 6.44129 6.31615 5.87868 6.87876C5.31607 7.44137 5 8.20443 5 9.00008V13.0001H3V9.00008C3 7.674 3.52678 6.40223 4.46447 5.46455C5.40215 4.52686 6.67392 4.00008 8 4.00008H10.586ZM9 11.0001C9 10.7349 9.10536 10.4805 9.29289 10.293C9.48043 10.1054 9.73478 10.0001 10 10.0001H20C20.2652 10.0001 20.5196 10.1054 20.7071 10.293C20.8946 10.4805 21 10.7349 21 11.0001V21.0001C21 21.2653 20.8946 21.5197 20.7071 21.7072C20.5196 21.8947 20.2652 22.0001 20 22.0001H10C9.73478 22.0001 9.48043 21.8947 9.29289 21.7072C9.10536 21.5197 9 21.2653 9 21.0001V11.0001ZM11 12.0001V20.0001H19V12.0001H11Z" fill="#09121F"/>
</g>
<defs>
<clipPath id="clip0_11_52904">
<rect width="24" height="24" fill="white"/>
</clipPath>
</defs>
</svg>
