<svg width="24" height="24" viewBox="0 0 24 24" fill="none" xmlns="http://www.w3.org/2000/svg">
<g clip-path="url(#clip0_11_48174)">
<path d="M18.223 3.08592C18.3391 3.202 18.4312 3.33981 18.4941 3.49149C18.5569 3.64317 18.5892 3.80574 18.5892 3.96992C18.5892 4.1341 18.5569 4.29667 18.4941 4.44835C18.4312 4.60003 18.3391 4.73784 18.223 4.85392L17.08 5.99592H18.25C18.7425 5.99592 19.2303 6.09295 19.6853 6.28147C20.1403 6.46999 20.5538 6.7463 20.902 7.09462C21.2502 7.44295 21.5264 7.85646 21.7148 8.31155C21.9032 8.76664 22.0001 9.25438 22 9.74692V17.2469C22 18.2415 21.6049 19.1953 20.9017 19.8986C20.1984 20.6018 19.2446 20.9969 18.25 20.9969H5.75C4.75544 20.9969 3.80161 20.6018 3.09835 19.8986C2.39509 19.1953 2 18.2415 2 17.2469V9.74692C2 8.75236 2.39509 7.79853 3.09835 7.09527C3.80161 6.39201 4.75544 5.99692 5.75 5.99692H6.916L5.775 4.85492C5.65558 4.73965 5.56031 4.60174 5.49476 4.44926C5.42921 4.29677 5.39468 4.13275 5.39319 3.96678C5.3917 3.80081 5.42328 3.6362 5.48609 3.48256C5.54889 3.32892 5.64167 3.18933 5.759 3.07193C5.87634 2.95453 6.01587 2.86168 6.16948 2.79878C6.32308 2.73589 6.48767 2.70422 6.65364 2.70561C6.81962 2.70701 6.98365 2.74144 7.13618 2.80691C7.2887 2.87238 7.42666 2.96757 7.542 3.08692L10.194 5.73892C10.273 5.81792 10.339 5.90392 10.392 5.99592H13.605C13.658 5.90392 13.725 5.81592 13.804 5.73792L16.455 3.08592C16.5711 2.96981 16.7089 2.87771 16.8606 2.81487C17.0122 2.75203 17.1748 2.71969 17.339 2.71969C17.5032 2.71969 17.6658 2.75203 17.8174 2.81487C17.9691 2.87771 18.1069 2.96981 18.223 3.08592ZM18.25 8.50592H5.75C5.4345 8.5058 5.13062 8.625 4.89934 8.83959C4.66805 9.05418 4.52647 9.34829 4.503 9.66292L4.5 9.75692V17.2569C4.5 17.9159 5.01 18.4559 5.657 18.5029L5.75 18.5069H18.25C18.5655 18.507 18.8694 18.3878 19.1007 18.1733C19.3319 17.9587 19.4735 17.6645 19.497 17.3499L19.5 17.2569V9.75692C19.5 9.06692 18.94 8.50692 18.25 8.50692V8.50592ZM8.25 11.0059C8.94 11.0059 9.5 11.5659 9.5 12.2559V13.5059C9.5 13.8374 9.3683 14.1554 9.13388 14.3898C8.89946 14.6242 8.58152 14.7559 8.25 14.7559C7.91848 14.7559 7.60054 14.6242 7.36612 14.3898C7.1317 14.1554 7 13.8374 7 13.5059V12.2559C7 11.5659 7.56 11.0059 8.25 11.0059ZM15.75 11.0059C16.44 11.0059 17 11.5659 17 12.2559V13.5059C17 13.8374 16.8683 14.1554 16.6339 14.3898C16.3995 14.6242 16.0815 14.7559 15.75 14.7559C15.4185 14.7559 15.1005 14.6242 14.8661 14.3898C14.6317 14.1554 14.5 13.8374 14.5 13.5059V12.2559C14.5 11.5659 15.06 11.0059 15.75 11.0059Z" fill="#09121F"/>
</g>
<defs>
<clipPath id="clip0_11_48174">
<rect width="24" height="24" fill="white"/>
</clipPath>
</defs>
</svg>
