<svg width="24" height="24" viewBox="0 0 24 24" fill="none" xmlns="http://www.w3.org/2000/svg">
<g clip-path="url(#clip0_11_49759)">
<path d="M9.975 8.97513C10.4645 8.48563 10.7978 7.86199 10.9328 7.18306C11.0678 6.50414 10.9985 5.80043 10.7335 5.16091C10.4686 4.52139 10.02 3.97478 9.44446 3.59021C8.8689 3.20564 8.19222 3.00038 7.5 3.00038C6.80778 3.00038 6.13111 3.20564 5.55554 3.59021C4.97998 3.97478 4.53138 4.52139 4.26646 5.16091C4.00154 5.80043 3.93221 6.50414 4.06723 7.18306C4.20225 7.86199 4.53555 8.48563 5.025 8.97513L7.5 11.4501L9.975 8.97513ZM7.5 14.2781L3.61 10.3901C2.84107 9.62084 2.3175 8.64083 2.10549 7.574C1.89349 6.50718 2.00255 5.40144 2.41891 4.3966C2.83527 3.39175 3.54022 2.53292 4.44463 1.92869C5.34905 1.32446 6.41232 1.00195 7.5 1.00195C8.58769 1.00195 9.65096 1.32446 10.5554 1.92869C11.4598 2.53292 12.1647 3.39175 12.5811 4.3966C12.9975 5.40144 13.1065 6.50718 12.8945 7.574C12.6825 8.64083 12.1589 9.62084 11.39 10.3901L7.5 14.2801V14.2781ZM7.5 8.00013C7.10218 8.00013 6.72065 7.84209 6.43934 7.56079C6.15804 7.27948 6 6.89795 6 6.50013C6 6.1023 6.15804 5.72077 6.43934 5.43947C6.72065 5.15816 7.10218 5.00013 7.5 5.00013C7.89783 5.00013 8.27936 5.15816 8.56066 5.43947C8.84197 5.72077 9 6.1023 9 6.50013C9 6.89795 8.84197 7.27948 8.56066 7.56079C8.27936 7.84209 7.89783 8.00013 7.5 8.00013ZM16.5 20.4501L18.975 17.9751C19.4645 17.4856 19.7978 16.862 19.9328 16.1831C20.0678 15.5041 19.9985 14.8004 19.7335 14.1609C19.4686 13.5214 19.02 12.9748 18.4445 12.5902C17.8689 12.2056 17.1922 12.0004 16.5 12.0004C15.8078 12.0004 15.1311 12.2056 14.5555 12.5902C13.98 12.9748 13.5314 13.5214 13.2665 14.1609C13.0015 14.8004 12.9322 15.5041 13.0672 16.1831C13.2022 16.862 13.5356 17.4856 14.025 17.9751L16.5 20.4501ZM20.39 19.3901L16.5 23.2781L12.61 19.3891C11.8411 18.6198 11.3175 17.6398 11.1055 16.573C10.8935 15.5062 11.0026 14.4004 11.4189 13.3956C11.8353 12.3908 12.5402 11.5319 13.4446 10.9277C14.349 10.3235 15.4123 10.001 16.5 10.001C17.5877 10.001 18.651 10.3235 19.5554 10.9277C20.4598 11.5319 21.1647 12.3908 21.5811 13.3956C21.9974 14.4004 22.1065 15.5062 21.8945 16.573C21.6825 17.6398 21.1589 18.6198 20.39 19.3891V19.3901ZM16.5 17.0001C16.1022 17.0001 15.7206 16.8421 15.4393 16.5608C15.158 16.2795 15 15.898 15 15.5001C15 15.1023 15.158 14.7208 15.4393 14.4395C15.7206 14.1582 16.1022 14.0001 16.5 14.0001C16.8978 14.0001 17.2794 14.1582 17.5607 14.4395C17.842 14.7208 18 15.1023 18 15.5001C18 15.898 17.842 16.2795 17.5607 16.5608C17.2794 16.8421 16.8978 17.0001 16.5 17.0001Z" fill="#09121F"/>
</g>
<defs>
<clipPath id="clip0_11_49759">
<rect width="24" height="24" fill="white"/>
</clipPath>
</defs>
</svg>
