<svg width="24" height="24" viewBox="0 0 24 24" fill="none" xmlns="http://www.w3.org/2000/svg">
<g clip-path="url(#clip0_11_49239)">
<path d="M5.49986 19.9998C6.32786 19.9998 6.99986 20.6718 6.99986 21.4998C6.99986 22.3278 6.32786 22.9998 5.49986 22.9998C4.67186 22.9998 3.99986 22.3278 3.99986 21.4998C3.99986 20.6718 4.67186 19.9998 5.49986 19.9998ZM18.4999 19.9998C19.3279 19.9998 19.9999 20.6718 19.9999 21.4998C19.9999 22.3278 19.3279 22.9998 18.4999 22.9998C17.6719 22.9998 16.9999 22.3278 16.9999 21.4998C16.9999 20.6718 17.6719 19.9998 18.4999 19.9998ZM2.17186 1.75684L5.99886 5.58484V16.9998H19.9999V18.9998H4.99986C4.44786 18.9998 3.99986 18.5518 3.99986 17.9998V6.41284L0.755859 3.17184L2.17086 1.75684H2.17186ZM15.9999 2.99984C16.5519 2.99984 16.9999 3.44784 16.9999 3.99984V5.99984H19.9929C20.5499 5.99984 20.9999 6.45584 20.9999 6.99484V15.0048C20.9999 15.5548 20.5499 15.9998 19.9929 15.9998H8.00686C7.44986 15.9998 6.99986 15.5438 6.99986 15.0048V6.99484C6.99986 6.44484 7.44986 5.99984 8.00686 5.99984H10.9989L10.9999 3.99984C10.9999 3.44784 11.4479 2.99984 11.9999 2.99984H15.9999ZM10.9999 7.99984H9.99986V13.9998H10.9999V7.99984ZM17.9999 7.99984H16.9999V13.9998H17.9999V7.99984ZM14.9999 4.99984H12.9999V5.99984H14.9999V4.99984Z" fill="#09121F"/>
</g>
<defs>
<clipPath id="clip0_11_49239">
<rect width="24" height="24" fill="white"/>
</clipPath>
</defs>
</svg>
