<svg width="24" height="24" viewBox="0 0 24 24" fill="none" xmlns="http://www.w3.org/2000/svg">
<g clip-path="url(#clip0_11_48899)">
<path d="M12.344 17.963L10.656 19.037L8.52496 15.687C8.08496 17.089 7.35296 18.352 6.38596 19.512C5.98396 19.995 5.56596 20.43 5.08496 20.887C4.92996 21.034 4.30996 21.604 4.20696 21.707L2.79296 20.293C2.93196 20.154 3.57996 19.558 3.70796 19.437C4.13796 19.029 4.50296 18.647 4.84996 18.231C6.11596 16.713 6.87996 15.021 6.98696 13H2.99996V11H6.99996V6.99996H6.13196C5.44296 8.26596 4.57396 9.22196 3.51396 9.85696L2.48596 8.14296C3.88096 7.30496 4.91096 5.53896 5.52396 2.78296L7.47596 3.21696C7.33596 3.84996 7.17296 4.44396 6.98696 4.99996H11.5V6.99996H8.99996V11H11.5V13H9.18496L12.344 17.963ZM16.182 17.893L17.298 17H19V6.99996H15V17H15.736L16.182 17.893ZM13 4.99996H21V19H18L15.5 21L14.5 19H13V4.99996Z" fill="#09121F"/>
</g>
<defs>
<clipPath id="clip0_11_48899">
<rect width="24" height="24" fill="white"/>
</clipPath>
</defs>
</svg>
