<svg width="24" height="24" viewBox="0 0 24 24" fill="none" xmlns="http://www.w3.org/2000/svg">
<g clip-path="url(#clip0_11_48324)">
<path d="M18.663 10.8398C18.6627 10.9791 18.6072 11.1126 18.5086 11.2111C18.41 11.3095 18.2763 11.3648 18.137 11.3648H16.675V12.3028H18.137C18.2078 12.2997 18.2785 12.311 18.3448 12.3359C18.4112 12.3609 18.4718 12.399 18.5229 12.448C18.5741 12.497 18.6149 12.5559 18.6427 12.6211C18.6706 12.6863 18.6849 12.7564 18.6849 12.8273C18.6849 12.8982 18.6706 12.9683 18.6427 13.0335C18.6149 13.0986 18.5741 13.1575 18.5229 13.2065C18.4718 13.2555 18.4112 13.2937 18.3448 13.3186C18.2785 13.3436 18.2078 13.3549 18.137 13.3518H16.15C16.0115 13.3507 15.8791 13.2951 15.7813 13.197C15.6836 13.0989 15.6285 12.9662 15.628 12.8278V8.85178C15.628 8.56478 15.863 8.32678 16.153 8.32678H18.141C18.2802 8.32717 18.4136 8.38287 18.5118 8.48161C18.61 8.58034 18.6649 8.71404 18.6645 8.85328C18.6641 8.99252 18.6084 9.12589 18.5097 9.22407C18.4109 9.32224 18.2772 9.37717 18.138 9.37678H16.676V10.3148H18.138C18.429 10.3148 18.664 10.5518 18.664 10.8398H18.663ZM14.565 13.3248C14.5113 13.3417 14.4553 13.3502 14.399 13.3498C14.3167 13.3516 14.2351 13.3337 14.1612 13.2975C14.0872 13.2613 14.0231 13.2079 13.974 13.1418L11.938 10.3778V12.8278C11.928 12.9598 11.8685 13.0831 11.7714 13.1731C11.6744 13.2631 11.5469 13.3131 11.4145 13.3131C11.2821 13.3131 11.1546 13.2631 11.0576 13.1731C10.9605 13.0831 10.901 12.9598 10.891 12.8278V8.85178C10.8907 8.71351 10.9453 8.58078 11.0428 8.48273C11.1403 8.38467 11.2727 8.32931 11.411 8.32878C11.573 8.32878 11.723 8.41478 11.823 8.53978L13.875 11.3148V8.85178C13.875 8.56478 14.11 8.32678 14.4 8.32678C14.687 8.32678 14.925 8.56478 14.925 8.85178V12.8278C14.9249 12.9379 14.89 13.0453 14.8254 13.1345C14.7607 13.2237 14.6696 13.2903 14.565 13.3248ZM9.615 13.3518C9.47636 13.351 9.34364 13.2955 9.2457 13.1974C9.14776 13.0992 9.09253 12.9664 9.092 12.8278V8.85178C9.092 8.56478 9.328 8.32678 9.617 8.32678C9.906 8.32678 10.141 8.56478 10.141 8.85178V12.8278C10.1402 12.9669 10.0845 13.1 9.98594 13.1981C9.88741 13.2963 9.75408 13.3515 9.615 13.3518ZM8.085 13.3518H6.098C5.95918 13.351 5.82625 13.2956 5.72799 13.1975C5.62973 13.0994 5.57405 12.9666 5.573 12.8278V8.85178C5.58447 8.72045 5.64475 8.59819 5.74194 8.50912C5.83913 8.42005 5.96617 8.37065 6.098 8.37065C6.22983 8.37065 6.35687 8.42005 6.45406 8.50912C6.55125 8.59819 6.61153 8.72045 6.623 8.85178V12.3018H8.087C8.22624 12.3018 8.35977 12.3571 8.45823 12.4555C8.55669 12.554 8.612 12.6875 8.612 12.8268C8.612 12.966 8.55669 13.0996 8.45823 13.198C8.35977 13.2965 8.22624 13.3518 8.087 13.3518H8.085ZM12 2.57178C6.487 2.57178 2 6.21478 2 10.6898C2 14.6998 5.558 18.0588 10.363 18.6968C10.688 18.7648 11.132 18.9118 11.244 19.1888C11.344 19.4388 11.31 19.8268 11.276 20.0888L11.139 20.9388C11.102 21.1888 10.939 21.9268 12.013 21.4758C13.089 21.0268 17.777 18.0778 19.877 15.6638C21.313 14.0888 22 12.4768 22 10.6898C22 6.21478 17.512 2.57178 12 2.57178Z" fill="#09121F"/>
</g>
<defs>
<clipPath id="clip0_11_48324">
<rect width="24" height="24" fill="white"/>
</clipPath>
</defs>
</svg>
