<svg width="24" height="24" viewBox="0 0 24 24" fill="none" xmlns="http://www.w3.org/2000/svg">
<g clip-path="url(#clip0_11_53614)">
<path d="M9.879 12.0001L7.562 9.68308C6.70737 10.0455 5.7533 10.0994 4.86331 9.83546C3.97331 9.57157 3.20281 9.00635 2.68386 8.23666C2.1649 7.46698 1.92981 6.54076 2.01886 5.61675C2.10792 4.69274 2.51558 3.82847 3.17199 3.17207C3.82839 2.51566 4.69266 2.108 5.61667 2.01894C6.54068 1.92989 7.4669 2.16498 8.23658 2.68394C9.00627 3.20289 9.57149 3.97339 9.83538 4.86339C10.0993 5.75338 10.0454 6.70745 9.683 7.56208L12 9.88008L18.374 3.50508C18.5597 3.31928 18.7802 3.17189 19.0229 3.07133C19.2656 2.97077 19.5258 2.91901 19.7885 2.91901C20.0512 2.91901 20.3113 2.97077 20.5541 3.07133C20.7968 3.17189 21.0173 3.31928 21.203 3.50508L21.91 4.21208L9.683 16.4381C10.0454 17.2927 10.0993 18.2468 9.83538 19.1368C9.57149 20.0268 9.00627 20.7973 8.23658 21.3162C7.4669 21.8352 6.54068 22.0703 5.61667 21.9812C4.69266 21.8922 3.82839 21.4845 3.17199 20.8281C2.51558 20.1717 2.10792 19.3074 2.01886 18.3834C1.92981 17.4594 2.1649 16.5332 2.68386 15.7635C3.20281 14.9938 3.97331 14.4286 4.86331 14.1647C5.7533 13.9008 6.70737 13.9547 7.562 14.3171L9.88 12.0001H9.879ZM6 8.00008C6.53043 8.00008 7.03914 7.78937 7.41421 7.4143C7.78929 7.03922 8 6.53051 8 6.00008C8 5.46965 7.78929 4.96094 7.41421 4.58587C7.03914 4.21079 6.53043 4.00008 6 4.00008C5.46957 4.00008 4.96086 4.21079 4.58579 4.58587C4.21071 4.96094 4 5.46965 4 6.00008C4 6.53051 4.21071 7.03922 4.58579 7.4143C4.96086 7.78937 5.46957 8.00008 6 8.00008ZM6 20.0001C6.53043 20.0001 7.03914 19.7894 7.41421 19.4143C7.78929 19.0392 8 18.5305 8 18.0001C8 17.4696 7.78929 16.9609 7.41421 16.5859C7.03914 16.2108 6.53043 16.0001 6 16.0001C5.46957 16.0001 4.96086 16.2108 4.58579 16.5859C4.21071 16.9609 4 17.4696 4 18.0001C4 18.5305 4.21071 19.0392 4.58579 19.4143C4.96086 19.7894 5.46957 20.0001 6 20.0001ZM15.535 13.4131L21.91 19.7891L21.203 20.4961C21.0173 20.6819 20.7968 20.8293 20.5541 20.9298C20.3113 21.0304 20.0512 21.0822 19.7885 21.0822C19.5258 21.0822 19.2656 21.0304 19.0229 20.9298C18.7802 20.8293 18.5597 20.6819 18.374 20.4961L13.414 15.5351L15.534 13.4131H15.535ZM16 11.0001H18V13.0001H16V11.0001ZM20 11.0001H22V13.0001H20V11.0001ZM6 11.0001H8V13.0001H6V11.0001ZM2 11.0001H4V13.0001H2V11.0001Z" fill="#09121F"/>
</g>
<defs>
<clipPath id="clip0_11_53614">
<rect width="24" height="24" fill="white"/>
</clipPath>
</defs>
</svg>
