<svg width="24" height="24" viewBox="0 0 24 24" fill="none" xmlns="http://www.w3.org/2000/svg">
<g clip-path="url(#clip0_11_52854)">
<path d="M13.414 6.00008L15.243 7.82808L13.828 9.24308L9.586 5.00008L13.828 0.75708L15.243 2.17208L13.414 4.00008H16C17.3261 4.00008 18.5979 4.52686 19.5355 5.46455C20.4732 6.40223 21 7.674 21 9.00008V13.0001H19V9.00008C19 8.20443 18.6839 7.44137 18.1213 6.87876C17.5587 6.31615 16.7956 6.00008 16 6.00008H13.414ZM15 11.0001V21.0001C15 21.2653 14.8946 21.5197 14.7071 21.7072C14.5196 21.8947 14.2652 22.0001 14 22.0001H4C3.73478 22.0001 3.48043 21.8947 3.29289 21.7072C3.10536 21.5197 3 21.2653 3 21.0001V11.0001C3 10.7349 3.10536 10.4805 3.29289 10.293C3.48043 10.1054 3.73478 10.0001 4 10.0001H14C14.2652 10.0001 14.5196 10.1054 14.7071 10.293C14.8946 10.4805 15 10.7349 15 11.0001ZM13 12.0001H5V20.0001H13V12.0001Z" fill="#09121F"/>
</g>
<defs>
<clipPath id="clip0_11_52854">
<rect width="24" height="24" fill="white"/>
</clipPath>
</defs>
</svg>
