<svg width="24" height="24" viewBox="0 0 24 24" fill="none" xmlns="http://www.w3.org/2000/svg">
<g clip-path="url(#clip0_11_50149)">
<path d="M18.586 20.0001H4.00001C3.90715 20.0001 3.81613 19.9742 3.73714 19.9254C3.65815 19.8766 3.59432 19.8067 3.55279 19.7237C3.51127 19.6406 3.49369 19.5476 3.50203 19.4552C3.51036 19.3627 3.54429 19.2744 3.60001 19.2001L4.00001 18.6671V10.0001C4.00001 8.67007 4.32401 7.41607 4.89901 6.31307L1.39301 2.80807L2.80801 1.39307L22.607 21.1931L21.192 22.6071L18.586 20.0001ZM6.40801 7.82207C6.13762 8.51634 5.99925 9.255 6.00001 10.0001V18.0001H16.586L6.40801 7.82207ZM20 15.7861L18 13.7861V10.0001C18.0002 8.94773 17.7236 7.91386 17.198 7.00218C16.6724 6.09051 15.9163 5.33311 15.0055 4.80599C14.0947 4.27886 13.0613 4.00055 12.0089 3.99899C10.9566 3.99742 9.92236 4.27265 9.01001 4.79707L7.56001 3.34507C8.76474 2.54128 10.1651 2.07961 11.6116 2.0093C13.0582 1.93899 14.4967 2.26268 15.7737 2.94584C17.0507 3.629 18.1183 4.646 18.8626 5.88835C19.6069 7.1307 20 8.55181 20 10.0001V15.7861ZM9.50001 21.0001H14.5C14.5 21.6631 14.2366 22.299 13.7678 22.7678C13.2989 23.2367 12.663 23.5001 12 23.5001C11.337 23.5001 10.7011 23.2367 10.2322 22.7678C9.7634 22.299 9.50001 21.6631 9.50001 21.0001Z" fill="#09121F"/>
</g>
<defs>
<clipPath id="clip0_11_50149">
<rect width="24" height="24" fill="white"/>
</clipPath>
</defs>
</svg>
