<svg width="24" height="24" viewBox="0 0 24 24" fill="none" xmlns="http://www.w3.org/2000/svg">
<g clip-path="url(#clip0_11_54319)">
<path d="M8.67008 5.00694C9.32639 3.61857 10.421 2.48455 11.7854 1.77962C13.1497 1.07469 14.708 0.837969 16.2201 1.10594C15.9623 1.89582 15.9283 2.74164 16.1217 3.54968C16.3152 4.35772 16.7286 5.09642 17.3161 5.68394C17.9036 6.27145 18.6423 6.68484 19.4503 6.87829C20.2584 7.07174 21.1042 7.0377 21.8941 6.77994C21.9641 7.17594 22.0001 7.58394 22.0001 7.99994C22.0018 9.17935 21.7042 10.3399 21.1351 11.3729C21.9735 12.1115 22.5671 13.088 22.8368 14.1723C23.1065 15.2567 23.0396 16.3974 22.6449 17.4428C22.2502 18.4881 21.5464 19.3884 20.6274 20.0239C19.7083 20.6594 18.6175 20.9998 17.5001 20.9999H9.00008C6.90772 20.9987 4.8991 20.1779 3.40481 18.7133C1.91052 17.2486 1.04951 15.2569 1.00634 13.165C0.963179 11.0731 1.7413 9.04749 3.1739 7.52249C4.6065 5.99749 6.57955 5.09444 8.67008 5.00694ZM10.8471 5.21394C12.1073 5.51424 13.276 6.11552 14.253 6.96629C15.2301 7.81706 15.9863 8.89196 16.4571 10.0989C17.4476 9.9091 18.4712 9.99383 19.4171 10.3439C19.6431 9.91894 19.8101 9.45894 19.9051 8.97394C18.3928 8.83456 16.9771 8.17023 15.9035 7.09621C14.8298 6.02218 14.1659 4.60622 14.0271 3.09394C12.7283 3.35193 11.5848 4.11429 10.8471 5.21394Z" fill="#09121F"/>
</g>
<defs>
<clipPath id="clip0_11_54319">
<rect width="24" height="24" fill="white"/>
</clipPath>
</defs>
</svg>
