<svg width="24" height="24" viewBox="0 0 24 24" fill="none" xmlns="http://www.w3.org/2000/svg">
<g clip-path="url(#clip0_11_47969)">
<path d="M20.5559 3.44396C22.1179 5.00596 22.1179 7.53796 20.5559 9.10096L12.3559 17.301C11.7139 17.943 10.8719 18.348 9.96893 18.448L6.59093 18.822L4.29293 21.122C3.90293 21.512 3.26893 21.512 2.87893 21.122C2.48893 20.731 2.48893 20.098 2.87893 19.707L5.17693 17.408L5.55193 14.031C5.65193 13.128 6.05693 12.286 6.69893 11.644L14.8989 3.44396C16.4619 1.88196 18.9939 1.88196 20.5559 3.44396ZM11.3639 12.636L9.94993 14.05L12.0709 16.172L13.4849 14.757L11.3639 12.636ZM14.1919 9.80796L12.7779 11.222L14.8989 13.343L16.3139 11.929L14.1919 9.80796ZM17.0209 6.97896L15.6069 8.39296L17.7269 10.515L19.1429 9.09996L17.0219 6.97796L17.0209 6.97896Z" fill="#09121F"/>
</g>
<defs>
<clipPath id="clip0_11_47969">
<rect width="24" height="24" fill="white"/>
</clipPath>
</defs>
</svg>
