<svg width="24" height="24" viewBox="0 0 24 24" fill="none" xmlns="http://www.w3.org/2000/svg">
<g clip-path="url(#clip0_11_52414)">
<path d="M10.1298 15.8422L9.34178 18.7822L7.41078 18.2642L8.19778 15.3252C7.01975 14.8907 5.9249 14.2576 4.96078 13.4532L2.80778 15.6072L1.39278 14.1922L3.54678 12.0392C2.33086 10.583 1.51387 8.83596 1.17578 6.9692L2.07578 6.8042C4.965 8.88738 8.43787 10.0058 11.9998 10.0002C15.7038 10.0002 19.1308 8.8152 21.9238 6.8042L22.8238 6.9682C22.4861 8.83522 21.6695 10.5826 20.4538 12.0392L22.6068 14.1922L21.1918 15.6072L19.0388 13.4532C18.0747 14.2576 16.9798 14.8907 15.8018 15.3252L16.5888 18.2652L14.6578 18.7822L13.8698 15.8422C12.6321 16.0543 11.3674 16.0543 10.1298 15.8422Z" fill="#09121F"/>
</g>
<defs>
<clipPath id="clip0_11_52414">
<rect width="24" height="24" fill="white"/>
</clipPath>
</defs>
</svg>
