<svg width="24" height="24" viewBox="0 0 24 24" fill="none" xmlns="http://www.w3.org/2000/svg">
<g clip-path="url(#clip0_11_48939)">
<path d="M10.4211 11.3748C10.1271 12.4028 10.4331 13.4388 11.2051 14.0278C12.2661 14.8378 13.7701 14.3278 14.0791 13.0328C14.1591 12.6958 14.1821 12.3108 14.1061 11.9768C13.8761 10.9758 13.5861 9.98878 13.3141 8.98078C11.9841 9.13478 10.7711 10.1528 10.4211 11.3748ZM15.9691 11.0878C16.2421 12.0998 16.2541 13.1048 15.8421 14.0878C14.7141 16.7778 11.1211 17.2278 9.26906 14.9138C7.96706 13.2868 7.98906 10.9528 9.32906 9.17978C10.1091 8.14778 11.1331 7.47278 12.3771 7.12578L12.7561 7.02178C12.6721 6.60678 12.5681 6.20578 12.5131 5.79778C12.3371 4.48078 13.0251 3.29478 14.2571 2.75778C15.4831 2.22278 16.9651 2.54178 17.7871 3.51778C18.1931 3.99678 18.1821 4.59778 17.7621 4.98178C17.3501 5.35878 16.7661 5.32778 16.3271 4.89178C16.0801 4.64578 15.8171 4.45178 15.4501 4.45578C14.9251 4.46178 14.4631 4.87378 14.5051 5.39278C14.5421 5.86078 14.6781 6.32278 14.8051 6.77878C14.8271 6.85678 15.0211 6.91378 15.1431 6.93178C16.4771 7.12878 17.6471 7.66278 18.6151 8.60778C21.1731 11.1008 21.4761 15.1388 19.2871 18.0478C17.7581 20.0798 15.6771 21.2158 13.1601 21.4568C8.53906 21.8968 4.49606 18.9268 3.46006 14.3988C2.51506 10.2548 4.84006 5.83078 8.79506 4.24978C9.38106 4.01578 9.93806 4.21878 10.1661 4.74778C10.3981 5.28478 10.1471 5.83378 9.55606 6.09778C7.18806 7.15778 5.73906 8.95278 5.34106 11.5218C4.80806 14.9548 6.99706 18.2978 10.3411 19.2418C13.0641 20.0118 15.9991 19.0758 17.6491 16.9118C19.2351 14.8318 19.0491 11.8128 17.2221 10.0388C16.7153 9.54503 16.086 9.19535 15.3991 9.02578C15.5971 9.74178 15.7881 10.4138 15.9691 11.0878Z" fill="#09121F"/>
</g>
<defs>
<clipPath id="clip0_11_48939">
<rect width="24" height="24" fill="white"/>
</clipPath>
</defs>
</svg>
