<svg width="24" height="24" viewBox="0 0 24 24" fill="none" xmlns="http://www.w3.org/2000/svg">
<g clip-path="url(#clip0_11_54284)">
<path d="M18.9949 17.7942C18.9642 17.1939 18.7985 16.6083 18.5103 16.0808C18.2221 15.5533 17.8187 15.0976 17.3301 14.7474C16.8415 14.3973 16.2803 14.1618 15.6882 14.0584C15.0961 13.955 14.4882 13.9864 13.9099 14.1502C13.6996 13.1863 13.1405 12.3341 12.3401 11.7573C11.5397 11.1805 10.5544 10.9198 9.57343 11.0252C8.59249 11.1306 7.68508 11.5947 7.0255 12.3284C6.36591 13.0621 6.00067 14.0136 5.99991 15.0002C5.99991 16.0802 6.42791 17.0592 7.12191 17.7782C5.78506 17.4549 4.55416 16.7923 3.54804 15.8545C2.54192 14.9167 1.79458 13.7354 1.37816 12.4245C0.961738 11.1137 0.890313 9.71762 1.17078 8.37112C1.45124 7.02462 2.07412 5.77317 2.97928 4.7376C3.88444 3.70203 5.0413 2.91731 6.33816 2.45921C7.63503 2.00111 9.02811 1.88511 10.3829 2.1224C11.7377 2.35969 13.0084 2.94226 14.0723 3.81386C15.1363 4.68546 15.9576 5.81665 16.4569 7.09822C17.8536 6.82002 19.3038 7.09445 20.5023 7.86374C21.7008 8.63304 22.5541 9.83723 22.8828 11.2229C23.2115 12.6086 22.9898 14.0678 22.2645 15.2934C21.5392 16.519 20.3668 17.4155 18.9939 17.7942H18.9949ZM9.99991 17.0002C9.46948 17.0002 8.96077 16.7895 8.5857 16.4144C8.21063 16.0394 7.99991 15.5307 7.99991 15.0002C7.99991 14.4698 8.21063 13.9611 8.5857 13.586C8.96077 13.2109 9.46948 13.0002 9.99991 13.0002C10.5303 13.0002 11.0391 13.2109 11.4141 13.586C11.7892 13.9611 11.9999 14.4698 11.9999 15.0002C11.9999 15.5307 11.7892 16.0394 11.4141 16.4144C11.0391 16.7895 10.5303 17.0002 9.99991 17.0002ZM14.9999 20.0002C14.4695 20.0002 13.9608 19.7895 13.5857 19.4144C13.2106 19.0394 12.9999 18.5307 12.9999 18.0002C12.9999 17.4698 13.2106 16.9611 13.5857 16.586C13.9608 16.2109 14.4695 16.0002 14.9999 16.0002C15.5303 16.0002 16.0391 16.2109 16.4141 16.586C16.7892 16.9611 16.9999 17.4698 16.9999 18.0002C16.9999 18.5307 16.7892 19.0394 16.4141 19.4144C16.0391 19.7895 15.5303 20.0002 14.9999 20.0002ZM9.99991 23.0002C9.46948 23.0002 8.96077 22.7895 8.5857 22.4144C8.21063 22.0394 7.99991 21.5307 7.99991 21.0002C7.99991 20.4698 8.21063 19.9611 8.5857 19.586C8.96077 19.2109 9.46948 19.0002 9.99991 19.0002C10.5303 19.0002 11.0391 19.2109 11.4141 19.586C11.7892 19.9611 11.9999 20.4698 11.9999 21.0002C11.9999 21.5307 11.7892 22.0394 11.4141 22.4144C11.0391 22.7895 10.5303 23.0002 9.99991 23.0002Z" fill="#09121F"/>
</g>
<defs>
<clipPath id="clip0_11_54284">
<rect width="24" height="24" fill="white"/>
</clipPath>
</defs>
</svg>
