<svg width="24" height="24" viewBox="0 0 24 24" fill="none" xmlns="http://www.w3.org/2000/svg">
<g clip-path="url(#clip0_11_53609)">
<path d="M12.0001 14.1211L9.68308 16.4381C10.0455 17.2927 10.0994 18.2468 9.83546 19.1368C9.57157 20.0268 9.00635 20.7973 8.23666 21.3163C7.46698 21.8352 6.54076 22.0703 5.61675 21.9813C4.69274 21.8922 3.82847 21.4845 3.17207 20.8281C2.51566 20.1717 2.108 19.3075 2.01894 18.3835C1.92989 17.4594 2.16498 16.5332 2.68394 15.7635C3.20289 14.9939 3.97339 14.4286 4.86339 14.1647C5.75338 13.9008 6.70745 13.9547 7.56208 14.3171L9.88008 12.0001L4.21008 6.33312C4.02428 6.14739 3.87689 5.92688 3.77633 5.68417C3.67577 5.44147 3.62401 5.18133 3.62401 4.91862C3.62401 4.65591 3.67577 4.39577 3.77633 4.15307C3.87689 3.91036 4.02428 3.68985 4.21008 3.50412L4.91808 2.79712L12.0001 9.88012L19.0811 2.79812L19.7891 3.50512C19.9749 3.69085 20.1223 3.91136 20.2228 4.15407C20.3234 4.39677 20.3752 4.65691 20.3752 4.91962C20.3752 5.18233 20.3234 5.44247 20.2228 5.68517C20.1223 5.92788 19.9749 6.14839 19.7891 6.33412L14.1201 12.0001L16.4371 14.3171C17.2917 13.9547 18.2458 13.9008 19.1358 14.1647C20.0258 14.4286 20.7963 14.9939 21.3152 15.7635C21.8342 16.5332 22.0693 17.4594 21.9802 18.3835C21.8912 19.3075 21.4835 20.1717 20.8271 20.8281C20.1707 21.4845 19.3064 21.8922 18.3824 21.9813C17.4584 22.0703 16.5322 21.8352 15.7625 21.3163C14.9928 20.7973 14.4276 20.0268 14.1637 19.1368C13.8998 18.2468 13.9537 17.2927 14.3161 16.4381L12.0001 14.1201V14.1211ZM6.00008 20.0001C6.53051 20.0001 7.03922 19.7894 7.4143 19.4143C7.78937 19.0393 8.00008 18.5306 8.00008 18.0001C8.00008 17.4697 7.78937 16.961 7.4143 16.5859C7.03922 16.2108 6.53051 16.0001 6.00008 16.0001C5.46965 16.0001 4.96094 16.2108 4.58587 16.5859C4.21079 16.961 4.00008 17.4697 4.00008 18.0001C4.00008 18.5306 4.21079 19.0393 4.58587 19.4143C4.96094 19.7894 5.46965 20.0001 6.00008 20.0001ZM18.0001 20.0001C18.5305 20.0001 19.0392 19.7894 19.4143 19.4143C19.7894 19.0393 20.0001 18.5306 20.0001 18.0001C20.0001 17.4697 19.7894 16.961 19.4143 16.5859C19.0392 16.2108 18.5305 16.0001 18.0001 16.0001C17.4696 16.0001 16.9609 16.2108 16.5859 16.5859C16.2108 16.961 16.0001 17.4697 16.0001 18.0001C16.0001 18.5306 16.2108 19.0393 16.5859 19.4143C16.9609 19.7894 17.4696 20.0001 18.0001 20.0001Z" fill="#09121F"/>
</g>
<defs>
<clipPath id="clip0_11_53609">
<rect width="24" height="24" fill="white"/>
</clipPath>
</defs>
</svg>
