<svg width="24" height="24" viewBox="0 0 24 24" fill="none" xmlns="http://www.w3.org/2000/svg">
<g clip-path="url(#clip0_11_48119)">
<path d="M20.556 3.44396C22.118 5.00596 22.118 7.53796 20.556 9.10096L12.356 17.301C11.714 17.943 10.872 18.348 9.96905 18.448L6.59105 18.822L4.29305 21.122C3.90305 21.512 3.26905 21.512 2.87905 21.122C2.48905 20.731 2.48905 20.098 2.87905 19.707L5.17705 17.408L5.55205 14.031C5.65205 13.128 6.05705 12.286 6.69905 11.644L14.899 3.44396C16.462 1.88196 18.994 1.88196 20.556 3.44396ZM16.314 4.85796L8.11405 13.058C7.79205 13.379 7.59005 13.8 7.54005 14.251L7.26405 16.736L9.74905 16.46C10.199 16.41 10.621 16.208 10.942 15.887L11.364 15.464L9.95005 14.05L11.364 12.636L12.778 14.05L14.192 12.636L12.778 11.222L14.192 9.80796L15.607 11.222L17.021 9.80696L15.607 8.39296L17.02 6.97996L18.434 8.39396L19.141 7.68696C19.922 6.90696 19.922 5.63996 19.141 4.85896C18.361 4.07796 17.094 4.07796 16.313 4.85896L16.314 4.85796Z" fill="#09121F"/>
</g>
<defs>
<clipPath id="clip0_11_48119">
<rect width="24" height="24" fill="white"/>
</clipPath>
</defs>
</svg>
