<svg width="24" height="24" viewBox="0 0 24 24" fill="none" xmlns="http://www.w3.org/2000/svg">
<g clip-path="url(#clip0_11_54239)">
<path d="M17.0001 21H7.00012C5.58335 21.0009 4.21197 20.5004 3.12881 19.5871C2.04565 18.6739 1.32059 17.4068 1.08202 16.0103C0.843459 14.6137 1.10678 13.1778 1.82535 11.9568C2.54393 10.7358 3.6714 9.80844 5.00812 9.33896C4.96284 8.39262 5.11013 7.44694 5.44108 6.5592C5.77203 5.67146 6.27974 4.86014 6.93346 4.17438C7.58719 3.48863 8.37331 2.94272 9.24422 2.56972C10.1151 2.19672 11.0527 2.00439 12.0001 2.00439C12.9475 2.00439 13.8851 2.19672 14.756 2.56972C15.6269 2.94272 16.413 3.48863 17.0668 4.17438C17.7205 4.86014 18.2282 5.67146 18.5592 6.5592C18.8901 7.44694 19.0374 8.39262 18.9921 9.33896C20.3288 9.80844 21.4563 10.7358 22.1749 11.9568C22.8935 13.1778 23.1568 14.6137 22.9182 16.0103C22.6796 17.4068 21.9546 18.6739 20.8714 19.5871C19.7883 20.5004 18.4169 21.0009 17.0001 21Z" fill="#09121F"/>
</g>
<defs>
<clipPath id="clip0_11_54239">
<rect width="24" height="24" fill="white"/>
</clipPath>
</defs>
</svg>
