<svg width="24" height="24" viewBox="0 0 24 24" fill="none" xmlns="http://www.w3.org/2000/svg">
<g clip-path="url(#clip0_11_47984)">
<path d="M19.778 4.22209C22.121 6.56509 22.121 10.3641 19.778 12.7071L12.708 19.7781C10.364 22.1211 6.56497 22.1211 4.22197 19.7781C1.87897 17.4351 1.87897 13.6361 4.22197 11.2931L11.292 4.22209C13.636 1.87909 17.435 1.87909 19.778 4.22209ZM14.122 15.5351L8.46497 9.87809L5.63597 12.7081C4.07397 14.2691 4.07397 16.8021 5.63597 18.3641C7.19797 19.9261 9.73097 19.9261 11.293 18.3641L14.122 15.5341V15.5351ZM18.364 5.63609C16.802 4.07409 14.269 4.07409 12.707 5.63609L9.87997 8.46409L15.537 14.1211L18.365 11.2931C19.927 9.73109 19.927 7.19809 18.365 5.63609H18.364Z" fill="#09121F"/>
</g>
<defs>
<clipPath id="clip0_11_47984">
<rect width="24" height="24" fill="white"/>
</clipPath>
</defs>
</svg>
