<svg width="24" height="24" viewBox="0 0 24 24" fill="none" xmlns="http://www.w3.org/2000/svg">
<g clip-path="url(#clip0_11_50099)">
<path d="M16.425 17.8388C15.3701 18.4358 14.2048 18.8121 13 18.9448V22.9998H11V18.9448C8.97114 18.7174 7.07979 17.8072 5.63618 16.3636C4.19257 14.92 3.28242 13.0287 3.05501 10.9998H5.07001C5.22591 12.0792 5.63179 13.1073 6.25532 14.0021C6.87885 14.8969 7.70277 15.6336 8.66143 16.1537C9.62008 16.6737 10.687 16.9626 11.777 16.9973C12.8671 17.0321 13.9502 16.8117 14.94 16.3538L13.389 14.8038C12.6442 15.0192 11.8595 15.0584 11.0969 14.9184C10.3344 14.7783 9.61479 14.4629 8.9951 13.9969C8.37541 13.531 7.87257 12.9273 7.52632 12.2336C7.18006 11.5399 6.99988 10.7751 7.00001 9.99981V8.41381L1.39301 2.80781L2.80801 1.39281L22.607 21.1928L21.192 22.6068L16.425 17.8388ZM9.03301 10.4468L11.553 12.9668C10.9189 12.871 10.3321 12.5747 9.8786 12.1212C9.42512 11.6677 9.12878 11.0809 9.03301 10.4468ZM19.375 15.1598L17.932 13.7178C18.441 12.9078 18.788 11.9878 18.929 10.9998H20.945C20.7799 12.4965 20.2399 13.9273 19.375 15.1598ZM16.465 12.2508L14.917 10.7028C14.971 10.4768 15 10.2428 15 9.99981V5.99981C15.0007 5.29452 14.7529 4.61152 14.3001 4.07078C13.8473 3.53004 13.2184 3.16612 12.524 3.04293C11.8295 2.91975 11.1139 3.04518 10.5027 3.3972C9.89153 3.74921 9.42392 4.3053 9.18201 4.96781L7.68601 3.47081C8.24111 2.52343 9.09264 1.78512 10.1091 1.36987C11.1256 0.954617 12.2505 0.885522 13.3102 1.17325C14.3699 1.46098 15.3054 2.08953 15.9722 2.96185C16.6391 3.83418 17.0003 4.90178 17 5.99981V9.99981C17.0012 10.7817 16.8182 11.5528 16.466 12.2508H16.465Z" fill="#09121F"/>
</g>
<defs>
<clipPath id="clip0_11_50099">
<rect width="24" height="24" fill="white"/>
</clipPath>
</defs>
</svg>
