<svg width="24" height="24" viewBox="0 0 24 24" fill="none" xmlns="http://www.w3.org/2000/svg">
<g clip-path="url(#clip0_11_44778)">
<path d="M10.562 4.14811C11.5104 3.94992 12.4896 3.94992 13.438 4.14811L15.121 2.46411L16.536 3.87911L15.486 4.92911C16.7223 5.64091 17.7129 6.712 18.326 8.00011H21V10.0001H18.93C18.976 10.3271 19 10.6601 19 11.0001V12.0001H21V14.0001H19V15.0001C19 15.3401 18.976 15.6731 18.93 16.0001H21V18.0001H18.326C17.7586 19.1977 16.8629 20.2097 15.7431 20.9183C14.6232 21.627 13.3252 22.0032 12 22.0032C10.6748 22.0032 9.37677 21.627 8.25692 20.9183C7.13707 20.2097 6.24138 19.1977 5.674 18.0001H3V16.0001H5.07C5.023 15.6689 4.99961 15.3347 5 15.0001V14.0001H3V12.0001H5V11.0001C5 10.6601 5.024 10.3271 5.07 10.0001H3V8.00011H5.674C6.28697 6.71163 7.27751 5.64017 8.514 4.92811L7.464 3.87811L8.88 2.46511L10.563 4.14911L10.562 4.14811ZM12 6.00011C10.6739 6.00011 9.40215 6.5269 8.46447 7.46458C7.52678 8.40226 7 9.67403 7 11.0001V15.0001C7 16.3262 7.52678 17.598 8.46447 18.5356C9.40215 19.4733 10.6739 20.0001 12 20.0001C13.3261 20.0001 14.5979 19.4733 15.5355 18.5356C16.4732 17.598 17 16.3262 17 15.0001V11.0001C17 9.67403 16.4732 8.40226 15.5355 7.46458C14.5979 6.5269 13.3261 6.00011 12 6.00011ZM9 14.0001H15V16.0001H9V14.0001ZM9 10.0001H15V12.0001H9V10.0001Z" fill="#09121F"/>
</g>
<defs>
<clipPath id="clip0_11_44778">
<rect width="24" height="24" fill="white"/>
</clipPath>
</defs>
</svg>
