<svg width="24" height="24" viewBox="0 0 24 24" fill="none" xmlns="http://www.w3.org/2000/svg">
<g clip-path="url(#clip0_11_49044)">
<path d="M9.42006 4.40008C8.1196 4.83699 6.95335 5.60098 6.03335 6.61866C5.11335 7.63634 4.47051 8.87351 4.1666 10.2113C3.86269 11.5491 3.90791 12.9426 4.29793 14.2579C4.68794 15.5731 5.40964 16.766 6.39369 17.7219C7.37775 18.6778 8.59108 19.3646 9.91713 19.7162C11.2432 20.0679 12.6374 20.0727 13.9658 19.73C15.2942 19.3874 16.5122 18.7089 17.5027 17.7598C18.4933 16.8106 19.2231 15.6227 19.6221 14.3101C16.2221 15.7701 12.3741 16.2901 8.07706 15.8751C7.36606 11.7491 7.81306 7.92508 9.42006 4.40008ZM11.8681 3.98608C11.2032 5.17526 10.6854 6.44088 10.3261 7.75508C11.8733 7.78592 13.3483 8.41535 14.4411 9.51108C15.4747 10.5418 16.0954 11.9152 16.1861 13.3721C17.5161 13.0311 18.7751 12.5521 19.9661 11.9391C19.9607 10.8839 19.7466 9.84029 19.3359 8.86832C18.9253 7.89635 18.3263 7.01529 17.5735 6.27596C16.8207 5.53662 15.9289 4.95364 14.9497 4.56062C13.9705 4.16761 12.9231 3.97234 11.8681 3.98608ZM4.89506 19.0571C0.990059 15.1521 0.990059 8.82008 4.89506 4.91508C8.80006 1.01008 15.1321 1.01008 19.0371 4.91508C22.9421 8.82008 22.9421 15.1521 19.0371 19.0571C15.1321 22.9621 8.80006 22.9621 4.89506 19.0571ZM9.91506 9.76408C9.72254 11.1658 9.69703 12.5854 9.83906 13.9931C11.2961 14.0573 12.7559 13.9836 14.1991 13.7731C14.2022 13.2444 14.1003 12.7203 13.8991 12.2314C13.6979 11.7424 13.4014 11.2984 13.0271 10.9251C12.6222 10.5194 12.1346 10.2057 11.5976 10.0054C11.0606 9.80502 10.4867 9.72272 9.91506 9.76408Z" fill="#09121F"/>
</g>
<defs>
<clipPath id="clip0_11_49044">
<rect width="24" height="24" fill="white"/>
</clipPath>
</defs>
</svg>
