<svg width="24" height="24" viewBox="0 0 24 24" fill="none" xmlns="http://www.w3.org/2000/svg">
<g clip-path="url(#clip0_11_45618)">
<path d="M2.80794 1.39307L20.4849 19.0711L19.0709 20.4851L15.3879 16.8031L11.9999 21.0001L0.689941 6.99707C1.60394 6.25707 2.59194 5.60607 3.63994 5.05507L1.39394 2.80807L2.80894 1.39307H2.80794ZM3.57894 7.39207L11.9999 17.8171L13.9669 15.3801L5.13194 6.54407C4.59994 6.79807 4.08194 7.08007 3.57994 7.39207H3.57894ZM11.9999 3.00007C16.2839 3.00007 20.2199 4.49707 23.3099 6.99607L17.9029 13.6891L16.4809 12.2671L20.4199 7.39107C17.9219 5.84107 15.0269 5.00007 11.9999 5.00007C11.1269 5.00007 10.2649 5.07007 9.41994 5.20707L7.72494 3.51007C9.09394 3.17707 10.5269 3.00007 11.9999 3.00007Z" fill="#09121F"/>
</g>
<defs>
<clipPath id="clip0_11_45618">
<rect width="24" height="24" fill="white"/>
</clipPath>
</defs>
</svg>
