<svg width="24" height="24" viewBox="0 0 24 24" fill="none" xmlns="http://www.w3.org/2000/svg">
<g clip-path="url(#clip0_11_48784)">
<path d="M13.004 18.4232C13.4279 18.3577 13.8616 18.4303 14.241 18.6302C14.8548 18.9528 15.5557 19.0707 16.2412 18.9666C16.9268 18.8625 17.5611 18.5419 18.0514 18.0515C18.5417 17.5612 18.8624 16.9269 18.9665 16.2414C19.0706 15.5558 18.9527 14.8549 18.63 14.2412C18.4302 13.8617 18.3576 13.428 18.423 13.0042C18.5814 11.9927 18.4985 10.9581 18.1813 9.98475C17.864 9.01137 17.3213 8.12669 16.5974 7.40277C15.8735 6.67885 14.9888 6.13616 14.0154 5.81892C13.0421 5.50167 12.0075 5.41884 10.996 5.57716C10.5722 5.64257 10.1385 5.57 9.75904 5.37016C9.14516 5.04725 8.44408 4.92921 7.75832 5.03329C7.07255 5.13738 6.43807 5.45814 5.94767 5.94866C5.45726 6.43918 5.13665 7.07373 5.03272 7.75952C4.92878 8.44531 5.04699 9.14636 5.37004 9.76016C5.56988 10.1396 5.64245 10.5733 5.57704 10.9972C5.41871 12.0086 5.50155 13.0432 5.81879 14.0166C6.13604 14.9899 6.67873 15.8746 7.40265 16.5985C8.12657 17.3225 9.01125 17.8652 9.98463 18.1824C10.958 18.4996 11.9926 18.5825 13.004 18.4242V18.4232ZM12 20.5002C10.7729 20.5004 9.56025 20.2349 8.44546 19.7219C7.33067 19.209 6.34016 18.4608 5.54201 17.5286C4.74387 16.5965 4.15702 15.5026 3.82179 14.3222C3.48656 13.1417 3.41091 11.9026 3.60004 10.6902C3.07877 9.69867 2.88829 8.56644 3.05644 7.45897C3.2246 6.3515 3.74257 5.32684 4.53464 4.53477C5.32672 3.74269 6.35138 3.22472 7.45885 3.05657C8.56632 2.88841 9.69855 3.07889 10.69 3.60016C12.0123 3.39361 13.3647 3.50221 14.6371 3.91713C15.9095 4.33205 17.0659 5.04156 18.0123 5.98791C18.9586 6.93425 19.6681 8.09069 20.0831 9.36308C20.498 10.6355 20.6066 11.9879 20.4 13.3102C20.9213 14.3016 21.1118 15.4339 20.9436 16.5413C20.7755 17.6488 20.2575 18.6735 19.4654 19.4655C18.6734 20.2576 17.6487 20.7756 16.5412 20.9437C15.4337 21.1119 14.3015 20.9214 13.31 20.4002C12.883 20.4662 12.445 20.5002 12 20.5002ZM12.053 17.0002C9.25004 17.0002 8.00004 15.6202 8.00004 14.5862C8.00004 14.0542 8.39004 13.6842 8.92804 13.6842C10.128 13.6842 9.81504 15.4092 12.053 15.4092C13.196 15.4092 13.829 14.7852 13.829 14.1482C13.829 13.7642 13.641 13.3402 12.886 13.1522L10.396 12.5292C8.39004 12.0252 8.02604 10.9372 8.02604 9.91716C8.02604 7.79716 10.018 7.00016 11.89 7.00016C13.61 7.00016 15.646 7.95616 15.646 9.22816C15.646 9.77316 15.166 10.0912 14.634 10.0912C13.611 10.0912 13.799 8.67316 11.734 8.67316C10.711 8.67316 10.138 9.13516 10.138 9.79916C10.138 10.4622 10.941 10.6752 11.64 10.8342L13.476 11.2432C15.49 11.6952 16 12.8762 16 13.9892C16 15.7132 14.675 17.0002 12.015 17.0002H12.053Z" fill="#09121F"/>
</g>
<defs>
<clipPath id="clip0_11_48784">
<rect width="24" height="24" fill="white"/>
</clipPath>
</defs>
</svg>
