<svg width="24" height="24" viewBox="0 0 24 24" fill="none" xmlns="http://www.w3.org/2000/svg">
<g clip-path="url(#clip0_11_44663)">
<path d="M5.07 16.0001C5.023 15.6688 4.99961 15.3347 5 15.0001V14.0001H3V12.0001H5V11.0001C5 10.6601 5.024 10.3271 5.07 10.0001H3V8.00009H5.674C6.28697 6.7116 7.27751 5.64015 8.514 4.92809L7.464 3.87809L8.88 2.46509L10.563 4.14909C11.5114 3.9509 12.4906 3.9509 13.439 4.14909L15.122 2.46509L16.537 3.88009L15.487 4.93009C16.7228 5.64178 17.713 6.71249 18.326 8.00009H21V10.0001H18.93C18.976 10.3271 19 10.6601 19 11.0001V12.0001H21V14.0001H19V15.0001C19 15.3401 18.976 15.6731 18.93 16.0001H21V18.0001H18.326C17.7586 19.1977 16.8629 20.2097 15.7431 20.9183C14.6232 21.6269 13.3252 22.0031 12 22.0031C10.6748 22.0031 9.37677 21.6269 8.25692 20.9183C7.13707 20.2097 6.24138 19.1977 5.674 18.0001H3V16.0001H5.07ZM9 10.0001V12.0001H15V10.0001H9ZM9 14.0001V16.0001H15V14.0001H9Z" fill="#09121F"/>
</g>
<defs>
<clipPath id="clip0_11_44663">
<rect width="24" height="24" fill="white"/>
</clipPath>
</defs>
</svg>
