<svg width="24" height="24" viewBox="0 0 24 24" fill="none" xmlns="http://www.w3.org/2000/svg">
<g clip-path="url(#clip0_11_48429)">
<path d="M14.448 16.2398C13.9125 17.0013 13.329 17.7277 12.701 18.4148C14.373 20.0378 15.929 20.7978 16.791 20.2988C17.655 19.8008 17.774 18.0738 17.205 15.8148C16.352 16.0048 15.425 16.1488 14.448 16.2398ZM13.138 16.3268C12.3797 16.3582 11.6203 16.3582 10.862 16.3268C11.239 16.8188 11.62 17.2748 12 17.6908C12.38 17.2748 12.76 16.8188 13.138 16.3268ZM18.178 8.43284C20.843 9.19684 22.583 10.4668 22.583 11.9998C22.583 13.5328 20.843 14.8028 18.178 15.5668C18.848 18.2568 18.619 20.3988 17.292 21.1648C15.964 21.9318 13.994 21.0598 12 19.1348C10.006 21.0598 8.03599 21.9318 6.70799 21.1648C5.38099 20.3988 5.15099 18.2568 5.82199 15.5668C3.15699 14.8028 1.41699 13.5328 1.41699 11.9998C1.41699 10.4668 3.15699 9.19684 5.82199 8.43284C5.15199 5.74284 5.38099 3.60084 6.70799 2.83484C8.03599 2.06784 10.006 2.93984 12 4.86484C13.994 2.93984 15.964 2.06784 17.292 2.83484C18.619 3.60084 18.849 5.74284 18.178 8.43284ZM17.205 8.18484C17.775 5.92484 17.655 4.19884 16.792 3.70084C15.929 3.20184 14.373 3.96184 12.702 5.58484C13.293 6.22784 13.881 6.95884 14.448 7.75984C15.426 7.84984 16.352 7.99384 17.205 8.18484ZM6.79499 15.8148C6.22499 18.0748 6.34499 19.8008 7.20799 20.2988C8.07099 20.7978 9.62699 20.0378 11.298 18.4148C10.6703 17.7277 10.0871 17.0012 9.55199 16.2398C8.62489 16.157 7.70402 16.015 6.79499 15.8148ZM10.862 7.67284C11.6203 7.64144 12.3797 7.64144 13.138 7.67284C12.7785 7.2023 12.3988 6.74754 12 6.30984C11.62 6.72584 11.24 7.18184 10.862 7.67384V7.67284ZM9.55199 7.75984C10.0878 6.99838 10.6716 6.2719 11.3 5.58484C9.62699 3.96184 8.06999 3.20184 7.20899 3.70084C6.34499 4.19884 6.22599 5.92584 6.79499 8.18484C7.64799 7.99484 8.57499 7.85084 9.55199 7.75984ZM13.894 15.2798C14.6058 14.2352 15.2386 13.1388 15.787 11.9998C15.2386 10.8609 14.6058 9.76448 13.894 8.71984C12.6331 8.62543 11.3669 8.62543 10.106 8.71984C9.39415 9.76448 8.76139 10.8609 8.21299 11.9998C8.76139 13.1388 9.39415 14.2352 10.106 15.2798C11.3669 15.3742 12.6331 15.3742 13.894 15.2798ZM15.178 15.1488C15.793 15.0688 16.378 14.9658 16.928 14.8448C16.7481 14.2806 16.5439 13.7244 16.316 13.1778C15.964 13.8499 15.5843 14.5071 15.178 15.1478V15.1488ZM8.82199 8.84984C8.20699 8.92984 7.62199 9.03284 7.07199 9.15384C7.24199 9.68984 7.44599 10.2478 7.68399 10.8208C8.036 10.1488 8.41566 9.49153 8.82199 8.85084V8.84984ZM7.07199 14.8438C7.62199 14.9648 8.20699 15.0668 8.82199 15.1478C8.41566 14.5071 8.036 13.8499 7.68399 13.1778C7.44599 13.7498 7.24199 14.3078 7.07199 14.8438ZM6.09399 14.5988C6.35499 13.7648 6.69399 12.8908 7.10399 11.9988C6.69399 11.1068 6.35499 10.2328 6.09399 9.39884C3.85199 10.0358 2.41699 11.0028 2.41699 11.9988C2.41699 12.9948 3.85199 13.9618 6.09399 14.5988ZM16.928 9.15384C16.378 9.03284 15.793 8.93084 15.178 8.84984C15.5843 9.49053 15.964 10.1478 16.316 10.8198C16.554 10.2478 16.758 9.68984 16.928 9.15384ZM17.906 9.39884C17.645 10.2328 17.306 11.1068 16.896 11.9988C17.306 12.8908 17.645 13.7648 17.906 14.5988C20.148 13.9618 21.583 12.9948 21.583 11.9988C21.583 11.0028 20.148 10.0358 17.906 9.39884ZM12 13.8798C11.7531 13.8798 11.5086 13.8312 11.2805 13.7367C11.0525 13.6423 10.8452 13.5038 10.6706 13.3292C10.4961 13.1546 10.3576 12.9474 10.2631 12.7193C10.1686 12.4912 10.12 12.2467 10.12 11.9998C10.12 11.753 10.1686 11.5085 10.2631 11.2804C10.3576 11.0523 10.4961 10.8451 10.6706 10.6705C10.8452 10.4959 11.0525 10.3574 11.2805 10.2629C11.5086 10.1685 11.7531 10.1198 12 10.1198C12.4986 10.1198 12.9768 10.3179 13.3294 10.6705C13.6819 11.023 13.88 11.5012 13.88 11.9998C13.88 12.4984 13.6819 12.9766 13.3294 13.3292C12.9768 13.6818 12.4986 13.8798 12 13.8798Z" fill="#09121F"/>
</g>
<defs>
<clipPath id="clip0_11_48429">
<rect width="24" height="24" fill="white"/>
</clipPath>
</defs>
</svg>
